<?xml version="1.0" encoding="UTF-8" standalone="no"?>
<!DOCTYPE svg PUBLIC "-//W3C//DTD SVG 1.1//EN"
 "http://www.w3.org/Graphics/SVG/1.1/DTD/svg11.dtd">
<!-- Generated by graphviz version 2.43.0 (0)
 -->
<!-- Title: Engine/Source/Runtime/Components/Core/Active.h Pages: 1 -->
<svg width="1765pt" height="236pt"
 viewBox="0.00 0.00 1764.50 236.00" xmlns="http://www.w3.org/2000/svg" xmlns:xlink="http://www.w3.org/1999/xlink">
<g id="graph0" class="graph" transform="scale(1 1) rotate(0) translate(4 232)">
<title>Engine/Source/Runtime/Components/Core/Active.h</title>
<!-- Node1 -->
<g id="Node000001" class="node">
<title>Node1</title>
<g id="a_Node000001"><a xlink:title="エンティティの有効/無効フラグ。">
<polygon fill="#999999" stroke="#666666" points="921,-228 772,-228 772,-198 921,-198 921,-228"/>
<text text-anchor="start" x="780" y="-216" font-family="Helvetica,sans-Serif" font-size="10.00">Engine/Source/Runtime</text>
<text text-anchor="middle" x="846.5" y="-205" font-family="Helvetica,sans-Serif" font-size="10.00">/Components/Core/Active.h</text>
</a>
</g>
</g>
<!-- Node2 -->
<g id="Node000002" class="node">
<title>Node2</title>
<g id="a_Node000002"><a xlink:href="EntityBuilder_8h.html" target="_top" xlink:title="エンティティ生成を簡略化するヘルパークラス。">
<polygon fill="white" stroke="#666666" points="869.5,-162 723.5,-162 723.5,-132 869.5,-132 869.5,-162"/>
<text text-anchor="start" x="731.5" y="-150" font-family="Helvetica,sans-Serif" font-size="10.00">Engine/Source/Runtime</text>
<text text-anchor="middle" x="796.5" y="-139" font-family="Helvetica,sans-Serif" font-size="10.00">/ECS/Kernel/EntityBuilder.h</text>
</a>
</g>
</g>
<!-- Node1&#45;&gt;Node2 -->
<g id="edge1_Node000001_Node000002" class="edge">
<title>Node1&#45;&gt;Node2</title>
<g id="a_edge1_Node000001_Node000002"><a xlink:title=" ">
<path fill="none" stroke="#63b8ff" d="M829.16,-189.81C822,-180.64 813.9,-170.28 807.57,-162.16"/>
<polygon fill="#63b8ff" stroke="#63b8ff" points="826.49,-192.07 835.4,-197.8 832,-187.76 826.49,-192.07"/>
</a>
</g>
</g>
<!-- Node3 -->
<g id="Node000003" class="node">
<title>Node3</title>
<g id="a_Node000003"><a xlink:href="SpanEngine_8h.html" target="_top" xlink:title=" ">
<polygon fill="white" stroke="#666666" points="924,-96 769,-96 769,-77 924,-77 924,-96"/>
<text text-anchor="middle" x="846.5" y="-84" font-family="Helvetica,sans-Serif" font-size="10.00">Engine/Source/SpanEngine.h</text>
</a>
</g>
</g>
<!-- Node1&#45;&gt;Node3 -->
<g id="edge14_Node000001_Node000003" class="edge">
<title>Node1&#45;&gt;Node3</title>
<g id="a_edge14_Node000001_Node000003"><a xlink:title=" ">
<path fill="none" stroke="#63b8ff" d="M864.71,-189.55C870.26,-181.37 875.65,-171.73 878.5,-162 882.24,-149.2 882.59,-144.69 878.5,-132 873.95,-117.87 863.06,-104.44 855.25,-96.1"/>
<polygon fill="#63b8ff" stroke="#63b8ff" points="861.78,-187.64 858.73,-197.79 867.44,-191.75 861.78,-187.64"/>
</a>
</g>
</g>
<!-- Node2&#45;&gt;Node3 -->
<g id="edge2_Node000002_Node000003" class="edge">
<title>Node2&#45;&gt;Node3</title>
<g id="a_edge2_Node000002_Node000003"><a xlink:title=" ">
<path fill="none" stroke="#63b8ff" d="M815.23,-124.09C823.49,-114.42 832.73,-103.61 839.01,-96.27"/>
<polygon fill="#63b8ff" stroke="#63b8ff" points="812.44,-121.96 808.6,-131.84 817.76,-126.51 812.44,-121.96"/>
</a>
</g>
</g>
<!-- Node4 -->
<g id="Node000004" class="node">
<title>Node4</title>
<g id="a_Node000004"><a xlink:href="GuiManager_8cpp.html" target="_top" xlink:title=" ">
<polygon fill="white" stroke="#666666" points="117,-35.5 0,-35.5 0,-5.5 117,-5.5 117,-35.5"/>
<text text-anchor="start" x="8" y="-23.5" font-family="Helvetica,sans-Serif" font-size="10.00">Engine/Source/Editor</text>
<text text-anchor="middle" x="58.5" y="-12.5" font-family="Helvetica,sans-Serif" font-size="10.00">/GuiManager.cpp</text>
</a>
</g>
</g>
<!-- Node3&#45;&gt;Node4 -->
<g id="edge3_Node000003_Node000004" class="edge">
<title>Node3&#45;&gt;Node4</title>
<g id="a_edge3_Node000003_Node000004"><a xlink:title=" ">
<path fill="none" stroke="#63b8ff" d="M758.35,-86.31C621.75,-86.17 351.13,-80.3 125.5,-41 117.62,-39.63 109.35,-37.67 101.42,-35.51"/>
<polygon fill="#63b8ff" stroke="#63b8ff" points="758.75,-89.81 768.75,-86.31 758.75,-82.81 758.75,-89.81"/>
</a>
</g>
</g>
<!-- Node5 -->
<g id="Node000005" class="node">
<title>Node5</title>
<g id="a_Node000005"><a xlink:href="ImGuiUI_8cpp.html" target="_top" xlink:title=" ">
<polygon fill="white" stroke="#666666" points="252,-35.5 135,-35.5 135,-5.5 252,-5.5 252,-35.5"/>
<text text-anchor="start" x="143" y="-23.5" font-family="Helvetica,sans-Serif" font-size="10.00">Engine/Source/Editor</text>
<text text-anchor="middle" x="193.5" y="-12.5" font-family="Helvetica,sans-Serif" font-size="10.00">/ImGui/ImGuiUI.cpp</text>
</a>
</g>
</g>
<!-- Node3&#45;&gt;Node5 -->
<g id="edge4_Node000003_Node000005" class="edge">
<title>Node3&#45;&gt;Node5</title>
<g id="a_edge4_Node000003_Node000005"><a xlink:title=" ">
<path fill="none" stroke="#63b8ff" d="M758.58,-84.36C643.5,-81.62 435.94,-72.31 261.5,-41 253.64,-39.59 245.39,-37.64 237.45,-35.51"/>
<polygon fill="#63b8ff" stroke="#63b8ff" points="758.66,-87.87 768.74,-84.6 758.82,-80.87 758.66,-87.87"/>
</a>
</g>
</g>
<!-- Node6 -->
<g id="Node000006" class="node">
<title>Node6</title>
<g id="a_Node000006"><a xlink:href="HierarchyPanel_8cpp.html" target="_top" xlink:title=" ">
<polygon fill="white" stroke="#666666" points="422.5,-41 270.5,-41 270.5,0 422.5,0 422.5,-41"/>
<text text-anchor="start" x="278.5" y="-29" font-family="Helvetica,sans-Serif" font-size="10.00">Engine/Source/Editor</text>
<text text-anchor="start" x="278.5" y="-18" font-family="Helvetica,sans-Serif" font-size="10.00">/Panels/Hierarchy/Hierarchy</text>
<text text-anchor="middle" x="346.5" y="-7" font-family="Helvetica,sans-Serif" font-size="10.00">Panel.cpp</text>
</a>
</g>
</g>
<!-- Node3&#45;&gt;Node6 -->
<g id="edge5_Node000003_Node000006" class="edge">
<title>Node3&#45;&gt;Node6</title>
<g id="a_edge5_Node000003_Node000006"><a xlink:title=" ">
<path fill="none" stroke="#63b8ff" d="M758.83,-79.14C674.55,-72.31 543.78,-59.83 431.5,-41 428.66,-40.52 425.78,-40.01 422.87,-39.47"/>
<polygon fill="#63b8ff" stroke="#63b8ff" points="758.63,-82.63 768.87,-79.94 759.19,-75.66 758.63,-82.63"/>
</a>
</g>
</g>
<!-- Node7 -->
<g id="Node000007" class="node">
<title>Node7</title>
<g id="a_Node000007"><a xlink:href="InspectorPanel_8cpp.html" target="_top" xlink:title=" ">
<polygon fill="white" stroke="#666666" points="588,-41 441,-41 441,0 588,0 588,-41"/>
<text text-anchor="start" x="449" y="-29" font-family="Helvetica,sans-Serif" font-size="10.00">Engine/Source/Editor</text>
<text text-anchor="start" x="449" y="-18" font-family="Helvetica,sans-Serif" font-size="10.00">/Panels/Inspector/Inspector</text>
<text text-anchor="middle" x="514.5" y="-7" font-family="Helvetica,sans-Serif" font-size="10.00">Panel.cpp</text>
</a>
</g>
</g>
<!-- Node3&#45;&gt;Node7 -->
<g id="edge6_Node000003_Node000007" class="edge">
<title>Node3&#45;&gt;Node7</title>
<g id="a_edge6_Node000003_Node000007"><a xlink:title=" ">
<path fill="none" stroke="#63b8ff" d="M783.78,-75.25C733.32,-66.78 660.67,-54.05 597.5,-41 594.46,-40.37 591.35,-39.71 588.22,-39.04"/>
<polygon fill="#63b8ff" stroke="#63b8ff" points="783.44,-78.74 793.88,-76.94 784.59,-71.84 783.44,-78.74"/>
</a>
</g>
</g>
<!-- Node8 -->
<g id="Node000008" class="node">
<title>Node8</title>
<g id="a_Node000008"><a xlink:href="ProjectBrowserPanel_8cpp.html" target="_top" xlink:title="ProjectBrowserPanelの実装。">
<polygon fill="white" stroke="#666666" points="746.5,-41 606.5,-41 606.5,0 746.5,0 746.5,-41"/>
<text text-anchor="start" x="614.5" y="-29" font-family="Helvetica,sans-Serif" font-size="10.00">Engine/Source/Editor</text>
<text text-anchor="start" x="614.5" y="-18" font-family="Helvetica,sans-Serif" font-size="10.00">/Panels/ProjectBrowser</text>
<text text-anchor="middle" x="676.5" y="-7" font-family="Helvetica,sans-Serif" font-size="10.00">/ProjectBrowserPanel.cpp</text>
</a>
</g>
</g>
<!-- Node3&#45;&gt;Node8 -->
<g id="edge7_Node000003_Node000008" class="edge">
<title>Node3&#45;&gt;Node8</title>
<g id="a_edge7_Node000003_Node000008"><a xlink:title=" ">
<path fill="none" stroke="#63b8ff" d="M814.13,-73.32C789.91,-64.19 756.28,-51.53 728.32,-41.01"/>
<polygon fill="#63b8ff" stroke="#63b8ff" points="812.98,-76.62 823.57,-76.87 815.45,-70.07 812.98,-76.62"/>
</a>
</g>
</g>
<!-- Node9 -->
<g id="Node000009" class="node">
<title>Node9</title>
<g id="a_Node000009"><a xlink:href="SceneViewPanel_8cpp.html" target="_top" xlink:title=" ">
<polygon fill="white" stroke="#666666" points="928.5,-41 764.5,-41 764.5,0 928.5,0 928.5,-41"/>
<text text-anchor="start" x="772.5" y="-29" font-family="Helvetica,sans-Serif" font-size="10.00">Engine/Source/Editor</text>
<text text-anchor="start" x="772.5" y="-18" font-family="Helvetica,sans-Serif" font-size="10.00">/Panels/SceneView/SceneView</text>
<text text-anchor="middle" x="846.5" y="-7" font-family="Helvetica,sans-Serif" font-size="10.00">Panel.cpp</text>
</a>
</g>
</g>
<!-- Node3&#45;&gt;Node9 -->
<g id="edge8_Node000003_Node000009" class="edge">
<title>Node3&#45;&gt;Node9</title>
<g id="a_edge8_Node000003_Node000009"><a xlink:title=" ">
<path fill="none" stroke="#63b8ff" d="M846.5,-66.63C846.5,-58.56 846.5,-49.15 846.5,-41.01"/>
<polygon fill="#63b8ff" stroke="#63b8ff" points="843,-66.87 846.5,-76.87 850,-66.87 843,-66.87"/>
</a>
</g>
</g>
<!-- Node10 -->
<g id="Node000010" class="node">
<title>Node10</title>
<g id="a_Node000010"><a xlink:href="EditorFileSystem_8cpp.html" target="_top" xlink:title="EditorFileSystemの実装。">
<polygon fill="white" stroke="#666666" points="1094.5,-35.5 946.5,-35.5 946.5,-5.5 1094.5,-5.5 1094.5,-35.5"/>
<text text-anchor="start" x="954.5" y="-23.5" font-family="Helvetica,sans-Serif" font-size="10.00">Engine/Source/Editor</text>
<text text-anchor="middle" x="1020.5" y="-12.5" font-family="Helvetica,sans-Serif" font-size="10.00">/Utils/EditorFileSystem.cpp</text>
</a>
</g>
</g>
<!-- Node3&#45;&gt;Node10 -->
<g id="edge9_Node000003_Node000010" class="edge">
<title>Node3&#45;&gt;Node10</title>
<g id="a_edge9_Node000003_Node000010"><a xlink:title=" ">
<path fill="none" stroke="#63b8ff" d="M879.7,-73.29C908.92,-62.54 951.46,-46.9 982.12,-35.62"/>
<polygon fill="#63b8ff" stroke="#63b8ff" points="878.14,-70.13 869.97,-76.87 880.56,-76.7 878.14,-70.13"/>
</a>
</g>
</g>
<!-- Node11 -->
<g id="Node000011" class="node">
<title>Node11</title>
<g id="a_Node000011"><a xlink:href="Application_8cpp.html" target="_top" xlink:title=" ">
<polygon fill="white" stroke="#666666" points="1242.5,-35.5 1112.5,-35.5 1112.5,-5.5 1242.5,-5.5 1242.5,-35.5"/>
<text text-anchor="start" x="1120.5" y="-23.5" font-family="Helvetica,sans-Serif" font-size="10.00">Engine/Source/Runtime</text>
<text text-anchor="middle" x="1177.5" y="-12.5" font-family="Helvetica,sans-Serif" font-size="10.00">/Application.cpp</text>
</a>
</g>
</g>
<!-- Node3&#45;&gt;Node11 -->
<g id="edge10_Node000003_Node000011" class="edge">
<title>Node3&#45;&gt;Node11</title>
<g id="a_edge10_Node000003_Node000011"><a xlink:title=" ">
<path fill="none" stroke="#63b8ff" d="M914.3,-75.4C966.29,-67.25 1039.73,-54.9 1103.5,-41 1111.03,-39.36 1118.95,-37.46 1126.69,-35.51"/>
<polygon fill="#63b8ff" stroke="#63b8ff" points="913.53,-71.97 904.19,-76.97 914.61,-78.89 913.53,-71.97"/>
</a>
</g>
</g>
<!-- Node12 -->
<g id="Node000012" class="node">
<title>Node12</title>
<g id="a_Node000012"><a xlink:href="AssetRegistry_8cpp.html" target="_top" xlink:title="AssetRegistryの実装。">
<polygon fill="white" stroke="#666666" points="1414.5,-35.5 1260.5,-35.5 1260.5,-5.5 1414.5,-5.5 1414.5,-35.5"/>
<text text-anchor="start" x="1268.5" y="-23.5" font-family="Helvetica,sans-Serif" font-size="10.00">Engine/Source/Runtime</text>
<text text-anchor="middle" x="1337.5" y="-12.5" font-family="Helvetica,sans-Serif" font-size="10.00">/Resource/AssetRegistry.cpp</text>
</a>
</g>
</g>
<!-- Node3&#45;&gt;Node12 -->
<g id="edge11_Node000003_Node000012" class="edge">
<title>Node3&#45;&gt;Node12</title>
<g id="a_edge11_Node000003_Node000012"><a xlink:title=" ">
<path fill="none" stroke="#63b8ff" d="M934.19,-78.76C1016.49,-71.75 1142.84,-59.23 1251.5,-41 1260.71,-39.45 1270.41,-37.54 1279.85,-35.52"/>
<polygon fill="#63b8ff" stroke="#63b8ff" points="933.79,-75.28 924.12,-79.61 934.38,-82.25 933.79,-75.28"/>
</a>
</g>
</g>
<!-- Node13 -->
<g id="Node000013" class="node">
<title>Node13</title>
<g id="a_Node000013"><a xlink:href="AssetSerializer_8cpp.html" target="_top" xlink:title="AssetSerializerの実装。">
<polygon fill="white" stroke="#666666" points="1592.5,-35.5 1432.5,-35.5 1432.5,-5.5 1592.5,-5.5 1592.5,-35.5"/>
<text text-anchor="start" x="1440.5" y="-23.5" font-family="Helvetica,sans-Serif" font-size="10.00">Engine/Source/Runtime</text>
<text text-anchor="middle" x="1512.5" y="-12.5" font-family="Helvetica,sans-Serif" font-size="10.00">/Resource/AssetSerializer.cpp</text>
</a>
</g>
</g>
<!-- Node3&#45;&gt;Node13 -->
<g id="edge12_Node000003_Node000013" class="edge">
<title>Node3&#45;&gt;Node13</title>
<g id="a_edge12_Node000003_Node000013"><a xlink:title=" ">
<path fill="none" stroke="#63b8ff" d="M934.37,-82.51C1047.86,-77.79 1251.27,-66.38 1423.5,-41 1433.36,-39.55 1443.76,-37.63 1453.83,-35.56"/>
<polygon fill="#63b8ff" stroke="#63b8ff" points="934.19,-79.02 924.34,-82.92 934.48,-86.01 934.19,-79.02"/>
</a>
</g>
</g>
<!-- Node14 -->
<g id="Node000014" class="node">
<title>Node14</title>
<g id="a_Node000014"><a xlink:href="SceneSerializer_8cpp.html" target="_top" xlink:title="SceneSerializerの実装。">
<polygon fill="white" stroke="#666666" points="1756.5,-35.5 1610.5,-35.5 1610.5,-5.5 1756.5,-5.5 1756.5,-35.5"/>
<text text-anchor="start" x="1618.5" y="-23.5" font-family="Helvetica,sans-Serif" font-size="10.00">Engine/Source/Runtime</text>
<text text-anchor="middle" x="1683.5" y="-12.5" font-family="Helvetica,sans-Serif" font-size="10.00">/Scene/SceneSerializer.cpp</text>
</a>
</g>
</g>
<!-- Node3&#45;&gt;Node14 -->
<g id="edge13_Node000003_Node000014" class="edge">
<title>Node3&#45;&gt;Node14</title>
<g id="a_edge13_Node000003_Node000014"><a xlink:title=" ">
<path fill="none" stroke="#63b8ff" d="M934.46,-85.28C1075.82,-83.81 1361.98,-76.26 1601.5,-41 1610.91,-39.61 1620.83,-37.68 1630.39,-35.55"/>
<polygon fill="#63b8ff" stroke="#63b8ff" points="934.09,-81.78 924.12,-85.38 934.16,-88.78 934.09,-81.78"/>
</a>
</g>
</g>
</g>
</svg>
