<?xml version="1.0" encoding="UTF-8" standalone="no"?>
<!DOCTYPE svg PUBLIC "-//W3C//DTD SVG 1.1//EN"
 "http://www.w3.org/Graphics/SVG/1.1/DTD/svg11.dtd">
<!-- Generated by graphviz version 2.43.0 (0)
 -->
<!-- Title: Engine/Source/Runtime/Application.h Pages: 1 -->
<svg width="1601pt" height="247pt"
 viewBox="0.00 0.00 1601.00 247.00" xmlns="http://www.w3.org/2000/svg" xmlns:xlink="http://www.w3.org/1999/xlink">
<g id="graph0" class="graph" transform="scale(1 1) rotate(0) translate(4 243)">
<title>Engine/Source/Runtime/Application.h</title>
<!-- Node1 -->
<g id="Node000001" class="node">
<title>Node1</title>
<g id="a_Node000001"><a xlink:title="エンジンのメインループとライフサイクル管理。">
<polygon fill="#999999" stroke="#666666" points="459,-239 329,-239 329,-209 459,-209 459,-239"/>
<text text-anchor="start" x="337" y="-227" font-family="Helvetica,sans-Serif" font-size="10.00">Engine/Source/Runtime</text>
<text text-anchor="middle" x="394" y="-216" font-family="Helvetica,sans-Serif" font-size="10.00">/Application.h</text>
</a>
</g>
</g>
<!-- Node2 -->
<g id="Node000002" class="node">
<title>Node2</title>
<g id="a_Node000002"><a xlink:href="FileDialog_8cpp.html" target="_top" xlink:title="FileDialogの実装。">
<polygon fill="white" stroke="#666666" points="182.5,-167.5 65.5,-167.5 65.5,-137.5 182.5,-137.5 182.5,-167.5"/>
<text text-anchor="start" x="73.5" y="-155.5" font-family="Helvetica,sans-Serif" font-size="10.00">Engine/Source/Editor</text>
<text text-anchor="middle" x="124" y="-144.5" font-family="Helvetica,sans-Serif" font-size="10.00">/Utils/FileDialog.cpp</text>
</a>
</g>
</g>
<!-- Node1&#45;&gt;Node2 -->
<g id="edge1_Node000001_Node000002" class="edge">
<title>Node1&#45;&gt;Node2</title>
<g id="a_edge1_Node000001_Node000002"><a xlink:title=" ">
<path fill="none" stroke="#63b8ff" d="M327.92,-206.45C289.65,-196.81 240.57,-184.35 197,-173 190.27,-171.25 183.2,-169.39 176.22,-167.53"/>
<polygon fill="#63b8ff" stroke="#63b8ff" points="327.36,-209.91 337.91,-208.96 329.07,-203.13 327.36,-209.91"/>
</a>
</g>
</g>
<!-- Node3 -->
<g id="Node000003" class="node">
<title>Node3</title>
<g id="a_Node000003"><a xlink:href="Application_8cpp.html" target="_top" xlink:title=" ">
<polygon fill="white" stroke="#666666" points="130,-35.5 0,-35.5 0,-5.5 130,-5.5 130,-35.5"/>
<text text-anchor="start" x="8" y="-23.5" font-family="Helvetica,sans-Serif" font-size="10.00">Engine/Source/Runtime</text>
<text text-anchor="middle" x="65" y="-12.5" font-family="Helvetica,sans-Serif" font-size="10.00">/Application.cpp</text>
</a>
</g>
</g>
<!-- Node1&#45;&gt;Node3 -->
<g id="edge2_Node000001_Node000003" class="edge">
<title>Node1&#45;&gt;Node3</title>
<g id="a_edge2_Node000001_Node000003"><a xlink:title=" ">
<path fill="none" stroke="#63b8ff" d="M319.1,-208.79C289.87,-201.1 256.96,-189.65 230,-173 208.6,-159.79 209.14,-149.42 191,-132 153.44,-95.93 106.8,-56.27 82.14,-35.69"/>
<polygon fill="#63b8ff" stroke="#63b8ff" points="318.31,-212.2 328.86,-211.26 320.03,-205.42 318.31,-212.2"/>
</a>
</g>
</g>
<!-- Node4 -->
<g id="Node000004" class="node">
<title>Node4</title>
<g id="a_Node000004"><a xlink:href="EntryPoint_8h.html" target="_top" xlink:title="アプリケーションのエントリーポイント (main関数)。">
<polygon fill="white" stroke="#666666" points="369,-167.5 239,-167.5 239,-137.5 369,-137.5 369,-167.5"/>
<text text-anchor="start" x="247" y="-155.5" font-family="Helvetica,sans-Serif" font-size="10.00">Engine/Source/Runtime</text>
<text text-anchor="middle" x="304" y="-144.5" font-family="Helvetica,sans-Serif" font-size="10.00">/EntryPoint.h</text>
</a>
</g>
</g>
<!-- Node1&#45;&gt;Node4 -->
<g id="edge3_Node000001_Node000004" class="edge">
<title>Node1&#45;&gt;Node4</title>
<g id="a_edge3_Node000001_Node000004"><a xlink:title=" ">
<path fill="none" stroke="#63b8ff" d="M367.62,-202.63C353.01,-191.35 335.23,-177.62 322.19,-167.54"/>
<polygon fill="#63b8ff" stroke="#63b8ff" points="365.73,-205.59 375.79,-208.94 370.01,-200.05 365.73,-205.59"/>
</a>
</g>
</g>
<!-- Node5 -->
<g id="Node000005" class="node">
<title>Node5</title>
<g id="a_Node000005"><a xlink:href="CameraSystem_8h.html" target="_top" xlink:title="カメラ行列の更新とレンダラーへの適用。">
<polygon fill="white" stroke="#666666" points="581,-167.5 387,-167.5 387,-137.5 581,-137.5 581,-167.5"/>
<text text-anchor="start" x="395" y="-155.5" font-family="Helvetica,sans-Serif" font-size="10.00">Engine/Source/Runtime</text>
<text text-anchor="middle" x="484" y="-144.5" font-family="Helvetica,sans-Serif" font-size="10.00">/Systems/Graphics/CameraSystem.h</text>
</a>
</g>
</g>
<!-- Node1&#45;&gt;Node5 -->
<g id="edge4_Node000001_Node000005" class="edge">
<title>Node1&#45;&gt;Node5</title>
<g id="a_edge4_Node000001_Node000005"><a xlink:title=" ">
<path fill="none" stroke="#63b8ff" d="M420.38,-202.63C434.99,-191.35 452.77,-177.62 465.81,-167.54"/>
<polygon fill="#63b8ff" stroke="#63b8ff" points="417.99,-200.05 412.21,-208.94 422.27,-205.59 417.99,-200.05"/>
</a>
</g>
</g>
<!-- Node6 -->
<g id="Node000006" class="node">
<title>Node6</title>
<g id="a_Node000006"><a xlink:href="SpanEngine_8h.html" target="_top" xlink:title=" ">
<polygon fill="white" stroke="#666666" points="740.5,-96 585.5,-96 585.5,-77 740.5,-77 740.5,-96"/>
<text text-anchor="middle" x="663" y="-84" font-family="Helvetica,sans-Serif" font-size="10.00">Engine/Source/SpanEngine.h</text>
</a>
</g>
</g>
<!-- Node1&#45;&gt;Node6 -->
<g id="edge18_Node000001_Node000006" class="edge">
<title>Node1&#45;&gt;Node6</title>
<g id="a_edge18_Node000001_Node000006"><a xlink:title=" ">
<path fill="none" stroke="#63b8ff" d="M469.34,-214.8C507.69,-207.99 553.74,-195.58 590,-173 598.41,-167.76 639.38,-117.07 655.99,-96.3"/>
<polygon fill="#63b8ff" stroke="#63b8ff" points="468.54,-211.38 459.26,-216.49 469.7,-218.29 468.54,-211.38"/>
</a>
</g>
</g>
<!-- Node16 -->
<g id="Node000016" class="node">
<title>Node16</title>
<g id="a_Node000016"><a xlink:href="RenderingSystem_8h.html" target="_top" xlink:title="描画コマンド発行システム。">
<polygon fill="white" stroke="#666666" points="797,-173 637,-173 637,-132 797,-132 797,-173"/>
<text text-anchor="start" x="645" y="-161" font-family="Helvetica,sans-Serif" font-size="10.00">Engine/Source/Runtime</text>
<text text-anchor="start" x="645" y="-150" font-family="Helvetica,sans-Serif" font-size="10.00">/Systems/Graphics/Rendering</text>
<text text-anchor="middle" x="717" y="-139" font-family="Helvetica,sans-Serif" font-size="10.00">System.h</text>
</a>
</g>
</g>
<!-- Node1&#45;&gt;Node16 -->
<g id="edge16_Node000001_Node000016" class="edge">
<title>Node1&#45;&gt;Node16</title>
<g id="a_edge16_Node000001_Node000016"><a xlink:title=" ">
<path fill="none" stroke="#63b8ff" d="M469.2,-206.82C519.49,-196 585.58,-181.78 636.86,-170.74"/>
<polygon fill="#63b8ff" stroke="#63b8ff" points="468.4,-203.41 459.36,-208.94 469.88,-210.25 468.4,-203.41"/>
</a>
</g>
</g>
<!-- Node5&#45;&gt;Node6 -->
<g id="edge5_Node000005_Node000006" class="edge">
<title>Node5&#45;&gt;Node6</title>
<g id="a_edge5_Node000005_Node000006"><a xlink:title=" ">
<path fill="none" stroke="#63b8ff" d="M532.73,-134.08C567.28,-121.73 612.13,-105.69 639.18,-96.02"/>
<polygon fill="#63b8ff" stroke="#63b8ff" points="531.52,-130.79 523.28,-137.45 533.88,-137.38 531.52,-130.79"/>
</a>
</g>
</g>
<!-- Node6&#45;&gt;Node3 -->
<g id="edge13_Node000006_Node000003" class="edge">
<title>Node6&#45;&gt;Node3</title>
<g id="a_edge13_Node000006_Node000003"><a xlink:title=" ">
<path fill="none" stroke="#63b8ff" d="M575.03,-82.67C470.44,-78.24 290.93,-67.27 139,-41 130.62,-39.55 121.81,-37.61 113.3,-35.51"/>
<polygon fill="#63b8ff" stroke="#63b8ff" points="575.09,-86.18 585.22,-83.09 575.38,-79.18 575.09,-86.18"/>
</a>
</g>
</g>
<!-- Node7 -->
<g id="Node000007" class="node">
<title>Node7</title>
<g id="a_Node000007"><a xlink:href="GuiManager_8cpp.html" target="_top" xlink:title=" ">
<polygon fill="white" stroke="#666666" points="265.5,-35.5 148.5,-35.5 148.5,-5.5 265.5,-5.5 265.5,-35.5"/>
<text text-anchor="start" x="156.5" y="-23.5" font-family="Helvetica,sans-Serif" font-size="10.00">Engine/Source/Editor</text>
<text text-anchor="middle" x="207" y="-12.5" font-family="Helvetica,sans-Serif" font-size="10.00">/GuiManager.cpp</text>
</a>
</g>
</g>
<!-- Node6&#45;&gt;Node7 -->
<g id="edge6_Node000006_Node000007" class="edge">
<title>Node6&#45;&gt;Node7</title>
<g id="a_edge6_Node000006_Node000007"><a xlink:title=" ">
<path fill="none" stroke="#63b8ff" d="M574.84,-79.69C495.56,-73.46 376.2,-61.56 274,-41 266.64,-39.52 258.91,-37.61 251.43,-35.57"/>
<polygon fill="#63b8ff" stroke="#63b8ff" points="575.03,-83.22 585.27,-80.5 575.57,-76.24 575.03,-83.22"/>
</a>
</g>
</g>
<!-- Node8 -->
<g id="Node000008" class="node">
<title>Node8</title>
<g id="a_Node000008"><a xlink:href="ImGuiUI_8cpp.html" target="_top" xlink:title=" ">
<polygon fill="white" stroke="#666666" points="400.5,-35.5 283.5,-35.5 283.5,-5.5 400.5,-5.5 400.5,-35.5"/>
<text text-anchor="start" x="291.5" y="-23.5" font-family="Helvetica,sans-Serif" font-size="10.00">Engine/Source/Editor</text>
<text text-anchor="middle" x="342" y="-12.5" font-family="Helvetica,sans-Serif" font-size="10.00">/ImGui/ImGuiUI.cpp</text>
</a>
</g>
</g>
<!-- Node6&#45;&gt;Node8 -->
<g id="edge7_Node000006_Node000008" class="edge">
<title>Node6&#45;&gt;Node8</title>
<g id="a_edge7_Node000006_Node000008"><a xlink:title=" ">
<path fill="none" stroke="#63b8ff" d="M594.42,-75.44C543.3,-67.45 471.93,-55.28 410,-41 403.06,-39.4 395.77,-37.52 388.65,-35.58"/>
<polygon fill="#63b8ff" stroke="#63b8ff" points="593.95,-78.91 604.37,-76.98 595.02,-71.99 593.95,-78.91"/>
</a>
</g>
</g>
<!-- Node9 -->
<g id="Node000009" class="node">
<title>Node9</title>
<g id="a_Node000009"><a xlink:href="HierarchyPanel_8cpp.html" target="_top" xlink:title=" ">
<polygon fill="white" stroke="#666666" points="571,-41 419,-41 419,0 571,0 571,-41"/>
<text text-anchor="start" x="427" y="-29" font-family="Helvetica,sans-Serif" font-size="10.00">Engine/Source/Editor</text>
<text text-anchor="start" x="427" y="-18" font-family="Helvetica,sans-Serif" font-size="10.00">/Panels/Hierarchy/Hierarchy</text>
<text text-anchor="middle" x="495" y="-7" font-family="Helvetica,sans-Serif" font-size="10.00">Panel.cpp</text>
</a>
</g>
</g>
<!-- Node6&#45;&gt;Node9 -->
<g id="edge8_Node000006_Node000009" class="edge">
<title>Node6&#45;&gt;Node9</title>
<g id="a_edge8_Node000006_Node000009"><a xlink:title=" ">
<path fill="none" stroke="#63b8ff" d="M630.7,-73.19C606.78,-64.08 573.71,-51.49 546.21,-41.01"/>
<polygon fill="#63b8ff" stroke="#63b8ff" points="629.75,-76.58 640.34,-76.87 632.24,-70.04 629.75,-76.58"/>
</a>
</g>
</g>
<!-- Node10 -->
<g id="Node000010" class="node">
<title>Node10</title>
<g id="a_Node000010"><a xlink:href="InspectorPanel_8cpp.html" target="_top" xlink:title=" ">
<polygon fill="white" stroke="#666666" points="736.5,-41 589.5,-41 589.5,0 736.5,0 736.5,-41"/>
<text text-anchor="start" x="597.5" y="-29" font-family="Helvetica,sans-Serif" font-size="10.00">Engine/Source/Editor</text>
<text text-anchor="start" x="597.5" y="-18" font-family="Helvetica,sans-Serif" font-size="10.00">/Panels/Inspector/Inspector</text>
<text text-anchor="middle" x="663" y="-7" font-family="Helvetica,sans-Serif" font-size="10.00">Panel.cpp</text>
</a>
</g>
</g>
<!-- Node6&#45;&gt;Node10 -->
<g id="edge9_Node000006_Node000010" class="edge">
<title>Node6&#45;&gt;Node10</title>
<g id="a_edge9_Node000006_Node000010"><a xlink:title=" ">
<path fill="none" stroke="#63b8ff" d="M663,-66.63C663,-58.56 663,-49.15 663,-41.01"/>
<polygon fill="#63b8ff" stroke="#63b8ff" points="659.5,-66.87 663,-76.87 666.5,-66.87 659.5,-66.87"/>
</a>
</g>
</g>
<!-- Node11 -->
<g id="Node000011" class="node">
<title>Node11</title>
<g id="a_Node000011"><a xlink:href="ProjectBrowserPanel_8cpp.html" target="_top" xlink:title="ProjectBrowserPanelの実装。">
<polygon fill="white" stroke="#666666" points="895,-41 755,-41 755,0 895,0 895,-41"/>
<text text-anchor="start" x="763" y="-29" font-family="Helvetica,sans-Serif" font-size="10.00">Engine/Source/Editor</text>
<text text-anchor="start" x="763" y="-18" font-family="Helvetica,sans-Serif" font-size="10.00">/Panels/ProjectBrowser</text>
<text text-anchor="middle" x="825" y="-7" font-family="Helvetica,sans-Serif" font-size="10.00">/ProjectBrowserPanel.cpp</text>
</a>
</g>
</g>
<!-- Node6&#45;&gt;Node11 -->
<g id="edge10_Node000006_Node000011" class="edge">
<title>Node6&#45;&gt;Node11</title>
<g id="a_edge10_Node000006_Node000011"><a xlink:title=" ">
<path fill="none" stroke="#63b8ff" d="M694.15,-73.19C717.21,-64.08 749.1,-51.49 775.62,-41.01"/>
<polygon fill="#63b8ff" stroke="#63b8ff" points="692.86,-69.94 684.85,-76.87 695.43,-76.45 692.86,-69.94"/>
</a>
</g>
</g>
<!-- Node12 -->
<g id="Node000012" class="node">
<title>Node12</title>
<g id="a_Node000012"><a xlink:href="SceneViewPanel_8cpp.html" target="_top" xlink:title=" ">
<polygon fill="white" stroke="#666666" points="1077,-41 913,-41 913,0 1077,0 1077,-41"/>
<text text-anchor="start" x="921" y="-29" font-family="Helvetica,sans-Serif" font-size="10.00">Engine/Source/Editor</text>
<text text-anchor="start" x="921" y="-18" font-family="Helvetica,sans-Serif" font-size="10.00">/Panels/SceneView/SceneView</text>
<text text-anchor="middle" x="995" y="-7" font-family="Helvetica,sans-Serif" font-size="10.00">Panel.cpp</text>
</a>
</g>
</g>
<!-- Node6&#45;&gt;Node12 -->
<g id="edge11_Node000006_Node000012" class="edge">
<title>Node6&#45;&gt;Node12</title>
<g id="a_edge11_Node000006_Node000012"><a xlink:title=" ">
<path fill="none" stroke="#63b8ff" d="M721.62,-75.16C770.48,-66.42 841.87,-53.39 904,-41 906.85,-40.43 909.75,-39.85 912.68,-39.25"/>
<polygon fill="#63b8ff" stroke="#63b8ff" points="720.78,-71.75 711.55,-76.96 722.01,-78.64 720.78,-71.75"/>
</a>
</g>
</g>
<!-- Node13 -->
<g id="Node000013" class="node">
<title>Node13</title>
<g id="a_Node000013"><a xlink:href="EditorFileSystem_8cpp.html" target="_top" xlink:title="EditorFileSystemの実装。">
<polygon fill="white" stroke="#666666" points="1243,-35.5 1095,-35.5 1095,-5.5 1243,-5.5 1243,-35.5"/>
<text text-anchor="start" x="1103" y="-23.5" font-family="Helvetica,sans-Serif" font-size="10.00">Engine/Source/Editor</text>
<text text-anchor="middle" x="1169" y="-12.5" font-family="Helvetica,sans-Serif" font-size="10.00">/Utils/EditorFileSystem.cpp</text>
</a>
</g>
</g>
<!-- Node6&#45;&gt;Node13 -->
<g id="edge12_Node000006_Node000013" class="edge">
<title>Node6&#45;&gt;Node13</title>
<g id="a_edge12_Node000006_Node000013"><a xlink:title=" ">
<path fill="none" stroke="#63b8ff" d="M750.81,-79.5C836.67,-72.88 970.91,-60.49 1086,-41 1094.9,-39.49 1104.27,-37.6 1113.39,-35.58"/>
<polygon fill="#63b8ff" stroke="#63b8ff" points="750.29,-76.03 740.59,-80.28 750.82,-83.01 750.29,-76.03"/>
</a>
</g>
</g>
<!-- Node14 -->
<g id="Node000014" class="node">
<title>Node14</title>
<g id="a_Node000014"><a xlink:href="AssetRegistry_8cpp.html" target="_top" xlink:title="AssetRegistryの実装。">
<polygon fill="white" stroke="#666666" points="1415,-35.5 1261,-35.5 1261,-5.5 1415,-5.5 1415,-35.5"/>
<text text-anchor="start" x="1269" y="-23.5" font-family="Helvetica,sans-Serif" font-size="10.00">Engine/Source/Runtime</text>
<text text-anchor="middle" x="1338" y="-12.5" font-family="Helvetica,sans-Serif" font-size="10.00">/Resource/AssetRegistry.cpp</text>
</a>
</g>
</g>
<!-- Node6&#45;&gt;Node14 -->
<g id="edge14_Node000006_Node000014" class="edge">
<title>Node6&#45;&gt;Node14</title>
<g id="a_edge14_Node000006_Node000014"><a xlink:title=" ">
<path fill="none" stroke="#63b8ff" d="M750.79,-82.91C866.28,-78.58 1075.3,-67.56 1252,-41 1261.54,-39.57 1271.59,-37.66 1281.32,-35.59"/>
<polygon fill="#63b8ff" stroke="#63b8ff" points="750.46,-79.42 740.59,-83.28 750.71,-86.41 750.46,-79.42"/>
</a>
</g>
</g>
<!-- Node15 -->
<g id="Node000015" class="node">
<title>Node15</title>
<g id="a_Node000015"><a xlink:href="AssetSerializer_8cpp.html" target="_top" xlink:title="AssetSerializerの実装。">
<polygon fill="white" stroke="#666666" points="1593,-35.5 1433,-35.5 1433,-5.5 1593,-5.5 1593,-35.5"/>
<text text-anchor="start" x="1441" y="-23.5" font-family="Helvetica,sans-Serif" font-size="10.00">Engine/Source/Runtime</text>
<text text-anchor="middle" x="1513" y="-12.5" font-family="Helvetica,sans-Serif" font-size="10.00">/Resource/AssetSerializer.cpp</text>
</a>
</g>
</g>
<!-- Node6&#45;&gt;Node15 -->
<g id="edge15_Node000006_Node000015" class="edge">
<title>Node6&#45;&gt;Node15</title>
<g id="a_edge15_Node000006_Node000015"><a xlink:title=" ">
<path fill="none" stroke="#63b8ff" d="M751.02,-84.84C893.21,-82.76 1181.95,-74.38 1424,-41 1434.19,-39.6 1444.94,-37.65 1455.31,-35.52"/>
<polygon fill="#63b8ff" stroke="#63b8ff" points="750.58,-81.34 740.63,-84.98 750.68,-88.34 750.58,-81.34"/>
</a>
</g>
</g>
<!-- Node16&#45;&gt;Node6 -->
<g id="edge17_Node000016_Node000006" class="edge">
<title>Node16&#45;&gt;Node6</title>
<g id="a_edge17_Node000016_Node000006"><a xlink:title=" ">
<path fill="none" stroke="#63b8ff" d="M693.9,-124.13C685.45,-114.11 676.48,-103.47 670.39,-96.26"/>
<polygon fill="#63b8ff" stroke="#63b8ff" points="691.38,-126.56 700.5,-131.95 696.73,-122.05 691.38,-126.56"/>
</a>
</g>
</g>
</g>
</svg>
