<?xml version="1.0" encoding="UTF-8" standalone="no"?>
<!DOCTYPE svg PUBLIC "-//W3C//DTD SVG 1.1//EN"
 "http://www.w3.org/Graphics/SVG/1.1/DTD/svg11.dtd">
<!-- Generated by graphviz version 2.43.0 (0)
 -->
<!-- Title: Engine/Source/Runtime/Resource/AssetManager.cpp Pages: 1 -->
<svg width="2869pt" height="335pt"
 viewBox="0.00 0.00 2869.00 335.00" xmlns="http://www.w3.org/2000/svg" xmlns:xlink="http://www.w3.org/1999/xlink">
<g id="graph0" class="graph" transform="scale(1 1) rotate(0) translate(4 331)">
<title>Engine/Source/Runtime/Resource/AssetManager.cpp</title>
<!-- Node1 -->
<g id="Node000001" class="node">
<title>Node1</title>
<g id="a_Node000001"><a xlink:title="AssetManagerの実装。">
<polygon fill="#999999" stroke="#666666" points="1390,-327 1233,-327 1233,-297 1390,-297 1390,-327"/>
<text text-anchor="start" x="1241" y="-315" font-family="Helvetica,sans-Serif" font-size="10.00">Engine/Source/Runtime</text>
<text text-anchor="middle" x="1311.5" y="-304" font-family="Helvetica,sans-Serif" font-size="10.00">/Resource/AssetManager.cpp</text>
</a>
</g>
</g>
<!-- Node2 -->
<g id="Node000002" class="node">
<title>Node2</title>
<g id="a_Node000002"><a xlink:href="AssetManager_8h.html" target="_top" xlink:title="エンジン全域のアセットライフサイクルを管理するシングルトン。">
<polygon fill="white" stroke="#666666" points="1243,-261 1148,-261 1148,-242 1243,-242 1243,-261"/>
<text text-anchor="middle" x="1195.5" y="-249" font-family="Helvetica,sans-Serif" font-size="10.00">AssetManager.h</text>
</a>
</g>
</g>
<!-- Node1&#45;&gt;Node2 -->
<g id="edge1_Node000001_Node000002" class="edge">
<title>Node1&#45;&gt;Node2</title>
<g id="a_edge1_Node000001_Node000002"><a xlink:title=" ">
<path fill="none" stroke="#63b8ff" d="M1283.72,-296.99C1264.88,-287.49 1240.15,-275.02 1221.66,-265.69"/>
<polygon fill="#63b8ff" stroke="#63b8ff" points="1223.14,-262.52 1212.63,-261.14 1219.98,-268.77 1223.14,-262.52"/>
</a>
</g>
</g>
<!-- Node48 -->
<g id="Node000048" class="node">
<title>Node48</title>
<g id="a_Node000048"><a xlink:href="AssetRegistry_8h.html" target="_top" xlink:title=" ">
<polygon fill="white" stroke="#666666" points="1470.5,-261 1378.5,-261 1378.5,-242 1470.5,-242 1470.5,-261"/>
<text text-anchor="middle" x="1424.5" y="-249" font-family="Helvetica,sans-Serif" font-size="10.00">AssetRegistry.h</text>
</a>
</g>
</g>
<!-- Node1&#45;&gt;Node48 -->
<g id="edge57_Node000001_Node000048" class="edge">
<title>Node1&#45;&gt;Node48</title>
<g id="a_edge57_Node000001_Node000048"><a xlink:title=" ">
<path fill="none" stroke="#63b8ff" d="M1338.57,-296.99C1356.75,-287.58 1380.57,-275.24 1398.52,-265.95"/>
<polygon fill="#63b8ff" stroke="#63b8ff" points="1400.54,-268.84 1407.81,-261.14 1397.32,-262.63 1400.54,-268.84"/>
</a>
</g>
</g>
<!-- Node49 -->
<g id="Node000049" class="node">
<title>Node49</title>
<g id="a_Node000049"><a xlink:href="AssetSerializer_8h.html" target="_top" xlink:title=".metaファイルの読み書きを担当。">
<polygon fill="white" stroke="#666666" points="1360.5,-261 1262.5,-261 1262.5,-242 1360.5,-242 1360.5,-261"/>
<text text-anchor="middle" x="1311.5" y="-249" font-family="Helvetica,sans-Serif" font-size="10.00">AssetSerializer.h</text>
</a>
</g>
</g>
<!-- Node1&#45;&gt;Node49 -->
<g id="edge60_Node000001_Node000049" class="edge">
<title>Node1&#45;&gt;Node49</title>
<g id="a_edge60_Node000001_Node000049"><a xlink:title=" ">
<path fill="none" stroke="#63b8ff" d="M1311.5,-296.84C1311.5,-289.21 1311.5,-279.7 1311.5,-271.45"/>
<polygon fill="#63b8ff" stroke="#63b8ff" points="1315,-271.27 1311.5,-261.27 1308,-271.27 1315,-271.27"/>
</a>
</g>
</g>
<!-- Node3 -->
<g id="Node000003" class="node">
<title>Node3</title>
<g id="a_Node000003"><a xlink:href="Texture_8h.html" target="_top" xlink:title="画像読み込みとテクスチャリソース管理。">
<polygon fill="white" stroke="#666666" points="1504,-140 1347,-140 1347,-110 1504,-110 1504,-140"/>
<text text-anchor="start" x="1355" y="-128" font-family="Helvetica,sans-Serif" font-size="10.00">Runtime/Graphics/Resources</text>
<text text-anchor="middle" x="1425.5" y="-117" font-family="Helvetica,sans-Serif" font-size="10.00">/Texture.h</text>
</a>
</g>
</g>
<!-- Node2&#45;&gt;Node3 -->
<g id="edge2_Node000002_Node000003" class="edge">
<title>Node2&#45;&gt;Node3</title>
<g id="a_edge2_Node000002_Node000003"><a xlink:title=" ">
<path fill="none" stroke="#63b8ff" d="M1201.6,-241.79C1212.86,-226.32 1238.44,-193.99 1267.5,-176 1291.25,-161.29 1319.71,-150.55 1345.9,-142.88"/>
<polygon fill="#63b8ff" stroke="#63b8ff" points="1347.13,-146.17 1355.81,-140.09 1345.23,-139.43 1347.13,-146.17"/>
</a>
</g>
</g>
<!-- Node40 -->
<g id="Node000040" class="node">
<title>Node40</title>
<g id="a_Node000040"><a xlink:href="Mesh_8h.html" target="_top" xlink:title="3Dモデルの形状データ (頂点バッファ) 管理。">
<polygon fill="white" stroke="#666666" points="917,-140 760,-140 760,-110 917,-110 917,-140"/>
<text text-anchor="start" x="768" y="-128" font-family="Helvetica,sans-Serif" font-size="10.00">Runtime/Graphics/Resources</text>
<text text-anchor="middle" x="838.5" y="-117" font-family="Helvetica,sans-Serif" font-size="10.00">/Mesh.h</text>
</a>
</g>
</g>
<!-- Node2&#45;&gt;Node40 -->
<g id="edge40_Node000002_Node000040" class="edge">
<title>Node2&#45;&gt;Node40</title>
<g id="a_edge40_Node000002_Node000040"><a xlink:title=" ">
<path fill="none" stroke="#63b8ff" d="M1147.68,-250.66C1064.77,-249.92 899.18,-243.63 857.5,-206 842.16,-192.15 838.09,-168.38 837.46,-150.34"/>
<polygon fill="#63b8ff" stroke="#63b8ff" points="840.96,-150.23 837.42,-140.24 833.96,-150.25 840.96,-150.23"/>
</a>
</g>
</g>
<!-- Node43 -->
<g id="Node000043" class="node">
<title>Node43</title>
<g id="a_Node000043"><a xlink:href="Material_8h.html" target="_top" xlink:title="PBRマテリアルのパラメータ管理。">
<polygon fill="white" stroke="#666666" points="1220,-206 1063,-206 1063,-176 1220,-176 1220,-206"/>
<text text-anchor="start" x="1071" y="-194" font-family="Helvetica,sans-Serif" font-size="10.00">Runtime/Graphics/Resources</text>
<text text-anchor="middle" x="1141.5" y="-183" font-family="Helvetica,sans-Serif" font-size="10.00">/Material.h</text>
</a>
</g>
</g>
<!-- Node2&#45;&gt;Node43 -->
<g id="edge46_Node000002_Node000043" class="edge">
<title>Node2&#45;&gt;Node43</title>
<g id="a_edge46_Node000002_Node000043"><a xlink:title=" ">
<path fill="none" stroke="#63b8ff" d="M1187.53,-241.87C1180.68,-234.44 1170.5,-223.42 1161.45,-213.62"/>
<polygon fill="#63b8ff" stroke="#63b8ff" points="1163.88,-211.09 1154.53,-206.11 1158.74,-215.84 1163.88,-211.09"/>
</a>
</g>
</g>
<!-- Node46 -->
<g id="Node000046" class="node">
<title>Node46</title>
<g id="a_Node000046"><a xlink:href="ModelLoader_8h.html" target="_top" xlink:title="3Dモデルファイル(.fbx, .obj)のインポート処理。">
<polygon fill="white" stroke="#666666" points="1044.5,-200.5 866.5,-200.5 866.5,-181.5 1044.5,-181.5 1044.5,-200.5"/>
<text text-anchor="middle" x="955.5" y="-188.5" font-family="Helvetica,sans-Serif" font-size="10.00">Runtime/Graphics/ModelLoader.h</text>
</a>
</g>
</g>
<!-- Node2&#45;&gt;Node46 -->
<g id="edge54_Node000002_Node000046" class="edge">
<title>Node2&#45;&gt;Node46</title>
<g id="a_edge54_Node000002_Node000046"><a xlink:title=" ">
<path fill="none" stroke="#63b8ff" d="M1160.6,-241.99C1118.21,-231.66 1046.63,-214.21 1000.23,-202.9"/>
<polygon fill="#63b8ff" stroke="#63b8ff" points="1000.98,-199.48 990.44,-200.52 999.33,-206.29 1000.98,-199.48"/>
</a>
</g>
</g>
<!-- Node47 -->
<g id="Node000047" class="node">
<title>Node47</title>
<g id="a_Node000047"><a xlink:href="AssetMetadata_8h.html" target="_top" xlink:title="アセットのメタデータを定義する構造体。">
<polygon fill="white" stroke="#666666" points="1468,-200.5 1277,-200.5 1277,-181.5 1468,-181.5 1468,-200.5"/>
<text text-anchor="middle" x="1372.5" y="-188.5" font-family="Helvetica,sans-Serif" font-size="10.00">Runtime/Resource/AssetMetadata.h</text>
</a>
</g>
</g>
<!-- Node2&#45;&gt;Node47 -->
<g id="edge56_Node000002_Node000047" class="edge">
<title>Node2&#45;&gt;Node47</title>
<g id="a_edge56_Node000002_Node000047"><a xlink:title=" ">
<path fill="none" stroke="#63b8ff" d="M1221.24,-241.99C1251.78,-231.9 1302.87,-215.01 1337.12,-203.69"/>
<polygon fill="#63b8ff" stroke="#63b8ff" points="1338.34,-206.98 1346.73,-200.52 1336.14,-200.33 1338.34,-206.98"/>
</a>
</g>
</g>
<!-- Node4 -->
<g id="Node000004" class="node">
<title>Node4</title>
<g id="a_Node000004"><a xlink:href="CoreMinimal_8h.html" target="_top" xlink:title="エンジンの標準インクルードファイル。">
<polygon fill="white" stroke="#666666" points="1401,-74 1288,-74 1288,-55 1401,-55 1401,-74"/>
<text text-anchor="middle" x="1344.5" y="-62" font-family="Helvetica,sans-Serif" font-size="10.00">Core/CoreMinimal.h</text>
</a>
</g>
</g>
<!-- Node3&#45;&gt;Node4 -->
<g id="edge3_Node000003_Node000004" class="edge">
<title>Node3&#45;&gt;Node4</title>
<g id="a_edge3_Node000003_Node000004"><a xlink:title=" ">
<path fill="none" stroke="#63b8ff" d="M1405.89,-109.84C1393.53,-100.91 1377.6,-89.41 1365.07,-80.35"/>
<polygon fill="#63b8ff" stroke="#63b8ff" points="1366.79,-77.28 1356.64,-74.27 1362.7,-82.96 1366.79,-77.28"/>
</a>
</g>
</g>
<!-- Node5 -->
<g id="Node000005" class="node">
<title>Node5</title>
<g id="a_Node000005"><a xlink:title=" ">
<polygon fill="#e0e0e0" stroke="#999999" points="2301.5,-19 2231.5,-19 2231.5,0 2301.5,0 2301.5,-19"/>
<text text-anchor="middle" x="2266.5" y="-7" font-family="Helvetica,sans-Serif" font-size="10.00">Windows.h</text>
</a>
</g>
</g>
<!-- Node4&#45;&gt;Node5 -->
<g id="edge4_Node000004_Node000005" class="edge">
<title>Node4&#45;&gt;Node5</title>
<g id="a_edge4_Node000004_Node000005"><a xlink:title=" ">
<path fill="none" stroke="#63b8ff" d="M1401.23,-63.37C1539.72,-62.47 1906.18,-56.54 2220.8,-19.03"/>
<polygon fill="#63b8ff" stroke="#63b8ff" points="2221.52,-22.47 2231.03,-17.8 2220.68,-15.52 2221.52,-22.47"/>
</a>
</g>
</g>
<!-- Node6 -->
<g id="Node000006" class="node">
<title>Node6</title>
<g id="a_Node000006"><a xlink:title=" ">
<polygon fill="#e0e0e0" stroke="#999999" points="2361,-19 2320,-19 2320,0 2361,0 2361,-19"/>
<text text-anchor="middle" x="2340.5" y="-7" font-family="Helvetica,sans-Serif" font-size="10.00">wrl.h</text>
</a>
</g>
</g>
<!-- Node4&#45;&gt;Node6 -->
<g id="edge5_Node000004_Node000006" class="edge">
<title>Node4&#45;&gt;Node6</title>
<g id="a_edge5_Node000004_Node000006"><a xlink:title=" ">
<path fill="none" stroke="#63b8ff" d="M1401.22,-62.6C1577.38,-59.54 2114.37,-48.14 2309.82,-18.59"/>
<polygon fill="#63b8ff" stroke="#63b8ff" points="2310.65,-22 2319.98,-16.99 2309.56,-15.09 2310.65,-22"/>
</a>
</g>
</g>
<!-- Node7 -->
<g id="Node000007" class="node">
<title>Node7</title>
<g id="a_Node000007"><a xlink:title=" ">
<polygon fill="#e0e0e0" stroke="#999999" points="2450,-19 2379,-19 2379,0 2450,0 2450,-19"/>
<text text-anchor="middle" x="2414.5" y="-7" font-family="Helvetica,sans-Serif" font-size="10.00">wrl/client.h</text>
</a>
</g>
</g>
<!-- Node4&#45;&gt;Node7 -->
<g id="edge6_Node000004_Node000007" class="edge">
<title>Node4&#45;&gt;Node7</title>
<g id="a_edge6_Node000004_Node000007"><a xlink:title=" ">
<path fill="none" stroke="#63b8ff" d="M1401.18,-63.97C1555.27,-64.61 1994.82,-62.29 2368.35,-19.08"/>
<polygon fill="#63b8ff" stroke="#63b8ff" points="2369.02,-22.53 2378.55,-17.89 2368.21,-15.58 2369.02,-22.53"/>
</a>
</g>
</g>
<!-- Node8 -->
<g id="Node000008" class="node">
<title>Node8</title>
<g id="a_Node000008"><a xlink:title=" ">
<polygon fill="#e0e0e0" stroke="#999999" points="2518.5,-19 2468.5,-19 2468.5,0 2518.5,0 2518.5,-19"/>
<text text-anchor="middle" x="2493.5" y="-7" font-family="Helvetica,sans-Serif" font-size="10.00">cstdint</text>
</a>
</g>
</g>
<!-- Node4&#45;&gt;Node8 -->
<g id="edge7_Node000004_Node000008" class="edge">
<title>Node4&#45;&gt;Node8</title>
<g id="a_edge7_Node000004_Node000008"><a xlink:title=" ">
<path fill="none" stroke="#63b8ff" d="M1401.12,-62.77C1595,-60.06 2232.22,-49.11 2458.24,-18.81"/>
<polygon fill="#63b8ff" stroke="#63b8ff" points="2458.94,-22.24 2468.36,-17.39 2457.98,-15.31 2458.94,-22.24"/>
</a>
</g>
</g>
<!-- Node9 -->
<g id="Node000009" class="node">
<title>Node9</title>
<g id="a_Node000009"><a xlink:title=" ">
<polygon fill="#e0e0e0" stroke="#999999" points="2596.5,-19 2536.5,-19 2536.5,0 2596.5,0 2596.5,-19"/>
<text text-anchor="middle" x="2566.5" y="-7" font-family="Helvetica,sans-Serif" font-size="10.00">iostream</text>
</a>
</g>
</g>
<!-- Node4&#45;&gt;Node9 -->
<g id="edge8_Node000004_Node000009" class="edge">
<title>Node4&#45;&gt;Node9</title>
<g id="a_edge8_Node000004_Node000009"><a xlink:title=" ">
<path fill="none" stroke="#63b8ff" d="M1401.32,-62.7C1603.17,-59.63 2285.92,-47.48 2526.28,-18.86"/>
<polygon fill="#63b8ff" stroke="#63b8ff" points="2526.86,-22.32 2536.36,-17.62 2526,-15.37 2526.86,-22.32"/>
</a>
</g>
</g>
<!-- Node10 -->
<g id="Node000010" class="node">
<title>Node10</title>
<g id="a_Node000010"><a xlink:title=" ">
<polygon fill="#e0e0e0" stroke="#999999" points="2668,-19 2615,-19 2615,0 2668,0 2668,-19"/>
<text text-anchor="middle" x="2641.5" y="-7" font-family="Helvetica,sans-Serif" font-size="10.00">string.h</text>
</a>
</g>
</g>
<!-- Node4&#45;&gt;Node10 -->
<g id="edge9_Node000004_Node000010" class="edge">
<title>Node4&#45;&gt;Node10</title>
<g id="a_edge9_Node000004_Node000010"><a xlink:title=" ">
<path fill="none" stroke="#63b8ff" d="M1401.01,-62.98C1611.14,-60.83 2347.98,-51.2 2604.84,-18.72"/>
<polygon fill="#63b8ff" stroke="#63b8ff" points="2605.41,-22.17 2614.87,-17.4 2604.5,-15.23 2605.41,-22.17"/>
</a>
</g>
</g>
<!-- Node11 -->
<g id="Node000011" class="node">
<title>Node11</title>
<g id="a_Node000011"><a xlink:title=" ">
<polygon fill="#e0e0e0" stroke="#999999" points="2730.5,-19 2686.5,-19 2686.5,0 2730.5,0 2730.5,-19"/>
<text text-anchor="middle" x="2708.5" y="-7" font-family="Helvetica,sans-Serif" font-size="10.00">string</text>
</a>
</g>
</g>
<!-- Node4&#45;&gt;Node11 -->
<g id="edge10_Node000004_Node000011" class="edge">
<title>Node4&#45;&gt;Node11</title>
<g id="a_edge10_Node000004_Node000011"><a xlink:title=" ">
<path fill="none" stroke="#63b8ff" d="M1401.23,-63.37C1619.41,-62.61 2405.36,-57.32 2676.1,-18.77"/>
<polygon fill="#63b8ff" stroke="#63b8ff" points="2676.9,-22.18 2686.28,-17.26 2675.88,-15.26 2676.9,-22.18"/>
</a>
</g>
</g>
<!-- Node12 -->
<g id="Node000012" class="node">
<title>Node12</title>
<g id="a_Node000012"><a xlink:title=" ">
<polygon fill="#e0e0e0" stroke="#999999" points="2796,-19 2749,-19 2749,0 2796,0 2796,-19"/>
<text text-anchor="middle" x="2772.5" y="-7" font-family="Helvetica,sans-Serif" font-size="10.00">vector</text>
</a>
</g>
</g>
<!-- Node4&#45;&gt;Node12 -->
<g id="edge11_Node000004_Node000012" class="edge">
<title>Node4&#45;&gt;Node12</title>
<g id="a_edge11_Node000004_Node000012"><a xlink:title=" ">
<path fill="none" stroke="#63b8ff" d="M1401.12,-63.36C1625.58,-62.53 2454.02,-57.01 2738.54,-18.7"/>
<polygon fill="#63b8ff" stroke="#63b8ff" points="2739.41,-22.11 2748.83,-17.26 2738.45,-15.18 2739.41,-22.11"/>
</a>
</g>
</g>
<!-- Node13 -->
<g id="Node000013" class="node">
<title>Node13</title>
<g id="a_Node000013"><a xlink:title=" ">
<polygon fill="#e0e0e0" stroke="#999999" points="2861,-19 2814,-19 2814,0 2861,0 2861,-19"/>
<text text-anchor="middle" x="2837.5" y="-7" font-family="Helvetica,sans-Serif" font-size="10.00">deque</text>
</a>
</g>
</g>
<!-- Node4&#45;&gt;Node13 -->
<g id="edge12_Node000004_Node000013" class="edge">
<title>Node4&#45;&gt;Node13</title>
<g id="a_edge12_Node000004_Node000013"><a xlink:title=" ">
<path fill="none" stroke="#63b8ff" d="M1401.01,-63.51C1632.05,-63.27 2506.27,-59.75 2803.53,-18.89"/>
<polygon fill="#63b8ff" stroke="#63b8ff" points="2804.45,-22.3 2813.86,-17.43 2803.47,-15.37 2804.45,-22.3"/>
</a>
</g>
</g>
<!-- Node14 -->
<g id="Node000014" class="node">
<title>Node14</title>
<g id="a_Node000014"><a xlink:title=" ">
<polygon fill="#e0e0e0" stroke="#999999" points="345,-19 252,-19 252,0 345,0 345,-19"/>
<text text-anchor="middle" x="298.5" y="-7" font-family="Helvetica,sans-Serif" font-size="10.00">unordered_map</text>
</a>
</g>
</g>
<!-- Node4&#45;&gt;Node14 -->
<g id="edge13_Node000004_Node000014" class="edge">
<title>Node4&#45;&gt;Node14</title>
<g id="a_edge13_Node000004_Node000014"><a xlink:title=" ">
<path fill="none" stroke="#63b8ff" d="M1287.98,-63.05C1137.84,-61.4 716.43,-53.87 355.33,-18.95"/>
<polygon fill="#63b8ff" stroke="#63b8ff" points="355.5,-15.45 345.2,-17.97 354.82,-22.42 355.5,-15.45"/>
</a>
</g>
</g>
<!-- Node15 -->
<g id="Node000015" class="node">
<title>Node15</title>
<g id="a_Node000015"><a xlink:title=" ">
<polygon fill="#e0e0e0" stroke="#999999" points="401.5,-19 363.5,-19 363.5,0 401.5,0 401.5,-19"/>
<text text-anchor="middle" x="382.5" y="-7" font-family="Helvetica,sans-Serif" font-size="10.00">map</text>
</a>
</g>
</g>
<!-- Node4&#45;&gt;Node15 -->
<g id="edge14_Node000004_Node000015" class="edge">
<title>Node4&#45;&gt;Node15</title>
<g id="a_edge14_Node000004_Node000015"><a xlink:title=" ">
<path fill="none" stroke="#63b8ff" d="M1287.79,-62.63C1115.61,-59.71 599.66,-48.8 411.67,-18.67"/>
<polygon fill="#63b8ff" stroke="#63b8ff" points="412.07,-15.19 401.63,-16.99 410.91,-22.09 412.07,-15.19"/>
</a>
</g>
</g>
<!-- Node16 -->
<g id="Node000016" class="node">
<title>Node16</title>
<g id="a_Node000016"><a xlink:title=" ">
<polygon fill="#e0e0e0" stroke="#999999" points="477.5,-19 419.5,-19 419.5,0 477.5,0 477.5,-19"/>
<text text-anchor="middle" x="448.5" y="-7" font-family="Helvetica,sans-Serif" font-size="10.00">memory</text>
</a>
</g>
</g>
<!-- Node4&#45;&gt;Node16 -->
<g id="edge15_Node000004_Node000016" class="edge">
<title>Node4&#45;&gt;Node16</title>
<g id="a_edge15_Node000004_Node000016"><a xlink:title=" ">
<path fill="none" stroke="#63b8ff" d="M1287.98,-63.84C1151.71,-63.97 794.29,-60.12 487.83,-18.94"/>
<polygon fill="#63b8ff" stroke="#63b8ff" points="488.25,-15.46 477.87,-17.58 487.31,-22.4 488.25,-15.46"/>
</a>
</g>
</g>
<!-- Node17 -->
<g id="Node000017" class="node">
<title>Node17</title>
<g id="a_Node000017"><a xlink:title=" ">
<polygon fill="#e0e0e0" stroke="#999999" points="129.5,-19 65.5,-19 65.5,0 129.5,0 129.5,-19"/>
<text text-anchor="middle" x="97.5" y="-7" font-family="Helvetica,sans-Serif" font-size="10.00">algorithm</text>
</a>
</g>
</g>
<!-- Node4&#45;&gt;Node17 -->
<g id="edge16_Node000004_Node000017" class="edge">
<title>Node4&#45;&gt;Node17</title>
<g id="a_edge16_Node000004_Node000017"><a xlink:title=" ">
<path fill="none" stroke="#63b8ff" d="M1287.66,-62.67C1083.28,-59.48 385.36,-46.85 139.94,-18.91"/>
<polygon fill="#63b8ff" stroke="#63b8ff" points="139.99,-15.39 129.64,-17.69 139.17,-22.34 139.99,-15.39"/>
</a>
</g>
</g>
<!-- Node18 -->
<g id="Node000018" class="node">
<title>Node18</title>
<g id="a_Node000018"><a xlink:title=" ">
<polygon fill="#e0e0e0" stroke="#999999" points="561,-19 496,-19 496,0 561,0 561,-19"/>
<text text-anchor="middle" x="528.5" y="-7" font-family="Helvetica,sans-Serif" font-size="10.00">functional</text>
</a>
</g>
</g>
<!-- Node4&#45;&gt;Node18 -->
<g id="edge17_Node000004_Node000018" class="edge">
<title>Node4&#45;&gt;Node18</title>
<g id="a_edge17_Node000004_Node000018"><a xlink:title=" ">
<path fill="none" stroke="#63b8ff" d="M1287.92,-63C1161.28,-61.28 845.31,-53.7 571.57,-18.93"/>
<polygon fill="#63b8ff" stroke="#63b8ff" points="571.81,-15.43 561.44,-17.63 570.91,-22.37 571.81,-15.43"/>
</a>
</g>
</g>
<!-- Node19 -->
<g id="Node000019" class="node">
<title>Node19</title>
<g id="a_Node000019"><a xlink:title=" ">
<polygon fill="#e0e0e0" stroke="#999999" points="629.5,-19 579.5,-19 579.5,0 629.5,0 629.5,-19"/>
<text text-anchor="middle" x="604.5" y="-7" font-family="Helvetica,sans-Serif" font-size="10.00">chrono</text>
</a>
</g>
</g>
<!-- Node4&#45;&gt;Node19 -->
<g id="edge18_Node000004_Node000019" class="edge">
<title>Node4&#45;&gt;Node19</title>
<g id="a_edge18_Node000004_Node000019"><a xlink:title=" ">
<path fill="none" stroke="#63b8ff" d="M1287.84,-63.41C1169.16,-62.48 885.77,-56.32 639.85,-18.9"/>
<polygon fill="#63b8ff" stroke="#63b8ff" points="640.06,-15.39 629.65,-17.33 639,-22.31 640.06,-15.39"/>
</a>
</g>
</g>
<!-- Node20 -->
<g id="Node000020" class="node">
<title>Node20</title>
<g id="a_Node000020"><a xlink:title=" ">
<polygon fill="#e0e0e0" stroke="#999999" points="693.5,-19 647.5,-19 647.5,0 693.5,0 693.5,-19"/>
<text text-anchor="middle" x="670.5" y="-7" font-family="Helvetica,sans-Serif" font-size="10.00">cstdio</text>
</a>
</g>
</g>
<!-- Node4&#45;&gt;Node20 -->
<g id="edge19_Node000004_Node000020" class="edge">
<title>Node4&#45;&gt;Node20</title>
<g id="a_edge19_Node000004_Node000020"><a xlink:title=" ">
<path fill="none" stroke="#63b8ff" d="M1287.83,-63.18C1177.13,-61.78 924.4,-54.74 703.95,-18.91"/>
<polygon fill="#63b8ff" stroke="#63b8ff" points="704.24,-15.41 693.81,-17.24 703.1,-22.32 704.24,-15.41"/>
</a>
</g>
</g>
<!-- Node21 -->
<g id="Node000021" class="node">
<title>Node21</title>
<g id="a_Node000021"><a xlink:title=" ">
<polygon fill="#e0e0e0" stroke="#999999" points="763.5,-19 711.5,-19 711.5,0 763.5,0 763.5,-19"/>
<text text-anchor="middle" x="737.5" y="-7" font-family="Helvetica,sans-Serif" font-size="10.00">cassert</text>
</a>
</g>
</g>
<!-- Node4&#45;&gt;Node21 -->
<g id="edge20_Node000004_Node000021" class="edge">
<title>Node4&#45;&gt;Node21</title>
<g id="a_edge20_Node000004_Node000021"><a xlink:title=" ">
<path fill="none" stroke="#63b8ff" d="M1287.72,-62.1C1186.3,-58.94 967.29,-49.15 773.85,-18.96"/>
<polygon fill="#63b8ff" stroke="#63b8ff" points="774.21,-15.47 763.78,-17.36 773.11,-22.38 774.21,-15.47"/>
</a>
</g>
</g>
<!-- Node22 -->
<g id="Node000022" class="node">
<title>Node22</title>
<g id="a_Node000022"><a xlink:title=" ">
<polygon fill="#e0e0e0" stroke="#999999" points="847,-19 782,-19 782,0 847,0 847,-19"/>
<text text-anchor="middle" x="814.5" y="-7" font-family="Helvetica,sans-Serif" font-size="10.00">typeindex</text>
</a>
</g>
</g>
<!-- Node4&#45;&gt;Node22 -->
<g id="edge21_Node000004_Node000022" class="edge">
<title>Node4&#45;&gt;Node22</title>
<g id="a_edge21_Node000004_Node000022"><a xlink:title=" ">
<path fill="none" stroke="#63b8ff" d="M1287.91,-60.34C1198.6,-54.92 1019.35,-42.26 857.59,-19"/>
<polygon fill="#63b8ff" stroke="#63b8ff" points="857.86,-15.5 847.46,-17.52 856.85,-22.43 857.86,-15.5"/>
</a>
</g>
</g>
<!-- Node23 -->
<g id="Node000023" class="node">
<title>Node23</title>
<g id="a_Node000023"><a xlink:title=" ">
<polygon fill="#e0e0e0" stroke="#999999" points="933.5,-19 865.5,-19 865.5,0 933.5,0 933.5,-19"/>
<text text-anchor="middle" x="899.5" y="-7" font-family="Helvetica,sans-Serif" font-size="10.00">filesystem</text>
</a>
</g>
</g>
<!-- Node4&#45;&gt;Node23 -->
<g id="edge22_Node000004_Node000023" class="edge">
<title>Node4&#45;&gt;Node23</title>
<g id="a_edge22_Node000004_Node000023"><a xlink:title=" ">
<path fill="none" stroke="#63b8ff" d="M1287.71,-58.74C1211.65,-52.04 1072.3,-38.56 943.75,-19.07"/>
<polygon fill="#63b8ff" stroke="#63b8ff" points="944.14,-15.59 933.72,-17.54 943.08,-22.51 944.14,-15.59"/>
</a>
</g>
</g>
<!-- Node24 -->
<g id="Node000024" class="node">
<title>Node24</title>
<g id="a_Node000024"><a xlink:title=" ">
<polygon fill="#e0e0e0" stroke="#999999" points="983.5,-19 951.5,-19 951.5,0 983.5,0 983.5,-19"/>
<text text-anchor="middle" x="967.5" y="-7" font-family="Helvetica,sans-Serif" font-size="10.00">set</text>
</a>
</g>
</g>
<!-- Node4&#45;&gt;Node24 -->
<g id="edge23_Node000004_Node000024" class="edge">
<title>Node4&#45;&gt;Node24</title>
<g id="a_edge23_Node000004_Node000024"><a xlink:title=" ">
<path fill="none" stroke="#63b8ff" d="M1287.8,-59.87C1219.77,-54.73 1102.27,-43.37 993.58,-18.82"/>
<polygon fill="#63b8ff" stroke="#63b8ff" points="994.3,-15.39 983.77,-16.56 992.73,-22.21 994.3,-15.39"/>
</a>
</g>
</g>
<!-- Node25 -->
<g id="Node000025" class="node">
<title>Node25</title>
<g id="a_Node000025"><a xlink:title=" ">
<polygon fill="#e0e0e0" stroke="#999999" points="1057,-19 1002,-19 1002,0 1057,0 1057,-19"/>
<text text-anchor="middle" x="1029.5" y="-7" font-family="Helvetica,sans-Serif" font-size="10.00">fstream</text>
</a>
</g>
</g>
<!-- Node4&#45;&gt;Node25 -->
<g id="edge24_Node000004_Node000025" class="edge">
<title>Node4&#45;&gt;Node25</title>
<g id="a_edge24_Node000004_Node000025"><a xlink:title=" ">
<path fill="none" stroke="#63b8ff" d="M1287.87,-55.57C1233.75,-47.74 1149.67,-34.9 1067.36,-19.05"/>
<polygon fill="#63b8ff" stroke="#63b8ff" points="1067.82,-15.58 1057.34,-17.11 1066.49,-22.45 1067.82,-15.58"/>
</a>
</g>
</g>
<!-- Node26 -->
<g id="Node000026" class="node">
<title>Node26</title>
<g id="a_Node000026"><a xlink:title=" ">
<polygon fill="#e0e0e0" stroke="#999999" points="1131.5,-19 1075.5,-19 1075.5,0 1131.5,0 1131.5,-19"/>
<text text-anchor="middle" x="1103.5" y="-7" font-family="Helvetica,sans-Serif" font-size="10.00">sstream</text>
</a>
</g>
</g>
<!-- Node4&#45;&gt;Node26 -->
<g id="edge25_Node000004_Node000026" class="edge">
<title>Node4&#45;&gt;Node26</title>
<g id="a_edge25_Node000004_Node000026"><a xlink:title=" ">
<path fill="none" stroke="#63b8ff" d="M1304.6,-54.93C1265.54,-46.52 1204.09,-33.19 1141.78,-19.27"/>
<polygon fill="#63b8ff" stroke="#63b8ff" points="1142.3,-15.8 1131.77,-17.03 1140.77,-22.63 1142.3,-15.8"/>
</a>
</g>
</g>
<!-- Node27 -->
<g id="Node000027" class="node">
<title>Node27</title>
<g id="a_Node000027"><a xlink:title=" ">
<polygon fill="#e0e0e0" stroke="#999999" points="1197.5,-19 1149.5,-19 1149.5,0 1197.5,0 1197.5,-19"/>
<text text-anchor="middle" x="1173.5" y="-7" font-family="Helvetica,sans-Serif" font-size="10.00">mutex</text>
</a>
</g>
</g>
<!-- Node4&#45;&gt;Node27 -->
<g id="edge26_Node000004_Node000027" class="edge">
<title>Node4&#45;&gt;Node27</title>
<g id="a_edge26_Node000004_Node000027"><a xlink:title=" ">
<path fill="none" stroke="#63b8ff" d="M1317.03,-54.98C1287.21,-45.74 1239.57,-30.98 1207.43,-21.02"/>
<polygon fill="#63b8ff" stroke="#63b8ff" points="1208.18,-17.58 1197.59,-17.97 1206.1,-24.27 1208.18,-17.58"/>
</a>
</g>
</g>
<!-- Node28 -->
<g id="Node000028" class="node">
<title>Node28</title>
<g id="a_Node000028"><a xlink:title=" ">
<polygon fill="#e0e0e0" stroke="#999999" points="1269.5,-19 1215.5,-19 1215.5,0 1269.5,0 1269.5,-19"/>
<text text-anchor="middle" x="1242.5" y="-7" font-family="Helvetica,sans-Serif" font-size="10.00">random</text>
</a>
</g>
</g>
<!-- Node4&#45;&gt;Node28 -->
<g id="edge27_Node000004_Node000028" class="edge">
<title>Node4&#45;&gt;Node28</title>
<g id="a_edge27_Node000004_Node000028"><a xlink:title=" ">
<path fill="none" stroke="#63b8ff" d="M1328.11,-54.98C1311.93,-46.57 1286.93,-33.59 1268.12,-23.81"/>
<polygon fill="#63b8ff" stroke="#63b8ff" points="1269.67,-20.68 1259.19,-19.17 1266.45,-26.89 1269.67,-20.68"/>
</a>
</g>
</g>
<!-- Node29 -->
<g id="Node000029" class="node">
<title>Node29</title>
<g id="a_Node000029"><a xlink:title=" ">
<polygon fill="#e0e0e0" stroke="#999999" points="1335.5,-19 1287.5,-19 1287.5,0 1335.5,0 1335.5,-19"/>
<text text-anchor="middle" x="1311.5" y="-7" font-family="Helvetica,sans-Serif" font-size="10.00">thread</text>
</a>
</g>
</g>
<!-- Node4&#45;&gt;Node29 -->
<g id="edge28_Node000004_Node000029" class="edge">
<title>Node4&#45;&gt;Node29</title>
<g id="a_edge28_Node000004_Node000029"><a xlink:title=" ">
<path fill="none" stroke="#63b8ff" d="M1339.05,-54.75C1334.49,-47.42 1327.83,-36.73 1322.21,-27.7"/>
<polygon fill="#63b8ff" stroke="#63b8ff" points="1325.1,-25.73 1316.85,-19.09 1319.16,-29.43 1325.1,-25.73"/>
</a>
</g>
</g>
<!-- Node30 -->
<g id="Node000030" class="node">
<title>Node30</title>
<g id="a_Node000030"><a xlink:title=" ">
<polygon fill="#e0e0e0" stroke="#999999" points="1403.5,-19 1353.5,-19 1353.5,0 1403.5,0 1403.5,-19"/>
<text text-anchor="middle" x="1378.5" y="-7" font-family="Helvetica,sans-Serif" font-size="10.00">atomic</text>
</a>
</g>
</g>
<!-- Node4&#45;&gt;Node30 -->
<g id="edge29_Node000004_Node000030" class="edge">
<title>Node4&#45;&gt;Node30</title>
<g id="a_edge29_Node000004_Node000030"><a xlink:title=" ">
<path fill="none" stroke="#63b8ff" d="M1350.11,-54.75C1354.82,-47.42 1361.67,-36.73 1367.47,-27.7"/>
<polygon fill="#63b8ff" stroke="#63b8ff" points="1370.54,-29.4 1372.99,-19.09 1364.64,-25.62 1370.54,-29.4"/>
</a>
</g>
</g>
<!-- Node31 -->
<g id="Node000031" class="node">
<title>Node31</title>
<g id="a_Node000031"><a xlink:title=" ">
<polygon fill="#e0e0e0" stroke="#999999" points="1471,-19 1422,-19 1422,0 1471,0 1471,-19"/>
<text text-anchor="middle" x="1446.5" y="-7" font-family="Helvetica,sans-Serif" font-size="10.00">cctype</text>
</a>
</g>
</g>
<!-- Node4&#45;&gt;Node31 -->
<g id="edge30_Node000004_Node000031" class="edge">
<title>Node4&#45;&gt;Node31</title>
<g id="a_edge30_Node000004_Node000031"><a xlink:title=" ">
<path fill="none" stroke="#63b8ff" d="M1360.89,-54.98C1377.07,-46.57 1402.07,-33.59 1420.88,-23.81"/>
<polygon fill="#63b8ff" stroke="#63b8ff" points="1422.55,-26.89 1429.81,-19.17 1419.33,-20.68 1422.55,-26.89"/>
</a>
</g>
</g>
<!-- Node32 -->
<g id="Node000032" class="node">
<title>Node32</title>
<g id="a_Node000032"><a xlink:title=" ">
<polygon fill="#e0e0e0" stroke="#999999" points="1545.5,-19 1489.5,-19 1489.5,0 1545.5,0 1545.5,-19"/>
<text text-anchor="middle" x="1517.5" y="-7" font-family="Helvetica,sans-Serif" font-size="10.00">d3d12.h</text>
</a>
</g>
</g>
<!-- Node4&#45;&gt;Node32 -->
<g id="edge31_Node000004_Node000032" class="edge">
<title>Node4&#45;&gt;Node32</title>
<g id="a_edge31_Node000004_Node000032"><a xlink:title=" ">
<path fill="none" stroke="#63b8ff" d="M1372.3,-54.98C1401.47,-46.05 1447.5,-31.94 1479.9,-22.02"/>
<polygon fill="#63b8ff" stroke="#63b8ff" points="1480.95,-25.36 1489.49,-19.08 1478.9,-18.66 1480.95,-25.36"/>
</a>
</g>
</g>
<!-- Node33 -->
<g id="Node000033" class="node">
<title>Node33</title>
<g id="a_Node000033"><a xlink:title=" ">
<polygon fill="#e0e0e0" stroke="#999999" points="1627.5,-19 1563.5,-19 1563.5,0 1627.5,0 1627.5,-19"/>
<text text-anchor="middle" x="1595.5" y="-7" font-family="Helvetica,sans-Serif" font-size="10.00">dxgi1_6.h</text>
</a>
</g>
</g>
<!-- Node4&#45;&gt;Node33 -->
<g id="edge32_Node000004_Node000033" class="edge">
<title>Node4&#45;&gt;Node33</title>
<g id="a_edge32_Node000004_Node000033"><a xlink:title=" ">
<path fill="none" stroke="#63b8ff" d="M1384.83,-54.98C1431.05,-45.23 1506.45,-29.3 1553.4,-19.39"/>
<polygon fill="#63b8ff" stroke="#63b8ff" points="1554.19,-22.8 1563.25,-17.31 1552.74,-15.95 1554.19,-22.8"/>
</a>
</g>
</g>
<!-- Node34 -->
<g id="Node000034" class="node">
<title>Node34</title>
<g id="a_Node000034"><a xlink:title=" ">
<polygon fill="#e0e0e0" stroke="#999999" points="1731.5,-19 1645.5,-19 1645.5,0 1731.5,0 1731.5,-19"/>
<text text-anchor="middle" x="1688.5" y="-7" font-family="Helvetica,sans-Serif" font-size="10.00">d3dcompiler.h</text>
</a>
</g>
</g>
<!-- Node4&#45;&gt;Node34 -->
<g id="edge33_Node000004_Node000034" class="edge">
<title>Node4&#45;&gt;Node34</title>
<g id="a_edge33_Node000004_Node000034"><a xlink:title=" ">
<path fill="none" stroke="#63b8ff" d="M1401.05,-55.07C1457.71,-46.58 1547.71,-32.97 1635.27,-19.18"/>
<polygon fill="#63b8ff" stroke="#63b8ff" points="1636.04,-22.6 1645.38,-17.59 1634.95,-15.69 1636.04,-22.6"/>
</a>
</g>
</g>
<!-- Node35 -->
<g id="Node000035" class="node">
<title>Node35</title>
<g id="a_Node000035"><a xlink:title=" ">
<polygon fill="#e0e0e0" stroke="#999999" points="233.5,-19 147.5,-19 147.5,0 233.5,0 233.5,-19"/>
<text text-anchor="middle" x="190.5" y="-7" font-family="Helvetica,sans-Serif" font-size="10.00">DirectXMath.h</text>
</a>
</g>
</g>
<!-- Node4&#45;&gt;Node35 -->
<g id="edge34_Node000004_Node000035" class="edge">
<title>Node4&#45;&gt;Node35</title>
<g id="a_edge34_Node000004_Node000035"><a xlink:title=" ">
<path fill="none" stroke="#63b8ff" d="M1287.84,-63.64C1126.28,-63.52 649.36,-59.57 243.75,-18.98"/>
<polygon fill="#63b8ff" stroke="#63b8ff" points="243.88,-15.48 233.58,-17.96 243.17,-22.44 243.88,-15.48"/>
</a>
</g>
</g>
<!-- Node36 -->
<g id="Node000036" class="node">
<title>Node36</title>
<g id="a_Node000036"><a xlink:title=" ">
<polygon fill="#e0e0e0" stroke="#999999" points="1867,-19 1750,-19 1750,0 1867,0 1867,-19"/>
<text text-anchor="middle" x="1808.5" y="-7" font-family="Helvetica,sans-Serif" font-size="10.00">assimp/Importer.hpp</text>
</a>
</g>
</g>
<!-- Node4&#45;&gt;Node36 -->
<g id="edge35_Node000004_Node000036" class="edge">
<title>Node4&#45;&gt;Node36</title>
<g id="a_edge35_Node000004_Node000036"><a xlink:title=" ">
<path fill="none" stroke="#63b8ff" d="M1401.25,-57.35C1476.21,-49.17 1612.61,-34.12 1739.97,-19.05"/>
<polygon fill="#63b8ff" stroke="#63b8ff" points="1740.38,-22.52 1749.9,-17.87 1739.56,-15.57 1740.38,-22.52"/>
</a>
</g>
</g>
<!-- Node37 -->
<g id="Node000037" class="node">
<title>Node37</title>
<g id="a_Node000037"><a xlink:title=" ">
<polygon fill="#e0e0e0" stroke="#999999" points="1977.5,-19 1885.5,-19 1885.5,0 1977.5,0 1977.5,-19"/>
<text text-anchor="middle" x="1931.5" y="-7" font-family="Helvetica,sans-Serif" font-size="10.00">assimp/scene.h</text>
</a>
</g>
</g>
<!-- Node4&#45;&gt;Node37 -->
<g id="edge36_Node000004_Node000037" class="edge">
<title>Node4&#45;&gt;Node37</title>
<g id="a_edge36_Node000004_Node000037"><a xlink:title=" ">
<path fill="none" stroke="#63b8ff" d="M1401.32,-60.06C1496.96,-53.97 1696.36,-40.06 1875.2,-19.07"/>
<polygon fill="#63b8ff" stroke="#63b8ff" points="1875.8,-22.53 1885.32,-17.88 1874.98,-15.58 1875.8,-22.53"/>
</a>
</g>
</g>
<!-- Node38 -->
<g id="Node000038" class="node">
<title>Node38</title>
<g id="a_Node000038"><a xlink:title=" ">
<polygon fill="#e0e0e0" stroke="#999999" points="2117.5,-19 1995.5,-19 1995.5,0 2117.5,0 2117.5,-19"/>
<text text-anchor="middle" x="2056.5" y="-7" font-family="Helvetica,sans-Serif" font-size="10.00">assimp/postprocess.h</text>
</a>
</g>
</g>
<!-- Node4&#45;&gt;Node38 -->
<g id="edge37_Node000004_Node000038" class="edge">
<title>Node4&#45;&gt;Node38</title>
<g id="a_edge37_Node000004_Node000038"><a xlink:title=" ">
<path fill="none" stroke="#63b8ff" d="M1401.26,-60.55C1511.6,-54.61 1762.97,-40.02 1985.21,-19.07"/>
<polygon fill="#63b8ff" stroke="#63b8ff" points="1985.81,-22.53 1995.44,-18.1 1985.15,-15.56 1985.81,-22.53"/>
</a>
</g>
</g>
<!-- Node39 -->
<g id="Node000039" class="node">
<title>Node39</title>
<g id="a_Node000039"><a xlink:href="Logger_8h.html" target="_top" xlink:title="デバッグログ出力システム">
<polygon fill="white" stroke="#666666" points="2213.5,-19 2135.5,-19 2135.5,0 2213.5,0 2213.5,-19"/>
<text text-anchor="middle" x="2174.5" y="-7" font-family="Helvetica,sans-Serif" font-size="10.00">Log/Logger.h</text>
</a>
</g>
</g>
<!-- Node4&#45;&gt;Node39 -->
<g id="edge38_Node000004_Node000039" class="edge">
<title>Node4&#45;&gt;Node39</title>
<g id="a_edge38_Node000004_Node000039"><a xlink:title=" ">
<path fill="none" stroke="#63b8ff" d="M1401.2,-62.47C1529.33,-59.72 1850.4,-50.14 2117.5,-19 2120,-18.71 2122.57,-18.37 2125.17,-18"/>
<polygon fill="#63b8ff" stroke="#63b8ff" points="2125.93,-21.42 2135.28,-16.44 2124.86,-14.51 2125.93,-21.42"/>
</a>
</g>
</g>
<!-- Node39&#45;&gt;Node4 -->
<g id="edge39_Node000039_Node000004" class="edge">
<title>Node39&#45;&gt;Node4</title>
<g id="a_edge39_Node000039_Node000004"><a xlink:title=" ">
<path fill="none" stroke="#63b8ff" d="M2135.1,-19.05C1868.61,-50.09 1548.53,-59.69 1411.71,-62.46"/>
<polygon fill="#63b8ff" stroke="#63b8ff" points="1411.32,-58.96 1401.39,-62.66 1411.46,-65.96 1411.32,-58.96"/>
</a>
</g>
</g>
<!-- Node40&#45;&gt;Node4 -->
<g id="edge41_Node000040_Node000004" class="edge">
<title>Node40&#45;&gt;Node4</title>
<g id="a_edge41_Node000040_Node000004"><a xlink:title=" ">
<path fill="none" stroke="#63b8ff" d="M917.01,-114.92C1016,-103.48 1184.5,-84 1277.64,-73.23"/>
<polygon fill="#63b8ff" stroke="#63b8ff" points="1278.26,-76.68 1287.79,-72.06 1277.46,-69.73 1278.26,-76.68"/>
</a>
</g>
</g>
<!-- Node41 -->
<g id="Node000041" class="node">
<title>Node41</title>
<g id="a_Node000041"><a xlink:href="SpanMath_8h.html" target="_top" xlink:title="算術ライブラリ (Vector, Matrix, Quaternion)。">
<polygon fill="white" stroke="#666666" points="254.5,-74 126.5,-74 126.5,-55 254.5,-55 254.5,-74"/>
<text text-anchor="middle" x="190.5" y="-62" font-family="Helvetica,sans-Serif" font-size="10.00">Core/Math/SpanMath.h</text>
</a>
</g>
</g>
<!-- Node40&#45;&gt;Node41 -->
<g id="edge42_Node000040_Node000041" class="edge">
<title>Node40&#45;&gt;Node41</title>
<g id="a_edge42_Node000040_Node000041"><a xlink:title=" ">
<path fill="none" stroke="#63b8ff" d="M759.69,-116.89C633.55,-105.5 388,-83.33 264.78,-72.21"/>
<polygon fill="#63b8ff" stroke="#63b8ff" points="264.96,-68.71 254.68,-71.29 264.33,-75.68 264.96,-68.71"/>
</a>
</g>
</g>
<!-- Node41&#45;&gt;Node17 -->
<g id="edge45_Node000041_Node000017" class="edge">
<title>Node41&#45;&gt;Node17</title>
<g id="a_edge45_Node000041_Node000017"><a xlink:title=" ">
<path fill="none" stroke="#63b8ff" d="M175.56,-54.98C161,-46.69 138.63,-33.94 121.57,-24.22"/>
<polygon fill="#63b8ff" stroke="#63b8ff" points="123.14,-21.08 112.71,-19.17 119.67,-27.16 123.14,-21.08"/>
</a>
</g>
</g>
<!-- Node41&#45;&gt;Node35 -->
<g id="edge43_Node000041_Node000035" class="edge">
<title>Node41&#45;&gt;Node35</title>
<g id="a_edge43_Node000041_Node000035"><a xlink:title=" ">
<path fill="none" stroke="#63b8ff" d="M190.5,-54.75C190.5,-47.8 190.5,-37.85 190.5,-29.13"/>
<polygon fill="#63b8ff" stroke="#63b8ff" points="194,-29.09 190.5,-19.09 187,-29.09 194,-29.09"/>
</a>
</g>
</g>
<!-- Node42 -->
<g id="Node000042" class="node">
<title>Node42</title>
<g id="a_Node000042"><a xlink:title=" ">
<polygon fill="#e0e0e0" stroke="#999999" points="47,-19 0,-19 0,0 47,0 47,-19"/>
<text text-anchor="middle" x="23.5" y="-7" font-family="Helvetica,sans-Serif" font-size="10.00">cmath</text>
</a>
</g>
</g>
<!-- Node41&#45;&gt;Node42 -->
<g id="edge44_Node000041_Node000042" class="edge">
<title>Node41&#45;&gt;Node42</title>
<g id="a_edge44_Node000041_Node000042"><a xlink:title=" ">
<path fill="none" stroke="#63b8ff" d="M163.67,-54.98C134.55,-45.74 88.02,-30.98 56.64,-21.02"/>
<polygon fill="#63b8ff" stroke="#63b8ff" points="57.62,-17.66 47.03,-17.97 55.5,-24.33 57.62,-17.66"/>
</a>
</g>
</g>
<!-- Node43&#45;&gt;Node3 -->
<g id="edge51_Node000043_Node000003" class="edge">
<title>Node43&#45;&gt;Node3</title>
<g id="a_edge51_Node000043_Node000003"><a xlink:title=" ">
<path fill="none" stroke="#63b8ff" d="M1203.83,-175.95C1247.94,-166.01 1307.22,-152.65 1353.38,-142.25"/>
<polygon fill="#63b8ff" stroke="#63b8ff" points="1354.33,-145.63 1363.32,-140.01 1352.8,-138.8 1354.33,-145.63"/>
</a>
</g>
</g>
<!-- Node43&#45;&gt;Node4 -->
<g id="edge47_Node000043_Node000004" class="edge">
<title>Node43&#45;&gt;Node4</title>
<g id="a_edge47_Node000043_Node000004"><a xlink:title=" ">
<path fill="none" stroke="#63b8ff" d="M1073.17,-175.92C1025.22,-163 974.15,-141.12 1001.5,-110 1019.43,-89.6 1183.31,-75.81 1277.9,-69.47"/>
<polygon fill="#63b8ff" stroke="#63b8ff" points="1278.21,-72.96 1287.96,-68.81 1277.75,-65.98 1278.21,-72.96"/>
</a>
</g>
</g>
<!-- Node43&#45;&gt;Node41 -->
<g id="edge48_Node000043_Node000041" class="edge">
<title>Node43&#45;&gt;Node41</title>
<g id="a_edge48_Node000043_Node000041"><a xlink:title=" ">
<path fill="none" stroke="#63b8ff" d="M1094.42,-175.91C1064.38,-166.56 1024.79,-153.54 990.5,-140 960.91,-128.31 956.36,-117.76 925.5,-110 802.07,-78.95 425.95,-69.28 264.93,-66.52"/>
<polygon fill="#63b8ff" stroke="#63b8ff" points="264.7,-63.01 254.64,-66.34 264.58,-70.01 264.7,-63.01"/>
</a>
</g>
</g>
<!-- Node44 -->
<g id="Node000044" class="node">
<title>Node44</title>
<g id="a_Node000044"><a xlink:href="ConstantBuffer_8h.html" target="_top" xlink:title="DirectX 12 定数バッファ (CBV) のラッパークラス">
<polygon fill="white" stroke="#666666" points="1180,-134.5 1011,-134.5 1011,-115.5 1180,-115.5 1180,-134.5"/>
<text text-anchor="middle" x="1095.5" y="-122.5" font-family="Helvetica,sans-Serif" font-size="10.00">Graphics/Core/ConstantBuffer.h</text>
</a>
</g>
</g>
<!-- Node43&#45;&gt;Node44 -->
<g id="edge49_Node000043_Node000044" class="edge">
<title>Node43&#45;&gt;Node44</title>
<g id="a_edge49_Node000043_Node000044"><a xlink:title=" ">
<path fill="none" stroke="#63b8ff" d="M1131.29,-175.8C1124.33,-166.11 1115.08,-153.24 1107.73,-143.01"/>
<polygon fill="#63b8ff" stroke="#63b8ff" points="1110.54,-140.92 1101.86,-134.84 1104.85,-145.01 1110.54,-140.92"/>
</a>
</g>
</g>
<!-- Node45 -->
<g id="Node000045" class="node">
<title>Node45</title>
<g id="a_Node000045"><a xlink:href="Shader_8h.html" target="_top" xlink:title="HLSLシェーダーのロードとコンパイル管理。">
<polygon fill="white" stroke="#666666" points="1328.5,-134.5 1198.5,-134.5 1198.5,-115.5 1328.5,-115.5 1328.5,-134.5"/>
<text text-anchor="middle" x="1263.5" y="-122.5" font-family="Helvetica,sans-Serif" font-size="10.00">Graphics/Core/Shader.h</text>
</a>
</g>
</g>
<!-- Node43&#45;&gt;Node45 -->
<g id="edge52_Node000043_Node000045" class="edge">
<title>Node43&#45;&gt;Node45</title>
<g id="a_edge52_Node000043_Node000045"><a xlink:title=" ">
<path fill="none" stroke="#63b8ff" d="M1168.27,-175.95C1189.1,-165.03 1217.81,-149.97 1238.24,-139.25"/>
<polygon fill="#63b8ff" stroke="#63b8ff" points="1240.03,-142.26 1247.26,-134.52 1236.78,-136.06 1240.03,-142.26"/>
</a>
</g>
</g>
<!-- Node44&#45;&gt;Node4 -->
<g id="edge50_Node000044_Node000004" class="edge">
<title>Node44&#45;&gt;Node4</title>
<g id="a_edge50_Node000044_Node000004"><a xlink:title=" ">
<path fill="none" stroke="#63b8ff" d="M1131.71,-115.49C1175.78,-105.14 1250.27,-87.64 1298.4,-76.33"/>
<polygon fill="#63b8ff" stroke="#63b8ff" points="1299.32,-79.71 1308.25,-74.02 1297.71,-72.9 1299.32,-79.71"/>
</a>
</g>
</g>
<!-- Node45&#45;&gt;Node4 -->
<g id="edge53_Node000045_Node000004" class="edge">
<title>Node45&#45;&gt;Node4</title>
<g id="a_edge53_Node000045_Node000004"><a xlink:title=" ">
<path fill="none" stroke="#63b8ff" d="M1275.45,-115.37C1288.25,-106.12 1308.8,-91.28 1324.15,-80.19"/>
<polygon fill="#63b8ff" stroke="#63b8ff" points="1326.44,-82.86 1332.5,-74.17 1322.34,-77.18 1326.44,-82.86"/>
</a>
</g>
</g>
<!-- Node46&#45;&gt;Node40 -->
<g id="edge55_Node000046_Node000040" class="edge">
<title>Node46&#45;&gt;Node40</title>
<g id="a_edge55_Node000046_Node000040"><a xlink:title=" ">
<path fill="none" stroke="#63b8ff" d="M939.72,-181.37C922.8,-172.11 895.4,-157.12 873.37,-145.07"/>
<polygon fill="#63b8ff" stroke="#63b8ff" points="874.76,-141.84 864.31,-140.12 871.4,-147.99 874.76,-141.84"/>
</a>
</g>
</g>
<!-- Node48&#45;&gt;Node4 -->
<g id="edge58_Node000048_Node000004" class="edge">
<title>Node48&#45;&gt;Node4</title>
<g id="a_edge58_Node000048_Node000004"><a xlink:title=" ">
<path fill="none" stroke="#63b8ff" d="M1437.51,-241.91C1470.05,-219.38 1549.81,-157.11 1513.5,-110 1500.73,-93.43 1452.65,-81.79 1411.02,-74.59"/>
<polygon fill="#63b8ff" stroke="#63b8ff" points="1411.6,-71.14 1401.16,-72.94 1410.45,-78.04 1411.6,-71.14"/>
</a>
</g>
</g>
<!-- Node48&#45;&gt;Node47 -->
<g id="edge59_Node000048_Node000047" class="edge">
<title>Node48&#45;&gt;Node47</title>
<g id="a_edge59_Node000048_Node000047"><a xlink:title=" ">
<path fill="none" stroke="#63b8ff" d="M1416.83,-241.87C1408.99,-233.05 1396.64,-219.16 1386.96,-208.27"/>
<polygon fill="#63b8ff" stroke="#63b8ff" points="1389.46,-205.82 1380.2,-200.67 1384.23,-210.47 1389.46,-205.82"/>
</a>
</g>
</g>
<!-- Node49&#45;&gt;Node47 -->
<g id="edge61_Node000049_Node000047" class="edge">
<title>Node49&#45;&gt;Node47</title>
<g id="a_edge61_Node000049_Node000047"><a xlink:title=" ">
<path fill="none" stroke="#63b8ff" d="M1320.5,-241.87C1329.87,-232.88 1344.75,-218.61 1356.2,-207.64"/>
<polygon fill="#63b8ff" stroke="#63b8ff" points="1358.67,-210.12 1363.46,-200.67 1353.82,-205.06 1358.67,-210.12"/>
</a>
</g>
</g>
</g>
</svg>
