<?xml version="1.0" encoding="UTF-8" standalone="no"?>
<!DOCTYPE svg PUBLIC "-//W3C//DTD SVG 1.1//EN"
 "http://www.w3.org/Graphics/SVG/1.1/DTD/svg11.dtd">
<!-- Generated by graphviz version 2.43.0 (0)
 -->
<!-- Title: Engine/Source/Runtime/Resource/AssetMetadata.h Pages: 1 -->
<svg width="1765pt" height="247pt"
 viewBox="0.00 0.00 1765.00 247.00" xmlns="http://www.w3.org/2000/svg" xmlns:xlink="http://www.w3.org/1999/xlink">
<g id="graph0" class="graph" transform="scale(1 1) rotate(0) translate(4 243)">
<title>Engine/Source/Runtime/Resource/AssetMetadata.h</title>
<!-- Node1 -->
<g id="Node000001" class="node">
<title>Node1</title>
<g id="a_Node000001"><a xlink:title="アセットのメタデータを定義する構造体。">
<polygon fill="#999999" stroke="#666666" points="1276,-239 1126,-239 1126,-209 1276,-209 1276,-239"/>
<text text-anchor="start" x="1134" y="-227" font-family="Helvetica,sans-Serif" font-size="10.00">Engine/Source/Runtime</text>
<text text-anchor="middle" x="1201" y="-216" font-family="Helvetica,sans-Serif" font-size="10.00">/Resource/AssetMetadata.h</text>
</a>
</g>
</g>
<!-- Node2 -->
<g id="Node000002" class="node">
<title>Node2</title>
<g id="a_Node000002"><a xlink:href="AssetManager_8h.html" target="_top" xlink:title="エンジン全域のアセットライフサイクルを管理するシングルトン。">
<polygon fill="white" stroke="#666666" points="1193,-173 1047,-173 1047,-143 1193,-143 1193,-173"/>
<text text-anchor="start" x="1055" y="-161" font-family="Helvetica,sans-Serif" font-size="10.00">Engine/Source/Runtime</text>
<text text-anchor="middle" x="1120" y="-150" font-family="Helvetica,sans-Serif" font-size="10.00">/Resource/AssetManager.h</text>
</a>
</g>
</g>
<!-- Node1&#45;&gt;Node2 -->
<g id="edge1_Node000001_Node000002" class="edge">
<title>Node1&#45;&gt;Node2</title>
<g id="a_edge1_Node000001_Node000002"><a xlink:title=" ">
<path fill="none" stroke="#63b8ff" d="M1175.03,-202.48C1162.92,-192.91 1148.82,-181.77 1137.93,-173.16"/>
<polygon fill="#63b8ff" stroke="#63b8ff" points="1173.01,-205.34 1183.02,-208.8 1177.35,-199.85 1173.01,-205.34"/>
</a>
</g>
</g>
<!-- Node4 -->
<g id="Node000004" class="node">
<title>Node4</title>
<g id="a_Node000004"><a xlink:href="SpanEngine_8h.html" target="_top" xlink:title=" ">
<polygon fill="white" stroke="#666666" points="1096.5,-101.5 941.5,-101.5 941.5,-82.5 1096.5,-82.5 1096.5,-101.5"/>
<text text-anchor="middle" x="1019" y="-89.5" font-family="Helvetica,sans-Serif" font-size="10.00">Engine/Source/SpanEngine.h</text>
</a>
</g>
</g>
<!-- Node1&#45;&gt;Node4 -->
<g id="edge24_Node000001_Node000004" class="edge">
<title>Node1&#45;&gt;Node4</title>
<g id="a_edge24_Node000001_Node000004"><a xlink:title=" ">
<path fill="none" stroke="#63b8ff" d="M1115.9,-214.02C1087.66,-206.99 1058.28,-194.63 1038,-173 1019.25,-153 1017.94,-118 1018.45,-101.75"/>
<polygon fill="#63b8ff" stroke="#63b8ff" points="1115.29,-217.48 1125.82,-216.29 1116.85,-210.65 1115.29,-217.48"/>
</a>
</g>
</g>
<!-- Node16 -->
<g id="Node000016" class="node">
<title>Node16</title>
<g id="a_Node000016"><a xlink:href="AssetRegistry_8h.html" target="_top" xlink:title=" ">
<polygon fill="white" stroke="#666666" points="1354.5,-173 1211.5,-173 1211.5,-143 1354.5,-143 1354.5,-173"/>
<text text-anchor="start" x="1219.5" y="-161" font-family="Helvetica,sans-Serif" font-size="10.00">Engine/Source/Runtime</text>
<text text-anchor="middle" x="1283" y="-150" font-family="Helvetica,sans-Serif" font-size="10.00">/Resource/AssetRegistry.h</text>
</a>
</g>
</g>
<!-- Node1&#45;&gt;Node16 -->
<g id="edge15_Node000001_Node000016" class="edge">
<title>Node1&#45;&gt;Node16</title>
<g id="a_edge15_Node000001_Node000016"><a xlink:title=" ">
<path fill="none" stroke="#63b8ff" d="M1227.29,-202.48C1239.55,-192.91 1253.82,-181.77 1264.85,-173.16"/>
<polygon fill="#63b8ff" stroke="#63b8ff" points="1224.93,-199.88 1219.2,-208.8 1229.24,-205.4 1224.93,-199.88"/>
</a>
</g>
</g>
<!-- Node17 -->
<g id="Node000017" class="node">
<title>Node17</title>
<g id="a_Node000017"><a xlink:href="AssetSerializer_8h.html" target="_top" xlink:title=".metaファイルの読み書きを担当。">
<polygon fill="white" stroke="#666666" points="1521.5,-173 1372.5,-173 1372.5,-143 1521.5,-143 1521.5,-173"/>
<text text-anchor="start" x="1380.5" y="-161" font-family="Helvetica,sans-Serif" font-size="10.00">Engine/Source/Runtime</text>
<text text-anchor="middle" x="1447" y="-150" font-family="Helvetica,sans-Serif" font-size="10.00">/Resource/AssetSerializer.h</text>
</a>
</g>
</g>
<!-- Node1&#45;&gt;Node17 -->
<g id="edge19_Node000001_Node000017" class="edge">
<title>Node1&#45;&gt;Node17</title>
<g id="a_edge19_Node000001_Node000017"><a xlink:title=" ">
<path fill="none" stroke="#63b8ff" d="M1264.86,-206.39C1304.68,-196.03 1355.36,-182.84 1393.14,-173.01"/>
<polygon fill="#63b8ff" stroke="#63b8ff" points="1263.78,-203.05 1254.99,-208.95 1265.54,-209.82 1263.78,-203.05"/>
</a>
</g>
</g>
<!-- Node3 -->
<g id="Node000003" class="node">
<title>Node3</title>
<g id="a_Node000003"><a xlink:href="AssetManager_8cpp.html" target="_top" xlink:title="AssetManagerの実装。">
<polygon fill="white" stroke="#666666" points="1468.5,-107 1311.5,-107 1311.5,-77 1468.5,-77 1468.5,-107"/>
<text text-anchor="start" x="1319.5" y="-95" font-family="Helvetica,sans-Serif" font-size="10.00">Engine/Source/Runtime</text>
<text text-anchor="middle" x="1390" y="-84" font-family="Helvetica,sans-Serif" font-size="10.00">/Resource/AssetManager.cpp</text>
</a>
</g>
</g>
<!-- Node2&#45;&gt;Node3 -->
<g id="edge2_Node000002_Node000003" class="edge">
<title>Node2&#45;&gt;Node3</title>
<g id="a_edge2_Node000002_Node000003"><a xlink:title=" ">
<path fill="none" stroke="#63b8ff" d="M1188.98,-140.65C1232.85,-130.25 1289.07,-116.93 1330.89,-107.01"/>
<polygon fill="#63b8ff" stroke="#63b8ff" points="1188.18,-137.24 1179.25,-142.95 1189.79,-144.05 1188.18,-137.24"/>
</a>
</g>
</g>
<!-- Node2&#45;&gt;Node4 -->
<g id="edge3_Node000002_Node000004" class="edge">
<title>Node2&#45;&gt;Node4</title>
<g id="a_edge3_Node000002_Node000004"><a xlink:title=" ">
<path fill="none" stroke="#63b8ff" d="M1089.01,-137.36C1070.17,-125.42 1047.05,-110.77 1032.66,-101.66"/>
<polygon fill="#63b8ff" stroke="#63b8ff" points="1087.26,-140.4 1097.58,-142.8 1091.01,-134.49 1087.26,-140.4"/>
</a>
</g>
</g>
<!-- Node5 -->
<g id="Node000005" class="node">
<title>Node5</title>
<g id="a_Node000005"><a xlink:href="GuiManager_8cpp.html" target="_top" xlink:title=" ">
<polygon fill="white" stroke="#666666" points="935.5,-35.5 818.5,-35.5 818.5,-5.5 935.5,-5.5 935.5,-35.5"/>
<text text-anchor="start" x="826.5" y="-23.5" font-family="Helvetica,sans-Serif" font-size="10.00">Engine/Source/Editor</text>
<text text-anchor="middle" x="877" y="-12.5" font-family="Helvetica,sans-Serif" font-size="10.00">/GuiManager.cpp</text>
</a>
</g>
</g>
<!-- Node4&#45;&gt;Node5 -->
<g id="edge4_Node000004_Node000005" class="edge">
<title>Node4&#45;&gt;Node5</title>
<g id="a_edge4_Node000004_Node000005"><a xlink:title=" ">
<path fill="none" stroke="#63b8ff" d="M992.43,-78C967.71,-65.9 930.98,-47.92 905.62,-35.51"/>
<polygon fill="#63b8ff" stroke="#63b8ff" points="991.07,-81.23 1001.59,-82.48 994.14,-74.94 991.07,-81.23"/>
</a>
</g>
</g>
<!-- Node6 -->
<g id="Node000006" class="node">
<title>Node6</title>
<g id="a_Node000006"><a xlink:href="ImGuiUI_8cpp.html" target="_top" xlink:title=" ">
<polygon fill="white" stroke="#666666" points="1070.5,-35.5 953.5,-35.5 953.5,-5.5 1070.5,-5.5 1070.5,-35.5"/>
<text text-anchor="start" x="961.5" y="-23.5" font-family="Helvetica,sans-Serif" font-size="10.00">Engine/Source/Editor</text>
<text text-anchor="middle" x="1012" y="-12.5" font-family="Helvetica,sans-Serif" font-size="10.00">/ImGui/ImGuiUI.cpp</text>
</a>
</g>
</g>
<!-- Node4&#45;&gt;Node6 -->
<g id="edge5_Node000004_Node000006" class="edge">
<title>Node4&#45;&gt;Node6</title>
<g id="a_edge5_Node000004_Node000006"><a xlink:title=" ">
<path fill="none" stroke="#63b8ff" d="M1017.11,-72.21C1015.95,-60.69 1014.49,-46.18 1013.42,-35.64"/>
<polygon fill="#63b8ff" stroke="#63b8ff" points="1013.66,-72.88 1018.14,-82.48 1020.62,-72.18 1013.66,-72.88"/>
</a>
</g>
</g>
<!-- Node7 -->
<g id="Node000007" class="node">
<title>Node7</title>
<g id="a_Node000007"><a xlink:href="HierarchyPanel_8cpp.html" target="_top" xlink:title=" ">
<polygon fill="white" stroke="#666666" points="1241,-41 1089,-41 1089,0 1241,0 1241,-41"/>
<text text-anchor="start" x="1097" y="-29" font-family="Helvetica,sans-Serif" font-size="10.00">Engine/Source/Editor</text>
<text text-anchor="start" x="1097" y="-18" font-family="Helvetica,sans-Serif" font-size="10.00">/Panels/Hierarchy/Hierarchy</text>
<text text-anchor="middle" x="1165" y="-7" font-family="Helvetica,sans-Serif" font-size="10.00">Panel.cpp</text>
</a>
</g>
</g>
<!-- Node4&#45;&gt;Node7 -->
<g id="edge6_Node000004_Node000007" class="edge">
<title>Node4&#45;&gt;Node7</title>
<g id="a_edge6_Node000004_Node000007"><a xlink:title=" ">
<path fill="none" stroke="#63b8ff" d="M1045.95,-78.17C1067.82,-67.76 1099.01,-52.91 1123.98,-41.03"/>
<polygon fill="#63b8ff" stroke="#63b8ff" points="1044.43,-75.02 1036.9,-82.48 1047.44,-81.34 1044.43,-75.02"/>
</a>
</g>
</g>
<!-- Node8 -->
<g id="Node000008" class="node">
<title>Node8</title>
<g id="a_Node000008"><a xlink:href="InspectorPanel_8cpp.html" target="_top" xlink:title=" ">
<polygon fill="white" stroke="#666666" points="1406.5,-41 1259.5,-41 1259.5,0 1406.5,0 1406.5,-41"/>
<text text-anchor="start" x="1267.5" y="-29" font-family="Helvetica,sans-Serif" font-size="10.00">Engine/Source/Editor</text>
<text text-anchor="start" x="1267.5" y="-18" font-family="Helvetica,sans-Serif" font-size="10.00">/Panels/Inspector/Inspector</text>
<text text-anchor="middle" x="1333" y="-7" font-family="Helvetica,sans-Serif" font-size="10.00">Panel.cpp</text>
</a>
</g>
</g>
<!-- Node4&#45;&gt;Node8 -->
<g id="edge7_Node000004_Node000008" class="edge">
<title>Node4&#45;&gt;Node8</title>
<g id="a_edge7_Node000004_Node000008"><a xlink:title=" ">
<path fill="none" stroke="#63b8ff" d="M1069.42,-80.35C1116.25,-70.4 1187.91,-55.01 1250,-41 1253.03,-40.32 1256.13,-39.61 1259.25,-38.9"/>
<polygon fill="#63b8ff" stroke="#63b8ff" points="1068.58,-76.95 1059.52,-82.45 1070.03,-83.8 1068.58,-76.95"/>
</a>
</g>
</g>
<!-- Node9 -->
<g id="Node000009" class="node">
<title>Node9</title>
<g id="a_Node000009"><a xlink:href="ProjectBrowserPanel_8cpp.html" target="_top" xlink:title="ProjectBrowserPanelの実装。">
<polygon fill="white" stroke="#666666" points="140,-41 0,-41 0,0 140,0 140,-41"/>
<text text-anchor="start" x="8" y="-29" font-family="Helvetica,sans-Serif" font-size="10.00">Engine/Source/Editor</text>
<text text-anchor="start" x="8" y="-18" font-family="Helvetica,sans-Serif" font-size="10.00">/Panels/ProjectBrowser</text>
<text text-anchor="middle" x="70" y="-7" font-family="Helvetica,sans-Serif" font-size="10.00">/ProjectBrowserPanel.cpp</text>
</a>
</g>
</g>
<!-- Node4&#45;&gt;Node9 -->
<g id="edge8_Node000004_Node000009" class="edge">
<title>Node4&#45;&gt;Node9</title>
<g id="a_edge8_Node000004_Node000009"><a xlink:title=" ">
<path fill="none" stroke="#63b8ff" d="M931.29,-91.29C773.75,-90.63 432.8,-83.81 149,-41 146.07,-40.56 143.08,-40.06 140.08,-39.51"/>
<polygon fill="#63b8ff" stroke="#63b8ff" points="931.39,-94.79 941.4,-91.32 931.41,-87.79 931.39,-94.79"/>
</a>
</g>
</g>
<!-- Node10 -->
<g id="Node000010" class="node">
<title>Node10</title>
<g id="a_Node000010"><a xlink:href="SceneViewPanel_8cpp.html" target="_top" xlink:title=" ">
<polygon fill="white" stroke="#666666" points="322,-41 158,-41 158,0 322,0 322,-41"/>
<text text-anchor="start" x="166" y="-29" font-family="Helvetica,sans-Serif" font-size="10.00">Engine/Source/Editor</text>
<text text-anchor="start" x="166" y="-18" font-family="Helvetica,sans-Serif" font-size="10.00">/Panels/SceneView/SceneView</text>
<text text-anchor="middle" x="240" y="-7" font-family="Helvetica,sans-Serif" font-size="10.00">Panel.cpp</text>
</a>
</g>
</g>
<!-- Node4&#45;&gt;Node10 -->
<g id="edge9_Node000004_Node000010" class="edge">
<title>Node4&#45;&gt;Node10</title>
<g id="a_edge9_Node000004_Node000010"><a xlink:title=" ">
<path fill="none" stroke="#63b8ff" d="M931.24,-88.51C800.07,-83.92 545.34,-71.6 331,-41 328.12,-40.59 325.2,-40.14 322.25,-39.66"/>
<polygon fill="#63b8ff" stroke="#63b8ff" points="931.13,-92.01 941.24,-88.86 931.37,-85.02 931.13,-92.01"/>
</a>
</g>
</g>
<!-- Node11 -->
<g id="Node000011" class="node">
<title>Node11</title>
<g id="a_Node000011"><a xlink:href="EditorFileSystem_8cpp.html" target="_top" xlink:title="EditorFileSystemの実装。">
<polygon fill="white" stroke="#666666" points="488,-35.5 340,-35.5 340,-5.5 488,-5.5 488,-35.5"/>
<text text-anchor="start" x="348" y="-23.5" font-family="Helvetica,sans-Serif" font-size="10.00">Engine/Source/Editor</text>
<text text-anchor="middle" x="414" y="-12.5" font-family="Helvetica,sans-Serif" font-size="10.00">/Utils/EditorFileSystem.cpp</text>
</a>
</g>
</g>
<!-- Node4&#45;&gt;Node11 -->
<g id="edge10_Node000004_Node000011" class="edge">
<title>Node4&#45;&gt;Node11</title>
<g id="a_edge10_Node000004_Node000011"><a xlink:title=" ">
<path fill="none" stroke="#63b8ff" d="M931.04,-86.22C826.9,-79.71 648.49,-65.93 497,-41 487.94,-39.51 478.41,-37.6 469.15,-35.55"/>
<polygon fill="#63b8ff" stroke="#63b8ff" points="930.99,-89.72 941.19,-86.84 931.42,-82.73 930.99,-89.72"/>
</a>
</g>
</g>
<!-- Node12 -->
<g id="Node000012" class="node">
<title>Node12</title>
<g id="a_Node000012"><a xlink:href="Application_8cpp.html" target="_top" xlink:title=" ">
<polygon fill="white" stroke="#666666" points="636,-35.5 506,-35.5 506,-5.5 636,-5.5 636,-35.5"/>
<text text-anchor="start" x="514" y="-23.5" font-family="Helvetica,sans-Serif" font-size="10.00">Engine/Source/Runtime</text>
<text text-anchor="middle" x="571" y="-12.5" font-family="Helvetica,sans-Serif" font-size="10.00">/Application.cpp</text>
</a>
</g>
</g>
<!-- Node4&#45;&gt;Node12 -->
<g id="edge11_Node000004_Node000012" class="edge">
<title>Node4&#45;&gt;Node12</title>
<g id="a_edge11_Node000004_Node000012"><a xlink:title=" ">
<path fill="none" stroke="#63b8ff" d="M931.15,-82.39C855.04,-74.18 742.17,-60.22 645,-41 637.18,-39.45 628.96,-37.56 620.96,-35.57"/>
<polygon fill="#63b8ff" stroke="#63b8ff" points="930.86,-85.88 941.18,-83.46 931.61,-78.92 930.86,-85.88"/>
</a>
</g>
</g>
<!-- Node13 -->
<g id="Node000013" class="node">
<title>Node13</title>
<g id="a_Node000013"><a xlink:href="AssetRegistry_8cpp.html" target="_top" xlink:title="AssetRegistryの実装。">
<polygon fill="white" stroke="#666666" points="1757,-35.5 1603,-35.5 1603,-5.5 1757,-5.5 1757,-35.5"/>
<text text-anchor="start" x="1611" y="-23.5" font-family="Helvetica,sans-Serif" font-size="10.00">Engine/Source/Runtime</text>
<text text-anchor="middle" x="1680" y="-12.5" font-family="Helvetica,sans-Serif" font-size="10.00">/Resource/AssetRegistry.cpp</text>
</a>
</g>
</g>
<!-- Node4&#45;&gt;Node13 -->
<g id="edge12_Node000004_Node000013" class="edge">
<title>Node4&#45;&gt;Node13</title>
<g id="a_edge12_Node000004_Node000013"><a xlink:title=" ">
<path fill="none" stroke="#63b8ff" d="M1106.59,-87.1C1219.71,-81.21 1422.46,-67.78 1594,-41 1603.53,-39.51 1613.58,-37.58 1623.31,-35.5"/>
<polygon fill="#63b8ff" stroke="#63b8ff" points="1106.41,-83.6 1096.6,-87.61 1106.76,-90.6 1106.41,-83.6"/>
</a>
</g>
</g>
<!-- Node14 -->
<g id="Node000014" class="node">
<title>Node14</title>
<g id="a_Node000014"><a xlink:href="AssetSerializer_8cpp.html" target="_top" xlink:title="AssetSerializerの実装。">
<polygon fill="white" stroke="#666666" points="1585,-35.5 1425,-35.5 1425,-5.5 1585,-5.5 1585,-35.5"/>
<text text-anchor="start" x="1433" y="-23.5" font-family="Helvetica,sans-Serif" font-size="10.00">Engine/Source/Runtime</text>
<text text-anchor="middle" x="1505" y="-12.5" font-family="Helvetica,sans-Serif" font-size="10.00">/Resource/AssetSerializer.cpp</text>
</a>
</g>
</g>
<!-- Node4&#45;&gt;Node14 -->
<g id="edge13_Node000004_Node000014" class="edge">
<title>Node4&#45;&gt;Node14</title>
<g id="a_edge13_Node000004_Node000014"><a xlink:title=" ">
<path fill="none" stroke="#63b8ff" d="M1106.64,-82.26C1187.31,-73.68 1310.13,-59.23 1416,-41 1425.2,-39.42 1434.88,-37.53 1444.34,-35.56"/>
<polygon fill="#63b8ff" stroke="#63b8ff" points="1106.1,-78.8 1096.53,-83.33 1106.84,-85.76 1106.1,-78.8"/>
</a>
</g>
</g>
<!-- Node15 -->
<g id="Node000015" class="node">
<title>Node15</title>
<g id="a_Node000015"><a xlink:href="SceneSerializer_8cpp.html" target="_top" xlink:title="SceneSerializerの実装。">
<polygon fill="white" stroke="#666666" points="800,-35.5 654,-35.5 654,-5.5 800,-5.5 800,-35.5"/>
<text text-anchor="start" x="662" y="-23.5" font-family="Helvetica,sans-Serif" font-size="10.00">Engine/Source/Runtime</text>
<text text-anchor="middle" x="727" y="-12.5" font-family="Helvetica,sans-Serif" font-size="10.00">/Scene/SceneSerializer.cpp</text>
</a>
</g>
</g>
<!-- Node4&#45;&gt;Node15 -->
<g id="edge14_Node000004_Node000015" class="edge">
<title>Node4&#45;&gt;Node15</title>
<g id="a_edge14_Node000004_Node000015"><a xlink:title=" ">
<path fill="none" stroke="#63b8ff" d="M973.21,-80.1C922.65,-68.07 841.11,-48.66 785.85,-35.51"/>
<polygon fill="#63b8ff" stroke="#63b8ff" points="972.66,-83.57 983.2,-82.48 974.28,-76.76 972.66,-83.57"/>
</a>
</g>
</g>
<!-- Node16&#45;&gt;Node3 -->
<g id="edge16_Node000016_Node000003" class="edge">
<title>Node16&#45;&gt;Node3</title>
<g id="a_edge16_Node000016_Node000003"><a xlink:title=" ">
<path fill="none" stroke="#63b8ff" d="M1315.28,-137.69C1331.79,-127.82 1351.53,-116.01 1366.57,-107.01"/>
<polygon fill="#63b8ff" stroke="#63b8ff" points="1313.27,-134.82 1306.48,-142.95 1316.86,-140.83 1313.27,-134.82"/>
</a>
</g>
</g>
<!-- Node16&#45;&gt;Node4 -->
<g id="edge18_Node000016_Node000004" class="edge">
<title>Node16&#45;&gt;Node4</title>
<g id="a_edge18_Node000016_Node000004"><a xlink:title=" ">
<path fill="none" stroke="#63b8ff" d="M1215.34,-140.6C1163.88,-128.12 1095.14,-111.46 1054.13,-101.52"/>
<polygon fill="#63b8ff" stroke="#63b8ff" points="1214.52,-144 1225.06,-142.95 1216.17,-137.2 1214.52,-144"/>
</a>
</g>
</g>
<!-- Node16&#45;&gt;Node13 -->
<g id="edge17_Node000016_Node000013" class="edge">
<title>Node16&#45;&gt;Node13</title>
<g id="a_edge17_Node000016_Node000013"><a xlink:title=" ">
<path fill="none" stroke="#63b8ff" d="M1281.92,-132.62C1282.54,-114.56 1286.6,-90.78 1302,-77 1350.71,-33.39 1529.59,-52.24 1594,-41 1603.05,-39.42 1612.58,-37.51 1621.87,-35.51"/>
<polygon fill="#63b8ff" stroke="#63b8ff" points="1278.42,-132.73 1281.9,-142.73 1285.42,-132.74 1278.42,-132.73"/>
</a>
</g>
</g>
<!-- Node17&#45;&gt;Node3 -->
<g id="edge20_Node000017_Node000003" class="edge">
<title>Node17&#45;&gt;Node3</title>
<g id="a_edge20_Node000017_Node000003"><a xlink:title=" ">
<path fill="none" stroke="#63b8ff" d="M1427.48,-135.09C1419.26,-125.85 1409.91,-115.36 1402.61,-107.16"/>
<polygon fill="#63b8ff" stroke="#63b8ff" points="1425.09,-137.66 1434.35,-142.8 1430.31,-133 1425.09,-137.66"/>
</a>
</g>
</g>
<!-- Node17&#45;&gt;Node4 -->
<g id="edge23_Node000017_Node000004" class="edge">
<title>Node17&#45;&gt;Node4</title>
<g id="a_edge23_Node000017_Node000004"><a xlink:title=" ">
<path fill="none" stroke="#63b8ff" d="M1362.27,-142.75C1257.89,-126.47 1147.69,-110.83 1080.76,-101.51"/>
<polygon fill="#63b8ff" stroke="#63b8ff" points="1361.94,-146.24 1372.36,-144.33 1363.02,-139.32 1361.94,-146.24"/>
</a>
</g>
</g>
<!-- Node17&#45;&gt;Node13 -->
<g id="edge21_Node000017_Node000013" class="edge">
<title>Node17&#45;&gt;Node13</title>
<g id="a_edge21_Node000017_Node000013"><a xlink:title=" ">
<path fill="none" stroke="#63b8ff" d="M1480.17,-137.71C1527.66,-110.09 1613.91,-59.93 1655.83,-35.55"/>
<polygon fill="#63b8ff" stroke="#63b8ff" points="1478.38,-134.7 1471.49,-142.76 1481.9,-140.75 1478.38,-134.7"/>
</a>
</g>
</g>
<!-- Node17&#45;&gt;Node14 -->
<g id="edge22_Node000017_Node000014" class="edge">
<title>Node17&#45;&gt;Node14</title>
<g id="a_edge22_Node000017_Node000014"><a xlink:title=" ">
<path fill="none" stroke="#63b8ff" d="M1462.78,-134.24C1468.09,-125.92 1473.74,-116.27 1478,-107 1489.11,-82.81 1497.42,-52.79 1501.72,-35.52"/>
<polygon fill="#63b8ff" stroke="#63b8ff" points="1459.81,-132.39 1457.23,-142.66 1465.65,-136.24 1459.81,-132.39"/>
</a>
</g>
</g>
</g>
</svg>
