<?xml version="1.0" encoding="UTF-8" standalone="no"?>
<!DOCTYPE svg PUBLIC "-//W3C//DTD SVG 1.1//EN"
 "http://www.w3.org/Graphics/SVG/1.1/DTD/svg11.dtd">
<!-- Generated by graphviz version 2.43.0 (0)
 -->
<!-- Title: Engine/Source/Runtime/Resource/AssetMetadata.h Pages: 1 -->
<svg width="1298pt" height="302pt"
 viewBox="0.00 0.00 1297.50 302.00" xmlns="http://www.w3.org/2000/svg" xmlns:xlink="http://www.w3.org/1999/xlink">
<g id="graph0" class="graph" transform="scale(1 1) rotate(0) translate(4 298)">
<title>Engine/Source/Runtime/Resource/AssetMetadata.h</title>
<!-- Node1 -->
<g id="Node000001" class="node">
<title>Node1</title>
<g id="a_Node000001"><a xlink:title="アセットのメタデータを定義する構造体。">
<polygon fill="#999999" stroke="#666666" points="663,-294 513,-294 513,-264 663,-264 663,-294"/>
<text text-anchor="start" x="521" y="-282" font-family="Helvetica,sans-Serif" font-size="10.00">Engine/Source/Runtime</text>
<text text-anchor="middle" x="588" y="-271" font-family="Helvetica,sans-Serif" font-size="10.00">/Resource/AssetMetadata.h</text>
</a>
</g>
</g>
<!-- Node2 -->
<g id="Node000002" class="node">
<title>Node2</title>
<g id="a_Node000002"><a xlink:href="AssetSerializer_8h.html" target="_top" xlink:title=".metaファイルの読み書きを担当。">
<polygon fill="white" stroke="#666666" points="611.5,-228 462.5,-228 462.5,-198 611.5,-198 611.5,-228"/>
<text text-anchor="start" x="470.5" y="-216" font-family="Helvetica,sans-Serif" font-size="10.00">Engine/Source/Runtime</text>
<text text-anchor="middle" x="537" y="-205" font-family="Helvetica,sans-Serif" font-size="10.00">/Resource/AssetSerializer.h</text>
</a>
</g>
</g>
<!-- Node1&#45;&gt;Node2 -->
<g id="edge1_Node000001_Node000002" class="edge">
<title>Node1&#45;&gt;Node2</title>
<g id="a_edge1_Node000001_Node000002"><a xlink:title=" ">
<path fill="none" stroke="#63b8ff" d="M570.32,-255.81C563.01,-246.64 554.75,-236.28 548.29,-228.16"/>
<polygon fill="#63b8ff" stroke="#63b8ff" points="567.71,-258.16 576.68,-263.8 573.19,-253.79 567.71,-258.16"/>
</a>
</g>
</g>
<!-- Node4 -->
<g id="Node000004" class="node">
<title>Node4</title>
<g id="a_Node000004"><a xlink:href="SpanEngine_8h.html" target="_top" xlink:title=" ">
<polygon fill="white" stroke="#666666" points="716.5,-162 561.5,-162 561.5,-143 716.5,-143 716.5,-162"/>
<text text-anchor="middle" x="639" y="-150" font-family="Helvetica,sans-Serif" font-size="10.00">Engine/Source/SpanEngine.h</text>
</a>
</g>
</g>
<!-- Node1&#45;&gt;Node4 -->
<g id="edge14_Node000001_Node000004" class="edge">
<title>Node1&#45;&gt;Node4</title>
<g id="a_edge14_Node000001_Node000004"><a xlink:title=" ">
<path fill="none" stroke="#63b8ff" d="M604.62,-255.43C610.13,-247.13 615.9,-237.44 620,-228 629.89,-205.23 635.44,-176.22 637.73,-162.06"/>
<polygon fill="#63b8ff" stroke="#63b8ff" points="601.63,-253.6 598.82,-263.82 607.39,-257.58 601.63,-253.6"/>
</a>
</g>
</g>
<!-- Node3 -->
<g id="Node000003" class="node">
<title>Node3</title>
<g id="a_Node000003"><a xlink:href="AssetSerializer_8cpp.html" target="_top" xlink:title="AssetSerializerの実装。">
<polygon fill="white" stroke="#666666" points="160,-101.5 0,-101.5 0,-71.5 160,-71.5 160,-101.5"/>
<text text-anchor="start" x="8" y="-89.5" font-family="Helvetica,sans-Serif" font-size="10.00">Engine/Source/Runtime</text>
<text text-anchor="middle" x="80" y="-78.5" font-family="Helvetica,sans-Serif" font-size="10.00">/Resource/AssetSerializer.cpp</text>
</a>
</g>
</g>
<!-- Node2&#45;&gt;Node3 -->
<g id="edge2_Node000002_Node000003" class="edge">
<title>Node2&#45;&gt;Node3</title>
<g id="a_edge2_Node000002_Node000003"><a xlink:title=" ">
<path fill="none" stroke="#63b8ff" d="M475.59,-195.27C384.84,-170.55 216.51,-124.69 131.7,-101.58"/>
<polygon fill="#63b8ff" stroke="#63b8ff" points="474.9,-198.71 485.46,-197.96 476.74,-191.95 474.9,-198.71"/>
</a>
</g>
</g>
<!-- Node2&#45;&gt;Node4 -->
<g id="edge3_Node000002_Node000004" class="edge">
<title>Node2&#45;&gt;Node4</title>
<g id="a_edge3_Node000002_Node000004"><a xlink:title=" ">
<path fill="none" stroke="#63b8ff" d="M570.51,-192.78C588.55,-182.43 609.92,-170.18 623.94,-162.14"/>
<polygon fill="#63b8ff" stroke="#63b8ff" points="568.36,-189.98 561.43,-197.99 571.85,-196.05 568.36,-189.98"/>
</a>
</g>
</g>
<!-- Node4&#45;&gt;Node3 -->
<g id="edge13_Node000004_Node000003" class="edge">
<title>Node4&#45;&gt;Node3</title>
<g id="a_edge13_Node000004_Node000003"><a xlink:title=" ">
<path fill="none" stroke="#63b8ff" d="M551.19,-146.38C456.47,-140.11 301.43,-127.7 169,-107 159.31,-105.49 149.09,-103.56 139.17,-101.51"/>
<polygon fill="#63b8ff" stroke="#63b8ff" points="551.09,-149.88 561.3,-147.04 551.54,-142.9 551.09,-149.88"/>
</a>
</g>
</g>
<!-- Node5 -->
<g id="Node000005" class="node">
<title>Node5</title>
<g id="a_Node000005"><a xlink:href="GuiManager_8cpp.html" target="_top" xlink:title=" ">
<polygon fill="white" stroke="#666666" points="295.5,-101.5 178.5,-101.5 178.5,-71.5 295.5,-71.5 295.5,-101.5"/>
<text text-anchor="start" x="186.5" y="-89.5" font-family="Helvetica,sans-Serif" font-size="10.00">Engine/Source/Editor</text>
<text text-anchor="middle" x="237" y="-78.5" font-family="Helvetica,sans-Serif" font-size="10.00">/GuiManager.cpp</text>
</a>
</g>
</g>
<!-- Node4&#45;&gt;Node5 -->
<g id="edge4_Node000004_Node000005" class="edge">
<title>Node4&#45;&gt;Node5</title>
<g id="a_edge4_Node000004_Node000005"><a xlink:title=" ">
<path fill="none" stroke="#63b8ff" d="M550.98,-143.34C483.28,-136.2 387.65,-124.26 305,-107 297.67,-105.47 289.97,-103.56 282.49,-101.54"/>
<polygon fill="#63b8ff" stroke="#63b8ff" points="550.87,-146.85 561.18,-144.4 551.59,-139.88 550.87,-146.85"/>
</a>
</g>
</g>
<!-- Node6 -->
<g id="Node000006" class="node">
<title>Node6</title>
<g id="a_Node000006"><a xlink:href="HierarchyPanel_8cpp.html" target="_top" xlink:title=" ">
<polygon fill="white" stroke="#666666" points="466,-107 314,-107 314,-66 466,-66 466,-107"/>
<text text-anchor="start" x="322" y="-95" font-family="Helvetica,sans-Serif" font-size="10.00">Engine/Source/Editor</text>
<text text-anchor="start" x="322" y="-84" font-family="Helvetica,sans-Serif" font-size="10.00">/Panels/Hierarchy/Hierarchy</text>
<text text-anchor="middle" x="390" y="-73" font-family="Helvetica,sans-Serif" font-size="10.00">Panel.cpp</text>
</a>
</g>
</g>
<!-- Node4&#45;&gt;Node6 -->
<g id="edge5_Node000004_Node000006" class="edge">
<title>Node4&#45;&gt;Node6</title>
<g id="a_edge5_Node000004_Node000006"><a xlink:title=" ">
<path fill="none" stroke="#63b8ff" d="M595.6,-140.34C559.93,-131.18 508.54,-117.97 466.06,-107.05"/>
<polygon fill="#63b8ff" stroke="#63b8ff" points="595.12,-143.84 605.68,-142.94 596.86,-137.06 595.12,-143.84"/>
</a>
</g>
</g>
<!-- Node7 -->
<g id="Node000007" class="node">
<title>Node7</title>
<g id="a_Node000007"><a xlink:href="InspectorPanel_8cpp.html" target="_top" xlink:title=" ">
<polygon fill="white" stroke="#666666" points="631.5,-107 484.5,-107 484.5,-66 631.5,-66 631.5,-107"/>
<text text-anchor="start" x="492.5" y="-95" font-family="Helvetica,sans-Serif" font-size="10.00">Engine/Source/Editor</text>
<text text-anchor="start" x="492.5" y="-84" font-family="Helvetica,sans-Serif" font-size="10.00">/Panels/Inspector/Inspector</text>
<text text-anchor="middle" x="558" y="-73" font-family="Helvetica,sans-Serif" font-size="10.00">Panel.cpp</text>
</a>
</g>
</g>
<!-- Node4&#45;&gt;Node7 -->
<g id="edge6_Node000004_Node000007" class="edge">
<title>Node4&#45;&gt;Node7</title>
<g id="a_edge6_Node000004_Node000007"><a xlink:title=" ">
<path fill="none" stroke="#63b8ff" d="M619.91,-136.41C608.79,-127.63 594.65,-116.46 582.69,-107.01"/>
<polygon fill="#63b8ff" stroke="#63b8ff" points="618.06,-139.42 628.08,-142.87 622.4,-133.92 618.06,-139.42"/>
</a>
</g>
</g>
<!-- Node8 -->
<g id="Node000008" class="node">
<title>Node8</title>
<g id="a_Node000008"><a xlink:href="ProjectBrowserPanel_8cpp.html" target="_top" xlink:title="ProjectBrowserPanelの実装。">
<polygon fill="white" stroke="#666666" points="790,-107 650,-107 650,-66 790,-66 790,-107"/>
<text text-anchor="start" x="658" y="-95" font-family="Helvetica,sans-Serif" font-size="10.00">Engine/Source/Editor</text>
<text text-anchor="start" x="658" y="-84" font-family="Helvetica,sans-Serif" font-size="10.00">/Panels/ProjectBrowser</text>
<text text-anchor="middle" x="720" y="-73" font-family="Helvetica,sans-Serif" font-size="10.00">/ProjectBrowserPanel.cpp</text>
</a>
</g>
</g>
<!-- Node4&#45;&gt;Node8 -->
<g id="edge7_Node000004_Node000008" class="edge">
<title>Node4&#45;&gt;Node8</title>
<g id="a_edge7_Node000004_Node000008"><a xlink:title=" ">
<path fill="none" stroke="#63b8ff" d="M658.09,-136.41C669.21,-127.63 683.35,-116.46 695.31,-107.01"/>
<polygon fill="#63b8ff" stroke="#63b8ff" points="655.6,-133.92 649.92,-142.87 659.94,-139.42 655.6,-133.92"/>
</a>
</g>
</g>
<!-- Node9 -->
<g id="Node000009" class="node">
<title>Node9</title>
<g id="a_Node000009"><a xlink:href="SceneViewPanel_8cpp.html" target="_top" xlink:title=" ">
<polygon fill="white" stroke="#666666" points="972,-107 808,-107 808,-66 972,-66 972,-107"/>
<text text-anchor="start" x="816" y="-95" font-family="Helvetica,sans-Serif" font-size="10.00">Engine/Source/Editor</text>
<text text-anchor="start" x="816" y="-84" font-family="Helvetica,sans-Serif" font-size="10.00">/Panels/SceneView/SceneView</text>
<text text-anchor="middle" x="890" y="-73" font-family="Helvetica,sans-Serif" font-size="10.00">Panel.cpp</text>
</a>
</g>
</g>
<!-- Node4&#45;&gt;Node9 -->
<g id="edge8_Node000004_Node000009" class="edge">
<title>Node4&#45;&gt;Node9</title>
<g id="a_edge8_Node000004_Node000009"><a xlink:title=" ">
<path fill="none" stroke="#63b8ff" d="M682.29,-140.46C718.26,-131.29 770.32,-118.02 813.33,-107.05"/>
<polygon fill="#63b8ff" stroke="#63b8ff" points="681.42,-137.07 672.59,-142.94 683.15,-143.86 681.42,-137.07"/>
</a>
</g>
</g>
<!-- Node10 -->
<g id="Node000010" class="node">
<title>Node10</title>
<g id="a_Node000010"><a xlink:href="Application_8cpp.html" target="_top" xlink:title=" ">
<polygon fill="white" stroke="#666666" points="1120,-101.5 990,-101.5 990,-71.5 1120,-71.5 1120,-101.5"/>
<text text-anchor="start" x="998" y="-89.5" font-family="Helvetica,sans-Serif" font-size="10.00">Engine/Source/Runtime</text>
<text text-anchor="middle" x="1055" y="-78.5" font-family="Helvetica,sans-Serif" font-size="10.00">/Application.cpp</text>
</a>
</g>
</g>
<!-- Node4&#45;&gt;Node10 -->
<g id="edge9_Node000004_Node000010" class="edge">
<title>Node4&#45;&gt;Node10</title>
<g id="a_edge9_Node000004_Node000010"><a xlink:title=" ">
<path fill="none" stroke="#63b8ff" d="M726.56,-143.23C795.95,-135.93 895.17,-123.82 981,-107 988.82,-105.47 997.04,-103.58 1005.05,-101.59"/>
<polygon fill="#63b8ff" stroke="#63b8ff" points="726.12,-139.76 716.54,-144.28 726.85,-146.72 726.12,-139.76"/>
</a>
</g>
</g>
<!-- Node11 -->
<g id="Node000011" class="node">
<title>Node11</title>
<g id="a_Node000011"><a xlink:href="AssetManager_8h.html" target="_top" xlink:title="エンジン全域のアセットライフサイクルを管理するシングルトン。">
<polygon fill="white" stroke="#666666" points="1284,-101.5 1138,-101.5 1138,-71.5 1284,-71.5 1284,-101.5"/>
<text text-anchor="start" x="1146" y="-89.5" font-family="Helvetica,sans-Serif" font-size="10.00">Engine/Source/Runtime</text>
<text text-anchor="middle" x="1211" y="-78.5" font-family="Helvetica,sans-Serif" font-size="10.00">/Resource/AssetManager.h</text>
</a>
</g>
</g>
<!-- Node4&#45;&gt;Node11 -->
<g id="edge10_Node000004_Node000011" class="edge">
<title>Node4&#45;&gt;Node11</title>
<g id="a_edge10_Node000004_Node000011"><a xlink:title=" ">
<path fill="none" stroke="#63b8ff" d="M726.69,-146.94C823.45,-141.22 983.42,-129.32 1120,-107 1129.1,-105.51 1138.68,-103.58 1148.1,-101.5"/>
<polygon fill="#63b8ff" stroke="#63b8ff" points="726.44,-143.45 716.66,-147.52 726.85,-150.43 726.44,-143.45"/>
</a>
</g>
</g>
<!-- Node11&#45;&gt;Node4 -->
<g id="edge12_Node000011_Node000004" class="edge">
<title>Node11&#45;&gt;Node4</title>
<g id="a_edge12_Node000011_Node000004"><a xlink:title=" ">
<path fill="none" stroke="#63b8ff" d="M1155.84,-103.67C1149.86,-104.91 1143.83,-106.05 1138,-107 990.26,-131.15 815.17,-143.09 716.52,-148.22"/>
<polygon fill="#63b8ff" stroke="#63b8ff" points="1156.8,-107.04 1165.83,-101.5 1155.32,-100.2 1156.8,-107.04"/>
</a>
</g>
</g>
<!-- Node12 -->
<g id="Node000012" class="node">
<title>Node12</title>
<g id="a_Node000012"><a xlink:href="AssetManager_8cpp.html" target="_top" xlink:title="AssetManagerの実装。">
<polygon fill="white" stroke="#666666" points="1289.5,-30 1132.5,-30 1132.5,0 1289.5,0 1289.5,-30"/>
<text text-anchor="start" x="1140.5" y="-18" font-family="Helvetica,sans-Serif" font-size="10.00">Engine/Source/Runtime</text>
<text text-anchor="middle" x="1211" y="-7" font-family="Helvetica,sans-Serif" font-size="10.00">/Resource/AssetManager.cpp</text>
</a>
</g>
</g>
<!-- Node11&#45;&gt;Node12 -->
<g id="edge11_Node000011_Node000012" class="edge">
<title>Node11&#45;&gt;Node12</title>
<g id="a_edge11_Node000011_Node000012"><a xlink:title=" ">
<path fill="none" stroke="#63b8ff" d="M1211,-61.25C1211,-50.81 1211,-38.99 1211,-30.04"/>
<polygon fill="#63b8ff" stroke="#63b8ff" points="1207.5,-61.44 1211,-71.44 1214.5,-61.44 1207.5,-61.44"/>
</a>
</g>
</g>
</g>
</svg>
