<?xml version="1.0" encoding="UTF-8" standalone="no"?>
<!DOCTYPE svg PUBLIC "-//W3C//DTD SVG 1.1//EN"
 "http://www.w3.org/Graphics/SVG/1.1/DTD/svg11.dtd">
<!-- Generated by graphviz version 2.43.0 (0)
 -->
<!-- Title: Engine/Source/Runtime/Resource/AssetMetadata.h Pages: 1 -->
<svg width="1429pt" height="236pt"
 viewBox="0.00 0.00 1429.00 236.00" xmlns="http://www.w3.org/2000/svg" xmlns:xlink="http://www.w3.org/1999/xlink">
<g id="graph0" class="graph" transform="scale(1 1) rotate(0) translate(4 232)">
<title>Engine/Source/Runtime/Resource/AssetMetadata.h</title>
<!-- Node1 -->
<g id="Node000001" class="node">
<title>Node1</title>
<g id="a_Node000001"><a xlink:title="アセットのメタデータを定義する構造体。">
<polygon fill="#999999" stroke="#666666" points="633,-228 483,-228 483,-198 633,-198 633,-228"/>
<text text-anchor="start" x="491" y="-216" font-family="Helvetica,sans-Serif" font-size="10.00">Engine/Source/Runtime</text>
<text text-anchor="middle" x="558" y="-205" font-family="Helvetica,sans-Serif" font-size="10.00">/Resource/AssetMetadata.h</text>
</a>
</g>
</g>
<!-- Node2 -->
<g id="Node000002" class="node">
<title>Node2</title>
<g id="a_Node000002"><a xlink:href="AssetSerializer_8h.html" target="_top" xlink:title=".metaファイルの読み書きを担当。">
<polygon fill="white" stroke="#666666" points="581.5,-162 432.5,-162 432.5,-132 581.5,-132 581.5,-162"/>
<text text-anchor="start" x="440.5" y="-150" font-family="Helvetica,sans-Serif" font-size="10.00">Engine/Source/Runtime</text>
<text text-anchor="middle" x="507" y="-139" font-family="Helvetica,sans-Serif" font-size="10.00">/Resource/AssetSerializer.h</text>
</a>
</g>
</g>
<!-- Node1&#45;&gt;Node2 -->
<g id="edge1_Node000001_Node000002" class="edge">
<title>Node1&#45;&gt;Node2</title>
<g id="a_edge1_Node000001_Node000002"><a xlink:title=" ">
<path fill="none" stroke="#63b8ff" d="M540.32,-189.81C533.01,-180.64 524.75,-170.28 518.29,-162.16"/>
<polygon fill="#63b8ff" stroke="#63b8ff" points="537.71,-192.16 546.68,-197.8 543.19,-187.79 537.71,-192.16"/>
</a>
</g>
</g>
<!-- Node4 -->
<g id="Node000004" class="node">
<title>Node4</title>
<g id="a_Node000004"><a xlink:href="SpanEngine_8h.html" target="_top" xlink:title=" ">
<polygon fill="white" stroke="#666666" points="686.5,-96 531.5,-96 531.5,-77 686.5,-77 686.5,-96"/>
<text text-anchor="middle" x="609" y="-84" font-family="Helvetica,sans-Serif" font-size="10.00">Engine/Source/SpanEngine.h</text>
</a>
</g>
</g>
<!-- Node1&#45;&gt;Node4 -->
<g id="edge13_Node000001_Node000004" class="edge">
<title>Node1&#45;&gt;Node4</title>
<g id="a_edge13_Node000001_Node000004"><a xlink:title=" ">
<path fill="none" stroke="#63b8ff" d="M574.62,-189.43C580.13,-181.13 585.9,-171.44 590,-162 599.89,-139.23 605.44,-110.22 607.73,-96.06"/>
<polygon fill="#63b8ff" stroke="#63b8ff" points="571.63,-187.6 568.82,-197.82 577.39,-191.58 571.63,-187.6"/>
</a>
</g>
</g>
<!-- Node3 -->
<g id="Node000003" class="node">
<title>Node3</title>
<g id="a_Node000003"><a xlink:href="AssetSerializer_8cpp.html" target="_top" xlink:title="AssetSerializerの実装。">
<polygon fill="white" stroke="#666666" points="160,-35.5 0,-35.5 0,-5.5 160,-5.5 160,-35.5"/>
<text text-anchor="start" x="8" y="-23.5" font-family="Helvetica,sans-Serif" font-size="10.00">Engine/Source/Runtime</text>
<text text-anchor="middle" x="80" y="-12.5" font-family="Helvetica,sans-Serif" font-size="10.00">/Resource/AssetSerializer.cpp</text>
</a>
</g>
</g>
<!-- Node2&#45;&gt;Node3 -->
<g id="edge2_Node000002_Node000003" class="edge">
<title>Node2&#45;&gt;Node3</title>
<g id="a_edge2_Node000002_Node000003"><a xlink:title=" ">
<path fill="none" stroke="#63b8ff" d="M449.11,-129.12C364.19,-104.36 207.39,-58.64 128.3,-35.58"/>
<polygon fill="#63b8ff" stroke="#63b8ff" points="448.27,-132.52 458.85,-131.96 450.23,-125.8 448.27,-132.52"/>
</a>
</g>
</g>
<!-- Node2&#45;&gt;Node4 -->
<g id="edge3_Node000002_Node000004" class="edge">
<title>Node2&#45;&gt;Node4</title>
<g id="a_edge3_Node000002_Node000004"><a xlink:title=" ">
<path fill="none" stroke="#63b8ff" d="M540.51,-126.78C558.55,-116.43 579.92,-104.18 593.94,-96.14"/>
<polygon fill="#63b8ff" stroke="#63b8ff" points="538.36,-123.98 531.43,-131.99 541.85,-130.05 538.36,-123.98"/>
</a>
</g>
</g>
<!-- Node4&#45;&gt;Node3 -->
<g id="edge12_Node000004_Node000003" class="edge">
<title>Node4&#45;&gt;Node3</title>
<g id="a_edge12_Node000004_Node000003"><a xlink:title=" ">
<path fill="none" stroke="#63b8ff" d="M521.09,-79.6C432,-72.91 290.37,-60.37 169,-41 159.47,-39.48 149.43,-37.58 139.66,-35.56"/>
<polygon fill="#63b8ff" stroke="#63b8ff" points="520.92,-83.09 531.16,-80.34 521.44,-76.11 520.92,-83.09"/>
</a>
</g>
</g>
<!-- Node5 -->
<g id="Node000005" class="node">
<title>Node5</title>
<g id="a_Node000005"><a xlink:href="GuiManager_8cpp.html" target="_top" xlink:title=" ">
<polygon fill="white" stroke="#666666" points="295.5,-35.5 178.5,-35.5 178.5,-5.5 295.5,-5.5 295.5,-35.5"/>
<text text-anchor="start" x="186.5" y="-23.5" font-family="Helvetica,sans-Serif" font-size="10.00">Engine/Source/Editor</text>
<text text-anchor="middle" x="237" y="-12.5" font-family="Helvetica,sans-Serif" font-size="10.00">/GuiManager.cpp</text>
</a>
</g>
</g>
<!-- Node4&#45;&gt;Node5 -->
<g id="edge4_Node000004_Node000005" class="edge">
<title>Node4&#45;&gt;Node5</title>
<g id="a_edge4_Node000004_Node000005"><a xlink:title=" ">
<path fill="none" stroke="#63b8ff" d="M521.36,-75.98C460.08,-68.52 376.57,-56.77 304,-41 296.9,-39.46 289.44,-37.56 282.19,-35.57"/>
<polygon fill="#63b8ff" stroke="#63b8ff" points="521.03,-79.46 531.38,-77.18 521.87,-72.51 521.03,-79.46"/>
</a>
</g>
</g>
<!-- Node6 -->
<g id="Node000006" class="node">
<title>Node6</title>
<g id="a_Node000006"><a xlink:href="ImGuiUI_8cpp.html" target="_top" xlink:title=" ">
<polygon fill="white" stroke="#666666" points="430.5,-35.5 313.5,-35.5 313.5,-5.5 430.5,-5.5 430.5,-35.5"/>
<text text-anchor="start" x="321.5" y="-23.5" font-family="Helvetica,sans-Serif" font-size="10.00">Engine/Source/Editor</text>
<text text-anchor="middle" x="372" y="-12.5" font-family="Helvetica,sans-Serif" font-size="10.00">/ImGui/ImGuiUI.cpp</text>
</a>
</g>
</g>
<!-- Node4&#45;&gt;Node6 -->
<g id="edge5_Node000004_Node000006" class="edge">
<title>Node4&#45;&gt;Node6</title>
<g id="a_edge5_Node000004_Node000006"><a xlink:title=" ">
<path fill="none" stroke="#63b8ff" d="M565.48,-74.32C531.31,-65.47 482.55,-52.7 440,-41 433.72,-39.27 427.13,-37.43 420.62,-35.58"/>
<polygon fill="#63b8ff" stroke="#63b8ff" points="565.04,-77.82 575.59,-76.93 566.79,-71.04 565.04,-77.82"/>
</a>
</g>
</g>
<!-- Node7 -->
<g id="Node000007" class="node">
<title>Node7</title>
<g id="a_Node000007"><a xlink:href="HierarchyPanel_8cpp.html" target="_top" xlink:title=" ">
<polygon fill="white" stroke="#666666" points="601,-41 449,-41 449,0 601,0 601,-41"/>
<text text-anchor="start" x="457" y="-29" font-family="Helvetica,sans-Serif" font-size="10.00">Engine/Source/Editor</text>
<text text-anchor="start" x="457" y="-18" font-family="Helvetica,sans-Serif" font-size="10.00">/Panels/Hierarchy/Hierarchy</text>
<text text-anchor="middle" x="525" y="-7" font-family="Helvetica,sans-Serif" font-size="10.00">Panel.cpp</text>
</a>
</g>
</g>
<!-- Node4&#45;&gt;Node7 -->
<g id="edge6_Node000004_Node000007" class="edge">
<title>Node4&#45;&gt;Node7</title>
<g id="a_edge6_Node000004_Node000007"><a xlink:title=" ">
<path fill="none" stroke="#63b8ff" d="M589.54,-70.67C577.96,-61.85 563.13,-50.55 550.61,-41.01"/>
<polygon fill="#63b8ff" stroke="#63b8ff" points="587.6,-73.59 597.67,-76.87 591.84,-68.02 587.6,-73.59"/>
</a>
</g>
</g>
<!-- Node8 -->
<g id="Node000008" class="node">
<title>Node8</title>
<g id="a_Node000008"><a xlink:href="InspectorPanel_8cpp.html" target="_top" xlink:title=" ">
<polygon fill="white" stroke="#666666" points="766.5,-41 619.5,-41 619.5,0 766.5,0 766.5,-41"/>
<text text-anchor="start" x="627.5" y="-29" font-family="Helvetica,sans-Serif" font-size="10.00">Engine/Source/Editor</text>
<text text-anchor="start" x="627.5" y="-18" font-family="Helvetica,sans-Serif" font-size="10.00">/Panels/Inspector/Inspector</text>
<text text-anchor="middle" x="693" y="-7" font-family="Helvetica,sans-Serif" font-size="10.00">Panel.cpp</text>
</a>
</g>
</g>
<!-- Node4&#45;&gt;Node8 -->
<g id="edge7_Node000004_Node000008" class="edge">
<title>Node4&#45;&gt;Node8</title>
<g id="a_edge7_Node000004_Node000008"><a xlink:title=" ">
<path fill="none" stroke="#63b8ff" d="M628.46,-70.67C640.04,-61.85 654.87,-50.55 667.39,-41.01"/>
<polygon fill="#63b8ff" stroke="#63b8ff" points="626.16,-68.02 620.33,-76.87 630.4,-73.59 626.16,-68.02"/>
</a>
</g>
</g>
<!-- Node9 -->
<g id="Node000009" class="node">
<title>Node9</title>
<g id="a_Node000009"><a xlink:href="ProjectBrowserPanel_8cpp.html" target="_top" xlink:title="ProjectBrowserPanelの実装。">
<polygon fill="white" stroke="#666666" points="925,-41 785,-41 785,0 925,0 925,-41"/>
<text text-anchor="start" x="793" y="-29" font-family="Helvetica,sans-Serif" font-size="10.00">Engine/Source/Editor</text>
<text text-anchor="start" x="793" y="-18" font-family="Helvetica,sans-Serif" font-size="10.00">/Panels/ProjectBrowser</text>
<text text-anchor="middle" x="855" y="-7" font-family="Helvetica,sans-Serif" font-size="10.00">/ProjectBrowserPanel.cpp</text>
</a>
</g>
</g>
<!-- Node4&#45;&gt;Node9 -->
<g id="edge8_Node000004_Node000009" class="edge">
<title>Node4&#45;&gt;Node9</title>
<g id="a_edge8_Node000004_Node000009"><a xlink:title=" ">
<path fill="none" stroke="#63b8ff" d="M651.8,-74.37C688.48,-64.82 742.04,-50.89 784.97,-39.72"/>
<polygon fill="#63b8ff" stroke="#63b8ff" points="650.72,-71.03 641.92,-76.94 652.48,-77.8 650.72,-71.03"/>
</a>
</g>
</g>
<!-- Node10 -->
<g id="Node000010" class="node">
<title>Node10</title>
<g id="a_Node000010"><a xlink:href="SceneViewPanel_8cpp.html" target="_top" xlink:title=" ">
<polygon fill="white" stroke="#666666" points="1107,-41 943,-41 943,0 1107,0 1107,-41"/>
<text text-anchor="start" x="951" y="-29" font-family="Helvetica,sans-Serif" font-size="10.00">Engine/Source/Editor</text>
<text text-anchor="start" x="951" y="-18" font-family="Helvetica,sans-Serif" font-size="10.00">/Panels/SceneView/SceneView</text>
<text text-anchor="middle" x="1025" y="-7" font-family="Helvetica,sans-Serif" font-size="10.00">Panel.cpp</text>
</a>
</g>
</g>
<!-- Node4&#45;&gt;Node10 -->
<g id="edge9_Node000004_Node000010" class="edge">
<title>Node4&#45;&gt;Node10</title>
<g id="a_edge9_Node000004_Node000010"><a xlink:title=" ">
<path fill="none" stroke="#63b8ff" d="M693.13,-75.74C758.9,-67.68 852.53,-55.29 934,-41 936.86,-40.5 939.78,-39.97 942.71,-39.42"/>
<polygon fill="#63b8ff" stroke="#63b8ff" points="692.32,-72.31 682.82,-76.99 693.17,-79.26 692.32,-72.31"/>
</a>
</g>
</g>
<!-- Node11 -->
<g id="Node000011" class="node">
<title>Node11</title>
<g id="a_Node000011"><a xlink:href="EditorFileSystem_8cpp.html" target="_top" xlink:title="EditorFileSystemの実装。">
<polygon fill="white" stroke="#666666" points="1273,-35.5 1125,-35.5 1125,-5.5 1273,-5.5 1273,-35.5"/>
<text text-anchor="start" x="1133" y="-23.5" font-family="Helvetica,sans-Serif" font-size="10.00">Engine/Source/Editor</text>
<text text-anchor="middle" x="1199" y="-12.5" font-family="Helvetica,sans-Serif" font-size="10.00">/Utils/EditorFileSystem.cpp</text>
</a>
</g>
</g>
<!-- Node4&#45;&gt;Node11 -->
<g id="edge10_Node000004_Node000011" class="edge">
<title>Node4&#45;&gt;Node11</title>
<g id="a_edge10_Node000004_Node000011"><a xlink:title=" ">
<path fill="none" stroke="#63b8ff" d="M696.93,-81.61C798.42,-76.23 970.08,-64.42 1116,-41 1125.21,-39.52 1134.91,-37.59 1144.31,-35.52"/>
<polygon fill="#63b8ff" stroke="#63b8ff" points="696.53,-78.12 686.73,-82.14 696.9,-85.11 696.53,-78.12"/>
</a>
</g>
</g>
<!-- Node12 -->
<g id="Node000012" class="node">
<title>Node12</title>
<g id="a_Node000012"><a xlink:href="Application_8cpp.html" target="_top" xlink:title=" ">
<polygon fill="white" stroke="#666666" points="1421,-35.5 1291,-35.5 1291,-5.5 1421,-5.5 1421,-35.5"/>
<text text-anchor="start" x="1299" y="-23.5" font-family="Helvetica,sans-Serif" font-size="10.00">Engine/Source/Runtime</text>
<text text-anchor="middle" x="1356" y="-12.5" font-family="Helvetica,sans-Serif" font-size="10.00">/Application.cpp</text>
</a>
</g>
</g>
<!-- Node4&#45;&gt;Node12 -->
<g id="edge11_Node000004_Node000012" class="edge">
<title>Node4&#45;&gt;Node12</title>
<g id="a_edge11_Node000004_Node000012"><a xlink:title=" ">
<path fill="none" stroke="#63b8ff" d="M696.72,-85.04C825.77,-83.17 1073.98,-74.96 1282,-41 1290.52,-39.61 1299.49,-37.67 1308.12,-35.54"/>
<polygon fill="#63b8ff" stroke="#63b8ff" points="696.46,-81.55 686.51,-85.18 696.55,-88.55 696.46,-81.55"/>
</a>
</g>
</g>
</g>
</svg>
