<?xml version="1.0" encoding="UTF-8" standalone="no"?>
<!DOCTYPE svg PUBLIC "-//W3C//DTD SVG 1.1//EN"
 "http://www.w3.org/Graphics/SVG/1.1/DTD/svg11.dtd">
<!-- Generated by graphviz version 2.43.0 (0)
 -->
<!-- Title: Engine/Source/Runtime/Components/Graphics/Camera.h Pages: 1 -->
<!--zoomable 434 -->

<svg id="main" version="1.1" xmlns="http://www.w3.org/2000/svg" xmlns:xlink="http://www.w3.org/1999/xlink" xml:space="preserve" onload="init(evt)">

<style type="text/css"><![CDATA[
.node, .edge {opacity: 0.7;}
.node.selected, .edge.selected {opacity: 1;}
.edge:hover path { stroke: red; }
.edge:hover polygon { stroke: red; fill: red; }
]]></style>

<defs>
  <circle id="rim" cx="0" cy="0" r="7"/>
  <circle id="rim2" cx="0" cy="0" r="3.5"/>
  <g id="zoomPlus">
    <use xlink:href="#rim" fill="#404040"><set attributeName="fill" to="#808080" begin="zoomplus.mouseover" end="zoomplus.mouseout"/></use>
    <path d="M-4,0h8M0,-4v8" fill="none" stroke="white" stroke-width="1.5" pointer-events="none"/>
  </g>
  <g id="zoomMin">
    <use xlink:href="#rim" fill="#404040"><set attributeName="fill" to="#808080" begin="zoomminus.mouseover" end="zoomminus.mouseout"/></use>
    <path d="M-4,0h8" fill="none" stroke="white" stroke-width="1.5" pointer-events="none"/>
  </g>
  <g id="arrowUp" transform="translate(30 24)">
    <use xlink:href="#rim"/>
    <path pointer-events="none" fill="none" stroke="white" stroke-width="1.5" d="M0,-3.0v7 M-2.5,-0.5L0,-3.0L2.5,-0.5"/>
  </g>
  <g id="arrowRight" transform="rotate(90) translate(36 -43)">
    <use xlink:href="#rim"/>
    <path pointer-events="none" fill="none" stroke="white" stroke-width="1.5" d="M0,-3.0v7 M-2.5,-0.5L0,-3.0L2.5,-0.5"/>
  </g>
  <g id="arrowDown" transform="rotate(180) translate(-30 -48)">
    <use xlink:href="#rim"/>
    <path pointer-events="none" fill="none" stroke="white" stroke-width="1.5" d="M0,-3.0v7 M-2.5,-0.5L0,-3.0L2.5,-0.5"/>
  </g>
  <g id="arrowLeft" transform="rotate(270) translate(-36 17)">
    <use xlink:href="#rim"/>
    <path pointer-events="none" fill="none" stroke="white" stroke-width="1.5" d="M0,-3.0v7 M-2.5,-0.5L0,-3.0L2.5,-0.5"/>
  </g>
  <g id="resetDef">
    <use xlink:href="#rim2" fill="#404040"><set attributeName="fill" to="#808080" begin="reset.mouseover" end="reset.mouseout"/></use>
  </g>
</defs>
<script type="application/ecmascript">
var viewWidth = 2416;
var viewHeight = 434;
var sectionId = 'dynsection-0';
</script>
<script type="application/ecmascript" xlink:href="svg.min.js"/>
<svg id="graph" class="graph">
<g id="viewport">
<title>Engine/Source/Runtime/Components/Graphics/Camera.h</title>
<!-- Node1 -->
<g id="Node000001" class="node">
<title>Node1</title>
<g id="a_Node000001"><a xlink:title="レンダリング視点を定義するカメラコンポーネント。">
<polygon fill="#999999" stroke="#666666" points="884.5,-426 754.5,-426 754.5,-385 884.5,-385 884.5,-426"/>
<text text-anchor="start" x="762.5" y="-414" font-family="Helvetica,sans-Serif" font-size="10.00">Engine/Source/Runtime</text>
<text text-anchor="start" x="762.5" y="-403" font-family="Helvetica,sans-Serif" font-size="10.00">/Components/Graphics</text>
<text text-anchor="middle" x="819.5" y="-392" font-family="Helvetica,sans-Serif" font-size="10.00">/Camera.h</text>
</a>
</g>
</g>
<!-- Node2 -->
<g id="Node000002" class="node">
<title>Node2</title>
<g id="a_Node000002"><a xlink:href="SpanMath_8h.html" target="_top" xlink:title="算術ライブラリ (Vector, Matrix, Quaternion)。">
<polygon fill="white" stroke="#666666" points="254.5,-74 126.5,-74 126.5,-55 254.5,-55 254.5,-74"/>
<text text-anchor="middle" x="190.5" y="-62" font-family="Helvetica,sans-Serif" font-size="10.00">Core/Math/SpanMath.h</text>
</a>
</g>
</g>
<!-- Node1&#45;&gt;Node2 -->
<g id="edge1_Node000001_Node000002" class="edge">
<title>Node1&#45;&gt;Node2</title>
<g id="a_edge1_Node000001_Node000002"><a xlink:title=" ">
<path fill="none" stroke="#63b8ff" d="M754.37,-405.13C599.38,-404.87 221.5,-393.21 221.5,-285.5 221.5,-285.5 221.5,-285.5 221.5,-173.5 221.5,-140.79 208.2,-104.6 199.02,-83.52"/>
<polygon fill="#63b8ff" stroke="#63b8ff" points="202.13,-81.88 194.81,-74.22 195.75,-84.77 202.13,-81.88"/>
</a>
</g>
</g>
<!-- Node6 -->
<g id="Node000006" class="node">
<title>Node6</title>
<g id="a_Node000006"><a xlink:href="SpanReflection_8h.html" target="_top" xlink:title="コンポーネント定義用のリフレクションマクロ。">
<polygon fill="white" stroke="#666666" points="1742.5,-349 1592.5,-349 1592.5,-330 1742.5,-330 1742.5,-349"/>
<text text-anchor="middle" x="1667.5" y="-337" font-family="Helvetica,sans-Serif" font-size="10.00">Reflection/SpanReflection.h</text>
</a>
</g>
</g>
<!-- Node1&#45;&gt;Node6 -->
<g id="edge5_Node000001_Node000006" class="edge">
<title>Node1&#45;&gt;Node6</title>
<g id="a_edge5_Node000001_Node000006"><a xlink:title=" ">
<path fill="none" stroke="#63b8ff" d="M884.63,-399.58C1036.18,-388.15 1412.42,-359.75 1582.1,-346.95"/>
<polygon fill="#63b8ff" stroke="#63b8ff" points="1582.53,-350.42 1592.24,-346.18 1582,-343.44 1582.53,-350.42"/>
</a>
</g>
</g>
<!-- Node3 -->
<g id="Node000003" class="node">
<title>Node3</title>
<g id="a_Node000003"><a xlink:title=" ">
<polygon fill="#e0e0e0" stroke="#999999" points="233.5,-19 147.5,-19 147.5,0 233.5,0 233.5,-19"/>
<text text-anchor="middle" x="190.5" y="-7" font-family="Helvetica,sans-Serif" font-size="10.00">DirectXMath.h</text>
</a>
</g>
</g>
<!-- Node2&#45;&gt;Node3 -->
<g id="edge2_Node000002_Node000003" class="edge">
<title>Node2&#45;&gt;Node3</title>
<g id="a_edge2_Node000002_Node000003"><a xlink:title=" ">
<path fill="none" stroke="#63b8ff" d="M190.5,-54.75C190.5,-47.8 190.5,-37.85 190.5,-29.13"/>
<polygon fill="#63b8ff" stroke="#63b8ff" points="194,-29.09 190.5,-19.09 187,-29.09 194,-29.09"/>
</a>
</g>
</g>
<!-- Node4 -->
<g id="Node000004" class="node">
<title>Node4</title>
<g id="a_Node000004"><a xlink:title=" ">
<polygon fill="#e0e0e0" stroke="#999999" points="47,-19 0,-19 0,0 47,0 47,-19"/>
<text text-anchor="middle" x="23.5" y="-7" font-family="Helvetica,sans-Serif" font-size="10.00">cmath</text>
</a>
</g>
</g>
<!-- Node2&#45;&gt;Node4 -->
<g id="edge3_Node000002_Node000004" class="edge">
<title>Node2&#45;&gt;Node4</title>
<g id="a_edge3_Node000002_Node000004"><a xlink:title=" ">
<path fill="none" stroke="#63b8ff" d="M163.67,-54.98C134.55,-45.74 88.02,-30.98 56.64,-21.02"/>
<polygon fill="#63b8ff" stroke="#63b8ff" points="57.62,-17.66 47.03,-17.97 55.5,-24.33 57.62,-17.66"/>
</a>
</g>
</g>
<!-- Node5 -->
<g id="Node000005" class="node">
<title>Node5</title>
<g id="a_Node000005"><a xlink:title=" ">
<polygon fill="#e0e0e0" stroke="#999999" points="129.5,-19 65.5,-19 65.5,0 129.5,0 129.5,-19"/>
<text text-anchor="middle" x="97.5" y="-7" font-family="Helvetica,sans-Serif" font-size="10.00">algorithm</text>
</a>
</g>
</g>
<!-- Node2&#45;&gt;Node5 -->
<g id="edge4_Node000002_Node000005" class="edge">
<title>Node2&#45;&gt;Node5</title>
<g id="a_edge4_Node000002_Node000005"><a xlink:title=" ">
<path fill="none" stroke="#63b8ff" d="M175.56,-54.98C161,-46.69 138.63,-33.94 121.57,-24.22"/>
<polygon fill="#63b8ff" stroke="#63b8ff" points="123.14,-21.08 112.71,-19.17 119.67,-27.16 123.14,-21.08"/>
</a>
</g>
</g>
<!-- Node7 -->
<g id="Node000007" class="node">
<title>Node7</title>
<g id="a_Node000007"><a xlink:href="SpanAttributes_8h.html" target="_top" xlink:title="インスペクタ表示用の属性 (Attribute) 定義。">
<polygon fill="white" stroke="#666666" points="1532.5,-294 1434.5,-294 1434.5,-275 1532.5,-275 1532.5,-294"/>
<text text-anchor="middle" x="1483.5" y="-282" font-family="Helvetica,sans-Serif" font-size="10.00">SpanAttributes.h</text>
</a>
</g>
</g>
<!-- Node6&#45;&gt;Node7 -->
<g id="edge6_Node000006_Node000007" class="edge">
<title>Node6&#45;&gt;Node7</title>
<g id="a_edge6_Node000006_Node000007"><a xlink:title=" ">
<path fill="none" stroke="#63b8ff" d="M1637.94,-329.98C1606.78,-321.01 1557.53,-306.82 1523.04,-296.89"/>
<polygon fill="#63b8ff" stroke="#63b8ff" points="1523.87,-293.49 1513.29,-294.08 1521.93,-300.21 1523.87,-293.49"/>
</a>
</g>
</g>
<!-- Node8 -->
<g id="Node000008" class="node">
<title>Node8</title>
<g id="a_Node000008"><a xlink:href="ComponentRegistry_8h.html" target="_top" xlink:title="コンポーネントのメタデータ管理 (リフレクション)。">
<polygon fill="white" stroke="#666666" points="1672,-294 1551,-294 1551,-275 1672,-275 1672,-294"/>
<text text-anchor="middle" x="1611.5" y="-282" font-family="Helvetica,sans-Serif" font-size="10.00">ComponentRegistry.h</text>
</a>
</g>
</g>
<!-- Node6&#45;&gt;Node8 -->
<g id="edge7_Node000006_Node000008" class="edge">
<title>Node6&#45;&gt;Node8</title>
<g id="a_edge7_Node000006_Node000008"><a xlink:title=" ">
<path fill="none" stroke="#63b8ff" d="M1658.5,-329.98C1650.31,-322.23 1637.99,-310.58 1628.03,-301.14"/>
<polygon fill="#63b8ff" stroke="#63b8ff" points="1630.33,-298.5 1620.66,-294.17 1625.52,-303.59 1630.33,-298.5"/>
</a>
</g>
</g>
<!-- Node17 -->
<g id="Node000017" class="node">
<title>Node17</title>
<g id="a_Node000017"><a xlink:title=" ">
<polygon fill="#e0e0e0" stroke="#999999" points="2407.5,-19 2363.5,-19 2363.5,0 2407.5,0 2407.5,-19"/>
<text text-anchor="middle" x="2385.5" y="-7" font-family="Helvetica,sans-Serif" font-size="10.00">string</text>
</a>
</g>
</g>
<!-- Node6&#45;&gt;Node17 -->
<g id="edge61_Node000006_Node000017" class="edge">
<title>Node6&#45;&gt;Node17</title>
<g id="a_edge61_Node000006_Node000017"><a xlink:title=" ">
<path fill="none" stroke="#63b8ff" d="M1742.64,-334.25C1918.58,-323.31 2342.5,-290.69 2342.5,-230.5 2342.5,-230.5 2342.5,-230.5 2342.5,-118.5 2342.5,-84.53 2361.09,-48.53 2373.83,-27.87"/>
<polygon fill="#63b8ff" stroke="#63b8ff" points="2376.89,-29.58 2379.34,-19.27 2371,-25.8 2376.89,-29.58"/>
</a>
</g>
</g>
<!-- Node18 -->
<g id="Node000018" class="node">
<title>Node18</title>
<g id="a_Node000018"><a xlink:title=" ">
<polygon fill="#e0e0e0" stroke="#999999" points="2345,-19 2298,-19 2298,0 2345,0 2345,-19"/>
<text text-anchor="middle" x="2321.5" y="-7" font-family="Helvetica,sans-Serif" font-size="10.00">vector</text>
</a>
</g>
</g>
<!-- Node6&#45;&gt;Node18 -->
<g id="edge60_Node000006_Node000018" class="edge">
<title>Node6&#45;&gt;Node18</title>
<g id="a_edge60_Node000006_Node000018"><a xlink:title=" ">
<path fill="none" stroke="#63b8ff" d="M1742.68,-338.24C1886.06,-335.69 2184.5,-319.67 2184.5,-230.5 2184.5,-230.5 2184.5,-230.5 2184.5,-118.5 2184.5,-65.76 2247.89,-34.8 2288.44,-20.39"/>
<polygon fill="#63b8ff" stroke="#63b8ff" points="2289.6,-23.69 2297.95,-17.16 2287.35,-17.06 2289.6,-23.69"/>
</a>
</g>
</g>
<!-- Node49 -->
<g id="Node000049" class="node">
<title>Node49</title>
<g id="a_Node000049"><a xlink:href="ImGuiUI_8h.html" target="_top" xlink:title="ImGui用のカスタムウィジェットヘルパー。">
<polygon fill="white" stroke="#666666" points="410,-129 281,-129 281,-110 410,-110 410,-129"/>
<text text-anchor="middle" x="345.5" y="-117" font-family="Helvetica,sans-Serif" font-size="10.00">Editor/ImGui/ImGuiUI.h</text>
</a>
</g>
</g>
<!-- Node6&#45;&gt;Node49 -->
<g id="edge52_Node000006_Node000049" class="edge">
<title>Node6&#45;&gt;Node49</title>
<g id="a_edge52_Node000006_Node000049"><a xlink:title=" ">
<path fill="none" stroke="#63b8ff" d="M1592.3,-334.73C1493.34,-329.12 1314.17,-316.7 1162.5,-294 863.61,-249.26 509.85,-162.37 388.69,-131.61"/>
<polygon fill="#63b8ff" stroke="#63b8ff" points="389.25,-128.14 378.7,-129.07 387.53,-134.93 389.25,-128.14"/>
</a>
</g>
</g>
<!-- Node52 -->
<g id="Node000052" class="node">
<title>Node52</title>
<g id="a_Node000052"><a xlink:href="FixedString_8h.html" target="_top" xlink:title="固定長文字列ラッパー (POD)">
<polygon fill="white" stroke="#666666" points="1332,-294 1171,-294 1171,-275 1332,-275 1332,-294"/>
<text text-anchor="middle" x="1251.5" y="-282" font-family="Helvetica,sans-Serif" font-size="10.00">Core/Containers/FixedString.h</text>
</a>
</g>
</g>
<!-- Node6&#45;&gt;Node52 -->
<g id="edge57_Node000006_Node000052" class="edge">
<title>Node6&#45;&gt;Node52</title>
<g id="a_edge57_Node000006_Node000052"><a xlink:title=" ">
<path fill="none" stroke="#63b8ff" d="M1600.66,-329.98C1526.48,-320.53 1406.93,-305.3 1328.78,-295.35"/>
<polygon fill="#63b8ff" stroke="#63b8ff" points="1328.88,-291.83 1318.52,-294.04 1327.99,-298.77 1328.88,-291.83"/>
</a>
</g>
</g>
<!-- Node53 -->
<g id="Node000053" class="node">
<title>Node53</title>
<g id="a_Node000053"><a xlink:title=" ">
<polygon fill="#e0e0e0" stroke="#999999" points="1759,-294 1690,-294 1690,-275 1759,-275 1759,-294"/>
<text text-anchor="middle" x="1724.5" y="-282" font-family="Helvetica,sans-Serif" font-size="10.00">type_traits</text>
</a>
</g>
</g>
<!-- Node6&#45;&gt;Node53 -->
<g id="edge62_Node000006_Node000053" class="edge">
<title>Node6&#45;&gt;Node53</title>
<g id="a_edge62_Node000006_Node000053"><a xlink:title=" ">
<path fill="none" stroke="#63b8ff" d="M1676.66,-329.98C1685,-322.23 1697.53,-310.58 1707.68,-301.14"/>
<polygon fill="#63b8ff" stroke="#63b8ff" points="1710.24,-303.54 1715.18,-294.17 1705.47,-298.42 1710.24,-303.54"/>
</a>
</g>
</g>
<!-- Node54 -->
<g id="Node000054" class="node">
<title>Node54</title>
<g id="a_Node000054"><a xlink:title=" ">
<polygon fill="#e0e0e0" stroke="#999999" points="1821.5,-294 1777.5,-294 1777.5,-275 1821.5,-275 1821.5,-294"/>
<text text-anchor="middle" x="1799.5" y="-282" font-family="Helvetica,sans-Serif" font-size="10.00">cfloat</text>
</a>
</g>
</g>
<!-- Node6&#45;&gt;Node54 -->
<g id="edge63_Node000006_Node000054" class="edge">
<title>Node6&#45;&gt;Node54</title>
<g id="a_edge63_Node000006_Node000054"><a xlink:title=" ">
<path fill="none" stroke="#63b8ff" d="M1688.71,-329.98C1710.23,-321.34 1743.78,-307.87 1768.33,-298.02"/>
<polygon fill="#63b8ff" stroke="#63b8ff" points="1769.93,-301.14 1777.91,-294.17 1767.32,-294.65 1769.93,-301.14"/>
</a>
</g>
</g>
<!-- Node55 -->
<g id="Node000055" class="node">
<title>Node55</title>
<g id="a_Node000055"><a xlink:title=" ">
<polygon fill="#e0e0e0" stroke="#999999" points="1941,-294 1840,-294 1840,-275 1941,-275 1941,-294"/>
<text text-anchor="middle" x="1890.5" y="-282" font-family="Helvetica,sans-Serif" font-size="10.00">magic_enum.hpp</text>
</a>
</g>
</g>
<!-- Node6&#45;&gt;Node55 -->
<g id="edge64_Node000006_Node000055" class="edge">
<title>Node6&#45;&gt;Node55</title>
<g id="a_edge64_Node000006_Node000055"><a xlink:title=" ">
<path fill="none" stroke="#63b8ff" d="M1703.33,-329.98C1741.66,-320.87 1802.58,-306.4 1844.45,-296.45"/>
<polygon fill="#63b8ff" stroke="#63b8ff" points="1845.47,-299.8 1854.39,-294.08 1843.85,-292.99 1845.47,-299.8"/>
</a>
</g>
</g>
<!-- Node9 -->
<g id="Node000009" class="node">
<title>Node9</title>
<g id="a_Node000009"><a xlink:href="Entity_8h.html" target="_top" xlink:title="ECSにおけるオブジェクトの識別子 (ID) を定義します。">
<polygon fill="white" stroke="#666666" points="1387.5,-129 1279.5,-129 1279.5,-110 1387.5,-110 1387.5,-129"/>
<text text-anchor="middle" x="1333.5" y="-117" font-family="Helvetica,sans-Serif" font-size="10.00">ECS/Kernel/Entity.h</text>
</a>
</g>
</g>
<!-- Node8&#45;&gt;Node9 -->
<g id="edge8_Node000008_Node000009" class="edge">
<title>Node8&#45;&gt;Node9</title>
<g id="a_edge8_Node000008_Node000009"><a xlink:title=" ">
<path fill="none" stroke="#63b8ff" d="M1563.79,-274.96C1486.16,-259.97 1338.14,-226.44 1308.5,-184 1298.48,-169.66 1308.34,-150.74 1318.47,-137.29"/>
<polygon fill="#63b8ff" stroke="#63b8ff" points="1321.35,-139.3 1324.97,-129.34 1315.93,-134.87 1321.35,-139.3"/>
</a>
</g>
</g>
<!-- Node8&#45;&gt;Node17 -->
<g id="edge43_Node000008_Node000017" class="edge">
<title>Node8&#45;&gt;Node17</title>
<g id="a_edge43_Node000008_Node000017"><a xlink:title=" ">
<path fill="none" stroke="#63b8ff" d="M1672.06,-275.4C1744.08,-265.57 1859.91,-249.05 1902.5,-239 1992.03,-217.87 2099.5,-267.49 2099.5,-175.5 2099.5,-175.5 2099.5,-175.5 2099.5,-118.5 2099.5,-105.07 2278.41,-45.32 2353.22,-20.93"/>
<polygon fill="#63b8ff" stroke="#63b8ff" points="2354.63,-24.15 2363.06,-17.73 2352.47,-17.49 2354.63,-24.15"/>
</a>
</g>
</g>
<!-- Node8&#45;&gt;Node18 -->
<g id="edge42_Node000008_Node000018" class="edge">
<title>Node8&#45;&gt;Node18</title>
<g id="a_edge42_Node000008_Node000018"><a xlink:title=" ">
<path fill="none" stroke="#63b8ff" d="M1663.77,-274.97C1772.81,-256.47 2014.5,-211.4 2014.5,-175.5 2014.5,-175.5 2014.5,-175.5 2014.5,-118.5 2014.5,-76.17 2047.42,-73.5 2085.5,-55 2165.48,-16.15 2197.4,-37.27 2287.95,-19.12"/>
<polygon fill="#63b8ff" stroke="#63b8ff" points="2288.73,-22.53 2297.79,-17.04 2287.28,-15.68 2288.73,-22.53"/>
</a>
</g>
</g>
<!-- Node23 -->
<g id="Node000023" class="node">
<title>Node23</title>
<g id="a_Node000023"><a xlink:title=" ">
<polygon fill="#e0e0e0" stroke="#999999" points="2280,-19 2215,-19 2215,0 2280,0 2280,-19"/>
<text text-anchor="middle" x="2247.5" y="-7" font-family="Helvetica,sans-Serif" font-size="10.00">functional</text>
</a>
</g>
</g>
<!-- Node8&#45;&gt;Node23 -->
<g id="edge41_Node000008_Node000023" class="edge">
<title>Node8&#45;&gt;Node23</title>
<g id="a_edge41_Node000008_Node000023"><a xlink:title=" ">
<path fill="none" stroke="#63b8ff" d="M1657.78,-274.95C1735.18,-259.32 1882.5,-223.3 1882.5,-175.5 1882.5,-175.5 1882.5,-175.5 1882.5,-118.5 1882.5,-36.98 2136.36,-27.24 2204.99,-18.66"/>
<polygon fill="#63b8ff" stroke="#63b8ff" points="2205.58,-22.11 2214.96,-17.17 2204.55,-15.19 2205.58,-22.11"/>
</a>
</g>
</g>
<!-- Node41 -->
<g id="Node000041" class="node">
<title>Node41</title>
<g id="a_Node000041"><a xlink:href="World_8h.html" target="_top" xlink:title="ECSワールド (シーン) の管理クラス。">
<polygon fill="white" stroke="#666666" points="1576,-239 1467,-239 1467,-220 1576,-220 1576,-239"/>
<text text-anchor="middle" x="1521.5" y="-227" font-family="Helvetica,sans-Serif" font-size="10.00">ECS/Kernel/World.h</text>
</a>
</g>
</g>
<!-- Node8&#45;&gt;Node41 -->
<g id="edge44_Node000008_Node000041" class="edge">
<title>Node8&#45;&gt;Node41</title>
<g id="a_edge44_Node000008_Node000041"><a xlink:title=" ">
<path fill="none" stroke="#63b8ff" d="M1597.04,-274.98C1583.08,-266.77 1561.71,-254.18 1545.25,-244.49"/>
<polygon fill="#63b8ff" stroke="#63b8ff" points="1546.62,-241.23 1536.22,-239.17 1543.06,-247.26 1546.62,-241.23"/>
</a>
</g>
</g>
<!-- Node10 -->
<g id="Node000010" class="node">
<title>Node10</title>
<g id="a_Node000010"><a xlink:href="CoreMinimal_8h.html" target="_top" xlink:title="エンジンの標準インクルードファイル。">
<polygon fill="#fff0f0" stroke="red" points="1349,-74 1236,-74 1236,-55 1349,-55 1349,-74"/>
<text text-anchor="middle" x="1292.5" y="-62" font-family="Helvetica,sans-Serif" font-size="10.00">Core/CoreMinimal.h</text>
</a>
</g>
</g>
<!-- Node9&#45;&gt;Node10 -->
<g id="edge9_Node000009_Node000010" class="edge">
<title>Node9&#45;&gt;Node10</title>
<g id="a_edge9_Node000009_Node000010"><a xlink:title=" ">
<path fill="none" stroke="#63b8ff" d="M1326.73,-109.75C1320.94,-102.26 1312.44,-91.28 1305.36,-82.13"/>
<polygon fill="#63b8ff" stroke="#63b8ff" points="1308.03,-79.86 1299.14,-74.09 1302.49,-84.14 1308.03,-79.86"/>
</a>
</g>
</g>
<!-- Node10&#45;&gt;Node3 -->
<g id="edge37_Node000010_Node000003" class="edge">
<title>Node10&#45;&gt;Node3</title>
<g id="a_edge37_Node000010_Node000003"><a xlink:title=" ">
<path fill="none" stroke="#63b8ff" d="M1235.99,-63.48C1079.72,-62.91 628.51,-57.85 243.79,-18.99"/>
<polygon fill="#63b8ff" stroke="#63b8ff" points="243.88,-15.48 233.58,-17.95 243.17,-22.45 243.88,-15.48"/>
</a>
</g>
</g>
<!-- Node10&#45;&gt;Node5 -->
<g id="edge22_Node000010_Node000005" class="edge">
<title>Node10&#45;&gt;Node5</title>
<g id="a_edge22_Node000010_Node000005"><a xlink:title=" ">
<path fill="none" stroke="#63b8ff" d="M1235.7,-62.56C1037.2,-59.07 374.37,-45.77 139.82,-18.9"/>
<polygon fill="#63b8ff" stroke="#63b8ff" points="139.99,-15.39 129.65,-17.69 139.16,-22.34 139.99,-15.39"/>
</a>
</g>
</g>
<!-- Node11 -->
<g id="Node000011" class="node">
<title>Node11</title>
<g id="a_Node000011"><a xlink:title=" ">
<polygon fill="#e0e0e0" stroke="#999999" points="1979.5,-19 1909.5,-19 1909.5,0 1979.5,0 1979.5,-19"/>
<text text-anchor="middle" x="1944.5" y="-7" font-family="Helvetica,sans-Serif" font-size="10.00">Windows.h</text>
</a>
</g>
</g>
<!-- Node10&#45;&gt;Node11 -->
<g id="edge10_Node000010_Node000011" class="edge">
<title>Node10&#45;&gt;Node11</title>
<g id="a_edge10_Node000010_Node000011"><a xlink:title=" ">
<path fill="none" stroke="#63b8ff" d="M1349.31,-61.58C1455.41,-57.5 1691.04,-46.14 1899.29,-18.99"/>
<polygon fill="#63b8ff" stroke="#63b8ff" points="1900.04,-22.43 1909.5,-17.65 1899.12,-15.49 1900.04,-22.43"/>
</a>
</g>
</g>
<!-- Node12 -->
<g id="Node000012" class="node">
<title>Node12</title>
<g id="a_Node000012"><a xlink:title=" ">
<polygon fill="#e0e0e0" stroke="#999999" points="2039,-19 1998,-19 1998,0 2039,0 2039,-19"/>
<text text-anchor="middle" x="2018.5" y="-7" font-family="Helvetica,sans-Serif" font-size="10.00">wrl.h</text>
</a>
</g>
</g>
<!-- Node10&#45;&gt;Node12 -->
<g id="edge11_Node000010_Node000012" class="edge">
<title>Node10&#45;&gt;Node12</title>
<g id="a_edge11_Node000010_Node000012"><a xlink:title=" ">
<path fill="none" stroke="#63b8ff" d="M1349.36,-63.93C1467.07,-63.94 1745.95,-59.42 1987.93,-18.65"/>
<polygon fill="#63b8ff" stroke="#63b8ff" points="1988.71,-22.07 1997.98,-16.94 1987.53,-15.17 1988.71,-22.07"/>
</a>
</g>
</g>
<!-- Node13 -->
<g id="Node000013" class="node">
<title>Node13</title>
<g id="a_Node000013"><a xlink:title=" ">
<polygon fill="#e0e0e0" stroke="#999999" points="2128,-19 2057,-19 2057,0 2128,0 2128,-19"/>
<text text-anchor="middle" x="2092.5" y="-7" font-family="Helvetica,sans-Serif" font-size="10.00">wrl/client.h</text>
</a>
</g>
</g>
<!-- Node10&#45;&gt;Node13 -->
<g id="edge12_Node000010_Node000013" class="edge">
<title>Node10&#45;&gt;Node13</title>
<g id="a_edge12_Node000010_Node000013"><a xlink:title=" ">
<path fill="none" stroke="#63b8ff" d="M1349.16,-62.72C1473.68,-60.45 1780.65,-51.83 2046.32,-19.12"/>
<polygon fill="#63b8ff" stroke="#63b8ff" points="2047.05,-22.56 2056.54,-17.85 2046.19,-15.61 2047.05,-22.56"/>
</a>
</g>
</g>
<!-- Node14 -->
<g id="Node000014" class="node">
<title>Node14</title>
<g id="a_Node000014"><a xlink:title=" ">
<polygon fill="#e0e0e0" stroke="#999999" points="2196.5,-19 2146.5,-19 2146.5,0 2196.5,0 2196.5,-19"/>
<text text-anchor="middle" x="2171.5" y="-7" font-family="Helvetica,sans-Serif" font-size="10.00">cstdint</text>
</a>
</g>
</g>
<!-- Node10&#45;&gt;Node14 -->
<g id="edge13_Node000010_Node000014" class="edge">
<title>Node10&#45;&gt;Node14</title>
<g id="a_edge13_Node000010_Node000014"><a xlink:title=" ">
<path fill="none" stroke="#63b8ff" d="M1349.24,-64.26C1484.28,-65.27 1835.3,-63.15 2136.13,-18.88"/>
<polygon fill="#63b8ff" stroke="#63b8ff" points="2136.98,-22.29 2146.36,-17.36 2135.95,-15.37 2136.98,-22.29"/>
</a>
</g>
</g>
<!-- Node15 -->
<g id="Node000015" class="node">
<title>Node15</title>
<g id="a_Node000015"><a xlink:title=" ">
<polygon fill="#e0e0e0" stroke="#999999" points="407.5,-19 347.5,-19 347.5,0 407.5,0 407.5,-19"/>
<text text-anchor="middle" x="377.5" y="-7" font-family="Helvetica,sans-Serif" font-size="10.00">iostream</text>
</a>
</g>
</g>
<!-- Node10&#45;&gt;Node15 -->
<g id="edge14_Node000010_Node000015" class="edge">
<title>Node10&#45;&gt;Node15</title>
<g id="a_edge14_Node000010_Node000015"><a xlink:title=" ">
<path fill="none" stroke="#63b8ff" d="M1235.84,-63.83C1097.53,-63.93 731.64,-60.08 417.85,-18.94"/>
<polygon fill="#63b8ff" stroke="#63b8ff" points="418.02,-15.43 407.65,-17.58 417.1,-22.37 418.02,-15.43"/>
</a>
</g>
</g>
<!-- Node16 -->
<g id="Node000016" class="node">
<title>Node16</title>
<g id="a_Node000016"><a xlink:title=" ">
<polygon fill="#e0e0e0" stroke="#999999" points="479,-19 426,-19 426,0 479,0 479,-19"/>
<text text-anchor="middle" x="452.5" y="-7" font-family="Helvetica,sans-Serif" font-size="10.00">string.h</text>
</a>
</g>
</g>
<!-- Node10&#45;&gt;Node16 -->
<g id="edge15_Node000010_Node000016" class="edge">
<title>Node10&#45;&gt;Node16</title>
<g id="a_edge15_Node000010_Node000016"><a xlink:title=" ">
<path fill="none" stroke="#63b8ff" d="M1235.53,-63.92C1104.9,-64.11 773.7,-60.23 489.25,-18.99"/>
<polygon fill="#63b8ff" stroke="#63b8ff" points="489.56,-15.5 479.15,-17.51 488.54,-22.42 489.56,-15.5"/>
</a>
</g>
</g>
<!-- Node10&#45;&gt;Node17 -->
<g id="edge16_Node000010_Node000017" class="edge">
<title>Node10&#45;&gt;Node17</title>
<g id="a_edge16_Node000010_Node000017"><a xlink:title=" ">
<path fill="none" stroke="#63b8ff" d="M1349.08,-62.81C1536.8,-60.27 2138.82,-49.98 2353.36,-18.74"/>
<polygon fill="#63b8ff" stroke="#63b8ff" points="2353.92,-22.2 2363.28,-17.24 2352.87,-15.28 2353.92,-22.2"/>
</a>
</g>
</g>
<!-- Node10&#45;&gt;Node18 -->
<g id="edge17_Node000010_Node000018" class="edge">
<title>Node10&#45;&gt;Node18</title>
<g id="a_edge17_Node000010_Node000018"><a xlink:title=" ">
<path fill="none" stroke="#63b8ff" d="M1349.08,-62.57C1528.88,-59.38 2086.63,-47.52 2287.69,-18.9"/>
<polygon fill="#63b8ff" stroke="#63b8ff" points="2288.48,-22.32 2297.85,-17.39 2287.45,-15.39 2288.48,-22.32"/>
</a>
</g>
</g>
<!-- Node19 -->
<g id="Node000019" class="node">
<title>Node19</title>
<g id="a_Node000019"><a xlink:title=" ">
<polygon fill="#e0e0e0" stroke="#999999" points="544,-19 497,-19 497,0 544,0 544,-19"/>
<text text-anchor="middle" x="520.5" y="-7" font-family="Helvetica,sans-Serif" font-size="10.00">deque</text>
</a>
</g>
</g>
<!-- Node10&#45;&gt;Node19 -->
<g id="edge18_Node000010_Node000019" class="edge">
<title>Node10&#45;&gt;Node19</title>
<g id="a_edge18_Node000010_Node000019"><a xlink:title=" ">
<path fill="none" stroke="#63b8ff" d="M1235.92,-63.93C1113.06,-64.03 812.79,-59.82 554.11,-18.94"/>
<polygon fill="#63b8ff" stroke="#63b8ff" points="554.58,-15.47 544.15,-17.35 553.47,-22.38 554.58,-15.47"/>
</a>
</g>
</g>
<!-- Node20 -->
<g id="Node000020" class="node">
<title>Node20</title>
<g id="a_Node000020"><a xlink:title=" ">
<polygon fill="#e0e0e0" stroke="#999999" points="655,-19 562,-19 562,0 655,0 655,-19"/>
<text text-anchor="middle" x="608.5" y="-7" font-family="Helvetica,sans-Serif" font-size="10.00">unordered_map</text>
</a>
</g>
</g>
<!-- Node10&#45;&gt;Node20 -->
<g id="edge19_Node000010_Node000020" class="edge">
<title>Node10&#45;&gt;Node20</title>
<g id="a_edge19_Node000010_Node000020"><a xlink:title=" ">
<path fill="none" stroke="#63b8ff" d="M1235.64,-61C1126.95,-55.88 881.99,-42.74 665.19,-18.98"/>
<polygon fill="#63b8ff" stroke="#63b8ff" points="665.54,-15.5 655.21,-17.88 664.77,-22.45 665.54,-15.5"/>
</a>
</g>
</g>
<!-- Node21 -->
<g id="Node000021" class="node">
<title>Node21</title>
<g id="a_Node000021"><a xlink:title=" ">
<polygon fill="#e0e0e0" stroke="#999999" points="711.5,-19 673.5,-19 673.5,0 711.5,0 711.5,-19"/>
<text text-anchor="middle" x="692.5" y="-7" font-family="Helvetica,sans-Serif" font-size="10.00">map</text>
</a>
</g>
</g>
<!-- Node10&#45;&gt;Node21 -->
<g id="edge20_Node000010_Node000021" class="edge">
<title>Node10&#45;&gt;Node21</title>
<g id="a_edge20_Node000010_Node000021"><a xlink:title=" ">
<path fill="none" stroke="#63b8ff" d="M1235.95,-63.15C1134.43,-61.64 914.65,-54.38 721.68,-18.79"/>
<polygon fill="#63b8ff" stroke="#63b8ff" points="722.12,-15.31 711.64,-16.91 720.83,-22.19 722.12,-15.31"/>
</a>
</g>
</g>
<!-- Node22 -->
<g id="Node000022" class="node">
<title>Node22</title>
<g id="a_Node000022"><a xlink:title=" ">
<polygon fill="#e0e0e0" stroke="#999999" points="787.5,-19 729.5,-19 729.5,0 787.5,0 787.5,-19"/>
<text text-anchor="middle" x="758.5" y="-7" font-family="Helvetica,sans-Serif" font-size="10.00">memory</text>
</a>
</g>
</g>
<!-- Node10&#45;&gt;Node22 -->
<g id="edge21_Node000010_Node000022" class="edge">
<title>Node10&#45;&gt;Node22</title>
<g id="a_edge21_Node000010_Node000022"><a xlink:title=" ">
<path fill="none" stroke="#63b8ff" d="M1235.67,-60.82C1145.08,-56.02 962.23,-44.16 798.17,-19.06"/>
<polygon fill="#63b8ff" stroke="#63b8ff" points="798.3,-15.54 787.89,-17.47 797.23,-22.46 798.3,-15.54"/>
</a>
</g>
</g>
<!-- Node10&#45;&gt;Node23 -->
<g id="edge23_Node000010_Node000023" class="edge">
<title>Node10&#45;&gt;Node23</title>
<g id="a_edge23_Node000010_Node000023"><a xlink:title=" ">
<path fill="none" stroke="#63b8ff" d="M1349.12,-63.7C1491.37,-63.58 1875.29,-59.31 2204.35,-18.92"/>
<polygon fill="#63b8ff" stroke="#63b8ff" points="2205.07,-22.36 2214.56,-17.66 2204.21,-15.41 2205.07,-22.36"/>
</a>
</g>
</g>
<!-- Node24 -->
<g id="Node000024" class="node">
<title>Node24</title>
<g id="a_Node000024"><a xlink:title=" ">
<polygon fill="#e0e0e0" stroke="#999999" points="855.5,-19 805.5,-19 805.5,0 855.5,0 855.5,-19"/>
<text text-anchor="middle" x="830.5" y="-7" font-family="Helvetica,sans-Serif" font-size="10.00">chrono</text>
</a>
</g>
</g>
<!-- Node10&#45;&gt;Node24 -->
<g id="edge24_Node000010_Node000024" class="edge">
<title>Node10&#45;&gt;Node24</title>
<g id="a_edge24_Node000010_Node000024"><a xlink:title=" ">
<path fill="none" stroke="#63b8ff" d="M1235.72,-60.16C1155.34,-54.87 1003.7,-42.8 865.59,-18.95"/>
<polygon fill="#63b8ff" stroke="#63b8ff" points="866.12,-15.49 855.67,-17.21 864.91,-22.39 866.12,-15.49"/>
</a>
</g>
</g>
<!-- Node25 -->
<g id="Node000025" class="node">
<title>Node25</title>
<g id="a_Node000025"><a xlink:title=" ">
<polygon fill="#e0e0e0" stroke="#999999" points="919.5,-19 873.5,-19 873.5,0 919.5,0 919.5,-19"/>
<text text-anchor="middle" x="896.5" y="-7" font-family="Helvetica,sans-Serif" font-size="10.00">cstdio</text>
</a>
</g>
</g>
<!-- Node10&#45;&gt;Node25 -->
<g id="edge25_Node000010_Node000025" class="edge">
<title>Node10&#45;&gt;Node25</title>
<g id="a_edge25_Node000010_Node000025"><a xlink:title=" ">
<path fill="none" stroke="#63b8ff" d="M1235.69,-59C1165.78,-52.92 1043.36,-40.51 929.74,-19"/>
<polygon fill="#63b8ff" stroke="#63b8ff" points="930.31,-15.55 919.83,-17.1 928.99,-22.42 930.31,-15.55"/>
</a>
</g>
</g>
<!-- Node26 -->
<g id="Node000026" class="node">
<title>Node26</title>
<g id="a_Node000026"><a xlink:title=" ">
<polygon fill="#e0e0e0" stroke="#999999" points="989.5,-19 937.5,-19 937.5,0 989.5,0 989.5,-19"/>
<text text-anchor="middle" x="963.5" y="-7" font-family="Helvetica,sans-Serif" font-size="10.00">cassert</text>
</a>
</g>
</g>
<!-- Node10&#45;&gt;Node26 -->
<g id="edge26_Node000010_Node000026" class="edge">
<title>Node10&#45;&gt;Node26</title>
<g id="a_edge26_Node000010_Node000026"><a xlink:title=" ">
<path fill="none" stroke="#63b8ff" d="M1235.88,-56.44C1178.64,-48.95 1087.44,-36.11 999.67,-19.09"/>
<polygon fill="#63b8ff" stroke="#63b8ff" points="1000.31,-15.64 989.82,-17.15 998.96,-22.51 1000.31,-15.64"/>
</a>
</g>
</g>
<!-- Node27 -->
<g id="Node000027" class="node">
<title>Node27</title>
<g id="a_Node000027"><a xlink:title=" ">
<polygon fill="#e0e0e0" stroke="#999999" points="1073,-19 1008,-19 1008,0 1073,0 1073,-19"/>
<text text-anchor="middle" x="1040.5" y="-7" font-family="Helvetica,sans-Serif" font-size="10.00">typeindex</text>
</a>
</g>
</g>
<!-- Node10&#45;&gt;Node27 -->
<g id="edge27_Node000010_Node000027" class="edge">
<title>Node10&#45;&gt;Node27</title>
<g id="a_edge27_Node000010_Node000027"><a xlink:title=" ">
<path fill="none" stroke="#63b8ff" d="M1252.01,-54.98C1205.74,-45.25 1130.33,-29.39 1083.16,-19.47"/>
<polygon fill="#63b8ff" stroke="#63b8ff" points="1083.77,-16.02 1073.26,-17.39 1082.33,-22.87 1083.77,-16.02"/>
</a>
</g>
</g>
<!-- Node28 -->
<g id="Node000028" class="node">
<title>Node28</title>
<g id="a_Node000028"><a xlink:title=" ">
<polygon fill="#e0e0e0" stroke="#999999" points="1159.5,-19 1091.5,-19 1091.5,0 1159.5,0 1159.5,-19"/>
<text text-anchor="middle" x="1125.5" y="-7" font-family="Helvetica,sans-Serif" font-size="10.00">filesystem</text>
</a>
</g>
</g>
<!-- Node10&#45;&gt;Node28 -->
<g id="edge28_Node000010_Node000028" class="edge">
<title>Node10&#45;&gt;Node28</title>
<g id="a_edge28_Node000010_Node000028"><a xlink:title=" ">
<path fill="none" stroke="#63b8ff" d="M1265.67,-54.98C1237.63,-46.09 1193.45,-32.07 1162.2,-22.15"/>
<polygon fill="#63b8ff" stroke="#63b8ff" points="1163.13,-18.77 1152.54,-19.08 1161.01,-25.44 1163.13,-18.77"/>
</a>
</g>
</g>
<!-- Node29 -->
<g id="Node000029" class="node">
<title>Node29</title>
<g id="a_Node000029"><a xlink:title=" ">
<polygon fill="#e0e0e0" stroke="#999999" points="1209.5,-19 1177.5,-19 1177.5,0 1209.5,0 1209.5,-19"/>
<text text-anchor="middle" x="1193.5" y="-7" font-family="Helvetica,sans-Serif" font-size="10.00">set</text>
</a>
</g>
</g>
<!-- Node10&#45;&gt;Node29 -->
<g id="edge29_Node000010_Node000029" class="edge">
<title>Node10&#45;&gt;Node29</title>
<g id="a_edge29_Node000010_Node000029"><a xlink:title=" ">
<path fill="none" stroke="#63b8ff" d="M1276.59,-54.98C1260.95,-46.61 1236.84,-33.7 1218.62,-23.95"/>
<polygon fill="#63b8ff" stroke="#63b8ff" points="1220.16,-20.8 1209.7,-19.17 1216.86,-26.98 1220.16,-20.8"/>
</a>
</g>
</g>
<!-- Node30 -->
<g id="Node000030" class="node">
<title>Node30</title>
<g id="a_Node000030"><a xlink:title=" ">
<polygon fill="#e0e0e0" stroke="#999999" points="1283,-19 1228,-19 1228,0 1283,0 1283,-19"/>
<text text-anchor="middle" x="1255.5" y="-7" font-family="Helvetica,sans-Serif" font-size="10.00">fstream</text>
</a>
</g>
</g>
<!-- Node10&#45;&gt;Node30 -->
<g id="edge30_Node000010_Node000030" class="edge">
<title>Node10&#45;&gt;Node30</title>
<g id="a_edge30_Node000010_Node000030"><a xlink:title=" ">
<path fill="none" stroke="#63b8ff" d="M1286.39,-54.75C1281.22,-47.34 1273.65,-36.5 1267.31,-27.41"/>
<polygon fill="#63b8ff" stroke="#63b8ff" points="1270.09,-25.29 1261.5,-19.09 1264.35,-29.29 1270.09,-25.29"/>
</a>
</g>
</g>
<!-- Node31 -->
<g id="Node000031" class="node">
<title>Node31</title>
<g id="a_Node000031"><a xlink:title=" ">
<polygon fill="#e0e0e0" stroke="#999999" points="1357.5,-19 1301.5,-19 1301.5,0 1357.5,0 1357.5,-19"/>
<text text-anchor="middle" x="1329.5" y="-7" font-family="Helvetica,sans-Serif" font-size="10.00">sstream</text>
</a>
</g>
</g>
<!-- Node10&#45;&gt;Node31 -->
<g id="edge31_Node000010_Node000031" class="edge">
<title>Node10&#45;&gt;Node31</title>
<g id="a_edge31_Node000010_Node000031"><a xlink:title=" ">
<path fill="none" stroke="#63b8ff" d="M1298.61,-54.75C1303.78,-47.34 1311.35,-36.5 1317.69,-27.41"/>
<polygon fill="#63b8ff" stroke="#63b8ff" points="1320.65,-29.29 1323.5,-19.09 1314.91,-25.29 1320.65,-29.29"/>
</a>
</g>
</g>
<!-- Node32 -->
<g id="Node000032" class="node">
<title>Node32</title>
<g id="a_Node000032"><a xlink:title=" ">
<polygon fill="#e0e0e0" stroke="#999999" points="1423.5,-19 1375.5,-19 1375.5,0 1423.5,0 1423.5,-19"/>
<text text-anchor="middle" x="1399.5" y="-7" font-family="Helvetica,sans-Serif" font-size="10.00">mutex</text>
</a>
</g>
</g>
<!-- Node10&#45;&gt;Node32 -->
<g id="edge32_Node000010_Node000032" class="edge">
<title>Node10&#45;&gt;Node32</title>
<g id="a_edge32_Node000010_Node000032"><a xlink:title=" ">
<path fill="none" stroke="#63b8ff" d="M1309.69,-54.98C1326.75,-46.54 1353.13,-33.47 1372.9,-23.68"/>
<polygon fill="#63b8ff" stroke="#63b8ff" points="1374.59,-26.75 1382,-19.17 1371.48,-20.47 1374.59,-26.75"/>
</a>
</g>
</g>
<!-- Node33 -->
<g id="Node000033" class="node">
<title>Node33</title>
<g id="a_Node000033"><a xlink:title=" ">
<polygon fill="#e0e0e0" stroke="#999999" points="1495.5,-19 1441.5,-19 1441.5,0 1495.5,0 1495.5,-19"/>
<text text-anchor="middle" x="1468.5" y="-7" font-family="Helvetica,sans-Serif" font-size="10.00">random</text>
</a>
</g>
</g>
<!-- Node10&#45;&gt;Node33 -->
<g id="edge33_Node000010_Node000033" class="edge">
<title>Node10&#45;&gt;Node33</title>
<g id="a_edge33_Node000010_Node000033"><a xlink:title=" ">
<path fill="none" stroke="#63b8ff" d="M1320.78,-54.98C1350.89,-45.92 1398.68,-31.53 1431.71,-21.58"/>
<polygon fill="#63b8ff" stroke="#63b8ff" points="1432.88,-24.88 1441.45,-18.65 1430.86,-18.18 1432.88,-24.88"/>
</a>
</g>
</g>
<!-- Node34 -->
<g id="Node000034" class="node">
<title>Node34</title>
<g id="a_Node000034"><a xlink:title=" ">
<polygon fill="#e0e0e0" stroke="#999999" points="1569.5,-19 1513.5,-19 1513.5,0 1569.5,0 1569.5,-19"/>
<text text-anchor="middle" x="1541.5" y="-7" font-family="Helvetica,sans-Serif" font-size="10.00">d3d12.h</text>
</a>
</g>
</g>
<!-- Node10&#45;&gt;Node34 -->
<g id="edge34_Node000010_Node000034" class="edge">
<title>Node10&#45;&gt;Node34</title>
<g id="a_edge34_Node000010_Node000034"><a xlink:title=" ">
<path fill="none" stroke="#63b8ff" d="M1334.38,-54.95C1375.09,-46.59 1438.93,-33.33 1503.31,-19.23"/>
<polygon fill="#63b8ff" stroke="#63b8ff" points="1504.21,-22.62 1513.23,-17.05 1502.71,-15.78 1504.21,-22.62"/>
</a>
</g>
</g>
<!-- Node35 -->
<g id="Node000035" class="node">
<title>Node35</title>
<g id="a_Node000035"><a xlink:title=" ">
<polygon fill="#e0e0e0" stroke="#999999" points="1651.5,-19 1587.5,-19 1587.5,0 1651.5,0 1651.5,-19"/>
<text text-anchor="middle" x="1619.5" y="-7" font-family="Helvetica,sans-Serif" font-size="10.00">dxgi1_6.h</text>
</a>
</g>
</g>
<!-- Node10&#45;&gt;Node35 -->
<g id="edge35_Node000010_Node000035" class="edge">
<title>Node10&#45;&gt;Node35</title>
<g id="a_edge35_Node000010_Node000035"><a xlink:title=" ">
<path fill="none" stroke="#63b8ff" d="M1349.08,-55.55C1404.67,-47.55 1492.16,-34.44 1577.21,-19.16"/>
<polygon fill="#63b8ff" stroke="#63b8ff" points="1578.08,-22.56 1587.3,-17.33 1576.84,-15.67 1578.08,-22.56"/>
</a>
</g>
</g>
<!-- Node36 -->
<g id="Node000036" class="node">
<title>Node36</title>
<g id="a_Node000036"><a xlink:title=" ">
<polygon fill="#e0e0e0" stroke="#999999" points="1755.5,-19 1669.5,-19 1669.5,0 1755.5,0 1755.5,-19"/>
<text text-anchor="middle" x="1712.5" y="-7" font-family="Helvetica,sans-Serif" font-size="10.00">d3dcompiler.h</text>
</a>
</g>
</g>
<!-- Node10&#45;&gt;Node36 -->
<g id="edge36_Node000010_Node000036" class="edge">
<title>Node10&#45;&gt;Node36</title>
<g id="a_edge36_Node000010_Node000036"><a xlink:title=" ">
<path fill="none" stroke="#63b8ff" d="M1349.02,-57.41C1419.29,-49.66 1543.17,-35.48 1659.26,-19.12"/>
<polygon fill="#63b8ff" stroke="#63b8ff" points="1659.98,-22.56 1669.39,-17.69 1659,-15.63 1659.98,-22.56"/>
</a>
</g>
</g>
<!-- Node37 -->
<g id="Node000037" class="node">
<title>Node37</title>
<g id="a_Node000037"><a xlink:title=" ">
<polygon fill="#e0e0e0" stroke="#999999" points="1891,-19 1774,-19 1774,0 1891,0 1891,-19"/>
<text text-anchor="middle" x="1832.5" y="-7" font-family="Helvetica,sans-Serif" font-size="10.00">assimp/Importer.hpp</text>
</a>
</g>
</g>
<!-- Node10&#45;&gt;Node37 -->
<g id="edge38_Node000010_Node000037" class="edge">
<title>Node10&#45;&gt;Node37</title>
<g id="a_edge38_Node000010_Node000037"><a xlink:title=" ">
<path fill="none" stroke="#63b8ff" d="M1349.23,-58.71C1436.01,-51.26 1607.21,-36.08 1763.63,-19.06"/>
<polygon fill="#63b8ff" stroke="#63b8ff" points="1764.35,-22.5 1773.91,-17.94 1763.59,-15.55 1764.35,-22.5"/>
</a>
</g>
</g>
<!-- Node40 -->
<g id="Node000040" class="node">
<title>Node40</title>
<g id="a_Node000040"><a xlink:href="Logger_8h.html" target="_top" xlink:title="デバッグログ出力システム">
<polygon fill="white" stroke="#666666" points="329.5,-19 251.5,-19 251.5,0 329.5,0 329.5,-19"/>
<text text-anchor="middle" x="290.5" y="-7" font-family="Helvetica,sans-Serif" font-size="10.00">Log/Logger.h</text>
</a>
</g>
</g>
<!-- Node10&#45;&gt;Node40 -->
<g id="edge39_Node000010_Node000040" class="edge">
<title>Node10&#45;&gt;Node40</title>
<g id="a_edge39_Node000010_Node000040"><a xlink:title=" ">
<path fill="none" stroke="#63b8ff" d="M1235.9,-63.42C1088.32,-62.69 680.12,-57.25 339.8,-20.14"/>
<polygon fill="#63b8ff" stroke="#63b8ff" points="340.07,-16.64 329.75,-19.03 339.31,-23.6 340.07,-16.64"/>
</a>
</g>
</g>
<!-- Node40&#45;&gt;Node10 -->
<g id="edge40_Node000040_Node000010" class="edge">
<title>Node40&#45;&gt;Node10</title>
<g id="a_edge40_Node000040_Node000010"><a xlink:title=" ">
<path fill="none" stroke="#63b8ff" d="M329.72,-16.49C335.71,-17.46 341.78,-18.36 347.5,-19 675.71,-55.56 1070.68,-62.17 1225.62,-63.3"/>
<polygon fill="#63b8ff" stroke="#63b8ff" points="1225.9,-66.8 1235.92,-63.37 1225.94,-59.8 1225.9,-66.8"/>
</a>
</g>
</g>
<!-- Node41&#45;&gt;Node10 -->
<g id="edge45_Node000041_Node000010" class="edge">
<title>Node41&#45;&gt;Node10</title>
<g id="a_edge45_Node000041_Node000010"><a xlink:title=" ">
<path fill="none" stroke="#63b8ff" d="M1520.76,-219.88C1519.26,-206.86 1514.88,-181.89 1502.5,-165 1465.8,-114.92 1397.33,-89.1 1348.55,-76.46"/>
<polygon fill="#63b8ff" stroke="#63b8ff" points="1349.32,-73.04 1338.77,-74.03 1347.63,-79.84 1349.32,-73.04"/>
</a>
</g>
</g>
<!-- Node42 -->
<g id="Node000042" class="node">
<title>Node42</title>
<g id="a_Node000042"><a xlink:href="EntityManager_8h.html" target="_top" xlink:title="エンティティIDのライフサイクル管理クラス">
<polygon fill="white" stroke="#666666" points="1413.5,-184 1317.5,-184 1317.5,-165 1413.5,-165 1413.5,-184"/>
<text text-anchor="middle" x="1365.5" y="-172" font-family="Helvetica,sans-Serif" font-size="10.00">EntityManager.h</text>
</a>
</g>
</g>
<!-- Node41&#45;&gt;Node42 -->
<g id="edge46_Node000041_Node000042" class="edge">
<title>Node41&#45;&gt;Node42</title>
<g id="a_edge46_Node000041_Node000042"><a xlink:title=" ">
<path fill="none" stroke="#63b8ff" d="M1496.44,-219.98C1470.47,-211.16 1429.69,-197.31 1400.54,-187.41"/>
<polygon fill="#63b8ff" stroke="#63b8ff" points="1401.35,-183.99 1390.76,-184.08 1399.1,-190.61 1401.35,-183.99"/>
</a>
</g>
</g>
<!-- Node43 -->
<g id="Node000043" class="node">
<title>Node43</title>
<g id="a_Node000043"><a xlink:href="ArchetypeManager_8h.html" target="_top" xlink:title="アーキタイプの生成と管理を行うクラス">
<polygon fill="#fff0f0" stroke="red" points="1667,-129 1550,-129 1550,-110 1667,-110 1667,-129"/>
<text text-anchor="middle" x="1608.5" y="-117" font-family="Helvetica,sans-Serif" font-size="10.00">ArchetypeManager.h</text>
</a>
</g>
</g>
<!-- Node41&#45;&gt;Node43 -->
<g id="edge48_Node000041_Node000043" class="edge">
<title>Node41&#45;&gt;Node43</title>
<g id="a_edge48_Node000041_Node000043"><a xlink:title=" ">
<path fill="none" stroke="#63b8ff" d="M1528.62,-219.66C1543.16,-201.61 1576.46,-160.28 1595.15,-137.08"/>
<polygon fill="#63b8ff" stroke="#63b8ff" points="1597.98,-139.14 1601.53,-129.16 1592.53,-134.75 1597.98,-139.14"/>
</a>
</g>
</g>
<!-- Node48 -->
<g id="Node000048" class="node">
<title>Node48</title>
<g id="a_Node000048"><a xlink:href="System_8h.html" target="_top" xlink:title="ECSシステム (ロジック) の基底クラス。">
<polygon fill="white" stroke="#666666" points="1493.5,-184 1431.5,-184 1431.5,-165 1493.5,-165 1493.5,-184"/>
<text text-anchor="middle" x="1462.5" y="-172" font-family="Helvetica,sans-Serif" font-size="10.00">System.h</text>
</a>
</g>
</g>
<!-- Node41&#45;&gt;Node48 -->
<g id="edge50_Node000041_Node000048" class="edge">
<title>Node41&#45;&gt;Node48</title>
<g id="a_edge50_Node000041_Node000048"><a xlink:title=" ">
<path fill="none" stroke="#63b8ff" d="M1512.02,-219.98C1503.3,-212.15 1490.16,-200.34 1479.6,-190.86"/>
<polygon fill="#63b8ff" stroke="#63b8ff" points="1481.93,-188.25 1472.15,-184.17 1477.25,-193.46 1481.93,-188.25"/>
</a>
</g>
</g>
<!-- Node42&#45;&gt;Node9 -->
<g id="edge47_Node000042_Node000009" class="edge">
<title>Node42&#45;&gt;Node9</title>
<g id="a_edge47_Node000042_Node000009"><a xlink:title=" ">
<path fill="none" stroke="#63b8ff" d="M1360.22,-164.75C1355.79,-157.42 1349.34,-146.73 1343.88,-137.7"/>
<polygon fill="#63b8ff" stroke="#63b8ff" points="1346.85,-135.84 1338.69,-129.09 1340.86,-139.46 1346.85,-135.84"/>
</a>
</g>
</g>
<!-- Node43&#45;&gt;Node10 -->
<g id="edge49_Node000043_Node000010" class="edge">
<title>Node43&#45;&gt;Node10</title>
<g id="a_edge49_Node000043_Node000010"><a xlink:title=" ">
<path fill="none" stroke="#63b8ff" d="M1557.73,-109.98C1502.07,-100.65 1412.79,-85.67 1353.4,-75.71"/>
<polygon fill="#63b8ff" stroke="#63b8ff" points="1353.85,-72.24 1343.41,-74.04 1352.69,-79.14 1353.85,-72.24"/>
</a>
</g>
</g>
<!-- Node48&#45;&gt;Node10 -->
<g id="edge51_Node000048_Node000010" class="edge">
<title>Node48&#45;&gt;Node10</title>
<g id="a_edge51_Node000048_Node000010"><a xlink:title=" ">
<path fill="none" stroke="#63b8ff" d="M1455.19,-164.66C1443.8,-151.34 1420.62,-125.99 1396.5,-110 1375.58,-96.14 1349.64,-85.03 1328.9,-77.38"/>
<polygon fill="#63b8ff" stroke="#63b8ff" points="1330.07,-74.08 1319.47,-74.01 1327.71,-80.67 1330.07,-74.08"/>
</a>
</g>
</g>
<!-- Node49&#45;&gt;Node2 -->
<g id="edge53_Node000049_Node000002" class="edge">
<title>Node49&#45;&gt;Node2</title>
<g id="a_edge53_Node000049_Node000002"><a xlink:title=" ">
<path fill="none" stroke="#63b8ff" d="M320.6,-109.98C294.8,-101.16 254.28,-87.31 225.32,-77.41"/>
<polygon fill="#63b8ff" stroke="#63b8ff" points="226.19,-74.01 215.6,-74.08 223.93,-80.63 226.19,-74.01"/>
</a>
</g>
</g>
<!-- Node49&#45;&gt;Node40 -->
<g id="edge54_Node000049_Node000040" class="edge">
<title>Node49&#45;&gt;Node40</title>
<g id="a_edge54_Node000049_Node000040"><a xlink:title=" ">
<path fill="none" stroke="#63b8ff" d="M336.62,-109.71C328.52,-101.24 316.73,-87.71 309.5,-74 302.02,-59.83 297.06,-42.29 294.09,-29.24"/>
<polygon fill="#63b8ff" stroke="#63b8ff" points="297.44,-28.2 291.97,-19.12 290.59,-29.63 297.44,-28.2"/>
</a>
</g>
</g>
<!-- Node50 -->
<g id="Node000050" class="node">
<title>Node50</title>
<g id="a_Node000050"><a xlink:title=" ">
<polygon fill="#e0e0e0" stroke="#999999" points="372,-74 319,-74 319,-55 372,-55 372,-74"/>
<text text-anchor="middle" x="345.5" y="-62" font-family="Helvetica,sans-Serif" font-size="10.00">imgui.h</text>
</a>
</g>
</g>
<!-- Node49&#45;&gt;Node50 -->
<g id="edge55_Node000049_Node000050" class="edge">
<title>Node49&#45;&gt;Node50</title>
<g id="a_edge55_Node000049_Node000050"><a xlink:title=" ">
<path fill="none" stroke="#63b8ff" d="M345.5,-109.75C345.5,-102.8 345.5,-92.85 345.5,-84.13"/>
<polygon fill="#63b8ff" stroke="#63b8ff" points="349,-84.09 345.5,-74.09 342,-84.09 349,-84.09"/>
</a>
</g>
</g>
<!-- Node51 -->
<g id="Node000051" class="node">
<title>Node51</title>
<g id="a_Node000051"><a xlink:title=" ">
<polygon fill="#e0e0e0" stroke="#999999" points="486.5,-74 390.5,-74 390.5,-55 486.5,-55 486.5,-74"/>
<text text-anchor="middle" x="438.5" y="-62" font-family="Helvetica,sans-Serif" font-size="10.00">imgui_internal.h</text>
</a>
</g>
</g>
<!-- Node49&#45;&gt;Node51 -->
<g id="edge56_Node000049_Node000051" class="edge">
<title>Node49&#45;&gt;Node51</title>
<g id="a_edge56_Node000049_Node000051"><a xlink:title=" ">
<path fill="none" stroke="#63b8ff" d="M360.44,-109.98C375,-101.69 397.37,-88.94 414.43,-79.22"/>
<polygon fill="#63b8ff" stroke="#63b8ff" points="416.33,-82.16 423.29,-74.17 412.86,-76.08 416.33,-82.16"/>
</a>
</g>
</g>
<!-- Node52&#45;&gt;Node10 -->
<g id="edge58_Node000052_Node000010" class="edge">
<title>Node52&#45;&gt;Node10</title>
<g id="a_edge58_Node000052_Node000010"><a xlink:title=" ">
<path fill="none" stroke="#63b8ff" d="M1251.39,-274.99C1251.29,-249.44 1252.58,-171.37 1270.5,-110 1273.21,-100.71 1277.78,-91 1282.05,-83.04"/>
<polygon fill="#63b8ff" stroke="#63b8ff" points="1285.1,-84.75 1286.97,-74.32 1279.01,-81.31 1285.1,-84.75"/>
</a>
</g>
</g>
<!-- Node46 -->
<g id="Node000046" class="node">
<title>Node46</title>
<g id="a_Node000046"><a xlink:title=" ">
<polygon fill="#e0e0e0" stroke="#999999" points="1223,-239 1150,-239 1150,-220 1223,-220 1223,-239"/>
<text text-anchor="middle" x="1186.5" y="-227" font-family="Helvetica,sans-Serif" font-size="10.00">string_view</text>
</a>
</g>
</g>
<!-- Node52&#45;&gt;Node46 -->
<g id="edge59_Node000052_Node000046" class="edge">
<title>Node52&#45;&gt;Node46</title>
<g id="a_edge59_Node000052_Node000046"><a xlink:title=" ">
<path fill="none" stroke="#63b8ff" d="M1241.06,-274.98C1231.35,-267.07 1216.68,-255.11 1205,-245.58"/>
<polygon fill="#63b8ff" stroke="#63b8ff" points="1207.1,-242.78 1197.13,-239.17 1202.67,-248.2 1207.1,-242.78"/>
</a>
</g>
</g>
</g>
</svg>

<g id="navigator" transform="translate(0 0)" fill="#404254">
  <rect fill="#f2f5e9" fill-opacity="0.5" stroke="#606060" stroke-width=".5" x="0" y="0" width="60" height="60"/>
  <use id="zoomplus" xlink:href="#zoomPlus" x="17" y="9" onmousedown="handleZoom(evt,'in')"/>
  <use id="zoomminus" xlink:href="#zoomMin" x="42" y="9" onmousedown="handleZoom(evt,'out')"/>
  <use id="reset" xlink:href="#resetDef" x="30" y="36" onmousedown="handleReset()"/>
   <use id="arrowup" xlink:href="#arrowUp" x="0" y="0" onmousedown="handlePan(0,-1)"/>
  <use id="arrowright" xlink:href="#arrowRight" x="0" y="0" onmousedown="handlePan(1,0)"/>
  <use id="arrowdown" xlink:href="#arrowDown" x="0" y="0" onmousedown="handlePan(0,1)"/>
  <use id="arrowleft" xlink:href="#arrowLeft" x="0" y="0" onmousedown="handlePan(-1,0)"/>
</g>
<svg viewBox="0 0 15 15" width="100%" height="30px" preserveAspectRatio="xMaxYMin meet">
 <g id="arrow_out" transform="scale(0.3 0.3)">
  <a xlink:href="Camera_8h__incl_org.svg" target="_base">
   <rect id="button" ry="5" rx="5" y="6" x="6" height="38" width="38"
        fill="#f2f5e9" fill-opacity="0.5" stroke="#606060" stroke-width="1.0"/>
   <path id="arrow"
     d="M 11.500037,31.436501 C 11.940474,20.09759 22.043105,11.32322 32.158766,21.979434 L 37.068811,17.246167 C 37.068811,17.246167 37.088388,32 37.088388,32 L 22.160133,31.978069 C 22.160133,31.978069 26.997745,27.140456 26.997745,27.140456 C 18.528582,18.264221 13.291696,25.230495 11.500037,31.436501 z"
     style="fill:#404040;"/>
  </a>
 </g>
</svg>

<style type='text/css'>
<![CDATA[
[data-mouse-over-selected='false'] { opacity: 0.7; }
[data-mouse-over-selected='true']  { opacity: 1.0; }
]]>
</style>
<script type="application/ecmascript"><![CDATA[
document.addEventListener('DOMContentLoaded', (event) => {
  highlightEdges();
  highlightAdjacentNodes();
});
]]></script>
</svg>
