<?xml version="1.0" encoding="UTF-8" standalone="no"?>
<!DOCTYPE svg PUBLIC "-//W3C//DTD SVG 1.1//EN"
 "http://www.w3.org/Graphics/SVG/1.1/DTD/svg11.dtd">
<!-- Generated by graphviz version 2.43.0 (0)
 -->
<!-- Title: Engine/Source/Runtime/Components/Graphics/Camera.h Pages: 1 -->
<svg width="2499pt" height="434pt"
 viewBox="0.00 0.00 2498.50 434.00" xmlns="http://www.w3.org/2000/svg" xmlns:xlink="http://www.w3.org/1999/xlink">
<g id="graph0" class="graph" transform="scale(1 1) rotate(0) translate(4 430)">
<title>Engine/Source/Runtime/Components/Graphics/Camera.h</title>
<!-- Node1 -->
<g id="Node000001" class="node">
<title>Node1</title>
<g id="a_Node000001"><a xlink:title="レンダリング視点を定義するカメラコンポーネント。">
<polygon fill="#999999" stroke="#666666" points="570.5,-426 440.5,-426 440.5,-385 570.5,-385 570.5,-426"/>
<text text-anchor="start" x="448.5" y="-414" font-family="Helvetica,sans-Serif" font-size="10.00">Engine/Source/Runtime</text>
<text text-anchor="start" x="448.5" y="-403" font-family="Helvetica,sans-Serif" font-size="10.00">/Components/Graphics</text>
<text text-anchor="middle" x="505.5" y="-392" font-family="Helvetica,sans-Serif" font-size="10.00">/Camera.h</text>
</a>
</g>
</g>
<!-- Node2 -->
<g id="Node000002" class="node">
<title>Node2</title>
<g id="a_Node000002"><a xlink:href="SpanMath_8h.html" target="_top" xlink:title="算術ライブラリ (Vector, Matrix, Quaternion)。">
<polygon fill="white" stroke="#666666" points="219.5,-74 91.5,-74 91.5,-55 219.5,-55 219.5,-74"/>
<text text-anchor="middle" x="155.5" y="-62" font-family="Helvetica,sans-Serif" font-size="10.00">Core/Math/SpanMath.h</text>
</a>
</g>
</g>
<!-- Node1&#45;&gt;Node2 -->
<g id="edge1_Node000001_Node000002" class="edge">
<title>Node1&#45;&gt;Node2</title>
<g id="a_edge1_Node000001_Node000002"><a xlink:title=" ">
<path fill="none" stroke="#63b8ff" d="M440.4,-391.86C353.52,-373.09 210.5,-334.72 210.5,-285.5 210.5,-285.5 210.5,-285.5 210.5,-173.5 210.5,-137.94 186.53,-102.27 170.24,-82.12"/>
<polygon fill="#63b8ff" stroke="#63b8ff" points="172.73,-79.65 163.62,-74.25 167.38,-84.16 172.73,-79.65"/>
</a>
</g>
</g>
<!-- Node6 -->
<g id="Node000006" class="node">
<title>Node6</title>
<g id="a_Node000006"><a xlink:href="SpanReflection_8h.html" target="_top" xlink:title="コンポーネント定義用のリフレクションマクロ。">
<polygon fill="white" stroke="#666666" points="1076.5,-349 926.5,-349 926.5,-330 1076.5,-330 1076.5,-349"/>
<text text-anchor="middle" x="1001.5" y="-337" font-family="Helvetica,sans-Serif" font-size="10.00">Reflection/SpanReflection.h</text>
</a>
</g>
</g>
<!-- Node1&#45;&gt;Node6 -->
<g id="edge5_Node000001_Node000006" class="edge">
<title>Node1&#45;&gt;Node6</title>
<g id="a_edge5_Node000001_Node000006"><a xlink:title=" ">
<path fill="none" stroke="#63b8ff" d="M570.6,-396.1C662.11,-384.29 828.43,-362.83 925.49,-350.31"/>
<polygon fill="#63b8ff" stroke="#63b8ff" points="926.06,-353.76 935.53,-349.01 925.16,-346.82 926.06,-353.76"/>
</a>
</g>
</g>
<!-- Node3 -->
<g id="Node000003" class="node">
<title>Node3</title>
<g id="a_Node000003"><a xlink:title=" ">
<polygon fill="#e0e0e0" stroke="#999999" points="151.5,-19 65.5,-19 65.5,0 151.5,0 151.5,-19"/>
<text text-anchor="middle" x="108.5" y="-7" font-family="Helvetica,sans-Serif" font-size="10.00">DirectXMath.h</text>
</a>
</g>
</g>
<!-- Node2&#45;&gt;Node3 -->
<g id="edge2_Node000002_Node000003" class="edge">
<title>Node2&#45;&gt;Node3</title>
<g id="a_edge2_Node000002_Node000003"><a xlink:title=" ">
<path fill="none" stroke="#63b8ff" d="M147.74,-54.75C141.03,-47.18 131.16,-36.05 122.99,-26.84"/>
<polygon fill="#63b8ff" stroke="#63b8ff" points="125.37,-24.25 116.12,-19.09 120.13,-28.89 125.37,-24.25"/>
</a>
</g>
</g>
<!-- Node4 -->
<g id="Node000004" class="node">
<title>Node4</title>
<g id="a_Node000004"><a xlink:title=" ">
<polygon fill="#e0e0e0" stroke="#999999" points="47,-19 0,-19 0,0 47,0 47,-19"/>
<text text-anchor="middle" x="23.5" y="-7" font-family="Helvetica,sans-Serif" font-size="10.00">cmath</text>
</a>
</g>
</g>
<!-- Node2&#45;&gt;Node4 -->
<g id="edge3_Node000002_Node000004" class="edge">
<title>Node2&#45;&gt;Node4</title>
<g id="a_edge3_Node000002_Node000004"><a xlink:title=" ">
<path fill="none" stroke="#63b8ff" d="M134.29,-54.98C112.77,-46.34 79.22,-32.87 54.67,-23.02"/>
<polygon fill="#63b8ff" stroke="#63b8ff" points="55.68,-19.65 45.09,-19.17 53.07,-26.14 55.68,-19.65"/>
</a>
</g>
</g>
<!-- Node5 -->
<g id="Node000005" class="node">
<title>Node5</title>
<g id="a_Node000005"><a xlink:title=" ">
<polygon fill="#e0e0e0" stroke="#999999" points="233.5,-19 169.5,-19 169.5,0 233.5,0 233.5,-19"/>
<text text-anchor="middle" x="201.5" y="-7" font-family="Helvetica,sans-Serif" font-size="10.00">algorithm</text>
</a>
</g>
</g>
<!-- Node2&#45;&gt;Node5 -->
<g id="edge4_Node000002_Node000005" class="edge">
<title>Node2&#45;&gt;Node5</title>
<g id="a_edge4_Node000002_Node000005"><a xlink:title=" ">
<path fill="none" stroke="#63b8ff" d="M163.1,-54.75C169.66,-47.18 179.32,-36.05 187.31,-26.84"/>
<polygon fill="#63b8ff" stroke="#63b8ff" points="190.13,-28.94 194.05,-19.09 184.85,-24.35 190.13,-28.94"/>
</a>
</g>
</g>
<!-- Node7 -->
<g id="Node000007" class="node">
<title>Node7</title>
<g id="a_Node000007"><a xlink:href="SpanAttributes_8h.html" target="_top" xlink:title="インスペクタ表示用の属性 (Attribute) 定義。">
<polygon fill="white" stroke="#666666" points="1168.5,-294 1070.5,-294 1070.5,-275 1168.5,-275 1168.5,-294"/>
<text text-anchor="middle" x="1119.5" y="-282" font-family="Helvetica,sans-Serif" font-size="10.00">SpanAttributes.h</text>
</a>
</g>
</g>
<!-- Node6&#45;&gt;Node7 -->
<g id="edge6_Node000006_Node000007" class="edge">
<title>Node6&#45;&gt;Node7</title>
<g id="a_edge6_Node000006_Node000007"><a xlink:title=" ">
<path fill="none" stroke="#63b8ff" d="M1020.46,-329.98C1039.53,-321.42 1069.16,-308.11 1091.05,-298.28"/>
<polygon fill="#63b8ff" stroke="#63b8ff" points="1092.51,-301.46 1100.2,-294.17 1089.64,-295.07 1092.51,-301.46"/>
</a>
</g>
</g>
<!-- Node8 -->
<g id="Node000008" class="node">
<title>Node8</title>
<g id="a_Node000008"><a xlink:href="ComponentRegistry_8h.html" target="_top" xlink:title="コンポーネントのメタデータ管理 (リフレクション)。">
<polygon fill="white" stroke="#666666" points="1308,-294 1187,-294 1187,-275 1308,-275 1308,-294"/>
<text text-anchor="middle" x="1247.5" y="-282" font-family="Helvetica,sans-Serif" font-size="10.00">ComponentRegistry.h</text>
</a>
</g>
</g>
<!-- Node6&#45;&gt;Node8 -->
<g id="edge7_Node000006_Node000008" class="edge">
<title>Node6&#45;&gt;Node8</title>
<g id="a_edge7_Node000006_Node000008"><a xlink:title=" ">
<path fill="none" stroke="#63b8ff" d="M1041.02,-329.98C1083.67,-320.8 1151.65,-306.15 1197.86,-296.19"/>
<polygon fill="#63b8ff" stroke="#63b8ff" points="1198.63,-299.61 1207.67,-294.08 1197.15,-292.77 1198.63,-299.61"/>
</a>
</g>
</g>
<!-- Node40 -->
<g id="Node000040" class="node">
<title>Node40</title>
<g id="a_Node000040"><a xlink:title=" ">
<polygon fill="#e0e0e0" stroke="#999999" points="2490.5,-19 2380.5,-19 2380.5,0 2490.5,0 2490.5,-19"/>
<text text-anchor="middle" x="2435.5" y="-7" font-family="Helvetica,sans-Serif" font-size="10.00">nlohmann/json.hpp</text>
</a>
</g>
</g>
<!-- Node6&#45;&gt;Node40 -->
<g id="edge60_Node000006_Node000040" class="edge">
<title>Node6&#45;&gt;Node40</title>
<g id="a_edge60_Node000006_Node000040"><a xlink:title=" ">
<path fill="none" stroke="#63b8ff" d="M1076.83,-337.67C1299.06,-334.23 1936.5,-316.85 1936.5,-230.5 1936.5,-230.5 1936.5,-230.5 1936.5,-118.5 1936.5,-96.39 2239.7,-43.13 2373.41,-20.71"/>
<polygon fill="#63b8ff" stroke="#63b8ff" points="2374.22,-24.13 2383.51,-19.02 2373.07,-17.22 2374.22,-24.13"/>
</a>
</g>
</g>
<!-- Node56 -->
<g id="Node000056" class="node">
<title>Node56</title>
<g id="a_Node000056"><a xlink:href="ImGuiUI_8h.html" target="_top" xlink:title="ImGui用のカスタムウィジェットヘルパー。">
<polygon fill="white" stroke="#666666" points="422,-129 293,-129 293,-110 422,-110 422,-129"/>
<text text-anchor="middle" x="357.5" y="-117" font-family="Helvetica,sans-Serif" font-size="10.00">Editor/ImGui/ImGuiUI.h</text>
</a>
</g>
</g>
<!-- Node6&#45;&gt;Node56 -->
<g id="edge51_Node000006_Node000056" class="edge">
<title>Node6&#45;&gt;Node56</title>
<g id="a_edge51_Node000006_Node000056"><a xlink:title=" ">
<path fill="none" stroke="#63b8ff" d="M933.84,-329.97C885.46,-322.89 819.15,-311.18 762.5,-294 613.8,-248.91 446.09,-166.14 383.16,-133.87"/>
<polygon fill="#63b8ff" stroke="#63b8ff" points="384.47,-130.61 373.98,-129.14 381.26,-136.83 384.47,-130.61"/>
</a>
</g>
</g>
<!-- Node59 -->
<g id="Node000059" class="node">
<title>Node59</title>
<g id="a_Node000059"><a xlink:href="FixedString_8h.html" target="_top" xlink:title="固定長文字列ラッパー (POD)">
<polygon fill="white" stroke="#666666" points="933,-294 772,-294 772,-275 933,-275 933,-294"/>
<text text-anchor="middle" x="852.5" y="-282" font-family="Helvetica,sans-Serif" font-size="10.00">Core/Containers/FixedString.h</text>
</a>
</g>
</g>
<!-- Node6&#45;&gt;Node59 -->
<g id="edge56_Node000006_Node000059" class="edge">
<title>Node6&#45;&gt;Node59</title>
<g id="a_edge56_Node000006_Node000059"><a xlink:title=" ">
<path fill="none" stroke="#63b8ff" d="M977.56,-329.98C952.94,-321.23 914.38,-307.51 886.58,-297.62"/>
<polygon fill="#63b8ff" stroke="#63b8ff" points="887.47,-294.22 876.88,-294.17 885.12,-300.82 887.47,-294.22"/>
</a>
</g>
</g>
<!-- Node60 -->
<g id="Node000060" class="node">
<title>Node60</title>
<g id="a_Node000060"><a xlink:title=" ">
<polygon fill="#e0e0e0" stroke="#999999" points="1052,-294 951,-294 951,-275 1052,-275 1052,-294"/>
<text text-anchor="middle" x="1001.5" y="-282" font-family="Helvetica,sans-Serif" font-size="10.00">magic_enum.hpp</text>
</a>
</g>
</g>
<!-- Node6&#45;&gt;Node60 -->
<g id="edge59_Node000006_Node000060" class="edge">
<title>Node6&#45;&gt;Node60</title>
<g id="a_edge59_Node000006_Node000060"><a xlink:title=" ">
<path fill="none" stroke="#63b8ff" d="M1001.5,-329.75C1001.5,-322.8 1001.5,-312.85 1001.5,-304.13"/>
<polygon fill="#63b8ff" stroke="#63b8ff" points="1005,-304.09 1001.5,-294.09 998,-304.09 1005,-304.09"/>
</a>
</g>
</g>
<!-- Node9 -->
<g id="Node000009" class="node">
<title>Node9</title>
<g id="a_Node000009"><a xlink:href="Entity_8h.html" target="_top" xlink:title="ECSにおけるオブジェクトの識別子 (ID) を定義します。">
<polygon fill="white" stroke="#666666" points="1333.5,-129 1225.5,-129 1225.5,-110 1333.5,-110 1333.5,-129"/>
<text text-anchor="middle" x="1279.5" y="-117" font-family="Helvetica,sans-Serif" font-size="10.00">ECS/Kernel/Entity.h</text>
</a>
</g>
</g>
<!-- Node8&#45;&gt;Node9 -->
<g id="edge8_Node000008_Node000009" class="edge">
<title>Node8&#45;&gt;Node9</title>
<g id="a_edge8_Node000008_Node000009"><a xlink:title=" ">
<path fill="none" stroke="#63b8ff" d="M1258.6,-274.84C1277.68,-259.16 1316.02,-223.97 1330.5,-184 1333.38,-176.06 1333.99,-172.69 1330.5,-165 1324.88,-152.63 1313.93,-142.36 1303.61,-134.81"/>
<polygon fill="#63b8ff" stroke="#63b8ff" points="1305.47,-131.84 1295.23,-129.12 1301.54,-137.63 1305.47,-131.84"/>
</a>
</g>
</g>
<!-- Node48 -->
<g id="Node000048" class="node">
<title>Node48</title>
<g id="a_Node000048"><a xlink:href="World_8h.html" target="_top" xlink:title="ECSワールド (シーン) の管理クラス。">
<polygon fill="white" stroke="#666666" points="1252,-239 1143,-239 1143,-220 1252,-220 1252,-239"/>
<text text-anchor="middle" x="1197.5" y="-227" font-family="Helvetica,sans-Serif" font-size="10.00">ECS/Kernel/World.h</text>
</a>
</g>
</g>
<!-- Node8&#45;&gt;Node48 -->
<g id="edge43_Node000008_Node000048" class="edge">
<title>Node8&#45;&gt;Node48</title>
<g id="a_edge43_Node000008_Node000048"><a xlink:title=" ">
<path fill="none" stroke="#63b8ff" d="M1239.24,-274.75C1232.04,-267.11 1221.39,-255.82 1212.65,-246.56"/>
<polygon fill="#63b8ff" stroke="#63b8ff" points="1215.01,-243.96 1205.6,-239.09 1209.92,-248.76 1215.01,-243.96"/>
</a>
</g>
</g>
<!-- Node10 -->
<g id="Node000010" class="node">
<title>Node10</title>
<g id="a_Node000010"><a xlink:href="CoreMinimal_8h.html" target="_top" xlink:title="エンジンの標準インクルードファイル。">
<polygon fill="#fff0f0" stroke="red" points="1235,-74 1122,-74 1122,-55 1235,-55 1235,-74"/>
<text text-anchor="middle" x="1178.5" y="-62" font-family="Helvetica,sans-Serif" font-size="10.00">Core/CoreMinimal.h</text>
</a>
</g>
</g>
<!-- Node9&#45;&gt;Node10 -->
<g id="edge9_Node000009_Node000010" class="edge">
<title>Node9&#45;&gt;Node10</title>
<g id="a_edge9_Node000009_Node000010"><a xlink:title=" ">
<path fill="none" stroke="#63b8ff" d="M1263.27,-109.98C1247.32,-101.61 1222.72,-88.7 1204.12,-78.95"/>
<polygon fill="#63b8ff" stroke="#63b8ff" points="1205.5,-75.72 1195.02,-74.17 1202.25,-81.92 1205.5,-75.72"/>
</a>
</g>
</g>
<!-- Node10&#45;&gt;Node3 -->
<g id="edge40_Node000010_Node000003" class="edge">
<title>Node10&#45;&gt;Node3</title>
<g id="a_edge40_Node000010_Node000003"><a xlink:title=" ">
<path fill="none" stroke="#63b8ff" d="M1121.77,-63.37C968.53,-62.52 533.37,-56.77 161.72,-18.99"/>
<polygon fill="#63b8ff" stroke="#63b8ff" points="161.88,-15.48 151.58,-17.94 161.17,-22.45 161.88,-15.48"/>
</a>
</g>
</g>
<!-- Node10&#45;&gt;Node5 -->
<g id="edge22_Node000010_Node000005" class="edge">
<title>Node10&#45;&gt;Node5</title>
<g id="a_edge22_Node000010_Node000005"><a xlink:title=" ">
<path fill="none" stroke="#63b8ff" d="M1121.79,-63.89C976.94,-64.23 581.58,-61.01 243.63,-18.92"/>
<polygon fill="#63b8ff" stroke="#63b8ff" points="244.01,-15.44 233.65,-17.66 243.13,-22.38 244.01,-15.44"/>
</a>
</g>
</g>
<!-- Node11 -->
<g id="Node000011" class="node">
<title>Node11</title>
<g id="a_Node000011"><a xlink:title=" ">
<polygon fill="#e0e0e0" stroke="#999999" points="1407.5,-19 1337.5,-19 1337.5,0 1407.5,0 1407.5,-19"/>
<text text-anchor="middle" x="1372.5" y="-7" font-family="Helvetica,sans-Serif" font-size="10.00">Windows.h</text>
</a>
</g>
</g>
<!-- Node10&#45;&gt;Node11 -->
<g id="edge10_Node000010_Node000011" class="edge">
<title>Node10&#45;&gt;Node11</title>
<g id="a_edge10_Node000010_Node000011"><a xlink:title=" ">
<path fill="none" stroke="#63b8ff" d="M1209.67,-54.98C1242.66,-45.97 1294.9,-31.7 1331.27,-21.76"/>
<polygon fill="#63b8ff" stroke="#63b8ff" points="1332.36,-25.09 1341.09,-19.08 1330.52,-18.34 1332.36,-25.09"/>
</a>
</g>
</g>
<!-- Node12 -->
<g id="Node000012" class="node">
<title>Node12</title>
<g id="a_Node000012"><a xlink:title=" ">
<polygon fill="#e0e0e0" stroke="#999999" points="1467,-19 1426,-19 1426,0 1467,0 1467,-19"/>
<text text-anchor="middle" x="1446.5" y="-7" font-family="Helvetica,sans-Serif" font-size="10.00">wrl.h</text>
</a>
</g>
</g>
<!-- Node10&#45;&gt;Node12 -->
<g id="edge11_Node000010_Node000012" class="edge">
<title>Node10&#45;&gt;Node12</title>
<g id="a_edge11_Node000010_Node000012"><a xlink:title=" ">
<path fill="none" stroke="#63b8ff" d="M1231.73,-54.98C1277.98,-47.25 1346.94,-34.95 1416.14,-18.89"/>
<polygon fill="#63b8ff" stroke="#63b8ff" points="1416.97,-22.29 1425.91,-16.6 1415.37,-15.48 1416.97,-22.29"/>
</a>
</g>
</g>
<!-- Node13 -->
<g id="Node000013" class="node">
<title>Node13</title>
<g id="a_Node000013"><a xlink:title=" ">
<polygon fill="#e0e0e0" stroke="#999999" points="1556,-19 1485,-19 1485,0 1556,0 1556,-19"/>
<text text-anchor="middle" x="1520.5" y="-7" font-family="Helvetica,sans-Serif" font-size="10.00">wrl/client.h</text>
</a>
</g>
</g>
<!-- Node10&#45;&gt;Node13 -->
<g id="edge12_Node000010_Node000013" class="edge">
<title>Node10&#45;&gt;Node13</title>
<g id="a_edge12_Node000010_Node000013"><a xlink:title=" ">
<path fill="none" stroke="#63b8ff" d="M1235.19,-55.77C1293.06,-47.71 1385.72,-34.35 1474.96,-19.21"/>
<polygon fill="#63b8ff" stroke="#63b8ff" points="1475.71,-22.63 1484.98,-17.5 1474.54,-15.73 1475.71,-22.63"/>
</a>
</g>
</g>
<!-- Node14 -->
<g id="Node000014" class="node">
<title>Node14</title>
<g id="a_Node000014"><a xlink:title=" ">
<polygon fill="#e0e0e0" stroke="#999999" points="1624.5,-19 1574.5,-19 1574.5,0 1624.5,0 1624.5,-19"/>
<text text-anchor="middle" x="1599.5" y="-7" font-family="Helvetica,sans-Serif" font-size="10.00">cstdint</text>
</a>
</g>
</g>
<!-- Node10&#45;&gt;Node14 -->
<g id="edge13_Node000010_Node000014" class="edge">
<title>Node10&#45;&gt;Node14</title>
<g id="a_edge13_Node000010_Node000014"><a xlink:title=" ">
<path fill="none" stroke="#63b8ff" d="M1235.24,-59.31C1308.97,-53.35 1441.81,-40.84 1564.39,-18.98"/>
<polygon fill="#63b8ff" stroke="#63b8ff" points="1565.11,-22.41 1574.33,-17.18 1563.87,-15.52 1565.11,-22.41"/>
</a>
</g>
</g>
<!-- Node15 -->
<g id="Node000015" class="node">
<title>Node15</title>
<g id="a_Node000015"><a xlink:title=" ">
<polygon fill="#e0e0e0" stroke="#999999" points="1702.5,-19 1642.5,-19 1642.5,0 1702.5,0 1702.5,-19"/>
<text text-anchor="middle" x="1672.5" y="-7" font-family="Helvetica,sans-Serif" font-size="10.00">iostream</text>
</a>
</g>
</g>
<!-- Node10&#45;&gt;Node15 -->
<g id="edge14_Node000010_Node000015" class="edge">
<title>Node10&#45;&gt;Node15</title>
<g id="a_edge14_Node000010_Node000015"><a xlink:title=" ">
<path fill="none" stroke="#63b8ff" d="M1235.16,-60.1C1319.56,-54.56 1483.43,-42 1632.11,-19.04"/>
<polygon fill="#63b8ff" stroke="#63b8ff" points="1632.99,-22.44 1642.33,-17.44 1631.91,-15.53 1632.99,-22.44"/>
</a>
</g>
</g>
<!-- Node16 -->
<g id="Node000016" class="node">
<title>Node16</title>
<g id="a_Node000016"><a xlink:title=" ">
<polygon fill="#e0e0e0" stroke="#999999" points="1774,-19 1721,-19 1721,0 1774,0 1774,-19"/>
<text text-anchor="middle" x="1747.5" y="-7" font-family="Helvetica,sans-Serif" font-size="10.00">string.h</text>
</a>
</g>
</g>
<!-- Node10&#45;&gt;Node16 -->
<g id="edge15_Node000010_Node000016" class="edge">
<title>Node10&#45;&gt;Node16</title>
<g id="a_edge15_Node000010_Node000016"><a xlink:title=" ">
<path fill="none" stroke="#63b8ff" d="M1235.24,-61.53C1331.19,-57.6 1531.7,-46.77 1710.72,-18.86"/>
<polygon fill="#63b8ff" stroke="#63b8ff" points="1711.52,-22.28 1720.85,-17.26 1710.43,-15.36 1711.52,-22.28"/>
</a>
</g>
</g>
<!-- Node17 -->
<g id="Node000017" class="node">
<title>Node17</title>
<g id="a_Node000017"><a xlink:title=" ">
<polygon fill="#e0e0e0" stroke="#999999" points="1836.5,-19 1792.5,-19 1792.5,0 1836.5,0 1836.5,-19"/>
<text text-anchor="middle" x="1814.5" y="-7" font-family="Helvetica,sans-Serif" font-size="10.00">string</text>
</a>
</g>
</g>
<!-- Node10&#45;&gt;Node17 -->
<g id="edge16_Node000010_Node000017" class="edge">
<title>Node10&#45;&gt;Node17</title>
<g id="a_edge16_Node000010_Node000017"><a xlink:title=" ">
<path fill="none" stroke="#63b8ff" d="M1235.25,-62.99C1341.19,-61.24 1576.23,-53.61 1782.17,-18.88"/>
<polygon fill="#63b8ff" stroke="#63b8ff" points="1783,-22.29 1792.27,-17.15 1781.82,-15.39 1783,-22.29"/>
</a>
</g>
</g>
<!-- Node18 -->
<g id="Node000018" class="node">
<title>Node18</title>
<g id="a_Node000018"><a xlink:title=" ">
<polygon fill="#e0e0e0" stroke="#999999" points="1902,-19 1855,-19 1855,0 1902,0 1902,-19"/>
<text text-anchor="middle" x="1878.5" y="-7" font-family="Helvetica,sans-Serif" font-size="10.00">vector</text>
</a>
</g>
</g>
<!-- Node10&#45;&gt;Node18 -->
<g id="edge17_Node000010_Node000018" class="edge">
<title>Node10&#45;&gt;Node18</title>
<g id="a_edge17_Node000010_Node000018"><a xlink:title=" ">
<path fill="none" stroke="#63b8ff" d="M1235.12,-63.25C1348.99,-61.99 1613.85,-55.2 1844.88,-18.75"/>
<polygon fill="#63b8ff" stroke="#63b8ff" points="1845.5,-22.2 1854.82,-17.16 1844.39,-15.28 1845.5,-22.2"/>
</a>
</g>
</g>
<!-- Node19 -->
<g id="Node000019" class="node">
<title>Node19</title>
<g id="a_Node000019"><a xlink:title=" ">
<polygon fill="#e0e0e0" stroke="#999999" points="1967,-19 1920,-19 1920,0 1967,0 1967,-19"/>
<text text-anchor="middle" x="1943.5" y="-7" font-family="Helvetica,sans-Serif" font-size="10.00">deque</text>
</a>
</g>
</g>
<!-- Node10&#45;&gt;Node19 -->
<g id="edge18_Node000010_Node000019" class="edge">
<title>Node10&#45;&gt;Node19</title>
<g id="a_edge18_Node000010_Node000019"><a xlink:title=" ">
<path fill="none" stroke="#63b8ff" d="M1235.01,-63.88C1356.94,-63.88 1653.71,-59.47 1909.61,-18.99"/>
<polygon fill="#63b8ff" stroke="#63b8ff" points="1910.53,-22.38 1919.85,-17.34 1909.42,-15.47 1910.53,-22.38"/>
</a>
</g>
</g>
<!-- Node20 -->
<g id="Node000020" class="node">
<title>Node20</title>
<g id="a_Node000020"><a xlink:title=" ">
<polygon fill="#e0e0e0" stroke="#999999" points="2078,-19 1985,-19 1985,0 2078,0 2078,-19"/>
<text text-anchor="middle" x="2031.5" y="-7" font-family="Helvetica,sans-Serif" font-size="10.00">unordered_map</text>
</a>
</g>
</g>
<!-- Node10&#45;&gt;Node20 -->
<g id="edge19_Node000010_Node000020" class="edge">
<title>Node10&#45;&gt;Node20</title>
<g id="a_edge19_Node000010_Node000020"><a xlink:title=" ">
<path fill="none" stroke="#63b8ff" d="M1235.25,-62.24C1364.67,-58.95 1691.68,-48.31 1974.68,-19.09"/>
<polygon fill="#63b8ff" stroke="#63b8ff" points="1975.15,-22.56 1984.73,-18.05 1974.42,-15.6 1975.15,-22.56"/>
</a>
</g>
</g>
<!-- Node21 -->
<g id="Node000021" class="node">
<title>Node21</title>
<g id="a_Node000021"><a xlink:title=" ">
<polygon fill="#e0e0e0" stroke="#999999" points="2134.5,-19 2096.5,-19 2096.5,0 2134.5,0 2134.5,-19"/>
<text text-anchor="middle" x="2115.5" y="-7" font-family="Helvetica,sans-Serif" font-size="10.00">map</text>
</a>
</g>
</g>
<!-- Node10&#45;&gt;Node21 -->
<g id="edge20_Node000010_Node000021" class="edge">
<title>Node10&#45;&gt;Node21</title>
<g id="a_edge20_Node000010_Node000021"><a xlink:title=" ">
<path fill="none" stroke="#63b8ff" d="M1235.2,-62.55C1404.2,-59.42 1903.49,-48.07 2086.34,-18.67"/>
<polygon fill="#63b8ff" stroke="#63b8ff" points="2087.09,-22.1 2096.37,-16.98 2085.93,-15.19 2087.09,-22.1"/>
</a>
</g>
</g>
<!-- Node22 -->
<g id="Node000022" class="node">
<title>Node22</title>
<g id="a_Node000022"><a xlink:title=" ">
<polygon fill="#e0e0e0" stroke="#999999" points="2210.5,-19 2152.5,-19 2152.5,0 2210.5,0 2210.5,-19"/>
<text text-anchor="middle" x="2181.5" y="-7" font-family="Helvetica,sans-Serif" font-size="10.00">memory</text>
</a>
</g>
</g>
<!-- Node10&#45;&gt;Node22 -->
<g id="edge21_Node000010_Node000022" class="edge">
<title>Node10&#45;&gt;Node22</title>
<g id="a_edge21_Node000010_Node000022"><a xlink:title=" ">
<path fill="none" stroke="#63b8ff" d="M1235.1,-62.18C1410.9,-57.9 1946.86,-43.27 2141.99,-18.92"/>
<polygon fill="#63b8ff" stroke="#63b8ff" points="2142.67,-22.36 2152.13,-17.6 2141.77,-15.42 2142.67,-22.36"/>
</a>
</g>
</g>
<!-- Node23 -->
<g id="Node000023" class="node">
<title>Node23</title>
<g id="a_Node000023"><a xlink:title=" ">
<polygon fill="#e0e0e0" stroke="#999999" points="2294,-19 2229,-19 2229,0 2294,0 2294,-19"/>
<text text-anchor="middle" x="2261.5" y="-7" font-family="Helvetica,sans-Serif" font-size="10.00">functional</text>
</a>
</g>
</g>
<!-- Node10&#45;&gt;Node23 -->
<g id="edge23_Node000010_Node000023" class="edge">
<title>Node10&#45;&gt;Node23</title>
<g id="a_edge23_Node000010_Node000023"><a xlink:title=" ">
<path fill="none" stroke="#63b8ff" d="M1235.18,-64.19C1390.83,-65.43 1838.05,-64.51 2218.46,-18.9"/>
<polygon fill="#63b8ff" stroke="#63b8ff" points="2219.06,-22.35 2228.56,-17.67 2218.22,-15.4 2219.06,-22.35"/>
</a>
</g>
</g>
<!-- Node24 -->
<g id="Node000024" class="node">
<title>Node24</title>
<g id="a_Node000024"><a xlink:title=" ">
<polygon fill="#e0e0e0" stroke="#999999" points="2362.5,-19 2312.5,-19 2312.5,0 2362.5,0 2362.5,-19"/>
<text text-anchor="middle" x="2337.5" y="-7" font-family="Helvetica,sans-Serif" font-size="10.00">chrono</text>
</a>
</g>
</g>
<!-- Node10&#45;&gt;Node24 -->
<g id="edge24_Node000010_Node000024" class="edge">
<title>Node10&#45;&gt;Node24</title>
<g id="a_edge24_Node000010_Node000024"><a xlink:title=" ">
<path fill="none" stroke="#63b8ff" d="M1235.28,-62.8C1430.49,-60.14 2074.04,-49.35 2302.14,-18.82"/>
<polygon fill="#63b8ff" stroke="#63b8ff" points="2302.94,-22.24 2312.36,-17.4 2301.98,-15.31 2302.94,-22.24"/>
</a>
</g>
</g>
<!-- Node25 -->
<g id="Node000025" class="node">
<title>Node25</title>
<g id="a_Node000025"><a xlink:title=" ">
<polygon fill="#e0e0e0" stroke="#999999" points="393.5,-19 347.5,-19 347.5,0 393.5,0 393.5,-19"/>
<text text-anchor="middle" x="370.5" y="-7" font-family="Helvetica,sans-Serif" font-size="10.00">cstdio</text>
</a>
</g>
</g>
<!-- Node10&#45;&gt;Node25 -->
<g id="edge25_Node000010_Node000025" class="edge">
<title>Node10&#45;&gt;Node25</title>
<g id="a_edge25_Node000010_Node000025"><a xlink:title=" ">
<path fill="none" stroke="#63b8ff" d="M1121.61,-64.16C994.3,-64.78 676.88,-61.66 403.9,-18.88"/>
<polygon fill="#63b8ff" stroke="#63b8ff" points="404.23,-15.39 393.8,-17.27 403.13,-22.3 404.23,-15.39"/>
</a>
</g>
</g>
<!-- Node26 -->
<g id="Node000026" class="node">
<title>Node26</title>
<g id="a_Node000026"><a xlink:title=" ">
<polygon fill="#e0e0e0" stroke="#999999" points="463.5,-19 411.5,-19 411.5,0 463.5,0 463.5,-19"/>
<text text-anchor="middle" x="437.5" y="-7" font-family="Helvetica,sans-Serif" font-size="10.00">cassert</text>
</a>
</g>
</g>
<!-- Node10&#45;&gt;Node26 -->
<g id="edge26_Node000010_Node000026" class="edge">
<title>Node10&#45;&gt;Node26</title>
<g id="a_edge26_Node000010_Node000026"><a xlink:title=" ">
<path fill="none" stroke="#63b8ff" d="M1121.86,-63.29C1003.21,-62.12 719.89,-55.53 473.98,-18.94"/>
<polygon fill="#63b8ff" stroke="#63b8ff" points="474.19,-15.43 463.77,-17.4 473.14,-22.36 474.19,-15.43"/>
</a>
</g>
</g>
<!-- Node27 -->
<g id="Node000027" class="node">
<title>Node27</title>
<g id="a_Node000027"><a xlink:title=" ">
<polygon fill="#e0e0e0" stroke="#999999" points="547,-19 482,-19 482,0 547,0 547,-19"/>
<text text-anchor="middle" x="514.5" y="-7" font-family="Helvetica,sans-Serif" font-size="10.00">typeindex</text>
</a>
</g>
</g>
<!-- Node10&#45;&gt;Node27 -->
<g id="edge27_Node000010_Node000027" class="edge">
<title>Node10&#45;&gt;Node27</title>
<g id="a_edge27_Node000010_Node000027"><a xlink:title=" ">
<path fill="none" stroke="#63b8ff" d="M1121.65,-61.87C1013.64,-58.25 771.26,-47.58 557.6,-18.96"/>
<polygon fill="#63b8ff" stroke="#63b8ff" points="557.83,-15.46 547.45,-17.58 556.89,-22.4 557.83,-15.46"/>
</a>
</g>
</g>
<!-- Node28 -->
<g id="Node000028" class="node">
<title>Node28</title>
<g id="a_Node000028"><a xlink:title=" ">
<polygon fill="#e0e0e0" stroke="#999999" points="633.5,-19 565.5,-19 565.5,0 633.5,0 633.5,-19"/>
<text text-anchor="middle" x="599.5" y="-7" font-family="Helvetica,sans-Serif" font-size="10.00">filesystem</text>
</a>
</g>
</g>
<!-- Node10&#45;&gt;Node28 -->
<g id="edge28_Node000010_Node000028" class="edge">
<title>Node10&#45;&gt;Node28</title>
<g id="a_edge28_Node000010_Node000028"><a xlink:title=" ">
<path fill="none" stroke="#63b8ff" d="M1121.94,-60.9C1025.7,-56.01 823.82,-43.77 643.63,-19"/>
<polygon fill="#63b8ff" stroke="#63b8ff" points="644.1,-15.53 633.71,-17.62 643.13,-22.47 644.1,-15.53"/>
</a>
</g>
</g>
<!-- Node29 -->
<g id="Node000029" class="node">
<title>Node29</title>
<g id="a_Node000029"><a xlink:title=" ">
<polygon fill="#e0e0e0" stroke="#999999" points="683.5,-19 651.5,-19 651.5,0 683.5,0 683.5,-19"/>
<text text-anchor="middle" x="667.5" y="-7" font-family="Helvetica,sans-Serif" font-size="10.00">set</text>
</a>
</g>
</g>
<!-- Node10&#45;&gt;Node29 -->
<g id="edge29_Node000010_Node000029" class="edge">
<title>Node10&#45;&gt;Node29</title>
<g id="a_edge29_Node000010_Node000029"><a xlink:title=" ">
<path fill="none" stroke="#63b8ff" d="M1121.73,-62.63C1032.22,-60.32 852.95,-51.87 693.72,-18.75"/>
<polygon fill="#63b8ff" stroke="#63b8ff" points="694.26,-15.29 683.75,-16.64 692.81,-22.14 694.26,-15.29"/>
</a>
</g>
</g>
<!-- Node30 -->
<g id="Node000030" class="node">
<title>Node30</title>
<g id="a_Node000030"><a xlink:title=" ">
<polygon fill="#e0e0e0" stroke="#999999" points="757,-19 702,-19 702,0 757,0 757,-19"/>
<text text-anchor="middle" x="729.5" y="-7" font-family="Helvetica,sans-Serif" font-size="10.00">fstream</text>
</a>
</g>
</g>
<!-- Node10&#45;&gt;Node30 -->
<g id="edge30_Node000010_Node000030" class="edge">
<title>Node10&#45;&gt;Node30</title>
<g id="a_edge30_Node000010_Node000030"><a xlink:title=" ">
<path fill="none" stroke="#63b8ff" d="M1121.9,-59.52C1044.16,-53.57 899.87,-40.86 767.24,-18.92"/>
<polygon fill="#63b8ff" stroke="#63b8ff" points="767.75,-15.46 757.31,-17.26 766.59,-22.36 767.75,-15.46"/>
</a>
</g>
</g>
<!-- Node31 -->
<g id="Node000031" class="node">
<title>Node31</title>
<g id="a_Node000031"><a xlink:title=" ">
<polygon fill="#e0e0e0" stroke="#999999" points="831.5,-19 775.5,-19 775.5,0 831.5,0 831.5,-19"/>
<text text-anchor="middle" x="803.5" y="-7" font-family="Helvetica,sans-Serif" font-size="10.00">sstream</text>
</a>
</g>
</g>
<!-- Node10&#45;&gt;Node31 -->
<g id="edge31_Node000010_Node000031" class="edge">
<title>Node10&#45;&gt;Node31</title>
<g id="a_edge31_Node000010_Node000031"><a xlink:title=" ">
<path fill="none" stroke="#63b8ff" d="M1121.73,-57.69C1056.47,-50.64 945.97,-37.57 841.79,-19.08"/>
<polygon fill="#63b8ff" stroke="#63b8ff" points="842.19,-15.6 831.72,-17.27 840.95,-22.49 842.19,-15.6"/>
</a>
</g>
</g>
<!-- Node32 -->
<g id="Node000032" class="node">
<title>Node32</title>
<g id="a_Node000032"><a xlink:title=" ">
<polygon fill="#e0e0e0" stroke="#999999" points="897.5,-19 849.5,-19 849.5,0 897.5,0 897.5,-19"/>
<text text-anchor="middle" x="873.5" y="-7" font-family="Helvetica,sans-Serif" font-size="10.00">mutex</text>
</a>
</g>
</g>
<!-- Node10&#45;&gt;Node32 -->
<g id="edge32_Node000010_Node000032" class="edge">
<title>Node10&#45;&gt;Node32</title>
<g id="a_edge32_Node000010_Node000032"><a xlink:title=" ">
<path fill="none" stroke="#63b8ff" d="M1121.96,-55.76C1069.02,-48.18 987.51,-35.63 907.81,-19.11"/>
<polygon fill="#63b8ff" stroke="#63b8ff" points="908.1,-15.6 897.59,-16.97 906.66,-22.45 908.1,-15.6"/>
</a>
</g>
</g>
<!-- Node33 -->
<g id="Node000033" class="node">
<title>Node33</title>
<g id="a_Node000033"><a xlink:title=" ">
<polygon fill="#e0e0e0" stroke="#999999" points="969.5,-19 915.5,-19 915.5,0 969.5,0 969.5,-19"/>
<text text-anchor="middle" x="942.5" y="-7" font-family="Helvetica,sans-Serif" font-size="10.00">random</text>
</a>
</g>
</g>
<!-- Node10&#45;&gt;Node33 -->
<g id="edge33_Node000010_Node000033" class="edge">
<title>Node10&#45;&gt;Node33</title>
<g id="a_edge33_Node000010_Node000033"><a xlink:title=" ">
<path fill="none" stroke="#63b8ff" d="M1139.38,-54.95C1101.08,-46.55 1040.83,-33.24 979.47,-19.2"/>
<polygon fill="#63b8ff" stroke="#63b8ff" points="980.15,-15.76 969.62,-16.94 978.58,-22.59 980.15,-15.76"/>
</a>
</g>
</g>
<!-- Node34 -->
<g id="Node000034" class="node">
<title>Node34</title>
<g id="a_Node000034"><a xlink:title=" ">
<polygon fill="#e0e0e0" stroke="#999999" points="1035.5,-19 987.5,-19 987.5,0 1035.5,0 1035.5,-19"/>
<text text-anchor="middle" x="1011.5" y="-7" font-family="Helvetica,sans-Serif" font-size="10.00">thread</text>
</a>
</g>
</g>
<!-- Node10&#45;&gt;Node34 -->
<g id="edge34_Node000010_Node000034" class="edge">
<title>Node10&#45;&gt;Node34</title>
<g id="a_edge34_Node000010_Node000034"><a xlink:title=" ">
<path fill="none" stroke="#63b8ff" d="M1151.67,-54.98C1122.72,-45.8 1076.55,-31.15 1045.18,-21.19"/>
<polygon fill="#63b8ff" stroke="#63b8ff" points="1046.15,-17.82 1035.55,-18.13 1044.03,-24.5 1046.15,-17.82"/>
</a>
</g>
</g>
<!-- Node35 -->
<g id="Node000035" class="node">
<title>Node35</title>
<g id="a_Node000035"><a xlink:title=" ">
<polygon fill="#e0e0e0" stroke="#999999" points="1103.5,-19 1053.5,-19 1053.5,0 1103.5,0 1103.5,-19"/>
<text text-anchor="middle" x="1078.5" y="-7" font-family="Helvetica,sans-Serif" font-size="10.00">atomic</text>
</a>
</g>
</g>
<!-- Node10&#45;&gt;Node35 -->
<g id="edge35_Node000010_Node000035" class="edge">
<title>Node10&#45;&gt;Node35</title>
<g id="a_edge35_Node000010_Node000035"><a xlink:title=" ">
<path fill="none" stroke="#63b8ff" d="M1162.43,-54.98C1146.64,-46.61 1122.28,-33.7 1103.87,-23.95"/>
<polygon fill="#63b8ff" stroke="#63b8ff" points="1105.33,-20.76 1094.86,-19.17 1102.06,-26.95 1105.33,-20.76"/>
</a>
</g>
</g>
<!-- Node36 -->
<g id="Node000036" class="node">
<title>Node36</title>
<g id="a_Node000036"><a xlink:title=" ">
<polygon fill="#e0e0e0" stroke="#999999" points="1171,-19 1122,-19 1122,0 1171,0 1171,-19"/>
<text text-anchor="middle" x="1146.5" y="-7" font-family="Helvetica,sans-Serif" font-size="10.00">cctype</text>
</a>
</g>
</g>
<!-- Node10&#45;&gt;Node36 -->
<g id="edge36_Node000010_Node000036" class="edge">
<title>Node10&#45;&gt;Node36</title>
<g id="a_edge36_Node000010_Node000036"><a xlink:title=" ">
<path fill="none" stroke="#63b8ff" d="M1173.22,-54.75C1168.79,-47.42 1162.34,-36.73 1156.88,-27.7"/>
<polygon fill="#63b8ff" stroke="#63b8ff" points="1159.85,-25.84 1151.69,-19.09 1153.86,-29.46 1159.85,-25.84"/>
</a>
</g>
</g>
<!-- Node37 -->
<g id="Node000037" class="node">
<title>Node37</title>
<g id="a_Node000037"><a xlink:title=" ">
<polygon fill="#e0e0e0" stroke="#999999" points="1231.5,-19 1189.5,-19 1189.5,0 1231.5,0 1231.5,-19"/>
<text text-anchor="middle" x="1210.5" y="-7" font-family="Helvetica,sans-Serif" font-size="10.00">array</text>
</a>
</g>
</g>
<!-- Node10&#45;&gt;Node37 -->
<g id="edge37_Node000010_Node000037" class="edge">
<title>Node10&#45;&gt;Node37</title>
<g id="a_edge37_Node000010_Node000037"><a xlink:title=" ">
<path fill="none" stroke="#63b8ff" d="M1183.78,-54.75C1188.21,-47.42 1194.66,-36.73 1200.12,-27.7"/>
<polygon fill="#63b8ff" stroke="#63b8ff" points="1203.14,-29.46 1205.31,-19.09 1197.15,-25.84 1203.14,-29.46"/>
</a>
</g>
</g>
<!-- Node38 -->
<g id="Node000038" class="node">
<title>Node38</title>
<g id="a_Node000038"><a xlink:title=" ">
<polygon fill="#e0e0e0" stroke="#999999" points="1319,-19 1250,-19 1250,0 1319,0 1319,-19"/>
<text text-anchor="middle" x="1284.5" y="-7" font-family="Helvetica,sans-Serif" font-size="10.00">type_traits</text>
</a>
</g>
</g>
<!-- Node10&#45;&gt;Node38 -->
<g id="edge38_Node000010_Node000038" class="edge">
<title>Node10&#45;&gt;Node38</title>
<g id="a_edge38_Node000010_Node000038"><a xlink:title=" ">
<path fill="none" stroke="#63b8ff" d="M1195.53,-54.98C1212.43,-46.54 1238.56,-33.47 1258.14,-23.68"/>
<polygon fill="#63b8ff" stroke="#63b8ff" points="1259.78,-26.77 1267.16,-19.17 1256.65,-20.51 1259.78,-26.77"/>
</a>
</g>
</g>
<!-- Node10&#45;&gt;Node40 -->
<g id="edge39_Node000010_Node000040" class="edge">
<title>Node10&#45;&gt;Node40</title>
<g id="a_edge39_Node000010_Node000040"><a xlink:title=" ">
<path fill="none" stroke="#63b8ff" d="M1235.12,-63.29C1405.31,-62.25 1927.25,-56.12 2370.26,-19.01"/>
<polygon fill="#63b8ff" stroke="#63b8ff" points="2370.71,-22.49 2380.38,-18.16 2370.12,-15.51 2370.71,-22.49"/>
</a>
</g>
</g>
<!-- Node47 -->
<g id="Node000047" class="node">
<title>Node47</title>
<g id="a_Node000047"><a xlink:href="Logger_8h.html" target="_top" xlink:title="デバッグログ出力システム">
<polygon fill="white" stroke="#666666" points="329.5,-19 251.5,-19 251.5,0 329.5,0 329.5,-19"/>
<text text-anchor="middle" x="290.5" y="-7" font-family="Helvetica,sans-Serif" font-size="10.00">Log/Logger.h</text>
</a>
</g>
</g>
<!-- Node10&#45;&gt;Node47 -->
<g id="edge41_Node000010_Node000047" class="edge">
<title>Node10&#45;&gt;Node47</title>
<g id="a_edge41_Node000010_Node000047"><a xlink:title=" ">
<path fill="none" stroke="#63b8ff" d="M1121.8,-62.95C986.51,-61.1 634.58,-53.19 339.95,-20.18"/>
<polygon fill="#63b8ff" stroke="#63b8ff" points="340.27,-16.7 329.93,-19.05 339.48,-23.65 340.27,-16.7"/>
</a>
</g>
</g>
<!-- Node47&#45;&gt;Node10 -->
<g id="edge42_Node000047_Node000010" class="edge">
<title>Node47&#45;&gt;Node10</title>
<g id="a_edge42_Node000047_Node000010"><a xlink:title=" ">
<path fill="none" stroke="#63b8ff" d="M329.72,-16.46C335.72,-17.44 341.78,-18.34 347.5,-19 630.59,-51.44 970.12,-60.28 1111.62,-62.65"/>
<polygon fill="#63b8ff" stroke="#63b8ff" points="1111.81,-66.15 1121.86,-62.82 1111.92,-59.16 1111.81,-66.15"/>
</a>
</g>
</g>
<!-- Node48&#45;&gt;Node10 -->
<g id="edge44_Node000048_Node000010" class="edge">
<title>Node48&#45;&gt;Node10</title>
<g id="a_edge44_Node000048_Node000010"><a xlink:title=" ">
<path fill="none" stroke="#63b8ff" d="M1196.48,-219.74C1193.51,-194.31 1184.86,-120.08 1180.74,-84.69"/>
<polygon fill="#63b8ff" stroke="#63b8ff" points="1184.16,-83.83 1179.53,-74.31 1177.21,-84.64 1184.16,-83.83"/>
</a>
</g>
</g>
<!-- Node49 -->
<g id="Node000049" class="node">
<title>Node49</title>
<g id="a_Node000049"><a xlink:href="EntityManager_8h.html" target="_top" xlink:title="エンティティIDのライフサイクル管理クラス">
<polygon fill="white" stroke="#666666" points="1321.5,-184 1225.5,-184 1225.5,-165 1321.5,-165 1321.5,-184"/>
<text text-anchor="middle" x="1273.5" y="-172" font-family="Helvetica,sans-Serif" font-size="10.00">EntityManager.h</text>
</a>
</g>
</g>
<!-- Node48&#45;&gt;Node49 -->
<g id="edge45_Node000048_Node000049" class="edge">
<title>Node48&#45;&gt;Node49</title>
<g id="a_edge45_Node000048_Node000049"><a xlink:title=" ">
<path fill="none" stroke="#63b8ff" d="M1209.71,-219.98C1221.28,-211.92 1238.88,-199.65 1252.66,-190.03"/>
<polygon fill="#63b8ff" stroke="#63b8ff" points="1254.87,-192.76 1261.07,-184.17 1250.86,-187.02 1254.87,-192.76"/>
</a>
</g>
</g>
<!-- Node50 -->
<g id="Node000050" class="node">
<title>Node50</title>
<g id="a_Node000050"><a xlink:href="ArchetypeManager_8h.html" target="_top" xlink:title="アーキタイプの生成と管理を行うクラス">
<polygon fill="#fff0f0" stroke="red" points="1131,-129 1014,-129 1014,-110 1131,-110 1131,-129"/>
<text text-anchor="middle" x="1072.5" y="-117" font-family="Helvetica,sans-Serif" font-size="10.00">ArchetypeManager.h</text>
</a>
</g>
</g>
<!-- Node48&#45;&gt;Node50 -->
<g id="edge47_Node000048_Node000050" class="edge">
<title>Node48&#45;&gt;Node50</title>
<g id="a_edge47_Node000048_Node000050"><a xlink:title=" ">
<path fill="none" stroke="#63b8ff" d="M1162.49,-219.88C1141.57,-213.16 1115.79,-201.88 1098.5,-184 1086.48,-171.57 1079.73,-152.81 1076.14,-138.9"/>
<polygon fill="#63b8ff" stroke="#63b8ff" points="1079.52,-137.98 1073.9,-129 1072.69,-139.53 1079.52,-137.98"/>
</a>
</g>
</g>
<!-- Node55 -->
<g id="Node000055" class="node">
<title>Node55</title>
<g id="a_Node000055"><a xlink:href="System_8h.html" target="_top" xlink:title="ECSシステム (ロジック) の基底クラス。">
<polygon fill="white" stroke="#666666" points="1169.5,-184 1107.5,-184 1107.5,-165 1169.5,-165 1169.5,-184"/>
<text text-anchor="middle" x="1138.5" y="-172" font-family="Helvetica,sans-Serif" font-size="10.00">System.h</text>
</a>
</g>
</g>
<!-- Node48&#45;&gt;Node55 -->
<g id="edge49_Node000048_Node000055" class="edge">
<title>Node48&#45;&gt;Node55</title>
<g id="a_edge49_Node000048_Node000055"><a xlink:title=" ">
<path fill="none" stroke="#63b8ff" d="M1188.02,-219.98C1179.3,-212.15 1166.16,-200.34 1155.6,-190.86"/>
<polygon fill="#63b8ff" stroke="#63b8ff" points="1157.93,-188.25 1148.15,-184.17 1153.25,-193.46 1157.93,-188.25"/>
</a>
</g>
</g>
<!-- Node49&#45;&gt;Node9 -->
<g id="edge46_Node000049_Node000009" class="edge">
<title>Node49&#45;&gt;Node9</title>
<g id="a_edge46_Node000049_Node000009"><a xlink:title=" ">
<path fill="none" stroke="#63b8ff" d="M1274.49,-164.75C1275.28,-157.8 1276.4,-147.85 1277.39,-139.13"/>
<polygon fill="#63b8ff" stroke="#63b8ff" points="1280.88,-139.42 1278.53,-129.09 1273.92,-138.63 1280.88,-139.42"/>
</a>
</g>
</g>
<!-- Node50&#45;&gt;Node10 -->
<g id="edge48_Node000050_Node000010" class="edge">
<title>Node50&#45;&gt;Node10</title>
<g id="a_edge48_Node000050_Node000010"><a xlink:title=" ">
<path fill="none" stroke="#63b8ff" d="M1089.53,-109.98C1106.43,-101.54 1132.56,-88.47 1152.14,-78.68"/>
<polygon fill="#63b8ff" stroke="#63b8ff" points="1153.78,-81.77 1161.16,-74.17 1150.65,-75.51 1153.78,-81.77"/>
</a>
</g>
</g>
<!-- Node55&#45;&gt;Node10 -->
<g id="edge50_Node000055_Node000010" class="edge">
<title>Node55&#45;&gt;Node10</title>
<g id="a_edge50_Node000055_Node000010"><a xlink:title=" ">
<path fill="none" stroke="#63b8ff" d="M1141.77,-164.66C1148.31,-147.01 1163.1,-107.09 1171.78,-83.64"/>
<polygon fill="#63b8ff" stroke="#63b8ff" points="1175.1,-84.75 1175.29,-74.16 1168.54,-82.32 1175.1,-84.75"/>
</a>
</g>
</g>
<!-- Node56&#45;&gt;Node2 -->
<g id="edge52_Node000056_Node000002" class="edge">
<title>Node56&#45;&gt;Node2</title>
<g id="a_edge52_Node000056_Node000002"><a xlink:title=" ">
<path fill="none" stroke="#63b8ff" d="M325.05,-109.98C290.54,-100.93 235.84,-86.58 197.94,-76.64"/>
<polygon fill="#63b8ff" stroke="#63b8ff" points="198.77,-73.23 188.21,-74.08 196.99,-80.01 198.77,-73.23"/>
</a>
</g>
</g>
<!-- Node56&#45;&gt;Node47 -->
<g id="edge53_Node000056_Node000047" class="edge">
<title>Node56&#45;&gt;Node47</title>
<g id="a_edge53_Node000056_Node000047"><a xlink:title=" ">
<path fill="none" stroke="#63b8ff" d="M375.49,-109.82C397.3,-98.09 429.42,-76.2 414.5,-55 405.3,-41.92 369.14,-29.85 338.22,-21.59"/>
<polygon fill="#63b8ff" stroke="#63b8ff" points="338.97,-18.17 328.41,-19.04 337.21,-24.94 338.97,-18.17"/>
</a>
</g>
</g>
<!-- Node57 -->
<g id="Node000057" class="node">
<title>Node57</title>
<g id="a_Node000057"><a xlink:title=" ">
<polygon fill="#e0e0e0" stroke="#999999" points="291,-74 238,-74 238,-55 291,-55 291,-74"/>
<text text-anchor="middle" x="264.5" y="-62" font-family="Helvetica,sans-Serif" font-size="10.00">imgui.h</text>
</a>
</g>
</g>
<!-- Node56&#45;&gt;Node57 -->
<g id="edge54_Node000056_Node000057" class="edge">
<title>Node56&#45;&gt;Node57</title>
<g id="a_edge54_Node000056_Node000057"><a xlink:title=" ">
<path fill="none" stroke="#63b8ff" d="M342.56,-109.98C328,-101.69 305.63,-88.94 288.57,-79.22"/>
<polygon fill="#63b8ff" stroke="#63b8ff" points="290.14,-76.08 279.71,-74.17 286.67,-82.16 290.14,-76.08"/>
</a>
</g>
</g>
<!-- Node58 -->
<g id="Node000058" class="node">
<title>Node58</title>
<g id="a_Node000058"><a xlink:title=" ">
<polygon fill="#e0e0e0" stroke="#999999" points="405.5,-74 309.5,-74 309.5,-55 405.5,-55 405.5,-74"/>
<text text-anchor="middle" x="357.5" y="-62" font-family="Helvetica,sans-Serif" font-size="10.00">imgui_internal.h</text>
</a>
</g>
</g>
<!-- Node56&#45;&gt;Node58 -->
<g id="edge55_Node000056_Node000058" class="edge">
<title>Node56&#45;&gt;Node58</title>
<g id="a_edge55_Node000056_Node000058"><a xlink:title=" ">
<path fill="none" stroke="#63b8ff" d="M357.5,-109.75C357.5,-102.8 357.5,-92.85 357.5,-84.13"/>
<polygon fill="#63b8ff" stroke="#63b8ff" points="361,-84.09 357.5,-74.09 354,-84.09 361,-84.09"/>
</a>
</g>
</g>
<!-- Node59&#45;&gt;Node10 -->
<g id="edge57_Node000059_Node000010" class="edge">
<title>Node59&#45;&gt;Node10</title>
<g id="a_edge57_Node000059_Node000010"><a xlink:title=" ">
<path fill="none" stroke="#63b8ff" d="M861.96,-274.92C871.47,-266.16 886.42,-252.04 898.5,-239 949.12,-184.36 942.59,-149.89 1005.5,-110 1037.31,-89.83 1077.87,-78.79 1111.72,-72.74"/>
<polygon fill="#63b8ff" stroke="#63b8ff" points="1112.71,-76.13 1121.99,-71.03 1111.55,-69.22 1112.71,-76.13"/>
</a>
</g>
</g>
<!-- Node53 -->
<g id="Node000053" class="node">
<title>Node53</title>
<g id="a_Node000053"><a xlink:title=" ">
<polygon fill="#e0e0e0" stroke="#999999" points="889,-239 816,-239 816,-220 889,-220 889,-239"/>
<text text-anchor="middle" x="852.5" y="-227" font-family="Helvetica,sans-Serif" font-size="10.00">string_view</text>
</a>
</g>
</g>
<!-- Node59&#45;&gt;Node53 -->
<g id="edge58_Node000059_Node000053" class="edge">
<title>Node59&#45;&gt;Node53</title>
<g id="a_edge58_Node000059_Node000053"><a xlink:title=" ">
<path fill="none" stroke="#63b8ff" d="M852.5,-274.75C852.5,-267.8 852.5,-257.85 852.5,-249.13"/>
<polygon fill="#63b8ff" stroke="#63b8ff" points="856,-249.09 852.5,-239.09 849,-249.09 856,-249.09"/>
</a>
</g>
</g>
</g>
</svg>
