<?xml version="1.0" encoding="UTF-8" standalone="no"?>
<!DOCTYPE svg PUBLIC "-//W3C//DTD SVG 1.1//EN"
 "http://www.w3.org/Graphics/SVG/1.1/DTD/svg11.dtd">
<!-- Generated by graphviz version 2.43.0 (0)
 -->
<!-- Title: Span::Archetype::GetComponentSize Pages: 1 -->
<!--zoomable 156 -->

<svg id="main" version="1.1" xmlns="http://www.w3.org/2000/svg" xmlns:xlink="http://www.w3.org/1999/xlink" xml:space="preserve" onload="init(evt)">

<style type="text/css"><![CDATA[
.node, .edge {opacity: 0.7;}
.node.selected, .edge.selected {opacity: 1;}
.edge:hover path { stroke: red; }
.edge:hover polygon { stroke: red; fill: red; }
]]></style>

<defs>
  <circle id="rim" cx="0" cy="0" r="7"/>
  <circle id="rim2" cx="0" cy="0" r="3.5"/>
  <g id="zoomPlus">
    <use xlink:href="#rim" fill="#404040"><set attributeName="fill" to="#808080" begin="zoomplus.mouseover" end="zoomplus.mouseout"/></use>
    <path d="M-4,0h8M0,-4v8" fill="none" stroke="white" stroke-width="1.5" pointer-events="none"/>
  </g>
  <g id="zoomMin">
    <use xlink:href="#rim" fill="#404040"><set attributeName="fill" to="#808080" begin="zoomminus.mouseover" end="zoomminus.mouseout"/></use>
    <path d="M-4,0h8" fill="none" stroke="white" stroke-width="1.5" pointer-events="none"/>
  </g>
  <g id="arrowUp" transform="translate(30 24)">
    <use xlink:href="#rim"/>
    <path pointer-events="none" fill="none" stroke="white" stroke-width="1.5" d="M0,-3.0v7 M-2.5,-0.5L0,-3.0L2.5,-0.5"/>
  </g>
  <g id="arrowRight" transform="rotate(90) translate(36 -43)">
    <use xlink:href="#rim"/>
    <path pointer-events="none" fill="none" stroke="white" stroke-width="1.5" d="M0,-3.0v7 M-2.5,-0.5L0,-3.0L2.5,-0.5"/>
  </g>
  <g id="arrowDown" transform="rotate(180) translate(-30 -48)">
    <use xlink:href="#rim"/>
    <path pointer-events="none" fill="none" stroke="white" stroke-width="1.5" d="M0,-3.0v7 M-2.5,-0.5L0,-3.0L2.5,-0.5"/>
  </g>
  <g id="arrowLeft" transform="rotate(270) translate(-36 17)">
    <use xlink:href="#rim"/>
    <path pointer-events="none" fill="none" stroke="white" stroke-width="1.5" d="M0,-3.0v7 M-2.5,-0.5L0,-3.0L2.5,-0.5"/>
  </g>
  <g id="resetDef">
    <use xlink:href="#rim2" fill="#404040"><set attributeName="fill" to="#808080" begin="reset.mouseover" end="reset.mouseout"/></use>
  </g>
</defs>
<script type="application/ecmascript">
var viewWidth = 1157;
var viewHeight = 156;
var sectionId = 'dynsection-6';
</script>
<script type="application/ecmascript" xlink:href="svg.min.js"/>
<svg id="graph" class="graph">
<g id="viewport">
<title>Span::Archetype::GetComponentSize</title>
<!-- Node1 -->
<g id="Node000001" class="node">
<title>Node1</title>
<g id="a_Node000001"><a xlink:title="コンポーネントの単体サイズを取得します。">
<polygon fill="#999999" stroke="#666666" points="1149,-119 953,-119 953,-100 1149,-100 1149,-119"/>
<text text-anchor="middle" x="1051" y="-107" font-family="Helvetica,sans-Serif" font-size="10.00">Span::Archetype::GetComponentSize</text>
</a>
</g>
</g>
<!-- Node2 -->
<g id="Node000002" class="node">
<title>Node2</title>
<g id="a_Node000002"><a xlink:href="classSpan_1_1World.html#a555e11829d3833ce35f444779c4c2369" target="_top" xlink:title="既存のEntityに新しいコンポーネントを追加します。">
<polygon fill="white" stroke="#666666" points="525,-142 370,-142 370,-123 525,-123 525,-142"/>
<text text-anchor="middle" x="447.5" y="-130" font-family="Helvetica,sans-Serif" font-size="10.00">Span::World::AddComponent</text>
</a>
</g>
</g>
<!-- Node1&#45;&gt;Node2 -->
<g id="edge1_Node000001_Node000002" class="edge">
<title>Node1&#45;&gt;Node2</title>
<g id="a_edge1_Node000001_Node000002"><a xlink:title=" ">
<path fill="none" stroke="#63b8ff" d="M964.85,-120.15C948.97,-121.84 932.5,-123.39 917,-124.5 779.26,-134.34 618.2,-134.65 525.3,-133.74"/>
<polygon fill="#63b8ff" stroke="#63b8ff" points="965.63,-123.59 975.19,-119.03 964.87,-116.63 965.63,-123.59"/>
</a>
</g>
</g>
<!-- Node7 -->
<g id="Node000007" class="node">
<title>Node7</title>
<g id="a_Node000007"><a xlink:href="classSpan_1_1World.html#a8c01f89c473a5da0aca8d152f248fc53" target="_top" xlink:title=" ">
<polygon fill="white" stroke="#666666" points="718.5,-121 572.5,-121 572.5,-102 718.5,-102 718.5,-121"/>
<text text-anchor="middle" x="645.5" y="-109" font-family="Helvetica,sans-Serif" font-size="10.00">Span::World::MigrateEntity</text>
</a>
</g>
</g>
<!-- Node1&#45;&gt;Node7 -->
<g id="edge7_Node000001_Node000007" class="edge">
<title>Node1&#45;&gt;Node7</title>
<g id="a_edge7_Node000001_Node000007"><a xlink:title=" ">
<path fill="none" stroke="#63b8ff" d="M942.55,-110.03C871.79,-110.38 781.06,-110.83 718.8,-111.14"/>
<polygon fill="#63b8ff" stroke="#63b8ff" points="942.86,-113.53 952.84,-109.98 942.82,-106.53 942.86,-113.53"/>
</a>
</g>
</g>
<!-- Node8 -->
<g id="Node000008" class="node">
<title>Node8</title>
<g id="a_Node000008"><a xlink:href="classSpan_1_1World.html#a5d815ca319bd1f2756394cc107818c46" target="_top" xlink:title="エンティティから指定したコンポーネントを削除します。">
<polygon fill="white" stroke="#666666" points="536,-105 359,-105 359,-86 536,-86 536,-105"/>
<text text-anchor="middle" x="447.5" y="-93" font-family="Helvetica,sans-Serif" font-size="10.00">Span::World::RemoveComponent</text>
</a>
</g>
</g>
<!-- Node1&#45;&gt;Node8 -->
<g id="edge18_Node000001_Node000008" class="edge">
<title>Node1&#45;&gt;Node8</title>
<g id="a_edge18_Node000001_Node000008"><a xlink:title=" ">
<path fill="none" stroke="#63b8ff" d="M1014.36,-96.74C987.89,-87.96 950.69,-77.1 917,-72.5 769.55,-52.37 593.87,-72.7 505.4,-85.98"/>
<polygon fill="#63b8ff" stroke="#63b8ff" points="1013.35,-100.09 1023.95,-99.98 1015.6,-93.46 1013.35,-100.09"/>
</a>
</g>
</g>
<!-- Node9 -->
<g id="Node000009" class="node">
<title>Node9</title>
<g id="a_Node000009"><a xlink:href="structSpan_1_1Chunk.html#a6bd9e470ec1f88ff4d5e7481a6608ccf" target="_top" xlink:title="チャンク内のエンティティデータを移動 (コピー) します。">
<polygon fill="white" stroke="#666666" points="917,-100 755,-100 755,-81 917,-81 917,-100"/>
<text text-anchor="middle" x="836" y="-88" font-family="Helvetica,sans-Serif" font-size="10.00">Span::Chunk::MoveEntityData</text>
</a>
</g>
</g>
<!-- Node1&#45;&gt;Node9 -->
<g id="edge10_Node000001_Node000009" class="edge">
<title>Node1&#45;&gt;Node9</title>
<g id="a_edge10_Node000001_Node000009"><a xlink:title=" ">
<path fill="none" stroke="#63b8ff" d="M942.73,-99.93C934.11,-99.16 925.49,-98.39 917.11,-97.65"/>
<polygon fill="#63b8ff" stroke="#63b8ff" points="942.58,-103.43 952.85,-100.83 943.2,-96.46 942.58,-103.43"/>
</a>
</g>
</g>
<!-- Node3 -->
<g id="Node000003" class="node">
<title>Node3</title>
<g id="a_Node000003"><a xlink:href="classSpan_1_1InspectorPanel.html#a6daa94024d0c4ef940d144af94519964" target="_top" xlink:title="エンティティ用のインスペクターを描画します。">
<polygon fill="white" stroke="#666666" points="303.5,-147.5 181.5,-147.5 181.5,-117.5 303.5,-117.5 303.5,-147.5"/>
<text text-anchor="start" x="189.5" y="-135.5" font-family="Helvetica,sans-Serif" font-size="10.00">Span::InspectorPanel</text>
<text text-anchor="middle" x="242.5" y="-124.5" font-family="Helvetica,sans-Serif" font-size="10.00">::DrawEntityInspector</text>
</a>
</g>
</g>
<!-- Node2&#45;&gt;Node3 -->
<g id="edge2_Node000002_Node000003" class="edge">
<title>Node2&#45;&gt;Node3</title>
<g id="a_edge2_Node000002_Node000003"><a xlink:title=" ">
<path fill="none" stroke="#63b8ff" d="M359.65,-132.5C340.76,-132.5 321.17,-132.5 303.58,-132.5"/>
<polygon fill="#63b8ff" stroke="#63b8ff" points="359.75,-136 369.75,-132.5 359.75,-129 359.75,-136"/>
</a>
</g>
</g>
<!-- Node5 -->
<g id="Node000005" class="node">
<title>Node5</title>
<g id="a_Node000005"><a xlink:href="classSpan_1_1HierarchyPanel.html#a2c08f8c6e0cafaed96f7846d76ff2b09" target="_top" xlink:title="1つのエンティティとその子孫を再帰的に描画します。">
<polygon fill="white" stroke="#666666" points="302.5,-74.5 182.5,-74.5 182.5,-44.5 302.5,-44.5 302.5,-74.5"/>
<text text-anchor="start" x="190.5" y="-62.5" font-family="Helvetica,sans-Serif" font-size="10.00">Span::HierarchyPanel</text>
<text text-anchor="middle" x="242.5" y="-51.5" font-family="Helvetica,sans-Serif" font-size="10.00">::DrawEntityNode</text>
</a>
</g>
</g>
<!-- Node2&#45;&gt;Node5 -->
<g id="edge4_Node000002_Node000005" class="edge">
<title>Node2&#45;&gt;Node5</title>
<g id="a_edge4_Node000002_Node000005"><a xlink:title=" ">
<path fill="none" stroke="#63b8ff" d="M380.14,-120.62C372.94,-118.81 365.77,-116.77 359,-114.5 327.42,-103.91 293.19,-86.84 270.26,-74.53"/>
<polygon fill="#63b8ff" stroke="#63b8ff" points="379.41,-124.05 389.95,-122.96 381.03,-117.24 379.41,-124.05"/>
</a>
</g>
</g>
<!-- Node4 -->
<g id="Node000004" class="node">
<title>Node4</title>
<g id="a_Node000004"><a xlink:href="classSpan_1_1InspectorPanel.html#ae32fda6018a2e54f880e6708ac5b89fe" target="_top" xlink:title="毎フレーム呼ばれる描画関数。">
<polygon fill="white" stroke="#666666" points="122,-147.5 4,-147.5 4,-117.5 122,-117.5 122,-147.5"/>
<text text-anchor="start" x="12" y="-135.5" font-family="Helvetica,sans-Serif" font-size="10.00">Span::InspectorPanel</text>
<text text-anchor="middle" x="63" y="-124.5" font-family="Helvetica,sans-Serif" font-size="10.00">::OnImGuiRender</text>
</a>
</g>
</g>
<!-- Node3&#45;&gt;Node4 -->
<g id="edge3_Node000003_Node000004" class="edge">
<title>Node3&#45;&gt;Node4</title>
<g id="a_edge3_Node000003_Node000004"><a xlink:title=" ">
<path fill="none" stroke="#63b8ff" d="M171.4,-132.5C155.11,-132.5 137.94,-132.5 122.23,-132.5"/>
<polygon fill="#63b8ff" stroke="#63b8ff" points="171.41,-136 181.41,-132.5 171.41,-129 171.41,-136"/>
</a>
</g>
</g>
<!-- Node5&#45;&gt;Node5 -->
<g id="edge5_Node000005_Node000005" class="edge">
<title>Node5&#45;&gt;Node5</title>
<g id="a_edge5_Node000005_Node000005"><a xlink:title=" ">
<path fill="none" stroke="#63b8ff" d="M273.66,-85.1C269.4,-89.47 259.01,-92.5 242.5,-92.5 214.69,-92.5 204.26,-83.91 211.21,-74.78"/>
<polygon fill="#63b8ff" stroke="#63b8ff" points="277.16,-84.82 273.79,-74.78 270.16,-84.73 277.16,-84.82"/>
</a>
</g>
</g>
<!-- Node6 -->
<g id="Node000006" class="node">
<title>Node6</title>
<g id="a_Node000006"><a xlink:href="classSpan_1_1HierarchyPanel.html#a6481eb57cd9f45cb3a094a26f35bbaa0" target="_top" xlink:title="毎フレーム呼ばれる描画関数。">
<polygon fill="white" stroke="#666666" points="123,-74.5 3,-74.5 3,-44.5 123,-44.5 123,-74.5"/>
<text text-anchor="start" x="11" y="-62.5" font-family="Helvetica,sans-Serif" font-size="10.00">Span::HierarchyPanel</text>
<text text-anchor="middle" x="63" y="-51.5" font-family="Helvetica,sans-Serif" font-size="10.00">::OnImGuiRender</text>
</a>
</g>
</g>
<!-- Node5&#45;&gt;Node6 -->
<g id="edge6_Node000005_Node000006" class="edge">
<title>Node5&#45;&gt;Node6</title>
<g id="a_edge6_Node000005_Node000006"><a xlink:title=" ">
<path fill="none" stroke="#63b8ff" d="M171.94,-59.5C155.81,-59.5 138.79,-59.5 123.15,-59.5"/>
<polygon fill="#63b8ff" stroke="#63b8ff" points="172.4,-63 182.4,-59.5 172.4,-56 172.4,-63"/>
</a>
</g>
</g>
<!-- Node7&#45;&gt;Node2 -->
<g id="edge8_Node000007_Node000002" class="edge">
<title>Node7&#45;&gt;Node2</title>
<g id="a_edge8_Node000007_Node000002"><a xlink:title=" ">
<path fill="none" stroke="#63b8ff" d="M562.14,-120.32C549.86,-121.64 537.25,-122.99 525.1,-124.29"/>
<polygon fill="#63b8ff" stroke="#63b8ff" points="562.78,-123.78 572.35,-119.23 562.04,-116.82 562.78,-123.78"/>
</a>
</g>
</g>
<!-- Node7&#45;&gt;Node8 -->
<g id="edge9_Node000007_Node000008" class="edge">
<title>Node7&#45;&gt;Node8</title>
<g id="a_edge9_Node000007_Node000008"><a xlink:title=" ">
<path fill="none" stroke="#63b8ff" d="M562.29,-104.79C553.65,-104.08 544.83,-103.36 536.13,-102.65"/>
<polygon fill="#63b8ff" stroke="#63b8ff" points="562.1,-108.29 572.35,-105.61 562.67,-101.31 562.1,-108.29"/>
</a>
</g>
</g>
<!-- Node9&#45;&gt;Node7 -->
<g id="edge17_Node000009_Node000007" class="edge">
<title>Node9&#45;&gt;Node7</title>
<g id="a_edge17_Node000009_Node000007"><a xlink:title=" ">
<path fill="none" stroke="#63b8ff" d="M744.58,-100.57C735.86,-101.54 727.09,-102.52 718.58,-103.47"/>
<polygon fill="#63b8ff" stroke="#63b8ff" points="745.23,-104.02 754.79,-99.44 744.46,-97.07 745.23,-104.02"/>
</a>
</g>
</g>
<!-- Node10 -->
<g id="Node000010" class="node">
<title>Node10</title>
<g id="a_Node000010"><a xlink:href="classSpan_1_1World.html#a1f597fc6f7555036c746fac5e9ba9039" target="_top" xlink:title="エンティティを削除します。">
<polygon fill="white" stroke="#666666" points="719,-24 572,-24 572,-5 719,-5 719,-24"/>
<text text-anchor="middle" x="645.5" y="-12" font-family="Helvetica,sans-Serif" font-size="10.00">Span::World::DestroyEntity</text>
</a>
</g>
</g>
<!-- Node9&#45;&gt;Node10 -->
<g id="edge11_Node000009_Node000010" class="edge">
<title>Node9&#45;&gt;Node10</title>
<g id="a_edge11_Node000009_Node000010"><a xlink:title=" ">
<path fill="none" stroke="#63b8ff" d="M801.59,-77.03C763.84,-61.81 703.36,-37.42 670.18,-24.05"/>
<polygon fill="#63b8ff" stroke="#63b8ff" points="800.54,-80.38 811.13,-80.87 803.16,-73.89 800.54,-80.38"/>
</a>
</g>
</g>
<!-- Node11 -->
<g id="Node000011" class="node">
<title>Node11</title>
<g id="a_Node000011"><a xlink:href="classSpan_1_1World.html#a75ff3e35b55b9bb7a8fa4314ee0eb47a" target="_top" xlink:title="ワールド内の全てのエンティティを削除し、初期状態に戻します。">
<polygon fill="white" stroke="#666666" points="500.5,-19 394.5,-19 394.5,0 500.5,0 500.5,-19"/>
<text text-anchor="middle" x="447.5" y="-7" font-family="Helvetica,sans-Serif" font-size="10.00">Span::World::Clear</text>
</a>
</g>
</g>
<!-- Node10&#45;&gt;Node11 -->
<g id="edge12_Node000010_Node000011" class="edge">
<title>Node10&#45;&gt;Node11</title>
<g id="a_edge12_Node000010_Node000011"><a xlink:title=" ">
<path fill="none" stroke="#63b8ff" d="M561.71,-12.39C540.99,-11.86 519.34,-11.31 500.58,-10.83"/>
<polygon fill="#63b8ff" stroke="#63b8ff" points="561.71,-15.89 571.8,-12.65 561.89,-8.89 561.71,-15.89"/>
</a>
</g>
</g>
<!-- Node14 -->
<g id="Node000014" class="node">
<title>Node14</title>
<g id="a_Node000014"><a xlink:href="classSpan_1_1HierarchyPanel.html#a331d846c46df5f3346cfc7bb8c7a8e76" target="_top" xlink:title="エンティティ上での右クリックメニューを描画します。">
<polygon fill="white" stroke="#666666" points="507.5,-67.5 387.5,-67.5 387.5,-37.5 507.5,-37.5 507.5,-67.5"/>
<text text-anchor="start" x="395.5" y="-55.5" font-family="Helvetica,sans-Serif" font-size="10.00">Span::HierarchyPanel</text>
<text text-anchor="middle" x="447.5" y="-44.5" font-family="Helvetica,sans-Serif" font-size="10.00">::DrawContextMenu</text>
</a>
</g>
</g>
<!-- Node10&#45;&gt;Node14 -->
<g id="edge15_Node000010_Node000014" class="edge">
<title>Node10&#45;&gt;Node14</title>
<g id="a_edge15_Node000010_Node000014"><a xlink:title=" ">
<path fill="none" stroke="#63b8ff" d="M585.35,-25.97C560.7,-30.75 532.14,-36.28 507.51,-41.06"/>
<polygon fill="#63b8ff" stroke="#63b8ff" points="586.14,-29.38 595.29,-24.04 584.81,-22.51 586.14,-29.38"/>
</a>
</g>
</g>
<!-- Node12 -->
<g id="Node000012" class="node">
<title>Node12</title>
<g id="a_Node000012"><a xlink:href="classSpan_1_1GuiManager.html#a66e894c749b02f869c0851b41fd23fec" target="_top" xlink:title="ImGuiの描画コマンドを発行し、フレームを終了します。">
<polygon fill="white" stroke="#666666" points="323,-19 162,-19 162,0 323,0 323,-19"/>
<text text-anchor="middle" x="242.5" y="-7" font-family="Helvetica,sans-Serif" font-size="10.00">Span::GuiManager::EndFrame</text>
</a>
</g>
</g>
<!-- Node11&#45;&gt;Node12 -->
<g id="edge13_Node000011_Node000012" class="edge">
<title>Node11&#45;&gt;Node12</title>
<g id="a_edge13_Node000011_Node000012"><a xlink:title=" ">
<path fill="none" stroke="#63b8ff" d="M384.35,-9.5C365.12,-9.5 343.65,-9.5 323.39,-9.5"/>
<polygon fill="#63b8ff" stroke="#63b8ff" points="384.49,-13 394.49,-9.5 384.49,-6 384.49,-13"/>
</a>
</g>
</g>
<!-- Node13 -->
<g id="Node000013" class="node">
<title>Node13</title>
<g id="a_Node000013"><a xlink:href="classSpan_1_1Application.html#a9dc7321cf43512eac3757a83fbefbaa9" target="_top" xlink:title="アプリケーションを実行します (ブロック関数)。">
<polygon fill="white" stroke="#666666" points="126,-19 0,-19 0,0 126,0 126,-19"/>
<text text-anchor="middle" x="63" y="-7" font-family="Helvetica,sans-Serif" font-size="10.00">Span::Application::Run</text>
</a>
</g>
</g>
<!-- Node12&#45;&gt;Node13 -->
<g id="edge14_Node000012_Node000013" class="edge">
<title>Node12&#45;&gt;Node13</title>
<g id="a_edge14_Node000012_Node000013"><a xlink:title=" ">
<path fill="none" stroke="#63b8ff" d="M151.69,-9.5C143.04,-9.5 134.4,-9.5 126.11,-9.5"/>
<polygon fill="#63b8ff" stroke="#63b8ff" points="151.84,-13 161.84,-9.5 151.84,-6 151.84,-13"/>
</a>
</g>
</g>
<!-- Node14&#45;&gt;Node5 -->
<g id="edge16_Node000014_Node000005" class="edge">
<title>Node14&#45;&gt;Node5</title>
<g id="a_edge16_Node000014_Node000005"><a xlink:title=" ">
<path fill="none" stroke="#63b8ff" d="M377.07,-54.89C352.93,-55.73 326.09,-56.65 302.84,-57.45"/>
<polygon fill="#63b8ff" stroke="#63b8ff" points="377.36,-58.39 387.24,-54.54 377.12,-51.39 377.36,-58.39"/>
</a>
</g>
</g>
</g>
</svg>

<g id="navigator" transform="translate(0 0)" fill="#404254">
  <rect fill="#f2f5e9" fill-opacity="0.5" stroke="#606060" stroke-width=".5" x="0" y="0" width="60" height="60"/>
  <use id="zoomplus" xlink:href="#zoomPlus" x="17" y="9" onmousedown="handleZoom(evt,'in')"/>
  <use id="zoomminus" xlink:href="#zoomMin" x="42" y="9" onmousedown="handleZoom(evt,'out')"/>
  <use id="reset" xlink:href="#resetDef" x="30" y="36" onmousedown="handleReset()"/>
   <use id="arrowup" xlink:href="#arrowUp" x="0" y="0" onmousedown="handlePan(0,-1)"/>
  <use id="arrowright" xlink:href="#arrowRight" x="0" y="0" onmousedown="handlePan(1,0)"/>
  <use id="arrowdown" xlink:href="#arrowDown" x="0" y="0" onmousedown="handlePan(0,1)"/>
  <use id="arrowleft" xlink:href="#arrowLeft" x="0" y="0" onmousedown="handlePan(-1,0)"/>
</g>
<svg viewBox="0 0 15 15" width="100%" height="30px" preserveAspectRatio="xMaxYMin meet">
 <g id="arrow_out" transform="scale(0.3 0.3)">
  <a xlink:href="classSpan_1_1Archetype_a4bbf55d97d15574576b64fcd713da023_icgraph_org.svg" target="_base">
   <rect id="button" ry="5" rx="5" y="6" x="6" height="38" width="38"
        fill="#f2f5e9" fill-opacity="0.5" stroke="#606060" stroke-width="1.0"/>
   <path id="arrow"
     d="M 11.500037,31.436501 C 11.940474,20.09759 22.043105,11.32322 32.158766,21.979434 L 37.068811,17.246167 C 37.068811,17.246167 37.088388,32 37.088388,32 L 22.160133,31.978069 C 22.160133,31.978069 26.997745,27.140456 26.997745,27.140456 C 18.528582,18.264221 13.291696,25.230495 11.500037,31.436501 z"
     style="fill:#404040;"/>
  </a>
 </g>
</svg>

<style type='text/css'>
<![CDATA[
[data-mouse-over-selected='false'] { opacity: 0.7; }
[data-mouse-over-selected='true']  { opacity: 1.0; }
]]>
</style>
<script type="application/ecmascript"><![CDATA[
document.addEventListener('DOMContentLoaded', (event) => {
  highlightEdges();
  highlightAdjacentNodes();
});
]]></script>
</svg>
