<?xml version="1.0" encoding="UTF-8" standalone="no"?>
<!DOCTYPE svg PUBLIC "-//W3C//DTD SVG 1.1//EN"
 "http://www.w3.org/Graphics/SVG/1.1/DTD/svg11.dtd">
<!-- Generated by graphviz version 2.43.0 (0)
 -->
<!-- Title: Span::Archetype::GetComponentOffset Pages: 1 -->
<svg width="1648pt" height="811pt"
 viewBox="0.00 0.00 1648.00 811.25" xmlns="http://www.w3.org/2000/svg" xmlns:xlink="http://www.w3.org/1999/xlink">
<g id="graph0" class="graph" transform="scale(1 1) rotate(0) translate(4 807.25)">
<title>Span::Archetype::GetComponentOffset</title>
<!-- Node1 -->
<g id="Node000001" class="node">
<title>Node1</title>
<g id="a_Node000001"><a xlink:title="コンポーネント配列の「チャンク内オフセット」を取得します。">
<polygon fill="#999999" stroke="#666666" points="1640,-188.5 1464,-188.5 1464,-158.5 1640,-158.5 1640,-188.5"/>
<text text-anchor="start" x="1472" y="-176.5" font-family="Helvetica,sans-Serif" font-size="10.00">Span::Archetype::GetComponent</text>
<text text-anchor="middle" x="1552" y="-165.5" font-family="Helvetica,sans-Serif" font-size="10.00">Offset</text>
</a>
</g>
</g>
<!-- Node2 -->
<g id="Node000002" class="node">
<title>Node2</title>
<g id="a_Node000002"><a xlink:href="classSpan_1_1World.html#afd6041d6b68f1964882d1941fc0fddaf" target="_top" xlink:title="指定したコンポーネントを持つ全てのEntityに対して関数を実行します。">
<polygon fill="white" stroke="#666666" points="1200,-692 1081,-692 1081,-673 1200,-673 1200,-692"/>
<text text-anchor="middle" x="1140.5" y="-680" font-family="Helvetica,sans-Serif" font-size="10.00">Span::World::ForEach</text>
</a>
</g>
</g>
<!-- Node1&#45;&gt;Node2 -->
<g id="edge1_Node000001_Node000002" class="edge">
<title>Node1&#45;&gt;Node2</title>
<g id="a_edge1_Node000001_Node000002"><a xlink:title=" ">
<path fill="none" stroke="#63b8ff" d="M1532.33,-196.71C1459.76,-286.91 1198.15,-612.09 1149.36,-672.73"/>
<polygon fill="#63b8ff" stroke="#63b8ff" points="1535.2,-198.72 1538.74,-188.73 1529.75,-194.33 1535.2,-198.72"/>
</a>
</g>
</g>
<!-- Node9 -->
<g id="Node000009" class="node">
<title>Node9</title>
<g id="a_Node000009"><a xlink:href="classSpan_1_1World.html#a44e36e9b91bb78cd486b93a5a02ff1fa" target="_top" xlink:title=" ">
<polygon fill="white" stroke="#666666" points="1424,-210.5 1270,-210.5 1270,-180.5 1424,-180.5 1424,-210.5"/>
<text text-anchor="start" x="1278" y="-198.5" font-family="Helvetica,sans-Serif" font-size="10.00">Span::World::GetComponent</text>
<text text-anchor="middle" x="1347" y="-187.5" font-family="Helvetica,sans-Serif" font-size="10.00">Unsafe</text>
</a>
</g>
</g>
<!-- Node1&#45;&gt;Node9 -->
<g id="edge8_Node000001_Node000009" class="edge">
<title>Node1&#45;&gt;Node9</title>
<g id="a_edge8_Node000001_Node000009"><a xlink:title=" ">
<path fill="none" stroke="#63b8ff" d="M1453.77,-184.04C1443.78,-185.12 1433.73,-186.21 1424.01,-187.26"/>
<polygon fill="#63b8ff" stroke="#63b8ff" points="1454.17,-187.51 1463.73,-182.96 1453.41,-180.56 1454.17,-187.51"/>
</a>
</g>
</g>
<!-- Node26 -->
<g id="Node000026" class="node">
<title>Node26</title>
<g id="a_Node000026"><a xlink:href="classSpan_1_1World.html#a8c01f89c473a5da0aca8d152f248fc53" target="_top" xlink:title=" ">
<polygon fill="white" stroke="#666666" points="1213.5,-127 1067.5,-127 1067.5,-108 1213.5,-108 1213.5,-127"/>
<text text-anchor="middle" x="1140.5" y="-115" font-family="Helvetica,sans-Serif" font-size="10.00">Span::World::MigrateEntity</text>
</a>
</g>
</g>
<!-- Node1&#45;&gt;Node26 -->
<g id="edge43_Node000001_Node000026" class="edge">
<title>Node1&#45;&gt;Node26</title>
<g id="a_edge43_Node000001_Node000026"><a xlink:title=" ">
<path fill="none" stroke="#63b8ff" d="M1453.56,-160.17C1378.93,-149.97 1277.8,-136.14 1211.15,-127.03"/>
<polygon fill="#63b8ff" stroke="#63b8ff" points="1453.52,-163.7 1463.91,-161.59 1454.47,-156.77 1453.52,-163.7"/>
</a>
</g>
</g>
<!-- Node27 -->
<g id="Node000027" class="node">
<title>Node27</title>
<g id="a_Node000027"><a xlink:href="structSpan_1_1Chunk.html#a6bd9e470ec1f88ff4d5e7481a6608ccf" target="_top" xlink:title="チャンク内のエンティティデータを移動 (コピー) します。">
<polygon fill="white" stroke="#666666" points="1428,-124 1266,-124 1266,-105 1428,-105 1428,-124"/>
<text text-anchor="middle" x="1347" y="-112" font-family="Helvetica,sans-Serif" font-size="10.00">Span::Chunk::MoveEntityData</text>
</a>
</g>
</g>
<!-- Node1&#45;&gt;Node27 -->
<g id="edge46_Node000001_Node000027" class="edge">
<title>Node1&#45;&gt;Node27</title>
<g id="a_edge46_Node000001_Node000027"><a xlink:title=" ">
<path fill="none" stroke="#63b8ff" d="M1489.4,-155.6C1453.7,-145.22 1410.16,-132.56 1380.9,-124.06"/>
<polygon fill="#63b8ff" stroke="#63b8ff" points="1488.67,-159.03 1499.25,-158.46 1490.62,-152.31 1488.67,-159.03"/>
</a>
</g>
</g>
<!-- Node3 -->
<g id="Node000003" class="node">
<title>Node3</title>
<g id="a_Node000003"><a xlink:href="classSpan_1_1SceneViewPanel.html#ad83a4a55f083c75371d0873322808796" target="_top" xlink:title=" ">
<polygon fill="white" stroke="#666666" points="986,-633.5 860,-633.5 860,-603.5 986,-603.5 986,-633.5"/>
<text text-anchor="start" x="868" y="-621.5" font-family="Helvetica,sans-Serif" font-size="10.00">Span::SceneViewPanel</text>
<text text-anchor="middle" x="923" y="-610.5" font-family="Helvetica,sans-Serif" font-size="10.00">::DrawGizmo</text>
</a>
</g>
</g>
<!-- Node2&#45;&gt;Node3 -->
<g id="edge2_Node000002_Node000003" class="edge">
<title>Node2&#45;&gt;Node3</title>
<g id="a_edge2_Node000002_Node000003"><a xlink:title=" ">
<path fill="none" stroke="#63b8ff" d="M1097.28,-669.96C1062.09,-659.51 1011.85,-644.59 974.52,-633.5"/>
<polygon fill="#63b8ff" stroke="#63b8ff" points="1096.65,-673.43 1107.24,-672.92 1098.65,-666.72 1096.65,-673.43"/>
</a>
</g>
</g>
<!-- Node5 -->
<g id="Node000005" class="node">
<title>Node5</title>
<g id="a_Node000005"><a xlink:href="classSpan_1_1HierarchyPanel.html#a6481eb57cd9f45cb3a094a26f35bbaa0" target="_top" xlink:title=" ">
<polygon fill="white" stroke="#666666" points="120,-459.5 0,-459.5 0,-429.5 120,-429.5 120,-459.5"/>
<text text-anchor="start" x="8" y="-447.5" font-family="Helvetica,sans-Serif" font-size="10.00">Span::HierarchyPanel</text>
<text text-anchor="middle" x="60" y="-436.5" font-family="Helvetica,sans-Serif" font-size="10.00">::OnImGuiRender</text>
</a>
</g>
</g>
<!-- Node2&#45;&gt;Node5 -->
<g id="edge4_Node000002_Node000005" class="edge">
<title>Node2&#45;&gt;Node5</title>
<g id="a_edge4_Node000002_Node000005"><a xlink:title=" ">
<path fill="none" stroke="#63b8ff" d="M1123.51,-699.65C1101.51,-721.93 1059.54,-759.95 1015,-776.5 892.88,-821.88 852.77,-795.5 722.5,-795.5 722.5,-795.5 722.5,-795.5 371,-795.5 188.88,-795.5 88.13,-526.77 65.78,-459.58"/>
<polygon fill="#63b8ff" stroke="#63b8ff" points="1126.25,-701.84 1130.68,-692.22 1121.22,-696.98 1126.25,-701.84"/>
</a>
</g>
</g>
<!-- Node6 -->
<g id="Node000006" class="node">
<title>Node6</title>
<g id="a_Node000006"><a xlink:href="classSpan_1_1CameraSystem.html#a7f4bf0245dedd7a6245ef352246f7391" target="_top" xlink:title="毎フレーム呼び出されます。ここにゲームロジックを記述します。">
<polygon fill="white" stroke="#666666" points="984,-767.5 862,-767.5 862,-737.5 984,-737.5 984,-767.5"/>
<text text-anchor="start" x="870" y="-755.5" font-family="Helvetica,sans-Serif" font-size="10.00">Span::CameraSystem</text>
<text text-anchor="middle" x="923" y="-744.5" font-family="Helvetica,sans-Serif" font-size="10.00">::OnUpdate</text>
</a>
</g>
</g>
<!-- Node2&#45;&gt;Node6 -->
<g id="edge5_Node000002_Node000006" class="edge">
<title>Node2&#45;&gt;Node6</title>
<g id="a_edge5_Node000002_Node000006"><a xlink:title=" ">
<path fill="none" stroke="#63b8ff" d="M1106.52,-695.67C1081.59,-705.38 1046.42,-718.58 1015,-728.5 1005.18,-731.6 994.69,-734.63 984.44,-737.43"/>
<polygon fill="#63b8ff" stroke="#63b8ff" points="1107.84,-698.91 1115.87,-692 1105.28,-692.4 1107.84,-698.91"/>
</a>
</g>
</g>
<!-- Node7 -->
<g id="Node000007" class="node">
<title>Node7</title>
<g id="a_Node000007"><a xlink:href="classSpan_1_1EditorCameraSystem.html#ae933964fa5d0f299954c926cf63e091a" target="_top" xlink:title="毎フレーム呼び出されます。ここにゲームロジックを記述します。">
<polygon fill="white" stroke="#666666" points="998,-719.5 848,-719.5 848,-689.5 998,-689.5 998,-719.5"/>
<text text-anchor="start" x="856" y="-707.5" font-family="Helvetica,sans-Serif" font-size="10.00">Span::EditorCameraSystem</text>
<text text-anchor="middle" x="923" y="-696.5" font-family="Helvetica,sans-Serif" font-size="10.00">::OnUpdate</text>
</a>
</g>
</g>
<!-- Node2&#45;&gt;Node7 -->
<g id="edge6_Node000002_Node000007" class="edge">
<title>Node2&#45;&gt;Node7</title>
<g id="a_edge6_Node000002_Node000007"><a xlink:title=" ">
<path fill="none" stroke="#63b8ff" d="M1070.8,-689.51C1047.6,-691.88 1021.61,-694.53 998.02,-696.94"/>
<polygon fill="#63b8ff" stroke="#63b8ff" points="1071.31,-692.98 1080.9,-688.48 1070.59,-686.02 1071.31,-692.98"/>
</a>
</g>
</g>
<!-- Node8 -->
<g id="Node000008" class="node">
<title>Node8</title>
<g id="a_Node000008"><a xlink:href="classSpan_1_1TransformSystem.html#abeba491503870f332716f4ca75444ca4" target="_top" xlink:title="毎フレーム呼び出されます。ここにゲームロジックを記述します。">
<polygon fill="white" stroke="#666666" points="787.5,-681.5 655.5,-681.5 655.5,-651.5 787.5,-651.5 787.5,-681.5"/>
<text text-anchor="start" x="663.5" y="-669.5" font-family="Helvetica,sans-Serif" font-size="10.00">Span::TransformSystem</text>
<text text-anchor="middle" x="721.5" y="-658.5" font-family="Helvetica,sans-Serif" font-size="10.00">::OnUpdate</text>
</a>
</g>
</g>
<!-- Node2&#45;&gt;Node8 -->
<g id="edge7_Node000002_Node000008" class="edge">
<title>Node2&#45;&gt;Node8</title>
<g id="a_edge7_Node000002_Node000008"><a xlink:title=" ">
<path fill="none" stroke="#63b8ff" d="M1070.36,-679.85C991.76,-676.83 864.44,-671.95 787.58,-669"/>
<polygon fill="#63b8ff" stroke="#63b8ff" points="1070.51,-683.36 1080.64,-680.24 1070.78,-676.36 1070.51,-683.36"/>
</a>
</g>
</g>
<!-- Node4 -->
<g id="Node000004" class="node">
<title>Node4</title>
<g id="a_Node000004"><a xlink:href="classSpan_1_1SceneViewPanel.html#aab2935de58bd68267a680cabd3656c9f" target="_top" xlink:title=" ">
<polygon fill="white" stroke="#666666" points="784.5,-633.5 658.5,-633.5 658.5,-603.5 784.5,-603.5 784.5,-633.5"/>
<text text-anchor="start" x="666.5" y="-621.5" font-family="Helvetica,sans-Serif" font-size="10.00">Span::SceneViewPanel</text>
<text text-anchor="middle" x="721.5" y="-610.5" font-family="Helvetica,sans-Serif" font-size="10.00">::OnImGuiRender</text>
</a>
</g>
</g>
<!-- Node3&#45;&gt;Node4 -->
<g id="edge3_Node000003_Node000004" class="edge">
<title>Node3&#45;&gt;Node4</title>
<g id="a_edge3_Node000003_Node000004"><a xlink:title=" ">
<path fill="none" stroke="#63b8ff" d="M849.7,-618.5C828.45,-618.5 805.4,-618.5 784.83,-618.5"/>
<polygon fill="#63b8ff" stroke="#63b8ff" points="849.97,-622 859.97,-618.5 849.97,-615 849.97,-622"/>
</a>
</g>
</g>
<!-- Node10 -->
<g id="Node000010" class="node">
<title>Node10</title>
<g id="a_Node000010"><a xlink:href="classSpan_1_1World.html#a0cebb4506e5366293854cde16a208677" target="_top" xlink:title="コンポーネントへの参照を取得します。">
<polygon fill="white" stroke="#666666" points="1217.5,-383 1063.5,-383 1063.5,-364 1217.5,-364 1217.5,-383"/>
<text text-anchor="middle" x="1140.5" y="-371" font-family="Helvetica,sans-Serif" font-size="10.00">Span::World::GetComponent</text>
</a>
</g>
</g>
<!-- Node9&#45;&gt;Node10 -->
<g id="edge9_Node000009_Node000010" class="edge">
<title>Node9&#45;&gt;Node10</title>
<g id="a_edge9_Node000009_Node000010"><a xlink:title=" ">
<path fill="none" stroke="#63b8ff" d="M1320.77,-217.46C1275.96,-256.46 1184.23,-336.31 1152.55,-363.88"/>
<polygon fill="#63b8ff" stroke="#63b8ff" points="1323.32,-219.88 1328.56,-210.68 1318.72,-214.6 1323.32,-219.88"/>
</a>
</g>
</g>
<!-- Node18 -->
<g id="Node000018" class="node">
<title>Node18</title>
<g id="a_Node000018"><a xlink:href="classSpan_1_1World.html#a637d963c8538b8ca6535bd1c6b88115c" target="_top" xlink:title="コンポーネントへのポインタを取得します。">
<polygon fill="white" stroke="#666666" points="1224,-205 1057,-205 1057,-186 1224,-186 1224,-205"/>
<text text-anchor="middle" x="1140.5" y="-193" font-family="Helvetica,sans-Serif" font-size="10.00">Span::World::GetComponentPtr</text>
</a>
</g>
</g>
<!-- Node9&#45;&gt;Node18 -->
<g id="edge28_Node000009_Node000018" class="edge">
<title>Node9&#45;&gt;Node18</title>
<g id="a_edge28_Node000009_Node000018"><a xlink:title=" ">
<path fill="none" stroke="#63b8ff" d="M1259.63,-195.5C1247.91,-195.5 1235.89,-195.5 1224.23,-195.5"/>
<polygon fill="#63b8ff" stroke="#63b8ff" points="1259.85,-199 1269.85,-195.5 1259.85,-192 1259.85,-199"/>
</a>
</g>
</g>
<!-- Node23 -->
<g id="Node000023" class="node">
<title>Node23</title>
<g id="a_Node000023"><a xlink:href="classSpan_1_1World.html#adf76f23216798eebcc87947b5ff8cb0a" target="_top" xlink:title=" ">
<polygon fill="white" stroke="#666666" points="1230,-166 1051,-166 1051,-147 1230,-147 1230,-166"/>
<text text-anchor="middle" x="1140.5" y="-154" font-family="Helvetica,sans-Serif" font-size="10.00">Span::World::InitializeComponent</text>
</a>
</g>
</g>
<!-- Node9&#45;&gt;Node23 -->
<g id="edge40_Node000009_Node000023" class="edge">
<title>Node9&#45;&gt;Node23</title>
<g id="a_edge40_Node000009_Node000023"><a xlink:title=" ">
<path fill="none" stroke="#63b8ff" d="M1259.91,-179.08C1236.53,-174.62 1211.98,-169.94 1191.34,-166.01"/>
<polygon fill="#63b8ff" stroke="#63b8ff" points="1259.37,-182.54 1269.85,-180.98 1260.68,-175.67 1259.37,-182.54"/>
</a>
</g>
</g>
<!-- Node10&#45;&gt;Node5 -->
<g id="edge25_Node000010_Node000005" class="edge">
<title>Node10&#45;&gt;Node5</title>
<g id="a_edge25_Node000010_Node000005"><a xlink:title=" ">
<path fill="none" stroke="#63b8ff" d="M1131.6,-392.67C1115.59,-428.79 1075.64,-506.43 1015,-541.5 901.71,-607.03 853.38,-575.5 722.5,-575.5 722.5,-575.5 722.5,-575.5 371,-575.5 252.98,-575.5 128.2,-493.94 80.81,-459.53"/>
<polygon fill="#63b8ff" stroke="#63b8ff" points="1134.91,-393.84 1135.63,-383.27 1128.47,-391.08 1134.91,-393.84"/>
</a>
</g>
</g>
<!-- Node11 -->
<g id="Node000011" class="node">
<title>Node11</title>
<g id="a_Node000011"><a xlink:href="classSpan_1_1RelationshipSystem.html#a67cd257ab95cd2a44e3c8830ccd4cf26" target="_top" xlink:title=" ">
<polygon fill="white" stroke="#666666" points="995,-367.5 851,-367.5 851,-337.5 995,-337.5 995,-367.5"/>
<text text-anchor="start" x="859" y="-355.5" font-family="Helvetica,sans-Serif" font-size="10.00">Span::RelationshipSystem</text>
<text text-anchor="middle" x="923" y="-344.5" font-family="Helvetica,sans-Serif" font-size="10.00">::Disconnect</text>
</a>
</g>
</g>
<!-- Node10&#45;&gt;Node11 -->
<g id="edge10_Node000010_Node000011" class="edge">
<title>Node10&#45;&gt;Node11</title>
<g id="a_edge10_Node000010_Node000011"><a xlink:title=" ">
<path fill="none" stroke="#63b8ff" d="M1053.24,-365.09C1033.96,-363.22 1013.72,-361.24 995.13,-359.43"/>
<polygon fill="#63b8ff" stroke="#63b8ff" points="1052.93,-368.58 1063.22,-366.07 1053.61,-361.61 1052.93,-368.58"/>
</a>
</g>
</g>
<!-- Node12 -->
<g id="Node000012" class="node">
<title>Node12</title>
<g id="a_Node000012"><a xlink:href="classSpan_1_1RelationshipSystem.html#aa4b5cd977689e1b6689786315d0fa6e6" target="_top" xlink:title=" ">
<polygon fill="white" stroke="#666666" points="612,-410.5 468,-410.5 468,-380.5 612,-380.5 612,-410.5"/>
<text text-anchor="start" x="476" y="-398.5" font-family="Helvetica,sans-Serif" font-size="10.00">Span::RelationshipSystem</text>
<text text-anchor="middle" x="540" y="-387.5" font-family="Helvetica,sans-Serif" font-size="10.00">::InsertBefore</text>
</a>
</g>
</g>
<!-- Node10&#45;&gt;Node12 -->
<g id="edge24_Node000010_Node000012" class="edge">
<title>Node10&#45;&gt;Node12</title>
<g id="a_edge24_Node000010_Node000012"><a xlink:title=" ">
<path fill="none" stroke="#63b8ff" d="M1053.25,-376.67C934.48,-381.04 722.75,-388.82 612.38,-392.88"/>
<polygon fill="#63b8ff" stroke="#63b8ff" points="1053.53,-380.16 1063.4,-376.3 1053.27,-373.17 1053.53,-380.16"/>
</a>
</g>
</g>
<!-- Node13 -->
<g id="Node000013" class="node">
<title>Node13</title>
<g id="a_Node000013"><a xlink:href="classSpan_1_1HierarchyPanel.html#af958ff25d0ba0576ae4848bbd01b2031" target="_top" xlink:title=" ">
<polygon fill="white" stroke="#666666" points="432,-391.5 312,-391.5 312,-361.5 432,-361.5 432,-391.5"/>
<text text-anchor="start" x="320" y="-379.5" font-family="Helvetica,sans-Serif" font-size="10.00">Span::HierarchyPanel</text>
<text text-anchor="middle" x="372" y="-368.5" font-family="Helvetica,sans-Serif" font-size="10.00">::HandleDragDrop</text>
</a>
</g>
</g>
<!-- Node10&#45;&gt;Node13 -->
<g id="edge23_Node000010_Node000013" class="edge">
<title>Node10&#45;&gt;Node13</title>
<g id="a_edge23_Node000010_Node000013"><a xlink:title=" ">
<path fill="none" stroke="#63b8ff" d="M1126.05,-391.18C1105.44,-416.66 1063.29,-462.6 1015,-480.5 789.76,-563.99 495.49,-436.88 402.49,-391.55"/>
<polygon fill="#63b8ff" stroke="#63b8ff" points="1128.98,-393.12 1132.42,-383.1 1123.48,-388.79 1128.98,-393.12"/>
</a>
</g>
</g>
<!-- Node14 -->
<g id="Node000014" class="node">
<title>Node14</title>
<g id="a_Node000014"><a xlink:href="classSpan_1_1HierarchyPanel.html#a2c08f8c6e0cafaed96f7846d76ff2b09" target="_top" xlink:title=" ">
<polygon fill="white" stroke="#666666" points="276,-268.5 156,-268.5 156,-238.5 276,-238.5 276,-268.5"/>
<text text-anchor="start" x="164" y="-256.5" font-family="Helvetica,sans-Serif" font-size="10.00">Span::HierarchyPanel</text>
<text text-anchor="middle" x="216" y="-245.5" font-family="Helvetica,sans-Serif" font-size="10.00">::DrawEntityNode</text>
</a>
</g>
</g>
<!-- Node10&#45;&gt;Node14 -->
<g id="edge22_Node000010_Node000014" class="edge">
<title>Node10&#45;&gt;Node14</title>
<g id="a_edge22_Node000010_Node000014"><a xlink:title=" ">
<path fill="none" stroke="#63b8ff" d="M1128.81,-391.94C1110.1,-422.27 1068.3,-481.94 1015,-508.5 898.08,-566.77 853.14,-537.5 722.5,-537.5 722.5,-537.5 722.5,-537.5 539,-537.5 375.01,-537.5 255.07,-327.76 224.58,-268.77"/>
<polygon fill="#63b8ff" stroke="#63b8ff" points="1131.91,-393.58 1134.05,-383.21 1125.9,-389.98 1131.91,-393.58"/>
</a>
</g>
</g>
<!-- Node15 -->
<g id="Node000015" class="node">
<title>Node15</title>
<g id="a_Node000015"><a xlink:href="classSpan_1_1RelationshipSystem.html#a22d8d93f263f586db5a1aa6de46711a0" target="_top" xlink:title=" ">
<polygon fill="white" stroke="#666666" points="793.5,-329.5 649.5,-329.5 649.5,-299.5 793.5,-299.5 793.5,-329.5"/>
<text text-anchor="start" x="657.5" y="-317.5" font-family="Helvetica,sans-Serif" font-size="10.00">Span::RelationshipSystem</text>
<text text-anchor="middle" x="721.5" y="-306.5" font-family="Helvetica,sans-Serif" font-size="10.00">::SetParent</text>
</a>
</g>
</g>
<!-- Node10&#45;&gt;Node15 -->
<g id="edge27_Node000010_Node000015" class="edge">
<title>Node10&#45;&gt;Node15</title>
<g id="a_edge27_Node000010_Node000015"><a xlink:title=" ">
<path fill="none" stroke="#63b8ff" d="M1109.69,-359.86C1084.91,-349.23 1048.43,-335.18 1015,-328.5 940.47,-313.6 853.24,-311.33 793.55,-312.02"/>
<polygon fill="#63b8ff" stroke="#63b8ff" points="1108.34,-363.09 1118.9,-363.89 1111.14,-356.67 1108.34,-363.09"/>
</a>
</g>
</g>
<!-- Node17 -->
<g id="Node000017" class="node">
<title>Node17</title>
<g id="a_Node000017"><a xlink:href="classSpan_1_1InspectorPanel.html#ae32fda6018a2e54f880e6708ac5b89fe" target="_top" xlink:title=" ">
<polygon fill="white" stroke="#666666" points="780.5,-210.5 662.5,-210.5 662.5,-180.5 780.5,-180.5 780.5,-210.5"/>
<text text-anchor="start" x="670.5" y="-198.5" font-family="Helvetica,sans-Serif" font-size="10.00">Span::InspectorPanel</text>
<text text-anchor="middle" x="721.5" y="-187.5" font-family="Helvetica,sans-Serif" font-size="10.00">::OnImGuiRender</text>
</a>
</g>
</g>
<!-- Node10&#45;&gt;Node17 -->
<g id="edge26_Node000010_Node000017" class="edge">
<title>Node10&#45;&gt;Node17</title>
<g id="a_edge26_Node000010_Node000017"><a xlink:title=" ">
<path fill="none" stroke="#63b8ff" d="M1113.67,-358.92C1088.78,-345.14 1049.87,-324.28 1015,-308.5 928.45,-269.34 823.99,-231.06 766.25,-210.66"/>
<polygon fill="#63b8ff" stroke="#63b8ff" points="1112.04,-362.02 1122.48,-363.83 1115.45,-355.91 1112.04,-362.02"/>
</a>
</g>
</g>
<!-- Node11&#45;&gt;Node12 -->
<g id="edge11_Node000011_Node000012" class="edge">
<title>Node11&#45;&gt;Node12</title>
<g id="a_edge11_Node000011_Node000012"><a xlink:title=" ">
<path fill="none" stroke="#63b8ff" d="M841.02,-360.54C786.44,-366.09 712.84,-373.83 648,-381.5 636.37,-382.88 624.04,-384.41 612.05,-385.95"/>
<polygon fill="#63b8ff" stroke="#63b8ff" points="841.39,-364.02 850.98,-359.53 840.68,-357.06 841.39,-364.02"/>
</a>
</g>
</g>
<!-- Node11&#45;&gt;Node15 -->
<g id="edge16_Node000011_Node000015" class="edge">
<title>Node11&#45;&gt;Node15</title>
<g id="a_edge16_Node000011_Node000015"><a xlink:title=" ">
<path fill="none" stroke="#63b8ff" d="M840.68,-337.01C825.1,-334.04 808.89,-330.95 793.65,-328.05"/>
<polygon fill="#63b8ff" stroke="#63b8ff" points="840.34,-340.51 850.82,-338.94 841.65,-333.63 840.34,-340.51"/>
</a>
</g>
</g>
<!-- Node12&#45;&gt;Node13 -->
<g id="edge12_Node000012_Node000013" class="edge">
<title>Node12&#45;&gt;Node13</title>
<g id="a_edge12_Node000012_Node000013"><a xlink:title=" ">
<path fill="none" stroke="#63b8ff" d="M457.57,-386.18C448.97,-385.2 440.35,-384.21 432.07,-383.26"/>
<polygon fill="#63b8ff" stroke="#63b8ff" points="457.3,-389.67 467.64,-387.33 458.1,-382.72 457.3,-389.67"/>
</a>
</g>
</g>
<!-- Node13&#45;&gt;Node14 -->
<g id="edge13_Node000013_Node000014" class="edge">
<title>Node13&#45;&gt;Node14</title>
<g id="a_edge13_Node000013_Node000014"><a xlink:title=" ">
<path fill="none" stroke="#63b8ff" d="M343.93,-354.88C312.99,-330.16 263.14,-290.35 236.04,-268.71"/>
<polygon fill="#63b8ff" stroke="#63b8ff" points="342.12,-357.91 352.12,-361.42 346.49,-352.44 342.12,-357.91"/>
</a>
</g>
</g>
<!-- Node14&#45;&gt;Node5 -->
<g id="edge15_Node000014_Node000005" class="edge">
<title>Node14&#45;&gt;Node5</title>
<g id="a_edge15_Node000014_Node000005"><a xlink:title=" ">
<path fill="none" stroke="#63b8ff" d="M184.58,-274.78C174.88,-282.31 164.47,-291.23 156,-300.5 117.6,-342.5 83.87,-401.48 69.03,-429.1"/>
<polygon fill="#63b8ff" stroke="#63b8ff" points="186.98,-277.35 192.86,-268.54 182.76,-271.76 186.98,-277.35"/>
</a>
</g>
</g>
<!-- Node14&#45;&gt;Node14 -->
<g id="edge14_Node000014_Node000014" class="edge">
<title>Node14&#45;&gt;Node14</title>
<g id="a_edge14_Node000014_Node000014"><a xlink:title=" ">
<path fill="none" stroke="#63b8ff" d="M243.31,-279.1C239.57,-283.47 230.47,-286.5 216,-286.5 191.62,-286.5 182.48,-277.91 188.58,-268.78"/>
<polygon fill="#63b8ff" stroke="#63b8ff" points="246.81,-278.81 243.42,-268.78 239.81,-278.74 246.81,-278.81"/>
</a>
</g>
</g>
<!-- Node15&#45;&gt;Node5 -->
<g id="edge21_Node000015_Node000005" class="edge">
<title>Node15&#45;&gt;Node5</title>
<g id="a_edge21_Node000015_Node000005"><a xlink:title=" ">
<path fill="none" stroke="#63b8ff" d="M639.16,-314.94C555.85,-317.05 423.17,-324.99 312,-352.5 232.03,-372.29 142.29,-408.86 94.77,-429.44"/>
<polygon fill="#63b8ff" stroke="#63b8ff" points="639.4,-318.44 649.32,-314.71 639.24,-311.44 639.4,-318.44"/>
</a>
</g>
</g>
<!-- Node15&#45;&gt;Node12 -->
<g id="edge20_Node000015_Node000012" class="edge">
<title>Node15&#45;&gt;Node12</title>
<g id="a_edge20_Node000015_Node000012"><a xlink:title=" ">
<path fill="none" stroke="#63b8ff" d="M669.62,-333.43C662.27,-336.58 654.87,-339.97 648,-343.5 631.11,-352.18 628.86,-357.76 612,-366.5 602.31,-371.52 591.54,-376.3 581.38,-380.48"/>
<polygon fill="#63b8ff" stroke="#63b8ff" points="670.98,-336.66 678.87,-329.59 668.3,-330.2 670.98,-336.66"/>
</a>
</g>
</g>
<!-- Node15&#45;&gt;Node13 -->
<g id="edge19_Node000015_Node000013" class="edge">
<title>Node15&#45;&gt;Node13</title>
<g id="a_edge19_Node000015_Node000013"><a xlink:title=" ">
<path fill="none" stroke="#63b8ff" d="M639.37,-328.98C575.94,-340.29 489.25,-355.76 432.23,-365.93"/>
<polygon fill="#63b8ff" stroke="#63b8ff" points="640.11,-332.4 649.34,-327.2 638.88,-325.51 640.11,-332.4"/>
</a>
</g>
</g>
<!-- Node16 -->
<g id="Node000016" class="node">
<title>Node16</title>
<g id="a_Node000016"><a xlink:href="classSpan_1_1HierarchyPanel.html#a331d846c46df5f3346cfc7bb8c7a8e76" target="_top" xlink:title=" ">
<polygon fill="white" stroke="#666666" points="600,-243.5 480,-243.5 480,-213.5 600,-213.5 600,-243.5"/>
<text text-anchor="start" x="488" y="-231.5" font-family="Helvetica,sans-Serif" font-size="10.00">Span::HierarchyPanel</text>
<text text-anchor="middle" x="540" y="-220.5" font-family="Helvetica,sans-Serif" font-size="10.00">::DrawContextMenu</text>
</a>
</g>
</g>
<!-- Node15&#45;&gt;Node16 -->
<g id="edge17_Node000015_Node000016" class="edge">
<title>Node15&#45;&gt;Node16</title>
<g id="a_edge17_Node000015_Node000016"><a xlink:title=" ">
<path fill="none" stroke="#63b8ff" d="M679.57,-294.89C647,-279.29 602.12,-257.78 572.36,-243.53"/>
<polygon fill="#63b8ff" stroke="#63b8ff" points="678.29,-298.16 688.82,-299.32 681.32,-291.85 678.29,-298.16"/>
</a>
</g>
</g>
<!-- Node16&#45;&gt;Node14 -->
<g id="edge18_Node000016_Node000014" class="edge">
<title>Node16&#45;&gt;Node14</title>
<g id="a_edge18_Node000016_Node000014"><a xlink:title=" ">
<path fill="none" stroke="#63b8ff" d="M469.82,-233.87C412.17,-238.35 330.92,-244.66 276.23,-248.9"/>
<polygon fill="#63b8ff" stroke="#63b8ff" points="470.24,-237.35 479.94,-233.09 469.7,-230.37 470.24,-237.35"/>
</a>
</g>
</g>
<!-- Node18&#45;&gt;Node3 -->
<g id="edge36_Node000018_Node000003" class="edge">
<title>Node18&#45;&gt;Node3</title>
<g id="a_edge36_Node000018_Node000003"><a xlink:title=" ">
<path fill="none" stroke="#63b8ff" d="M1127.5,-213.75C1108.96,-242.61 1073.18,-301.01 1051,-354.5 1028.69,-408.3 1039.31,-427.58 1015,-480.5 992.96,-528.48 955.59,-578.78 936.31,-603.28"/>
<polygon fill="#63b8ff" stroke="#63b8ff" points="1130.58,-215.44 1133.08,-205.15 1124.71,-211.63 1130.58,-215.44"/>
</a>
</g>
</g>
<!-- Node18&#45;&gt;Node14 -->
<g id="edge35_Node000018_Node000014" class="edge">
<title>Node18&#45;&gt;Node14</title>
<g id="a_edge35_Node000018_Node000014"><a xlink:title=" ">
<path fill="none" stroke="#63b8ff" d="M1098.87,-207.95C1024.81,-229.5 862.54,-271.5 722.5,-271.5 722.5,-271.5 722.5,-271.5 539,-271.5 447.18,-271.5 340.85,-264.11 276.29,-258.8"/>
<polygon fill="#63b8ff" stroke="#63b8ff" points="1100.12,-211.23 1108.73,-205.05 1098.14,-204.51 1100.12,-211.23"/>
</a>
</g>
</g>
<!-- Node18&#45;&gt;Node17 -->
<g id="edge37_Node000018_Node000017" class="edge">
<title>Node18&#45;&gt;Node17</title>
<g id="a_edge37_Node000018_Node000017"><a xlink:title=" ">
<path fill="none" stroke="#63b8ff" d="M1046.38,-195.5C965.06,-195.5 849.58,-195.5 780.73,-195.5"/>
<polygon fill="#63b8ff" stroke="#63b8ff" points="1046.62,-199 1056.62,-195.5 1046.62,-192 1046.62,-199"/>
</a>
</g>
</g>
<!-- Node19 -->
<g id="Node000019" class="node">
<title>Node19</title>
<g id="a_Node000019"><a xlink:href="classSpan_1_1World.html#a555e11829d3833ce35f444779c4c2369" target="_top" xlink:title="既存のEntityに新しいコンポーネントを追加します。">
<polygon fill="white" stroke="#666666" points="1000.5,-93 845.5,-93 845.5,-74 1000.5,-74 1000.5,-93"/>
<text text-anchor="middle" x="923" y="-81" font-family="Helvetica,sans-Serif" font-size="10.00">Span::World::AddComponent</text>
</a>
</g>
</g>
<!-- Node18&#45;&gt;Node19 -->
<g id="edge29_Node000018_Node000019" class="edge">
<title>Node18&#45;&gt;Node19</title>
<g id="a_edge29_Node000018_Node000019"><a xlink:title=" ">
<path fill="none" stroke="#63b8ff" d="M1061.99,-181.66C1058.1,-179.58 1054.4,-177.21 1051,-174.5 1022.71,-151.96 1043.71,-123.51 1015,-101.5 1010.65,-98.17 1005.86,-95.41 1000.81,-93.12"/>
<polygon fill="#63b8ff" stroke="#63b8ff" points="1060.81,-184.97 1071.36,-185.97 1063.74,-178.61 1060.81,-184.97"/>
</a>
</g>
</g>
<!-- Node20 -->
<g id="Node000020" class="node">
<title>Node20</title>
<g id="a_Node000020"><a xlink:href="classSpan_1_1TransformSystem.html#aa2cf376ecd2d44d89515eca90aea04e1" target="_top" xlink:title=" ">
<polygon fill="white" stroke="#666666" points="989,-453.5 857,-453.5 857,-423.5 989,-423.5 989,-453.5"/>
<text text-anchor="start" x="865" y="-441.5" font-family="Helvetica,sans-Serif" font-size="10.00">Span::TransformSystem</text>
<text text-anchor="middle" x="923" y="-430.5" font-family="Helvetica,sans-Serif" font-size="10.00">::ComputeWorldMatrix</text>
</a>
</g>
</g>
<!-- Node18&#45;&gt;Node20 -->
<g id="edge32_Node000018_Node000020" class="edge">
<title>Node18&#45;&gt;Node20</title>
<g id="a_edge32_Node000018_Node000020"><a xlink:title=" ">
<path fill="none" stroke="#63b8ff" d="M1129.79,-214.07C1111,-248.82 1066.91,-324.82 1015,-376.5 996.03,-395.38 970.6,-412.15 951.44,-423.48"/>
<polygon fill="#63b8ff" stroke="#63b8ff" points="1132.98,-215.52 1134.6,-205.05 1126.81,-212.23 1132.98,-215.52"/>
</a>
</g>
</g>
<!-- Node21 -->
<g id="Node000021" class="node">
<title>Node21</title>
<g id="a_Node000021"><a xlink:href="classSpan_1_1World.html#a5d815ca319bd1f2756394cc107818c46" target="_top" xlink:title="エンティティから指定したコンポーネントを削除します。">
<polygon fill="white" stroke="#666666" points="1011.5,-130 834.5,-130 834.5,-111 1011.5,-111 1011.5,-130"/>
<text text-anchor="middle" x="923" y="-118" font-family="Helvetica,sans-Serif" font-size="10.00">Span::World::RemoveComponent</text>
</a>
</g>
</g>
<!-- Node18&#45;&gt;Node21 -->
<g id="edge38_Node000018_Node000021" class="edge">
<title>Node18&#45;&gt;Node21</title>
<g id="a_edge38_Node000018_Node000021"><a xlink:title=" ">
<path fill="none" stroke="#63b8ff" d="M1069.66,-182.84C1063.16,-180.51 1056.84,-177.76 1051,-174.5 1031.24,-163.47 1034.96,-149.16 1015,-138.5 1008.61,-135.09 1001.65,-132.32 994.52,-130.07"/>
<polygon fill="#63b8ff" stroke="#63b8ff" points="1068.66,-186.2 1079.25,-185.96 1070.82,-179.54 1068.66,-186.2"/>
</a>
</g>
</g>
<!-- Node22 -->
<g id="Node000022" class="node">
<title>Node22</title>
<g id="a_Node000022"><a xlink:href="classSpan_1_1World.html#aac890f32963826b3c749dc47b5d21f9a" target="_top" xlink:title="コンポーネントの値を設定 (上書き) します。">
<polygon fill="white" stroke="#666666" points="999,-167 847,-167 847,-148 999,-148 999,-167"/>
<text text-anchor="middle" x="923" y="-155" font-family="Helvetica,sans-Serif" font-size="10.00">Span::World::SetComponent</text>
</a>
</g>
</g>
<!-- Node18&#45;&gt;Node22 -->
<g id="edge39_Node000018_Node000022" class="edge">
<title>Node18&#45;&gt;Node22</title>
<g id="a_edge39_Node000018_Node000022"><a xlink:title=" ">
<path fill="none" stroke="#63b8ff" d="M1075.15,-184.15C1044.23,-178.7 1007.59,-172.24 978.12,-167.04"/>
<polygon fill="#63b8ff" stroke="#63b8ff" points="1074.94,-187.67 1085.4,-185.96 1076.16,-180.78 1074.94,-187.67"/>
</a>
</g>
</g>
<!-- Node19&#45;&gt;Node14 -->
<g id="edge30_Node000019_Node000014" class="edge">
<title>Node19&#45;&gt;Node14</title>
<g id="a_edge30_Node000019_Node000014"><a xlink:title=" ">
<path fill="none" stroke="#63b8ff" d="M861.34,-95.08C851.19,-97.14 840.79,-99.32 831,-101.5 624.92,-147.36 382.09,-210.06 273.93,-238.45"/>
<polygon fill="#63b8ff" stroke="#63b8ff" points="862.25,-98.47 871.37,-93.07 860.88,-91.61 862.25,-98.47"/>
</a>
</g>
</g>
<!-- Node19&#45;&gt;Node17 -->
<g id="edge31_Node000019_Node000017" class="edge">
<title>Node19&#45;&gt;Node17</title>
<g id="a_edge31_Node000019_Node000017"><a xlink:title=" ">
<path fill="none" stroke="#63b8ff" d="M843.55,-96.23C839.23,-97.79 835.02,-99.54 831,-101.5 830.33,-101.83 770.26,-153.99 739.8,-180.46"/>
<polygon fill="#63b8ff" stroke="#63b8ff" points="844.72,-99.53 853.15,-93.12 842.56,-92.87 844.72,-99.53"/>
</a>
</g>
</g>
<!-- Node20&#45;&gt;Node8 -->
<g id="edge34_Node000020_Node000008" class="edge">
<title>Node20&#45;&gt;Node8</title>
<g id="a_edge34_Node000020_Node000008"><a xlink:title=" ">
<path fill="none" stroke="#63b8ff" d="M908.39,-462.34C879.08,-513.39 811.32,-629.66 795,-642.5 790.62,-645.94 785.73,-648.9 780.61,-651.45"/>
<polygon fill="#63b8ff" stroke="#63b8ff" points="911.46,-464.03 913.39,-453.61 905.38,-460.55 911.46,-464.03"/>
</a>
</g>
</g>
<!-- Node20&#45;&gt;Node20 -->
<g id="edge33_Node000020_Node000020" class="edge">
<title>Node20&#45;&gt;Node20</title>
<g id="a_edge33_Node000020_Node000020"><a xlink:title=" ">
<path fill="none" stroke="#63b8ff" d="M958.01,-464.1C953.22,-468.47 941.55,-471.5 923,-471.5 891.75,-471.5 880.03,-462.91 887.84,-453.78"/>
<polygon fill="#63b8ff" stroke="#63b8ff" points="961.51,-463.82 958.16,-453.78 954.51,-463.72 961.51,-463.82"/>
</a>
</g>
</g>
<!-- Node24 -->
<g id="Node000024" class="node">
<title>Node24</title>
<g id="a_Node000024"><a xlink:href="classSpan_1_1World.html#a3bda7c850e57241f9cfb3d5c67695aff" target="_top" xlink:title=" ">
<polygon fill="white" stroke="#666666" points="1015,-56 831,-56 831,-37 1015,-37 1015,-56"/>
<text text-anchor="middle" x="923" y="-44" font-family="Helvetica,sans-Serif" font-size="10.00">Span::World::InitializeComponents</text>
</a>
</g>
</g>
<!-- Node23&#45;&gt;Node24 -->
<g id="edge41_Node000023_Node000024" class="edge">
<title>Node23&#45;&gt;Node24</title>
<g id="a_edge41_Node000023_Node000024"><a xlink:title=" ">
<path fill="none" stroke="#63b8ff" d="M1062.02,-142.61C1058.13,-140.55 1054.42,-138.19 1051,-135.5 1023.21,-113.61 1043.2,-85.87 1015,-64.5 1010.64,-61.19 1005.83,-58.45 1000.76,-56.17"/>
<polygon fill="#63b8ff" stroke="#63b8ff" points="1060.86,-145.93 1071.41,-146.91 1063.77,-139.56 1060.86,-145.93"/>
</a>
</g>
</g>
<!-- Node25 -->
<g id="Node000025" class="node">
<title>Node25</title>
<g id="a_Node000025"><a xlink:href="classSpan_1_1World.html#a5e8a64b9e0f3715d21c43f92591e7d88" target="_top" xlink:title="指定されたコンポーネントを持つ新しいエンティティを作成します。">
<polygon fill="white" stroke="#666666" points="792,-56 651,-56 651,-37 792,-37 792,-56"/>
<text text-anchor="middle" x="721.5" y="-44" font-family="Helvetica,sans-Serif" font-size="10.00">Span::World::CreateEntity</text>
</a>
</g>
</g>
<!-- Node24&#45;&gt;Node25 -->
<g id="edge42_Node000024_Node000025" class="edge">
<title>Node24&#45;&gt;Node25</title>
<g id="a_edge42_Node000024_Node000025"><a xlink:title=" ">
<path fill="none" stroke="#63b8ff" d="M820.69,-46.5C811.07,-46.5 801.46,-46.5 792.24,-46.5"/>
<polygon fill="#63b8ff" stroke="#63b8ff" points="820.72,-50 830.72,-46.5 820.72,-43 820.72,-50"/>
</a>
</g>
</g>
<!-- Node26&#45;&gt;Node19 -->
<g id="edge44_Node000026_Node000019" class="edge">
<title>Node26&#45;&gt;Node19</title>
<g id="a_edge44_Node000026_Node000019"><a xlink:title=" ">
<path fill="none" stroke="#63b8ff" d="M1069.26,-106.42C1041.83,-102.09 1010.69,-97.18 984.3,-93.01"/>
<polygon fill="#63b8ff" stroke="#63b8ff" points="1068.76,-109.88 1079.18,-107.98 1069.85,-102.97 1068.76,-109.88"/>
</a>
</g>
</g>
<!-- Node26&#45;&gt;Node21 -->
<g id="edge45_Node000026_Node000021" class="edge">
<title>Node26&#45;&gt;Node21</title>
<g id="a_edge45_Node000026_Node000021"><a xlink:title=" ">
<path fill="none" stroke="#63b8ff" d="M1057.25,-118.64C1042.35,-118.85 1026.77,-119.07 1011.72,-119.28"/>
<polygon fill="#63b8ff" stroke="#63b8ff" points="1057.49,-122.14 1067.44,-118.5 1057.39,-115.14 1057.49,-122.14"/>
</a>
</g>
</g>
<!-- Node27&#45;&gt;Node26 -->
<g id="edge49_Node000027_Node000026" class="edge">
<title>Node27&#45;&gt;Node26</title>
<g id="a_edge49_Node000027_Node000026"><a xlink:title=" ">
<path fill="none" stroke="#63b8ff" d="M1255.58,-115.83C1241.5,-116.03 1227.12,-116.24 1213.52,-116.44"/>
<polygon fill="#63b8ff" stroke="#63b8ff" points="1255.82,-119.32 1265.76,-115.68 1255.71,-112.32 1255.82,-119.32"/>
</a>
</g>
</g>
<!-- Node28 -->
<g id="Node000028" class="node">
<title>Node28</title>
<g id="a_Node000028"><a xlink:href="classSpan_1_1World.html#a1f597fc6f7555036c746fac5e9ba9039" target="_top" xlink:title="エンティティを削除します。">
<polygon fill="white" stroke="#666666" points="795,-19 648,-19 648,0 795,0 795,-19"/>
<text text-anchor="middle" x="721.5" y="-7" font-family="Helvetica,sans-Serif" font-size="10.00">Span::World::DestroyEntity</text>
</a>
</g>
</g>
<!-- Node27&#45;&gt;Node28 -->
<g id="edge47_Node000027_Node000028" class="edge">
<title>Node27&#45;&gt;Node28</title>
<g id="a_edge47_Node000027_Node000028"><a xlink:title=" ">
<path fill="none" stroke="#63b8ff" d="M1307.57,-101.77C1246.4,-82.1 1122.81,-44.81 1015,-27.5 940.65,-15.56 854.51,-11.41 795.06,-10.03"/>
<polygon fill="#63b8ff" stroke="#63b8ff" points="1306.59,-105.13 1317.19,-104.88 1308.75,-98.47 1306.59,-105.13"/>
</a>
</g>
</g>
<!-- Node28&#45;&gt;Node16 -->
<g id="edge48_Node000028_Node000016" class="edge">
<title>Node28&#45;&gt;Node16</title>
<g id="a_edge48_Node000028_Node000016"><a xlink:title=" ">
<path fill="none" stroke="#63b8ff" d="M653.62,-23.63C651.67,-24.82 649.79,-26.11 648,-27.5 584.26,-77.23 554.07,-175.77 544.51,-213.41"/>
<polygon fill="#63b8ff" stroke="#63b8ff" points="655.29,-26.71 662.58,-19.02 652.09,-20.48 655.29,-26.71"/>
</a>
</g>
</g>
</g>
</svg>
