<?xml version="1.0" encoding="UTF-8" standalone="no"?>
<!DOCTYPE svg PUBLIC "-//W3C//DTD SVG 1.1//EN"
 "http://www.w3.org/Graphics/SVG/1.1/DTD/svg11.dtd">
<!-- Generated by graphviz version 2.43.0 (0)
 -->
<!-- Title: Span::AssetSerializer::LoadOrCreateMetadata Pages: 1 -->
<!--zoomable 778 -->

<svg id="main" version="1.1" xmlns="http://www.w3.org/2000/svg" xmlns:xlink="http://www.w3.org/1999/xlink" xml:space="preserve" onload="init(evt)">

<style type="text/css"><![CDATA[
.node, .edge {opacity: 0.7;}
.node.selected, .edge.selected {opacity: 1;}
.edge:hover path { stroke: red; }
.edge:hover polygon { stroke: red; fill: red; }
]]></style>

<defs>
  <circle id="rim" cx="0" cy="0" r="7"/>
  <circle id="rim2" cx="0" cy="0" r="3.5"/>
  <g id="zoomPlus">
    <use xlink:href="#rim" fill="#404040"><set attributeName="fill" to="#808080" begin="zoomplus.mouseover" end="zoomplus.mouseout"/></use>
    <path d="M-4,0h8M0,-4v8" fill="none" stroke="white" stroke-width="1.5" pointer-events="none"/>
  </g>
  <g id="zoomMin">
    <use xlink:href="#rim" fill="#404040"><set attributeName="fill" to="#808080" begin="zoomminus.mouseover" end="zoomminus.mouseout"/></use>
    <path d="M-4,0h8" fill="none" stroke="white" stroke-width="1.5" pointer-events="none"/>
  </g>
  <g id="arrowUp" transform="translate(30 24)">
    <use xlink:href="#rim"/>
    <path pointer-events="none" fill="none" stroke="white" stroke-width="1.5" d="M0,-3.0v7 M-2.5,-0.5L0,-3.0L2.5,-0.5"/>
  </g>
  <g id="arrowRight" transform="rotate(90) translate(36 -43)">
    <use xlink:href="#rim"/>
    <path pointer-events="none" fill="none" stroke="white" stroke-width="1.5" d="M0,-3.0v7 M-2.5,-0.5L0,-3.0L2.5,-0.5"/>
  </g>
  <g id="arrowDown" transform="rotate(180) translate(-30 -48)">
    <use xlink:href="#rim"/>
    <path pointer-events="none" fill="none" stroke="white" stroke-width="1.5" d="M0,-3.0v7 M-2.5,-0.5L0,-3.0L2.5,-0.5"/>
  </g>
  <g id="arrowLeft" transform="rotate(270) translate(-36 17)">
    <use xlink:href="#rim"/>
    <path pointer-events="none" fill="none" stroke="white" stroke-width="1.5" d="M0,-3.0v7 M-2.5,-0.5L0,-3.0L2.5,-0.5"/>
  </g>
  <g id="resetDef">
    <use xlink:href="#rim2" fill="#404040"><set attributeName="fill" to="#808080" begin="reset.mouseover" end="reset.mouseout"/></use>
  </g>
</defs>
<script type="application/ecmascript">
var viewWidth = 1460;
var viewHeight = 778;
var sectionId = 'dynsection-3';
</script>
<script type="application/ecmascript" xlink:href="svg.min.js"/>
<svg id="graph" class="graph">
<g id="viewport">
<title>Span::AssetSerializer::LoadOrCreateMetadata</title>
<!-- Node1 -->
<g id="Node000001" class="node">
<title>Node1</title>
<g id="a_Node000001"><a xlink:title="指定したアセットのメタデータを取得します。 .metaファイルが存在しない場合は、新規にGUIDを生成して作成します。">
<polygon fill="#999999" stroke="#666666" points="1452,-104 1316,-104 1316,-74 1452,-74 1452,-104"/>
<text text-anchor="start" x="1324" y="-92" font-family="Helvetica,sans-Serif" font-size="10.00">Span::AssetSerializer</text>
<text text-anchor="middle" x="1384" y="-81" font-family="Helvetica,sans-Serif" font-size="10.00">::LoadOrCreateMetadata</text>
</a>
</g>
</g>
<!-- Node2 -->
<g id="Node000002" class="node">
<title>Node2</title>
<g id="a_Node000002"><a xlink:href="classSpan_1_1AssetManager.html#a6d21e48b9d53035bbd83c5ae91ec083b" target="_top" xlink:title="パスでマテリアルを取得 (キャッシュ対応)。">
<polygon fill="white" stroke="#666666" points="1130,-174 1014,-174 1014,-144 1130,-144 1130,-174"/>
<text text-anchor="start" x="1022" y="-162" font-family="Helvetica,sans-Serif" font-size="10.00">Span::AssetManager</text>
<text text-anchor="middle" x="1072" y="-151" font-family="Helvetica,sans-Serif" font-size="10.00">::GetMaterial</text>
</a>
</g>
</g>
<!-- Node1&#45;&gt;Node2 -->
<g id="edge1_Node000001_Node000002" class="edge">
<title>Node1&#45;&gt;Node2</title>
<g id="a_edge1_Node000001_Node000002"><a xlink:title=" ">
<path fill="none" stroke="#63b8ff" d="M1315.31,-106.47C1303.56,-109.4 1291.44,-112.34 1280,-115 1229.54,-126.73 1171.87,-138.88 1130.24,-147.44"/>
<polygon fill="#63b8ff" stroke="#63b8ff" points="1316.23,-109.85 1325.08,-104.03 1314.53,-103.06 1316.23,-109.85"/>
</a>
</g>
</g>
<!-- Node3 -->
<g id="Node000003" class="node">
<title>Node3</title>
<g id="a_Node000003"><a xlink:href="classSpan_1_1AssetManager.html#ade6d0e8b7b3467e28cfd5af72896c89b" target="_top" xlink:title="メッシュデータを取得します (キャッシュ対応)。">
<polygon fill="white" stroke="#666666" points="1130,-126 1014,-126 1014,-96 1130,-96 1130,-126"/>
<text text-anchor="start" x="1022" y="-114" font-family="Helvetica,sans-Serif" font-size="10.00">Span::AssetManager</text>
<text text-anchor="middle" x="1072" y="-103" font-family="Helvetica,sans-Serif" font-size="10.00">::GetMesh</text>
</a>
</g>
</g>
<!-- Node1&#45;&gt;Node3 -->
<g id="edge2_Node000001_Node000003" class="edge">
<title>Node1&#45;&gt;Node3</title>
<g id="a_edge2_Node000001_Node000003"><a xlink:title=" ">
<path fill="none" stroke="#63b8ff" d="M1305.44,-94.5C1251.04,-98.36 1179.52,-103.44 1130.25,-106.94"/>
<polygon fill="#63b8ff" stroke="#63b8ff" points="1306.01,-97.97 1315.73,-93.77 1305.51,-90.99 1306.01,-97.97"/>
</a>
</g>
</g>
<!-- Node4 -->
<g id="Node000004" class="node">
<title>Node4</title>
<g id="a_Node000004"><a xlink:href="classSpan_1_1AssetManager.html#a93b56de9af3fadbc0ff27f1e21e44291" target="_top" xlink:title="テクスチャを取得します (キャッシュにあればそれを返し、無ければロードします)。">
<polygon fill="white" stroke="#666666" points="1130,-30 1014,-30 1014,0 1130,0 1130,-30"/>
<text text-anchor="start" x="1022" y="-18" font-family="Helvetica,sans-Serif" font-size="10.00">Span::AssetManager</text>
<text text-anchor="middle" x="1072" y="-7" font-family="Helvetica,sans-Serif" font-size="10.00">::GetTexture</text>
</a>
</g>
</g>
<!-- Node1&#45;&gt;Node4 -->
<g id="edge3_Node000001_Node000004" class="edge">
<title>Node1&#45;&gt;Node4</title>
<g id="a_edge3_Node000001_Node000004"><a xlink:title=" ">
<path fill="none" stroke="#63b8ff" d="M1344.82,-69.34C1325.79,-60.32 1302.17,-50.27 1280,-44 1230.41,-29.98 1172.15,-22.59 1130.09,-18.79"/>
<polygon fill="#63b8ff" stroke="#63b8ff" points="1343.51,-72.6 1354.04,-73.8 1346.56,-66.3 1343.51,-72.6"/>
</a>
</g>
</g>
<!-- Node5 -->
<g id="Node000005" class="node">
<title>Node5</title>
<g id="a_Node000005"><a xlink:href="classSpan_1_1AssetRegistry.html#a432dbe6ae1b0ab930bd903d93ad5a734" target="_top" xlink:title="パスからアセット情報を登録・更新します (ファイル移動/作成時用)。">
<polygon fill="white" stroke="#666666" points="1280,-83 1166,-83 1166,-53 1280,-53 1280,-83"/>
<text text-anchor="start" x="1174" y="-71" font-family="Helvetica,sans-Serif" font-size="10.00">Span::AssetRegistry</text>
<text text-anchor="middle" x="1223" y="-60" font-family="Helvetica,sans-Serif" font-size="10.00">::RegisterAsset</text>
</a>
</g>
</g>
<!-- Node1&#45;&gt;Node5 -->
<g id="edge4_Node000001_Node000005" class="edge">
<title>Node1&#45;&gt;Node5</title>
<g id="a_edge4_Node000001_Node000005"><a xlink:title=" ">
<path fill="none" stroke="#63b8ff" d="M1305.51,-78.77C1296.91,-77.63 1288.27,-76.49 1280.01,-75.4"/>
<polygon fill="#63b8ff" stroke="#63b8ff" points="1305.2,-82.25 1315.57,-80.09 1306.11,-75.31 1305.2,-82.25"/>
</a>
</g>
</g>
<!-- Node5&#45;&gt;Node2 -->
<g id="edge5_Node000005_Node000002" class="edge">
<title>Node5&#45;&gt;Node2</title>
<g id="a_edge5_Node000005_Node000002"><a xlink:title=" ">
<path fill="none" stroke="#63b8ff" d="M1195.65,-89.72C1177.82,-103.76 1153.36,-121.81 1130,-135 1124.39,-138.17 1118.28,-141.17 1112.21,-143.91"/>
<polygon fill="#63b8ff" stroke="#63b8ff" points="1198.2,-92.16 1203.83,-83.19 1193.83,-86.69 1198.2,-92.16"/>
</a>
</g>
</g>
<!-- Node5&#45;&gt;Node3 -->
<g id="edge6_Node000005_Node000003" class="edge">
<title>Node5&#45;&gt;Node3</title>
<g id="a_edge6_Node000005_Node000003"><a xlink:title=" ">
<path fill="none" stroke="#63b8ff" d="M1160.21,-85.83C1148.53,-89.2 1136.42,-92.7 1125.08,-95.97"/>
<polygon fill="#63b8ff" stroke="#63b8ff" points="1161.25,-89.17 1169.89,-83.04 1159.31,-82.45 1161.25,-89.17"/>
</a>
</g>
</g>
<!-- Node5&#45;&gt;Node4 -->
<g id="edge7_Node000005_Node000004" class="edge">
<title>Node5&#45;&gt;Node4</title>
<g id="a_edge7_Node000005_Node000004"><a xlink:title=" ">
<path fill="none" stroke="#63b8ff" d="M1170.01,-49.51C1152.16,-43.16 1132.4,-36.13 1115.4,-30.08"/>
<polygon fill="#63b8ff" stroke="#63b8ff" points="1169.11,-52.9 1179.7,-52.95 1171.45,-46.31 1169.11,-52.9"/>
</a>
</g>
</g>
<!-- Node6 -->
<g id="Node000006" class="node">
<title>Node6</title>
<g id="a_Node000006"><a xlink:href="classSpan_1_1AssetRegistry.html#a71c0e006b41117cb0b296adaf0de1c56" target="_top" xlink:title="指定ディレクトリ以下の全アセットをスキャンし、レジストリを構築します。">
<polygon fill="white" stroke="#666666" points="1129,-78 1015,-78 1015,-48 1129,-48 1129,-78"/>
<text text-anchor="start" x="1023" y="-66" font-family="Helvetica,sans-Serif" font-size="10.00">Span::AssetRegistry</text>
<text text-anchor="middle" x="1072" y="-55" font-family="Helvetica,sans-Serif" font-size="10.00">::Refresh</text>
</a>
</g>
</g>
<!-- Node5&#45;&gt;Node6 -->
<g id="edge8_Node000005_Node000006" class="edge">
<title>Node5&#45;&gt;Node6</title>
<g id="a_edge8_Node000005_Node000006"><a xlink:title=" ">
<path fill="none" stroke="#63b8ff" d="M1155.53,-65.77C1146.81,-65.48 1137.94,-65.18 1129.41,-64.89"/>
<polygon fill="#63b8ff" stroke="#63b8ff" points="1155.56,-69.27 1165.67,-66.11 1155.79,-62.28 1155.56,-69.27"/>
</a>
</g>
</g>
<!-- Node7 -->
<g id="Node000007" class="node">
<title>Node7</title>
<g id="a_Node000007"><a xlink:href="classSpan_1_1AssetManager.html#a69ad0e84f0e86f10a14693275d0872f2" target="_top" xlink:title="マネージャーを初期化します。">
<polygon fill="white" stroke="#666666" points="978,-78 862,-78 862,-48 978,-48 978,-78"/>
<text text-anchor="start" x="870" y="-66" font-family="Helvetica,sans-Serif" font-size="10.00">Span::AssetManager</text>
<text text-anchor="middle" x="920" y="-55" font-family="Helvetica,sans-Serif" font-size="10.00">::Initialize</text>
</a>
</g>
</g>
<!-- Node6&#45;&gt;Node7 -->
<g id="edge9_Node000006_Node000007" class="edge">
<title>Node6&#45;&gt;Node7</title>
<g id="a_edge9_Node000006_Node000007"><a xlink:title=" ">
<path fill="none" stroke="#63b8ff" d="M1004.49,-63C995.68,-63 986.72,-63 978.1,-63"/>
<polygon fill="#63b8ff" stroke="#63b8ff" points="1004.72,-66.5 1014.72,-63 1004.72,-59.5 1004.72,-66.5"/>
</a>
</g>
</g>
<!-- Node8 -->
<g id="Node000008" class="node">
<title>Node8</title>
<g id="a_Node000008"><a xlink:href="classSpan_1_1Application.html#a0c44e973ca5db1d23a02a2cee66f5c11" target="_top" xlink:title=" ">
<polygon fill="white" stroke="#666666" points="826,-78 719,-78 719,-48 826,-48 826,-78"/>
<text text-anchor="start" x="727" y="-66" font-family="Helvetica,sans-Serif" font-size="10.00">Span::Application::</text>
<text text-anchor="middle" x="772.5" y="-55" font-family="Helvetica,sans-Serif" font-size="10.00">Application</text>
</a>
</g>
</g>
<!-- Node7&#45;&gt;Node8 -->
<g id="edge10_Node000007_Node000008" class="edge">
<title>Node7&#45;&gt;Node8</title>
<g id="a_edge10_Node000007_Node000008"><a xlink:title=" ">
<path fill="none" stroke="#63b8ff" d="M851.86,-63C843.24,-63 834.5,-63 826.15,-63"/>
<polygon fill="#63b8ff" stroke="#63b8ff" points="851.91,-66.5 861.91,-63 851.91,-59.5 851.91,-66.5"/>
</a>
</g>
</g>
<!-- Node9 -->
<g id="Node000009" class="node">
<title>Node9</title>
<g id="a_Node000009"><a xlink:href="classSpan_1_1Application.html#ae2e9eaebe90ffdf55cfef9d74ccbce3e" target="_top" xlink:title="シングルトンインスタンスの取得">
<polygon fill="white" stroke="#666666" points="683,-393.5 558,-393.5 558,-374.5 683,-374.5 683,-393.5"/>
<text text-anchor="middle" x="620.5" y="-381.5" font-family="Helvetica,sans-Serif" font-size="10.00">Span::Application::Get</text>
</a>
</g>
</g>
<!-- Node8&#45;&gt;Node9 -->
<g id="edge11_Node000008_Node000009" class="edge">
<title>Node8&#45;&gt;Node9</title>
<g id="a_edge11_Node000008_Node000009"><a xlink:title=" ">
<path fill="none" stroke="#63b8ff" d="M760.19,-87.2C729.62,-152.62 646.27,-330.99 625.99,-374.39"/>
<polygon fill="#63b8ff" stroke="#63b8ff" points="763.4,-88.59 764.47,-78.05 757.06,-85.63 763.4,-88.59"/>
</a>
</g>
</g>
<!-- Node29 -->
<g id="Node000029" class="node">
<title>Node29</title>
<g id="a_Node000029"><a xlink:href="classSpan_1_1Application.html#a095598d0c2e753bfb8d00acee435980f" target="_top" xlink:title="シングルトンインスタンスのポインタ取得 (存在チェック用)">
<polygon fill="white" stroke="#666666" points="681,-34.5 560,-34.5 560,-15.5 681,-15.5 681,-34.5"/>
<text text-anchor="middle" x="620.5" y="-22.5" font-family="Helvetica,sans-Serif" font-size="10.00">Span::Application::Ptr</text>
</a>
</g>
</g>
<!-- Node8&#45;&gt;Node29 -->
<g id="edge41_Node000008_Node000029" class="edge">
<title>Node8&#45;&gt;Node29</title>
<g id="a_edge41_Node000008_Node000029"><a xlink:title=" ">
<path fill="none" stroke="#63b8ff" d="M708.83,-47.12C692,-42.86 674.33,-38.38 659.31,-34.58"/>
<polygon fill="#63b8ff" stroke="#63b8ff" points="708.06,-50.54 718.62,-49.6 709.78,-43.75 708.06,-50.54"/>
</a>
</g>
</g>
<!-- Node10 -->
<g id="Node000010" class="node">
<title>Node10</title>
<g id="a_Node000010"><a xlink:href="classSpan_1_1HierarchyPanel.html#a331d846c46df5f3346cfc7bb8c7a8e76" target="_top" xlink:title="エンティティ上での右クリックメニューを描画します。">
<polygon fill="white" stroke="#666666" points="507,-502 387,-502 387,-472 507,-472 507,-502"/>
<text text-anchor="start" x="395" y="-490" font-family="Helvetica,sans-Serif" font-size="10.00">Span::HierarchyPanel</text>
<text text-anchor="middle" x="447" y="-479" font-family="Helvetica,sans-Serif" font-size="10.00">::DrawContextMenu</text>
</a>
</g>
</g>
<!-- Node9&#45;&gt;Node10 -->
<g id="edge12_Node000009_Node000010" class="edge">
<title>Node9&#45;&gt;Node10</title>
<g id="a_edge12_Node000009_Node000010"><a xlink:title=" ">
<path fill="none" stroke="#63b8ff" d="M601.26,-400.31C582.43,-416.53 551.7,-441.33 522,-458 512.73,-463.2 502.35,-467.89 492.35,-471.92"/>
<polygon fill="#63b8ff" stroke="#63b8ff" points="603.56,-402.94 608.79,-393.73 598.96,-397.67 603.56,-402.94"/>
</a>
</g>
</g>
<!-- Node11 -->
<g id="Node000011" class="node">
<title>Node11</title>
<g id="a_Node000011"><a xlink:href="classSpan_1_1HierarchyPanel.html#a2c08f8c6e0cafaed96f7846d76ff2b09" target="_top" xlink:title="1つのエンティティとその子孫を再帰的に描画します。">
<polygon fill="white" stroke="#666666" points="309,-545 189,-545 189,-515 309,-515 309,-545"/>
<text text-anchor="start" x="197" y="-533" font-family="Helvetica,sans-Serif" font-size="10.00">Span::HierarchyPanel</text>
<text text-anchor="middle" x="249" y="-522" font-family="Helvetica,sans-Serif" font-size="10.00">::DrawEntityNode</text>
</a>
</g>
</g>
<!-- Node9&#45;&gt;Node11 -->
<g id="edge18_Node000009_Node000011" class="edge">
<title>Node9&#45;&gt;Node11</title>
<g id="a_edge18_Node000009_Node000011"><a xlink:title=" ">
<path fill="none" stroke="#63b8ff" d="M611.27,-403C597.54,-432.1 566.93,-486.87 522,-511 455.69,-546.61 366.83,-545.32 309,-539.22"/>
<polygon fill="#63b8ff" stroke="#63b8ff" points="614.62,-404.09 615.57,-393.54 608.25,-401.2 614.62,-404.09"/>
</a>
</g>
</g>
<!-- Node12 -->
<g id="Node000012" class="node">
<title>Node12</title>
<g id="a_Node000012"><a xlink:href="classSpan_1_1HierarchyPanel.html#a6481eb57cd9f45cb3a094a26f35bbaa0" target="_top" xlink:title="毎フレーム呼ばれる描画関数。">
<polygon fill="white" stroke="#666666" points="123,-545 3,-545 3,-515 123,-515 123,-545"/>
<text text-anchor="start" x="11" y="-533" font-family="Helvetica,sans-Serif" font-size="10.00">Span::HierarchyPanel</text>
<text text-anchor="middle" x="63" y="-522" font-family="Helvetica,sans-Serif" font-size="10.00">::OnImGuiRender</text>
</a>
</g>
</g>
<!-- Node9&#45;&gt;Node12 -->
<g id="edge30_Node000009_Node000012" class="edge">
<title>Node9&#45;&gt;Node12</title>
<g id="a_edge30_Node000009_Node000012"><a xlink:title=" ">
<path fill="none" stroke="#63b8ff" d="M617.42,-403.45C611.57,-447.2 590.63,-552.94 522,-597 380.67,-687.74 164.84,-585.66 90.35,-545.12"/>
<polygon fill="#63b8ff" stroke="#63b8ff" points="620.89,-403.87 618.62,-393.52 613.94,-403.03 620.89,-403.87"/>
</a>
</g>
</g>
<!-- Node13 -->
<g id="Node000013" class="node">
<title>Node13</title>
<g id="a_Node000013"><a xlink:href="classSpan_1_1HierarchyPanel.html#a04888145be2266ef8385e234b79ec53a" target="_top" xlink:title="何もない場所での右クリックメニュー (新規作成など) を描画します。">
<polygon fill="white" stroke="#666666" points="336,-478 162,-478 162,-448 336,-448 336,-478"/>
<text text-anchor="start" x="170" y="-466" font-family="Helvetica,sans-Serif" font-size="10.00">Span::HierarchyPanel</text>
<text text-anchor="middle" x="249" y="-455" font-family="Helvetica,sans-Serif" font-size="10.00">::DrawEmptySpaceContextMenu</text>
</a>
</g>
</g>
<!-- Node9&#45;&gt;Node13 -->
<g id="edge16_Node000009_Node000013" class="edge">
<title>Node9&#45;&gt;Node13</title>
<g id="a_edge16_Node000009_Node000013"><a xlink:title=" ">
<path fill="none" stroke="#63b8ff" d="M564.9,-395.67C499.97,-409.56 391.46,-432.76 320.31,-447.97"/>
<polygon fill="#63b8ff" stroke="#63b8ff" points="565.88,-399.04 574.93,-393.53 564.42,-392.2 565.88,-399.04"/>
</a>
</g>
</g>
<!-- Node14 -->
<g id="Node000014" class="node">
<title>Node14</title>
<g id="a_Node000014"><a xlink:href="classSpan_1_1SceneViewPanel.html#ad83a4a55f083c75371d0873322808796" target="_top" xlink:title="選択中のオブジェクトに対してマニピュレータ (矢印など) を描画します。">
<polygon fill="white" stroke="#666666" points="510,-378 384,-378 384,-348 510,-348 510,-378"/>
<text text-anchor="start" x="392" y="-366" font-family="Helvetica,sans-Serif" font-size="10.00">Span::SceneViewPanel</text>
<text text-anchor="middle" x="447" y="-355" font-family="Helvetica,sans-Serif" font-size="10.00">::DrawGizmo</text>
</a>
</g>
</g>
<!-- Node9&#45;&gt;Node14 -->
<g id="edge19_Node000009_Node000014" class="edge">
<title>Node9&#45;&gt;Node14</title>
<g id="a_edge19_Node000009_Node000014"><a xlink:title=" ">
<path fill="none" stroke="#63b8ff" d="M547.31,-375.16C534.94,-373.65 522.19,-372.08 510.11,-370.61"/>
<polygon fill="#63b8ff" stroke="#63b8ff" points="547.23,-378.68 557.58,-376.42 548.08,-371.73 547.23,-378.68"/>
</a>
</g>
</g>
<!-- Node15 -->
<g id="Node000015" class="node">
<title>Node15</title>
<g id="a_Node000015"><a xlink:href="classSpan_1_1SceneViewPanel.html#aab2935de58bd68267a680cabd3656c9f" target="_top" xlink:title="毎フレームの描画処理。 画像の表示、ツールバーのオーバーレイ、ギズモの描画を行います。">
<polygon fill="white" stroke="#666666" points="312,-378 186,-378 186,-348 312,-348 312,-378"/>
<text text-anchor="start" x="194" y="-366" font-family="Helvetica,sans-Serif" font-size="10.00">Span::SceneViewPanel</text>
<text text-anchor="middle" x="249" y="-355" font-family="Helvetica,sans-Serif" font-size="10.00">::OnImGuiRender</text>
</a>
</g>
</g>
<!-- Node9&#45;&gt;Node15 -->
<g id="edge32_Node000009_Node000015" class="edge">
<title>Node9&#45;&gt;Node15</title>
<g id="a_edge32_Node000009_Node000015"><a xlink:title=" ">
<path fill="none" stroke="#63b8ff" d="M547.75,-386.46C539.07,-386.68 530.34,-386.87 522,-387 455.34,-388.03 438.35,-393.46 372,-387 352.34,-385.08 331.15,-381.47 312.03,-377.62"/>
<polygon fill="#63b8ff" stroke="#63b8ff" points="547.97,-389.95 557.87,-386.18 547.78,-382.96 547.97,-389.95"/>
</a>
</g>
</g>
<!-- Node16 -->
<g id="Node000016" class="node">
<title>Node16</title>
<g id="a_Node000016"><a xlink:href="classSpan_1_1InspectorPanel.html#acbecd010da050d28a48148287775259a" target="_top" xlink:title="マテリアルアセット用のプロパティエディタを描画します。">
<polygon fill="white" stroke="#666666" points="506,-282 388,-282 388,-252 506,-252 506,-282"/>
<text text-anchor="start" x="396" y="-270" font-family="Helvetica,sans-Serif" font-size="10.00">Span::InspectorPanel</text>
<text text-anchor="middle" x="447" y="-259" font-family="Helvetica,sans-Serif" font-size="10.00">::DrawMaterialEditor</text>
</a>
</g>
</g>
<!-- Node9&#45;&gt;Node16 -->
<g id="edge21_Node000009_Node000016" class="edge">
<title>Node9&#45;&gt;Node16</title>
<g id="a_edge21_Node000009_Node000016"><a xlink:title=" ">
<path fill="none" stroke="#63b8ff" d="M605.6,-366.65C588.13,-345.9 556.26,-311.43 522,-291 516.32,-287.61 510.1,-284.64 503.76,-282.05"/>
<polygon fill="#63b8ff" stroke="#63b8ff" points="602.91,-368.88 611.97,-374.37 608.31,-364.43 602.91,-368.88"/>
</a>
</g>
</g>
<!-- Node18 -->
<g id="Node000018" class="node">
<title>Node18</title>
<g id="a_Node000018"><a xlink:href="classSpan_1_1InspectorPanel.html#ae32fda6018a2e54f880e6708ac5b89fe" target="_top" xlink:title="毎フレーム呼ばれる描画関数。">
<polygon fill="white" stroke="#666666" points="122,-261 4,-261 4,-231 122,-231 122,-261"/>
<text text-anchor="start" x="12" y="-249" font-family="Helvetica,sans-Serif" font-size="10.00">Span::InspectorPanel</text>
<text text-anchor="middle" x="63" y="-238" font-family="Helvetica,sans-Serif" font-size="10.00">::OnImGuiRender</text>
</a>
</g>
</g>
<!-- Node9&#45;&gt;Node18 -->
<g id="edge31_Node000009_Node000018" class="edge">
<title>Node9&#45;&gt;Node18</title>
<g id="a_edge31_Node000009_Node000018"><a xlink:title=" ">
<path fill="none" stroke="#63b8ff" d="M612.96,-364.82C600.84,-332.69 571.49,-268.95 522,-243 454.22,-207.46 229.41,-227.07 122.05,-238.98"/>
<polygon fill="#63b8ff" stroke="#63b8ff" points="609.73,-366.19 616.42,-374.41 616.32,-363.81 609.73,-366.19"/>
</a>
</g>
</g>
<!-- Node19 -->
<g id="Node000019" class="node">
<title>Node19</title>
<g id="a_Node000019"><a xlink:href="classSpan_1_1GuiManager.html#a66e894c749b02f869c0851b41fd23fec" target="_top" xlink:title="ImGuiの描画コマンドを発行し、フレームを終了します。">
<polygon fill="white" stroke="#666666" points="329.5,-157.5 168.5,-157.5 168.5,-138.5 329.5,-138.5 329.5,-157.5"/>
<text text-anchor="middle" x="249" y="-145.5" font-family="Helvetica,sans-Serif" font-size="10.00">Span::GuiManager::EndFrame</text>
</a>
</g>
</g>
<!-- Node9&#45;&gt;Node19 -->
<g id="edge24_Node000009_Node000019" class="edge">
<title>Node9&#45;&gt;Node19</title>
<g id="a_edge24_Node000009_Node000019"><a xlink:title=" ">
<path fill="none" stroke="#63b8ff" d="M614.27,-364.35C603.5,-327.88 575.28,-249.84 522,-210 504.47,-196.89 376.1,-171.39 302.15,-157.52"/>
<polygon fill="#63b8ff" stroke="#63b8ff" points="610.98,-365.57 617.06,-374.24 617.71,-363.67 610.98,-365.57"/>
</a>
</g>
</g>
<!-- Node21 -->
<g id="Node000021" class="node">
<title>Node21</title>
<g id="a_Node000021"><a xlink:href="classSpan_1_1HierarchyPanel.html#af958ff25d0ba0576ae4848bbd01b2031" target="_top" xlink:title="ドラッグ&amp;ドロップの受け入れ処理 (親子付け替え・並び替え)。">
<polygon fill="white" stroke="#666666" points="507,-588 387,-588 387,-558 507,-558 507,-588"/>
<text text-anchor="start" x="395" y="-576" font-family="Helvetica,sans-Serif" font-size="10.00">Span::HierarchyPanel</text>
<text text-anchor="middle" x="447" y="-565" font-family="Helvetica,sans-Serif" font-size="10.00">::HandleDragDrop</text>
</a>
</g>
</g>
<!-- Node9&#45;&gt;Node21 -->
<g id="edge26_Node000009_Node000021" class="edge">
<title>Node9&#45;&gt;Node21</title>
<g id="a_edge26_Node000009_Node000021"><a xlink:title=" ">
<path fill="none" stroke="#63b8ff" d="M612.55,-403.23C599.65,-436.39 568.98,-504.55 522,-544 515.34,-549.59 507.48,-554.19 499.41,-557.94"/>
<polygon fill="#63b8ff" stroke="#63b8ff" points="615.86,-404.37 616.11,-393.78 609.31,-401.9 615.86,-404.37"/>
</a>
</g>
</g>
<!-- Node22 -->
<g id="Node000022" class="node">
<title>Node22</title>
<g id="a_Node000022"><a xlink:href="classSpan_1_1SceneViewPanel.html#afebf890816b85f92e9ed73de887b2354" target="_top" xlink:title="外部またはブラウザからドロップされたファイルを処理します。">
<polygon fill="white" stroke="#666666" points="510,-330 384,-330 384,-300 510,-300 510,-330"/>
<text text-anchor="start" x="392" y="-318" font-family="Helvetica,sans-Serif" font-size="10.00">Span::SceneViewPanel</text>
<text text-anchor="middle" x="447" y="-307" font-family="Helvetica,sans-Serif" font-size="10.00">::OnAssetDropped</text>
</a>
</g>
</g>
<!-- Node9&#45;&gt;Node22 -->
<g id="edge28_Node000009_Node000022" class="edge">
<title>Node9&#45;&gt;Node22</title>
<g id="a_edge28_Node000009_Node000022"><a xlink:title=" ">
<path fill="none" stroke="#63b8ff" d="M591.25,-369.88C571.99,-360.52 545.76,-348.3 522,-339 514.08,-335.9 505.57,-332.87 497.25,-330.07"/>
<polygon fill="#63b8ff" stroke="#63b8ff" points="589.85,-373.09 600.37,-374.35 592.93,-366.8 589.85,-373.09"/>
</a>
</g>
</g>
<!-- Node23 -->
<g id="Node000023" class="node">
<title>Node23</title>
<g id="a_Node000023"><a xlink:href="classSpan_1_1CameraSystem.html#a7f4bf0245dedd7a6245ef352246f7391" target="_top" xlink:title="毎フレーム呼び出されます。ここにゲームロジックを記述します。">
<polygon fill="white" stroke="#666666" points="508,-83 386,-83 386,-53 508,-53 508,-83"/>
<text text-anchor="start" x="394" y="-71" font-family="Helvetica,sans-Serif" font-size="10.00">Span::CameraSystem</text>
<text text-anchor="middle" x="447" y="-60" font-family="Helvetica,sans-Serif" font-size="10.00">::OnUpdate</text>
</a>
</g>
</g>
<!-- Node9&#45;&gt;Node23 -->
<g id="edge33_Node000009_Node000023" class="edge">
<title>Node9&#45;&gt;Node23</title>
<g id="a_edge33_Node000009_Node000023"><a xlink:title=" ">
<path fill="none" stroke="#63b8ff" d="M618.76,-364.1C615.73,-311.89 600.34,-169.66 522,-92 517.97,-88.01 513.27,-84.68 508.23,-81.9"/>
<polygon fill="#63b8ff" stroke="#63b8ff" points="615.28,-364.52 619.26,-374.34 622.27,-364.18 615.28,-364.52"/>
</a>
</g>
</g>
<!-- Node24 -->
<g id="Node000024" class="node">
<title>Node24</title>
<g id="a_Node000024"><a xlink:href="classSpan_1_1EditorCameraSystem.html#ae933964fa5d0f299954c926cf63e091a" target="_top" xlink:title="毎フレーム呼び出されます。ここにゲームロジックを記述します。">
<polygon fill="white" stroke="#666666" points="522,-770 372,-770 372,-740 522,-740 522,-770"/>
<text text-anchor="start" x="380" y="-758" font-family="Helvetica,sans-Serif" font-size="10.00">Span::EditorCameraSystem</text>
<text text-anchor="middle" x="447" y="-747" font-family="Helvetica,sans-Serif" font-size="10.00">::OnUpdate</text>
</a>
</g>
</g>
<!-- Node9&#45;&gt;Node24 -->
<g id="edge34_Node000009_Node000024" class="edge">
<title>Node9&#45;&gt;Node24</title>
<g id="a_edge34_Node000009_Node000024"><a xlink:title=" ">
<path fill="none" stroke="#63b8ff" d="M620,-403.62C620.4,-461.91 613.46,-635.83 522,-731 518.72,-734.41 514.96,-737.33 510.91,-739.84"/>
<polygon fill="#63b8ff" stroke="#63b8ff" points="623.5,-403.51 619.85,-393.57 616.5,-403.62 623.5,-403.51"/>
</a>
</g>
</g>
<!-- Node25 -->
<g id="Node000025" class="node">
<title>Node25</title>
<g id="a_Node000025"><a xlink:href="classSpan_1_1RenderingSystem.html#aa0113a8f2b55129115c4da2c6ba449c4" target="_top" xlink:title="毎フレーム呼び出されます。ここにゲームロジックを記述します。">
<polygon fill="white" stroke="#666666" points="513.5,-722 380.5,-722 380.5,-692 513.5,-692 513.5,-722"/>
<text text-anchor="start" x="388.5" y="-710" font-family="Helvetica,sans-Serif" font-size="10.00">Span::RenderingSystem</text>
<text text-anchor="middle" x="447" y="-699" font-family="Helvetica,sans-Serif" font-size="10.00">::OnUpdate</text>
</a>
</g>
</g>
<!-- Node9&#45;&gt;Node25 -->
<g id="edge35_Node000009_Node000025" class="edge">
<title>Node9&#45;&gt;Node25</title>
<g id="a_edge35_Node000009_Node000025"><a xlink:title=" ">
<path fill="none" stroke="#63b8ff" d="M618.95,-403.67C616.41,-456.53 602.09,-603.03 522,-683 518.56,-686.44 514.62,-689.38 510.4,-691.9"/>
<polygon fill="#63b8ff" stroke="#63b8ff" points="622.45,-403.74 619.34,-393.61 615.46,-403.47 622.45,-403.74"/>
</a>
</g>
</g>
<!-- Node26 -->
<g id="Node000026" class="node">
<title>Node26</title>
<g id="a_Node000026"><a xlink:href="classSpan_1_1FileDialog.html#aad45925d2e59cc65f1025f18104770e8" target="_top" xlink:title="ファイルを開くダイアログを表示します。">
<polygon fill="white" stroke="#666666" points="519,-157.5 375,-157.5 375,-138.5 519,-138.5 519,-157.5"/>
<text text-anchor="middle" x="447" y="-145.5" font-family="Helvetica,sans-Serif" font-size="10.00">Span::FileDialog::OpenFile</text>
</a>
</g>
</g>
<!-- Node9&#45;&gt;Node26 -->
<g id="edge36_Node000009_Node000026" class="edge">
<title>Node9&#45;&gt;Node26</title>
<g id="a_edge36_Node000009_Node000026"><a xlink:title=" ">
<path fill="none" stroke="#63b8ff" d="M615.97,-364.4C607.45,-322.83 581.91,-225.25 522,-172 514.83,-165.63 505.95,-160.95 496.85,-157.5"/>
<polygon fill="#63b8ff" stroke="#63b8ff" points="612.56,-365.2 617.89,-374.35 619.43,-363.87 612.56,-365.2"/>
</a>
</g>
</g>
<!-- Node27 -->
<g id="Node000027" class="node">
<title>Node27</title>
<g id="a_Node000027"><a xlink:href="classSpan_1_1MaterialPreviewer.html#a7af64e04a1aae97d04d3a2bbe15f50a8" target="_top" xlink:title="オフスクリーンターゲットに球体を描画します。">
<polygon fill="white" stroke="#666666" points="515,-674 379,-674 379,-644 515,-644 515,-674"/>
<text text-anchor="start" x="387" y="-662" font-family="Helvetica,sans-Serif" font-size="10.00">Span::MaterialPreviewer</text>
<text text-anchor="middle" x="447" y="-651" font-family="Helvetica,sans-Serif" font-size="10.00">::Render</text>
</a>
</g>
</g>
<!-- Node9&#45;&gt;Node27 -->
<g id="edge38_Node000009_Node000027" class="edge">
<title>Node9&#45;&gt;Node27</title>
<g id="a_edge38_Node000009_Node000027"><a xlink:title=" ">
<path fill="none" stroke="#63b8ff" d="M617.03,-403.89C610.31,-449.9 587.55,-564.7 522,-630 516.33,-635.65 509.43,-640.23 502.15,-643.93"/>
<polygon fill="#63b8ff" stroke="#63b8ff" points="620.5,-404.36 618.38,-393.98 613.56,-403.41 620.5,-404.36"/>
</a>
</g>
</g>
<!-- Node28 -->
<g id="Node000028" class="node">
<title>Node28</title>
<g id="a_Node000028"><a xlink:href="classSpan_1_1FileDialog.html#a22c6ec8ccc13ed89cc79447ce8ff2468" target="_top" xlink:title="ファイルを保存するダイアログを表示します。">
<polygon fill="white" stroke="#666666" points="518.5,-120.5 375.5,-120.5 375.5,-101.5 518.5,-101.5 518.5,-120.5"/>
<text text-anchor="middle" x="447" y="-108.5" font-family="Helvetica,sans-Serif" font-size="10.00">Span::FileDialog::SaveFile</text>
</a>
</g>
</g>
<!-- Node9&#45;&gt;Node28 -->
<g id="edge39_Node000009_Node000028" class="edge">
<title>Node9&#45;&gt;Node28</title>
<g id="a_edge39_Node000009_Node000028"><a xlink:title=" ">
<path fill="none" stroke="#63b8ff" d="M617.92,-364.22C613,-316.42 593.68,-193.86 522,-130 517.64,-126.12 512.6,-123.01 507.23,-120.52"/>
<polygon fill="#63b8ff" stroke="#63b8ff" points="614.46,-364.81 618.86,-374.44 621.43,-364.17 614.46,-364.81"/>
</a>
</g>
</g>
<!-- Node10&#45;&gt;Node11 -->
<g id="edge13_Node000010_Node000011" class="edge">
<title>Node10&#45;&gt;Node11</title>
<g id="a_edge13_Node000010_Node000011"><a xlink:title=" ">
<path fill="none" stroke="#63b8ff" d="M376.95,-502.15C354.86,-506.99 330.62,-512.31 309.29,-516.99"/>
<polygon fill="#63b8ff" stroke="#63b8ff" points="377.91,-505.52 386.93,-499.96 376.41,-498.68 377.91,-505.52"/>
</a>
</g>
</g>
<!-- Node11&#45;&gt;Node11 -->
<g id="edge14_Node000011_Node000011" class="edge">
<title>Node11&#45;&gt;Node11</title>
<g id="a_edge14_Node000011_Node000011"><a xlink:title=" ">
<path fill="none" stroke="#63b8ff" d="M281.56,-555.6C277.11,-559.97 266.26,-563 249,-563 219.94,-563 209.04,-554.41 216.3,-545.28"/>
<polygon fill="#63b8ff" stroke="#63b8ff" points="285.06,-555.32 281.7,-545.28 278.06,-555.23 285.06,-555.32"/>
</a>
</g>
</g>
<!-- Node11&#45;&gt;Node12 -->
<g id="edge15_Node000011_Node000012" class="edge">
<title>Node11&#45;&gt;Node12</title>
<g id="a_edge15_Node000011_Node000012"><a xlink:title=" ">
<path fill="none" stroke="#63b8ff" d="M178.75,-530C160.44,-530 140.84,-530 123.12,-530"/>
<polygon fill="#63b8ff" stroke="#63b8ff" points="178.77,-533.5 188.77,-530 178.77,-526.5 178.77,-533.5"/>
</a>
</g>
</g>
<!-- Node13&#45;&gt;Node12 -->
<g id="edge17_Node000013_Node000012" class="edge">
<title>Node13&#45;&gt;Node12</title>
<g id="a_edge17_Node000013_Node000012"><a xlink:title=" ">
<path fill="none" stroke="#63b8ff" d="M197.2,-481.5C168.33,-492.01 132.64,-505.01 105.47,-514.9"/>
<polygon fill="#63b8ff" stroke="#63b8ff" points="198.51,-484.75 206.71,-478.04 196.11,-478.17 198.51,-484.75"/>
</a>
</g>
</g>
<!-- Node14&#45;&gt;Node15 -->
<g id="edge20_Node000014_Node000015" class="edge">
<title>Node14&#45;&gt;Node15</title>
<g id="a_edge20_Node000014_Node000015"><a xlink:title=" ">
<path fill="none" stroke="#63b8ff" d="M373.89,-363C353.68,-363 331.88,-363 312.28,-363"/>
<polygon fill="#63b8ff" stroke="#63b8ff" points="373.98,-366.5 383.98,-363 373.98,-359.5 373.98,-366.5"/>
</a>
</g>
</g>
<!-- Node17 -->
<g id="Node000017" class="node">
<title>Node17</title>
<g id="a_Node000017"><a xlink:href="classSpan_1_1InspectorPanel.html#aa24fb5f7f8d1de98906fe4b644cb4a86" target="_top" xlink:title="アセット用のインスペクターを描画します。">
<polygon fill="white" stroke="#666666" points="309,-282 189,-282 189,-252 309,-252 309,-282"/>
<text text-anchor="start" x="197" y="-270" font-family="Helvetica,sans-Serif" font-size="10.00">Span::InspectorPanel</text>
<text text-anchor="middle" x="249" y="-259" font-family="Helvetica,sans-Serif" font-size="10.00">::DrawAssetInspector</text>
</a>
</g>
</g>
<!-- Node16&#45;&gt;Node17 -->
<g id="edge22_Node000016_Node000017" class="edge">
<title>Node16&#45;&gt;Node17</title>
<g id="a_edge22_Node000016_Node000017"><a xlink:title=" ">
<path fill="none" stroke="#63b8ff" d="M377.89,-267C355.53,-267 330.87,-267 309.22,-267"/>
<polygon fill="#63b8ff" stroke="#63b8ff" points="377.99,-270.5 387.99,-267 377.99,-263.5 377.99,-270.5"/>
</a>
</g>
</g>
<!-- Node17&#45;&gt;Node18 -->
<g id="edge23_Node000017_Node000018" class="edge">
<title>Node17&#45;&gt;Node18</title>
<g id="a_edge23_Node000017_Node000018"><a xlink:title=" ">
<path fill="none" stroke="#63b8ff" d="M178.59,-259.08C160,-256.96 140.09,-254.68 122.18,-252.64"/>
<polygon fill="#63b8ff" stroke="#63b8ff" points="178.44,-262.58 188.77,-260.24 179.23,-255.63 178.44,-262.58"/>
</a>
</g>
</g>
<!-- Node20 -->
<g id="Node000020" class="node">
<title>Node20</title>
<g id="a_Node000020"><a xlink:href="classSpan_1_1Application.html#a9dc7321cf43512eac3757a83fbefbaa9" target="_top" xlink:title="アプリケーションを実行します (ブロック関数)。">
<polygon fill="white" stroke="#666666" points="126,-157.5 0,-157.5 0,-138.5 126,-138.5 126,-157.5"/>
<text text-anchor="middle" x="63" y="-145.5" font-family="Helvetica,sans-Serif" font-size="10.00">Span::Application::Run</text>
</a>
</g>
</g>
<!-- Node19&#45;&gt;Node20 -->
<g id="edge25_Node000019_Node000020" class="edge">
<title>Node19&#45;&gt;Node20</title>
<g id="a_edge25_Node000019_Node000020"><a xlink:title=" ">
<path fill="none" stroke="#63b8ff" d="M158.35,-148C147.4,-148 136.42,-148 126.01,-148"/>
<polygon fill="#63b8ff" stroke="#63b8ff" points="158.37,-151.5 168.37,-148 158.37,-144.5 158.37,-151.5"/>
</a>
</g>
</g>
<!-- Node21&#45;&gt;Node11 -->
<g id="edge27_Node000021_Node000011" class="edge">
<title>Node21&#45;&gt;Node11</title>
<g id="a_edge27_Node000021_Node000011"><a xlink:title=" ">
<path fill="none" stroke="#63b8ff" d="M376.95,-557.85C354.86,-553.01 330.62,-547.69 309.29,-543.01"/>
<polygon fill="#63b8ff" stroke="#63b8ff" points="376.41,-561.32 386.93,-560.04 377.91,-554.48 376.41,-561.32"/>
</a>
</g>
</g>
<!-- Node22&#45;&gt;Node15 -->
<g id="edge29_Node000022_Node000015" class="edge">
<title>Node22&#45;&gt;Node15</title>
<g id="a_edge29_Node000022_Node000015"><a xlink:title=" ">
<path fill="none" stroke="#63b8ff" d="M374.78,-332.44C353.96,-337.54 331.4,-343.07 311.26,-348"/>
<polygon fill="#63b8ff" stroke="#63b8ff" points="375.64,-335.83 384.52,-330.06 373.98,-329.04 375.64,-335.83"/>
</a>
</g>
</g>
<!-- Node26&#45;&gt;Node19 -->
<g id="edge37_Node000026_Node000019" class="edge">
<title>Node26&#45;&gt;Node19</title>
<g id="a_edge37_Node000026_Node000019"><a xlink:title=" ">
<path fill="none" stroke="#63b8ff" d="M364.87,-148C353.26,-148 341.34,-148 329.76,-148"/>
<polygon fill="#63b8ff" stroke="#63b8ff" points="364.96,-151.5 374.96,-148 364.96,-144.5 364.96,-151.5"/>
</a>
</g>
</g>
<!-- Node28&#45;&gt;Node19 -->
<g id="edge40_Node000028_Node000019" class="edge">
<title>Node28&#45;&gt;Node19</title>
<g id="a_edge40_Node000028_Node000019"><a xlink:title=" ">
<path fill="none" stroke="#63b8ff" d="M385.36,-122.45C358.19,-127.58 326.52,-133.56 300.64,-138.44"/>
<polygon fill="#63b8ff" stroke="#63b8ff" points="386.35,-125.82 395.53,-120.53 385.05,-118.94 386.35,-125.82"/>
</a>
</g>
</g>
<!-- Node30 -->
<g id="Node000030" class="node">
<title>Node30</title>
<g id="a_Node000030"><a xlink:href="namespaceSpan.html#a3f4b8561d46e69596ba6a7c3177a92e7" target="_top" xlink:title=" ">
<polygon fill="white" stroke="#666666" points="517.5,-34.5 376.5,-34.5 376.5,-15.5 517.5,-15.5 517.5,-34.5"/>
<text text-anchor="middle" x="447" y="-22.5" font-family="Helvetica,sans-Serif" font-size="10.00">Span::ConsoleCtrlHandler</text>
</a>
</g>
</g>
<!-- Node29&#45;&gt;Node30 -->
<g id="edge42_Node000029_Node000030" class="edge">
<title>Node29&#45;&gt;Node30</title>
<g id="a_edge42_Node000029_Node000030"><a xlink:title=" ">
<path fill="none" stroke="#63b8ff" d="M549.94,-25C539.31,-25 528.34,-25 517.71,-25"/>
<polygon fill="#63b8ff" stroke="#63b8ff" points="550,-28.5 560,-25 550,-21.5 550,-28.5"/>
</a>
</g>
</g>
<!-- Node30&#45;&gt;Node8 -->
<g id="edge43_Node000030_Node000008" class="edge">
<title>Node30&#45;&gt;Node8</title>
<g id="a_edge43_Node000030_Node000008"><a xlink:title=" ">
<path fill="none" stroke="#63b8ff" d="M511.87,-36.22C526.97,-38.65 543.03,-41.08 558,-43 612.65,-50.02 675.47,-55.61 718.74,-59.07"/>
<polygon fill="#63b8ff" stroke="#63b8ff" points="512.04,-32.7 501.6,-34.53 510.9,-39.6 512.04,-32.7"/>
</a>
</g>
</g>
</g>
</svg>

<g id="navigator" transform="translate(0 0)" fill="#404254">
  <rect fill="#f2f5e9" fill-opacity="0.5" stroke="#606060" stroke-width=".5" x="0" y="0" width="60" height="60"/>
  <use id="zoomplus" xlink:href="#zoomPlus" x="17" y="9" onmousedown="handleZoom(evt,'in')"/>
  <use id="zoomminus" xlink:href="#zoomMin" x="42" y="9" onmousedown="handleZoom(evt,'out')"/>
  <use id="reset" xlink:href="#resetDef" x="30" y="36" onmousedown="handleReset()"/>
   <use id="arrowup" xlink:href="#arrowUp" x="0" y="0" onmousedown="handlePan(0,-1)"/>
  <use id="arrowright" xlink:href="#arrowRight" x="0" y="0" onmousedown="handlePan(1,0)"/>
  <use id="arrowdown" xlink:href="#arrowDown" x="0" y="0" onmousedown="handlePan(0,1)"/>
  <use id="arrowleft" xlink:href="#arrowLeft" x="0" y="0" onmousedown="handlePan(-1,0)"/>
</g>
<svg viewBox="0 0 15 15" width="100%" height="30px" preserveAspectRatio="xMaxYMin meet">
 <g id="arrow_out" transform="scale(0.3 0.3)">
  <a xlink:href="classSpan_1_1AssetSerializer_adea72d3eb1434b36473f6e0d38396451_icgraph_org.svg" target="_base">
   <rect id="button" ry="5" rx="5" y="6" x="6" height="38" width="38"
        fill="#f2f5e9" fill-opacity="0.5" stroke="#606060" stroke-width="1.0"/>
   <path id="arrow"
     d="M 11.500037,31.436501 C 11.940474,20.09759 22.043105,11.32322 32.158766,21.979434 L 37.068811,17.246167 C 37.068811,17.246167 37.088388,32 37.088388,32 L 22.160133,31.978069 C 22.160133,31.978069 26.997745,27.140456 26.997745,27.140456 C 18.528582,18.264221 13.291696,25.230495 11.500037,31.436501 z"
     style="fill:#404040;"/>
  </a>
 </g>
</svg>

<style type='text/css'>
<![CDATA[
[data-mouse-over-selected='false'] { opacity: 0.7; }
[data-mouse-over-selected='true']  { opacity: 1.0; }
]]>
</style>
<script type="application/ecmascript"><![CDATA[
document.addEventListener('DOMContentLoaded', (event) => {
  highlightEdges();
  highlightAdjacentNodes();
});
]]></script>
</svg>
