<?xml version="1.0" encoding="UTF-8" standalone="no"?>
<!DOCTYPE svg PUBLIC "-//W3C//DTD SVG 1.1//EN"
 "http://www.w3.org/Graphics/SVG/1.1/DTD/svg11.dtd">
<!-- Generated by graphviz version 2.43.0 (0)
 -->
<!-- Title: Span::TagManager::Get Pages: 1 -->
<svg width="450pt" height="86pt"
 viewBox="0.00 0.00 450.00 86.00" xmlns="http://www.w3.org/2000/svg" xmlns:xlink="http://www.w3.org/1999/xlink">

<svg id="main" version="1.1" xmlns="http://www.w3.org/2000/svg" xmlns:xlink="http://www.w3.org/1999/xlink" xml:space="preserve">

<style type="text/css"><![CDATA[
.node, .edge {opacity: 0.7;}
.node.selected, .edge.selected {opacity: 1;}
.edge:hover path { stroke: red; }
.edge:hover polygon { stroke: red; fill: red; }
]]></style>
<script type="application/ecmascript" xlink:href="svg.min.js"/>
<svg id="graph" class="graph">
<g id="graph0" class="graph" transform="scale(1 1) rotate(0) translate(4 82)">
<title>Span::TagManager::Get</title>
<!-- Node1 -->
<g id="Node000001" class="node">
<title>Node1</title>
<g id="a_Node000001"><a xlink:title="TagManagerのシングルトンインスタンスを取得します。">
<polygon fill="#999999" stroke="#666666" points="442,-48.5 313,-48.5 313,-29.5 442,-29.5 442,-48.5"/>
<text text-anchor="middle" x="377.5" y="-36.5" font-family="Helvetica,sans-Serif" font-size="10.00">Span::TagManager::Get</text>
</a>
</g>
</g>
<!-- Node2 -->
<g id="Node000002" class="node">
<title>Node2</title>
<g id="a_Node000002"><a xlink:href="classSpan_1_1InspectorPanel.html#a6daa94024d0c4ef940d144af94519964" target="_top" xlink:title="エンティティ用のインスペクターを描画します。">
<polygon fill="white" stroke="#666666" points="276.5,-78 154.5,-78 154.5,-48 276.5,-48 276.5,-78"/>
<text text-anchor="start" x="162.5" y="-66" font-family="Helvetica,sans-Serif" font-size="10.00">Span::InspectorPanel</text>
<text text-anchor="middle" x="215.5" y="-55" font-family="Helvetica,sans-Serif" font-size="10.00">::DrawEntityInspector</text>
</a>
</g>
</g>
<!-- Node1&#45;&gt;Node2 -->
<g id="edge1_Node000001_Node000002" class="edge">
<title>Node1&#45;&gt;Node2</title>
<g id="a_edge1_Node000001_Node000002"><a xlink:title=" ">
<path fill="none" stroke="#63b8ff" d="M302.64,-50.08C293.91,-51.39 285.09,-52.71 276.59,-53.99"/>
<polygon fill="#63b8ff" stroke="#63b8ff" points="303.43,-53.5 312.8,-48.55 302.4,-46.58 303.43,-53.5"/>
</a>
</g>
</g>
<!-- Node4 -->
<g id="Node000004" class="node">
<title>Node4</title>
<g id="a_Node000004"><a xlink:href="classSpan_1_1InspectorPanel.html#a46b4b918a2d72122d78dd9810c25b4c9" target="_top" xlink:title="タグのモーダル・ポップアップ">
<polygon fill="white" stroke="#666666" points="277,-30 154,-30 154,0 277,0 277,-30"/>
<text text-anchor="start" x="162" y="-18" font-family="Helvetica,sans-Serif" font-size="10.00">Span::InspectorPanel</text>
<text text-anchor="middle" x="215.5" y="-7" font-family="Helvetica,sans-Serif" font-size="10.00">::DrawTagEditorModal</text>
</a>
</g>
</g>
<!-- Node1&#45;&gt;Node4 -->
<g id="edge3_Node000001_Node000004" class="edge">
<title>Node1&#45;&gt;Node4</title>
<g id="a_edge3_Node000001_Node000004"><a xlink:title=" ">
<path fill="none" stroke="#63b8ff" d="M302.78,-27.94C294.19,-26.65 285.5,-25.35 277.11,-24.09"/>
<polygon fill="#63b8ff" stroke="#63b8ff" points="302.4,-31.42 312.8,-29.45 303.43,-24.5 302.4,-31.42"/>
</a>
</g>
</g>
<!-- Node3 -->
<g id="Node000003" class="node">
<title>Node3</title>
<g id="a_Node000003"><a xlink:href="classSpan_1_1InspectorPanel.html#ae32fda6018a2e54f880e6708ac5b89fe" target="_top" xlink:title="毎フレーム呼ばれる描画関数。">
<polygon fill="white" stroke="#666666" points="118,-54 0,-54 0,-24 118,-24 118,-54"/>
<text text-anchor="start" x="8" y="-42" font-family="Helvetica,sans-Serif" font-size="10.00">Span::InspectorPanel</text>
<text text-anchor="middle" x="59" y="-31" font-family="Helvetica,sans-Serif" font-size="10.00">::OnImGuiRender</text>
</a>
</g>
</g>
<!-- Node2&#45;&gt;Node3 -->
<g id="edge2_Node000002_Node000003" class="edge">
<title>Node2&#45;&gt;Node3</title>
<g id="a_edge2_Node000002_Node000003"><a xlink:title=" ">
<path fill="none" stroke="#63b8ff" d="M144.21,-52.08C135.52,-50.73 126.72,-49.36 118.24,-48.05"/>
<polygon fill="#63b8ff" stroke="#63b8ff" points="143.91,-55.58 154.32,-53.65 144.98,-48.66 143.91,-55.58"/>
</a>
</g>
</g>
<!-- Node4&#45;&gt;Node3 -->
<g id="edge4_Node000004_Node000003" class="edge">
<title>Node4&#45;&gt;Node3</title>
<g id="a_edge4_Node000004_Node000003"><a xlink:title=" ">
<path fill="none" stroke="#63b8ff" d="M143.86,-25.97C135.27,-27.31 126.56,-28.66 118.17,-29.96"/>
<polygon fill="#63b8ff" stroke="#63b8ff" points="144.54,-29.41 153.88,-24.42 143.46,-22.49 144.54,-29.41"/>
</a>
</g>
</g>
</g>
</svg>
</svg>

<style type='text/css'>
<![CDATA[
[data-mouse-over-selected='false'] { opacity: 0.7; }
[data-mouse-over-selected='true']  { opacity: 1.0; }
]]>
</style>
<script type="application/ecmascript"><![CDATA[
document.addEventListener('DOMContentLoaded', (event) => {
  highlightEdges();
  highlightAdjacentNodes();
});
]]></script>
</svg>
