<?xml version="1.0" encoding="UTF-8" standalone="no"?>
<!DOCTYPE svg PUBLIC "-//W3C//DTD SVG 1.1//EN"
 "http://www.w3.org/Graphics/SVG/1.1/DTD/svg11.dtd">
<!-- Generated by graphviz version 2.43.0 (0)
 -->
<!-- Title: Span::MaterialPreviewer::GenerateSphereMesh Pages: 1 -->
<svg width="482pt" height="64pt"
 viewBox="0.00 0.00 482.00 64.00" xmlns="http://www.w3.org/2000/svg" xmlns:xlink="http://www.w3.org/1999/xlink">
<g id="graph0" class="graph" transform="scale(1 1) rotate(0) translate(4 60)">
<title>Span::MaterialPreviewer::GenerateSphereMesh</title>
<!-- Node1 -->
<g id="Node000001" class="node">
<title>Node1</title>
<g id="a_Node000001"><a xlink:title=" ">
<polygon fill="#999999" stroke="#666666" points="136,-42.5 0,-42.5 0,-12.5 136,-12.5 136,-42.5"/>
<text text-anchor="start" x="8" y="-30.5" font-family="Helvetica,sans-Serif" font-size="10.00">Span::MaterialPreviewer</text>
<text text-anchor="middle" x="68" y="-19.5" font-family="Helvetica,sans-Serif" font-size="10.00">::GenerateSphereMesh</text>
</a>
</g>
</g>
<!-- Node2 -->
<g id="Node000002" class="node">
<title>Node2</title>
<g id="a_Node000002"><a xlink:href="classSpan_1_1Mesh.html#af6eda3dd586a593a9d13770d220c7d3f" target="_top" xlink:title=" ">
<polygon fill="white" stroke="#666666" points="317,-37 172,-37 172,-18 317,-18 317,-37"/>
<text text-anchor="middle" x="244.5" y="-25" font-family="Helvetica,sans-Serif" font-size="10.00">Span::Mesh::CreateSphere</text>
</a>
</g>
</g>
<!-- Node1&#45;&gt;Node2 -->
<g id="edge1_Node000001_Node000002" class="edge">
<title>Node1&#45;&gt;Node2</title>
<g id="a_edge1_Node000001_Node000002"><a xlink:title=" ">
<path fill="none" stroke="#63b8ff" d="M136.47,-27.5C144.72,-27.5 153.22,-27.5 161.65,-27.5"/>
<polygon fill="#63b8ff" stroke="#63b8ff" points="161.88,-31 171.88,-27.5 161.88,-24 161.88,-31"/>
</a>
</g>
</g>
<!-- Node3 -->
<g id="Node000003" class="node">
<title>Node3</title>
<g id="a_Node000003"><a xlink:href="classSpan_1_1Mesh.html#ae731b2ee0cf4e9bbfd30b70285a6688f" target="_top" xlink:title="頂点配列からメッシュを初期化します。">
<polygon fill="white" stroke="#666666" points="474,-56 353,-56 353,-37 474,-37 474,-56"/>
<text text-anchor="middle" x="413.5" y="-44" font-family="Helvetica,sans-Serif" font-size="10.00">Span::Mesh::Initialize</text>
</a>
</g>
</g>
<!-- Node2&#45;&gt;Node3 -->
<g id="edge2_Node000002_Node000003" class="edge">
<title>Node2&#45;&gt;Node3</title>
<g id="a_edge2_Node000002_Node000003"><a xlink:title=" ">
<path fill="none" stroke="#63b8ff" d="M317.29,-35.67C325.71,-36.63 334.3,-37.6 342.69,-38.56"/>
<polygon fill="#63b8ff" stroke="#63b8ff" points="342.48,-42.06 352.81,-39.71 343.27,-35.1 342.48,-42.06"/>
</a>
</g>
</g>
<!-- Node4 -->
<g id="Node000004" class="node">
<title>Node4</title>
<g id="a_Node000004"><a xlink:href="classSpan_1_1Mesh.html#ada6aa82e26c3c023f295a9d85b90f0ca" target="_top" xlink:title=" ">
<polygon fill="white" stroke="#666666" points="466,-19 361,-19 361,0 466,0 466,-19"/>
<text text-anchor="middle" x="413.5" y="-7" font-family="Helvetica,sans-Serif" font-size="10.00">Span::Mesh::Mesh</text>
</a>
</g>
</g>
<!-- Node2&#45;&gt;Node4 -->
<g id="edge3_Node000002_Node000004" class="edge">
<title>Node2&#45;&gt;Node4</title>
<g id="a_edge3_Node000002_Node000004"><a xlink:title=" ">
<path fill="none" stroke="#63b8ff" d="M317.29,-19.76C328.41,-18.56 339.82,-17.33 350.69,-16.16"/>
<polygon fill="#63b8ff" stroke="#63b8ff" points="351.36,-19.61 360.93,-15.06 350.61,-12.65 351.36,-19.61"/>
</a>
</g>
</g>
</g>
</svg>
