<?xml version="1.0" encoding="UTF-8" standalone="no"?>
<!DOCTYPE svg PUBLIC "-//W3C//DTD SVG 1.1//EN"
 "http://www.w3.org/Graphics/SVG/1.1/DTD/svg11.dtd">
<!-- Generated by graphviz version 2.43.0 (0)
 -->
<!-- Title: Span::System::GetWorld Pages: 1 -->
<svg width="496pt" height="238pt"
 viewBox="0.00 0.00 496.00 238.00" xmlns="http://www.w3.org/2000/svg" xmlns:xlink="http://www.w3.org/1999/xlink">

<svg id="main" version="1.1" xmlns="http://www.w3.org/2000/svg" xmlns:xlink="http://www.w3.org/1999/xlink" xml:space="preserve">

<style type="text/css"><![CDATA[
.node, .edge {opacity: 0.7;}
.node.selected, .edge.selected {opacity: 1;}
.edge:hover path { stroke: red; }
.edge:hover polygon { stroke: red; fill: red; }
]]></style>
<script type="application/ecmascript" xlink:href="svg.min.js"/>
<svg id="graph" class="graph">
<g id="graph0" class="graph" transform="scale(1 1) rotate(0) translate(4 234)">
<title>Span::System::GetWorld</title>
<!-- Node1 -->
<g id="Node000001" class="node">
<title>Node1</title>
<g id="a_Node000001"><a xlink:title="所属しているワールドを取得します。">
<polygon fill="#999999" stroke="#666666" points="488,-120.5 354,-120.5 354,-101.5 488,-101.5 488,-120.5"/>
<text text-anchor="middle" x="421" y="-108.5" font-family="Helvetica,sans-Serif" font-size="10.00">Span::System::GetWorld</text>
</a>
</g>
</g>
<!-- Node2 -->
<g id="Node000002" class="node">
<title>Node2</title>
<g id="a_Node000002"><a xlink:href="classSpan_1_1TransformSystem.html#aa2cf376ecd2d44d89515eca90aea04e1" target="_top" xlink:title=" ">
<polygon fill="white" stroke="#666666" points="309,-212 177,-212 177,-182 309,-182 309,-212"/>
<text text-anchor="start" x="185" y="-200" font-family="Helvetica,sans-Serif" font-size="10.00">Span::TransformSystem</text>
<text text-anchor="middle" x="243" y="-189" font-family="Helvetica,sans-Serif" font-size="10.00">::ComputeWorldMatrix</text>
</a>
</g>
</g>
<!-- Node1&#45;&gt;Node2 -->
<g id="edge1_Node000001_Node000002" class="edge">
<title>Node1&#45;&gt;Node2</title>
<g id="a_edge1_Node000001_Node000002"><a xlink:title=" ">
<path fill="none" stroke="#63b8ff" d="M395.82,-125.74C375.46,-137.86 345.36,-155.07 318,-168 307.65,-172.89 296.23,-177.66 285.52,-181.87"/>
<polygon fill="#63b8ff" stroke="#63b8ff" points="397.67,-128.71 404.45,-120.57 394.07,-122.71 397.67,-128.71"/>
</a>
</g>
</g>
<!-- Node3 -->
<g id="Node000003" class="node">
<title>Node3</title>
<g id="a_Node000003"><a xlink:href="classSpan_1_1TransformSystem.html#abeba491503870f332716f4ca75444ca4" target="_top" xlink:title="毎フレーム呼び出されます。ここにゲームロジックを記述します。">
<polygon fill="white" stroke="#666666" points="132,-190 0,-190 0,-160 132,-160 132,-190"/>
<text text-anchor="start" x="8" y="-178" font-family="Helvetica,sans-Serif" font-size="10.00">Span::TransformSystem</text>
<text text-anchor="middle" x="66" y="-167" font-family="Helvetica,sans-Serif" font-size="10.00">::OnUpdate</text>
</a>
</g>
</g>
<!-- Node1&#45;&gt;Node3 -->
<g id="edge7_Node000001_Node000003" class="edge">
<title>Node1&#45;&gt;Node3</title>
<g id="a_edge7_Node000001_Node000003"><a xlink:title=" ">
<path fill="none" stroke="#63b8ff" d="M372.58,-122.92C355.44,-127.02 335.9,-131.47 318,-135 255.22,-147.37 183.04,-158.56 132.24,-165.94"/>
<polygon fill="#63b8ff" stroke="#63b8ff" points="373.46,-126.3 382.36,-120.55 371.82,-119.5 373.46,-126.3"/>
</a>
</g>
</g>
<!-- Node4 -->
<g id="Node000004" class="node">
<title>Node4</title>
<g id="a_Node000004"><a xlink:href="classSpan_1_1CameraSystem.html#a7f4bf0245dedd7a6245ef352246f7391" target="_top" xlink:title="毎フレーム呼び出されます。ここにゲームロジックを記述します。">
<polygon fill="white" stroke="#666666" points="304,-126 182,-126 182,-96 304,-96 304,-126"/>
<text text-anchor="start" x="190" y="-114" font-family="Helvetica,sans-Serif" font-size="10.00">Span::CameraSystem</text>
<text text-anchor="middle" x="243" y="-103" font-family="Helvetica,sans-Serif" font-size="10.00">::OnUpdate</text>
</a>
</g>
</g>
<!-- Node1&#45;&gt;Node4 -->
<g id="edge4_Node000001_Node000004" class="edge">
<title>Node1&#45;&gt;Node4</title>
<g id="a_edge4_Node000001_Node000004"><a xlink:title=" ">
<path fill="none" stroke="#63b8ff" d="M343.86,-111C330.54,-111 316.84,-111 304.02,-111"/>
<polygon fill="#63b8ff" stroke="#63b8ff" points="343.96,-114.5 353.96,-111 343.96,-107.5 343.96,-114.5"/>
</a>
</g>
</g>
<!-- Node5 -->
<g id="Node000005" class="node">
<title>Node5</title>
<g id="a_Node000005"><a xlink:href="classSpan_1_1EditorCameraSystem.html#ae933964fa5d0f299954c926cf63e091a" target="_top" xlink:title="毎フレーム呼び出されます。ここにゲームロジックを記述します。">
<polygon fill="white" stroke="#666666" points="318,-78 168,-78 168,-48 318,-48 318,-78"/>
<text text-anchor="start" x="176" y="-66" font-family="Helvetica,sans-Serif" font-size="10.00">Span::EditorCameraSystem</text>
<text text-anchor="middle" x="243" y="-55" font-family="Helvetica,sans-Serif" font-size="10.00">::OnUpdate</text>
</a>
</g>
</g>
<!-- Node1&#45;&gt;Node5 -->
<g id="edge5_Node000001_Node000005" class="edge">
<title>Node1&#45;&gt;Node5</title>
<g id="a_edge5_Node000001_Node000005"><a xlink:title=" ">
<path fill="none" stroke="#63b8ff" d="M374.94,-98.71C351.88,-92.42 323.6,-84.71 299.23,-78.06"/>
<polygon fill="#63b8ff" stroke="#63b8ff" points="374.24,-102.15 384.81,-101.4 376.08,-95.39 374.24,-102.15"/>
</a>
</g>
</g>
<!-- Node6 -->
<g id="Node000006" class="node">
<title>Node6</title>
<g id="a_Node000006"><a xlink:href="classSpan_1_1RenderingSystem.html#aa0113a8f2b55129115c4da2c6ba449c4" target="_top" xlink:title="毎フレーム呼び出されます。ここにゲームロジックを記述します。">
<polygon fill="white" stroke="#666666" points="309.5,-30 176.5,-30 176.5,0 309.5,0 309.5,-30"/>
<text text-anchor="start" x="184.5" y="-18" font-family="Helvetica,sans-Serif" font-size="10.00">Span::RenderingSystem</text>
<text text-anchor="middle" x="243" y="-7" font-family="Helvetica,sans-Serif" font-size="10.00">::OnUpdate</text>
</a>
</g>
</g>
<!-- Node1&#45;&gt;Node6 -->
<g id="edge6_Node000001_Node000006" class="edge">
<title>Node1&#45;&gt;Node6</title>
<g id="a_edge6_Node000001_Node000006"><a xlink:title=" ">
<path fill="none" stroke="#63b8ff" d="M400.91,-94.85C381.22,-78.85 349.07,-54.55 318,-39 311.36,-35.67 304.15,-32.67 296.94,-30"/>
<polygon fill="#63b8ff" stroke="#63b8ff" points="398.85,-97.69 408.8,-101.35 403.31,-92.29 398.85,-97.69"/>
</a>
</g>
</g>
<!-- Node2&#45;&gt;Node2 -->
<g id="edge2_Node000002_Node000002" class="edge">
<title>Node2&#45;&gt;Node2</title>
<g id="a_edge2_Node000002_Node000002"><a xlink:title=" ">
<path fill="none" stroke="#63b8ff" d="M273.81,-222.6C269.6,-226.97 259.33,-230 243,-230 215.5,-230 205.19,-221.41 212.06,-212.28"/>
<polygon fill="#63b8ff" stroke="#63b8ff" points="277.31,-222.32 273.94,-212.28 270.31,-222.23 277.31,-222.32"/>
</a>
</g>
</g>
<!-- Node2&#45;&gt;Node3 -->
<g id="edge3_Node000002_Node000003" class="edge">
<title>Node2&#45;&gt;Node3</title>
<g id="a_edge3_Node000002_Node000003"><a xlink:title=" ">
<path fill="none" stroke="#63b8ff" d="M166.81,-187.55C155.3,-186.1 143.49,-184.62 132.22,-183.2"/>
<polygon fill="#63b8ff" stroke="#63b8ff" points="166.48,-191.03 176.84,-188.81 167.35,-184.09 166.48,-191.03"/>
</a>
</g>
</g>
</g>
</svg>
</svg>

<style type='text/css'>
<![CDATA[
[data-mouse-over-selected='false'] { opacity: 0.7; }
[data-mouse-over-selected='true']  { opacity: 1.0; }
]]>
</style>
<script type="application/ecmascript"><![CDATA[
document.addEventListener('DOMContentLoaded', (event) => {
  highlightEdges();
  highlightAdjacentNodes();
});
]]></script>
</svg>
