<?xml version="1.0" encoding="UTF-8" standalone="no"?>
<!DOCTYPE svg PUBLIC "-//W3C//DTD SVG 1.1//EN"
 "http://www.w3.org/Graphics/SVG/1.1/DTD/svg11.dtd">
<!-- Generated by graphviz version 2.43.0 (0)
 -->
<!-- Title: Span::World Pages: 1 -->
<!--zoomable 564 -->

<svg id="main" version="1.1" xmlns="http://www.w3.org/2000/svg" xmlns:xlink="http://www.w3.org/1999/xlink" xml:space="preserve" onload="init(evt)">

<style type="text/css"><![CDATA[
.node, .edge {opacity: 0.7;}
.node.selected, .edge.selected {opacity: 1;}
.edge:hover path { stroke: red; }
.edge:hover polygon { stroke: red; fill: red; }
]]></style>

<defs>
  <circle id="rim" cx="0" cy="0" r="7"/>
  <circle id="rim2" cx="0" cy="0" r="3.5"/>
  <g id="zoomPlus">
    <use xlink:href="#rim" fill="#404040"><set attributeName="fill" to="#808080" begin="zoomplus.mouseover" end="zoomplus.mouseout"/></use>
    <path d="M-4,0h8M0,-4v8" fill="none" stroke="white" stroke-width="1.5" pointer-events="none"/>
  </g>
  <g id="zoomMin">
    <use xlink:href="#rim" fill="#404040"><set attributeName="fill" to="#808080" begin="zoomminus.mouseover" end="zoomminus.mouseout"/></use>
    <path d="M-4,0h8" fill="none" stroke="white" stroke-width="1.5" pointer-events="none"/>
  </g>
  <g id="arrowUp" transform="translate(30 24)">
    <use xlink:href="#rim"/>
    <path pointer-events="none" fill="none" stroke="white" stroke-width="1.5" d="M0,-3.0v7 M-2.5,-0.5L0,-3.0L2.5,-0.5"/>
  </g>
  <g id="arrowRight" transform="rotate(90) translate(36 -43)">
    <use xlink:href="#rim"/>
    <path pointer-events="none" fill="none" stroke="white" stroke-width="1.5" d="M0,-3.0v7 M-2.5,-0.5L0,-3.0L2.5,-0.5"/>
  </g>
  <g id="arrowDown" transform="rotate(180) translate(-30 -48)">
    <use xlink:href="#rim"/>
    <path pointer-events="none" fill="none" stroke="white" stroke-width="1.5" d="M0,-3.0v7 M-2.5,-0.5L0,-3.0L2.5,-0.5"/>
  </g>
  <g id="arrowLeft" transform="rotate(270) translate(-36 17)">
    <use xlink:href="#rim"/>
    <path pointer-events="none" fill="none" stroke="white" stroke-width="1.5" d="M0,-3.0v7 M-2.5,-0.5L0,-3.0L2.5,-0.5"/>
  </g>
  <g id="resetDef">
    <use xlink:href="#rim2" fill="#404040"><set attributeName="fill" to="#808080" begin="reset.mouseover" end="reset.mouseout"/></use>
  </g>
</defs>
<script type="application/ecmascript">
var viewWidth = 310;
var viewHeight = 564;
var sectionId = 'dynsection-0';
</script>
<script type="application/ecmascript" xlink:href="svg.min.js"/>
<svg id="graph" class="graph">
<g id="viewport">
<title>Span::World</title>
<!-- Node1 -->
<g id="Node000001" class="node">
<title>Node1</title>
<g id="a_Node000001"><a xlink:title="🌏 ECSの管理マネージャー。全てのEntityとSystemを保持します。">
<polygon fill="#999999" stroke="transparent" points="221.5,-304 83.5,-304 83.5,0 221.5,0 221.5,-304"/>
<text text-anchor="start" x="123.5" y="-292" font-family="Helvetica,sans-Serif" font-size="10.00">Span::World</text>
<text text-anchor="start" x="90" y="-277" font-family="Helvetica,sans-Serif" font-size="10.00">&#45;</text>
<text text-anchor="start" x="100.5" y="-277" font-family="Helvetica,sans-Serif" font-size="10.00">systems</text>
<text text-anchor="start" x="90" y="-262" font-family="Helvetica,sans-Serif" font-size="10.00">&#45;</text>
<text text-anchor="start" x="100.5" y="-262" font-family="Helvetica,sans-Serif" font-size="10.00">entityLocationMap</text>
<text text-anchor="start" x="87.5" y="-247" font-family="Helvetica,sans-Serif" font-size="10.00">+</text>
<text text-anchor="start" x="100.5" y="-247" font-family="Helvetica,sans-Serif" font-size="10.00">World()</text>
<text text-anchor="start" x="87.5" y="-232" font-family="Helvetica,sans-Serif" font-size="10.00">+</text>
<text text-anchor="start" x="100.5" y="-232" font-family="Helvetica,sans-Serif" font-size="10.00">~World()</text>
<text text-anchor="start" x="87.5" y="-217" font-family="Helvetica,sans-Serif" font-size="10.00">+</text>
<text text-anchor="start" x="100.5" y="-217" font-family="Helvetica,sans-Serif" font-size="10.00">SPAN_NON_COPYABLE()</text>
<text text-anchor="start" x="87.5" y="-202" font-family="Helvetica,sans-Serif" font-size="10.00">+</text>
<text text-anchor="start" x="100.5" y="-202" font-family="Helvetica,sans-Serif" font-size="10.00">CreateEntity()</text>
<text text-anchor="start" x="87.5" y="-187" font-family="Helvetica,sans-Serif" font-size="10.00">+</text>
<text text-anchor="start" x="100.5" y="-187" font-family="Helvetica,sans-Serif" font-size="10.00">DestroyEntity()</text>
<text text-anchor="start" x="87.5" y="-172" font-family="Helvetica,sans-Serif" font-size="10.00">+</text>
<text text-anchor="start" x="100.5" y="-172" font-family="Helvetica,sans-Serif" font-size="10.00">IsAlive()</text>
<text text-anchor="start" x="87.5" y="-157" font-family="Helvetica,sans-Serif" font-size="10.00">+</text>
<text text-anchor="start" x="100.5" y="-157" font-family="Helvetica,sans-Serif" font-size="10.00">GetAllEntities()</text>
<text text-anchor="start" x="87.5" y="-142" font-family="Helvetica,sans-Serif" font-size="10.00">+</text>
<text text-anchor="start" x="100.5" y="-142" font-family="Helvetica,sans-Serif" font-size="10.00">Clear()</text>
<text text-anchor="start" x="87.5" y="-127" font-family="Helvetica,sans-Serif" font-size="10.00">+</text>
<text text-anchor="start" x="100.5" y="-127" font-family="Helvetica,sans-Serif" font-size="10.00">AddComponent()</text>
<text text-anchor="start" x="87.5" y="-112" font-family="Helvetica,sans-Serif" font-size="10.00">+</text>
<text text-anchor="start" x="100.5" y="-112" font-family="Helvetica,sans-Serif" font-size="10.00">RemoveComponent()</text>
<text text-anchor="start" x="100.5" y="-97" font-family="Helvetica,sans-Serif" font-size="10.00">ほか 8 件…</text>
<text text-anchor="start" x="90" y="-82" font-family="Helvetica,sans-Serif" font-size="10.00">&#45;</text>
<text text-anchor="start" x="100.5" y="-82" font-family="Helvetica,sans-Serif" font-size="10.00">MigrateEntity()</text>
<text text-anchor="start" x="90" y="-67" font-family="Helvetica,sans-Serif" font-size="10.00">&#45;</text>
<text text-anchor="start" x="100.5" y="-67" font-family="Helvetica,sans-Serif" font-size="10.00">GetComponentUnsafe()</text>
<text text-anchor="start" x="90" y="-52" font-family="Helvetica,sans-Serif" font-size="10.00">&#45;</text>
<text text-anchor="start" x="100.5" y="-52" font-family="Helvetica,sans-Serif" font-size="10.00">InitializeComponents()</text>
<text text-anchor="start" x="90" y="-37" font-family="Helvetica,sans-Serif" font-size="10.00">&#45;</text>
<text text-anchor="start" x="100.5" y="-37" font-family="Helvetica,sans-Serif" font-size="10.00">InitializeComponent()</text>
<text text-anchor="start" x="90" y="-22" font-family="Helvetica,sans-Serif" font-size="10.00">&#45;</text>
<text text-anchor="start" x="100.5" y="-22" font-family="Helvetica,sans-Serif" font-size="10.00">ProcessChunk_Impl()</text>
<text text-anchor="start" x="90" y="-7" font-family="Helvetica,sans-Serif" font-size="10.00">&#45;</text>
<text text-anchor="start" x="100.5" y="-7" font-family="Helvetica,sans-Serif" font-size="10.00">ProcessChunk()</text>
<polygon fill="#666666" stroke="#666666" points="83.5,-287 83.5,-287 221.5,-287 221.5,-287 83.5,-287"/>
<polygon fill="#666666" stroke="#666666" points="83.5,-257 83.5,-257 98.5,-257 98.5,-257 83.5,-257"/>
<polygon fill="#666666" stroke="#666666" points="98.5,-257 98.5,-257 221.5,-257 221.5,-257 98.5,-257"/>
<polygon fill="none" stroke="#666666" points="83.5,0 83.5,-304 221.5,-304 221.5,0 83.5,0"/>
</a>
</g>
</g>
<!-- Node2 -->
<g id="Node000002" class="node">
<title>Node2</title>
<g id="a_Node000002"><a xlink:href="classSpan_1_1EntityManager.html" target="_top" xlink:title="🆔 Entity IDの発行、破棄、有効性チェックを行う管理クラス。">
<polygon fill="white" stroke="transparent" points="145,-556 0,-556 0,-357 145,-357 145,-556"/>
<text text-anchor="start" x="22" y="-543.5" font-family="Helvetica,sans-Serif" font-size="10.00">Span::EntityManager</text>
<text text-anchor="start" x="7" y="-528.5" font-family="Helvetica,sans-Serif" font-size="10.00">&#45;</text>
<text text-anchor="start" x="17.5" y="-528.5" font-family="Helvetica,sans-Serif" font-size="10.00">generations</text>
<text text-anchor="start" x="7" y="-513.5" font-family="Helvetica,sans-Serif" font-size="10.00">&#45;</text>
<text text-anchor="start" x="17.5" y="-513.5" font-family="Helvetica,sans-Serif" font-size="10.00">freeIndices</text>
<text text-anchor="start" x="7" y="-498.5" font-family="Helvetica,sans-Serif" font-size="10.00">&#45;</text>
<text text-anchor="start" x="17.5" y="-498.5" font-family="Helvetica,sans-Serif" font-size="10.00">activeCount</text>
<text text-anchor="start" x="7" y="-483.5" font-family="Helvetica,sans-Serif" font-size="10.00">&#45;</text>
<text text-anchor="start" x="17.5" y="-483.5" font-family="Helvetica,sans-Serif" font-size="10.00">MINIMUM_FREE_INDICES</text>
<text text-anchor="start" x="7" y="-468.5" font-family="Helvetica,sans-Serif" font-size="10.00">&#45;</text>
<text text-anchor="start" x="17.5" y="-468.5" font-family="Helvetica,sans-Serif" font-size="10.00">INITIAL_CAPACITY</text>
<text text-anchor="start" x="4.5" y="-453.5" font-family="Helvetica,sans-Serif" font-size="10.00">+</text>
<text text-anchor="start" x="17.5" y="-453.5" font-family="Helvetica,sans-Serif" font-size="10.00">EntityManager()</text>
<text text-anchor="start" x="4.5" y="-438.5" font-family="Helvetica,sans-Serif" font-size="10.00">+</text>
<text text-anchor="start" x="17.5" y="-438.5" font-family="Helvetica,sans-Serif" font-size="10.00">~EntityManager()</text>
<text text-anchor="start" x="4.5" y="-423.5" font-family="Helvetica,sans-Serif" font-size="10.00">+</text>
<text text-anchor="start" x="17.5" y="-423.5" font-family="Helvetica,sans-Serif" font-size="10.00">SPAN_NON_COPYABLE()</text>
<text text-anchor="start" x="4.5" y="-408.5" font-family="Helvetica,sans-Serif" font-size="10.00">+</text>
<text text-anchor="start" x="17.5" y="-408.5" font-family="Helvetica,sans-Serif" font-size="10.00">CreateEntity()</text>
<text text-anchor="start" x="4.5" y="-393.5" font-family="Helvetica,sans-Serif" font-size="10.00">+</text>
<text text-anchor="start" x="17.5" y="-393.5" font-family="Helvetica,sans-Serif" font-size="10.00">DestroyEntity()</text>
<text text-anchor="start" x="4.5" y="-378.5" font-family="Helvetica,sans-Serif" font-size="10.00">+</text>
<text text-anchor="start" x="17.5" y="-378.5" font-family="Helvetica,sans-Serif" font-size="10.00">IsAlive()</text>
<text text-anchor="start" x="4.5" y="-363.5" font-family="Helvetica,sans-Serif" font-size="10.00">+</text>
<text text-anchor="start" x="17.5" y="-363.5" font-family="Helvetica,sans-Serif" font-size="10.00">GetActiveEntityCount()</text>
<polygon fill="#666666" stroke="#666666" points="0.5,-538.5 0.5,-538.5 145.5,-538.5 145.5,-538.5 0.5,-538.5"/>
<polygon fill="#666666" stroke="#666666" points="0.5,-463.5 0.5,-463.5 15.5,-463.5 15.5,-463.5 0.5,-463.5"/>
<polygon fill="#666666" stroke="#666666" points="15.5,-463.5 15.5,-463.5 145.5,-463.5 145.5,-463.5 15.5,-463.5"/>
<polygon fill="none" stroke="#666666" points="0,-357 0,-556 145,-556 145,-357 0,-357"/>
</a>
</g>
</g>
<!-- Node2&#45;&gt;Node1 -->
<g id="edge1_Node000001_Node000002" class="edge">
<title>Node2&#45;&gt;Node1</title>
<g id="a_edge1_Node000001_Node000002"><a xlink:title=" ">
<path fill="none" stroke="#63b8ff" d="M98.58,-356.87C102.08,-343.67 105.73,-329.86 109.42,-315.91"/>
<polygon fill="none" stroke="#63b8ff" points="109.45,-315.78 107.12,-308.96 112.52,-304.18 114.85,-311 109.45,-315.78"/>
</a>
</g>
<text text-anchor="start" x="111.5" y="-327.5" font-family="Helvetica,sans-Serif" font-size="10.00" fill="grey">&#45;entityManager</text>
</g>
<!-- Node3 -->
<g id="Node000003" class="node">
<title>Node3</title>
<g id="a_Node000003"><a xlink:href="classSpan_1_1ArchetypeManager.html" target="_top" xlink:title="🏭 アーキタイプファクトリー&amp;キャッシュ。">
<polygon fill="white" stroke="transparent" points="302,-503.5 163,-503.5 163,-409.5 302,-409.5 302,-503.5"/>
<text text-anchor="start" x="171.5" y="-491.5" font-family="Helvetica,sans-Serif" font-size="10.00">Span::ArchetypeManager</text>
<text text-anchor="start" x="170" y="-476.5" font-family="Helvetica,sans-Serif" font-size="10.00">&#45;</text>
<text text-anchor="start" x="180.5" y="-476.5" font-family="Helvetica,sans-Serif" font-size="10.00">archetypes</text>
<text text-anchor="start" x="167.5" y="-461.5" font-family="Helvetica,sans-Serif" font-size="10.00">+</text>
<text text-anchor="start" x="180.5" y="-461.5" font-family="Helvetica,sans-Serif" font-size="10.00">~ArchetypeManager()</text>
<text text-anchor="start" x="167.5" y="-446.5" font-family="Helvetica,sans-Serif" font-size="10.00">+</text>
<text text-anchor="start" x="180.5" y="-446.5" font-family="Helvetica,sans-Serif" font-size="10.00">GetOrCreateArchetype()</text>
<text text-anchor="start" x="167.5" y="-431.5" font-family="Helvetica,sans-Serif" font-size="10.00">+</text>
<text text-anchor="start" x="180.5" y="-431.5" font-family="Helvetica,sans-Serif" font-size="10.00">GetOrCreateArchetype()</text>
<text text-anchor="start" x="167.5" y="-416.5" font-family="Helvetica,sans-Serif" font-size="10.00">+</text>
<text text-anchor="start" x="180.5" y="-416.5" font-family="Helvetica,sans-Serif" font-size="10.00">GetAllArchetypes()</text>
<polygon fill="#666666" stroke="#666666" points="163.5,-486.5 163.5,-486.5 302.5,-486.5 302.5,-486.5 163.5,-486.5"/>
<polygon fill="#666666" stroke="#666666" points="163.5,-471.5 163.5,-471.5 178.5,-471.5 178.5,-471.5 163.5,-471.5"/>
<polygon fill="#666666" stroke="#666666" points="178.5,-471.5 178.5,-471.5 302.5,-471.5 302.5,-471.5 178.5,-471.5"/>
<polygon fill="none" stroke="#666666" points="163,-409.5 163,-503.5 302,-503.5 302,-409.5 163,-409.5"/>
</a>
</g>
</g>
<!-- Node3&#45;&gt;Node1 -->
<g id="edge2_Node000001_Node000003" class="edge">
<title>Node3&#45;&gt;Node1</title>
<g id="a_edge2_Node000001_Node000003"><a xlink:title=" ">
<path fill="none" stroke="#63b8ff" d="M220.26,-409.23C213.5,-383.65 204.65,-350.17 195.58,-315.89"/>
<polygon fill="none" stroke="#63b8ff" points="195.57,-315.85 190.17,-311.07 192.5,-304.25 197.9,-309.02 195.57,-315.85"/>
</a>
</g>
<text text-anchor="start" x="202.5" y="-327.5" font-family="Helvetica,sans-Serif" font-size="10.00" fill="grey">&#45;archetypeManager</text>
</g>
</g>
</svg>

<g id="navigator" transform="translate(0 0)" fill="#404254">
  <rect fill="#f2f5e9" fill-opacity="0.5" stroke="#606060" stroke-width=".5" x="0" y="0" width="60" height="60"/>
  <use id="zoomplus" xlink:href="#zoomPlus" x="17" y="9" onmousedown="handleZoom(evt,'in')"/>
  <use id="zoomminus" xlink:href="#zoomMin" x="42" y="9" onmousedown="handleZoom(evt,'out')"/>
  <use id="reset" xlink:href="#resetDef" x="30" y="36" onmousedown="handleReset()"/>
   <use id="arrowup" xlink:href="#arrowUp" x="0" y="0" onmousedown="handlePan(0,-1)"/>
  <use id="arrowright" xlink:href="#arrowRight" x="0" y="0" onmousedown="handlePan(1,0)"/>
  <use id="arrowdown" xlink:href="#arrowDown" x="0" y="0" onmousedown="handlePan(0,1)"/>
  <use id="arrowleft" xlink:href="#arrowLeft" x="0" y="0" onmousedown="handlePan(-1,0)"/>
</g>
<svg viewBox="0 0 15 15" width="100%" height="30px" preserveAspectRatio="xMaxYMin meet">
 <g id="arrow_out" transform="scale(0.3 0.3)">
  <a xlink:href="classSpan_1_1World__coll__graph_org.svg" target="_base">
   <rect id="button" ry="5" rx="5" y="6" x="6" height="38" width="38"
        fill="#f2f5e9" fill-opacity="0.5" stroke="#606060" stroke-width="1.0"/>
   <path id="arrow"
     d="M 11.500037,31.436501 C 11.940474,20.09759 22.043105,11.32322 32.158766,21.979434 L 37.068811,17.246167 C 37.068811,17.246167 37.088388,32 37.088388,32 L 22.160133,31.978069 C 22.160133,31.978069 26.997745,27.140456 26.997745,27.140456 C 18.528582,18.264221 13.291696,25.230495 11.500037,31.436501 z"
     style="fill:#404040;"/>
  </a>
 </g>
</svg>

<style type='text/css'>
<![CDATA[
[data-mouse-over-selected='false'] { opacity: 0.7; }
[data-mouse-over-selected='true']  { opacity: 1.0; }
]]>
</style>
<script type="application/ecmascript"><![CDATA[
document.addEventListener('DOMContentLoaded', (event) => {
  highlightEdges();
  highlightAdjacentNodes();
});
]]></script>
</svg>
