<?xml version="1.0" encoding="UTF-8" standalone="no"?>
<!DOCTYPE svg PUBLIC "-//W3C//DTD SVG 1.1//EN"
 "http://www.w3.org/Graphics/SVG/1.1/DTD/svg11.dtd">
<!-- Generated by graphviz version 2.43.0 (0)
 -->
<!-- Title: Span::EditorPanel Pages: 1 -->
<!--zoomable 577 -->

<svg id="main" version="1.1" xmlns="http://www.w3.org/2000/svg" xmlns:xlink="http://www.w3.org/1999/xlink" xml:space="preserve" onload="init(evt)">

<style type="text/css"><![CDATA[
.node, .edge {opacity: 0.7;}
.node.selected, .edge.selected {opacity: 1;}
.edge:hover path { stroke: red; }
.edge:hover polygon { stroke: red; fill: red; }
]]></style>

<defs>
  <circle id="rim" cx="0" cy="0" r="7"/>
  <circle id="rim2" cx="0" cy="0" r="3.5"/>
  <g id="zoomPlus">
    <use xlink:href="#rim" fill="#404040"><set attributeName="fill" to="#808080" begin="zoomplus.mouseover" end="zoomplus.mouseout"/></use>
    <path d="M-4,0h8M0,-4v8" fill="none" stroke="white" stroke-width="1.5" pointer-events="none"/>
  </g>
  <g id="zoomMin">
    <use xlink:href="#rim" fill="#404040"><set attributeName="fill" to="#808080" begin="zoomminus.mouseover" end="zoomminus.mouseout"/></use>
    <path d="M-4,0h8" fill="none" stroke="white" stroke-width="1.5" pointer-events="none"/>
  </g>
  <g id="arrowUp" transform="translate(30 24)">
    <use xlink:href="#rim"/>
    <path pointer-events="none" fill="none" stroke="white" stroke-width="1.5" d="M0,-3.0v7 M-2.5,-0.5L0,-3.0L2.5,-0.5"/>
  </g>
  <g id="arrowRight" transform="rotate(90) translate(36 -43)">
    <use xlink:href="#rim"/>
    <path pointer-events="none" fill="none" stroke="white" stroke-width="1.5" d="M0,-3.0v7 M-2.5,-0.5L0,-3.0L2.5,-0.5"/>
  </g>
  <g id="arrowDown" transform="rotate(180) translate(-30 -48)">
    <use xlink:href="#rim"/>
    <path pointer-events="none" fill="none" stroke="white" stroke-width="1.5" d="M0,-3.0v7 M-2.5,-0.5L0,-3.0L2.5,-0.5"/>
  </g>
  <g id="arrowLeft" transform="rotate(270) translate(-36 17)">
    <use xlink:href="#rim"/>
    <path pointer-events="none" fill="none" stroke="white" stroke-width="1.5" d="M0,-3.0v7 M-2.5,-0.5L0,-3.0L2.5,-0.5"/>
  </g>
  <g id="resetDef">
    <use xlink:href="#rim2" fill="#404040"><set attributeName="fill" to="#808080" begin="reset.mouseover" end="reset.mouseout"/></use>
  </g>
</defs>
<script type="application/ecmascript">
var viewWidth = 643;
var viewHeight = 577;
var sectionId = 'dynsection-0';
</script>
<script type="application/ecmascript" xlink:href="svg.min.js"/>
<svg id="graph" class="graph">
<g id="viewport">
<title>Span::EditorPanel</title>
<!-- Node1 -->
<g id="Node000001" class="node">
<title>Node1</title>
<g id="a_Node000001"><a xlink:title="🖼 全てのエディタパネルの基底クラス。">
<polygon fill="#999999" stroke="transparent" points="391.5,-569 285.5,-569 285.5,-430 391.5,-430 391.5,-569"/>
<text text-anchor="start" x="296" y="-556.5" font-family="Helvetica,sans-Serif" font-size="10.00">Span::EditorPanel</text>
<text text-anchor="start" x="289.5" y="-541.5" font-family="Helvetica,sans-Serif" font-size="10.00">+</text>
<text text-anchor="start" x="302.5" y="-541.5" font-family="Helvetica,sans-Serif" font-size="10.00">title</text>
<text text-anchor="start" x="289.5" y="-526.5" font-family="Helvetica,sans-Serif" font-size="10.00">+</text>
<text text-anchor="start" x="302.5" y="-526.5" font-family="Helvetica,sans-Serif" font-size="10.00">isOpen</text>
<text text-anchor="start" x="289.5" y="-511.5" font-family="Helvetica,sans-Serif" font-size="10.00">+</text>
<text text-anchor="start" x="302.5" y="-511.5" font-family="Helvetica,sans-Serif" font-size="10.00">EditorPanel()</text>
<text text-anchor="start" x="289.5" y="-496.5" font-family="Helvetica,sans-Serif" font-size="10.00">+</text>
<text text-anchor="start" x="302.5" y="-496.5" font-family="Helvetica,sans-Serif" font-size="10.00">~EditorPanel()</text>
<text text-anchor="start" x="289.5" y="-481.5" font-family="Helvetica,sans-Serif" font-size="10.00">+</text>
<text text-anchor="start" x="302.5" y="-481.5" font-family="Helvetica,sans-Serif" font-size="10.00">OnImGuiRender()</text>
<text text-anchor="start" x="289.5" y="-466.5" font-family="Helvetica,sans-Serif" font-size="10.00">+</text>
<text text-anchor="start" x="302.5" y="-466.5" font-family="Helvetica,sans-Serif" font-size="10.00">IsOpen()</text>
<text text-anchor="start" x="289.5" y="-451.5" font-family="Helvetica,sans-Serif" font-size="10.00">+</text>
<text text-anchor="start" x="302.5" y="-451.5" font-family="Helvetica,sans-Serif" font-size="10.00">Open()</text>
<text text-anchor="start" x="289.5" y="-436.5" font-family="Helvetica,sans-Serif" font-size="10.00">+</text>
<text text-anchor="start" x="302.5" y="-436.5" font-family="Helvetica,sans-Serif" font-size="10.00">Close()</text>
<polygon fill="#666666" stroke="#666666" points="285.5,-551.5 285.5,-551.5 391.5,-551.5 391.5,-551.5 285.5,-551.5"/>
<polygon fill="#666666" stroke="#666666" points="285.5,-521.5 285.5,-521.5 300.5,-521.5 300.5,-521.5 285.5,-521.5"/>
<polygon fill="#666666" stroke="#666666" points="300.5,-521.5 300.5,-521.5 391.5,-521.5 391.5,-521.5 300.5,-521.5"/>
<polygon fill="none" stroke="#666666" points="285.5,-430 285.5,-569 391.5,-569 391.5,-430 285.5,-430"/>
</a>
</g>
</g>
<!-- Node2 -->
<g id="Node000002" class="node">
<title>Node2</title>
<g id="a_Node000002"><a xlink:href="classSpan_1_1HierarchyPanel.html" target="_top" xlink:title="🌳 シーン上の全エンティティをツリー形式で表示するパネル。">
<polygon fill="white" stroke="transparent" points="181,-259 0,-259 0,-135 181,-135 181,-259"/>
<text text-anchor="start" x="39" y="-247" font-family="Helvetica,sans-Serif" font-size="10.00">Span::HierarchyPanel</text>
<text text-anchor="start" x="89" y="-232" font-family="Helvetica,sans-Serif" font-size="10.00"> </text>
<text text-anchor="start" x="4.5" y="-217" font-family="Helvetica,sans-Serif" font-size="10.00">+</text>
<text text-anchor="start" x="17.5" y="-217" font-family="Helvetica,sans-Serif" font-size="10.00">HierarchyPanel()</text>
<text text-anchor="start" x="4.5" y="-202" font-family="Helvetica,sans-Serif" font-size="10.00">+</text>
<text text-anchor="start" x="17.5" y="-202" font-family="Helvetica,sans-Serif" font-size="10.00">OnImGuiRender()</text>
<text text-anchor="start" x="7" y="-187" font-family="Helvetica,sans-Serif" font-size="10.00">&#45;</text>
<text text-anchor="start" x="17.5" y="-187" font-family="Helvetica,sans-Serif" font-size="10.00">DrawEntityNode()</text>
<text text-anchor="start" x="7" y="-172" font-family="Helvetica,sans-Serif" font-size="10.00">&#45;</text>
<text text-anchor="start" x="17.5" y="-172" font-family="Helvetica,sans-Serif" font-size="10.00">DrawContextMenu()</text>
<text text-anchor="start" x="7" y="-157" font-family="Helvetica,sans-Serif" font-size="10.00">&#45;</text>
<text text-anchor="start" x="17.5" y="-157" font-family="Helvetica,sans-Serif" font-size="10.00">DrawEmptySpaceContextMenu()</text>
<text text-anchor="start" x="7" y="-142" font-family="Helvetica,sans-Serif" font-size="10.00">&#45;</text>
<text text-anchor="start" x="17.5" y="-142" font-family="Helvetica,sans-Serif" font-size="10.00">HandleDragDrop()</text>
<polygon fill="#666666" stroke="#666666" points="0.5,-242 0.5,-242 181.5,-242 181.5,-242 0.5,-242"/>
<polygon fill="#666666" stroke="#666666" points="0.5,-227 0.5,-227 181.5,-227 181.5,-227 0.5,-227"/>
<polygon fill="none" stroke="#666666" points="0,-135 0,-259 181,-259 181,-135 0,-135"/>
</a>
</g>
</g>
<!-- Node1&#45;&gt;Node2 -->
<g id="edge1_Node000001_Node000002" class="edge">
<title>Node1&#45;&gt;Node2</title>
<g id="a_edge1_Node000001_Node000002"><a xlink:title=" ">
<path fill="none" stroke="#63b8ff" d="M276.42,-464.63C247.36,-446.52 213.86,-422.15 189.5,-394 155.07,-354.22 128.99,-300.37 112.27,-259.18"/>
<polygon fill="none" stroke="#63b8ff" points="274.92,-467.82 285.28,-470.05 278.57,-461.84 274.92,-467.82"/>
</a>
</g>
</g>
<!-- Node3 -->
<g id="Node000003" class="node">
<title>Node3</title>
<g id="a_Node000003"><a xlink:href="classSpan_1_1InspectorPanel.html" target="_top" xlink:title="🕵️ 選択中のEntityが持つコンポーネントを列挙し、編集UIを提供するパネル。">
<polygon fill="white" stroke="transparent" points="326,-236.5 199,-236.5 199,-157.5 326,-157.5 326,-236.5"/>
<text text-anchor="start" x="212" y="-224" font-family="Helvetica,sans-Serif" font-size="10.00">Span::InspectorPanel</text>
<text text-anchor="start" x="261" y="-209" font-family="Helvetica,sans-Serif" font-size="10.00"> </text>
<text text-anchor="start" x="203.5" y="-194" font-family="Helvetica,sans-Serif" font-size="10.00">+</text>
<text text-anchor="start" x="216.5" y="-194" font-family="Helvetica,sans-Serif" font-size="10.00">InspectorPanel()</text>
<text text-anchor="start" x="203.5" y="-179" font-family="Helvetica,sans-Serif" font-size="10.00">+</text>
<text text-anchor="start" x="216.5" y="-179" font-family="Helvetica,sans-Serif" font-size="10.00">OnImGuiRender()</text>
<text text-anchor="start" x="203.5" y="-164" font-family="Helvetica,sans-Serif" font-size="10.00">+</text>
<text text-anchor="start" x="216.5" y="-164" font-family="Helvetica,sans-Serif" font-size="10.00">DrawAssetInspector()</text>
<polygon fill="#666666" stroke="#666666" points="199.5,-219 199.5,-219 326.5,-219 326.5,-219 199.5,-219"/>
<polygon fill="#666666" stroke="#666666" points="199.5,-204 199.5,-204 326.5,-204 326.5,-204 199.5,-204"/>
<polygon fill="none" stroke="#666666" points="199,-157.5 199,-236.5 326,-236.5 326,-157.5 199,-157.5"/>
</a>
</g>
</g>
<!-- Node1&#45;&gt;Node3 -->
<g id="edge2_Node000001_Node000003" class="edge">
<title>Node1&#45;&gt;Node3</title>
<g id="a_edge2_Node000001_Node000003"><a xlink:title=" ">
<path fill="none" stroke="#63b8ff" d="M318.63,-419.92C303.73,-361.04 283.99,-282.97 272.33,-236.86"/>
<polygon fill="none" stroke="#63b8ff" points="315.31,-421.1 321.16,-429.94 322.1,-419.38 315.31,-421.1"/>
</a>
</g>
</g>
<!-- Node4 -->
<g id="Node000004" class="node">
<title>Node4</title>
<g id="a_Node000004"><a xlink:href="classSpan_1_1ProjectBrowserPanel.html" target="_top" xlink:title="アセットディレクトリの内容を表示し、ドラッグ&amp;ドロップ操作を提供するエディタパネル。">
<polygon fill="white" stroke="transparent" points="484.5,-394 344.5,-394 344.5,0 484.5,0 484.5,-394"/>
<text text-anchor="start" x="349.5" y="-382" font-family="Helvetica,sans-Serif" font-size="10.00">Span::ProjectBrowserPanel</text>
<text text-anchor="start" x="351" y="-367" font-family="Helvetica,sans-Serif" font-size="10.00">&#45;</text>
<text text-anchor="start" x="361.5" y="-367" font-family="Helvetica,sans-Serif" font-size="10.00">m_BaseDirectory</text>
<text text-anchor="start" x="351" y="-352" font-family="Helvetica,sans-Serif" font-size="10.00">&#45;</text>
<text text-anchor="start" x="361.5" y="-352" font-family="Helvetica,sans-Serif" font-size="10.00">m_CurrentDirectory</text>
<text text-anchor="start" x="351" y="-337" font-family="Helvetica,sans-Serif" font-size="10.00">&#45;</text>
<text text-anchor="start" x="361.5" y="-337" font-family="Helvetica,sans-Serif" font-size="10.00">m_BackHistory</text>
<text text-anchor="start" x="351" y="-322" font-family="Helvetica,sans-Serif" font-size="10.00">&#45;</text>
<text text-anchor="start" x="361.5" y="-322" font-family="Helvetica,sans-Serif" font-size="10.00">m_ForwardHistory</text>
<text text-anchor="start" x="351" y="-307" font-family="Helvetica,sans-Serif" font-size="10.00">&#45;</text>
<text text-anchor="start" x="361.5" y="-307" font-family="Helvetica,sans-Serif" font-size="10.00">m_UndoStack</text>
<text text-anchor="start" x="351" y="-292" font-family="Helvetica,sans-Serif" font-size="10.00">&#45;</text>
<text text-anchor="start" x="361.5" y="-292" font-family="Helvetica,sans-Serif" font-size="10.00">m_RedoStack</text>
<text text-anchor="start" x="351" y="-277" font-family="Helvetica,sans-Serif" font-size="10.00">&#45;</text>
<text text-anchor="start" x="361.5" y="-277" font-family="Helvetica,sans-Serif" font-size="10.00">m_ThumbnailSize</text>
<text text-anchor="start" x="351" y="-262" font-family="Helvetica,sans-Serif" font-size="10.00">&#45;</text>
<text text-anchor="start" x="361.5" y="-262" font-family="Helvetica,sans-Serif" font-size="10.00">m_Padding</text>
<text text-anchor="start" x="351" y="-247" font-family="Helvetica,sans-Serif" font-size="10.00">&#45;</text>
<text text-anchor="start" x="361.5" y="-247" font-family="Helvetica,sans-Serif" font-size="10.00">m_SearchFilter</text>
<text text-anchor="start" x="351" y="-232" font-family="Helvetica,sans-Serif" font-size="10.00">&#45;</text>
<text text-anchor="start" x="361.5" y="-232" font-family="Helvetica,sans-Serif" font-size="10.00">m_SelectedItems</text>
<text text-anchor="start" x="361.5" y="-217" font-family="Helvetica,sans-Serif" font-size="10.00">ほか 7 件…</text>
<text text-anchor="start" x="348.5" y="-202" font-family="Helvetica,sans-Serif" font-size="10.00">+</text>
<text text-anchor="start" x="361.5" y="-202" font-family="Helvetica,sans-Serif" font-size="10.00">ProjectBrowserPanel()</text>
<text text-anchor="start" x="348.5" y="-187" font-family="Helvetica,sans-Serif" font-size="10.00">+</text>
<text text-anchor="start" x="361.5" y="-187" font-family="Helvetica,sans-Serif" font-size="10.00">~ProjectBrowserPanel()</text>
<text text-anchor="start" x="348.5" y="-172" font-family="Helvetica,sans-Serif" font-size="10.00">+</text>
<text text-anchor="start" x="361.5" y="-172" font-family="Helvetica,sans-Serif" font-size="10.00">OnImGuiRender()</text>
<text text-anchor="start" x="351" y="-157" font-family="Helvetica,sans-Serif" font-size="10.00">&#45;</text>
<text text-anchor="start" x="361.5" y="-157" font-family="Helvetica,sans-Serif" font-size="10.00">DrawNavBar()</text>
<text text-anchor="start" x="351" y="-142" font-family="Helvetica,sans-Serif" font-size="10.00">&#45;</text>
<text text-anchor="start" x="361.5" y="-142" font-family="Helvetica,sans-Serif" font-size="10.00">DrawDirectoryTree()</text>
<text text-anchor="start" x="351" y="-127" font-family="Helvetica,sans-Serif" font-size="10.00">&#45;</text>
<text text-anchor="start" x="361.5" y="-127" font-family="Helvetica,sans-Serif" font-size="10.00">DrawTreeNode()</text>
<text text-anchor="start" x="351" y="-112" font-family="Helvetica,sans-Serif" font-size="10.00">&#45;</text>
<text text-anchor="start" x="361.5" y="-112" font-family="Helvetica,sans-Serif" font-size="10.00">DrawContentArea()</text>
<text text-anchor="start" x="351" y="-97" font-family="Helvetica,sans-Serif" font-size="10.00">&#45;</text>
<text text-anchor="start" x="361.5" y="-97" font-family="Helvetica,sans-Serif" font-size="10.00">DrawEntryItem()</text>
<text text-anchor="start" x="351" y="-82" font-family="Helvetica,sans-Serif" font-size="10.00">&#45;</text>
<text text-anchor="start" x="361.5" y="-82" font-family="Helvetica,sans-Serif" font-size="10.00">DrawContextMenu()</text>
<text text-anchor="start" x="351" y="-67" font-family="Helvetica,sans-Serif" font-size="10.00">&#45;</text>
<text text-anchor="start" x="361.5" y="-67" font-family="Helvetica,sans-Serif" font-size="10.00">HandleKeyboardInputs()</text>
<text text-anchor="start" x="351" y="-52" font-family="Helvetica,sans-Serif" font-size="10.00">&#45;</text>
<text text-anchor="start" x="361.5" y="-52" font-family="Helvetica,sans-Serif" font-size="10.00">SelectItem()</text>
<text text-anchor="start" x="351" y="-37" font-family="Helvetica,sans-Serif" font-size="10.00">&#45;</text>
<text text-anchor="start" x="361.5" y="-37" font-family="Helvetica,sans-Serif" font-size="10.00">SelectRange()</text>
<text text-anchor="start" x="351" y="-22" font-family="Helvetica,sans-Serif" font-size="10.00">&#45;</text>
<text text-anchor="start" x="361.5" y="-22" font-family="Helvetica,sans-Serif" font-size="10.00">ChangeDirectory()</text>
<text text-anchor="start" x="361.5" y="-7" font-family="Helvetica,sans-Serif" font-size="10.00">ほか 10 件…</text>
<polygon fill="#666666" stroke="#666666" points="344.5,-377 344.5,-377 484.5,-377 484.5,-377 344.5,-377"/>
<polygon fill="#666666" stroke="#666666" points="344.5,-212 344.5,-212 359.5,-212 359.5,-212 344.5,-212"/>
<polygon fill="#666666" stroke="#666666" points="359.5,-212 359.5,-212 484.5,-212 484.5,-212 359.5,-212"/>
<polygon fill="none" stroke="#666666" points="344.5,0 344.5,-394 484.5,-394 484.5,0 344.5,0"/>
</a>
</g>
</g>
<!-- Node1&#45;&gt;Node4 -->
<g id="edge3_Node000001_Node000004" class="edge">
<title>Node1&#45;&gt;Node4</title>
<g id="a_edge3_Node000001_Node000004"><a xlink:title=" ">
<path fill="none" stroke="#63b8ff" d="M358.34,-420.04C360.44,-411.76 362.63,-403.11 364.87,-394.22"/>
<polygon fill="none" stroke="#63b8ff" points="354.9,-419.38 355.84,-429.94 361.69,-421.1 354.9,-419.38"/>
</a>
</g>
</g>
<!-- Node5 -->
<g id="Node000005" class="node">
<title>Node5</title>
<g id="a_Node000005"><a xlink:href="classSpan_1_1SceneViewPanel.html" target="_top" xlink:title="🎥 ゲームの描画結果を表示し、オブジェクト操作(Gizmo)を提供するクラス。">
<polygon fill="white" stroke="transparent" points="634.5,-356.5 502.5,-356.5 502.5,-37.5 634.5,-37.5 634.5,-356.5"/>
<text text-anchor="start" x="513.5" y="-344" font-family="Helvetica,sans-Serif" font-size="10.00">Span::SceneViewPanel</text>
<text text-anchor="start" x="509" y="-329" font-family="Helvetica,sans-Serif" font-size="10.00">&#45;</text>
<text text-anchor="start" x="519.5" y="-329" font-family="Helvetica,sans-Serif" font-size="10.00">textureHandle</text>
<text text-anchor="start" x="509" y="-314" font-family="Helvetica,sans-Serif" font-size="10.00">&#45;</text>
<text text-anchor="start" x="519.5" y="-314" font-family="Helvetica,sans-Serif" font-size="10.00">m_PanelSize</text>
<text text-anchor="start" x="509" y="-299" font-family="Helvetica,sans-Serif" font-size="10.00">&#45;</text>
<text text-anchor="start" x="519.5" y="-299" font-family="Helvetica,sans-Serif" font-size="10.00">m_TargetResolution</text>
<text text-anchor="start" x="509" y="-284" font-family="Helvetica,sans-Serif" font-size="10.00">&#45;</text>
<text text-anchor="start" x="519.5" y="-284" font-family="Helvetica,sans-Serif" font-size="10.00">m_GizmoType</text>
<text text-anchor="start" x="509" y="-269" font-family="Helvetica,sans-Serif" font-size="10.00">&#45;</text>
<text text-anchor="start" x="519.5" y="-269" font-family="Helvetica,sans-Serif" font-size="10.00">m_GizmoMode</text>
<text text-anchor="start" x="509" y="-254" font-family="Helvetica,sans-Serif" font-size="10.00">&#45;</text>
<text text-anchor="start" x="519.5" y="-254" font-family="Helvetica,sans-Serif" font-size="10.00">m_UseSnap</text>
<text text-anchor="start" x="509" y="-239" font-family="Helvetica,sans-Serif" font-size="10.00">&#45;</text>
<text text-anchor="start" x="519.5" y="-239" font-family="Helvetica,sans-Serif" font-size="10.00">m_SnapValueMove</text>
<text text-anchor="start" x="509" y="-224" font-family="Helvetica,sans-Serif" font-size="10.00">&#45;</text>
<text text-anchor="start" x="519.5" y="-224" font-family="Helvetica,sans-Serif" font-size="10.00">m_SnapValueRotate</text>
<text text-anchor="start" x="509" y="-209" font-family="Helvetica,sans-Serif" font-size="10.00">&#45;</text>
<text text-anchor="start" x="519.5" y="-209" font-family="Helvetica,sans-Serif" font-size="10.00">m_SnapValueScale</text>
<text text-anchor="start" x="509" y="-194" font-family="Helvetica,sans-Serif" font-size="10.00">&#45;</text>
<text text-anchor="start" x="519.5" y="-194" font-family="Helvetica,sans-Serif" font-size="10.00">m_AspectRatio</text>
<text text-anchor="start" x="509" y="-179" font-family="Helvetica,sans-Serif" font-size="10.00">&#45;</text>
<text text-anchor="start" x="519.5" y="-179" font-family="Helvetica,sans-Serif" font-size="10.00">m_LastMoveSpeed</text>
<text text-anchor="start" x="509" y="-164" font-family="Helvetica,sans-Serif" font-size="10.00">&#45;</text>
<text text-anchor="start" x="519.5" y="-164" font-family="Helvetica,sans-Serif" font-size="10.00">m_SpeedDisplayTimer</text>
<text text-anchor="start" x="506.5" y="-149" font-family="Helvetica,sans-Serif" font-size="10.00">+</text>
<text text-anchor="start" x="519.5" y="-149" font-family="Helvetica,sans-Serif" font-size="10.00">SceneViewPanel()</text>
<text text-anchor="start" x="506.5" y="-134" font-family="Helvetica,sans-Serif" font-size="10.00">+</text>
<text text-anchor="start" x="519.5" y="-134" font-family="Helvetica,sans-Serif" font-size="10.00">OnImGuiRender()</text>
<text text-anchor="start" x="506.5" y="-119" font-family="Helvetica,sans-Serif" font-size="10.00">+</text>
<text text-anchor="start" x="519.5" y="-119" font-family="Helvetica,sans-Serif" font-size="10.00">SetTexture()</text>
<text text-anchor="start" x="506.5" y="-104" font-family="Helvetica,sans-Serif" font-size="10.00">+</text>
<text text-anchor="start" x="519.5" y="-104" font-family="Helvetica,sans-Serif" font-size="10.00">GetTargetResolution()</text>
<text text-anchor="start" x="509" y="-89" font-family="Helvetica,sans-Serif" font-size="10.00">&#45;</text>
<text text-anchor="start" x="519.5" y="-89" font-family="Helvetica,sans-Serif" font-size="10.00">DrawToolbarOverlay()</text>
<text text-anchor="start" x="509" y="-74" font-family="Helvetica,sans-Serif" font-size="10.00">&#45;</text>
<text text-anchor="start" x="519.5" y="-74" font-family="Helvetica,sans-Serif" font-size="10.00">DrawGizmo()</text>
<text text-anchor="start" x="509" y="-59" font-family="Helvetica,sans-Serif" font-size="10.00">&#45;</text>
<text text-anchor="start" x="519.5" y="-59" font-family="Helvetica,sans-Serif" font-size="10.00">CalculateImageArea()</text>
<text text-anchor="start" x="509" y="-44" font-family="Helvetica,sans-Serif" font-size="10.00">&#45;</text>
<text text-anchor="start" x="519.5" y="-44" font-family="Helvetica,sans-Serif" font-size="10.00">OnAssetDropped()</text>
<polygon fill="#666666" stroke="#666666" points="502.5,-339 502.5,-339 634.5,-339 634.5,-339 502.5,-339"/>
<polygon fill="#666666" stroke="#666666" points="502.5,-159 502.5,-159 517.5,-159 517.5,-159 502.5,-159"/>
<polygon fill="#666666" stroke="#666666" points="517.5,-159 517.5,-159 634.5,-159 634.5,-159 517.5,-159"/>
<polygon fill="none" stroke="#666666" points="502.5,-37.5 502.5,-356.5 634.5,-356.5 634.5,-37.5 502.5,-37.5"/>
</a>
</g>
</g>
<!-- Node1&#45;&gt;Node5 -->
<g id="edge4_Node000001_Node000005" class="edge">
<title>Node1&#45;&gt;Node5</title>
<g id="a_edge4_Node000001_Node000005"><a xlink:title=" ">
<path fill="none" stroke="#63b8ff" d="M400.88,-468.24C432.26,-450.35 468.78,-425.1 493.5,-394 502.57,-382.59 510.63,-369.96 517.79,-356.77"/>
<polygon fill="none" stroke="#63b8ff" points="398.78,-465.4 391.75,-473.32 402.19,-471.51 398.78,-465.4"/>
</a>
</g>
</g>
</g>
</svg>

<g id="navigator" transform="translate(0 0)" fill="#404254">
  <rect fill="#f2f5e9" fill-opacity="0.5" stroke="#606060" stroke-width=".5" x="0" y="0" width="60" height="60"/>
  <use id="zoomplus" xlink:href="#zoomPlus" x="17" y="9" onmousedown="handleZoom(evt,'in')"/>
  <use id="zoomminus" xlink:href="#zoomMin" x="42" y="9" onmousedown="handleZoom(evt,'out')"/>
  <use id="reset" xlink:href="#resetDef" x="30" y="36" onmousedown="handleReset()"/>
   <use id="arrowup" xlink:href="#arrowUp" x="0" y="0" onmousedown="handlePan(0,-1)"/>
  <use id="arrowright" xlink:href="#arrowRight" x="0" y="0" onmousedown="handlePan(1,0)"/>
  <use id="arrowdown" xlink:href="#arrowDown" x="0" y="0" onmousedown="handlePan(0,1)"/>
  <use id="arrowleft" xlink:href="#arrowLeft" x="0" y="0" onmousedown="handlePan(-1,0)"/>
</g>
<svg viewBox="0 0 15 15" width="100%" height="30px" preserveAspectRatio="xMaxYMin meet">
 <g id="arrow_out" transform="scale(0.3 0.3)">
  <a xlink:href="classSpan_1_1EditorPanel__inherit__graph_org.svg" target="_base">
   <rect id="button" ry="5" rx="5" y="6" x="6" height="38" width="38"
        fill="#f2f5e9" fill-opacity="0.5" stroke="#606060" stroke-width="1.0"/>
   <path id="arrow"
     d="M 11.500037,31.436501 C 11.940474,20.09759 22.043105,11.32322 32.158766,21.979434 L 37.068811,17.246167 C 37.068811,17.246167 37.088388,32 37.088388,32 L 22.160133,31.978069 C 22.160133,31.978069 26.997745,27.140456 26.997745,27.140456 C 18.528582,18.264221 13.291696,25.230495 11.500037,31.436501 z"
     style="fill:#404040;"/>
  </a>
 </g>
</svg>

<style type='text/css'>
<![CDATA[
[data-mouse-over-selected='false'] { opacity: 0.7; }
[data-mouse-over-selected='true']  { opacity: 1.0; }
]]>
</style>
<script type="application/ecmascript"><![CDATA[
document.addEventListener('DOMContentLoaded', (event) => {
  highlightEdges();
  highlightAdjacentNodes();
});
]]></script>
</svg>
