<?xml version="1.0" encoding="UTF-8" standalone="no"?>
<!DOCTYPE svg PUBLIC "-//W3C//DTD SVG 1.1//EN"
 "http://www.w3.org/Graphics/SVG/1.1/DTD/svg11.dtd">
<!-- Generated by graphviz version 2.43.0 (0)
 -->
<!-- Title: Span::Application::Get Pages: 1 -->
<svg width="685pt" height="478pt"
 viewBox="0.00 0.00 685.00 478.00" xmlns="http://www.w3.org/2000/svg" xmlns:xlink="http://www.w3.org/1999/xlink">
<g id="graph0" class="graph" transform="scale(1 1) rotate(0) translate(4 474)">
<title>Span::Application::Get</title>
<!-- Node1 -->
<g id="Node000001" class="node">
<title>Node1</title>
<g id="a_Node000001"><a xlink:title="シングルトンインスタンスの取得">
<polygon fill="#999999" stroke="#666666" points="677,-254.5 552,-254.5 552,-235.5 677,-235.5 677,-254.5"/>
<text text-anchor="middle" x="614.5" y="-242.5" font-family="Helvetica,sans-Serif" font-size="10.00">Span::Application::Get</text>
</a>
</g>
</g>
<!-- Node2 -->
<g id="Node000002" class="node">
<title>Node2</title>
<g id="a_Node000002"><a xlink:href="classSpan_1_1HierarchyPanel.html#a331d846c46df5f3346cfc7bb8c7a8e76" target="_top" xlink:title="エンティティ上での右クリックメニューを描画します。">
<polygon fill="white" stroke="#666666" points="501,-470 381,-470 381,-440 501,-440 501,-470"/>
<text text-anchor="start" x="389" y="-458" font-family="Helvetica,sans-Serif" font-size="10.00">Span::HierarchyPanel</text>
<text text-anchor="middle" x="441" y="-447" font-family="Helvetica,sans-Serif" font-size="10.00">::DrawContextMenu</text>
</a>
</g>
</g>
<!-- Node1&#45;&gt;Node2 -->
<g id="edge1_Node000001_Node000002" class="edge">
<title>Node1&#45;&gt;Node2</title>
<g id="a_edge1_Node000001_Node000002"><a xlink:title=" ">
<path fill="none" stroke="#63b8ff" d="M607.9,-264.69C596.53,-301.36 567.32,-380.52 516,-426 509.7,-431.58 502.2,-436.15 494.43,-439.87"/>
<polygon fill="#63b8ff" stroke="#63b8ff" points="611.36,-265.34 610.87,-254.76 604.66,-263.34 611.36,-265.34"/>
</a>
</g>
</g>
<!-- Node3 -->
<g id="Node000003" class="node">
<title>Node3</title>
<g id="a_Node000003"><a xlink:href="classSpan_1_1HierarchyPanel.html#a2c08f8c6e0cafaed96f7846d76ff2b09" target="_top" xlink:title="1つのエンティティとその子孫を再帰的に描画します。">
<polygon fill="white" stroke="#666666" points="303,-405 183,-405 183,-375 303,-375 303,-405"/>
<text text-anchor="start" x="191" y="-393" font-family="Helvetica,sans-Serif" font-size="10.00">Span::HierarchyPanel</text>
<text text-anchor="middle" x="243" y="-382" font-family="Helvetica,sans-Serif" font-size="10.00">::DrawEntityNode</text>
</a>
</g>
</g>
<!-- Node1&#45;&gt;Node3 -->
<g id="edge7_Node000001_Node000003" class="edge">
<title>Node1&#45;&gt;Node3</title>
<g id="a_edge7_Node000001_Node000003"><a xlink:title=" ">
<path fill="none" stroke="#63b8ff" d="M607.57,-264.18C596.09,-297.54 567.33,-365.35 516,-393 447.71,-429.79 355.08,-418.13 297.46,-405.06"/>
<polygon fill="#63b8ff" stroke="#63b8ff" points="610.9,-265.24 610.7,-254.65 604.25,-263.06 610.9,-265.24"/>
</a>
</g>
</g>
<!-- Node4 -->
<g id="Node000004" class="node">
<title>Node4</title>
<g id="a_Node000004"><a xlink:href="classSpan_1_1HierarchyPanel.html#a6481eb57cd9f45cb3a094a26f35bbaa0" target="_top" xlink:title="毎フレーム呼ばれる描画関数。">
<polygon fill="white" stroke="#666666" points="120,-341 0,-341 0,-311 120,-311 120,-341"/>
<text text-anchor="start" x="8" y="-329" font-family="Helvetica,sans-Serif" font-size="10.00">Span::HierarchyPanel</text>
<text text-anchor="middle" x="60" y="-318" font-family="Helvetica,sans-Serif" font-size="10.00">::OnImGuiRender</text>
</a>
</g>
</g>
<!-- Node1&#45;&gt;Node4 -->
<g id="edge12_Node000001_Node000004" class="edge">
<title>Node1&#45;&gt;Node4</title>
<g id="a_edge12_Node000001_Node000004"><a xlink:title=" ">
<path fill="none" stroke="#63b8ff" d="M587.88,-259.37C568.7,-269.42 541.48,-282.22 516,-289 377.76,-325.8 208.26,-329.1 120.31,-327.85"/>
<polygon fill="#63b8ff" stroke="#63b8ff" points="589.71,-262.36 596.87,-254.55 586.4,-256.19 589.71,-262.36"/>
</a>
</g>
</g>
<!-- Node5 -->
<g id="Node000005" class="node">
<title>Node5</title>
<g id="a_Node000005"><a xlink:href="classSpan_1_1HierarchyPanel.html#a04888145be2266ef8385e234b79ec53a" target="_top" xlink:title="何もない場所での右クリックメニュー (新規作成など) を描画します。">
<polygon fill="white" stroke="#666666" points="330,-298 156,-298 156,-268 330,-268 330,-298"/>
<text text-anchor="start" x="164" y="-286" font-family="Helvetica,sans-Serif" font-size="10.00">Span::HierarchyPanel</text>
<text text-anchor="middle" x="243" y="-275" font-family="Helvetica,sans-Serif" font-size="10.00">::DrawEmptySpaceContextMenu</text>
</a>
</g>
</g>
<!-- Node1&#45;&gt;Node5 -->
<g id="edge5_Node000001_Node000005" class="edge">
<title>Node1&#45;&gt;Node5</title>
<g id="a_edge5_Node000001_Node000005"><a xlink:title=" ">
<path fill="none" stroke="#63b8ff" d="M571.61,-257.16C554.51,-261.64 534.45,-266.28 516,-269 454.25,-278.1 383.86,-281.54 330.17,-282.74"/>
<polygon fill="#63b8ff" stroke="#63b8ff" points="572.56,-260.53 581.31,-254.56 570.74,-253.77 572.56,-260.53"/>
</a>
</g>
</g>
<!-- Node6 -->
<g id="Node000006" class="node">
<title>Node6</title>
<g id="a_Node000006"><a xlink:href="classSpan_1_1SceneViewPanel.html#ad83a4a55f083c75371d0873322808796" target="_top" xlink:title="選択中のオブジェクトに対してマニピュレータ (矢印など) を描画します。">
<polygon fill="white" stroke="#666666" points="504,-260 378,-260 378,-230 504,-230 504,-260"/>
<text text-anchor="start" x="386" y="-248" font-family="Helvetica,sans-Serif" font-size="10.00">Span::SceneViewPanel</text>
<text text-anchor="middle" x="441" y="-237" font-family="Helvetica,sans-Serif" font-size="10.00">::DrawGizmo</text>
</a>
</g>
</g>
<!-- Node1&#45;&gt;Node6 -->
<g id="edge8_Node000001_Node000006" class="edge">
<title>Node1&#45;&gt;Node6</title>
<g id="a_edge8_Node000001_Node000006"><a xlink:title=" ">
<path fill="none" stroke="#63b8ff" d="M541.31,-245C528.94,-245 516.19,-245 504.11,-245"/>
<polygon fill="#63b8ff" stroke="#63b8ff" points="541.58,-248.5 551.58,-245 541.58,-241.5 541.58,-248.5"/>
</a>
</g>
</g>
<!-- Node7 -->
<g id="Node000007" class="node">
<title>Node7</title>
<g id="a_Node000007"><a xlink:href="classSpan_1_1SceneViewPanel.html#aab2935de58bd68267a680cabd3656c9f" target="_top" xlink:title="毎フレームの描画処理。 画像の表示、ツールバーのオーバーレイ、ギズモの描画を行います。">
<polygon fill="white" stroke="#666666" points="306,-234 180,-234 180,-204 306,-204 306,-234"/>
<text text-anchor="start" x="188" y="-222" font-family="Helvetica,sans-Serif" font-size="10.00">Span::SceneViewPanel</text>
<text text-anchor="middle" x="243" y="-211" font-family="Helvetica,sans-Serif" font-size="10.00">::OnImGuiRender</text>
</a>
</g>
</g>
<!-- Node1&#45;&gt;Node7 -->
<g id="edge14_Node000001_Node000007" class="edge">
<title>Node1&#45;&gt;Node7</title>
<g id="a_edge14_Node000001_Node000007"><a xlink:title=" ">
<path fill="none" stroke="#63b8ff" d="M572.87,-232.74C555.52,-228.1 534.94,-223.37 516,-221 444.42,-212.05 361.42,-213.07 306.12,-215.35"/>
<polygon fill="#63b8ff" stroke="#63b8ff" points="572.1,-236.16 582.67,-235.45 573.96,-229.41 572.1,-236.16"/>
</a>
</g>
</g>
<!-- Node8 -->
<g id="Node000008" class="node">
<title>Node8</title>
<g id="a_Node000008"><a xlink:href="classSpan_1_1HierarchyPanel.html#af958ff25d0ba0576ae4848bbd01b2031" target="_top" xlink:title="ドラッグ&amp;ドロップの受け入れ処理 (親子付け替え・並び替え)。">
<polygon fill="white" stroke="#666666" points="501,-384 381,-384 381,-354 501,-354 501,-384"/>
<text text-anchor="start" x="389" y="-372" font-family="Helvetica,sans-Serif" font-size="10.00">Span::HierarchyPanel</text>
<text text-anchor="middle" x="441" y="-361" font-family="Helvetica,sans-Serif" font-size="10.00">::HandleDragDrop</text>
</a>
</g>
</g>
<!-- Node1&#45;&gt;Node8 -->
<g id="edge10_Node000001_Node000008" class="edge">
<title>Node1&#45;&gt;Node8</title>
<g id="a_edge10_Node000001_Node000008"><a xlink:title=" ">
<path fill="none" stroke="#63b8ff" d="M599.47,-262.4C581.87,-283.27 549.86,-318.15 516,-340 507.65,-345.39 498.15,-350.04 488.79,-353.94"/>
<polygon fill="#63b8ff" stroke="#63b8ff" points="602.21,-264.58 605.89,-254.64 596.82,-260.11 602.21,-264.58"/>
</a>
</g>
</g>
<!-- Node9 -->
<g id="Node000009" class="node">
<title>Node9</title>
<g id="a_Node000009"><a xlink:href="classSpan_1_1InspectorPanel.html#ae32fda6018a2e54f880e6708ac5b89fe" target="_top" xlink:title="毎フレーム呼ばれる描画関数。">
<polygon fill="white" stroke="#666666" points="500,-174 382,-174 382,-144 500,-144 500,-174"/>
<text text-anchor="start" x="390" y="-162" font-family="Helvetica,sans-Serif" font-size="10.00">Span::InspectorPanel</text>
<text text-anchor="middle" x="441" y="-151" font-family="Helvetica,sans-Serif" font-size="10.00">::OnImGuiRender</text>
</a>
</g>
</g>
<!-- Node1&#45;&gt;Node9 -->
<g id="edge13_Node000001_Node000009" class="edge">
<title>Node1&#45;&gt;Node9</title>
<g id="a_edge13_Node000001_Node000009"><a xlink:title=" ">
<path fill="none" stroke="#63b8ff" d="M590.22,-230C570.81,-217.84 542.2,-200.7 516,-188 505.82,-183.07 494.57,-178.32 483.97,-174.14"/>
<polygon fill="#63b8ff" stroke="#63b8ff" points="588.38,-232.98 598.7,-235.37 592.12,-227.06 588.38,-232.98"/>
</a>
</g>
</g>
<!-- Node10 -->
<g id="Node000010" class="node">
<title>Node10</title>
<g id="a_Node000010"><a xlink:href="classSpan_1_1CameraSystem.html#a7f4bf0245dedd7a6245ef352246f7391" target="_top" xlink:title="毎フレーム呼び出されます。ここにゲームロジックを記述します。">
<polygon fill="white" stroke="#666666" points="502,-126 380,-126 380,-96 502,-96 502,-126"/>
<text text-anchor="start" x="388" y="-114" font-family="Helvetica,sans-Serif" font-size="10.00">Span::CameraSystem</text>
<text text-anchor="middle" x="441" y="-103" font-family="Helvetica,sans-Serif" font-size="10.00">::OnUpdate</text>
</a>
</g>
</g>
<!-- Node1&#45;&gt;Node10 -->
<g id="edge15_Node000001_Node000010" class="edge">
<title>Node1&#45;&gt;Node10</title>
<g id="a_edge15_Node000001_Node000010"><a xlink:title=" ">
<path fill="none" stroke="#63b8ff" d="M601.81,-226.56C585.45,-202.21 553.51,-159.55 516,-135 510.8,-131.6 505.08,-128.64 499.2,-126.08"/>
<polygon fill="#63b8ff" stroke="#63b8ff" points="599.06,-228.76 607.47,-235.21 604.92,-224.92 599.06,-228.76"/>
</a>
</g>
</g>
<!-- Node11 -->
<g id="Node000011" class="node">
<title>Node11</title>
<g id="a_Node000011"><a xlink:href="classSpan_1_1EditorCameraSystem.html#ae933964fa5d0f299954c926cf63e091a" target="_top" xlink:title="毎フレーム呼び出されます。ここにゲームロジックを記述します。">
<polygon fill="white" stroke="#666666" points="516,-78 366,-78 366,-48 516,-48 516,-78"/>
<text text-anchor="start" x="374" y="-66" font-family="Helvetica,sans-Serif" font-size="10.00">Span::EditorCameraSystem</text>
<text text-anchor="middle" x="441" y="-55" font-family="Helvetica,sans-Serif" font-size="10.00">::OnUpdate</text>
</a>
</g>
</g>
<!-- Node1&#45;&gt;Node11 -->
<g id="edge16_Node000001_Node000011" class="edge">
<title>Node1&#45;&gt;Node11</title>
<g id="a_edge16_Node000001_Node000011"><a xlink:title=" ">
<path fill="none" stroke="#63b8ff" d="M606.72,-225.71C594.09,-192.52 563.81,-124.55 516,-87 511.65,-83.58 506.79,-80.64 501.7,-78.11"/>
<polygon fill="#63b8ff" stroke="#63b8ff" points="603.47,-227.01 610.2,-235.19 610.04,-224.59 603.47,-227.01"/>
</a>
</g>
</g>
<!-- Node12 -->
<g id="Node000012" class="node">
<title>Node12</title>
<g id="a_Node000012"><a xlink:href="classSpan_1_1RenderingSystem.html#aa0113a8f2b55129115c4da2c6ba449c4" target="_top" xlink:title="毎フレーム呼び出されます。ここにゲームロジックを記述します。">
<polygon fill="white" stroke="#666666" points="507.5,-30 374.5,-30 374.5,0 507.5,0 507.5,-30"/>
<text text-anchor="start" x="382.5" y="-18" font-family="Helvetica,sans-Serif" font-size="10.00">Span::RenderingSystem</text>
<text text-anchor="middle" x="441" y="-7" font-family="Helvetica,sans-Serif" font-size="10.00">::OnUpdate</text>
</a>
</g>
</g>
<!-- Node1&#45;&gt;Node12 -->
<g id="edge17_Node000001_Node000012" class="edge">
<title>Node1&#45;&gt;Node12</title>
<g id="a_edge17_Node000001_Node000012"><a xlink:title=" ">
<path fill="none" stroke="#63b8ff" d="M609.61,-225.12C600.59,-184.26 574.4,-90.34 516,-39 512.04,-35.52 507.58,-32.55 502.84,-30"/>
<polygon fill="#63b8ff" stroke="#63b8ff" points="606.24,-226.09 611.71,-235.16 613.09,-224.66 606.24,-226.09"/>
</a>
</g>
</g>
<!-- Node2&#45;&gt;Node3 -->
<g id="edge2_Node000002_Node000003" class="edge">
<title>Node2&#45;&gt;Node3</title>
<g id="a_edge2_Node000002_Node000003"><a xlink:title=" ">
<path fill="none" stroke="#63b8ff" d="M385.02,-436.77C354.91,-426.78 318.04,-414.55 289.55,-405.11"/>
<polygon fill="#63b8ff" stroke="#63b8ff" points="383.95,-440.1 394.54,-439.92 386.15,-433.45 383.95,-440.1"/>
</a>
</g>
</g>
<!-- Node3&#45;&gt;Node3 -->
<g id="edge3_Node000003_Node000003" class="edge">
<title>Node3&#45;&gt;Node3</title>
<g id="a_edge3_Node000003_Node000003"><a xlink:title=" ">
<path fill="none" stroke="#63b8ff" d="M274.86,-415.6C270.5,-419.97 259.88,-423 243,-423 214.56,-423 203.9,-414.41 211.01,-405.28"/>
<polygon fill="#63b8ff" stroke="#63b8ff" points="278.36,-415.32 274.99,-405.28 271.36,-415.23 278.36,-415.32"/>
</a>
</g>
</g>
<!-- Node3&#45;&gt;Node4 -->
<g id="edge4_Node000003_Node000004" class="edge">
<title>Node3&#45;&gt;Node4</title>
<g id="a_edge4_Node000003_Node000004"><a xlink:title=" ">
<path fill="none" stroke="#63b8ff" d="M190.12,-371.66C162.67,-361.95 129.38,-350.18 103.48,-341.02"/>
<polygon fill="#63b8ff" stroke="#63b8ff" points="188.97,-374.96 199.56,-374.99 191.3,-368.36 188.97,-374.96"/>
</a>
</g>
</g>
<!-- Node5&#45;&gt;Node4 -->
<g id="edge6_Node000005_Node000004" class="edge">
<title>Node5&#45;&gt;Node4</title>
<g id="a_edge6_Node000005_Node000004"><a xlink:title=" ">
<path fill="none" stroke="#63b8ff" d="M168.73,-300.41C152.53,-304.26 135.57,-308.29 120.02,-311.98"/>
<polygon fill="#63b8ff" stroke="#63b8ff" points="169.77,-303.76 178.69,-298.04 168.16,-296.95 169.77,-303.76"/>
</a>
</g>
</g>
<!-- Node6&#45;&gt;Node7 -->
<g id="edge9_Node000006_Node000007" class="edge">
<title>Node6&#45;&gt;Node7</title>
<g id="a_edge9_Node000006_Node000007"><a xlink:title=" ">
<path fill="none" stroke="#63b8ff" d="M367.89,-235.43C347.68,-232.75 325.88,-229.86 306.28,-227.26"/>
<polygon fill="#63b8ff" stroke="#63b8ff" points="367.61,-238.93 377.98,-236.77 368.53,-231.99 367.61,-238.93"/>
</a>
</g>
</g>
<!-- Node8&#45;&gt;Node3 -->
<g id="edge11_Node000008_Node000003" class="edge">
<title>Node8&#45;&gt;Node3</title>
<g id="a_edge11_Node000008_Node000003"><a xlink:title=" ">
<path fill="none" stroke="#63b8ff" d="M370.95,-376.4C348.86,-378.76 324.62,-381.36 303.29,-383.65"/>
<polygon fill="#63b8ff" stroke="#63b8ff" points="371.36,-379.87 380.93,-375.33 370.61,-372.91 371.36,-379.87"/>
</a>
</g>
</g>
</g>
</svg>
