<?xml version="1.0" encoding="UTF-8" standalone="no"?>
<!DOCTYPE svg PUBLIC "-//W3C//DTD SVG 1.1//EN"
 "http://www.w3.org/Graphics/SVG/1.1/DTD/svg11.dtd">
<!-- Generated by graphviz version 2.43.0 (0)
 -->
<!-- Title: Span::Mesh::Draw Pages: 1 -->
<svg width="466pt" height="70pt"
 viewBox="0.00 0.00 466.00 69.50" xmlns="http://www.w3.org/2000/svg" xmlns:xlink="http://www.w3.org/1999/xlink">
<g id="graph0" class="graph" transform="scale(1 1) rotate(0) translate(4 65.5)">
<title>Span::Mesh::Draw</title>
<!-- Node1 -->
<g id="Node000001" class="node">
<title>Node1</title>
<g id="a_Node000001"><a xlink:title="描画コマンドを発行します。">
<polygon fill="#999999" stroke="#666666" points="458,-37 354,-37 354,-18 458,-18 458,-37"/>
<text text-anchor="middle" x="406" y="-25" font-family="Helvetica,sans-Serif" font-size="10.00">Span::Mesh::Draw</text>
</a>
</g>
</g>
<!-- Node2 -->
<g id="Node000002" class="node">
<title>Node2</title>
<g id="a_Node000002"><a xlink:href="classSpan_1_1Renderer.html#ade1cd95fe5d2e6aa78493393ce39c767" target="_top" xlink:title="メッシュ描画コマンドの発行。">
<polygon fill="white" stroke="#666666" points="318,-56 169,-56 169,-37 318,-37 318,-56"/>
<text text-anchor="middle" x="243.5" y="-44" font-family="Helvetica,sans-Serif" font-size="10.00">Span::Renderer::DrawMesh</text>
</a>
</g>
</g>
<!-- Node1&#45;&gt;Node2 -->
<g id="edge1_Node000001_Node000002" class="edge">
<title>Node1&#45;&gt;Node2</title>
<g id="a_edge1_Node000001_Node000002"><a xlink:title=" ">
<path fill="none" stroke="#63b8ff" d="M343.71,-34.76C335.32,-35.75 326.63,-36.78 318.05,-37.79"/>
<polygon fill="#63b8ff" stroke="#63b8ff" points="344.26,-38.22 353.78,-33.56 343.43,-31.26 344.26,-38.22"/>
</a>
</g>
</g>
<!-- Node4 -->
<g id="Node000004" class="node">
<title>Node4</title>
<g id="a_Node000004"><a xlink:href="classSpan_1_1Mesh.html#a1ef9d8d27ed37379d4639160cf823d0f" target="_top" xlink:title=" ">
<polygon fill="white" stroke="#666666" points="307.5,-19 179.5,-19 179.5,0 307.5,0 307.5,-19"/>
<text text-anchor="middle" x="243.5" y="-7" font-family="Helvetica,sans-Serif" font-size="10.00">Span::Mesh::operator=</text>
</a>
</g>
</g>
<!-- Node1&#45;&gt;Node4 -->
<g id="edge3_Node000001_Node000004" class="edge">
<title>Node1&#45;&gt;Node4</title>
<g id="a_edge3_Node000001_Node000004"><a xlink:title=" ">
<path fill="none" stroke="#63b8ff" d="M343.6,-20.61C331.81,-19.29 319.45,-17.91 307.62,-16.58"/>
<polygon fill="#63b8ff" stroke="#63b8ff" points="343.45,-24.12 353.78,-21.76 344.23,-17.16 343.45,-24.12"/>
</a>
</g>
</g>
<!-- Node3 -->
<g id="Node000003" class="node">
<title>Node3</title>
<g id="a_Node000003"><a xlink:href="classSpan_1_1RenderingSystem.html#aa0113a8f2b55129115c4da2c6ba449c4" target="_top" xlink:title="毎フレーム呼び出されます。ここにゲームロジックを記述します。">
<polygon fill="white" stroke="#666666" points="133,-61.5 0,-61.5 0,-31.5 133,-31.5 133,-61.5"/>
<text text-anchor="start" x="8" y="-49.5" font-family="Helvetica,sans-Serif" font-size="10.00">Span::RenderingSystem</text>
<text text-anchor="middle" x="66.5" y="-38.5" font-family="Helvetica,sans-Serif" font-size="10.00">::OnUpdate</text>
</a>
</g>
</g>
<!-- Node2&#45;&gt;Node3 -->
<g id="edge2_Node000002_Node000003" class="edge">
<title>Node2&#45;&gt;Node3</title>
<g id="a_edge2_Node000002_Node000003"><a xlink:title=" ">
<path fill="none" stroke="#63b8ff" d="M158.72,-46.5C150.1,-46.5 141.44,-46.5 133.06,-46.5"/>
<polygon fill="#63b8ff" stroke="#63b8ff" points="158.79,-50 168.79,-46.5 158.79,-43 158.79,-50"/>
</a>
</g>
</g>
</g>
</svg>
