<?xml version="1.0" encoding="UTF-8" standalone="no"?>
<!DOCTYPE svg PUBLIC "-//W3C//DTD SVG 1.1//EN"
 "http://www.w3.org/Graphics/SVG/1.1/DTD/svg11.dtd">
<!-- Generated by graphviz version 2.43.0 (0)
 -->
<!-- Title: Span::SSAOPass Pages: 1 -->
<svg width="291pt" height="759pt"
 viewBox="0.00 0.00 291.00 759.00" xmlns="http://www.w3.org/2000/svg" xmlns:xlink="http://www.w3.org/1999/xlink">
<g id="graph0" class="graph" transform="scale(1 1) rotate(0) translate(4 755)">
<title>Span::SSAOPass</title>
<!-- Node1 -->
<g id="Node000001" class="node">
<title>Node1</title>
<g id="a_Node000001"><a xlink:title="ðŸŒ‘ SSAOã‚’è¨ˆç®—ã—ã€ã‚ªã‚¯ãƒ«ãƒ¼ã‚¸ãƒ§ãƒ³ãƒžãƒƒãƒ—ã‚’å‡ºåŠ›ã™ã‚‹ãƒ‘ã‚¹ã€‚">
<polygon fill="#999999" stroke="transparent" points="227,-214 85,-214 85,0 227,0 227,-214"/>
<text text-anchor="start" x="116.5" y="-202" font-family="Helvetica,sans-Serif" font-size="10.00">Span::SSAOPass</text>
<text text-anchor="start" x="91.5" y="-187" font-family="Helvetica,sans-Serif" font-size="10.00">&#45;</text>
<text text-anchor="start" x="102" y="-187" font-family="Helvetica,sans-Serif" font-size="10.00">m_noiseTexture</text>
<text text-anchor="start" x="91.5" y="-172" font-family="Helvetica,sans-Serif" font-size="10.00">&#45;</text>
<text text-anchor="start" x="102" y="-172" font-family="Helvetica,sans-Serif" font-size="10.00">m_pso</text>
<text text-anchor="start" x="91.5" y="-157" font-family="Helvetica,sans-Serif" font-size="10.00">&#45;</text>
<text text-anchor="start" x="102" y="-157" font-family="Helvetica,sans-Serif" font-size="10.00">m_rootSignature</text>
<text text-anchor="start" x="91.5" y="-142" font-family="Helvetica,sans-Serif" font-size="10.00">&#45;</text>
<text text-anchor="start" x="102" y="-142" font-family="Helvetica,sans-Serif" font-size="10.00">m_ssaoKernel</text>
<text text-anchor="start" x="89" y="-127" font-family="Helvetica,sans-Serif" font-size="10.00">+</text>
<text text-anchor="start" x="102" y="-127" font-family="Helvetica,sans-Serif" font-size="10.00">SSAOPass()</text>
<text text-anchor="start" x="89" y="-112" font-family="Helvetica,sans-Serif" font-size="10.00">+</text>
<text text-anchor="start" x="102" y="-112" font-family="Helvetica,sans-Serif" font-size="10.00">~SSAOPass()</text>
<text text-anchor="start" x="89" y="-97" font-family="Helvetica,sans-Serif" font-size="10.00">+</text>
<text text-anchor="start" x="102" y="-97" font-family="Helvetica,sans-Serif" font-size="10.00">Initialize()</text>
<text text-anchor="start" x="89" y="-82" font-family="Helvetica,sans-Serif" font-size="10.00">+</text>
<text text-anchor="start" x="102" y="-82" font-family="Helvetica,sans-Serif" font-size="10.00">Shutdown()</text>
<text text-anchor="start" x="89" y="-67" font-family="Helvetica,sans-Serif" font-size="10.00">+</text>
<text text-anchor="start" x="102" y="-67" font-family="Helvetica,sans-Serif" font-size="10.00">Resize()</text>
<text text-anchor="start" x="89" y="-52" font-family="Helvetica,sans-Serif" font-size="10.00">+</text>
<text text-anchor="start" x="102" y="-52" font-family="Helvetica,sans-Serif" font-size="10.00">Execute()</text>
<text text-anchor="start" x="89" y="-37" font-family="Helvetica,sans-Serif" font-size="10.00">+</text>
<text text-anchor="start" x="102" y="-37" font-family="Helvetica,sans-Serif" font-size="10.00">GetSSAOMap()</text>
<text text-anchor="start" x="91.5" y="-22" font-family="Helvetica,sans-Serif" font-size="10.00">&#45;</text>
<text text-anchor="start" x="102" y="-22" font-family="Helvetica,sans-Serif" font-size="10.00">GenerateSampleKernel()</text>
<text text-anchor="start" x="91.5" y="-7" font-family="Helvetica,sans-Serif" font-size="10.00">&#45;</text>
<text text-anchor="start" x="102" y="-7" font-family="Helvetica,sans-Serif" font-size="10.00">GenerateNoiseTexture()</text>
<polygon fill="#666666" stroke="#666666" points="85,-197 85,-197 227,-197 227,-197 85,-197"/>
<polygon fill="#666666" stroke="#666666" points="85,-137 85,-137 100,-137 100,-137 85,-137"/>
<polygon fill="#666666" stroke="#666666" points="100,-137 100,-137 227,-137 227,-137 100,-137"/>
<polygon fill="none" stroke="#666666" points="85,0 85,-214 227,-214 227,0 85,0"/>
</a>
</g>
</g>
<!-- Node2 -->
<g id="Node000002" class="node">
<title>Node2</title>
<g id="a_Node000002"><a xlink:href="classSpan_1_1RenderTarget.html" target="_top" xlink:title="ðŸŽ¯ æç”»å¯¾è±¡ã¨ãªã‚‹ãƒ†ã‚¯ã‚¹ãƒãƒ£ãƒªã‚½ãƒ¼ã‚¹ã€‚">
<polygon fill="white" stroke="transparent" points="166,-751 0,-751 0,-282 166,-282 166,-751"/>
<text text-anchor="start" x="35.5" y="-738.5" font-family="Helvetica,sans-Serif" font-size="10.00">Span::RenderTarget</text>
<text text-anchor="start" x="6.5" y="-723.5" font-family="Helvetica,sans-Serif" font-size="10.00">&#45;</text>
<text text-anchor="start" x="17" y="-723.5" font-family="Helvetica,sans-Serif" font-size="10.00">resource</text>
<text text-anchor="start" x="6.5" y="-708.5" font-family="Helvetica,sans-Serif" font-size="10.00">&#45;</text>
<text text-anchor="start" x="17" y="-708.5" font-family="Helvetica,sans-Serif" font-size="10.00">rtvHeap</text>
<text text-anchor="start" x="6.5" y="-693.5" font-family="Helvetica,sans-Serif" font-size="10.00">&#45;</text>
<text text-anchor="start" x="17" y="-693.5" font-family="Helvetica,sans-Serif" font-size="10.00">srvHeap</text>
<text text-anchor="start" x="6.5" y="-678.5" font-family="Helvetica,sans-Serif" font-size="10.00">&#45;</text>
<text text-anchor="start" x="17" y="-678.5" font-family="Helvetica,sans-Serif" font-size="10.00">rtvHandle</text>
<text text-anchor="start" x="6.5" y="-663.5" font-family="Helvetica,sans-Serif" font-size="10.00">&#45;</text>
<text text-anchor="start" x="17" y="-663.5" font-family="Helvetica,sans-Serif" font-size="10.00">srvHandle</text>
<text text-anchor="start" x="6.5" y="-648.5" font-family="Helvetica,sans-Serif" font-size="10.00">&#45;</text>
<text text-anchor="start" x="17" y="-648.5" font-family="Helvetica,sans-Serif" font-size="10.00">dsvHeap</text>
<text text-anchor="start" x="6.5" y="-633.5" font-family="Helvetica,sans-Serif" font-size="10.00">&#45;</text>
<text text-anchor="start" x="17" y="-633.5" font-family="Helvetica,sans-Serif" font-size="10.00">depthBuffer</text>
<text text-anchor="start" x="6.5" y="-618.5" font-family="Helvetica,sans-Serif" font-size="10.00">&#45;</text>
<text text-anchor="start" x="17" y="-618.5" font-family="Helvetica,sans-Serif" font-size="10.00">dsvHandle</text>
<text text-anchor="start" x="6.5" y="-603.5" font-family="Helvetica,sans-Serif" font-size="10.00">&#45;</text>
<text text-anchor="start" x="17" y="-603.5" font-family="Helvetica,sans-Serif" font-size="10.00">width</text>
<text text-anchor="start" x="6.5" y="-588.5" font-family="Helvetica,sans-Serif" font-size="10.00">&#45;</text>
<text text-anchor="start" x="17" y="-588.5" font-family="Helvetica,sans-Serif" font-size="10.00">height</text>
<text text-anchor="start" x="6.5" y="-573.5" font-family="Helvetica,sans-Serif" font-size="10.00">&#45;</text>
<text text-anchor="start" x="17" y="-573.5" font-family="Helvetica,sans-Serif" font-size="10.00">format</text>
<text text-anchor="start" x="6.5" y="-558.5" font-family="Helvetica,sans-Serif" font-size="10.00">&#45;</text>
<text text-anchor="start" x="17" y="-558.5" font-family="Helvetica,sans-Serif" font-size="10.00">m_clearColor</text>
<text text-anchor="start" x="6.5" y="-543.5" font-family="Helvetica,sans-Serif" font-size="10.00">&#45;</text>
<text text-anchor="start" x="17" y="-543.5" font-family="Helvetica,sans-Serif" font-size="10.00">currentState</text>
<text text-anchor="start" x="4" y="-528.5" font-family="Helvetica,sans-Serif" font-size="10.00">+</text>
<text text-anchor="start" x="17" y="-528.5" font-family="Helvetica,sans-Serif" font-size="10.00">RenderTarget()</text>
<text text-anchor="start" x="4" y="-513.5" font-family="Helvetica,sans-Serif" font-size="10.00">+</text>
<text text-anchor="start" x="17" y="-513.5" font-family="Helvetica,sans-Serif" font-size="10.00">~RenderTarget()</text>
<text text-anchor="start" x="4" y="-498.5" font-family="Helvetica,sans-Serif" font-size="10.00">+</text>
<text text-anchor="start" x="17" y="-498.5" font-family="Helvetica,sans-Serif" font-size="10.00">Initialize()</text>
<text text-anchor="start" x="4" y="-483.5" font-family="Helvetica,sans-Serif" font-size="10.00">+</text>
<text text-anchor="start" x="17" y="-483.5" font-family="Helvetica,sans-Serif" font-size="10.00">Shutdown()</text>
<text text-anchor="start" x="4" y="-468.5" font-family="Helvetica,sans-Serif" font-size="10.00">+</text>
<text text-anchor="start" x="17" y="-468.5" font-family="Helvetica,sans-Serif" font-size="10.00">Resize()</text>
<text text-anchor="start" x="4" y="-453.5" font-family="Helvetica,sans-Serif" font-size="10.00">+</text>
<text text-anchor="start" x="17" y="-453.5" font-family="Helvetica,sans-Serif" font-size="10.00">TransitionToRenderTarget()</text>
<text text-anchor="start" x="4" y="-438.5" font-family="Helvetica,sans-Serif" font-size="10.00">+</text>
<text text-anchor="start" x="17" y="-438.5" font-family="Helvetica,sans-Serif" font-size="10.00">TransitionToShaderResource()</text>
<text text-anchor="start" x="4" y="-423.5" font-family="Helvetica,sans-Serif" font-size="10.00">+</text>
<text text-anchor="start" x="17" y="-423.5" font-family="Helvetica,sans-Serif" font-size="10.00">Clear()</text>
<text text-anchor="start" x="4" y="-408.5" font-family="Helvetica,sans-Serif" font-size="10.00">+</text>
<text text-anchor="start" x="17" y="-408.5" font-family="Helvetica,sans-Serif" font-size="10.00">GetResource()</text>
<text text-anchor="start" x="4" y="-393.5" font-family="Helvetica,sans-Serif" font-size="10.00">+</text>
<text text-anchor="start" x="17" y="-393.5" font-family="Helvetica,sans-Serif" font-size="10.00">GetRTV()</text>
<text text-anchor="start" x="4" y="-378.5" font-family="Helvetica,sans-Serif" font-size="10.00">+</text>
<text text-anchor="start" x="17" y="-378.5" font-family="Helvetica,sans-Serif" font-size="10.00">GetSRV()</text>
<text text-anchor="start" x="4" y="-363.5" font-family="Helvetica,sans-Serif" font-size="10.00">+</text>
<text text-anchor="start" x="17" y="-363.5" font-family="Helvetica,sans-Serif" font-size="10.00">GetDSV()</text>
<text text-anchor="start" x="4" y="-348.5" font-family="Helvetica,sans-Serif" font-size="10.00">+</text>
<text text-anchor="start" x="17" y="-348.5" font-family="Helvetica,sans-Serif" font-size="10.00">GetWidth()</text>
<text text-anchor="start" x="4" y="-333.5" font-family="Helvetica,sans-Serif" font-size="10.00">+</text>
<text text-anchor="start" x="17" y="-333.5" font-family="Helvetica,sans-Serif" font-size="10.00">GetHeight()</text>
<text text-anchor="start" x="4" y="-318.5" font-family="Helvetica,sans-Serif" font-size="10.00">+</text>
<text text-anchor="start" x="17" y="-318.5" font-family="Helvetica,sans-Serif" font-size="10.00">GetImGuiTextureID()</text>
<text text-anchor="start" x="6.5" y="-303.5" font-family="Helvetica,sans-Serif" font-size="10.00">&#45;</text>
<text text-anchor="start" x="17" y="-303.5" font-family="Helvetica,sans-Serif" font-size="10.00">CreateViews()</text>
<text text-anchor="start" x="6.5" y="-288.5" font-family="Helvetica,sans-Serif" font-size="10.00">&#45;</text>
<text text-anchor="start" x="17" y="-288.5" font-family="Helvetica,sans-Serif" font-size="10.00">CreateDepthBuffer()</text>
<polygon fill="#666666" stroke="#666666" points="0,-733.5 0,-733.5 166,-733.5 166,-733.5 0,-733.5"/>
<polygon fill="#666666" stroke="#666666" points="0,-538.5 0,-538.5 15,-538.5 15,-538.5 0,-538.5"/>
<polygon fill="#666666" stroke="#666666" points="15,-538.5 15,-538.5 166,-538.5 166,-538.5 15,-538.5"/>
<polygon fill="none" stroke="#666666" points="0,-282 0,-751 166,-751 166,-282 0,-282"/>
</a>
</g>
</g>
<!-- Node2&#45;&gt;Node1 -->
<g id="edge1_Node000001_Node000002" class="edge">
<title>Node2&#45;&gt;Node1</title>
<g id="a_edge1_Node000001_Node000002"><a xlink:title=" ">
<path fill="none" stroke="#63b8ff" d="M124.83,-282C128.25,-262.93 131.6,-244.21 134.77,-226.54"/>
<polygon fill="none" stroke="#63b8ff" points="134.81,-226.29 131.93,-219.68 136.93,-214.48 139.81,-221.09 134.81,-226.29"/>
</a>
</g>
<text text-anchor="start" x="136.5" y="-245" font-family="Helvetica,sans-Serif" font-size="10.00" fill="grey">&#45;m_ssaoMap</text>
</g>
<!-- Node3 -->
<g id="Node000003" class="node">
<title>Node3</title>
<g id="a_Node000003"><a xlink:href="classSpan_1_1Shader.html" target="_top" xlink:title="ðŸ“œ HLSLã‚·ã‚§ãƒ¼ãƒ€ãƒ¼ãƒ•ã‚¡ã‚¤ãƒ«ã®ã‚³ãƒ³ãƒ‘ã‚¤ãƒ«ã¨ãƒã‚¤ãƒŠãƒªä¿æŒã€‚">
<polygon fill="white" stroke="transparent" points="276,-556 184,-556 184,-477 276,-477 276,-556"/>
<text text-anchor="start" x="198" y="-543.5" font-family="Helvetica,sans-Serif" font-size="10.00">Span::Shader</text>
<text text-anchor="start" x="190.5" y="-528.5" font-family="Helvetica,sans-Serif" font-size="10.00">&#45;</text>
<text text-anchor="start" x="201" y="-528.5" font-family="Helvetica,sans-Serif" font-size="10.00">blob</text>
<text text-anchor="start" x="188" y="-513.5" font-family="Helvetica,sans-Serif" font-size="10.00">+</text>
<text text-anchor="start" x="201" y="-513.5" font-family="Helvetica,sans-Serif" font-size="10.00">Load()</text>
<text text-anchor="start" x="188" y="-498.5" font-family="Helvetica,sans-Serif" font-size="10.00">+</text>
<text text-anchor="start" x="201" y="-498.5" font-family="Helvetica,sans-Serif" font-size="10.00">GetBlob()</text>
<text text-anchor="start" x="188" y="-483.5" font-family="Helvetica,sans-Serif" font-size="10.00">+</text>
<text text-anchor="start" x="201" y="-483.5" font-family="Helvetica,sans-Serif" font-size="10.00">GetBytecode()</text>
<polygon fill="#666666" stroke="#666666" points="184,-538.5 184,-538.5 276,-538.5 276,-538.5 184,-538.5"/>
<polygon fill="#666666" stroke="#666666" points="184,-523.5 184,-523.5 199,-523.5 199,-523.5 184,-523.5"/>
<polygon fill="#666666" stroke="#666666" points="199,-523.5 199,-523.5 276,-523.5 276,-523.5 199,-523.5"/>
<polygon fill="none" stroke="#666666" points="184,-477 184,-556 276,-556 276,-477 184,-477"/>
</a>
</g>
</g>
<!-- Node3&#45;&gt;Node1 -->
<g id="edge2_Node000001_Node000003" class="edge">
<title>Node3&#45;&gt;Node1</title>
<g id="a_edge2_Node000001_Node000003"><a xlink:title=" ">
<path fill="none" stroke="#63b8ff" d="M230.35,-476.87C230.04,-421.76 226.43,-317.77 206,-232 205.52,-229.98 205.01,-227.95 204.48,-225.92"/>
<polygon fill="none" stroke="#63b8ff" points="204.43,-225.75 198.95,-221.07 201.17,-214.21 206.65,-218.89 204.43,-225.75"/>
</a>
</g>
<text text-anchor="start" x="215.5" y="-253" font-family="Helvetica,sans-Serif" font-size="10.00" fill="grey">&#45;m_shaderPS</text>
<text text-anchor="start" x="215.5" y="-238" font-family="Helvetica,sans-Serif" font-size="10.00" fill="grey">&#45;m_shaderVS</text>
</g>
</g>
</svg>
