<?xml version="1.0" encoding="UTF-8" standalone="no"?>
<!DOCTYPE svg PUBLIC "-//W3C//DTD SVG 1.1//EN"
 "http://www.w3.org/Graphics/SVG/1.1/DTD/svg11.dtd">
<!-- Generated by graphviz version 2.43.0 (0)
 -->
<!-- Title: Span::Archetype::GetChunks Pages: 1 -->
<svg width="876pt" height="295pt"
 viewBox="0.00 0.00 876.00 294.50" xmlns="http://www.w3.org/2000/svg" xmlns:xlink="http://www.w3.org/1999/xlink">
<g id="graph0" class="graph" transform="scale(1 1) rotate(0) translate(4 290.5)">
<title>Span::Archetype::GetChunks</title>
<!-- Node1 -->
<g id="Node000001" class="node">
<title>Node1</title>
<g id="a_Node000001"><a xlink:title="このアーキタイプが管理している全チャンクのリスト">
<polygon fill="#999999" stroke="#666666" points="868,-171 713,-171 713,-152 868,-152 868,-171"/>
<text text-anchor="middle" x="790.5" y="-159" font-family="Helvetica,sans-Serif" font-size="10.00">Span::Archetype::GetChunks</text>
</a>
</g>
</g>
<!-- Node2 -->
<g id="Node000002" class="node">
<title>Node2</title>
<g id="a_Node000002"><a xlink:href="classSpan_1_1World.html#a5e8a64b9e0f3715d21c43f92591e7d88" target="_top" xlink:title="指定されたコンポーネントを持つ新しいエンティティを作成します。">
<polygon fill="white" stroke="#666666" points="674.5,-208 533.5,-208 533.5,-189 674.5,-189 674.5,-208"/>
<text text-anchor="middle" x="604" y="-196" font-family="Helvetica,sans-Serif" font-size="10.00">Span::World::CreateEntity</text>
</a>
</g>
</g>
<!-- Node1&#45;&gt;Node2 -->
<g id="edge1_Node000001_Node000002" class="edge">
<title>Node1&#45;&gt;Node2</title>
<g id="a_edge1_Node000001_Node000002"><a xlink:title=" ">
<path fill="none" stroke="#63b8ff" d="M732.08,-173.02C706.58,-178.13 676.92,-184.08 652.67,-188.94"/>
<polygon fill="#63b8ff" stroke="#63b8ff" points="732.87,-176.43 741.99,-171.03 731.49,-169.56 732.87,-176.43"/>
</a>
</g>
</g>
<!-- Node3 -->
<g id="Node000003" class="node">
<title>Node3</title>
<g id="a_Node000003"><a xlink:href="classSpan_1_1World.html#afd6041d6b68f1964882d1941fc0fddaf" target="_top" xlink:title="指定したコンポーネントを持つ全てのEntityに対して関数を実行します。">
<polygon fill="white" stroke="#666666" points="663.5,-171 544.5,-171 544.5,-152 663.5,-152 663.5,-171"/>
<text text-anchor="middle" x="604" y="-159" font-family="Helvetica,sans-Serif" font-size="10.00">Span::World::ForEach</text>
</a>
</g>
</g>
<!-- Node1&#45;&gt;Node3 -->
<g id="edge2_Node000001_Node000003" class="edge">
<title>Node1&#45;&gt;Node3</title>
<g id="a_edge2_Node000001_Node000003"><a xlink:title=" ">
<path fill="none" stroke="#63b8ff" d="M702.78,-161.5C689.53,-161.5 676.13,-161.5 663.68,-161.5"/>
<polygon fill="#63b8ff" stroke="#63b8ff" points="702.86,-165 712.86,-161.5 702.86,-158 702.86,-165"/>
</a>
</g>
</g>
<!-- Node10 -->
<g id="Node000010" class="node">
<title>Node10</title>
<g id="a_Node000010"><a xlink:href="classSpan_1_1World.html#a8c01f89c473a5da0aca8d152f248fc53" target="_top" xlink:title=" ">
<polygon fill="white" stroke="#666666" points="677,-56 531,-56 531,-37 677,-37 677,-56"/>
<text text-anchor="middle" x="604" y="-44" font-family="Helvetica,sans-Serif" font-size="10.00">Span::World::MigrateEntity</text>
</a>
</g>
</g>
<!-- Node1&#45;&gt;Node10 -->
<g id="edge9_Node000001_Node000010" class="edge">
<title>Node1&#45;&gt;Node10</title>
<g id="a_edge9_Node000001_Node000010"><a xlink:title=" ">
<path fill="none" stroke="#63b8ff" d="M765.58,-146.59C727.15,-122.64 652.73,-76.25 620.5,-56.16"/>
<polygon fill="#63b8ff" stroke="#63b8ff" points="763.75,-149.57 774.09,-151.89 767.45,-143.63 763.75,-149.57"/>
</a>
</g>
</g>
<!-- Node4 -->
<g id="Node000004" class="node">
<title>Node4</title>
<g id="a_Node000004"><a xlink:href="classSpan_1_1SceneViewPanel.html#ad83a4a55f083c75371d0873322808796" target="_top" xlink:title=" ">
<polygon fill="white" stroke="#666666" points="469.5,-286.5 343.5,-286.5 343.5,-256.5 469.5,-256.5 469.5,-286.5"/>
<text text-anchor="start" x="351.5" y="-274.5" font-family="Helvetica,sans-Serif" font-size="10.00">Span::SceneViewPanel</text>
<text text-anchor="middle" x="406.5" y="-263.5" font-family="Helvetica,sans-Serif" font-size="10.00">::DrawGizmo</text>
</a>
</g>
</g>
<!-- Node3&#45;&gt;Node4 -->
<g id="edge3_Node000003_Node000004" class="edge">
<title>Node3&#45;&gt;Node4</title>
<g id="a_edge3_Node000003_Node000004"><a xlink:title=" ">
<path fill="none" stroke="#63b8ff" d="M538.5,-175.59C535.88,-177.07 533.36,-178.7 531,-180.5 505.66,-199.82 519.73,-222.41 495,-242.5 487.55,-248.56 478.78,-253.37 469.73,-257.18"/>
<polygon fill="#63b8ff" stroke="#63b8ff" points="540.28,-178.62 547.78,-171.15 537.25,-172.31 540.28,-178.62"/>
</a>
</g>
</g>
<!-- Node6 -->
<g id="Node000006" class="node">
<title>Node6</title>
<g id="a_Node000006"><a xlink:href="classSpan_1_1HierarchyPanel.html#a6481eb57cd9f45cb3a094a26f35bbaa0" target="_top" xlink:title="毎フレーム呼ばれる描画関数。">
<polygon fill="white" stroke="#666666" points="120,-194.5 0,-194.5 0,-164.5 120,-164.5 120,-194.5"/>
<text text-anchor="start" x="8" y="-182.5" font-family="Helvetica,sans-Serif" font-size="10.00">Span::HierarchyPanel</text>
<text text-anchor="middle" x="60" y="-171.5" font-family="Helvetica,sans-Serif" font-size="10.00">::OnImGuiRender</text>
</a>
</g>
</g>
<!-- Node3&#45;&gt;Node6 -->
<g id="edge5_Node000003_Node000006" class="edge">
<title>Node3&#45;&gt;Node6</title>
<g id="a_edge5_Node000003_Node000006"><a xlink:title=" ">
<path fill="none" stroke="#63b8ff" d="M545.66,-174.24C540.6,-176.08 535.64,-178.15 531,-180.5 512.66,-189.77 514.38,-202.67 495,-209.5 360.74,-256.85 188.89,-218.21 107.6,-194.53"/>
<polygon fill="#63b8ff" stroke="#63b8ff" points="547.07,-177.46 555.47,-171 544.88,-170.81 547.07,-177.46"/>
</a>
</g>
</g>
<!-- Node7 -->
<g id="Node000007" class="node">
<title>Node7</title>
<g id="a_Node000007"><a xlink:href="classSpan_1_1CameraSystem.html#a7f4bf0245dedd7a6245ef352246f7391" target="_top" xlink:title="毎フレーム呼び出されます。ここにゲームロジックを記述します。">
<polygon fill="white" stroke="#666666" points="467.5,-200.5 345.5,-200.5 345.5,-170.5 467.5,-170.5 467.5,-200.5"/>
<text text-anchor="start" x="353.5" y="-188.5" font-family="Helvetica,sans-Serif" font-size="10.00">Span::CameraSystem</text>
<text text-anchor="middle" x="406.5" y="-177.5" font-family="Helvetica,sans-Serif" font-size="10.00">::OnUpdate</text>
</a>
</g>
</g>
<!-- Node3&#45;&gt;Node7 -->
<g id="edge6_Node000003_Node000007" class="edge">
<title>Node3&#45;&gt;Node7</title>
<g id="a_edge6_Node000003_Node000007"><a xlink:title=" ">
<path fill="none" stroke="#63b8ff" d="M534.23,-169.94C512.57,-172.6 488.83,-175.52 467.81,-178.1"/>
<polygon fill="#63b8ff" stroke="#63b8ff" points="534.84,-173.39 544.34,-168.7 533.99,-166.45 534.84,-173.39"/>
</a>
</g>
</g>
<!-- Node8 -->
<g id="Node000008" class="node">
<title>Node8</title>
<g id="a_Node000008"><a xlink:href="classSpan_1_1EditorCameraSystem.html#ae933964fa5d0f299954c926cf63e091a" target="_top" xlink:title="毎フレーム呼び出されます。ここにゲームロジックを記述します。">
<polygon fill="white" stroke="#666666" points="481.5,-152.5 331.5,-152.5 331.5,-122.5 481.5,-122.5 481.5,-152.5"/>
<text text-anchor="start" x="339.5" y="-140.5" font-family="Helvetica,sans-Serif" font-size="10.00">Span::EditorCameraSystem</text>
<text text-anchor="middle" x="406.5" y="-129.5" font-family="Helvetica,sans-Serif" font-size="10.00">::OnUpdate</text>
</a>
</g>
</g>
<!-- Node3&#45;&gt;Node8 -->
<g id="edge7_Node000003_Node000008" class="edge">
<title>Node3&#45;&gt;Node8</title>
<g id="a_edge7_Node000003_Node000008"><a xlink:title=" ">
<path fill="none" stroke="#63b8ff" d="M533.99,-153.03C517.07,-150.95 498.89,-148.72 481.73,-146.61"/>
<polygon fill="#63b8ff" stroke="#63b8ff" points="533.99,-156.55 544.34,-154.3 534.84,-149.61 533.99,-156.55"/>
</a>
</g>
</g>
<!-- Node9 -->
<g id="Node000009" class="node">
<title>Node9</title>
<g id="a_Node000009"><a xlink:href="classSpan_1_1TransformSystem.html#abeba491503870f332716f4ca75444ca4" target="_top" xlink:title="毎フレーム呼び出されます。ここにゲームロジックを記述します。">
<polygon fill="white" stroke="#666666" points="472.5,-104.5 340.5,-104.5 340.5,-74.5 472.5,-74.5 472.5,-104.5"/>
<text text-anchor="start" x="348.5" y="-92.5" font-family="Helvetica,sans-Serif" font-size="10.00">Span::TransformSystem</text>
<text text-anchor="middle" x="406.5" y="-81.5" font-family="Helvetica,sans-Serif" font-size="10.00">::OnUpdate</text>
</a>
</g>
</g>
<!-- Node3&#45;&gt;Node9 -->
<g id="edge8_Node000003_Node000009" class="edge">
<title>Node3&#45;&gt;Node9</title>
<g id="a_edge8_Node000003_Node000009"><a xlink:title=" ">
<path fill="none" stroke="#63b8ff" d="M574.64,-147.49C553.13,-137.2 522.65,-123.37 495,-113.5 486.1,-110.32 476.56,-107.31 467.18,-104.57"/>
<polygon fill="#63b8ff" stroke="#63b8ff" points="573.32,-150.74 583.85,-151.93 576.37,-144.43 573.32,-150.74"/>
</a>
</g>
</g>
<!-- Node5 -->
<g id="Node000005" class="node">
<title>Node5</title>
<g id="a_Node000005"><a xlink:href="classSpan_1_1SceneViewPanel.html#aab2935de58bd68267a680cabd3656c9f" target="_top" xlink:title="毎フレーム呼ばれる描画関数。">
<polygon fill="white" stroke="#666666" points="282,-286.5 156,-286.5 156,-256.5 282,-256.5 282,-286.5"/>
<text text-anchor="start" x="164" y="-274.5" font-family="Helvetica,sans-Serif" font-size="10.00">Span::SceneViewPanel</text>
<text text-anchor="middle" x="219" y="-263.5" font-family="Helvetica,sans-Serif" font-size="10.00">::OnImGuiRender</text>
</a>
</g>
</g>
<!-- Node4&#45;&gt;Node5 -->
<g id="edge4_Node000004_Node000005" class="edge">
<title>Node4&#45;&gt;Node5</title>
<g id="a_edge4_Node000004_Node000005"><a xlink:title=" ">
<path fill="none" stroke="#63b8ff" d="M333.15,-271.5C316.35,-271.5 298.61,-271.5 282.28,-271.5"/>
<polygon fill="#63b8ff" stroke="#63b8ff" points="333.47,-275 343.47,-271.5 333.47,-268 333.47,-275"/>
</a>
</g>
</g>
<!-- Node11 -->
<g id="Node000011" class="node">
<title>Node11</title>
<g id="a_Node000011"><a xlink:href="classSpan_1_1World.html#a555e11829d3833ce35f444779c4c2369" target="_top" xlink:title="既存のEntityに新しいコンポーネントを追加します。">
<polygon fill="white" stroke="#666666" points="484,-56 329,-56 329,-37 484,-37 484,-56"/>
<text text-anchor="middle" x="406.5" y="-44" font-family="Helvetica,sans-Serif" font-size="10.00">Span::World::AddComponent</text>
</a>
</g>
</g>
<!-- Node10&#45;&gt;Node11 -->
<g id="edge10_Node000010_Node000011" class="edge">
<title>Node10&#45;&gt;Node11</title>
<g id="a_edge10_Node000010_Node000011"><a xlink:title=" ">
<path fill="none" stroke="#63b8ff" d="M520.65,-46.5C508.52,-46.5 496.05,-46.5 484.03,-46.5"/>
<polygon fill="#63b8ff" stroke="#63b8ff" points="520.76,-50 530.76,-46.5 520.76,-43 520.76,-50"/>
</a>
</g>
</g>
<!-- Node14 -->
<g id="Node000014" class="node">
<title>Node14</title>
<g id="a_Node000014"><a xlink:href="classSpan_1_1World.html#a5d815ca319bd1f2756394cc107818c46" target="_top" xlink:title="エンティティから指定したコンポーネントを削除します。">
<polygon fill="white" stroke="#666666" points="495,-19 318,-19 318,0 495,0 495,-19"/>
<text text-anchor="middle" x="406.5" y="-7" font-family="Helvetica,sans-Serif" font-size="10.00">Span::World::RemoveComponent</text>
</a>
</g>
</g>
<!-- Node10&#45;&gt;Node14 -->
<g id="edge15_Node000010_Node000014" class="edge">
<title>Node10&#45;&gt;Node14</title>
<g id="a_edge15_Node000010_Node000014"><a xlink:title=" ">
<path fill="none" stroke="#63b8ff" d="M542.51,-35.05C515.41,-29.92 483.82,-23.94 458.01,-19.06"/>
<polygon fill="#63b8ff" stroke="#63b8ff" points="542.18,-38.55 552.65,-36.97 543.48,-31.67 542.18,-38.55"/>
</a>
</g>
</g>
<!-- Node12 -->
<g id="Node000012" class="node">
<title>Node12</title>
<g id="a_Node000012"><a xlink:href="classSpan_1_1HierarchyPanel.html#a2c08f8c6e0cafaed96f7846d76ff2b09" target="_top" xlink:title=" ">
<polygon fill="white" stroke="#666666" points="279,-146.5 159,-146.5 159,-116.5 279,-116.5 279,-146.5"/>
<text text-anchor="start" x="167" y="-134.5" font-family="Helvetica,sans-Serif" font-size="10.00">Span::HierarchyPanel</text>
<text text-anchor="middle" x="219" y="-123.5" font-family="Helvetica,sans-Serif" font-size="10.00">::DrawEntityNode</text>
</a>
</g>
</g>
<!-- Node11&#45;&gt;Node12 -->
<g id="edge11_Node000011_Node000012" class="edge">
<title>Node11&#45;&gt;Node12</title>
<g id="a_edge11_Node000011_Node000012"><a xlink:title=" ">
<path fill="none" stroke="#63b8ff" d="M336.58,-58.85C330.2,-60.77 323.91,-62.98 318,-65.5 287.62,-78.46 256.69,-101.22 237.92,-116.33"/>
<polygon fill="#63b8ff" stroke="#63b8ff" points="337.95,-62.11 346.65,-56.06 336.08,-55.36 337.95,-62.11"/>
</a>
</g>
</g>
<!-- Node13 -->
<g id="Node000013" class="node">
<title>Node13</title>
<g id="a_Node000013"><a xlink:href="classSpan_1_1InspectorPanel.html#ae32fda6018a2e54f880e6708ac5b89fe" target="_top" xlink:title="毎フレーム呼ばれる描画関数。">
<polygon fill="white" stroke="#666666" points="278,-61.5 160,-61.5 160,-31.5 278,-31.5 278,-61.5"/>
<text text-anchor="start" x="168" y="-49.5" font-family="Helvetica,sans-Serif" font-size="10.00">Span::InspectorPanel</text>
<text text-anchor="middle" x="219" y="-38.5" font-family="Helvetica,sans-Serif" font-size="10.00">::OnImGuiRender</text>
</a>
</g>
</g>
<!-- Node11&#45;&gt;Node13 -->
<g id="edge14_Node000011_Node000013" class="edge">
<title>Node11&#45;&gt;Node13</title>
<g id="a_edge14_Node000011_Node000013"><a xlink:title=" ">
<path fill="none" stroke="#63b8ff" d="M318.97,-46.5C305.16,-46.5 291.16,-46.5 278.2,-46.5"/>
<polygon fill="#63b8ff" stroke="#63b8ff" points="318.98,-50 328.98,-46.5 318.98,-43 318.98,-50"/>
</a>
</g>
</g>
<!-- Node12&#45;&gt;Node6 -->
<g id="edge13_Node000012_Node000006" class="edge">
<title>Node12&#45;&gt;Node6</title>
<g id="a_edge13_Node000012_Node000006"><a xlink:title=" ">
<path fill="none" stroke="#63b8ff" d="M158.91,-149.57C142.81,-154.49 125.55,-159.77 110.07,-164.5"/>
<polygon fill="#63b8ff" stroke="#63b8ff" points="160.22,-152.83 168.75,-146.56 158.17,-146.13 160.22,-152.83"/>
</a>
</g>
</g>
<!-- Node12&#45;&gt;Node12 -->
<g id="edge12_Node000012_Node000012" class="edge">
<title>Node12&#45;&gt;Node12</title>
<g id="a_edge12_Node000012_Node000012"><a xlink:title=" ">
<path fill="none" stroke="#63b8ff" d="M246.66,-157.1C242.88,-161.47 233.66,-164.5 219,-164.5 194.31,-164.5 185.05,-155.91 191.23,-146.78"/>
<polygon fill="#63b8ff" stroke="#63b8ff" points="250.16,-156.81 246.77,-146.78 243.16,-156.73 250.16,-156.81"/>
</a>
</g>
</g>
</g>
</svg>
