<?xml version="1.0" encoding="UTF-8" standalone="no"?>
<!DOCTYPE svg PUBLIC "-//W3C//DTD SVG 1.1//EN"
 "http://www.w3.org/Graphics/SVG/1.1/DTD/svg11.dtd">
<!-- Generated by graphviz version 2.43.0 (0)
 -->
<!-- Title: Span::EditorPanel Pages: 1 -->
<svg width="466pt" height="457pt"
 viewBox="0.00 0.00 465.50 457.00" xmlns="http://www.w3.org/2000/svg" xmlns:xlink="http://www.w3.org/1999/xlink">
<g id="graph0" class="graph" transform="scale(1 1) rotate(0) translate(4 453)">
<title>Span::EditorPanel</title>
<!-- Node1 -->
<g id="Node000001" class="node">
<title>Node1</title>
<g id="a_Node000001"><a xlink:title="ðŸ–¼ å…¨ã¦ã®ã‚¨ãƒ‡ã‚£ã‚¿ãƒ‘ãƒãƒ«ã®åŸºåº•ã‚¯ãƒ©ã‚¹ã€‚">
<polygon fill="#999999" stroke="transparent" points="308.5,-449 202.5,-449 202.5,-310 308.5,-310 308.5,-449"/>
<text text-anchor="start" x="213" y="-436.5" font-family="Helvetica,sans-Serif" font-size="10.00">Span::EditorPanel</text>
<text text-anchor="start" x="206.5" y="-421.5" font-family="Helvetica,sans-Serif" font-size="10.00">+</text>
<text text-anchor="start" x="219.5" y="-421.5" font-family="Helvetica,sans-Serif" font-size="10.00">title</text>
<text text-anchor="start" x="206.5" y="-406.5" font-family="Helvetica,sans-Serif" font-size="10.00">+</text>
<text text-anchor="start" x="219.5" y="-406.5" font-family="Helvetica,sans-Serif" font-size="10.00">isOpen</text>
<text text-anchor="start" x="206.5" y="-391.5" font-family="Helvetica,sans-Serif" font-size="10.00">+</text>
<text text-anchor="start" x="219.5" y="-391.5" font-family="Helvetica,sans-Serif" font-size="10.00">EditorPanel()</text>
<text text-anchor="start" x="206.5" y="-376.5" font-family="Helvetica,sans-Serif" font-size="10.00">+</text>
<text text-anchor="start" x="219.5" y="-376.5" font-family="Helvetica,sans-Serif" font-size="10.00">~EditorPanel()</text>
<text text-anchor="start" x="206.5" y="-361.5" font-family="Helvetica,sans-Serif" font-size="10.00">+</text>
<text text-anchor="start" x="219.5" y="-361.5" font-family="Helvetica,sans-Serif" font-size="10.00">OnImGuiRender()</text>
<text text-anchor="start" x="206.5" y="-346.5" font-family="Helvetica,sans-Serif" font-size="10.00">+</text>
<text text-anchor="start" x="219.5" y="-346.5" font-family="Helvetica,sans-Serif" font-size="10.00">IsOpen()</text>
<text text-anchor="start" x="206.5" y="-331.5" font-family="Helvetica,sans-Serif" font-size="10.00">+</text>
<text text-anchor="start" x="219.5" y="-331.5" font-family="Helvetica,sans-Serif" font-size="10.00">Open()</text>
<text text-anchor="start" x="206.5" y="-316.5" font-family="Helvetica,sans-Serif" font-size="10.00">+</text>
<text text-anchor="start" x="219.5" y="-316.5" font-family="Helvetica,sans-Serif" font-size="10.00">Close()</text>
<polygon fill="#666666" stroke="#666666" points="202.5,-431.5 202.5,-431.5 308.5,-431.5 308.5,-431.5 202.5,-431.5"/>
<polygon fill="#666666" stroke="#666666" points="202.5,-401.5 202.5,-401.5 217.5,-401.5 217.5,-401.5 202.5,-401.5"/>
<polygon fill="#666666" stroke="#666666" points="217.5,-401.5 217.5,-401.5 308.5,-401.5 308.5,-401.5 217.5,-401.5"/>
<polygon fill="none" stroke="#666666" points="202.5,-310 202.5,-449 308.5,-449 308.5,-310 202.5,-310"/>
</a>
</g>
</g>
<!-- Node2 -->
<g id="Node000002" class="node">
<title>Node2</title>
<g id="a_Node000002"><a xlink:href="classSpan_1_1HierarchyPanel.html" target="_top" xlink:title="ðŸŒ³ ã‚·ãƒ¼ãƒ³ä¸Šã®å…¨ã‚¨ãƒ³ãƒ†ã‚£ãƒ†ã‚£ã‚’ãƒ„ãƒªãƒ¼å½¢å¼ã§è¡¨ç¤ºã™ã‚‹ãƒ‘ãƒãƒ«ã€‚">
<polygon fill="white" stroke="transparent" points="181,-199 0,-199 0,-75 181,-75 181,-199"/>
<text text-anchor="start" x="39" y="-187" font-family="Helvetica,sans-Serif" font-size="10.00">Span::HierarchyPanel</text>
<text text-anchor="start" x="89" y="-172" font-family="Helvetica,sans-Serif" font-size="10.00">Â </text>
<text text-anchor="start" x="4.5" y="-157" font-family="Helvetica,sans-Serif" font-size="10.00">+</text>
<text text-anchor="start" x="17.5" y="-157" font-family="Helvetica,sans-Serif" font-size="10.00">HierarchyPanel()</text>
<text text-anchor="start" x="4.5" y="-142" font-family="Helvetica,sans-Serif" font-size="10.00">+</text>
<text text-anchor="start" x="17.5" y="-142" font-family="Helvetica,sans-Serif" font-size="10.00">OnImGuiRender()</text>
<text text-anchor="start" x="7" y="-127" font-family="Helvetica,sans-Serif" font-size="10.00">&#45;</text>
<text text-anchor="start" x="17.5" y="-127" font-family="Helvetica,sans-Serif" font-size="10.00">DrawEntityNode()</text>
<text text-anchor="start" x="7" y="-112" font-family="Helvetica,sans-Serif" font-size="10.00">&#45;</text>
<text text-anchor="start" x="17.5" y="-112" font-family="Helvetica,sans-Serif" font-size="10.00">DrawContextMenu()</text>
<text text-anchor="start" x="7" y="-97" font-family="Helvetica,sans-Serif" font-size="10.00">&#45;</text>
<text text-anchor="start" x="17.5" y="-97" font-family="Helvetica,sans-Serif" font-size="10.00">DrawEmptySpaceContextMenu()</text>
<text text-anchor="start" x="7" y="-82" font-family="Helvetica,sans-Serif" font-size="10.00">&#45;</text>
<text text-anchor="start" x="17.5" y="-82" font-family="Helvetica,sans-Serif" font-size="10.00">HandleDragDrop()</text>
<polygon fill="#666666" stroke="#666666" points="0.5,-182 0.5,-182 181.5,-182 181.5,-182 0.5,-182"/>
<polygon fill="#666666" stroke="#666666" points="0.5,-167 0.5,-167 181.5,-167 181.5,-167 0.5,-167"/>
<polygon fill="none" stroke="#666666" points="0,-75 0,-199 181,-199 181,-75 0,-75"/>
</a>
</g>
</g>
<!-- Node1&#45;&gt;Node2 -->
<g id="edge1_Node000001_Node000002" class="edge">
<title>Node1&#45;&gt;Node2</title>
<g id="a_edge1_Node000001_Node000002"><a xlink:title=" ">
<path fill="none" stroke="#63b8ff" d="M202.75,-301.61C180.06,-268.54 153.91,-230.42 132.56,-199.3"/>
<polygon fill="none" stroke="#63b8ff" points="199.9,-303.64 208.44,-309.9 205.67,-299.68 199.9,-303.64"/>
</a>
</g>
</g>
<!-- Node3 -->
<g id="Node000003" class="node">
<title>Node3</title>
<g id="a_Node000003"><a xlink:href="classSpan_1_1InspectorPanel.html" target="_top" xlink:title="ðŸ•µï¸ é¸æŠžä¸­ã®EntityãŒæŒã¤ã‚³ãƒ³ãƒãƒ¼ãƒãƒ³ãƒˆã‚’åˆ—æŒ™ã—ã€ç·¨é›†UIã‚’æä¾›ã™ã‚‹ãƒ‘ãƒãƒ«ã€‚">
<polygon fill="white" stroke="transparent" points="311.5,-169 199.5,-169 199.5,-105 311.5,-105 311.5,-169"/>
<text text-anchor="start" x="204.5" y="-157" font-family="Helvetica,sans-Serif" font-size="10.00">Span::InspectorPanel</text>
<text text-anchor="start" x="253.5" y="-142" font-family="Helvetica,sans-Serif" font-size="10.00">Â </text>
<text text-anchor="start" x="205" y="-127" font-family="Helvetica,sans-Serif" font-size="10.00">+</text>
<text text-anchor="start" x="219.5" y="-127" font-family="Helvetica,sans-Serif" font-size="10.00">InspectorPanel()</text>
<text text-anchor="start" x="205" y="-112" font-family="Helvetica,sans-Serif" font-size="10.00">+</text>
<text text-anchor="start" x="219.5" y="-112" font-family="Helvetica,sans-Serif" font-size="10.00">OnImGuiRender()</text>
<polygon fill="#666666" stroke="#666666" points="199.5,-152 199.5,-152 311.5,-152 311.5,-152 199.5,-152"/>
<polygon fill="#666666" stroke="#666666" points="199.5,-137 199.5,-137 311.5,-137 311.5,-137 199.5,-137"/>
<polygon fill="none" stroke="#666666" points="199.5,-105 199.5,-169 311.5,-169 311.5,-105 199.5,-105"/>
</a>
</g>
</g>
<!-- Node1&#45;&gt;Node3 -->
<g id="edge2_Node000001_Node000003" class="edge">
<title>Node1&#45;&gt;Node3</title>
<g id="a_edge2_Node000001_Node000003"><a xlink:title=" ">
<path fill="none" stroke="#63b8ff" d="M255.5,-299.67C255.5,-255.12 255.5,-201.95 255.5,-169.07"/>
<polygon fill="none" stroke="#63b8ff" points="252,-299.9 255.5,-309.9 259,-299.9 252,-299.9"/>
</a>
</g>
</g>
<!-- Node4 -->
<g id="Node000004" class="node">
<title>Node4</title>
<g id="a_Node000004"><a xlink:href="classSpan_1_1SceneViewPanel.html" target="_top" xlink:title="ðŸŽ¥ ã‚²ãƒ¼ãƒ ã®æç”»çµæžœã‚’è¡¨ç¤ºã—ã€ã‚ªãƒ–ã‚¸ã‚§ã‚¯ãƒˆæ“ä½œ(Gizmo)ã‚’æä¾›ã™ã‚‹ã‚¯ãƒ©ã‚¹ã€‚">
<polygon fill="white" stroke="transparent" points="457.5,-274 329.5,-274 329.5,0 457.5,0 457.5,-274"/>
<text text-anchor="start" x="338.5" y="-262" font-family="Helvetica,sans-Serif" font-size="10.00">Span::SceneViewPanel</text>
<text text-anchor="start" x="336" y="-247" font-family="Helvetica,sans-Serif" font-size="10.00">&#45;</text>
<text text-anchor="start" x="346.5" y="-247" font-family="Helvetica,sans-Serif" font-size="10.00">textureHandle</text>
<text text-anchor="start" x="336" y="-232" font-family="Helvetica,sans-Serif" font-size="10.00">&#45;</text>
<text text-anchor="start" x="346.5" y="-232" font-family="Helvetica,sans-Serif" font-size="10.00">m_PanelSize</text>
<text text-anchor="start" x="336" y="-217" font-family="Helvetica,sans-Serif" font-size="10.00">&#45;</text>
<text text-anchor="start" x="346.5" y="-217" font-family="Helvetica,sans-Serif" font-size="10.00">m_TargetResolution</text>
<text text-anchor="start" x="336" y="-202" font-family="Helvetica,sans-Serif" font-size="10.00">&#45;</text>
<text text-anchor="start" x="346.5" y="-202" font-family="Helvetica,sans-Serif" font-size="10.00">m_GizmoType</text>
<text text-anchor="start" x="336" y="-187" font-family="Helvetica,sans-Serif" font-size="10.00">&#45;</text>
<text text-anchor="start" x="346.5" y="-187" font-family="Helvetica,sans-Serif" font-size="10.00">m_GizmoMode</text>
<text text-anchor="start" x="336" y="-172" font-family="Helvetica,sans-Serif" font-size="10.00">&#45;</text>
<text text-anchor="start" x="346.5" y="-172" font-family="Helvetica,sans-Serif" font-size="10.00">m_UseSnap</text>
<text text-anchor="start" x="336" y="-157" font-family="Helvetica,sans-Serif" font-size="10.00">&#45;</text>
<text text-anchor="start" x="346.5" y="-157" font-family="Helvetica,sans-Serif" font-size="10.00">m_SnapValueMove</text>
<text text-anchor="start" x="336" y="-142" font-family="Helvetica,sans-Serif" font-size="10.00">&#45;</text>
<text text-anchor="start" x="346.5" y="-142" font-family="Helvetica,sans-Serif" font-size="10.00">m_SnapValueRotate</text>
<text text-anchor="start" x="336" y="-127" font-family="Helvetica,sans-Serif" font-size="10.00">&#45;</text>
<text text-anchor="start" x="346.5" y="-127" font-family="Helvetica,sans-Serif" font-size="10.00">m_SnapValueScale</text>
<text text-anchor="start" x="336" y="-112" font-family="Helvetica,sans-Serif" font-size="10.00">&#45;</text>
<text text-anchor="start" x="346.5" y="-112" font-family="Helvetica,sans-Serif" font-size="10.00">m_AspectRatio</text>
<text text-anchor="start" x="333.5" y="-97" font-family="Helvetica,sans-Serif" font-size="10.00">+</text>
<text text-anchor="start" x="346.5" y="-97" font-family="Helvetica,sans-Serif" font-size="10.00">SceneViewPanel()</text>
<text text-anchor="start" x="333.5" y="-82" font-family="Helvetica,sans-Serif" font-size="10.00">+</text>
<text text-anchor="start" x="346.5" y="-82" font-family="Helvetica,sans-Serif" font-size="10.00">OnImGuiRender()</text>
<text text-anchor="start" x="333.5" y="-67" font-family="Helvetica,sans-Serif" font-size="10.00">+</text>
<text text-anchor="start" x="346.5" y="-67" font-family="Helvetica,sans-Serif" font-size="10.00">SetTexture()</text>
<text text-anchor="start" x="333.5" y="-52" font-family="Helvetica,sans-Serif" font-size="10.00">+</text>
<text text-anchor="start" x="346.5" y="-52" font-family="Helvetica,sans-Serif" font-size="10.00">GetTargetResolution()</text>
<text text-anchor="start" x="336" y="-37" font-family="Helvetica,sans-Serif" font-size="10.00">&#45;</text>
<text text-anchor="start" x="346.5" y="-37" font-family="Helvetica,sans-Serif" font-size="10.00">DrawToolbarOverlay()</text>
<text text-anchor="start" x="336" y="-22" font-family="Helvetica,sans-Serif" font-size="10.00">&#45;</text>
<text text-anchor="start" x="346.5" y="-22" font-family="Helvetica,sans-Serif" font-size="10.00">DrawGizmo()</text>
<text text-anchor="start" x="336" y="-7" font-family="Helvetica,sans-Serif" font-size="10.00">&#45;</text>
<text text-anchor="start" x="346.5" y="-7" font-family="Helvetica,sans-Serif" font-size="10.00">CalculateImageArea()</text>
<polygon fill="#666666" stroke="#666666" points="329.5,-257 329.5,-257 457.5,-257 457.5,-257 329.5,-257"/>
<polygon fill="#666666" stroke="#666666" points="329.5,-107 329.5,-107 344.5,-107 344.5,-107 329.5,-107"/>
<polygon fill="#666666" stroke="#666666" points="344.5,-107 344.5,-107 457.5,-107 457.5,-107 344.5,-107"/>
<polygon fill="none" stroke="#666666" points="329.5,0 329.5,-274 457.5,-274 457.5,0 329.5,0"/>
</a>
</g>
</g>
<!-- Node1&#45;&gt;Node4 -->
<g id="edge3_Node000001_Node000004" class="edge">
<title>Node1&#45;&gt;Node4</title>
<g id="a_edge3_Node000001_Node000004"><a xlink:title=" ">
<path fill="none" stroke="#63b8ff" d="M304.42,-301.08C309.93,-292 315.39,-282.83 320.5,-274 323.45,-268.9 326.44,-263.67 329.43,-258.37"/>
<polygon fill="none" stroke="#63b8ff" points="301.36,-299.38 299.13,-309.74 307.33,-303.02 301.36,-299.38"/>
</a>
</g>
</g>
</g>
</svg>
