<?xml version="1.0" encoding="UTF-8" standalone="no"?>
<!DOCTYPE svg PUBLIC "-//W3C//DTD SVG 1.1//EN"
 "http://www.w3.org/Graphics/SVG/1.1/DTD/svg11.dtd">
<!-- Generated by graphviz version 2.43.0 (0)
 -->
<!-- Title: Span::RenderTarget::GetSRV Pages: 1 -->
<svg width="666pt" height="151pt"
 viewBox="0.00 0.00 666.00 151.00" xmlns="http://www.w3.org/2000/svg" xmlns:xlink="http://www.w3.org/1999/xlink">
<g id="graph0" class="graph" transform="scale(1 1) rotate(0) translate(4 147)">
<title>Span::RenderTarget::GetSRV</title>
<!-- Node1 -->
<g id="Node000001" class="node">
<title>Node1</title>
<g id="a_Node000001"><a xlink:title=" ">
<polygon fill="#999999" stroke="#666666" points="658,-54 547,-54 547,-24 658,-24 658,-54"/>
<text text-anchor="start" x="555" y="-42" font-family="Helvetica,sans-Serif" font-size="10.00">Span::RenderTarget</text>
<text text-anchor="middle" x="602.5" y="-31" font-family="Helvetica,sans-Serif" font-size="10.00">::GetSRV</text>
</a>
</g>
</g>
<!-- Node2 -->
<g id="Node000002" class="node">
<title>Node2</title>
<g id="a_Node000002"><a xlink:href="classSpan_1_1Renderer.html#a30d84e655d8659ace346e4b3c1e0bdd4" target="_top" xlink:title="指定スロットにRenderTargetのSRVをバインドします。">
<polygon fill="white" stroke="#666666" points="511,-86 358,-86 358,-56 511,-56 511,-86"/>
<text text-anchor="start" x="366" y="-74" font-family="Helvetica,sans-Serif" font-size="10.00">Span::Renderer::BindRender</text>
<text text-anchor="middle" x="434.5" y="-63" font-family="Helvetica,sans-Serif" font-size="10.00">TargetSRV</text>
</a>
</g>
</g>
<!-- Node1&#45;&gt;Node2 -->
<g id="edge1_Node000001_Node000002" class="edge">
<title>Node1&#45;&gt;Node2</title>
<g id="a_edge1_Node000001_Node000002"><a xlink:title=" ">
<path fill="none" stroke="#63b8ff" d="M536.68,-51.49C528.36,-53.1 519.78,-54.75 511.3,-56.39"/>
<polygon fill="#63b8ff" stroke="#63b8ff" points="537.53,-54.9 546.69,-49.57 536.2,-48.02 537.53,-54.9"/>
</a>
</g>
</g>
<!-- Node8 -->
<g id="Node000008" class="node">
<title>Node8</title>
<g id="a_Node000008"><a xlink:href="classSpan_1_1LightManager.html#afdd8a8098b8182f106c07d104cb34765" target="_top" xlink:title=" ">
<polygon fill="white" stroke="#666666" points="494,-30 375,-30 375,0 494,0 494,-30"/>
<text text-anchor="start" x="383" y="-18" font-family="Helvetica,sans-Serif" font-size="10.00">Span::LightManager</text>
<text text-anchor="middle" x="434.5" y="-7" font-family="Helvetica,sans-Serif" font-size="10.00">::ExecuteLightCulling</text>
</a>
</g>
</g>
<!-- Node1&#45;&gt;Node8 -->
<g id="edge7_Node000001_Node000008" class="edge">
<title>Node1&#45;&gt;Node8</title>
<g id="a_edge7_Node000001_Node000008"><a xlink:title=" ">
<path fill="none" stroke="#63b8ff" d="M536.66,-29.63C522.68,-27.6 507.98,-25.48 494.25,-23.49"/>
<polygon fill="#63b8ff" stroke="#63b8ff" points="536.29,-33.11 546.69,-31.07 537.29,-26.18 536.29,-33.11"/>
</a>
</g>
</g>
<!-- Node3 -->
<g id="Node000003" class="node">
<title>Node3</title>
<g id="a_Node000003"><a xlink:href="classSpan_1_1Renderer.html#a2a47762d9edc86294bef1d38ab5e93b9" target="_top" xlink:title="フレーム共通リソースをバインドする">
<polygon fill="white" stroke="#666666" points="322,-143 172,-143 172,-113 322,-113 322,-143"/>
<text text-anchor="start" x="180" y="-131" font-family="Helvetica,sans-Serif" font-size="10.00">Span::Renderer::BindGlobal</text>
<text text-anchor="middle" x="247" y="-120" font-family="Helvetica,sans-Serif" font-size="10.00">Resources</text>
</a>
</g>
</g>
<!-- Node2&#45;&gt;Node3 -->
<g id="edge2_Node000002_Node000003" class="edge">
<title>Node2&#45;&gt;Node3</title>
<g id="a_edge2_Node000002_Node000003"><a xlink:title=" ">
<path fill="none" stroke="#63b8ff" d="M374.56,-89.11C349.62,-96.77 320.9,-105.6 297.13,-112.9"/>
<polygon fill="#63b8ff" stroke="#63b8ff" points="375.75,-92.41 384.28,-86.13 373.69,-85.72 375.75,-92.41"/>
</a>
</g>
</g>
<!-- Node6 -->
<g id="Node000006" class="node">
<title>Node6</title>
<g id="a_Node000006"><a xlink:href="classSpan_1_1SSAOBlurPass.html#a8312f63bfc3b6f3f233f5dce533a30d9" target="_top" xlink:title=" ">
<polygon fill="white" stroke="#666666" points="304.5,-95 189.5,-95 189.5,-65 304.5,-65 304.5,-95"/>
<text text-anchor="start" x="197.5" y="-83" font-family="Helvetica,sans-Serif" font-size="10.00">Span::SSAOBlurPass</text>
<text text-anchor="middle" x="247" y="-72" font-family="Helvetica,sans-Serif" font-size="10.00">::Execute</text>
</a>
</g>
</g>
<!-- Node2&#45;&gt;Node6 -->
<g id="edge5_Node000002_Node000006" class="edge">
<title>Node2&#45;&gt;Node6</title>
<g id="a_edge5_Node000002_Node000006"><a xlink:title=" ">
<path fill="none" stroke="#63b8ff" d="M347.74,-75.16C333.14,-75.87 318.32,-76.59 304.72,-77.25"/>
<polygon fill="#63b8ff" stroke="#63b8ff" points="347.96,-78.65 357.78,-74.67 347.62,-71.66 347.96,-78.65"/>
</a>
</g>
</g>
<!-- Node7 -->
<g id="Node000007" class="node">
<title>Node7</title>
<g id="a_Node000007"><a xlink:href="classSpan_1_1SSAOPass.html#af7229ce70bbcfc88e3313d23623304f7" target="_top" xlink:title="SSAOの描画を実行します。">
<polygon fill="white" stroke="#666666" points="317,-46.5 177,-46.5 177,-27.5 317,-27.5 317,-46.5"/>
<text text-anchor="middle" x="247" y="-34.5" font-family="Helvetica,sans-Serif" font-size="10.00">Span::SSAOPass::Execute</text>
</a>
</g>
</g>
<!-- Node2&#45;&gt;Node7 -->
<g id="edge6_Node000002_Node000007" class="edge">
<title>Node2&#45;&gt;Node7</title>
<g id="a_edge6_Node000002_Node000007"><a xlink:title=" ">
<path fill="none" stroke="#63b8ff" d="M347.69,-55.27C331.39,-52.28 314.8,-49.24 299.95,-46.52"/>
<polygon fill="#63b8ff" stroke="#63b8ff" points="347.32,-58.76 357.78,-57.12 348.58,-51.88 347.32,-58.76"/>
</a>
</g>
</g>
<!-- Node4 -->
<g id="Node000004" class="node">
<title>Node4</title>
<g id="a_Node000004"><a xlink:href="classSpan_1_1RenderingSystem.html#aa0113a8f2b55129115c4da2c6ba449c4" target="_top" xlink:title="毎フレーム呼び出されます。ここにゲームロジックを記述します。">
<polygon fill="white" stroke="#666666" points="134.5,-55 1.5,-55 1.5,-25 134.5,-25 134.5,-55"/>
<text text-anchor="start" x="9.5" y="-43" font-family="Helvetica,sans-Serif" font-size="10.00">Span::RenderingSystem</text>
<text text-anchor="middle" x="68" y="-32" font-family="Helvetica,sans-Serif" font-size="10.00">::OnUpdate</text>
</a>
</g>
</g>
<!-- Node3&#45;&gt;Node4 -->
<g id="edge3_Node000003_Node000004" class="edge">
<title>Node3&#45;&gt;Node4</title>
<g id="a_edge3_Node000003_Node000004"><a xlink:title=" ">
<path fill="none" stroke="#63b8ff" d="M184.56,-109.36C180.26,-107.66 176.04,-105.87 172,-104 142.02,-90.08 110.07,-69.16 89.85,-55.06"/>
<polygon fill="#63b8ff" stroke="#63b8ff" points="183.44,-112.68 194.03,-112.92 185.9,-106.13 183.44,-112.68"/>
</a>
</g>
</g>
<!-- Node5 -->
<g id="Node000005" class="node">
<title>Node5</title>
<g id="a_Node000005"><a xlink:href="classSpan_1_1MaterialPreviewer.html#a7af64e04a1aae97d04d3a2bbe15f50a8" target="_top" xlink:title="オフスクリーンターゲットに球体を描画します。">
<polygon fill="white" stroke="#666666" points="136,-143 0,-143 0,-113 136,-113 136,-143"/>
<text text-anchor="start" x="8" y="-131" font-family="Helvetica,sans-Serif" font-size="10.00">Span::MaterialPreviewer</text>
<text text-anchor="middle" x="68" y="-120" font-family="Helvetica,sans-Serif" font-size="10.00">::Render</text>
</a>
</g>
</g>
<!-- Node3&#45;&gt;Node5 -->
<g id="edge4_Node000003_Node000005" class="edge">
<title>Node3&#45;&gt;Node5</title>
<g id="a_edge4_Node000003_Node000005"><a xlink:title=" ">
<path fill="none" stroke="#63b8ff" d="M161.91,-128C153.3,-128 144.64,-128 136.25,-128"/>
<polygon fill="#63b8ff" stroke="#63b8ff" points="161.96,-131.5 171.96,-128 161.96,-124.5 161.96,-131.5"/>
</a>
</g>
</g>
<!-- Node8&#45;&gt;Node4 -->
<g id="edge8_Node000008_Node000004" class="edge">
<title>Node8&#45;&gt;Node4</title>
<g id="a_edge8_Node000008_Node000004"><a xlink:title=" ">
<path fill="none" stroke="#63b8ff" d="M364.6,-12.07C311.74,-10.72 237.04,-10.75 172,-18 158.19,-19.54 143.5,-22.1 129.67,-24.95"/>
<polygon fill="#63b8ff" stroke="#63b8ff" points="364.78,-15.57 374.88,-12.35 364.98,-8.58 364.78,-15.57"/>
</a>
</g>
</g>
</g>
</svg>
