<?xml version="1.0" encoding="UTF-8" standalone="no"?>
<!DOCTYPE svg PUBLIC "-//W3C//DTD SVG 1.1//EN"
 "http://www.w3.org/Graphics/SVG/1.1/DTD/svg11.dtd">
<!-- Generated by graphviz version 2.43.0 (0)
 -->
<!-- Title: Span::InspectorPanel::DrawAssetInspector Pages: 1 -->
<svg width="456pt" height="81pt"
 viewBox="0.00 0.00 456.00 81.00" xmlns="http://www.w3.org/2000/svg" xmlns:xlink="http://www.w3.org/1999/xlink">
<g id="graph0" class="graph" transform="scale(1 1) rotate(0) translate(4 77)">
<title>Span::InspectorPanel::DrawAssetInspector</title>
<!-- Node1 -->
<g id="Node000001" class="node">
<title>Node1</title>
<g id="a_Node000001"><a xlink:title="アセット用のインスペクターを描画します。">
<polygon fill="#999999" stroke="#666666" points="120,-51 0,-51 0,-21 120,-21 120,-51"/>
<text text-anchor="start" x="8" y="-39" font-family="Helvetica,sans-Serif" font-size="10.00">Span::InspectorPanel</text>
<text text-anchor="middle" x="60" y="-28" font-family="Helvetica,sans-Serif" font-size="10.00">::DrawAssetInspector</text>
</a>
</g>
</g>
<!-- Node2 -->
<g id="Node000002" class="node">
<title>Node2</title>
<g id="a_Node000002"><a xlink:href="classSpan_1_1AssetManager.html#a8b80e59ea529e23c8c8f5280d136fbf0" target="_top" xlink:title="シングルトンインスタンスを取得します。">
<polygon fill="white" stroke="#666666" points="296,-67.5 156,-67.5 156,-48.5 296,-48.5 296,-67.5"/>
<text text-anchor="middle" x="226" y="-55.5" font-family="Helvetica,sans-Serif" font-size="10.00">Span::AssetManager::Get</text>
</a>
</g>
</g>
<!-- Node1&#45;&gt;Node2 -->
<g id="edge1_Node000001_Node000002" class="edge">
<title>Node1&#45;&gt;Node2</title>
<g id="a_edge1_Node000001_Node000002"><a xlink:title=" ">
<path fill="none" stroke="#63b8ff" d="M120.21,-43.94C128.52,-45.06 137.17,-46.22 145.77,-47.37"/>
<polygon fill="#63b8ff" stroke="#63b8ff" points="145.46,-50.86 155.84,-48.72 146.39,-43.92 145.46,-50.86"/>
</a>
</g>
</g>
<!-- Node4 -->
<g id="Node000004" class="node">
<title>Node4</title>
<g id="a_Node000004"><a xlink:href="classSpan_1_1EditorFileSystem.html#abd004be9e3bb4f680bffa5722f82aa34" target="_top" xlink:title="指定されたファイルを関連付けられたアプリで開きます。">
<polygon fill="white" stroke="#666666" points="290.5,-30 161.5,-30 161.5,0 290.5,0 290.5,-30"/>
<text text-anchor="start" x="169.5" y="-18" font-family="Helvetica,sans-Serif" font-size="10.00">Span::EditorFileSystem</text>
<text text-anchor="middle" x="226" y="-7" font-family="Helvetica,sans-Serif" font-size="10.00">::OpenExternal</text>
</a>
</g>
</g>
<!-- Node1&#45;&gt;Node4 -->
<g id="edge3_Node000001_Node000004" class="edge">
<title>Node1&#45;&gt;Node4</title>
<g id="a_edge3_Node000001_Node000004"><a xlink:title=" ">
<path fill="none" stroke="#63b8ff" d="M120.21,-28.42C130.36,-27.12 141.02,-25.75 151.49,-24.41"/>
<polygon fill="#63b8ff" stroke="#63b8ff" points="151.97,-27.88 161.45,-23.14 151.08,-20.94 151.97,-27.88"/>
</a>
</g>
</g>
<!-- Node3 -->
<g id="Node000003" class="node">
<title>Node3</title>
<g id="a_Node000003"><a xlink:href="classSpan_1_1AssetManager.html#a9d65496b728f9a4fef2a5334d5a8ad56" target="_top" xlink:title=" ">
<polygon fill="white" stroke="#666666" points="448,-73 332,-73 332,-43 448,-43 448,-73"/>
<text text-anchor="start" x="340" y="-61" font-family="Helvetica,sans-Serif" font-size="10.00">Span::AssetManager</text>
<text text-anchor="middle" x="390" y="-50" font-family="Helvetica,sans-Serif" font-size="10.00">::AssetManager</text>
</a>
</g>
</g>
<!-- Node2&#45;&gt;Node3 -->
<g id="edge2_Node000002_Node000003" class="edge">
<title>Node2&#45;&gt;Node3</title>
<g id="a_edge2_Node000002_Node000003"><a xlink:title=" ">
<path fill="none" stroke="#63b8ff" d="M296.17,-58C304.61,-58 313.22,-58 321.63,-58"/>
<polygon fill="#63b8ff" stroke="#63b8ff" points="321.77,-61.5 331.77,-58 321.77,-54.5 321.77,-61.5"/>
</a>
</g>
</g>
</g>
</svg>
