<?xml version="1.0" encoding="UTF-8" standalone="no"?>
<!DOCTYPE svg PUBLIC "-//W3C//DTD SVG 1.1//EN"
 "http://www.w3.org/Graphics/SVG/1.1/DTD/svg11.dtd">
<!-- Generated by graphviz version 2.43.0 (0)
 -->
<!-- Title: Span::ProjectBrowserPanel::DrawContextMenu Pages: 1 -->
<svg width="518pt" height="258pt"
 viewBox="0.00 0.00 518.00 257.50" xmlns="http://www.w3.org/2000/svg" xmlns:xlink="http://www.w3.org/1999/xlink">
<g id="graph0" class="graph" transform="scale(1 1) rotate(0) translate(4 253.5)">
<title>Span::ProjectBrowserPanel::DrawContextMenu</title>
<!-- Node1 -->
<g id="Node000001" class="node">
<title>Node1</title>
<g id="a_Node000001"><a xlink:title="右クリックコンテキストメニューを描画します。">
<polygon fill="#999999" stroke="#666666" points="146,-136.5 0,-136.5 0,-106.5 146,-106.5 146,-136.5"/>
<text text-anchor="start" x="8" y="-124.5" font-family="Helvetica,sans-Serif" font-size="10.00">Span::ProjectBrowserPanel</text>
<text text-anchor="middle" x="73" y="-113.5" font-family="Helvetica,sans-Serif" font-size="10.00">::DrawContextMenu</text>
</a>
</g>
</g>
<!-- Node2 -->
<g id="Node000002" class="node">
<title>Node2</title>
<g id="a_Node000002"><a xlink:href="classSpan_1_1ProjectBrowserPanel.html#a9c8bd4d52ec6a953f4708efdb2514507" target="_top" xlink:title="C++ コンポーネントのテンプレートを生成します。">
<polygon fill="white" stroke="#666666" points="328,-249.5 182,-249.5 182,-219.5 328,-219.5 328,-249.5"/>
<text text-anchor="start" x="190" y="-237.5" font-family="Helvetica,sans-Serif" font-size="10.00">Span::ProjectBrowserPanel</text>
<text text-anchor="middle" x="255" y="-226.5" font-family="Helvetica,sans-Serif" font-size="10.00">::CreateComponentScript</text>
</a>
</g>
</g>
<!-- Node1&#45;&gt;Node2 -->
<g id="edge1_Node000001_Node000002" class="edge">
<title>Node1&#45;&gt;Node2</title>
<g id="a_edge1_Node000001_Node000002"><a xlink:title=" ">
<path fill="none" stroke="#63b8ff" d="M88.76,-136.74C108.41,-156.27 145.01,-190.03 182,-210.5 185.09,-212.21 188.32,-213.83 191.64,-215.35"/>
<polygon fill="#63b8ff" stroke="#63b8ff" points="190.55,-218.69 201.13,-219.39 193.3,-212.25 190.55,-218.69"/>
</a>
</g>
</g>
<!-- Node3 -->
<g id="Node000003" class="node">
<title>Node3</title>
<g id="a_Node000003"><a xlink:href="classSpan_1_1ProjectBrowserPanel.html#a81fd9fb886e478f14222e91c2ca43d7f" target="_top" xlink:title="テンプレートからファイルを生成します。">
<polygon fill="white" stroke="#666666" points="328,-201.5 182,-201.5 182,-171.5 328,-171.5 328,-201.5"/>
<text text-anchor="start" x="190" y="-189.5" font-family="Helvetica,sans-Serif" font-size="10.00">Span::ProjectBrowserPanel</text>
<text text-anchor="middle" x="255" y="-178.5" font-family="Helvetica,sans-Serif" font-size="10.00">::CreateFileFromTemplate</text>
</a>
</g>
</g>
<!-- Node1&#45;&gt;Node3 -->
<g id="edge2_Node000001_Node000003" class="edge">
<title>Node1&#45;&gt;Node3</title>
<g id="a_edge2_Node000001_Node000003"><a xlink:title=" ">
<path fill="none" stroke="#63b8ff" d="M115.75,-136.58C141.67,-145.94 175.17,-158.03 202.7,-167.97"/>
<polygon fill="#63b8ff" stroke="#63b8ff" points="201.57,-171.29 212.17,-171.39 203.95,-164.71 201.57,-171.29"/>
</a>
</g>
</g>
<!-- Node4 -->
<g id="Node000004" class="node">
<title>Node4</title>
<g id="a_Node000004"><a xlink:href="classSpan_1_1ProjectBrowserPanel.html#a7b1af5b6e52d5d7dc6afe0cc6d32407a" target="_top" xlink:title="コマンド実行用ラッパー">
<polygon fill="white" stroke="#666666" points="510,-179.5 364,-179.5 364,-149.5 510,-149.5 510,-179.5"/>
<text text-anchor="start" x="372" y="-167.5" font-family="Helvetica,sans-Serif" font-size="10.00">Span::ProjectBrowserPanel</text>
<text text-anchor="middle" x="437" y="-156.5" font-family="Helvetica,sans-Serif" font-size="10.00">::ExecuteCommand</text>
</a>
</g>
</g>
<!-- Node1&#45;&gt;Node4 -->
<g id="edge5_Node000001_Node000004" class="edge">
<title>Node1&#45;&gt;Node4</title>
<g id="a_edge5_Node000001_Node000004"><a xlink:title=" ">
<path fill="none" stroke="#63b8ff" d="M146.39,-130.1C206.19,-137.2 291.11,-147.29 353.53,-154.7"/>
<polygon fill="#63b8ff" stroke="#63b8ff" points="353.4,-158.21 363.74,-155.92 354.22,-151.26 353.4,-158.21"/>
</a>
</g>
</g>
<!-- Node5 -->
<g id="Node000005" class="node">
<title>Node5</title>
<g id="a_Node000005"><a xlink:href="classSpan_1_1ProjectBrowserPanel.html#a5c90e6fb529021ba52ce62765c93009c" target="_top" xlink:title="C++ システムのテンプレートを生成します。">
<polygon fill="white" stroke="#666666" points="328,-115.5 182,-115.5 182,-85.5 328,-85.5 328,-115.5"/>
<text text-anchor="start" x="190" y="-103.5" font-family="Helvetica,sans-Serif" font-size="10.00">Span::ProjectBrowserPanel</text>
<text text-anchor="middle" x="255" y="-92.5" font-family="Helvetica,sans-Serif" font-size="10.00">::CreateSystemScript</text>
</a>
</g>
</g>
<!-- Node1&#45;&gt;Node5 -->
<g id="edge4_Node000001_Node000005" class="edge">
<title>Node1&#45;&gt;Node5</title>
<g id="a_edge4_Node000001_Node000005"><a xlink:title=" ">
<path fill="none" stroke="#63b8ff" d="M146.18,-113.08C154.61,-112.1 163.27,-111.09 171.82,-110.09"/>
<polygon fill="#63b8ff" stroke="#63b8ff" points="172.28,-113.56 181.81,-108.92 171.47,-106.6 172.28,-113.56"/>
</a>
</g>
</g>
<!-- Node6 -->
<g id="Node000006" class="node">
<title>Node6</title>
<g id="a_Node000006"><a xlink:href="classSpan_1_1EditorFileSystem.html#a8605b55dcb8b7650b1963e28e3ea6747" target="_top" xlink:title="エクスプローラーで指定のパスを開きます。">
<polygon fill="white" stroke="#666666" points="319.5,-67.5 190.5,-67.5 190.5,-37.5 319.5,-37.5 319.5,-67.5"/>
<text text-anchor="start" x="198.5" y="-55.5" font-family="Helvetica,sans-Serif" font-size="10.00">Span::EditorFileSystem</text>
<text text-anchor="middle" x="255" y="-44.5" font-family="Helvetica,sans-Serif" font-size="10.00">::OpenInExplorer</text>
</a>
</g>
</g>
<!-- Node1&#45;&gt;Node6 -->
<g id="edge6_Node000001_Node000006" class="edge">
<title>Node1&#45;&gt;Node6</title>
<g id="a_edge6_Node000001_Node000006"><a xlink:title=" ">
<path fill="none" stroke="#63b8ff" d="M108.28,-106.46C129.38,-97.4 157.08,-85.83 182,-76.5 187.01,-74.62 192.25,-72.74 197.51,-70.89"/>
<polygon fill="#63b8ff" stroke="#63b8ff" points="198.65,-74.2 206.96,-67.63 196.37,-67.58 198.65,-74.2"/>
</a>
</g>
</g>
<!-- Node7 -->
<g id="Node000007" class="node">
<title>Node7</title>
<g id="a_Node000007"><a xlink:href="classSpan_1_1Material.html#a5de9ef8504ae701154b1120753c76eaf" target="_top" xlink:title="マテリアルを .mat ファイルとして保存します。">
<polygon fill="white" stroke="#666666" points="322.5,-19 187.5,-19 187.5,0 322.5,0 322.5,-19"/>
<text text-anchor="middle" x="255" y="-7" font-family="Helvetica,sans-Serif" font-size="10.00">Span::Material::Serialize</text>
</a>
</g>
</g>
<!-- Node1&#45;&gt;Node7 -->
<g id="edge7_Node000001_Node000007" class="edge">
<title>Node1&#45;&gt;Node7</title>
<g id="a_edge7_Node000001_Node000007"><a xlink:title=" ">
<path fill="none" stroke="#63b8ff" d="M87.43,-106.22C106.45,-85.55 143.24,-48.9 182,-28.5 186.46,-26.15 191.23,-24.08 196.12,-22.25"/>
<polygon fill="#63b8ff" stroke="#63b8ff" points="197.26,-25.56 205.61,-19.03 195.01,-18.93 197.26,-25.56"/>
</a>
</g>
</g>
<!-- Node3&#45;&gt;Node4 -->
<g id="edge3_Node000003_Node000004" class="edge">
<title>Node3&#45;&gt;Node4</title>
<g id="a_edge3_Node000003_Node000004"><a xlink:title=" ">
<path fill="none" stroke="#63b8ff" d="M328.18,-177.68C336.61,-176.65 345.27,-175.59 353.82,-174.54"/>
<polygon fill="#63b8ff" stroke="#63b8ff" points="354.31,-178.01 363.81,-173.32 353.46,-171.06 354.31,-178.01"/>
</a>
</g>
</g>
</g>
</svg>
