<?xml version="1.0" encoding="UTF-8" standalone="no"?>
<!DOCTYPE svg PUBLIC "-//W3C//DTD SVG 1.1//EN"
 "http://www.w3.org/Graphics/SVG/1.1/DTD/svg11.dtd">
<!-- Generated by graphviz version 2.43.0 (0)
 -->
<!-- Title: Span::InspectorPanel::DrawEntityInspector Pages: 1 -->
<!--zoomable 741 -->

<svg id="main" version="1.1" xmlns="http://www.w3.org/2000/svg" xmlns:xlink="http://www.w3.org/1999/xlink" xml:space="preserve" onload="init(evt)">

<style type="text/css"><![CDATA[
.node, .edge {opacity: 0.7;}
.node.selected, .edge.selected {opacity: 1;}
.edge:hover path { stroke: red; }
.edge:hover polygon { stroke: red; fill: red; }
]]></style>

<defs>
  <circle id="rim" cx="0" cy="0" r="7"/>
  <circle id="rim2" cx="0" cy="0" r="3.5"/>
  <g id="zoomPlus">
    <use xlink:href="#rim" fill="#404040"><set attributeName="fill" to="#808080" begin="zoomplus.mouseover" end="zoomplus.mouseout"/></use>
    <path d="M-4,0h8M0,-4v8" fill="none" stroke="white" stroke-width="1.5" pointer-events="none"/>
  </g>
  <g id="zoomMin">
    <use xlink:href="#rim" fill="#404040"><set attributeName="fill" to="#808080" begin="zoomminus.mouseover" end="zoomminus.mouseout"/></use>
    <path d="M-4,0h8" fill="none" stroke="white" stroke-width="1.5" pointer-events="none"/>
  </g>
  <g id="arrowUp" transform="translate(30 24)">
    <use xlink:href="#rim"/>
    <path pointer-events="none" fill="none" stroke="white" stroke-width="1.5" d="M0,-3.0v7 M-2.5,-0.5L0,-3.0L2.5,-0.5"/>
  </g>
  <g id="arrowRight" transform="rotate(90) translate(36 -43)">
    <use xlink:href="#rim"/>
    <path pointer-events="none" fill="none" stroke="white" stroke-width="1.5" d="M0,-3.0v7 M-2.5,-0.5L0,-3.0L2.5,-0.5"/>
  </g>
  <g id="arrowDown" transform="rotate(180) translate(-30 -48)">
    <use xlink:href="#rim"/>
    <path pointer-events="none" fill="none" stroke="white" stroke-width="1.5" d="M0,-3.0v7 M-2.5,-0.5L0,-3.0L2.5,-0.5"/>
  </g>
  <g id="arrowLeft" transform="rotate(270) translate(-36 17)">
    <use xlink:href="#rim"/>
    <path pointer-events="none" fill="none" stroke="white" stroke-width="1.5" d="M0,-3.0v7 M-2.5,-0.5L0,-3.0L2.5,-0.5"/>
  </g>
  <g id="resetDef">
    <use xlink:href="#rim2" fill="#404040"><set attributeName="fill" to="#808080" begin="reset.mouseover" end="reset.mouseout"/></use>
  </g>
</defs>
<script type="application/ecmascript">
var viewWidth = 978;
var viewHeight = 741;
var sectionId = 'dynsection-5';
</script>
<script type="application/ecmascript" xlink:href="svg.min.js"/>
<svg id="graph" class="graph">
<g id="viewport">
<title>Span::InspectorPanel::DrawEntityInspector</title>
<!-- Node1 -->
<g id="Node000001" class="node">
<title>Node1</title>
<g id="a_Node000001"><a xlink:title="エンティティ用のインスペクターを描画します。">
<polygon fill="#999999" stroke="#666666" points="122,-176 0,-176 0,-146 122,-146 122,-176"/>
<text text-anchor="start" x="8" y="-164" font-family="Helvetica,sans-Serif" font-size="10.00">Span::InspectorPanel</text>
<text text-anchor="middle" x="61" y="-153" font-family="Helvetica,sans-Serif" font-size="10.00">::DrawEntityInspector</text>
</a>
</g>
</g>
<!-- Node2 -->
<g id="Node000002" class="node">
<title>Node2</title>
<g id="a_Node000002"><a xlink:href="classSpan_1_1World.html#a555e11829d3833ce35f444779c4c2369" target="_top" xlink:title="既存のEntityに新しいコンポーネントを追加します。">
<polygon fill="white" stroke="#666666" points="313,-341.5 158,-341.5 158,-322.5 313,-322.5 313,-341.5"/>
<text text-anchor="middle" x="235.5" y="-329.5" font-family="Helvetica,sans-Serif" font-size="10.00">Span::World::AddComponent</text>
</a>
</g>
</g>
<!-- Node1&#45;&gt;Node2 -->
<g id="edge1_Node000001_Node000002" class="edge">
<title>Node1&#45;&gt;Node2</title>
<g id="a_edge1_Node000001_Node000002"><a xlink:title=" ">
<path fill="none" stroke="#63b8ff" d="M73.99,-176.17C91.48,-197.91 125.44,-238.74 158,-270 175.59,-286.88 197.32,-304.19 213.12,-316.22"/>
<polygon fill="#63b8ff" stroke="#63b8ff" points="211.13,-319.1 221.22,-322.32 215.34,-313.51 211.13,-319.1"/>
</a>
</g>
</g>
<!-- Node4 -->
<g id="Node000004" class="node">
<title>Node4</title>
<g id="a_Node000004"><a xlink:href="classSpan_1_1World.html#a637d963c8538b8ca6535bd1c6b88115c" target="_top" xlink:title="コンポーネントへのポインタを取得します。">
<polygon fill="white" stroke="#666666" points="520.5,-265.5 353.5,-265.5 353.5,-246.5 520.5,-246.5 520.5,-265.5"/>
<text text-anchor="middle" x="437" y="-253.5" font-family="Helvetica,sans-Serif" font-size="10.00">Span::World::GetComponentPtr</text>
</a>
</g>
</g>
<!-- Node1&#45;&gt;Node4 -->
<g id="edge36_Node000001_Node000004" class="edge">
<title>Node1&#45;&gt;Node4</title>
<g id="a_edge36_Node000001_Node000004"><a xlink:title=" ">
<path fill="none" stroke="#63b8ff" d="M80.17,-176.08C98.57,-190.45 128.44,-211.41 158,-222 217.36,-243.26 287.92,-251.7 343.1,-254.86"/>
<polygon fill="#63b8ff" stroke="#63b8ff" points="343.04,-258.36 353.21,-255.39 343.41,-251.37 343.04,-258.36"/>
</a>
</g>
</g>
<!-- Node11 -->
<g id="Node000011" class="node">
<title>Node11</title>
<g id="a_Node000011"><a xlink:href="classSpan_1_1World.html#a059bbe879fcaf0a57d1b935be05810f0" target="_top" xlink:title="指定したコンポーネントを持っているか確認します。">
<polygon fill="white" stroke="#666666" points="514.5,-228.5 359.5,-228.5 359.5,-209.5 514.5,-209.5 514.5,-228.5"/>
<text text-anchor="middle" x="437" y="-216.5" font-family="Helvetica,sans-Serif" font-size="10.00">Span::World::HasComponent</text>
</a>
</g>
</g>
<!-- Node1&#45;&gt;Node11 -->
<g id="edge38_Node000001_Node000011" class="edge">
<title>Node1&#45;&gt;Node11</title>
<g id="a_edge38_Node000001_Node000011"><a xlink:title=" ">
<path fill="none" stroke="#63b8ff" d="M93.22,-176.17C111.63,-184.4 135.63,-193.9 158,-199 220.95,-213.37 293.81,-218.19 349.15,-219.52"/>
<polygon fill="#63b8ff" stroke="#63b8ff" points="349.2,-223.02 359.27,-219.72 349.34,-216.02 349.2,-223.02"/>
</a>
</g>
</g>
<!-- Node17 -->
<g id="Node000017" class="node">
<title>Node17</title>
<g id="a_Node000017"><a xlink:href="classSpan_1_1LayerManager.html#a9239a20ca838296684ae510cae5aa6a9" target="_top" xlink:title=" ">
<polygon fill="white" stroke="#666666" points="305.5,-152.5 165.5,-152.5 165.5,-133.5 305.5,-133.5 305.5,-152.5"/>
<text text-anchor="middle" x="235.5" y="-140.5" font-family="Helvetica,sans-Serif" font-size="10.00">Span::LayerManager::Get</text>
</a>
</g>
</g>
<!-- Node1&#45;&gt;Node17 -->
<g id="edge27_Node000001_Node000017" class="edge">
<title>Node1&#45;&gt;Node17</title>
<g id="a_edge27_Node000001_Node000017"><a xlink:title=" ">
<path fill="none" stroke="#63b8ff" d="M122.33,-154.7C132.97,-153.59 144.19,-152.42 155.25,-151.27"/>
<polygon fill="#63b8ff" stroke="#63b8ff" points="155.76,-154.74 165.34,-150.22 155.03,-147.77 155.76,-154.74"/>
</a>
</g>
</g>
<!-- Node19 -->
<g id="Node000019" class="node">
<title>Node19</title>
<g id="a_Node000019"><a xlink:href="classSpan_1_1TagManager.html#ae095ba4c382a90f7c3a1437ab0d6fd2b" target="_top" xlink:title="TagManagerのシングルトンインスタンスを取得します。">
<polygon fill="white" stroke="#666666" points="300,-115.5 171,-115.5 171,-96.5 300,-96.5 300,-115.5"/>
<text text-anchor="middle" x="235.5" y="-103.5" font-family="Helvetica,sans-Serif" font-size="10.00">Span::TagManager::Get</text>
</a>
</g>
</g>
<!-- Node1&#45;&gt;Node19 -->
<g id="edge29_Node000001_Node000019" class="edge">
<title>Node1&#45;&gt;Node19</title>
<g id="a_edge29_Node000001_Node000019"><a xlink:title=" ">
<path fill="none" stroke="#63b8ff" d="M99.04,-145.97C116.72,-139.09 138.28,-131.12 158,-125 165.8,-122.58 174.13,-120.25 182.31,-118.11"/>
<polygon fill="#63b8ff" stroke="#63b8ff" points="183.35,-121.45 192.17,-115.59 181.62,-114.67 183.35,-121.45"/>
</a>
</g>
</g>
<!-- Node21 -->
<g id="Node000021" class="node">
<title>Node21</title>
<g id="a_Node000021"><a xlink:href="classSpan_1_1ComponentRegistry.html#a8449d84d0096e3a92e226e510f0accb0" target="_top" xlink:title="登録済みの全コンポーネント情報を取得します。">
<polygon fill="white" stroke="#666666" points="307,-78 164,-78 164,-48 307,-48 307,-78"/>
<text text-anchor="start" x="172" y="-66" font-family="Helvetica,sans-Serif" font-size="10.00">Span::ComponentRegistry</text>
<text text-anchor="middle" x="235.5" y="-55" font-family="Helvetica,sans-Serif" font-size="10.00">::GetAll</text>
</a>
</g>
</g>
<!-- Node1&#45;&gt;Node21 -->
<g id="edge31_Node000001_Node000021" class="edge">
<title>Node1&#45;&gt;Node21</title>
<g id="a_edge31_Node000001_Node000021"><a xlink:title=" ">
<path fill="none" stroke="#63b8ff" d="M77.77,-145.98C95.85,-129.46 127.02,-103.14 158,-87 161.51,-85.17 165.18,-83.45 168.94,-81.84"/>
<polygon fill="#63b8ff" stroke="#63b8ff" points="170.43,-85.02 178.42,-78.06 167.83,-78.52 170.43,-85.02"/>
</a>
</g>
</g>
<!-- Node23 -->
<g id="Node000023" class="node">
<title>Node23</title>
<g id="a_Node000023"><a xlink:href="classSpan_1_1World.html#a0cebb4506e5366293854cde16a208677" target="_top" xlink:title="コンポーネントへの参照を取得します。">
<polygon fill="white" stroke="#666666" points="312.5,-189.5 158.5,-189.5 158.5,-170.5 312.5,-170.5 312.5,-189.5"/>
<text text-anchor="middle" x="235.5" y="-177.5" font-family="Helvetica,sans-Serif" font-size="10.00">Span::World::GetComponent</text>
</a>
</g>
</g>
<!-- Node1&#45;&gt;Node23 -->
<g id="edge33_Node000001_Node000023" class="edge">
<title>Node1&#45;&gt;Node23</title>
<g id="a_edge33_Node000001_Node000023"><a xlink:title=" ">
<path fill="none" stroke="#63b8ff" d="M122.33,-167.65C130.8,-168.58 139.64,-169.55 148.48,-170.52"/>
<polygon fill="#63b8ff" stroke="#63b8ff" points="148.11,-174.01 158.43,-171.62 148.87,-167.05 148.11,-174.01"/>
</a>
</g>
</g>
<!-- Node24 -->
<g id="Node000024" class="node">
<title>Node24</title>
<g id="a_Node000024"><a xlink:href="classSpan_1_1LayerManager.html#a5b0011a32b61df3de7f38722aeb83ead" target="_top" xlink:title="レイヤー名を取得します。">
<polygon fill="white" stroke="#666666" points="293.5,-30 177.5,-30 177.5,0 293.5,0 293.5,-30"/>
<text text-anchor="start" x="185.5" y="-18" font-family="Helvetica,sans-Serif" font-size="10.00">Span::LayerManager</text>
<text text-anchor="middle" x="235.5" y="-7" font-family="Helvetica,sans-Serif" font-size="10.00">::GetLayerName</text>
</a>
</g>
</g>
<!-- Node1&#45;&gt;Node24 -->
<g id="edge37_Node000001_Node000024" class="edge">
<title>Node1&#45;&gt;Node24</title>
<g id="a_edge37_Node000001_Node000024"><a xlink:title=" ">
<path fill="none" stroke="#63b8ff" d="M69.89,-145.84C84.07,-120.08 116.3,-67.78 158,-39 161.1,-36.86 164.41,-34.9 167.83,-33.11"/>
<polygon fill="#63b8ff" stroke="#63b8ff" points="169.56,-36.17 177.14,-28.77 166.6,-29.83 169.56,-36.17"/>
</a>
</g>
</g>
<!-- Node3 -->
<g id="Node000003" class="node">
<title>Node3</title>
<g id="a_Node000003"><a xlink:href="classSpan_1_1Archetype.html#a51f7d1dad4dcdaf6db44696a2a757821" target="_top" xlink:title="コンポーネントのアライメントを取得します。">
<polygon fill="white" stroke="#666666" points="525,-678 349,-678 349,-648 525,-648 525,-678"/>
<text text-anchor="start" x="357" y="-666" font-family="Helvetica,sans-Serif" font-size="10.00">Span::Archetype::GetComponent</text>
<text text-anchor="middle" x="437" y="-655" font-family="Helvetica,sans-Serif" font-size="10.00">Alignment</text>
</a>
</g>
</g>
<!-- Node2&#45;&gt;Node3 -->
<g id="edge2_Node000002_Node000003" class="edge">
<title>Node2&#45;&gt;Node3</title>
<g id="a_edge2_Node000002_Node000003"><a xlink:title=" ">
<path fill="none" stroke="#63b8ff" d="M237.17,-341.72C240.58,-383.23 259.45,-547.52 349,-634 352.47,-637.35 356.33,-640.31 360.45,-642.93"/>
<polygon fill="#63b8ff" stroke="#63b8ff" points="358.78,-646.01 369.22,-647.85 362.21,-639.9 358.78,-646.01"/>
</a>
</g>
</g>
<!-- Node2&#45;&gt;Node4 -->
<g id="edge3_Node000002_Node000004" class="edge">
<title>Node2&#45;&gt;Node4</title>
<g id="a_edge3_Node000002_Node000004"><a xlink:title=" ">
<path fill="none" stroke="#63b8ff" d="M254.82,-322.4C276.76,-311.16 314.85,-292.51 349,-280 360.96,-275.62 374.09,-271.6 386.45,-268.16"/>
<polygon fill="#63b8ff" stroke="#63b8ff" points="387.42,-271.52 396.16,-265.52 385.59,-264.77 387.42,-271.52"/>
</a>
</g>
</g>
<!-- Node7 -->
<g id="Node000007" class="node">
<title>Node7</title>
<g id="a_Node000007"><a xlink:href="classSpan_1_1ComponentType.html#aa561932b92eabbe74390cb7b0cef0de6" target="_top" xlink:title="型 T に対応する一意のIDを取得します。">
<polygon fill="white" stroke="#666666" points="934.5,-269 809.5,-269 809.5,-239 934.5,-239 934.5,-269"/>
<text text-anchor="start" x="817.5" y="-257" font-family="Helvetica,sans-Serif" font-size="10.00">Span::ComponentType</text>
<text text-anchor="middle" x="872" y="-246" font-family="Helvetica,sans-Serif" font-size="10.00">::GetID</text>
</a>
</g>
</g>
<!-- Node2&#45;&gt;Node7 -->
<g id="edge10_Node000002_Node000007" class="edge">
<title>Node2&#45;&gt;Node7</title>
<g id="a_edge10_Node000002_Node000007"><a xlink:title=" ">
<path fill="none" stroke="#63b8ff" d="M313.13,-330.31C412.01,-327.08 589.04,-317.77 738,-291 763.7,-286.38 791.61,-278.99 815.2,-272.03"/>
<polygon fill="#63b8ff" stroke="#63b8ff" points="816.45,-275.31 825.02,-269.08 814.44,-268.6 816.45,-275.31"/>
</a>
</g>
</g>
<!-- Node8 -->
<g id="Node000008" class="node">
<title>Node8</title>
<g id="a_Node000008"><a xlink:href="classSpan_1_1World.html#a5e0da52990e6715e2cc31a0d85913748" target="_top" xlink:title="エンティティが現在有効かどうかを確認します。">
<polygon fill="white" stroke="#666666" points="706,-265.5 593,-265.5 593,-246.5 706,-246.5 706,-265.5"/>
<text text-anchor="middle" x="649.5" y="-253.5" font-family="Helvetica,sans-Serif" font-size="10.00">Span::World::IsAlive</text>
</a>
</g>
</g>
<!-- Node2&#45;&gt;Node8 -->
<g id="edge15_Node000002_Node000008" class="edge">
<title>Node2&#45;&gt;Node8</title>
<g id="a_edge15_Node000002_Node000008"><a xlink:title=" ">
<path fill="none" stroke="#63b8ff" d="M288.26,-322.45C364.22,-308.44 505.65,-282.35 586.87,-267.37"/>
<polygon fill="#63b8ff" stroke="#63b8ff" points="587.75,-270.77 596.95,-265.51 586.48,-263.88 587.75,-270.77"/>
</a>
</g>
</g>
<!-- Node9 -->
<g id="Node000009" class="node">
<title>Node9</title>
<g id="a_Node000009"><a xlink:href="classSpan_1_1Archetype.html#a4bbf55d97d15574576b64fcd713da023" target="_top" xlink:title="コンポーネントの単体サイズを取得します。">
<polygon fill="white" stroke="#666666" points="970,-577.5 774,-577.5 774,-558.5 970,-558.5 970,-577.5"/>
<text text-anchor="middle" x="872" y="-565.5" font-family="Helvetica,sans-Serif" font-size="10.00">Span::Archetype::GetComponentSize</text>
</a>
</g>
</g>
<!-- Node2&#45;&gt;Node9 -->
<g id="edge9_Node000002_Node000009" class="edge">
<title>Node2&#45;&gt;Node9</title>
<g id="a_edge9_Node000002_Node000009"><a xlink:title=" ">
<path fill="none" stroke="#63b8ff" d="M240.97,-341.56C254,-368.5 294.5,-446.01 349,-491 428.76,-556.85 459.9,-565.18 561,-587 650.62,-606.35 757.95,-591.61 819.92,-579.53"/>
<polygon fill="#63b8ff" stroke="#63b8ff" points="820.72,-582.94 829.84,-577.55 819.35,-576.08 820.72,-582.94"/>
</a>
</g>
</g>
<!-- Node10 -->
<g id="Node000010" class="node">
<title>Node10</title>
<g id="a_Node000010"><a xlink:href="classSpan_1_1Archetype.html#a7e7d565d6be817818bb77f9870696633" target="_top" xlink:title="構成コンポーネントの型リスト">
<polygon fill="white" stroke="#666666" points="945.5,-615.5 798.5,-615.5 798.5,-596.5 945.5,-596.5 945.5,-615.5"/>
<text text-anchor="middle" x="872" y="-603.5" font-family="Helvetica,sans-Serif" font-size="10.00">Span::Archetype::GetTypes</text>
</a>
</g>
</g>
<!-- Node2&#45;&gt;Node10 -->
<g id="edge11_Node000002_Node000010" class="edge">
<title>Node2&#45;&gt;Node10</title>
<g id="a_edge11_Node000002_Node000010"><a xlink:title=" ">
<path fill="none" stroke="#63b8ff" d="M238,-341.55C246.38,-393.71 289.27,-643.27 349,-687 507.57,-803.09 766.43,-668.07 846.57,-621"/>
<polygon fill="#63b8ff" stroke="#63b8ff" points="848.64,-623.84 855.44,-615.71 845.06,-617.82 848.64,-623.84"/>
</a>
</g>
</g>
<!-- Node2&#45;&gt;Node11 -->
<g id="edge12_Node000002_Node000011" class="edge">
<title>Node2&#45;&gt;Node11</title>
<g id="a_edge12_Node000002_Node000011"><a xlink:title=" ">
<path fill="none" stroke="#63b8ff" d="M245.03,-322.25C262.49,-302.95 304.43,-259.83 349,-238 353.95,-235.58 359.2,-233.46 364.58,-231.61"/>
<polygon fill="#63b8ff" stroke="#63b8ff" points="365.86,-234.88 374.36,-228.57 363.78,-228.2 365.86,-234.88"/>
</a>
</g>
</g>
<!-- Node12 -->
<g id="Node000012" class="node">
<title>Node12</title>
<g id="a_Node000012"><a xlink:href="classSpan_1_1World.html#a8c01f89c473a5da0aca8d152f248fc53" target="_top" xlink:title=" ">
<polygon fill="white" stroke="#666666" points="510,-481.5 364,-481.5 364,-462.5 510,-462.5 510,-481.5"/>
<text text-anchor="middle" x="437" y="-469.5" font-family="Helvetica,sans-Serif" font-size="10.00">Span::World::MigrateEntity</text>
</a>
</g>
</g>
<!-- Node2&#45;&gt;Node12 -->
<g id="edge16_Node000002_Node000012" class="edge">
<title>Node2&#45;&gt;Node12</title>
<g id="a_edge16_Node000002_Node000012"><a xlink:title=" ">
<path fill="none" stroke="#63b8ff" d="M250.21,-341.62C284.25,-365.51 372.82,-427.67 414.16,-456.67"/>
<polygon fill="#63b8ff" stroke="#63b8ff" points="412.26,-459.62 422.46,-462.5 416.28,-453.89 412.26,-459.62"/>
</a>
</g>
</g>
<!-- Node5 -->
<g id="Node000005" class="node">
<title>Node5</title>
<g id="a_Node000005"><a xlink:href="classSpan_1_1World.html#a44e36e9b91bb78cd486b93a5a02ff1fa" target="_top" xlink:title=" ">
<polygon fill="white" stroke="#666666" points="726.5,-228 572.5,-228 572.5,-198 726.5,-198 726.5,-228"/>
<text text-anchor="start" x="580.5" y="-216" font-family="Helvetica,sans-Serif" font-size="10.00">Span::World::GetComponent</text>
<text text-anchor="middle" x="649.5" y="-205" font-family="Helvetica,sans-Serif" font-size="10.00">Unsafe</text>
</a>
</g>
</g>
<!-- Node4&#45;&gt;Node5 -->
<g id="edge4_Node000004_Node000005" class="edge">
<title>Node4&#45;&gt;Node5</title>
<g id="a_edge4_Node000004_Node000005"><a xlink:title=" ">
<path fill="none" stroke="#63b8ff" d="M484.72,-246.46C508.34,-241.63 537.74,-235.63 565.07,-230.04"/>
<polygon fill="#63b8ff" stroke="#63b8ff" points="565.94,-233.44 575.04,-228.01 564.54,-226.58 565.94,-233.44"/>
</a>
</g>
</g>
<!-- Node4&#45;&gt;Node7 -->
<g id="edge7_Node000004_Node000007" class="edge">
<title>Node4&#45;&gt;Node7</title>
<g id="a_edge7_Node000004_Node000007"><a xlink:title=" ">
<path fill="none" stroke="#63b8ff" d="M488.07,-265.51C510.31,-269.28 536.87,-273.15 561,-275 639.44,-281.02 659.57,-281.15 738,-275 758.04,-273.43 779.62,-270.54 799.44,-267.4"/>
<polygon fill="#63b8ff" stroke="#63b8ff" points="800.02,-270.86 809.32,-265.8 798.89,-263.95 800.02,-270.86"/>
</a>
</g>
</g>
<!-- Node4&#45;&gt;Node8 -->
<g id="edge8_Node000004_Node000008" class="edge">
<title>Node4&#45;&gt;Node8</title>
<g id="a_edge8_Node000004_Node000008"><a xlink:title=" ">
<path fill="none" stroke="#63b8ff" d="M520.59,-256C541.19,-256 563,-256 582.67,-256"/>
<polygon fill="#63b8ff" stroke="#63b8ff" points="582.74,-259.5 592.74,-256 582.74,-252.5 582.74,-259.5"/>
</a>
</g>
</g>
<!-- Node6 -->
<g id="Node000006" class="node">
<title>Node6</title>
<g id="a_Node000006"><a xlink:href="classSpan_1_1Archetype.html#ace55105d4678c95251e7c66ff00846d1" target="_top" xlink:title="コンポーネント配列の「チャンク内オフセット」を取得します。">
<polygon fill="white" stroke="#666666" points="960,-385 784,-385 784,-355 960,-355 960,-385"/>
<text text-anchor="start" x="792" y="-373" font-family="Helvetica,sans-Serif" font-size="10.00">Span::Archetype::GetComponent</text>
<text text-anchor="middle" x="872" y="-362" font-family="Helvetica,sans-Serif" font-size="10.00">Offset</text>
</a>
</g>
</g>
<!-- Node5&#45;&gt;Node6 -->
<g id="edge5_Node000005_Node000006" class="edge">
<title>Node5&#45;&gt;Node6</title>
<g id="a_edge5_Node000005_Node000006"><a xlink:title=" ">
<path fill="none" stroke="#63b8ff" d="M718.1,-228.1C725.06,-230.88 731.84,-234.15 738,-238 758.29,-250.67 757.31,-260.87 774,-278 798.02,-302.66 826.77,-329.62 846.7,-347.95"/>
<polygon fill="#63b8ff" stroke="#63b8ff" points="844.4,-350.59 854.14,-354.76 849.13,-345.43 844.4,-350.59"/>
</a>
</g>
</g>
<!-- Node5&#45;&gt;Node7 -->
<g id="edge6_Node000005_Node000007" class="edge">
<title>Node5&#45;&gt;Node7</title>
<g id="a_edge6_Node000005_Node000007"><a xlink:title=" ">
<path fill="none" stroke="#63b8ff" d="M726.69,-227.17C750.22,-231.54 776.05,-236.34 799.27,-240.66"/>
<polygon fill="#63b8ff" stroke="#63b8ff" points="798.92,-244.16 809.39,-242.54 800.2,-237.27 798.92,-244.16"/>
</a>
</g>
</g>
<!-- Node11&#45;&gt;Node7 -->
<g id="edge13_Node000011_Node000007" class="edge">
<title>Node11&#45;&gt;Node7</title>
<g id="a_edge13_Node000011_Node000007"><a xlink:title=" ">
<path fill="none" stroke="#63b8ff" d="M468.65,-209.45C523.41,-193.83 641.36,-166.65 738,-189 774.96,-197.55 813.51,-217.85 839.53,-233.5"/>
<polygon fill="#63b8ff" stroke="#63b8ff" points="837.84,-236.57 848.19,-238.82 841.5,-230.61 837.84,-236.57"/>
</a>
</g>
</g>
<!-- Node11&#45;&gt;Node8 -->
<g id="edge14_Node000011_Node000008" class="edge">
<title>Node11&#45;&gt;Node8</title>
<g id="a_edge14_Node000011_Node000008"><a xlink:title=" ">
<path fill="none" stroke="#63b8ff" d="M492.21,-228.53C520.21,-233.45 554.58,-239.49 583.95,-244.65"/>
<polygon fill="#63b8ff" stroke="#63b8ff" points="583.65,-248.16 594.11,-246.44 584.87,-241.26 583.65,-248.16"/>
</a>
</g>
</g>
<!-- Node12&#45;&gt;Node6 -->
<g id="edge19_Node000012_Node000006" class="edge">
<title>Node12&#45;&gt;Node6</title>
<g id="a_edge19_Node000012_Node000006"><a xlink:title=" ">
<path fill="none" stroke="#63b8ff" d="M452.01,-462.37C474.08,-447.72 518.81,-420.17 561,-407 630.11,-385.44 711.49,-376.3 773.52,-372.5"/>
<polygon fill="#63b8ff" stroke="#63b8ff" points="773.92,-375.98 783.7,-371.91 773.51,-368.99 773.92,-375.98"/>
</a>
</g>
</g>
<!-- Node12&#45;&gt;Node9 -->
<g id="edge20_Node000012_Node000009" class="edge">
<title>Node12&#45;&gt;Node9</title>
<g id="a_edge20_Node000012_Node000009"><a xlink:title=" ">
<path fill="none" stroke="#63b8ff" d="M456.82,-462.43C505.48,-439.08 638.62,-384.13 738,-427 796.52,-452.25 841.25,-517.32 860.56,-549.47"/>
<polygon fill="#63b8ff" stroke="#63b8ff" points="857.66,-551.44 865.73,-558.3 863.7,-547.9 857.66,-551.44"/>
</a>
</g>
</g>
<!-- Node12&#45;&gt;Node10 -->
<g id="edge21_Node000012_Node000010" class="edge">
<title>Node12&#45;&gt;Node10</title>
<g id="a_edge21_Node000012_Node000010"><a xlink:title=" ">
<path fill="none" stroke="#63b8ff" d="M444.62,-481.73C461.09,-504.97 506.49,-563.54 561,-587 633.16,-618.06 723.6,-619.92 788.14,-615.76"/>
<polygon fill="#63b8ff" stroke="#63b8ff" points="788.54,-619.24 798.27,-615.04 788.05,-612.26 788.54,-619.24"/>
</a>
</g>
</g>
<!-- Node13 -->
<g id="Node000013" class="node">
<title>Node13</title>
<g id="a_Node000013"><a xlink:href="classSpan_1_1Archetype.html#aaef35d070780bc90b4a82c72c710b322" target="_top" xlink:title="新しいEntity用のスペースを確保します。">
<polygon fill="white" stroke="#666666" points="720.5,-466 578.5,-466 578.5,-436 720.5,-436 720.5,-466"/>
<text text-anchor="start" x="586.5" y="-454" font-family="Helvetica,sans-Serif" font-size="10.00">Span::Archetype::Allocate</text>
<text text-anchor="middle" x="649.5" y="-443" font-family="Helvetica,sans-Serif" font-size="10.00">Entity</text>
</a>
</g>
</g>
<!-- Node12&#45;&gt;Node13 -->
<g id="edge17_Node000012_Node000013" class="edge">
<title>Node12&#45;&gt;Node13</title>
<g id="a_edge17_Node000012_Node000013"><a xlink:title=" ">
<path fill="none" stroke="#63b8ff" d="M510.15,-464.8C528.81,-462.94 549.02,-460.92 568.08,-459.02"/>
<polygon fill="#63b8ff" stroke="#63b8ff" points="568.62,-462.49 578.23,-458.01 567.93,-455.52 568.62,-462.49"/>
</a>
</g>
</g>
<!-- Node14 -->
<g id="Node000014" class="node">
<title>Node14</title>
<g id="a_Node000014"><a xlink:href="classSpan_1_1Archetype.html#aa2e946edc196fefbef2969c9f6092479" target="_top" xlink:title="このアーキタイプが管理している全チャンクのリスト">
<polygon fill="white" stroke="#666666" points="727,-540.5 572,-540.5 572,-521.5 727,-521.5 727,-540.5"/>
<text text-anchor="middle" x="649.5" y="-528.5" font-family="Helvetica,sans-Serif" font-size="10.00">Span::Archetype::GetChunks</text>
</a>
</g>
</g>
<!-- Node12&#45;&gt;Node14 -->
<g id="edge18_Node000012_Node000014" class="edge">
<title>Node12&#45;&gt;Node14</title>
<g id="a_edge18_Node000012_Node000014"><a xlink:title=" ">
<path fill="none" stroke="#63b8ff" d="M463.64,-481.54C488.34,-490.49 526.87,-503.84 561,-513 569.38,-515.25 578.28,-517.38 587.06,-519.33"/>
<polygon fill="#63b8ff" stroke="#63b8ff" points="586.39,-522.76 596.9,-521.45 587.87,-515.92 586.39,-522.76"/>
</a>
</g>
</g>
<!-- Node15 -->
<g id="Node000015" class="node">
<title>Node15</title>
<g id="a_Node000015"><a xlink:href="classSpan_1_1Archetype.html#a14c09aab559c4f601037d972cac3cc56" target="_top" xlink:title="指定したコンポーネントを持っているか確認します。">
<polygon fill="white" stroke="#666666" points="738,-503.5 561,-503.5 561,-484.5 738,-484.5 738,-503.5"/>
<text text-anchor="middle" x="649.5" y="-491.5" font-family="Helvetica,sans-Serif" font-size="10.00">Span::Archetype::HasComponent</text>
</a>
</g>
</g>
<!-- Node12&#45;&gt;Node15 -->
<g id="edge22_Node000012_Node000015" class="edge">
<title>Node12&#45;&gt;Node15</title>
<g id="a_edge22_Node000012_Node000015"><a xlink:title=" ">
<path fill="none" stroke="#63b8ff" d="M510.15,-479.54C523.14,-480.9 536.88,-482.33 550.46,-483.75"/>
<polygon fill="#63b8ff" stroke="#63b8ff" points="550.49,-487.28 560.8,-484.83 551.22,-480.31 550.49,-487.28"/>
</a>
</g>
</g>
<!-- Node16 -->
<g id="Node000016" class="node">
<title>Node16</title>
<g id="a_Node000016"><a xlink:href="structSpan_1_1Chunk.html#a6bd9e470ec1f88ff4d5e7481a6608ccf" target="_top" xlink:title="チャンク内のエンティティデータを移動 (コピー) します。">
<polygon fill="white" stroke="#666666" points="730.5,-577.5 568.5,-577.5 568.5,-558.5 730.5,-558.5 730.5,-577.5"/>
<text text-anchor="middle" x="649.5" y="-565.5" font-family="Helvetica,sans-Serif" font-size="10.00">Span::Chunk::MoveEntityData</text>
</a>
</g>
</g>
<!-- Node12&#45;&gt;Node16 -->
<g id="edge23_Node000012_Node000016" class="edge">
<title>Node12&#45;&gt;Node16</title>
<g id="a_edge23_Node000012_Node000016"><a xlink:title=" ">
<path fill="none" stroke="#63b8ff" d="M449.76,-481.55C470.76,-498.11 516.69,-532.1 561,-550 566.34,-552.16 571.98,-554.07 577.71,-555.76"/>
<polygon fill="#63b8ff" stroke="#63b8ff" points="576.84,-559.15 587.41,-558.4 578.68,-552.4 576.84,-559.15"/>
</a>
</g>
</g>
<!-- Node16&#45;&gt;Node6 -->
<g id="edge24_Node000016_Node000006" class="edge">
<title>Node16&#45;&gt;Node6</title>
<g id="a_edge24_Node000016_Node000006"><a xlink:title=" ">
<path fill="none" stroke="#63b8ff" d="M720.65,-558.48C726.76,-556.21 732.64,-553.42 738,-550 798.97,-511.04 841.61,-433.51 860.33,-394.15"/>
<polygon fill="#63b8ff" stroke="#63b8ff" points="863.54,-395.55 864.57,-385.01 857.19,-392.61 863.54,-395.55"/>
</a>
</g>
</g>
<!-- Node16&#45;&gt;Node9 -->
<g id="edge25_Node000016_Node000009" class="edge">
<title>Node16&#45;&gt;Node9</title>
<g id="a_edge25_Node000016_Node000009"><a xlink:title=" ">
<path fill="none" stroke="#63b8ff" d="M730.73,-568C741.48,-568 752.64,-568 763.76,-568"/>
<polygon fill="#63b8ff" stroke="#63b8ff" points="763.94,-571.5 773.94,-568 763.94,-564.5 763.94,-571.5"/>
</a>
</g>
</g>
<!-- Node16&#45;&gt;Node10 -->
<g id="edge26_Node000016_Node000010" class="edge">
<title>Node16&#45;&gt;Node10</title>
<g id="a_edge26_Node000016_Node000010"><a xlink:title=" ">
<path fill="none" stroke="#63b8ff" d="M705.86,-577.54C736.13,-582.76 773.82,-589.25 805.55,-594.72"/>
<polygon fill="#63b8ff" stroke="#63b8ff" points="805.17,-598.21 815.62,-596.46 806.36,-591.31 805.17,-598.21"/>
</a>
</g>
</g>
<!-- Node18 -->
<g id="Node000018" class="node">
<title>Node18</title>
<g id="a_Node000018"><a xlink:href="classSpan_1_1LayerManager.html#a0053db8e29d09f9c923845e43f62535d" target="_top" xlink:title=" ">
<polygon fill="white" stroke="#666666" points="495,-153 379,-153 379,-123 495,-123 495,-153"/>
<text text-anchor="start" x="387" y="-141" font-family="Helvetica,sans-Serif" font-size="10.00">Span::LayerManager</text>
<text text-anchor="middle" x="437" y="-130" font-family="Helvetica,sans-Serif" font-size="10.00">::LayerManager</text>
</a>
</g>
</g>
<!-- Node17&#45;&gt;Node18 -->
<g id="edge28_Node000017_Node000018" class="edge">
<title>Node17&#45;&gt;Node18</title>
<g id="a_edge28_Node000017_Node000018"><a xlink:title=" ">
<path fill="none" stroke="#63b8ff" d="M305.72,-141.27C326.13,-140.75 348.42,-140.19 368.71,-139.69"/>
<polygon fill="#63b8ff" stroke="#63b8ff" points="368.89,-143.18 378.8,-139.43 368.72,-136.19 368.89,-143.18"/>
</a>
</g>
</g>
<!-- Node20 -->
<g id="Node000020" class="node">
<title>Node20</title>
<g id="a_Node000020"><a xlink:href="classSpan_1_1TagManager.html#a388a96608551c1a2a3a9a092c357f480" target="_top" xlink:title=" ">
<polygon fill="white" stroke="#666666" points="522.5,-104.5 351.5,-104.5 351.5,-85.5 522.5,-85.5 522.5,-104.5"/>
<text text-anchor="middle" x="437" y="-92.5" font-family="Helvetica,sans-Serif" font-size="10.00">Span::TagManager::TagManager</text>
</a>
</g>
</g>
<!-- Node19&#45;&gt;Node20 -->
<g id="edge30_Node000019_Node000020" class="edge">
<title>Node19&#45;&gt;Node20</title>
<g id="a_edge30_Node000019_Node000020"><a xlink:title=" ">
<path fill="none" stroke="#63b8ff" d="M300.17,-102.49C313.29,-101.77 327.38,-100.99 341.33,-100.22"/>
<polygon fill="#63b8ff" stroke="#63b8ff" points="341.66,-103.71 351.45,-99.66 341.27,-96.72 341.66,-103.71"/>
</a>
</g>
</g>
<!-- Node22 -->
<g id="Node000022" class="node">
<title>Node22</title>
<g id="a_Node000022"><a xlink:href="classSpan_1_1ComponentRegistry.html#a888dafb7173154120394d2382b74e6bd" target="_top" xlink:title=" ">
<polygon fill="white" stroke="#666666" points="508.5,-67 365.5,-67 365.5,-37 508.5,-37 508.5,-67"/>
<text text-anchor="start" x="373.5" y="-55" font-family="Helvetica,sans-Serif" font-size="10.00">Span::ComponentRegistry</text>
<text text-anchor="middle" x="437" y="-44" font-family="Helvetica,sans-Serif" font-size="10.00">::GetRegistry</text>
</a>
</g>
</g>
<!-- Node21&#45;&gt;Node22 -->
<g id="edge32_Node000021_Node000022" class="edge">
<title>Node21&#45;&gt;Node22</title>
<g id="a_edge32_Node000021_Node000022"><a xlink:title=" ">
<path fill="none" stroke="#63b8ff" d="M307.12,-59.11C322.66,-58.25 339.23,-57.34 355.14,-56.46"/>
<polygon fill="#63b8ff" stroke="#63b8ff" points="355.69,-59.93 365.48,-55.89 355.3,-52.94 355.69,-59.93"/>
</a>
</g>
</g>
<!-- Node23&#45;&gt;Node5 -->
<g id="edge34_Node000023_Node000005" class="edge">
<title>Node23&#45;&gt;Node5</title>
<g id="a_edge34_Node000023_Node000005"><a xlink:title=" ">
<path fill="none" stroke="#63b8ff" d="M312.77,-185.05C370.95,-189.02 453.07,-194.89 525,-201 537.11,-202.03 549.88,-203.19 562.43,-204.37"/>
<polygon fill="#63b8ff" stroke="#63b8ff" points="562.15,-207.86 572.43,-205.32 562.81,-200.89 562.15,-207.86"/>
</a>
</g>
</g>
<!-- Node23&#45;&gt;Node11 -->
<g id="edge35_Node000023_Node000011" class="edge">
<title>Node23&#45;&gt;Node11</title>
<g id="a_edge35_Node000023_Node000011"><a xlink:title=" ">
<path fill="none" stroke="#63b8ff" d="M285.3,-189.54C313.06,-194.97 348.01,-201.8 377.27,-207.52"/>
<polygon fill="#63b8ff" stroke="#63b8ff" points="376.87,-211.01 387.36,-209.49 378.21,-204.14 376.87,-211.01"/>
</a>
</g>
</g>
</g>
</svg>

<g id="navigator" transform="translate(0 0)" fill="#404254">
  <rect fill="#f2f5e9" fill-opacity="0.5" stroke="#606060" stroke-width=".5" x="0" y="0" width="60" height="60"/>
  <use id="zoomplus" xlink:href="#zoomPlus" x="17" y="9" onmousedown="handleZoom(evt,'in')"/>
  <use id="zoomminus" xlink:href="#zoomMin" x="42" y="9" onmousedown="handleZoom(evt,'out')"/>
  <use id="reset" xlink:href="#resetDef" x="30" y="36" onmousedown="handleReset()"/>
   <use id="arrowup" xlink:href="#arrowUp" x="0" y="0" onmousedown="handlePan(0,-1)"/>
  <use id="arrowright" xlink:href="#arrowRight" x="0" y="0" onmousedown="handlePan(1,0)"/>
  <use id="arrowdown" xlink:href="#arrowDown" x="0" y="0" onmousedown="handlePan(0,1)"/>
  <use id="arrowleft" xlink:href="#arrowLeft" x="0" y="0" onmousedown="handlePan(-1,0)"/>
</g>
<svg viewBox="0 0 15 15" width="100%" height="30px" preserveAspectRatio="xMaxYMin meet">
 <g id="arrow_out" transform="scale(0.3 0.3)">
  <a xlink:href="classSpan_1_1InspectorPanel_a6daa94024d0c4ef940d144af94519964_cgraph_org.svg" target="_base">
   <rect id="button" ry="5" rx="5" y="6" x="6" height="38" width="38"
        fill="#f2f5e9" fill-opacity="0.5" stroke="#606060" stroke-width="1.0"/>
   <path id="arrow"
     d="M 11.500037,31.436501 C 11.940474,20.09759 22.043105,11.32322 32.158766,21.979434 L 37.068811,17.246167 C 37.068811,17.246167 37.088388,32 37.088388,32 L 22.160133,31.978069 C 22.160133,31.978069 26.997745,27.140456 26.997745,27.140456 C 18.528582,18.264221 13.291696,25.230495 11.500037,31.436501 z"
     style="fill:#404040;"/>
  </a>
 </g>
</svg>

<style type='text/css'>
<![CDATA[
[data-mouse-over-selected='false'] { opacity: 0.7; }
[data-mouse-over-selected='true']  { opacity: 1.0; }
]]>
</style>
<script type="application/ecmascript"><![CDATA[
document.addEventListener('DOMContentLoaded', (event) => {
  highlightEdges();
  highlightAdjacentNodes();
});
]]></script>
</svg>
