<?xml version="1.0" encoding="UTF-8" standalone="no"?>
<!DOCTYPE svg PUBLIC "-//W3C//DTD SVG 1.1//EN"
 "http://www.w3.org/Graphics/SVG/1.1/DTD/svg11.dtd">
<!-- Generated by graphviz version 2.43.0 (0)
 -->
<!-- Title: Span::RenderingSystem Pages: 1 -->
<svg width="312pt" height="827pt"
 viewBox="0.00 0.00 311.50 827.00" xmlns="http://www.w3.org/2000/svg" xmlns:xlink="http://www.w3.org/1999/xlink">
<g id="graph0" class="graph" transform="scale(1 1) rotate(0) translate(4 823)">
<title>Span::RenderingSystem</title>
<!-- Node1 -->
<g id="Node000001" class="node">
<title>Node1</title>
<g id="a_Node000001"><a xlink:title=" ">
<polygon fill="#999999" stroke="transparent" points="216,-49 89,-49 89,0 216,0 216,-49"/>
<text text-anchor="start" x="94.5" y="-36.5" font-family="Helvetica,sans-Serif" font-size="10.00">Span::RenderingSystem</text>
<text text-anchor="start" x="151" y="-21.5" font-family="Helvetica,sans-Serif" font-size="10.00"> </text>
<text text-anchor="start" x="105.5" y="-6.5" font-family="Helvetica,sans-Serif" font-size="10.00">+</text>
<text text-anchor="start" x="130.5" y="-6.5" font-family="Helvetica,sans-Serif" font-size="10.00">OnUpdate()</text>
<polygon fill="#666666" stroke="#666666" points="89.5,-31.5 89.5,-31.5 216.5,-31.5 216.5,-31.5 89.5,-31.5"/>
<polygon fill="#666666" stroke="#666666" points="89.5,-16.5 89.5,-16.5 216.5,-16.5 216.5,-16.5 89.5,-16.5"/>
<polygon fill="none" stroke="#666666" points="89,0 89,-49 216,-49 216,0 89,0"/>
</a>
</g>
</g>
<!-- Node2 -->
<g id="Node000002" class="node">
<title>Node2</title>
<g id="a_Node000002"><a xlink:href="classSpan_1_1System.html" target="_top" xlink:title=" ">
<polygon fill="white" stroke="transparent" points="193,-225 112,-225 112,-86 193,-86 193,-225"/>
<text text-anchor="start" x="119.5" y="-212.5" font-family="Helvetica,sans-Serif" font-size="10.00">Span::System</text>
<text text-anchor="start" x="119" y="-197.5" font-family="Helvetica,sans-Serif" font-size="10.00">&#45;</text>
<text text-anchor="start" x="129.5" y="-197.5" font-family="Helvetica,sans-Serif" font-size="10.00">isEnabled</text>
<text text-anchor="start" x="116.5" y="-182.5" font-family="Helvetica,sans-Serif" font-size="10.00">+</text>
<text text-anchor="start" x="129.5" y="-182.5" font-family="Helvetica,sans-Serif" font-size="10.00">~System()</text>
<text text-anchor="start" x="116.5" y="-167.5" font-family="Helvetica,sans-Serif" font-size="10.00">+</text>
<text text-anchor="start" x="129.5" y="-167.5" font-family="Helvetica,sans-Serif" font-size="10.00">Initialize()</text>
<text text-anchor="start" x="116.5" y="-152.5" font-family="Helvetica,sans-Serif" font-size="10.00">+</text>
<text text-anchor="start" x="129.5" y="-152.5" font-family="Helvetica,sans-Serif" font-size="10.00">OnCreate()</text>
<text text-anchor="start" x="116.5" y="-137.5" font-family="Helvetica,sans-Serif" font-size="10.00">+</text>
<text text-anchor="start" x="129.5" y="-137.5" font-family="Helvetica,sans-Serif" font-size="10.00">OnUpdate()</text>
<text text-anchor="start" x="116.5" y="-122.5" font-family="Helvetica,sans-Serif" font-size="10.00">+</text>
<text text-anchor="start" x="129.5" y="-122.5" font-family="Helvetica,sans-Serif" font-size="10.00">OnDestroy()</text>
<text text-anchor="start" x="116.5" y="-107.5" font-family="Helvetica,sans-Serif" font-size="10.00">+</text>
<text text-anchor="start" x="129.5" y="-107.5" font-family="Helvetica,sans-Serif" font-size="10.00">IsEnabled()</text>
<text text-anchor="start" x="116.5" y="-92.5" font-family="Helvetica,sans-Serif" font-size="10.00">#</text>
<text text-anchor="start" x="129.5" y="-92.5" font-family="Helvetica,sans-Serif" font-size="10.00">GetWorld()</text>
<polygon fill="#666666" stroke="#666666" points="112.5,-207.5 112.5,-207.5 193.5,-207.5 193.5,-207.5 112.5,-207.5"/>
<polygon fill="#666666" stroke="#666666" points="112.5,-192.5 112.5,-192.5 127.5,-192.5 127.5,-192.5 112.5,-192.5"/>
<polygon fill="#666666" stroke="#666666" points="127.5,-192.5 127.5,-192.5 193.5,-192.5 193.5,-192.5 127.5,-192.5"/>
<polygon fill="none" stroke="#666666" points="112,-86 112,-225 193,-225 193,-86 112,-86"/>
</a>
</g>
</g>
<!-- Node2&#45;&gt;Node1 -->
<g id="edge1_Node000001_Node000002" class="edge">
<title>Node2&#45;&gt;Node1</title>
<g id="a_edge1_Node000001_Node000002"><a xlink:title=" ">
<path fill="none" stroke="#63b8ff" d="M152.5,-75.69C152.5,-66.07 152.5,-56.89 152.5,-49.08"/>
<polygon fill="none" stroke="#63b8ff" points="149,-75.85 152.5,-85.85 156,-75.85 149,-75.85"/>
</a>
</g>
</g>
<!-- Node3 -->
<g id="Node000003" class="node">
<title>Node3</title>
<g id="a_Node000003"><a xlink:href="classSpan_1_1World.html" target="_top" xlink:title="🌏 ECSの管理マネージャー。全てのEntityとSystemを保持します。">
<polygon fill="white" stroke="transparent" points="221.5,-582 83.5,-582 83.5,-278 221.5,-278 221.5,-582"/>
<text text-anchor="start" x="123.5" y="-570" font-family="Helvetica,sans-Serif" font-size="10.00">Span::World</text>
<text text-anchor="start" x="90" y="-555" font-family="Helvetica,sans-Serif" font-size="10.00">&#45;</text>
<text text-anchor="start" x="100.5" y="-555" font-family="Helvetica,sans-Serif" font-size="10.00">systems</text>
<text text-anchor="start" x="90" y="-540" font-family="Helvetica,sans-Serif" font-size="10.00">&#45;</text>
<text text-anchor="start" x="100.5" y="-540" font-family="Helvetica,sans-Serif" font-size="10.00">entityLocationMap</text>
<text text-anchor="start" x="87.5" y="-525" font-family="Helvetica,sans-Serif" font-size="10.00">+</text>
<text text-anchor="start" x="100.5" y="-525" font-family="Helvetica,sans-Serif" font-size="10.00">World()</text>
<text text-anchor="start" x="87.5" y="-510" font-family="Helvetica,sans-Serif" font-size="10.00">+</text>
<text text-anchor="start" x="100.5" y="-510" font-family="Helvetica,sans-Serif" font-size="10.00">~World()</text>
<text text-anchor="start" x="87.5" y="-495" font-family="Helvetica,sans-Serif" font-size="10.00">+</text>
<text text-anchor="start" x="100.5" y="-495" font-family="Helvetica,sans-Serif" font-size="10.00">SPAN_NON_COPYABLE()</text>
<text text-anchor="start" x="87.5" y="-480" font-family="Helvetica,sans-Serif" font-size="10.00">+</text>
<text text-anchor="start" x="100.5" y="-480" font-family="Helvetica,sans-Serif" font-size="10.00">CreateEntity()</text>
<text text-anchor="start" x="87.5" y="-465" font-family="Helvetica,sans-Serif" font-size="10.00">+</text>
<text text-anchor="start" x="100.5" y="-465" font-family="Helvetica,sans-Serif" font-size="10.00">DestroyEntity()</text>
<text text-anchor="start" x="87.5" y="-450" font-family="Helvetica,sans-Serif" font-size="10.00">+</text>
<text text-anchor="start" x="100.5" y="-450" font-family="Helvetica,sans-Serif" font-size="10.00">IsAlive()</text>
<text text-anchor="start" x="87.5" y="-435" font-family="Helvetica,sans-Serif" font-size="10.00">+</text>
<text text-anchor="start" x="100.5" y="-435" font-family="Helvetica,sans-Serif" font-size="10.00">AddComponent()</text>
<text text-anchor="start" x="87.5" y="-420" font-family="Helvetica,sans-Serif" font-size="10.00">+</text>
<text text-anchor="start" x="100.5" y="-420" font-family="Helvetica,sans-Serif" font-size="10.00">RemoveComponent()</text>
<text text-anchor="start" x="87.5" y="-405" font-family="Helvetica,sans-Serif" font-size="10.00">+</text>
<text text-anchor="start" x="100.5" y="-405" font-family="Helvetica,sans-Serif" font-size="10.00">HasComponent()</text>
<text text-anchor="start" x="87.5" y="-390" font-family="Helvetica,sans-Serif" font-size="10.00">+</text>
<text text-anchor="start" x="100.5" y="-390" font-family="Helvetica,sans-Serif" font-size="10.00">GetComponent()</text>
<text text-anchor="start" x="100.5" y="-375" font-family="Helvetica,sans-Serif" font-size="10.00">ほか 6 件…</text>
<text text-anchor="start" x="90" y="-360" font-family="Helvetica,sans-Serif" font-size="10.00">&#45;</text>
<text text-anchor="start" x="100.5" y="-360" font-family="Helvetica,sans-Serif" font-size="10.00">MigrateEntity()</text>
<text text-anchor="start" x="90" y="-345" font-family="Helvetica,sans-Serif" font-size="10.00">&#45;</text>
<text text-anchor="start" x="100.5" y="-345" font-family="Helvetica,sans-Serif" font-size="10.00">GetComponentUnsafe()</text>
<text text-anchor="start" x="90" y="-330" font-family="Helvetica,sans-Serif" font-size="10.00">&#45;</text>
<text text-anchor="start" x="100.5" y="-330" font-family="Helvetica,sans-Serif" font-size="10.00">InitializeComponents()</text>
<text text-anchor="start" x="90" y="-315" font-family="Helvetica,sans-Serif" font-size="10.00">&#45;</text>
<text text-anchor="start" x="100.5" y="-315" font-family="Helvetica,sans-Serif" font-size="10.00">InitializeComponent()</text>
<text text-anchor="start" x="90" y="-300" font-family="Helvetica,sans-Serif" font-size="10.00">&#45;</text>
<text text-anchor="start" x="100.5" y="-300" font-family="Helvetica,sans-Serif" font-size="10.00">ProcessChunk_Impl()</text>
<text text-anchor="start" x="90" y="-285" font-family="Helvetica,sans-Serif" font-size="10.00">&#45;</text>
<text text-anchor="start" x="100.5" y="-285" font-family="Helvetica,sans-Serif" font-size="10.00">ProcessChunk()</text>
<polygon fill="#666666" stroke="#666666" points="83.5,-565 83.5,-565 221.5,-565 221.5,-565 83.5,-565"/>
<polygon fill="#666666" stroke="#666666" points="83.5,-535 83.5,-535 98.5,-535 98.5,-535 83.5,-535"/>
<polygon fill="#666666" stroke="#666666" points="98.5,-535 98.5,-535 221.5,-535 221.5,-535 98.5,-535"/>
<polygon fill="none" stroke="#666666" points="83.5,-278 83.5,-582 221.5,-582 221.5,-278 83.5,-278"/>
</a>
</g>
</g>
<!-- Node3&#45;&gt;Node2 -->
<g id="edge2_Node000002_Node000003" class="edge">
<title>Node3&#45;&gt;Node2</title>
<g id="a_edge2_Node000002_Node000003"><a xlink:title=" ">
<path fill="none" stroke="#63b8ff" d="M152.5,-277.61C152.5,-263.78 152.5,-250.16 152.5,-237.32"/>
<polygon fill="none" stroke="#63b8ff" points="152.5,-237.28 148.5,-231.28 152.5,-225.28 156.5,-231.28 152.5,-237.28"/>
</a>
</g>
<text text-anchor="start" x="155.5" y="-248.5" font-family="Helvetica,sans-Serif" font-size="10.00" fill="grey">&#45;m_world</text>
</g>
<!-- Node4 -->
<g id="Node000004" class="node">
<title>Node4</title>
<g id="a_Node000004"><a xlink:href="classSpan_1_1EntityManager.html" target="_top" xlink:title=" ">
<polygon fill="white" stroke="transparent" points="145,-819 0,-819 0,-635 145,-635 145,-819"/>
<text text-anchor="start" x="22" y="-807" font-family="Helvetica,sans-Serif" font-size="10.00">Span::EntityManager</text>
<text text-anchor="start" x="7" y="-792" font-family="Helvetica,sans-Serif" font-size="10.00">&#45;</text>
<text text-anchor="start" x="17.5" y="-792" font-family="Helvetica,sans-Serif" font-size="10.00">generations</text>
<text text-anchor="start" x="7" y="-777" font-family="Helvetica,sans-Serif" font-size="10.00">&#45;</text>
<text text-anchor="start" x="17.5" y="-777" font-family="Helvetica,sans-Serif" font-size="10.00">freeIndices</text>
<text text-anchor="start" x="7" y="-762" font-family="Helvetica,sans-Serif" font-size="10.00">&#45;</text>
<text text-anchor="start" x="17.5" y="-762" font-family="Helvetica,sans-Serif" font-size="10.00">activeCount</text>
<text text-anchor="start" x="7" y="-747" font-family="Helvetica,sans-Serif" font-size="10.00">&#45;</text>
<text text-anchor="start" x="17.5" y="-747" font-family="Helvetica,sans-Serif" font-size="10.00">MINIMUM_FREE_INDICES</text>
<text text-anchor="start" x="4.5" y="-732" font-family="Helvetica,sans-Serif" font-size="10.00">+</text>
<text text-anchor="start" x="17.5" y="-732" font-family="Helvetica,sans-Serif" font-size="10.00">EntityManager()</text>
<text text-anchor="start" x="4.5" y="-717" font-family="Helvetica,sans-Serif" font-size="10.00">+</text>
<text text-anchor="start" x="17.5" y="-717" font-family="Helvetica,sans-Serif" font-size="10.00">~EntityManager()</text>
<text text-anchor="start" x="4.5" y="-702" font-family="Helvetica,sans-Serif" font-size="10.00">+</text>
<text text-anchor="start" x="17.5" y="-702" font-family="Helvetica,sans-Serif" font-size="10.00">SPAN_NON_COPYABLE()</text>
<text text-anchor="start" x="4.5" y="-687" font-family="Helvetica,sans-Serif" font-size="10.00">+</text>
<text text-anchor="start" x="17.5" y="-687" font-family="Helvetica,sans-Serif" font-size="10.00">CreateEntity()</text>
<text text-anchor="start" x="4.5" y="-672" font-family="Helvetica,sans-Serif" font-size="10.00">+</text>
<text text-anchor="start" x="17.5" y="-672" font-family="Helvetica,sans-Serif" font-size="10.00">DestroyEntity()</text>
<text text-anchor="start" x="4.5" y="-657" font-family="Helvetica,sans-Serif" font-size="10.00">+</text>
<text text-anchor="start" x="17.5" y="-657" font-family="Helvetica,sans-Serif" font-size="10.00">IsAlive()</text>
<text text-anchor="start" x="4.5" y="-642" font-family="Helvetica,sans-Serif" font-size="10.00">+</text>
<text text-anchor="start" x="17.5" y="-642" font-family="Helvetica,sans-Serif" font-size="10.00">GetActiveEntityCount()</text>
<polygon fill="#666666" stroke="#666666" points="0.5,-802 0.5,-802 145.5,-802 145.5,-802 0.5,-802"/>
<polygon fill="#666666" stroke="#666666" points="0.5,-742 0.5,-742 15.5,-742 15.5,-742 0.5,-742"/>
<polygon fill="#666666" stroke="#666666" points="15.5,-742 15.5,-742 145.5,-742 145.5,-742 15.5,-742"/>
<polygon fill="none" stroke="#666666" points="0,-635 0,-819 145,-819 145,-635 0,-635"/>
</a>
</g>
</g>
<!-- Node4&#45;&gt;Node3 -->
<g id="edge3_Node000003_Node000004" class="edge">
<title>Node4&#45;&gt;Node3</title>
<g id="a_edge3_Node000003_Node000004"><a xlink:title=" ">
<path fill="none" stroke="#63b8ff" d="M97.26,-634.68C100.81,-621.59 104.55,-607.81 108.34,-593.84"/>
<polygon fill="none" stroke="#63b8ff" points="108.39,-593.66 106.1,-586.82 111.53,-582.08 113.82,-588.92 108.39,-593.66"/>
</a>
</g>
<text text-anchor="start" x="108.5" y="-605.5" font-family="Helvetica,sans-Serif" font-size="10.00" fill="grey">&#45;entityManager</text>
</g>
<!-- Node5 -->
<g id="Node000005" class="node">
<title>Node5</title>
<g id="a_Node000005"><a xlink:href="classSpan_1_1ArchetypeManager.html" target="_top" xlink:title=" ">
<polygon fill="white" stroke="transparent" points="302,-774 163,-774 163,-680 302,-680 302,-774"/>
<text text-anchor="start" x="171.5" y="-762" font-family="Helvetica,sans-Serif" font-size="10.00">Span::ArchetypeManager</text>
<text text-anchor="start" x="170" y="-747" font-family="Helvetica,sans-Serif" font-size="10.00">&#45;</text>
<text text-anchor="start" x="180.5" y="-747" font-family="Helvetica,sans-Serif" font-size="10.00">archetypes</text>
<text text-anchor="start" x="167.5" y="-732" font-family="Helvetica,sans-Serif" font-size="10.00">+</text>
<text text-anchor="start" x="180.5" y="-732" font-family="Helvetica,sans-Serif" font-size="10.00">~ArchetypeManager()</text>
<text text-anchor="start" x="167.5" y="-717" font-family="Helvetica,sans-Serif" font-size="10.00">+</text>
<text text-anchor="start" x="180.5" y="-717" font-family="Helvetica,sans-Serif" font-size="10.00">GetOrCreateArchetype()</text>
<text text-anchor="start" x="167.5" y="-702" font-family="Helvetica,sans-Serif" font-size="10.00">+</text>
<text text-anchor="start" x="180.5" y="-702" font-family="Helvetica,sans-Serif" font-size="10.00">GetOrCreateArchetype()</text>
<text text-anchor="start" x="167.5" y="-687" font-family="Helvetica,sans-Serif" font-size="10.00">+</text>
<text text-anchor="start" x="180.5" y="-687" font-family="Helvetica,sans-Serif" font-size="10.00">GetAllArchetypes()</text>
<polygon fill="#666666" stroke="#666666" points="163.5,-757 163.5,-757 302.5,-757 302.5,-757 163.5,-757"/>
<polygon fill="#666666" stroke="#666666" points="163.5,-742 163.5,-742 178.5,-742 178.5,-742 163.5,-742"/>
<polygon fill="#666666" stroke="#666666" points="178.5,-742 178.5,-742 302.5,-742 302.5,-742 178.5,-742"/>
<polygon fill="none" stroke="#666666" points="163,-680 163,-774 302,-774 302,-680 163,-680"/>
</a>
</g>
</g>
<!-- Node5&#45;&gt;Node3 -->
<g id="edge4_Node000003_Node000005" class="edge">
<title>Node5&#45;&gt;Node3</title>
<g id="a_edge4_Node000003_Node000005"><a xlink:title=" ">
<path fill="none" stroke="#63b8ff" d="M220,-679.91C213.54,-656.09 205.23,-625.44 196.66,-593.85"/>
<polygon fill="none" stroke="#63b8ff" points="196.64,-593.75 191.21,-589.01 193.5,-582.17 198.93,-586.92 196.64,-593.75"/>
</a>
</g>
<text text-anchor="start" x="204.5" y="-605.5" font-family="Helvetica,sans-Serif" font-size="10.00" fill="grey">&#45;archetypeManager</text>
</g>
</g>
</svg>
