<?xml version="1.0" encoding="UTF-8" standalone="no"?>
<!DOCTYPE svg PUBLIC "-//W3C//DTD SVG 1.1//EN"
 "http://www.w3.org/Graphics/SVG/1.1/DTD/svg11.dtd">
<!-- Generated by graphviz version 2.43.0 (0)
 -->
<!-- Title: Span::Archetype::GetComponentOffset Pages: 1 -->
<!--zoomable 892 -->

<svg id="main" version="1.1" xmlns="http://www.w3.org/2000/svg" xmlns:xlink="http://www.w3.org/1999/xlink" xml:space="preserve" onload="init(evt)">

<style type="text/css"><![CDATA[
.node, .edge {opacity: 0.7;}
.node.selected, .edge.selected {opacity: 1;}
.edge:hover path { stroke: red; }
.edge:hover polygon { stroke: red; fill: red; }
]]></style>

<defs>
  <circle id="rim" cx="0" cy="0" r="7"/>
  <circle id="rim2" cx="0" cy="0" r="3.5"/>
  <g id="zoomPlus">
    <use xlink:href="#rim" fill="#404040"><set attributeName="fill" to="#808080" begin="zoomplus.mouseover" end="zoomplus.mouseout"/></use>
    <path d="M-4,0h8M0,-4v8" fill="none" stroke="white" stroke-width="1.5" pointer-events="none"/>
  </g>
  <g id="zoomMin">
    <use xlink:href="#rim" fill="#404040"><set attributeName="fill" to="#808080" begin="zoomminus.mouseover" end="zoomminus.mouseout"/></use>
    <path d="M-4,0h8" fill="none" stroke="white" stroke-width="1.5" pointer-events="none"/>
  </g>
  <g id="arrowUp" transform="translate(30 24)">
    <use xlink:href="#rim"/>
    <path pointer-events="none" fill="none" stroke="white" stroke-width="1.5" d="M0,-3.0v7 M-2.5,-0.5L0,-3.0L2.5,-0.5"/>
  </g>
  <g id="arrowRight" transform="rotate(90) translate(36 -43)">
    <use xlink:href="#rim"/>
    <path pointer-events="none" fill="none" stroke="white" stroke-width="1.5" d="M0,-3.0v7 M-2.5,-0.5L0,-3.0L2.5,-0.5"/>
  </g>
  <g id="arrowDown" transform="rotate(180) translate(-30 -48)">
    <use xlink:href="#rim"/>
    <path pointer-events="none" fill="none" stroke="white" stroke-width="1.5" d="M0,-3.0v7 M-2.5,-0.5L0,-3.0L2.5,-0.5"/>
  </g>
  <g id="arrowLeft" transform="rotate(270) translate(-36 17)">
    <use xlink:href="#rim"/>
    <path pointer-events="none" fill="none" stroke="white" stroke-width="1.5" d="M0,-3.0v7 M-2.5,-0.5L0,-3.0L2.5,-0.5"/>
  </g>
  <g id="resetDef">
    <use xlink:href="#rim2" fill="#404040"><set attributeName="fill" to="#808080" begin="reset.mouseover" end="reset.mouseout"/></use>
  </g>
</defs>
<script type="application/ecmascript">
var viewWidth = 1645;
var viewHeight = 892;
var sectionId = 'dynsection-5';
</script>
<script type="application/ecmascript" xlink:href="svg.min.js"/>
<svg id="graph" class="graph">
<g id="viewport">
<title>Span::Archetype::GetComponentOffset</title>
<!-- Node1 -->
<g id="Node000001" class="node">
<title>Node1</title>
<g id="a_Node000001"><a xlink:title="コンポーネント配列の「チャンク内オフセット」を取得します。">
<polygon fill="#999999" stroke="#666666" points="1637,-228.5 1461,-228.5 1461,-198.5 1637,-198.5 1637,-228.5"/>
<text text-anchor="start" x="1469" y="-216.5" font-family="Helvetica,sans-Serif" font-size="10.00">Span::Archetype::GetComponent</text>
<text text-anchor="middle" x="1549" y="-205.5" font-family="Helvetica,sans-Serif" font-size="10.00">Offset</text>
</a>
</g>
</g>
<!-- Node2 -->
<g id="Node000002" class="node">
<title>Node2</title>
<g id="a_Node000002"><a xlink:href="classSpan_1_1World.html#afd6041d6b68f1964882d1941fc0fddaf" target="_top" xlink:title="指定したコンポーネントを持つ全てのEntityに対して関数を実行します。">
<polygon fill="white" stroke="#666666" points="1197,-749 1078,-749 1078,-730 1197,-730 1197,-749"/>
<text text-anchor="middle" x="1137.5" y="-737" font-family="Helvetica,sans-Serif" font-size="10.00">Span::World::ForEach</text>
</a>
</g>
</g>
<!-- Node1&#45;&gt;Node2 -->
<g id="edge1_Node000001_Node000002" class="edge">
<title>Node1&#45;&gt;Node2</title>
<g id="a_edge1_Node000001_Node000002"><a xlink:title=" ">
<path fill="none" stroke="#63b8ff" d="M1529.83,-236.84C1457.84,-329.3 1194.22,-667.93 1146.07,-729.77"/>
<polygon fill="#63b8ff" stroke="#63b8ff" points="1532.8,-238.72 1536.19,-228.67 1527.28,-234.42 1532.8,-238.72"/>
</a>
</g>
</g>
<!-- Node9 -->
<g id="Node000009" class="node">
<title>Node9</title>
<g id="a_Node000009"><a xlink:href="classSpan_1_1World.html#a44e36e9b91bb78cd486b93a5a02ff1fa" target="_top" xlink:title=" ">
<polygon fill="white" stroke="#666666" points="1421,-250.5 1267,-250.5 1267,-220.5 1421,-220.5 1421,-250.5"/>
<text text-anchor="start" x="1275" y="-238.5" font-family="Helvetica,sans-Serif" font-size="10.00">Span::World::GetComponent</text>
<text text-anchor="middle" x="1344" y="-227.5" font-family="Helvetica,sans-Serif" font-size="10.00">Unsafe</text>
</a>
</g>
</g>
<!-- Node1&#45;&gt;Node9 -->
<g id="edge9_Node000001_Node000009" class="edge">
<title>Node1&#45;&gt;Node9</title>
<g id="a_edge9_Node000001_Node000009"><a xlink:title=" ">
<path fill="none" stroke="#63b8ff" d="M1450.77,-224.04C1440.78,-225.12 1430.73,-226.21 1421.01,-227.26"/>
<polygon fill="#63b8ff" stroke="#63b8ff" points="1451.17,-227.51 1460.73,-222.96 1450.41,-220.56 1451.17,-227.51"/>
</a>
</g>
</g>
<!-- Node27 -->
<g id="Node000027" class="node">
<title>Node27</title>
<g id="a_Node000027"><a xlink:href="classSpan_1_1World.html#a8c01f89c473a5da0aca8d152f248fc53" target="_top" xlink:title=" ">
<polygon fill="white" stroke="#666666" points="1210.5,-166 1064.5,-166 1064.5,-147 1210.5,-147 1210.5,-166"/>
<text text-anchor="middle" x="1137.5" y="-154" font-family="Helvetica,sans-Serif" font-size="10.00">Span::World::MigrateEntity</text>
</a>
</g>
</g>
<!-- Node1&#45;&gt;Node27 -->
<g id="edge45_Node000001_Node000027" class="edge">
<title>Node1&#45;&gt;Node27</title>
<g id="a_edge45_Node000001_Node000027"><a xlink:title=" ">
<path fill="none" stroke="#63b8ff" d="M1450.95,-199.99C1375.8,-189.53 1273.6,-175.3 1206.86,-166.01"/>
<polygon fill="#63b8ff" stroke="#63b8ff" points="1450.52,-203.46 1460.91,-201.38 1451.48,-196.53 1450.52,-203.46"/>
</a>
</g>
</g>
<!-- Node28 -->
<g id="Node000028" class="node">
<title>Node28</title>
<g id="a_Node000028"><a xlink:href="structSpan_1_1Chunk.html#a6bd9e470ec1f88ff4d5e7481a6608ccf" target="_top" xlink:title="チャンク内のエンティティデータを移動 (コピー) します。">
<polygon fill="white" stroke="#666666" points="1425,-164 1263,-164 1263,-145 1425,-145 1425,-164"/>
<text text-anchor="middle" x="1344" y="-152" font-family="Helvetica,sans-Serif" font-size="10.00">Span::Chunk::MoveEntityData</text>
</a>
</g>
</g>
<!-- Node1&#45;&gt;Node28 -->
<g id="edge48_Node000001_Node000028" class="edge">
<title>Node1&#45;&gt;Node28</title>
<g id="a_edge48_Node000001_Node000028"><a xlink:title=" ">
<path fill="none" stroke="#63b8ff" d="M1486.4,-195.6C1450.7,-185.22 1407.16,-172.56 1377.9,-164.06"/>
<polygon fill="#63b8ff" stroke="#63b8ff" points="1485.67,-199.03 1496.25,-198.46 1487.62,-192.31 1485.67,-199.03"/>
</a>
</g>
</g>
<!-- Node3 -->
<g id="Node000003" class="node">
<title>Node3</title>
<g id="a_Node000003"><a xlink:href="classSpan_1_1SceneViewPanel.html#ad83a4a55f083c75371d0873322808796" target="_top" xlink:title="選択中のオブジェクトに対してマニピュレータ (矢印など) を描画します。">
<polygon fill="white" stroke="#666666" points="983,-711.5 857,-711.5 857,-681.5 983,-681.5 983,-711.5"/>
<text text-anchor="start" x="865" y="-699.5" font-family="Helvetica,sans-Serif" font-size="10.00">Span::SceneViewPanel</text>
<text text-anchor="middle" x="920" y="-688.5" font-family="Helvetica,sans-Serif" font-size="10.00">::DrawGizmo</text>
</a>
</g>
</g>
<!-- Node2&#45;&gt;Node3 -->
<g id="edge2_Node000002_Node000003" class="edge">
<title>Node2&#45;&gt;Node3</title>
<g id="a_edge2_Node000002_Node000003"><a xlink:title=" ">
<path fill="none" stroke="#63b8ff" d="M1078.52,-727.93C1049,-722.04 1013.1,-714.88 983.03,-708.88"/>
<polygon fill="#63b8ff" stroke="#63b8ff" points="1078.18,-731.43 1088.67,-729.96 1079.55,-724.57 1078.18,-731.43"/>
</a>
</g>
</g>
<!-- Node4 -->
<g id="Node000004" class="node">
<title>Node4</title>
<g id="a_Node000004"><a xlink:href="classSpan_1_1SceneViewPanel.html#aab2935de58bd68267a680cabd3656c9f" target="_top" xlink:title="毎フレームの描画処理。 画像の表示、ツールバーのオーバーレイ、ギズモの描画を行います。">
<polygon fill="white" stroke="#666666" points="783,-735.5 657,-735.5 657,-705.5 783,-705.5 783,-735.5"/>
<text text-anchor="start" x="665" y="-723.5" font-family="Helvetica,sans-Serif" font-size="10.00">Span::SceneViewPanel</text>
<text text-anchor="middle" x="720" y="-712.5" font-family="Helvetica,sans-Serif" font-size="10.00">::OnImGuiRender</text>
</a>
</g>
</g>
<!-- Node2&#45;&gt;Node4 -->
<g id="edge5_Node000002_Node000004" class="edge">
<title>Node2&#45;&gt;Node4</title>
<g id="a_edge5_Node000002_Node000004"><a xlink:title=" ">
<path fill="none" stroke="#63b8ff" d="M1067.48,-736.34C988.21,-732.72 859.31,-726.82 783.08,-723.34"/>
<polygon fill="#63b8ff" stroke="#63b8ff" points="1067.7,-739.86 1077.85,-736.82 1068.02,-732.86 1067.7,-739.86"/>
</a>
</g>
</g>
<!-- Node5 -->
<g id="Node000005" class="node">
<title>Node5</title>
<g id="a_Node000005"><a xlink:href="classSpan_1_1HierarchyPanel.html#a6481eb57cd9f45cb3a094a26f35bbaa0" target="_top" xlink:title="毎フレーム呼ばれる描画関数。">
<polygon fill="white" stroke="#666666" points="120,-658.5 0,-658.5 0,-628.5 120,-628.5 120,-658.5"/>
<text text-anchor="start" x="8" y="-646.5" font-family="Helvetica,sans-Serif" font-size="10.00">Span::HierarchyPanel</text>
<text text-anchor="middle" x="60" y="-635.5" font-family="Helvetica,sans-Serif" font-size="10.00">::OnImGuiRender</text>
</a>
</g>
</g>
<!-- Node2&#45;&gt;Node5 -->
<g id="edge4_Node000002_Node000005" class="edge">
<title>Node2&#45;&gt;Node5</title>
<g id="a_edge4_Node000002_Node000005"><a xlink:title=" ">
<path fill="none" stroke="#63b8ff" d="M1067.85,-749.64C985.61,-760.9 843.56,-777.5 721,-777.5 721,-777.5 721,-777.5 371,-777.5 252.27,-777.5 127.41,-693.66 80.4,-658.61"/>
<polygon fill="#63b8ff" stroke="#63b8ff" points="1068.4,-753.1 1077.82,-748.27 1067.44,-746.17 1068.4,-753.1"/>
</a>
</g>
</g>
<!-- Node6 -->
<g id="Node000006" class="node">
<title>Node6</title>
<g id="a_Node000006"><a xlink:href="classSpan_1_1CameraSystem.html#a7f4bf0245dedd7a6245ef352246f7391" target="_top" xlink:title="毎フレーム呼び出されます。ここにゲームロジックを記述します。">
<polygon fill="white" stroke="#666666" points="981,-883.5 859,-883.5 859,-853.5 981,-853.5 981,-883.5"/>
<text text-anchor="start" x="867" y="-871.5" font-family="Helvetica,sans-Serif" font-size="10.00">Span::CameraSystem</text>
<text text-anchor="middle" x="920" y="-860.5" font-family="Helvetica,sans-Serif" font-size="10.00">::OnUpdate</text>
</a>
</g>
</g>
<!-- Node2&#45;&gt;Node6 -->
<g id="edge6_Node000002_Node000006" class="edge">
<title>Node2&#45;&gt;Node6</title>
<g id="a_edge6_Node000002_Node000006"><a xlink:title=" ">
<path fill="none" stroke="#63b8ff" d="M1120.98,-756.69C1098.98,-780.01 1056.44,-821.41 1012,-844.5 1002.43,-849.47 991.75,-853.48 981.16,-856.68"/>
<polygon fill="#63b8ff" stroke="#63b8ff" points="1123.64,-758.96 1127.87,-749.25 1118.51,-754.2 1123.64,-758.96"/>
</a>
</g>
</g>
<!-- Node7 -->
<g id="Node000007" class="node">
<title>Node7</title>
<g id="a_Node000007"><a xlink:href="classSpan_1_1EditorCameraSystem.html#ae933964fa5d0f299954c926cf63e091a" target="_top" xlink:title="毎フレーム呼び出されます。ここにゲームロジックを記述します。">
<polygon fill="white" stroke="#666666" points="995,-835.5 845,-835.5 845,-805.5 995,-805.5 995,-835.5"/>
<text text-anchor="start" x="853" y="-823.5" font-family="Helvetica,sans-Serif" font-size="10.00">Span::EditorCameraSystem</text>
<text text-anchor="middle" x="920" y="-812.5" font-family="Helvetica,sans-Serif" font-size="10.00">::OnUpdate</text>
</a>
</g>
</g>
<!-- Node2&#45;&gt;Node7 -->
<g id="edge7_Node000002_Node000007" class="edge">
<title>Node2&#45;&gt;Node7</title>
<g id="a_edge7_Node000002_Node000007"><a xlink:title=" ">
<path fill="none" stroke="#63b8ff" d="M1105.81,-753.2C1080.79,-764.15 1044.42,-779.59 1012,-791.5 998.77,-796.36 984.29,-801.19 970.86,-805.47"/>
<polygon fill="#63b8ff" stroke="#63b8ff" points="1107.39,-756.33 1115.13,-749.09 1104.57,-749.92 1107.39,-756.33"/>
</a>
</g>
</g>
<!-- Node8 -->
<g id="Node000008" class="node">
<title>Node8</title>
<g id="a_Node000008"><a xlink:href="classSpan_1_1TransformSystem.html#abeba491503870f332716f4ca75444ca4" target="_top" xlink:title="毎フレーム呼び出されます。ここにゲームロジックを記述します。">
<polygon fill="white" stroke="#666666" points="786,-587.5 654,-587.5 654,-557.5 786,-557.5 786,-587.5"/>
<text text-anchor="start" x="662" y="-575.5" font-family="Helvetica,sans-Serif" font-size="10.00">Span::TransformSystem</text>
<text text-anchor="middle" x="720" y="-564.5" font-family="Helvetica,sans-Serif" font-size="10.00">::OnUpdate</text>
</a>
</g>
</g>
<!-- Node2&#45;&gt;Node8 -->
<g id="edge8_Node000002_Node000008" class="edge">
<title>Node2&#45;&gt;Node8</title>
<g id="a_edge8_Node000002_Node000008"><a xlink:title=" ">
<path fill="none" stroke="#63b8ff" d="M1112.1,-724.85C1087.42,-710.39 1047.88,-688.23 1012,-672.5 917.26,-630.97 889.89,-629.95 792,-596.5 783.5,-593.6 774.43,-590.51 765.71,-587.56"/>
<polygon fill="#63b8ff" stroke="#63b8ff" points="1110.41,-727.91 1120.8,-729.98 1113.96,-721.88 1110.41,-727.91"/>
</a>
</g>
</g>
<!-- Node3&#45;&gt;Node4 -->
<g id="edge3_Node000003_Node000004" class="edge">
<title>Node3&#45;&gt;Node4</title>
<g id="a_edge3_Node000003_Node000004"><a xlink:title=" ">
<path fill="none" stroke="#63b8ff" d="M846.82,-705.25C825.97,-707.78 803.41,-710.51 783.22,-712.96"/>
<polygon fill="#63b8ff" stroke="#63b8ff" points="847.39,-708.71 856.89,-704.03 846.55,-701.76 847.39,-708.71"/>
</a>
</g>
</g>
<!-- Node10 -->
<g id="Node000010" class="node">
<title>Node10</title>
<g id="a_Node000010"><a xlink:href="classSpan_1_1World.html#a0cebb4506e5366293854cde16a208677" target="_top" xlink:title="コンポーネントへの参照を取得します。">
<polygon fill="white" stroke="#666666" points="1214.5,-482 1060.5,-482 1060.5,-463 1214.5,-463 1214.5,-482"/>
<text text-anchor="middle" x="1137.5" y="-470" font-family="Helvetica,sans-Serif" font-size="10.00">Span::World::GetComponent</text>
</a>
</g>
</g>
<!-- Node9&#45;&gt;Node10 -->
<g id="edge10_Node000009_Node000010" class="edge">
<title>Node9&#45;&gt;Node10</title>
<g id="a_edge10_Node000009_Node000010"><a xlink:title=" ">
<path fill="none" stroke="#63b8ff" d="M1323.18,-258.47C1279.5,-309.09 1176.49,-428.47 1146.7,-462.99"/>
<polygon fill="#63b8ff" stroke="#63b8ff" points="1326.01,-260.54 1329.9,-250.69 1320.71,-255.97 1326.01,-260.54"/>
</a>
</g>
</g>
<!-- Node19 -->
<g id="Node000019" class="node">
<title>Node19</title>
<g id="a_Node000019"><a xlink:href="classSpan_1_1World.html#a637d963c8538b8ca6535bd1c6b88115c" target="_top" xlink:title="コンポーネントへのポインタを取得します。">
<polygon fill="white" stroke="#666666" points="1221,-245 1054,-245 1054,-226 1221,-226 1221,-245"/>
<text text-anchor="middle" x="1137.5" y="-233" font-family="Helvetica,sans-Serif" font-size="10.00">Span::World::GetComponentPtr</text>
</a>
</g>
</g>
<!-- Node9&#45;&gt;Node19 -->
<g id="edge30_Node000009_Node000019" class="edge">
<title>Node9&#45;&gt;Node19</title>
<g id="a_edge30_Node000009_Node000019"><a xlink:title=" ">
<path fill="none" stroke="#63b8ff" d="M1256.63,-235.5C1244.91,-235.5 1232.89,-235.5 1221.23,-235.5"/>
<polygon fill="#63b8ff" stroke="#63b8ff" points="1256.85,-239 1266.85,-235.5 1256.85,-232 1256.85,-239"/>
</a>
</g>
</g>
<!-- Node24 -->
<g id="Node000024" class="node">
<title>Node24</title>
<g id="a_Node000024"><a xlink:href="classSpan_1_1World.html#adf76f23216798eebcc87947b5ff8cb0a" target="_top" xlink:title=" ">
<polygon fill="white" stroke="#666666" points="1227,-113 1048,-113 1048,-94 1227,-94 1227,-113"/>
<text text-anchor="middle" x="1137.5" y="-101" font-family="Helvetica,sans-Serif" font-size="10.00">Span::World::InitializeComponent</text>
</a>
</g>
</g>
<!-- Node9&#45;&gt;Node24 -->
<g id="edge42_Node000009_Node000024" class="edge">
<title>Node9&#45;&gt;Node24</title>
<g id="a_edge42_Node000009_Node000024"><a xlink:title=" ">
<path fill="none" stroke="#63b8ff" d="M1314.29,-214.05C1298.79,-202.18 1279.5,-186.94 1263,-172.5 1246.21,-157.8 1245.8,-149.52 1227,-137.5 1210.36,-126.86 1189.88,-118.72 1172.81,-113.08"/>
<polygon fill="#63b8ff" stroke="#63b8ff" points="1312.4,-217.01 1322.47,-220.27 1316.63,-211.43 1312.4,-217.01"/>
</a>
</g>
</g>
<!-- Node10&#45;&gt;Node5 -->
<g id="edge28_Node000010_Node000005" class="edge">
<title>Node10&#45;&gt;Node5</title>
<g id="a_edge28_Node000010_Node000005"><a xlink:title=" ">
<path fill="none" stroke="#63b8ff" d="M1123.46,-490.06C1102.83,-516.51 1060.06,-566.27 1012,-592.5 826.17,-693.91 752.7,-663.5 541,-663.5 541,-663.5 541,-663.5 371,-663.5 283.5,-663.5 182.39,-655.47 120.07,-649.58"/>
<polygon fill="#63b8ff" stroke="#63b8ff" points="1126.29,-492.12 1129.58,-482.05 1120.73,-487.87 1126.29,-492.12"/>
</a>
</g>
</g>
<!-- Node11 -->
<g id="Node000011" class="node">
<title>Node11</title>
<g id="a_Node000011"><a xlink:href="classSpan_1_1RelationshipSystem.html#a67cd257ab95cd2a44e3c8830ccd4cf26" target="_top" xlink:title="指定したエンティティを現在の親から切断し、孤立させます。">
<polygon fill="white" stroke="#666666" points="992,-549.5 848,-549.5 848,-519.5 992,-519.5 992,-549.5"/>
<text text-anchor="start" x="856" y="-537.5" font-family="Helvetica,sans-Serif" font-size="10.00">Span::RelationshipSystem</text>
<text text-anchor="middle" x="920" y="-526.5" font-family="Helvetica,sans-Serif" font-size="10.00">::Disconnect</text>
</a>
</g>
</g>
<!-- Node10&#45;&gt;Node11 -->
<g id="edge11_Node000010_Node000011" class="edge">
<title>Node10&#45;&gt;Node11</title>
<g id="a_edge11_Node000010_Node000011"><a xlink:title=" ">
<path fill="none" stroke="#63b8ff" d="M1093.51,-484.87C1058.99,-494.8 1010.37,-508.79 973.54,-519.38"/>
<polygon fill="#63b8ff" stroke="#63b8ff" points="1094.66,-488.18 1103.3,-482.05 1092.72,-481.45 1094.66,-488.18"/>
</a>
</g>
</g>
<!-- Node12 -->
<g id="Node000012" class="node">
<title>Node12</title>
<g id="a_Node000012"><a xlink:href="classSpan_1_1RelationshipSystem.html#aa4b5cd977689e1b6689786315d0fa6e6" target="_top" xlink:title="特定の兄弟の「直前」に挿入します (順序変更用)。">
<polygon fill="white" stroke="#666666" points="612,-528.5 468,-528.5 468,-498.5 612,-498.5 612,-528.5"/>
<text text-anchor="start" x="476" y="-516.5" font-family="Helvetica,sans-Serif" font-size="10.00">Span::RelationshipSystem</text>
<text text-anchor="middle" x="540" y="-505.5" font-family="Helvetica,sans-Serif" font-size="10.00">::InsertBefore</text>
</a>
</g>
</g>
<!-- Node10&#45;&gt;Node12 -->
<g id="edge27_Node000010_Node000012" class="edge">
<title>Node10&#45;&gt;Node12</title>
<g id="a_edge27_Node000010_Node000012"><a xlink:title=" ">
<path fill="none" stroke="#63b8ff" d="M1050.39,-478.43C932.29,-486.56 722.23,-501.02 612.4,-508.58"/>
<polygon fill="#63b8ff" stroke="#63b8ff" points="1050.74,-481.91 1060.47,-477.73 1050.26,-474.93 1050.74,-481.91"/>
</a>
</g>
</g>
<!-- Node13 -->
<g id="Node000013" class="node">
<title>Node13</title>
<g id="a_Node000013"><a xlink:href="classSpan_1_1HierarchyPanel.html#af958ff25d0ba0576ae4848bbd01b2031" target="_top" xlink:title="ドラッグ&amp;ドロップの受け入れ処理 (親子付け替え・並び替え)。">
<polygon fill="white" stroke="#666666" points="432,-506.5 312,-506.5 312,-476.5 432,-476.5 432,-506.5"/>
<text text-anchor="start" x="320" y="-494.5" font-family="Helvetica,sans-Serif" font-size="10.00">Span::HierarchyPanel</text>
<text text-anchor="middle" x="372" y="-483.5" font-family="Helvetica,sans-Serif" font-size="10.00">::HandleDragDrop</text>
</a>
</g>
</g>
<!-- Node10&#45;&gt;Node13 -->
<g id="edge26_Node000010_Node000013" class="edge">
<title>Node10&#45;&gt;Node13</title>
<g id="a_edge26_Node000010_Node000013"><a xlink:title=" ">
<path fill="none" stroke="#63b8ff" d="M1050.32,-473.56C988.44,-474.41 903.08,-475.74 828,-477.5 685.98,-480.84 519.08,-486.39 432.25,-489.4"/>
<polygon fill="#63b8ff" stroke="#63b8ff" points="1050.47,-477.06 1060.43,-473.42 1050.38,-470.06 1050.47,-477.06"/>
</a>
</g>
</g>
<!-- Node14 -->
<g id="Node000014" class="node">
<title>Node14</title>
<g id="a_Node000014"><a xlink:href="classSpan_1_1HierarchyPanel.html#a2c08f8c6e0cafaed96f7846d76ff2b09" target="_top" xlink:title="1つのエンティティとその子孫を再帰的に描画します。">
<polygon fill="white" stroke="#666666" points="276,-384.5 156,-384.5 156,-354.5 276,-354.5 276,-384.5"/>
<text text-anchor="start" x="164" y="-372.5" font-family="Helvetica,sans-Serif" font-size="10.00">Span::HierarchyPanel</text>
<text text-anchor="middle" x="216" y="-361.5" font-family="Helvetica,sans-Serif" font-size="10.00">::DrawEntityNode</text>
</a>
</g>
</g>
<!-- Node10&#45;&gt;Node14 -->
<g id="edge25_Node000010_Node000014" class="edge">
<title>Node10&#45;&gt;Node14</title>
<g id="a_edge25_Node000010_Node000014"><a xlink:title=" ">
<path fill="none" stroke="#63b8ff" d="M1122.16,-454.98C1100.98,-430.57 1058.78,-387.22 1012,-368.5 891.66,-320.36 850.61,-349.5 721,-349.5 721,-349.5 721,-349.5 539,-349.5 447.14,-349.5 340.83,-357.71 276.28,-363.61"/>
<polygon fill="#63b8ff" stroke="#63b8ff" points="1119.61,-457.38 1128.74,-462.75 1124.95,-452.86 1119.61,-457.38"/>
</a>
</g>
</g>
<!-- Node15 -->
<g id="Node000015" class="node">
<title>Node15</title>
<g id="a_Node000015"><a xlink:href="classSpan_1_1RelationshipSystem.html#a22d8d93f263f586db5a1aa6de46711a0" target="_top" xlink:title="親子関係を設定します (末尾に追加)。">
<polygon fill="white" stroke="#666666" points="792,-635.5 648,-635.5 648,-605.5 792,-605.5 792,-635.5"/>
<text text-anchor="start" x="656" y="-623.5" font-family="Helvetica,sans-Serif" font-size="10.00">Span::RelationshipSystem</text>
<text text-anchor="middle" x="720" y="-612.5" font-family="Helvetica,sans-Serif" font-size="10.00">::SetParent</text>
</a>
</g>
</g>
<!-- Node10&#45;&gt;Node15 -->
<g id="edge29_Node000010_Node000015" class="edge">
<title>Node10&#45;&gt;Node15</title>
<g id="a_edge29_Node000010_Node000015"><a xlink:title=" ">
<path fill="none" stroke="#63b8ff" d="M1118.08,-488.76C1094.94,-508.31 1053.25,-540.71 1012,-558.5 991.96,-567.14 871.56,-591.39 792.04,-606.88"/>
<polygon fill="#63b8ff" stroke="#63b8ff" points="1120.43,-491.36 1125.73,-482.19 1115.86,-486.05 1120.43,-491.36"/>
</a>
</g>
</g>
<!-- Node17 -->
<g id="Node000017" class="node">
<title>Node17</title>
<g id="a_Node000017"><a xlink:href="classSpan_1_1InspectorPanel.html#a6daa94024d0c4ef940d144af94519964" target="_top" xlink:title="エンティティ用のインスペクターを描画します。">
<polygon fill="white" stroke="#666666" points="781,-212.5 659,-212.5 659,-182.5 781,-182.5 781,-212.5"/>
<text text-anchor="start" x="667" y="-200.5" font-family="Helvetica,sans-Serif" font-size="10.00">Span::InspectorPanel</text>
<text text-anchor="middle" x="720" y="-189.5" font-family="Helvetica,sans-Serif" font-size="10.00">::DrawEntityInspector</text>
</a>
</g>
</g>
<!-- Node10&#45;&gt;Node17 -->
<g id="edge23_Node000010_Node000017" class="edge">
<title>Node10&#45;&gt;Node17</title>
<g id="a_edge23_Node000010_Node000017"><a xlink:title=" ">
<path fill="none" stroke="#63b8ff" d="M1124.19,-454.76C1103.73,-426.36 1060.17,-370.34 1012,-335.5 939.46,-283.03 908.59,-292.5 828,-253.5 800.82,-240.35 770.36,-224.27 748.92,-212.73"/>
<polygon fill="#63b8ff" stroke="#63b8ff" points="1121.36,-456.82 1130,-462.95 1127.07,-452.77 1121.36,-456.82"/>
</a>
</g>
</g>
<!-- Node11&#45;&gt;Node12 -->
<g id="edge12_Node000011_Node000012" class="edge">
<title>Node11&#45;&gt;Node12</title>
<g id="a_edge12_Node000011_Node000012"><a xlink:title=" ">
<path fill="none" stroke="#63b8ff" d="M837.79,-529.99C770.66,-526.26 676.28,-521.02 612.1,-517.45"/>
<polygon fill="#63b8ff" stroke="#63b8ff" points="837.72,-533.49 847.9,-530.55 838.11,-526.5 837.72,-533.49"/>
</a>
</g>
</g>
<!-- Node11&#45;&gt;Node15 -->
<g id="edge17_Node000011_Node000015" class="edge">
<title>Node11&#45;&gt;Node15</title>
<g id="a_edge17_Node000011_Node000015"><a xlink:title=" ">
<path fill="none" stroke="#63b8ff" d="M849.27,-553.23C841.89,-556.23 834.66,-559.64 828,-563.5 809.22,-574.38 810.68,-585.45 792,-596.5 786.29,-599.88 780.03,-602.86 773.68,-605.48"/>
<polygon fill="#63b8ff" stroke="#63b8ff" points="850.58,-556.48 858.67,-549.64 848.08,-549.94 850.58,-556.48"/>
</a>
</g>
</g>
<!-- Node12&#45;&gt;Node13 -->
<g id="edge13_Node000012_Node000013" class="edge">
<title>Node12&#45;&gt;Node13</title>
<g id="a_edge13_Node000012_Node000013"><a xlink:title=" ">
<path fill="none" stroke="#63b8ff" d="M457.57,-502.71C448.97,-501.57 440.35,-500.43 432.07,-499.33"/>
<polygon fill="#63b8ff" stroke="#63b8ff" points="457.26,-506.2 467.64,-504.04 458.18,-499.26 457.26,-506.2"/>
</a>
</g>
</g>
<!-- Node13&#45;&gt;Node14 -->
<g id="edge14_Node000013_Node000014" class="edge">
<title>Node13&#45;&gt;Node14</title>
<g id="a_edge14_Node000013_Node000014"><a xlink:title=" ">
<path fill="none" stroke="#63b8ff" d="M343.59,-469.79C312.6,-445.23 262.94,-405.89 235.95,-384.51"/>
<polygon fill="#63b8ff" stroke="#63b8ff" points="341.8,-472.83 351.81,-476.3 346.14,-467.34 341.8,-472.83"/>
</a>
</g>
</g>
<!-- Node14&#45;&gt;Node5 -->
<g id="edge16_Node000014_Node000005" class="edge">
<title>Node14&#45;&gt;Node5</title>
<g id="a_edge16_Node000014_Node000005"><a xlink:title=" ">
<path fill="none" stroke="#63b8ff" d="M201.6,-393.35C170.64,-448.42 94.89,-583.2 69.47,-628.43"/>
<polygon fill="#63b8ff" stroke="#63b8ff" points="204.65,-395.05 206.5,-384.62 198.55,-391.62 204.65,-395.05"/>
</a>
</g>
</g>
<!-- Node14&#45;&gt;Node14 -->
<g id="edge15_Node000014_Node000014" class="edge">
<title>Node14&#45;&gt;Node14</title>
<g id="a_edge15_Node000014_Node000014"><a xlink:title=" ">
<path fill="none" stroke="#63b8ff" d="M243.31,-395.1C239.57,-399.47 230.47,-402.5 216,-402.5 191.62,-402.5 182.48,-393.91 188.58,-384.78"/>
<polygon fill="#63b8ff" stroke="#63b8ff" points="246.81,-394.81 243.42,-384.78 239.81,-394.74 246.81,-394.81"/>
</a>
</g>
</g>
<!-- Node15&#45;&gt;Node5 -->
<g id="edge22_Node000015_Node000005" class="edge">
<title>Node15&#45;&gt;Node5</title>
<g id="a_edge22_Node000015_Node000005"><a xlink:title=" ">
<path fill="none" stroke="#63b8ff" d="M637.73,-623.34C503.45,-628.03 238.35,-637.3 120.22,-641.43"/>
<polygon fill="#63b8ff" stroke="#63b8ff" points="638.09,-626.83 647.96,-622.98 637.84,-619.83 638.09,-626.83"/>
</a>
</g>
</g>
<!-- Node15&#45;&gt;Node12 -->
<g id="edge21_Node000015_Node000012" class="edge">
<title>Node15&#45;&gt;Node12</title>
<g id="a_edge21_Node000015_Node000012"><a xlink:title=" ">
<path fill="none" stroke="#63b8ff" d="M655.68,-601C653.03,-599.59 650.46,-598.09 648,-596.5 628.21,-583.66 630.19,-572.52 612,-557.5 598.8,-546.61 582.69,-536.41 569.15,-528.58"/>
<polygon fill="#63b8ff" stroke="#63b8ff" points="654.4,-604.27 664.93,-605.45 657.43,-597.96 654.4,-604.27"/>
</a>
</g>
</g>
<!-- Node15&#45;&gt;Node13 -->
<g id="edge20_Node000015_Node000013" class="edge">
<title>Node15&#45;&gt;Node13</title>
<g id="a_edge20_Node000015_Node000013"><a xlink:title=" ">
<path fill="none" stroke="#63b8ff" d="M657.22,-602.56C605.91,-587.06 531.34,-563.18 468,-537.5 445.24,-528.27 420.28,-516.1 401.66,-506.6"/>
<polygon fill="#63b8ff" stroke="#63b8ff" points="656.26,-605.92 666.85,-605.45 658.27,-599.22 656.26,-605.92"/>
</a>
</g>
</g>
<!-- Node16 -->
<g id="Node000016" class="node">
<title>Node16</title>
<g id="a_Node000016"><a xlink:href="classSpan_1_1HierarchyPanel.html#a331d846c46df5f3346cfc7bb8c7a8e76" target="_top" xlink:title="エンティティ上での右クリックメニューを描画します。">
<polygon fill="white" stroke="#666666" points="600,-407.5 480,-407.5 480,-377.5 600,-377.5 600,-407.5"/>
<text text-anchor="start" x="488" y="-395.5" font-family="Helvetica,sans-Serif" font-size="10.00">Span::HierarchyPanel</text>
<text text-anchor="middle" x="540" y="-384.5" font-family="Helvetica,sans-Serif" font-size="10.00">::DrawContextMenu</text>
</a>
</g>
</g>
<!-- Node15&#45;&gt;Node16 -->
<g id="edge18_Node000015_Node000016" class="edge">
<title>Node15&#45;&gt;Node16</title>
<g id="a_edge18_Node000015_Node000016"><a xlink:title=" ">
<path fill="none" stroke="#63b8ff" d="M651.33,-599.55C650.17,-598.58 649.06,-597.56 648,-596.5 612.55,-561 635.09,-534.05 612,-489.5 595.77,-458.19 570.03,-425.94 554.4,-407.64"/>
<polygon fill="#63b8ff" stroke="#63b8ff" points="649.31,-602.41 659.49,-605.34 653.35,-596.7 649.31,-602.41"/>
</a>
</g>
</g>
<!-- Node16&#45;&gt;Node14 -->
<g id="edge19_Node000016_Node000014" class="edge">
<title>Node16&#45;&gt;Node14</title>
<g id="a_edge19_Node000016_Node000014"><a xlink:title=" ">
<path fill="none" stroke="#63b8ff" d="M469.82,-387.56C412.17,-383.44 330.92,-377.64 276.23,-373.73"/>
<polygon fill="#63b8ff" stroke="#63b8ff" points="469.72,-391.06 479.94,-388.28 470.22,-384.08 469.72,-391.06"/>
</a>
</g>
</g>
<!-- Node18 -->
<g id="Node000018" class="node">
<title>Node18</title>
<g id="a_Node000018"><a xlink:href="classSpan_1_1InspectorPanel.html#ae32fda6018a2e54f880e6708ac5b89fe" target="_top" xlink:title="毎フレーム呼ばれる描画関数。">
<polygon fill="white" stroke="#666666" points="599,-212.5 481,-212.5 481,-182.5 599,-182.5 599,-212.5"/>
<text text-anchor="start" x="489" y="-200.5" font-family="Helvetica,sans-Serif" font-size="10.00">Span::InspectorPanel</text>
<text text-anchor="middle" x="540" y="-189.5" font-family="Helvetica,sans-Serif" font-size="10.00">::OnImGuiRender</text>
</a>
</g>
</g>
<!-- Node17&#45;&gt;Node18 -->
<g id="edge24_Node000017_Node000018" class="edge">
<title>Node17&#45;&gt;Node18</title>
<g id="a_edge24_Node000017_Node000018"><a xlink:title=" ">
<path fill="none" stroke="#63b8ff" d="M648.65,-197.5C632.22,-197.5 614.91,-197.5 599.09,-197.5"/>
<polygon fill="#63b8ff" stroke="#63b8ff" points="648.74,-201 658.74,-197.5 648.74,-194 648.74,-201"/>
</a>
</g>
</g>
<!-- Node19&#45;&gt;Node3 -->
<g id="edge39_Node000019_Node000003" class="edge">
<title>Node19&#45;&gt;Node3</title>
<g id="a_edge39_Node000019_Node000003"><a xlink:title=" ">
<path fill="none" stroke="#63b8ff" d="M1128.27,-254.73C1112.19,-292.55 1075.73,-379.36 1048,-453.5 1030.72,-499.71 1033.75,-514.22 1012,-558.5 988.72,-605.89 951.89,-656.45 933.02,-681.14"/>
<polygon fill="#63b8ff" stroke="#63b8ff" points="1131.54,-255.99 1132.24,-245.42 1125.1,-253.24 1131.54,-255.99"/>
</a>
</g>
</g>
<!-- Node19&#45;&gt;Node14 -->
<g id="edge38_Node000019_Node000014" class="edge">
<title>Node19&#45;&gt;Node14</title>
<g id="a_edge38_Node000019_Node000014"><a xlink:title=" ">
<path fill="none" stroke="#63b8ff" d="M1096.02,-247.95C1022.23,-269.5 860.55,-311.5 721,-311.5 721,-311.5 721,-311.5 539,-311.5 442.01,-311.5 331.15,-337.3 268.07,-354.49"/>
<polygon fill="#63b8ff" stroke="#63b8ff" points="1097.24,-251.24 1105.84,-245.05 1095.26,-244.52 1097.24,-251.24"/>
</a>
</g>
</g>
<!-- Node19&#45;&gt;Node17 -->
<g id="edge37_Node000019_Node000017" class="edge">
<title>Node19&#45;&gt;Node17</title>
<g id="a_edge37_Node000019_Node000017"><a xlink:title=" ">
<path fill="none" stroke="#63b8ff" d="M1070.83,-224.39C1051.89,-221.49 1031.16,-218.58 1012,-216.5 932.35,-207.84 839.97,-202.62 781.04,-199.91"/>
<polygon fill="#63b8ff" stroke="#63b8ff" points="1070.44,-227.87 1080.86,-225.96 1071.52,-220.96 1070.44,-227.87"/>
</a>
</g>
</g>
<!-- Node20 -->
<g id="Node000020" class="node">
<title>Node20</title>
<g id="a_Node000020"><a xlink:href="classSpan_1_1World.html#a555e11829d3833ce35f444779c4c2369" target="_top" xlink:title="既存のEntityに新しいコンポーネントを追加します。">
<polygon fill="white" stroke="#666666" points="997.5,-132 842.5,-132 842.5,-113 997.5,-113 997.5,-132"/>
<text text-anchor="middle" x="920" y="-120" font-family="Helvetica,sans-Serif" font-size="10.00">Span::World::AddComponent</text>
</a>
</g>
</g>
<!-- Node19&#45;&gt;Node20 -->
<g id="edge31_Node000019_Node000020" class="edge">
<title>Node19&#45;&gt;Node20</title>
<g id="a_edge31_Node000019_Node000020"><a xlink:title=" ">
<path fill="none" stroke="#63b8ff" d="M1112.14,-220.16C1093.95,-208.36 1068.76,-191.29 1048,-174.5 1030.89,-160.66 1031.56,-150.59 1012,-140.5 1005.42,-137.1 998.26,-134.35 990.95,-132.11"/>
<polygon fill="#63b8ff" stroke="#63b8ff" points="1110.65,-223.36 1120.96,-225.82 1114.43,-217.47 1110.65,-223.36"/>
</a>
</g>
</g>
<!-- Node21 -->
<g id="Node000021" class="node">
<title>Node21</title>
<g id="a_Node000021"><a xlink:href="classSpan_1_1TransformSystem.html#aa2cf376ecd2d44d89515eca90aea04e1" target="_top" xlink:title="再帰的に親のワールド行列を取得し、自信のローカル行列と合成します。">
<polygon fill="white" stroke="#666666" points="986,-407.5 854,-407.5 854,-377.5 986,-377.5 986,-407.5"/>
<text text-anchor="start" x="862" y="-395.5" font-family="Helvetica,sans-Serif" font-size="10.00">Span::TransformSystem</text>
<text text-anchor="middle" x="920" y="-384.5" font-family="Helvetica,sans-Serif" font-size="10.00">::ComputeWorldMatrix</text>
</a>
</g>
</g>
<!-- Node19&#45;&gt;Node21 -->
<g id="edge34_Node000019_Node000021" class="edge">
<title>Node19&#45;&gt;Node21</title>
<g id="a_edge34_Node000019_Node000021"><a xlink:title=" ">
<path fill="none" stroke="#63b8ff" d="M1115.05,-251.13C1073.58,-281.34 982.89,-347.41 941.88,-377.29"/>
<polygon fill="#63b8ff" stroke="#63b8ff" points="1117.32,-253.8 1123.34,-245.08 1113.2,-248.14 1117.32,-253.8"/>
</a>
</g>
</g>
<!-- Node22 -->
<g id="Node000022" class="node">
<title>Node22</title>
<g id="a_Node000022"><a xlink:href="classSpan_1_1World.html#a5d815ca319bd1f2756394cc107818c46" target="_top" xlink:title="エンティティから指定したコンポーネントを削除します。">
<polygon fill="white" stroke="#666666" points="1008.5,-169 831.5,-169 831.5,-150 1008.5,-150 1008.5,-169"/>
<text text-anchor="middle" x="920" y="-157" font-family="Helvetica,sans-Serif" font-size="10.00">Span::World::RemoveComponent</text>
</a>
</g>
</g>
<!-- Node19&#45;&gt;Node22 -->
<g id="edge40_Node000019_Node000022" class="edge">
<title>Node19&#45;&gt;Node22</title>
<g id="a_edge40_Node000019_Node000022"><a xlink:title=" ">
<path fill="none" stroke="#63b8ff" d="M1106.85,-221.76C1081.9,-210.52 1045.1,-194.72 1012,-183.5 995.91,-178.05 977.87,-173.06 962.13,-169.07"/>
<polygon fill="#63b8ff" stroke="#63b8ff" points="1105.57,-225.02 1116.13,-225.97 1108.47,-218.65 1105.57,-225.02"/>
</a>
</g>
</g>
<!-- Node23 -->
<g id="Node000023" class="node">
<title>Node23</title>
<g id="a_Node000023"><a xlink:href="classSpan_1_1World.html#aac890f32963826b3c749dc47b5d21f9a" target="_top" xlink:title="コンポーネントの値を設定 (上書き) します。">
<polygon fill="white" stroke="#666666" points="996,-245 844,-245 844,-226 996,-226 996,-245"/>
<text text-anchor="middle" x="920" y="-233" font-family="Helvetica,sans-Serif" font-size="10.00">Span::World::SetComponent</text>
</a>
</g>
</g>
<!-- Node19&#45;&gt;Node23 -->
<g id="edge41_Node000019_Node000023" class="edge">
<title>Node19&#45;&gt;Node23</title>
<g id="a_edge41_Node000019_Node000023"><a xlink:title=" ">
<path fill="none" stroke="#63b8ff" d="M1043.47,-235.5C1027.63,-235.5 1011.37,-235.5 996.07,-235.5"/>
<polygon fill="#63b8ff" stroke="#63b8ff" points="1043.8,-239 1053.8,-235.5 1043.8,-232 1043.8,-239"/>
</a>
</g>
</g>
<!-- Node20&#45;&gt;Node14 -->
<g id="edge33_Node000020_Node000014" class="edge">
<title>Node20&#45;&gt;Node14</title>
<g id="a_edge33_Node000020_Node000014"><a xlink:title=" ">
<path fill="none" stroke="#63b8ff" d="M832.23,-118.59C738.81,-117.46 587.53,-124.68 468,-173.5 363.07,-216.36 265.24,-316.26 230.42,-354.37"/>
<polygon fill="#63b8ff" stroke="#63b8ff" points="832.44,-122.09 842.49,-118.75 832.55,-115.09 832.44,-122.09"/>
</a>
</g>
</g>
<!-- Node20&#45;&gt;Node17 -->
<g id="edge32_Node000020_Node000017" class="edge">
<title>Node20&#45;&gt;Node17</title>
<g id="a_edge32_Node000020_Node000017"><a xlink:title=" ">
<path fill="none" stroke="#63b8ff" d="M847.73,-134.49C840.99,-136.25 834.32,-138.25 828,-140.5 797.67,-151.31 765.37,-169.56 744.29,-182.49"/>
<polygon fill="#63b8ff" stroke="#63b8ff" points="848.75,-137.84 857.63,-132.07 847.09,-131.04 848.75,-137.84"/>
</a>
</g>
</g>
<!-- Node21&#45;&gt;Node8 -->
<g id="edge36_Node000021_Node000008" class="edge">
<title>Node21&#45;&gt;Node8</title>
<g id="a_edge36_Node000021_Node000008"><a xlink:title=" ">
<path fill="none" stroke="#63b8ff" d="M894.88,-414.43C854.12,-451.48 772.66,-525.54 737.63,-557.38"/>
<polygon fill="#63b8ff" stroke="#63b8ff" points="897.41,-416.85 902.46,-407.54 892.71,-411.67 897.41,-416.85"/>
</a>
</g>
</g>
<!-- Node21&#45;&gt;Node21 -->
<g id="edge35_Node000021_Node000021" class="edge">
<title>Node21&#45;&gt;Node21</title>
<g id="a_edge35_Node000021_Node000021"><a xlink:title=" ">
<path fill="none" stroke="#63b8ff" d="M955.01,-418.1C950.22,-422.47 938.55,-425.5 920,-425.5 888.75,-425.5 877.03,-416.91 884.84,-407.78"/>
<polygon fill="#63b8ff" stroke="#63b8ff" points="958.51,-417.82 955.16,-407.78 951.51,-417.72 958.51,-417.82"/>
</a>
</g>
</g>
<!-- Node25 -->
<g id="Node000025" class="node">
<title>Node25</title>
<g id="a_Node000025"><a xlink:href="classSpan_1_1World.html#a3bda7c850e57241f9cfb3d5c67695aff" target="_top" xlink:title=" ">
<polygon fill="white" stroke="#666666" points="1012,-95 828,-95 828,-76 1012,-76 1012,-95"/>
<text text-anchor="middle" x="920" y="-83" font-family="Helvetica,sans-Serif" font-size="10.00">Span::World::InitializeComponents</text>
</a>
</g>
</g>
<!-- Node24&#45;&gt;Node25 -->
<g id="edge43_Node000024_Node000025" class="edge">
<title>Node24&#45;&gt;Node25</title>
<g id="a_edge43_Node000024_Node000025"><a xlink:title=" ">
<path fill="none" stroke="#63b8ff" d="M1037.86,-95.26C1029.26,-94.54 1020.57,-93.82 1012.03,-93.1"/>
<polygon fill="#63b8ff" stroke="#63b8ff" points="1037.66,-98.76 1047.91,-96.1 1038.24,-91.78 1037.66,-98.76"/>
</a>
</g>
</g>
<!-- Node26 -->
<g id="Node000026" class="node">
<title>Node26</title>
<g id="a_Node000026"><a xlink:href="classSpan_1_1World.html#a5e8a64b9e0f3715d21c43f92591e7d88" target="_top" xlink:title="指定されたコンポーネントを持つ新しいエンティティを作成します。">
<polygon fill="white" stroke="#666666" points="790.5,-95 649.5,-95 649.5,-76 790.5,-76 790.5,-95"/>
<text text-anchor="middle" x="720" y="-83" font-family="Helvetica,sans-Serif" font-size="10.00">Span::World::CreateEntity</text>
</a>
</g>
</g>
<!-- Node25&#45;&gt;Node26 -->
<g id="edge44_Node000025_Node000026" class="edge">
<title>Node25&#45;&gt;Node26</title>
<g id="a_edge44_Node000025_Node000026"><a xlink:title=" ">
<path fill="none" stroke="#63b8ff" d="M817.56,-85.5C808.47,-85.5 799.4,-85.5 790.67,-85.5"/>
<polygon fill="#63b8ff" stroke="#63b8ff" points="817.82,-89 827.82,-85.5 817.82,-82 817.82,-89"/>
</a>
</g>
</g>
<!-- Node27&#45;&gt;Node20 -->
<g id="edge46_Node000027_Node000020" class="edge">
<title>Node27&#45;&gt;Node20</title>
<g id="a_edge46_Node000027_Node000020"><a xlink:title=" ">
<path fill="none" stroke="#63b8ff" d="M1066.26,-145.42C1038.83,-141.09 1007.69,-136.18 981.3,-132.01"/>
<polygon fill="#63b8ff" stroke="#63b8ff" points="1065.76,-148.88 1076.18,-146.98 1066.85,-141.97 1065.76,-148.88"/>
</a>
</g>
</g>
<!-- Node27&#45;&gt;Node22 -->
<g id="edge47_Node000027_Node000022" class="edge">
<title>Node27&#45;&gt;Node22</title>
<g id="a_edge47_Node000027_Node000022"><a xlink:title=" ">
<path fill="none" stroke="#63b8ff" d="M1054.25,-157.64C1039.35,-157.85 1023.77,-158.07 1008.72,-158.28"/>
<polygon fill="#63b8ff" stroke="#63b8ff" points="1054.49,-161.14 1064.44,-157.5 1054.39,-154.14 1054.49,-161.14"/>
</a>
</g>
</g>
<!-- Node28&#45;&gt;Node27 -->
<g id="edge52_Node000028_Node000027" class="edge">
<title>Node28&#45;&gt;Node27</title>
<g id="a_edge52_Node000028_Node000027"><a xlink:title=" ">
<path fill="none" stroke="#63b8ff" d="M1252.58,-155.38C1238.5,-155.52 1224.12,-155.66 1210.52,-155.8"/>
<polygon fill="#63b8ff" stroke="#63b8ff" points="1252.8,-158.88 1262.76,-155.28 1252.73,-151.88 1252.8,-158.88"/>
</a>
</g>
</g>
<!-- Node29 -->
<g id="Node000029" class="node">
<title>Node29</title>
<g id="a_Node000029"><a xlink:href="classSpan_1_1World.html#a1f597fc6f7555036c746fac5e9ba9039" target="_top" xlink:title="エンティティを削除します。">
<polygon fill="white" stroke="#666666" points="1211,-57 1064,-57 1064,-38 1211,-38 1211,-57"/>
<text text-anchor="middle" x="1137.5" y="-45" font-family="Helvetica,sans-Serif" font-size="10.00">Span::World::DestroyEntity</text>
</a>
</g>
</g>
<!-- Node28&#45;&gt;Node29 -->
<g id="edge49_Node000028_Node000029" class="edge">
<title>Node28&#45;&gt;Node29</title>
<g id="a_edge49_Node000028_Node000029"><a xlink:title=" ">
<path fill="none" stroke="#63b8ff" d="M1320.37,-139.48C1297.39,-124.55 1260.52,-101.5 1227,-84.5 1206.36,-74.03 1182.04,-64.02 1164.12,-57.06"/>
<polygon fill="#63b8ff" stroke="#63b8ff" points="1318.46,-142.41 1328.74,-144.96 1322.29,-136.55 1318.46,-142.41"/>
</a>
</g>
</g>
<!-- Node29&#45;&gt;Node16 -->
<g id="edge51_Node000029_Node000016" class="edge">
<title>Node29&#45;&gt;Node16</title>
<g id="a_edge51_Node000029_Node000016"><a xlink:title=" ">
<path fill="none" stroke="#63b8ff" d="M1053.82,-39.12C930.82,-28.53 707.73,-17.13 648,-66.5 593.49,-111.56 633.63,-154.17 612,-221.5 593.02,-280.57 562.3,-347.76 548.34,-377.26"/>
<polygon fill="#63b8ff" stroke="#63b8ff" points="1053.68,-42.62 1063.95,-40.01 1054.29,-35.65 1053.68,-42.62"/>
</a>
</g>
</g>
<!-- Node30 -->
<g id="Node000030" class="node">
<title>Node30</title>
<g id="a_Node000030"><a xlink:href="classSpan_1_1World.html#a75ff3e35b55b9bb7a8fa4314ee0eb47a" target="_top" xlink:title="ワールド内の全てのエンティティを削除し、初期状態に戻します。">
<polygon fill="white" stroke="#666666" points="973,-19 867,-19 867,0 973,0 973,-19"/>
<text text-anchor="middle" x="920" y="-7" font-family="Helvetica,sans-Serif" font-size="10.00">Span::World::Clear</text>
</a>
</g>
</g>
<!-- Node29&#45;&gt;Node30 -->
<g id="edge50_Node000029_Node000030" class="edge">
<title>Node29&#45;&gt;Node30</title>
<g id="a_edge50_Node000029_Node000030"><a xlink:title=" ">
<path fill="none" stroke="#63b8ff" d="M1072.36,-36.19C1040.75,-30.62 1003.1,-23.98 973.26,-18.72"/>
<polygon fill="#63b8ff" stroke="#63b8ff" points="1071.94,-39.67 1082.4,-37.96 1073.16,-32.78 1071.94,-39.67"/>
</a>
</g>
</g>
</g>
</svg>

<g id="navigator" transform="translate(0 0)" fill="#404254">
  <rect fill="#f2f5e9" fill-opacity="0.5" stroke="#606060" stroke-width=".5" x="0" y="0" width="60" height="60"/>
  <use id="zoomplus" xlink:href="#zoomPlus" x="17" y="9" onmousedown="handleZoom(evt,'in')"/>
  <use id="zoomminus" xlink:href="#zoomMin" x="42" y="9" onmousedown="handleZoom(evt,'out')"/>
  <use id="reset" xlink:href="#resetDef" x="30" y="36" onmousedown="handleReset()"/>
   <use id="arrowup" xlink:href="#arrowUp" x="0" y="0" onmousedown="handlePan(0,-1)"/>
  <use id="arrowright" xlink:href="#arrowRight" x="0" y="0" onmousedown="handlePan(1,0)"/>
  <use id="arrowdown" xlink:href="#arrowDown" x="0" y="0" onmousedown="handlePan(0,1)"/>
  <use id="arrowleft" xlink:href="#arrowLeft" x="0" y="0" onmousedown="handlePan(-1,0)"/>
</g>
<svg viewBox="0 0 15 15" width="100%" height="30px" preserveAspectRatio="xMaxYMin meet">
 <g id="arrow_out" transform="scale(0.3 0.3)">
  <a xlink:href="classSpan_1_1Archetype_ace55105d4678c95251e7c66ff00846d1_icgraph_org.svg" target="_base">
   <rect id="button" ry="5" rx="5" y="6" x="6" height="38" width="38"
        fill="#f2f5e9" fill-opacity="0.5" stroke="#606060" stroke-width="1.0"/>
   <path id="arrow"
     d="M 11.500037,31.436501 C 11.940474,20.09759 22.043105,11.32322 32.158766,21.979434 L 37.068811,17.246167 C 37.068811,17.246167 37.088388,32 37.088388,32 L 22.160133,31.978069 C 22.160133,31.978069 26.997745,27.140456 26.997745,27.140456 C 18.528582,18.264221 13.291696,25.230495 11.500037,31.436501 z"
     style="fill:#404040;"/>
  </a>
 </g>
</svg>

<style type='text/css'>
<![CDATA[
[data-mouse-over-selected='false'] { opacity: 0.7; }
[data-mouse-over-selected='true']  { opacity: 1.0; }
]]>
</style>
<script type="application/ecmascript"><![CDATA[
document.addEventListener('DOMContentLoaded', (event) => {
  highlightEdges();
  highlightAdjacentNodes();
});
]]></script>
</svg>
