<?xml version="1.0" encoding="UTF-8" standalone="no"?>
<!DOCTYPE svg PUBLIC "-//W3C//DTD SVG 1.1//EN"
 "http://www.w3.org/Graphics/SVG/1.1/DTD/svg11.dtd">
<!-- Generated by graphviz version 2.43.0 (0)
 -->
<!-- Title: Span::AssetManager::GetTexture Pages: 1 -->
<svg width="879pt" height="124pt"
 viewBox="0.00 0.00 879.00 123.50" xmlns="http://www.w3.org/2000/svg" xmlns:xlink="http://www.w3.org/1999/xlink">
<g id="graph0" class="graph" transform="scale(1 1) rotate(0) translate(4 119.5)">
<title>Span::AssetManager::GetTexture</title>
<!-- Node1 -->
<g id="Node000001" class="node">
<title>Node1</title>
<g id="a_Node000001"><a xlink:title="GUIDでテクスチャを取得 (推奨)">
<polygon fill="#999999" stroke="#666666" points="871,-78 755,-78 755,-48 871,-48 871,-78"/>
<text text-anchor="start" x="763" y="-66" font-family="Helvetica,sans-Serif" font-size="10.00">Span::AssetManager</text>
<text text-anchor="middle" x="813" y="-55" font-family="Helvetica,sans-Serif" font-size="10.00">::GetTexture</text>
</a>
</g>
</g>
<!-- Node2 -->
<g id="Node000002" class="node">
<title>Node2</title>
<g id="a_Node000002"><a xlink:href="classSpan_1_1ImGuiUI.html#a051be17f46f22409017503a9b0562d76" target="_top" xlink:title=" ">
<polygon fill="white" stroke="#666666" points="719,-115.5 546,-115.5 546,-96.5 719,-96.5 719,-115.5"/>
<text text-anchor="middle" x="632.5" y="-103.5" font-family="Helvetica,sans-Serif" font-size="10.00">Span::ImGuiUI::DrawTextureSlot</text>
</a>
</g>
</g>
<!-- Node1&#45;&gt;Node2 -->
<g id="edge1_Node000001_Node000002" class="edge">
<title>Node1&#45;&gt;Node2</title>
<g id="a_edge1_Node000001_Node000002"><a xlink:title=" ">
<path fill="none" stroke="#63b8ff" d="M745.17,-80.54C736.38,-82.76 727.48,-84.96 719,-87 705.69,-90.19 691.17,-93.49 677.94,-96.42"/>
<polygon fill="#63b8ff" stroke="#63b8ff" points="746.2,-83.89 755.02,-78.03 744.47,-77.1 746.2,-83.89"/>
</a>
</g>
</g>
<!-- Node4 -->
<g id="Node000004" class="node">
<title>Node4</title>
<g id="a_Node000004"><a xlink:href="classSpan_1_1AssetManager.html#ac48434b5c664ed46069ac3d95aadfefb" target="_top" xlink:title="エディタ用: ファイルパスに対応するサムネイル (テクスチャID) を取得します。">
<polygon fill="white" stroke="#666666" points="692.5,-78 572.5,-78 572.5,-48 692.5,-48 692.5,-78"/>
<text text-anchor="start" x="580.5" y="-66" font-family="Helvetica,sans-Serif" font-size="10.00">Span::AssetManager</text>
<text text-anchor="middle" x="632.5" y="-55" font-family="Helvetica,sans-Serif" font-size="10.00">::GetEditorThumbnail</text>
</a>
</g>
</g>
<!-- Node1&#45;&gt;Node4 -->
<g id="edge3_Node000001_Node000004" class="edge">
<title>Node1&#45;&gt;Node4</title>
<g id="a_edge3_Node000001_Node000004"><a xlink:title=" ">
<path fill="none" stroke="#63b8ff" d="M744.16,-63C727.21,-63 709.18,-63 692.69,-63"/>
<polygon fill="#63b8ff" stroke="#63b8ff" points="744.54,-66.5 754.54,-63 744.54,-59.5 744.54,-66.5"/>
</a>
</g>
</g>
<!-- Node8 -->
<g id="Node000008" class="node">
<title>Node8</title>
<g id="a_Node000008"><a xlink:href="classSpan_1_1AssetManager.html#a93b56de9af3fadbc0ff27f1e21e44291" target="_top" xlink:title="テクスチャを取得します (キャッシュにあればそれを返し、無ければロードします)。">
<polygon fill="white" stroke="#666666" points="690.5,-30 574.5,-30 574.5,0 690.5,0 690.5,-30"/>
<text text-anchor="start" x="582.5" y="-18" font-family="Helvetica,sans-Serif" font-size="10.00">Span::AssetManager</text>
<text text-anchor="middle" x="632.5" y="-7" font-family="Helvetica,sans-Serif" font-size="10.00">::GetTexture</text>
</a>
</g>
</g>
<!-- Node1&#45;&gt;Node8 -->
<g id="edge7_Node000001_Node000008" class="edge">
<title>Node1&#45;&gt;Node8</title>
<g id="a_edge7_Node000001_Node000008"><a xlink:title=" ">
<path fill="none" stroke="#63b8ff" d="M746.11,-45.28C727.44,-40.26 707.3,-34.85 689.29,-30"/>
<polygon fill="#63b8ff" stroke="#63b8ff" points="745.45,-48.73 756.01,-47.94 747.26,-41.97 745.45,-48.73"/>
</a>
</g>
</g>
<!-- Node3 -->
<g id="Node000003" class="node">
<title>Node3</title>
<g id="a_Node000003"><a xlink:href="namespaceSpan_1_1Internal.html#ae18b71c51d88d168549fe9542ed952bb" target="_top" xlink:title="型に応じた描画ヘルパー関数">
<polygon fill="white" stroke="#666666" points="506.5,-115.5 367.5,-115.5 367.5,-96.5 506.5,-96.5 506.5,-115.5"/>
<text text-anchor="middle" x="437" y="-103.5" font-family="Helvetica,sans-Serif" font-size="10.00">Span::Internal::DrawField</text>
</a>
</g>
</g>
<!-- Node2&#45;&gt;Node3 -->
<g id="edge2_Node000002_Node000003" class="edge">
<title>Node2&#45;&gt;Node3</title>
<g id="a_edge2_Node000002_Node000003"><a xlink:title=" ">
<path fill="none" stroke="#63b8ff" d="M535.58,-106C525.77,-106 515.95,-106 506.52,-106"/>
<polygon fill="#63b8ff" stroke="#63b8ff" points="535.78,-109.5 545.78,-106 535.78,-102.5 535.78,-109.5"/>
</a>
</g>
</g>
<!-- Node5 -->
<g id="Node000005" class="node">
<title>Node5</title>
<g id="a_Node000005"><a xlink:href="classSpan_1_1ProjectBrowserPanel.html#a61f13161ddf1dcca1a2a1a5a8a865ccc" target="_top" xlink:title="個別のアセットアイテムを描画します。">
<polygon fill="white" stroke="#666666" points="510,-78 364,-78 364,-48 510,-48 510,-78"/>
<text text-anchor="start" x="372" y="-66" font-family="Helvetica,sans-Serif" font-size="10.00">Span::ProjectBrowserPanel</text>
<text text-anchor="middle" x="437" y="-55" font-family="Helvetica,sans-Serif" font-size="10.00">::DrawEntryItem</text>
</a>
</g>
</g>
<!-- Node4&#45;&gt;Node5 -->
<g id="edge4_Node000004_Node000005" class="edge">
<title>Node4&#45;&gt;Node5</title>
<g id="a_edge4_Node000004_Node000005"><a xlink:title=" ">
<path fill="none" stroke="#63b8ff" d="M562.05,-63C545.16,-63 527.06,-63 510.05,-63"/>
<polygon fill="#63b8ff" stroke="#63b8ff" points="562.39,-66.5 572.39,-63 562.39,-59.5 562.39,-66.5"/>
</a>
</g>
</g>
<!-- Node6 -->
<g id="Node000006" class="node">
<title>Node6</title>
<g id="a_Node000006"><a xlink:href="classSpan_1_1ProjectBrowserPanel.html#a3877e936c3c6ee4b522ea63dc65dfd3b" target="_top" xlink:title="右側のファイル/アセット一覧エリアを描画します。">
<polygon fill="white" stroke="#666666" points="328,-78 182,-78 182,-48 328,-48 328,-78"/>
<text text-anchor="start" x="190" y="-66" font-family="Helvetica,sans-Serif" font-size="10.00">Span::ProjectBrowserPanel</text>
<text text-anchor="middle" x="255" y="-55" font-family="Helvetica,sans-Serif" font-size="10.00">::DrawContentArea</text>
</a>
</g>
</g>
<!-- Node5&#45;&gt;Node6 -->
<g id="edge5_Node000005_Node000006" class="edge">
<title>Node5&#45;&gt;Node6</title>
<g id="a_edge5_Node000005_Node000006"><a xlink:title=" ">
<path fill="none" stroke="#63b8ff" d="M353.56,-63C345.09,-63 336.54,-63 328.19,-63"/>
<polygon fill="#63b8ff" stroke="#63b8ff" points="353.82,-66.5 363.82,-63 353.82,-59.5 353.82,-66.5"/>
</a>
</g>
</g>
<!-- Node7 -->
<g id="Node000007" class="node">
<title>Node7</title>
<g id="a_Node000007"><a xlink:href="classSpan_1_1ProjectBrowserPanel.html#ad259c8cf9a9c066350b699f9cd14438e" target="_top" xlink:title="GUI描画の更新処理">
<polygon fill="white" stroke="#666666" points="146,-78 0,-78 0,-48 146,-48 146,-78"/>
<text text-anchor="start" x="8" y="-66" font-family="Helvetica,sans-Serif" font-size="10.00">Span::ProjectBrowserPanel</text>
<text text-anchor="middle" x="73" y="-55" font-family="Helvetica,sans-Serif" font-size="10.00">::OnImGuiRender</text>
</a>
</g>
</g>
<!-- Node6&#45;&gt;Node7 -->
<g id="edge6_Node000006_Node000007" class="edge">
<title>Node6&#45;&gt;Node7</title>
<g id="a_edge6_Node000006_Node000007"><a xlink:title=" ">
<path fill="none" stroke="#63b8ff" d="M171.56,-63C163.09,-63 154.54,-63 146.19,-63"/>
<polygon fill="#63b8ff" stroke="#63b8ff" points="171.82,-66.5 181.82,-63 171.82,-59.5 171.82,-66.5"/>
</a>
</g>
</g>
</g>
</svg>
