<?xml version="1.0" encoding="UTF-8" standalone="no"?>
<!DOCTYPE svg PUBLIC "-//W3C//DTD SVG 1.1//EN"
 "http://www.w3.org/Graphics/SVG/1.1/DTD/svg11.dtd">
<!-- Generated by graphviz version 2.43.0 (0)
 -->
<!-- Title: Span::Archetype::GetTypes Pages: 1 -->
<svg width="1061pt" height="123pt"
 viewBox="0.00 0.00 1061.00 123.35" xmlns="http://www.w3.org/2000/svg" xmlns:xlink="http://www.w3.org/1999/xlink">
<g id="graph0" class="graph" transform="scale(1 1) rotate(0) translate(4 119.35)">
<title>Span::Archetype::GetTypes</title>
<!-- Node1 -->
<g id="Node000001" class="node">
<title>Node1</title>
<g id="a_Node000001"><a xlink:title="構成コンポーネントの型リスト">
<polygon fill="#999999" stroke="#666666" points="1053,-81.5 906,-81.5 906,-62.5 1053,-62.5 1053,-81.5"/>
<text text-anchor="middle" x="979.5" y="-69.5" font-family="Helvetica,sans-Serif" font-size="10.00">Span::Archetype::GetTypes</text>
</a>
</g>
</g>
<!-- Node2 -->
<g id="Node000002" class="node">
<title>Node2</title>
<g id="a_Node000002"><a xlink:href="classSpan_1_1World.html#a555e11829d3833ce35f444779c4c2369" target="_top" xlink:title="既存のEntityに新しいコンポーネントを追加します。">
<polygon fill="white" stroke="#666666" points="478,-104.5 323,-104.5 323,-85.5 478,-85.5 478,-104.5"/>
<text text-anchor="middle" x="400.5" y="-92.5" font-family="Helvetica,sans-Serif" font-size="10.00">Span::World::AddComponent</text>
</a>
</g>
</g>
<!-- Node1&#45;&gt;Node2 -->
<g id="edge1_Node000001_Node000002" class="edge">
<title>Node1&#45;&gt;Node2</title>
<g id="a_edge1_Node000001_Node000002"><a xlink:title=" ">
<path fill="none" stroke="#63b8ff" d="M930.05,-83.71C911.38,-87.85 889.79,-92.17 870,-95 718.07,-116.76 678.2,-119.27 525,-110 506.35,-108.87 486.21,-106.79 467.7,-104.54"/>
<polygon fill="#63b8ff" stroke="#63b8ff" points="930.82,-87.13 939.81,-81.51 929.28,-80.3 930.82,-87.13"/>
</a>
</g>
</g>
<!-- Node6 -->
<g id="Node000006" class="node">
<title>Node6</title>
<g id="a_Node000006"><a xlink:href="classSpan_1_1World.html#a8c01f89c473a5da0aca8d152f248fc53" target="_top" xlink:title=" ">
<polygon fill="white" stroke="#666666" points="671.5,-100.5 525.5,-100.5 525.5,-81.5 671.5,-81.5 671.5,-100.5"/>
<text text-anchor="middle" x="598.5" y="-88.5" font-family="Helvetica,sans-Serif" font-size="10.00">Span::World::MigrateEntity</text>
</a>
</g>
</g>
<!-- Node1&#45;&gt;Node6 -->
<g id="edge6_Node000001_Node000006" class="edge">
<title>Node1&#45;&gt;Node6</title>
<g id="a_edge6_Node000001_Node000006"><a xlink:title=" ">
<path fill="none" stroke="#63b8ff" d="M895.78,-76.15C828.83,-79.5 735.48,-84.18 671.56,-87.39"/>
<polygon fill="#63b8ff" stroke="#63b8ff" points="896.06,-79.64 905.87,-75.64 895.71,-72.65 896.06,-79.64"/>
</a>
</g>
</g>
<!-- Node7 -->
<g id="Node000007" class="node">
<title>Node7</title>
<g id="a_Node000007"><a xlink:href="classSpan_1_1World.html#a5d815ca319bd1f2756394cc107818c46" target="_top" xlink:title="エンティティから指定したコンポーネントを削除します。">
<polygon fill="white" stroke="#666666" points="489,-67.5 312,-67.5 312,-48.5 489,-48.5 489,-67.5"/>
<text text-anchor="middle" x="400.5" y="-55.5" font-family="Helvetica,sans-Serif" font-size="10.00">Span::World::RemoveComponent</text>
</a>
</g>
</g>
<!-- Node1&#45;&gt;Node7 -->
<g id="edge14_Node000001_Node000007" class="edge">
<title>Node1&#45;&gt;Node7</title>
<g id="a_edge14_Node000001_Node000007"><a xlink:title=" ">
<path fill="none" stroke="#63b8ff" d="M895.51,-69.99C787.47,-67.36 599.44,-62.8 489.14,-60.13"/>
<polygon fill="#63b8ff" stroke="#63b8ff" points="895.63,-73.49 905.71,-70.23 895.8,-66.49 895.63,-73.49"/>
</a>
</g>
</g>
<!-- Node8 -->
<g id="Node000008" class="node">
<title>Node8</title>
<g id="a_Node000008"><a xlink:href="structSpan_1_1Chunk.html#a6bd9e470ec1f88ff4d5e7481a6608ccf" target="_top" xlink:title="チャンク内のエンティティデータを移動 (コピー) します。">
<polygon fill="white" stroke="#666666" points="870,-24.5 708,-24.5 708,-5.5 870,-5.5 870,-24.5"/>
<text text-anchor="middle" x="789" y="-12.5" font-family="Helvetica,sans-Serif" font-size="10.00">Span::Chunk::MoveEntityData</text>
</a>
</g>
</g>
<!-- Node1&#45;&gt;Node8 -->
<g id="edge9_Node000001_Node000008" class="edge">
<title>Node1&#45;&gt;Node8</title>
<g id="a_edge9_Node000001_Node000008"><a xlink:title=" ">
<path fill="none" stroke="#63b8ff" d="M937.6,-59.52C917.28,-53.33 892.35,-45.75 870,-39 854.18,-34.22 836.58,-28.94 821.93,-24.55"/>
<polygon fill="#63b8ff" stroke="#63b8ff" points="936.59,-62.87 947.17,-62.44 938.63,-56.17 936.59,-62.87"/>
</a>
</g>
</g>
<!-- Node3 -->
<g id="Node000003" class="node">
<title>Node3</title>
<g id="a_Node000003"><a xlink:href="classSpan_1_1HierarchyPanel.html#a2c08f8c6e0cafaed96f7846d76ff2b09" target="_top" xlink:title=" ">
<polygon fill="white" stroke="#666666" points="276,-37 156,-37 156,-7 276,-7 276,-37"/>
<text text-anchor="start" x="164" y="-25" font-family="Helvetica,sans-Serif" font-size="10.00">Span::HierarchyPanel</text>
<text text-anchor="middle" x="216" y="-14" font-family="Helvetica,sans-Serif" font-size="10.00">::DrawEntityNode</text>
</a>
</g>
</g>
<!-- Node2&#45;&gt;Node3 -->
<g id="edge2_Node000002_Node000003" class="edge">
<title>Node2&#45;&gt;Node3</title>
<g id="a_edge2_Node000002_Node000003"><a xlink:title=" ">
<path fill="none" stroke="#63b8ff" d="M330.14,-82.9C323.93,-81.17 317.8,-79.21 312,-77 285.28,-66.83 257.26,-49.69 238.63,-37.25"/>
<polygon fill="#63b8ff" stroke="#63b8ff" points="329.37,-86.32 339.93,-85.44 331.13,-79.54 329.37,-86.32"/>
</a>
</g>
</g>
<!-- Node5 -->
<g id="Node000005" class="node">
<title>Node5</title>
<g id="a_Node000005"><a xlink:href="classSpan_1_1InspectorPanel.html#ae32fda6018a2e54f880e6708ac5b89fe" target="_top" xlink:title="毎フレーム呼ばれる描画関数。">
<polygon fill="white" stroke="#666666" points="275,-110 157,-110 157,-80 275,-80 275,-110"/>
<text text-anchor="start" x="165" y="-98" font-family="Helvetica,sans-Serif" font-size="10.00">Span::InspectorPanel</text>
<text text-anchor="middle" x="216" y="-87" font-family="Helvetica,sans-Serif" font-size="10.00">::OnImGuiRender</text>
</a>
</g>
</g>
<!-- Node2&#45;&gt;Node5 -->
<g id="edge5_Node000002_Node000005" class="edge">
<title>Node2&#45;&gt;Node5</title>
<g id="a_edge5_Node000002_Node000005"><a xlink:title=" ">
<path fill="none" stroke="#63b8ff" d="M312.71,-95C299.95,-95 287.08,-95 275.09,-95"/>
<polygon fill="#63b8ff" stroke="#63b8ff" points="312.9,-98.5 322.9,-95 312.9,-91.5 312.9,-98.5"/>
</a>
</g>
</g>
<!-- Node3&#45;&gt;Node3 -->
<g id="edge3_Node000003_Node000003" class="edge">
<title>Node3&#45;&gt;Node3</title>
<g id="a_edge3_Node000003_Node000003"><a xlink:title=" ">
<path fill="none" stroke="#63b8ff" d="M243.31,-47.6C239.57,-51.97 230.47,-55 216,-55 191.62,-55 182.48,-46.41 188.58,-37.28"/>
<polygon fill="#63b8ff" stroke="#63b8ff" points="246.81,-47.31 243.42,-37.28 239.81,-47.24 246.81,-47.31"/>
</a>
</g>
</g>
<!-- Node4 -->
<g id="Node000004" class="node">
<title>Node4</title>
<g id="a_Node000004"><a xlink:href="classSpan_1_1HierarchyPanel.html#a6481eb57cd9f45cb3a094a26f35bbaa0" target="_top" xlink:title="毎フレーム呼ばれる描画関数。">
<polygon fill="white" stroke="#666666" points="120,-37 0,-37 0,-7 120,-7 120,-37"/>
<text text-anchor="start" x="8" y="-25" font-family="Helvetica,sans-Serif" font-size="10.00">Span::HierarchyPanel</text>
<text text-anchor="middle" x="60" y="-14" font-family="Helvetica,sans-Serif" font-size="10.00">::OnImGuiRender</text>
</a>
</g>
</g>
<!-- Node3&#45;&gt;Node4 -->
<g id="edge4_Node000003_Node000004" class="edge">
<title>Node3&#45;&gt;Node4</title>
<g id="a_edge4_Node000003_Node000004"><a xlink:title=" ">
<path fill="none" stroke="#63b8ff" d="M145.63,-22C137.14,-22 128.52,-22 120.2,-22"/>
<polygon fill="#63b8ff" stroke="#63b8ff" points="145.9,-25.5 155.9,-22 145.9,-18.5 145.9,-25.5"/>
</a>
</g>
</g>
<!-- Node6&#45;&gt;Node2 -->
<g id="edge7_Node000006_Node000002" class="edge">
<title>Node6&#45;&gt;Node2</title>
<g id="a_edge7_Node000006_Node000002"><a xlink:title=" ">
<path fill="none" stroke="#63b8ff" d="M515.14,-92.68C502.86,-92.93 490.25,-93.19 478.1,-93.44"/>
<polygon fill="#63b8ff" stroke="#63b8ff" points="515.43,-96.18 525.35,-92.47 515.28,-89.18 515.43,-96.18"/>
</a>
</g>
</g>
<!-- Node6&#45;&gt;Node7 -->
<g id="edge8_Node000006_Node000007" class="edge">
<title>Node6&#45;&gt;Node7</title>
<g id="a_edge8_Node000006_Node000007"><a xlink:title=" ">
<path fill="none" stroke="#63b8ff" d="M531.11,-79.82C507.43,-75.84 481,-71.38 458.21,-67.55"/>
<polygon fill="#63b8ff" stroke="#63b8ff" points="530.63,-83.29 541.07,-81.5 531.79,-76.39 530.63,-83.29"/>
</a>
</g>
</g>
<!-- Node8&#45;&gt;Node6 -->
<g id="edge13_Node000008_Node000006" class="edge">
<title>Node8&#45;&gt;Node6</title>
<g id="a_edge13_Node000008_Node000006"><a xlink:title=" ">
<path fill="none" stroke="#63b8ff" d="M754.59,-28.47C716.84,-43.69 656.36,-68.08 623.18,-81.45"/>
<polygon fill="#63b8ff" stroke="#63b8ff" points="756.16,-31.61 764.13,-24.63 753.54,-25.12 756.16,-31.61"/>
</a>
</g>
</g>
<!-- Node9 -->
<g id="Node000009" class="node">
<title>Node9</title>
<g id="a_Node000009"><a xlink:href="classSpan_1_1World.html#a1f597fc6f7555036c746fac5e9ba9039" target="_top" xlink:title="エンティティを削除します。">
<polygon fill="white" stroke="#666666" points="672,-24.5 525,-24.5 525,-5.5 672,-5.5 672,-24.5"/>
<text text-anchor="middle" x="598.5" y="-12.5" font-family="Helvetica,sans-Serif" font-size="10.00">Span::World::DestroyEntity</text>
</a>
</g>
</g>
<!-- Node8&#45;&gt;Node9 -->
<g id="edge10_Node000008_Node000009" class="edge">
<title>Node8&#45;&gt;Node9</title>
<g id="a_edge10_Node000008_Node000009"><a xlink:title=" ">
<path fill="none" stroke="#63b8ff" d="M697.75,-15C689.18,-15 680.56,-15 672.18,-15"/>
<polygon fill="#63b8ff" stroke="#63b8ff" points="697.79,-18.5 707.79,-15 697.79,-11.5 697.79,-18.5"/>
</a>
</g>
</g>
<!-- Node10 -->
<g id="Node000010" class="node">
<title>Node10</title>
<g id="a_Node000010"><a xlink:href="classSpan_1_1HierarchyPanel.html#a331d846c46df5f3346cfc7bb8c7a8e76" target="_top" xlink:title=" ">
<polygon fill="white" stroke="#666666" points="460.5,-30 340.5,-30 340.5,0 460.5,0 460.5,-30"/>
<text text-anchor="start" x="348.5" y="-18" font-family="Helvetica,sans-Serif" font-size="10.00">Span::HierarchyPanel</text>
<text text-anchor="middle" x="400.5" y="-7" font-family="Helvetica,sans-Serif" font-size="10.00">::DrawContextMenu</text>
</a>
</g>
</g>
<!-- Node9&#45;&gt;Node10 -->
<g id="edge11_Node000009_Node000010" class="edge">
<title>Node9&#45;&gt;Node10</title>
<g id="a_edge11_Node000009_Node000010"><a xlink:title=" ">
<path fill="none" stroke="#63b8ff" d="M514.78,-15C496.59,-15 477.68,-15 460.65,-15"/>
<polygon fill="#63b8ff" stroke="#63b8ff" points="514.8,-18.5 524.8,-15 514.8,-11.5 514.8,-18.5"/>
</a>
</g>
</g>
<!-- Node10&#45;&gt;Node3 -->
<g id="edge12_Node000010_Node000003" class="edge">
<title>Node10&#45;&gt;Node3</title>
<g id="a_edge12_Node000010_Node000003"><a xlink:title=" ">
<path fill="none" stroke="#63b8ff" d="M330.17,-17.66C312.35,-18.34 293.35,-19.07 276.11,-19.73"/>
<polygon fill="#63b8ff" stroke="#63b8ff" points="330.64,-21.14 340.5,-17.26 330.37,-14.15 330.64,-21.14"/>
</a>
</g>
</g>
</g>
</svg>
