<?xml version="1.0" encoding="UTF-8" standalone="no"?>
<!DOCTYPE svg PUBLIC "-//W3C//DTD SVG 1.1//EN"
 "http://www.w3.org/Graphics/SVG/1.1/DTD/svg11.dtd">
<!-- Generated by graphviz version 2.43.0 (0)
 -->
<!-- Title: Span::InspectorPanel::DrawMaterialEditor Pages: 1 -->
<!--zoomable 477 -->

<svg id="main" version="1.1" xmlns="http://www.w3.org/2000/svg" xmlns:xlink="http://www.w3.org/1999/xlink" xml:space="preserve" onload="init(evt)">

<style type="text/css"><![CDATA[
.node, .edge {opacity: 0.7;}
.node.selected, .edge.selected {opacity: 1;}
.edge:hover path { stroke: red; }
.edge:hover polygon { stroke: red; fill: red; }
]]></style>

<defs>
  <circle id="rim" cx="0" cy="0" r="7"/>
  <circle id="rim2" cx="0" cy="0" r="3.5"/>
  <g id="zoomPlus">
    <use xlink:href="#rim" fill="#404040"><set attributeName="fill" to="#808080" begin="zoomplus.mouseover" end="zoomplus.mouseout"/></use>
    <path d="M-4,0h8M0,-4v8" fill="none" stroke="white" stroke-width="1.5" pointer-events="none"/>
  </g>
  <g id="zoomMin">
    <use xlink:href="#rim" fill="#404040"><set attributeName="fill" to="#808080" begin="zoomminus.mouseover" end="zoomminus.mouseout"/></use>
    <path d="M-4,0h8" fill="none" stroke="white" stroke-width="1.5" pointer-events="none"/>
  </g>
  <g id="arrowUp" transform="translate(30 24)">
    <use xlink:href="#rim"/>
    <path pointer-events="none" fill="none" stroke="white" stroke-width="1.5" d="M0,-3.0v7 M-2.5,-0.5L0,-3.0L2.5,-0.5"/>
  </g>
  <g id="arrowRight" transform="rotate(90) translate(36 -43)">
    <use xlink:href="#rim"/>
    <path pointer-events="none" fill="none" stroke="white" stroke-width="1.5" d="M0,-3.0v7 M-2.5,-0.5L0,-3.0L2.5,-0.5"/>
  </g>
  <g id="arrowDown" transform="rotate(180) translate(-30 -48)">
    <use xlink:href="#rim"/>
    <path pointer-events="none" fill="none" stroke="white" stroke-width="1.5" d="M0,-3.0v7 M-2.5,-0.5L0,-3.0L2.5,-0.5"/>
  </g>
  <g id="arrowLeft" transform="rotate(270) translate(-36 17)">
    <use xlink:href="#rim"/>
    <path pointer-events="none" fill="none" stroke="white" stroke-width="1.5" d="M0,-3.0v7 M-2.5,-0.5L0,-3.0L2.5,-0.5"/>
  </g>
  <g id="resetDef">
    <use xlink:href="#rim2" fill="#404040"><set attributeName="fill" to="#808080" begin="reset.mouseover" end="reset.mouseout"/></use>
  </g>
</defs>
<script type="application/ecmascript">
var viewWidth = 1417;
var viewHeight = 477;
var sectionId = 'dynsection-9';
</script>
<script type="application/ecmascript" xlink:href="svg.min.js"/>
<svg id="graph" class="graph">
<g id="viewport">
<title>Span::InspectorPanel::DrawMaterialEditor</title>
<!-- Node1 -->
<g id="Node000001" class="node">
<title>Node1</title>
<g id="a_Node000001"><a xlink:title="マテリアルアセット用のプロパティエディタを描画します。">
<polygon fill="#999999" stroke="#666666" points="118,-240 0,-240 0,-210 118,-210 118,-240"/>
<text text-anchor="start" x="8" y="-228" font-family="Helvetica,sans-Serif" font-size="10.00">Span::InspectorPanel</text>
<text text-anchor="middle" x="59" y="-217" font-family="Helvetica,sans-Serif" font-size="10.00">::DrawMaterialEditor</text>
</a>
</g>
</g>
<!-- Node2 -->
<g id="Node000002" class="node">
<title>Node2</title>
<g id="a_Node000002"><a xlink:href="classSpan_1_1SelectionManager.html#acccb37ec1649ef94d6ef3b58b4f966d9" target="_top" xlink:title="全ての選択 (Entity及びAsset) を解除します。">
<polygon fill="white" stroke="#666666" points="312,-404 178,-404 178,-374 312,-374 312,-404"/>
<text text-anchor="start" x="186" y="-392" font-family="Helvetica,sans-Serif" font-size="10.00">Span::SelectionManager</text>
<text text-anchor="middle" x="245" y="-381" font-family="Helvetica,sans-Serif" font-size="10.00">::Clear</text>
</a>
</g>
</g>
<!-- Node1&#45;&gt;Node2 -->
<g id="edge1_Node000001_Node000002" class="edge">
<title>Node1&#45;&gt;Node2</title>
<g id="a_edge1_Node000001_Node000002"><a xlink:title=" ">
<path fill="none" stroke="#63b8ff" d="M66.62,-240.41C79.41,-268.37 110.15,-327.55 154,-360 159.02,-363.72 164.54,-366.97 170.3,-369.81"/>
<polygon fill="#63b8ff" stroke="#63b8ff" points="168.95,-373.04 179.5,-373.96 171.82,-366.66 168.95,-373.04"/>
</a>
</g>
</g>
<!-- Node3 -->
<g id="Node000003" class="node">
<title>Node3</title>
<g id="a_Node000003"><a xlink:href="classSpan_1_1Application.html#ae2e9eaebe90ffdf55cfef9d74ccbce3e" target="_top" xlink:title="シングルトンインスタンスの取得">
<polygon fill="white" stroke="#666666" points="307.5,-311.5 182.5,-311.5 182.5,-292.5 307.5,-292.5 307.5,-311.5"/>
<text text-anchor="middle" x="245" y="-299.5" font-family="Helvetica,sans-Serif" font-size="10.00">Span::Application::Get</text>
</a>
</g>
</g>
<!-- Node1&#45;&gt;Node3 -->
<g id="edge2_Node000001_Node000003" class="edge">
<title>Node1&#45;&gt;Node3</title>
<g id="a_edge2_Node000001_Node000003"><a xlink:title=" ">
<path fill="none" stroke="#63b8ff" d="M81.04,-240.12C99.47,-252.72 127.4,-270.27 154,-281 162.52,-284.44 171.74,-287.39 180.91,-289.9"/>
<polygon fill="#63b8ff" stroke="#63b8ff" points="180.25,-293.34 190.81,-292.45 182,-286.56 180.25,-293.34"/>
</a>
</g>
</g>
<!-- Node7 -->
<g id="Node000007" class="node">
<title>Node7</title>
<g id="a_Node000007"><a xlink:href="classSpan_1_1AssetManager.html#a8b80e59ea529e23c8c8f5280d136fbf0" target="_top" xlink:title="シングルトンインスタンスを取得します。">
<polygon fill="white" stroke="#666666" points="689,-463.5 549,-463.5 549,-444.5 689,-444.5 689,-463.5"/>
<text text-anchor="middle" x="619" y="-451.5" font-family="Helvetica,sans-Serif" font-size="10.00">Span::AssetManager::Get</text>
</a>
</g>
</g>
<!-- Node1&#45;&gt;Node7 -->
<g id="edge25_Node000001_Node000007" class="edge">
<title>Node1&#45;&gt;Node7</title>
<g id="a_edge25_Node000001_Node000007"><a xlink:title=" ">
<path fill="none" stroke="#63b8ff" d="M70.54,-240.23C86.2,-261.66 117.69,-300.38 154,-321 226.36,-362.1 256.13,-341.64 336,-365 428.95,-392.19 448.99,-409.03 542,-436 549.24,-438.1 556.93,-440.14 564.52,-442.04"/>
<polygon fill="#63b8ff" stroke="#63b8ff" points="563.85,-445.48 574.4,-444.46 565.52,-438.68 563.85,-445.48"/>
</a>
</g>
</g>
<!-- Node24 -->
<g id="Node000024" class="node">
<title>Node24</title>
<g id="a_Node000024"><a xlink:href="classSpan_1_1Renderer.html#a7d4af82aad655792beaefde3a43a7ef8" target="_top" xlink:title=" ">
<polygon fill="white" stroke="#666666" points="336,-271.5 154,-271.5 154,-252.5 336,-252.5 336,-271.5"/>
<text text-anchor="middle" x="245" y="-259.5" font-family="Helvetica,sans-Serif" font-size="10.00">Span::Renderer::GetCommandList</text>
</a>
</g>
</g>
<!-- Node1&#45;&gt;Node24 -->
<g id="edge26_Node000001_Node000024" class="edge">
<title>Node1&#45;&gt;Node24</title>
<g id="a_edge26_Node000001_Node000024"><a xlink:title=" ">
<path fill="none" stroke="#63b8ff" d="M118.16,-236.78C130.02,-239.17 142.41,-241.67 154,-244 164.42,-246.09 175.52,-248.32 186.23,-250.46"/>
<polygon fill="#63b8ff" stroke="#63b8ff" points="185.86,-253.96 196.35,-252.49 187.24,-247.1 185.86,-253.96"/>
</a>
</g>
</g>
<!-- Node25 -->
<g id="Node000025" class="node">
<title>Node25</title>
<g id="a_Node000025"><a xlink:href="classSpan_1_1Renderer.html#a8f2e7f1cdf49225bcce44409d176b8b9" target="_top" xlink:title=" ">
<polygon fill="white" stroke="#666666" points="319,-234.5 171,-234.5 171,-215.5 319,-215.5 319,-234.5"/>
<text text-anchor="middle" x="245" y="-222.5" font-family="Helvetica,sans-Serif" font-size="10.00">Span::Renderer::GetDevice</text>
</a>
</g>
</g>
<!-- Node1&#45;&gt;Node25 -->
<g id="edge27_Node000001_Node000025" class="edge">
<title>Node1&#45;&gt;Node25</title>
<g id="a_edge27_Node000001_Node000025"><a xlink:title=" ">
<path fill="none" stroke="#63b8ff" d="M118.22,-225C131.69,-225 146.28,-225 160.6,-225"/>
<polygon fill="#63b8ff" stroke="#63b8ff" points="160.95,-228.5 170.95,-225 160.95,-221.5 160.95,-228.5"/>
</a>
</g>
</g>
<!-- Node26 -->
<g id="Node000026" class="node">
<title>Node26</title>
<g id="a_Node000026"><a xlink:href="classSpan_1_1AssetManager.html#afea5c55a143ce55fd19b8fedc4e578f5" target="_top" xlink:title="GUIDでマテリアルを取得 (推奨)">
<polygon fill="white" stroke="#666666" points="303,-159 187,-159 187,-129 303,-129 303,-159"/>
<text text-anchor="start" x="195" y="-147" font-family="Helvetica,sans-Serif" font-size="10.00">Span::AssetManager</text>
<text text-anchor="middle" x="245" y="-136" font-family="Helvetica,sans-Serif" font-size="10.00">::GetMaterial</text>
</a>
</g>
</g>
<!-- Node1&#45;&gt;Node26 -->
<g id="edge28_Node000001_Node000026" class="edge">
<title>Node1&#45;&gt;Node26</title>
<g id="a_edge28_Node000001_Node000026"><a xlink:title=" ">
<path fill="none" stroke="#63b8ff" d="M84.08,-209.98C102.69,-198.79 129.35,-183.67 154,-173 162.83,-169.18 172.34,-165.58 181.75,-162.32"/>
<polygon fill="#63b8ff" stroke="#63b8ff" points="183.13,-165.54 191.49,-159.03 180.9,-158.91 183.13,-165.54"/>
</a>
</g>
</g>
<!-- Node29 -->
<g id="Node000029" class="node">
<title>Node29</title>
<g id="a_Node000029"><a xlink:href="classSpan_1_1AssetManager.html#a8ad360aa2a6d909bfafc96484d426a0f" target="_top" xlink:title="GUIDでテクスチャを取得 (推奨)">
<polygon fill="white" stroke="#666666" points="497,-202 381,-202 381,-172 497,-172 497,-202"/>
<text text-anchor="start" x="389" y="-190" font-family="Helvetica,sans-Serif" font-size="10.00">Span::AssetManager</text>
<text text-anchor="middle" x="439" y="-179" font-family="Helvetica,sans-Serif" font-size="10.00">::GetTexture</text>
</a>
</g>
</g>
<!-- Node1&#45;&gt;Node29 -->
<g id="edge36_Node000001_Node000029" class="edge">
<title>Node1&#45;&gt;Node29</title>
<g id="a_edge36_Node000001_Node000029"><a xlink:title=" ">
<path fill="none" stroke="#63b8ff" d="M118.24,-212.73C130.04,-210.56 142.38,-208.52 154,-207 227.86,-197.36 313.18,-192.14 370.87,-189.48"/>
<polygon fill="#63b8ff" stroke="#63b8ff" points="371.12,-192.97 380.95,-189.02 370.81,-185.98 371.12,-192.97"/>
</a>
</g>
</g>
<!-- Node30 -->
<g id="Node000030" class="node">
<title>Node30</title>
<g id="a_Node000030"><a xlink:href="classSpan_1_1Application.html#a405d83887371210b9a67e940727689da" target="_top" xlink:title=" ">
<polygon fill="white" stroke="#666666" points="298.5,-111 191.5,-111 191.5,-81 298.5,-81 298.5,-111"/>
<text text-anchor="start" x="199.5" y="-99" font-family="Helvetica,sans-Serif" font-size="10.00">Span::Application::</text>
<text text-anchor="middle" x="245" y="-88" font-family="Helvetica,sans-Serif" font-size="10.00">GetRenderer</text>
</a>
</g>
</g>
<!-- Node1&#45;&gt;Node30 -->
<g id="edge35_Node000001_Node000030" class="edge">
<title>Node1&#45;&gt;Node30</title>
<g id="a_edge35_Node000001_Node000030"><a xlink:title=" ">
<path fill="none" stroke="#63b8ff" d="M69.26,-209.97C84.2,-187.02 115.84,-143.43 154,-120 162.48,-114.8 172.07,-110.71 181.76,-107.5"/>
<polygon fill="#63b8ff" stroke="#63b8ff" points="182.89,-110.82 191.45,-104.57 180.86,-104.12 182.89,-110.82"/>
</a>
</g>
</g>
<!-- Node31 -->
<g id="Node000031" class="node">
<title>Node31</title>
<g id="a_Node000031"><a xlink:href="classSpan_1_1SelectionManager.html#ac56e7157c03c2c1f488a3bd5d72788c0" target="_top" xlink:title="選択リストをクリアし、指定したAssetのみを選択状態にします (Click担当)。">
<polygon fill="white" stroke="#666666" points="312,-47 178,-47 178,-17 312,-17 312,-47"/>
<text text-anchor="start" x="186" y="-35" font-family="Helvetica,sans-Serif" font-size="10.00">Span::SelectionManager</text>
<text text-anchor="middle" x="245" y="-24" font-family="Helvetica,sans-Serif" font-size="10.00">::SelectAsset</text>
</a>
</g>
</g>
<!-- Node1&#45;&gt;Node31 -->
<g id="edge37_Node000001_Node000031" class="edge">
<title>Node1&#45;&gt;Node31</title>
<g id="a_edge37_Node000001_Node000031"><a xlink:title=" ">
<path fill="none" stroke="#63b8ff" d="M65.68,-209.9C77.66,-179.86 108.26,-112.04 154,-72 163.54,-63.65 175.11,-56.78 186.73,-51.23"/>
<polygon fill="#63b8ff" stroke="#63b8ff" points="188.33,-54.35 196.02,-47.06 185.46,-47.96 188.33,-54.35"/>
</a>
</g>
</g>
<!-- Node4 -->
<g id="Node000004" class="node">
<title>Node4</title>
<g id="a_Node000004"><a xlink:href="classSpan_1_1Application.html#a0c44e973ca5db1d23a02a2cee66f5c11" target="_top" xlink:title=" ">
<polygon fill="white" stroke="#666666" points="492.5,-318 385.5,-318 385.5,-288 492.5,-288 492.5,-318"/>
<text text-anchor="start" x="393.5" y="-306" font-family="Helvetica,sans-Serif" font-size="10.00">Span::Application::</text>
<text text-anchor="middle" x="439" y="-295" font-family="Helvetica,sans-Serif" font-size="10.00">Application</text>
</a>
</g>
</g>
<!-- Node3&#45;&gt;Node4 -->
<g id="edge3_Node000003_Node000004" class="edge">
<title>Node3&#45;&gt;Node4</title>
<g id="a_edge3_Node000003_Node000004"><a xlink:title=" ">
<path fill="none" stroke="#63b8ff" d="M307.54,-302.32C329.13,-302.43 353.4,-302.56 375.1,-302.67"/>
<polygon fill="#63b8ff" stroke="#63b8ff" points="375.18,-306.17 385.2,-302.72 375.21,-299.17 375.18,-306.17"/>
</a>
</g>
</g>
<!-- Node5 -->
<g id="Node000005" class="node">
<title>Node5</title>
<g id="a_Node000005"><a xlink:href="namespaceSpan.html#a3f4b8561d46e69596ba6a7c3177a92e7" target="_top" xlink:title=" ">
<polygon fill="white" stroke="#666666" points="689.5,-276.5 548.5,-276.5 548.5,-257.5 689.5,-257.5 689.5,-276.5"/>
<text text-anchor="middle" x="619" y="-264.5" font-family="Helvetica,sans-Serif" font-size="10.00">Span::ConsoleCtrlHandler</text>
</a>
</g>
</g>
<!-- Node4&#45;&gt;Node5 -->
<g id="edge4_Node000004_Node000005" class="edge">
<title>Node4&#45;&gt;Node5</title>
<g id="a_edge4_Node000004_Node000005"><a xlink:title=" ">
<path fill="none" stroke="#63b8ff" d="M492.92,-292.3C514.43,-287.95 539.32,-282.91 561.21,-278.49"/>
<polygon fill="#63b8ff" stroke="#63b8ff" points="561.92,-281.91 571.03,-276.5 560.53,-275.05 561.92,-281.91"/>
</a>
</g>
</g>
<!-- Node4&#45;&gt;Node7 -->
<g id="edge7_Node000004_Node000007" class="edge">
<title>Node4&#45;&gt;Node7</title>
<g id="a_edge7_Node000004_Node000007"><a xlink:title=" ">
<path fill="none" stroke="#63b8ff" d="M487.53,-318.08C494.37,-321.8 500.82,-326.39 506,-332 539.16,-367.95 505.72,-403.2 542,-436 543.16,-437.05 544.38,-438.04 545.63,-438.98"/>
<polygon fill="#63b8ff" stroke="#63b8ff" points="544.12,-442.16 554.47,-444.41 547.78,-436.19 544.12,-442.16"/>
</a>
</g>
</g>
<!-- Node9 -->
<g id="Node000009" class="node">
<title>Node9</title>
<g id="a_Node000009"><a xlink:href="classSpan_1_1AssetManager.html#a69ad0e84f0e86f10a14693275d0872f2" target="_top" xlink:title="マネージャーを初期化します。">
<polygon fill="white" stroke="#666666" points="677,-202 561,-202 561,-172 677,-172 677,-202"/>
<text text-anchor="start" x="569" y="-190" font-family="Helvetica,sans-Serif" font-size="10.00">Span::AssetManager</text>
<text text-anchor="middle" x="619" y="-179" font-family="Helvetica,sans-Serif" font-size="10.00">::Initialize</text>
</a>
</g>
</g>
<!-- Node4&#45;&gt;Node9 -->
<g id="edge9_Node000004_Node000009" class="edge">
<title>Node4&#45;&gt;Node9</title>
<g id="a_edge9_Node000004_Node000009"><a xlink:title=" ">
<path fill="none" stroke="#63b8ff" d="M453.37,-287.67C471.57,-267.65 506.02,-232.75 542,-212 545.65,-209.89 549.51,-207.93 553.47,-206.12"/>
<polygon fill="#63b8ff" stroke="#63b8ff" points="555.02,-209.26 562.85,-202.13 552.28,-202.82 555.02,-209.26"/>
</a>
</g>
</g>
<!-- Node18 -->
<g id="Node000018" class="node">
<title>Node18</title>
<g id="a_Node000018"><a xlink:href="classSpan_1_1GuiManager.html#ab78e1a284f6d5aced7912c00ab43c559" target="_top" xlink:title="ImGuiコンテキストとバックエンドを初期化します。">
<polygon fill="white" stroke="#666666" points="696,-239.5 542,-239.5 542,-220.5 696,-220.5 696,-239.5"/>
<text text-anchor="middle" x="619" y="-227.5" font-family="Helvetica,sans-Serif" font-size="10.00">Span::GuiManager::Initialize</text>
</a>
</g>
</g>
<!-- Node4&#45;&gt;Node18 -->
<g id="edge19_Node000004_Node000018" class="edge">
<title>Node4&#45;&gt;Node18</title>
<g id="a_edge19_Node000004_Node000018"><a xlink:title=" ">
<path fill="none" stroke="#63b8ff" d="M464.36,-287.94C484.54,-276 514.31,-259.61 542,-249 548.4,-246.55 555.22,-244.32 562.06,-242.34"/>
<polygon fill="#63b8ff" stroke="#63b8ff" points="563.32,-245.62 572.03,-239.59 561.46,-238.87 563.32,-245.62"/>
</a>
</g>
</g>
<!-- Node21 -->
<g id="Node000021" class="node">
<title>Node21</title>
<g id="a_Node000021"><a xlink:href="classSpan_1_1Input.html#aac6e8f1cf694b484ed01742f2d16d63c" target="_top" xlink:title=" ">
<polygon fill="white" stroke="#666666" points="678.5,-426.5 559.5,-426.5 559.5,-407.5 678.5,-407.5 678.5,-426.5"/>
<text text-anchor="middle" x="619" y="-414.5" font-family="Helvetica,sans-Serif" font-size="10.00">Span::Input::Initialize</text>
</a>
</g>
</g>
<!-- Node4&#45;&gt;Node21 -->
<g id="edge22_Node000004_Node000021" class="edge">
<title>Node4&#45;&gt;Node21</title>
<g id="a_edge22_Node000004_Node000021"><a xlink:title=" ">
<path fill="none" stroke="#63b8ff" d="M485.42,-318.12C492.83,-321.89 500.02,-326.48 506,-332 530.83,-354.94 515.19,-378.4 542,-399 544.5,-400.92 547.17,-402.64 549.97,-404.18"/>
<polygon fill="#63b8ff" stroke="#63b8ff" points="548.69,-407.45 559.23,-408.51 551.66,-401.11 548.69,-407.45"/>
</a>
</g>
</g>
<!-- Node22 -->
<g id="Node000022" class="node">
<title>Node22</title>
<g id="a_Node000022"><a xlink:href="classSpan_1_1Logger.html#a557d77ccfa31551817d7b28d985866c8" target="_top" xlink:title="ロガーを初期化し、ログファイルを開きます。">
<polygon fill="white" stroke="#666666" points="683,-389.5 555,-389.5 555,-370.5 683,-370.5 683,-389.5"/>
<text text-anchor="middle" x="619" y="-377.5" font-family="Helvetica,sans-Serif" font-size="10.00">Span::Logger::Initialize</text>
</a>
</g>
</g>
<!-- Node4&#45;&gt;Node22 -->
<g id="edge23_Node000004_Node000022" class="edge">
<title>Node4&#45;&gt;Node22</title>
<g id="a_edge23_Node000004_Node000022"><a xlink:title=" ">
<path fill="none" stroke="#63b8ff" d="M479.31,-318.11C488.33,-322.16 497.7,-326.86 506,-332 523.71,-342.96 523.37,-352.69 542,-362 545.82,-363.91 549.85,-365.62 553.98,-367.16"/>
<polygon fill="#63b8ff" stroke="#63b8ff" points="553.16,-370.57 563.75,-370.43 555.38,-363.93 553.16,-370.57"/>
</a>
</g>
</g>
<!-- Node23 -->
<g id="Node000023" class="node">
<title>Node23</title>
<g id="a_Node000023"><a xlink:href="classSpan_1_1Time.html#ae9e018cd0d5a3b34b773e80c750860e7" target="_top" xlink:title="初期化（エンジン起動時）">
<polygon fill="white" stroke="#666666" points="678.5,-352.5 559.5,-352.5 559.5,-333.5 678.5,-333.5 678.5,-352.5"/>
<text text-anchor="middle" x="619" y="-340.5" font-family="Helvetica,sans-Serif" font-size="10.00">Span::Time::Initialize</text>
</a>
</g>
</g>
<!-- Node4&#45;&gt;Node23 -->
<g id="edge24_Node000004_Node000023" class="edge">
<title>Node4&#45;&gt;Node23</title>
<g id="a_edge24_Node000004_Node000023"><a xlink:title=" ">
<path fill="none" stroke="#63b8ff" d="M492.92,-314.89C515.96,-320.07 542.87,-326.12 565.81,-331.27"/>
<polygon fill="#63b8ff" stroke="#63b8ff" points="565.19,-334.72 575.72,-333.5 566.73,-327.89 565.19,-334.72"/>
</a>
</g>
</g>
<!-- Node6 -->
<g id="Node000006" class="node">
<title>Node6</title>
<g id="a_Node000006"><a xlink:href="classSpan_1_1Application.html#a095598d0c2e753bfb8d00acee435980f" target="_top" xlink:title="シングルトンインスタンスのポインタ取得 (存在チェック用)">
<polygon fill="white" stroke="#666666" points="874.5,-314.5 753.5,-314.5 753.5,-295.5 874.5,-295.5 874.5,-314.5"/>
<text text-anchor="middle" x="814" y="-302.5" font-family="Helvetica,sans-Serif" font-size="10.00">Span::Application::Ptr</text>
</a>
</g>
</g>
<!-- Node5&#45;&gt;Node6 -->
<g id="edge5_Node000005_Node000006" class="edge">
<title>Node5&#45;&gt;Node6</title>
<g id="a_edge5_Node000005_Node000006"><a xlink:title=" ">
<path fill="none" stroke="#63b8ff" d="M668.7,-276.59C694.86,-281.74 727.28,-288.12 754.77,-293.53"/>
<polygon fill="#63b8ff" stroke="#63b8ff" points="754.16,-296.98 764.65,-295.48 755.51,-290.11 754.16,-296.98"/>
</a>
</g>
</g>
<!-- Node6&#45;&gt;Node4 -->
<g id="edge6_Node000006_Node000004" class="edge">
<title>Node6&#45;&gt;Node4</title>
<g id="a_edge6_Node000006_Node000004"><a xlink:title=" ">
<path fill="none" stroke="#63b8ff" d="M753.22,-304.68C684.71,-304.31 572.92,-303.71 503.07,-303.34"/>
<polygon fill="#63b8ff" stroke="#63b8ff" points="502.67,-299.84 492.65,-303.28 502.63,-306.84 502.67,-299.84"/>
</a>
</g>
</g>
<!-- Node8 -->
<g id="Node000008" class="node">
<title>Node8</title>
<g id="a_Node000008"><a xlink:href="classSpan_1_1AssetManager.html#a9d65496b728f9a4fef2a5334d5a8ad56" target="_top" xlink:title=" ">
<polygon fill="white" stroke="#666666" points="872,-469 756,-469 756,-439 872,-439 872,-469"/>
<text text-anchor="start" x="764" y="-457" font-family="Helvetica,sans-Serif" font-size="10.00">Span::AssetManager</text>
<text text-anchor="middle" x="814" y="-446" font-family="Helvetica,sans-Serif" font-size="10.00">::AssetManager</text>
</a>
</g>
</g>
<!-- Node7&#45;&gt;Node8 -->
<g id="edge8_Node000007_Node000008" class="edge">
<title>Node7&#45;&gt;Node8</title>
<g id="a_edge8_Node000007_Node000008"><a xlink:title=" ">
<path fill="none" stroke="#63b8ff" d="M689.13,-454C707.57,-454 727.45,-454 745.79,-454"/>
<polygon fill="#63b8ff" stroke="#63b8ff" points="745.79,-457.5 755.79,-454 745.79,-450.5 745.79,-457.5"/>
</a>
</g>
</g>
<!-- Node10 -->
<g id="Node000010" class="node">
<title>Node10</title>
<g id="a_Node000010"><a xlink:href="classSpan_1_1AssetRegistry.html#a2b83eeb5aa2e6d4c807d4e4a11db563c" target="_top" xlink:title=" ">
<polygon fill="white" stroke="#666666" points="882.5,-153.5 745.5,-153.5 745.5,-134.5 882.5,-134.5 882.5,-153.5"/>
<text text-anchor="middle" x="814" y="-141.5" font-family="Helvetica,sans-Serif" font-size="10.00">Span::AssetRegistry::Get</text>
</a>
</g>
</g>
<!-- Node9&#45;&gt;Node10 -->
<g id="edge10_Node000009_Node000010" class="edge">
<title>Node9&#45;&gt;Node10</title>
<g id="a_edge10_Node000009_Node000010"><a xlink:title=" ">
<path fill="none" stroke="#63b8ff" d="M677.12,-174.27C703.42,-168.41 734.43,-161.51 760.18,-155.77"/>
<polygon fill="#63b8ff" stroke="#63b8ff" points="761.13,-159.14 770.13,-153.55 759.61,-152.31 761.13,-159.14"/>
</a>
</g>
</g>
<!-- Node11 -->
<g id="Node000011" class="node">
<title>Node11</title>
<g id="a_Node000011"><a xlink:href="classSpan_1_1AssetRegistry.html#a71c0e006b41117cb0b296adaf0de1c56" target="_top" xlink:title="指定ディレクトリ以下の全アセットをスキャンし、レジストリを構築します。">
<polygon fill="white" stroke="#666666" points="871,-202 757,-202 757,-172 871,-172 871,-202"/>
<text text-anchor="start" x="765" y="-190" font-family="Helvetica,sans-Serif" font-size="10.00">Span::AssetRegistry</text>
<text text-anchor="middle" x="814" y="-179" font-family="Helvetica,sans-Serif" font-size="10.00">::Refresh</text>
</a>
</g>
</g>
<!-- Node9&#45;&gt;Node11 -->
<g id="edge11_Node000009_Node000011" class="edge">
<title>Node9&#45;&gt;Node11</title>
<g id="a_edge11_Node000009_Node000011"><a xlink:title=" ">
<path fill="none" stroke="#63b8ff" d="M677.12,-187C698.91,-187 723.92,-187 746.51,-187"/>
<polygon fill="#63b8ff" stroke="#63b8ff" points="746.69,-190.5 756.69,-187 746.69,-183.5 746.69,-190.5"/>
</a>
</g>
</g>
<!-- Node12 -->
<g id="Node000012" class="node">
<title>Node12</title>
<g id="a_Node000012"><a xlink:href="classSpan_1_1AssetRegistry.html#a432dbe6ae1b0ab930bd903d93ad5a734" target="_top" xlink:title="パスからアセット情報を登録・更新します (ファイル移動/作成時用)。">
<polygon fill="white" stroke="#666666" points="1046,-202 932,-202 932,-172 1046,-172 1046,-202"/>
<text text-anchor="start" x="940" y="-190" font-family="Helvetica,sans-Serif" font-size="10.00">Span::AssetRegistry</text>
<text text-anchor="middle" x="989" y="-179" font-family="Helvetica,sans-Serif" font-size="10.00">::RegisterAsset</text>
</a>
</g>
</g>
<!-- Node11&#45;&gt;Node12 -->
<g id="edge12_Node000011_Node000012" class="edge">
<title>Node11&#45;&gt;Node12</title>
<g id="a_edge12_Node000011_Node000012"><a xlink:title=" ">
<path fill="none" stroke="#63b8ff" d="M871.17,-187C887.26,-187 904.96,-187 921.61,-187"/>
<polygon fill="#63b8ff" stroke="#63b8ff" points="921.82,-190.5 931.82,-187 921.82,-183.5 921.82,-190.5"/>
</a>
</g>
</g>
<!-- Node13 -->
<g id="Node000013" class="node">
<title>Node13</title>
<g id="a_Node000013"><a xlink:href="structSpan_1_1AssetMetadata.html#a83c8ed8bfd79a2aa90ed8d4e36b785b8" target="_top" xlink:title=" ">
<polygon fill="white" stroke="#666666" points="1391.5,-229 1271.5,-229 1271.5,-199 1391.5,-199 1391.5,-229"/>
<text text-anchor="start" x="1279.5" y="-217" font-family="Helvetica,sans-Serif" font-size="10.00">Span::AssetMetadata</text>
<text text-anchor="middle" x="1331.5" y="-206" font-family="Helvetica,sans-Serif" font-size="10.00">::IsValid</text>
</a>
</g>
</g>
<!-- Node12&#45;&gt;Node13 -->
<g id="edge13_Node000012_Node000013" class="edge">
<title>Node12&#45;&gt;Node13</title>
<g id="a_edge13_Node000012_Node000013"><a xlink:title=" ">
<path fill="none" stroke="#63b8ff" d="M1046.23,-191.46C1105.09,-196.13 1197.62,-203.46 1261.02,-208.49"/>
<polygon fill="#63b8ff" stroke="#63b8ff" points="1261.08,-212.01 1271.33,-209.31 1261.64,-205.03 1261.08,-212.01"/>
</a>
</g>
</g>
<!-- Node14 -->
<g id="Node000014" class="node">
<title>Node14</title>
<g id="a_Node000014"><a xlink:href="classSpan_1_1AssetSerializer.html#adea72d3eb1434b36473f6e0d38396451" target="_top" xlink:title="指定したアセットのメタデータを取得します。 .metaファイルが存在しない場合は、新規にGUIDを生成して作成します。">
<polygon fill="white" stroke="#666666" points="1218,-181 1082,-181 1082,-151 1218,-151 1218,-181"/>
<text text-anchor="start" x="1090" y="-169" font-family="Helvetica,sans-Serif" font-size="10.00">Span::AssetSerializer</text>
<text text-anchor="middle" x="1150" y="-158" font-family="Helvetica,sans-Serif" font-size="10.00">::LoadOrCreateMetadata</text>
</a>
</g>
</g>
<!-- Node12&#45;&gt;Node14 -->
<g id="edge14_Node000012_Node000014" class="edge">
<title>Node12&#45;&gt;Node14</title>
<g id="a_edge14_Node000012_Node000014"><a xlink:title=" ">
<path fill="none" stroke="#63b8ff" d="M1046.06,-179.6C1054.35,-178.5 1063.01,-177.36 1071.64,-176.22"/>
<polygon fill="#63b8ff" stroke="#63b8ff" points="1072.28,-179.66 1081.73,-174.88 1071.36,-172.72 1072.28,-179.66"/>
</a>
</g>
</g>
<!-- Node14&#45;&gt;Node13 -->
<g id="edge16_Node000014_Node000013" class="edge">
<title>Node14&#45;&gt;Node13</title>
<g id="a_edge16_Node000014_Node000013"><a xlink:title=" ">
<path fill="none" stroke="#63b8ff" d="M1207.3,-181.06C1225.51,-185.93 1245.87,-191.37 1264.71,-196.41"/>
<polygon fill="#63b8ff" stroke="#63b8ff" points="1263.83,-199.8 1274.4,-199 1265.64,-193.03 1263.83,-199.8"/>
</a>
</g>
</g>
<!-- Node15 -->
<g id="Node000015" class="node">
<title>Node15</title>
<g id="a_Node000015"><a xlink:href="classSpan_1_1AssetSerializer.html#a39e6a3bea02531fc2c31683a27d52061" target="_top" xlink:title="拡張子から汗ッとタイプを推論します。">
<polygon fill="white" stroke="#666666" points="1409,-133 1254,-133 1254,-103 1409,-103 1409,-133"/>
<text text-anchor="start" x="1262" y="-121" font-family="Helvetica,sans-Serif" font-size="10.00">Span::AssetSerializer</text>
<text text-anchor="middle" x="1331.5" y="-110" font-family="Helvetica,sans-Serif" font-size="10.00">::DeduceTypeFromExtension</text>
</a>
</g>
</g>
<!-- Node14&#45;&gt;Node15 -->
<g id="edge15_Node000014_Node000015" class="edge">
<title>Node14&#45;&gt;Node15</title>
<g id="a_edge15_Node000014_Node000015"><a xlink:title=" ">
<path fill="none" stroke="#63b8ff" d="M1207.3,-150.94C1225.51,-146.07 1245.87,-140.63 1264.71,-135.59"/>
<polygon fill="#63b8ff" stroke="#63b8ff" points="1265.64,-138.97 1274.4,-133 1263.83,-132.2 1265.64,-138.97"/>
</a>
</g>
</g>
<!-- Node16 -->
<g id="Node000016" class="node">
<title>Node16</title>
<g id="a_Node000016"><a xlink:href="namespaceSpan.html#a8ba99036404afdb464fdc44c3dbc7136" target="_top" xlink:title=" ">
<polygon fill="white" stroke="#666666" points="1376.5,-84.5 1286.5,-84.5 1286.5,-65.5 1376.5,-65.5 1376.5,-84.5"/>
<text text-anchor="middle" x="1331.5" y="-72.5" font-family="Helvetica,sans-Serif" font-size="10.00">Span::s_Engine</text>
</a>
</g>
</g>
<!-- Node14&#45;&gt;Node16 -->
<g id="edge17_Node000014_Node000016" class="edge">
<title>Node14&#45;&gt;Node16</title>
<g id="a_edge17_Node000014_Node000016"><a xlink:title=" ">
<path fill="none" stroke="#63b8ff" d="M1168.37,-150.82C1187.91,-134.5 1221.23,-108.9 1254,-94 1261.09,-90.77 1268.82,-88.04 1276.54,-85.75"/>
<polygon fill="#63b8ff" stroke="#63b8ff" points="1277.56,-89.1 1286.28,-83.07 1275.7,-82.35 1277.56,-89.1"/>
</a>
</g>
</g>
<!-- Node17 -->
<g id="Node000017" class="node">
<title>Node17</title>
<g id="a_Node000017"><a xlink:href="classSpan_1_1AssetSerializer.html#a0eb09ea936ef7cf65184977a5809ef6b" target="_top" xlink:title="メタデータをファイルに保存する。">
<polygon fill="white" stroke="#666666" points="1391,-181 1272,-181 1272,-151 1391,-151 1391,-181"/>
<text text-anchor="start" x="1280" y="-169" font-family="Helvetica,sans-Serif" font-size="10.00">Span::AssetSerializer</text>
<text text-anchor="middle" x="1331.5" y="-158" font-family="Helvetica,sans-Serif" font-size="10.00">::SaveMetadata</text>
</a>
</g>
</g>
<!-- Node14&#45;&gt;Node17 -->
<g id="edge18_Node000014_Node000017" class="edge">
<title>Node14&#45;&gt;Node17</title>
<g id="a_edge18_Node000014_Node000017"><a xlink:title=" ">
<path fill="none" stroke="#63b8ff" d="M1218.09,-166C1232.28,-166 1247.27,-166 1261.52,-166"/>
<polygon fill="#63b8ff" stroke="#63b8ff" points="1261.74,-169.5 1271.74,-166 1261.74,-162.5 1261.74,-169.5"/>
</a>
</g>
</g>
<!-- Node19 -->
<g id="Node000019" class="node">
<title>Node19</title>
<g id="a_Node000019"><a xlink:href="classSpan_1_1GuiManager.html#a79fd10d93a58b741c10bd8c8477afc0a" target="_top" xlink:title="管理対象のエディタパネルを追加します。">
<polygon fill="white" stroke="#666666" points="892.5,-276.5 735.5,-276.5 735.5,-257.5 892.5,-257.5 892.5,-276.5"/>
<text text-anchor="middle" x="814" y="-264.5" font-family="Helvetica,sans-Serif" font-size="10.00">Span::GuiManager::AddPanel</text>
</a>
</g>
</g>
<!-- Node18&#45;&gt;Node19 -->
<g id="edge20_Node000018_Node000019" class="edge">
<title>Node18&#45;&gt;Node19</title>
<g id="a_edge20_Node000018_Node000019"><a xlink:title=" ">
<path fill="none" stroke="#63b8ff" d="M669.7,-239.53C695.15,-244.41 726.34,-250.39 753.11,-255.52"/>
<polygon fill="#63b8ff" stroke="#63b8ff" points="752.65,-258.99 763.13,-257.44 753.97,-252.12 752.65,-258.99"/>
</a>
</g>
</g>
<!-- Node20 -->
<g id="Node000020" class="node">
<title>Node20</title>
<g id="a_Node000020"><a xlink:href="classSpan_1_1GuiManager.html#ad8ff21c11b12bff5ee5b454a4dae33d0" target="_top" xlink:title="フォントや配色などのスタイル設定を適用します。">
<polygon fill="white" stroke="#666666" points="896,-239.5 732,-239.5 732,-220.5 896,-220.5 896,-239.5"/>
<text text-anchor="middle" x="814" y="-227.5" font-family="Helvetica,sans-Serif" font-size="10.00">Span::GuiManager::ApplyStyle</text>
</a>
</g>
</g>
<!-- Node18&#45;&gt;Node20 -->
<g id="edge21_Node000018_Node000020" class="edge">
<title>Node18&#45;&gt;Node20</title>
<g id="a_edge21_Node000018_Node000020"><a xlink:title=" ">
<path fill="none" stroke="#63b8ff" d="M696,-230C704.49,-230 713.21,-230 721.86,-230"/>
<polygon fill="#63b8ff" stroke="#63b8ff" points="721.98,-233.5 731.98,-230 721.98,-226.5 721.98,-233.5"/>
</a>
</g>
</g>
<!-- Node26&#45;&gt;Node10 -->
<g id="edge29_Node000026_Node000010" class="edge">
<title>Node26&#45;&gt;Node10</title>
<g id="a_edge29_Node000026_Node000010"><a xlink:title=" ">
<path fill="none" stroke="#63b8ff" d="M303.43,-134.32C314.76,-130.89 326.18,-126.26 336,-120 357.02,-106.61 349.42,-87.55 372,-77 502.47,-16.07 556.84,-39.98 696,-77 733.34,-86.94 771.18,-111.92 793.34,-128.41"/>
<polygon fill="#63b8ff" stroke="#63b8ff" points="791.23,-131.2 801.3,-134.47 795.47,-125.63 791.23,-131.2"/>
</a>
</g>
</g>
<!-- Node27 -->
<g id="Node000027" class="node">
<title>Node27</title>
<g id="a_Node000027"><a xlink:href="classSpan_1_1AssetManager.html#a98a270b7faf1990407f7082143e437d6" target="_top" xlink:title="デフォルト (標準) のマテリアルを取得します。 シェーダーやマテリアルが存在しない場合は内部で生成します。">
<polygon fill="white" stroke="#666666" points="497,-116 381,-116 381,-86 497,-86 497,-116"/>
<text text-anchor="start" x="389" y="-104" font-family="Helvetica,sans-Serif" font-size="10.00">Span::AssetManager</text>
<text text-anchor="middle" x="439" y="-93" font-family="Helvetica,sans-Serif" font-size="10.00">::GetDefaultMaterial</text>
</a>
</g>
</g>
<!-- Node26&#45;&gt;Node27 -->
<g id="edge30_Node000026_Node000027" class="edge">
<title>Node26&#45;&gt;Node27</title>
<g id="a_edge30_Node000026_Node000027"><a xlink:title=" ">
<path fill="none" stroke="#63b8ff" d="M303.09,-131.22C324.37,-126.45 348.72,-121 370.82,-116.04"/>
<polygon fill="#63b8ff" stroke="#63b8ff" points="371.81,-119.41 380.8,-113.81 370.28,-112.58 371.81,-119.41"/>
</a>
</g>
</g>
<!-- Node28 -->
<g id="Node000028" class="node">
<title>Node28</title>
<g id="a_Node000028"><a xlink:href="classSpan_1_1AssetRegistry.html#a3cae91f52d3d29c67936e289d1244319" target="_top" xlink:title=" ">
<polygon fill="white" stroke="#666666" points="676,-116 562,-116 562,-86 676,-86 676,-116"/>
<text text-anchor="start" x="570" y="-104" font-family="Helvetica,sans-Serif" font-size="10.00">Span::AssetRegistry</text>
<text text-anchor="middle" x="619" y="-93" font-family="Helvetica,sans-Serif" font-size="10.00">::GetPath</text>
</a>
</g>
</g>
<!-- Node26&#45;&gt;Node28 -->
<g id="edge31_Node000026_Node000028" class="edge">
<title>Node26&#45;&gt;Node28</title>
<g id="a_edge31_Node000026_Node000028"><a xlink:title=" ">
<path fill="none" stroke="#63b8ff" d="M303.05,-142.1C355.89,-139.8 436.55,-134.93 506,-125 520.87,-122.87 536.73,-119.91 551.68,-116.79"/>
<polygon fill="#63b8ff" stroke="#63b8ff" points="552.82,-120.13 561.87,-114.62 551.36,-113.28 552.82,-120.13"/>
</a>
</g>
</g>
<!-- Node26&#45;&gt;Node29 -->
<g id="edge32_Node000026_Node000029" class="edge">
<title>Node26&#45;&gt;Node29</title>
<g id="a_edge32_Node000026_Node000029"><a xlink:title=" ">
<path fill="none" stroke="#63b8ff" d="M303.09,-156.78C324.37,-161.55 348.72,-167 370.82,-171.96"/>
<polygon fill="#63b8ff" stroke="#63b8ff" points="370.28,-175.42 380.8,-174.19 371.81,-168.59 370.28,-175.42"/>
</a>
</g>
</g>
<!-- Node29&#45;&gt;Node10 -->
<g id="edge33_Node000029_Node000010" class="edge">
<title>Node29&#45;&gt;Node10</title>
<g id="a_edge33_Node000029_Node000010"><a xlink:title=" ">
<path fill="none" stroke="#63b8ff" d="M496.6,-171.97C511.29,-168.54 527.16,-165.25 542,-163 606.62,-153.2 680.68,-148.44 735.03,-146.14"/>
<polygon fill="#63b8ff" stroke="#63b8ff" points="735.44,-149.63 745.29,-145.72 735.16,-142.63 735.44,-149.63"/>
</a>
</g>
</g>
<!-- Node29&#45;&gt;Node28 -->
<g id="edge34_Node000029_Node000028" class="edge">
<title>Node29&#45;&gt;Node28</title>
<g id="a_edge34_Node000029_Node000028"><a xlink:title=" ">
<path fill="none" stroke="#63b8ff" d="M478.5,-172C487.73,-167.88 497.4,-163.13 506,-158 523.41,-147.62 524.34,-139.94 542,-130 548.43,-126.38 555.4,-123.03 562.42,-119.99"/>
<polygon fill="#63b8ff" stroke="#63b8ff" points="564.08,-123.09 571.99,-116.04 561.41,-116.62 564.08,-123.09"/>
</a>
</g>
</g>
<!-- Node32 -->
<g id="Node000032" class="node">
<title>Node32</title>
<g id="a_Node000032"><a xlink:href="classSpan_1_1SelectionManager.html#a01590b8a12222e57fa622d22c3ffb484" target="_top" xlink:title=" ">
<polygon fill="white" stroke="#666666" points="506,-30 372,-30 372,0 506,0 506,-30"/>
<text text-anchor="start" x="380" y="-18" font-family="Helvetica,sans-Serif" font-size="10.00">Span::SelectionManager</text>
<text text-anchor="middle" x="439" y="-7" font-family="Helvetica,sans-Serif" font-size="10.00">::ClearEntitySelection</text>
</a>
</g>
</g>
<!-- Node31&#45;&gt;Node32 -->
<g id="edge38_Node000031_Node000032" class="edge">
<title>Node31&#45;&gt;Node32</title>
<g id="a_edge38_Node000031_Node000032"><a xlink:title=" ">
<path fill="none" stroke="#63b8ff" d="M312.08,-26.15C328.07,-24.73 345.29,-23.21 361.7,-21.76"/>
<polygon fill="#63b8ff" stroke="#63b8ff" points="362.15,-25.23 371.8,-20.86 361.53,-18.26 362.15,-25.23"/>
</a>
</g>
</g>
</g>
</svg>

<g id="navigator" transform="translate(0 0)" fill="#404254">
  <rect fill="#f2f5e9" fill-opacity="0.5" stroke="#606060" stroke-width=".5" x="0" y="0" width="60" height="60"/>
  <use id="zoomplus" xlink:href="#zoomPlus" x="17" y="9" onmousedown="handleZoom(evt,'in')"/>
  <use id="zoomminus" xlink:href="#zoomMin" x="42" y="9" onmousedown="handleZoom(evt,'out')"/>
  <use id="reset" xlink:href="#resetDef" x="30" y="36" onmousedown="handleReset()"/>
   <use id="arrowup" xlink:href="#arrowUp" x="0" y="0" onmousedown="handlePan(0,-1)"/>
  <use id="arrowright" xlink:href="#arrowRight" x="0" y="0" onmousedown="handlePan(1,0)"/>
  <use id="arrowdown" xlink:href="#arrowDown" x="0" y="0" onmousedown="handlePan(0,1)"/>
  <use id="arrowleft" xlink:href="#arrowLeft" x="0" y="0" onmousedown="handlePan(-1,0)"/>
</g>
<svg viewBox="0 0 15 15" width="100%" height="30px" preserveAspectRatio="xMaxYMin meet">
 <g id="arrow_out" transform="scale(0.3 0.3)">
  <a xlink:href="classSpan_1_1InspectorPanel_acbecd010da050d28a48148287775259a_cgraph_org.svg" target="_base">
   <rect id="button" ry="5" rx="5" y="6" x="6" height="38" width="38"
        fill="#f2f5e9" fill-opacity="0.5" stroke="#606060" stroke-width="1.0"/>
   <path id="arrow"
     d="M 11.500037,31.436501 C 11.940474,20.09759 22.043105,11.32322 32.158766,21.979434 L 37.068811,17.246167 C 37.068811,17.246167 37.088388,32 37.088388,32 L 22.160133,31.978069 C 22.160133,31.978069 26.997745,27.140456 26.997745,27.140456 C 18.528582,18.264221 13.291696,25.230495 11.500037,31.436501 z"
     style="fill:#404040;"/>
  </a>
 </g>
</svg>

<style type='text/css'>
<![CDATA[
[data-mouse-over-selected='false'] { opacity: 0.7; }
[data-mouse-over-selected='true']  { opacity: 1.0; }
]]>
</style>
<script type="application/ecmascript"><![CDATA[
document.addEventListener('DOMContentLoaded', (event) => {
  highlightEdges();
  highlightAdjacentNodes();
});
]]></script>
</svg>
