<?xml version="1.0" encoding="UTF-8" standalone="no"?>
<!DOCTYPE svg PUBLIC "-//W3C//DTD SVG 1.1//EN"
 "http://www.w3.org/Graphics/SVG/1.1/DTD/svg11.dtd">
<!-- Generated by graphviz version 2.43.0 (0)
 -->
<!-- Title: Span::AssetManager::Get Pages: 1 -->
<svg width="1102pt" height="901pt"
 viewBox="0.00 0.00 1102.00 900.50" xmlns="http://www.w3.org/2000/svg" xmlns:xlink="http://www.w3.org/1999/xlink">
<g id="graph0" class="graph" transform="scale(1 1) rotate(0) translate(4 896.5)">
<title>Span::AssetManager::Get</title>
<!-- Node1 -->
<g id="Node000001" class="node">
<title>Node1</title>
<g id="a_Node000001"><a xlink:title="シングルトンインスタンスを取得します。">
<polygon fill="#999999" stroke="#666666" points="1094,-184.5 954,-184.5 954,-165.5 1094,-165.5 1094,-184.5"/>
<text text-anchor="middle" x="1024" y="-172.5" font-family="Helvetica,sans-Serif" font-size="10.00">Span::AssetManager::Get</text>
</a>
</g>
</g>
<!-- Node2 -->
<g id="Node000002" class="node">
<title>Node2</title>
<g id="a_Node000002"><a xlink:href="classSpan_1_1Application.html#a0c44e973ca5db1d23a02a2cee66f5c11" target="_top" xlink:title=" ">
<polygon fill="white" stroke="#666666" points="883,-676 776,-676 776,-646 883,-646 883,-676"/>
<text text-anchor="start" x="784" y="-664" font-family="Helvetica,sans-Serif" font-size="10.00">Span::Application::</text>
<text text-anchor="middle" x="829.5" y="-653" font-family="Helvetica,sans-Serif" font-size="10.00">Application</text>
</a>
</g>
</g>
<!-- Node1&#45;&gt;Node2 -->
<g id="edge1_Node000001_Node000002" class="edge">
<title>Node1&#45;&gt;Node2</title>
<g id="a_edge1_Node000001_Node000002"><a xlink:title=" ">
<path fill="none" stroke="#63b8ff" d="M1015.3,-194.44C983.74,-274.11 864.62,-574.86 836.48,-645.9"/>
<polygon fill="#63b8ff" stroke="#63b8ff" points="1018.73,-195.29 1019.15,-184.71 1012.22,-192.72 1018.73,-195.29"/>
</a>
</g>
</g>
<!-- Node13 -->
<g id="Node000013" class="node">
<title>Node13</title>
<g id="a_Node000013"><a xlink:href="classSpan_1_1SceneViewPanel.html#afebf890816b85f92e9ed73de887b2354" target="_top" xlink:title="外部またはブラウザからドロップされたファイルを処理します。">
<polygon fill="white" stroke="#666666" points="510.5,-302 384.5,-302 384.5,-272 510.5,-272 510.5,-302"/>
<text text-anchor="start" x="392.5" y="-290" font-family="Helvetica,sans-Serif" font-size="10.00">Span::SceneViewPanel</text>
<text text-anchor="middle" x="447.5" y="-279" font-family="Helvetica,sans-Serif" font-size="10.00">::OnAssetDropped</text>
</a>
</g>
</g>
<!-- Node1&#45;&gt;Node13 -->
<g id="edge45_Node000001_Node000013" class="edge">
<title>Node1&#45;&gt;Node13</title>
<g id="a_edge45_Node000001_Node000013"><a xlink:title=" ">
<path fill="none" stroke="#63b8ff" d="M1012.25,-193.4C995.79,-219.51 961.63,-266.22 918,-285 782.3,-343.41 603.4,-320.11 510.5,-301.53"/>
<polygon fill="#63b8ff" stroke="#63b8ff" points="1015.27,-195.16 1017.49,-184.8 1009.3,-191.52 1015.27,-195.16"/>
</a>
</g>
</g>
<!-- Node22 -->
<g id="Node000022" class="node">
<title>Node22</title>
<g id="a_Node000022"><a xlink:href="classSpan_1_1InspectorPanel.html#aa24fb5f7f8d1de98906fe4b644cb4a86" target="_top" xlink:title="アセット用のインスペクターを描画します。">
<polygon fill="white" stroke="#666666" points="692,-254 572,-254 572,-224 692,-224 692,-254"/>
<text text-anchor="start" x="580" y="-242" font-family="Helvetica,sans-Serif" font-size="10.00">Span::InspectorPanel</text>
<text text-anchor="middle" x="632" y="-231" font-family="Helvetica,sans-Serif" font-size="10.00">::DrawAssetInspector</text>
</a>
</g>
</g>
<!-- Node1&#45;&gt;Node22 -->
<g id="edge31_Node000001_Node000022" class="edge">
<title>Node1&#45;&gt;Node22</title>
<g id="a_edge31_Node000001_Node000022"><a xlink:title=" ">
<path fill="none" stroke="#63b8ff" d="M974.64,-186.96C956.9,-191.11 936.6,-195.58 918,-199 840.36,-213.29 750,-225.18 692.19,-232.19"/>
<polygon fill="#63b8ff" stroke="#63b8ff" points="975.84,-190.27 984.76,-184.57 974.22,-183.46 975.84,-190.27"/>
</a>
</g>
</g>
<!-- Node23 -->
<g id="Node000023" class="node">
<title>Node23</title>
<g id="a_Node000023"><a xlink:href="classSpan_1_1ProjectBrowserPanel.html#a61f13161ddf1dcca1a2a1a5a8a865ccc" target="_top" xlink:title="個別のアセットアイテムを描画します。">
<polygon fill="white" stroke="#666666" points="902.5,-190 756.5,-190 756.5,-160 902.5,-160 902.5,-190"/>
<text text-anchor="start" x="764.5" y="-178" font-family="Helvetica,sans-Serif" font-size="10.00">Span::ProjectBrowserPanel</text>
<text text-anchor="middle" x="829.5" y="-167" font-family="Helvetica,sans-Serif" font-size="10.00">::DrawEntryItem</text>
</a>
</g>
</g>
<!-- Node1&#45;&gt;Node23 -->
<g id="edge33_Node000001_Node000023" class="edge">
<title>Node1&#45;&gt;Node23</title>
<g id="a_edge33_Node000001_Node000023"><a xlink:title=" ">
<path fill="none" stroke="#63b8ff" d="M943.53,-175C930,-175 916.01,-175 902.68,-175"/>
<polygon fill="#63b8ff" stroke="#63b8ff" points="943.78,-178.5 953.78,-175 943.78,-171.5 943.78,-178.5"/>
</a>
</g>
</g>
<!-- Node26 -->
<g id="Node000026" class="node">
<title>Node26</title>
<g id="a_Node000026"><a xlink:href="classSpan_1_1InspectorPanel.html#acbecd010da050d28a48148287775259a" target="_top" xlink:title="マテリアルアセット用のプロパティエディタを描画します。">
<polygon fill="white" stroke="#666666" points="888.5,-276 770.5,-276 770.5,-246 888.5,-246 888.5,-276"/>
<text text-anchor="start" x="778.5" y="-264" font-family="Helvetica,sans-Serif" font-size="10.00">Span::InspectorPanel</text>
<text text-anchor="middle" x="829.5" y="-253" font-family="Helvetica,sans-Serif" font-size="10.00">::DrawMaterialEditor</text>
</a>
</g>
</g>
<!-- Node1&#45;&gt;Node26 -->
<g id="edge36_Node000001_Node000026" class="edge">
<title>Node1&#45;&gt;Node26</title>
<g id="a_edge36_Node000001_Node000026"><a xlink:title=" ">
<path fill="none" stroke="#63b8ff" d="M998.6,-189.86C977.7,-202.19 946.56,-219.63 918,-232 906.25,-237.09 893.3,-241.83 881.05,-245.94"/>
<polygon fill="#63b8ff" stroke="#63b8ff" points="1000.63,-192.72 1007.43,-184.59 997.05,-186.71 1000.63,-192.72"/>
</a>
</g>
</g>
<!-- Node27 -->
<g id="Node000027" class="node">
<title>Node27</title>
<g id="a_Node000027"><a xlink:href="classSpan_1_1ImGuiUI.html#a34b9192587c923b4380f4cbc72155b75" target="_top" xlink:title=" ">
<polygon fill="white" stroke="#666666" points="918,-141.5 741,-141.5 741,-122.5 918,-122.5 918,-141.5"/>
<text text-anchor="middle" x="829.5" y="-129.5" font-family="Helvetica,sans-Serif" font-size="10.00">Span::ImGuiUI::DrawMaterialSlot</text>
</a>
</g>
</g>
<!-- Node1&#45;&gt;Node27 -->
<g id="edge38_Node000001_Node000027" class="edge">
<title>Node1&#45;&gt;Node27</title>
<g id="a_edge38_Node000001_Node000027"><a xlink:title=" ">
<path fill="none" stroke="#63b8ff" d="M972.05,-163.24C954.89,-159.31 935.62,-154.93 918,-151 904.04,-147.89 888.81,-144.56 875.03,-141.57"/>
<polygon fill="#63b8ff" stroke="#63b8ff" points="971.35,-166.67 981.88,-165.49 972.92,-159.85 971.35,-166.67"/>
</a>
</g>
</g>
<!-- Node30 -->
<g id="Node000030" class="node">
<title>Node30</title>
<g id="a_Node000030"><a xlink:href="classSpan_1_1ImGuiUI.html#aa8095db73105fc0e8d6936701f333bf0" target="_top" xlink:title=" ">
<polygon fill="white" stroke="#666666" points="911,-104.5 748,-104.5 748,-85.5 911,-85.5 911,-104.5"/>
<text text-anchor="middle" x="829.5" y="-92.5" font-family="Helvetica,sans-Serif" font-size="10.00">Span::ImGuiUI::DrawMeshSlot</text>
</a>
</g>
</g>
<!-- Node1&#45;&gt;Node30 -->
<g id="edge41_Node000001_Node000030" class="edge">
<title>Node1&#45;&gt;Node30</title>
<g id="a_edge41_Node000001_Node000030"><a xlink:title=" ">
<path fill="none" stroke="#63b8ff" d="M1001.46,-159.77C980.91,-145.93 948.65,-125.89 918,-114 908.14,-110.18 897.35,-107.04 886.81,-104.51"/>
<polygon fill="#63b8ff" stroke="#63b8ff" points="999.54,-162.7 1009.77,-165.47 1003.5,-156.93 999.54,-162.7"/>
</a>
</g>
</g>
<!-- Node31 -->
<g id="Node000031" class="node">
<title>Node31</title>
<g id="a_Node000031"><a xlink:href="classSpan_1_1ImGuiUI.html#a051be17f46f22409017503a9b0562d76" target="_top" xlink:title=" ">
<polygon fill="white" stroke="#666666" points="916,-67.5 743,-67.5 743,-48.5 916,-48.5 916,-67.5"/>
<text text-anchor="middle" x="829.5" y="-55.5" font-family="Helvetica,sans-Serif" font-size="10.00">Span::ImGuiUI::DrawTextureSlot</text>
</a>
</g>
</g>
<!-- Node1&#45;&gt;Node31 -->
<g id="edge43_Node000001_Node000031" class="edge">
<title>Node1&#45;&gt;Node31</title>
<g id="a_edge43_Node000001_Node000031"><a xlink:title=" ">
<path fill="none" stroke="#63b8ff" d="M1009.46,-157.19C991.25,-134.58 956.66,-96.1 918,-76 911.39,-72.57 904.19,-69.79 896.84,-67.54"/>
<polygon fill="#63b8ff" stroke="#63b8ff" points="1006.89,-159.58 1015.82,-165.28 1012.39,-155.25 1006.89,-159.58"/>
</a>
</g>
</g>
<!-- Node32 -->
<g id="Node000032" class="node">
<title>Node32</title>
<g id="a_Node000032"><a xlink:href="structSpan_1_1Internal_1_1JsonDeserializeVisitor.html#a9ec1cdf5e6d1a1d8bdc2d4138cbd5bc7" target="_top" xlink:title=" ">
<polygon fill="white" stroke="#666666" points="912,-30 747,-30 747,0 912,0 912,-30"/>
<text text-anchor="start" x="755" y="-18" font-family="Helvetica,sans-Serif" font-size="10.00">Span::Internal::JsonDeserialize</text>
<text text-anchor="middle" x="829.5" y="-7" font-family="Helvetica,sans-Serif" font-size="10.00">Visitor::Visit</text>
</a>
</g>
</g>
<!-- Node1&#45;&gt;Node32 -->
<g id="edge46_Node000001_Node000032" class="edge">
<title>Node1&#45;&gt;Node32</title>
<g id="a_edge46_Node000001_Node000032"><a xlink:title=" ">
<path fill="none" stroke="#63b8ff" d="M1013.64,-156.16C997.99,-126.62 963.66,-69.61 918,-39 912.9,-35.58 907.32,-32.64 901.53,-30.13"/>
<polygon fill="#63b8ff" stroke="#63b8ff" points="1010.7,-158.09 1018.39,-165.38 1016.92,-154.89 1010.7,-158.09"/>
</a>
</g>
</g>
<!-- Node3 -->
<g id="Node000003" class="node">
<title>Node3</title>
<g id="a_Node000003"><a xlink:href="classSpan_1_1Application.html#ae2e9eaebe90ffdf55cfef9d74ccbce3e" target="_top" xlink:title="シングルトンインスタンスの取得">
<polygon fill="white" stroke="#666666" points="694.5,-588.5 569.5,-588.5 569.5,-569.5 694.5,-569.5 694.5,-588.5"/>
<text text-anchor="middle" x="632" y="-576.5" font-family="Helvetica,sans-Serif" font-size="10.00">Span::Application::Get</text>
</a>
</g>
</g>
<!-- Node2&#45;&gt;Node3 -->
<g id="edge2_Node000002_Node000003" class="edge">
<title>Node2&#45;&gt;Node3</title>
<g id="a_edge2_Node000002_Node000003"><a xlink:title=" ">
<path fill="none" stroke="#63b8ff" d="M783.39,-642.08C743.51,-625.35 686.96,-601.63 655.8,-588.56"/>
<polygon fill="#63b8ff" stroke="#63b8ff" points="782.07,-645.32 792.64,-645.96 784.77,-638.86 782.07,-645.32"/>
</a>
</g>
</g>
<!-- Node20 -->
<g id="Node000020" class="node">
<title>Node20</title>
<g id="a_Node000020"><a xlink:href="classSpan_1_1Application.html#a095598d0c2e753bfb8d00acee435980f" target="_top" xlink:title="シングルトンインスタンスのポインタ取得 (存在チェック用)">
<polygon fill="white" stroke="#666666" points="692.5,-853.5 571.5,-853.5 571.5,-834.5 692.5,-834.5 692.5,-853.5"/>
<text text-anchor="middle" x="632" y="-841.5" font-family="Helvetica,sans-Serif" font-size="10.00">Span::Application::Ptr</text>
</a>
</g>
</g>
<!-- Node2&#45;&gt;Node20 -->
<g id="edge28_Node000002_Node000020" class="edge">
<title>Node2&#45;&gt;Node20</title>
<g id="a_edge28_Node000002_Node000020"><a xlink:title=" ">
<path fill="none" stroke="#63b8ff" d="M804.71,-683.27C761.81,-723.43 673.14,-806.43 643.16,-834.49"/>
<polygon fill="#63b8ff" stroke="#63b8ff" points="807.26,-685.68 812.17,-676.29 802.48,-680.57 807.26,-685.68"/>
</a>
</g>
</g>
<!-- Node4 -->
<g id="Node000004" class="node">
<title>Node4</title>
<g id="a_Node000004"><a xlink:href="classSpan_1_1HierarchyPanel.html#a331d846c46df5f3346cfc7bb8c7a8e76" target="_top" xlink:title="エンティティ上での右クリックメニューを描画します。">
<polygon fill="white" stroke="#666666" points="507.5,-570 387.5,-570 387.5,-540 507.5,-540 507.5,-570"/>
<text text-anchor="start" x="395.5" y="-558" font-family="Helvetica,sans-Serif" font-size="10.00">Span::HierarchyPanel</text>
<text text-anchor="middle" x="447.5" y="-547" font-family="Helvetica,sans-Serif" font-size="10.00">::DrawContextMenu</text>
</a>
</g>
</g>
<!-- Node3&#45;&gt;Node4 -->
<g id="edge3_Node000003_Node000004" class="edge">
<title>Node3&#45;&gt;Node4</title>
<g id="a_edge3_Node000003_Node000004"><a xlink:title=" ">
<path fill="none" stroke="#63b8ff" d="M559.49,-569.6C542.31,-567.34 524.15,-564.95 507.6,-562.77"/>
<polygon fill="#63b8ff" stroke="#63b8ff" points="559.1,-573.07 569.47,-570.91 560.01,-566.13 559.1,-573.07"/>
</a>
</g>
</g>
<!-- Node5 -->
<g id="Node000005" class="node">
<title>Node5</title>
<g id="a_Node000005"><a xlink:href="classSpan_1_1HierarchyPanel.html#a2c08f8c6e0cafaed96f7846d76ff2b09" target="_top" xlink:title="1つのエンティティとその子孫を再帰的に描画します。">
<polygon fill="white" stroke="#666666" points="309,-580 189,-580 189,-550 309,-550 309,-580"/>
<text text-anchor="start" x="197" y="-568" font-family="Helvetica,sans-Serif" font-size="10.00">Span::HierarchyPanel</text>
<text text-anchor="middle" x="249" y="-557" font-family="Helvetica,sans-Serif" font-size="10.00">::DrawEntityNode</text>
</a>
</g>
</g>
<!-- Node3&#45;&gt;Node5 -->
<g id="edge9_Node000003_Node000005" class="edge">
<title>Node3&#45;&gt;Node5</title>
<g id="a_edge9_Node000003_Node000005"><a xlink:title=" ">
<path fill="none" stroke="#63b8ff" d="M606.28,-564.42C585.02,-552.78 553.11,-537.39 523,-531 457.35,-517.07 438.49,-521.91 372,-531 345.2,-534.66 315.99,-542.66 292.88,-549.97"/>
<polygon fill="#63b8ff" stroke="#63b8ff" points="604.82,-567.61 615.25,-569.46 608.25,-561.51 604.82,-567.61"/>
</a>
</g>
</g>
<!-- Node6 -->
<g id="Node000006" class="node">
<title>Node6</title>
<g id="a_Node000006"><a xlink:href="classSpan_1_1HierarchyPanel.html#a6481eb57cd9f45cb3a094a26f35bbaa0" target="_top" xlink:title="毎フレーム呼ばれる描画関数。">
<polygon fill="white" stroke="#666666" points="123,-656 3,-656 3,-626 123,-626 123,-656"/>
<text text-anchor="start" x="11" y="-644" font-family="Helvetica,sans-Serif" font-size="10.00">Span::HierarchyPanel</text>
<text text-anchor="middle" x="63" y="-633" font-family="Helvetica,sans-Serif" font-size="10.00">::OnImGuiRender</text>
</a>
</g>
</g>
<!-- Node3&#45;&gt;Node6 -->
<g id="edge18_Node000003_Node000006" class="edge">
<title>Node3&#45;&gt;Node6</title>
<g id="a_edge18_Node000003_Node000006"><a xlink:title=" ">
<path fill="none" stroke="#63b8ff" d="M612.47,-595.13C592.08,-611.85 557.59,-637.15 523,-649 371.07,-701.07 321.45,-684.24 162,-665 146.7,-663.15 130.33,-659.74 115.45,-656.06"/>
<polygon fill="#63b8ff" stroke="#63b8ff" points="614.89,-597.67 620.31,-588.56 610.4,-592.31 614.89,-597.67"/>
</a>
</g>
</g>
<!-- Node7 -->
<g id="Node000007" class="node">
<title>Node7</title>
<g id="a_Node000007"><a xlink:href="classSpan_1_1HierarchyPanel.html#a04888145be2266ef8385e234b79ec53a" target="_top" xlink:title="何もない場所での右クリックメニュー (新規作成など) を描画します。">
<polygon fill="white" stroke="#666666" points="336,-656 162,-656 162,-626 336,-626 336,-656"/>
<text text-anchor="start" x="170" y="-644" font-family="Helvetica,sans-Serif" font-size="10.00">Span::HierarchyPanel</text>
<text text-anchor="middle" x="249" y="-633" font-family="Helvetica,sans-Serif" font-size="10.00">::DrawEmptySpaceContextMenu</text>
</a>
</g>
</g>
<!-- Node3&#45;&gt;Node7 -->
<g id="edge7_Node000003_Node000007" class="edge">
<title>Node3&#45;&gt;Node7</title>
<g id="a_edge7_Node000003_Node000007"><a xlink:title=" ">
<path fill="none" stroke="#63b8ff" d="M605.45,-593.58C584.14,-604.94 552.59,-619.92 523,-627 461.73,-641.65 390.59,-644.87 336.3,-644.58"/>
<polygon fill="#63b8ff" stroke="#63b8ff" points="607.37,-596.52 614.47,-588.66 604.02,-590.38 607.37,-596.52"/>
</a>
</g>
</g>
<!-- Node8 -->
<g id="Node000008" class="node">
<title>Node8</title>
<g id="a_Node000008"><a xlink:href="classSpan_1_1SceneViewPanel.html#ad83a4a55f083c75371d0873322808796" target="_top" xlink:title="選択中のオブジェクトに対してマニピュレータ (矢印など) を描画します。">
<polygon fill="white" stroke="#666666" points="510.5,-484 384.5,-484 384.5,-454 510.5,-454 510.5,-484"/>
<text text-anchor="start" x="392.5" y="-472" font-family="Helvetica,sans-Serif" font-size="10.00">Span::SceneViewPanel</text>
<text text-anchor="middle" x="447.5" y="-461" font-family="Helvetica,sans-Serif" font-size="10.00">::DrawGizmo</text>
</a>
</g>
</g>
<!-- Node3&#45;&gt;Node8 -->
<g id="edge10_Node000003_Node000008" class="edge">
<title>Node3&#45;&gt;Node8</title>
<g id="a_edge10_Node000003_Node000008"><a xlink:title=" ">
<path fill="none" stroke="#63b8ff" d="M612.66,-562.77C592,-545.09 556.85,-516.82 523,-498 513.66,-492.81 503.2,-488.11 493.13,-484.09"/>
<polygon fill="#63b8ff" stroke="#63b8ff" points="610.49,-565.52 620.34,-569.42 615.07,-560.23 610.49,-565.52"/>
</a>
</g>
</g>
<!-- Node9 -->
<g id="Node000009" class="node">
<title>Node9</title>
<g id="a_Node000009"><a xlink:href="classSpan_1_1SceneViewPanel.html#aab2935de58bd68267a680cabd3656c9f" target="_top" xlink:title="毎フレームの描画処理。 画像の表示、ツールバーのオーバーレイ、ギズモの描画を行います。">
<polygon fill="white" stroke="#666666" points="312,-441 186,-441 186,-411 312,-411 312,-441"/>
<text text-anchor="start" x="194" y="-429" font-family="Helvetica,sans-Serif" font-size="10.00">Span::SceneViewPanel</text>
<text text-anchor="middle" x="249" y="-418" font-family="Helvetica,sans-Serif" font-size="10.00">::OnImGuiRender</text>
</a>
</g>
</g>
<!-- Node3&#45;&gt;Node9 -->
<g id="edge20_Node000003_Node000009" class="edge">
<title>Node3&#45;&gt;Node9</title>
<g id="a_edge20_Node000003_Node000009"><a xlink:title=" ">
<path fill="none" stroke="#63b8ff" d="M622.24,-560.18C606.95,-529.78 572.26,-470.71 523,-445 457.19,-410.66 370.01,-411.16 312.07,-416.76"/>
<polygon fill="#63b8ff" stroke="#63b8ff" points="619.15,-561.83 626.67,-569.3 625.45,-558.77 619.15,-561.83"/>
</a>
</g>
</g>
<!-- Node10 -->
<g id="Node000010" class="node">
<title>Node10</title>
<g id="a_Node000010"><a xlink:href="classSpan_1_1GuiManager.html#a66e894c749b02f869c0851b41fd23fec" target="_top" xlink:title="ImGuiの描画コマンドを発行し、フレームを終了します。">
<polygon fill="white" stroke="#666666" points="329.5,-769.5 168.5,-769.5 168.5,-750.5 329.5,-750.5 329.5,-769.5"/>
<text text-anchor="middle" x="249" y="-757.5" font-family="Helvetica,sans-Serif" font-size="10.00">Span::GuiManager::EndFrame</text>
</a>
</g>
</g>
<!-- Node3&#45;&gt;Node10 -->
<g id="edge12_Node000003_Node000010" class="edge">
<title>Node3&#45;&gt;Node10</title>
<g id="a_edge12_Node000003_Node000010"><a xlink:title=" ">
<path fill="none" stroke="#63b8ff" d="M619.79,-597.19C602.46,-623.7 566.56,-672.56 523,-698 487.64,-718.65 380.56,-738.98 311.49,-750.46"/>
<polygon fill="#63b8ff" stroke="#63b8ff" points="622.9,-598.83 625.32,-588.52 616.99,-595.07 622.9,-598.83"/>
</a>
</g>
</g>
<!-- Node12 -->
<g id="Node000012" class="node">
<title>Node12</title>
<g id="a_Node000012"><a xlink:href="classSpan_1_1HierarchyPanel.html#af958ff25d0ba0576ae4848bbd01b2031" target="_top" xlink:title="ドラッグ&amp;ドロップの受け入れ処理 (親子付け替え・並び替え)。">
<polygon fill="white" stroke="#666666" points="507.5,-618 387.5,-618 387.5,-588 507.5,-588 507.5,-618"/>
<text text-anchor="start" x="395.5" y="-606" font-family="Helvetica,sans-Serif" font-size="10.00">Span::HierarchyPanel</text>
<text text-anchor="middle" x="447.5" y="-595" font-family="Helvetica,sans-Serif" font-size="10.00">::HandleDragDrop</text>
</a>
</g>
</g>
<!-- Node3&#45;&gt;Node12 -->
<g id="edge14_Node000003_Node000012" class="edge">
<title>Node3&#45;&gt;Node12</title>
<g id="a_edge14_Node000003_Node000012"><a xlink:title=" ">
<path fill="none" stroke="#63b8ff" d="M559.49,-588.4C542.31,-590.66 524.15,-593.05 507.6,-595.23"/>
<polygon fill="#63b8ff" stroke="#63b8ff" points="560.01,-591.87 569.47,-587.09 559.1,-584.93 560.01,-591.87"/>
</a>
</g>
</g>
<!-- Node3&#45;&gt;Node13 -->
<g id="edge16_Node000003_Node000013" class="edge">
<title>Node3&#45;&gt;Node13</title>
<g id="a_edge16_Node000003_Node000013"><a xlink:title=" ">
<path fill="none" stroke="#63b8ff" d="M628.77,-559.36C622.14,-510.23 598.11,-380.92 523,-311 519.32,-307.57 515.15,-304.64 510.7,-302.12"/>
<polygon fill="#63b8ff" stroke="#63b8ff" points="625.3,-559.83 630.02,-569.32 632.25,-558.96 625.3,-559.83"/>
</a>
</g>
</g>
<!-- Node14 -->
<g id="Node000014" class="node">
<title>Node14</title>
<g id="a_Node000014"><a xlink:href="classSpan_1_1InspectorPanel.html#ae32fda6018a2e54f880e6708ac5b89fe" target="_top" xlink:title="毎フレーム呼ばれる描画関数。">
<polygon fill="white" stroke="#666666" points="506.5,-254 388.5,-254 388.5,-224 506.5,-224 506.5,-254"/>
<text text-anchor="start" x="396.5" y="-242" font-family="Helvetica,sans-Serif" font-size="10.00">Span::InspectorPanel</text>
<text text-anchor="middle" x="447.5" y="-231" font-family="Helvetica,sans-Serif" font-size="10.00">::OnImGuiRender</text>
</a>
</g>
</g>
<!-- Node3&#45;&gt;Node14 -->
<g id="edge19_Node000003_Node000014" class="edge">
<title>Node3&#45;&gt;Node14</title>
<g id="a_edge19_Node000003_Node000014"><a xlink:title=" ">
<path fill="none" stroke="#63b8ff" d="M630.14,-559.27C626.67,-504.29 609.29,-347.78 523,-263 518.25,-258.33 512.59,-254.57 506.54,-251.55"/>
<polygon fill="#63b8ff" stroke="#63b8ff" points="626.65,-559.61 630.69,-569.41 633.64,-559.23 626.65,-559.61"/>
</a>
</g>
</g>
<!-- Node15 -->
<g id="Node000015" class="node">
<title>Node15</title>
<g id="a_Node000015"><a xlink:href="classSpan_1_1CameraSystem.html#a7f4bf0245dedd7a6245ef352246f7391" target="_top" xlink:title="毎フレーム呼び出されます。ここにゲームロジックを記述します。">
<polygon fill="white" stroke="#666666" points="508.5,-398 386.5,-398 386.5,-368 508.5,-368 508.5,-398"/>
<text text-anchor="start" x="394.5" y="-386" font-family="Helvetica,sans-Serif" font-size="10.00">Span::CameraSystem</text>
<text text-anchor="middle" x="447.5" y="-375" font-family="Helvetica,sans-Serif" font-size="10.00">::OnUpdate</text>
</a>
</g>
</g>
<!-- Node3&#45;&gt;Node15 -->
<g id="edge21_Node000003_Node000015" class="edge">
<title>Node3&#45;&gt;Node15</title>
<g id="a_edge21_Node000003_Node000015"><a xlink:title=" ">
<path fill="none" stroke="#63b8ff" d="M623.38,-559.86C608.82,-525.6 573.93,-453.52 523,-412 516.22,-406.47 508.27,-401.91 500.13,-398.17"/>
<polygon fill="#63b8ff" stroke="#63b8ff" points="620.18,-561.29 627.24,-569.2 626.65,-558.62 620.18,-561.29"/>
</a>
</g>
</g>
<!-- Node16 -->
<g id="Node000016" class="node">
<title>Node16</title>
<g id="a_Node000016"><a xlink:href="classSpan_1_1EditorCameraSystem.html#ae933964fa5d0f299954c926cf63e091a" target="_top" xlink:title="毎フレーム呼び出されます。ここにゲームロジックを記述します。">
<polygon fill="white" stroke="#666666" points="522.5,-350 372.5,-350 372.5,-320 522.5,-320 522.5,-350"/>
<text text-anchor="start" x="380.5" y="-338" font-family="Helvetica,sans-Serif" font-size="10.00">Span::EditorCameraSystem</text>
<text text-anchor="middle" x="447.5" y="-327" font-family="Helvetica,sans-Serif" font-size="10.00">::OnUpdate</text>
</a>
</g>
</g>
<!-- Node3&#45;&gt;Node16 -->
<g id="edge22_Node000003_Node000016" class="edge">
<title>Node3&#45;&gt;Node16</title>
<g id="a_edge22_Node000003_Node000016"><a xlink:title=" ">
<path fill="none" stroke="#63b8ff" d="M626.88,-559.5C616.84,-516.81 587.11,-414.44 523,-359 518.99,-355.53 514.48,-352.57 509.7,-350.03"/>
<polygon fill="#63b8ff" stroke="#63b8ff" points="623.5,-560.45 629.11,-569.44 630.33,-558.92 623.5,-560.45"/>
</a>
</g>
</g>
<!-- Node17 -->
<g id="Node000017" class="node">
<title>Node17</title>
<g id="a_Node000017"><a xlink:href="classSpan_1_1RenderingSystem.html#aa0113a8f2b55129115c4da2c6ba449c4" target="_top" xlink:title="毎フレーム呼び出されます。ここにゲームロジックを記述します。">
<polygon fill="white" stroke="#666666" points="514,-855 381,-855 381,-825 514,-825 514,-855"/>
<text text-anchor="start" x="389" y="-843" font-family="Helvetica,sans-Serif" font-size="10.00">Span::RenderingSystem</text>
<text text-anchor="middle" x="447.5" y="-832" font-family="Helvetica,sans-Serif" font-size="10.00">::OnUpdate</text>
</a>
</g>
</g>
<!-- Node3&#45;&gt;Node17 -->
<g id="edge23_Node000003_Node000017" class="edge">
<title>Node3&#45;&gt;Node17</title>
<g id="a_edge23_Node000003_Node000017"><a xlink:title=" ">
<path fill="none" stroke="#63b8ff" d="M621.52,-597.88C607.42,-626.17 580.29,-681.31 559,-729 541.94,-767.21 553.76,-787.63 523,-816 519.3,-819.41 515.12,-822.33 510.67,-824.84"/>
<polygon fill="#63b8ff" stroke="#63b8ff" points="624.75,-599.25 626.09,-588.74 618.49,-596.12 624.75,-599.25"/>
</a>
</g>
</g>
<!-- Node18 -->
<g id="Node000018" class="node">
<title>Node18</title>
<g id="a_Node000018"><a xlink:href="classSpan_1_1FileDialog.html#aad45925d2e59cc65f1025f18104770e8" target="_top" xlink:title="ファイルを開くダイアログを表示します。">
<polygon fill="white" stroke="#666666" points="519.5,-806.5 375.5,-806.5 375.5,-787.5 519.5,-787.5 519.5,-806.5"/>
<text text-anchor="middle" x="447.5" y="-794.5" font-family="Helvetica,sans-Serif" font-size="10.00">Span::FileDialog::OpenFile</text>
</a>
</g>
</g>
<!-- Node3&#45;&gt;Node18 -->
<g id="edge24_Node000003_Node000018" class="edge">
<title>Node3&#45;&gt;Node18</title>
<g id="a_edge24_Node000003_Node000018"><a xlink:title=" ">
<path fill="none" stroke="#63b8ff" d="M621.9,-597.88C598.89,-645.33 539.06,-766.63 523,-779 518.57,-782.41 513.59,-785.19 508.36,-787.44"/>
<polygon fill="#63b8ff" stroke="#63b8ff" points="625.14,-599.23 626.34,-588.71 618.83,-596.18 625.14,-599.23"/>
</a>
</g>
</g>
<!-- Node19 -->
<g id="Node000019" class="node">
<title>Node19</title>
<g id="a_Node000019"><a xlink:href="classSpan_1_1FileDialog.html#a22c6ec8ccc13ed89cc79447ce8ff2468" target="_top" xlink:title="ファイルを保存するダイアログを表示します。">
<polygon fill="white" stroke="#666666" points="519,-769.5 376,-769.5 376,-750.5 519,-750.5 519,-769.5"/>
<text text-anchor="middle" x="447.5" y="-757.5" font-family="Helvetica,sans-Serif" font-size="10.00">Span::FileDialog::SaveFile</text>
</a>
</g>
</g>
<!-- Node3&#45;&gt;Node19 -->
<g id="edge26_Node000003_Node000019" class="edge">
<title>Node3&#45;&gt;Node19</title>
<g id="a_edge26_Node000003_Node000019"><a xlink:title=" ">
<path fill="none" stroke="#63b8ff" d="M622.89,-598.18C607.97,-631.18 573.05,-698.74 523,-736 514.61,-742.25 504.52,-746.91 494.52,-750.37"/>
<polygon fill="#63b8ff" stroke="#63b8ff" points="626.21,-599.32 627.02,-588.76 619.8,-596.51 626.21,-599.32"/>
</a>
</g>
</g>
<!-- Node4&#45;&gt;Node5 -->
<g id="edge4_Node000004_Node000005" class="edge">
<title>Node4&#45;&gt;Node5</title>
<g id="a_edge4_Node000004_Node000005"><a xlink:title=" ">
<path fill="none" stroke="#63b8ff" d="M377.23,-558.53C354.98,-559.66 330.55,-560.9 309.1,-561.99"/>
<polygon fill="#63b8ff" stroke="#63b8ff" points="377.47,-562.02 387.28,-558.01 377.11,-555.03 377.47,-562.02"/>
</a>
</g>
</g>
<!-- Node5&#45;&gt;Node5 -->
<g id="edge5_Node000005_Node000005" class="edge">
<title>Node5&#45;&gt;Node5</title>
<g id="a_edge5_Node000005_Node000005"><a xlink:title=" ">
<path fill="none" stroke="#63b8ff" d="M281.56,-590.6C277.11,-594.97 266.26,-598 249,-598 219.94,-598 209.04,-589.41 216.3,-580.28"/>
<polygon fill="#63b8ff" stroke="#63b8ff" points="285.06,-590.32 281.7,-580.28 278.06,-590.23 285.06,-590.32"/>
</a>
</g>
</g>
<!-- Node5&#45;&gt;Node6 -->
<g id="edge6_Node000005_Node000006" class="edge">
<title>Node5&#45;&gt;Node6</title>
<g id="a_edge6_Node000005_Node000006"><a xlink:title=" ">
<path fill="none" stroke="#63b8ff" d="M202.25,-583.9C170.87,-596.86 129.8,-613.82 100.59,-625.89"/>
<polygon fill="#63b8ff" stroke="#63b8ff" points="203.74,-587.07 211.65,-580.02 201.07,-580.6 203.74,-587.07"/>
</a>
</g>
</g>
<!-- Node7&#45;&gt;Node6 -->
<g id="edge8_Node000007_Node000006" class="edge">
<title>Node7&#45;&gt;Node6</title>
<g id="a_edge8_Node000007_Node000006"><a xlink:title=" ">
<path fill="none" stroke="#63b8ff" d="M151.78,-641C142.06,-641 132.39,-641 123.23,-641"/>
<polygon fill="#63b8ff" stroke="#63b8ff" points="151.93,-644.5 161.93,-641 151.93,-637.5 151.93,-644.5"/>
</a>
</g>
</g>
<!-- Node8&#45;&gt;Node9 -->
<g id="edge11_Node000008_Node000009" class="edge">
<title>Node8&#45;&gt;Node9</title>
<g id="a_edge11_Node000008_Node000009"><a xlink:title=" ">
<path fill="none" stroke="#63b8ff" d="M374.44,-453.23C353.99,-448.76 331.91,-443.92 312.11,-439.59"/>
<polygon fill="#63b8ff" stroke="#63b8ff" points="373.81,-456.68 384.33,-455.39 375.31,-449.84 373.81,-456.68"/>
</a>
</g>
</g>
<!-- Node11 -->
<g id="Node000011" class="node">
<title>Node11</title>
<g id="a_Node000011"><a xlink:href="classSpan_1_1Application.html#a9dc7321cf43512eac3757a83fbefbaa9" target="_top" xlink:title="アプリケーションを実行します (ブロック関数)。">
<polygon fill="white" stroke="#666666" points="126,-769.5 0,-769.5 0,-750.5 126,-750.5 126,-769.5"/>
<text text-anchor="middle" x="63" y="-757.5" font-family="Helvetica,sans-Serif" font-size="10.00">Span::Application::Run</text>
</a>
</g>
</g>
<!-- Node10&#45;&gt;Node11 -->
<g id="edge13_Node000010_Node000011" class="edge">
<title>Node10&#45;&gt;Node11</title>
<g id="a_edge13_Node000010_Node000011"><a xlink:title=" ">
<path fill="none" stroke="#63b8ff" d="M158.35,-760C147.4,-760 136.42,-760 126.01,-760"/>
<polygon fill="#63b8ff" stroke="#63b8ff" points="158.37,-763.5 168.37,-760 158.37,-756.5 158.37,-763.5"/>
</a>
</g>
</g>
<!-- Node12&#45;&gt;Node5 -->
<g id="edge15_Node000012_Node000005" class="edge">
<title>Node12&#45;&gt;Node5</title>
<g id="a_edge15_Node000012_Node000005"><a xlink:title=" ">
<path fill="none" stroke="#63b8ff" d="M377.23,-589.6C354.98,-585.3 330.55,-580.58 309.1,-576.43"/>
<polygon fill="#63b8ff" stroke="#63b8ff" points="376.79,-593.08 387.28,-591.55 378.12,-586.21 376.79,-593.08"/>
</a>
</g>
</g>
<!-- Node13&#45;&gt;Node9 -->
<g id="edge17_Node000013_Node000009" class="edge">
<title>Node13&#45;&gt;Node9</title>
<g id="a_edge17_Node000013_Node000009"><a xlink:title=" ">
<path fill="none" stroke="#63b8ff" d="M380.95,-306.23C377.87,-307.72 374.87,-309.31 372,-311 325.64,-338.4 282.57,-386.25 262.25,-410.69"/>
<polygon fill="#63b8ff" stroke="#63b8ff" points="382.66,-309.3 390.39,-302.05 379.83,-302.9 382.66,-309.3"/>
</a>
</g>
</g>
<!-- Node18&#45;&gt;Node10 -->
<g id="edge25_Node000018_Node000010" class="edge">
<title>Node18&#45;&gt;Node10</title>
<g id="a_edge25_Node000018_Node000010"><a xlink:title=" ">
<path fill="none" stroke="#63b8ff" d="M386.06,-785.62C358.74,-780.48 326.83,-774.47 300.77,-769.56"/>
<polygon fill="#63b8ff" stroke="#63b8ff" points="385.42,-789.06 395.9,-787.47 386.72,-782.18 385.42,-789.06"/>
</a>
</g>
</g>
<!-- Node19&#45;&gt;Node10 -->
<g id="edge27_Node000019_Node000010" class="edge">
<title>Node19&#45;&gt;Node10</title>
<g id="a_edge27_Node000019_Node000010"><a xlink:title=" ">
<path fill="none" stroke="#63b8ff" d="M365.54,-760C353.7,-760 341.52,-760 329.71,-760"/>
<polygon fill="#63b8ff" stroke="#63b8ff" points="365.84,-763.5 375.84,-760 365.84,-756.5 365.84,-763.5"/>
</a>
</g>
</g>
<!-- Node21 -->
<g id="Node000021" class="node">
<title>Node21</title>
<g id="a_Node000021"><a xlink:href="namespaceSpan.html#a3f4b8561d46e69596ba6a7c3177a92e7" target="_top" xlink:title=" ">
<polygon fill="white" stroke="#666666" points="518,-892.5 377,-892.5 377,-873.5 518,-873.5 518,-892.5"/>
<text text-anchor="middle" x="447.5" y="-880.5" font-family="Helvetica,sans-Serif" font-size="10.00">Span::ConsoleCtrlHandler</text>
</a>
</g>
</g>
<!-- Node20&#45;&gt;Node21 -->
<g id="edge29_Node000020_Node000021" class="edge">
<title>Node20&#45;&gt;Node21</title>
<g id="a_edge29_Node000020_Node000021"><a xlink:title=" ">
<path fill="none" stroke="#63b8ff" d="M576.42,-855.66C549.78,-861.36 518.15,-868.12 493,-873.49"/>
<polygon fill="#63b8ff" stroke="#63b8ff" points="577.31,-859.05 586.36,-853.54 575.84,-852.21 577.31,-859.05"/>
</a>
</g>
</g>
<!-- Node21&#45;&gt;Node2 -->
<g id="edge30_Node000021_Node000002" class="edge">
<title>Node21&#45;&gt;Node2</title>
<g id="a_edge30_Node000021_Node000002"><a xlink:title=" ">
<path fill="none" stroke="#63b8ff" d="M511.32,-869.8C515.38,-868.09 519.31,-866.17 523,-864 543.06,-852.22 540.92,-840.64 559,-826 638.93,-761.25 746.34,-702.83 798.11,-676.21"/>
<polygon fill="#63b8ff" stroke="#63b8ff" points="509.82,-866.62 501.67,-873.39 512.26,-873.18 509.82,-866.62"/>
</a>
</g>
</g>
<!-- Node22&#45;&gt;Node14 -->
<g id="edge32_Node000022_Node000014" class="edge">
<title>Node22&#45;&gt;Node14</title>
<g id="a_edge32_Node000022_Node000014"><a xlink:title=" ">
<path fill="none" stroke="#63b8ff" d="M561.76,-239C543.6,-239 524.2,-239 506.67,-239"/>
<polygon fill="#63b8ff" stroke="#63b8ff" points="562,-242.5 572,-239 562,-235.5 562,-242.5"/>
</a>
</g>
</g>
<!-- Node24 -->
<g id="Node000024" class="node">
<title>Node24</title>
<g id="a_Node000024"><a xlink:href="classSpan_1_1ProjectBrowserPanel.html#a3877e936c3c6ee4b522ea63dc65dfd3b" target="_top" xlink:title="右側のファイル/アセット一覧エリアを描画します。">
<polygon fill="white" stroke="#666666" points="705,-190 559,-190 559,-160 705,-160 705,-190"/>
<text text-anchor="start" x="567" y="-178" font-family="Helvetica,sans-Serif" font-size="10.00">Span::ProjectBrowserPanel</text>
<text text-anchor="middle" x="632" y="-167" font-family="Helvetica,sans-Serif" font-size="10.00">::DrawContentArea</text>
</a>
</g>
</g>
<!-- Node23&#45;&gt;Node24 -->
<g id="edge34_Node000023_Node000024" class="edge">
<title>Node23&#45;&gt;Node24</title>
<g id="a_edge34_Node000023_Node000024"><a xlink:title=" ">
<path fill="none" stroke="#63b8ff" d="M746,-175C732.47,-175 718.53,-175 705.27,-175"/>
<polygon fill="#63b8ff" stroke="#63b8ff" points="746.26,-178.5 756.26,-175 746.26,-171.5 746.26,-178.5"/>
</a>
</g>
</g>
<!-- Node25 -->
<g id="Node000025" class="node">
<title>Node25</title>
<g id="a_Node000025"><a xlink:href="classSpan_1_1ProjectBrowserPanel.html#ad259c8cf9a9c066350b699f9cd14438e" target="_top" xlink:title="GUI描画の更新処理">
<polygon fill="white" stroke="#666666" points="520.5,-190 374.5,-190 374.5,-160 520.5,-160 520.5,-190"/>
<text text-anchor="start" x="382.5" y="-178" font-family="Helvetica,sans-Serif" font-size="10.00">Span::ProjectBrowserPanel</text>
<text text-anchor="middle" x="447.5" y="-167" font-family="Helvetica,sans-Serif" font-size="10.00">::OnImGuiRender</text>
</a>
</g>
</g>
<!-- Node24&#45;&gt;Node25 -->
<g id="edge35_Node000024_Node000025" class="edge">
<title>Node24&#45;&gt;Node25</title>
<g id="a_edge35_Node000024_Node000025"><a xlink:title=" ">
<path fill="none" stroke="#63b8ff" d="M548.78,-175C539.42,-175 529.92,-175 520.7,-175"/>
<polygon fill="#63b8ff" stroke="#63b8ff" points="548.87,-178.5 558.87,-175 548.87,-171.5 548.87,-178.5"/>
</a>
</g>
</g>
<!-- Node26&#45;&gt;Node22 -->
<g id="edge37_Node000026_Node000022" class="edge">
<title>Node26&#45;&gt;Node22</title>
<g id="a_edge37_Node000026_Node000022"><a xlink:title=" ">
<path fill="none" stroke="#63b8ff" d="M760.36,-253.33C738.17,-250.84 713.74,-248.09 692.26,-245.67"/>
<polygon fill="#63b8ff" stroke="#63b8ff" points="760.04,-256.82 770.37,-254.46 760.83,-249.86 760.04,-256.82"/>
</a>
</g>
</g>
<!-- Node28 -->
<g id="Node000028" class="node">
<title>Node28</title>
<g id="a_Node000028"><a xlink:href="namespaceSpan_1_1Internal.html#ae18b71c51d88d168549fe9542ed952bb" target="_top" xlink:title="型に応じた描画ヘルパー関数">
<polygon fill="white" stroke="#666666" points="701.5,-104.5 562.5,-104.5 562.5,-85.5 701.5,-85.5 701.5,-104.5"/>
<text text-anchor="middle" x="632" y="-92.5" font-family="Helvetica,sans-Serif" font-size="10.00">Span::Internal::DrawField</text>
</a>
</g>
</g>
<!-- Node27&#45;&gt;Node28 -->
<g id="edge39_Node000027_Node000028" class="edge">
<title>Node27&#45;&gt;Node28</title>
<g id="a_edge39_Node000027_Node000028"><a xlink:title=" ">
<path fill="none" stroke="#63b8ff" d="M768.01,-120.55C740.91,-115.42 709.32,-109.44 683.51,-104.56"/>
<polygon fill="#63b8ff" stroke="#63b8ff" points="767.68,-124.05 778.15,-122.47 768.98,-117.17 767.68,-124.05"/>
</a>
</g>
</g>
<!-- Node29 -->
<g id="Node000029" class="node">
<title>Node29</title>
<g id="a_Node000029"><a xlink:href="structSpan_1_1Internal_1_1ImGuiVisitor.html#a966eba59899c3c97a93ed58acb5612a8" target="_top" xlink:title=" ">
<polygon fill="white" stroke="#666666" points="523,-110 372,-110 372,-80 523,-80 523,-110"/>
<text text-anchor="start" x="380" y="-98" font-family="Helvetica,sans-Serif" font-size="10.00">Span::Internal::ImGuiVisitor</text>
<text text-anchor="middle" x="447.5" y="-87" font-family="Helvetica,sans-Serif" font-size="10.00">::Visit</text>
</a>
</g>
</g>
<!-- Node28&#45;&gt;Node29 -->
<g id="edge40_Node000028_Node000029" class="edge">
<title>Node28&#45;&gt;Node29</title>
<g id="a_edge40_Node000028_Node000029"><a xlink:title=" ">
<path fill="none" stroke="#63b8ff" d="M552.01,-95C542.47,-95 532.75,-95 523.28,-95"/>
<polygon fill="#63b8ff" stroke="#63b8ff" points="552.26,-98.5 562.26,-95 552.26,-91.5 552.26,-98.5"/>
</a>
</g>
</g>
<!-- Node30&#45;&gt;Node28 -->
<g id="edge42_Node000030_Node000028" class="edge">
<title>Node30&#45;&gt;Node28</title>
<g id="a_edge42_Node000030_Node000028"><a xlink:title=" ">
<path fill="none" stroke="#63b8ff" d="M737.71,-95C725.57,-95 713.29,-95 701.62,-95"/>
<polygon fill="#63b8ff" stroke="#63b8ff" points="737.85,-98.5 747.85,-95 737.85,-91.5 737.85,-98.5"/>
</a>
</g>
</g>
<!-- Node31&#45;&gt;Node28 -->
<g id="edge44_Node000031_Node000028" class="edge">
<title>Node31&#45;&gt;Node28</title>
<g id="a_edge44_Node000031_Node000028"><a xlink:title=" ">
<path fill="none" stroke="#63b8ff" d="M768.01,-69.45C740.91,-74.58 709.32,-80.56 683.51,-85.44"/>
<polygon fill="#63b8ff" stroke="#63b8ff" points="768.98,-72.83 778.15,-67.53 767.68,-65.95 768.98,-72.83"/>
</a>
</g>
</g>
</g>
</svg>
