<?xml version="1.0" encoding="UTF-8" standalone="no"?>
<!DOCTYPE svg PUBLIC "-//W3C//DTD SVG 1.1//EN"
 "http://www.w3.org/Graphics/SVG/1.1/DTD/svg11.dtd">
<!-- Generated by graphviz version 2.43.0 (0)
 -->
<!-- Title: Span::ProjectBrowserPanel Pages: 1 -->
<svg width="156pt" height="577pt"
 viewBox="0.00 0.00 156.00 577.00" xmlns="http://www.w3.org/2000/svg" xmlns:xlink="http://www.w3.org/1999/xlink">
<g id="graph0" class="graph" transform="scale(1 1) rotate(0) translate(4 573)">
<title>Span::ProjectBrowserPanel</title>
<!-- Node1 -->
<g id="Node000001" class="node">
<title>Node1</title>
<g id="a_Node000001"><a xlink:title="ã‚¢ã‚»ãƒƒãƒˆãƒ‡ã‚£ãƒ¬ã‚¯ãƒˆãƒªã®å†…å®¹ã‚’è¡¨ç¤ºã—ã€ãƒ‰ãƒ©ãƒƒã‚°&amp;ãƒ‰ãƒ­ãƒƒãƒ—æ“ä½œã‚’æä¾›ã™ã‚‹ã‚¨ãƒ‡ã‚£ã‚¿ãƒ‘ãƒãƒ«ã€‚">
<polygon fill="#999999" stroke="transparent" points="148,-394 0,-394 0,0 148,0 148,-394"/>
<text text-anchor="start" x="9" y="-382" font-family="Helvetica,sans-Serif" font-size="10.00">Span::ProjectBrowserPanel</text>
<text text-anchor="start" x="6.5" y="-367" font-family="Helvetica,sans-Serif" font-size="10.00">&#45;</text>
<text text-anchor="start" x="17" y="-367" font-family="Helvetica,sans-Serif" font-size="10.00">m_BaseDirectory</text>
<text text-anchor="start" x="6.5" y="-352" font-family="Helvetica,sans-Serif" font-size="10.00">&#45;</text>
<text text-anchor="start" x="17" y="-352" font-family="Helvetica,sans-Serif" font-size="10.00">m_CurrentDirectory</text>
<text text-anchor="start" x="6.5" y="-337" font-family="Helvetica,sans-Serif" font-size="10.00">&#45;</text>
<text text-anchor="start" x="17" y="-337" font-family="Helvetica,sans-Serif" font-size="10.00">m_ThumbnailSize</text>
<text text-anchor="start" x="6.5" y="-322" font-family="Helvetica,sans-Serif" font-size="10.00">&#45;</text>
<text text-anchor="start" x="17" y="-322" font-family="Helvetica,sans-Serif" font-size="10.00">m_Padding</text>
<text text-anchor="start" x="6.5" y="-307" font-family="Helvetica,sans-Serif" font-size="10.00">&#45;</text>
<text text-anchor="start" x="17" y="-307" font-family="Helvetica,sans-Serif" font-size="10.00">m_SearchFilter</text>
<text text-anchor="start" x="6.5" y="-292" font-family="Helvetica,sans-Serif" font-size="10.00">&#45;</text>
<text text-anchor="start" x="17" y="-292" font-family="Helvetica,sans-Serif" font-size="10.00">m_SelectedItems</text>
<text text-anchor="start" x="6.5" y="-277" font-family="Helvetica,sans-Serif" font-size="10.00">&#45;</text>
<text text-anchor="start" x="17" y="-277" font-family="Helvetica,sans-Serif" font-size="10.00">m_IsRenaming</text>
<text text-anchor="start" x="6.5" y="-262" font-family="Helvetica,sans-Serif" font-size="10.00">&#45;</text>
<text text-anchor="start" x="17" y="-262" font-family="Helvetica,sans-Serif" font-size="10.00">m_RenameBuffer</text>
<text text-anchor="start" x="6.5" y="-247" font-family="Helvetica,sans-Serif" font-size="10.00">&#45;</text>
<text text-anchor="start" x="17" y="-247" font-family="Helvetica,sans-Serif" font-size="10.00">m_RenamingPath</text>
<text text-anchor="start" x="6.5" y="-232" font-family="Helvetica,sans-Serif" font-size="10.00">&#45;</text>
<text text-anchor="start" x="17" y="-232" font-family="Helvetica,sans-Serif" font-size="10.00">m_LastSelectedPath</text>
<text text-anchor="start" x="6.5" y="-217" font-family="Helvetica,sans-Serif" font-size="10.00">&#45;</text>
<text text-anchor="start" x="17" y="-217" font-family="Helvetica,sans-Serif" font-size="10.00">m_ShowDeleteDialog</text>
<text text-anchor="start" x="4" y="-202" font-family="Helvetica,sans-Serif" font-size="10.00">+</text>
<text text-anchor="start" x="17" y="-202" font-family="Helvetica,sans-Serif" font-size="10.00">ProjectBrowserPanel()</text>
<text text-anchor="start" x="4" y="-187" font-family="Helvetica,sans-Serif" font-size="10.00">+</text>
<text text-anchor="start" x="17" y="-187" font-family="Helvetica,sans-Serif" font-size="10.00">~ProjectBrowserPanel()</text>
<text text-anchor="start" x="4" y="-172" font-family="Helvetica,sans-Serif" font-size="10.00">+</text>
<text text-anchor="start" x="17" y="-172" font-family="Helvetica,sans-Serif" font-size="10.00">OnImGuiRender()</text>
<text text-anchor="start" x="6.5" y="-157" font-family="Helvetica,sans-Serif" font-size="10.00">&#45;</text>
<text text-anchor="start" x="17" y="-157" font-family="Helvetica,sans-Serif" font-size="10.00">DrawNavBar()</text>
<text text-anchor="start" x="6.5" y="-142" font-family="Helvetica,sans-Serif" font-size="10.00">&#45;</text>
<text text-anchor="start" x="17" y="-142" font-family="Helvetica,sans-Serif" font-size="10.00">DrawDirectoryTree()</text>
<text text-anchor="start" x="6.5" y="-127" font-family="Helvetica,sans-Serif" font-size="10.00">&#45;</text>
<text text-anchor="start" x="17" y="-127" font-family="Helvetica,sans-Serif" font-size="10.00">DrawContentArea()</text>
<text text-anchor="start" x="6.5" y="-112" font-family="Helvetica,sans-Serif" font-size="10.00">&#45;</text>
<text text-anchor="start" x="17" y="-112" font-family="Helvetica,sans-Serif" font-size="10.00">DrawContextMenu()</text>
<text text-anchor="start" x="6.5" y="-97" font-family="Helvetica,sans-Serif" font-size="10.00">&#45;</text>
<text text-anchor="start" x="17" y="-97" font-family="Helvetica,sans-Serif" font-size="10.00">DrawEntryItem()</text>
<text text-anchor="start" x="6.5" y="-82" font-family="Helvetica,sans-Serif" font-size="10.00">&#45;</text>
<text text-anchor="start" x="17" y="-82" font-family="Helvetica,sans-Serif" font-size="10.00">DrawTreeNode()</text>
<text text-anchor="start" x="6.5" y="-67" font-family="Helvetica,sans-Serif" font-size="10.00">&#45;</text>
<text text-anchor="start" x="17" y="-67" font-family="Helvetica,sans-Serif" font-size="10.00">SelectItem()</text>
<text text-anchor="start" x="6.5" y="-52" font-family="Helvetica,sans-Serif" font-size="10.00">&#45;</text>
<text text-anchor="start" x="17" y="-52" font-family="Helvetica,sans-Serif" font-size="10.00">SelectRange()</text>
<text text-anchor="start" x="6.5" y="-37" font-family="Helvetica,sans-Serif" font-size="10.00">&#45;</text>
<text text-anchor="start" x="17" y="-37" font-family="Helvetica,sans-Serif" font-size="10.00">CreateFileFromTemplate()</text>
<text text-anchor="start" x="6.5" y="-22" font-family="Helvetica,sans-Serif" font-size="10.00">&#45;</text>
<text text-anchor="start" x="17" y="-22" font-family="Helvetica,sans-Serif" font-size="10.00">CreateComponentScript()</text>
<text text-anchor="start" x="6.5" y="-7" font-family="Helvetica,sans-Serif" font-size="10.00">&#45;</text>
<text text-anchor="start" x="17" y="-7" font-family="Helvetica,sans-Serif" font-size="10.00">CreateSystemScript()</text>
<polygon fill="#666666" stroke="#666666" points="0,-377 0,-377 148,-377 148,-377 0,-377"/>
<polygon fill="#666666" stroke="#666666" points="0,-212 0,-212 15,-212 15,-212 0,-212"/>
<polygon fill="#666666" stroke="#666666" points="15,-212 15,-212 148,-212 148,-212 15,-212"/>
<polygon fill="none" stroke="#666666" points="0,0 0,-394 148,-394 148,0 0,0"/>
</a>
</g>
</g>
<!-- Node2 -->
<g id="Node000002" class="node">
<title>Node2</title>
<g id="a_Node000002"><a xlink:href="classSpan_1_1EditorPanel.html" target="_top" xlink:title="ðŸ–¼ å…¨ã¦ã®ã‚¨ãƒ‡ã‚£ã‚¿ãƒ‘ãƒãƒ«ã®åŸºåº•ã‚¯ãƒ©ã‚¹ã€‚">
<polygon fill="white" stroke="transparent" points="127,-569 21,-569 21,-430 127,-430 127,-569"/>
<text text-anchor="start" x="31.5" y="-556.5" font-family="Helvetica,sans-Serif" font-size="10.00">Span::EditorPanel</text>
<text text-anchor="start" x="25" y="-541.5" font-family="Helvetica,sans-Serif" font-size="10.00">+</text>
<text text-anchor="start" x="38" y="-541.5" font-family="Helvetica,sans-Serif" font-size="10.00">title</text>
<text text-anchor="start" x="25" y="-526.5" font-family="Helvetica,sans-Serif" font-size="10.00">+</text>
<text text-anchor="start" x="38" y="-526.5" font-family="Helvetica,sans-Serif" font-size="10.00">isOpen</text>
<text text-anchor="start" x="25" y="-511.5" font-family="Helvetica,sans-Serif" font-size="10.00">+</text>
<text text-anchor="start" x="38" y="-511.5" font-family="Helvetica,sans-Serif" font-size="10.00">EditorPanel()</text>
<text text-anchor="start" x="25" y="-496.5" font-family="Helvetica,sans-Serif" font-size="10.00">+</text>
<text text-anchor="start" x="38" y="-496.5" font-family="Helvetica,sans-Serif" font-size="10.00">~EditorPanel()</text>
<text text-anchor="start" x="25" y="-481.5" font-family="Helvetica,sans-Serif" font-size="10.00">+</text>
<text text-anchor="start" x="38" y="-481.5" font-family="Helvetica,sans-Serif" font-size="10.00">OnImGuiRender()</text>
<text text-anchor="start" x="25" y="-466.5" font-family="Helvetica,sans-Serif" font-size="10.00">+</text>
<text text-anchor="start" x="38" y="-466.5" font-family="Helvetica,sans-Serif" font-size="10.00">IsOpen()</text>
<text text-anchor="start" x="25" y="-451.5" font-family="Helvetica,sans-Serif" font-size="10.00">+</text>
<text text-anchor="start" x="38" y="-451.5" font-family="Helvetica,sans-Serif" font-size="10.00">Open()</text>
<text text-anchor="start" x="25" y="-436.5" font-family="Helvetica,sans-Serif" font-size="10.00">+</text>
<text text-anchor="start" x="38" y="-436.5" font-family="Helvetica,sans-Serif" font-size="10.00">Close()</text>
<polygon fill="#666666" stroke="#666666" points="21,-551.5 21,-551.5 127,-551.5 127,-551.5 21,-551.5"/>
<polygon fill="#666666" stroke="#666666" points="21,-521.5 21,-521.5 36,-521.5 36,-521.5 21,-521.5"/>
<polygon fill="#666666" stroke="#666666" points="36,-521.5 36,-521.5 127,-521.5 127,-521.5 36,-521.5"/>
<polygon fill="none" stroke="#666666" points="21,-430 21,-569 127,-569 127,-430 21,-430"/>
</a>
</g>
</g>
<!-- Node2&#45;&gt;Node1 -->
<g id="edge1_Node000001_Node000002" class="edge">
<title>Node2&#45;&gt;Node1</title>
<g id="a_edge1_Node000001_Node000002"><a xlink:title=" ">
<path fill="none" stroke="#63b8ff" d="M74,-419.77C74,-411.57 74,-403.01 74,-394.22"/>
<polygon fill="none" stroke="#63b8ff" points="70.5,-419.94 74,-429.94 77.5,-419.94 70.5,-419.94"/>
</a>
</g>
</g>
</g>
</svg>
