<?xml version="1.0" encoding="UTF-8" standalone="no"?>
<!DOCTYPE svg PUBLIC "-//W3C//DTD SVG 1.1//EN"
 "http://www.w3.org/Graphics/SVG/1.1/DTD/svg11.dtd">
<!-- Generated by graphviz version 2.43.0 (0)
 -->
<!-- Title: Span::AssetSerializer::DeduceTypeFromExtension Pages: 1 -->
<!--zoomable 692 -->

<svg id="main" version="1.1" xmlns="http://www.w3.org/2000/svg" xmlns:xlink="http://www.w3.org/1999/xlink" xml:space="preserve" onload="init(evt)">

<style type="text/css"><![CDATA[
.node, .edge {opacity: 0.7;}
.node.selected, .edge.selected {opacity: 1;}
.edge:hover path { stroke: red; }
.edge:hover polygon { stroke: red; fill: red; }
]]></style>

<defs>
  <circle id="rim" cx="0" cy="0" r="7"/>
  <circle id="rim2" cx="0" cy="0" r="3.5"/>
  <g id="zoomPlus">
    <use xlink:href="#rim" fill="#404040"><set attributeName="fill" to="#808080" begin="zoomplus.mouseover" end="zoomplus.mouseout"/></use>
    <path d="M-4,0h8M0,-4v8" fill="none" stroke="white" stroke-width="1.5" pointer-events="none"/>
  </g>
  <g id="zoomMin">
    <use xlink:href="#rim" fill="#404040"><set attributeName="fill" to="#808080" begin="zoomminus.mouseover" end="zoomminus.mouseout"/></use>
    <path d="M-4,0h8" fill="none" stroke="white" stroke-width="1.5" pointer-events="none"/>
  </g>
  <g id="arrowUp" transform="translate(30 24)">
    <use xlink:href="#rim"/>
    <path pointer-events="none" fill="none" stroke="white" stroke-width="1.5" d="M0,-3.0v7 M-2.5,-0.5L0,-3.0L2.5,-0.5"/>
  </g>
  <g id="arrowRight" transform="rotate(90) translate(36 -43)">
    <use xlink:href="#rim"/>
    <path pointer-events="none" fill="none" stroke="white" stroke-width="1.5" d="M0,-3.0v7 M-2.5,-0.5L0,-3.0L2.5,-0.5"/>
  </g>
  <g id="arrowDown" transform="rotate(180) translate(-30 -48)">
    <use xlink:href="#rim"/>
    <path pointer-events="none" fill="none" stroke="white" stroke-width="1.5" d="M0,-3.0v7 M-2.5,-0.5L0,-3.0L2.5,-0.5"/>
  </g>
  <g id="arrowLeft" transform="rotate(270) translate(-36 17)">
    <use xlink:href="#rim"/>
    <path pointer-events="none" fill="none" stroke="white" stroke-width="1.5" d="M0,-3.0v7 M-2.5,-0.5L0,-3.0L2.5,-0.5"/>
  </g>
  <g id="resetDef">
    <use xlink:href="#rim2" fill="#404040"><set attributeName="fill" to="#808080" begin="reset.mouseover" end="reset.mouseout"/></use>
  </g>
</defs>
<script type="application/ecmascript">
var viewWidth = 1651;
var viewHeight = 692;
var sectionId = 'dynsection-1';
</script>
<script type="application/ecmascript" xlink:href="svg.min.js"/>
<svg id="graph" class="graph">
<g id="viewport">
<title>Span::AssetSerializer::DeduceTypeFromExtension</title>
<!-- Node1 -->
<g id="Node000001" class="node">
<title>Node1</title>
<g id="a_Node000001"><a xlink:title="拡張子から汗ッとタイプを推論します。">
<polygon fill="#999999" stroke="#666666" points="1643,-104 1488,-104 1488,-74 1643,-74 1643,-104"/>
<text text-anchor="start" x="1496" y="-92" font-family="Helvetica,sans-Serif" font-size="10.00">Span::AssetSerializer</text>
<text text-anchor="middle" x="1565.5" y="-81" font-family="Helvetica,sans-Serif" font-size="10.00">::DeduceTypeFromExtension</text>
</a>
</g>
</g>
<!-- Node2 -->
<g id="Node000002" class="node">
<title>Node2</title>
<g id="a_Node000002"><a xlink:href="classSpan_1_1AssetSerializer.html#adea72d3eb1434b36473f6e0d38396451" target="_top" xlink:title="指定したアセットのメタデータを取得します。 .metaファイルが存在しない場合は、新規にGUIDを生成して作成します。">
<polygon fill="white" stroke="#666666" points="1452,-104 1316,-104 1316,-74 1452,-74 1452,-104"/>
<text text-anchor="start" x="1324" y="-92" font-family="Helvetica,sans-Serif" font-size="10.00">Span::AssetSerializer</text>
<text text-anchor="middle" x="1384" y="-81" font-family="Helvetica,sans-Serif" font-size="10.00">::LoadOrCreateMetadata</text>
</a>
</g>
</g>
<!-- Node1&#45;&gt;Node2 -->
<g id="edge1_Node000001_Node000002" class="edge">
<title>Node1&#45;&gt;Node2</title>
<g id="a_edge1_Node000001_Node000002"><a xlink:title=" ">
<path fill="none" stroke="#63b8ff" d="M1477.75,-89C1469.11,-89 1460.43,-89 1452.04,-89"/>
<polygon fill="#63b8ff" stroke="#63b8ff" points="1477.86,-92.5 1487.86,-89 1477.86,-85.5 1477.86,-92.5"/>
</a>
</g>
</g>
<!-- Node3 -->
<g id="Node000003" class="node">
<title>Node3</title>
<g id="a_Node000003"><a xlink:href="classSpan_1_1AssetManager.html#a6d21e48b9d53035bbd83c5ae91ec083b" target="_top" xlink:title="パスでマテリアルを取得 (キャッシュ対応)。">
<polygon fill="white" stroke="#666666" points="1130,-174 1014,-174 1014,-144 1130,-144 1130,-174"/>
<text text-anchor="start" x="1022" y="-162" font-family="Helvetica,sans-Serif" font-size="10.00">Span::AssetManager</text>
<text text-anchor="middle" x="1072" y="-151" font-family="Helvetica,sans-Serif" font-size="10.00">::GetMaterial</text>
</a>
</g>
</g>
<!-- Node2&#45;&gt;Node3 -->
<g id="edge2_Node000002_Node000003" class="edge">
<title>Node2&#45;&gt;Node3</title>
<g id="a_edge2_Node000002_Node000003"><a xlink:title=" ">
<path fill="none" stroke="#63b8ff" d="M1315.31,-106.47C1303.56,-109.4 1291.44,-112.34 1280,-115 1229.54,-126.73 1171.87,-138.88 1130.24,-147.44"/>
<polygon fill="#63b8ff" stroke="#63b8ff" points="1316.23,-109.85 1325.08,-104.03 1314.53,-103.06 1316.23,-109.85"/>
</a>
</g>
</g>
<!-- Node4 -->
<g id="Node000004" class="node">
<title>Node4</title>
<g id="a_Node000004"><a xlink:href="classSpan_1_1AssetManager.html#ade6d0e8b7b3467e28cfd5af72896c89b" target="_top" xlink:title="メッシュデータを取得します (キャッシュ対応)。">
<polygon fill="white" stroke="#666666" points="1130,-126 1014,-126 1014,-96 1130,-96 1130,-126"/>
<text text-anchor="start" x="1022" y="-114" font-family="Helvetica,sans-Serif" font-size="10.00">Span::AssetManager</text>
<text text-anchor="middle" x="1072" y="-103" font-family="Helvetica,sans-Serif" font-size="10.00">::GetMesh</text>
</a>
</g>
</g>
<!-- Node2&#45;&gt;Node4 -->
<g id="edge3_Node000002_Node000004" class="edge">
<title>Node2&#45;&gt;Node4</title>
<g id="a_edge3_Node000002_Node000004"><a xlink:title=" ">
<path fill="none" stroke="#63b8ff" d="M1305.44,-94.5C1251.04,-98.36 1179.52,-103.44 1130.25,-106.94"/>
<polygon fill="#63b8ff" stroke="#63b8ff" points="1306.01,-97.97 1315.73,-93.77 1305.51,-90.99 1306.01,-97.97"/>
</a>
</g>
</g>
<!-- Node5 -->
<g id="Node000005" class="node">
<title>Node5</title>
<g id="a_Node000005"><a xlink:href="classSpan_1_1AssetManager.html#a93b56de9af3fadbc0ff27f1e21e44291" target="_top" xlink:title="テクスチャを取得します (キャッシュにあればそれを返し、無ければロードします)。">
<polygon fill="white" stroke="#666666" points="1130,-30 1014,-30 1014,0 1130,0 1130,-30"/>
<text text-anchor="start" x="1022" y="-18" font-family="Helvetica,sans-Serif" font-size="10.00">Span::AssetManager</text>
<text text-anchor="middle" x="1072" y="-7" font-family="Helvetica,sans-Serif" font-size="10.00">::GetTexture</text>
</a>
</g>
</g>
<!-- Node2&#45;&gt;Node5 -->
<g id="edge4_Node000002_Node000005" class="edge">
<title>Node2&#45;&gt;Node5</title>
<g id="a_edge4_Node000002_Node000005"><a xlink:title=" ">
<path fill="none" stroke="#63b8ff" d="M1344.82,-69.34C1325.79,-60.32 1302.17,-50.27 1280,-44 1230.41,-29.98 1172.15,-22.59 1130.09,-18.79"/>
<polygon fill="#63b8ff" stroke="#63b8ff" points="1343.51,-72.6 1354.04,-73.8 1346.56,-66.3 1343.51,-72.6"/>
</a>
</g>
</g>
<!-- Node6 -->
<g id="Node000006" class="node">
<title>Node6</title>
<g id="a_Node000006"><a xlink:href="classSpan_1_1AssetRegistry.html#a432dbe6ae1b0ab930bd903d93ad5a734" target="_top" xlink:title="パスからアセット情報を登録・更新します (ファイル移動/作成時用)。">
<polygon fill="white" stroke="#666666" points="1280,-83 1166,-83 1166,-53 1280,-53 1280,-83"/>
<text text-anchor="start" x="1174" y="-71" font-family="Helvetica,sans-Serif" font-size="10.00">Span::AssetRegistry</text>
<text text-anchor="middle" x="1223" y="-60" font-family="Helvetica,sans-Serif" font-size="10.00">::RegisterAsset</text>
</a>
</g>
</g>
<!-- Node2&#45;&gt;Node6 -->
<g id="edge5_Node000002_Node000006" class="edge">
<title>Node2&#45;&gt;Node6</title>
<g id="a_edge5_Node000002_Node000006"><a xlink:title=" ">
<path fill="none" stroke="#63b8ff" d="M1305.51,-78.77C1296.91,-77.63 1288.27,-76.49 1280.01,-75.4"/>
<polygon fill="#63b8ff" stroke="#63b8ff" points="1305.2,-82.25 1315.57,-80.09 1306.11,-75.31 1305.2,-82.25"/>
</a>
</g>
</g>
<!-- Node6&#45;&gt;Node3 -->
<g id="edge6_Node000006_Node000003" class="edge">
<title>Node6&#45;&gt;Node3</title>
<g id="a_edge6_Node000006_Node000003"><a xlink:title=" ">
<path fill="none" stroke="#63b8ff" d="M1195.65,-89.72C1177.82,-103.76 1153.36,-121.81 1130,-135 1124.39,-138.17 1118.28,-141.17 1112.21,-143.91"/>
<polygon fill="#63b8ff" stroke="#63b8ff" points="1198.2,-92.16 1203.83,-83.19 1193.83,-86.69 1198.2,-92.16"/>
</a>
</g>
</g>
<!-- Node6&#45;&gt;Node4 -->
<g id="edge7_Node000006_Node000004" class="edge">
<title>Node6&#45;&gt;Node4</title>
<g id="a_edge7_Node000006_Node000004"><a xlink:title=" ">
<path fill="none" stroke="#63b8ff" d="M1160.21,-85.83C1148.53,-89.2 1136.42,-92.7 1125.08,-95.97"/>
<polygon fill="#63b8ff" stroke="#63b8ff" points="1161.25,-89.17 1169.89,-83.04 1159.31,-82.45 1161.25,-89.17"/>
</a>
</g>
</g>
<!-- Node6&#45;&gt;Node5 -->
<g id="edge8_Node000006_Node000005" class="edge">
<title>Node6&#45;&gt;Node5</title>
<g id="a_edge8_Node000006_Node000005"><a xlink:title=" ">
<path fill="none" stroke="#63b8ff" d="M1170.01,-49.51C1152.16,-43.16 1132.4,-36.13 1115.4,-30.08"/>
<polygon fill="#63b8ff" stroke="#63b8ff" points="1169.11,-52.9 1179.7,-52.95 1171.45,-46.31 1169.11,-52.9"/>
</a>
</g>
</g>
<!-- Node7 -->
<g id="Node000007" class="node">
<title>Node7</title>
<g id="a_Node000007"><a xlink:href="classSpan_1_1AssetRegistry.html#a71c0e006b41117cb0b296adaf0de1c56" target="_top" xlink:title="指定ディレクトリ以下の全アセットをスキャンし、レジストリを構築します。">
<polygon fill="white" stroke="#666666" points="1129,-78 1015,-78 1015,-48 1129,-48 1129,-78"/>
<text text-anchor="start" x="1023" y="-66" font-family="Helvetica,sans-Serif" font-size="10.00">Span::AssetRegistry</text>
<text text-anchor="middle" x="1072" y="-55" font-family="Helvetica,sans-Serif" font-size="10.00">::Refresh</text>
</a>
</g>
</g>
<!-- Node6&#45;&gt;Node7 -->
<g id="edge9_Node000006_Node000007" class="edge">
<title>Node6&#45;&gt;Node7</title>
<g id="a_edge9_Node000006_Node000007"><a xlink:title=" ">
<path fill="none" stroke="#63b8ff" d="M1155.53,-65.77C1146.81,-65.48 1137.94,-65.18 1129.41,-64.89"/>
<polygon fill="#63b8ff" stroke="#63b8ff" points="1155.56,-69.27 1165.67,-66.11 1155.79,-62.28 1155.56,-69.27"/>
</a>
</g>
</g>
<!-- Node8 -->
<g id="Node000008" class="node">
<title>Node8</title>
<g id="a_Node000008"><a xlink:href="classSpan_1_1AssetManager.html#a69ad0e84f0e86f10a14693275d0872f2" target="_top" xlink:title="マネージャーを初期化します。">
<polygon fill="white" stroke="#666666" points="978,-78 862,-78 862,-48 978,-48 978,-78"/>
<text text-anchor="start" x="870" y="-66" font-family="Helvetica,sans-Serif" font-size="10.00">Span::AssetManager</text>
<text text-anchor="middle" x="920" y="-55" font-family="Helvetica,sans-Serif" font-size="10.00">::Initialize</text>
</a>
</g>
</g>
<!-- Node7&#45;&gt;Node8 -->
<g id="edge10_Node000007_Node000008" class="edge">
<title>Node7&#45;&gt;Node8</title>
<g id="a_edge10_Node000007_Node000008"><a xlink:title=" ">
<path fill="none" stroke="#63b8ff" d="M1004.49,-63C995.68,-63 986.72,-63 978.1,-63"/>
<polygon fill="#63b8ff" stroke="#63b8ff" points="1004.72,-66.5 1014.72,-63 1004.72,-59.5 1004.72,-66.5"/>
</a>
</g>
</g>
<!-- Node9 -->
<g id="Node000009" class="node">
<title>Node9</title>
<g id="a_Node000009"><a xlink:href="classSpan_1_1Application.html#a0c44e973ca5db1d23a02a2cee66f5c11" target="_top" xlink:title=" ">
<polygon fill="white" stroke="#666666" points="826,-78 719,-78 719,-48 826,-48 826,-78"/>
<text text-anchor="start" x="727" y="-66" font-family="Helvetica,sans-Serif" font-size="10.00">Span::Application::</text>
<text text-anchor="middle" x="772.5" y="-55" font-family="Helvetica,sans-Serif" font-size="10.00">Application</text>
</a>
</g>
</g>
<!-- Node8&#45;&gt;Node9 -->
<g id="edge11_Node000008_Node000009" class="edge">
<title>Node8&#45;&gt;Node9</title>
<g id="a_edge11_Node000008_Node000009"><a xlink:title=" ">
<path fill="none" stroke="#63b8ff" d="M851.86,-63C843.24,-63 834.5,-63 826.15,-63"/>
<polygon fill="#63b8ff" stroke="#63b8ff" points="851.91,-66.5 861.91,-63 851.91,-59.5 851.91,-66.5"/>
</a>
</g>
</g>
<!-- Node10 -->
<g id="Node000010" class="node">
<title>Node10</title>
<g id="a_Node000010"><a xlink:href="classSpan_1_1Application.html#ae2e9eaebe90ffdf55cfef9d74ccbce3e" target="_top" xlink:title="シングルトンインスタンスの取得">
<polygon fill="white" stroke="#666666" points="683,-348.5 558,-348.5 558,-329.5 683,-329.5 683,-348.5"/>
<text text-anchor="middle" x="620.5" y="-336.5" font-family="Helvetica,sans-Serif" font-size="10.00">Span::Application::Get</text>
</a>
</g>
</g>
<!-- Node9&#45;&gt;Node10 -->
<g id="edge12_Node000009_Node000010" class="edge">
<title>Node9&#45;&gt;Node10</title>
<g id="a_edge12_Node000009_Node000010"><a xlink:title=" ">
<path fill="none" stroke="#63b8ff" d="M758.42,-87.07C726.91,-145.05 647.84,-290.54 626.74,-329.36"/>
<polygon fill="#63b8ff" stroke="#63b8ff" points="761.52,-88.69 763.22,-78.23 755.37,-85.35 761.52,-88.69"/>
</a>
</g>
</g>
<!-- Node27 -->
<g id="Node000027" class="node">
<title>Node27</title>
<g id="a_Node000027"><a xlink:href="classSpan_1_1Application.html#a095598d0c2e753bfb8d00acee435980f" target="_top" xlink:title="シングルトンインスタンスのポインタ取得 (存在チェック用)">
<polygon fill="white" stroke="#666666" points="681,-34.5 560,-34.5 560,-15.5 681,-15.5 681,-34.5"/>
<text text-anchor="middle" x="620.5" y="-22.5" font-family="Helvetica,sans-Serif" font-size="10.00">Span::Application::Ptr</text>
</a>
</g>
</g>
<!-- Node9&#45;&gt;Node27 -->
<g id="edge38_Node000009_Node000027" class="edge">
<title>Node9&#45;&gt;Node27</title>
<g id="a_edge38_Node000009_Node000027"><a xlink:title=" ">
<path fill="none" stroke="#63b8ff" d="M708.83,-47.12C692,-42.86 674.33,-38.38 659.31,-34.58"/>
<polygon fill="#63b8ff" stroke="#63b8ff" points="708.06,-50.54 718.62,-49.6 709.78,-43.75 708.06,-50.54"/>
</a>
</g>
</g>
<!-- Node11 -->
<g id="Node000011" class="node">
<title>Node11</title>
<g id="a_Node000011"><a xlink:href="classSpan_1_1HierarchyPanel.html#a331d846c46df5f3346cfc7bb8c7a8e76" target="_top" xlink:title="エンティティ上での右クリックメニューを描画します。">
<polygon fill="white" stroke="#666666" points="507,-416 387,-416 387,-386 507,-386 507,-416"/>
<text text-anchor="start" x="395" y="-404" font-family="Helvetica,sans-Serif" font-size="10.00">Span::HierarchyPanel</text>
<text text-anchor="middle" x="447" y="-393" font-family="Helvetica,sans-Serif" font-size="10.00">::DrawContextMenu</text>
</a>
</g>
</g>
<!-- Node10&#45;&gt;Node11 -->
<g id="edge13_Node000010_Node000011" class="edge">
<title>Node10&#45;&gt;Node11</title>
<g id="a_edge13_Node000010_Node000011"><a xlink:title=" ">
<path fill="none" stroke="#63b8ff" d="M583.51,-352.01C556.16,-361.9 518.49,-375.52 489.81,-385.88"/>
<polygon fill="#63b8ff" stroke="#63b8ff" points="584.86,-355.24 593.08,-348.55 582.48,-348.66 584.86,-355.24"/>
</a>
</g>
</g>
<!-- Node12 -->
<g id="Node000012" class="node">
<title>Node12</title>
<g id="a_Node000012"><a xlink:href="classSpan_1_1HierarchyPanel.html#a2c08f8c6e0cafaed96f7846d76ff2b09" target="_top" xlink:title="1つのエンティティとその子孫を再帰的に描画します。">
<polygon fill="white" stroke="#666666" points="309,-459 189,-459 189,-429 309,-429 309,-459"/>
<text text-anchor="start" x="197" y="-447" font-family="Helvetica,sans-Serif" font-size="10.00">Span::HierarchyPanel</text>
<text text-anchor="middle" x="249" y="-436" font-family="Helvetica,sans-Serif" font-size="10.00">::DrawEntityNode</text>
</a>
</g>
</g>
<!-- Node10&#45;&gt;Node12 -->
<g id="edge19_Node000010_Node000012" class="edge">
<title>Node10&#45;&gt;Node12</title>
<g id="a_edge19_Node000010_Node000012"><a xlink:title=" ">
<path fill="none" stroke="#63b8ff" d="M605.79,-356.67C588.69,-377.22 557.35,-410.21 522,-425 453.22,-453.78 366.12,-454.34 309.27,-450.51"/>
<polygon fill="#63b8ff" stroke="#63b8ff" points="608.66,-358.69 612.22,-348.72 603.21,-354.29 608.66,-358.69"/>
</a>
</g>
</g>
<!-- Node13 -->
<g id="Node000013" class="node">
<title>Node13</title>
<g id="a_Node000013"><a xlink:href="classSpan_1_1HierarchyPanel.html#a6481eb57cd9f45cb3a094a26f35bbaa0" target="_top" xlink:title="毎フレーム呼ばれる描画関数。">
<polygon fill="white" stroke="#666666" points="123,-459 3,-459 3,-429 123,-429 123,-459"/>
<text text-anchor="start" x="11" y="-447" font-family="Helvetica,sans-Serif" font-size="10.00">Span::HierarchyPanel</text>
<text text-anchor="middle" x="63" y="-436" font-family="Helvetica,sans-Serif" font-size="10.00">::OnImGuiRender</text>
</a>
</g>
</g>
<!-- Node10&#45;&gt;Node13 -->
<g id="edge28_Node000010_Node000013" class="edge">
<title>Node10&#45;&gt;Node13</title>
<g id="a_edge28_Node000010_Node000013"><a xlink:title=" ">
<path fill="none" stroke="#63b8ff" d="M615.22,-358.56C605.82,-396.1 579.5,-477.5 522,-511 377.58,-595.15 165.49,-498.32 91.03,-459.06"/>
<polygon fill="#63b8ff" stroke="#63b8ff" points="618.63,-359.35 617.52,-348.81 611.82,-357.74 618.63,-359.35"/>
</a>
</g>
</g>
<!-- Node14 -->
<g id="Node000014" class="node">
<title>Node14</title>
<g id="a_Node000014"><a xlink:href="classSpan_1_1HierarchyPanel.html#a04888145be2266ef8385e234b79ec53a" target="_top" xlink:title="何もない場所での右クリックメニュー (新規作成など) を描画します。">
<polygon fill="white" stroke="#666666" points="336,-392 162,-392 162,-362 336,-362 336,-392"/>
<text text-anchor="start" x="170" y="-380" font-family="Helvetica,sans-Serif" font-size="10.00">Span::HierarchyPanel</text>
<text text-anchor="middle" x="249" y="-369" font-family="Helvetica,sans-Serif" font-size="10.00">::DrawEmptySpaceContextMenu</text>
</a>
</g>
</g>
<!-- Node10&#45;&gt;Node14 -->
<g id="edge17_Node000010_Node000014" class="edge">
<title>Node10&#45;&gt;Node14</title>
<g id="a_edge17_Node000010_Node000014"><a xlink:title=" ">
<path fill="none" stroke="#63b8ff" d="M547.43,-346.41C486.96,-352.63 400.44,-361.53 336.29,-368.13"/>
<polygon fill="#63b8ff" stroke="#63b8ff" points="548.06,-349.87 557.65,-345.36 547.35,-342.9 548.06,-349.87"/>
</a>
</g>
</g>
<!-- Node15 -->
<g id="Node000015" class="node">
<title>Node15</title>
<g id="a_Node000015"><a xlink:href="classSpan_1_1SceneViewPanel.html#ad83a4a55f083c75371d0873322808796" target="_top" xlink:title="選択中のオブジェクトに対してマニピュレータ (矢印など) を描画します。">
<polygon fill="white" stroke="#666666" points="510,-292 384,-292 384,-262 510,-262 510,-292"/>
<text text-anchor="start" x="392" y="-280" font-family="Helvetica,sans-Serif" font-size="10.00">Span::SceneViewPanel</text>
<text text-anchor="middle" x="447" y="-269" font-family="Helvetica,sans-Serif" font-size="10.00">::DrawGizmo</text>
</a>
</g>
</g>
<!-- Node10&#45;&gt;Node15 -->
<g id="edge20_Node000010_Node000015" class="edge">
<title>Node10&#45;&gt;Node15</title>
<g id="a_edge20_Node000010_Node000015"><a xlink:title=" ">
<path fill="none" stroke="#63b8ff" d="M583.51,-325.99C556.16,-316.1 518.49,-302.48 489.81,-292.12"/>
<polygon fill="#63b8ff" stroke="#63b8ff" points="582.48,-329.34 593.08,-329.45 584.86,-322.76 582.48,-329.34"/>
</a>
</g>
</g>
<!-- Node16 -->
<g id="Node000016" class="node">
<title>Node16</title>
<g id="a_Node000016"><a xlink:href="classSpan_1_1SceneViewPanel.html#aab2935de58bd68267a680cabd3656c9f" target="_top" xlink:title="毎フレームの描画処理。 画像の表示、ツールバーのオーバーレイ、ギズモの描画を行います。">
<polygon fill="white" stroke="#666666" points="312,-292 186,-292 186,-262 312,-262 312,-292"/>
<text text-anchor="start" x="194" y="-280" font-family="Helvetica,sans-Serif" font-size="10.00">Span::SceneViewPanel</text>
<text text-anchor="middle" x="249" y="-269" font-family="Helvetica,sans-Serif" font-size="10.00">::OnImGuiRender</text>
</a>
</g>
</g>
<!-- Node10&#45;&gt;Node16 -->
<g id="edge30_Node000010_Node000016" class="edge">
<title>Node10&#45;&gt;Node16</title>
<g id="a_edge30_Node000010_Node000016"><a xlink:title=" ">
<path fill="none" stroke="#63b8ff" d="M547.88,-328.81C498.39,-321.58 431.09,-311.34 372,-301 352.54,-297.59 331.41,-293.56 312.28,-289.77"/>
<polygon fill="#63b8ff" stroke="#63b8ff" points="547.45,-332.29 557.85,-330.27 548.46,-325.36 547.45,-332.29"/>
</a>
</g>
</g>
<!-- Node17 -->
<g id="Node000017" class="node">
<title>Node17</title>
<g id="a_Node000017"><a xlink:href="classSpan_1_1GuiManager.html#a66e894c749b02f869c0851b41fd23fec" target="_top" xlink:title="ImGuiの描画コマンドを発行し、フレームを終了します。">
<polygon fill="white" stroke="#666666" points="329.5,-157.5 168.5,-157.5 168.5,-138.5 329.5,-138.5 329.5,-157.5"/>
<text text-anchor="middle" x="249" y="-145.5" font-family="Helvetica,sans-Serif" font-size="10.00">Span::GuiManager::EndFrame</text>
</a>
</g>
</g>
<!-- Node10&#45;&gt;Node17 -->
<g id="edge22_Node000010_Node000017" class="edge">
<title>Node10&#45;&gt;Node17</title>
<g id="a_edge22_Node000010_Node000017"><a xlink:title=" ">
<path fill="none" stroke="#63b8ff" d="M611.31,-320.12C597.46,-290.57 566.51,-233.8 522,-205 504.02,-193.37 380.21,-170.47 305.97,-157.51"/>
<polygon fill="#63b8ff" stroke="#63b8ff" points="608.18,-321.68 615.49,-329.35 614.55,-318.79 608.18,-321.68"/>
</a>
</g>
</g>
<!-- Node19 -->
<g id="Node000019" class="node">
<title>Node19</title>
<g id="a_Node000019"><a xlink:href="classSpan_1_1HierarchyPanel.html#af958ff25d0ba0576ae4848bbd01b2031" target="_top" xlink:title="ドラッグ&amp;ドロップの受け入れ処理 (親子付け替え・並び替え)。">
<polygon fill="white" stroke="#666666" points="507,-502 387,-502 387,-472 507,-472 507,-502"/>
<text text-anchor="start" x="395" y="-490" font-family="Helvetica,sans-Serif" font-size="10.00">Span::HierarchyPanel</text>
<text text-anchor="middle" x="447" y="-479" font-family="Helvetica,sans-Serif" font-size="10.00">::HandleDragDrop</text>
</a>
</g>
</g>
<!-- Node10&#45;&gt;Node19 -->
<g id="edge24_Node000010_Node000019" class="edge">
<title>Node10&#45;&gt;Node19</title>
<g id="a_edge24_Node000010_Node000019"><a xlink:title=" ">
<path fill="none" stroke="#63b8ff" d="M608.63,-357.52C592.65,-383.3 560.49,-430 522,-458 514.41,-463.52 505.63,-468.15 496.83,-471.98"/>
<polygon fill="#63b8ff" stroke="#63b8ff" points="611.76,-359.11 613.94,-348.74 605.77,-355.49 611.76,-359.11"/>
</a>
</g>
</g>
<!-- Node20 -->
<g id="Node000020" class="node">
<title>Node20</title>
<g id="a_Node000020"><a xlink:href="classSpan_1_1SceneViewPanel.html#afebf890816b85f92e9ed73de887b2354" target="_top" xlink:title="外部またはブラウザからドロップされたファイルを処理します。">
<polygon fill="white" stroke="#666666" points="510,-244 384,-244 384,-214 510,-214 510,-244"/>
<text text-anchor="start" x="392" y="-232" font-family="Helvetica,sans-Serif" font-size="10.00">Span::SceneViewPanel</text>
<text text-anchor="middle" x="447" y="-221" font-family="Helvetica,sans-Serif" font-size="10.00">::OnAssetDropped</text>
</a>
</g>
</g>
<!-- Node10&#45;&gt;Node20 -->
<g id="edge26_Node000010_Node000020" class="edge">
<title>Node10&#45;&gt;Node20</title>
<g id="a_edge26_Node000010_Node000020"><a xlink:title=" ">
<path fill="none" stroke="#63b8ff" d="M604.25,-321.86C586.31,-302.63 554.77,-271.68 522,-253 516.13,-249.66 509.74,-246.7 503.24,-244.11"/>
<polygon fill="#63b8ff" stroke="#63b8ff" points="601.74,-324.3 611.08,-329.31 606.91,-319.57 601.74,-324.3"/>
</a>
</g>
</g>
<!-- Node21 -->
<g id="Node000021" class="node">
<title>Node21</title>
<g id="a_Node000021"><a xlink:href="classSpan_1_1InspectorPanel.html#ae32fda6018a2e54f880e6708ac5b89fe" target="_top" xlink:title="毎フレーム呼ばれる描画関数。">
<polygon fill="white" stroke="#666666" points="506,-83 388,-83 388,-53 506,-53 506,-83"/>
<text text-anchor="start" x="396" y="-71" font-family="Helvetica,sans-Serif" font-size="10.00">Span::InspectorPanel</text>
<text text-anchor="middle" x="447" y="-60" font-family="Helvetica,sans-Serif" font-size="10.00">::OnImGuiRender</text>
</a>
</g>
</g>
<!-- Node10&#45;&gt;Node21 -->
<g id="edge29_Node000010_Node000021" class="edge">
<title>Node10&#45;&gt;Node21</title>
<g id="a_edge29_Node000010_Node000021"><a xlink:title=" ">
<path fill="none" stroke="#63b8ff" d="M617.4,-319.4C611.41,-273.06 589.98,-155.87 522,-92 517.37,-87.65 511.95,-84.09 506.18,-81.18"/>
<polygon fill="#63b8ff" stroke="#63b8ff" points="613.93,-319.83 618.59,-329.34 620.88,-319 613.93,-319.83"/>
</a>
</g>
</g>
<!-- Node22 -->
<g id="Node000022" class="node">
<title>Node22</title>
<g id="a_Node000022"><a xlink:href="classSpan_1_1CameraSystem.html#a7f4bf0245dedd7a6245ef352246f7391" target="_top" xlink:title="毎フレーム呼び出されます。ここにゲームロジックを記述します。">
<polygon fill="white" stroke="#666666" points="508,-684 386,-684 386,-654 508,-654 508,-684"/>
<text text-anchor="start" x="394" y="-672" font-family="Helvetica,sans-Serif" font-size="10.00">Span::CameraSystem</text>
<text text-anchor="middle" x="447" y="-661" font-family="Helvetica,sans-Serif" font-size="10.00">::OnUpdate</text>
</a>
</g>
</g>
<!-- Node10&#45;&gt;Node22 -->
<g id="edge31_Node000010_Node000022" class="edge">
<title>Node10&#45;&gt;Node22</title>
<g id="a_edge31_Node000010_Node000022"><a xlink:title=" ">
<path fill="none" stroke="#63b8ff" d="M619.12,-358.76C617.01,-412.51 603.7,-562.88 522,-645 518,-649.02 513.32,-652.37 508.29,-655.16"/>
<polygon fill="#63b8ff" stroke="#63b8ff" points="622.63,-358.65 619.43,-348.55 615.63,-358.44 622.63,-358.65"/>
</a>
</g>
</g>
<!-- Node23 -->
<g id="Node000023" class="node">
<title>Node23</title>
<g id="a_Node000023"><a xlink:href="classSpan_1_1EditorCameraSystem.html#ae933964fa5d0f299954c926cf63e091a" target="_top" xlink:title="毎フレーム呼び出されます。ここにゲームロジックを記述します。">
<polygon fill="white" stroke="#666666" points="522,-636 372,-636 372,-606 522,-606 522,-636"/>
<text text-anchor="start" x="380" y="-624" font-family="Helvetica,sans-Serif" font-size="10.00">Span::EditorCameraSystem</text>
<text text-anchor="middle" x="447" y="-613" font-family="Helvetica,sans-Serif" font-size="10.00">::OnUpdate</text>
</a>
</g>
</g>
<!-- Node10&#45;&gt;Node23 -->
<g id="edge32_Node000010_Node000023" class="edge">
<title>Node10&#45;&gt;Node23</title>
<g id="a_edge32_Node000010_Node000023"><a xlink:title=" ">
<path fill="none" stroke="#63b8ff" d="M617.76,-358.8C612.49,-406.7 592.44,-529.85 522,-597 518.38,-600.45 514.27,-603.4 509.87,-605.93"/>
<polygon fill="#63b8ff" stroke="#63b8ff" points="621.27,-358.86 618.78,-348.56 614.3,-358.16 621.27,-358.86"/>
</a>
</g>
</g>
<!-- Node24 -->
<g id="Node000024" class="node">
<title>Node24</title>
<g id="a_Node000024"><a xlink:href="classSpan_1_1RenderingSystem.html#aa0113a8f2b55129115c4da2c6ba449c4" target="_top" xlink:title="毎フレーム呼び出されます。ここにゲームロジックを記述します。">
<polygon fill="white" stroke="#666666" points="513.5,-588 380.5,-588 380.5,-558 513.5,-558 513.5,-588"/>
<text text-anchor="start" x="388.5" y="-576" font-family="Helvetica,sans-Serif" font-size="10.00">Span::RenderingSystem</text>
<text text-anchor="middle" x="447" y="-565" font-family="Helvetica,sans-Serif" font-size="10.00">::OnUpdate</text>
</a>
</g>
</g>
<!-- Node10&#45;&gt;Node24 -->
<g id="edge33_Node000010_Node000024" class="edge">
<title>Node10&#45;&gt;Node24</title>
<g id="a_edge33_Node000010_Node000024"><a xlink:title=" ">
<path fill="none" stroke="#63b8ff" d="M615.33,-358.5C605.79,-398.65 578.66,-491.2 522,-544 515.94,-549.64 508.66,-554.24 501.06,-557.96"/>
<polygon fill="#63b8ff" stroke="#63b8ff" points="618.77,-359.17 617.57,-348.65 611.94,-357.62 618.77,-359.17"/>
</a>
</g>
</g>
<!-- Node25 -->
<g id="Node000025" class="node">
<title>Node25</title>
<g id="a_Node000025"><a xlink:href="classSpan_1_1FileDialog.html#aad45925d2e59cc65f1025f18104770e8" target="_top" xlink:title="ファイルを開くダイアログを表示します。">
<polygon fill="white" stroke="#666666" points="519,-157.5 375,-157.5 375,-138.5 519,-138.5 519,-157.5"/>
<text text-anchor="middle" x="447" y="-145.5" font-family="Helvetica,sans-Serif" font-size="10.00">Span::FileDialog::OpenFile</text>
</a>
</g>
</g>
<!-- Node10&#45;&gt;Node25 -->
<g id="edge34_Node000010_Node000025" class="edge">
<title>Node10&#45;&gt;Node25</title>
<g id="a_edge34_Node000010_Node000025"><a xlink:title=" ">
<path fill="none" stroke="#63b8ff" d="M613.38,-319.62C601.45,-284.92 571.78,-212.09 522,-172 514.22,-165.73 504.75,-161.08 495.22,-157.64"/>
<polygon fill="#63b8ff" stroke="#63b8ff" points="610.17,-321.06 616.64,-329.45 616.82,-318.86 610.17,-321.06"/>
</a>
</g>
</g>
<!-- Node26 -->
<g id="Node000026" class="node">
<title>Node26</title>
<g id="a_Node000026"><a xlink:href="classSpan_1_1FileDialog.html#a22c6ec8ccc13ed89cc79447ce8ff2468" target="_top" xlink:title="ファイルを保存するダイアログを表示します。">
<polygon fill="white" stroke="#666666" points="518.5,-120.5 375.5,-120.5 375.5,-101.5 518.5,-101.5 518.5,-120.5"/>
<text text-anchor="middle" x="447" y="-108.5" font-family="Helvetica,sans-Serif" font-size="10.00">Span::FileDialog::SaveFile</text>
</a>
</g>
</g>
<!-- Node10&#45;&gt;Node26 -->
<g id="edge36_Node000010_Node000026" class="edge">
<title>Node10&#45;&gt;Node26</title>
<g id="a_edge36_Node000010_Node000026"><a xlink:title=" ">
<path fill="none" stroke="#63b8ff" d="M616.13,-319.39C607.93,-277.83 582.96,-180.6 522,-130 517.31,-126.1 511.91,-122.99 506.21,-120.51"/>
<polygon fill="#63b8ff" stroke="#63b8ff" points="612.71,-320.14 617.98,-329.33 619.59,-318.86 612.71,-320.14"/>
</a>
</g>
</g>
<!-- Node11&#45;&gt;Node12 -->
<g id="edge14_Node000011_Node000012" class="edge">
<title>Node11&#45;&gt;Node12</title>
<g id="a_edge14_Node000011_Node000012"><a xlink:title=" ">
<path fill="none" stroke="#63b8ff" d="M376.95,-416.15C354.86,-420.99 330.62,-426.31 309.29,-430.99"/>
<polygon fill="#63b8ff" stroke="#63b8ff" points="377.91,-419.52 386.93,-413.96 376.41,-412.68 377.91,-419.52"/>
</a>
</g>
</g>
<!-- Node12&#45;&gt;Node12 -->
<g id="edge15_Node000012_Node000012" class="edge">
<title>Node12&#45;&gt;Node12</title>
<g id="a_edge15_Node000012_Node000012"><a xlink:title=" ">
<path fill="none" stroke="#63b8ff" d="M281.56,-469.6C277.11,-473.97 266.26,-477 249,-477 219.94,-477 209.04,-468.41 216.3,-459.28"/>
<polygon fill="#63b8ff" stroke="#63b8ff" points="285.06,-469.32 281.7,-459.28 278.06,-469.23 285.06,-469.32"/>
</a>
</g>
</g>
<!-- Node12&#45;&gt;Node13 -->
<g id="edge16_Node000012_Node000013" class="edge">
<title>Node12&#45;&gt;Node13</title>
<g id="a_edge16_Node000012_Node000013"><a xlink:title=" ">
<path fill="none" stroke="#63b8ff" d="M178.75,-444C160.44,-444 140.84,-444 123.12,-444"/>
<polygon fill="#63b8ff" stroke="#63b8ff" points="178.77,-447.5 188.77,-444 178.77,-440.5 178.77,-447.5"/>
</a>
</g>
</g>
<!-- Node14&#45;&gt;Node13 -->
<g id="edge18_Node000014_Node000013" class="edge">
<title>Node14&#45;&gt;Node13</title>
<g id="a_edge18_Node000014_Node000013"><a xlink:title=" ">
<path fill="none" stroke="#63b8ff" d="M197.2,-395.5C168.33,-406.01 132.64,-419.01 105.47,-428.9"/>
<polygon fill="#63b8ff" stroke="#63b8ff" points="198.51,-398.75 206.71,-392.04 196.11,-392.17 198.51,-398.75"/>
</a>
</g>
</g>
<!-- Node15&#45;&gt;Node16 -->
<g id="edge21_Node000015_Node000016" class="edge">
<title>Node15&#45;&gt;Node16</title>
<g id="a_edge21_Node000015_Node000016"><a xlink:title=" ">
<path fill="none" stroke="#63b8ff" d="M373.89,-277C353.68,-277 331.88,-277 312.28,-277"/>
<polygon fill="#63b8ff" stroke="#63b8ff" points="373.98,-280.5 383.98,-277 373.98,-273.5 373.98,-280.5"/>
</a>
</g>
</g>
<!-- Node18 -->
<g id="Node000018" class="node">
<title>Node18</title>
<g id="a_Node000018"><a xlink:href="classSpan_1_1Application.html#a9dc7321cf43512eac3757a83fbefbaa9" target="_top" xlink:title="アプリケーションを実行します (ブロック関数)。">
<polygon fill="white" stroke="#666666" points="126,-157.5 0,-157.5 0,-138.5 126,-138.5 126,-157.5"/>
<text text-anchor="middle" x="63" y="-145.5" font-family="Helvetica,sans-Serif" font-size="10.00">Span::Application::Run</text>
</a>
</g>
</g>
<!-- Node17&#45;&gt;Node18 -->
<g id="edge23_Node000017_Node000018" class="edge">
<title>Node17&#45;&gt;Node18</title>
<g id="a_edge23_Node000017_Node000018"><a xlink:title=" ">
<path fill="none" stroke="#63b8ff" d="M158.35,-148C147.4,-148 136.42,-148 126.01,-148"/>
<polygon fill="#63b8ff" stroke="#63b8ff" points="158.37,-151.5 168.37,-148 158.37,-144.5 158.37,-151.5"/>
</a>
</g>
</g>
<!-- Node19&#45;&gt;Node12 -->
<g id="edge25_Node000019_Node000012" class="edge">
<title>Node19&#45;&gt;Node12</title>
<g id="a_edge25_Node000019_Node000012"><a xlink:title=" ">
<path fill="none" stroke="#63b8ff" d="M376.95,-471.85C354.86,-467.01 330.62,-461.69 309.29,-457.01"/>
<polygon fill="#63b8ff" stroke="#63b8ff" points="376.41,-475.32 386.93,-474.04 377.91,-468.48 376.41,-475.32"/>
</a>
</g>
</g>
<!-- Node20&#45;&gt;Node16 -->
<g id="edge27_Node000020_Node000016" class="edge">
<title>Node20&#45;&gt;Node16</title>
<g id="a_edge27_Node000020_Node000016"><a xlink:title=" ">
<path fill="none" stroke="#63b8ff" d="M374.78,-246.44C353.96,-251.54 331.4,-257.07 311.26,-262"/>
<polygon fill="#63b8ff" stroke="#63b8ff" points="375.64,-249.83 384.52,-244.06 373.98,-243.04 375.64,-249.83"/>
</a>
</g>
</g>
<!-- Node25&#45;&gt;Node17 -->
<g id="edge35_Node000025_Node000017" class="edge">
<title>Node25&#45;&gt;Node17</title>
<g id="a_edge35_Node000025_Node000017"><a xlink:title=" ">
<path fill="none" stroke="#63b8ff" d="M364.87,-148C353.26,-148 341.34,-148 329.76,-148"/>
<polygon fill="#63b8ff" stroke="#63b8ff" points="364.96,-151.5 374.96,-148 364.96,-144.5 364.96,-151.5"/>
</a>
</g>
</g>
<!-- Node26&#45;&gt;Node17 -->
<g id="edge37_Node000026_Node000017" class="edge">
<title>Node26&#45;&gt;Node17</title>
<g id="a_edge37_Node000026_Node000017"><a xlink:title=" ">
<path fill="none" stroke="#63b8ff" d="M385.36,-122.45C358.19,-127.58 326.52,-133.56 300.64,-138.44"/>
<polygon fill="#63b8ff" stroke="#63b8ff" points="386.35,-125.82 395.53,-120.53 385.05,-118.94 386.35,-125.82"/>
</a>
</g>
</g>
<!-- Node28 -->
<g id="Node000028" class="node">
<title>Node28</title>
<g id="a_Node000028"><a xlink:href="namespaceSpan.html#a3f4b8561d46e69596ba6a7c3177a92e7" target="_top" xlink:title=" ">
<polygon fill="white" stroke="#666666" points="517.5,-34.5 376.5,-34.5 376.5,-15.5 517.5,-15.5 517.5,-34.5"/>
<text text-anchor="middle" x="447" y="-22.5" font-family="Helvetica,sans-Serif" font-size="10.00">Span::ConsoleCtrlHandler</text>
</a>
</g>
</g>
<!-- Node27&#45;&gt;Node28 -->
<g id="edge39_Node000027_Node000028" class="edge">
<title>Node27&#45;&gt;Node28</title>
<g id="a_edge39_Node000027_Node000028"><a xlink:title=" ">
<path fill="none" stroke="#63b8ff" d="M549.94,-25C539.31,-25 528.34,-25 517.71,-25"/>
<polygon fill="#63b8ff" stroke="#63b8ff" points="550,-28.5 560,-25 550,-21.5 550,-28.5"/>
</a>
</g>
</g>
<!-- Node28&#45;&gt;Node9 -->
<g id="edge40_Node000028_Node000009" class="edge">
<title>Node28&#45;&gt;Node9</title>
<g id="a_edge40_Node000028_Node000009"><a xlink:title=" ">
<path fill="none" stroke="#63b8ff" d="M511.87,-36.22C526.97,-38.65 543.03,-41.08 558,-43 612.65,-50.02 675.47,-55.61 718.74,-59.07"/>
<polygon fill="#63b8ff" stroke="#63b8ff" points="512.04,-32.7 501.6,-34.53 510.9,-39.6 512.04,-32.7"/>
</a>
</g>
</g>
</g>
</svg>

<g id="navigator" transform="translate(0 0)" fill="#404254">
  <rect fill="#f2f5e9" fill-opacity="0.5" stroke="#606060" stroke-width=".5" x="0" y="0" width="60" height="60"/>
  <use id="zoomplus" xlink:href="#zoomPlus" x="17" y="9" onmousedown="handleZoom(evt,'in')"/>
  <use id="zoomminus" xlink:href="#zoomMin" x="42" y="9" onmousedown="handleZoom(evt,'out')"/>
  <use id="reset" xlink:href="#resetDef" x="30" y="36" onmousedown="handleReset()"/>
   <use id="arrowup" xlink:href="#arrowUp" x="0" y="0" onmousedown="handlePan(0,-1)"/>
  <use id="arrowright" xlink:href="#arrowRight" x="0" y="0" onmousedown="handlePan(1,0)"/>
  <use id="arrowdown" xlink:href="#arrowDown" x="0" y="0" onmousedown="handlePan(0,1)"/>
  <use id="arrowleft" xlink:href="#arrowLeft" x="0" y="0" onmousedown="handlePan(-1,0)"/>
</g>
<svg viewBox="0 0 15 15" width="100%" height="30px" preserveAspectRatio="xMaxYMin meet">
 <g id="arrow_out" transform="scale(0.3 0.3)">
  <a xlink:href="classSpan_1_1AssetSerializer_a39e6a3bea02531fc2c31683a27d52061_icgraph_org.svg" target="_base">
   <rect id="button" ry="5" rx="5" y="6" x="6" height="38" width="38"
        fill="#f2f5e9" fill-opacity="0.5" stroke="#606060" stroke-width="1.0"/>
   <path id="arrow"
     d="M 11.500037,31.436501 C 11.940474,20.09759 22.043105,11.32322 32.158766,21.979434 L 37.068811,17.246167 C 37.068811,17.246167 37.088388,32 37.088388,32 L 22.160133,31.978069 C 22.160133,31.978069 26.997745,27.140456 26.997745,27.140456 C 18.528582,18.264221 13.291696,25.230495 11.500037,31.436501 z"
     style="fill:#404040;"/>
  </a>
 </g>
</svg>

<style type='text/css'>
<![CDATA[
[data-mouse-over-selected='false'] { opacity: 0.7; }
[data-mouse-over-selected='true']  { opacity: 1.0; }
]]>
</style>
<script type="application/ecmascript"><![CDATA[
document.addEventListener('DOMContentLoaded', (event) => {
  highlightEdges();
  highlightAdjacentNodes();
});
]]></script>
</svg>
