<?xml version="1.0" encoding="UTF-8" standalone="no"?>
<!DOCTYPE svg PUBLIC "-//W3C//DTD SVG 1.1//EN"
 "http://www.w3.org/Graphics/SVG/1.1/DTD/svg11.dtd">
<!-- Generated by graphviz version 2.43.0 (0)
 -->
<!-- Title: Span::ArchetypeManager::GetOrCreateArchetype Pages: 1 -->
<svg width="550pt" height="76pt"
 viewBox="0.00 0.00 550.00 75.50" xmlns="http://www.w3.org/2000/svg" xmlns:xlink="http://www.w3.org/1999/xlink">
<g id="graph0" class="graph" transform="scale(1 1) rotate(0) translate(4 71.5)">
<title>Span::ArchetypeManager::GetOrCreateArchetype</title>
<!-- Node1 -->
<g id="Node000001" class="node">
<title>Node1</title>
<g id="a_Node000001"><a xlink:title="テンプレート引数からアーキタイプを取得または作成します。">
<polygon fill="#999999" stroke="#666666" points="139,-51 0,-51 0,-21 139,-21 139,-51"/>
<text text-anchor="start" x="8" y="-39" font-family="Helvetica,sans-Serif" font-size="10.00">Span::ArchetypeManager</text>
<text text-anchor="middle" x="69.5" y="-28" font-family="Helvetica,sans-Serif" font-size="10.00">::GetOrCreateArchetype</text>
</a>
</g>
</g>
<!-- Node2 -->
<g id="Node000002" class="node">
<title>Node2</title>
<g id="a_Node000002"><a xlink:href="classSpan_1_1ArchetypeSignature.html#a2e73ccd822dacd1c4e686bc1e0aa2749" target="_top" xlink:title="コンポーネントIDを追加して再ソートします。">
<polygon fill="white" stroke="#666666" points="342,-67.5 175,-67.5 175,-48.5 342,-48.5 342,-67.5"/>
<text text-anchor="middle" x="258.5" y="-55.5" font-family="Helvetica,sans-Serif" font-size="10.00">Span::ArchetypeSignature::Add</text>
</a>
</g>
</g>
<!-- Node1&#45;&gt;Node2 -->
<g id="edge1_Node000001_Node000002" class="edge">
<title>Node1&#45;&gt;Node2</title>
<g id="a_edge1_Node000001_Node000002"><a xlink:title=" ">
<path fill="none" stroke="#63b8ff" d="M139.07,-44.07C148.03,-45.12 157.31,-46.21 166.56,-47.3"/>
<polygon fill="#63b8ff" stroke="#63b8ff" points="166.23,-50.79 176.57,-48.48 167.05,-43.83 166.23,-50.79"/>
</a>
</g>
</g>
<!-- Node3 -->
<g id="Node000003" class="node">
<title>Node3</title>
<g id="a_Node000003"><a xlink:href="classSpan_1_1ComponentType.html#aa561932b92eabbe74390cb7b0cef0de6" target="_top" xlink:title="型 T に対応する一意のIDを取得します。">
<polygon fill="white" stroke="#666666" points="321,-30 196,-30 196,0 321,0 321,-30"/>
<text text-anchor="start" x="204" y="-18" font-family="Helvetica,sans-Serif" font-size="10.00">Span::ComponentType</text>
<text text-anchor="middle" x="258.5" y="-7" font-family="Helvetica,sans-Serif" font-size="10.00">::GetID</text>
</a>
</g>
</g>
<!-- Node1&#45;&gt;Node3 -->
<g id="edge2_Node000001_Node000003" class="edge">
<title>Node1&#45;&gt;Node3</title>
<g id="a_edge2_Node000001_Node000003"><a xlink:title=" ">
<path fill="none" stroke="#63b8ff" d="M139.07,-28.3C154.29,-26.59 170.46,-24.77 185.8,-23.05"/>
<polygon fill="#63b8ff" stroke="#63b8ff" points="186.2,-26.53 195.75,-21.93 185.42,-19.57 186.2,-26.53"/>
</a>
</g>
</g>
<!-- Node4 -->
<g id="Node000004" class="node">
<title>Node4</title>
<g id="a_Node000004"><a xlink:href="classSpan_1_1ComponentTypeCounter.html#acc2798e44b8697764fd68d9942b18d20" target="_top" xlink:title=" ">
<polygon fill="white" stroke="#666666" points="542,-30 378,-30 378,0 542,0 542,-30"/>
<text text-anchor="start" x="386" y="-18" font-family="Helvetica,sans-Serif" font-size="10.00">Span::ComponentTypeCounter</text>
<text text-anchor="middle" x="460" y="-7" font-family="Helvetica,sans-Serif" font-size="10.00">::GetNextID</text>
</a>
</g>
</g>
<!-- Node3&#45;&gt;Node4 -->
<g id="edge3_Node000003_Node000004" class="edge">
<title>Node3&#45;&gt;Node4</title>
<g id="a_edge3_Node000003_Node000004"><a xlink:title=" ">
<path fill="none" stroke="#63b8ff" d="M321.26,-15C335.9,-15 351.83,-15 367.49,-15"/>
<polygon fill="#63b8ff" stroke="#63b8ff" points="367.72,-18.5 377.72,-15 367.72,-11.5 367.72,-18.5"/>
</a>
</g>
</g>
</g>
</svg>
