<?xml version="1.0" encoding="UTF-8" standalone="no"?>
<!DOCTYPE svg PUBLIC "-//W3C//DTD SVG 1.1//EN"
 "http://www.w3.org/Graphics/SVG/1.1/DTD/svg11.dtd">
<!-- Generated by graphviz version 2.43.0 (0)
 -->
<!-- Title: Span::TransformSystem Pages: 1 -->
<svg width="141pt" height="277pt"
 viewBox="0.00 0.00 141.00 277.00" xmlns="http://www.w3.org/2000/svg" xmlns:xlink="http://www.w3.org/1999/xlink">
<g id="graph0" class="graph" transform="scale(1 1) rotate(0) translate(4 273)">
<title>Span::TransformSystem</title>
<!-- Node1 -->
<g id="Node000001" class="node">
<title>Node1</title>
<g id="a_Node000001"><a xlink:title=" ">
<polygon fill="#999999" stroke="transparent" points="133,-64 0,-64 0,0 133,0 133,-64"/>
<text text-anchor="start" x="9" y="-52" font-family="Helvetica,sans-Serif" font-size="10.00">Span::TransformSystem</text>
<text text-anchor="start" x="65" y="-37" font-family="Helvetica,sans-Serif" font-size="10.00">Â </text>
<text text-anchor="start" x="4.5" y="-22" font-family="Helvetica,sans-Serif" font-size="10.00">+</text>
<text text-anchor="start" x="17.5" y="-22" font-family="Helvetica,sans-Serif" font-size="10.00">OnUpdate()</text>
<text text-anchor="start" x="7" y="-7" font-family="Helvetica,sans-Serif" font-size="10.00">&#45;</text>
<text text-anchor="start" x="17.5" y="-7" font-family="Helvetica,sans-Serif" font-size="10.00">ComputeWorldMatrix()</text>
<polygon fill="#666666" stroke="#666666" points="0.5,-47 0.5,-47 133.5,-47 133.5,-47 0.5,-47"/>
<polygon fill="#666666" stroke="#666666" points="0.5,-32 0.5,-32 133.5,-32 133.5,-32 0.5,-32"/>
<polygon fill="none" stroke="#666666" points="0,0 0,-64 133,-64 133,0 0,0"/>
</a>
</g>
</g>
<!-- Node2 -->
<g id="Node000002" class="node">
<title>Node2</title>
<g id="a_Node000002"><a xlink:href="classSpan_1_1System.html" target="_top" xlink:title="ðŸ§  ã‚²ãƒ¼ãƒ ãƒ­ã‚¸ãƒƒã‚¯ã‚’å®Ÿè£…ã™ã‚‹ãŸã‚ã®åŸºåº•ã‚¯ãƒ©ã‚¹ã€‚">
<polygon fill="white" stroke="transparent" points="108.5,-269 24.5,-269 24.5,-100 108.5,-100 108.5,-269"/>
<text text-anchor="start" x="33" y="-256.5" font-family="Helvetica,sans-Serif" font-size="10.00">Span::System</text>
<text text-anchor="start" x="31" y="-241.5" font-family="Helvetica,sans-Serif" font-size="10.00">&#45;</text>
<text text-anchor="start" x="41.5" y="-241.5" font-family="Helvetica,sans-Serif" font-size="10.00">m_world</text>
<text text-anchor="start" x="31" y="-226.5" font-family="Helvetica,sans-Serif" font-size="10.00">&#45;</text>
<text text-anchor="start" x="41.5" y="-226.5" font-family="Helvetica,sans-Serif" font-size="10.00">isEnabled</text>
<text text-anchor="start" x="28.5" y="-211.5" font-family="Helvetica,sans-Serif" font-size="10.00">+</text>
<text text-anchor="start" x="41.5" y="-211.5" font-family="Helvetica,sans-Serif" font-size="10.00">~System()</text>
<text text-anchor="start" x="28.5" y="-196.5" font-family="Helvetica,sans-Serif" font-size="10.00">+</text>
<text text-anchor="start" x="41.5" y="-196.5" font-family="Helvetica,sans-Serif" font-size="10.00">Initialize()</text>
<text text-anchor="start" x="28.5" y="-181.5" font-family="Helvetica,sans-Serif" font-size="10.00">+</text>
<text text-anchor="start" x="41.5" y="-181.5" font-family="Helvetica,sans-Serif" font-size="10.00">OnCreate()</text>
<text text-anchor="start" x="28.5" y="-166.5" font-family="Helvetica,sans-Serif" font-size="10.00">+</text>
<text text-anchor="start" x="41.5" y="-166.5" font-family="Helvetica,sans-Serif" font-size="10.00">OnUpdate()</text>
<text text-anchor="start" x="28.5" y="-151.5" font-family="Helvetica,sans-Serif" font-size="10.00">+</text>
<text text-anchor="start" x="41.5" y="-151.5" font-family="Helvetica,sans-Serif" font-size="10.00">OnDestroy()</text>
<text text-anchor="start" x="28.5" y="-136.5" font-family="Helvetica,sans-Serif" font-size="10.00">+</text>
<text text-anchor="start" x="41.5" y="-136.5" font-family="Helvetica,sans-Serif" font-size="10.00">IsEnabled()</text>
<text text-anchor="start" x="28.5" y="-121.5" font-family="Helvetica,sans-Serif" font-size="10.00">+</text>
<text text-anchor="start" x="41.5" y="-121.5" font-family="Helvetica,sans-Serif" font-size="10.00">SetEnabled()</text>
<text text-anchor="start" x="28.5" y="-106.5" font-family="Helvetica,sans-Serif" font-size="10.00">#</text>
<text text-anchor="start" x="41.5" y="-106.5" font-family="Helvetica,sans-Serif" font-size="10.00">GetWorld()</text>
<polygon fill="#666666" stroke="#666666" points="24.5,-251.5 24.5,-251.5 108.5,-251.5 108.5,-251.5 24.5,-251.5"/>
<polygon fill="#666666" stroke="#666666" points="24.5,-221.5 24.5,-221.5 39.5,-221.5 39.5,-221.5 24.5,-221.5"/>
<polygon fill="#666666" stroke="#666666" points="39.5,-221.5 39.5,-221.5 108.5,-221.5 108.5,-221.5 39.5,-221.5"/>
<polygon fill="none" stroke="#666666" points="24.5,-100 24.5,-269 108.5,-269 108.5,-100 24.5,-100"/>
</a>
</g>
</g>
<!-- Node2&#45;&gt;Node1 -->
<g id="edge1_Node000001_Node000002" class="edge">
<title>Node2&#45;&gt;Node1</title>
<g id="a_edge1_Node000001_Node000002"><a xlink:title=" ">
<path fill="none" stroke="#63b8ff" d="M66.5,-89.85C66.5,-80.71 66.5,-71.96 66.5,-64.18"/>
<polygon fill="none" stroke="#63b8ff" points="63,-89.89 66.5,-99.89 70,-89.89 63,-89.89"/>
</a>
</g>
</g>
</g>
</svg>
