<?xml version="1.0" encoding="UTF-8" standalone="no"?>
<!DOCTYPE svg PUBLIC "-//W3C//DTD SVG 1.1//EN"
 "http://www.w3.org/Graphics/SVG/1.1/DTD/svg11.dtd">
<!-- Generated by graphviz version 2.43.0 (0)
 -->
<!-- Title: Span::Renderer::LoadEnvironmentMap Pages: 1 -->
<!--zoomable 198 -->

<svg id="main" version="1.1" xmlns="http://www.w3.org/2000/svg" xmlns:xlink="http://www.w3.org/1999/xlink" xml:space="preserve" onload="init(evt)">

<style type="text/css"><![CDATA[
.node, .edge {opacity: 0.7;}
.node.selected, .edge.selected {opacity: 1;}
.edge:hover path { stroke: red; }
.edge:hover polygon { stroke: red; fill: red; }
]]></style>

<defs>
  <circle id="rim" cx="0" cy="0" r="7"/>
  <circle id="rim2" cx="0" cy="0" r="3.5"/>
  <g id="zoomPlus">
    <use xlink:href="#rim" fill="#404040"><set attributeName="fill" to="#808080" begin="zoomplus.mouseover" end="zoomplus.mouseout"/></use>
    <path d="M-4,0h8M0,-4v8" fill="none" stroke="white" stroke-width="1.5" pointer-events="none"/>
  </g>
  <g id="zoomMin">
    <use xlink:href="#rim" fill="#404040"><set attributeName="fill" to="#808080" begin="zoomminus.mouseover" end="zoomminus.mouseout"/></use>
    <path d="M-4,0h8" fill="none" stroke="white" stroke-width="1.5" pointer-events="none"/>
  </g>
  <g id="arrowUp" transform="translate(30 24)">
    <use xlink:href="#rim"/>
    <path pointer-events="none" fill="none" stroke="white" stroke-width="1.5" d="M0,-3.0v7 M-2.5,-0.5L0,-3.0L2.5,-0.5"/>
  </g>
  <g id="arrowRight" transform="rotate(90) translate(36 -43)">
    <use xlink:href="#rim"/>
    <path pointer-events="none" fill="none" stroke="white" stroke-width="1.5" d="M0,-3.0v7 M-2.5,-0.5L0,-3.0L2.5,-0.5"/>
  </g>
  <g id="arrowDown" transform="rotate(180) translate(-30 -48)">
    <use xlink:href="#rim"/>
    <path pointer-events="none" fill="none" stroke="white" stroke-width="1.5" d="M0,-3.0v7 M-2.5,-0.5L0,-3.0L2.5,-0.5"/>
  </g>
  <g id="arrowLeft" transform="rotate(270) translate(-36 17)">
    <use xlink:href="#rim"/>
    <path pointer-events="none" fill="none" stroke="white" stroke-width="1.5" d="M0,-3.0v7 M-2.5,-0.5L0,-3.0L2.5,-0.5"/>
  </g>
  <g id="resetDef">
    <use xlink:href="#rim2" fill="#404040"><set attributeName="fill" to="#808080" begin="reset.mouseover" end="reset.mouseout"/></use>
  </g>
</defs>
<script type="application/ecmascript">
var viewWidth = 618;
var viewHeight = 198;
var sectionId = 'dynsection-23';
</script>
<script type="application/ecmascript" xlink:href="svg.min.js"/>
<svg id="graph" class="graph">
<g id="viewport">
<title>Span::Renderer::LoadEnvironmentMap</title>
<!-- Node1 -->
<g id="Node000001" class="node">
<title>Node1</title>
<g id="a_Node000001"><a xlink:title=" ">
<polygon fill="#999999" stroke="#666666" points="203,-93 0,-93 0,-74 203,-74 203,-93"/>
<text text-anchor="middle" x="101.5" y="-81" font-family="Helvetica,sans-Serif" font-size="10.00">Span::Renderer::LoadEnvironmentMap</text>
</a>
</g>
</g>
<!-- Node2 -->
<g id="Node000002" class="node">
<title>Node2</title>
<g id="a_Node000002"><a xlink:href="classSpan_1_1IBLBuilder.html#ae49f8044ac7ae74396afad74b9d93d96" target="_top" xlink:title="パノラマHDRテクスチャをCubemapに変換します。">
<polygon fill="white" stroke="#666666" points="400.5,-189.5 253.5,-189.5 253.5,-159.5 400.5,-159.5 400.5,-189.5"/>
<text text-anchor="start" x="261.5" y="-177.5" font-family="Helvetica,sans-Serif" font-size="10.00">Span::IBLBuilder::Generate</text>
<text text-anchor="middle" x="327" y="-166.5" font-family="Helvetica,sans-Serif" font-size="10.00">CubemapFromPanorama</text>
</a>
</g>
</g>
<!-- Node1&#45;&gt;Node2 -->
<g id="edge1_Node000001_Node000002" class="edge">
<title>Node1&#45;&gt;Node2</title>
<g id="a_edge1_Node000001_Node000002"><a xlink:title=" ">
<path fill="none" stroke="#63b8ff" d="M119.28,-93.02C144.59,-107.07 194.33,-133.55 239,-150.5 244.44,-152.57 250.14,-154.54 255.9,-156.4"/>
<polygon fill="#63b8ff" stroke="#63b8ff" points="255.03,-159.79 265.62,-159.42 257.11,-153.11 255.03,-159.79"/>
</a>
</g>
</g>
<!-- Node4 -->
<g id="Node000004" class="node">
<title>Node4</title>
<g id="a_Node000004"><a xlink:href="classSpan_1_1Texture.html#ab7f1497482e3c11f84341d83aab51b94" target="_top" xlink:title="SRVヒープ上のCPUハンドル (ディスクリプタのコピー元)">
<polygon fill="white" stroke="#666666" points="415,-141.5 239,-141.5 239,-111.5 415,-111.5 415,-141.5"/>
<text text-anchor="start" x="247" y="-129.5" font-family="Helvetica,sans-Serif" font-size="10.00">Span::Texture::GetCPUDescriptor</text>
<text text-anchor="middle" x="327" y="-118.5" font-family="Helvetica,sans-Serif" font-size="10.00">Handle</text>
</a>
</g>
</g>
<!-- Node1&#45;&gt;Node4 -->
<g id="edge3_Node000001_Node000004" class="edge">
<title>Node1&#45;&gt;Node4</title>
<g id="a_edge3_Node000001_Node000004"><a xlink:title=" ">
<path fill="none" stroke="#63b8ff" d="M152.1,-93.04C177.3,-97.89 208.67,-103.93 237.8,-109.53"/>
<polygon fill="#63b8ff" stroke="#63b8ff" points="237.52,-113.04 248,-111.49 238.84,-106.17 237.52,-113.04"/>
</a>
</g>
</g>
<!-- Node5 -->
<g id="Node000005" class="node">
<title>Node5</title>
<g id="a_Node000005"><a xlink:href="classSpan_1_1IBLBuilder.html#a04cd5881e9334a5d99f1f83a1eb9dae3" target="_top" xlink:title="IBLBuilderを初期化し、必要なCompute Shaderをロードします。">
<polygon fill="white" stroke="#666666" points="399,-93 255,-93 255,-74 399,-74 399,-93"/>
<text text-anchor="middle" x="327" y="-81" font-family="Helvetica,sans-Serif" font-size="10.00">Span::IBLBuilder::Initialize</text>
</a>
</g>
</g>
<!-- Node1&#45;&gt;Node5 -->
<g id="edge4_Node000001_Node000005" class="edge">
<title>Node1&#45;&gt;Node5</title>
<g id="a_edge4_Node000001_Node000005"><a xlink:title=" ">
<path fill="none" stroke="#63b8ff" d="M203.14,-83.5C217.08,-83.5 231.25,-83.5 244.78,-83.5"/>
<polygon fill="#63b8ff" stroke="#63b8ff" points="244.98,-87 254.98,-83.5 244.98,-80 244.98,-87"/>
</a>
</g>
</g>
<!-- Node6 -->
<g id="Node000006" class="node">
<title>Node6</title>
<g id="a_Node000006"><a xlink:href="classSpan_1_1Texture.html#a4149a1e0df66fc08179a7e3b4a3f5d49" target="_top" xlink:title="画像ファイルからテクスチャを作成します。">
<polygon fill="white" stroke="#666666" points="392.5,-56 261.5,-56 261.5,-37 392.5,-37 392.5,-56"/>
<text text-anchor="middle" x="327" y="-44" font-family="Helvetica,sans-Serif" font-size="10.00">Span::Texture::Initialize</text>
</a>
</g>
</g>
<!-- Node1&#45;&gt;Node6 -->
<g id="edge5_Node000001_Node000006" class="edge">
<title>Node1&#45;&gt;Node6</title>
<g id="a_edge5_Node000001_Node000006"><a xlink:title=" ">
<path fill="none" stroke="#63b8ff" d="M160.06,-73.97C190.05,-69.01 226.92,-62.9 258.28,-57.71"/>
<polygon fill="#63b8ff" stroke="#63b8ff" points="258.96,-61.15 268.25,-56.06 257.81,-54.24 258.96,-61.15"/>
</a>
</g>
</g>
<!-- Node8 -->
<g id="Node000008" class="node">
<title>Node8</title>
<g id="a_Node000008"><a xlink:href="classSpan_1_1IBLBuilder.html#add9e97fb896f767e24aa6cda5334cef5" target="_top" xlink:title="終了処理。ロードしたシェーダーやルートシグネチャを解放します。">
<polygon fill="white" stroke="#666666" points="402,-19 252,-19 252,0 402,0 402,-19"/>
<text text-anchor="middle" x="327" y="-7" font-family="Helvetica,sans-Serif" font-size="10.00">Span::IBLBuilder::Shutdown</text>
</a>
</g>
</g>
<!-- Node1&#45;&gt;Node8 -->
<g id="edge7_Node000001_Node000008" class="edge">
<title>Node1&#45;&gt;Node8</title>
<g id="a_edge7_Node000001_Node000008"><a xlink:title=" ">
<path fill="none" stroke="#63b8ff" d="M122.42,-73.95C148.64,-61.72 196.38,-40.53 239,-27.5 246.36,-25.25 254.16,-23.19 261.95,-21.34"/>
<polygon fill="#63b8ff" stroke="#63b8ff" points="262.8,-24.73 271.77,-19.1 261.24,-17.91 262.8,-24.73"/>
</a>
</g>
</g>
<!-- Node3 -->
<g id="Node000003" class="node">
<title>Node3</title>
<g id="a_Node000003"><a xlink:href="classSpan_1_1Texture.html#acf5cf9a1983bf79f7ab4a66d647aac96" target="_top" xlink:title=" ">
<polygon fill="white" stroke="#666666" points="603.5,-184 457.5,-184 457.5,-165 603.5,-165 603.5,-184"/>
<text text-anchor="middle" x="530.5" y="-172" font-family="Helvetica,sans-Serif" font-size="10.00">Span::Texture::GetUAVCPU</text>
</a>
</g>
</g>
<!-- Node2&#45;&gt;Node3 -->
<g id="edge2_Node000002_Node000003" class="edge">
<title>Node2&#45;&gt;Node3</title>
<g id="a_edge2_Node000002_Node000003"><a xlink:title=" ">
<path fill="none" stroke="#63b8ff" d="M400.75,-174.5C415.82,-174.5 431.8,-174.5 447.19,-174.5"/>
<polygon fill="#63b8ff" stroke="#63b8ff" points="447.2,-178 457.2,-174.5 447.2,-171 447.2,-178"/>
</a>
</g>
</g>
<!-- Node7 -->
<g id="Node000007" class="node">
<title>Node7</title>
<g id="a_Node000007"><a xlink:href="classSpan_1_1Texture.html#a5f376f62e8cc6759217f4bbddad30c97" target="_top" xlink:title=" ">
<polygon fill="white" stroke="#666666" points="610,-56 451,-56 451,-37 610,-37 610,-56"/>
<text text-anchor="middle" x="530.5" y="-44" font-family="Helvetica,sans-Serif" font-size="10.00">Span::Texture::UploadTexture</text>
</a>
</g>
</g>
<!-- Node6&#45;&gt;Node7 -->
<g id="edge6_Node000006_Node000007" class="edge">
<title>Node6&#45;&gt;Node7</title>
<g id="a_edge6_Node000006_Node000007"><a xlink:title=" ">
<path fill="none" stroke="#63b8ff" d="M392.59,-46.5C407.94,-46.5 424.57,-46.5 440.79,-46.5"/>
<polygon fill="#63b8ff" stroke="#63b8ff" points="440.82,-50 450.82,-46.5 440.82,-43 440.82,-50"/>
</a>
</g>
</g>
</g>
</svg>

<g id="navigator" transform="translate(0 0)" fill="#404254">
  <rect fill="#f2f5e9" fill-opacity="0.5" stroke="#606060" stroke-width=".5" x="0" y="0" width="60" height="60"/>
  <use id="zoomplus" xlink:href="#zoomPlus" x="17" y="9" onmousedown="handleZoom(evt,'in')"/>
  <use id="zoomminus" xlink:href="#zoomMin" x="42" y="9" onmousedown="handleZoom(evt,'out')"/>
  <use id="reset" xlink:href="#resetDef" x="30" y="36" onmousedown="handleReset()"/>
   <use id="arrowup" xlink:href="#arrowUp" x="0" y="0" onmousedown="handlePan(0,-1)"/>
  <use id="arrowright" xlink:href="#arrowRight" x="0" y="0" onmousedown="handlePan(1,0)"/>
  <use id="arrowdown" xlink:href="#arrowDown" x="0" y="0" onmousedown="handlePan(0,1)"/>
  <use id="arrowleft" xlink:href="#arrowLeft" x="0" y="0" onmousedown="handlePan(-1,0)"/>
</g>
<svg viewBox="0 0 15 15" width="100%" height="30px" preserveAspectRatio="xMaxYMin meet">
 <g id="arrow_out" transform="scale(0.3 0.3)">
  <a xlink:href="classSpan_1_1Renderer_a9616b9e065e231672478eb4db58d4d5f_cgraph_org.svg" target="_base">
   <rect id="button" ry="5" rx="5" y="6" x="6" height="38" width="38"
        fill="#f2f5e9" fill-opacity="0.5" stroke="#606060" stroke-width="1.0"/>
   <path id="arrow"
     d="M 11.500037,31.436501 C 11.940474,20.09759 22.043105,11.32322 32.158766,21.979434 L 37.068811,17.246167 C 37.068811,17.246167 37.088388,32 37.088388,32 L 22.160133,31.978069 C 22.160133,31.978069 26.997745,27.140456 26.997745,27.140456 C 18.528582,18.264221 13.291696,25.230495 11.500037,31.436501 z"
     style="fill:#404040;"/>
  </a>
 </g>
</svg>

<style type='text/css'>
<![CDATA[
[data-mouse-over-selected='false'] { opacity: 0.7; }
[data-mouse-over-selected='true']  { opacity: 1.0; }
]]>
</style>
<script type="application/ecmascript"><![CDATA[
document.addEventListener('DOMContentLoaded', (event) => {
  highlightEdges();
  highlightAdjacentNodes();
});
]]></script>
</svg>
