<?xml version="1.0" encoding="UTF-8" standalone="no"?>
<!DOCTYPE svg PUBLIC "-//W3C//DTD SVG 1.1//EN"
 "http://www.w3.org/Graphics/SVG/1.1/DTD/svg11.dtd">
<!-- Generated by graphviz version 2.43.0 (0)
 -->
<!-- Title: Span::EditorCameraSystem Pages: 1 -->
<svg width="152pt" height="277pt"
 viewBox="0.00 0.00 152.00 277.00" xmlns="http://www.w3.org/2000/svg" xmlns:xlink="http://www.w3.org/1999/xlink">
<g id="graph0" class="graph" transform="scale(1 1) rotate(0) translate(4 273)">
<title>Span::EditorCameraSystem</title>
<!-- Node1 -->
<g id="Node000001" class="node">
<title>Node1</title>
<g id="a_Node000001"><a xlink:title=" ">
<polygon fill="#999999" stroke="transparent" points="144,-79 0,-79 0,0 144,0 144,-79"/>
<text text-anchor="start" x="5" y="-66.5" font-family="Helvetica,sans-Serif" font-size="10.00">Span::EditorCameraSystem</text>
<text text-anchor="start" x="20.5" y="-51.5" font-family="Helvetica,sans-Serif" font-size="10.00">&#45;</text>
<text text-anchor="start" x="45" y="-51.5" font-family="Helvetica,sans-Serif" font-size="10.00">m_yaw</text>
<text text-anchor="start" x="20.5" y="-36.5" font-family="Helvetica,sans-Serif" font-size="10.00">&#45;</text>
<text text-anchor="start" x="45" y="-36.5" font-family="Helvetica,sans-Serif" font-size="10.00">m_pitch</text>
<text text-anchor="start" x="20.5" y="-21.5" font-family="Helvetica,sans-Serif" font-size="10.00">&#45;</text>
<text text-anchor="start" x="45" y="-21.5" font-family="Helvetica,sans-Serif" font-size="10.00">m_controlling</text>
<text text-anchor="start" x="18" y="-6.5" font-family="Helvetica,sans-Serif" font-size="10.00">+</text>
<text text-anchor="start" x="45" y="-6.5" font-family="Helvetica,sans-Serif" font-size="10.00">OnUpdate()</text>
<polygon fill="#666666" stroke="#666666" points="0,-61.5 0,-61.5 144,-61.5 144,-61.5 0,-61.5"/>
<polygon fill="#666666" stroke="#666666" points="0,-16.5 0,-16.5 43,-16.5 43,-16.5 0,-16.5"/>
<polygon fill="#666666" stroke="#666666" points="43,-16.5 43,-16.5 144,-16.5 144,-16.5 43,-16.5"/>
<polygon fill="none" stroke="#666666" points="0,0 0,-79 144,-79 144,0 0,0"/>
</a>
</g>
</g>
<!-- Node2 -->
<g id="Node000002" class="node">
<title>Node2</title>
<g id="a_Node000002"><a xlink:href="classSpan_1_1System.html" target="_top" xlink:title=" ">
<polygon fill="white" stroke="transparent" points="112.5,-269 31.5,-269 31.5,-115 112.5,-115 112.5,-269"/>
<text text-anchor="start" x="39" y="-257" font-family="Helvetica,sans-Serif" font-size="10.00">Span::System</text>
<text text-anchor="start" x="38.5" y="-242" font-family="Helvetica,sans-Serif" font-size="10.00">&#45;</text>
<text text-anchor="start" x="49" y="-242" font-family="Helvetica,sans-Serif" font-size="10.00">m_world</text>
<text text-anchor="start" x="38.5" y="-227" font-family="Helvetica,sans-Serif" font-size="10.00">&#45;</text>
<text text-anchor="start" x="49" y="-227" font-family="Helvetica,sans-Serif" font-size="10.00">isEnabled</text>
<text text-anchor="start" x="36" y="-212" font-family="Helvetica,sans-Serif" font-size="10.00">+</text>
<text text-anchor="start" x="49" y="-212" font-family="Helvetica,sans-Serif" font-size="10.00">~System()</text>
<text text-anchor="start" x="36" y="-197" font-family="Helvetica,sans-Serif" font-size="10.00">+</text>
<text text-anchor="start" x="49" y="-197" font-family="Helvetica,sans-Serif" font-size="10.00">Initialize()</text>
<text text-anchor="start" x="36" y="-182" font-family="Helvetica,sans-Serif" font-size="10.00">+</text>
<text text-anchor="start" x="49" y="-182" font-family="Helvetica,sans-Serif" font-size="10.00">OnCreate()</text>
<text text-anchor="start" x="36" y="-167" font-family="Helvetica,sans-Serif" font-size="10.00">+</text>
<text text-anchor="start" x="49" y="-167" font-family="Helvetica,sans-Serif" font-size="10.00">OnUpdate()</text>
<text text-anchor="start" x="36" y="-152" font-family="Helvetica,sans-Serif" font-size="10.00">+</text>
<text text-anchor="start" x="49" y="-152" font-family="Helvetica,sans-Serif" font-size="10.00">OnDestroy()</text>
<text text-anchor="start" x="36" y="-137" font-family="Helvetica,sans-Serif" font-size="10.00">+</text>
<text text-anchor="start" x="49" y="-137" font-family="Helvetica,sans-Serif" font-size="10.00">IsEnabled()</text>
<text text-anchor="start" x="36" y="-122" font-family="Helvetica,sans-Serif" font-size="10.00">#</text>
<text text-anchor="start" x="49" y="-122" font-family="Helvetica,sans-Serif" font-size="10.00">GetWorld()</text>
<polygon fill="#666666" stroke="#666666" points="32,-252 32,-252 113,-252 113,-252 32,-252"/>
<polygon fill="#666666" stroke="#666666" points="32,-222 32,-222 47,-222 47,-222 32,-222"/>
<polygon fill="#666666" stroke="#666666" points="47,-222 47,-222 113,-222 113,-222 47,-222"/>
<polygon fill="none" stroke="#666666" points="31.5,-115 31.5,-269 112.5,-269 112.5,-115 31.5,-115"/>
</a>
</g>
</g>
<!-- Node2&#45;&gt;Node1 -->
<g id="edge1_Node000001_Node000002" class="edge">
<title>Node2&#45;&gt;Node1</title>
<g id="a_edge1_Node000001_Node000002"><a xlink:title=" ">
<path fill="none" stroke="#63b8ff" d="M72,-104.74C72,-95.82 72,-87.11 72,-79.13"/>
<polygon fill="none" stroke="#63b8ff" points="68.5,-104.87 72,-114.87 75.5,-104.87 68.5,-104.87"/>
</a>
</g>
</g>
</g>
</svg>
