<?xml version="1.0" encoding="UTF-8" standalone="no"?>
<!DOCTYPE svg PUBLIC "-//W3C//DTD SVG 1.1//EN"
 "http://www.w3.org/Graphics/SVG/1.1/DTD/svg11.dtd">
<!-- Generated by graphviz version 2.43.0 (0)
 -->
<!-- Title: Span::TransformSystem Pages: 1 -->
<svg width="310pt" height="872pt"
 viewBox="0.00 0.00 310.00 872.00" xmlns="http://www.w3.org/2000/svg" xmlns:xlink="http://www.w3.org/1999/xlink">
<g id="graph0" class="graph" transform="scale(1 1) rotate(0) translate(4 868)">
<title>Span::TransformSystem</title>
<!-- Node1 -->
<g id="Node000001" class="node">
<title>Node1</title>
<g id="a_Node000001"><a xlink:title="🌏 全エンティティのワールド変換行列を更新するシステム。">
<polygon fill="#999999" stroke="transparent" points="219,-64 86,-64 86,0 219,0 219,-64"/>
<text text-anchor="start" x="95" y="-52" font-family="Helvetica,sans-Serif" font-size="10.00">Span::TransformSystem</text>
<text text-anchor="start" x="151" y="-37" font-family="Helvetica,sans-Serif" font-size="10.00"> </text>
<text text-anchor="start" x="90.5" y="-22" font-family="Helvetica,sans-Serif" font-size="10.00">+</text>
<text text-anchor="start" x="103.5" y="-22" font-family="Helvetica,sans-Serif" font-size="10.00">OnUpdate()</text>
<text text-anchor="start" x="93" y="-7" font-family="Helvetica,sans-Serif" font-size="10.00">&#45;</text>
<text text-anchor="start" x="103.5" y="-7" font-family="Helvetica,sans-Serif" font-size="10.00">ComputeWorldMatrix()</text>
<polygon fill="#666666" stroke="#666666" points="86.5,-47 86.5,-47 219.5,-47 219.5,-47 86.5,-47"/>
<polygon fill="#666666" stroke="#666666" points="86.5,-32 86.5,-32 219.5,-32 219.5,-32 86.5,-32"/>
<polygon fill="none" stroke="#666666" points="86,0 86,-64 219,-64 219,0 86,0"/>
</a>
</g>
</g>
<!-- Node2 -->
<g id="Node000002" class="node">
<title>Node2</title>
<g id="a_Node000002"><a xlink:href="classSpan_1_1System.html" target="_top" xlink:title="🧠 ゲームロジックを実装するための基底クラス。">
<polygon fill="white" stroke="transparent" points="194.5,-255 110.5,-255 110.5,-101 194.5,-101 194.5,-255"/>
<text text-anchor="start" x="119" y="-243" font-family="Helvetica,sans-Serif" font-size="10.00">Span::System</text>
<text text-anchor="start" x="117" y="-228" font-family="Helvetica,sans-Serif" font-size="10.00">&#45;</text>
<text text-anchor="start" x="127.5" y="-228" font-family="Helvetica,sans-Serif" font-size="10.00">isEnabled</text>
<text text-anchor="start" x="114.5" y="-213" font-family="Helvetica,sans-Serif" font-size="10.00">+</text>
<text text-anchor="start" x="127.5" y="-213" font-family="Helvetica,sans-Serif" font-size="10.00">~System()</text>
<text text-anchor="start" x="114.5" y="-198" font-family="Helvetica,sans-Serif" font-size="10.00">+</text>
<text text-anchor="start" x="127.5" y="-198" font-family="Helvetica,sans-Serif" font-size="10.00">Initialize()</text>
<text text-anchor="start" x="114.5" y="-183" font-family="Helvetica,sans-Serif" font-size="10.00">+</text>
<text text-anchor="start" x="127.5" y="-183" font-family="Helvetica,sans-Serif" font-size="10.00">OnCreate()</text>
<text text-anchor="start" x="114.5" y="-168" font-family="Helvetica,sans-Serif" font-size="10.00">+</text>
<text text-anchor="start" x="127.5" y="-168" font-family="Helvetica,sans-Serif" font-size="10.00">OnUpdate()</text>
<text text-anchor="start" x="114.5" y="-153" font-family="Helvetica,sans-Serif" font-size="10.00">+</text>
<text text-anchor="start" x="127.5" y="-153" font-family="Helvetica,sans-Serif" font-size="10.00">OnDestroy()</text>
<text text-anchor="start" x="114.5" y="-138" font-family="Helvetica,sans-Serif" font-size="10.00">+</text>
<text text-anchor="start" x="127.5" y="-138" font-family="Helvetica,sans-Serif" font-size="10.00">IsEnabled()</text>
<text text-anchor="start" x="114.5" y="-123" font-family="Helvetica,sans-Serif" font-size="10.00">+</text>
<text text-anchor="start" x="127.5" y="-123" font-family="Helvetica,sans-Serif" font-size="10.00">SetEnabled()</text>
<text text-anchor="start" x="114.5" y="-108" font-family="Helvetica,sans-Serif" font-size="10.00">#</text>
<text text-anchor="start" x="127.5" y="-108" font-family="Helvetica,sans-Serif" font-size="10.00">GetWorld()</text>
<polygon fill="#666666" stroke="#666666" points="110.5,-238 110.5,-238 194.5,-238 194.5,-238 110.5,-238"/>
<polygon fill="#666666" stroke="#666666" points="110.5,-223 110.5,-223 125.5,-223 125.5,-223 110.5,-223"/>
<polygon fill="#666666" stroke="#666666" points="125.5,-223 125.5,-223 194.5,-223 194.5,-223 125.5,-223"/>
<polygon fill="none" stroke="#666666" points="110.5,-101 110.5,-255 194.5,-255 194.5,-101 110.5,-101"/>
</a>
</g>
</g>
<!-- Node2&#45;&gt;Node1 -->
<g id="edge1_Node000001_Node000002" class="edge">
<title>Node2&#45;&gt;Node1</title>
<g id="a_edge1_Node000001_Node000002"><a xlink:title=" ">
<path fill="none" stroke="#63b8ff" d="M152.5,-90.53C152.5,-81.18 152.5,-72.16 152.5,-64.16"/>
<polygon fill="none" stroke="#63b8ff" points="149,-90.78 152.5,-100.78 156,-90.78 149,-90.78"/>
</a>
</g>
</g>
<!-- Node3 -->
<g id="Node000003" class="node">
<title>Node3</title>
<g id="a_Node000003"><a xlink:href="classSpan_1_1World.html" target="_top" xlink:title="🌏 ECSの管理マネージャー。全てのEntityとSystemを保持します。">
<polygon fill="white" stroke="transparent" points="221.5,-612 83.5,-612 83.5,-308 221.5,-308 221.5,-612"/>
<text text-anchor="start" x="123.5" y="-600" font-family="Helvetica,sans-Serif" font-size="10.00">Span::World</text>
<text text-anchor="start" x="90" y="-585" font-family="Helvetica,sans-Serif" font-size="10.00">&#45;</text>
<text text-anchor="start" x="100.5" y="-585" font-family="Helvetica,sans-Serif" font-size="10.00">systems</text>
<text text-anchor="start" x="90" y="-570" font-family="Helvetica,sans-Serif" font-size="10.00">&#45;</text>
<text text-anchor="start" x="100.5" y="-570" font-family="Helvetica,sans-Serif" font-size="10.00">entityLocationMap</text>
<text text-anchor="start" x="87.5" y="-555" font-family="Helvetica,sans-Serif" font-size="10.00">+</text>
<text text-anchor="start" x="100.5" y="-555" font-family="Helvetica,sans-Serif" font-size="10.00">World()</text>
<text text-anchor="start" x="87.5" y="-540" font-family="Helvetica,sans-Serif" font-size="10.00">+</text>
<text text-anchor="start" x="100.5" y="-540" font-family="Helvetica,sans-Serif" font-size="10.00">~World()</text>
<text text-anchor="start" x="87.5" y="-525" font-family="Helvetica,sans-Serif" font-size="10.00">+</text>
<text text-anchor="start" x="100.5" y="-525" font-family="Helvetica,sans-Serif" font-size="10.00">SPAN_NON_COPYABLE()</text>
<text text-anchor="start" x="87.5" y="-510" font-family="Helvetica,sans-Serif" font-size="10.00">+</text>
<text text-anchor="start" x="100.5" y="-510" font-family="Helvetica,sans-Serif" font-size="10.00">CreateEntity()</text>
<text text-anchor="start" x="87.5" y="-495" font-family="Helvetica,sans-Serif" font-size="10.00">+</text>
<text text-anchor="start" x="100.5" y="-495" font-family="Helvetica,sans-Serif" font-size="10.00">DestroyEntity()</text>
<text text-anchor="start" x="87.5" y="-480" font-family="Helvetica,sans-Serif" font-size="10.00">+</text>
<text text-anchor="start" x="100.5" y="-480" font-family="Helvetica,sans-Serif" font-size="10.00">IsAlive()</text>
<text text-anchor="start" x="87.5" y="-465" font-family="Helvetica,sans-Serif" font-size="10.00">+</text>
<text text-anchor="start" x="100.5" y="-465" font-family="Helvetica,sans-Serif" font-size="10.00">GetAllEntities()</text>
<text text-anchor="start" x="87.5" y="-450" font-family="Helvetica,sans-Serif" font-size="10.00">+</text>
<text text-anchor="start" x="100.5" y="-450" font-family="Helvetica,sans-Serif" font-size="10.00">Clear()</text>
<text text-anchor="start" x="87.5" y="-435" font-family="Helvetica,sans-Serif" font-size="10.00">+</text>
<text text-anchor="start" x="100.5" y="-435" font-family="Helvetica,sans-Serif" font-size="10.00">AddComponent()</text>
<text text-anchor="start" x="87.5" y="-420" font-family="Helvetica,sans-Serif" font-size="10.00">+</text>
<text text-anchor="start" x="100.5" y="-420" font-family="Helvetica,sans-Serif" font-size="10.00">RemoveComponent()</text>
<text text-anchor="start" x="100.5" y="-405" font-family="Helvetica,sans-Serif" font-size="10.00">ほか 8 件…</text>
<text text-anchor="start" x="90" y="-390" font-family="Helvetica,sans-Serif" font-size="10.00">&#45;</text>
<text text-anchor="start" x="100.5" y="-390" font-family="Helvetica,sans-Serif" font-size="10.00">MigrateEntity()</text>
<text text-anchor="start" x="90" y="-375" font-family="Helvetica,sans-Serif" font-size="10.00">&#45;</text>
<text text-anchor="start" x="100.5" y="-375" font-family="Helvetica,sans-Serif" font-size="10.00">GetComponentUnsafe()</text>
<text text-anchor="start" x="90" y="-360" font-family="Helvetica,sans-Serif" font-size="10.00">&#45;</text>
<text text-anchor="start" x="100.5" y="-360" font-family="Helvetica,sans-Serif" font-size="10.00">InitializeComponents()</text>
<text text-anchor="start" x="90" y="-345" font-family="Helvetica,sans-Serif" font-size="10.00">&#45;</text>
<text text-anchor="start" x="100.5" y="-345" font-family="Helvetica,sans-Serif" font-size="10.00">InitializeComponent()</text>
<text text-anchor="start" x="90" y="-330" font-family="Helvetica,sans-Serif" font-size="10.00">&#45;</text>
<text text-anchor="start" x="100.5" y="-330" font-family="Helvetica,sans-Serif" font-size="10.00">ProcessChunk_Impl()</text>
<text text-anchor="start" x="90" y="-315" font-family="Helvetica,sans-Serif" font-size="10.00">&#45;</text>
<text text-anchor="start" x="100.5" y="-315" font-family="Helvetica,sans-Serif" font-size="10.00">ProcessChunk()</text>
<polygon fill="#666666" stroke="#666666" points="83.5,-595 83.5,-595 221.5,-595 221.5,-595 83.5,-595"/>
<polygon fill="#666666" stroke="#666666" points="83.5,-565 83.5,-565 98.5,-565 98.5,-565 83.5,-565"/>
<polygon fill="#666666" stroke="#666666" points="98.5,-565 98.5,-565 221.5,-565 221.5,-565 98.5,-565"/>
<polygon fill="none" stroke="#666666" points="83.5,-308 83.5,-612 221.5,-612 221.5,-308 83.5,-308"/>
</a>
</g>
</g>
<!-- Node3&#45;&gt;Node2 -->
<g id="edge2_Node000002_Node000003" class="edge">
<title>Node3&#45;&gt;Node2</title>
<g id="a_edge2_Node000002_Node000003"><a xlink:title=" ">
<path fill="none" stroke="#63b8ff" d="M152.5,-307.94C152.5,-294.14 152.5,-280.48 152.5,-267.51"/>
<polygon fill="none" stroke="#63b8ff" points="152.5,-267.3 148.5,-261.3 152.5,-255.3 156.5,-261.3 152.5,-267.3"/>
</a>
</g>
<text text-anchor="start" x="155.5" y="-278.5" font-family="Helvetica,sans-Serif" font-size="10.00" fill="grey">&#45;m_world</text>
</g>
<!-- Node4 -->
<g id="Node000004" class="node">
<title>Node4</title>
<g id="a_Node000004"><a xlink:href="classSpan_1_1EntityManager.html" target="_top" xlink:title="🆔 Entity IDの発行、破棄、有効性チェックを行う管理クラス。">
<polygon fill="white" stroke="transparent" points="145,-864 0,-864 0,-665 145,-665 145,-864"/>
<text text-anchor="start" x="22" y="-851.5" font-family="Helvetica,sans-Serif" font-size="10.00">Span::EntityManager</text>
<text text-anchor="start" x="7" y="-836.5" font-family="Helvetica,sans-Serif" font-size="10.00">&#45;</text>
<text text-anchor="start" x="17.5" y="-836.5" font-family="Helvetica,sans-Serif" font-size="10.00">generations</text>
<text text-anchor="start" x="7" y="-821.5" font-family="Helvetica,sans-Serif" font-size="10.00">&#45;</text>
<text text-anchor="start" x="17.5" y="-821.5" font-family="Helvetica,sans-Serif" font-size="10.00">freeIndices</text>
<text text-anchor="start" x="7" y="-806.5" font-family="Helvetica,sans-Serif" font-size="10.00">&#45;</text>
<text text-anchor="start" x="17.5" y="-806.5" font-family="Helvetica,sans-Serif" font-size="10.00">activeCount</text>
<text text-anchor="start" x="7" y="-791.5" font-family="Helvetica,sans-Serif" font-size="10.00">&#45;</text>
<text text-anchor="start" x="17.5" y="-791.5" font-family="Helvetica,sans-Serif" font-size="10.00">MINIMUM_FREE_INDICES</text>
<text text-anchor="start" x="7" y="-776.5" font-family="Helvetica,sans-Serif" font-size="10.00">&#45;</text>
<text text-anchor="start" x="17.5" y="-776.5" font-family="Helvetica,sans-Serif" font-size="10.00">INITIAL_CAPACITY</text>
<text text-anchor="start" x="4.5" y="-761.5" font-family="Helvetica,sans-Serif" font-size="10.00">+</text>
<text text-anchor="start" x="17.5" y="-761.5" font-family="Helvetica,sans-Serif" font-size="10.00">EntityManager()</text>
<text text-anchor="start" x="4.5" y="-746.5" font-family="Helvetica,sans-Serif" font-size="10.00">+</text>
<text text-anchor="start" x="17.5" y="-746.5" font-family="Helvetica,sans-Serif" font-size="10.00">~EntityManager()</text>
<text text-anchor="start" x="4.5" y="-731.5" font-family="Helvetica,sans-Serif" font-size="10.00">+</text>
<text text-anchor="start" x="17.5" y="-731.5" font-family="Helvetica,sans-Serif" font-size="10.00">SPAN_NON_COPYABLE()</text>
<text text-anchor="start" x="4.5" y="-716.5" font-family="Helvetica,sans-Serif" font-size="10.00">+</text>
<text text-anchor="start" x="17.5" y="-716.5" font-family="Helvetica,sans-Serif" font-size="10.00">CreateEntity()</text>
<text text-anchor="start" x="4.5" y="-701.5" font-family="Helvetica,sans-Serif" font-size="10.00">+</text>
<text text-anchor="start" x="17.5" y="-701.5" font-family="Helvetica,sans-Serif" font-size="10.00">DestroyEntity()</text>
<text text-anchor="start" x="4.5" y="-686.5" font-family="Helvetica,sans-Serif" font-size="10.00">+</text>
<text text-anchor="start" x="17.5" y="-686.5" font-family="Helvetica,sans-Serif" font-size="10.00">IsAlive()</text>
<text text-anchor="start" x="4.5" y="-671.5" font-family="Helvetica,sans-Serif" font-size="10.00">+</text>
<text text-anchor="start" x="17.5" y="-671.5" font-family="Helvetica,sans-Serif" font-size="10.00">GetActiveEntityCount()</text>
<polygon fill="#666666" stroke="#666666" points="0.5,-846.5 0.5,-846.5 145.5,-846.5 145.5,-846.5 0.5,-846.5"/>
<polygon fill="#666666" stroke="#666666" points="0.5,-771.5 0.5,-771.5 15.5,-771.5 15.5,-771.5 0.5,-771.5"/>
<polygon fill="#666666" stroke="#666666" points="15.5,-771.5 15.5,-771.5 145.5,-771.5 145.5,-771.5 15.5,-771.5"/>
<polygon fill="none" stroke="#666666" points="0,-665 0,-864 145,-864 145,-665 0,-665"/>
</a>
</g>
</g>
<!-- Node4&#45;&gt;Node3 -->
<g id="edge3_Node000003_Node000004" class="edge">
<title>Node4&#45;&gt;Node3</title>
<g id="a_edge3_Node000003_Node000004"><a xlink:title=" ">
<path fill="none" stroke="#63b8ff" d="M98.58,-664.87C102.08,-651.67 105.73,-637.86 109.42,-623.91"/>
<polygon fill="none" stroke="#63b8ff" points="109.45,-623.78 107.12,-616.96 112.52,-612.18 114.85,-619 109.45,-623.78"/>
</a>
</g>
<text text-anchor="start" x="111.5" y="-635.5" font-family="Helvetica,sans-Serif" font-size="10.00" fill="grey">&#45;entityManager</text>
</g>
<!-- Node5 -->
<g id="Node000005" class="node">
<title>Node5</title>
<g id="a_Node000005"><a xlink:href="classSpan_1_1ArchetypeManager.html" target="_top" xlink:title="🏭 アーキタイプファクトリー&amp;キャッシュ。">
<polygon fill="white" stroke="transparent" points="302,-811.5 163,-811.5 163,-717.5 302,-717.5 302,-811.5"/>
<text text-anchor="start" x="171.5" y="-799.5" font-family="Helvetica,sans-Serif" font-size="10.00">Span::ArchetypeManager</text>
<text text-anchor="start" x="170" y="-784.5" font-family="Helvetica,sans-Serif" font-size="10.00">&#45;</text>
<text text-anchor="start" x="180.5" y="-784.5" font-family="Helvetica,sans-Serif" font-size="10.00">archetypes</text>
<text text-anchor="start" x="167.5" y="-769.5" font-family="Helvetica,sans-Serif" font-size="10.00">+</text>
<text text-anchor="start" x="180.5" y="-769.5" font-family="Helvetica,sans-Serif" font-size="10.00">~ArchetypeManager()</text>
<text text-anchor="start" x="167.5" y="-754.5" font-family="Helvetica,sans-Serif" font-size="10.00">+</text>
<text text-anchor="start" x="180.5" y="-754.5" font-family="Helvetica,sans-Serif" font-size="10.00">GetOrCreateArchetype()</text>
<text text-anchor="start" x="167.5" y="-739.5" font-family="Helvetica,sans-Serif" font-size="10.00">+</text>
<text text-anchor="start" x="180.5" y="-739.5" font-family="Helvetica,sans-Serif" font-size="10.00">GetOrCreateArchetype()</text>
<text text-anchor="start" x="167.5" y="-724.5" font-family="Helvetica,sans-Serif" font-size="10.00">+</text>
<text text-anchor="start" x="180.5" y="-724.5" font-family="Helvetica,sans-Serif" font-size="10.00">GetAllArchetypes()</text>
<polygon fill="#666666" stroke="#666666" points="163.5,-794.5 163.5,-794.5 302.5,-794.5 302.5,-794.5 163.5,-794.5"/>
<polygon fill="#666666" stroke="#666666" points="163.5,-779.5 163.5,-779.5 178.5,-779.5 178.5,-779.5 163.5,-779.5"/>
<polygon fill="#666666" stroke="#666666" points="178.5,-779.5 178.5,-779.5 302.5,-779.5 302.5,-779.5 178.5,-779.5"/>
<polygon fill="none" stroke="#666666" points="163,-717.5 163,-811.5 302,-811.5 302,-717.5 163,-717.5"/>
</a>
</g>
</g>
<!-- Node5&#45;&gt;Node3 -->
<g id="edge4_Node000003_Node000005" class="edge">
<title>Node5&#45;&gt;Node3</title>
<g id="a_edge4_Node000003_Node000005"><a xlink:title=" ">
<path fill="none" stroke="#63b8ff" d="M220.26,-717.23C213.5,-691.65 204.65,-658.17 195.58,-623.89"/>
<polygon fill="none" stroke="#63b8ff" points="195.57,-623.85 190.17,-619.07 192.5,-612.25 197.9,-617.02 195.57,-623.85"/>
</a>
</g>
<text text-anchor="start" x="202.5" y="-635.5" font-family="Helvetica,sans-Serif" font-size="10.00" fill="grey">&#45;archetypeManager</text>
</g>
</g>
</svg>
