<?xml version="1.0" encoding="UTF-8" standalone="no"?>
<!DOCTYPE svg PUBLIC "-//W3C//DTD SVG 1.1//EN"
 "http://www.w3.org/Graphics/SVG/1.1/DTD/svg11.dtd">
<!-- Generated by graphviz version 2.43.0 (0)
 -->
<!-- Title: Span::SkyboxPass Pages: 1 -->
<svg width="131pt" height="279pt"
 viewBox="0.00 0.00 130.50 279.00" xmlns="http://www.w3.org/2000/svg" xmlns:xlink="http://www.w3.org/1999/xlink">
<g id="graph0" class="graph" transform="scale(1 1) rotate(0) translate(4 275)">
<title>Span::SkyboxPass</title>
<!-- Node1 -->
<g id="Node000001" class="node">
<title>Node1</title>
<g id="a_Node000001"><a xlink:title="ãƒ—ãƒ­ã‚·ãƒ¼ã‚¸ãƒ£ãƒ«ã‚¹ã‚«ã‚¤ãƒœãƒƒã‚¯ã‚¹æç”»ãƒ‘ã‚¹ã€‚">
<polygon fill="#999999" stroke="transparent" points="103,-124 0,-124 0,0 103,0 103,-124"/>
<text text-anchor="start" x="8" y="-112" font-family="Helvetica,sans-Serif" font-size="10.00">Span::SkyboxPass</text>
<text text-anchor="start" x="7" y="-97" font-family="Helvetica,sans-Serif" font-size="10.00">&#45;</text>
<text text-anchor="start" x="17.5" y="-97" font-family="Helvetica,sans-Serif" font-size="10.00">m_pso</text>
<text text-anchor="start" x="7" y="-82" font-family="Helvetica,sans-Serif" font-size="10.00">&#45;</text>
<text text-anchor="start" x="17.5" y="-82" font-family="Helvetica,sans-Serif" font-size="10.00">m_rootSignature</text>
<text text-anchor="start" x="4.5" y="-67" font-family="Helvetica,sans-Serif" font-size="10.00">+</text>
<text text-anchor="start" x="17.5" y="-67" font-family="Helvetica,sans-Serif" font-size="10.00">SkyboxPass()</text>
<text text-anchor="start" x="4.5" y="-52" font-family="Helvetica,sans-Serif" font-size="10.00">+</text>
<text text-anchor="start" x="17.5" y="-52" font-family="Helvetica,sans-Serif" font-size="10.00">~SkyboxPass()</text>
<text text-anchor="start" x="4.5" y="-37" font-family="Helvetica,sans-Serif" font-size="10.00">+</text>
<text text-anchor="start" x="17.5" y="-37" font-family="Helvetica,sans-Serif" font-size="10.00">Initialize()</text>
<text text-anchor="start" x="4.5" y="-22" font-family="Helvetica,sans-Serif" font-size="10.00">+</text>
<text text-anchor="start" x="17.5" y="-22" font-family="Helvetica,sans-Serif" font-size="10.00">Shutdown()</text>
<text text-anchor="start" x="4.5" y="-7" font-family="Helvetica,sans-Serif" font-size="10.00">+</text>
<text text-anchor="start" x="17.5" y="-7" font-family="Helvetica,sans-Serif" font-size="10.00">Render()</text>
<polygon fill="#666666" stroke="#666666" points="0.5,-107 0.5,-107 103.5,-107 103.5,-107 0.5,-107"/>
<polygon fill="#666666" stroke="#666666" points="0.5,-77 0.5,-77 15.5,-77 15.5,-77 0.5,-77"/>
<polygon fill="#666666" stroke="#666666" points="15.5,-77 15.5,-77 103.5,-77 103.5,-77 15.5,-77"/>
<polygon fill="none" stroke="#666666" points="0,0 0,-124 103,-124 103,0 0,0"/>
</a>
</g>
</g>
<!-- Node2 -->
<g id="Node000002" class="node">
<title>Node2</title>
<g id="a_Node000002"><a xlink:href="classSpan_1_1Shader.html" target="_top" xlink:title="ðŸ“œ HLSLã‚·ã‚§ãƒ¼ãƒ€ãƒ¼ãƒ•ã‚¡ã‚¤ãƒ«ã®ã‚³ãƒ³ãƒ‘ã‚¤ãƒ«ã¨ãƒã‚¤ãƒŠãƒªä¿æŒã€‚">
<polygon fill="white" stroke="transparent" points="97.5,-271 5.5,-271 5.5,-192 97.5,-192 97.5,-271"/>
<text text-anchor="start" x="19.5" y="-258.5" font-family="Helvetica,sans-Serif" font-size="10.00">Span::Shader</text>
<text text-anchor="start" x="12" y="-243.5" font-family="Helvetica,sans-Serif" font-size="10.00">&#45;</text>
<text text-anchor="start" x="22.5" y="-243.5" font-family="Helvetica,sans-Serif" font-size="10.00">blob</text>
<text text-anchor="start" x="9.5" y="-228.5" font-family="Helvetica,sans-Serif" font-size="10.00">+</text>
<text text-anchor="start" x="22.5" y="-228.5" font-family="Helvetica,sans-Serif" font-size="10.00">Load()</text>
<text text-anchor="start" x="9.5" y="-213.5" font-family="Helvetica,sans-Serif" font-size="10.00">+</text>
<text text-anchor="start" x="22.5" y="-213.5" font-family="Helvetica,sans-Serif" font-size="10.00">GetBlob()</text>
<text text-anchor="start" x="9.5" y="-198.5" font-family="Helvetica,sans-Serif" font-size="10.00">+</text>
<text text-anchor="start" x="22.5" y="-198.5" font-family="Helvetica,sans-Serif" font-size="10.00">GetBytecode()</text>
<polygon fill="#666666" stroke="#666666" points="5.5,-253.5 5.5,-253.5 97.5,-253.5 97.5,-253.5 5.5,-253.5"/>
<polygon fill="#666666" stroke="#666666" points="5.5,-238.5 5.5,-238.5 20.5,-238.5 20.5,-238.5 5.5,-238.5"/>
<polygon fill="#666666" stroke="#666666" points="20.5,-238.5 20.5,-238.5 97.5,-238.5 97.5,-238.5 20.5,-238.5"/>
<polygon fill="none" stroke="#666666" points="5.5,-192 5.5,-271 97.5,-271 97.5,-192 5.5,-192"/>
</a>
</g>
</g>
<!-- Node2&#45;&gt;Node1 -->
<g id="edge1_Node000001_Node000002" class="edge">
<title>Node2&#45;&gt;Node1</title>
<g id="a_edge1_Node000001_Node000002"><a xlink:title=" ">
<path fill="none" stroke="#63b8ff" d="M51.5,-191.65C51.5,-175.16 51.5,-155.38 51.5,-136.32"/>
<polygon fill="none" stroke="#63b8ff" points="51.5,-136.27 47.5,-130.27 51.5,-124.27 55.5,-130.27 51.5,-136.27"/>
</a>
</g>
<text text-anchor="start" x="55" y="-163" font-family="Helvetica,sans-Serif" font-size="10.00" fill="grey">&#45;m_shaderPS</text>
<text text-anchor="start" x="55" y="-148" font-family="Helvetica,sans-Serif" font-size="10.00" fill="grey">&#45;m_shaderVS</text>
</g>
</g>
</svg>
