<?xml version="1.0" encoding="UTF-8" standalone="no"?>
<!DOCTYPE svg PUBLIC "-//W3C//DTD SVG 1.1//EN"
 "http://www.w3.org/Graphics/SVG/1.1/DTD/svg11.dtd">
<!-- Generated by graphviz version 2.43.0 (0)
 -->
<!-- Title: Span::AssetRegistry::GetPath Pages: 1 -->
<!--zoomable 402 -->

<svg id="main" version="1.1" xmlns="http://www.w3.org/2000/svg" xmlns:xlink="http://www.w3.org/1999/xlink" xml:space="preserve" onload="init(evt)">

<style type="text/css"><![CDATA[
.node, .edge {opacity: 0.7;}
.node.selected, .edge.selected {opacity: 1;}
.edge:hover path { stroke: red; }
.edge:hover polygon { stroke: red; fill: red; }
]]></style>

<defs>
  <circle id="rim" cx="0" cy="0" r="7"/>
  <circle id="rim2" cx="0" cy="0" r="3.5"/>
  <g id="zoomPlus">
    <use xlink:href="#rim" fill="#404040"><set attributeName="fill" to="#808080" begin="zoomplus.mouseover" end="zoomplus.mouseout"/></use>
    <path d="M-4,0h8M0,-4v8" fill="none" stroke="white" stroke-width="1.5" pointer-events="none"/>
  </g>
  <g id="zoomMin">
    <use xlink:href="#rim" fill="#404040"><set attributeName="fill" to="#808080" begin="zoomminus.mouseover" end="zoomminus.mouseout"/></use>
    <path d="M-4,0h8" fill="none" stroke="white" stroke-width="1.5" pointer-events="none"/>
  </g>
  <g id="arrowUp" transform="translate(30 24)">
    <use xlink:href="#rim"/>
    <path pointer-events="none" fill="none" stroke="white" stroke-width="1.5" d="M0,-3.0v7 M-2.5,-0.5L0,-3.0L2.5,-0.5"/>
  </g>
  <g id="arrowRight" transform="rotate(90) translate(36 -43)">
    <use xlink:href="#rim"/>
    <path pointer-events="none" fill="none" stroke="white" stroke-width="1.5" d="M0,-3.0v7 M-2.5,-0.5L0,-3.0L2.5,-0.5"/>
  </g>
  <g id="arrowDown" transform="rotate(180) translate(-30 -48)">
    <use xlink:href="#rim"/>
    <path pointer-events="none" fill="none" stroke="white" stroke-width="1.5" d="M0,-3.0v7 M-2.5,-0.5L0,-3.0L2.5,-0.5"/>
  </g>
  <g id="arrowLeft" transform="rotate(270) translate(-36 17)">
    <use xlink:href="#rim"/>
    <path pointer-events="none" fill="none" stroke="white" stroke-width="1.5" d="M0,-3.0v7 M-2.5,-0.5L0,-3.0L2.5,-0.5"/>
  </g>
  <g id="resetDef">
    <use xlink:href="#rim2" fill="#404040"><set attributeName="fill" to="#808080" begin="reset.mouseover" end="reset.mouseout"/></use>
  </g>
</defs>
<script type="application/ecmascript">
var viewWidth = 1055;
var viewHeight = 402;
var sectionId = 'dynsection-3';
</script>
<script type="application/ecmascript" xlink:href="svg.min.js"/>
<svg id="graph" class="graph">
<g id="viewport">
<title>Span::AssetRegistry::GetPath</title>
<!-- Node1 -->
<g id="Node000001" class="node">
<title>Node1</title>
<g id="a_Node000001"><a xlink:title=" ">
<polygon fill="#999999" stroke="#666666" points="1047,-230 933,-230 933,-200 1047,-200 1047,-230"/>
<text text-anchor="start" x="941" y="-218" font-family="Helvetica,sans-Serif" font-size="10.00">Span::AssetRegistry</text>
<text text-anchor="middle" x="990" y="-207" font-family="Helvetica,sans-Serif" font-size="10.00">::GetPath</text>
</a>
</g>
</g>
<!-- Node2 -->
<g id="Node000002" class="node">
<title>Node2</title>
<g id="a_Node000002"><a xlink:href="classSpan_1_1AssetManager.html#afea5c55a143ce55fd19b8fedc4e578f5" target="_top" xlink:title="GUIDでマテリアルを取得 (推奨)">
<polygon fill="white" stroke="#666666" points="721.5,-230 605.5,-230 605.5,-200 721.5,-200 721.5,-230"/>
<text text-anchor="start" x="613.5" y="-218" font-family="Helvetica,sans-Serif" font-size="10.00">Span::AssetManager</text>
<text text-anchor="middle" x="663.5" y="-207" font-family="Helvetica,sans-Serif" font-size="10.00">::GetMaterial</text>
</a>
</g>
</g>
<!-- Node1&#45;&gt;Node2 -->
<g id="edge1_Node000001_Node000002" class="edge">
<title>Node1&#45;&gt;Node2</title>
<g id="a_edge1_Node000001_Node000002"><a xlink:title=" ">
<path fill="none" stroke="#63b8ff" d="M922.49,-215C863.33,-215 777.72,-215 721.6,-215"/>
<polygon fill="#63b8ff" stroke="#63b8ff" points="922.85,-218.5 932.85,-215 922.85,-211.5 922.85,-218.5"/>
</a>
</g>
</g>
<!-- Node11 -->
<g id="Node000011" class="node">
<title>Node11</title>
<g id="a_Node000011"><a xlink:href="classSpan_1_1AssetManager.html#a8013680152c26b9e11618a2bb207eff0" target="_top" xlink:title="GUIDでメッシュを取得 (推奨)">
<polygon fill="white" stroke="#666666" points="897,-100 781,-100 781,-70 897,-70 897,-100"/>
<text text-anchor="start" x="789" y="-88" font-family="Helvetica,sans-Serif" font-size="10.00">Span::AssetManager</text>
<text text-anchor="middle" x="839" y="-77" font-family="Helvetica,sans-Serif" font-size="10.00">::GetMesh</text>
</a>
</g>
</g>
<!-- Node1&#45;&gt;Node11 -->
<g id="edge10_Node000001_Node000011" class="edge">
<title>Node1&#45;&gt;Node11</title>
<g id="a_edge10_Node000001_Node000011"><a xlink:title=" ">
<path fill="none" stroke="#63b8ff" d="M964.01,-193.2C933.75,-166.79 883.56,-123.01 857.27,-100.07"/>
<polygon fill="#63b8ff" stroke="#63b8ff" points="961.78,-195.9 971.62,-199.83 966.38,-190.62 961.78,-195.9"/>
</a>
</g>
</g>
<!-- Node16 -->
<g id="Node000016" class="node">
<title>Node16</title>
<g id="a_Node000016"><a xlink:href="classSpan_1_1AssetManager.html#a8ad360aa2a6d909bfafc96484d426a0f" target="_top" xlink:title="GUIDでテクスチャを取得 (推奨)">
<polygon fill="white" stroke="#666666" points="897,-294 781,-294 781,-264 897,-264 897,-294"/>
<text text-anchor="start" x="789" y="-282" font-family="Helvetica,sans-Serif" font-size="10.00">Span::AssetManager</text>
<text text-anchor="middle" x="839" y="-271" font-family="Helvetica,sans-Serif" font-size="10.00">::GetTexture</text>
</a>
</g>
</g>
<!-- Node1&#45;&gt;Node16 -->
<g id="edge16_Node000001_Node000016" class="edge">
<title>Node1&#45;&gt;Node16</title>
<g id="a_edge16_Node000001_Node000016"><a xlink:title=" ">
<path fill="none" stroke="#63b8ff" d="M944.8,-233.98C922.5,-243.56 895.83,-255.02 874.97,-263.98"/>
<polygon fill="#63b8ff" stroke="#63b8ff" points="946.26,-237.17 954.07,-230.01 943.5,-230.74 946.26,-237.17"/>
</a>
</g>
</g>
<!-- Node3 -->
<g id="Node000003" class="node">
<title>Node3</title>
<g id="a_Node000003"><a xlink:href="classSpan_1_1InspectorPanel.html#acbecd010da050d28a48148287775259a" target="_top" xlink:title="マテリアルアセット用のプロパティエディタを描画します。">
<polygon fill="white" stroke="#666666" points="516.5,-386 398.5,-386 398.5,-356 516.5,-356 516.5,-386"/>
<text text-anchor="start" x="406.5" y="-374" font-family="Helvetica,sans-Serif" font-size="10.00">Span::InspectorPanel</text>
<text text-anchor="middle" x="457.5" y="-363" font-family="Helvetica,sans-Serif" font-size="10.00">::DrawMaterialEditor</text>
</a>
</g>
</g>
<!-- Node2&#45;&gt;Node3 -->
<g id="edge2_Node000002_Node000003" class="edge">
<title>Node2&#45;&gt;Node3</title>
<g id="a_edge2_Node000002_Node000003"><a xlink:title=" ">
<path fill="none" stroke="#63b8ff" d="M629.34,-235.76C613.66,-246.69 595.48,-261.11 582,-277 560.13,-302.77 572.1,-322.52 546,-344 537.53,-350.97 527.27,-356.14 516.8,-359.98"/>
<polygon fill="#63b8ff" stroke="#63b8ff" points="631.43,-238.57 637.74,-230.06 627.5,-232.77 631.43,-238.57"/>
</a>
</g>
</g>
<!-- Node6 -->
<g id="Node000006" class="node">
<title>Node6</title>
<g id="a_Node000006"><a xlink:href="classSpan_1_1ImGuiUI.html#a34b9192587c923b4380f4cbc72155b75" target="_top" xlink:title=" ">
<polygon fill="white" stroke="#666666" points="546,-249.5 369,-249.5 369,-230.5 546,-230.5 546,-249.5"/>
<text text-anchor="middle" x="457.5" y="-237.5" font-family="Helvetica,sans-Serif" font-size="10.00">Span::ImGuiUI::DrawMaterialSlot</text>
</a>
</g>
</g>
<!-- Node2&#45;&gt;Node6 -->
<g id="edge5_Node000002_Node000006" class="edge">
<title>Node2&#45;&gt;Node6</title>
<g id="a_edge5_Node000002_Node000006"><a xlink:title=" ">
<path fill="none" stroke="#63b8ff" d="M595.39,-223.22C576.45,-225.55 555.68,-228.09 536.18,-230.48"/>
<polygon fill="#63b8ff" stroke="#63b8ff" points="595.9,-226.69 605.4,-222 595.05,-219.74 595.9,-226.69"/>
</a>
</g>
</g>
<!-- Node9 -->
<g id="Node000009" class="node">
<title>Node9</title>
<g id="a_Node000009"><a xlink:href="classSpan_1_1AssetManager.html#a6d21e48b9d53035bbd83c5ae91ec083b" target="_top" xlink:title="パスでマテリアルを取得 (キャッシュ対応)。">
<polygon fill="white" stroke="#666666" points="515.5,-164 399.5,-164 399.5,-134 515.5,-134 515.5,-164"/>
<text text-anchor="start" x="407.5" y="-152" font-family="Helvetica,sans-Serif" font-size="10.00">Span::AssetManager</text>
<text text-anchor="middle" x="457.5" y="-141" font-family="Helvetica,sans-Serif" font-size="10.00">::GetMaterial</text>
</a>
</g>
</g>
<!-- Node2&#45;&gt;Node9 -->
<g id="edge8_Node000002_Node000009" class="edge">
<title>Node2&#45;&gt;Node9</title>
<g id="a_edge8_Node000002_Node000009"><a xlink:title=" ">
<path fill="none" stroke="#63b8ff" d="M613.59,-196.4C592.87,-188.78 568.38,-180.09 546,-173 536.24,-169.91 525.79,-166.84 515.64,-163.98"/>
<polygon fill="#63b8ff" stroke="#63b8ff" points="612.54,-199.75 623.13,-199.94 614.97,-193.18 612.54,-199.75"/>
</a>
</g>
</g>
<!-- Node10 -->
<g id="Node000010" class="node">
<title>Node10</title>
<g id="a_Node000010"><a xlink:href="structSpan_1_1Internal_1_1JsonDeserializeVisitor.html#a495cc4a9a2cb8412f364099dc23564f0" target="_top" xlink:title=" ">
<polygon fill="white" stroke="#666666" points="540,-212 375,-212 375,-182 540,-182 540,-212"/>
<text text-anchor="start" x="383" y="-200" font-family="Helvetica,sans-Serif" font-size="10.00">Span::Internal::JsonDeserialize</text>
<text text-anchor="middle" x="457.5" y="-189" font-family="Helvetica,sans-Serif" font-size="10.00">Visitor::Visit</text>
</a>
</g>
</g>
<!-- Node2&#45;&gt;Node10 -->
<g id="edge9_Node000002_Node000010" class="edge">
<title>Node2&#45;&gt;Node10</title>
<g id="a_edge9_Node000002_Node000010"><a xlink:title=" ">
<path fill="none" stroke="#63b8ff" d="M595.27,-209.07C577.71,-207.52 558.59,-205.83 540.37,-204.22"/>
<polygon fill="#63b8ff" stroke="#63b8ff" points="595.13,-212.57 605.4,-209.96 595.75,-205.6 595.13,-212.57"/>
</a>
</g>
</g>
<!-- Node4 -->
<g id="Node000004" class="node">
<title>Node4</title>
<g id="a_Node000004"><a xlink:href="classSpan_1_1InspectorPanel.html#aa24fb5f7f8d1de98906fe4b644cb4a86" target="_top" xlink:title="アセット用のインスペクターを描画します。">
<polygon fill="white" stroke="#666666" points="320,-386 200,-386 200,-356 320,-356 320,-386"/>
<text text-anchor="start" x="208" y="-374" font-family="Helvetica,sans-Serif" font-size="10.00">Span::InspectorPanel</text>
<text text-anchor="middle" x="260" y="-363" font-family="Helvetica,sans-Serif" font-size="10.00">::DrawAssetInspector</text>
</a>
</g>
</g>
<!-- Node3&#45;&gt;Node4 -->
<g id="edge3_Node000003_Node000004" class="edge">
<title>Node3&#45;&gt;Node4</title>
<g id="a_edge3_Node000003_Node000004"><a xlink:title=" ">
<path fill="none" stroke="#63b8ff" d="M388.36,-371C366.17,-371 341.74,-371 320.26,-371"/>
<polygon fill="#63b8ff" stroke="#63b8ff" points="388.37,-374.5 398.37,-371 388.37,-367.5 388.37,-374.5"/>
</a>
</g>
</g>
<!-- Node5 -->
<g id="Node000005" class="node">
<title>Node5</title>
<g id="a_Node000005"><a xlink:href="classSpan_1_1InspectorPanel.html#ae32fda6018a2e54f880e6708ac5b89fe" target="_top" xlink:title="毎フレーム呼ばれる描画関数。">
<polygon fill="white" stroke="#666666" points="134.5,-386 16.5,-386 16.5,-356 134.5,-356 134.5,-386"/>
<text text-anchor="start" x="24.5" y="-374" font-family="Helvetica,sans-Serif" font-size="10.00">Span::InspectorPanel</text>
<text text-anchor="middle" x="75.5" y="-363" font-family="Helvetica,sans-Serif" font-size="10.00">::OnImGuiRender</text>
</a>
</g>
</g>
<!-- Node4&#45;&gt;Node5 -->
<g id="edge4_Node000004_Node000005" class="edge">
<title>Node4&#45;&gt;Node5</title>
<g id="a_edge4_Node000004_Node000005"><a xlink:title=" ">
<path fill="none" stroke="#63b8ff" d="M189.76,-371C171.6,-371 152.2,-371 134.67,-371"/>
<polygon fill="#63b8ff" stroke="#63b8ff" points="190,-374.5 200,-371 190,-367.5 190,-374.5"/>
</a>
</g>
</g>
<!-- Node7 -->
<g id="Node000007" class="node">
<title>Node7</title>
<g id="a_Node000007"><a xlink:href="namespaceSpan_1_1Internal.html#ae18b71c51d88d168549fe9542ed952bb" target="_top" xlink:title="型に応じた描画ヘルパー関数">
<polygon fill="white" stroke="#666666" points="329.5,-249.5 190.5,-249.5 190.5,-230.5 329.5,-230.5 329.5,-249.5"/>
<text text-anchor="middle" x="260" y="-237.5" font-family="Helvetica,sans-Serif" font-size="10.00">Span::Internal::DrawField</text>
</a>
</g>
</g>
<!-- Node6&#45;&gt;Node7 -->
<g id="edge6_Node000006_Node000007" class="edge">
<title>Node6&#45;&gt;Node7</title>
<g id="a_edge6_Node000006_Node000007"><a xlink:title=" ">
<path fill="none" stroke="#63b8ff" d="M358.6,-240C348.83,-240 339.07,-240 329.7,-240"/>
<polygon fill="#63b8ff" stroke="#63b8ff" points="358.76,-243.5 368.76,-240 358.76,-236.5 358.76,-243.5"/>
</a>
</g>
</g>
<!-- Node8 -->
<g id="Node000008" class="node">
<title>Node8</title>
<g id="a_Node000008"><a xlink:href="structSpan_1_1Internal_1_1ImGuiVisitor.html#a966eba59899c3c97a93ed58acb5612a8" target="_top" xlink:title=" ">
<polygon fill="white" stroke="#666666" points="151,-255 0,-255 0,-225 151,-225 151,-255"/>
<text text-anchor="start" x="8" y="-243" font-family="Helvetica,sans-Serif" font-size="10.00">Span::Internal::ImGuiVisitor</text>
<text text-anchor="middle" x="75.5" y="-232" font-family="Helvetica,sans-Serif" font-size="10.00">::Visit</text>
</a>
</g>
</g>
<!-- Node7&#45;&gt;Node8 -->
<g id="edge7_Node000007_Node000008" class="edge">
<title>Node7&#45;&gt;Node8</title>
<g id="a_edge7_Node000007_Node000008"><a xlink:title=" ">
<path fill="none" stroke="#63b8ff" d="M180.01,-240C170.47,-240 160.75,-240 151.28,-240"/>
<polygon fill="#63b8ff" stroke="#63b8ff" points="180.26,-243.5 190.26,-240 180.26,-236.5 180.26,-243.5"/>
</a>
</g>
</g>
<!-- Node12 -->
<g id="Node000012" class="node">
<title>Node12</title>
<g id="a_Node000012"><a xlink:href="classSpan_1_1ImGuiUI.html#aa8095db73105fc0e8d6936701f333bf0" target="_top" xlink:title=" ">
<polygon fill="white" stroke="#666666" points="745,-115.5 582,-115.5 582,-96.5 745,-96.5 745,-115.5"/>
<text text-anchor="middle" x="663.5" y="-103.5" font-family="Helvetica,sans-Serif" font-size="10.00">Span::ImGuiUI::DrawMeshSlot</text>
</a>
</g>
</g>
<!-- Node11&#45;&gt;Node12 -->
<g id="edge11_Node000011_Node000012" class="edge">
<title>Node11&#45;&gt;Node12</title>
<g id="a_edge11_Node000011_Node000012"><a xlink:title=" ">
<path fill="none" stroke="#63b8ff" d="M770.66,-93.15C761.63,-94.24 752.3,-95.37 743.1,-96.49"/>
<polygon fill="#63b8ff" stroke="#63b8ff" points="771.2,-96.61 780.71,-91.93 770.36,-89.66 771.2,-96.61"/>
</a>
</g>
</g>
<!-- Node13 -->
<g id="Node000013" class="node">
<title>Node13</title>
<g id="a_Node000013"><a xlink:href="classSpan_1_1AssetManager.html#ade6d0e8b7b3467e28cfd5af72896c89b" target="_top" xlink:title="メッシュデータを取得します (キャッシュ対応)。">
<polygon fill="white" stroke="#666666" points="721.5,-30 605.5,-30 605.5,0 721.5,0 721.5,-30"/>
<text text-anchor="start" x="613.5" y="-18" font-family="Helvetica,sans-Serif" font-size="10.00">Span::AssetManager</text>
<text text-anchor="middle" x="663.5" y="-7" font-family="Helvetica,sans-Serif" font-size="10.00">::GetMesh</text>
</a>
</g>
</g>
<!-- Node11&#45;&gt;Node13 -->
<g id="edge13_Node000011_Node000013" class="edge">
<title>Node11&#45;&gt;Node13</title>
<g id="a_edge13_Node000011_Node000013"><a xlink:title=" ">
<path fill="none" stroke="#63b8ff" d="M801.5,-65.15C784.61,-56.44 764.1,-46.51 745,-39 736.86,-35.8 728.11,-32.78 719.49,-30.03"/>
<polygon fill="#63b8ff" stroke="#63b8ff" points="799.99,-68.32 810.48,-69.85 803.24,-62.11 799.99,-68.32"/>
</a>
</g>
</g>
<!-- Node14 -->
<g id="Node000014" class="node">
<title>Node14</title>
<g id="a_Node000014"><a xlink:href="classSpan_1_1SceneViewPanel.html#afebf890816b85f92e9ed73de887b2354" target="_top" xlink:title="外部またはブラウザからドロップされたファイルを処理します。">
<polygon fill="white" stroke="#666666" points="726.5,-78 600.5,-78 600.5,-48 726.5,-48 726.5,-78"/>
<text text-anchor="start" x="608.5" y="-66" font-family="Helvetica,sans-Serif" font-size="10.00">Span::SceneViewPanel</text>
<text text-anchor="middle" x="663.5" y="-55" font-family="Helvetica,sans-Serif" font-size="10.00">::OnAssetDropped</text>
</a>
</g>
</g>
<!-- Node11&#45;&gt;Node14 -->
<g id="edge14_Node000011_Node000014" class="edge">
<title>Node11&#45;&gt;Node14</title>
<g id="a_edge14_Node000011_Node000014"><a xlink:title=" ">
<path fill="none" stroke="#63b8ff" d="M770.77,-76.48C756.2,-74.63 740.86,-72.68 726.51,-70.86"/>
<polygon fill="#63b8ff" stroke="#63b8ff" points="770.35,-79.95 780.71,-77.74 771.23,-73.01 770.35,-79.95"/>
</a>
</g>
</g>
<!-- Node12&#45;&gt;Node7 -->
<g id="edge12_Node000012_Node000007" class="edge">
<title>Node12&#45;&gt;Node7</title>
<g id="a_edge12_Node000012_Node000007"><a xlink:title=" ">
<path fill="none" stroke="#63b8ff" d="M581.59,-95.74C520.31,-91.54 435.6,-93.59 369,-125 318.71,-148.72 280.27,-207.13 266.5,-230.3"/>
<polygon fill="#63b8ff" stroke="#63b8ff" points="581.37,-99.23 591.6,-96.49 581.89,-92.25 581.37,-99.23"/>
</a>
</g>
</g>
<!-- Node15 -->
<g id="Node000015" class="node">
<title>Node15</title>
<g id="a_Node000015"><a xlink:href="classSpan_1_1SceneViewPanel.html#aab2935de58bd68267a680cabd3656c9f" target="_top" xlink:title="毎フレームの描画処理。 画像の表示、ツールバーのオーバーレイ、ギズモの描画を行います。">
<polygon fill="white" stroke="#666666" points="520.5,-78 394.5,-78 394.5,-48 520.5,-48 520.5,-78"/>
<text text-anchor="start" x="402.5" y="-66" font-family="Helvetica,sans-Serif" font-size="10.00">Span::SceneViewPanel</text>
<text text-anchor="middle" x="457.5" y="-55" font-family="Helvetica,sans-Serif" font-size="10.00">::OnImGuiRender</text>
</a>
</g>
</g>
<!-- Node14&#45;&gt;Node15 -->
<g id="edge15_Node000014_Node000015" class="edge">
<title>Node14&#45;&gt;Node15</title>
<g id="a_edge15_Node000014_Node000015"><a xlink:title=" ">
<path fill="none" stroke="#63b8ff" d="M590.19,-63C567.45,-63 542.56,-63 520.59,-63"/>
<polygon fill="#63b8ff" stroke="#63b8ff" points="590.46,-66.5 600.46,-63 590.46,-59.5 590.46,-66.5"/>
</a>
</g>
</g>
<!-- Node16&#45;&gt;Node2 -->
<g id="edge24_Node000016_Node000002" class="edge">
<title>Node16&#45;&gt;Node2</title>
<g id="a_edge24_Node000016_Node000002"><a xlink:title=" ">
<path fill="none" stroke="#63b8ff" d="M788.7,-260.3C774.6,-254.99 759.21,-249.23 745,-244 732.59,-239.43 719.08,-234.53 706.74,-230.09"/>
<polygon fill="#63b8ff" stroke="#63b8ff" points="787.63,-263.63 798.22,-263.89 790.1,-257.08 787.63,-263.63"/>
</a>
</g>
</g>
<!-- Node16&#45;&gt;Node3 -->
<g id="edge17_Node000016_Node000003" class="edge">
<title>Node16&#45;&gt;Node3</title>
<g id="a_edge17_Node000016_Node000003"><a xlink:title=" ">
<path fill="none" stroke="#63b8ff" d="M822.81,-302.86C806.68,-325.76 778.85,-358.87 745,-373 670.98,-403.89 576.54,-395.07 516.77,-384.31"/>
<polygon fill="#63b8ff" stroke="#63b8ff" points="825.87,-304.59 828.6,-294.36 820.08,-300.65 825.87,-304.59"/>
</a>
</g>
</g>
<!-- Node17 -->
<g id="Node000017" class="node">
<title>Node17</title>
<g id="a_Node000017"><a xlink:href="classSpan_1_1ImGuiUI.html#a051be17f46f22409017503a9b0562d76" target="_top" xlink:title=" ">
<polygon fill="white" stroke="#666666" points="544,-286.5 371,-286.5 371,-267.5 544,-267.5 544,-286.5"/>
<text text-anchor="middle" x="457.5" y="-274.5" font-family="Helvetica,sans-Serif" font-size="10.00">Span::ImGuiUI::DrawTextureSlot</text>
</a>
</g>
</g>
<!-- Node16&#45;&gt;Node17 -->
<g id="edge18_Node000016_Node000017" class="edge">
<title>Node16&#45;&gt;Node17</title>
<g id="a_edge18_Node000016_Node000017"><a xlink:title=" ">
<path fill="none" stroke="#63b8ff" d="M770.82,-277.38C762.14,-277.23 753.36,-277.09 745,-277 677.48,-276.27 601.01,-276.32 544.06,-276.52"/>
<polygon fill="#63b8ff" stroke="#63b8ff" points="770.89,-280.89 780.95,-277.58 771.02,-273.89 770.89,-280.89"/>
</a>
</g>
</g>
<!-- Node18 -->
<g id="Node000018" class="node">
<title>Node18</title>
<g id="a_Node000018"><a xlink:href="classSpan_1_1AssetManager.html#ac48434b5c664ed46069ac3d95aadfefb" target="_top" xlink:title="エディタ用: ファイルパスに対応するサムネイル (テクスチャID) を取得します。">
<polygon fill="white" stroke="#666666" points="723.5,-316 603.5,-316 603.5,-286 723.5,-286 723.5,-316"/>
<text text-anchor="start" x="611.5" y="-304" font-family="Helvetica,sans-Serif" font-size="10.00">Span::AssetManager</text>
<text text-anchor="middle" x="663.5" y="-293" font-family="Helvetica,sans-Serif" font-size="10.00">::GetEditorThumbnail</text>
</a>
</g>
</g>
<!-- Node16&#45;&gt;Node18 -->
<g id="edge20_Node000016_Node000018" class="edge">
<title>Node16&#45;&gt;Node18</title>
<g id="a_edge20_Node000016_Node000018"><a xlink:title=" ">
<path fill="none" stroke="#63b8ff" d="M770.64,-287.54C755.09,-289.51 738.67,-291.59 723.51,-293.52"/>
<polygon fill="#63b8ff" stroke="#63b8ff" points="771.23,-290.99 780.71,-286.26 770.35,-284.05 771.23,-290.99"/>
</a>
</g>
</g>
<!-- Node22 -->
<g id="Node000022" class="node">
<title>Node22</title>
<g id="a_Node000022"><a xlink:href="classSpan_1_1AssetManager.html#a93b56de9af3fadbc0ff27f1e21e44291" target="_top" xlink:title="テクスチャを取得します (キャッシュにあればそれを返し、無ければロードします)。">
<polygon fill="white" stroke="#666666" points="721.5,-364 605.5,-364 605.5,-334 721.5,-334 721.5,-364"/>
<text text-anchor="start" x="613.5" y="-352" font-family="Helvetica,sans-Serif" font-size="10.00">Span::AssetManager</text>
<text text-anchor="middle" x="663.5" y="-341" font-family="Helvetica,sans-Serif" font-size="10.00">::GetTexture</text>
</a>
</g>
</g>
<!-- Node16&#45;&gt;Node22 -->
<g id="edge25_Node000016_Node000022" class="edge">
<title>Node16&#45;&gt;Node22</title>
<g id="a_edge25_Node000016_Node000022"><a xlink:title=" ">
<path fill="none" stroke="#63b8ff" d="M801.5,-298.85C784.61,-307.56 764.1,-317.49 745,-325 736.86,-328.2 728.11,-331.22 719.49,-333.97"/>
<polygon fill="#63b8ff" stroke="#63b8ff" points="803.24,-301.89 810.48,-294.15 799.99,-295.68 803.24,-301.89"/>
</a>
</g>
</g>
<!-- Node17&#45;&gt;Node7 -->
<g id="edge19_Node000017_Node000007" class="edge">
<title>Node17&#45;&gt;Node7</title>
<g id="a_edge19_Node000017_Node000007"><a xlink:title=" ">
<path fill="none" stroke="#63b8ff" d="M396.01,-265.55C368.91,-260.42 337.32,-254.44 311.51,-249.56"/>
<polygon fill="#63b8ff" stroke="#63b8ff" points="395.68,-269.05 406.15,-267.47 396.98,-262.17 395.68,-269.05"/>
</a>
</g>
</g>
<!-- Node19 -->
<g id="Node000019" class="node">
<title>Node19</title>
<g id="a_Node000019"><a xlink:href="classSpan_1_1ProjectBrowserPanel.html#a61f13161ddf1dcca1a2a1a5a8a865ccc" target="_top" xlink:title="個別のアセットアイテムを描画します。">
<polygon fill="white" stroke="#666666" points="530.5,-335 384.5,-335 384.5,-305 530.5,-305 530.5,-335"/>
<text text-anchor="start" x="392.5" y="-323" font-family="Helvetica,sans-Serif" font-size="10.00">Span::ProjectBrowserPanel</text>
<text text-anchor="middle" x="457.5" y="-312" font-family="Helvetica,sans-Serif" font-size="10.00">::DrawEntryItem</text>
</a>
</g>
</g>
<!-- Node18&#45;&gt;Node19 -->
<g id="edge21_Node000018_Node000019" class="edge">
<title>Node18&#45;&gt;Node19</title>
<g id="a_edge21_Node000018_Node000019"><a xlink:title=" ">
<path fill="none" stroke="#63b8ff" d="M593.45,-307.43C573.26,-309.31 551.15,-311.37 530.77,-313.27"/>
<polygon fill="#63b8ff" stroke="#63b8ff" points="593.86,-310.91 603.49,-306.5 593.21,-303.94 593.86,-310.91"/>
</a>
</g>
</g>
<!-- Node20 -->
<g id="Node000020" class="node">
<title>Node20</title>
<g id="a_Node000020"><a xlink:href="classSpan_1_1ProjectBrowserPanel.html#a3877e936c3c6ee4b522ea63dc65dfd3b" target="_top" xlink:title="右側のファイル/アセット一覧エリアを描画します。">
<polygon fill="white" stroke="#666666" points="333,-335 187,-335 187,-305 333,-305 333,-335"/>
<text text-anchor="start" x="195" y="-323" font-family="Helvetica,sans-Serif" font-size="10.00">Span::ProjectBrowserPanel</text>
<text text-anchor="middle" x="260" y="-312" font-family="Helvetica,sans-Serif" font-size="10.00">::DrawContentArea</text>
</a>
</g>
</g>
<!-- Node19&#45;&gt;Node20 -->
<g id="edge22_Node000019_Node000020" class="edge">
<title>Node19&#45;&gt;Node20</title>
<g id="a_edge22_Node000019_Node000020"><a xlink:title=" ">
<path fill="none" stroke="#63b8ff" d="M374,-320C360.47,-320 346.53,-320 333.27,-320"/>
<polygon fill="#63b8ff" stroke="#63b8ff" points="374.26,-323.5 384.26,-320 374.26,-316.5 374.26,-323.5"/>
</a>
</g>
</g>
<!-- Node21 -->
<g id="Node000021" class="node">
<title>Node21</title>
<g id="a_Node000021"><a xlink:href="classSpan_1_1ProjectBrowserPanel.html#ad259c8cf9a9c066350b699f9cd14438e" target="_top" xlink:title="GUI描画の更新処理">
<polygon fill="white" stroke="#666666" points="148.5,-335 2.5,-335 2.5,-305 148.5,-305 148.5,-335"/>
<text text-anchor="start" x="10.5" y="-323" font-family="Helvetica,sans-Serif" font-size="10.00">Span::ProjectBrowserPanel</text>
<text text-anchor="middle" x="75.5" y="-312" font-family="Helvetica,sans-Serif" font-size="10.00">::OnImGuiRender</text>
</a>
</g>
</g>
<!-- Node20&#45;&gt;Node21 -->
<g id="edge23_Node000020_Node000021" class="edge">
<title>Node20&#45;&gt;Node21</title>
<g id="a_edge23_Node000020_Node000021"><a xlink:title=" ">
<path fill="none" stroke="#63b8ff" d="M176.78,-320C167.42,-320 157.92,-320 148.7,-320"/>
<polygon fill="#63b8ff" stroke="#63b8ff" points="176.87,-323.5 186.87,-320 176.87,-316.5 176.87,-323.5"/>
</a>
</g>
</g>
</g>
</svg>

<g id="navigator" transform="translate(0 0)" fill="#404254">
  <rect fill="#f2f5e9" fill-opacity="0.5" stroke="#606060" stroke-width=".5" x="0" y="0" width="60" height="60"/>
  <use id="zoomplus" xlink:href="#zoomPlus" x="17" y="9" onmousedown="handleZoom(evt,'in')"/>
  <use id="zoomminus" xlink:href="#zoomMin" x="42" y="9" onmousedown="handleZoom(evt,'out')"/>
  <use id="reset" xlink:href="#resetDef" x="30" y="36" onmousedown="handleReset()"/>
   <use id="arrowup" xlink:href="#arrowUp" x="0" y="0" onmousedown="handlePan(0,-1)"/>
  <use id="arrowright" xlink:href="#arrowRight" x="0" y="0" onmousedown="handlePan(1,0)"/>
  <use id="arrowdown" xlink:href="#arrowDown" x="0" y="0" onmousedown="handlePan(0,1)"/>
  <use id="arrowleft" xlink:href="#arrowLeft" x="0" y="0" onmousedown="handlePan(-1,0)"/>
</g>
<svg viewBox="0 0 15 15" width="100%" height="30px" preserveAspectRatio="xMaxYMin meet">
 <g id="arrow_out" transform="scale(0.3 0.3)">
  <a xlink:href="classSpan_1_1AssetRegistry_a3cae91f52d3d29c67936e289d1244319_icgraph_org.svg" target="_base">
   <rect id="button" ry="5" rx="5" y="6" x="6" height="38" width="38"
        fill="#f2f5e9" fill-opacity="0.5" stroke="#606060" stroke-width="1.0"/>
   <path id="arrow"
     d="M 11.500037,31.436501 C 11.940474,20.09759 22.043105,11.32322 32.158766,21.979434 L 37.068811,17.246167 C 37.068811,17.246167 37.088388,32 37.088388,32 L 22.160133,31.978069 C 22.160133,31.978069 26.997745,27.140456 26.997745,27.140456 C 18.528582,18.264221 13.291696,25.230495 11.500037,31.436501 z"
     style="fill:#404040;"/>
  </a>
 </g>
</svg>

<style type='text/css'>
<![CDATA[
[data-mouse-over-selected='false'] { opacity: 0.7; }
[data-mouse-over-selected='true']  { opacity: 1.0; }
]]>
</style>
<script type="application/ecmascript"><![CDATA[
document.addEventListener('DOMContentLoaded', (event) => {
  highlightEdges();
  highlightAdjacentNodes();
});
]]></script>
</svg>
