<?xml version="1.0" encoding="UTF-8" standalone="no"?>
<!DOCTYPE svg PUBLIC "-//W3C//DTD SVG 1.1//EN"
 "http://www.w3.org/Graphics/SVG/1.1/DTD/svg11.dtd">
<!-- Generated by graphviz version 2.43.0 (0)
 -->
<!-- Title: Span::RelationshipSystem::Disconnect Pages: 1 -->
<svg width="980pt" height="138pt"
 viewBox="0.00 0.00 980.00 138.00" xmlns="http://www.w3.org/2000/svg" xmlns:xlink="http://www.w3.org/1999/xlink">
<g id="graph0" class="graph" transform="scale(1 1) rotate(0) translate(4 134)">
<title>Span::RelationshipSystem::Disconnect</title>
<!-- Node1 -->
<g id="Node000001" class="node">
<title>Node1</title>
<g id="a_Node000001"><a xlink:title=" ">
<polygon fill="#999999" stroke="#666666" points="972,-108 828,-108 828,-78 972,-78 972,-108"/>
<text text-anchor="start" x="836" y="-96" font-family="Helvetica,sans-Serif" font-size="10.00">Span::RelationshipSystem</text>
<text text-anchor="middle" x="900" y="-85" font-family="Helvetica,sans-Serif" font-size="10.00">::Disconnect</text>
</a>
</g>
</g>
<!-- Node2 -->
<g id="Node000002" class="node">
<title>Node2</title>
<g id="a_Node000002"><a xlink:href="classSpan_1_1RelationshipSystem.html#aa4b5cd977689e1b6689786315d0fa6e6" target="_top" xlink:title=" ">
<polygon fill="white" stroke="#666666" points="612,-130 468,-130 468,-100 612,-100 612,-130"/>
<text text-anchor="start" x="476" y="-118" font-family="Helvetica,sans-Serif" font-size="10.00">Span::RelationshipSystem</text>
<text text-anchor="middle" x="540" y="-107" font-family="Helvetica,sans-Serif" font-size="10.00">::InsertBefore</text>
</a>
</g>
</g>
<!-- Node1&#45;&gt;Node2 -->
<g id="edge1_Node000001_Node000002" class="edge">
<title>Node1&#45;&gt;Node2</title>
<g id="a_edge1_Node000001_Node000002"><a xlink:title=" ">
<path fill="none" stroke="#63b8ff" d="M817.71,-98C755.76,-101.8 671.28,-106.99 612.02,-110.64"/>
<polygon fill="#63b8ff" stroke="#63b8ff" points="818.08,-101.48 827.84,-97.37 817.65,-94.49 818.08,-101.48"/>
</a>
</g>
</g>
<!-- Node6 -->
<g id="Node000006" class="node">
<title>Node6</title>
<g id="a_Node000006"><a xlink:href="classSpan_1_1RelationshipSystem.html#a22d8d93f263f586db5a1aa6de46711a0" target="_top" xlink:title=" ">
<polygon fill="white" stroke="#666666" points="792,-87 648,-87 648,-57 792,-57 792,-87"/>
<text text-anchor="start" x="656" y="-75" font-family="Helvetica,sans-Serif" font-size="10.00">Span::RelationshipSystem</text>
<text text-anchor="middle" x="720" y="-64" font-family="Helvetica,sans-Serif" font-size="10.00">::SetParent</text>
</a>
</g>
</g>
<!-- Node1&#45;&gt;Node6 -->
<g id="edge6_Node000001_Node000006" class="edge">
<title>Node1&#45;&gt;Node6</title>
<g id="a_edge6_Node000001_Node000006"><a xlink:title=" ">
<path fill="none" stroke="#63b8ff" d="M817.83,-83.42C809.21,-82.41 800.49,-81.38 792,-80.38"/>
<polygon fill="#63b8ff" stroke="#63b8ff" points="817.54,-86.91 827.88,-84.61 818.36,-79.96 817.54,-86.91"/>
</a>
</g>
</g>
<!-- Node3 -->
<g id="Node000003" class="node">
<title>Node3</title>
<g id="a_Node000003"><a xlink:href="classSpan_1_1HierarchyPanel.html#af958ff25d0ba0576ae4848bbd01b2031" target="_top" xlink:title=" ">
<polygon fill="white" stroke="#666666" points="432,-100 312,-100 312,-70 432,-70 432,-100"/>
<text text-anchor="start" x="320" y="-88" font-family="Helvetica,sans-Serif" font-size="10.00">Span::HierarchyPanel</text>
<text text-anchor="middle" x="372" y="-77" font-family="Helvetica,sans-Serif" font-size="10.00">::HandleDragDrop</text>
</a>
</g>
</g>
<!-- Node2&#45;&gt;Node3 -->
<g id="edge2_Node000002_Node000003" class="edge">
<title>Node2&#45;&gt;Node3</title>
<g id="a_edge2_Node000002_Node000003"><a xlink:title=" ">
<path fill="none" stroke="#63b8ff" d="M457.57,-100.28C448.97,-98.73 440.35,-97.17 432.07,-95.68"/>
<polygon fill="#63b8ff" stroke="#63b8ff" points="457.17,-103.77 467.64,-102.1 458.42,-96.88 457.17,-103.77"/>
</a>
</g>
</g>
<!-- Node4 -->
<g id="Node000004" class="node">
<title>Node4</title>
<g id="a_Node000004"><a xlink:href="classSpan_1_1HierarchyPanel.html#a2c08f8c6e0cafaed96f7846d76ff2b09" target="_top" xlink:title=" ">
<polygon fill="white" stroke="#666666" points="276,-52 156,-52 156,-22 276,-22 276,-52"/>
<text text-anchor="start" x="164" y="-40" font-family="Helvetica,sans-Serif" font-size="10.00">Span::HierarchyPanel</text>
<text text-anchor="middle" x="216" y="-29" font-family="Helvetica,sans-Serif" font-size="10.00">::DrawEntityNode</text>
</a>
</g>
</g>
<!-- Node3&#45;&gt;Node4 -->
<g id="edge3_Node000003_Node000004" class="edge">
<title>Node3&#45;&gt;Node4</title>
<g id="a_edge3_Node000003_Node000004"><a xlink:title=" ">
<path fill="none" stroke="#63b8ff" d="M313.04,-66.93C297.24,-62.01 280.31,-56.73 265.13,-52"/>
<polygon fill="#63b8ff" stroke="#63b8ff" points="312.11,-70.31 322.7,-69.94 314.19,-63.63 312.11,-70.31"/>
</a>
</g>
</g>
<!-- Node4&#45;&gt;Node4 -->
<g id="edge4_Node000004_Node000004" class="edge">
<title>Node4&#45;&gt;Node4</title>
<g id="a_edge4_Node000004_Node000004"><a xlink:title=" ">
<path fill="none" stroke="#63b8ff" d="M243.31,-62.6C239.57,-66.97 230.47,-70 216,-70 191.62,-70 182.48,-61.41 188.58,-52.28"/>
<polygon fill="#63b8ff" stroke="#63b8ff" points="246.81,-62.31 243.42,-52.28 239.81,-62.24 246.81,-62.31"/>
</a>
</g>
</g>
<!-- Node5 -->
<g id="Node000005" class="node">
<title>Node5</title>
<g id="a_Node000005"><a xlink:href="classSpan_1_1HierarchyPanel.html#a6481eb57cd9f45cb3a094a26f35bbaa0" target="_top" xlink:title=" ">
<polygon fill="white" stroke="#666666" points="120,-30 0,-30 0,0 120,0 120,-30"/>
<text text-anchor="start" x="8" y="-18" font-family="Helvetica,sans-Serif" font-size="10.00">Span::HierarchyPanel</text>
<text text-anchor="middle" x="60" y="-7" font-family="Helvetica,sans-Serif" font-size="10.00">::OnImGuiRender</text>
</a>
</g>
</g>
<!-- Node4&#45;&gt;Node5 -->
<g id="edge5_Node000004_Node000005" class="edge">
<title>Node4&#45;&gt;Node5</title>
<g id="a_edge5_Node000004_Node000005"><a xlink:title=" ">
<path fill="none" stroke="#63b8ff" d="M145.91,-27.13C137.33,-25.9 128.61,-24.66 120.2,-23.46"/>
<polygon fill="#63b8ff" stroke="#63b8ff" points="145.51,-30.61 155.9,-28.56 146.5,-23.68 145.51,-30.61"/>
</a>
</g>
</g>
<!-- Node6&#45;&gt;Node2 -->
<g id="edge10_Node000006_Node000002" class="edge">
<title>Node6&#45;&gt;Node2</title>
<g id="a_edge10_Node000006_Node000002"><a xlink:title=" ">
<path fill="none" stroke="#63b8ff" d="M646.85,-89.43C632.39,-92.92 617.31,-96.57 603.22,-99.97"/>
<polygon fill="#63b8ff" stroke="#63b8ff" points="647.85,-92.79 656.74,-87.04 646.2,-85.99 647.85,-92.79"/>
</a>
</g>
</g>
<!-- Node6&#45;&gt;Node3 -->
<g id="edge9_Node000006_Node000003" class="edge">
<title>Node6&#45;&gt;Node3</title>
<g id="a_edge9_Node000006_Node000003"><a xlink:title=" ">
<path fill="none" stroke="#63b8ff" d="M637.42,-75.07C574.39,-77.43 488.64,-80.66 432.1,-82.78"/>
<polygon fill="#63b8ff" stroke="#63b8ff" points="637.87,-78.55 647.73,-74.68 637.6,-71.56 637.87,-78.55"/>
</a>
</g>
</g>
<!-- Node6&#45;&gt;Node5 -->
<g id="edge11_Node000006_Node000005" class="edge">
<title>Node6&#45;&gt;Node5</title>
<g id="a_edge11_Node000006_Node000005"><a xlink:title=" ">
<path fill="none" stroke="#63b8ff" d="M657.48,-54.2C642.66,-50.23 626.82,-46.23 612,-43 532.76,-25.7 512.83,-19.69 432,-13 309.75,-2.88 278.66,-11.71 156,-13 144.37,-13.12 131.94,-13.33 120.04,-13.56"/>
<polygon fill="#63b8ff" stroke="#63b8ff" points="656.98,-57.7 667.55,-56.94 658.82,-50.94 656.98,-57.7"/>
</a>
</g>
</g>
<!-- Node7 -->
<g id="Node000007" class="node">
<title>Node7</title>
<g id="a_Node000007"><a xlink:href="classSpan_1_1HierarchyPanel.html#a331d846c46df5f3346cfc7bb8c7a8e76" target="_top" xlink:title=" ">
<polygon fill="white" stroke="#666666" points="432,-52 312,-52 312,-22 432,-22 432,-52"/>
<text text-anchor="start" x="320" y="-40" font-family="Helvetica,sans-Serif" font-size="10.00">Span::HierarchyPanel</text>
<text text-anchor="middle" x="372" y="-29" font-family="Helvetica,sans-Serif" font-size="10.00">::DrawContextMenu</text>
</a>
</g>
</g>
<!-- Node6&#45;&gt;Node7 -->
<g id="edge7_Node000006_Node000007" class="edge">
<title>Node6&#45;&gt;Node7</title>
<g id="a_edge7_Node000006_Node000007"><a xlink:title=" ">
<path fill="none" stroke="#63b8ff" d="M637.42,-63.75C574.39,-57.37 488.64,-48.7 432.1,-42.98"/>
<polygon fill="#63b8ff" stroke="#63b8ff" points="637.43,-67.27 647.73,-64.79 638.13,-60.3 637.43,-67.27"/>
</a>
</g>
</g>
<!-- Node7&#45;&gt;Node4 -->
<g id="edge8_Node000007_Node000004" class="edge">
<title>Node7&#45;&gt;Node4</title>
<g id="a_edge8_Node000007_Node000004"><a xlink:title=" ">
<path fill="none" stroke="#63b8ff" d="M301.63,-37C293.14,-37 284.52,-37 276.2,-37"/>
<polygon fill="#63b8ff" stroke="#63b8ff" points="301.9,-40.5 311.9,-37 301.9,-33.5 301.9,-40.5"/>
</a>
</g>
</g>
</g>
</svg>
