<?xml version="1.0" encoding="UTF-8" standalone="no"?>
<!DOCTYPE svg PUBLIC "-//W3C//DTD SVG 1.1//EN"
 "http://www.w3.org/Graphics/SVG/1.1/DTD/svg11.dtd">
<!-- Generated by graphviz version 2.43.0 (0)
 -->
<!-- Title: Span::Texture::GetCPUDescriptorHandle Pages: 1 -->
<!--zoomable 187 -->

<svg id="main" version="1.1" xmlns="http://www.w3.org/2000/svg" xmlns:xlink="http://www.w3.org/1999/xlink" xml:space="preserve" onload="init(evt)">

<style type="text/css"><![CDATA[
.node, .edge {opacity: 0.7;}
.node.selected, .edge.selected {opacity: 1;}
.edge:hover path { stroke: red; }
.edge:hover polygon { stroke: red; fill: red; }
]]></style>

<defs>
  <circle id="rim" cx="0" cy="0" r="7"/>
  <circle id="rim2" cx="0" cy="0" r="3.5"/>
  <g id="zoomPlus">
    <use xlink:href="#rim" fill="#404040"><set attributeName="fill" to="#808080" begin="zoomplus.mouseover" end="zoomplus.mouseout"/></use>
    <path d="M-4,0h8M0,-4v8" fill="none" stroke="white" stroke-width="1.5" pointer-events="none"/>
  </g>
  <g id="zoomMin">
    <use xlink:href="#rim" fill="#404040"><set attributeName="fill" to="#808080" begin="zoomminus.mouseover" end="zoomminus.mouseout"/></use>
    <path d="M-4,0h8" fill="none" stroke="white" stroke-width="1.5" pointer-events="none"/>
  </g>
  <g id="arrowUp" transform="translate(30 24)">
    <use xlink:href="#rim"/>
    <path pointer-events="none" fill="none" stroke="white" stroke-width="1.5" d="M0,-3.0v7 M-2.5,-0.5L0,-3.0L2.5,-0.5"/>
  </g>
  <g id="arrowRight" transform="rotate(90) translate(36 -43)">
    <use xlink:href="#rim"/>
    <path pointer-events="none" fill="none" stroke="white" stroke-width="1.5" d="M0,-3.0v7 M-2.5,-0.5L0,-3.0L2.5,-0.5"/>
  </g>
  <g id="arrowDown" transform="rotate(180) translate(-30 -48)">
    <use xlink:href="#rim"/>
    <path pointer-events="none" fill="none" stroke="white" stroke-width="1.5" d="M0,-3.0v7 M-2.5,-0.5L0,-3.0L2.5,-0.5"/>
  </g>
  <g id="arrowLeft" transform="rotate(270) translate(-36 17)">
    <use xlink:href="#rim"/>
    <path pointer-events="none" fill="none" stroke="white" stroke-width="1.5" d="M0,-3.0v7 M-2.5,-0.5L0,-3.0L2.5,-0.5"/>
  </g>
  <g id="resetDef">
    <use xlink:href="#rim2" fill="#404040"><set attributeName="fill" to="#808080" begin="reset.mouseover" end="reset.mouseout"/></use>
  </g>
</defs>
<script type="application/ecmascript">
var viewWidth = 786;
var viewHeight = 187;
var sectionId = 'dynsection-2';
</script>
<script type="application/ecmascript" xlink:href="svg.min.js"/>
<svg id="graph" class="graph">
<g id="viewport">
<title>Span::Texture::GetCPUDescriptorHandle</title>
<!-- Node1 -->
<g id="Node000001" class="node">
<title>Node1</title>
<g id="a_Node000001"><a xlink:title="SRVヒープ上のCPUハンドル (ディスクリプタのコピー元)">
<polygon fill="#999999" stroke="#666666" points="778,-61.5 602,-61.5 602,-31.5 778,-31.5 778,-61.5"/>
<text text-anchor="start" x="610" y="-49.5" font-family="Helvetica,sans-Serif" font-size="10.00">Span::Texture::GetCPUDescriptor</text>
<text text-anchor="middle" x="690" y="-38.5" font-family="Helvetica,sans-Serif" font-size="10.00">Handle</text>
</a>
</g>
</g>
<!-- Node2 -->
<g id="Node000002" class="node">
<title>Node2</title>
<g id="a_Node000002"><a xlink:href="classSpan_1_1Renderer.html#a99045dcc7cdaadce2843b7c2540156a3" target="_top" xlink:title="指定スロットにテクスチャをバインドします。Nullの場合は安全なダミーを生成します。">
<polygon fill="white" stroke="#666666" points="566,-99 411,-99 411,-80 566,-80 566,-99"/>
<text text-anchor="middle" x="488.5" y="-87" font-family="Helvetica,sans-Serif" font-size="10.00">Span::Renderer::BindTexture</text>
</a>
</g>
</g>
<!-- Node1&#45;&gt;Node2 -->
<g id="edge1_Node000001_Node000002" class="edge">
<title>Node1&#45;&gt;Node2</title>
<g id="a_edge1_Node000001_Node000002"><a xlink:title=" ">
<path fill="none" stroke="#63b8ff" d="M609.44,-63.65C583.63,-69.21 555.94,-75.18 533.68,-79.98"/>
<polygon fill="#63b8ff" stroke="#63b8ff" points="610.19,-67.07 619.22,-61.54 608.71,-60.22 610.19,-67.07"/>
</a>
</g>
</g>
<!-- Node9 -->
<g id="Node000009" class="node">
<title>Node9</title>
<g id="a_Node000009"><a xlink:href="classSpan_1_1IBLBuilder.html#a2712bd9d7b65c7ecd7af5bcecfd2609d" target="_top" xlink:title="環境に依存しないBRDF Integration LUT を生成します。">
<polygon fill="white" stroke="#666666" points="562,-61.5 415,-61.5 415,-31.5 562,-31.5 562,-61.5"/>
<text text-anchor="start" x="423" y="-49.5" font-family="Helvetica,sans-Serif" font-size="10.00">Span::IBLBuilder::Generate</text>
<text text-anchor="middle" x="488.5" y="-38.5" font-family="Helvetica,sans-Serif" font-size="10.00">BRDFLUT</text>
</a>
</g>
</g>
<!-- Node1&#45;&gt;Node9 -->
<g id="edge10_Node000001_Node000009" class="edge">
<title>Node1&#45;&gt;Node9</title>
<g id="a_edge10_Node000001_Node000009"><a xlink:title=" ">
<path fill="none" stroke="#63b8ff" d="M591.53,-46.5C581.65,-46.5 571.75,-46.5 562.21,-46.5"/>
<polygon fill="#63b8ff" stroke="#63b8ff" points="591.79,-50 601.79,-46.5 591.79,-43 591.79,-50"/>
</a>
</g>
</g>
<!-- Node10 -->
<g id="Node000010" class="node">
<title>Node10</title>
<g id="a_Node000010"><a xlink:href="classSpan_1_1Renderer.html#a9616b9e065e231672478eb4db58d4d5f" target="_top" xlink:title=" ">
<polygon fill="white" stroke="#666666" points="375,-19 172,-19 172,0 375,0 375,-19"/>
<text text-anchor="middle" x="273.5" y="-7" font-family="Helvetica,sans-Serif" font-size="10.00">Span::Renderer::LoadEnvironmentMap</text>
</a>
</g>
</g>
<!-- Node1&#45;&gt;Node10 -->
<g id="edge13_Node000001_Node000010" class="edge">
<title>Node1&#45;&gt;Node10</title>
<g id="a_edge13_Node000001_Node000010"><a xlink:title=" ">
<path fill="none" stroke="#63b8ff" d="M611.36,-29.54C596.37,-26.78 580.74,-24.26 566,-22.5 502.87,-14.98 431.58,-11.7 375.31,-10.32"/>
<polygon fill="#63b8ff" stroke="#63b8ff" points="611.14,-33.06 621.61,-31.49 612.44,-26.19 611.14,-33.06"/>
</a>
</g>
</g>
<!-- Node3 -->
<g id="Node000003" class="node">
<title>Node3</title>
<g id="a_Node000003"><a xlink:href="classSpan_1_1Renderer.html#a2a47762d9edc86294bef1d38ab5e93b9" target="_top" xlink:title="フレーム共通リソースをバインドする">
<polygon fill="white" stroke="#666666" points="348.5,-178.5 198.5,-178.5 198.5,-148.5 348.5,-148.5 348.5,-178.5"/>
<text text-anchor="start" x="206.5" y="-166.5" font-family="Helvetica,sans-Serif" font-size="10.00">Span::Renderer::BindGlobal</text>
<text text-anchor="middle" x="273.5" y="-155.5" font-family="Helvetica,sans-Serif" font-size="10.00">Resources</text>
</a>
</g>
</g>
<!-- Node2&#45;&gt;Node3 -->
<g id="edge2_Node000002_Node000003" class="edge">
<title>Node2&#45;&gt;Node3</title>
<g id="a_edge2_Node000002_Node000003"><a xlink:title=" ">
<path fill="none" stroke="#63b8ff" d="M459.57,-103.64C437.15,-114.57 404.63,-129.47 375,-139.5 365.31,-142.78 354.96,-145.79 344.71,-148.48"/>
<polygon fill="#63b8ff" stroke="#63b8ff" points="461.4,-106.64 468.82,-99.08 458.3,-100.37 461.4,-106.64"/>
</a>
</g>
</g>
<!-- Node6 -->
<g id="Node000006" class="node">
<title>Node6</title>
<g id="a_Node000006"><a xlink:href="classSpan_1_1Renderer.html#ade1cd95fe5d2e6aa78493393ce39c767" target="_top" xlink:title="メッシュ描画コマンドの発行。">
<polygon fill="white" stroke="#666666" points="348,-56 199,-56 199,-37 348,-37 348,-56"/>
<text text-anchor="middle" x="273.5" y="-44" font-family="Helvetica,sans-Serif" font-size="10.00">Span::Renderer::DrawMesh</text>
</a>
</g>
</g>
<!-- Node2&#45;&gt;Node6 -->
<g id="edge5_Node000002_Node000006" class="edge">
<title>Node2&#45;&gt;Node6</title>
<g id="a_edge5_Node000002_Node000006"><a xlink:title=" ">
<path fill="none" stroke="#63b8ff" d="M434.19,-77.86C415.49,-73.85 394.33,-69.39 375,-65.5 359.16,-62.31 341.88,-58.99 326.19,-56.03"/>
<polygon fill="#63b8ff" stroke="#63b8ff" points="433.5,-81.29 444.01,-79.97 434.97,-74.45 433.5,-81.29"/>
</a>
</g>
</g>
<!-- Node7 -->
<g id="Node000007" class="node">
<title>Node7</title>
<g id="a_Node000007"><a xlink:href="classSpan_1_1SSAOPass.html#af7229ce70bbcfc88e3313d23623304f7" target="_top" xlink:title="SSAOの描画を実行します。">
<polygon fill="white" stroke="#666666" points="343.5,-130 203.5,-130 203.5,-111 343.5,-111 343.5,-130"/>
<text text-anchor="middle" x="273.5" y="-118" font-family="Helvetica,sans-Serif" font-size="10.00">Span::SSAOPass::Execute</text>
</a>
</g>
</g>
<!-- Node2&#45;&gt;Node7 -->
<g id="edge8_Node000002_Node000007" class="edge">
<title>Node2&#45;&gt;Node7</title>
<g id="a_edge8_Node000002_Node000007"><a xlink:title=" ">
<path fill="none" stroke="#63b8ff" d="M412.21,-100.46C388.68,-103.88 362.91,-107.63 340.1,-110.95"/>
<polygon fill="#63b8ff" stroke="#63b8ff" points="412.75,-103.92 422.15,-99.01 411.75,-96.99 412.75,-103.92"/>
</a>
</g>
</g>
<!-- Node8 -->
<g id="Node000008" class="node">
<title>Node8</title>
<g id="a_Node000008"><a xlink:href="classSpan_1_1SkyboxPass.html#af1afdca89ea3cd26dba659c722c700ce" target="_top" xlink:title="スカイボックスを描画します。RendererのCBVアロケータを使用します。">
<polygon fill="white" stroke="#666666" points="345.5,-93 201.5,-93 201.5,-74 345.5,-74 345.5,-93"/>
<text text-anchor="middle" x="273.5" y="-81" font-family="Helvetica,sans-Serif" font-size="10.00">Span::SkyboxPass::Render</text>
</a>
</g>
</g>
<!-- Node2&#45;&gt;Node8 -->
<g id="edge9_Node000002_Node000008" class="edge">
<title>Node2&#45;&gt;Node8</title>
<g id="a_edge9_Node000002_Node000008"><a xlink:title=" ">
<path fill="none" stroke="#63b8ff" d="M400.84,-87.06C382.55,-86.54 363.45,-86.01 345.8,-85.51"/>
<polygon fill="#63b8ff" stroke="#63b8ff" points="400.81,-90.56 410.9,-87.34 401.01,-83.56 400.81,-90.56"/>
</a>
</g>
</g>
<!-- Node4 -->
<g id="Node000004" class="node">
<title>Node4</title>
<g id="a_Node000004"><a xlink:href="classSpan_1_1RenderingSystem.html#aa0113a8f2b55129115c4da2c6ba449c4" target="_top" xlink:title="毎フレーム呼び出されます。ここにゲームロジックを記述します。">
<polygon fill="white" stroke="#666666" points="134.5,-61.5 1.5,-61.5 1.5,-31.5 134.5,-31.5 134.5,-61.5"/>
<text text-anchor="start" x="9.5" y="-49.5" font-family="Helvetica,sans-Serif" font-size="10.00">Span::RenderingSystem</text>
<text text-anchor="middle" x="68" y="-38.5" font-family="Helvetica,sans-Serif" font-size="10.00">::OnUpdate</text>
</a>
</g>
</g>
<!-- Node3&#45;&gt;Node4 -->
<g id="edge3_Node000003_Node000004" class="edge">
<title>Node3&#45;&gt;Node4</title>
<g id="a_edge3_Node000003_Node000004"><a xlink:title=" ">
<path fill="none" stroke="#63b8ff" d="M188.55,-147.15C182.81,-144.92 177.24,-142.38 172,-139.5 152.45,-128.75 152.44,-119.59 136,-104.5 119.79,-89.63 100.78,-73.27 87.16,-61.73"/>
<polygon fill="#63b8ff" stroke="#63b8ff" points="187.73,-150.58 198.33,-150.63 190.08,-143.98 187.73,-150.58"/>
</a>
</g>
</g>
<!-- Node5 -->
<g id="Node000005" class="node">
<title>Node5</title>
<g id="a_Node000005"><a xlink:href="classSpan_1_1MaterialPreviewer.html#a7af64e04a1aae97d04d3a2bbe15f50a8" target="_top" xlink:title="オフスクリーンターゲットに球体を描画します。">
<polygon fill="white" stroke="#666666" points="136,-143.5 0,-143.5 0,-113.5 136,-113.5 136,-143.5"/>
<text text-anchor="start" x="8" y="-131.5" font-family="Helvetica,sans-Serif" font-size="10.00">Span::MaterialPreviewer</text>
<text text-anchor="middle" x="68" y="-120.5" font-family="Helvetica,sans-Serif" font-size="10.00">::Render</text>
</a>
</g>
</g>
<!-- Node3&#45;&gt;Node5 -->
<g id="edge4_Node000003_Node000005" class="edge">
<title>Node3&#45;&gt;Node5</title>
<g id="a_edge4_Node000003_Node000005"><a xlink:title=" ">
<path fill="none" stroke="#63b8ff" d="M188.33,-149.02C170.97,-146.04 152.9,-142.93 136.24,-140.06"/>
<polygon fill="#63b8ff" stroke="#63b8ff" points="188.01,-152.52 198.46,-150.77 189.19,-145.62 188.01,-152.52"/>
</a>
</g>
</g>
<!-- Node6&#45;&gt;Node4 -->
<g id="edge6_Node000006_Node000004" class="edge">
<title>Node6&#45;&gt;Node4</title>
<g id="a_edge6_Node000006_Node000004"><a xlink:title=" ">
<path fill="none" stroke="#63b8ff" d="M188.57,-46.5C170.62,-46.5 151.9,-46.5 134.75,-46.5"/>
<polygon fill="#63b8ff" stroke="#63b8ff" points="188.74,-50 198.74,-46.5 188.74,-43 188.74,-50"/>
</a>
</g>
</g>
<!-- Node6&#45;&gt;Node5 -->
<g id="edge7_Node000006_Node000005" class="edge">
<title>Node6&#45;&gt;Node5</title>
<g id="a_edge7_Node000006_Node000005"><a xlink:title=" ">
<path fill="none" stroke="#63b8ff" d="M193.85,-58.5C186.36,-60.5 178.97,-62.81 172,-65.5 140.9,-77.49 108.7,-98.89 88.76,-113.38"/>
<polygon fill="#63b8ff" stroke="#63b8ff" points="194.86,-61.86 203.72,-56.06 193.18,-55.06 194.86,-61.86"/>
</a>
</g>
</g>
<!-- Node9&#45;&gt;Node10 -->
<g id="edge11_Node000009_Node000010" class="edge">
<title>Node9&#45;&gt;Node10</title>
<g id="a_edge11_Node000009_Node000010"><a xlink:title=" ">
<path fill="none" stroke="#63b8ff" d="M404.84,-32.14C379.54,-27.75 352.36,-23.02 329.4,-19.04"/>
<polygon fill="#63b8ff" stroke="#63b8ff" points="404.34,-35.61 414.79,-33.87 405.54,-28.71 404.34,-35.61"/>
</a>
</g>
</g>
<!-- Node10&#45;&gt;Node4 -->
<g id="edge12_Node000010_Node000004" class="edge">
<title>Node10&#45;&gt;Node4</title>
<g id="a_edge12_Node000010_Node000004"><a xlink:title=" ">
<path fill="none" stroke="#63b8ff" d="M208.89,-20.84C196.64,-23.04 183.92,-25.33 172,-27.5 159.92,-29.7 147.06,-32.05 134.65,-34.34"/>
<polygon fill="#63b8ff" stroke="#63b8ff" points="209.8,-24.23 219.03,-19.02 208.57,-17.34 209.8,-24.23"/>
</a>
</g>
</g>
</g>
</svg>

<g id="navigator" transform="translate(0 0)" fill="#404254">
  <rect fill="#f2f5e9" fill-opacity="0.5" stroke="#606060" stroke-width=".5" x="0" y="0" width="60" height="60"/>
  <use id="zoomplus" xlink:href="#zoomPlus" x="17" y="9" onmousedown="handleZoom(evt,'in')"/>
  <use id="zoomminus" xlink:href="#zoomMin" x="42" y="9" onmousedown="handleZoom(evt,'out')"/>
  <use id="reset" xlink:href="#resetDef" x="30" y="36" onmousedown="handleReset()"/>
   <use id="arrowup" xlink:href="#arrowUp" x="0" y="0" onmousedown="handlePan(0,-1)"/>
  <use id="arrowright" xlink:href="#arrowRight" x="0" y="0" onmousedown="handlePan(1,0)"/>
  <use id="arrowdown" xlink:href="#arrowDown" x="0" y="0" onmousedown="handlePan(0,1)"/>
  <use id="arrowleft" xlink:href="#arrowLeft" x="0" y="0" onmousedown="handlePan(-1,0)"/>
</g>
<svg viewBox="0 0 15 15" width="100%" height="30px" preserveAspectRatio="xMaxYMin meet">
 <g id="arrow_out" transform="scale(0.3 0.3)">
  <a xlink:href="classSpan_1_1Texture_ab7f1497482e3c11f84341d83aab51b94_icgraph_org.svg" target="_base">
   <rect id="button" ry="5" rx="5" y="6" x="6" height="38" width="38"
        fill="#f2f5e9" fill-opacity="0.5" stroke="#606060" stroke-width="1.0"/>
   <path id="arrow"
     d="M 11.500037,31.436501 C 11.940474,20.09759 22.043105,11.32322 32.158766,21.979434 L 37.068811,17.246167 C 37.068811,17.246167 37.088388,32 37.088388,32 L 22.160133,31.978069 C 22.160133,31.978069 26.997745,27.140456 26.997745,27.140456 C 18.528582,18.264221 13.291696,25.230495 11.500037,31.436501 z"
     style="fill:#404040;"/>
  </a>
 </g>
</svg>

<style type='text/css'>
<![CDATA[
[data-mouse-over-selected='false'] { opacity: 0.7; }
[data-mouse-over-selected='true']  { opacity: 1.0; }
]]>
</style>
<script type="application/ecmascript"><![CDATA[
document.addEventListener('DOMContentLoaded', (event) => {
  highlightEdges();
  highlightAdjacentNodes();
});
]]></script>
</svg>
