<?xml version="1.0" encoding="UTF-8" standalone="no"?>
<!DOCTYPE svg PUBLIC "-//W3C//DTD SVG 1.1//EN"
 "http://www.w3.org/Graphics/SVG/1.1/DTD/svg11.dtd">
<!-- Generated by graphviz version 2.43.0 (0)
 -->
<!-- Title: Span::ImGuiUI::DrawVec3Control Pages: 1 -->
<svg width="359pt" height="64pt"
 viewBox="0.00 0.00 359.00 64.00" xmlns="http://www.w3.org/2000/svg" xmlns:xlink="http://www.w3.org/1999/xlink">
<g id="graph0" class="graph" transform="scale(1 1) rotate(0) translate(4 60)">
<title>Span::ImGuiUI::DrawVec3Control</title>
<!-- Node1 -->
<g id="Node000001" class="node">
<title>Node1</title>
<g id="a_Node000001"><a xlink:title="UnityスタイルのVector3コントロールを描画します。">
<polygon fill="#999999" stroke="#666666" points="351,-37 175,-37 175,-18 351,-18 351,-37"/>
<text text-anchor="middle" x="263" y="-25" font-family="Helvetica,sans-Serif" font-size="10.00">Span::ImGuiUI::DrawVec3Control</text>
</a>
</g>
</g>
<!-- Node2 -->
<g id="Node000002" class="node">
<title>Node2</title>
<g id="a_Node000002"><a xlink:href="namespaceSpan_1_1Internal.html#ae18b71c51d88d168549fe9542ed952bb" target="_top" xlink:title="型に応じた描画ヘルパー関数">
<polygon fill="white" stroke="#666666" points="139,-56 0,-56 0,-37 139,-37 139,-56"/>
<text text-anchor="middle" x="69.5" y="-44" font-family="Helvetica,sans-Serif" font-size="10.00">Span::Internal::DrawField</text>
</a>
</g>
</g>
<!-- Node1&#45;&gt;Node2 -->
<g id="edge1_Node000001_Node000002" class="edge">
<title>Node1&#45;&gt;Node2</title>
<g id="a_edge1_Node000001_Node000002"><a xlink:title=" ">
<path fill="none" stroke="#63b8ff" d="M164.82,-37.14C156.2,-38 147.59,-38.85 139.28,-39.68"/>
<polygon fill="#63b8ff" stroke="#63b8ff" points="165.33,-40.61 174.94,-36.14 164.64,-33.64 165.33,-40.61"/>
</a>
</g>
</g>
<!-- Node3 -->
<g id="Node000003" class="node">
<title>Node3</title>
<g id="a_Node000003"><a xlink:href="structSpan_1_1Transform.html#ac8c51921144bb458d1850814a7f9bd99" target="_top" xlink:title=" ">
<polygon fill="white" stroke="#666666" points="123.5,-19 15.5,-19 15.5,0 123.5,0 123.5,-19"/>
<text text-anchor="middle" x="69.5" y="-7" font-family="Helvetica,sans-Serif" font-size="10.00">Span::Transform::if</text>
</a>
</g>
</g>
<!-- Node1&#45;&gt;Node3 -->
<g id="edge2_Node000001_Node000003" class="edge">
<title>Node1&#45;&gt;Node3</title>
<g id="a_edge2_Node000001_Node000003"><a xlink:title=" ">
<path fill="none" stroke="#63b8ff" d="M164.66,-18.35C150.54,-17.02 136.46,-15.7 123.66,-14.5"/>
<polygon fill="#63b8ff" stroke="#63b8ff" points="164.65,-21.87 174.94,-19.32 165.31,-14.9 164.65,-21.87"/>
</a>
</g>
</g>
</g>
</svg>
