<?xml version="1.0" encoding="UTF-8" standalone="no"?>
<!DOCTYPE svg PUBLIC "-//W3C//DTD SVG 1.1//EN"
 "http://www.w3.org/Graphics/SVG/1.1/DTD/svg11.dtd">
<!-- Generated by graphviz version 2.43.0 (0)
 -->
<!-- Title: Span::World::MigrateEntity Pages: 1 -->
<svg width="681pt" height="104pt"
 viewBox="0.00 0.00 681.00 104.00" xmlns="http://www.w3.org/2000/svg" xmlns:xlink="http://www.w3.org/1999/xlink">
<g id="graph0" class="graph" transform="scale(1 1) rotate(0) translate(4 100)">
<title>Span::World::MigrateEntity</title>
<!-- Node1 -->
<g id="Node000001" class="node">
<title>Node1</title>
<g id="a_Node000001"><a xlink:title=" ">
<polygon fill="#999999" stroke="#666666" points="673,-38.5 527,-38.5 527,-19.5 673,-19.5 673,-38.5"/>
<text text-anchor="middle" x="600" y="-26.5" font-family="Helvetica,sans-Serif" font-size="10.00">Span::World::MigrateEntity</text>
</a>
</g>
</g>
<!-- Node2 -->
<g id="Node000002" class="node">
<title>Node2</title>
<g id="a_Node000002"><a xlink:href="classSpan_1_1World.html#a555e11829d3833ce35f444779c4c2369" target="_top" xlink:title="既存のEntityに新しいコンポーネントを追加します。">
<polygon fill="white" stroke="#666666" points="480,-57.5 325,-57.5 325,-38.5 480,-38.5 480,-57.5"/>
<text text-anchor="middle" x="402.5" y="-45.5" font-family="Helvetica,sans-Serif" font-size="10.00">Span::World::AddComponent</text>
</a>
</g>
</g>
<!-- Node1&#45;&gt;Node2 -->
<g id="edge1_Node000001_Node000002" class="edge">
<title>Node1&#45;&gt;Node2</title>
<g id="a_edge1_Node000001_Node000002"><a xlink:title=" ">
<path fill="none" stroke="#63b8ff" d="M516.65,-37C504.52,-38.18 492.05,-39.39 480.03,-40.56"/>
<polygon fill="#63b8ff" stroke="#63b8ff" points="517.14,-40.47 526.76,-36.02 516.47,-33.5 517.14,-40.47"/>
</a>
</g>
</g>
<!-- Node7 -->
<g id="Node000007" class="node">
<title>Node7</title>
<g id="a_Node000007"><a xlink:href="classSpan_1_1World.html#a5d815ca319bd1f2756394cc107818c46" target="_top" xlink:title="エンティティから指定したコンポーネントを削除します。">
<polygon fill="white" stroke="#666666" points="491,-20.5 314,-20.5 314,-1.5 491,-1.5 491,-20.5"/>
<text text-anchor="middle" x="402.5" y="-8.5" font-family="Helvetica,sans-Serif" font-size="10.00">Span::World::RemoveComponent</text>
</a>
</g>
</g>
<!-- Node1&#45;&gt;Node7 -->
<g id="edge7_Node000001_Node000007" class="edge">
<title>Node1&#45;&gt;Node7</title>
<g id="a_edge7_Node000001_Node000007"><a xlink:title=" ">
<path fill="none" stroke="#63b8ff" d="M516.55,-21.41C508.11,-20.63 499.51,-19.84 491.01,-19.06"/>
<polygon fill="#63b8ff" stroke="#63b8ff" points="516.48,-24.92 526.76,-22.35 517.12,-17.95 516.48,-24.92"/>
</a>
</g>
</g>
<!-- Node3 -->
<g id="Node000003" class="node">
<title>Node3</title>
<g id="a_Node000003"><a xlink:href="classSpan_1_1InspectorPanel.html#a6daa94024d0c4ef940d144af94519964" target="_top" xlink:title="エンティティ用のインスペクターを描画します。">
<polygon fill="white" stroke="#666666" points="278,-96 156,-96 156,-66 278,-66 278,-96"/>
<text text-anchor="start" x="164" y="-84" font-family="Helvetica,sans-Serif" font-size="10.00">Span::InspectorPanel</text>
<text text-anchor="middle" x="217" y="-73" font-family="Helvetica,sans-Serif" font-size="10.00">::DrawEntityInspector</text>
</a>
</g>
</g>
<!-- Node2&#45;&gt;Node3 -->
<g id="edge2_Node000002_Node000003" class="edge">
<title>Node2&#45;&gt;Node3</title>
<g id="a_edge2_Node000002_Node000003"><a xlink:title=" ">
<path fill="none" stroke="#63b8ff" d="M338.4,-59.35C318.86,-62.86 297.38,-66.72 278.05,-70.2"/>
<polygon fill="#63b8ff" stroke="#63b8ff" points="339.2,-62.76 348.42,-57.54 337.96,-55.87 339.2,-62.76"/>
</a>
</g>
</g>
<!-- Node5 -->
<g id="Node000005" class="node">
<title>Node5</title>
<g id="a_Node000005"><a xlink:href="classSpan_1_1HierarchyPanel.html#a2c08f8c6e0cafaed96f7846d76ff2b09" target="_top" xlink:title="1つのエンティティとその子孫を再帰的に描画します。">
<polygon fill="white" stroke="#666666" points="277,-30 157,-30 157,0 277,0 277,-30"/>
<text text-anchor="start" x="165" y="-18" font-family="Helvetica,sans-Serif" font-size="10.00">Span::HierarchyPanel</text>
<text text-anchor="middle" x="217" y="-7" font-family="Helvetica,sans-Serif" font-size="10.00">::DrawEntityNode</text>
</a>
</g>
</g>
<!-- Node2&#45;&gt;Node5 -->
<g id="edge4_Node000002_Node000005" class="edge">
<title>Node2&#45;&gt;Node5</title>
<g id="a_edge4_Node000002_Node000005"><a xlink:title=" ">
<path fill="none" stroke="#63b8ff" d="M338.53,-36.68C318.62,-33.09 296.7,-29.15 277.07,-25.62"/>
<polygon fill="#63b8ff" stroke="#63b8ff" points="337.96,-40.13 348.42,-38.46 339.2,-33.24 337.96,-40.13"/>
</a>
</g>
</g>
<!-- Node4 -->
<g id="Node000004" class="node">
<title>Node4</title>
<g id="a_Node000004"><a xlink:href="classSpan_1_1InspectorPanel.html#ae32fda6018a2e54f880e6708ac5b89fe" target="_top" xlink:title="毎フレーム呼ばれる描画関数。">
<polygon fill="white" stroke="#666666" points="119,-96 1,-96 1,-66 119,-66 119,-96"/>
<text text-anchor="start" x="9" y="-84" font-family="Helvetica,sans-Serif" font-size="10.00">Span::InspectorPanel</text>
<text text-anchor="middle" x="60" y="-73" font-family="Helvetica,sans-Serif" font-size="10.00">::OnImGuiRender</text>
</a>
</g>
</g>
<!-- Node3&#45;&gt;Node4 -->
<g id="edge3_Node000003_Node000004" class="edge">
<title>Node3&#45;&gt;Node4</title>
<g id="a_edge3_Node000003_Node000004"><a xlink:title=" ">
<path fill="none" stroke="#63b8ff" d="M145.41,-81C136.63,-81 127.73,-81 119.17,-81"/>
<polygon fill="#63b8ff" stroke="#63b8ff" points="145.63,-84.5 155.63,-81 145.63,-77.5 145.63,-84.5"/>
</a>
</g>
</g>
<!-- Node5&#45;&gt;Node5 -->
<g id="edge5_Node000005_Node000005" class="edge">
<title>Node5&#45;&gt;Node5</title>
<g id="a_edge5_Node000005_Node000005"><a xlink:title=" ">
<path fill="none" stroke="#63b8ff" d="M244.31,-40.6C240.57,-44.97 231.47,-48 217,-48 192.62,-48 183.48,-39.41 189.58,-30.28"/>
<polygon fill="#63b8ff" stroke="#63b8ff" points="247.81,-40.31 244.42,-30.28 240.81,-40.24 247.81,-40.31"/>
</a>
</g>
</g>
<!-- Node6 -->
<g id="Node000006" class="node">
<title>Node6</title>
<g id="a_Node000006"><a xlink:href="classSpan_1_1HierarchyPanel.html#a6481eb57cd9f45cb3a094a26f35bbaa0" target="_top" xlink:title="毎フレーム呼ばれる描画関数。">
<polygon fill="white" stroke="#666666" points="120,-30 0,-30 0,0 120,0 120,-30"/>
<text text-anchor="start" x="8" y="-18" font-family="Helvetica,sans-Serif" font-size="10.00">Span::HierarchyPanel</text>
<text text-anchor="middle" x="60" y="-7" font-family="Helvetica,sans-Serif" font-size="10.00">::OnImGuiRender</text>
</a>
</g>
</g>
<!-- Node5&#45;&gt;Node6 -->
<g id="edge6_Node000005_Node000006" class="edge">
<title>Node5&#45;&gt;Node6</title>
<g id="a_edge6_Node000005_Node000006"><a xlink:title=" ">
<path fill="none" stroke="#63b8ff" d="M146.95,-15C138,-15 128.9,-15 120.13,-15"/>
<polygon fill="#63b8ff" stroke="#63b8ff" points="146.96,-18.5 156.96,-15 146.96,-11.5 146.96,-18.5"/>
</a>
</g>
</g>
</g>
</svg>
