<?xml version="1.0" encoding="UTF-8" standalone="no"?>
<!DOCTYPE svg PUBLIC "-//W3C//DTD SVG 1.1//EN"
 "http://www.w3.org/Graphics/SVG/1.1/DTD/svg11.dtd">
<!-- Generated by graphviz version 2.43.0 (0)
 -->
<!-- Title: Span::SceneViewPanel Pages: 1 -->
<!--zoomable 744 -->

<svg id="main" version="1.1" xmlns="http://www.w3.org/2000/svg" xmlns:xlink="http://www.w3.org/1999/xlink" xml:space="preserve" onload="init(evt)">

<style type="text/css"><![CDATA[
.node, .edge {opacity: 0.7;}
.node.selected, .edge.selected {opacity: 1;}
.edge:hover path { stroke: red; }
.edge:hover polygon { stroke: red; fill: red; }
]]></style>

<defs>
  <circle id="rim" cx="0" cy="0" r="7"/>
  <circle id="rim2" cx="0" cy="0" r="3.5"/>
  <g id="zoomPlus">
    <use xlink:href="#rim" fill="#404040"><set attributeName="fill" to="#808080" begin="zoomplus.mouseover" end="zoomplus.mouseout"/></use>
    <path d="M-4,0h8M0,-4v8" fill="none" stroke="white" stroke-width="1.5" pointer-events="none"/>
  </g>
  <g id="zoomMin">
    <use xlink:href="#rim" fill="#404040"><set attributeName="fill" to="#808080" begin="zoomminus.mouseover" end="zoomminus.mouseout"/></use>
    <path d="M-4,0h8" fill="none" stroke="white" stroke-width="1.5" pointer-events="none"/>
  </g>
  <g id="arrowUp" transform="translate(30 24)">
    <use xlink:href="#rim"/>
    <path pointer-events="none" fill="none" stroke="white" stroke-width="1.5" d="M0,-3.0v7 M-2.5,-0.5L0,-3.0L2.5,-0.5"/>
  </g>
  <g id="arrowRight" transform="rotate(90) translate(36 -43)">
    <use xlink:href="#rim"/>
    <path pointer-events="none" fill="none" stroke="white" stroke-width="1.5" d="M0,-3.0v7 M-2.5,-0.5L0,-3.0L2.5,-0.5"/>
  </g>
  <g id="arrowDown" transform="rotate(180) translate(-30 -48)">
    <use xlink:href="#rim"/>
    <path pointer-events="none" fill="none" stroke="white" stroke-width="1.5" d="M0,-3.0v7 M-2.5,-0.5L0,-3.0L2.5,-0.5"/>
  </g>
  <g id="arrowLeft" transform="rotate(270) translate(-36 17)">
    <use xlink:href="#rim"/>
    <path pointer-events="none" fill="none" stroke="white" stroke-width="1.5" d="M0,-3.0v7 M-2.5,-0.5L0,-3.0L2.5,-0.5"/>
  </g>
  <g id="resetDef">
    <use xlink:href="#rim2" fill="#404040"><set attributeName="fill" to="#808080" begin="reset.mouseover" end="reset.mouseout"/></use>
  </g>
</defs>
<script type="application/ecmascript">
var viewWidth = 289;
var viewHeight = 744;
var sectionId = 'dynsection-1';
</script>
<script type="application/ecmascript" xlink:href="svg.min.js"/>
<svg id="graph" class="graph">
<g id="viewport">
<title>Span::SceneViewPanel</title>
<!-- Node1 -->
<g id="Node000001" class="node">
<title>Node1</title>
<g id="a_Node000001"><a xlink:title=" ">
<polygon fill="#999999" stroke="transparent" points="155,-244 27,-244 27,0 155,0 155,-244"/>
<text text-anchor="start" x="36" y="-232" font-family="Helvetica,sans-Serif" font-size="10.00">Span::SceneViewPanel</text>
<text text-anchor="start" x="33.5" y="-217" font-family="Helvetica,sans-Serif" font-size="10.00">&#45;</text>
<text text-anchor="start" x="44" y="-217" font-family="Helvetica,sans-Serif" font-size="10.00">textureHandle</text>
<text text-anchor="start" x="33.5" y="-202" font-family="Helvetica,sans-Serif" font-size="10.00">&#45;</text>
<text text-anchor="start" x="44" y="-202" font-family="Helvetica,sans-Serif" font-size="10.00">m_GizmoType</text>
<text text-anchor="start" x="33.5" y="-187" font-family="Helvetica,sans-Serif" font-size="10.00">&#45;</text>
<text text-anchor="start" x="44" y="-187" font-family="Helvetica,sans-Serif" font-size="10.00">m_GizmoMode</text>
<text text-anchor="start" x="33.5" y="-172" font-family="Helvetica,sans-Serif" font-size="10.00">&#45;</text>
<text text-anchor="start" x="44" y="-172" font-family="Helvetica,sans-Serif" font-size="10.00">m_UseSnap</text>
<text text-anchor="start" x="33.5" y="-157" font-family="Helvetica,sans-Serif" font-size="10.00">&#45;</text>
<text text-anchor="start" x="44" y="-157" font-family="Helvetica,sans-Serif" font-size="10.00">m_SnapValueMove</text>
<text text-anchor="start" x="33.5" y="-142" font-family="Helvetica,sans-Serif" font-size="10.00">&#45;</text>
<text text-anchor="start" x="44" y="-142" font-family="Helvetica,sans-Serif" font-size="10.00">m_SnapValueRotate</text>
<text text-anchor="start" x="33.5" y="-127" font-family="Helvetica,sans-Serif" font-size="10.00">&#45;</text>
<text text-anchor="start" x="44" y="-127" font-family="Helvetica,sans-Serif" font-size="10.00">m_SnapValueScale</text>
<text text-anchor="start" x="33.5" y="-112" font-family="Helvetica,sans-Serif" font-size="10.00">&#45;</text>
<text text-anchor="start" x="44" y="-112" font-family="Helvetica,sans-Serif" font-size="10.00">m_AspectRatio</text>
<text text-anchor="start" x="31" y="-97" font-family="Helvetica,sans-Serif" font-size="10.00">+</text>
<text text-anchor="start" x="44" y="-97" font-family="Helvetica,sans-Serif" font-size="10.00">SceneViewPanel()</text>
<text text-anchor="start" x="31" y="-82" font-family="Helvetica,sans-Serif" font-size="10.00">+</text>
<text text-anchor="start" x="44" y="-82" font-family="Helvetica,sans-Serif" font-size="10.00">OnImGuiRender()</text>
<text text-anchor="start" x="31" y="-67" font-family="Helvetica,sans-Serif" font-size="10.00">+</text>
<text text-anchor="start" x="44" y="-67" font-family="Helvetica,sans-Serif" font-size="10.00">SetTexture()</text>
<text text-anchor="start" x="31" y="-52" font-family="Helvetica,sans-Serif" font-size="10.00">+</text>
<text text-anchor="start" x="44" y="-52" font-family="Helvetica,sans-Serif" font-size="10.00">GetTargetResolution()</text>
<text text-anchor="start" x="33.5" y="-37" font-family="Helvetica,sans-Serif" font-size="10.00">&#45;</text>
<text text-anchor="start" x="44" y="-37" font-family="Helvetica,sans-Serif" font-size="10.00">DrawToolbarOverlay()</text>
<text text-anchor="start" x="33.5" y="-22" font-family="Helvetica,sans-Serif" font-size="10.00">&#45;</text>
<text text-anchor="start" x="44" y="-22" font-family="Helvetica,sans-Serif" font-size="10.00">DrawGizmo()</text>
<text text-anchor="start" x="33.5" y="-7" font-family="Helvetica,sans-Serif" font-size="10.00">&#45;</text>
<text text-anchor="start" x="44" y="-7" font-family="Helvetica,sans-Serif" font-size="10.00">CalculateImageArea()</text>
<polygon fill="#666666" stroke="#666666" points="27,-227 27,-227 155,-227 155,-227 27,-227"/>
<polygon fill="#666666" stroke="#666666" points="27,-107 27,-107 42,-107 42,-107 27,-107"/>
<polygon fill="#666666" stroke="#666666" points="42,-107 42,-107 155,-107 155,-107 42,-107"/>
<polygon fill="none" stroke="#666666" points="27,0 27,-244 155,-244 155,0 27,0"/>
</a>
</g>
</g>
<!-- Node2 -->
<g id="Node000002" class="node">
<title>Node2</title>
<g id="a_Node000002"><a xlink:href="classSpan_1_1EditorPanel.html" target="_top" xlink:title="ðŸ–¼ å…¨ã¦ã®ã‚¨ãƒ‡ã‚£ã‚¿ãƒ‘ãƒãƒ«ã®åŸºåº•ã‚¯ãƒ©ã‚¹ã€‚">
<polygon fill="white" stroke="transparent" points="106,-593.5 0,-593.5 0,-454.5 106,-454.5 106,-593.5"/>
<text text-anchor="start" x="10.5" y="-581" font-family="Helvetica,sans-Serif" font-size="10.00">Span::EditorPanel</text>
<text text-anchor="start" x="4" y="-566" font-family="Helvetica,sans-Serif" font-size="10.00">+</text>
<text text-anchor="start" x="17" y="-566" font-family="Helvetica,sans-Serif" font-size="10.00">title</text>
<text text-anchor="start" x="4" y="-551" font-family="Helvetica,sans-Serif" font-size="10.00">+</text>
<text text-anchor="start" x="17" y="-551" font-family="Helvetica,sans-Serif" font-size="10.00">isOpen</text>
<text text-anchor="start" x="4" y="-536" font-family="Helvetica,sans-Serif" font-size="10.00">+</text>
<text text-anchor="start" x="17" y="-536" font-family="Helvetica,sans-Serif" font-size="10.00">EditorPanel()</text>
<text text-anchor="start" x="4" y="-521" font-family="Helvetica,sans-Serif" font-size="10.00">+</text>
<text text-anchor="start" x="17" y="-521" font-family="Helvetica,sans-Serif" font-size="10.00">~EditorPanel()</text>
<text text-anchor="start" x="4" y="-506" font-family="Helvetica,sans-Serif" font-size="10.00">+</text>
<text text-anchor="start" x="17" y="-506" font-family="Helvetica,sans-Serif" font-size="10.00">OnImGuiRender()</text>
<text text-anchor="start" x="4" y="-491" font-family="Helvetica,sans-Serif" font-size="10.00">+</text>
<text text-anchor="start" x="17" y="-491" font-family="Helvetica,sans-Serif" font-size="10.00">IsOpen()</text>
<text text-anchor="start" x="4" y="-476" font-family="Helvetica,sans-Serif" font-size="10.00">+</text>
<text text-anchor="start" x="17" y="-476" font-family="Helvetica,sans-Serif" font-size="10.00">Open()</text>
<text text-anchor="start" x="4" y="-461" font-family="Helvetica,sans-Serif" font-size="10.00">+</text>
<text text-anchor="start" x="17" y="-461" font-family="Helvetica,sans-Serif" font-size="10.00">Close()</text>
<polygon fill="#666666" stroke="#666666" points="0,-576 0,-576 106,-576 106,-576 0,-576"/>
<polygon fill="#666666" stroke="#666666" points="0,-546 0,-546 15,-546 15,-546 0,-546"/>
<polygon fill="#666666" stroke="#666666" points="15,-546 15,-546 106,-546 106,-546 15,-546"/>
<polygon fill="none" stroke="#666666" points="0,-454.5 0,-593.5 106,-593.5 106,-454.5 0,-454.5"/>
</a>
</g>
</g>
<!-- Node2&#45;&gt;Node1 -->
<g id="edge1_Node000001_Node000002" class="edge">
<title>Node2&#45;&gt;Node1</title>
<g id="a_edge1_Node000001_Node000002"><a xlink:title=" ">
<path fill="none" stroke="#63b8ff" d="M60.49,-444.2C65.9,-387.18 73.33,-309.05 79.49,-244.13"/>
<polygon fill="none" stroke="#63b8ff" points="56.99,-443.95 59.53,-454.24 63.96,-444.61 56.99,-443.95"/>
</a>
</g>
</g>
<!-- Node3 -->
<g id="Node000003" class="node">
<title>Node3</title>
<g id="a_Node000003"><a xlink:href="structSpan_1_1Vector2.html" target="_top" xlink:title="2æ¬¡å…ƒãƒ™ã‚¯ãƒˆãƒ« (float x, y) UIåº§æ¨™ã‚„UVåº§æ¨™ã«ä½¿ç”¨ã•ã‚Œã¾ã™ã€‚">
<polygon fill="white" stroke="transparent" points="226,-736 124,-736 124,-312 226,-312 226,-736"/>
<text text-anchor="start" x="141.5" y="-724" font-family="Helvetica,sans-Serif" font-size="10.00">Span::Vector2</text>
<text text-anchor="start" x="128" y="-709" font-family="Helvetica,sans-Serif" font-size="10.00">+</text>
<text text-anchor="start" x="141" y="-709" font-family="Helvetica,sans-Serif" font-size="10.00">x</text>
<text text-anchor="start" x="128" y="-694" font-family="Helvetica,sans-Serif" font-size="10.00">+</text>
<text text-anchor="start" x="141" y="-694" font-family="Helvetica,sans-Serif" font-size="10.00">y</text>
<text text-anchor="start" x="128" y="-679" font-family="Helvetica,sans-Serif" font-size="10.00">+</text>
<text text-anchor="start" x="141" y="-679" font-family="Helvetica,sans-Serif" font-size="10.00">Vector2()</text>
<text text-anchor="start" x="128" y="-664" font-family="Helvetica,sans-Serif" font-size="10.00">+</text>
<text text-anchor="start" x="141" y="-664" font-family="Helvetica,sans-Serif" font-size="10.00">Vector2()</text>
<text text-anchor="start" x="128" y="-649" font-family="Helvetica,sans-Serif" font-size="10.00">+</text>
<text text-anchor="start" x="141" y="-649" font-family="Helvetica,sans-Serif" font-size="10.00">Vector2()</text>
<text text-anchor="start" x="128" y="-634" font-family="Helvetica,sans-Serif" font-size="10.00">+</text>
<text text-anchor="start" x="141" y="-634" font-family="Helvetica,sans-Serif" font-size="10.00">ToXM()</text>
<text text-anchor="start" x="128" y="-619" font-family="Helvetica,sans-Serif" font-size="10.00">+</text>
<text text-anchor="start" x="141" y="-619" font-family="Helvetica,sans-Serif" font-size="10.00">FromXM()</text>
<text text-anchor="start" x="128" y="-604" font-family="Helvetica,sans-Serif" font-size="10.00">+</text>
<text text-anchor="start" x="141" y="-604" font-family="Helvetica,sans-Serif" font-size="10.00">operator+()</text>
<text text-anchor="start" x="128" y="-589" font-family="Helvetica,sans-Serif" font-size="10.00">+</text>
<text text-anchor="start" x="141" y="-589" font-family="Helvetica,sans-Serif" font-size="10.00">operator&#45;()</text>
<text text-anchor="start" x="128" y="-574" font-family="Helvetica,sans-Serif" font-size="10.00">+</text>
<text text-anchor="start" x="141" y="-574" font-family="Helvetica,sans-Serif" font-size="10.00">operator*()</text>
<text text-anchor="start" x="128" y="-559" font-family="Helvetica,sans-Serif" font-size="10.00">+</text>
<text text-anchor="start" x="141" y="-559" font-family="Helvetica,sans-Serif" font-size="10.00">operator/()</text>
<text text-anchor="start" x="128" y="-544" font-family="Helvetica,sans-Serif" font-size="10.00">+</text>
<text text-anchor="start" x="141" y="-544" font-family="Helvetica,sans-Serif" font-size="10.00">operator+=()</text>
<text text-anchor="start" x="128" y="-529" font-family="Helvetica,sans-Serif" font-size="10.00">+</text>
<text text-anchor="start" x="141" y="-529" font-family="Helvetica,sans-Serif" font-size="10.00">operator&#45;=()</text>
<text text-anchor="start" x="128" y="-514" font-family="Helvetica,sans-Serif" font-size="10.00">+</text>
<text text-anchor="start" x="141" y="-514" font-family="Helvetica,sans-Serif" font-size="10.00">Length()</text>
<text text-anchor="start" x="128" y="-499" font-family="Helvetica,sans-Serif" font-size="10.00">+</text>
<text text-anchor="start" x="141" y="-499" font-family="Helvetica,sans-Serif" font-size="10.00">LengthSquared()</text>
<text text-anchor="start" x="128" y="-484" font-family="Helvetica,sans-Serif" font-size="10.00">+</text>
<text text-anchor="start" x="141" y="-484" font-family="Helvetica,sans-Serif" font-size="10.00">Normalized()</text>
<text text-anchor="start" x="129.5" y="-469" font-family="Helvetica,sans-Serif" font-size="10.00">*</text>
<text text-anchor="start" x="141" y="-469" font-family="Helvetica,sans-Serif" font-size="10.00">ToXM()</text>
<text text-anchor="start" x="129.5" y="-454" font-family="Helvetica,sans-Serif" font-size="10.00">*</text>
<text text-anchor="start" x="141" y="-454" font-family="Helvetica,sans-Serif" font-size="10.00">FromXM()</text>
<text text-anchor="start" x="129.5" y="-439" font-family="Helvetica,sans-Serif" font-size="10.00">*</text>
<text text-anchor="start" x="141" y="-439" font-family="Helvetica,sans-Serif" font-size="10.00">operator+()</text>
<text text-anchor="start" x="129.5" y="-424" font-family="Helvetica,sans-Serif" font-size="10.00">*</text>
<text text-anchor="start" x="141" y="-424" font-family="Helvetica,sans-Serif" font-size="10.00">operator&#45;()</text>
<text text-anchor="start" x="129.5" y="-409" font-family="Helvetica,sans-Serif" font-size="10.00">*</text>
<text text-anchor="start" x="141" y="-409" font-family="Helvetica,sans-Serif" font-size="10.00">operator*()</text>
<text text-anchor="start" x="129.5" y="-394" font-family="Helvetica,sans-Serif" font-size="10.00">*</text>
<text text-anchor="start" x="141" y="-394" font-family="Helvetica,sans-Serif" font-size="10.00">operator/()</text>
<text text-anchor="start" x="129.5" y="-379" font-family="Helvetica,sans-Serif" font-size="10.00">*</text>
<text text-anchor="start" x="141" y="-379" font-family="Helvetica,sans-Serif" font-size="10.00">operator+=()</text>
<text text-anchor="start" x="129.5" y="-364" font-family="Helvetica,sans-Serif" font-size="10.00">*</text>
<text text-anchor="start" x="141" y="-364" font-family="Helvetica,sans-Serif" font-size="10.00">operator&#45;=()</text>
<text text-anchor="start" x="129.5" y="-349" font-family="Helvetica,sans-Serif" font-size="10.00">*</text>
<text text-anchor="start" x="141" y="-349" font-family="Helvetica,sans-Serif" font-size="10.00">Length()</text>
<text text-anchor="start" x="129.5" y="-334" font-family="Helvetica,sans-Serif" font-size="10.00">*</text>
<text text-anchor="start" x="141" y="-334" font-family="Helvetica,sans-Serif" font-size="10.00">LengthSquared()</text>
<text text-anchor="start" x="129.5" y="-319" font-family="Helvetica,sans-Serif" font-size="10.00">*</text>
<text text-anchor="start" x="141" y="-319" font-family="Helvetica,sans-Serif" font-size="10.00">Normalized()</text>
<polygon fill="#666666" stroke="#666666" points="124,-719 124,-719 226,-719 226,-719 124,-719"/>
<polygon fill="#666666" stroke="#666666" points="124,-689 124,-689 139,-689 139,-689 124,-689"/>
<polygon fill="#666666" stroke="#666666" points="139,-689 139,-689 226,-689 226,-689 139,-689"/>
<polygon fill="none" stroke="#666666" points="124,-312 124,-736 226,-736 226,-312 124,-312"/>
</a>
</g>
</g>
<!-- Node3&#45;&gt;Node1 -->
<g id="edge2_Node000001_Node000003" class="edge">
<title>Node3&#45;&gt;Node1</title>
<g id="a_edge2_Node000001_Node000003"><a xlink:title=" ">
<path fill="none" stroke="#63b8ff" d="M130.66,-311.87C126.67,-292.85 122.7,-273.95 118.91,-255.89"/>
<polygon fill="none" stroke="#63b8ff" points="118.91,-255.89 113.76,-250.84 116.44,-244.14 121.59,-249.19 118.91,-255.89"/>
</a>
</g>
<text text-anchor="start" x="128.5" y="-283" font-family="Helvetica,sans-Serif" font-size="10.00" fill="grey">&#45;m_PanelSize</text>
<text text-anchor="start" x="128.5" y="-268" font-family="Helvetica,sans-Serif" font-size="10.00" fill="grey">&#45;m_TargetResolution</text>
</g>
<!-- Node3&#45;&gt;Node3 -->
<g id="edge3_Node000003_Node000003" class="edge">
<title>Node3&#45;&gt;Node3</title>
<g id="a_edge3_Node000003_Node000003"><a xlink:title=" ">
<path fill="none" stroke="#63b8ff" d="M226.15,-568.37C236.55,-563.53 244,-548.74 244,-524 244,-507.38 240.64,-495.24 235.28,-487.61"/>
<polygon fill="none" stroke="#63b8ff" points="235.19,-487.53 228.04,-486.59 226.15,-479.63 233.3,-480.57 235.19,-487.53"/>
</a>
</g>
<text text-anchor="start" x="247.5" y="-529" font-family="Helvetica,sans-Serif" font-size="10.00" fill="grey">+One</text>
<text text-anchor="start" x="247.5" y="-514" font-family="Helvetica,sans-Serif" font-size="10.00" fill="grey">+Zero</text>
</g>
</g>
</svg>

<g id="navigator" transform="translate(0 0)" fill="#404254">
  <rect fill="#f2f5e9" fill-opacity="0.5" stroke="#606060" stroke-width=".5" x="0" y="0" width="60" height="60"/>
  <use id="zoomplus" xlink:href="#zoomPlus" x="17" y="9" onmousedown="handleZoom(evt,'in')"/>
  <use id="zoomminus" xlink:href="#zoomMin" x="42" y="9" onmousedown="handleZoom(evt,'out')"/>
  <use id="reset" xlink:href="#resetDef" x="30" y="36" onmousedown="handleReset()"/>
   <use id="arrowup" xlink:href="#arrowUp" x="0" y="0" onmousedown="handlePan(0,-1)"/>
  <use id="arrowright" xlink:href="#arrowRight" x="0" y="0" onmousedown="handlePan(1,0)"/>
  <use id="arrowdown" xlink:href="#arrowDown" x="0" y="0" onmousedown="handlePan(0,1)"/>
  <use id="arrowleft" xlink:href="#arrowLeft" x="0" y="0" onmousedown="handlePan(-1,0)"/>
</g>
<svg viewBox="0 0 15 15" width="100%" height="30px" preserveAspectRatio="xMaxYMin meet">
 <g id="arrow_out" transform="scale(0.3 0.3)">
  <a xlink:href="classSpan_1_1SceneViewPanel__coll__graph_org.svg" target="_base">
   <rect id="button" ry="5" rx="5" y="6" x="6" height="38" width="38"
        fill="#f2f5e9" fill-opacity="0.5" stroke="#606060" stroke-width="1.0"/>
   <path id="arrow"
     d="M 11.500037,31.436501 C 11.940474,20.09759 22.043105,11.32322 32.158766,21.979434 L 37.068811,17.246167 C 37.068811,17.246167 37.088388,32 37.088388,32 L 22.160133,31.978069 C 22.160133,31.978069 26.997745,27.140456 26.997745,27.140456 C 18.528582,18.264221 13.291696,25.230495 11.500037,31.436501 z"
     style="fill:#404040;"/>
  </a>
 </g>
</svg>

<style type='text/css'>
<![CDATA[
[data-mouse-over-selected='false'] { opacity: 0.7; }
[data-mouse-over-selected='true']  { opacity: 1.0; }
]]>
</style>
<script type="application/ecmascript"><![CDATA[
document.addEventListener('DOMContentLoaded', (event) => {
  highlightEdges();
  highlightAdjacentNodes();
});
]]></script>
</svg>
