<?xml version="1.0" encoding="UTF-8" standalone="no"?>
<!DOCTYPE svg PUBLIC "-//W3C//DTD SVG 1.1//EN"
 "http://www.w3.org/Graphics/SVG/1.1/DTD/svg11.dtd">
<!-- Generated by graphviz version 2.43.0 (0)
 -->
<!-- Title: Span::Application::Run Pages: 1 -->
<!--zoomable 411 -->

<svg id="main" version="1.1" xmlns="http://www.w3.org/2000/svg" xmlns:xlink="http://www.w3.org/1999/xlink" xml:space="preserve" onload="init(evt)">

<style type="text/css"><![CDATA[
.node, .edge {opacity: 0.7;}
.node.selected, .edge.selected {opacity: 1;}
.edge:hover path { stroke: red; }
.edge:hover polygon { stroke: red; fill: red; }
]]></style>

<defs>
  <circle id="rim" cx="0" cy="0" r="7"/>
  <circle id="rim2" cx="0" cy="0" r="3.5"/>
  <g id="zoomPlus">
    <use xlink:href="#rim" fill="#404040"><set attributeName="fill" to="#808080" begin="zoomplus.mouseover" end="zoomplus.mouseout"/></use>
    <path d="M-4,0h8M0,-4v8" fill="none" stroke="white" stroke-width="1.5" pointer-events="none"/>
  </g>
  <g id="zoomMin">
    <use xlink:href="#rim" fill="#404040"><set attributeName="fill" to="#808080" begin="zoomminus.mouseover" end="zoomminus.mouseout"/></use>
    <path d="M-4,0h8" fill="none" stroke="white" stroke-width="1.5" pointer-events="none"/>
  </g>
  <g id="arrowUp" transform="translate(30 24)">
    <use xlink:href="#rim"/>
    <path pointer-events="none" fill="none" stroke="white" stroke-width="1.5" d="M0,-3.0v7 M-2.5,-0.5L0,-3.0L2.5,-0.5"/>
  </g>
  <g id="arrowRight" transform="rotate(90) translate(36 -43)">
    <use xlink:href="#rim"/>
    <path pointer-events="none" fill="none" stroke="white" stroke-width="1.5" d="M0,-3.0v7 M-2.5,-0.5L0,-3.0L2.5,-0.5"/>
  </g>
  <g id="arrowDown" transform="rotate(180) translate(-30 -48)">
    <use xlink:href="#rim"/>
    <path pointer-events="none" fill="none" stroke="white" stroke-width="1.5" d="M0,-3.0v7 M-2.5,-0.5L0,-3.0L2.5,-0.5"/>
  </g>
  <g id="arrowLeft" transform="rotate(270) translate(-36 17)">
    <use xlink:href="#rim"/>
    <path pointer-events="none" fill="none" stroke="white" stroke-width="1.5" d="M0,-3.0v7 M-2.5,-0.5L0,-3.0L2.5,-0.5"/>
  </g>
  <g id="resetDef">
    <use xlink:href="#rim2" fill="#404040"><set attributeName="fill" to="#808080" begin="reset.mouseover" end="reset.mouseout"/></use>
  </g>
</defs>
<script type="application/ecmascript">
var viewWidth = 523;
var viewHeight = 411;
var sectionId = 'dynsection-13';
</script>
<script type="application/ecmascript" xlink:href="svg.min.js"/>
<svg id="graph" class="graph">
<g id="viewport">
<title>Span::Application::Run</title>
<!-- Node1 -->
<g id="Node000001" class="node">
<title>Node1</title>
<g id="a_Node000001"><a xlink:title="アプリケーションを実行します (ブロック関数)。">
<polygon fill="#999999" stroke="#666666" points="126,-219 0,-219 0,-200 126,-200 126,-219"/>
<text text-anchor="middle" x="63" y="-207" font-family="Helvetica,sans-Serif" font-size="10.00">Span::Application::Run</text>
</a>
</g>
</g>
<!-- Node2 -->
<g id="Node000002" class="node">
<title>Node2</title>
<g id="a_Node000002"><a xlink:href="classSpan_1_1GuiManager.html#af6528ac5ab8ba075fd24a944d36e8f53" target="_top" xlink:title="ImGuiのフレームを開始します。">
<polygon fill="white" stroke="#666666" points="332,-397 162,-397 162,-378 332,-378 332,-397"/>
<text text-anchor="middle" x="247" y="-385" font-family="Helvetica,sans-Serif" font-size="10.00">Span::GuiManager::BeginFrame</text>
</a>
</g>
</g>
<!-- Node1&#45;&gt;Node2 -->
<g id="edge1_Node000001_Node000002" class="edge">
<title>Node1&#45;&gt;Node2</title>
<g id="a_edge1_Node000001_Node000002"><a xlink:title=" ">
<path fill="none" stroke="#63b8ff" d="M66.95,-219.31C75.99,-247.63 106.17,-329.97 162,-369.5 163.93,-370.87 165.94,-372.13 168.02,-373.3"/>
<polygon fill="#63b8ff" stroke="#63b8ff" points="166.96,-376.68 177.49,-377.87 170,-370.37 166.96,-376.68"/>
</a>
</g>
</g>
<!-- Node4 -->
<g id="Node000004" class="node">
<title>Node4</title>
<g id="a_Node000004"><a xlink:href="classSpan_1_1GuiManager.html#a66e894c749b02f869c0851b41fd23fec" target="_top" xlink:title="ImGuiの描画コマンドを発行し、フレームを終了します。">
<polygon fill="white" stroke="#666666" points="327.5,-360 166.5,-360 166.5,-341 327.5,-341 327.5,-360"/>
<text text-anchor="middle" x="247" y="-348" font-family="Helvetica,sans-Serif" font-size="10.00">Span::GuiManager::EndFrame</text>
</a>
</g>
</g>
<!-- Node1&#45;&gt;Node4 -->
<g id="edge3_Node000001_Node000004" class="edge">
<title>Node1&#45;&gt;Node4</title>
<g id="a_edge3_Node000001_Node000004"><a xlink:title=" ">
<path fill="none" stroke="#63b8ff" d="M68.63,-219.03C80.53,-242.48 114.65,-303.17 162,-332.5 164.64,-334.14 167.41,-335.62 170.26,-336.98"/>
<polygon fill="#63b8ff" stroke="#63b8ff" points="169.06,-340.27 179.64,-340.87 171.74,-333.8 169.06,-340.27"/>
</a>
</g>
</g>
<!-- Node5 -->
<g id="Node000005" class="node">
<title>Node5</title>
<g id="a_Node000005"><a xlink:href="classSpan_1_1Input.html#a1be9ee5fee394c7fe2c6e3d7bfa6ee77" target="_top" xlink:title=" ">
<polygon fill="white" stroke="#666666" points="310,-323 184,-323 184,-304 310,-304 310,-323"/>
<text text-anchor="middle" x="247" y="-311" font-family="Helvetica,sans-Serif" font-size="10.00">Span::Input::EndFrame</text>
</a>
</g>
</g>
<!-- Node1&#45;&gt;Node5 -->
<g id="edge4_Node000001_Node000005" class="edge">
<title>Node1&#45;&gt;Node5</title>
<g id="a_edge4_Node000001_Node000005"><a xlink:title=" ">
<path fill="none" stroke="#63b8ff" d="M72.03,-219.28C87.46,-237.37 123.17,-275.98 162,-295.5 165.82,-297.42 169.84,-299.14 173.97,-300.67"/>
<polygon fill="#63b8ff" stroke="#63b8ff" points="173.15,-304.09 183.75,-303.93 175.37,-297.45 173.15,-304.09"/>
</a>
</g>
</g>
<!-- Node6 -->
<g id="Node000006" class="node">
<title>Node6</title>
<g id="a_Node000006"><a xlink:href="classSpan_1_1GuiManager.html#a1b9ad1d7595409b13c41950822c0b58f" target="_top" xlink:title="特定の方のパネルを取得します。">
<polygon fill="white" stroke="#666666" points="324.5,-286 169.5,-286 169.5,-267 324.5,-267 324.5,-286"/>
<text text-anchor="middle" x="247" y="-274" font-family="Helvetica,sans-Serif" font-size="10.00">Span::GuiManager::GetPanel</text>
</a>
</g>
</g>
<!-- Node1&#45;&gt;Node6 -->
<g id="edge5_Node000001_Node000006" class="edge">
<title>Node1&#45;&gt;Node6</title>
<g id="a_edge5_Node000001_Node000006"><a xlink:title=" ">
<path fill="none" stroke="#63b8ff" d="M80.48,-219.06C99.55,-229.76 132.16,-246.98 162,-257.5 169.34,-260.09 177.16,-262.41 184.97,-264.46"/>
<polygon fill="#63b8ff" stroke="#63b8ff" points="184.27,-267.89 194.82,-266.92 185.97,-261.1 184.27,-267.89"/>
</a>
</g>
</g>
<!-- Node7 -->
<g id="Node000007" class="node">
<title>Node7</title>
<g id="a_Node000007"><a xlink:href="classSpan_1_1Application.html#af29c3c6b93d1e06ac0a82ad0544dcb4c" target="_top" xlink:title="終了時に呼ばれます。">
<polygon fill="white" stroke="#666666" points="300.5,-248.5 193.5,-248.5 193.5,-218.5 300.5,-218.5 300.5,-248.5"/>
<text text-anchor="start" x="201.5" y="-236.5" font-family="Helvetica,sans-Serif" font-size="10.00">Span::Application::</text>
<text text-anchor="middle" x="247" y="-225.5" font-family="Helvetica,sans-Serif" font-size="10.00">OnShutdown</text>
</a>
</g>
</g>
<!-- Node1&#45;&gt;Node7 -->
<g id="edge6_Node000001_Node000007" class="edge">
<title>Node1&#45;&gt;Node7</title>
<g id="a_edge6_Node000001_Node000007"><a xlink:title=" ">
<path fill="none" stroke="#63b8ff" d="M126.13,-217.69C144.54,-220.12 164.73,-222.78 183.19,-225.22"/>
<polygon fill="#63b8ff" stroke="#63b8ff" points="182.88,-228.71 193.25,-226.54 183.79,-221.77 182.88,-228.71"/>
</a>
</g>
</g>
<!-- Node8 -->
<g id="Node000008" class="node">
<title>Node8</title>
<g id="a_Node000008"><a xlink:href="classSpan_1_1Application.html#ac63d2626e1c9fcd6780ea38f0ce5cc9f" target="_top" xlink:title="起動時 (ループ開始前) に一度だけ呼ばれます。">
<polygon fill="white" stroke="#666666" points="300.5,-200.5 193.5,-200.5 193.5,-170.5 300.5,-170.5 300.5,-200.5"/>
<text text-anchor="start" x="201.5" y="-188.5" font-family="Helvetica,sans-Serif" font-size="10.00">Span::Application::</text>
<text text-anchor="middle" x="247" y="-177.5" font-family="Helvetica,sans-Serif" font-size="10.00">OnStart</text>
</a>
</g>
</g>
<!-- Node1&#45;&gt;Node8 -->
<g id="edge7_Node000001_Node000008" class="edge">
<title>Node1&#45;&gt;Node8</title>
<g id="a_edge7_Node000001_Node000008"><a xlink:title=" ">
<path fill="none" stroke="#63b8ff" d="M126.13,-201.31C144.54,-198.88 164.73,-196.22 183.19,-193.78"/>
<polygon fill="#63b8ff" stroke="#63b8ff" points="183.79,-197.23 193.25,-192.46 182.88,-190.29 183.79,-197.23"/>
</a>
</g>
</g>
<!-- Node9 -->
<g id="Node000009" class="node">
<title>Node9</title>
<g id="a_Node000009"><a xlink:href="classSpan_1_1Application.html#a874e2f98f78745d0c786d7bb03db6ddd" target="_top" xlink:title="毎フレーム呼ばれます。ゲームロジックをここに記述します。">
<polygon fill="white" stroke="#666666" points="300.5,-152.5 193.5,-152.5 193.5,-122.5 300.5,-122.5 300.5,-152.5"/>
<text text-anchor="start" x="201.5" y="-140.5" font-family="Helvetica,sans-Serif" font-size="10.00">Span::Application::</text>
<text text-anchor="middle" x="247" y="-129.5" font-family="Helvetica,sans-Serif" font-size="10.00">OnUpdate</text>
</a>
</g>
</g>
<!-- Node1&#45;&gt;Node9 -->
<g id="edge8_Node000001_Node000009" class="edge">
<title>Node1&#45;&gt;Node9</title>
<g id="a_edge8_Node000001_Node000009"><a xlink:title=" ">
<path fill="none" stroke="#63b8ff" d="M81.28,-199.87C100.54,-189.41 132.82,-172.71 162,-161.5 168.81,-158.88 176.03,-156.4 183.27,-154.1"/>
<polygon fill="#63b8ff" stroke="#63b8ff" points="184.57,-157.36 193.1,-151.07 182.51,-150.67 184.57,-157.36"/>
</a>
</g>
</g>
<!-- Node10 -->
<g id="Node000010" class="node">
<title>Node10</title>
<g id="a_Node000010"><a xlink:href="classSpan_1_1GuiManager.html#a0f7b43f95ca06cadd8b3d4436e4e5f18" target="_top" xlink:title="テクスチャをImGuiで表示するために登録します。">
<polygon fill="white" stroke="#666666" points="323,-104.5 171,-104.5 171,-74.5 323,-74.5 323,-104.5"/>
<text text-anchor="start" x="179" y="-92.5" font-family="Helvetica,sans-Serif" font-size="10.00">Span::GuiManager::Register</text>
<text text-anchor="middle" x="247" y="-81.5" font-family="Helvetica,sans-Serif" font-size="10.00">Texture</text>
</a>
</g>
</g>
<!-- Node1&#45;&gt;Node10 -->
<g id="edge9_Node000001_Node000010" class="edge">
<title>Node1&#45;&gt;Node10</title>
<g id="a_edge9_Node000001_Node000010"><a xlink:title=" ">
<path fill="none" stroke="#63b8ff" d="M71.2,-199.72C86.01,-180.33 121.85,-136.85 162,-113.5 165.04,-111.73 168.22,-110.09 171.49,-108.56"/>
<polygon fill="#63b8ff" stroke="#63b8ff" points="173.07,-111.69 180.9,-104.54 170.33,-105.25 173.07,-111.69"/>
</a>
</g>
</g>
<!-- Node11 -->
<g id="Node000011" class="node">
<title>Node11</title>
<g id="a_Node000011"><a xlink:href="classSpan_1_1Input.html#a3487299cd56899d0ddfad97dc6497e4c" target="_top" xlink:title=" ">
<polygon fill="white" stroke="#666666" points="303.5,-56 190.5,-56 190.5,-37 303.5,-37 303.5,-56"/>
<text text-anchor="middle" x="247" y="-44" font-family="Helvetica,sans-Serif" font-size="10.00">Span::Input::Update</text>
</a>
</g>
</g>
<!-- Node1&#45;&gt;Node11 -->
<g id="edge10_Node000001_Node000011" class="edge">
<title>Node1&#45;&gt;Node11</title>
<g id="a_edge10_Node000001_Node000011"><a xlink:title=" ">
<path fill="none" stroke="#63b8ff" d="M67.56,-199.94C77.81,-173.84 110.01,-100.9 162,-65.5 167.65,-61.66 173.95,-58.58 180.5,-56.12"/>
<polygon fill="#63b8ff" stroke="#63b8ff" points="181.81,-59.37 190.23,-52.93 179.64,-52.72 181.81,-59.37"/>
</a>
</g>
</g>
<!-- Node12 -->
<g id="Node000012" class="node">
<title>Node12</title>
<g id="a_Node000012"><a xlink:href="classSpan_1_1Time.html#a990876cca93479473bd4e5e9aa5c8dfc" target="_top" xlink:title="フレーム開始時に呼ぶ（時間を進める）">
<polygon fill="white" stroke="#666666" points="303.5,-19 190.5,-19 190.5,0 303.5,0 303.5,-19"/>
<text text-anchor="middle" x="247" y="-7" font-family="Helvetica,sans-Serif" font-size="10.00">Span::Time::Update</text>
</a>
</g>
</g>
<!-- Node1&#45;&gt;Node12 -->
<g id="edge11_Node000001_Node000012" class="edge">
<title>Node1&#45;&gt;Node12</title>
<g id="a_edge11_Node000001_Node000012"><a xlink:title=" ">
<path fill="none" stroke="#63b8ff" d="M66.23,-199.79C73.78,-169.25 101.34,-74.47 162,-28.5 167.52,-24.31 173.8,-21.02 180.38,-18.43"/>
<polygon fill="#63b8ff" stroke="#63b8ff" points="181.82,-21.64 190.18,-15.13 179.59,-15.01 181.82,-21.64"/>
</a>
</g>
</g>
<!-- Node3 -->
<g id="Node000003" class="node">
<title>Node3</title>
<g id="a_Node000003"><a xlink:href="classSpan_1_1Input.html#ab4b75b835f5d27b47ce6033060ac3d65" target="_top" xlink:title="ImGuiがマウスを占有しているか設定する">
<polygon fill="white" stroke="#666666" points="515,-402.5 368,-402.5 368,-372.5 515,-372.5 515,-402.5"/>
<text text-anchor="start" x="376" y="-390.5" font-family="Helvetica,sans-Serif" font-size="10.00">Span::Input::SetImGuiWant</text>
<text text-anchor="middle" x="441.5" y="-379.5" font-family="Helvetica,sans-Serif" font-size="10.00">Capture</text>
</a>
</g>
</g>
<!-- Node2&#45;&gt;Node3 -->
<g id="edge2_Node000002_Node000003" class="edge">
<title>Node2&#45;&gt;Node3</title>
<g id="a_edge2_Node000002_Node000003"><a xlink:title=" ">
<path fill="none" stroke="#63b8ff" d="M332.15,-387.5C340.64,-387.5 349.26,-387.5 357.73,-387.5"/>
<polygon fill="#63b8ff" stroke="#63b8ff" points="357.97,-391 367.97,-387.5 357.97,-384 357.97,-391"/>
</a>
</g>
</g>
</g>
</svg>

<g id="navigator" transform="translate(0 0)" fill="#404254">
  <rect fill="#f2f5e9" fill-opacity="0.5" stroke="#606060" stroke-width=".5" x="0" y="0" width="60" height="60"/>
  <use id="zoomplus" xlink:href="#zoomPlus" x="17" y="9" onmousedown="handleZoom(evt,'in')"/>
  <use id="zoomminus" xlink:href="#zoomMin" x="42" y="9" onmousedown="handleZoom(evt,'out')"/>
  <use id="reset" xlink:href="#resetDef" x="30" y="36" onmousedown="handleReset()"/>
   <use id="arrowup" xlink:href="#arrowUp" x="0" y="0" onmousedown="handlePan(0,-1)"/>
  <use id="arrowright" xlink:href="#arrowRight" x="0" y="0" onmousedown="handlePan(1,0)"/>
  <use id="arrowdown" xlink:href="#arrowDown" x="0" y="0" onmousedown="handlePan(0,1)"/>
  <use id="arrowleft" xlink:href="#arrowLeft" x="0" y="0" onmousedown="handlePan(-1,0)"/>
</g>
<svg viewBox="0 0 15 15" width="100%" height="30px" preserveAspectRatio="xMaxYMin meet">
 <g id="arrow_out" transform="scale(0.3 0.3)">
  <a xlink:href="classSpan_1_1Application_a9dc7321cf43512eac3757a83fbefbaa9_cgraph_org.svg" target="_base">
   <rect id="button" ry="5" rx="5" y="6" x="6" height="38" width="38"
        fill="#f2f5e9" fill-opacity="0.5" stroke="#606060" stroke-width="1.0"/>
   <path id="arrow"
     d="M 11.500037,31.436501 C 11.940474,20.09759 22.043105,11.32322 32.158766,21.979434 L 37.068811,17.246167 C 37.068811,17.246167 37.088388,32 37.088388,32 L 22.160133,31.978069 C 22.160133,31.978069 26.997745,27.140456 26.997745,27.140456 C 18.528582,18.264221 13.291696,25.230495 11.500037,31.436501 z"
     style="fill:#404040;"/>
  </a>
 </g>
</svg>

<style type='text/css'>
<![CDATA[
[data-mouse-over-selected='false'] { opacity: 0.7; }
[data-mouse-over-selected='true']  { opacity: 1.0; }
]]>
</style>
<script type="application/ecmascript"><![CDATA[
document.addEventListener('DOMContentLoaded', (event) => {
  highlightEdges();
  highlightAdjacentNodes();
});
]]></script>
</svg>
