<?xml version="1.0" encoding="UTF-8" standalone="no"?>
<!DOCTYPE svg PUBLIC "-//W3C//DTD SVG 1.1//EN"
 "http://www.w3.org/Graphics/SVG/1.1/DTD/svg11.dtd">
<!-- Generated by graphviz version 2.43.0 (0)
 -->
<!-- Title: Span::SelectionManager::Select Pages: 1 -->
<svg width="664pt" height="119pt"
 viewBox="0.00 0.00 664.00 119.00" xmlns="http://www.w3.org/2000/svg" xmlns:xlink="http://www.w3.org/1999/xlink">
<g id="graph0" class="graph" transform="scale(1 1) rotate(0) translate(4 115)">
<title>Span::SelectionManager::Select</title>
<!-- Node1 -->
<g id="Node000001" class="node">
<title>Node1</title>
<g id="a_Node000001"><a xlink:title="選択リストをクリアし、指定したEntityのみを選択状態にします (Click相当)。">
<polygon fill="#999999" stroke="#666666" points="656,-68 522,-68 522,-38 656,-38 656,-68"/>
<text text-anchor="start" x="530" y="-56" font-family="Helvetica,sans-Serif" font-size="10.00">Span::SelectionManager</text>
<text text-anchor="middle" x="589" y="-45" font-family="Helvetica,sans-Serif" font-size="10.00">::Select</text>
</a>
</g>
</g>
<!-- Node2 -->
<g id="Node000002" class="node">
<title>Node2</title>
<g id="a_Node000002"><a xlink:href="classSpan_1_1HierarchyPanel.html#a331d846c46df5f3346cfc7bb8c7a8e76" target="_top" xlink:title="エンティティ上での右クリックメニューを描画します。">
<polygon fill="white" stroke="#666666" points="486,-111 366,-111 366,-81 486,-81 486,-111"/>
<text text-anchor="start" x="374" y="-99" font-family="Helvetica,sans-Serif" font-size="10.00">Span::HierarchyPanel</text>
<text text-anchor="middle" x="426" y="-88" font-family="Helvetica,sans-Serif" font-size="10.00">::DrawContextMenu</text>
</a>
</g>
</g>
<!-- Node1&#45;&gt;Node2 -->
<g id="edge1_Node000001_Node000002" class="edge">
<title>Node1&#45;&gt;Node2</title>
<g id="a_edge1_Node000001_Node000002"><a xlink:title=" ">
<path fill="none" stroke="#63b8ff" d="M521.99,-70.63C509.14,-74.06 495.78,-77.63 483.28,-80.97"/>
<polygon fill="#63b8ff" stroke="#63b8ff" points="522.93,-74 531.69,-68.04 521.13,-67.24 522.93,-74"/>
</a>
</g>
</g>
<!-- Node3 -->
<g id="Node000003" class="node">
<title>Node3</title>
<g id="a_Node000003"><a xlink:href="classSpan_1_1HierarchyPanel.html#a2c08f8c6e0cafaed96f7846d76ff2b09" target="_top" xlink:title="1つのエンティティとその子孫を再帰的に描画します。">
<polygon fill="white" stroke="#666666" points="303,-78 183,-78 183,-48 303,-48 303,-78"/>
<text text-anchor="start" x="191" y="-66" font-family="Helvetica,sans-Serif" font-size="10.00">Span::HierarchyPanel</text>
<text text-anchor="middle" x="243" y="-55" font-family="Helvetica,sans-Serif" font-size="10.00">::DrawEntityNode</text>
</a>
</g>
</g>
<!-- Node1&#45;&gt;Node3 -->
<g id="edge7_Node000001_Node000003" class="edge">
<title>Node1&#45;&gt;Node3</title>
<g id="a_edge7_Node000001_Node000003"><a xlink:title=" ">
<path fill="none" stroke="#63b8ff" d="M511.42,-55.23C448.55,-57.05 360.82,-59.6 303.23,-61.28"/>
<polygon fill="#63b8ff" stroke="#63b8ff" points="511.78,-58.72 521.67,-54.93 511.58,-51.72 511.78,-58.72"/>
</a>
</g>
</g>
<!-- Node5 -->
<g id="Node000005" class="node">
<title>Node5</title>
<g id="a_Node000005"><a xlink:href="classSpan_1_1HierarchyPanel.html#a04888145be2266ef8385e234b79ec53a" target="_top" xlink:title="何もない場所での右クリックメニュー (新規作成など) を描画します。">
<polygon fill="white" stroke="#666666" points="330,-30 156,-30 156,0 330,0 330,-30"/>
<text text-anchor="start" x="164" y="-18" font-family="Helvetica,sans-Serif" font-size="10.00">Span::HierarchyPanel</text>
<text text-anchor="middle" x="243" y="-7" font-family="Helvetica,sans-Serif" font-size="10.00">::DrawEmptySpaceContextMenu</text>
</a>
</g>
</g>
<!-- Node1&#45;&gt;Node5 -->
<g id="edge5_Node000001_Node000005" class="edge">
<title>Node1&#45;&gt;Node5</title>
<g id="a_edge5_Node000001_Node000005"><a xlink:title=" ">
<path fill="none" stroke="#63b8ff" d="M511.52,-44.55C457.76,-38.61 385.77,-30.66 330.02,-24.5"/>
<polygon fill="#63b8ff" stroke="#63b8ff" points="511.35,-48.05 521.67,-45.67 512.12,-41.1 511.35,-48.05"/>
</a>
</g>
</g>
<!-- Node2&#45;&gt;Node3 -->
<g id="edge2_Node000002_Node000003" class="edge">
<title>Node2&#45;&gt;Node3</title>
<g id="a_edge2_Node000002_Node000003"><a xlink:title=" ">
<path fill="none" stroke="#63b8ff" d="M355.67,-83.36C338.33,-80.2 319.88,-76.84 303.09,-73.77"/>
<polygon fill="#63b8ff" stroke="#63b8ff" points="355.27,-86.84 365.73,-85.19 356.52,-79.96 355.27,-86.84"/>
</a>
</g>
</g>
<!-- Node3&#45;&gt;Node3 -->
<g id="edge3_Node000003_Node000003" class="edge">
<title>Node3&#45;&gt;Node3</title>
<g id="a_edge3_Node000003_Node000003"><a xlink:title=" ">
<path fill="none" stroke="#63b8ff" d="M274.86,-88.6C270.5,-92.97 259.88,-96 243,-96 214.56,-96 203.9,-87.41 211.01,-78.28"/>
<polygon fill="#63b8ff" stroke="#63b8ff" points="278.36,-88.32 274.99,-78.28 271.36,-88.23 278.36,-88.32"/>
</a>
</g>
</g>
<!-- Node4 -->
<g id="Node000004" class="node">
<title>Node4</title>
<g id="a_Node000004"><a xlink:href="classSpan_1_1HierarchyPanel.html#a6481eb57cd9f45cb3a094a26f35bbaa0" target="_top" xlink:title="毎フレーム呼ばれる描画関数。">
<polygon fill="white" stroke="#666666" points="120,-54 0,-54 0,-24 120,-24 120,-54"/>
<text text-anchor="start" x="8" y="-42" font-family="Helvetica,sans-Serif" font-size="10.00">Span::HierarchyPanel</text>
<text text-anchor="middle" x="60" y="-31" font-family="Helvetica,sans-Serif" font-size="10.00">::OnImGuiRender</text>
</a>
</g>
</g>
<!-- Node3&#45;&gt;Node4 -->
<g id="edge4_Node000003_Node000004" class="edge">
<title>Node3&#45;&gt;Node4</title>
<g id="a_edge4_Node000003_Node000004"><a xlink:title=" ">
<path fill="none" stroke="#63b8ff" d="M172.67,-53.81C155.33,-51.51 136.88,-49.06 120.09,-46.84"/>
<polygon fill="#63b8ff" stroke="#63b8ff" points="172.36,-57.3 182.73,-55.14 173.28,-50.36 172.36,-57.3"/>
</a>
</g>
</g>
<!-- Node5&#45;&gt;Node4 -->
<g id="edge6_Node000005_Node000004" class="edge">
<title>Node5&#45;&gt;Node4</title>
<g id="a_edge6_Node000005_Node000004"><a xlink:title=" ">
<path fill="none" stroke="#63b8ff" d="M145.6,-27.78C136.96,-28.93 128.41,-30.06 120.23,-31.15"/>
<polygon fill="#63b8ff" stroke="#63b8ff" points="146.29,-31.22 155.74,-26.44 145.37,-24.28 146.29,-31.22"/>
</a>
</g>
</g>
</g>
</svg>
