<?xml version="1.0" encoding="UTF-8" standalone="no"?>
<!DOCTYPE svg PUBLIC "-//W3C//DTD SVG 1.1//EN"
 "http://www.w3.org/Graphics/SVG/1.1/DTD/svg11.dtd">
<!-- Generated by graphviz version 2.43.0 (0)
 -->
<!-- Title: Span::EditorCameraSystem::OnUpdate Pages: 1 -->
<!--zoomable 628 -->

<svg id="main" version="1.1" xmlns="http://www.w3.org/2000/svg" xmlns:xlink="http://www.w3.org/1999/xlink" xml:space="preserve" onload="init(evt)">

<style type="text/css"><![CDATA[
.node, .edge {opacity: 0.7;}
.node.selected, .edge.selected {opacity: 1;}
.edge:hover path { stroke: red; }
.edge:hover polygon { stroke: red; fill: red; }
]]></style>

<defs>
  <circle id="rim" cx="0" cy="0" r="7"/>
  <circle id="rim2" cx="0" cy="0" r="3.5"/>
  <g id="zoomPlus">
    <use xlink:href="#rim" fill="#404040"><set attributeName="fill" to="#808080" begin="zoomplus.mouseover" end="zoomplus.mouseout"/></use>
    <path d="M-4,0h8M0,-4v8" fill="none" stroke="white" stroke-width="1.5" pointer-events="none"/>
  </g>
  <g id="zoomMin">
    <use xlink:href="#rim" fill="#404040"><set attributeName="fill" to="#808080" begin="zoomminus.mouseover" end="zoomminus.mouseout"/></use>
    <path d="M-4,0h8" fill="none" stroke="white" stroke-width="1.5" pointer-events="none"/>
  </g>
  <g id="arrowUp" transform="translate(30 24)">
    <use xlink:href="#rim"/>
    <path pointer-events="none" fill="none" stroke="white" stroke-width="1.5" d="M0,-3.0v7 M-2.5,-0.5L0,-3.0L2.5,-0.5"/>
  </g>
  <g id="arrowRight" transform="rotate(90) translate(36 -43)">
    <use xlink:href="#rim"/>
    <path pointer-events="none" fill="none" stroke="white" stroke-width="1.5" d="M0,-3.0v7 M-2.5,-0.5L0,-3.0L2.5,-0.5"/>
  </g>
  <g id="arrowDown" transform="rotate(180) translate(-30 -48)">
    <use xlink:href="#rim"/>
    <path pointer-events="none" fill="none" stroke="white" stroke-width="1.5" d="M0,-3.0v7 M-2.5,-0.5L0,-3.0L2.5,-0.5"/>
  </g>
  <g id="arrowLeft" transform="rotate(270) translate(-36 17)">
    <use xlink:href="#rim"/>
    <path pointer-events="none" fill="none" stroke="white" stroke-width="1.5" d="M0,-3.0v7 M-2.5,-0.5L0,-3.0L2.5,-0.5"/>
  </g>
  <g id="resetDef">
    <use xlink:href="#rim2" fill="#404040"><set attributeName="fill" to="#808080" begin="reset.mouseover" end="reset.mouseout"/></use>
  </g>
</defs>
<script type="application/ecmascript">
var viewWidth = 999;
var viewHeight = 628;
var sectionId = 'dynsection-2';
</script>
<script type="application/ecmascript" xlink:href="svg.min.js"/>
<svg id="graph" class="graph">
<g id="viewport">
<title>Span::EditorCameraSystem::OnUpdate</title>
<!-- Node1 -->
<g id="Node000001" class="node">
<title>Node1</title>
<g id="a_Node000001"><a xlink:title="毎フレーム呼び出されます。ここにゲームロジックを記述します。">
<polygon fill="#999999" stroke="#666666" points="150,-270 0,-270 0,-240 150,-240 150,-270"/>
<text text-anchor="start" x="8" y="-258" font-family="Helvetica,sans-Serif" font-size="10.00">Span::EditorCameraSystem</text>
<text text-anchor="middle" x="75" y="-247" font-family="Helvetica,sans-Serif" font-size="10.00">::OnUpdate</text>
</a>
</g>
</g>
<!-- Node2 -->
<g id="Node000002" class="node">
<title>Node2</title>
<g id="a_Node000002"><a xlink:href="namespaceSpan.html#a8cdcfa1b4931700b369b8017666cd36a" target="_top" xlink:title="値を指定範囲に制限します">
<polygon fill="white" stroke="#666666" points="306,-523.5 228,-523.5 228,-504.5 306,-504.5 306,-523.5"/>
<text text-anchor="middle" x="267" y="-511.5" font-family="Helvetica,sans-Serif" font-size="10.00">Span::Clamp</text>
</a>
</g>
</g>
<!-- Node1&#45;&gt;Node2 -->
<g id="edge1_Node000001_Node000002" class="edge">
<title>Node1&#45;&gt;Node2</title>
<g id="a_edge1_Node000001_Node000002"><a xlink:title=" ">
<path fill="none" stroke="#63b8ff" d="M78.22,-270.26C85.28,-313.12 111.37,-435.41 186,-496 195.06,-503.36 206.52,-507.85 217.92,-510.55"/>
<polygon fill="#63b8ff" stroke="#63b8ff" points="217.37,-514.01 227.86,-512.5 218.71,-507.14 217.37,-514.01"/>
</a>
</g>
</g>
<!-- Node3 -->
<g id="Node000003" class="node">
<title>Node3</title>
<g id="a_Node000003"><a xlink:href="classSpan_1_1World.html#afd6041d6b68f1964882d1941fc0fddaf" target="_top" xlink:title="指定したコンポーネントを持つ全てのEntityに対して関数を実行します。">
<polygon fill="white" stroke="#666666" points="326.5,-486.5 207.5,-486.5 207.5,-467.5 326.5,-467.5 326.5,-486.5"/>
<text text-anchor="middle" x="267" y="-474.5" font-family="Helvetica,sans-Serif" font-size="10.00">Span::World::ForEach</text>
</a>
</g>
</g>
<!-- Node1&#45;&gt;Node3 -->
<g id="edge2_Node000001_Node000003" class="edge">
<title>Node1&#45;&gt;Node3</title>
<g id="a_edge2_Node000001_Node000003"><a xlink:title=" ">
<path fill="none" stroke="#63b8ff" d="M83.44,-270.21C99.19,-301.33 138.36,-373.41 186,-422 201.73,-438.04 222.77,-452.29 239.33,-462.27"/>
<polygon fill="#63b8ff" stroke="#63b8ff" points="237.6,-465.31 248,-467.35 241.14,-459.27 237.6,-465.31"/>
</a>
</g>
</g>
<!-- Node10 -->
<g id="Node000010" class="node">
<title>Node10</title>
<g id="a_Node000010"><a xlink:href="structSpan_1_1Quaternion.html#a6c97fc4feda68e8997cb1768689994b9" target="_top" xlink:title="オイラー角から作成">
<polygon fill="white" stroke="#666666" points="345,-412.5 189,-412.5 189,-393.5 345,-393.5 345,-412.5"/>
<text text-anchor="middle" x="267" y="-400.5" font-family="Helvetica,sans-Serif" font-size="10.00">Span::Quaternion::FromEuler</text>
</a>
</g>
</g>
<!-- Node1&#45;&gt;Node10 -->
<g id="edge9_Node000001_Node000010" class="edge">
<title>Node1&#45;&gt;Node10</title>
<g id="a_edge9_Node000001_Node000010"><a xlink:title=" ">
<path fill="none" stroke="#63b8ff" d="M84.33,-270.23C100.25,-297.77 137.71,-355.73 186,-385 188.8,-386.7 191.74,-388.23 194.78,-389.63"/>
<polygon fill="#63b8ff" stroke="#63b8ff" points="193.54,-392.9 204.13,-393.39 196.15,-386.41 193.54,-392.9"/>
</a>
</g>
</g>
<!-- Node13 -->
<g id="Node000013" class="node">
<title>Node13</title>
<g id="a_Node000013"><a xlink:href="classSpan_1_1Application.html#ae2e9eaebe90ffdf55cfef9d74ccbce3e" target="_top" xlink:title="シングルトンインスタンスの取得">
<polygon fill="white" stroke="#666666" points="329.5,-375.5 204.5,-375.5 204.5,-356.5 329.5,-356.5 329.5,-375.5"/>
<text text-anchor="middle" x="267" y="-363.5" font-family="Helvetica,sans-Serif" font-size="10.00">Span::Application::Get</text>
</a>
</g>
</g>
<!-- Node1&#45;&gt;Node13 -->
<g id="edge12_Node000001_Node000013" class="edge">
<title>Node1&#45;&gt;Node13</title>
<g id="a_edge12_Node000001_Node000013"><a xlink:title=" ">
<path fill="none" stroke="#63b8ff" d="M89.31,-270.12C108.53,-290.96 146.14,-328.18 186,-348 189.98,-349.98 194.18,-351.74 198.48,-353.32"/>
<polygon fill="#63b8ff" stroke="#63b8ff" points="197.44,-356.66 208.03,-356.46 199.63,-350.01 197.44,-356.66"/>
</a>
</g>
</g>
<!-- Node23 -->
<g id="Node000023" class="node">
<title>Node23</title>
<g id="a_Node000023"><a xlink:href="classSpan_1_1Time.html#a5932270bec9773ce9ba84e08c075b15b" target="_top" xlink:title="前のフレームからの経過時間 (秒) を取得します。">
<polygon fill="white" stroke="#666666" points="340,-338.5 194,-338.5 194,-319.5 340,-319.5 340,-338.5"/>
<text text-anchor="middle" x="267" y="-326.5" font-family="Helvetica,sans-Serif" font-size="10.00">Span::Time::GetDeltaTime</text>
</a>
</g>
</g>
<!-- Node1&#45;&gt;Node23 -->
<g id="edge23_Node000001_Node000023" class="edge">
<title>Node1&#45;&gt;Node23</title>
<g id="a_edge23_Node000001_Node000023"><a xlink:title=" ">
<path fill="none" stroke="#63b8ff" d="M101.41,-270.24C123.19,-282.74 155.76,-300.1 186,-311 191.98,-313.16 198.3,-315.11 204.67,-316.86"/>
<polygon fill="#63b8ff" stroke="#63b8ff" points="204.11,-320.33 214.67,-319.45 205.87,-313.55 204.11,-320.33"/>
</a>
</g>
</g>
<!-- Node24 -->
<g id="Node000024" class="node">
<title>Node24</title>
<g id="a_Node000024"><a xlink:href="classSpan_1_1Input.html#a86ffd3759273c0529fff0dd511d7b065" target="_top" xlink:title="指定したキーが現在押されているか">
<polygon fill="white" stroke="#666666" points="323.5,-301.5 210.5,-301.5 210.5,-282.5 323.5,-282.5 323.5,-301.5"/>
<text text-anchor="middle" x="267" y="-289.5" font-family="Helvetica,sans-Serif" font-size="10.00">Span::Input::GetKey</text>
</a>
</g>
</g>
<!-- Node1&#45;&gt;Node24 -->
<g id="edge24_Node000001_Node000024" class="edge">
<title>Node1&#45;&gt;Node24</title>
<g id="a_edge24_Node000001_Node000024"><a xlink:title=" ">
<path fill="none" stroke="#63b8ff" d="M150,-269.41C168.99,-273.11 189.16,-277.04 207.26,-280.56"/>
<polygon fill="#63b8ff" stroke="#63b8ff" points="206.6,-284 217.09,-282.47 207.94,-277.13 206.6,-284"/>
</a>
</g>
</g>
<!-- Node25 -->
<g id="Node000025" class="node">
<title>Node25</title>
<g id="a_Node000025"><a xlink:href="classSpan_1_1Input.html#a7cdc088270bb1c60b293360efccc7389" target="_top" xlink:title="マウスの移動量を取得します。">
<polygon fill="white" stroke="#666666" points="343.5,-264.5 190.5,-264.5 190.5,-245.5 343.5,-245.5 343.5,-264.5"/>
<text text-anchor="middle" x="267" y="-252.5" font-family="Helvetica,sans-Serif" font-size="10.00">Span::Input::GetMouseDelta</text>
</a>
</g>
</g>
<!-- Node1&#45;&gt;Node25 -->
<g id="edge25_Node000001_Node000025" class="edge">
<title>Node1&#45;&gt;Node25</title>
<g id="a_edge25_Node000001_Node000025"><a xlink:title=" ">
<path fill="none" stroke="#63b8ff" d="M150,-255C159.93,-255 170.17,-255 180.28,-255"/>
<polygon fill="#63b8ff" stroke="#63b8ff" points="180.32,-258.5 190.32,-255 180.32,-251.5 180.32,-258.5"/>
</a>
</g>
</g>
<!-- Node26 -->
<g id="Node000026" class="node">
<title>Node26</title>
<g id="a_Node000026"><a xlink:href="classSpan_1_1Application.html#a42e065e188c6e225983aad97d576865c" target="_top" xlink:title=" ">
<polygon fill="white" stroke="#666666" points="320.5,-227 213.5,-227 213.5,-197 320.5,-197 320.5,-227"/>
<text text-anchor="start" x="221.5" y="-215" font-family="Helvetica,sans-Serif" font-size="10.00">Span::Application::</text>
<text text-anchor="middle" x="267" y="-204" font-family="Helvetica,sans-Serif" font-size="10.00">GetWorld</text>
</a>
</g>
</g>
<!-- Node1&#45;&gt;Node26 -->
<g id="edge26_Node000001_Node000026" class="edge">
<title>Node1&#45;&gt;Node26</title>
<g id="a_edge26_Node000001_Node000026"><a xlink:title=" ">
<path fill="none" stroke="#63b8ff" d="M142.45,-239.96C162.23,-235.49 183.82,-230.6 203.35,-226.18"/>
<polygon fill="#63b8ff" stroke="#63b8ff" points="204.37,-229.54 213.35,-223.92 202.82,-222.71 204.37,-229.54"/>
</a>
</g>
</g>
<!-- Node27 -->
<g id="Node000027" class="node">
<title>Node27</title>
<g id="a_Node000027"><a xlink:href="structSpan_1_1Vector3.html#a7c3f0c2ea10d0780a50fdb7e1a5dffee" target="_top" xlink:title="ベクトルの長さの二乗 (Squared Magnitude)">
<polygon fill="white" stroke="#666666" points="348,-178.5 186,-178.5 186,-159.5 348,-159.5 348,-178.5"/>
<text text-anchor="middle" x="267" y="-166.5" font-family="Helvetica,sans-Serif" font-size="10.00">Span::Vector3::LengthSquared</text>
</a>
</g>
</g>
<!-- Node1&#45;&gt;Node27 -->
<g id="edge27_Node000001_Node000027" class="edge">
<title>Node1&#45;&gt;Node27</title>
<g id="a_edge27_Node000001_Node000027"><a xlink:title=" ">
<path fill="none" stroke="#63b8ff" d="M96.45,-239.82C117.78,-224.66 152.7,-201.69 186,-188 192.12,-185.48 198.65,-183.25 205.23,-181.29"/>
<polygon fill="#63b8ff" stroke="#63b8ff" points="206.19,-184.66 214.88,-178.61 204.31,-177.92 206.19,-184.66"/>
</a>
</g>
</g>
<!-- Node28 -->
<g id="Node000028" class="node">
<title>Node28</title>
<g id="a_Node000028"><a xlink:href="structSpan_1_1Vector3.html#a636702ff63ba665c96251f818180e173" target="_top" xlink:title="ベクトルの長さ (Magnitude)">
<polygon fill="white" stroke="#666666" points="322,-104.5 212,-104.5 212,-85.5 322,-85.5 322,-104.5"/>
<text text-anchor="middle" x="267" y="-92.5" font-family="Helvetica,sans-Serif" font-size="10.00">Span::Vector3::Lerp</text>
</a>
</g>
</g>
<!-- Node1&#45;&gt;Node28 -->
<g id="edge28_Node000001_Node000028" class="edge">
<title>Node1&#45;&gt;Node28</title>
<g id="a_edge28_Node000001_Node000028"><a xlink:title=" ">
<path fill="none" stroke="#63b8ff" d="M83.31,-239.92C98.28,-210.74 135.31,-146.54 186,-114 191,-110.79 196.49,-108.12 202.18,-105.9"/>
<polygon fill="#63b8ff" stroke="#63b8ff" points="203.57,-109.13 211.89,-102.58 201.3,-102.5 203.57,-109.13"/>
</a>
</g>
</g>
<!-- Node32 -->
<g id="Node000032" class="node">
<title>Node32</title>
<g id="a_Node000032"><a xlink:href="structSpan_1_1Vector3.html#aabe270fd26b1d874df94a455faef13c5" target="_top" xlink:title="正規化ベクトルを返します (SIMD高速化版)">
<polygon fill="white" stroke="#666666" points="340,-141.5 194,-141.5 194,-122.5 340,-122.5 340,-141.5"/>
<text text-anchor="middle" x="267" y="-129.5" font-family="Helvetica,sans-Serif" font-size="10.00">Span::Vector3::Normalized</text>
</a>
</g>
</g>
<!-- Node1&#45;&gt;Node32 -->
<g id="edge32_Node000001_Node000032" class="edge">
<title>Node1&#45;&gt;Node32</title>
<g id="a_edge32_Node000001_Node000032"><a xlink:title=" ">
<path fill="none" stroke="#63b8ff" d="M87.71,-239.65C106.07,-216.71 143.92,-173.73 186,-151 190.25,-148.7 194.78,-146.68 199.43,-144.9"/>
<polygon fill="#63b8ff" stroke="#63b8ff" points="200.79,-148.14 209.11,-141.58 198.52,-141.52 200.79,-148.14"/>
</a>
</g>
</g>
<!-- Node33 -->
<g id="Node000033" class="node">
<title>Node33</title>
<g id="a_Node000033"><a xlink:href="classSpan_1_1Input.html#a75f0d20b7698590ef556a266974199d5" target="_top" xlink:title="カーソルを画面中央にロックし、非表示にします (FPS視点用)">
<polygon fill="white" stroke="#666666" points="340.5,-67.5 193.5,-67.5 193.5,-48.5 340.5,-48.5 340.5,-67.5"/>
<text text-anchor="middle" x="267" y="-55.5" font-family="Helvetica,sans-Serif" font-size="10.00">Span::Input::SetLockCursor</text>
</a>
</g>
</g>
<!-- Node1&#45;&gt;Node33 -->
<g id="edge36_Node000001_Node000033" class="edge">
<title>Node1&#45;&gt;Node33</title>
<g id="a_edge36_Node000001_Node000033"><a xlink:title=" ">
<path fill="none" stroke="#63b8ff" d="M80.85,-239.8C92.75,-205.09 126.79,-119.74 186,-77 188.66,-75.08 191.49,-73.35 194.44,-71.79"/>
<polygon fill="#63b8ff" stroke="#63b8ff" points="195.93,-74.96 203.57,-67.62 193.02,-68.59 195.93,-74.96"/>
</a>
</g>
</g>
<!-- Node36 -->
<g id="Node000036" class="node">
<title>Node36</title>
<g id="a_Node000036"><a xlink:href="namespaceSpan.html#a2e4930a806963e7ab8c6c60031c41fe8" target="_top" xlink:title="度数法(Degree) を 弧度法(Radian) に変換">
<polygon fill="white" stroke="#666666" points="315,-30.5 219,-30.5 219,-11.5 315,-11.5 315,-30.5"/>
<text text-anchor="middle" x="267" y="-18.5" font-family="Helvetica,sans-Serif" font-size="10.00">Span::ToRadians</text>
</a>
</g>
</g>
<!-- Node1&#45;&gt;Node36 -->
<g id="edge39_Node000001_Node000036" class="edge">
<title>Node1&#45;&gt;Node36</title>
<g id="a_edge39_Node000001_Node000036"><a xlink:title=" ">
<path fill="none" stroke="#63b8ff" d="M79.11,-239.99C88.09,-200.57 117.9,-93.46 186,-40 192.78,-34.68 200.81,-30.81 209.13,-28.01"/>
<polygon fill="#63b8ff" stroke="#63b8ff" points="210.32,-31.3 218.96,-25.18 208.38,-24.58 210.32,-31.3"/>
</a>
</g>
</g>
<!-- Node4 -->
<g id="Node000004" class="node">
<title>Node4</title>
<g id="a_Node000004"><a xlink:href="classSpan_1_1Archetype.html#aa2e946edc196fefbef2969c9f6092479" target="_top" xlink:title="このアーキタイプが管理している全チャンクのリスト">
<polygon fill="white" stroke="#666666" points="559,-449.5 404,-449.5 404,-430.5 559,-430.5 559,-449.5"/>
<text text-anchor="middle" x="481.5" y="-437.5" font-family="Helvetica,sans-Serif" font-size="10.00">Span::Archetype::GetChunks</text>
</a>
</g>
</g>
<!-- Node3&#45;&gt;Node4 -->
<g id="edge3_Node000003_Node000004" class="edge">
<title>Node3&#45;&gt;Node4</title>
<g id="a_edge3_Node000003_Node000004"><a xlink:title=" ">
<path fill="none" stroke="#63b8ff" d="M322.72,-467.47C351.12,-462.53 385.99,-456.46 415.72,-451.28"/>
<polygon fill="#63b8ff" stroke="#63b8ff" points="416.34,-454.72 425.59,-449.56 415.14,-447.83 416.34,-454.72"/>
</a>
</g>
</g>
<!-- Node5 -->
<g id="Node000005" class="node">
<title>Node5</title>
<g id="a_Node000005"><a xlink:href="classSpan_1_1Archetype.html#ace55105d4678c95251e7c66ff00846d1" target="_top" xlink:title="コンポーネント配列の「チャンク内オフセット」を取得します。">
<polygon fill="white" stroke="#666666" points="569.5,-620 393.5,-620 393.5,-590 569.5,-590 569.5,-620"/>
<text text-anchor="start" x="401.5" y="-608" font-family="Helvetica,sans-Serif" font-size="10.00">Span::Archetype::GetComponent</text>
<text text-anchor="middle" x="481.5" y="-597" font-family="Helvetica,sans-Serif" font-size="10.00">Offset</text>
</a>
</g>
</g>
<!-- Node3&#45;&gt;Node5 -->
<g id="edge4_Node000003_Node000005" class="edge">
<title>Node3&#45;&gt;Node5</title>
<g id="a_edge4_Node000003_Node000005"><a xlink:title=" ">
<path fill="none" stroke="#63b8ff" d="M326.6,-484.07C334.37,-486.89 341.79,-490.75 348,-496 379.33,-522.48 352.81,-554.35 384,-581 385.35,-582.16 386.75,-583.26 388.2,-584.31"/>
<polygon fill="#63b8ff" stroke="#63b8ff" points="386.55,-587.41 396.87,-589.78 390.28,-581.48 386.55,-587.41"/>
</a>
</g>
</g>
<!-- Node6 -->
<g id="Node000006" class="node">
<title>Node6</title>
<g id="a_Node000006"><a xlink:href="classSpan_1_1ComponentType.html#aa561932b92eabbe74390cb7b0cef0de6" target="_top" xlink:title="型 T に対応する一意のIDを取得します。">
<polygon fill="white" stroke="#666666" points="544,-572 419,-572 419,-542 544,-542 544,-572"/>
<text text-anchor="start" x="427" y="-560" font-family="Helvetica,sans-Serif" font-size="10.00">Span::ComponentType</text>
<text text-anchor="middle" x="481.5" y="-549" font-family="Helvetica,sans-Serif" font-size="10.00">::GetID</text>
</a>
</g>
</g>
<!-- Node3&#45;&gt;Node6 -->
<g id="edge5_Node000003_Node000006" class="edge">
<title>Node3&#45;&gt;Node6</title>
<g id="a_edge5_Node000003_Node000006"><a xlink:title=" ">
<path fill="none" stroke="#63b8ff" d="M325.88,-486.58C333.58,-489.04 341.17,-492.13 348,-496 367.95,-507.32 364.11,-521.57 384,-533 391.81,-537.48 400.43,-541.14 409.23,-544.11"/>
<polygon fill="#63b8ff" stroke="#63b8ff" points="408.21,-547.46 418.8,-547.08 410.29,-540.78 408.21,-547.46"/>
</a>
</g>
</g>
<!-- Node7 -->
<g id="Node000007" class="node">
<title>Node7</title>
<g id="a_Node000007"><a xlink:href="classSpan_1_1Archetype.html#ab576f4f851319859304bfa1fc1ada7ed" target="_top" xlink:title="要求された全てのコンポーネントを持っているか確認します。">
<polygon fill="white" stroke="#666666" points="579,-523.5 384,-523.5 384,-504.5 579,-504.5 579,-523.5"/>
<text text-anchor="middle" x="481.5" y="-511.5" font-family="Helvetica,sans-Serif" font-size="10.00">Span::Archetype::HasAllComponents</text>
</a>
</g>
</g>
<!-- Node3&#45;&gt;Node7 -->
<g id="edge6_Node000003_Node000007" class="edge">
<title>Node3&#45;&gt;Node7</title>
<g id="a_edge6_Node000003_Node000007"><a xlink:title=" ">
<path fill="none" stroke="#63b8ff" d="M322.72,-486.53C351.12,-491.47 385.99,-497.54 415.72,-502.72"/>
<polygon fill="#63b8ff" stroke="#63b8ff" points="415.14,-506.17 425.59,-504.44 416.34,-499.28 415.14,-506.17"/>
</a>
</g>
</g>
<!-- Node8 -->
<g id="Node000008" class="node">
<title>Node8</title>
<g id="a_Node000008"><a xlink:href="classSpan_1_1World.html#af5701baf0c3d17c6cc72333001c9def1" target="_top" xlink:title=" ">
<polygon fill="white" stroke="#666666" points="556,-486.5 407,-486.5 407,-467.5 556,-467.5 556,-486.5"/>
<text text-anchor="middle" x="481.5" y="-474.5" font-family="Helvetica,sans-Serif" font-size="10.00">Span::World::ProcessChunk</text>
</a>
</g>
</g>
<!-- Node3&#45;&gt;Node8 -->
<g id="edge7_Node000003_Node000008" class="edge">
<title>Node3&#45;&gt;Node8</title>
<g id="a_edge7_Node000003_Node000008"><a xlink:title=" ">
<path fill="none" stroke="#63b8ff" d="M326.63,-477C348.25,-477 373.18,-477 396.59,-477"/>
<polygon fill="#63b8ff" stroke="#63b8ff" points="396.87,-480.5 406.87,-477 396.87,-473.5 396.87,-480.5"/>
</a>
</g>
</g>
<!-- Node9 -->
<g id="Node000009" class="node">
<title>Node9</title>
<g id="a_Node000009"><a xlink:href="classSpan_1_1World.html#abf57371dde3a4dcdc84fae0acb3bf88f" target="_top" xlink:title=" ">
<polygon fill="white" stroke="#666666" points="791,-486.5 615,-486.5 615,-467.5 791,-467.5 791,-486.5"/>
<text text-anchor="middle" x="703" y="-474.5" font-family="Helvetica,sans-Serif" font-size="10.00">Span::World::ProcessChunk_Impl</text>
</a>
</g>
</g>
<!-- Node8&#45;&gt;Node9 -->
<g id="edge8_Node000008_Node000009" class="edge">
<title>Node8&#45;&gt;Node9</title>
<g id="a_edge8_Node000008_Node000009"><a xlink:title=" ">
<path fill="none" stroke="#63b8ff" d="M556.2,-477C571.77,-477 588.44,-477 604.73,-477"/>
<polygon fill="#63b8ff" stroke="#63b8ff" points="604.81,-480.5 614.81,-477 604.81,-473.5 604.81,-480.5"/>
</a>
</g>
</g>
<!-- Node11 -->
<g id="Node000011" class="node">
<title>Node11</title>
<g id="a_Node000011"><a xlink:href="structSpan_1_1Quaternion.html#a93b63ae6c847e74c6d425dfda81b8dd2" target="_top" xlink:title=" ">
<polygon fill="white" stroke="#666666" points="555,-375.5 408,-375.5 408,-356.5 555,-356.5 555,-375.5"/>
<text text-anchor="middle" x="481.5" y="-363.5" font-family="Helvetica,sans-Serif" font-size="10.00">Span::Quaternion::FromXM</text>
</a>
</g>
</g>
<!-- Node10&#45;&gt;Node11 -->
<g id="edge10_Node000010_Node000011" class="edge">
<title>Node10&#45;&gt;Node11</title>
<g id="a_edge10_Node000010_Node000011"><a xlink:title=" ">
<path fill="none" stroke="#63b8ff" d="M322.72,-393.47C351.12,-388.53 385.99,-382.46 415.72,-377.28"/>
<polygon fill="#63b8ff" stroke="#63b8ff" points="416.34,-380.72 425.59,-375.56 415.14,-373.83 416.34,-380.72"/>
</a>
</g>
</g>
<!-- Node12 -->
<g id="Node000012" class="node">
<title>Node12</title>
<g id="a_Node000012"><a xlink:href="structSpan_1_1Quaternion.html#af2cdd440ffc8c055ff354b0199b522d1" target="_top" xlink:title=" ">
<polygon fill="white" stroke="#666666" points="562,-412.5 401,-412.5 401,-393.5 562,-393.5 562,-412.5"/>
<text text-anchor="middle" x="481.5" y="-400.5" font-family="Helvetica,sans-Serif" font-size="10.00">Span::Quaternion::Quaternion</text>
</a>
</g>
</g>
<!-- Node10&#45;&gt;Node12 -->
<g id="edge11_Node000010_Node000012" class="edge">
<title>Node10&#45;&gt;Node12</title>
<g id="a_edge11_Node000010_Node000012"><a xlink:title=" ">
<path fill="none" stroke="#63b8ff" d="M345.02,-403C359.78,-403 375.37,-403 390.5,-403"/>
<polygon fill="#63b8ff" stroke="#63b8ff" points="390.89,-406.5 400.89,-403 390.89,-399.5 390.89,-406.5"/>
</a>
</g>
</g>
<!-- Node14 -->
<g id="Node000014" class="node">
<title>Node14</title>
<g id="a_Node000014"><a xlink:href="classSpan_1_1Application.html#a0c44e973ca5db1d23a02a2cee66f5c11" target="_top" xlink:title=" ">
<polygon fill="white" stroke="#666666" points="535,-338 428,-338 428,-308 535,-308 535,-338"/>
<text text-anchor="start" x="436" y="-326" font-family="Helvetica,sans-Serif" font-size="10.00">Span::Application::</text>
<text text-anchor="middle" x="481.5" y="-315" font-family="Helvetica,sans-Serif" font-size="10.00">Application</text>
</a>
</g>
</g>
<!-- Node13&#45;&gt;Node14 -->
<g id="edge13_Node000013_Node000014" class="edge">
<title>Node13&#45;&gt;Node14</title>
<g id="a_edge13_Node000013_Node000014"><a xlink:title=" ">
<path fill="none" stroke="#63b8ff" d="M315.16,-356.46C345.41,-350.34 385.03,-342.32 417.91,-335.67"/>
<polygon fill="#63b8ff" stroke="#63b8ff" points="418.77,-339.06 427.87,-333.65 417.38,-332.2 418.77,-339.06"/>
</a>
</g>
</g>
<!-- Node15 -->
<g id="Node000015" class="node">
<title>Node15</title>
<g id="a_Node000015"><a xlink:href="namespaceSpan.html#a3f4b8561d46e69596ba6a7c3177a92e7" target="_top" xlink:title=" ">
<polygon fill="white" stroke="#666666" points="773.5,-275.5 632.5,-275.5 632.5,-256.5 773.5,-256.5 773.5,-275.5"/>
<text text-anchor="middle" x="703" y="-263.5" font-family="Helvetica,sans-Serif" font-size="10.00">Span::ConsoleCtrlHandler</text>
</a>
</g>
</g>
<!-- Node14&#45;&gt;Node15 -->
<g id="edge14_Node000014_Node000015" class="edge">
<title>Node14&#45;&gt;Node15</title>
<g id="a_edge14_Node000014_Node000015"><a xlink:title=" ">
<path fill="none" stroke="#63b8ff" d="M535.08,-309.35C571.67,-299.84 620.03,-287.29 655.27,-278.13"/>
<polygon fill="#63b8ff" stroke="#63b8ff" points="656.5,-281.43 665.3,-275.53 654.74,-274.66 656.5,-281.43"/>
</a>
</g>
</g>
<!-- Node17 -->
<g id="Node000017" class="node">
<title>Node17</title>
<g id="a_Node000017"><a xlink:href="classSpan_1_1GuiManager.html#ab78e1a284f6d5aced7912c00ab43c559" target="_top" xlink:title="ImGuiコンテキストとバックエンドを初期化します。">
<polygon fill="white" stroke="#666666" points="780,-238.5 626,-238.5 626,-219.5 780,-219.5 780,-238.5"/>
<text text-anchor="middle" x="703" y="-226.5" font-family="Helvetica,sans-Serif" font-size="10.00">Span::GuiManager::Initialize</text>
</a>
</g>
</g>
<!-- Node14&#45;&gt;Node17 -->
<g id="edge17_Node000014_Node000017" class="edge">
<title>Node14&#45;&gt;Node17</title>
<g id="a_edge17_Node000014_Node000017"><a xlink:title=" ">
<path fill="none" stroke="#63b8ff" d="M504.46,-307.82C529.94,-290.87 573.77,-263.76 615,-248 621.93,-245.35 629.32,-243.03 636.75,-241"/>
<polygon fill="#63b8ff" stroke="#63b8ff" points="637.68,-244.38 646.5,-238.51 635.95,-237.59 637.68,-244.38"/>
</a>
</g>
</g>
<!-- Node20 -->
<g id="Node000020" class="node">
<title>Node20</title>
<g id="a_Node000020"><a xlink:href="classSpan_1_1Input.html#aac6e8f1cf694b484ed01742f2d16d63c" target="_top" xlink:title=" ">
<polygon fill="white" stroke="#666666" points="762.5,-425.5 643.5,-425.5 643.5,-406.5 762.5,-406.5 762.5,-425.5"/>
<text text-anchor="middle" x="703" y="-413.5" font-family="Helvetica,sans-Serif" font-size="10.00">Span::Input::Initialize</text>
</a>
</g>
</g>
<!-- Node14&#45;&gt;Node20 -->
<g id="edge20_Node000014_Node000020" class="edge">
<title>Node14&#45;&gt;Node20</title>
<g id="a_edge20_Node000014_Node000020"><a xlink:title=" ">
<path fill="none" stroke="#63b8ff" d="M535.14,-329.75C550.23,-333.44 566.07,-339.15 579,-348 601.6,-363.46 592.03,-383.1 615,-398 620.74,-401.72 627.1,-404.69 633.69,-407.07"/>
<polygon fill="#63b8ff" stroke="#63b8ff" points="632.89,-410.48 643.48,-410.13 634.98,-403.8 632.89,-410.48"/>
</a>
</g>
</g>
<!-- Node21 -->
<g id="Node000021" class="node">
<title>Node21</title>
<g id="a_Node000021"><a xlink:href="classSpan_1_1Logger.html#a557d77ccfa31551817d7b28d985866c8" target="_top" xlink:title="ロガーを初期化し、ログファイルを開きます。">
<polygon fill="white" stroke="#666666" points="767,-388.5 639,-388.5 639,-369.5 767,-369.5 767,-388.5"/>
<text text-anchor="middle" x="703" y="-376.5" font-family="Helvetica,sans-Serif" font-size="10.00">Span::Logger::Initialize</text>
</a>
</g>
</g>
<!-- Node14&#45;&gt;Node21 -->
<g id="edge21_Node000014_Node000021" class="edge">
<title>Node14&#45;&gt;Node21</title>
<g id="a_edge21_Node000014_Node000021"><a xlink:title=" ">
<path fill="none" stroke="#63b8ff" d="M535.09,-335.68C549.41,-339.39 564.86,-343.63 579,-348 595.25,-353.03 598.63,-356.38 615,-361 623,-363.26 631.49,-365.37 639.91,-367.28"/>
<polygon fill="#63b8ff" stroke="#63b8ff" points="639.2,-370.71 649.72,-369.45 640.71,-363.88 639.2,-370.71"/>
</a>
</g>
</g>
<!-- Node22 -->
<g id="Node000022" class="node">
<title>Node22</title>
<g id="a_Node000022"><a xlink:href="classSpan_1_1Time.html#ae9e018cd0d5a3b34b773e80c750860e7" target="_top" xlink:title="初期化（エンジン起動時）">
<polygon fill="white" stroke="#666666" points="762.5,-351.5 643.5,-351.5 643.5,-332.5 762.5,-332.5 762.5,-351.5"/>
<text text-anchor="middle" x="703" y="-339.5" font-family="Helvetica,sans-Serif" font-size="10.00">Span::Time::Initialize</text>
</a>
</g>
</g>
<!-- Node14&#45;&gt;Node22 -->
<g id="edge22_Node000014_Node000022" class="edge">
<title>Node14&#45;&gt;Node22</title>
<g id="a_edge22_Node000014_Node000022"><a xlink:title=" ">
<path fill="none" stroke="#63b8ff" d="M535.08,-327.55C564.49,-330.1 601.5,-333.3 633.2,-336.04"/>
<polygon fill="#63b8ff" stroke="#63b8ff" points="633.02,-339.54 643.28,-336.92 633.62,-332.57 633.02,-339.54"/>
</a>
</g>
</g>
<!-- Node16 -->
<g id="Node000016" class="node">
<title>Node16</title>
<g id="a_Node000016"><a xlink:href="classSpan_1_1Application.html#a095598d0c2e753bfb8d00acee435980f" target="_top" xlink:title="シングルトンインスタンスのポインタ取得 (存在チェック用)">
<polygon fill="white" stroke="#666666" points="969.5,-303.5 848.5,-303.5 848.5,-284.5 969.5,-284.5 969.5,-303.5"/>
<text text-anchor="middle" x="909" y="-291.5" font-family="Helvetica,sans-Serif" font-size="10.00">Span::Application::Ptr</text>
</a>
</g>
</g>
<!-- Node15&#45;&gt;Node16 -->
<g id="edge15_Node000015_Node000016" class="edge">
<title>Node15&#45;&gt;Node16</title>
<g id="a_edge15_Node000015_Node000016"><a xlink:title=" ">
<path fill="none" stroke="#63b8ff" d="M773.35,-275.52C794.29,-278.39 817.29,-281.55 838.26,-284.43"/>
<polygon fill="#63b8ff" stroke="#63b8ff" points="837.99,-287.92 848.38,-285.82 838.94,-280.99 837.99,-287.92"/>
</a>
</g>
</g>
<!-- Node16&#45;&gt;Node14 -->
<g id="edge16_Node000016_Node000014" class="edge">
<title>Node16&#45;&gt;Node14</title>
<g id="a_edge16_Node000016_Node000014"><a xlink:title=" ">
<path fill="none" stroke="#63b8ff" d="M848.34,-298.07C768.3,-303.52 626.81,-313.16 545.23,-318.72"/>
<polygon fill="#63b8ff" stroke="#63b8ff" points="544.84,-315.24 535.1,-319.41 545.32,-322.23 544.84,-315.24"/>
</a>
</g>
</g>
<!-- Node18 -->
<g id="Node000018" class="node">
<title>Node18</title>
<g id="a_Node000018"><a xlink:href="classSpan_1_1GuiManager.html#a79fd10d93a58b741c10bd8c8477afc0a" target="_top" xlink:title="管理対象のエディタパネルを追加します。">
<polygon fill="white" stroke="#666666" points="987.5,-220.5 830.5,-220.5 830.5,-201.5 987.5,-201.5 987.5,-220.5"/>
<text text-anchor="middle" x="909" y="-208.5" font-family="Helvetica,sans-Serif" font-size="10.00">Span::GuiManager::AddPanel</text>
</a>
</g>
</g>
<!-- Node17&#45;&gt;Node18 -->
<g id="edge18_Node000017_Node000018" class="edge">
<title>Node17&#45;&gt;Node18</title>
<g id="a_edge18_Node000017_Node000018"><a xlink:title=" ">
<path fill="none" stroke="#63b8ff" d="M780.25,-222.27C793.33,-221.12 807.01,-219.91 820.36,-218.73"/>
<polygon fill="#63b8ff" stroke="#63b8ff" points="820.83,-222.21 830.48,-217.84 820.21,-215.23 820.83,-222.21"/>
</a>
</g>
</g>
<!-- Node19 -->
<g id="Node000019" class="node">
<title>Node19</title>
<g id="a_Node000019"><a xlink:href="classSpan_1_1GuiManager.html#ad8ff21c11b12bff5ee5b454a4dae33d0" target="_top" xlink:title="フォントや配色などのスタイル設定を適用します。">
<polygon fill="white" stroke="#666666" points="991,-257.5 827,-257.5 827,-238.5 991,-238.5 991,-257.5"/>
<text text-anchor="middle" x="909" y="-245.5" font-family="Helvetica,sans-Serif" font-size="10.00">Span::GuiManager::ApplyStyle</text>
</a>
</g>
</g>
<!-- Node17&#45;&gt;Node19 -->
<g id="edge19_Node000017_Node000019" class="edge">
<title>Node17&#45;&gt;Node19</title>
<g id="a_edge19_Node000017_Node000019"><a xlink:title=" ">
<path fill="none" stroke="#63b8ff" d="M780.25,-236.1C792.1,-237.21 804.44,-238.35 816.58,-239.49"/>
<polygon fill="#63b8ff" stroke="#63b8ff" points="816.44,-242.99 826.72,-240.43 817.09,-236.02 816.44,-242.99"/>
</a>
</g>
</g>
<!-- Node29 -->
<g id="Node000029" class="node">
<title>Node29</title>
<g id="a_Node000029"><a xlink:href="structSpan_1_1Vector3.html#a12f90de75907473c90edf3495c97d9f0" target="_top" xlink:title=" ">
<polygon fill="white" stroke="#666666" points="546.5,-178.5 416.5,-178.5 416.5,-159.5 546.5,-159.5 546.5,-178.5"/>
<text text-anchor="middle" x="481.5" y="-166.5" font-family="Helvetica,sans-Serif" font-size="10.00">Span::Vector3::FromXM</text>
</a>
</g>
</g>
<!-- Node28&#45;&gt;Node29 -->
<g id="edge29_Node000028_Node000029" class="edge">
<title>Node28&#45;&gt;Node29</title>
<g id="a_edge29_Node000028_Node000029"><a xlink:title=" ">
<path fill="none" stroke="#63b8ff" d="M322.09,-103.42C331.08,-106.05 340.05,-109.49 348,-114 367.95,-125.32 363.77,-140.17 384,-151 391.05,-154.78 398.76,-157.77 406.64,-160.15"/>
<polygon fill="#63b8ff" stroke="#63b8ff" points="405.75,-163.53 416.32,-162.75 407.57,-156.77 405.75,-163.53"/>
</a>
</g>
</g>
<!-- Node30 -->
<g id="Node000030" class="node">
<title>Node30</title>
<g id="a_Node000030"><a xlink:href="structSpan_1_1Vector3.html#a3f30a6301de9087ae83240d2ac0ee1c7" target="_top" xlink:title=" ">
<polygon fill="white" stroke="#666666" points="539.5,-141.5 423.5,-141.5 423.5,-122.5 539.5,-122.5 539.5,-141.5"/>
<text text-anchor="middle" x="481.5" y="-129.5" font-family="Helvetica,sans-Serif" font-size="10.00">Span::Vector3::ToXM</text>
</a>
</g>
</g>
<!-- Node28&#45;&gt;Node30 -->
<g id="edge30_Node000028_Node000030" class="edge">
<title>Node28&#45;&gt;Node30</title>
<g id="a_edge30_Node000028_Node000030"><a xlink:title=" ">
<path fill="none" stroke="#63b8ff" d="M322.17,-104.43C350.68,-109.4 385.82,-115.51 415.75,-120.73"/>
<polygon fill="#63b8ff" stroke="#63b8ff" points="415.24,-124.19 425.69,-122.46 416.44,-117.29 415.24,-124.19"/>
</a>
</g>
</g>
<!-- Node31 -->
<g id="Node000031" class="node">
<title>Node31</title>
<g id="a_Node000031"><a xlink:href="structSpan_1_1Vector3.html#a5b73d20c05747047ff35465dd3af4634" target="_top" xlink:title=" ">
<polygon fill="white" stroke="#666666" points="544.5,-104.5 418.5,-104.5 418.5,-85.5 544.5,-85.5 544.5,-104.5"/>
<text text-anchor="middle" x="481.5" y="-92.5" font-family="Helvetica,sans-Serif" font-size="10.00">Span::Vector3::Vector3</text>
</a>
</g>
</g>
<!-- Node28&#45;&gt;Node31 -->
<g id="edge31_Node000028_Node000031" class="edge">
<title>Node28&#45;&gt;Node31</title>
<g id="a_edge31_Node000028_Node000031"><a xlink:title=" ">
<path fill="none" stroke="#63b8ff" d="M322.17,-95C348.24,-95 379.86,-95 407.97,-95"/>
<polygon fill="#63b8ff" stroke="#63b8ff" points="408.15,-98.5 418.15,-95 408.15,-91.5 408.15,-98.5"/>
</a>
</g>
</g>
<!-- Node32&#45;&gt;Node29 -->
<g id="edge33_Node000032_Node000029" class="edge">
<title>Node32&#45;&gt;Node29</title>
<g id="a_edge33_Node000032_Node000029"><a xlink:title=" ">
<path fill="none" stroke="#63b8ff" d="M322.72,-141.53C351.12,-146.47 385.99,-152.54 415.72,-157.72"/>
<polygon fill="#63b8ff" stroke="#63b8ff" points="415.14,-161.17 425.59,-159.44 416.34,-154.28 415.14,-161.17"/>
</a>
</g>
</g>
<!-- Node32&#45;&gt;Node30 -->
<g id="edge34_Node000032_Node000030" class="edge">
<title>Node32&#45;&gt;Node30</title>
<g id="a_edge34_Node000032_Node000030"><a xlink:title=" ">
<path fill="none" stroke="#63b8ff" d="M340.24,-132C363.82,-132 389.9,-132 413.11,-132"/>
<polygon fill="#63b8ff" stroke="#63b8ff" points="413.21,-135.5 423.21,-132 413.21,-128.5 413.21,-135.5"/>
</a>
</g>
</g>
<!-- Node32&#45;&gt;Node31 -->
<g id="edge35_Node000032_Node000031" class="edge">
<title>Node32&#45;&gt;Node31</title>
<g id="a_edge35_Node000032_Node000031"><a xlink:title=" ">
<path fill="none" stroke="#63b8ff" d="M322.72,-122.47C351.12,-117.53 385.99,-111.46 415.72,-106.28"/>
<polygon fill="#63b8ff" stroke="#63b8ff" points="416.34,-109.72 425.59,-104.56 415.14,-102.83 416.34,-109.72"/>
</a>
</g>
</g>
<!-- Node34 -->
<g id="Node000034" class="node">
<title>Node34</title>
<g id="a_Node000034"><a xlink:href="classSpan_1_1Input.html#af45cd4df00ba60ee6d0e03c85dc6ba80" target="_top" xlink:title=" ">
<polygon fill="white" stroke="#666666" points="550,-30 413,-30 413,0 550,0 550,-30"/>
<text text-anchor="start" x="421" y="-18" font-family="Helvetica,sans-Serif" font-size="10.00">Span::Input::ResetCursor</text>
<text text-anchor="middle" x="481.5" y="-7" font-family="Helvetica,sans-Serif" font-size="10.00">ToCenter</text>
</a>
</g>
</g>
<!-- Node33&#45;&gt;Node34 -->
<g id="edge37_Node000033_Node000034" class="edge">
<title>Node33&#45;&gt;Node34</title>
<g id="a_edge37_Node000033_Node000034"><a xlink:title=" ">
<path fill="none" stroke="#63b8ff" d="M315.16,-48.46C340.98,-43.23 373.62,-36.63 403.06,-30.67"/>
<polygon fill="#63b8ff" stroke="#63b8ff" points="403.81,-34.09 412.91,-28.68 402.42,-27.23 403.81,-34.09"/>
</a>
</g>
</g>
<!-- Node35 -->
<g id="Node000035" class="node">
<title>Node35</title>
<g id="a_Node000035"><a xlink:href="classSpan_1_1Input.html#ade5dc0b427d993d6d77595d67b79d6b6" target="_top" xlink:title="カーソルの表示を設定します。">
<polygon fill="white" stroke="#666666" points="560.5,-67.5 402.5,-67.5 402.5,-48.5 560.5,-48.5 560.5,-67.5"/>
<text text-anchor="middle" x="481.5" y="-55.5" font-family="Helvetica,sans-Serif" font-size="10.00">Span::Input::SetCursorVisible</text>
</a>
</g>
</g>
<!-- Node33&#45;&gt;Node35 -->
<g id="edge38_Node000033_Node000035" class="edge">
<title>Node33&#45;&gt;Node35</title>
<g id="a_edge38_Node000033_Node000035"><a xlink:title=" ">
<path fill="none" stroke="#63b8ff" d="M340.54,-58C357.22,-58 375.14,-58 392.4,-58"/>
<polygon fill="#63b8ff" stroke="#63b8ff" points="392.48,-61.5 402.48,-58 392.48,-54.5 392.48,-61.5"/>
</a>
</g>
</g>
</g>
</svg>

<g id="navigator" transform="translate(0 0)" fill="#404254">
  <rect fill="#f2f5e9" fill-opacity="0.5" stroke="#606060" stroke-width=".5" x="0" y="0" width="60" height="60"/>
  <use id="zoomplus" xlink:href="#zoomPlus" x="17" y="9" onmousedown="handleZoom(evt,'in')"/>
  <use id="zoomminus" xlink:href="#zoomMin" x="42" y="9" onmousedown="handleZoom(evt,'out')"/>
  <use id="reset" xlink:href="#resetDef" x="30" y="36" onmousedown="handleReset()"/>
   <use id="arrowup" xlink:href="#arrowUp" x="0" y="0" onmousedown="handlePan(0,-1)"/>
  <use id="arrowright" xlink:href="#arrowRight" x="0" y="0" onmousedown="handlePan(1,0)"/>
  <use id="arrowdown" xlink:href="#arrowDown" x="0" y="0" onmousedown="handlePan(0,1)"/>
  <use id="arrowleft" xlink:href="#arrowLeft" x="0" y="0" onmousedown="handlePan(-1,0)"/>
</g>
<svg viewBox="0 0 15 15" width="100%" height="30px" preserveAspectRatio="xMaxYMin meet">
 <g id="arrow_out" transform="scale(0.3 0.3)">
  <a xlink:href="classSpan_1_1EditorCameraSystem_ae933964fa5d0f299954c926cf63e091a_cgraph_org.svg" target="_base">
   <rect id="button" ry="5" rx="5" y="6" x="6" height="38" width="38"
        fill="#f2f5e9" fill-opacity="0.5" stroke="#606060" stroke-width="1.0"/>
   <path id="arrow"
     d="M 11.500037,31.436501 C 11.940474,20.09759 22.043105,11.32322 32.158766,21.979434 L 37.068811,17.246167 C 37.068811,17.246167 37.088388,32 37.088388,32 L 22.160133,31.978069 C 22.160133,31.978069 26.997745,27.140456 26.997745,27.140456 C 18.528582,18.264221 13.291696,25.230495 11.500037,31.436501 z"
     style="fill:#404040;"/>
  </a>
 </g>
</svg>

<style type='text/css'>
<![CDATA[
[data-mouse-over-selected='false'] { opacity: 0.7; }
[data-mouse-over-selected='true']  { opacity: 1.0; }
]]>
</style>
<script type="application/ecmascript"><![CDATA[
document.addEventListener('DOMContentLoaded', (event) => {
  highlightEdges();
  highlightAdjacentNodes();
});
]]></script>
</svg>
