<?xml version="1.0" encoding="UTF-8" standalone="no"?>
<!DOCTYPE svg PUBLIC "-//W3C//DTD SVG 1.1//EN"
 "http://www.w3.org/Graphics/SVG/1.1/DTD/svg11.dtd">
<!-- Generated by graphviz version 2.43.0 (0)
 -->
<!-- Title: Span::Texture::GetPath Pages: 1 -->
<svg width="519pt" height="27pt"
 viewBox="0.00 0.00 519.00 27.00" xmlns="http://www.w3.org/2000/svg" xmlns:xlink="http://www.w3.org/1999/xlink">
<g id="graph0" class="graph" transform="scale(1 1) rotate(0) translate(4 23)">
<title>Span::Texture::GetPath</title>
<!-- Node1 -->
<g id="Node000001" class="node">
<title>Node1</title>
<g id="a_Node000001"><a xlink:title="パスの取得">
<polygon fill="#999999" stroke="#666666" points="511,-19 384,-19 384,0 511,0 511,-19"/>
<text text-anchor="middle" x="447.5" y="-7" font-family="Helvetica,sans-Serif" font-size="10.00">Span::Texture::GetPath</text>
</a>
</g>
</g>
<!-- Node2 -->
<g id="Node000002" class="node">
<title>Node2</title>
<g id="a_Node000002"><a xlink:href="classSpan_1_1ImGuiUI.html#a051be17f46f22409017503a9b0562d76" target="_top" xlink:title=" ">
<polygon fill="white" stroke="#666666" points="348,-19 175,-19 175,0 348,0 348,-19"/>
<text text-anchor="middle" x="261.5" y="-7" font-family="Helvetica,sans-Serif" font-size="10.00">Span::ImGuiUI::DrawTextureSlot</text>
</a>
</g>
</g>
<!-- Node1&#45;&gt;Node2 -->
<g id="edge1_Node000001_Node000002" class="edge">
<title>Node1&#45;&gt;Node2</title>
<g id="a_edge1_Node000001_Node000002"><a xlink:title=" ">
<path fill="none" stroke="#63b8ff" d="M373.77,-9.5C365.31,-9.5 356.63,-9.5 348.02,-9.5"/>
<polygon fill="#63b8ff" stroke="#63b8ff" points="373.95,-13 383.95,-9.5 373.95,-6 373.95,-13"/>
</a>
</g>
</g>
<!-- Node3 -->
<g id="Node000003" class="node">
<title>Node3</title>
<g id="a_Node000003"><a xlink:href="namespaceSpan_1_1Internal.html#ae18b71c51d88d168549fe9542ed952bb" target="_top" xlink:title="型に応じた描画ヘルパー関数">
<polygon fill="white" stroke="#666666" points="139,-19 0,-19 0,0 139,0 139,-19"/>
<text text-anchor="middle" x="69.5" y="-7" font-family="Helvetica,sans-Serif" font-size="10.00">Span::Internal::DrawField</text>
</a>
</g>
</g>
<!-- Node2&#45;&gt;Node3 -->
<g id="edge2_Node000002_Node000003" class="edge">
<title>Node2&#45;&gt;Node3</title>
<g id="a_edge2_Node000002_Node000003"><a xlink:title=" ">
<path fill="none" stroke="#63b8ff" d="M164.78,-9.5C156.1,-9.5 147.44,-9.5 139.07,-9.5"/>
<polygon fill="#63b8ff" stroke="#63b8ff" points="164.95,-13 174.95,-9.5 164.95,-6 164.95,-13"/>
</a>
</g>
</g>
</g>
</svg>
