<?xml version="1.0" encoding="UTF-8" standalone="no"?>
<!DOCTYPE svg PUBLIC "-//W3C//DTD SVG 1.1//EN"
 "http://www.w3.org/Graphics/SVG/1.1/DTD/svg11.dtd">
<!-- Generated by graphviz version 2.43.0 (0)
 -->
<!-- Title: Span::SkyboxPass::Render Pages: 1 -->
<svg width="557pt" height="113pt"
 viewBox="0.00 0.00 557.00 112.50" xmlns="http://www.w3.org/2000/svg" xmlns:xlink="http://www.w3.org/1999/xlink">
<g id="graph0" class="graph" transform="scale(1 1) rotate(0) translate(4 108.5)">
<title>Span::SkyboxPass::Render</title>
<!-- Node1 -->
<g id="Node000001" class="node">
<title>Node1</title>
<g id="a_Node000001"><a xlink:title="スカイボックスを描画します。RendererのCBVアロケータを使用します。">
<polygon fill="#999999" stroke="#666666" points="144,-56 0,-56 0,-37 144,-37 144,-56"/>
<text text-anchor="middle" x="72" y="-44" font-family="Helvetica,sans-Serif" font-size="10.00">Span::SkyboxPass::Render</text>
</a>
</g>
</g>
<!-- Node2 -->
<g id="Node000002" class="node">
<title>Node2</title>
<g id="a_Node000002"><a xlink:href="classSpan_1_1Renderer.html#a5ee526eb262da98fad30d48b97e51d88" target="_top" xlink:title="動的定数バッファのメモリを確保し、データをコピーしてGPUアドレスを返します。">
<polygon fill="white" stroke="#666666" points="337,-93 180,-93 180,-74 337,-74 337,-93"/>
<text text-anchor="middle" x="258.5" y="-81" font-family="Helvetica,sans-Serif" font-size="10.00">Span::Renderer::AllocateCBV</text>
</a>
</g>
</g>
<!-- Node1&#45;&gt;Node2 -->
<g id="edge1_Node000001_Node000002" class="edge">
<title>Node1&#45;&gt;Node2</title>
<g id="a_edge1_Node000001_Node000002"><a xlink:title=" ">
<path fill="none" stroke="#63b8ff" d="M120.51,-56.03C144.74,-60.89 174.39,-66.83 199.91,-71.95"/>
<polygon fill="#63b8ff" stroke="#63b8ff" points="199.33,-75.4 209.83,-73.94 200.71,-68.54 199.33,-75.4"/>
</a>
</g>
</g>
<!-- Node3 -->
<g id="Node000003" class="node">
<title>Node3</title>
<g id="a_Node000003"><a xlink:href="classSpan_1_1Renderer.html#a99045dcc7cdaadce2843b7c2540156a3" target="_top" xlink:title="指定スロットにテクスチャをバインドします。Nullの場合は安全なダミーを生成します。">
<polygon fill="white" stroke="#666666" points="336,-56 181,-56 181,-37 336,-37 336,-56"/>
<text text-anchor="middle" x="258.5" y="-44" font-family="Helvetica,sans-Serif" font-size="10.00">Span::Renderer::BindTexture</text>
</a>
</g>
</g>
<!-- Node1&#45;&gt;Node3 -->
<g id="edge2_Node000001_Node000003" class="edge">
<title>Node1&#45;&gt;Node3</title>
<g id="a_edge2_Node000001_Node000003"><a xlink:title=" ">
<path fill="none" stroke="#63b8ff" d="M144.07,-46.5C152.85,-46.5 161.89,-46.5 170.87,-46.5"/>
<polygon fill="#63b8ff" stroke="#63b8ff" points="170.95,-50 180.95,-46.5 170.95,-43 170.95,-50"/>
</a>
</g>
</g>
<!-- Node7 -->
<g id="Node000007" class="node">
<title>Node7</title>
<g id="a_Node000007"><a xlink:href="structSpan_1_1Matrix4x4.html#afc3f3a8aeeaac6aa4302a64b7568fbf3" target="_top" xlink:title=" ">
<polygon fill="white" stroke="#666666" points="322.5,-19 194.5,-19 194.5,0 322.5,0 322.5,-19"/>
<text text-anchor="middle" x="258.5" y="-7" font-family="Helvetica,sans-Serif" font-size="10.00">Span::Matrix4x4::ToXM</text>
</a>
</g>
</g>
<!-- Node1&#45;&gt;Node7 -->
<g id="edge6_Node000001_Node000007" class="edge">
<title>Node1&#45;&gt;Node7</title>
<g id="a_edge6_Node000001_Node000007"><a xlink:title=" ">
<path fill="none" stroke="#63b8ff" d="M120.51,-36.97C144.74,-32.11 174.39,-26.17 199.91,-21.05"/>
<polygon fill="#63b8ff" stroke="#63b8ff" points="200.71,-24.46 209.83,-19.06 199.33,-17.6 200.71,-24.46"/>
</a>
</g>
</g>
<!-- Node4 -->
<g id="Node000004" class="node">
<title>Node4</title>
<g id="a_Node000004"><a xlink:href="classSpan_1_1Texture.html#ab7f1497482e3c11f84341d83aab51b94" target="_top" xlink:title="SRVヒープ上のCPUハンドル (ディスクリプタのコピー元)">
<polygon fill="white" stroke="#666666" points="549,-104.5 373,-104.5 373,-74.5 549,-74.5 549,-104.5"/>
<text text-anchor="start" x="381" y="-92.5" font-family="Helvetica,sans-Serif" font-size="10.00">Span::Texture::GetCPUDescriptor</text>
<text text-anchor="middle" x="461" y="-81.5" font-family="Helvetica,sans-Serif" font-size="10.00">Handle</text>
</a>
</g>
</g>
<!-- Node3&#45;&gt;Node4 -->
<g id="edge3_Node000003_Node000004" class="edge">
<title>Node3&#45;&gt;Node4</title>
<g id="a_edge3_Node000003_Node000004"><a xlink:title=" ">
<path fill="none" stroke="#63b8ff" d="M304,-56.04C326.4,-60.85 354.25,-66.82 380.19,-72.38"/>
<polygon fill="#63b8ff" stroke="#63b8ff" points="379.52,-75.82 390.03,-74.49 380.99,-68.97 379.52,-75.82"/>
</a>
</g>
</g>
<!-- Node5 -->
<g id="Node000005" class="node">
<title>Node5</title>
<g id="a_Node000005"><a xlink:href="classSpan_1_1Texture.html#af654e1e521ed18e71b35ca59cce1da75" target="_top" xlink:title="DirectXリソースの取得">
<polygon fill="white" stroke="#666666" points="536.5,-56 385.5,-56 385.5,-37 536.5,-37 536.5,-56"/>
<text text-anchor="middle" x="461" y="-44" font-family="Helvetica,sans-Serif" font-size="10.00">Span::Texture::GetResource</text>
</a>
</g>
</g>
<!-- Node3&#45;&gt;Node5 -->
<g id="edge4_Node000003_Node000005" class="edge">
<title>Node3&#45;&gt;Node5</title>
<g id="a_edge4_Node000003_Node000005"><a xlink:title=" ">
<path fill="none" stroke="#63b8ff" d="M336.16,-46.5C348.89,-46.5 362.17,-46.5 375.09,-46.5"/>
<polygon fill="#63b8ff" stroke="#63b8ff" points="375.37,-50 385.37,-46.5 375.37,-43 375.37,-50"/>
</a>
</g>
</g>
<!-- Node6 -->
<g id="Node000006" class="node">
<title>Node6</title>
<g id="a_Node000006"><a xlink:href="classSpan_1_1Texture.html#a1e117e901ab11ec8630ef240fa59de6b" target="_top" xlink:title="SRVヒープ自体 (ShaderVisibleではない、保管用)">
<polygon fill="white" stroke="#666666" points="536.5,-19 385.5,-19 385.5,0 536.5,0 536.5,-19"/>
<text text-anchor="middle" x="461" y="-7" font-family="Helvetica,sans-Serif" font-size="10.00">Span::Texture::GetSRVHeap</text>
</a>
</g>
</g>
<!-- Node3&#45;&gt;Node6 -->
<g id="edge5_Node000003_Node000006" class="edge">
<title>Node3&#45;&gt;Node6</title>
<g id="a_edge5_Node000003_Node000006"><a xlink:title=" ">
<path fill="none" stroke="#63b8ff" d="M311.13,-36.97C337.69,-32.07 370.26,-26.06 398.15,-20.91"/>
<polygon fill="#63b8ff" stroke="#63b8ff" points="398.99,-24.32 408.19,-19.06 397.72,-17.43 398.99,-24.32"/>
</a>
</g>
</g>
</g>
</svg>
