<?xml version="1.0" encoding="UTF-8" standalone="no"?>
<!DOCTYPE svg PUBLIC "-//W3C//DTD SVG 1.1//EN"
 "http://www.w3.org/Graphics/SVG/1.1/DTD/svg11.dtd">
<!-- Generated by graphviz version 2.43.0 (0)
 -->
<!-- Title: Span::Mesh::GetPath Pages: 1 -->
<svg width="499pt" height="45pt"
 viewBox="0.00 0.00 499.00 45.00" xmlns="http://www.w3.org/2000/svg" xmlns:xlink="http://www.w3.org/1999/xlink">
<g id="graph0" class="graph" transform="scale(1 1) rotate(0) translate(4 41)">
<title>Span::Mesh::GetPath</title>
<!-- Node1 -->
<g id="Node000001" class="node">
<title>Node1</title>
<g id="a_Node000001"><a xlink:title="パスの取得">
<polygon fill="#999999" stroke="#666666" points="491,-19 374,-19 374,0 491,0 491,-19"/>
<text text-anchor="middle" x="432.5" y="-7" font-family="Helvetica,sans-Serif" font-size="10.00">Span::Mesh::GetPath</text>
</a>
</g>
</g>
<!-- Node1&#45;&gt;Node1 -->
<g id="edge3_Node000001_Node000001" class="edge">
<title>Node1&#45;&gt;Node1</title>
<g id="a_edge3_Node000001_Node000001"><a xlink:title=" ">
<path fill="none" stroke="#63b8ff" d="M465.43,-27.45C464.5,-32.82 453.52,-37 432.5,-37 401.22,-37 392.18,-27.73 405.37,-19.08"/>
<polygon fill="#63b8ff" stroke="#63b8ff" points="468.2,-25.3 459.63,-19.08 462.45,-29.29 468.2,-25.3"/>
</a>
</g>
</g>
<!-- Node2 -->
<g id="Node000002" class="node">
<title>Node2</title>
<g id="a_Node000002"><a xlink:href="classSpan_1_1ImGuiUI.html#aa8095db73105fc0e8d6936701f333bf0" target="_top" xlink:title=" ">
<polygon fill="white" stroke="#666666" points="338,-19 175,-19 175,0 338,0 338,-19"/>
<text text-anchor="middle" x="256.5" y="-7" font-family="Helvetica,sans-Serif" font-size="10.00">Span::ImGuiUI::DrawMeshSlot</text>
</a>
</g>
</g>
<!-- Node1&#45;&gt;Node2 -->
<g id="edge1_Node000001_Node000002" class="edge">
<title>Node1&#45;&gt;Node2</title>
<g id="a_edge1_Node000001_Node000002"><a xlink:title=" ">
<path fill="none" stroke="#63b8ff" d="M363.54,-9.5C355.2,-9.5 346.62,-9.5 338.12,-9.5"/>
<polygon fill="#63b8ff" stroke="#63b8ff" points="363.56,-13 373.56,-9.5 363.56,-6 363.56,-13"/>
</a>
</g>
</g>
<!-- Node3 -->
<g id="Node000003" class="node">
<title>Node3</title>
<g id="a_Node000003"><a xlink:href="namespaceSpan_1_1Internal.html#ae18b71c51d88d168549fe9542ed952bb" target="_top" xlink:title="型に応じた描画ヘルパー関数">
<polygon fill="white" stroke="#666666" points="139,-19 0,-19 0,0 139,0 139,-19"/>
<text text-anchor="middle" x="69.5" y="-7" font-family="Helvetica,sans-Serif" font-size="10.00">Span::Internal::DrawField</text>
</a>
</g>
</g>
<!-- Node2&#45;&gt;Node3 -->
<g id="edge2_Node000002_Node000003" class="edge">
<title>Node2&#45;&gt;Node3</title>
<g id="a_edge2_Node000002_Node000003"><a xlink:title=" ">
<path fill="none" stroke="#63b8ff" d="M164.83,-9.5C156.23,-9.5 147.6,-9.5 139.26,-9.5"/>
<polygon fill="#63b8ff" stroke="#63b8ff" points="164.89,-13 174.89,-9.5 164.89,-6 164.89,-13"/>
</a>
</g>
</g>
</g>
</svg>
