<?xml version="1.0" encoding="UTF-8" standalone="no"?>
<!DOCTYPE svg PUBLIC "-//W3C//DTD SVG 1.1//EN"
 "http://www.w3.org/Graphics/SVG/1.1/DTD/svg11.dtd">
<!-- Generated by graphviz version 2.43.0 (0)
 -->
<!-- Title: Span::Renderer::DrawMesh Pages: 1 -->
<svg width="357pt" height="298pt"
 viewBox="0.00 0.00 357.00 298.00" xmlns="http://www.w3.org/2000/svg" xmlns:xlink="http://www.w3.org/1999/xlink">

<svg id="main" version="1.1" xmlns="http://www.w3.org/2000/svg" xmlns:xlink="http://www.w3.org/1999/xlink" xml:space="preserve">

<style type="text/css"><![CDATA[
.node, .edge {opacity: 0.7;}
.node.selected, .edge.selected {opacity: 1;}
.edge:hover path { stroke: red; }
.edge:hover polygon { stroke: red; fill: red; }
]]></style>
<script type="application/ecmascript" xlink:href="svg.min.js"/>
<svg id="graph" class="graph">
<g id="graph0" class="graph" transform="scale(1 1) rotate(0) translate(4 294)">
<title>Span::Renderer::DrawMesh</title>
<!-- Node1 -->
<g id="Node000001" class="node">
<title>Node1</title>
<g id="a_Node000001"><a xlink:title=" ">
<polygon fill="#999999" stroke="#666666" points="149,-148 0,-148 0,-129 149,-129 149,-148"/>
<text text-anchor="middle" x="74.5" y="-136" font-family="Helvetica,sans-Serif" font-size="10.00">Span::Renderer::DrawMesh</text>
</a>
</g>
</g>
<!-- Node2 -->
<g id="Node000002" class="node">
<title>Node2</title>
<g id="a_Node000002"><a xlink:href="classSpan_1_1Mesh.html#a778cd9c09642759f91c6f0cbe53503a1" target="_top" xlink:title=" ">
<polygon fill="white" stroke="#666666" points="319,-290 215,-290 215,-271 319,-271 319,-290"/>
<text text-anchor="middle" x="267" y="-278" font-family="Helvetica,sans-Serif" font-size="10.00">Span::Mesh::Draw</text>
</a>
</g>
</g>
<!-- Node1&#45;&gt;Node2 -->
<g id="edge1_Node000001_Node000002" class="edge">
<title>Node1&#45;&gt;Node2</title>
<g id="a_edge1_Node000001_Node000002"><a xlink:title=" ">
<path fill="none" stroke="#63b8ff" d="M80.97,-148.08C94.97,-171.66 134.54,-232.73 185,-262.5 191.23,-266.17 198.13,-269.1 205.19,-271.43"/>
<polygon fill="#63b8ff" stroke="#63b8ff" points="204.31,-274.82 214.89,-274.25 206.26,-268.09 204.31,-274.82"/>
</a>
</g>
</g>
<!-- Node3 -->
<g id="Node000003" class="node">
<title>Node3</title>
<g id="a_Node000003"><a xlink:href="structSpan_1_1Matrix4x4.html#a4adf277b2c441fe8d2ea295a0c0a2610" target="_top" xlink:title=" ">
<polygon fill="white" stroke="#666666" points="338.5,-253 195.5,-253 195.5,-234 338.5,-234 338.5,-253"/>
<text text-anchor="middle" x="267" y="-241" font-family="Helvetica,sans-Serif" font-size="10.00">Span::Matrix4x4::FromXM</text>
</a>
</g>
</g>
<!-- Node1&#45;&gt;Node3 -->
<g id="edge2_Node000001_Node000003" class="edge">
<title>Node1&#45;&gt;Node3</title>
<g id="a_edge2_Node000001_Node000003"><a xlink:title=" ">
<path fill="none" stroke="#63b8ff" d="M84.77,-148.17C102.49,-166.07 143.17,-204.39 185,-224.5 190.04,-226.92 195.42,-229.05 200.9,-230.91"/>
<polygon fill="#63b8ff" stroke="#63b8ff" points="200.27,-234.38 210.86,-233.99 202.34,-227.69 200.27,-234.38"/>
</a>
</g>
</g>
<!-- Node4 -->
<g id="Node000004" class="node">
<title>Node4</title>
<g id="a_Node000004"><a xlink:href="classSpan_1_1Material.html#ac1ad98a9d8fdea157446dfa1ac6b8868" target="_top" xlink:title=" ">
<polygon fill="white" stroke="#666666" points="349,-215.5 185,-215.5 185,-185.5 349,-185.5 349,-215.5"/>
<text text-anchor="start" x="193" y="-203.5" font-family="Helvetica,sans-Serif" font-size="10.00">Span::Material::GetGPUVirtual</text>
<text text-anchor="middle" x="267" y="-192.5" font-family="Helvetica,sans-Serif" font-size="10.00">Address</text>
</a>
</g>
</g>
<!-- Node1&#45;&gt;Node4 -->
<g id="edge3_Node000001_Node000004" class="edge">
<title>Node1&#45;&gt;Node4</title>
<g id="a_edge3_Node000001_Node000004"><a xlink:title=" ">
<path fill="none" stroke="#63b8ff" d="M101.94,-148.06C124.04,-155.96 156.46,-167.32 185,-176.5 191.29,-178.52 197.87,-180.57 204.44,-182.58"/>
<polygon fill="#63b8ff" stroke="#63b8ff" points="203.45,-185.94 214.04,-185.49 205.48,-179.24 203.45,-185.94"/>
</a>
</g>
</g>
<!-- Node5 -->
<g id="Node000005" class="node">
<title>Node5</title>
<g id="a_Node000005"><a xlink:href="classSpan_1_1Texture.html#a1e117e901ab11ec8630ef240fa59de6b" target="_top" xlink:title=" ">
<polygon fill="white" stroke="#666666" points="342.5,-167 191.5,-167 191.5,-148 342.5,-148 342.5,-167"/>
<text text-anchor="middle" x="267" y="-155" font-family="Helvetica,sans-Serif" font-size="10.00">Span::Texture::GetSRVHeap</text>
</a>
</g>
</g>
<!-- Node1&#45;&gt;Node5 -->
<g id="edge4_Node000001_Node000005" class="edge">
<title>Node1&#45;&gt;Node5</title>
<g id="a_edge4_Node000001_Node000005"><a xlink:title=" ">
<path fill="none" stroke="#63b8ff" d="M149.15,-145.85C159.63,-146.89 170.47,-147.97 181.13,-149.04"/>
<polygon fill="#63b8ff" stroke="#63b8ff" points="180.99,-152.54 191.29,-150.05 181.68,-145.57 180.99,-152.54"/>
</a>
</g>
</g>
<!-- Node6 -->
<g id="Node000006" class="node">
<title>Node6</title>
<g id="a_Node000006"><a xlink:href="classSpan_1_1Material.html#a86c0606bf8664d79712976e16867afda" target="_top" xlink:title=" ">
<polygon fill="white" stroke="#666666" points="340,-130 194,-130 194,-111 340,-111 340,-130"/>
<text text-anchor="middle" x="267" y="-118" font-family="Helvetica,sans-Serif" font-size="10.00">Span::Material::GetTexture</text>
</a>
</g>
</g>
<!-- Node1&#45;&gt;Node6 -->
<g id="edge5_Node000001_Node000006" class="edge">
<title>Node1&#45;&gt;Node6</title>
<g id="a_edge5_Node000001_Node000006"><a xlink:title=" ">
<path fill="none" stroke="#63b8ff" d="M149.15,-131.54C160.49,-130.47 172.26,-129.36 183.77,-128.27"/>
<polygon fill="#63b8ff" stroke="#63b8ff" points="184.17,-131.75 193.8,-127.32 183.51,-124.78 184.17,-131.75"/>
</a>
</g>
</g>
<!-- Node7 -->
<g id="Node000007" class="node">
<title>Node7</title>
<g id="a_Node000007"><a xlink:href="classSpan_1_1Material.html#abc4ee804b2e3c79090588ddcb26eef8f" target="_top" xlink:title=" ">
<polygon fill="white" stroke="#666666" points="346,-93 188,-93 188,-74 346,-74 346,-93"/>
<text text-anchor="middle" x="267" y="-81" font-family="Helvetica,sans-Serif" font-size="10.00">Span::Material::IsTransparent</text>
</a>
</g>
</g>
<!-- Node1&#45;&gt;Node7 -->
<g id="edge6_Node000001_Node000007" class="edge">
<title>Node1&#45;&gt;Node7</title>
<g id="a_edge6_Node000001_Node000007"><a xlink:title=" ">
<path fill="none" stroke="#63b8ff" d="M102.3,-128.96C124.34,-121.29 156.49,-110.51 185,-102.5 193.78,-100.03 203.16,-97.62 212.31,-95.4"/>
<polygon fill="#63b8ff" stroke="#63b8ff" points="213.19,-98.79 222.1,-93.06 211.56,-91.98 213.19,-98.79"/>
</a>
</g>
</g>
<!-- Node8 -->
<g id="Node000008" class="node">
<title>Node8</title>
<g id="a_Node000008"><a xlink:href="structSpan_1_1Matrix4x4.html#afc3f3a8aeeaac6aa4302a64b7568fbf3" target="_top" xlink:title=" ">
<polygon fill="white" stroke="#666666" points="331,-56 203,-56 203,-37 331,-37 331,-56"/>
<text text-anchor="middle" x="267" y="-44" font-family="Helvetica,sans-Serif" font-size="10.00">Span::Matrix4x4::ToXM</text>
</a>
</g>
</g>
<!-- Node1&#45;&gt;Node8 -->
<g id="edge7_Node000001_Node000008" class="edge">
<title>Node1&#45;&gt;Node8</title>
<g id="a_edge7_Node000001_Node000008"><a xlink:title=" ">
<path fill="none" stroke="#63b8ff" d="M86.84,-128.9C105.87,-113.28 146.01,-82.41 185,-65.5 190.74,-63.01 196.86,-60.82 203.06,-58.9"/>
<polygon fill="#63b8ff" stroke="#63b8ff" points="204.18,-62.22 212.83,-56.09 202.25,-55.49 204.18,-62.22"/>
</a>
</g>
</g>
<!-- Node9 -->
<g id="Node000009" class="node">
<title>Node9</title>
<g id="a_Node000009"><a xlink:href="classSpan_1_1Material.html#a879a957f83f3a9a274b3415614ffe18f" target="_top" xlink:title=" ">
<polygon fill="white" stroke="#666666" points="331,-19 203,-19 203,0 331,0 331,-19"/>
<text text-anchor="middle" x="267" y="-7" font-family="Helvetica,sans-Serif" font-size="10.00">Span::Material::Update</text>
</a>
</g>
</g>
<!-- Node1&#45;&gt;Node9 -->
<g id="edge8_Node000001_Node000009" class="edge">
<title>Node1&#45;&gt;Node9</title>
<g id="a_edge8_Node000001_Node000009"><a xlink:title=" ">
<path fill="none" stroke="#63b8ff" d="M82.17,-128.78C97.58,-107.13 137.94,-54.76 185,-28.5 189.01,-26.26 193.27,-24.29 197.67,-22.54"/>
<polygon fill="#63b8ff" stroke="#63b8ff" points="199.18,-25.72 207.44,-19.09 196.84,-19.12 199.18,-25.72"/>
</a>
</g>
</g>
</g>
</svg>
</svg>

<style type='text/css'>
<![CDATA[
[data-mouse-over-selected='false'] { opacity: 0.7; }
[data-mouse-over-selected='true']  { opacity: 1.0; }
]]>
</style>
<script type="application/ecmascript"><![CDATA[
document.addEventListener('DOMContentLoaded', (event) => {
  highlightEdges();
  highlightAdjacentNodes();
});
]]></script>
</svg>
