<?xml version="1.0" encoding="UTF-8" standalone="no"?>
<!DOCTYPE svg PUBLIC "-//W3C//DTD SVG 1.1//EN"
 "http://www.w3.org/Graphics/SVG/1.1/DTD/svg11.dtd">
<!-- Generated by graphviz version 2.43.0 (0)
 -->
<!-- Title: Span::Renderer::LoadEnvironmentMap Pages: 1 -->
<!--zoomable 323 -->

<svg id="main" version="1.1" xmlns="http://www.w3.org/2000/svg" xmlns:xlink="http://www.w3.org/1999/xlink" xml:space="preserve" onload="init(evt)">

<style type="text/css"><![CDATA[
.node, .edge {opacity: 0.7;}
.node.selected, .edge.selected {opacity: 1;}
.edge:hover path { stroke: red; }
.edge:hover polygon { stroke: red; fill: red; }
]]></style>

<defs>
  <circle id="rim" cx="0" cy="0" r="7"/>
  <circle id="rim2" cx="0" cy="0" r="3.5"/>
  <g id="zoomPlus">
    <use xlink:href="#rim" fill="#404040"><set attributeName="fill" to="#808080" begin="zoomplus.mouseover" end="zoomplus.mouseout"/></use>
    <path d="M-4,0h8M0,-4v8" fill="none" stroke="white" stroke-width="1.5" pointer-events="none"/>
  </g>
  <g id="zoomMin">
    <use xlink:href="#rim" fill="#404040"><set attributeName="fill" to="#808080" begin="zoomminus.mouseover" end="zoomminus.mouseout"/></use>
    <path d="M-4,0h8" fill="none" stroke="white" stroke-width="1.5" pointer-events="none"/>
  </g>
  <g id="arrowUp" transform="translate(30 24)">
    <use xlink:href="#rim"/>
    <path pointer-events="none" fill="none" stroke="white" stroke-width="1.5" d="M0,-3.0v7 M-2.5,-0.5L0,-3.0L2.5,-0.5"/>
  </g>
  <g id="arrowRight" transform="rotate(90) translate(36 -43)">
    <use xlink:href="#rim"/>
    <path pointer-events="none" fill="none" stroke="white" stroke-width="1.5" d="M0,-3.0v7 M-2.5,-0.5L0,-3.0L2.5,-0.5"/>
  </g>
  <g id="arrowDown" transform="rotate(180) translate(-30 -48)">
    <use xlink:href="#rim"/>
    <path pointer-events="none" fill="none" stroke="white" stroke-width="1.5" d="M0,-3.0v7 M-2.5,-0.5L0,-3.0L2.5,-0.5"/>
  </g>
  <g id="arrowLeft" transform="rotate(270) translate(-36 17)">
    <use xlink:href="#rim"/>
    <path pointer-events="none" fill="none" stroke="white" stroke-width="1.5" d="M0,-3.0v7 M-2.5,-0.5L0,-3.0L2.5,-0.5"/>
  </g>
  <g id="resetDef">
    <use xlink:href="#rim2" fill="#404040"><set attributeName="fill" to="#808080" begin="reset.mouseover" end="reset.mouseout"/></use>
  </g>
</defs>
<script type="application/ecmascript">
var viewWidth = 609;
var viewHeight = 323;
var sectionId = 'dynsection-28';
</script>
<script type="application/ecmascript" xlink:href="svg.min.js"/>
<svg id="graph" class="graph">
<g id="viewport">
<title>Span::Renderer::LoadEnvironmentMap</title>
<!-- Node1 -->
<g id="Node000001" class="node">
<title>Node1</title>
<g id="a_Node000001"><a xlink:title=" ">
<polygon fill="#999999" stroke="#666666" points="203,-160 0,-160 0,-141 203,-141 203,-160"/>
<text text-anchor="middle" x="101.5" y="-148" font-family="Helvetica,sans-Serif" font-size="10.00">Span::Renderer::LoadEnvironmentMap</text>
</a>
</g>
</g>
<!-- Node2 -->
<g id="Node000002" class="node">
<title>Node2</title>
<g id="a_Node000002"><a xlink:href="classSpan_1_1IBLBuilder.html#a2712bd9d7b65c7ecd7af5bcecfd2609d" target="_top" xlink:title="環境に依存しないBRDF Integration LUT を生成します。">
<polygon fill="white" stroke="#666666" points="387.5,-285.5 240.5,-285.5 240.5,-255.5 387.5,-255.5 387.5,-285.5"/>
<text text-anchor="start" x="248.5" y="-273.5" font-family="Helvetica,sans-Serif" font-size="10.00">Span::IBLBuilder::Generate</text>
<text text-anchor="middle" x="314" y="-262.5" font-family="Helvetica,sans-Serif" font-size="10.00">BRDFLUT</text>
</a>
</g>
</g>
<!-- Node1&#45;&gt;Node2 -->
<g id="edge1_Node000001_Node000002" class="edge">
<title>Node1&#45;&gt;Node2</title>
<g id="a_edge1_Node000001_Node000002"><a xlink:title=" ">
<path fill="none" stroke="#63b8ff" d="M113.79,-160.25C136.26,-179.2 188.72,-221.38 239,-246.5 242.74,-248.37 246.65,-250.13 250.65,-251.8"/>
<polygon fill="#63b8ff" stroke="#63b8ff" points="249.48,-255.1 260.07,-255.49 252.03,-248.58 249.48,-255.1"/>
</a>
</g>
</g>
<!-- Node3 -->
<g id="Node000003" class="node">
<title>Node3</title>
<g id="a_Node000003"><a xlink:href="classSpan_1_1Texture.html#ab7f1497482e3c11f84341d83aab51b94" target="_top" xlink:title="SRVヒープ上のCPUハンドル (ディスクリプタのコピー元)">
<polygon fill="white" stroke="#666666" points="601,-306.5 425,-306.5 425,-276.5 601,-276.5 601,-306.5"/>
<text text-anchor="start" x="433" y="-294.5" font-family="Helvetica,sans-Serif" font-size="10.00">Span::Texture::GetCPUDescriptor</text>
<text text-anchor="middle" x="513" y="-283.5" font-family="Helvetica,sans-Serif" font-size="10.00">Handle</text>
</a>
</g>
</g>
<!-- Node1&#45;&gt;Node3 -->
<g id="edge10_Node000001_Node000003" class="edge">
<title>Node1&#45;&gt;Node3</title>
<g id="a_edge10_Node000001_Node000003"><a xlink:title=" ">
<path fill="none" stroke="#63b8ff" d="M107.7,-160.01C123.26,-187.33 172.54,-265.93 239,-294.5 301.75,-321.48 380.35,-317.14 437.08,-308.18"/>
<polygon fill="#63b8ff" stroke="#63b8ff" points="437.76,-311.62 447.06,-306.53 436.62,-304.71 437.76,-311.62"/>
</a>
</g>
</g>
<!-- Node5 -->
<g id="Node000005" class="node">
<title>Node5</title>
<g id="a_Node000005"><a xlink:href="classSpan_1_1IBLBuilder.html#ae49f8044ac7ae74396afad74b9d93d96" target="_top" xlink:title="パノラマHDRテクスチャをCubemapに変換します。">
<polygon fill="white" stroke="#666666" points="387.5,-189.5 240.5,-189.5 240.5,-159.5 387.5,-159.5 387.5,-189.5"/>
<text text-anchor="start" x="248.5" y="-177.5" font-family="Helvetica,sans-Serif" font-size="10.00">Span::IBLBuilder::Generate</text>
<text text-anchor="middle" x="314" y="-166.5" font-family="Helvetica,sans-Serif" font-size="10.00">CubemapFromPanorama</text>
</a>
</g>
</g>
<!-- Node1&#45;&gt;Node5 -->
<g id="edge4_Node000001_Node000005" class="edge">
<title>Node1&#45;&gt;Node5</title>
<g id="a_edge4_Node000001_Node000005"><a xlink:title=" ">
<path fill="none" stroke="#63b8ff" d="M186,-160.02C200.64,-161.69 215.87,-163.43 230.49,-165.09"/>
<polygon fill="#63b8ff" stroke="#63b8ff" points="230.16,-168.58 240.49,-166.23 230.95,-161.62 230.16,-168.58"/>
</a>
</g>
</g>
<!-- Node7 -->
<g id="Node000007" class="node">
<title>Node7</title>
<g id="a_Node000007"><a xlink:href="classSpan_1_1IBLBuilder.html#a4f15a6de15fa7e3f19fc55efa9308dc0" target="_top" xlink:title="環境Cubemapから、Diffuse用 Irradiance Map を生成。">
<polygon fill="white" stroke="#666666" points="387.5,-141.5 240.5,-141.5 240.5,-111.5 387.5,-111.5 387.5,-141.5"/>
<text text-anchor="start" x="248.5" y="-129.5" font-family="Helvetica,sans-Serif" font-size="10.00">Span::IBLBuilder::Generate</text>
<text text-anchor="middle" x="314" y="-118.5" font-family="Helvetica,sans-Serif" font-size="10.00">IrradianceMap</text>
</a>
</g>
</g>
<!-- Node1&#45;&gt;Node7 -->
<g id="edge6_Node000001_Node000007" class="edge">
<title>Node1&#45;&gt;Node7</title>
<g id="a_edge6_Node000001_Node000007"><a xlink:title=" ">
<path fill="none" stroke="#63b8ff" d="M186,-140.98C200.64,-139.31 215.87,-137.57 230.49,-135.91"/>
<polygon fill="#63b8ff" stroke="#63b8ff" points="230.95,-139.38 240.49,-134.77 230.16,-132.42 230.95,-139.38"/>
</a>
</g>
</g>
<!-- Node8 -->
<g id="Node000008" class="node">
<title>Node8</title>
<g id="a_Node000008"><a xlink:href="classSpan_1_1IBLBuilder.html#ae51664c9b81e06e322555ed05fbd3b50" target="_top" xlink:title="環境Cubemapから、Specular用 Prefilter Environment Map を生成。">
<polygon fill="white" stroke="#666666" points="387.5,-237.5 240.5,-237.5 240.5,-207.5 387.5,-207.5 387.5,-237.5"/>
<text text-anchor="start" x="248.5" y="-225.5" font-family="Helvetica,sans-Serif" font-size="10.00">Span::IBLBuilder::Generate</text>
<text text-anchor="middle" x="314" y="-214.5" font-family="Helvetica,sans-Serif" font-size="10.00">PrefilterMap</text>
</a>
</g>
</g>
<!-- Node1&#45;&gt;Node8 -->
<g id="edge8_Node000001_Node000008" class="edge">
<title>Node1&#45;&gt;Node8</title>
<g id="a_edge8_Node000001_Node000008"><a xlink:title=" ">
<path fill="none" stroke="#63b8ff" d="M129.11,-160.08C156.57,-169.91 200.68,-185.55 239,-198.5 244.57,-200.38 250.39,-202.32 256.21,-204.24"/>
<polygon fill="#63b8ff" stroke="#63b8ff" points="255.37,-207.65 265.97,-207.44 257.56,-201 255.37,-207.65"/>
</a>
</g>
</g>
<!-- Node9 -->
<g id="Node000009" class="node">
<title>Node9</title>
<g id="a_Node000009"><a xlink:href="classSpan_1_1IBLBuilder.html#a04cd5881e9334a5d99f1f83a1eb9dae3" target="_top" xlink:title="IBLBuilderを初期化し、必要なCompute Shaderをロードします。">
<polygon fill="white" stroke="#666666" points="386,-93 242,-93 242,-74 386,-74 386,-93"/>
<text text-anchor="middle" x="314" y="-81" font-family="Helvetica,sans-Serif" font-size="10.00">Span::IBLBuilder::Initialize</text>
</a>
</g>
</g>
<!-- Node1&#45;&gt;Node9 -->
<g id="edge11_Node000001_Node000009" class="edge">
<title>Node1&#45;&gt;Node9</title>
<g id="a_edge11_Node000001_Node000009"><a xlink:title=" ">
<path fill="none" stroke="#63b8ff" d="M127.44,-140.99C154.65,-130.8 199.58,-114.47 239,-102.5 246.85,-100.12 255.23,-97.78 263.42,-95.6"/>
<polygon fill="#63b8ff" stroke="#63b8ff" points="264.48,-98.94 273.27,-93.03 262.71,-92.16 264.48,-98.94"/>
</a>
</g>
</g>
<!-- Node10 -->
<g id="Node000010" class="node">
<title>Node10</title>
<g id="a_Node000010"><a xlink:href="classSpan_1_1Texture.html#a4149a1e0df66fc08179a7e3b4a3f5d49" target="_top" xlink:title="画像ファイルからテクスチャを作成します。">
<polygon fill="white" stroke="#666666" points="379.5,-56 248.5,-56 248.5,-37 379.5,-37 379.5,-56"/>
<text text-anchor="middle" x="314" y="-44" font-family="Helvetica,sans-Serif" font-size="10.00">Span::Texture::Initialize</text>
</a>
</g>
</g>
<!-- Node1&#45;&gt;Node10 -->
<g id="edge12_Node000001_Node000010" class="edge">
<title>Node1&#45;&gt;Node10</title>
<g id="a_edge12_Node000001_Node000010"><a xlink:title=" ">
<path fill="none" stroke="#63b8ff" d="M114.54,-140.99C137.46,-123.36 189.48,-85.46 239,-64.5 243.95,-62.41 249.19,-60.52 254.5,-58.84"/>
<polygon fill="#63b8ff" stroke="#63b8ff" points="255.5,-62.19 264.11,-56.01 253.52,-55.48 255.5,-62.19"/>
</a>
</g>
</g>
<!-- Node12 -->
<g id="Node000012" class="node">
<title>Node12</title>
<g id="a_Node000012"><a xlink:href="classSpan_1_1IBLBuilder.html#add9e97fb896f767e24aa6cda5334cef5" target="_top" xlink:title="終了処理。ロードしたシェーダーやルートシグネチャを解放します。">
<polygon fill="white" stroke="#666666" points="389,-19 239,-19 239,0 389,0 389,-19"/>
<text text-anchor="middle" x="314" y="-7" font-family="Helvetica,sans-Serif" font-size="10.00">Span::IBLBuilder::Shutdown</text>
</a>
</g>
</g>
<!-- Node1&#45;&gt;Node12 -->
<g id="edge14_Node000001_Node000012" class="edge">
<title>Node1&#45;&gt;Node12</title>
<g id="a_edge14_Node000001_Node000012"><a xlink:title=" ">
<path fill="none" stroke="#63b8ff" d="M110.27,-140.76C129.46,-117.37 181.74,-57.75 239,-27.5 242.52,-25.64 246.23,-23.97 250.04,-22.47"/>
<polygon fill="#63b8ff" stroke="#63b8ff" points="251.4,-25.7 259.67,-19.08 249.08,-19.1 251.4,-25.7"/>
</a>
</g>
</g>
<!-- Node2&#45;&gt;Node3 -->
<g id="edge2_Node000002_Node000003" class="edge">
<title>Node2&#45;&gt;Node3</title>
<g id="a_edge2_Node000002_Node000003"><a xlink:title=" ">
<path fill="none" stroke="#63b8ff" d="M387.52,-278.23C396.46,-279.18 405.71,-280.17 414.94,-281.15"/>
<polygon fill="#63b8ff" stroke="#63b8ff" points="414.63,-284.64 424.94,-282.22 415.37,-277.68 414.63,-284.64"/>
</a>
</g>
</g>
<!-- Node4 -->
<g id="Node000004" class="node">
<title>Node4</title>
<g id="a_Node000004"><a xlink:href="classSpan_1_1Texture.html#af654e1e521ed18e71b35ca59cce1da75" target="_top" xlink:title="DirectXリソースの取得">
<polygon fill="white" stroke="#666666" points="588.5,-245 437.5,-245 437.5,-226 588.5,-226 588.5,-245"/>
<text text-anchor="middle" x="513" y="-233" font-family="Helvetica,sans-Serif" font-size="10.00">Span::Texture::GetResource</text>
</a>
</g>
</g>
<!-- Node2&#45;&gt;Node4 -->
<g id="edge3_Node000002_Node000004" class="edge">
<title>Node2&#45;&gt;Node4</title>
<g id="a_edge3_Node000002_Node000004"><a xlink:title=" ">
<path fill="none" stroke="#63b8ff" d="M387.52,-257.62C407.51,-254.06 429.04,-250.24 448.48,-246.79"/>
<polygon fill="#63b8ff" stroke="#63b8ff" points="449.2,-250.21 458.44,-245.02 447.98,-243.32 449.2,-250.21"/>
</a>
</g>
</g>
<!-- Node6 -->
<g id="Node000006" class="node">
<title>Node6</title>
<g id="a_Node000006"><a xlink:href="classSpan_1_1Texture.html#acf5cf9a1983bf79f7ab4a66d647aac96" target="_top" xlink:title=" ">
<polygon fill="white" stroke="#666666" points="586,-160 440,-160 440,-141 586,-141 586,-160"/>
<text text-anchor="middle" x="513" y="-148" font-family="Helvetica,sans-Serif" font-size="10.00">Span::Texture::GetUAVCPU</text>
</a>
</g>
</g>
<!-- Node5&#45;&gt;Node6 -->
<g id="edge5_Node000005_Node000006" class="edge">
<title>Node5&#45;&gt;Node6</title>
<g id="a_edge5_Node000005_Node000006"><a xlink:title=" ">
<path fill="none" stroke="#63b8ff" d="M387.52,-165.67C401.29,-163.99 415.79,-162.22 429.84,-160.51"/>
<polygon fill="#63b8ff" stroke="#63b8ff" points="430.46,-163.96 439.97,-159.28 429.62,-157.01 430.46,-163.96"/>
</a>
</g>
</g>
<!-- Node7&#45;&gt;Node6 -->
<g id="edge7_Node000007_Node000006" class="edge">
<title>Node7&#45;&gt;Node6</title>
<g id="a_edge7_Node000007_Node000006"><a xlink:title=" ">
<path fill="none" stroke="#63b8ff" d="M387.52,-135.33C401.29,-137.01 415.79,-138.78 429.84,-140.49"/>
<polygon fill="#63b8ff" stroke="#63b8ff" points="429.62,-143.99 439.97,-141.72 430.46,-137.04 429.62,-143.99"/>
</a>
</g>
</g>
<!-- Node8&#45;&gt;Node4 -->
<g id="edge9_Node000008_Node000004" class="edge">
<title>Node8&#45;&gt;Node4</title>
<g id="a_edge9_Node000008_Node000004"><a xlink:title=" ">
<path fill="none" stroke="#63b8ff" d="M387.52,-227.29C400.46,-228.14 414.04,-229.04 427.28,-229.91"/>
<polygon fill="#63b8ff" stroke="#63b8ff" points="427.12,-233.41 437.33,-230.57 427.58,-226.42 427.12,-233.41"/>
</a>
</g>
</g>
<!-- Node11 -->
<g id="Node000011" class="node">
<title>Node11</title>
<g id="a_Node000011"><a xlink:href="classSpan_1_1Texture.html#a5f376f62e8cc6759217f4bbddad30c97" target="_top" xlink:title=" ">
<polygon fill="white" stroke="#666666" points="592.5,-56 433.5,-56 433.5,-37 592.5,-37 592.5,-56"/>
<text text-anchor="middle" x="513" y="-44" font-family="Helvetica,sans-Serif" font-size="10.00">Span::Texture::UploadTexture</text>
</a>
</g>
</g>
<!-- Node10&#45;&gt;Node11 -->
<g id="edge13_Node000010_Node000011" class="edge">
<title>Node10&#45;&gt;Node11</title>
<g id="a_edge13_Node000010_Node000011"><a xlink:title=" ">
<path fill="none" stroke="#63b8ff" d="M379.51,-46.5C393.45,-46.5 408.44,-46.5 423.14,-46.5"/>
<polygon fill="#63b8ff" stroke="#63b8ff" points="423.25,-50 433.25,-46.5 423.25,-43 423.25,-50"/>
</a>
</g>
</g>
</g>
</svg>

<g id="navigator" transform="translate(0 0)" fill="#404254">
  <rect fill="#f2f5e9" fill-opacity="0.5" stroke="#606060" stroke-width=".5" x="0" y="0" width="60" height="60"/>
  <use id="zoomplus" xlink:href="#zoomPlus" x="17" y="9" onmousedown="handleZoom(evt,'in')"/>
  <use id="zoomminus" xlink:href="#zoomMin" x="42" y="9" onmousedown="handleZoom(evt,'out')"/>
  <use id="reset" xlink:href="#resetDef" x="30" y="36" onmousedown="handleReset()"/>
   <use id="arrowup" xlink:href="#arrowUp" x="0" y="0" onmousedown="handlePan(0,-1)"/>
  <use id="arrowright" xlink:href="#arrowRight" x="0" y="0" onmousedown="handlePan(1,0)"/>
  <use id="arrowdown" xlink:href="#arrowDown" x="0" y="0" onmousedown="handlePan(0,1)"/>
  <use id="arrowleft" xlink:href="#arrowLeft" x="0" y="0" onmousedown="handlePan(-1,0)"/>
</g>
<svg viewBox="0 0 15 15" width="100%" height="30px" preserveAspectRatio="xMaxYMin meet">
 <g id="arrow_out" transform="scale(0.3 0.3)">
  <a xlink:href="classSpan_1_1Renderer_a9616b9e065e231672478eb4db58d4d5f_cgraph_org.svg" target="_base">
   <rect id="button" ry="5" rx="5" y="6" x="6" height="38" width="38"
        fill="#f2f5e9" fill-opacity="0.5" stroke="#606060" stroke-width="1.0"/>
   <path id="arrow"
     d="M 11.500037,31.436501 C 11.940474,20.09759 22.043105,11.32322 32.158766,21.979434 L 37.068811,17.246167 C 37.068811,17.246167 37.088388,32 37.088388,32 L 22.160133,31.978069 C 22.160133,31.978069 26.997745,27.140456 26.997745,27.140456 C 18.528582,18.264221 13.291696,25.230495 11.500037,31.436501 z"
     style="fill:#404040;"/>
  </a>
 </g>
</svg>

<style type='text/css'>
<![CDATA[
[data-mouse-over-selected='false'] { opacity: 0.7; }
[data-mouse-over-selected='true']  { opacity: 1.0; }
]]>
</style>
<script type="application/ecmascript"><![CDATA[
document.addEventListener('DOMContentLoaded', (event) => {
  highlightEdges();
  highlightAdjacentNodes();
});
]]></script>
</svg>
