<?xml version="1.0" encoding="UTF-8" standalone="no"?>
<!DOCTYPE svg PUBLIC "-//W3C//DTD SVG 1.1//EN"
 "http://www.w3.org/Graphics/SVG/1.1/DTD/svg11.dtd">
<!-- Generated by graphviz version 2.43.0 (0)
 -->
<!-- Title: Span::ProjectBrowserPanel::ChangeDirectory Pages: 1 -->
<svg width="700pt" height="104pt"
 viewBox="0.00 0.00 700.00 104.00" xmlns="http://www.w3.org/2000/svg" xmlns:xlink="http://www.w3.org/1999/xlink">
<g id="graph0" class="graph" transform="scale(1 1) rotate(0) translate(4 100)">
<title>Span::ProjectBrowserPanel::ChangeDirectory</title>
<!-- Node1 -->
<g id="Node000001" class="node">
<title>Node1</title>
<g id="a_Node000001"><a xlink:title="ディレクトリ移動(履歴対応)">
<polygon fill="#999999" stroke="#666666" points="692,-63 546,-63 546,-33 692,-33 692,-63"/>
<text text-anchor="start" x="554" y="-51" font-family="Helvetica,sans-Serif" font-size="10.00">Span::ProjectBrowserPanel</text>
<text text-anchor="middle" x="619" y="-40" font-family="Helvetica,sans-Serif" font-size="10.00">::ChangeDirectory</text>
</a>
</g>
</g>
<!-- Node2 -->
<g id="Node000002" class="node">
<title>Node2</title>
<g id="a_Node000002"><a xlink:href="classSpan_1_1ProjectBrowserPanel.html#a61f13161ddf1dcca1a2a1a5a8a865ccc" target="_top" xlink:title="個別のアセットアイテムを描画します。">
<polygon fill="white" stroke="#666666" points="510,-96 364,-96 364,-66 510,-66 510,-96"/>
<text text-anchor="start" x="372" y="-84" font-family="Helvetica,sans-Serif" font-size="10.00">Span::ProjectBrowserPanel</text>
<text text-anchor="middle" x="437" y="-73" font-family="Helvetica,sans-Serif" font-size="10.00">::DrawEntryItem</text>
</a>
</g>
</g>
<!-- Node1&#45;&gt;Node2 -->
<g id="edge1_Node000001_Node000002" class="edge">
<title>Node1&#45;&gt;Node2</title>
<g id="a_edge1_Node000001_Node000002"><a xlink:title=" ">
<path fill="none" stroke="#63b8ff" d="M535.84,-63.06C527.28,-64.63 518.63,-66.22 510.19,-67.76"/>
<polygon fill="#63b8ff" stroke="#63b8ff" points="536.62,-66.48 545.82,-61.23 535.36,-59.59 536.62,-66.48"/>
</a>
</g>
</g>
<!-- Node5 -->
<g id="Node000005" class="node">
<title>Node5</title>
<g id="a_Node000005"><a xlink:href="classSpan_1_1ProjectBrowserPanel.html#a3a88cd4c643e90607f339a3491b9f8fd" target="_top" xlink:title="指定したパスのディレクトリノードを再帰的に描画する。">
<polygon fill="white" stroke="#666666" points="510,-30 364,-30 364,0 510,0 510,-30"/>
<text text-anchor="start" x="372" y="-18" font-family="Helvetica,sans-Serif" font-size="10.00">Span::ProjectBrowserPanel</text>
<text text-anchor="middle" x="437" y="-7" font-family="Helvetica,sans-Serif" font-size="10.00">::DrawTreeNode</text>
</a>
</g>
</g>
<!-- Node1&#45;&gt;Node5 -->
<g id="edge4_Node000001_Node000005" class="edge">
<title>Node1&#45;&gt;Node5</title>
<g id="a_edge4_Node000001_Node000005"><a xlink:title=" ">
<path fill="none" stroke="#63b8ff" d="M535.84,-32.94C527.28,-31.37 518.63,-29.78 510.19,-28.24"/>
<polygon fill="#63b8ff" stroke="#63b8ff" points="535.36,-36.41 545.82,-34.77 536.62,-29.52 535.36,-36.41"/>
</a>
</g>
</g>
<!-- Node3 -->
<g id="Node000003" class="node">
<title>Node3</title>
<g id="a_Node000003"><a xlink:href="classSpan_1_1ProjectBrowserPanel.html#a3877e936c3c6ee4b522ea63dc65dfd3b" target="_top" xlink:title="右側のファイル/アセット一覧エリアを描画します。">
<polygon fill="white" stroke="#666666" points="328,-91 182,-91 182,-61 328,-61 328,-91"/>
<text text-anchor="start" x="190" y="-79" font-family="Helvetica,sans-Serif" font-size="10.00">Span::ProjectBrowserPanel</text>
<text text-anchor="middle" x="255" y="-68" font-family="Helvetica,sans-Serif" font-size="10.00">::DrawContentArea</text>
</a>
</g>
</g>
<!-- Node2&#45;&gt;Node3 -->
<g id="edge2_Node000002_Node000003" class="edge">
<title>Node2&#45;&gt;Node3</title>
<g id="a_edge2_Node000002_Node000003"><a xlink:title=" ">
<path fill="none" stroke="#63b8ff" d="M353.56,-78.71C345.09,-78.47 336.54,-78.24 328.19,-78.01"/>
<polygon fill="#63b8ff" stroke="#63b8ff" points="353.73,-82.22 363.82,-79 353.93,-75.22 353.73,-82.22"/>
</a>
</g>
</g>
<!-- Node4 -->
<g id="Node000004" class="node">
<title>Node4</title>
<g id="a_Node000004"><a xlink:href="classSpan_1_1ProjectBrowserPanel.html#ad259c8cf9a9c066350b699f9cd14438e" target="_top" xlink:title="GUI描画の更新処理">
<polygon fill="white" stroke="#666666" points="146,-63 0,-63 0,-33 146,-33 146,-63"/>
<text text-anchor="start" x="8" y="-51" font-family="Helvetica,sans-Serif" font-size="10.00">Span::ProjectBrowserPanel</text>
<text text-anchor="middle" x="73" y="-40" font-family="Helvetica,sans-Serif" font-size="10.00">::OnImGuiRender</text>
</a>
</g>
</g>
<!-- Node3&#45;&gt;Node4 -->
<g id="edge3_Node000003_Node000004" class="edge">
<title>Node3&#45;&gt;Node4</title>
<g id="a_edge3_Node000003_Node000004"><a xlink:title=" ">
<path fill="none" stroke="#63b8ff" d="M171.84,-63.22C163.28,-61.89 154.63,-60.54 146.19,-59.23"/>
<polygon fill="#63b8ff" stroke="#63b8ff" points="171.41,-66.69 181.82,-64.77 172.48,-59.78 171.41,-66.69"/>
</a>
</g>
</g>
<!-- Node5&#45;&gt;Node5 -->
<g id="edge7_Node000005_Node000005" class="edge">
<title>Node5&#45;&gt;Node5</title>
<g id="a_edge7_Node000005_Node000005"><a xlink:title=" ">
<path fill="none" stroke="#63b8ff" d="M468.86,-40.6C464.5,-44.97 453.88,-48 437,-48 408.56,-48 397.9,-39.41 405.01,-30.28"/>
<polygon fill="#63b8ff" stroke="#63b8ff" points="472.36,-40.32 468.99,-30.28 465.36,-40.23 472.36,-40.32"/>
</a>
</g>
</g>
<!-- Node6 -->
<g id="Node000006" class="node">
<title>Node6</title>
<g id="a_Node000006"><a xlink:href="classSpan_1_1ProjectBrowserPanel.html#a62fbc991ae5a3c977d7ae4a626039cf4" target="_top" xlink:title="左側のディレクトリツリーを描画する。">
<polygon fill="white" stroke="#666666" points="328,-39 182,-39 182,-9 328,-9 328,-39"/>
<text text-anchor="start" x="190" y="-27" font-family="Helvetica,sans-Serif" font-size="10.00">Span::ProjectBrowserPanel</text>
<text text-anchor="middle" x="255" y="-16" font-family="Helvetica,sans-Serif" font-size="10.00">::DrawDirectoryTree</text>
</a>
</g>
</g>
<!-- Node5&#45;&gt;Node6 -->
<g id="edge5_Node000005_Node000006" class="edge">
<title>Node5&#45;&gt;Node6</title>
<g id="a_edge5_Node000005_Node000006"><a xlink:title=" ">
<path fill="none" stroke="#63b8ff" d="M353.56,-19.12C345.09,-19.55 336.54,-19.97 328.19,-20.39"/>
<polygon fill="#63b8ff" stroke="#63b8ff" points="354.01,-22.6 363.82,-18.61 353.66,-15.61 354.01,-22.6"/>
</a>
</g>
</g>
<!-- Node6&#45;&gt;Node4 -->
<g id="edge6_Node000006_Node000004" class="edge">
<title>Node6&#45;&gt;Node4</title>
<g id="a_edge6_Node000006_Node000004"><a xlink:title=" ">
<path fill="none" stroke="#63b8ff" d="M171.84,-34.95C163.28,-36.1 154.63,-37.25 146.19,-38.37"/>
<polygon fill="#63b8ff" stroke="#63b8ff" points="172.37,-38.41 181.82,-33.62 171.45,-31.48 172.37,-38.41"/>
</a>
</g>
</g>
</g>
</svg>
