<?xml version="1.0" encoding="UTF-8" standalone="no"?>
<!DOCTYPE svg PUBLIC "-//W3C//DTD SVG 1.1//EN"
 "http://www.w3.org/Graphics/SVG/1.1/DTD/svg11.dtd">
<!-- Generated by graphviz version 2.43.0 (0)
 -->
<!-- Title: Span::ProjectBrowserPanel::DrawContextMenu Pages: 1 -->
<svg width="518pt" height="220pt"
 viewBox="0.00 0.00 518.00 220.00" xmlns="http://www.w3.org/2000/svg" xmlns:xlink="http://www.w3.org/1999/xlink">
<g id="graph0" class="graph" transform="scale(1 1) rotate(0) translate(4 216)">
<title>Span::ProjectBrowserPanel::DrawContextMenu</title>
<!-- Node1 -->
<g id="Node000001" class="node">
<title>Node1</title>
<g id="a_Node000001"><a xlink:title="右クリックコンテキストメニューを描画します。">
<polygon fill="#999999" stroke="#666666" points="146,-121 0,-121 0,-91 146,-91 146,-121"/>
<text text-anchor="start" x="8" y="-109" font-family="Helvetica,sans-Serif" font-size="10.00">Span::ProjectBrowserPanel</text>
<text text-anchor="middle" x="73" y="-98" font-family="Helvetica,sans-Serif" font-size="10.00">::DrawContextMenu</text>
</a>
</g>
</g>
<!-- Node2 -->
<g id="Node000002" class="node">
<title>Node2</title>
<g id="a_Node000002"><a xlink:href="classSpan_1_1ProjectBrowserPanel.html#a9c8bd4d52ec6a953f4708efdb2514507" target="_top" xlink:title="C++ コンポーネントのテンプレートを生成します。">
<polygon fill="white" stroke="#666666" points="328,-212 182,-212 182,-182 328,-182 328,-212"/>
<text text-anchor="start" x="190" y="-200" font-family="Helvetica,sans-Serif" font-size="10.00">Span::ProjectBrowserPanel</text>
<text text-anchor="middle" x="255" y="-189" font-family="Helvetica,sans-Serif" font-size="10.00">::CreateComponentScript</text>
</a>
</g>
</g>
<!-- Node1&#45;&gt;Node2 -->
<g id="edge1_Node000001_Node000002" class="edge">
<title>Node1&#45;&gt;Node2</title>
<g id="a_edge1_Node000001_Node000002"><a xlink:title=" ">
<path fill="none" stroke="#63b8ff" d="M95.09,-121.15C116.27,-135.87 150.24,-158.1 182,-173 186,-174.88 190.19,-176.67 194.44,-178.38"/>
<polygon fill="#63b8ff" stroke="#63b8ff" points="193.24,-181.66 203.83,-181.96 195.74,-175.12 193.24,-181.66"/>
</a>
</g>
</g>
<!-- Node3 -->
<g id="Node000003" class="node">
<title>Node3</title>
<g id="a_Node000003"><a xlink:href="classSpan_1_1ProjectBrowserPanel.html#a81fd9fb886e478f14222e91c2ca43d7f" target="_top" xlink:title="テンプレートからファイルを生成します。">
<polygon fill="white" stroke="#666666" points="328,-164 182,-164 182,-134 328,-134 328,-164"/>
<text text-anchor="start" x="190" y="-152" font-family="Helvetica,sans-Serif" font-size="10.00">Span::ProjectBrowserPanel</text>
<text text-anchor="middle" x="255" y="-141" font-family="Helvetica,sans-Serif" font-size="10.00">::CreateFileFromTemplate</text>
</a>
</g>
</g>
<!-- Node1&#45;&gt;Node3 -->
<g id="edge2_Node000001_Node000003" class="edge">
<title>Node1&#45;&gt;Node3</title>
<g id="a_edge2_Node000001_Node000003"><a xlink:title=" ">
<path fill="none" stroke="#63b8ff" d="M136.96,-121.04C151.21,-124.44 166.45,-128.09 181.08,-131.58"/>
<polygon fill="#63b8ff" stroke="#63b8ff" points="180.54,-135.05 191.08,-133.97 182.17,-128.24 180.54,-135.05"/>
</a>
</g>
</g>
<!-- Node4 -->
<g id="Node000004" class="node">
<title>Node4</title>
<g id="a_Node000004"><a xlink:href="classSpan_1_1ProjectBrowserPanel.html#a7b1af5b6e52d5d7dc6afe0cc6d32407a" target="_top" xlink:title="コマンド実行用ラッパー">
<polygon fill="white" stroke="#666666" points="510,-142 364,-142 364,-112 510,-112 510,-142"/>
<text text-anchor="start" x="372" y="-130" font-family="Helvetica,sans-Serif" font-size="10.00">Span::ProjectBrowserPanel</text>
<text text-anchor="middle" x="437" y="-119" font-family="Helvetica,sans-Serif" font-size="10.00">::ExecuteCommand</text>
</a>
</g>
</g>
<!-- Node1&#45;&gt;Node4 -->
<g id="edge5_Node000001_Node000004" class="edge">
<title>Node1&#45;&gt;Node4</title>
<g id="a_edge5_Node000001_Node000004"><a xlink:title=" ">
<path fill="none" stroke="#63b8ff" d="M146.39,-110.2C206.19,-113.67 291.11,-118.59 353.53,-122.22"/>
<polygon fill="#63b8ff" stroke="#63b8ff" points="353.55,-125.72 363.74,-122.81 353.96,-118.73 353.55,-125.72"/>
</a>
</g>
</g>
<!-- Node5 -->
<g id="Node000005" class="node">
<title>Node5</title>
<g id="a_Node000005"><a xlink:href="classSpan_1_1ProjectBrowserPanel.html#a5c90e6fb529021ba52ce62765c93009c" target="_top" xlink:title="C++ システムのテンプレートを生成します。">
<polygon fill="white" stroke="#666666" points="328,-78 182,-78 182,-48 328,-48 328,-78"/>
<text text-anchor="start" x="190" y="-66" font-family="Helvetica,sans-Serif" font-size="10.00">Span::ProjectBrowserPanel</text>
<text text-anchor="middle" x="255" y="-55" font-family="Helvetica,sans-Serif" font-size="10.00">::CreateSystemScript</text>
</a>
</g>
</g>
<!-- Node1&#45;&gt;Node5 -->
<g id="edge4_Node000001_Node000005" class="edge">
<title>Node1&#45;&gt;Node5</title>
<g id="a_edge4_Node000001_Node000005"><a xlink:title=" ">
<path fill="none" stroke="#63b8ff" d="M136.96,-90.96C151.21,-87.56 166.45,-83.91 181.08,-80.42"/>
<polygon fill="#63b8ff" stroke="#63b8ff" points="182.17,-83.76 191.08,-78.03 180.54,-76.95 182.17,-83.76"/>
</a>
</g>
</g>
<!-- Node6 -->
<g id="Node000006" class="node">
<title>Node6</title>
<g id="a_Node000006"><a xlink:href="classSpan_1_1EditorFileSystem.html#a8605b55dcb8b7650b1963e28e3ea6747" target="_top" xlink:title="エクスプローラーで指定のパスを開きます。">
<polygon fill="white" stroke="#666666" points="319.5,-30 190.5,-30 190.5,0 319.5,0 319.5,-30"/>
<text text-anchor="start" x="198.5" y="-18" font-family="Helvetica,sans-Serif" font-size="10.00">Span::EditorFileSystem</text>
<text text-anchor="middle" x="255" y="-7" font-family="Helvetica,sans-Serif" font-size="10.00">::OpenInExplorer</text>
</a>
</g>
</g>
<!-- Node1&#45;&gt;Node6 -->
<g id="edge6_Node000001_Node000006" class="edge">
<title>Node1&#45;&gt;Node6</title>
<g id="a_edge6_Node000001_Node000006"><a xlink:title=" ">
<path fill="none" stroke="#63b8ff" d="M95.09,-90.85C116.27,-76.13 150.24,-53.9 182,-39 186,-37.12 190.19,-35.33 194.44,-33.62"/>
<polygon fill="#63b8ff" stroke="#63b8ff" points="195.74,-36.88 203.83,-30.04 193.24,-30.34 195.74,-36.88"/>
</a>
</g>
</g>
<!-- Node3&#45;&gt;Node4 -->
<g id="edge3_Node000003_Node000004" class="edge">
<title>Node3&#45;&gt;Node4</title>
<g id="a_edge3_Node000003_Node000004"><a xlink:title=" ">
<path fill="none" stroke="#63b8ff" d="M328.18,-140.18C336.61,-139.15 345.27,-138.09 353.82,-137.04"/>
<polygon fill="#63b8ff" stroke="#63b8ff" points="354.31,-140.51 363.81,-135.82 353.46,-133.56 354.31,-140.51"/>
</a>
</g>
</g>
</g>
</svg>
