<?xml version="1.0" encoding="UTF-8" standalone="no"?>
<!DOCTYPE svg PUBLIC "-//W3C//DTD SVG 1.1//EN"
 "http://www.w3.org/Graphics/SVG/1.1/DTD/svg11.dtd">
<!-- Generated by graphviz version 2.43.0 (0)
 -->
<!-- Title: Span::SceneViewPanel::OnAssetDropped Pages: 1 -->
<svg width="1382pt" height="435pt"
 viewBox="0.00 0.00 1382.00 435.00" xmlns="http://www.w3.org/2000/svg" xmlns:xlink="http://www.w3.org/1999/xlink">
<g id="graph0" class="graph" transform="scale(1 1) rotate(0) translate(4 431)">
<title>Span::SceneViewPanel::OnAssetDropped</title>
<!-- Node1 -->
<g id="Node000001" class="node">
<title>Node1</title>
<g id="a_Node000001"><a xlink:title="外部またはブラウザからドロップされたファイルを処理します。">
<polygon fill="#999999" stroke="#666666" points="126,-256 0,-256 0,-226 126,-226 126,-256"/>
<text text-anchor="start" x="8" y="-244" font-family="Helvetica,sans-Serif" font-size="10.00">Span::SceneViewPanel</text>
<text text-anchor="middle" x="63" y="-233" font-family="Helvetica,sans-Serif" font-size="10.00">::OnAssetDropped</text>
</a>
</g>
</g>
<!-- Node2 -->
<g id="Node000002" class="node">
<title>Node2</title>
<g id="a_Node000002"><a xlink:href="classSpan_1_1EntityBuilder.html#a38373dfa38793362a5925c11f7df578e" target="_top" xlink:title="コンポーネントを追加し、初期値を設定します。">
<polygon fill="white" stroke="#666666" points="296,-355.5 162,-355.5 162,-336.5 296,-336.5 296,-355.5"/>
<text text-anchor="middle" x="229" y="-343.5" font-family="Helvetica,sans-Serif" font-size="10.00">Span::EntityBuilder::Add</text>
</a>
</g>
</g>
<!-- Node1&#45;&gt;Node2 -->
<g id="edge1_Node000001_Node000002" class="edge">
<title>Node1&#45;&gt;Node2</title>
<g id="a_edge1_Node000001_Node000002"><a xlink:title=" ">
<path fill="none" stroke="#63b8ff" d="M79.53,-256.04C97.98,-273.29 130.26,-301.54 162,-320 170.29,-324.82 179.64,-329.11 188.64,-332.75"/>
<polygon fill="#63b8ff" stroke="#63b8ff" points="187.61,-336.11 198.2,-336.44 190.13,-329.58 187.61,-336.11"/>
</a>
</g>
</g>
<!-- Node4 -->
<g id="Node000004" class="node">
<title>Node4</title>
<g id="a_Node000004"><a xlink:href="classSpan_1_1Application.html#ae2e9eaebe90ffdf55cfef9d74ccbce3e" target="_top" xlink:title="シングルトンインスタンスの取得">
<polygon fill="white" stroke="#666666" points="291.5,-272.5 166.5,-272.5 166.5,-253.5 291.5,-253.5 291.5,-272.5"/>
<text text-anchor="middle" x="229" y="-260.5" font-family="Helvetica,sans-Serif" font-size="10.00">Span::Application::Get</text>
</a>
</g>
</g>
<!-- Node1&#45;&gt;Node4 -->
<g id="edge3_Node000001_Node000004" class="edge">
<title>Node1&#45;&gt;Node4</title>
<g id="a_edge3_Node000001_Node000004"><a xlink:title=" ">
<path fill="none" stroke="#63b8ff" d="M126,-249.32C135.93,-250.65 146.28,-252.04 156.42,-253.4"/>
<polygon fill="#63b8ff" stroke="#63b8ff" points="156.08,-256.88 166.45,-254.74 157.01,-249.95 156.08,-256.88"/>
</a>
</g>
</g>
<!-- Node8 -->
<g id="Node000008" class="node">
<title>Node8</title>
<g id="a_Node000008"><a xlink:href="classSpan_1_1AssetManager.html#a8b80e59ea529e23c8c8f5280d136fbf0" target="_top" xlink:title="シングルトンインスタンスを取得します。">
<polygon fill="white" stroke="#666666" points="654,-421.5 514,-421.5 514,-402.5 654,-402.5 654,-421.5"/>
<text text-anchor="middle" x="584" y="-409.5" font-family="Helvetica,sans-Serif" font-size="10.00">Span::AssetManager::Get</text>
</a>
</g>
</g>
<!-- Node1&#45;&gt;Node8 -->
<g id="edge26_Node000001_Node000008" class="edge">
<title>Node1&#45;&gt;Node8</title>
<g id="a_edge26_Node000001_Node000008"><a xlink:title=" ">
<path fill="none" stroke="#63b8ff" d="M94.18,-256.01C113.2,-264.87 138.52,-275.57 162,-282 228.87,-300.31 414.34,-285.05 471,-325 499.27,-344.93 479.7,-372.76 507,-394 508.78,-395.39 510.65,-396.67 512.6,-397.86"/>
<polygon fill="#63b8ff" stroke="#63b8ff" points="511.02,-400.98 521.51,-402.46 514.23,-394.76 511.02,-400.98"/>
</a>
</g>
</g>
<!-- Node25 -->
<g id="Node000025" class="node">
<title>Node25</title>
<g id="a_Node000025"><a xlink:href="classSpan_1_1AssetManager.html#a98a270b7faf1990407f7082143e437d6" target="_top" xlink:title="デフォルト (標準) のマテリアルを取得します。 シェーダーやマテリアルが存在しない場合は内部で生成します。">
<polygon fill="white" stroke="#666666" points="287,-235 171,-235 171,-205 287,-205 287,-235"/>
<text text-anchor="start" x="179" y="-223" font-family="Helvetica,sans-Serif" font-size="10.00">Span::AssetManager</text>
<text text-anchor="middle" x="229" y="-212" font-family="Helvetica,sans-Serif" font-size="10.00">::GetDefaultMaterial</text>
</a>
</g>
</g>
<!-- Node1&#45;&gt;Node25 -->
<g id="edge27_Node000001_Node000025" class="edge">
<title>Node1&#45;&gt;Node25</title>
<g id="a_edge27_Node000001_Node000025"><a xlink:title=" ">
<path fill="none" stroke="#63b8ff" d="M126,-233.06C137.37,-231.61 149.28,-230.08 160.79,-228.61"/>
<polygon fill="#63b8ff" stroke="#63b8ff" points="161.3,-232.07 170.77,-227.33 160.41,-225.13 161.3,-232.07"/>
</a>
</g>
</g>
<!-- Node26 -->
<g id="Node000026" class="node">
<title>Node26</title>
<g id="a_Node000026"><a xlink:href="classSpan_1_1AssetManager.html#a8013680152c26b9e11618a2bb207eff0" target="_top" xlink:title="GUIDでメッシュを取得 (推奨)">
<polygon fill="white" stroke="#666666" points="287,-116 171,-116 171,-86 287,-86 287,-116"/>
<text text-anchor="start" x="179" y="-104" font-family="Helvetica,sans-Serif" font-size="10.00">Span::AssetManager</text>
<text text-anchor="middle" x="229" y="-93" font-family="Helvetica,sans-Serif" font-size="10.00">::GetMesh</text>
</a>
</g>
</g>
<!-- Node1&#45;&gt;Node26 -->
<g id="edge28_Node000001_Node000026" class="edge">
<title>Node1&#45;&gt;Node26</title>
<g id="a_edge28_Node000001_Node000026"><a xlink:title=" ">
<path fill="none" stroke="#63b8ff" d="M81.86,-225.75C110.95,-200.92 168.64,-151.67 202.18,-123.04"/>
<polygon fill="#63b8ff" stroke="#63b8ff" points="204.83,-125.38 210.16,-116.23 200.28,-120.06 204.83,-125.38"/>
</a>
</g>
</g>
<!-- Node31 -->
<g id="Node000031" class="node">
<title>Node31</title>
<g id="a_Node000031"><a xlink:href="classSpan_1_1SelectionManager.html#ab8b65d4a89427d47afa3e6c4ab68159a" target="_top" xlink:title="選択リストをクリアし、指定したEntityのみを選択状態にします (Click相当)。">
<polygon fill="white" stroke="#666666" points="296,-68 162,-68 162,-38 296,-38 296,-68"/>
<text text-anchor="start" x="170" y="-56" font-family="Helvetica,sans-Serif" font-size="10.00">Span::SelectionManager</text>
<text text-anchor="middle" x="229" y="-45" font-family="Helvetica,sans-Serif" font-size="10.00">::Select</text>
</a>
</g>
</g>
<!-- Node1&#45;&gt;Node31 -->
<g id="edge34_Node000001_Node000031" class="edge">
<title>Node1&#45;&gt;Node31</title>
<g id="a_edge34_Node000001_Node000031"><a xlink:title=" ">
<path fill="none" stroke="#63b8ff" d="M69.19,-225.51C80.75,-193.3 111.63,-118.62 162,-77 163.55,-75.72 165.18,-74.5 166.86,-73.35"/>
<polygon fill="#63b8ff" stroke="#63b8ff" points="168.89,-76.21 175.69,-68.09 165.31,-70.2 168.89,-76.21"/>
</a>
</g>
</g>
<!-- Node3 -->
<g id="Node000003" class="node">
<title>Node3</title>
<g id="a_Node000003"><a xlink:href="classSpan_1_1EntityBuilder.html#afef310a392dbdfdaee2008ad5765b7c2" target="_top" xlink:title="ビルダーを開始し、基本構成を持つEntityを作成します。">
<polygon fill="white" stroke="#666666" points="456.5,-364 346.5,-364 346.5,-334 456.5,-334 456.5,-364"/>
<text text-anchor="start" x="354.5" y="-352" font-family="Helvetica,sans-Serif" font-size="10.00">Span::EntityBuilder</text>
<text text-anchor="middle" x="401.5" y="-341" font-family="Helvetica,sans-Serif" font-size="10.00">::EntityBuilder</text>
</a>
</g>
</g>
<!-- Node2&#45;&gt;Node3 -->
<g id="edge2_Node000002_Node000003" class="edge">
<title>Node2&#45;&gt;Node3</title>
<g id="a_edge2_Node000002_Node000003"><a xlink:title=" ">
<path fill="none" stroke="#63b8ff" d="M296.41,-347.17C309.47,-347.4 323.15,-347.64 336.14,-347.87"/>
<polygon fill="#63b8ff" stroke="#63b8ff" points="336.32,-351.37 346.38,-348.05 336.45,-344.37 336.32,-351.37"/>
</a>
</g>
</g>
<!-- Node5 -->
<g id="Node000005" class="node">
<title>Node5</title>
<g id="a_Node000005"><a xlink:href="classSpan_1_1Application.html#a0c44e973ca5db1d23a02a2cee66f5c11" target="_top" xlink:title=" ">
<polygon fill="white" stroke="#666666" points="455,-278 348,-278 348,-248 455,-248 455,-278"/>
<text text-anchor="start" x="356" y="-266" font-family="Helvetica,sans-Serif" font-size="10.00">Span::Application::</text>
<text text-anchor="middle" x="401.5" y="-255" font-family="Helvetica,sans-Serif" font-size="10.00">Application</text>
</a>
</g>
</g>
<!-- Node4&#45;&gt;Node5 -->
<g id="edge4_Node000004_Node000005" class="edge">
<title>Node4&#45;&gt;Node5</title>
<g id="a_edge4_Node000004_Node000005"><a xlink:title=" ">
<path fill="none" stroke="#63b8ff" d="M291.55,-263C306.51,-263 322.53,-263 337.55,-263"/>
<polygon fill="#63b8ff" stroke="#63b8ff" points="337.76,-266.5 347.76,-263 337.76,-259.5 337.76,-266.5"/>
</a>
</g>
</g>
<!-- Node6 -->
<g id="Node000006" class="node">
<title>Node6</title>
<g id="a_Node000006"><a xlink:href="namespaceSpan.html#a3f4b8561d46e69596ba6a7c3177a92e7" target="_top" xlink:title=" ">
<polygon fill="white" stroke="#666666" points="654.5,-310.5 513.5,-310.5 513.5,-291.5 654.5,-291.5 654.5,-310.5"/>
<text text-anchor="middle" x="584" y="-298.5" font-family="Helvetica,sans-Serif" font-size="10.00">Span::ConsoleCtrlHandler</text>
</a>
</g>
</g>
<!-- Node5&#45;&gt;Node6 -->
<g id="edge5_Node000005_Node000006" class="edge">
<title>Node5&#45;&gt;Node6</title>
<g id="a_edge5_Node000005_Node000006"><a xlink:title=" ">
<path fill="none" stroke="#63b8ff" d="M455.19,-274.09C477.94,-278.88 504.57,-284.49 527.62,-289.34"/>
<polygon fill="#63b8ff" stroke="#63b8ff" points="527.08,-292.8 537.59,-291.44 528.52,-285.95 527.08,-292.8"/>
</a>
</g>
</g>
<!-- Node5&#45;&gt;Node8 -->
<g id="edge8_Node000005_Node000008" class="edge">
<title>Node5&#45;&gt;Node8</title>
<g id="a_edge8_Node000005_Node000008"><a xlink:title=" ">
<path fill="none" stroke="#63b8ff" d="M452.14,-278.04C459.11,-281.76 465.69,-286.36 471,-292 503.94,-327.02 471.24,-361.87 507,-394 508.17,-395.05 509.38,-396.04 510.64,-396.97"/>
<polygon fill="#63b8ff" stroke="#63b8ff" points="509.14,-400.16 519.5,-402.38 512.79,-394.18 509.14,-400.16"/>
</a>
</g>
</g>
<!-- Node10 -->
<g id="Node000010" class="node">
<title>Node10</title>
<g id="a_Node000010"><a xlink:href="classSpan_1_1AssetManager.html#a69ad0e84f0e86f10a14693275d0872f2" target="_top" xlink:title="マネージャーを初期化します。">
<polygon fill="white" stroke="#666666" points="642,-197 526,-197 526,-167 642,-167 642,-197"/>
<text text-anchor="start" x="534" y="-185" font-family="Helvetica,sans-Serif" font-size="10.00">Span::AssetManager</text>
<text text-anchor="middle" x="584" y="-174" font-family="Helvetica,sans-Serif" font-size="10.00">::Initialize</text>
</a>
</g>
</g>
<!-- Node5&#45;&gt;Node10 -->
<g id="edge10_Node000005_Node000010" class="edge">
<title>Node5&#45;&gt;Node10</title>
<g id="a_edge10_Node000005_Node000010"><a xlink:title=" ">
<path fill="none" stroke="#63b8ff" d="M427.65,-247.92C448.45,-235.84 479,-219 507,-207 512.32,-204.72 517.91,-202.52 523.56,-200.44"/>
<polygon fill="#63b8ff" stroke="#63b8ff" points="524.83,-203.7 533.07,-197.04 522.47,-197.11 524.83,-203.7"/>
</a>
</g>
</g>
<!-- Node19 -->
<g id="Node000019" class="node">
<title>Node19</title>
<g id="a_Node000019"><a xlink:href="classSpan_1_1GuiManager.html#ab78e1a284f6d5aced7912c00ab43c559" target="_top" xlink:title="ImGuiコンテキストとバックエンドを初期化します。">
<polygon fill="white" stroke="#666666" points="661,-234.5 507,-234.5 507,-215.5 661,-215.5 661,-234.5"/>
<text text-anchor="middle" x="584" y="-222.5" font-family="Helvetica,sans-Serif" font-size="10.00">Span::GuiManager::Initialize</text>
</a>
</g>
</g>
<!-- Node5&#45;&gt;Node19 -->
<g id="edge20_Node000005_Node000019" class="edge">
<title>Node5&#45;&gt;Node19</title>
<g id="a_edge20_Node000005_Node000019"><a xlink:title=" ">
<path fill="none" stroke="#63b8ff" d="M455.19,-251.91C477.94,-247.12 504.57,-241.51 527.62,-236.66"/>
<polygon fill="#63b8ff" stroke="#63b8ff" points="528.52,-240.05 537.59,-234.56 527.08,-233.2 528.52,-240.05"/>
</a>
</g>
</g>
<!-- Node22 -->
<g id="Node000022" class="node">
<title>Node22</title>
<g id="a_Node000022"><a xlink:href="classSpan_1_1Input.html#aac6e8f1cf694b484ed01742f2d16d63c" target="_top" xlink:title=" ">
<polygon fill="white" stroke="#666666" points="643.5,-148.5 524.5,-148.5 524.5,-129.5 643.5,-129.5 643.5,-148.5"/>
<text text-anchor="middle" x="584" y="-136.5" font-family="Helvetica,sans-Serif" font-size="10.00">Span::Input::Initialize</text>
</a>
</g>
</g>
<!-- Node5&#45;&gt;Node22 -->
<g id="edge23_Node000005_Node000022" class="edge">
<title>Node5&#45;&gt;Node22</title>
<g id="a_edge23_Node000005_Node000022"><a xlink:title=" ">
<path fill="none" stroke="#63b8ff" d="M413.16,-247.92C430.26,-224.91 466.07,-181.24 507,-158 510.97,-155.75 515.2,-153.76 519.55,-152.01"/>
<polygon fill="#63b8ff" stroke="#63b8ff" points="521.02,-155.2 529.25,-148.53 518.65,-148.61 521.02,-155.2"/>
</a>
</g>
</g>
<!-- Node23 -->
<g id="Node000023" class="node">
<title>Node23</title>
<g id="a_Node000023"><a xlink:href="classSpan_1_1Logger.html#a557d77ccfa31551817d7b28d985866c8" target="_top" xlink:title="ロガーを初期化し、ログファイルを開きます。">
<polygon fill="white" stroke="#666666" points="648,-384.5 520,-384.5 520,-365.5 648,-365.5 648,-384.5"/>
<text text-anchor="middle" x="584" y="-372.5" font-family="Helvetica,sans-Serif" font-size="10.00">Span::Logger::Initialize</text>
</a>
</g>
</g>
<!-- Node5&#45;&gt;Node23 -->
<g id="edge24_Node000005_Node000023" class="edge">
<title>Node5&#45;&gt;Node23</title>
<g id="a_edge24_Node000005_Node000023"><a xlink:title=" ">
<path fill="none" stroke="#63b8ff" d="M449.93,-278.14C457.5,-281.89 464.86,-286.47 471,-292 495.55,-314.09 480.69,-337.05 507,-357 508.8,-358.36 510.69,-359.63 512.64,-360.8"/>
<polygon fill="#63b8ff" stroke="#63b8ff" points="511.1,-363.94 521.6,-365.35 514.27,-357.7 511.1,-363.94"/>
</a>
</g>
</g>
<!-- Node24 -->
<g id="Node000024" class="node">
<title>Node24</title>
<g id="a_Node000024"><a xlink:href="classSpan_1_1Time.html#ae9e018cd0d5a3b34b773e80c750860e7" target="_top" xlink:title="初期化（エンジン起動時）">
<polygon fill="white" stroke="#666666" points="643.5,-347.5 524.5,-347.5 524.5,-328.5 643.5,-328.5 643.5,-347.5"/>
<text text-anchor="middle" x="584" y="-335.5" font-family="Helvetica,sans-Serif" font-size="10.00">Span::Time::Initialize</text>
</a>
</g>
</g>
<!-- Node5&#45;&gt;Node24 -->
<g id="edge25_Node000005_Node000024" class="edge">
<title>Node5&#45;&gt;Node24</title>
<g id="a_edge25_Node000005_Node000024"><a xlink:title=" ">
<path fill="none" stroke="#63b8ff" d="M442.84,-278.01C452.31,-282.1 462.2,-286.84 471,-292 488.48,-302.26 488.72,-311.24 507,-320 511.1,-321.96 515.43,-323.72 519.86,-325.3"/>
<polygon fill="#63b8ff" stroke="#63b8ff" points="519.07,-328.72 529.66,-328.45 521.22,-322.06 519.07,-328.72"/>
</a>
</g>
</g>
<!-- Node7 -->
<g id="Node000007" class="node">
<title>Node7</title>
<g id="a_Node000007"><a xlink:href="classSpan_1_1Application.html#a095598d0c2e753bfb8d00acee435980f" target="_top" xlink:title="シングルトンインスタンスのポインタ取得 (存在チェック用)">
<polygon fill="white" stroke="#666666" points="839.5,-309.5 718.5,-309.5 718.5,-290.5 839.5,-290.5 839.5,-309.5"/>
<text text-anchor="middle" x="779" y="-297.5" font-family="Helvetica,sans-Serif" font-size="10.00">Span::Application::Ptr</text>
</a>
</g>
</g>
<!-- Node6&#45;&gt;Node7 -->
<g id="edge6_Node000006_Node000007" class="edge">
<title>Node6&#45;&gt;Node7</title>
<g id="a_edge6_Node000006_Node000007"><a xlink:title=" ">
<path fill="none" stroke="#63b8ff" d="M654.68,-300.64C672.1,-300.55 690.78,-300.45 708.21,-300.36"/>
<polygon fill="#63b8ff" stroke="#63b8ff" points="708.32,-303.86 718.3,-300.31 708.29,-296.86 708.32,-303.86"/>
</a>
</g>
</g>
<!-- Node7&#45;&gt;Node5 -->
<g id="edge7_Node000007_Node000005" class="edge">
<title>Node7&#45;&gt;Node5</title>
<g id="a_edge7_Node000007_Node000005"><a xlink:title=" ">
<path fill="none" stroke="#63b8ff" d="M718.28,-290.53C699.94,-287.84 679.67,-285.08 661,-283 594.31,-275.58 517.64,-270.02 465.23,-266.67"/>
<polygon fill="#63b8ff" stroke="#63b8ff" points="465.28,-263.17 455.08,-266.03 464.84,-270.15 465.28,-263.17"/>
</a>
</g>
</g>
<!-- Node9 -->
<g id="Node000009" class="node">
<title>Node9</title>
<g id="a_Node000009"><a xlink:href="classSpan_1_1AssetManager.html#a9d65496b728f9a4fef2a5334d5a8ad56" target="_top" xlink:title=" ">
<polygon fill="white" stroke="#666666" points="837,-427 721,-427 721,-397 837,-397 837,-427"/>
<text text-anchor="start" x="729" y="-415" font-family="Helvetica,sans-Serif" font-size="10.00">Span::AssetManager</text>
<text text-anchor="middle" x="779" y="-404" font-family="Helvetica,sans-Serif" font-size="10.00">::AssetManager</text>
</a>
</g>
</g>
<!-- Node8&#45;&gt;Node9 -->
<g id="edge9_Node000008_Node000009" class="edge">
<title>Node8&#45;&gt;Node9</title>
<g id="a_edge9_Node000008_Node000009"><a xlink:title=" ">
<path fill="none" stroke="#63b8ff" d="M654.13,-412C672.57,-412 692.45,-412 710.79,-412"/>
<polygon fill="#63b8ff" stroke="#63b8ff" points="710.79,-415.5 720.79,-412 710.79,-408.5 710.79,-415.5"/>
</a>
</g>
</g>
<!-- Node11 -->
<g id="Node000011" class="node">
<title>Node11</title>
<g id="a_Node000011"><a xlink:href="classSpan_1_1AssetRegistry.html#a2b83eeb5aa2e6d4c807d4e4a11db563c" target="_top" xlink:title=" ">
<polygon fill="white" stroke="#666666" points="847.5,-129.5 710.5,-129.5 710.5,-110.5 847.5,-110.5 847.5,-129.5"/>
<text text-anchor="middle" x="779" y="-117.5" font-family="Helvetica,sans-Serif" font-size="10.00">Span::AssetRegistry::Get</text>
</a>
</g>
</g>
<!-- Node10&#45;&gt;Node11 -->
<g id="edge11_Node000010_Node000011" class="edge">
<title>Node10&#45;&gt;Node11</title>
<g id="a_edge11_Node000010_Node000011"><a xlink:title=" ">
<path fill="none" stroke="#63b8ff" d="M631.72,-166.99C664.44,-156.48 707.66,-142.59 738.63,-132.65"/>
<polygon fill="#63b8ff" stroke="#63b8ff" points="739.77,-135.96 748.22,-129.57 737.63,-129.29 739.77,-135.96"/>
</a>
</g>
</g>
<!-- Node12 -->
<g id="Node000012" class="node">
<title>Node12</title>
<g id="a_Node000012"><a xlink:href="classSpan_1_1AssetRegistry.html#a71c0e006b41117cb0b296adaf0de1c56" target="_top" xlink:title="指定ディレクトリ以下の全アセットをスキャンし、レジストリを構築します。">
<polygon fill="white" stroke="#666666" points="836,-197 722,-197 722,-167 836,-167 836,-197"/>
<text text-anchor="start" x="730" y="-185" font-family="Helvetica,sans-Serif" font-size="10.00">Span::AssetRegistry</text>
<text text-anchor="middle" x="779" y="-174" font-family="Helvetica,sans-Serif" font-size="10.00">::Refresh</text>
</a>
</g>
</g>
<!-- Node10&#45;&gt;Node12 -->
<g id="edge12_Node000010_Node000012" class="edge">
<title>Node10&#45;&gt;Node12</title>
<g id="a_edge12_Node000010_Node000012"><a xlink:title=" ">
<path fill="none" stroke="#63b8ff" d="M642.12,-182C663.91,-182 688.92,-182 711.51,-182"/>
<polygon fill="#63b8ff" stroke="#63b8ff" points="711.69,-185.5 721.69,-182 711.69,-178.5 711.69,-185.5"/>
</a>
</g>
</g>
<!-- Node13 -->
<g id="Node000013" class="node">
<title>Node13</title>
<g id="a_Node000013"><a xlink:href="classSpan_1_1AssetRegistry.html#a432dbe6ae1b0ab930bd903d93ad5a734" target="_top" xlink:title="パスからアセット情報を登録・更新します (ファイル移動/作成時用)。">
<polygon fill="white" stroke="#666666" points="1011,-197 897,-197 897,-167 1011,-167 1011,-197"/>
<text text-anchor="start" x="905" y="-185" font-family="Helvetica,sans-Serif" font-size="10.00">Span::AssetRegistry</text>
<text text-anchor="middle" x="954" y="-174" font-family="Helvetica,sans-Serif" font-size="10.00">::RegisterAsset</text>
</a>
</g>
</g>
<!-- Node12&#45;&gt;Node13 -->
<g id="edge13_Node000012_Node000013" class="edge">
<title>Node12&#45;&gt;Node13</title>
<g id="a_edge13_Node000012_Node000013"><a xlink:title=" ">
<path fill="none" stroke="#63b8ff" d="M836.17,-182C852.26,-182 869.96,-182 886.61,-182"/>
<polygon fill="#63b8ff" stroke="#63b8ff" points="886.82,-185.5 896.82,-182 886.82,-178.5 886.82,-185.5"/>
</a>
</g>
</g>
<!-- Node14 -->
<g id="Node000014" class="node">
<title>Node14</title>
<g id="a_Node000014"><a xlink:href="structSpan_1_1AssetMetadata.html#a83c8ed8bfd79a2aa90ed8d4e36b785b8" target="_top" xlink:title=" ">
<polygon fill="white" stroke="#666666" points="1356.5,-224 1236.5,-224 1236.5,-194 1356.5,-194 1356.5,-224"/>
<text text-anchor="start" x="1244.5" y="-212" font-family="Helvetica,sans-Serif" font-size="10.00">Span::AssetMetadata</text>
<text text-anchor="middle" x="1296.5" y="-201" font-family="Helvetica,sans-Serif" font-size="10.00">::IsValid</text>
</a>
</g>
</g>
<!-- Node13&#45;&gt;Node14 -->
<g id="edge14_Node000013_Node000014" class="edge">
<title>Node13&#45;&gt;Node14</title>
<g id="a_edge14_Node000013_Node000014"><a xlink:title=" ">
<path fill="none" stroke="#63b8ff" d="M1011.23,-186.46C1070.09,-191.13 1162.62,-198.46 1226.02,-203.49"/>
<polygon fill="#63b8ff" stroke="#63b8ff" points="1226.08,-207.01 1236.33,-204.31 1226.64,-200.03 1226.08,-207.01"/>
</a>
</g>
</g>
<!-- Node15 -->
<g id="Node000015" class="node">
<title>Node15</title>
<g id="a_Node000015"><a xlink:href="classSpan_1_1AssetSerializer.html#adea72d3eb1434b36473f6e0d38396451" target="_top" xlink:title="指定したアセットのメタデータを取得します。 .metaファイルが存在しない場合は、新規にGUIDを生成して作成します。">
<polygon fill="white" stroke="#666666" points="1183,-176 1047,-176 1047,-146 1183,-146 1183,-176"/>
<text text-anchor="start" x="1055" y="-164" font-family="Helvetica,sans-Serif" font-size="10.00">Span::AssetSerializer</text>
<text text-anchor="middle" x="1115" y="-153" font-family="Helvetica,sans-Serif" font-size="10.00">::LoadOrCreateMetadata</text>
</a>
</g>
</g>
<!-- Node13&#45;&gt;Node15 -->
<g id="edge15_Node000013_Node000015" class="edge">
<title>Node13&#45;&gt;Node15</title>
<g id="a_edge15_Node000013_Node000015"><a xlink:title=" ">
<path fill="none" stroke="#63b8ff" d="M1011.06,-174.6C1019.35,-173.5 1028.01,-172.36 1036.64,-171.22"/>
<polygon fill="#63b8ff" stroke="#63b8ff" points="1037.28,-174.66 1046.73,-169.88 1036.36,-167.72 1037.28,-174.66"/>
</a>
</g>
</g>
<!-- Node15&#45;&gt;Node14 -->
<g id="edge17_Node000015_Node000014" class="edge">
<title>Node15&#45;&gt;Node14</title>
<g id="a_edge17_Node000015_Node000014"><a xlink:title=" ">
<path fill="none" stroke="#63b8ff" d="M1172.3,-176.06C1190.51,-180.93 1210.87,-186.37 1229.71,-191.41"/>
<polygon fill="#63b8ff" stroke="#63b8ff" points="1228.83,-194.8 1239.4,-194 1230.64,-188.03 1228.83,-194.8"/>
</a>
</g>
</g>
<!-- Node16 -->
<g id="Node000016" class="node">
<title>Node16</title>
<g id="a_Node000016"><a xlink:href="classSpan_1_1AssetSerializer.html#a39e6a3bea02531fc2c31683a27d52061" target="_top" xlink:title="拡張子から汗ッとタイプを推論します。">
<polygon fill="white" stroke="#666666" points="1374,-128 1219,-128 1219,-98 1374,-98 1374,-128"/>
<text text-anchor="start" x="1227" y="-116" font-family="Helvetica,sans-Serif" font-size="10.00">Span::AssetSerializer</text>
<text text-anchor="middle" x="1296.5" y="-105" font-family="Helvetica,sans-Serif" font-size="10.00">::DeduceTypeFromExtension</text>
</a>
</g>
</g>
<!-- Node15&#45;&gt;Node16 -->
<g id="edge16_Node000015_Node000016" class="edge">
<title>Node15&#45;&gt;Node16</title>
<g id="a_edge16_Node000015_Node000016"><a xlink:title=" ">
<path fill="none" stroke="#63b8ff" d="M1172.3,-145.94C1190.51,-141.07 1210.87,-135.63 1229.71,-130.59"/>
<polygon fill="#63b8ff" stroke="#63b8ff" points="1230.64,-133.97 1239.4,-128 1228.83,-127.2 1230.64,-133.97"/>
</a>
</g>
</g>
<!-- Node17 -->
<g id="Node000017" class="node">
<title>Node17</title>
<g id="a_Node000017"><a xlink:href="namespaceSpan.html#a8ba99036404afdb464fdc44c3dbc7136" target="_top" xlink:title=" ">
<polygon fill="white" stroke="#666666" points="1341.5,-79.5 1251.5,-79.5 1251.5,-60.5 1341.5,-60.5 1341.5,-79.5"/>
<text text-anchor="middle" x="1296.5" y="-67.5" font-family="Helvetica,sans-Serif" font-size="10.00">Span::s_Engine</text>
</a>
</g>
</g>
<!-- Node15&#45;&gt;Node17 -->
<g id="edge18_Node000015_Node000017" class="edge">
<title>Node15&#45;&gt;Node17</title>
<g id="a_edge18_Node000015_Node000017"><a xlink:title=" ">
<path fill="none" stroke="#63b8ff" d="M1133.37,-145.82C1152.91,-129.5 1186.23,-103.9 1219,-89 1226.09,-85.77 1233.82,-83.04 1241.54,-80.75"/>
<polygon fill="#63b8ff" stroke="#63b8ff" points="1242.56,-84.1 1251.28,-78.07 1240.7,-77.35 1242.56,-84.1"/>
</a>
</g>
</g>
<!-- Node18 -->
<g id="Node000018" class="node">
<title>Node18</title>
<g id="a_Node000018"><a xlink:href="classSpan_1_1AssetSerializer.html#a0eb09ea936ef7cf65184977a5809ef6b" target="_top" xlink:title="メタデータをファイルに保存する。">
<polygon fill="white" stroke="#666666" points="1356,-176 1237,-176 1237,-146 1356,-146 1356,-176"/>
<text text-anchor="start" x="1245" y="-164" font-family="Helvetica,sans-Serif" font-size="10.00">Span::AssetSerializer</text>
<text text-anchor="middle" x="1296.5" y="-153" font-family="Helvetica,sans-Serif" font-size="10.00">::SaveMetadata</text>
</a>
</g>
</g>
<!-- Node15&#45;&gt;Node18 -->
<g id="edge19_Node000015_Node000018" class="edge">
<title>Node15&#45;&gt;Node18</title>
<g id="a_edge19_Node000015_Node000018"><a xlink:title=" ">
<path fill="none" stroke="#63b8ff" d="M1183.09,-161C1197.28,-161 1212.27,-161 1226.52,-161"/>
<polygon fill="#63b8ff" stroke="#63b8ff" points="1226.74,-164.5 1236.74,-161 1226.74,-157.5 1226.74,-164.5"/>
</a>
</g>
</g>
<!-- Node20 -->
<g id="Node000020" class="node">
<title>Node20</title>
<g id="a_Node000020"><a xlink:href="classSpan_1_1GuiManager.html#a79fd10d93a58b741c10bd8c8477afc0a" target="_top" xlink:title="管理対象のエディタパネルを追加します。">
<polygon fill="white" stroke="#666666" points="857.5,-234.5 700.5,-234.5 700.5,-215.5 857.5,-215.5 857.5,-234.5"/>
<text text-anchor="middle" x="779" y="-222.5" font-family="Helvetica,sans-Serif" font-size="10.00">Span::GuiManager::AddPanel</text>
</a>
</g>
</g>
<!-- Node19&#45;&gt;Node20 -->
<g id="edge21_Node000019_Node000020" class="edge">
<title>Node19&#45;&gt;Node20</title>
<g id="a_edge21_Node000019_Node000020"><a xlink:title=" ">
<path fill="none" stroke="#63b8ff" d="M661,-225C670.63,-225 680.55,-225 690.34,-225"/>
<polygon fill="#63b8ff" stroke="#63b8ff" points="690.48,-228.5 700.48,-225 690.48,-221.5 690.48,-228.5"/>
</a>
</g>
</g>
<!-- Node21 -->
<g id="Node000021" class="node">
<title>Node21</title>
<g id="a_Node000021"><a xlink:href="classSpan_1_1GuiManager.html#ad8ff21c11b12bff5ee5b454a4dae33d0" target="_top" xlink:title="フォントや配色などのスタイル設定を適用します。">
<polygon fill="white" stroke="#666666" points="861,-271.5 697,-271.5 697,-252.5 861,-252.5 861,-271.5"/>
<text text-anchor="middle" x="779" y="-259.5" font-family="Helvetica,sans-Serif" font-size="10.00">Span::GuiManager::ApplyStyle</text>
</a>
</g>
</g>
<!-- Node19&#45;&gt;Node21 -->
<g id="edge22_Node000019_Node000021" class="edge">
<title>Node19&#45;&gt;Node21</title>
<g id="a_edge22_Node000019_Node000021"><a xlink:title=" ">
<path fill="none" stroke="#63b8ff" d="M634.7,-234.53C660.15,-239.41 691.34,-245.39 718.11,-250.52"/>
<polygon fill="#63b8ff" stroke="#63b8ff" points="717.65,-253.99 728.13,-252.44 718.97,-247.12 717.65,-253.99"/>
</a>
</g>
</g>
<!-- Node26&#45;&gt;Node11 -->
<g id="edge29_Node000026_Node000011" class="edge">
<title>Node26&#45;&gt;Node11</title>
<g id="a_edge29_Node000026_Node000011"><a xlink:title=" ">
<path fill="none" stroke="#63b8ff" d="M287.09,-102.98C385.85,-106.4 588.67,-113.44 700.22,-117.3"/>
<polygon fill="#63b8ff" stroke="#63b8ff" points="700.28,-120.81 710.4,-117.66 700.52,-113.81 700.28,-120.81"/>
</a>
</g>
</g>
<!-- Node27 -->
<g id="Node000027" class="node">
<title>Node27</title>
<g id="a_Node000027"><a xlink:href="classSpan_1_1AssetRegistry.html#a3cae91f52d3d29c67936e289d1244319" target="_top" xlink:title=" ">
<polygon fill="white" stroke="#666666" points="458.5,-73 344.5,-73 344.5,-43 458.5,-43 458.5,-73"/>
<text text-anchor="start" x="352.5" y="-61" font-family="Helvetica,sans-Serif" font-size="10.00">Span::AssetRegistry</text>
<text text-anchor="middle" x="401.5" y="-50" font-family="Helvetica,sans-Serif" font-size="10.00">::GetPath</text>
</a>
</g>
</g>
<!-- Node26&#45;&gt;Node27 -->
<g id="edge30_Node000026_Node000027" class="edge">
<title>Node26&#45;&gt;Node27</title>
<g id="a_edge30_Node000026_Node000027"><a xlink:title=" ">
<path fill="none" stroke="#63b8ff" d="M287.25,-86.56C302.33,-82.76 318.72,-78.63 334.23,-74.71"/>
<polygon fill="#63b8ff" stroke="#63b8ff" points="335.43,-78.02 344.27,-72.18 333.72,-71.23 335.43,-78.02"/>
</a>
</g>
</g>
<!-- Node28 -->
<g id="Node000028" class="node">
<title>Node28</title>
<g id="a_Node000028"><a xlink:href="classSpan_1_1ModelLoader.html#a06a5d6e12254629efcd0d56c7a3c21c1" target="_top" xlink:title="モデルファイルをロードし、メッシュリストを返します">
<polygon fill="white" stroke="#666666" points="471,-24.5 332,-24.5 332,-5.5 471,-5.5 471,-24.5"/>
<text text-anchor="middle" x="401.5" y="-12.5" font-family="Helvetica,sans-Serif" font-size="10.00">Span::ModelLoader::Load</text>
</a>
</g>
</g>
<!-- Node26&#45;&gt;Node28 -->
<g id="edge31_Node000026_Node000028" class="edge">
<title>Node26&#45;&gt;Node28</title>
<g id="a_edge31_Node000026_Node000028"><a xlink:title=" ">
<path fill="none" stroke="#63b8ff" d="M280.42,-85.87C285.89,-83.3 291.21,-80.36 296,-77 316.41,-62.7 311.05,-47.5 332,-34 335.29,-31.88 338.82,-29.99 342.47,-28.32"/>
<polygon fill="#63b8ff" stroke="#63b8ff" points="343.8,-31.56 351.76,-24.56 341.17,-25.07 343.8,-31.56"/>
</a>
</g>
</g>
<!-- Node29 -->
<g id="Node000029" class="node">
<title>Node29</title>
<g id="a_Node000029"><a xlink:href="classSpan_1_1ModelLoader.html#a97659b329036caa77725af517d48f25a" target="_top" xlink:title=" ">
<polygon fill="white" stroke="#666666" points="642,-30 526,-30 526,0 642,0 642,-30"/>
<text text-anchor="start" x="534" y="-18" font-family="Helvetica,sans-Serif" font-size="10.00">Span::ModelLoader::</text>
<text text-anchor="middle" x="584" y="-7" font-family="Helvetica,sans-Serif" font-size="10.00">ProcessMesh</text>
</a>
</g>
</g>
<!-- Node28&#45;&gt;Node29 -->
<g id="edge32_Node000028_Node000029" class="edge">
<title>Node28&#45;&gt;Node29</title>
<g id="a_edge32_Node000028_Node000029"><a xlink:title=" ">
<path fill="none" stroke="#63b8ff" d="M471.25,-15C485.76,-15 501.06,-15 515.53,-15"/>
<polygon fill="#63b8ff" stroke="#63b8ff" points="515.89,-18.5 525.89,-15 515.89,-11.5 515.89,-18.5"/>
</a>
</g>
</g>
<!-- Node30 -->
<g id="Node000030" class="node">
<title>Node30</title>
<g id="a_Node000030"><a xlink:href="classSpan_1_1Mesh.html#ae731b2ee0cf4e9bbfd30b70285a6688f" target="_top" xlink:title="頂点配列からメッシュを初期化します。">
<polygon fill="white" stroke="#666666" points="839.5,-24.5 718.5,-24.5 718.5,-5.5 839.5,-5.5 839.5,-24.5"/>
<text text-anchor="middle" x="779" y="-12.5" font-family="Helvetica,sans-Serif" font-size="10.00">Span::Mesh::Initialize</text>
</a>
</g>
</g>
<!-- Node29&#45;&gt;Node30 -->
<g id="edge33_Node000029_Node000030" class="edge">
<title>Node29&#45;&gt;Node30</title>
<g id="a_edge33_Node000029_Node000030"><a xlink:title=" ">
<path fill="none" stroke="#63b8ff" d="M642.12,-15C662.85,-15 686.5,-15 708.2,-15"/>
<polygon fill="#63b8ff" stroke="#63b8ff" points="708.34,-18.5 718.34,-15 708.34,-11.5 708.34,-18.5"/>
</a>
</g>
</g>
</g>
</svg>
