<?xml version="1.0" encoding="UTF-8" standalone="no"?>
<!DOCTYPE svg PUBLIC "-//W3C//DTD SVG 1.1//EN"
 "http://www.w3.org/Graphics/SVG/1.1/DTD/svg11.dtd">
<!-- Generated by graphviz version 2.43.0 (0)
 -->
<!-- Title: Span::AssetManager::GetMaterial Pages: 1 -->
<svg width="699pt" height="174pt"
 viewBox="0.00 0.00 699.00 174.00" xmlns="http://www.w3.org/2000/svg" xmlns:xlink="http://www.w3.org/1999/xlink">
<g id="graph0" class="graph" transform="scale(1 1) rotate(0) translate(4 170)">
<title>Span::AssetManager::GetMaterial</title>
<!-- Node1 -->
<g id="Node000001" class="node">
<title>Node1</title>
<g id="a_Node000001"><a xlink:title="GUIDでマテリアルを取得 (推奨)">
<polygon fill="#999999" stroke="#666666" points="691,-99 575,-99 575,-69 691,-69 691,-99"/>
<text text-anchor="start" x="583" y="-87" font-family="Helvetica,sans-Serif" font-size="10.00">Span::AssetManager</text>
<text text-anchor="middle" x="633" y="-76" font-family="Helvetica,sans-Serif" font-size="10.00">::GetMaterial</text>
</a>
</g>
</g>
<!-- Node2 -->
<g id="Node000002" class="node">
<title>Node2</title>
<g id="a_Node000002"><a xlink:href="classSpan_1_1InspectorPanel.html#acbecd010da050d28a48148287775259a" target="_top" xlink:title="マテリアルアセット用のプロパティエディタを描画します。">
<polygon fill="white" stroke="#666666" points="509.5,-164 391.5,-164 391.5,-134 509.5,-134 509.5,-164"/>
<text text-anchor="start" x="399.5" y="-152" font-family="Helvetica,sans-Serif" font-size="10.00">Span::InspectorPanel</text>
<text text-anchor="middle" x="450.5" y="-141" font-family="Helvetica,sans-Serif" font-size="10.00">::DrawMaterialEditor</text>
</a>
</g>
</g>
<!-- Node1&#45;&gt;Node2 -->
<g id="edge1_Node000001_Node000002" class="edge">
<title>Node1&#45;&gt;Node2</title>
<g id="a_edge1_Node000001_Node000002"><a xlink:title=" ">
<path fill="none" stroke="#63b8ff" d="M590.18,-103.34C574.33,-110.31 556,-117.94 539,-124 529.18,-127.5 518.6,-130.86 508.32,-133.91"/>
<polygon fill="#63b8ff" stroke="#63b8ff" points="591.98,-106.37 599.7,-99.1 589.14,-99.97 591.98,-106.37"/>
</a>
</g>
</g>
<!-- Node5 -->
<g id="Node000005" class="node">
<title>Node5</title>
<g id="a_Node000005"><a xlink:href="classSpan_1_1ImGuiUI.html#a34b9192587c923b4380f4cbc72155b75" target="_top" xlink:title=" ">
<polygon fill="white" stroke="#666666" points="539,-115.5 362,-115.5 362,-96.5 539,-96.5 539,-115.5"/>
<text text-anchor="middle" x="450.5" y="-103.5" font-family="Helvetica,sans-Serif" font-size="10.00">Span::ImGuiUI::DrawMaterialSlot</text>
</a>
</g>
</g>
<!-- Node1&#45;&gt;Node5 -->
<g id="edge4_Node000001_Node000005" class="edge">
<title>Node1&#45;&gt;Node5</title>
<g id="a_edge4_Node000001_Node000005"><a xlink:title=" ">
<path fill="none" stroke="#63b8ff" d="M564.95,-92.17C553.46,-93.57 541.44,-95.04 529.69,-96.47"/>
<polygon fill="#63b8ff" stroke="#63b8ff" points="565.39,-95.65 574.89,-90.96 564.54,-88.7 565.39,-95.65"/>
</a>
</g>
</g>
<!-- Node8 -->
<g id="Node000008" class="node">
<title>Node8</title>
<g id="a_Node000008"><a xlink:href="classSpan_1_1AssetManager.html#a6d21e48b9d53035bbd83c5ae91ec083b" target="_top" xlink:title="パスでマテリアルを取得 (キャッシュ対応)。">
<polygon fill="white" stroke="#666666" points="508.5,-78 392.5,-78 392.5,-48 508.5,-48 508.5,-78"/>
<text text-anchor="start" x="400.5" y="-66" font-family="Helvetica,sans-Serif" font-size="10.00">Span::AssetManager</text>
<text text-anchor="middle" x="450.5" y="-55" font-family="Helvetica,sans-Serif" font-size="10.00">::GetMaterial</text>
</a>
</g>
</g>
<!-- Node1&#45;&gt;Node8 -->
<g id="edge7_Node000001_Node000008" class="edge">
<title>Node1&#45;&gt;Node8</title>
<g id="a_edge7_Node000001_Node000008"><a xlink:title=" ">
<path fill="none" stroke="#63b8ff" d="M564.78,-76.18C546.29,-74.03 526.41,-71.72 508.55,-69.64"/>
<polygon fill="#63b8ff" stroke="#63b8ff" points="564.55,-79.68 574.89,-77.36 565.36,-72.72 564.55,-79.68"/>
</a>
</g>
</g>
<!-- Node9 -->
<g id="Node000009" class="node">
<title>Node9</title>
<g id="a_Node000009"><a xlink:href="structSpan_1_1Internal_1_1JsonDeserializeVisitor.html#a9ec1cdf5e6d1a1d8bdc2d4138cbd5bc7" target="_top" xlink:title=" ">
<polygon fill="white" stroke="#666666" points="533,-30 368,-30 368,0 533,0 533,-30"/>
<text text-anchor="start" x="376" y="-18" font-family="Helvetica,sans-Serif" font-size="10.00">Span::Internal::JsonDeserialize</text>
<text text-anchor="middle" x="450.5" y="-7" font-family="Helvetica,sans-Serif" font-size="10.00">Visitor::Visit</text>
</a>
</g>
</g>
<!-- Node1&#45;&gt;Node9 -->
<g id="edge8_Node000001_Node000009" class="edge">
<title>Node1&#45;&gt;Node9</title>
<g id="a_edge8_Node000001_Node000009"><a xlink:title=" ">
<path fill="none" stroke="#63b8ff" d="M595.15,-64.25C578.34,-55.74 557.99,-46.13 539,-39 530.45,-35.79 521.28,-32.8 512.21,-30.1"/>
<polygon fill="#63b8ff" stroke="#63b8ff" points="593.6,-67.38 604.1,-68.84 596.8,-61.16 593.6,-67.38"/>
</a>
</g>
</g>
<!-- Node3 -->
<g id="Node000003" class="node">
<title>Node3</title>
<g id="a_Node000003"><a xlink:href="classSpan_1_1InspectorPanel.html#aa24fb5f7f8d1de98906fe4b644cb4a86" target="_top" xlink:title="アセット用のインスペクターを描画します。">
<polygon fill="white" stroke="#666666" points="316.5,-164 196.5,-164 196.5,-134 316.5,-134 316.5,-164"/>
<text text-anchor="start" x="204.5" y="-152" font-family="Helvetica,sans-Serif" font-size="10.00">Span::InspectorPanel</text>
<text text-anchor="middle" x="256.5" y="-141" font-family="Helvetica,sans-Serif" font-size="10.00">::DrawAssetInspector</text>
</a>
</g>
</g>
<!-- Node2&#45;&gt;Node3 -->
<g id="edge2_Node000002_Node000003" class="edge">
<title>Node2&#45;&gt;Node3</title>
<g id="a_edge2_Node000002_Node000003"><a xlink:title=" ">
<path fill="none" stroke="#63b8ff" d="M381.21,-149C360.16,-149 337.15,-149 316.76,-149"/>
<polygon fill="#63b8ff" stroke="#63b8ff" points="381.37,-152.5 391.37,-149 381.37,-145.5 381.37,-152.5"/>
</a>
</g>
</g>
<!-- Node4 -->
<g id="Node000004" class="node">
<title>Node4</title>
<g id="a_Node000004"><a xlink:href="classSpan_1_1InspectorPanel.html#ae32fda6018a2e54f880e6708ac5b89fe" target="_top" xlink:title="毎フレーム呼ばれる描画関数。">
<polygon fill="white" stroke="#666666" points="134.5,-166 16.5,-166 16.5,-136 134.5,-136 134.5,-166"/>
<text text-anchor="start" x="24.5" y="-154" font-family="Helvetica,sans-Serif" font-size="10.00">Span::InspectorPanel</text>
<text text-anchor="middle" x="75.5" y="-143" font-family="Helvetica,sans-Serif" font-size="10.00">::OnImGuiRender</text>
</a>
</g>
</g>
<!-- Node3&#45;&gt;Node4 -->
<g id="edge3_Node000003_Node000004" class="edge">
<title>Node3&#45;&gt;Node4</title>
<g id="a_edge3_Node000003_Node000004"><a xlink:title=" ">
<path fill="none" stroke="#63b8ff" d="M185.98,-149.78C169,-149.97 151.01,-150.17 134.63,-150.35"/>
<polygon fill="#63b8ff" stroke="#63b8ff" points="186.43,-153.27 196.39,-149.66 186.35,-146.27 186.43,-153.27"/>
</a>
</g>
</g>
<!-- Node6 -->
<g id="Node000006" class="node">
<title>Node6</title>
<g id="a_Node000006"><a xlink:href="namespaceSpan_1_1Internal.html#ae18b71c51d88d168549fe9542ed952bb" target="_top" xlink:title="型に応じた描画ヘルパー関数">
<polygon fill="white" stroke="#666666" points="326,-114.5 187,-114.5 187,-95.5 326,-95.5 326,-114.5"/>
<text text-anchor="middle" x="256.5" y="-102.5" font-family="Helvetica,sans-Serif" font-size="10.00">Span::Internal::DrawField</text>
</a>
</g>
</g>
<!-- Node5&#45;&gt;Node6 -->
<g id="edge5_Node000005_Node000006" class="edge">
<title>Node5&#45;&gt;Node6</title>
<g id="a_edge5_Node000005_Node000006"><a xlink:title=" ">
<path fill="none" stroke="#63b8ff" d="M351.81,-105.49C343.18,-105.45 334.56,-105.4 326.25,-105.36"/>
<polygon fill="#63b8ff" stroke="#63b8ff" points="351.91,-108.99 361.93,-105.54 351.95,-101.99 351.91,-108.99"/>
</a>
</g>
</g>
<!-- Node7 -->
<g id="Node000007" class="node">
<title>Node7</title>
<g id="a_Node000007"><a xlink:href="structSpan_1_1Internal_1_1ImGuiVisitor.html#a966eba59899c3c97a93ed58acb5612a8" target="_top" xlink:title=" ">
<polygon fill="white" stroke="#666666" points="151,-118 0,-118 0,-88 151,-88 151,-118"/>
<text text-anchor="start" x="8" y="-106" font-family="Helvetica,sans-Serif" font-size="10.00">Span::Internal::ImGuiVisitor</text>
<text text-anchor="middle" x="75.5" y="-95" font-family="Helvetica,sans-Serif" font-size="10.00">::Visit</text>
</a>
</g>
</g>
<!-- Node6&#45;&gt;Node7 -->
<g id="edge6_Node000006_Node000007" class="edge">
<title>Node6&#45;&gt;Node7</title>
<g id="a_edge6_Node000006_Node000007"><a xlink:title=" ">
<path fill="none" stroke="#63b8ff" d="M176.61,-104.12C168.19,-104.02 159.64,-103.93 151.26,-103.84"/>
<polygon fill="#63b8ff" stroke="#63b8ff" points="176.77,-107.62 186.81,-104.23 176.85,-100.62 176.77,-107.62"/>
</a>
</g>
</g>
</g>
</svg>
