<?xml version="1.0" encoding="UTF-8" standalone="no"?>
<!DOCTYPE svg PUBLIC "-//W3C//DTD SVG 1.1//EN"
 "http://www.w3.org/Graphics/SVG/1.1/DTD/svg11.dtd">
<!-- Generated by graphviz version 2.43.0 (0)
 -->
<!-- Title: Span::World::DestroyEntity Pages: 1 -->
<svg width="670pt" height="94pt"
 viewBox="0.00 0.00 670.00 93.50" xmlns="http://www.w3.org/2000/svg" xmlns:xlink="http://www.w3.org/1999/xlink">
<g id="graph0" class="graph" transform="scale(1 1) rotate(0) translate(4 89.5)">
<title>Span::World::DestroyEntity</title>
<!-- Node1 -->
<g id="Node000001" class="node">
<title>Node1</title>
<g id="a_Node000001"><a xlink:title="エンティティを削除します。">
<polygon fill="#999999" stroke="#666666" points="662,-54.5 515,-54.5 515,-35.5 662,-35.5 662,-54.5"/>
<text text-anchor="middle" x="588.5" y="-42.5" font-family="Helvetica,sans-Serif" font-size="10.00">Span::World::DestroyEntity</text>
</a>
</g>
</g>
<!-- Node2 -->
<g id="Node000002" class="node">
<title>Node2</title>
<g id="a_Node000002"><a xlink:href="classSpan_1_1World.html#a75ff3e35b55b9bb7a8fa4314ee0eb47a" target="_top" xlink:title="ワールド内の全てのエンティティを削除し、初期状態に戻します。">
<polygon fill="white" stroke="#666666" points="472,-80.5 366,-80.5 366,-61.5 472,-61.5 472,-80.5"/>
<text text-anchor="middle" x="419" y="-68.5" font-family="Helvetica,sans-Serif" font-size="10.00">Span::World::Clear</text>
</a>
</g>
</g>
<!-- Node1&#45;&gt;Node2 -->
<g id="edge1_Node000001_Node000002" class="edge">
<title>Node1&#45;&gt;Node2</title>
<g id="a_edge1_Node000001_Node000002"><a xlink:title=" ">
<path fill="none" stroke="#63b8ff" d="M515.97,-56.1C501.22,-58.39 485.95,-60.76 472.05,-62.92"/>
<polygon fill="#63b8ff" stroke="#63b8ff" points="516.74,-59.53 526.08,-54.53 515.66,-52.61 516.74,-59.53"/>
</a>
</g>
</g>
<!-- Node5 -->
<g id="Node000005" class="node">
<title>Node5</title>
<g id="a_Node000005"><a xlink:href="classSpan_1_1HierarchyPanel.html#a331d846c46df5f3346cfc7bb8c7a8e76" target="_top" xlink:title="エンティティ上での右クリックメニューを描画します。">
<polygon fill="white" stroke="#666666" points="479,-39 359,-39 359,-9 479,-9 479,-39"/>
<text text-anchor="start" x="367" y="-27" font-family="Helvetica,sans-Serif" font-size="10.00">Span::HierarchyPanel</text>
<text text-anchor="middle" x="419" y="-16" font-family="Helvetica,sans-Serif" font-size="10.00">::DrawContextMenu</text>
</a>
</g>
</g>
<!-- Node1&#45;&gt;Node5 -->
<g id="edge4_Node000001_Node000005" class="edge">
<title>Node1&#45;&gt;Node5</title>
<g id="a_edge4_Node000001_Node000005"><a xlink:title=" ">
<path fill="none" stroke="#63b8ff" d="M504.5,-34.59C495.95,-33.52 487.39,-32.45 479.17,-31.42"/>
<polygon fill="#63b8ff" stroke="#63b8ff" points="504.16,-38.08 514.52,-35.85 505.03,-31.13 504.16,-38.08"/>
</a>
</g>
</g>
<!-- Node3 -->
<g id="Node000003" class="node">
<title>Node3</title>
<g id="a_Node000003"><a xlink:href="classSpan_1_1GuiManager.html#a66e894c749b02f869c0851b41fd23fec" target="_top" xlink:title="ImGuiの描画コマンドを発行し、フレームを終了します。">
<polygon fill="white" stroke="#666666" points="323,-85.5 162,-85.5 162,-66.5 323,-66.5 323,-85.5"/>
<text text-anchor="middle" x="242.5" y="-73.5" font-family="Helvetica,sans-Serif" font-size="10.00">Span::GuiManager::EndFrame</text>
</a>
</g>
</g>
<!-- Node2&#45;&gt;Node3 -->
<g id="edge2_Node000002_Node000003" class="edge">
<title>Node2&#45;&gt;Node3</title>
<g id="a_edge2_Node000002_Node000003"><a xlink:title=" ">
<path fill="none" stroke="#63b8ff" d="M355.41,-72.79C344.98,-73.09 334.04,-73.41 323.25,-73.71"/>
<polygon fill="#63b8ff" stroke="#63b8ff" points="355.75,-76.29 365.64,-72.5 355.55,-69.29 355.75,-76.29"/>
</a>
</g>
</g>
<!-- Node4 -->
<g id="Node000004" class="node">
<title>Node4</title>
<g id="a_Node000004"><a xlink:href="classSpan_1_1Application.html#a9dc7321cf43512eac3757a83fbefbaa9" target="_top" xlink:title="アプリケーションを実行します (ブロック関数)。">
<polygon fill="white" stroke="#666666" points="126,-85.5 0,-85.5 0,-66.5 126,-66.5 126,-85.5"/>
<text text-anchor="middle" x="63" y="-73.5" font-family="Helvetica,sans-Serif" font-size="10.00">Span::Application::Run</text>
</a>
</g>
</g>
<!-- Node3&#45;&gt;Node4 -->
<g id="edge3_Node000003_Node000004" class="edge">
<title>Node3&#45;&gt;Node4</title>
<g id="a_edge3_Node000003_Node000004"><a xlink:title=" ">
<path fill="none" stroke="#63b8ff" d="M151.69,-76C143.04,-76 134.4,-76 126.11,-76"/>
<polygon fill="#63b8ff" stroke="#63b8ff" points="151.84,-79.5 161.84,-76 151.84,-72.5 151.84,-79.5"/>
</a>
</g>
</g>
<!-- Node6 -->
<g id="Node000006" class="node">
<title>Node6</title>
<g id="a_Node000006"><a xlink:href="classSpan_1_1HierarchyPanel.html#a2c08f8c6e0cafaed96f7846d76ff2b09" target="_top" xlink:title="1つのエンティティとその子孫を再帰的に描画します。">
<polygon fill="white" stroke="#666666" points="302.5,-30 182.5,-30 182.5,0 302.5,0 302.5,-30"/>
<text text-anchor="start" x="190.5" y="-18" font-family="Helvetica,sans-Serif" font-size="10.00">Span::HierarchyPanel</text>
<text text-anchor="middle" x="242.5" y="-7" font-family="Helvetica,sans-Serif" font-size="10.00">::DrawEntityNode</text>
</a>
</g>
</g>
<!-- Node5&#45;&gt;Node6 -->
<g id="edge5_Node000005_Node000006" class="edge">
<title>Node5&#45;&gt;Node6</title>
<g id="a_edge5_Node000005_Node000006"><a xlink:title=" ">
<path fill="none" stroke="#63b8ff" d="M348.52,-20.42C333.28,-19.63 317.3,-18.81 302.52,-18.04"/>
<polygon fill="#63b8ff" stroke="#63b8ff" points="348.76,-23.93 358.92,-20.95 349.12,-16.94 348.76,-23.93"/>
</a>
</g>
</g>
<!-- Node6&#45;&gt;Node6 -->
<g id="edge6_Node000006_Node000006" class="edge">
<title>Node6&#45;&gt;Node6</title>
<g id="a_edge6_Node000006_Node000006"><a xlink:title=" ">
<path fill="none" stroke="#63b8ff" d="M273.31,-40.6C269.1,-44.97 258.83,-48 242.5,-48 215,-48 204.69,-39.41 211.56,-30.28"/>
<polygon fill="#63b8ff" stroke="#63b8ff" points="276.81,-40.32 273.44,-30.28 269.81,-40.23 276.81,-40.32"/>
</a>
</g>
</g>
<!-- Node7 -->
<g id="Node000007" class="node">
<title>Node7</title>
<g id="a_Node000007"><a xlink:href="classSpan_1_1HierarchyPanel.html#a6481eb57cd9f45cb3a094a26f35bbaa0" target="_top" xlink:title="毎フレーム呼ばれる描画関数。">
<polygon fill="white" stroke="#666666" points="123,-30 3,-30 3,0 123,0 123,-30"/>
<text text-anchor="start" x="11" y="-18" font-family="Helvetica,sans-Serif" font-size="10.00">Span::HierarchyPanel</text>
<text text-anchor="middle" x="63" y="-7" font-family="Helvetica,sans-Serif" font-size="10.00">::OnImGuiRender</text>
</a>
</g>
</g>
<!-- Node6&#45;&gt;Node7 -->
<g id="edge7_Node000006_Node000007" class="edge">
<title>Node6&#45;&gt;Node7</title>
<g id="a_edge7_Node000006_Node000007"><a xlink:title=" ">
<path fill="none" stroke="#63b8ff" d="M171.94,-15C155.81,-15 138.79,-15 123.15,-15"/>
<polygon fill="#63b8ff" stroke="#63b8ff" points="172.4,-18.5 182.4,-15 172.4,-11.5 172.4,-18.5"/>
</a>
</g>
</g>
</g>
</svg>
