<?xml version="1.0" encoding="UTF-8" standalone="no"?>
<!DOCTYPE svg PUBLIC "-//W3C//DTD SVG 1.1//EN"
 "http://www.w3.org/Graphics/SVG/1.1/DTD/svg11.dtd">
<!-- Generated by graphviz version 2.43.0 (0)
 -->
<!-- Title: Span::Input::Initialize Pages: 1 -->
<svg width="983pt" height="564pt"
 viewBox="0.00 0.00 983.00 563.50" xmlns="http://www.w3.org/2000/svg" xmlns:xlink="http://www.w3.org/1999/xlink">
<g id="graph0" class="graph" transform="scale(1 1) rotate(0) translate(4 559.5)">
<title>Span::Input::Initialize</title>
<!-- Node1 -->
<g id="Node000001" class="node">
<title>Node1</title>
<g id="a_Node000001"><a xlink:title=" ">
<polygon fill="#999999" stroke="#666666" points="975,-57 856,-57 856,-38 975,-38 975,-57"/>
<text text-anchor="middle" x="915.5" y="-45" font-family="Helvetica,sans-Serif" font-size="10.00">Span::Input::Initialize</text>
</a>
</g>
</g>
<!-- Node2 -->
<g id="Node000002" class="node">
<title>Node2</title>
<g id="a_Node000002"><a xlink:href="classSpan_1_1Application.html#a0c44e973ca5db1d23a02a2cee66f5c11" target="_top" xlink:title=" ">
<polygon fill="white" stroke="#666666" points="820,-62.5 713,-62.5 713,-32.5 820,-32.5 820,-62.5"/>
<text text-anchor="start" x="721" y="-50.5" font-family="Helvetica,sans-Serif" font-size="10.00">Span::Application::</text>
<text text-anchor="middle" x="766.5" y="-39.5" font-family="Helvetica,sans-Serif" font-size="10.00">Application</text>
</a>
</g>
</g>
<!-- Node1&#45;&gt;Node2 -->
<g id="edge1_Node000001_Node000002" class="edge">
<title>Node1&#45;&gt;Node2</title>
<g id="a_edge1_Node000001_Node000002"><a xlink:title=" ">
<path fill="none" stroke="#63b8ff" d="M845.88,-47.5C837.22,-47.5 828.47,-47.5 820.11,-47.5"/>
<polygon fill="#63b8ff" stroke="#63b8ff" points="845.98,-51 855.98,-47.5 845.98,-44 845.98,-51"/>
</a>
</g>
</g>
<!-- Node3 -->
<g id="Node000003" class="node">
<title>Node3</title>
<g id="a_Node000003"><a xlink:href="classSpan_1_1Application.html#ae2e9eaebe90ffdf55cfef9d74ccbce3e" target="_top" xlink:title="シングルトンインスタンスの取得">
<polygon fill="white" stroke="#666666" points="677,-297 552,-297 552,-278 677,-278 677,-297"/>
<text text-anchor="middle" x="614.5" y="-285" font-family="Helvetica,sans-Serif" font-size="10.00">Span::Application::Get</text>
</a>
</g>
</g>
<!-- Node2&#45;&gt;Node3 -->
<g id="edge2_Node000002_Node000003" class="edge">
<title>Node2&#45;&gt;Node3</title>
<g id="a_edge2_Node000002_Node000003"><a xlink:title=" ">
<path fill="none" stroke="#63b8ff" d="M750.62,-71.3C718.41,-122.84 643.35,-242.94 621.54,-277.83"/>
<polygon fill="#63b8ff" stroke="#63b8ff" points="753.78,-72.85 756.12,-62.51 747.85,-69.14 753.78,-72.85"/>
</a>
</g>
</g>
<!-- Node16 -->
<g id="Node000016" class="node">
<title>Node16</title>
<g id="a_Node000016"><a xlink:href="classSpan_1_1Application.html#a095598d0c2e753bfb8d00acee435980f" target="_top" xlink:title="シングルトンインスタンスのポインタ取得 (存在チェック用)">
<polygon fill="white" stroke="#666666" points="675,-57 554,-57 554,-38 675,-38 675,-57"/>
<text text-anchor="middle" x="614.5" y="-45" font-family="Helvetica,sans-Serif" font-size="10.00">Span::Application::Ptr</text>
</a>
</g>
</g>
<!-- Node2&#45;&gt;Node16 -->
<g id="edge22_Node000002_Node000016" class="edge">
<title>Node2&#45;&gt;Node16</title>
<g id="a_edge22_Node000002_Node000016"><a xlink:title=" ">
<path fill="none" stroke="#63b8ff" d="M702.49,-47.5C693.41,-47.5 684.08,-47.5 675.07,-47.5"/>
<polygon fill="#63b8ff" stroke="#63b8ff" points="702.62,-51 712.62,-47.5 702.62,-44 702.62,-51"/>
</a>
</g>
</g>
<!-- Node4 -->
<g id="Node000004" class="node">
<title>Node4</title>
<g id="a_Node000004"><a xlink:href="classSpan_1_1HierarchyPanel.html#a331d846c46df5f3346cfc7bb8c7a8e76" target="_top" xlink:title="エンティティ上での右クリックメニューを描画します。">
<polygon fill="white" stroke="#666666" points="501,-555.5 381,-555.5 381,-525.5 501,-525.5 501,-555.5"/>
<text text-anchor="start" x="389" y="-543.5" font-family="Helvetica,sans-Serif" font-size="10.00">Span::HierarchyPanel</text>
<text text-anchor="middle" x="441" y="-532.5" font-family="Helvetica,sans-Serif" font-size="10.00">::DrawContextMenu</text>
</a>
</g>
</g>
<!-- Node3&#45;&gt;Node4 -->
<g id="edge3_Node000003_Node000004" class="edge">
<title>Node3&#45;&gt;Node4</title>
<g id="a_edge3_Node000003_Node000004"><a xlink:title=" ">
<path fill="none" stroke="#63b8ff" d="M610.22,-307.03C602.03,-349.86 576.84,-452.88 516,-511.5 510.14,-517.15 503.05,-521.73 495.61,-525.45"/>
<polygon fill="#63b8ff" stroke="#63b8ff" points="613.68,-307.53 612.02,-297.07 606.79,-306.28 613.68,-307.53"/>
</a>
</g>
</g>
<!-- Node5 -->
<g id="Node000005" class="node">
<title>Node5</title>
<g id="a_Node000005"><a xlink:href="classSpan_1_1HierarchyPanel.html#a2c08f8c6e0cafaed96f7846d76ff2b09" target="_top" xlink:title="1つのエンティティとその子孫を再帰的に描画します。">
<polygon fill="white" stroke="#666666" points="303,-490.5 183,-490.5 183,-460.5 303,-460.5 303,-490.5"/>
<text text-anchor="start" x="191" y="-478.5" font-family="Helvetica,sans-Serif" font-size="10.00">Span::HierarchyPanel</text>
<text text-anchor="middle" x="243" y="-467.5" font-family="Helvetica,sans-Serif" font-size="10.00">::DrawEntityNode</text>
</a>
</g>
</g>
<!-- Node3&#45;&gt;Node5 -->
<g id="edge9_Node000003_Node000005" class="edge">
<title>Node3&#45;&gt;Node5</title>
<g id="a_edge9_Node000003_Node000005"><a xlink:title=" ">
<path fill="none" stroke="#63b8ff" d="M610.26,-307.45C602.45,-348.19 578.4,-440.29 516,-478.5 447.63,-520.36 350.34,-505.39 292.54,-490.55"/>
<polygon fill="#63b8ff" stroke="#63b8ff" points="613.74,-307.87 612.05,-297.41 606.85,-306.64 613.74,-307.87"/>
</a>
</g>
</g>
<!-- Node6 -->
<g id="Node000006" class="node">
<title>Node6</title>
<g id="a_Node000006"><a xlink:href="classSpan_1_1HierarchyPanel.html#a6481eb57cd9f45cb3a094a26f35bbaa0" target="_top" xlink:title="毎フレーム呼ばれる描画関数。">
<polygon fill="white" stroke="#666666" points="120,-426.5 0,-426.5 0,-396.5 120,-396.5 120,-426.5"/>
<text text-anchor="start" x="8" y="-414.5" font-family="Helvetica,sans-Serif" font-size="10.00">Span::HierarchyPanel</text>
<text text-anchor="middle" x="60" y="-403.5" font-family="Helvetica,sans-Serif" font-size="10.00">::OnImGuiRender</text>
</a>
</g>
</g>
<!-- Node3&#45;&gt;Node6 -->
<g id="edge16_Node000003_Node000006" class="edge">
<title>Node3&#45;&gt;Node6</title>
<g id="a_edge16_Node000003_Node000006"><a xlink:title=" ">
<path fill="none" stroke="#63b8ff" d="M600.76,-305.2C584.05,-326.82 552.53,-362.49 516,-378.5 384.16,-436.28 210.18,-428.65 120.35,-419.36"/>
<polygon fill="#63b8ff" stroke="#63b8ff" points="603.59,-307.25 606.79,-297.15 597.99,-303.05 603.59,-307.25"/>
</a>
</g>
</g>
<!-- Node7 -->
<g id="Node000007" class="node">
<title>Node7</title>
<g id="a_Node000007"><a xlink:href="classSpan_1_1HierarchyPanel.html#a04888145be2266ef8385e234b79ec53a" target="_top" xlink:title="何もない場所での右クリックメニュー (新規作成など) を描画します。">
<polygon fill="white" stroke="#666666" points="330,-383.5 156,-383.5 156,-353.5 330,-353.5 330,-383.5"/>
<text text-anchor="start" x="164" y="-371.5" font-family="Helvetica,sans-Serif" font-size="10.00">Span::HierarchyPanel</text>
<text text-anchor="middle" x="243" y="-360.5" font-family="Helvetica,sans-Serif" font-size="10.00">::DrawEmptySpaceContextMenu</text>
</a>
</g>
</g>
<!-- Node3&#45;&gt;Node7 -->
<g id="edge7_Node000003_Node000007" class="edge">
<title>Node3&#45;&gt;Node7</title>
<g id="a_edge7_Node000003_Node000007"><a xlink:title=" ">
<path fill="none" stroke="#63b8ff" d="M596.22,-303.86C577.92,-320.04 547.38,-343.87 516,-354.5 456.21,-374.76 384.81,-377.7 330.17,-375.87"/>
<polygon fill="#63b8ff" stroke="#63b8ff" points="598.68,-306.35 603.73,-297.04 593.98,-301.17 598.68,-306.35"/>
</a>
</g>
</g>
<!-- Node8 -->
<g id="Node000008" class="node">
<title>Node8</title>
<g id="a_Node000008"><a xlink:href="classSpan_1_1SceneViewPanel.html#ad83a4a55f083c75371d0873322808796" target="_top" xlink:title="選択中のオブジェクトに対してマニピュレータ (矢印など) を描画します。">
<polygon fill="white" stroke="#666666" points="504,-345.5 378,-345.5 378,-315.5 504,-315.5 504,-345.5"/>
<text text-anchor="start" x="386" y="-333.5" font-family="Helvetica,sans-Serif" font-size="10.00">Span::SceneViewPanel</text>
<text text-anchor="middle" x="441" y="-322.5" font-family="Helvetica,sans-Serif" font-size="10.00">::DrawGizmo</text>
</a>
</g>
</g>
<!-- Node3&#45;&gt;Node8 -->
<g id="edge10_Node000003_Node000008" class="edge">
<title>Node3&#45;&gt;Node8</title>
<g id="a_edge10_Node000003_Node000008"><a xlink:title=" ">
<path fill="none" stroke="#63b8ff" d="M565.72,-299.48C545.93,-304.44 522.76,-310.25 501.85,-315.49"/>
<polygon fill="#63b8ff" stroke="#63b8ff" points="566.59,-302.87 575.44,-297.04 564.89,-296.08 566.59,-302.87"/>
</a>
</g>
</g>
<!-- Node9 -->
<g id="Node000009" class="node">
<title>Node9</title>
<g id="a_Node000009"><a xlink:href="classSpan_1_1SceneViewPanel.html#aab2935de58bd68267a680cabd3656c9f" target="_top" xlink:title="毎フレームの描画処理。 画像の表示、ツールバーのオーバーレイ、ギズモの描画を行います。">
<polygon fill="white" stroke="#666666" points="306,-302.5 180,-302.5 180,-272.5 306,-272.5 306,-302.5"/>
<text text-anchor="start" x="188" y="-290.5" font-family="Helvetica,sans-Serif" font-size="10.00">Span::SceneViewPanel</text>
<text text-anchor="middle" x="243" y="-279.5" font-family="Helvetica,sans-Serif" font-size="10.00">::OnImGuiRender</text>
</a>
</g>
</g>
<!-- Node3&#45;&gt;Node9 -->
<g id="edge18_Node000003_Node000009" class="edge">
<title>Node3&#45;&gt;Node9</title>
<g id="a_edge18_Node000003_Node000009"><a xlink:title=" ">
<path fill="none" stroke="#63b8ff" d="M541.38,-287.5C472.89,-287.5 371,-287.5 306.05,-287.5"/>
<polygon fill="#63b8ff" stroke="#63b8ff" points="541.65,-291 551.65,-287.5 541.65,-284 541.65,-291"/>
</a>
</g>
</g>
<!-- Node10 -->
<g id="Node000010" class="node">
<title>Node10</title>
<g id="a_Node000010"><a xlink:href="classSpan_1_1HierarchyPanel.html#af958ff25d0ba0576ae4848bbd01b2031" target="_top" xlink:title="ドラッグ&amp;ドロップの受け入れ処理 (親子付け替え・並び替え)。">
<polygon fill="white" stroke="#666666" points="501,-469.5 381,-469.5 381,-439.5 501,-439.5 501,-469.5"/>
<text text-anchor="start" x="389" y="-457.5" font-family="Helvetica,sans-Serif" font-size="10.00">Span::HierarchyPanel</text>
<text text-anchor="middle" x="441" y="-446.5" font-family="Helvetica,sans-Serif" font-size="10.00">::HandleDragDrop</text>
</a>
</g>
</g>
<!-- Node3&#45;&gt;Node10 -->
<g id="edge12_Node000003_Node000010" class="edge">
<title>Node3&#45;&gt;Node10</title>
<g id="a_edge12_Node000003_Node000010"><a xlink:title=" ">
<path fill="none" stroke="#63b8ff" d="M604.64,-306.51C590.05,-335.87 558.34,-392.32 516,-425.5 508.94,-431.03 500.69,-435.62 492.32,-439.4"/>
<polygon fill="#63b8ff" stroke="#63b8ff" points="607.87,-307.86 609.07,-297.33 601.57,-304.81 607.87,-307.86"/>
</a>
</g>
</g>
<!-- Node11 -->
<g id="Node000011" class="node">
<title>Node11</title>
<g id="a_Node000011"><a xlink:href="classSpan_1_1SceneViewPanel.html#afebf890816b85f92e9ed73de887b2354" target="_top" xlink:title="外部またはブラウザからドロップされたファイルを処理します。">
<polygon fill="white" stroke="#666666" points="504,-259.5 378,-259.5 378,-229.5 504,-229.5 504,-259.5"/>
<text text-anchor="start" x="386" y="-247.5" font-family="Helvetica,sans-Serif" font-size="10.00">Span::SceneViewPanel</text>
<text text-anchor="middle" x="441" y="-236.5" font-family="Helvetica,sans-Serif" font-size="10.00">::OnAssetDropped</text>
</a>
</g>
</g>
<!-- Node3&#45;&gt;Node11 -->
<g id="edge14_Node000003_Node000011" class="edge">
<title>Node3&#45;&gt;Node11</title>
<g id="a_edge14_Node000003_Node000011"><a xlink:title=" ">
<path fill="none" stroke="#63b8ff" d="M565.72,-275.52C545.93,-270.56 522.76,-264.75 501.85,-259.51"/>
<polygon fill="#63b8ff" stroke="#63b8ff" points="564.89,-278.92 575.44,-277.96 566.59,-272.13 564.89,-278.92"/>
</a>
</g>
</g>
<!-- Node12 -->
<g id="Node000012" class="node">
<title>Node12</title>
<g id="a_Node000012"><a xlink:href="classSpan_1_1InspectorPanel.html#ae32fda6018a2e54f880e6708ac5b89fe" target="_top" xlink:title="毎フレーム呼ばれる描画関数。">
<polygon fill="white" stroke="#666666" points="500,-211.5 382,-211.5 382,-181.5 500,-181.5 500,-211.5"/>
<text text-anchor="start" x="390" y="-199.5" font-family="Helvetica,sans-Serif" font-size="10.00">Span::InspectorPanel</text>
<text text-anchor="middle" x="441" y="-188.5" font-family="Helvetica,sans-Serif" font-size="10.00">::OnImGuiRender</text>
</a>
</g>
</g>
<!-- Node3&#45;&gt;Node12 -->
<g id="edge17_Node000003_Node000012" class="edge">
<title>Node3&#45;&gt;Node12</title>
<g id="a_edge17_Node000003_Node000012"><a xlink:title=" ">
<path fill="none" stroke="#63b8ff" d="M594,-271.57C575.03,-256.71 544.92,-234.75 516,-220.5 509.34,-217.22 502.12,-214.24 494.9,-211.58"/>
<polygon fill="#63b8ff" stroke="#63b8ff" points="591.88,-274.36 601.88,-277.85 596.24,-268.88 591.88,-274.36"/>
</a>
</g>
</g>
<!-- Node13 -->
<g id="Node000013" class="node">
<title>Node13</title>
<g id="a_Node000013"><a xlink:href="classSpan_1_1CameraSystem.html#a7f4bf0245dedd7a6245ef352246f7391" target="_top" xlink:title="毎フレーム呼び出されます。ここにゲームロジックを記述します。">
<polygon fill="white" stroke="#666666" points="502,-163.5 380,-163.5 380,-133.5 502,-133.5 502,-163.5"/>
<text text-anchor="start" x="388" y="-151.5" font-family="Helvetica,sans-Serif" font-size="10.00">Span::CameraSystem</text>
<text text-anchor="middle" x="441" y="-140.5" font-family="Helvetica,sans-Serif" font-size="10.00">::OnUpdate</text>
</a>
</g>
</g>
<!-- Node3&#45;&gt;Node13 -->
<g id="edge19_Node000003_Node000013" class="edge">
<title>Node3&#45;&gt;Node13</title>
<g id="a_edge19_Node000003_Node000013"><a xlink:title=" ">
<path fill="none" stroke="#63b8ff" d="M602.7,-269.3C586.8,-244.03 554.75,-198.48 516,-172.5 510.95,-169.12 505.39,-166.18 499.66,-163.64"/>
<polygon fill="#63b8ff" stroke="#63b8ff" points="599.77,-271.22 607.98,-277.91 605.74,-267.56 599.77,-271.22"/>
</a>
</g>
</g>
<!-- Node14 -->
<g id="Node000014" class="node">
<title>Node14</title>
<g id="a_Node000014"><a xlink:href="classSpan_1_1EditorCameraSystem.html#ae933964fa5d0f299954c926cf63e091a" target="_top" xlink:title="毎フレーム呼び出されます。ここにゲームロジックを記述します。">
<polygon fill="white" stroke="#666666" points="516,-115.5 366,-115.5 366,-85.5 516,-85.5 516,-115.5"/>
<text text-anchor="start" x="374" y="-103.5" font-family="Helvetica,sans-Serif" font-size="10.00">Span::EditorCameraSystem</text>
<text text-anchor="middle" x="441" y="-92.5" font-family="Helvetica,sans-Serif" font-size="10.00">::OnUpdate</text>
</a>
</g>
</g>
<!-- Node3&#45;&gt;Node14 -->
<g id="edge20_Node000003_Node000014" class="edge">
<title>Node3&#45;&gt;Node14</title>
<g id="a_edge20_Node000003_Node000014"><a xlink:title=" ">
<path fill="none" stroke="#63b8ff" d="M607.07,-268.09C594.81,-234.04 564.87,-163.43 516,-124.5 511.67,-121.05 506.83,-118.09 501.75,-115.55"/>
<polygon fill="#63b8ff" stroke="#63b8ff" points="603.85,-269.48 610.43,-277.78 610.46,-267.19 603.85,-269.48"/>
</a>
</g>
</g>
<!-- Node15 -->
<g id="Node000015" class="node">
<title>Node15</title>
<g id="a_Node000015"><a xlink:href="classSpan_1_1RenderingSystem.html#aa0113a8f2b55129115c4da2c6ba449c4" target="_top" xlink:title="毎フレーム呼び出されます。ここにゲームロジックを記述します。">
<polygon fill="white" stroke="#666666" points="507.5,-67.5 374.5,-67.5 374.5,-37.5 507.5,-37.5 507.5,-67.5"/>
<text text-anchor="start" x="382.5" y="-55.5" font-family="Helvetica,sans-Serif" font-size="10.00">Span::RenderingSystem</text>
<text text-anchor="middle" x="441" y="-44.5" font-family="Helvetica,sans-Serif" font-size="10.00">::OnUpdate</text>
</a>
</g>
</g>
<!-- Node3&#45;&gt;Node15 -->
<g id="edge21_Node000003_Node000015" class="edge">
<title>Node3&#45;&gt;Node15</title>
<g id="a_edge21_Node000003_Node000015"><a xlink:title=" ">
<path fill="none" stroke="#63b8ff" d="M609.94,-267.99C601.37,-226.61 575.72,-129.49 516,-76.5 512.16,-73.09 507.83,-70.17 503.24,-67.66"/>
<polygon fill="#63b8ff" stroke="#63b8ff" points="606.52,-268.75 611.88,-277.89 613.39,-267.41 606.52,-268.75"/>
</a>
</g>
</g>
<!-- Node4&#45;&gt;Node5 -->
<g id="edge4_Node000004_Node000005" class="edge">
<title>Node4&#45;&gt;Node5</title>
<g id="a_edge4_Node000004_Node000005"><a xlink:title=" ">
<path fill="none" stroke="#63b8ff" d="M385.02,-522.27C354.91,-512.28 318.04,-500.05 289.55,-490.61"/>
<polygon fill="#63b8ff" stroke="#63b8ff" points="383.95,-525.6 394.54,-525.42 386.15,-518.95 383.95,-525.6"/>
</a>
</g>
</g>
<!-- Node5&#45;&gt;Node5 -->
<g id="edge5_Node000005_Node000005" class="edge">
<title>Node5&#45;&gt;Node5</title>
<g id="a_edge5_Node000005_Node000005"><a xlink:title=" ">
<path fill="none" stroke="#63b8ff" d="M274.86,-501.1C270.5,-505.47 259.88,-508.5 243,-508.5 214.56,-508.5 203.9,-499.91 211.01,-490.78"/>
<polygon fill="#63b8ff" stroke="#63b8ff" points="278.36,-500.82 274.99,-490.78 271.36,-500.73 278.36,-500.82"/>
</a>
</g>
</g>
<!-- Node5&#45;&gt;Node6 -->
<g id="edge6_Node000005_Node000006" class="edge">
<title>Node5&#45;&gt;Node6</title>
<g id="a_edge6_Node000005_Node000006"><a xlink:title=" ">
<path fill="none" stroke="#63b8ff" d="M190.12,-457.16C162.67,-447.45 129.38,-435.68 103.48,-426.52"/>
<polygon fill="#63b8ff" stroke="#63b8ff" points="188.97,-460.46 199.56,-460.49 191.3,-453.86 188.97,-460.46"/>
</a>
</g>
</g>
<!-- Node7&#45;&gt;Node6 -->
<g id="edge8_Node000007_Node000006" class="edge">
<title>Node7&#45;&gt;Node6</title>
<g id="a_edge8_Node000007_Node000006"><a xlink:title=" ">
<path fill="none" stroke="#63b8ff" d="M168.73,-385.91C152.53,-389.76 135.57,-393.79 120.02,-397.48"/>
<polygon fill="#63b8ff" stroke="#63b8ff" points="169.77,-389.26 178.69,-383.54 168.16,-382.45 169.77,-389.26"/>
</a>
</g>
</g>
<!-- Node8&#45;&gt;Node9 -->
<g id="edge11_Node000008_Node000009" class="edge">
<title>Node8&#45;&gt;Node9</title>
<g id="a_edge11_Node000008_Node000009"><a xlink:title=" ">
<path fill="none" stroke="#63b8ff" d="M368.17,-314.74C347.88,-310.29 325.97,-305.48 306.28,-301.16"/>
<polygon fill="#63b8ff" stroke="#63b8ff" points="367.47,-318.17 377.98,-316.89 368.97,-311.33 367.47,-318.17"/>
</a>
</g>
</g>
<!-- Node10&#45;&gt;Node5 -->
<g id="edge13_Node000010_Node000005" class="edge">
<title>Node10&#45;&gt;Node5</title>
<g id="a_edge13_Node000010_Node000005"><a xlink:title=" ">
<path fill="none" stroke="#63b8ff" d="M370.95,-461.9C348.86,-464.26 324.62,-466.86 303.29,-469.15"/>
<polygon fill="#63b8ff" stroke="#63b8ff" points="371.36,-465.37 380.93,-460.83 370.61,-458.41 371.36,-465.37"/>
</a>
</g>
</g>
<!-- Node11&#45;&gt;Node9 -->
<g id="edge15_Node000011_Node000009" class="edge">
<title>Node11&#45;&gt;Node9</title>
<g id="a_edge15_Node000011_Node000009"><a xlink:title=" ">
<path fill="none" stroke="#63b8ff" d="M368.17,-260.26C347.88,-264.71 325.97,-269.52 306.28,-273.84"/>
<polygon fill="#63b8ff" stroke="#63b8ff" points="368.97,-263.67 377.98,-258.11 367.47,-256.83 368.97,-263.67"/>
</a>
</g>
</g>
<!-- Node17 -->
<g id="Node000017" class="node">
<title>Node17</title>
<g id="a_Node000017"><a xlink:href="namespaceSpan.html#a3f4b8561d46e69596ba6a7c3177a92e7" target="_top" xlink:title=" ">
<polygon fill="white" stroke="#666666" points="511.5,-19 370.5,-19 370.5,0 511.5,0 511.5,-19"/>
<text text-anchor="middle" x="441" y="-7" font-family="Helvetica,sans-Serif" font-size="10.00">Span::ConsoleCtrlHandler</text>
</a>
</g>
</g>
<!-- Node16&#45;&gt;Node17 -->
<g id="edge23_Node000016_Node000017" class="edge">
<title>Node16&#45;&gt;Node17</title>
<g id="a_edge23_Node000016_Node000017"><a xlink:title=" ">
<path fill="none" stroke="#63b8ff" d="M560.46,-35.75C536.21,-30.37 507.85,-24.09 484.97,-19.02"/>
<polygon fill="#63b8ff" stroke="#63b8ff" points="559.7,-39.16 570.22,-37.91 561.22,-32.33 559.7,-39.16"/>
</a>
</g>
</g>
<!-- Node17&#45;&gt;Node2 -->
<g id="edge24_Node000017_Node000002" class="edge">
<title>Node17&#45;&gt;Node2</title>
<g id="a_edge24_Node000017_Node000002"><a xlink:title=" ">
<path fill="none" stroke="#63b8ff" d="M521.8,-13.35C567.42,-16.21 625.61,-20.94 677,-28.5 688.66,-30.22 701.08,-32.56 712.82,-35.01"/>
<polygon fill="#63b8ff" stroke="#63b8ff" points="521.87,-9.85 511.68,-12.74 521.45,-16.84 521.87,-9.85"/>
</a>
</g>
</g>
</g>
</svg>
