<?xml version="1.0" encoding="UTF-8" standalone="no"?>
<!DOCTYPE svg PUBLIC "-//W3C//DTD SVG 1.1//EN"
 "http://www.w3.org/Graphics/SVG/1.1/DTD/svg11.dtd">
<!-- Generated by graphviz version 2.43.0 (0)
 -->
<!-- Title: Span::World::HasComponent Pages: 1 -->
<!--zoomable 385 -->

<svg id="main" version="1.1" xmlns="http://www.w3.org/2000/svg" xmlns:xlink="http://www.w3.org/1999/xlink" xml:space="preserve" onload="init(evt)">

<style type="text/css"><![CDATA[
.node, .edge {opacity: 0.7;}
.node.selected, .edge.selected {opacity: 1;}
.edge:hover path { stroke: red; }
.edge:hover polygon { stroke: red; fill: red; }
]]></style>

<defs>
  <circle id="rim" cx="0" cy="0" r="7"/>
  <circle id="rim2" cx="0" cy="0" r="3.5"/>
  <g id="zoomPlus">
    <use xlink:href="#rim" fill="#404040"><set attributeName="fill" to="#808080" begin="zoomplus.mouseover" end="zoomplus.mouseout"/></use>
    <path d="M-4,0h8M0,-4v8" fill="none" stroke="white" stroke-width="1.5" pointer-events="none"/>
  </g>
  <g id="zoomMin">
    <use xlink:href="#rim" fill="#404040"><set attributeName="fill" to="#808080" begin="zoomminus.mouseover" end="zoomminus.mouseout"/></use>
    <path d="M-4,0h8" fill="none" stroke="white" stroke-width="1.5" pointer-events="none"/>
  </g>
  <g id="arrowUp" transform="translate(30 24)">
    <use xlink:href="#rim"/>
    <path pointer-events="none" fill="none" stroke="white" stroke-width="1.5" d="M0,-3.0v7 M-2.5,-0.5L0,-3.0L2.5,-0.5"/>
  </g>
  <g id="arrowRight" transform="rotate(90) translate(36 -43)">
    <use xlink:href="#rim"/>
    <path pointer-events="none" fill="none" stroke="white" stroke-width="1.5" d="M0,-3.0v7 M-2.5,-0.5L0,-3.0L2.5,-0.5"/>
  </g>
  <g id="arrowDown" transform="rotate(180) translate(-30 -48)">
    <use xlink:href="#rim"/>
    <path pointer-events="none" fill="none" stroke="white" stroke-width="1.5" d="M0,-3.0v7 M-2.5,-0.5L0,-3.0L2.5,-0.5"/>
  </g>
  <g id="arrowLeft" transform="rotate(270) translate(-36 17)">
    <use xlink:href="#rim"/>
    <path pointer-events="none" fill="none" stroke="white" stroke-width="1.5" d="M0,-3.0v7 M-2.5,-0.5L0,-3.0L2.5,-0.5"/>
  </g>
  <g id="resetDef">
    <use xlink:href="#rim2" fill="#404040"><set attributeName="fill" to="#808080" begin="reset.mouseover" end="reset.mouseout"/></use>
  </g>
</defs>
<script type="application/ecmascript">
var viewWidth = 1384;
var viewHeight = 385;
var sectionId = 'dynsection-16';
</script>
<script type="application/ecmascript" xlink:href="svg.min.js"/>
<svg id="graph" class="graph">
<g id="viewport">
<title>Span::World::HasComponent</title>
<!-- Node1 -->
<g id="Node000001" class="node">
<title>Node1</title>
<g id="a_Node000001"><a xlink:title="指定したコンポーネントを持っているか確認します。">
<polygon fill="#999999" stroke="#666666" points="1376,-105 1221,-105 1221,-86 1376,-86 1376,-105"/>
<text text-anchor="middle" x="1298.5" y="-93" font-family="Helvetica,sans-Serif" font-size="10.00">Span::World::HasComponent</text>
</a>
</g>
</g>
<!-- Node2 -->
<g id="Node000002" class="node">
<title>Node2</title>
<g id="a_Node000002"><a xlink:href="classSpan_1_1World.html#a555e11829d3833ce35f444779c4c2369" target="_top" xlink:title="既存のEntityに新しいコンポーネントを追加します。">
<polygon fill="white" stroke="#666666" points="1174,-105 1019,-105 1019,-86 1174,-86 1174,-105"/>
<text text-anchor="middle" x="1096.5" y="-93" font-family="Helvetica,sans-Serif" font-size="10.00">Span::World::AddComponent</text>
</a>
</g>
</g>
<!-- Node1&#45;&gt;Node2 -->
<g id="edge1_Node000001_Node000002" class="edge">
<title>Node1&#45;&gt;Node2</title>
<g id="a_edge1_Node000001_Node000002"><a xlink:title=" ">
<path fill="none" stroke="#63b8ff" d="M1210.6,-95.5C1198.44,-95.5 1186,-95.5 1174.05,-95.5"/>
<polygon fill="#63b8ff" stroke="#63b8ff" points="1210.75,-99 1220.75,-95.5 1210.75,-92 1210.75,-99"/>
</a>
</g>
</g>
<!-- Node5 -->
<g id="Node000005" class="node">
<title>Node5</title>
<g id="a_Node000005"><a xlink:href="classSpan_1_1InspectorPanel.html#ae32fda6018a2e54f880e6708ac5b89fe" target="_top" xlink:title="毎フレーム呼ばれる描画関数。">
<polygon fill="white" stroke="#666666" points="959,-148.5 841,-148.5 841,-118.5 959,-118.5 959,-148.5"/>
<text text-anchor="start" x="849" y="-136.5" font-family="Helvetica,sans-Serif" font-size="10.00">Span::InspectorPanel</text>
<text text-anchor="middle" x="900" y="-125.5" font-family="Helvetica,sans-Serif" font-size="10.00">::OnImGuiRender</text>
</a>
</g>
</g>
<!-- Node1&#45;&gt;Node5 -->
<g id="edge25_Node000001_Node000005" class="edge">
<title>Node1&#45;&gt;Node5</title>
<g id="a_edge25_Node000001_Node000005"><a xlink:title=" ">
<path fill="none" stroke="#63b8ff" d="M1233.86,-106.69C1217.94,-109.21 1200.88,-111.67 1185,-113.5 1107.05,-122.46 1016.56,-128 959.07,-130.91"/>
<polygon fill="#63b8ff" stroke="#63b8ff" points="1234.81,-110.08 1244.13,-105.03 1233.7,-103.17 1234.81,-110.08"/>
</a>
</g>
</g>
<!-- Node6 -->
<g id="Node000006" class="node">
<title>Node6</title>
<g id="a_Node000006"><a xlink:href="classSpan_1_1SceneViewPanel.html#ad83a4a55f083c75371d0873322808796" target="_top" xlink:title="選択中のオブジェクトに対してマニピュレータ (矢印など) を描画します。">
<polygon fill="white" stroke="#666666" points="1159.5,-67.5 1033.5,-67.5 1033.5,-37.5 1159.5,-37.5 1159.5,-67.5"/>
<text text-anchor="start" x="1041.5" y="-55.5" font-family="Helvetica,sans-Serif" font-size="10.00">Span::SceneViewPanel</text>
<text text-anchor="middle" x="1096.5" y="-44.5" font-family="Helvetica,sans-Serif" font-size="10.00">::DrawGizmo</text>
</a>
</g>
</g>
<!-- Node1&#45;&gt;Node6 -->
<g id="edge6_Node000001_Node000006" class="edge">
<title>Node1&#45;&gt;Node6</title>
<g id="a_edge6_Node000001_Node000006"><a xlink:title=" ">
<path fill="none" stroke="#63b8ff" d="M1243.13,-83.81C1217.31,-78.26 1186.33,-71.6 1159.59,-65.85"/>
<polygon fill="#63b8ff" stroke="#63b8ff" points="1242.6,-87.28 1253.11,-85.96 1244.07,-80.43 1242.6,-87.28"/>
</a>
</g>
</g>
<!-- Node8 -->
<g id="Node000008" class="node">
<title>Node8</title>
<g id="a_Node000008"><a xlink:href="classSpan_1_1World.html#a0cebb4506e5366293854cde16a208677" target="_top" xlink:title="コンポーネントへの参照を取得します。">
<polygon fill="white" stroke="#666666" points="1173.5,-250 1019.5,-250 1019.5,-231 1173.5,-231 1173.5,-250"/>
<text text-anchor="middle" x="1096.5" y="-238" font-family="Helvetica,sans-Serif" font-size="10.00">Span::World::GetComponent</text>
</a>
</g>
</g>
<!-- Node1&#45;&gt;Node8 -->
<g id="edge8_Node000001_Node000008" class="edge">
<title>Node1&#45;&gt;Node8</title>
<g id="a_edge8_Node000001_Node000008"><a xlink:title=" ">
<path fill="none" stroke="#63b8ff" d="M1276.08,-111.03C1234.61,-141.1 1144.49,-206.44 1110.67,-230.95"/>
<polygon fill="#63b8ff" stroke="#63b8ff" points="1278.34,-113.72 1284.38,-105.01 1274.23,-108.05 1278.34,-113.72"/>
</a>
</g>
</g>
<!-- Node14 -->
<g id="Node000014" class="node">
<title>Node14</title>
<g id="a_Node000014"><a xlink:href="classSpan_1_1World.html#a5d815ca319bd1f2756394cc107818c46" target="_top" xlink:title="エンティティから指定したコンポーネントを削除します。">
<polygon fill="white" stroke="#666666" points="1185,-19 1008,-19 1008,0 1185,0 1185,-19"/>
<text text-anchor="middle" x="1096.5" y="-7" font-family="Helvetica,sans-Serif" font-size="10.00">Span::World::RemoveComponent</text>
</a>
</g>
</g>
<!-- Node1&#45;&gt;Node14 -->
<g id="edge26_Node000001_Node000014" class="edge">
<title>Node1&#45;&gt;Node14</title>
<g id="a_edge26_Node000001_Node000014"><a xlink:title=" ">
<path fill="none" stroke="#63b8ff" d="M1276.52,-80.17C1254.7,-64.92 1219.02,-41.91 1185,-28.5 1175.31,-24.68 1164.7,-21.56 1154.31,-19.03"/>
<polygon fill="#63b8ff" stroke="#63b8ff" points="1274.53,-83.05 1284.71,-85.98 1278.59,-77.34 1274.53,-83.05"/>
</a>
</g>
</g>
<!-- Node3 -->
<g id="Node000003" class="node">
<title>Node3</title>
<g id="a_Node000003"><a xlink:href="classSpan_1_1HierarchyPanel.html#a2c08f8c6e0cafaed96f7846d76ff2b09" target="_top" xlink:title="1つのエンティティとその子孫を再帰的に描画します。">
<polygon fill="white" stroke="#666666" points="276,-210.5 156,-210.5 156,-180.5 276,-180.5 276,-210.5"/>
<text text-anchor="start" x="164" y="-198.5" font-family="Helvetica,sans-Serif" font-size="10.00">Span::HierarchyPanel</text>
<text text-anchor="middle" x="216" y="-187.5" font-family="Helvetica,sans-Serif" font-size="10.00">::DrawEntityNode</text>
</a>
</g>
</g>
<!-- Node2&#45;&gt;Node3 -->
<g id="edge2_Node000002_Node000003" class="edge">
<title>Node2&#45;&gt;Node3</title>
<g id="a_edge2_Node000002_Node000003"><a xlink:title=" ">
<path fill="none" stroke="#63b8ff" d="M1008.3,-93.68C932.4,-92.25 819.43,-90.5 721,-90.5 721,-90.5 721,-90.5 539,-90.5 424.34,-90.5 297.53,-151.42 243.6,-180.46"/>
<polygon fill="#63b8ff" stroke="#63b8ff" points="1008.69,-97.19 1018.76,-93.88 1008.83,-90.19 1008.69,-97.19"/>
</a>
</g>
</g>
<!-- Node2&#45;&gt;Node5 -->
<g id="edge5_Node000002_Node000005" class="edge">
<title>Node2&#45;&gt;Node5</title>
<g id="a_edge5_Node000002_Node000005"><a xlink:title=" ">
<path fill="none" stroke="#63b8ff" d="M1036.76,-106.98C1012.19,-111.78 983.71,-117.34 959.2,-122.13"/>
<polygon fill="#63b8ff" stroke="#63b8ff" points="1037.53,-110.39 1046.67,-105.04 1036.18,-103.52 1037.53,-110.39"/>
</a>
</g>
</g>
<!-- Node3&#45;&gt;Node3 -->
<g id="edge3_Node000003_Node000003" class="edge">
<title>Node3&#45;&gt;Node3</title>
<g id="a_edge3_Node000003_Node000003"><a xlink:title=" ">
<path fill="none" stroke="#63b8ff" d="M243.31,-221.1C239.57,-225.47 230.47,-228.5 216,-228.5 191.62,-228.5 182.48,-219.91 188.58,-210.78"/>
<polygon fill="#63b8ff" stroke="#63b8ff" points="246.81,-220.81 243.42,-210.78 239.81,-220.74 246.81,-220.81"/>
</a>
</g>
</g>
<!-- Node4 -->
<g id="Node000004" class="node">
<title>Node4</title>
<g id="a_Node000004"><a xlink:href="classSpan_1_1HierarchyPanel.html#a6481eb57cd9f45cb3a094a26f35bbaa0" target="_top" xlink:title="毎フレーム呼ばれる描画関数。">
<polygon fill="white" stroke="#666666" points="120,-210.5 0,-210.5 0,-180.5 120,-180.5 120,-210.5"/>
<text text-anchor="start" x="8" y="-198.5" font-family="Helvetica,sans-Serif" font-size="10.00">Span::HierarchyPanel</text>
<text text-anchor="middle" x="60" y="-187.5" font-family="Helvetica,sans-Serif" font-size="10.00">::OnImGuiRender</text>
</a>
</g>
</g>
<!-- Node3&#45;&gt;Node4 -->
<g id="edge4_Node000003_Node000004" class="edge">
<title>Node3&#45;&gt;Node4</title>
<g id="a_edge4_Node000003_Node000004"><a xlink:title=" ">
<path fill="none" stroke="#63b8ff" d="M145.63,-195.5C137.14,-195.5 128.52,-195.5 120.2,-195.5"/>
<polygon fill="#63b8ff" stroke="#63b8ff" points="145.9,-199 155.9,-195.5 145.9,-192 145.9,-199"/>
</a>
</g>
</g>
<!-- Node7 -->
<g id="Node000007" class="node">
<title>Node7</title>
<g id="a_Node000007"><a xlink:href="classSpan_1_1SceneViewPanel.html#aab2935de58bd68267a680cabd3656c9f" target="_top" xlink:title="毎フレームの描画処理。 画像の表示、ツールバーのオーバーレイ、ギズモの描画を行います。">
<polygon fill="white" stroke="#666666" points="963,-62.5 837,-62.5 837,-32.5 963,-32.5 963,-62.5"/>
<text text-anchor="start" x="845" y="-50.5" font-family="Helvetica,sans-Serif" font-size="10.00">Span::SceneViewPanel</text>
<text text-anchor="middle" x="900" y="-39.5" font-family="Helvetica,sans-Serif" font-size="10.00">::OnImGuiRender</text>
</a>
</g>
</g>
<!-- Node6&#45;&gt;Node7 -->
<g id="edge7_Node000006_Node000007" class="edge">
<title>Node6&#45;&gt;Node7</title>
<g id="a_edge7_Node000006_Node000007"><a xlink:title=" ">
<path fill="none" stroke="#63b8ff" d="M1023.25,-50.64C1003.5,-50.14 982.28,-49.59 963.15,-49.1"/>
<polygon fill="#63b8ff" stroke="#63b8ff" points="1023.34,-54.15 1033.42,-50.9 1023.52,-47.15 1023.34,-54.15"/>
</a>
</g>
</g>
<!-- Node8&#45;&gt;Node3 -->
<g id="edge19_Node000008_Node000003" class="edge">
<title>Node8&#45;&gt;Node3</title>
<g id="a_edge19_Node000008_Node000003"><a xlink:title=" ">
<path fill="none" stroke="#63b8ff" d="M1065.15,-254.12C1002.29,-281.05 852.73,-338.5 721,-338.5 721,-338.5 721,-338.5 539,-338.5 433.81,-338.5 405.26,-320.16 312,-271.5 280.73,-255.18 249.83,-227.81 232.12,-210.75"/>
<polygon fill="#63b8ff" stroke="#63b8ff" points="1066.69,-257.27 1074.48,-250.08 1063.91,-250.84 1066.69,-257.27"/>
</a>
</g>
</g>
<!-- Node8&#45;&gt;Node4 -->
<g id="edge22_Node000008_Node000004" class="edge">
<title>Node8&#45;&gt;Node4</title>
<g id="a_edge22_Node000008_Node000004"><a xlink:title=" ">
<path fill="none" stroke="#63b8ff" d="M1076.07,-256.79C1052.81,-275.47 1011.95,-305.65 972,-322.5 866.86,-366.83 835.11,-376.5 721,-376.5 721,-376.5 721,-376.5 371,-376.5 239.81,-376.5 114.77,-254.12 74.46,-210.62"/>
<polygon fill="#63b8ff" stroke="#63b8ff" points="1078.56,-259.29 1084.09,-250.25 1074.13,-253.86 1078.56,-259.29"/>
</a>
</g>
</g>
<!-- Node8&#45;&gt;Node5 -->
<g id="edge23_Node000008_Node000005" class="edge">
<title>Node8&#45;&gt;Node5</title>
<g id="a_edge23_Node000008_Node000005"><a xlink:title=" ">
<path fill="none" stroke="#63b8ff" d="M1073.46,-224.91C1049.28,-208.21 1008.98,-181.55 972,-162.5 962.29,-157.5 951.52,-152.73 941.36,-148.55"/>
<polygon fill="#63b8ff" stroke="#63b8ff" points="1071.69,-227.94 1081.9,-230.79 1075.69,-222.2 1071.69,-227.94"/>
</a>
</g>
</g>
<!-- Node9 -->
<g id="Node000009" class="node">
<title>Node9</title>
<g id="a_Node000009"><a xlink:href="classSpan_1_1RelationshipSystem.html#a67cd257ab95cd2a44e3c8830ccd4cf26" target="_top" xlink:title="指定したエンティティを現在の親から切断し、孤立させます。">
<polygon fill="white" stroke="#666666" points="972,-234.5 828,-234.5 828,-204.5 972,-204.5 972,-234.5"/>
<text text-anchor="start" x="836" y="-222.5" font-family="Helvetica,sans-Serif" font-size="10.00">Span::RelationshipSystem</text>
<text text-anchor="middle" x="900" y="-211.5" font-family="Helvetica,sans-Serif" font-size="10.00">::Disconnect</text>
</a>
</g>
</g>
<!-- Node8&#45;&gt;Node9 -->
<g id="edge9_Node000008_Node000009" class="edge">
<title>Node8&#45;&gt;Node9</title>
<g id="a_edge9_Node000008_Node000009"><a xlink:title=" ">
<path fill="none" stroke="#63b8ff" d="M1009.17,-231.18C996.82,-229.85 984.23,-228.49 972.21,-227.19"/>
<polygon fill="#63b8ff" stroke="#63b8ff" points="1009.15,-234.7 1019.47,-232.29 1009.9,-227.74 1009.15,-234.7"/>
</a>
</g>
</g>
<!-- Node10 -->
<g id="Node000010" class="node">
<title>Node10</title>
<g id="a_Node000010"><a xlink:href="classSpan_1_1RelationshipSystem.html#aa4b5cd977689e1b6689786315d0fa6e6" target="_top" xlink:title="特定の兄弟の「直前」に挿入します (順序変更用)。">
<polygon fill="white" stroke="#666666" points="612,-272.5 468,-272.5 468,-242.5 612,-242.5 612,-272.5"/>
<text text-anchor="start" x="476" y="-260.5" font-family="Helvetica,sans-Serif" font-size="10.00">Span::RelationshipSystem</text>
<text text-anchor="middle" x="540" y="-249.5" font-family="Helvetica,sans-Serif" font-size="10.00">::InsertBefore</text>
</a>
</g>
</g>
<!-- Node8&#45;&gt;Node10 -->
<g id="edge21_Node000008_Node000010" class="edge">
<title>Node8&#45;&gt;Node10</title>
<g id="a_edge21_Node000008_Node000010"><a xlink:title=" ">
<path fill="none" stroke="#63b8ff" d="M1008.95,-243.15C899.74,-246.5 713.95,-252.2 612.43,-255.31"/>
<polygon fill="#63b8ff" stroke="#63b8ff" points="1009.38,-246.64 1019.27,-242.84 1009.17,-239.65 1009.38,-246.64"/>
</a>
</g>
</g>
<!-- Node11 -->
<g id="Node000011" class="node">
<title>Node11</title>
<g id="a_Node000011"><a xlink:href="classSpan_1_1HierarchyPanel.html#af958ff25d0ba0576ae4848bbd01b2031" target="_top" xlink:title="ドラッグ&amp;ドロップの受け入れ処理 (親子付け替え・並び替え)。">
<polygon fill="white" stroke="#666666" points="432,-262.5 312,-262.5 312,-232.5 432,-232.5 432,-262.5"/>
<text text-anchor="start" x="320" y="-250.5" font-family="Helvetica,sans-Serif" font-size="10.00">Span::HierarchyPanel</text>
<text text-anchor="middle" x="372" y="-239.5" font-family="Helvetica,sans-Serif" font-size="10.00">::HandleDragDrop</text>
</a>
</g>
</g>
<!-- Node8&#45;&gt;Node11 -->
<g id="edge20_Node000008_Node000011" class="edge">
<title>Node8&#45;&gt;Node11</title>
<g id="a_edge20_Node000008_Node000011"><a xlink:title=" ">
<path fill="none" stroke="#63b8ff" d="M1033.9,-251.75C1014.18,-255 992.22,-258.28 972,-260.5 749.15,-284.98 688.89,-319.84 468,-281.5 446.77,-277.82 424.01,-269.82 406.09,-262.51"/>
<polygon fill="#63b8ff" stroke="#63b8ff" points="1034.7,-255.16 1043.98,-250.05 1033.54,-248.26 1034.7,-255.16"/>
</a>
</g>
</g>
<!-- Node12 -->
<g id="Node000012" class="node">
<title>Node12</title>
<g id="a_Node000012"><a xlink:href="classSpan_1_1RelationshipSystem.html#a22d8d93f263f586db5a1aa6de46711a0" target="_top" xlink:title="親子関係を設定します (末尾に追加)。">
<polygon fill="white" stroke="#666666" points="792,-193.5 648,-193.5 648,-163.5 792,-163.5 792,-193.5"/>
<text text-anchor="start" x="656" y="-181.5" font-family="Helvetica,sans-Serif" font-size="10.00">Span::RelationshipSystem</text>
<text text-anchor="middle" x="720" y="-170.5" font-family="Helvetica,sans-Serif" font-size="10.00">::SetParent</text>
</a>
</g>
</g>
<!-- Node8&#45;&gt;Node12 -->
<g id="edge24_Node000008_Node000012" class="edge">
<title>Node8&#45;&gt;Node12</title>
<g id="a_edge24_Node000008_Node000012"><a xlink:title=" ">
<path fill="none" stroke="#63b8ff" d="M1065.14,-226.7C1040.56,-216.21 1004.77,-202.43 972,-195.5 912.18,-182.84 842.72,-178.94 792.05,-178.01"/>
<polygon fill="#63b8ff" stroke="#63b8ff" points="1064.05,-230.05 1074.62,-230.83 1066.84,-223.63 1064.05,-230.05"/>
</a>
</g>
</g>
<!-- Node9&#45;&gt;Node10 -->
<g id="edge10_Node000009_Node000010" class="edge">
<title>Node9&#45;&gt;Node10</title>
<g id="a_edge10_Node000009_Node000010"><a xlink:title=" ">
<path fill="none" stroke="#63b8ff" d="M817.71,-228.13C755.76,-234.7 671.28,-243.67 612.02,-249.96"/>
<polygon fill="#63b8ff" stroke="#63b8ff" points="818.27,-231.59 827.84,-227.05 817.53,-224.63 818.27,-231.59"/>
</a>
</g>
</g>
<!-- Node9&#45;&gt;Node12 -->
<g id="edge13_Node000009_Node000012" class="edge">
<title>Node9&#45;&gt;Node12</title>
<g id="a_edge13_Node000009_Node000012"><a xlink:title=" ">
<path fill="none" stroke="#63b8ff" d="M823.82,-202.18C811.33,-199.31 798.48,-196.35 786.26,-193.53"/>
<polygon fill="#63b8ff" stroke="#63b8ff" points="823.2,-205.63 833.73,-204.47 824.77,-198.81 823.2,-205.63"/>
</a>
</g>
</g>
<!-- Node10&#45;&gt;Node11 -->
<g id="edge11_Node000010_Node000011" class="edge">
<title>Node10&#45;&gt;Node11</title>
<g id="a_edge11_Node000010_Node000011"><a xlink:title=" ">
<path fill="none" stroke="#63b8ff" d="M457.57,-252.59C448.97,-252.08 440.35,-251.56 432.07,-251.06"/>
<polygon fill="#63b8ff" stroke="#63b8ff" points="457.45,-256.09 467.64,-253.2 457.87,-249.11 457.45,-256.09"/>
</a>
</g>
</g>
<!-- Node11&#45;&gt;Node3 -->
<g id="edge12_Node000011_Node000003" class="edge">
<title>Node11&#45;&gt;Node3</title>
<g id="a_edge12_Node000011_Node000003"><a xlink:title=" ">
<path fill="none" stroke="#63b8ff" d="M316.89,-229.23C298.75,-223.1 278.75,-216.35 261.44,-210.51"/>
<polygon fill="#63b8ff" stroke="#63b8ff" points="315.86,-232.58 326.46,-232.46 318.1,-225.94 315.86,-232.58"/>
</a>
</g>
</g>
<!-- Node12&#45;&gt;Node4 -->
<g id="edge18_Node000012_Node000004" class="edge">
<title>Node12&#45;&gt;Node4</title>
<g id="a_edge18_Node000012_Node000004"><a xlink:title=" ">
<path fill="none" stroke="#63b8ff" d="M637.84,-169.49C527.94,-159.12 325.98,-146.48 156,-171.5 141.69,-173.61 126.42,-176.96 112.39,-180.5"/>
<polygon fill="#63b8ff" stroke="#63b8ff" points="637.57,-172.98 647.86,-170.46 638.24,-166.02 637.57,-172.98"/>
</a>
</g>
</g>
<!-- Node12&#45;&gt;Node10 -->
<g id="edge17_Node000012_Node000010" class="edge">
<title>Node12&#45;&gt;Node10</title>
<g id="a_edge17_Node000012_Node000010"><a xlink:title=" ">
<path fill="none" stroke="#63b8ff" d="M671.8,-197.61C663.79,-201.09 655.61,-204.79 648,-208.5 631.55,-216.52 628.5,-220.58 612,-228.5 601.92,-233.34 590.81,-238.12 580.43,-242.37"/>
<polygon fill="#63b8ff" stroke="#63b8ff" points="673.26,-200.79 681.08,-193.64 670.51,-194.35 673.26,-200.79"/>
</a>
</g>
</g>
<!-- Node12&#45;&gt;Node11 -->
<g id="edge16_Node000012_Node000011" class="edge">
<title>Node12&#45;&gt;Node11</title>
<g id="a_edge16_Node000012_Node000011"><a xlink:title=" ">
<path fill="none" stroke="#63b8ff" d="M637.81,-194.69C574.74,-207.27 488.76,-224.42 432.1,-235.71"/>
<polygon fill="#63b8ff" stroke="#63b8ff" points="638.61,-198.1 647.73,-192.71 637.24,-191.24 638.61,-198.1"/>
</a>
</g>
</g>
<!-- Node13 -->
<g id="Node000013" class="node">
<title>Node13</title>
<g id="a_Node000013"><a xlink:href="classSpan_1_1HierarchyPanel.html#a331d846c46df5f3346cfc7bb8c7a8e76" target="_top" xlink:title="エンティティ上での右クリックメニューを描画します。">
<polygon fill="white" stroke="#666666" points="432,-203.5 312,-203.5 312,-173.5 432,-173.5 432,-203.5"/>
<text text-anchor="start" x="320" y="-191.5" font-family="Helvetica,sans-Serif" font-size="10.00">Span::HierarchyPanel</text>
<text text-anchor="middle" x="372" y="-180.5" font-family="Helvetica,sans-Serif" font-size="10.00">::DrawContextMenu</text>
</a>
</g>
</g>
<!-- Node12&#45;&gt;Node13 -->
<g id="edge14_Node000012_Node000013" class="edge">
<title>Node12&#45;&gt;Node13</title>
<g id="a_edge14_Node000012_Node000013"><a xlink:title=" ">
<path fill="none" stroke="#63b8ff" d="M637.42,-180.86C574.39,-182.68 488.64,-185.16 432.1,-186.79"/>
<polygon fill="#63b8ff" stroke="#63b8ff" points="637.83,-184.35 647.73,-180.56 637.63,-177.35 637.83,-184.35"/>
</a>
</g>
</g>
<!-- Node13&#45;&gt;Node3 -->
<g id="edge15_Node000013_Node000003" class="edge">
<title>Node13&#45;&gt;Node3</title>
<g id="a_edge15_Node000013_Node000003"><a xlink:title=" ">
<path fill="none" stroke="#63b8ff" d="M301.63,-191.65C293.14,-192.04 284.52,-192.43 276.2,-192.81"/>
<polygon fill="#63b8ff" stroke="#63b8ff" points="302.07,-195.14 311.9,-191.19 301.75,-188.14 302.07,-195.14"/>
</a>
</g>
</g>
</g>
</svg>

<g id="navigator" transform="translate(0 0)" fill="#404254">
  <rect fill="#f2f5e9" fill-opacity="0.5" stroke="#606060" stroke-width=".5" x="0" y="0" width="60" height="60"/>
  <use id="zoomplus" xlink:href="#zoomPlus" x="17" y="9" onmousedown="handleZoom(evt,'in')"/>
  <use id="zoomminus" xlink:href="#zoomMin" x="42" y="9" onmousedown="handleZoom(evt,'out')"/>
  <use id="reset" xlink:href="#resetDef" x="30" y="36" onmousedown="handleReset()"/>
   <use id="arrowup" xlink:href="#arrowUp" x="0" y="0" onmousedown="handlePan(0,-1)"/>
  <use id="arrowright" xlink:href="#arrowRight" x="0" y="0" onmousedown="handlePan(1,0)"/>
  <use id="arrowdown" xlink:href="#arrowDown" x="0" y="0" onmousedown="handlePan(0,1)"/>
  <use id="arrowleft" xlink:href="#arrowLeft" x="0" y="0" onmousedown="handlePan(-1,0)"/>
</g>
<svg viewBox="0 0 15 15" width="100%" height="30px" preserveAspectRatio="xMaxYMin meet">
 <g id="arrow_out" transform="scale(0.3 0.3)">
  <a xlink:href="classSpan_1_1World_a059bbe879fcaf0a57d1b935be05810f0_icgraph_org.svg" target="_base">
   <rect id="button" ry="5" rx="5" y="6" x="6" height="38" width="38"
        fill="#f2f5e9" fill-opacity="0.5" stroke="#606060" stroke-width="1.0"/>
   <path id="arrow"
     d="M 11.500037,31.436501 C 11.940474,20.09759 22.043105,11.32322 32.158766,21.979434 L 37.068811,17.246167 C 37.068811,17.246167 37.088388,32 37.088388,32 L 22.160133,31.978069 C 22.160133,31.978069 26.997745,27.140456 26.997745,27.140456 C 18.528582,18.264221 13.291696,25.230495 11.500037,31.436501 z"
     style="fill:#404040;"/>
  </a>
 </g>
</svg>

<style type='text/css'>
<![CDATA[
[data-mouse-over-selected='false'] { opacity: 0.7; }
[data-mouse-over-selected='true']  { opacity: 1.0; }
]]>
</style>
<script type="application/ecmascript"><![CDATA[
document.addEventListener('DOMContentLoaded', (event) => {
  highlightEdges();
  highlightAdjacentNodes();
});
]]></script>
</svg>
