<?xml version="1.0" encoding="UTF-8" standalone="no"?>
<!DOCTYPE svg PUBLIC "-//W3C//DTD SVG 1.1//EN"
 "http://www.w3.org/Graphics/SVG/1.1/DTD/svg11.dtd">
<!-- Generated by graphviz version 2.43.0 (0)
 -->
<!-- Title: Span::EditorPanel::EditorPanel Pages: 1 -->
<svg width="297pt" height="182pt"
 viewBox="0.00 0.00 297.00 182.00" xmlns="http://www.w3.org/2000/svg" xmlns:xlink="http://www.w3.org/1999/xlink">
<g id="graph0" class="graph" transform="scale(1 1) rotate(0) translate(4 178)">
<title>Span::EditorPanel::EditorPanel</title>
<!-- Node1 -->
<g id="Node000001" class="node">
<title>Node1</title>
<g id="a_Node000001"><a xlink:title="コンストラクタ。">
<polygon fill="#999999" stroke="#666666" points="289,-102 182,-102 182,-72 289,-72 289,-102"/>
<text text-anchor="start" x="190" y="-90" font-family="Helvetica,sans-Serif" font-size="10.00">Span::EditorPanel::</text>
<text text-anchor="middle" x="235.5" y="-79" font-family="Helvetica,sans-Serif" font-size="10.00">EditorPanel</text>
</a>
</g>
</g>
<!-- Node2 -->
<g id="Node000002" class="node">
<title>Node2</title>
<g id="a_Node000002"><a xlink:href="classSpan_1_1HierarchyPanel.html#a545fc24e0e7a780ea2f4a73e2e5778d0" target="_top" xlink:title=" ">
<polygon fill="white" stroke="#666666" points="133,-174 13,-174 13,-144 133,-144 133,-174"/>
<text text-anchor="start" x="21" y="-162" font-family="Helvetica,sans-Serif" font-size="10.00">Span::HierarchyPanel</text>
<text text-anchor="middle" x="73" y="-151" font-family="Helvetica,sans-Serif" font-size="10.00">::HierarchyPanel</text>
</a>
</g>
</g>
<!-- Node1&#45;&gt;Node2 -->
<g id="edge1_Node000001_Node000002" class="edge">
<title>Node1&#45;&gt;Node2</title>
<g id="a_edge1_Node000001_Node000002"><a xlink:title=" ">
<path fill="none" stroke="#63b8ff" d="M200.47,-107.28C184.3,-116.43 164.5,-126.97 146,-135 138.75,-138.15 130.94,-141.14 123.23,-143.87"/>
<polygon fill="#63b8ff" stroke="#63b8ff" points="202.6,-110.09 209.53,-102.07 199.11,-104.02 202.6,-110.09"/>
</a>
</g>
</g>
<!-- Node3 -->
<g id="Node000003" class="node">
<title>Node3</title>
<g id="a_Node000003"><a xlink:href="classSpan_1_1InspectorPanel.html#a2c067589801cb71a36c33e142aed6eff" target="_top" xlink:title=" ">
<polygon fill="white" stroke="#666666" points="132,-126 14,-126 14,-96 132,-96 132,-126"/>
<text text-anchor="start" x="22" y="-114" font-family="Helvetica,sans-Serif" font-size="10.00">Span::InspectorPanel</text>
<text text-anchor="middle" x="73" y="-103" font-family="Helvetica,sans-Serif" font-size="10.00">::InspectorPanel</text>
</a>
</g>
</g>
<!-- Node1&#45;&gt;Node3 -->
<g id="edge2_Node000001_Node000003" class="edge">
<title>Node1&#45;&gt;Node3</title>
<g id="a_edge2_Node000001_Node000003"><a xlink:title=" ">
<path fill="none" stroke="#63b8ff" d="M171.69,-96.39C158.69,-98.34 145.05,-100.38 132.22,-102.29"/>
<polygon fill="#63b8ff" stroke="#63b8ff" points="172.57,-99.8 181.95,-94.86 171.54,-92.88 172.57,-99.8"/>
</a>
</g>
</g>
<!-- Node4 -->
<g id="Node000004" class="node">
<title>Node4</title>
<g id="a_Node000004"><a xlink:href="classSpan_1_1ProjectBrowserPanel.html#a6c27479ef474350ae74a7855502e3c71" target="_top" xlink:title="コンストラクタ">
<polygon fill="white" stroke="#666666" points="146,-78 0,-78 0,-48 146,-48 146,-78"/>
<text text-anchor="start" x="8" y="-66" font-family="Helvetica,sans-Serif" font-size="10.00">Span::ProjectBrowserPanel</text>
<text text-anchor="middle" x="73" y="-55" font-family="Helvetica,sans-Serif" font-size="10.00">::ProjectBrowserPanel</text>
</a>
</g>
</g>
<!-- Node1&#45;&gt;Node4 -->
<g id="edge3_Node000001_Node000004" class="edge">
<title>Node1&#45;&gt;Node4</title>
<g id="a_edge3_Node000001_Node000004"><a xlink:title=" ">
<path fill="none" stroke="#63b8ff" d="M171.85,-77.63C163.44,-76.37 154.76,-75.08 146.2,-73.8"/>
<polygon fill="#63b8ff" stroke="#63b8ff" points="171.54,-81.12 181.95,-79.14 172.57,-74.2 171.54,-81.12"/>
</a>
</g>
</g>
<!-- Node5 -->
<g id="Node000005" class="node">
<title>Node5</title>
<g id="a_Node000005"><a xlink:href="classSpan_1_1SceneViewPanel.html#a7ad03f3f00cf3f55ef43e368b58e7df6" target="_top" xlink:title=" ">
<polygon fill="white" stroke="#666666" points="136,-30 10,-30 10,0 136,0 136,-30"/>
<text text-anchor="start" x="18" y="-18" font-family="Helvetica,sans-Serif" font-size="10.00">Span::SceneViewPanel</text>
<text text-anchor="middle" x="73" y="-7" font-family="Helvetica,sans-Serif" font-size="10.00">::SceneViewPanel</text>
</a>
</g>
</g>
<!-- Node1&#45;&gt;Node5 -->
<g id="edge4_Node000001_Node000005" class="edge">
<title>Node1&#45;&gt;Node5</title>
<g id="a_edge4_Node000001_Node000005"><a xlink:title=" ">
<path fill="none" stroke="#63b8ff" d="M200.47,-66.72C184.3,-57.57 164.5,-47.03 146,-39 138.75,-35.85 130.94,-32.86 123.23,-30.13"/>
<polygon fill="#63b8ff" stroke="#63b8ff" points="199.11,-69.98 209.53,-71.93 202.6,-63.91 199.11,-69.98"/>
</a>
</g>
</g>
</g>
</svg>
