<?xml version="1.0" encoding="UTF-8" standalone="no"?>
<!DOCTYPE svg PUBLIC "-//W3C//DTD SVG 1.1//EN"
 "http://www.w3.org/Graphics/SVG/1.1/DTD/svg11.dtd">
<!-- Generated by graphviz version 2.43.0 (0)
 -->
<!-- Title: Span::EntityBuilder Pages: 1 -->
<!--zoomable 711 -->

<svg id="main" version="1.1" xmlns="http://www.w3.org/2000/svg" xmlns:xlink="http://www.w3.org/1999/xlink" xml:space="preserve" onload="init(evt)">

<style type="text/css"><![CDATA[
.node, .edge {opacity: 0.7;}
.node.selected, .edge.selected {opacity: 1;}
.edge:hover path { stroke: red; }
.edge:hover polygon { stroke: red; fill: red; }
]]></style>

<defs>
  <circle id="rim" cx="0" cy="0" r="7"/>
  <circle id="rim2" cx="0" cy="0" r="3.5"/>
  <g id="zoomPlus">
    <use xlink:href="#rim" fill="#404040"><set attributeName="fill" to="#808080" begin="zoomplus.mouseover" end="zoomplus.mouseout"/></use>
    <path d="M-4,0h8M0,-4v8" fill="none" stroke="white" stroke-width="1.5" pointer-events="none"/>
  </g>
  <g id="zoomMin">
    <use xlink:href="#rim" fill="#404040"><set attributeName="fill" to="#808080" begin="zoomminus.mouseover" end="zoomminus.mouseout"/></use>
    <path d="M-4,0h8" fill="none" stroke="white" stroke-width="1.5" pointer-events="none"/>
  </g>
  <g id="arrowUp" transform="translate(30 24)">
    <use xlink:href="#rim"/>
    <path pointer-events="none" fill="none" stroke="white" stroke-width="1.5" d="M0,-3.0v7 M-2.5,-0.5L0,-3.0L2.5,-0.5"/>
  </g>
  <g id="arrowRight" transform="rotate(90) translate(36 -43)">
    <use xlink:href="#rim"/>
    <path pointer-events="none" fill="none" stroke="white" stroke-width="1.5" d="M0,-3.0v7 M-2.5,-0.5L0,-3.0L2.5,-0.5"/>
  </g>
  <g id="arrowDown" transform="rotate(180) translate(-30 -48)">
    <use xlink:href="#rim"/>
    <path pointer-events="none" fill="none" stroke="white" stroke-width="1.5" d="M0,-3.0v7 M-2.5,-0.5L0,-3.0L2.5,-0.5"/>
  </g>
  <g id="arrowLeft" transform="rotate(270) translate(-36 17)">
    <use xlink:href="#rim"/>
    <path pointer-events="none" fill="none" stroke="white" stroke-width="1.5" d="M0,-3.0v7 M-2.5,-0.5L0,-3.0L2.5,-0.5"/>
  </g>
  <g id="resetDef">
    <use xlink:href="#rim2" fill="#404040"><set attributeName="fill" to="#808080" begin="reset.mouseover" end="reset.mouseout"/></use>
  </g>
</defs>
<script type="application/ecmascript">
var viewWidth = 467;
var viewHeight = 711;
var sectionId = 'dynsection-0';
</script>
<script type="application/ecmascript" xlink:href="svg.min.js"/>
<svg id="graph" class="graph">
<g id="viewport">
<title>Span::EntityBuilder</title>
<!-- Node1 -->
<g id="Node000001" class="node">
<title>Node1</title>
<g id="a_Node000001"><a xlink:title=" ">
<polygon fill="#999999" stroke="transparent" points="349.5,-109 245.5,-109 245.5,0 349.5,0 349.5,-109"/>
<text text-anchor="start" x="250.5" y="-96.5" font-family="Helvetica,sans-Serif" font-size="10.00">Span::EntityBuilder</text>
<text text-anchor="start" x="295.5" y="-81.5" font-family="Helvetica,sans-Serif" font-size="10.00"> </text>
<text text-anchor="start" x="252.5" y="-66.5" font-family="Helvetica,sans-Serif" font-size="10.00">+</text>
<text text-anchor="start" x="268.5" y="-66.5" font-family="Helvetica,sans-Serif" font-size="10.00">EntityBuilder()</text>
<text text-anchor="start" x="252.5" y="-51.5" font-family="Helvetica,sans-Serif" font-size="10.00">+</text>
<text text-anchor="start" x="268.5" y="-51.5" font-family="Helvetica,sans-Serif" font-size="10.00">Add()</text>
<text text-anchor="start" x="252.5" y="-36.5" font-family="Helvetica,sans-Serif" font-size="10.00">+</text>
<text text-anchor="start" x="268.5" y="-36.5" font-family="Helvetica,sans-Serif" font-size="10.00">Add()</text>
<text text-anchor="start" x="252.5" y="-21.5" font-family="Helvetica,sans-Serif" font-size="10.00">+</text>
<text text-anchor="start" x="268.5" y="-21.5" font-family="Helvetica,sans-Serif" font-size="10.00">With()</text>
<text text-anchor="start" x="252.5" y="-6.5" font-family="Helvetica,sans-Serif" font-size="10.00">+</text>
<text text-anchor="start" x="268.5" y="-6.5" font-family="Helvetica,sans-Serif" font-size="10.00">Build()</text>
<polygon fill="#666666" stroke="#666666" points="245.5,-91.5 245.5,-91.5 349.5,-91.5 349.5,-91.5 245.5,-91.5"/>
<polygon fill="#666666" stroke="#666666" points="245.5,-76.5 245.5,-76.5 349.5,-76.5 349.5,-76.5 245.5,-76.5"/>
<polygon fill="none" stroke="#666666" points="245.5,0 245.5,-109 349.5,-109 349.5,0 245.5,0"/>
</a>
</g>
</g>
<!-- Node2 -->
<g id="Node000002" class="node">
<title>Node2</title>
<g id="a_Node000002"><a xlink:href="classSpan_1_1World.html" target="_top" xlink:title=" ">
<polygon fill="white" stroke="transparent" points="301.5,-466 163.5,-466 163.5,-162 301.5,-162 301.5,-466"/>
<text text-anchor="start" x="203.5" y="-454" font-family="Helvetica,sans-Serif" font-size="10.00">Span::World</text>
<text text-anchor="start" x="170" y="-439" font-family="Helvetica,sans-Serif" font-size="10.00">&#45;</text>
<text text-anchor="start" x="180.5" y="-439" font-family="Helvetica,sans-Serif" font-size="10.00">systems</text>
<text text-anchor="start" x="170" y="-424" font-family="Helvetica,sans-Serif" font-size="10.00">&#45;</text>
<text text-anchor="start" x="180.5" y="-424" font-family="Helvetica,sans-Serif" font-size="10.00">entityLocationMap</text>
<text text-anchor="start" x="167.5" y="-409" font-family="Helvetica,sans-Serif" font-size="10.00">+</text>
<text text-anchor="start" x="180.5" y="-409" font-family="Helvetica,sans-Serif" font-size="10.00">World()</text>
<text text-anchor="start" x="167.5" y="-394" font-family="Helvetica,sans-Serif" font-size="10.00">+</text>
<text text-anchor="start" x="180.5" y="-394" font-family="Helvetica,sans-Serif" font-size="10.00">~World()</text>
<text text-anchor="start" x="167.5" y="-379" font-family="Helvetica,sans-Serif" font-size="10.00">+</text>
<text text-anchor="start" x="180.5" y="-379" font-family="Helvetica,sans-Serif" font-size="10.00">SPAN_NON_COPYABLE()</text>
<text text-anchor="start" x="167.5" y="-364" font-family="Helvetica,sans-Serif" font-size="10.00">+</text>
<text text-anchor="start" x="180.5" y="-364" font-family="Helvetica,sans-Serif" font-size="10.00">CreateEntity()</text>
<text text-anchor="start" x="167.5" y="-349" font-family="Helvetica,sans-Serif" font-size="10.00">+</text>
<text text-anchor="start" x="180.5" y="-349" font-family="Helvetica,sans-Serif" font-size="10.00">DestroyEntity()</text>
<text text-anchor="start" x="167.5" y="-334" font-family="Helvetica,sans-Serif" font-size="10.00">+</text>
<text text-anchor="start" x="180.5" y="-334" font-family="Helvetica,sans-Serif" font-size="10.00">AddComponent()</text>
<text text-anchor="start" x="167.5" y="-319" font-family="Helvetica,sans-Serif" font-size="10.00">+</text>
<text text-anchor="start" x="180.5" y="-319" font-family="Helvetica,sans-Serif" font-size="10.00">RemoveComponent()</text>
<text text-anchor="start" x="167.5" y="-304" font-family="Helvetica,sans-Serif" font-size="10.00">+</text>
<text text-anchor="start" x="180.5" y="-304" font-family="Helvetica,sans-Serif" font-size="10.00">HasComponent()</text>
<text text-anchor="start" x="167.5" y="-289" font-family="Helvetica,sans-Serif" font-size="10.00">+</text>
<text text-anchor="start" x="180.5" y="-289" font-family="Helvetica,sans-Serif" font-size="10.00">GetComponent()</text>
<text text-anchor="start" x="167.5" y="-274" font-family="Helvetica,sans-Serif" font-size="10.00">+</text>
<text text-anchor="start" x="180.5" y="-274" font-family="Helvetica,sans-Serif" font-size="10.00">GetComponentPtr()</text>
<text text-anchor="start" x="180.5" y="-259" font-family="Helvetica,sans-Serif" font-size="10.00">ほか 6 件…</text>
<text text-anchor="start" x="170" y="-244" font-family="Helvetica,sans-Serif" font-size="10.00">&#45;</text>
<text text-anchor="start" x="180.5" y="-244" font-family="Helvetica,sans-Serif" font-size="10.00">MigrateEntity()</text>
<text text-anchor="start" x="170" y="-229" font-family="Helvetica,sans-Serif" font-size="10.00">&#45;</text>
<text text-anchor="start" x="180.5" y="-229" font-family="Helvetica,sans-Serif" font-size="10.00">GetComponentUnsafe()</text>
<text text-anchor="start" x="170" y="-214" font-family="Helvetica,sans-Serif" font-size="10.00">&#45;</text>
<text text-anchor="start" x="180.5" y="-214" font-family="Helvetica,sans-Serif" font-size="10.00">InitializeComponents()</text>
<text text-anchor="start" x="170" y="-199" font-family="Helvetica,sans-Serif" font-size="10.00">&#45;</text>
<text text-anchor="start" x="180.5" y="-199" font-family="Helvetica,sans-Serif" font-size="10.00">InitializeComponent()</text>
<text text-anchor="start" x="170" y="-184" font-family="Helvetica,sans-Serif" font-size="10.00">&#45;</text>
<text text-anchor="start" x="180.5" y="-184" font-family="Helvetica,sans-Serif" font-size="10.00">ProcessChunk_Impl()</text>
<text text-anchor="start" x="170" y="-169" font-family="Helvetica,sans-Serif" font-size="10.00">&#45;</text>
<text text-anchor="start" x="180.5" y="-169" font-family="Helvetica,sans-Serif" font-size="10.00">ProcessChunk()</text>
<polygon fill="#666666" stroke="#666666" points="163.5,-449 163.5,-449 301.5,-449 301.5,-449 163.5,-449"/>
<polygon fill="#666666" stroke="#666666" points="163.5,-419 163.5,-419 178.5,-419 178.5,-419 163.5,-419"/>
<polygon fill="#666666" stroke="#666666" points="178.5,-419 178.5,-419 301.5,-419 301.5,-419 178.5,-419"/>
<polygon fill="none" stroke="#666666" points="163.5,-162 163.5,-466 301.5,-466 301.5,-162 163.5,-162"/>
</a>
</g>
</g>
<!-- Node2&#45;&gt;Node1 -->
<g id="edge1_Node000001_Node000002" class="edge">
<title>Node2&#45;&gt;Node1</title>
<g id="a_edge1_Node000001_Node000002"><a xlink:title=" ">
<path fill="none" stroke="#63b8ff" d="M266.51,-161.77C269.45,-149.98 272.46,-138.28 275.5,-127 276.03,-125.02 276.59,-123.01 277.15,-120.98"/>
<polygon fill="none" stroke="#63b8ff" points="277.2,-120.79 275.01,-113.92 280.51,-109.26 282.7,-116.13 277.2,-120.79"/>
</a>
</g>
<text text-anchor="start" x="278.5" y="-132.5" font-family="Helvetica,sans-Serif" font-size="10.00" fill="grey">&#45;m_world</text>
</g>
<!-- Node3 -->
<g id="Node000003" class="node">
<title>Node3</title>
<g id="a_Node000003"><a xlink:href="classSpan_1_1EntityManager.html" target="_top" xlink:title=" ">
<polygon fill="white" stroke="transparent" points="145,-703 0,-703 0,-519 145,-519 145,-703"/>
<text text-anchor="start" x="22" y="-691" font-family="Helvetica,sans-Serif" font-size="10.00">Span::EntityManager</text>
<text text-anchor="start" x="7" y="-676" font-family="Helvetica,sans-Serif" font-size="10.00">&#45;</text>
<text text-anchor="start" x="17.5" y="-676" font-family="Helvetica,sans-Serif" font-size="10.00">generations</text>
<text text-anchor="start" x="7" y="-661" font-family="Helvetica,sans-Serif" font-size="10.00">&#45;</text>
<text text-anchor="start" x="17.5" y="-661" font-family="Helvetica,sans-Serif" font-size="10.00">freeIndices</text>
<text text-anchor="start" x="7" y="-646" font-family="Helvetica,sans-Serif" font-size="10.00">&#45;</text>
<text text-anchor="start" x="17.5" y="-646" font-family="Helvetica,sans-Serif" font-size="10.00">activeCount</text>
<text text-anchor="start" x="7" y="-631" font-family="Helvetica,sans-Serif" font-size="10.00">&#45;</text>
<text text-anchor="start" x="17.5" y="-631" font-family="Helvetica,sans-Serif" font-size="10.00">MINIMUM_FREE_INDICES</text>
<text text-anchor="start" x="4.5" y="-616" font-family="Helvetica,sans-Serif" font-size="10.00">+</text>
<text text-anchor="start" x="17.5" y="-616" font-family="Helvetica,sans-Serif" font-size="10.00">EntityManager()</text>
<text text-anchor="start" x="4.5" y="-601" font-family="Helvetica,sans-Serif" font-size="10.00">+</text>
<text text-anchor="start" x="17.5" y="-601" font-family="Helvetica,sans-Serif" font-size="10.00">~EntityManager()</text>
<text text-anchor="start" x="4.5" y="-586" font-family="Helvetica,sans-Serif" font-size="10.00">+</text>
<text text-anchor="start" x="17.5" y="-586" font-family="Helvetica,sans-Serif" font-size="10.00">SPAN_NON_COPYABLE()</text>
<text text-anchor="start" x="4.5" y="-571" font-family="Helvetica,sans-Serif" font-size="10.00">+</text>
<text text-anchor="start" x="17.5" y="-571" font-family="Helvetica,sans-Serif" font-size="10.00">CreateEntity()</text>
<text text-anchor="start" x="4.5" y="-556" font-family="Helvetica,sans-Serif" font-size="10.00">+</text>
<text text-anchor="start" x="17.5" y="-556" font-family="Helvetica,sans-Serif" font-size="10.00">DestroyEntity()</text>
<text text-anchor="start" x="4.5" y="-541" font-family="Helvetica,sans-Serif" font-size="10.00">+</text>
<text text-anchor="start" x="17.5" y="-541" font-family="Helvetica,sans-Serif" font-size="10.00">IsAlive()</text>
<text text-anchor="start" x="4.5" y="-526" font-family="Helvetica,sans-Serif" font-size="10.00">+</text>
<text text-anchor="start" x="17.5" y="-526" font-family="Helvetica,sans-Serif" font-size="10.00">GetActiveEntityCount()</text>
<polygon fill="#666666" stroke="#666666" points="0.5,-686 0.5,-686 145.5,-686 145.5,-686 0.5,-686"/>
<polygon fill="#666666" stroke="#666666" points="0.5,-626 0.5,-626 15.5,-626 15.5,-626 0.5,-626"/>
<polygon fill="#666666" stroke="#666666" points="15.5,-626 15.5,-626 145.5,-626 145.5,-626 15.5,-626"/>
<polygon fill="none" stroke="#666666" points="0,-519 0,-703 145,-703 145,-519 0,-519"/>
</a>
</g>
</g>
<!-- Node3&#45;&gt;Node2 -->
<g id="edge2_Node000002_Node000003" class="edge">
<title>Node3&#45;&gt;Node2</title>
<g id="a_edge2_Node000002_Node000003"><a xlink:title=" ">
<path fill="none" stroke="#63b8ff" d="M122.03,-518.68C133.32,-497.86 145.56,-475.29 157.65,-453.01"/>
<polygon fill="none" stroke="#63b8ff" points="157.65,-453 157,-445.82 163.37,-442.45 164.03,-449.64 157.65,-453"/>
</a>
</g>
<text text-anchor="start" x="141.5" y="-489.5" font-family="Helvetica,sans-Serif" font-size="10.00" fill="grey">&#45;entityManager</text>
</g>
<!-- Node4 -->
<g id="Node000004" class="node">
<title>Node4</title>
<g id="a_Node000004"><a xlink:href="classSpan_1_1ArchetypeManager.html" target="_top" xlink:title=" ">
<polygon fill="white" stroke="transparent" points="302,-658 163,-658 163,-564 302,-564 302,-658"/>
<text text-anchor="start" x="171.5" y="-646" font-family="Helvetica,sans-Serif" font-size="10.00">Span::ArchetypeManager</text>
<text text-anchor="start" x="170" y="-631" font-family="Helvetica,sans-Serif" font-size="10.00">&#45;</text>
<text text-anchor="start" x="180.5" y="-631" font-family="Helvetica,sans-Serif" font-size="10.00">archetypes</text>
<text text-anchor="start" x="167.5" y="-616" font-family="Helvetica,sans-Serif" font-size="10.00">+</text>
<text text-anchor="start" x="180.5" y="-616" font-family="Helvetica,sans-Serif" font-size="10.00">~ArchetypeManager()</text>
<text text-anchor="start" x="167.5" y="-601" font-family="Helvetica,sans-Serif" font-size="10.00">+</text>
<text text-anchor="start" x="180.5" y="-601" font-family="Helvetica,sans-Serif" font-size="10.00">GetOrCreateArchetype()</text>
<text text-anchor="start" x="167.5" y="-586" font-family="Helvetica,sans-Serif" font-size="10.00">+</text>
<text text-anchor="start" x="180.5" y="-586" font-family="Helvetica,sans-Serif" font-size="10.00">GetOrCreateArchetype()</text>
<text text-anchor="start" x="167.5" y="-571" font-family="Helvetica,sans-Serif" font-size="10.00">+</text>
<text text-anchor="start" x="180.5" y="-571" font-family="Helvetica,sans-Serif" font-size="10.00">GetAllArchetypes()</text>
<polygon fill="#666666" stroke="#666666" points="163.5,-641 163.5,-641 302.5,-641 302.5,-641 163.5,-641"/>
<polygon fill="#666666" stroke="#666666" points="163.5,-626 163.5,-626 178.5,-626 178.5,-626 163.5,-626"/>
<polygon fill="#666666" stroke="#666666" points="178.5,-626 178.5,-626 302.5,-626 302.5,-626 178.5,-626"/>
<polygon fill="none" stroke="#666666" points="163,-564 163,-658 302,-658 302,-564 163,-564"/>
</a>
</g>
</g>
<!-- Node4&#45;&gt;Node2 -->
<g id="edge3_Node000002_Node000004" class="edge">
<title>Node4&#45;&gt;Node2</title>
<g id="a_edge3_Node000002_Node000004"><a xlink:title=" ">
<path fill="none" stroke="#63b8ff" d="M232.5,-563.91C232.5,-540.2 232.5,-509.71 232.5,-478.26"/>
<polygon fill="none" stroke="#63b8ff" points="232.5,-478.17 228.5,-472.17 232.5,-466.17 236.5,-472.17 232.5,-478.17"/>
</a>
</g>
<text text-anchor="start" x="235.5" y="-489.5" font-family="Helvetica,sans-Serif" font-size="10.00" fill="grey">&#45;archetypeManager</text>
</g>
<!-- Node5 -->
<g id="Node000005" class="node">
<title>Node5</title>
<g id="a_Node000005"><a xlink:href="structSpan_1_1Entity.html" target="_top" xlink:title="📦 ゲーム内のあらゆるオブジェクトを表すハンドルクラス。">
<polygon fill="white" stroke="transparent" points="407,-383.5 320,-383.5 320,-244.5 407,-244.5 407,-383.5"/>
<text text-anchor="start" x="334.5" y="-371" font-family="Helvetica,sans-Serif" font-size="10.00">Span::Entity</text>
<text text-anchor="start" x="362" y="-356" font-family="Helvetica,sans-Serif" font-size="10.00"> </text>
<text text-anchor="start" x="324.5" y="-341" font-family="Helvetica,sans-Serif" font-size="10.00">+</text>
<text text-anchor="start" x="337.5" y="-341" font-family="Helvetica,sans-Serif" font-size="10.00">Entity()</text>
<text text-anchor="start" x="324.5" y="-326" font-family="Helvetica,sans-Serif" font-size="10.00">+</text>
<text text-anchor="start" x="337.5" y="-326" font-family="Helvetica,sans-Serif" font-size="10.00">Entity()</text>
<text text-anchor="start" x="324.5" y="-311" font-family="Helvetica,sans-Serif" font-size="10.00">+</text>
<text text-anchor="start" x="337.5" y="-311" font-family="Helvetica,sans-Serif" font-size="10.00">IsNull()</text>
<text text-anchor="start" x="324.5" y="-296" font-family="Helvetica,sans-Serif" font-size="10.00">+</text>
<text text-anchor="start" x="337.5" y="-296" font-family="Helvetica,sans-Serif" font-size="10.00">ToUInt64()</text>
<text text-anchor="start" x="324.5" y="-281" font-family="Helvetica,sans-Serif" font-size="10.00">+</text>
<text text-anchor="start" x="337.5" y="-281" font-family="Helvetica,sans-Serif" font-size="10.00">operator==()</text>
<text text-anchor="start" x="324.5" y="-266" font-family="Helvetica,sans-Serif" font-size="10.00">+</text>
<text text-anchor="start" x="337.5" y="-266" font-family="Helvetica,sans-Serif" font-size="10.00">operator!=()</text>
<text text-anchor="start" x="324.5" y="-251" font-family="Helvetica,sans-Serif" font-size="10.00">+</text>
<text text-anchor="start" x="337.5" y="-251" font-family="Helvetica,sans-Serif" font-size="10.00">operator&lt;()</text>
<polygon fill="#666666" stroke="#666666" points="320.5,-366 320.5,-366 407.5,-366 407.5,-366 320.5,-366"/>
<polygon fill="#666666" stroke="#666666" points="320.5,-351 320.5,-351 407.5,-351 407.5,-351 320.5,-351"/>
<polygon fill="none" stroke="#666666" points="320,-244.5 320,-383.5 407,-383.5 407,-244.5 320,-244.5"/>
</a>
</g>
</g>
<!-- Node5&#45;&gt;Node1 -->
<g id="edge4_Node000001_Node000005" class="edge">
<title>Node5&#45;&gt;Node1</title>
<g id="a_edge4_Node000001_Node000005"><a xlink:title=" ">
<path fill="none" stroke="#63b8ff" d="M353.65,-244.15C347.72,-208.72 339.04,-165.09 327.5,-127 326.87,-124.92 326.2,-122.81 325.49,-120.69"/>
<polygon fill="none" stroke="#63b8ff" points="325.48,-120.64 319.7,-116.33 321.46,-109.33 327.24,-113.65 325.48,-120.64"/>
</a>
</g>
<text text-anchor="start" x="334.5" y="-132.5" font-family="Helvetica,sans-Serif" font-size="10.00" fill="grey">&#45;m_entity</text>
</g>
<!-- Node5&#45;&gt;Node5 -->
<g id="edge6_Node000005_Node000005" class="edge">
<title>Node5&#45;&gt;Node5</title>
<g id="a_edge6_Node000005_Node000005"><a xlink:title=" ">
<path fill="none" stroke="#63b8ff" d="M407.17,-346.71C417.43,-344.03 425,-333.12 425,-314 425,-302.05 422.04,-293.31 417.32,-287.78"/>
<polygon fill="none" stroke="#63b8ff" points="417.28,-287.75 410.07,-287.89 407.17,-281.29 414.38,-281.15 417.28,-287.75"/>
</a>
</g>
<text text-anchor="start" x="428" y="-311" font-family="Helvetica,sans-Serif" font-size="10.00" fill="grey">+Null</text>
</g>
<!-- Node6 -->
<g id="Node000006" class="node">
<title>Node6</title>
<g id="a_Node000006"><a xlink:href="structSpan_1_1EntityID.html" target="_top" xlink:title="エンティティの内部ID構造 (64&#45;bit)。">
<polygon fill="white" stroke="transparent" points="407,-680.5 320,-680.5 320,-541.5 407,-541.5 407,-680.5"/>
<text text-anchor="start" x="329" y="-668" font-family="Helvetica,sans-Serif" font-size="10.00">Span::EntityID</text>
<text text-anchor="start" x="324.5" y="-653" font-family="Helvetica,sans-Serif" font-size="10.00">+</text>
<text text-anchor="start" x="337.5" y="-653" font-family="Helvetica,sans-Serif" font-size="10.00">Index</text>
<text text-anchor="start" x="324.5" y="-638" font-family="Helvetica,sans-Serif" font-size="10.00">+</text>
<text text-anchor="start" x="337.5" y="-638" font-family="Helvetica,sans-Serif" font-size="10.00">Generation</text>
<text text-anchor="start" x="324.5" y="-623" font-family="Helvetica,sans-Serif" font-size="10.00">+</text>
<text text-anchor="start" x="337.5" y="-623" font-family="Helvetica,sans-Serif" font-size="10.00">operator==()</text>
<text text-anchor="start" x="324.5" y="-608" font-family="Helvetica,sans-Serif" font-size="10.00">+</text>
<text text-anchor="start" x="337.5" y="-608" font-family="Helvetica,sans-Serif" font-size="10.00">operator!=()</text>
<text text-anchor="start" x="324.5" y="-593" font-family="Helvetica,sans-Serif" font-size="10.00">+</text>
<text text-anchor="start" x="337.5" y="-593" font-family="Helvetica,sans-Serif" font-size="10.00">operator&lt;()</text>
<text text-anchor="start" x="326" y="-578" font-family="Helvetica,sans-Serif" font-size="10.00">*</text>
<text text-anchor="start" x="337.5" y="-578" font-family="Helvetica,sans-Serif" font-size="10.00">operator==()</text>
<text text-anchor="start" x="326" y="-563" font-family="Helvetica,sans-Serif" font-size="10.00">*</text>
<text text-anchor="start" x="337.5" y="-563" font-family="Helvetica,sans-Serif" font-size="10.00">operator!=()</text>
<text text-anchor="start" x="326" y="-548" font-family="Helvetica,sans-Serif" font-size="10.00">*</text>
<text text-anchor="start" x="337.5" y="-548" font-family="Helvetica,sans-Serif" font-size="10.00">operator&lt;()</text>
<polygon fill="#666666" stroke="#666666" points="320.5,-663 320.5,-663 407.5,-663 407.5,-663 320.5,-663"/>
<polygon fill="#666666" stroke="#666666" points="320.5,-633 320.5,-633 335.5,-633 335.5,-633 320.5,-633"/>
<polygon fill="#666666" stroke="#666666" points="335.5,-633 335.5,-633 407.5,-633 407.5,-633 335.5,-633"/>
<polygon fill="none" stroke="#666666" points="320,-541.5 320,-680.5 407,-680.5 407,-541.5 320,-541.5"/>
</a>
</g>
</g>
<!-- Node6&#45;&gt;Node5 -->
<g id="edge5_Node000005_Node000006" class="edge">
<title>Node6&#45;&gt;Node5</title>
<g id="a_edge5_Node000005_Node000006"><a xlink:title=" ">
<path fill="none" stroke="#63b8ff" d="M363.5,-541.21C363.5,-497.77 363.5,-441.46 363.5,-395.89"/>
<polygon fill="none" stroke="#63b8ff" points="363.5,-395.65 359.5,-389.65 363.5,-383.65 367.5,-389.65 363.5,-395.65"/>
</a>
</g>
<text text-anchor="start" x="367" y="-489.5" font-family="Helvetica,sans-Serif" font-size="10.00" fill="grey">+ID</text>
</g>
</g>
</svg>

<g id="navigator" transform="translate(0 0)" fill="#404254">
  <rect fill="#f2f5e9" fill-opacity="0.5" stroke="#606060" stroke-width=".5" x="0" y="0" width="60" height="60"/>
  <use id="zoomplus" xlink:href="#zoomPlus" x="17" y="9" onmousedown="handleZoom(evt,'in')"/>
  <use id="zoomminus" xlink:href="#zoomMin" x="42" y="9" onmousedown="handleZoom(evt,'out')"/>
  <use id="reset" xlink:href="#resetDef" x="30" y="36" onmousedown="handleReset()"/>
   <use id="arrowup" xlink:href="#arrowUp" x="0" y="0" onmousedown="handlePan(0,-1)"/>
  <use id="arrowright" xlink:href="#arrowRight" x="0" y="0" onmousedown="handlePan(1,0)"/>
  <use id="arrowdown" xlink:href="#arrowDown" x="0" y="0" onmousedown="handlePan(0,1)"/>
  <use id="arrowleft" xlink:href="#arrowLeft" x="0" y="0" onmousedown="handlePan(-1,0)"/>
</g>
<svg viewBox="0 0 15 15" width="100%" height="30px" preserveAspectRatio="xMaxYMin meet">
 <g id="arrow_out" transform="scale(0.3 0.3)">
  <a xlink:href="classSpan_1_1EntityBuilder__coll__graph_org.svg" target="_base">
   <rect id="button" ry="5" rx="5" y="6" x="6" height="38" width="38"
        fill="#f2f5e9" fill-opacity="0.5" stroke="#606060" stroke-width="1.0"/>
   <path id="arrow"
     d="M 11.500037,31.436501 C 11.940474,20.09759 22.043105,11.32322 32.158766,21.979434 L 37.068811,17.246167 C 37.068811,17.246167 37.088388,32 37.088388,32 L 22.160133,31.978069 C 22.160133,31.978069 26.997745,27.140456 26.997745,27.140456 C 18.528582,18.264221 13.291696,25.230495 11.500037,31.436501 z"
     style="fill:#404040;"/>
  </a>
 </g>
</svg>

<style type='text/css'>
<![CDATA[
[data-mouse-over-selected='false'] { opacity: 0.7; }
[data-mouse-over-selected='true']  { opacity: 1.0; }
]]>
</style>
<script type="application/ecmascript"><![CDATA[
document.addEventListener('DOMContentLoaded', (event) => {
  highlightEdges();
  highlightAdjacentNodes();
});
]]></script>
</svg>
