<?xml version="1.0" encoding="UTF-8" standalone="no"?>
<!DOCTYPE svg PUBLIC "-//W3C//DTD SVG 1.1//EN"
 "http://www.w3.org/Graphics/SVG/1.1/DTD/svg11.dtd">
<!-- Generated by graphviz version 2.43.0 (0)
 -->
<!-- Title: Span::CameraSystem::OnUpdate Pages: 1 -->
<svg width="1500pt" height="500pt"
 viewBox="0.00 0.00 1500.00 499.50" xmlns="http://www.w3.org/2000/svg" xmlns:xlink="http://www.w3.org/1999/xlink">
<g id="graph0" class="graph" transform="scale(1 1) rotate(0) translate(4 495.5)">
<title>Span::CameraSystem::OnUpdate</title>
<!-- Node1 -->
<g id="Node000001" class="node">
<title>Node1</title>
<g id="a_Node000001"><a xlink:title="毎フレーム呼び出されます。ここにゲームロジックを記述します。">
<polygon fill="#999999" stroke="#666666" points="122,-165.5 0,-165.5 0,-135.5 122,-135.5 122,-165.5"/>
<text text-anchor="start" x="8" y="-153.5" font-family="Helvetica,sans-Serif" font-size="10.00">Span::CameraSystem</text>
<text text-anchor="middle" x="61" y="-142.5" font-family="Helvetica,sans-Serif" font-size="10.00">::OnUpdate</text>
</a>
</g>
</g>
<!-- Node2 -->
<g id="Node000002" class="node">
<title>Node2</title>
<g id="a_Node000002"><a xlink:href="classSpan_1_1World.html#afd6041d6b68f1964882d1941fc0fddaf" target="_top" xlink:title="指定したコンポーネントを持つ全てのEntityに対して関数を実行します。">
<polygon fill="white" stroke="#666666" points="306.5,-387 187.5,-387 187.5,-368 306.5,-368 306.5,-387"/>
<text text-anchor="middle" x="247" y="-375" font-family="Helvetica,sans-Serif" font-size="10.00">Span::World::ForEach</text>
</a>
</g>
</g>
<!-- Node1&#45;&gt;Node2 -->
<g id="edge1_Node000001_Node000002" class="edge">
<title>Node1&#45;&gt;Node2</title>
<g id="a_edge1_Node000001_Node000002"><a xlink:title=" ">
<path fill="none" stroke="#63b8ff" d="M73.3,-165.57C91.01,-189.09 126.56,-235.85 158,-274.5 182.93,-305.15 213.04,-339.93 230.79,-360.22"/>
<polygon fill="#63b8ff" stroke="#63b8ff" points="228.37,-362.76 237.59,-367.97 233.63,-358.15 228.37,-362.76"/>
</a>
</g>
</g>
<!-- Node9 -->
<g id="Node000009" class="node">
<title>Node9</title>
<g id="a_Node000009"><a xlink:href="classSpan_1_1Application.html#ae2e9eaebe90ffdf55cfef9d74ccbce3e" target="_top" xlink:title="シングルトンインスタンスの取得">
<polygon fill="white" stroke="#666666" points="309.5,-265 184.5,-265 184.5,-246 309.5,-246 309.5,-265"/>
<text text-anchor="middle" x="247" y="-253" font-family="Helvetica,sans-Serif" font-size="10.00">Span::Application::Get</text>
</a>
</g>
</g>
<!-- Node1&#45;&gt;Node9 -->
<g id="edge8_Node000001_Node000009" class="edge">
<title>Node1&#45;&gt;Node9</title>
<g id="a_edge8_Node000001_Node000009"><a xlink:title=" ">
<path fill="none" stroke="#63b8ff" d="M74.27,-165.54C91.06,-185.05 123.12,-218.71 158,-236.5 163.26,-239.18 168.89,-241.49 174.66,-243.47"/>
<polygon fill="#63b8ff" stroke="#63b8ff" points="173.87,-246.89 184.46,-246.5 175.94,-240.2 173.87,-246.89"/>
</a>
</g>
</g>
<!-- Node30 -->
<g id="Node000030" class="node">
<title>Node30</title>
<g id="a_Node000030"><a xlink:href="classSpan_1_1Application.html#a405d83887371210b9a67e940727689da" target="_top" xlink:title=" ">
<polygon fill="white" stroke="#666666" points="300.5,-227.5 193.5,-227.5 193.5,-197.5 300.5,-197.5 300.5,-227.5"/>
<text text-anchor="start" x="201.5" y="-215.5" font-family="Helvetica,sans-Serif" font-size="10.00">Span::Application::</text>
<text text-anchor="middle" x="247" y="-204.5" font-family="Helvetica,sans-Serif" font-size="10.00">GetRenderer</text>
</a>
</g>
</g>
<!-- Node1&#45;&gt;Node30 -->
<g id="edge31_Node000001_Node000030" class="edge">
<title>Node1&#45;&gt;Node30</title>
<g id="a_edge31_Node000001_Node000030"><a xlink:title=" ">
<path fill="none" stroke="#63b8ff" d="M97.22,-165.52C115.22,-172.93 137.59,-181.7 158,-188.5 166.19,-191.23 174.88,-193.88 183.48,-196.37"/>
<polygon fill="#63b8ff" stroke="#63b8ff" points="182.56,-199.74 193.13,-199.1 184.46,-193.01 182.56,-199.74"/>
</a>
</g>
</g>
<!-- Node31 -->
<g id="Node000031" class="node">
<title>Node31</title>
<g id="a_Node000031"><a xlink:href="classSpan_1_1System.html#adda3b04cc8e931689a3e86a5cf91b16e" target="_top" xlink:title="所属しているワールドを取得します。">
<polygon fill="white" stroke="#666666" points="314,-179 180,-179 180,-160 314,-160 314,-179"/>
<text text-anchor="middle" x="247" y="-167" font-family="Helvetica,sans-Serif" font-size="10.00">Span::System::GetWorld</text>
</a>
</g>
</g>
<!-- Node1&#45;&gt;Node31 -->
<g id="edge32_Node000001_Node000031" class="edge">
<title>Node1&#45;&gt;Node31</title>
<g id="a_edge32_Node000001_Node000031"><a xlink:title=" ">
<path fill="none" stroke="#63b8ff" d="M122.25,-156.72C137.38,-158.28 153.82,-159.98 169.62,-161.61"/>
<polygon fill="#63b8ff" stroke="#63b8ff" points="169.59,-165.13 179.9,-162.67 170.31,-158.17 169.59,-165.13"/>
</a>
</g>
</g>
<!-- Node32 -->
<g id="Node000032" class="node">
<title>Node32</title>
<g id="a_Node000032"><a xlink:href="structSpan_1_1Matrix4x4.html#a3544a5d56ec62c035d6e1aa0b20bba2e" target="_top" xlink:title="転置行列">
<polygon fill="white" stroke="#666666" points="312.5,-142 181.5,-142 181.5,-123 312.5,-123 312.5,-142"/>
<text text-anchor="middle" x="247" y="-130" font-family="Helvetica,sans-Serif" font-size="10.00">Span::Matrix4x4::Invert</text>
</a>
</g>
</g>
<!-- Node1&#45;&gt;Node32 -->
<g id="edge33_Node000001_Node000032" class="edge">
<title>Node1&#45;&gt;Node32</title>
<g id="a_edge33_Node000001_Node000032"><a xlink:title=" ">
<path fill="none" stroke="#63b8ff" d="M122.25,-144.61C137.96,-143.07 155.08,-141.39 171.43,-139.79"/>
<polygon fill="#63b8ff" stroke="#63b8ff" points="171.88,-143.27 181.5,-138.81 171.2,-136.3 171.88,-143.27"/>
</a>
</g>
</g>
<!-- Node36 -->
<g id="Node000036" class="node">
<title>Node36</title>
<g id="a_Node000036"><a xlink:href="structSpan_1_1Matrix4x4.html#a20cfae49484e70f982ecfd6285f694e1" target="_top" xlink:title="平行投影行列作成 (左手系)">
<polygon fill="white" stroke="#666666" points="336,-56 158,-56 158,-37 336,-37 336,-56"/>
<text text-anchor="middle" x="247" y="-44" font-family="Helvetica,sans-Serif" font-size="10.00">Span::Matrix4x4::OrthographicLH</text>
</a>
</g>
</g>
<!-- Node1&#45;&gt;Node36 -->
<g id="edge38_Node000001_Node000036" class="edge">
<title>Node1&#45;&gt;Node36</title>
<g id="a_edge38_Node000001_Node000036"><a xlink:title=" ">
<path fill="none" stroke="#63b8ff" d="M74.6,-135.31C91.51,-115.98 123.44,-83 158,-65.5 162.67,-63.13 167.63,-61.06 172.72,-59.25"/>
<polygon fill="#63b8ff" stroke="#63b8ff" points="174.17,-62.46 182.62,-56.06 172.03,-55.79 174.17,-62.46"/>
</a>
</g>
</g>
<!-- Node37 -->
<g id="Node000037" class="node">
<title>Node37</title>
<g id="a_Node000037"><a xlink:href="structSpan_1_1Matrix4x4.html#afe0101ccded226fc963d79f61111a6ed" target="_top" xlink:title="透視投影行列作成 (左手系)">
<polygon fill="white" stroke="#666666" points="326.5,-104.5 167.5,-104.5 167.5,-74.5 326.5,-74.5 326.5,-104.5"/>
<text text-anchor="start" x="175.5" y="-92.5" font-family="Helvetica,sans-Serif" font-size="10.00">Span::Matrix4x4::Perspective</text>
<text text-anchor="middle" x="247" y="-81.5" font-family="Helvetica,sans-Serif" font-size="10.00">FovLH</text>
</a>
</g>
</g>
<!-- Node1&#45;&gt;Node37 -->
<g id="edge41_Node000001_Node000037" class="edge">
<title>Node1&#45;&gt;Node37</title>
<g id="a_edge41_Node000001_Node000037"><a xlink:title=" ">
<path fill="none" stroke="#63b8ff" d="M100.05,-135.41C117.58,-128.67 138.72,-120.84 158,-114.5 165.32,-112.09 173.03,-109.7 180.71,-107.4"/>
<polygon fill="#63b8ff" stroke="#63b8ff" points="181.79,-110.73 190.4,-104.55 179.82,-104.02 181.79,-110.73"/>
</a>
</g>
</g>
<!-- Node38 -->
<g id="Node000038" class="node">
<title>Node38</title>
<g id="a_Node000038"><a xlink:href="namespaceSpan.html#a2e4930a806963e7ab8c6c60031c41fe8" target="_top" xlink:title="度数法(Degree) を 弧度法(Radian) に変換">
<polygon fill="white" stroke="#666666" points="295,-19 199,-19 199,0 295,0 295,-19"/>
<text text-anchor="middle" x="247" y="-7" font-family="Helvetica,sans-Serif" font-size="10.00">Span::ToRadians</text>
</a>
</g>
</g>
<!-- Node1&#45;&gt;Node38 -->
<g id="edge44_Node000001_Node000038" class="edge">
<title>Node1&#45;&gt;Node38</title>
<g id="a_edge44_Node000001_Node000038"><a xlink:title=" ">
<path fill="none" stroke="#63b8ff" d="M69.34,-135.18C82.9,-108.66 114.49,-54.47 158,-27.5 167.34,-21.71 178.2,-17.75 189.04,-15.04"/>
<polygon fill="#63b8ff" stroke="#63b8ff" points="189.91,-18.43 198.94,-12.89 188.43,-11.59 189.91,-18.43"/>
</a>
</g>
</g>
<!-- Node3 -->
<g id="Node000003" class="node">
<title>Node3</title>
<g id="a_Node000003"><a xlink:href="classSpan_1_1Archetype.html#aa2e946edc196fefbef2969c9f6092479" target="_top" xlink:title="このアーキタイプが管理している全チャンクのリスト">
<polygon fill="white" stroke="#666666" points="547,-369 392,-369 392,-350 547,-350 547,-369"/>
<text text-anchor="middle" x="469.5" y="-357" font-family="Helvetica,sans-Serif" font-size="10.00">Span::Archetype::GetChunks</text>
</a>
</g>
</g>
<!-- Node2&#45;&gt;Node3 -->
<g id="edge2_Node000002_Node000003" class="edge">
<title>Node2&#45;&gt;Node3</title>
<g id="a_edge2_Node000002_Node000003"><a xlink:title=" ">
<path fill="none" stroke="#63b8ff" d="M306.51,-372.72C329.5,-370.85 356.37,-368.65 381.54,-366.6"/>
<polygon fill="#63b8ff" stroke="#63b8ff" points="382.15,-370.06 391.83,-365.76 381.58,-363.08 382.15,-370.06"/>
</a>
</g>
</g>
<!-- Node4 -->
<g id="Node000004" class="node">
<title>Node4</title>
<g id="a_Node000004"><a xlink:href="classSpan_1_1Archetype.html#ace55105d4678c95251e7c66ff00846d1" target="_top" xlink:title="コンポーネント配列の「チャンク内オフセット」を取得します。">
<polygon fill="white" stroke="#666666" points="557.5,-331.5 381.5,-331.5 381.5,-301.5 557.5,-301.5 557.5,-331.5"/>
<text text-anchor="start" x="389.5" y="-319.5" font-family="Helvetica,sans-Serif" font-size="10.00">Span::Archetype::GetComponent</text>
<text text-anchor="middle" x="469.5" y="-308.5" font-family="Helvetica,sans-Serif" font-size="10.00">Offset</text>
</a>
</g>
</g>
<!-- Node2&#45;&gt;Node4 -->
<g id="edge3_Node000002_Node000004" class="edge">
<title>Node2&#45;&gt;Node4</title>
<g id="a_edge3_Node000002_Node000004"><a xlink:title=" ">
<path fill="none" stroke="#63b8ff" d="M279.78,-368C304.79,-360.59 340.55,-350.14 372,-341.5 380.82,-339.08 390.12,-336.59 399.32,-334.16"/>
<polygon fill="#63b8ff" stroke="#63b8ff" points="400.44,-337.49 409.23,-331.57 398.67,-330.72 400.44,-337.49"/>
</a>
</g>
</g>
<!-- Node5 -->
<g id="Node000005" class="node">
<title>Node5</title>
<g id="a_Node000005"><a xlink:href="classSpan_1_1ComponentType.html#aa561932b92eabbe74390cb7b0cef0de6" target="_top" xlink:title="型 T に対応する一意のIDを取得します。">
<polygon fill="white" stroke="#666666" points="532,-491.5 407,-491.5 407,-461.5 532,-461.5 532,-491.5"/>
<text text-anchor="start" x="415" y="-479.5" font-family="Helvetica,sans-Serif" font-size="10.00">Span::ComponentType</text>
<text text-anchor="middle" x="469.5" y="-468.5" font-family="Helvetica,sans-Serif" font-size="10.00">::GetID</text>
</a>
</g>
</g>
<!-- Node2&#45;&gt;Node5 -->
<g id="edge4_Node000002_Node000005" class="edge">
<title>Node2&#45;&gt;Node5</title>
<g id="a_edge4_Node000002_Node000005"><a xlink:title=" ">
<path fill="none" stroke="#63b8ff" d="M261.05,-387.23C282.91,-403.09 328.79,-434.54 372,-452.5 379.99,-455.82 388.55,-458.76 397.16,-461.34"/>
<polygon fill="#63b8ff" stroke="#63b8ff" points="396.28,-464.73 406.86,-464.11 398.2,-458 396.28,-464.73"/>
</a>
</g>
</g>
<!-- Node6 -->
<g id="Node000006" class="node">
<title>Node6</title>
<g id="a_Node000006"><a xlink:href="classSpan_1_1Archetype.html#ab576f4f851319859304bfa1fc1ada7ed" target="_top" xlink:title="要求された全てのコンポーネントを持っているか確認します。">
<polygon fill="white" stroke="#666666" points="567,-443 372,-443 372,-424 567,-424 567,-443"/>
<text text-anchor="middle" x="469.5" y="-431" font-family="Helvetica,sans-Serif" font-size="10.00">Span::Archetype::HasAllComponents</text>
</a>
</g>
</g>
<!-- Node2&#45;&gt;Node6 -->
<g id="edge5_Node000002_Node000006" class="edge">
<title>Node2&#45;&gt;Node6</title>
<g id="a_edge5_Node000002_Node000006"><a xlink:title=" ">
<path fill="none" stroke="#63b8ff" d="M275.82,-387.01C300.79,-395.31 338.55,-407.28 372,-415.5 381.56,-417.85 391.71,-420.05 401.71,-422.06"/>
<polygon fill="#63b8ff" stroke="#63b8ff" points="401.14,-425.51 411.63,-424 402.49,-418.64 401.14,-425.51"/>
</a>
</g>
</g>
<!-- Node7 -->
<g id="Node000007" class="node">
<title>Node7</title>
<g id="a_Node000007"><a xlink:href="classSpan_1_1World.html#af5701baf0c3d17c6cc72333001c9def1" target="_top" xlink:title=" ">
<polygon fill="white" stroke="#666666" points="544,-406 395,-406 395,-387 544,-387 544,-406"/>
<text text-anchor="middle" x="469.5" y="-394" font-family="Helvetica,sans-Serif" font-size="10.00">Span::World::ProcessChunk</text>
</a>
</g>
</g>
<!-- Node2&#45;&gt;Node7 -->
<g id="edge6_Node000002_Node000007" class="edge">
<title>Node2&#45;&gt;Node7</title>
<g id="a_edge6_Node000002_Node000007"><a xlink:title=" ">
<path fill="none" stroke="#63b8ff" d="M306.51,-382.54C330.39,-384.6 358.46,-387.02 384.46,-389.26"/>
<polygon fill="#63b8ff" stroke="#63b8ff" points="384.43,-392.77 394.69,-390.14 385.03,-385.79 384.43,-392.77"/>
</a>
</g>
</g>
<!-- Node8 -->
<g id="Node000008" class="node">
<title>Node8</title>
<g id="a_Node000008"><a xlink:href="classSpan_1_1World.html#abf57371dde3a4dcdc84fae0acb3bf88f" target="_top" xlink:title=" ">
<polygon fill="white" stroke="#666666" points="779,-422 603,-422 603,-403 779,-403 779,-422"/>
<text text-anchor="middle" x="691" y="-410" font-family="Helvetica,sans-Serif" font-size="10.00">Span::World::ProcessChunk_Impl</text>
</a>
</g>
</g>
<!-- Node7&#45;&gt;Node8 -->
<g id="edge7_Node000007_Node000008" class="edge">
<title>Node7&#45;&gt;Node8</title>
<g id="a_edge7_Node000007_Node000008"><a xlink:title=" ">
<path fill="none" stroke="#63b8ff" d="M544.2,-401.87C559.77,-403.01 576.44,-404.22 592.73,-405.41"/>
<polygon fill="#63b8ff" stroke="#63b8ff" points="592.59,-408.91 602.81,-406.14 593.09,-401.93 592.59,-408.91"/>
</a>
</g>
</g>
<!-- Node10 -->
<g id="Node000010" class="node">
<title>Node10</title>
<g id="a_Node000010"><a xlink:href="classSpan_1_1Application.html#a0c44e973ca5db1d23a02a2cee66f5c11" target="_top" xlink:title=" ">
<polygon fill="white" stroke="#666666" points="523,-267.5 416,-267.5 416,-237.5 523,-237.5 523,-267.5"/>
<text text-anchor="start" x="424" y="-255.5" font-family="Helvetica,sans-Serif" font-size="10.00">Span::Application::</text>
<text text-anchor="middle" x="469.5" y="-244.5" font-family="Helvetica,sans-Serif" font-size="10.00">Application</text>
</a>
</g>
</g>
<!-- Node9&#45;&gt;Node10 -->
<g id="edge9_Node000009_Node000010" class="edge">
<title>Node9&#45;&gt;Node10</title>
<g id="a_edge9_Node000009_Node000010"><a xlink:title=" ">
<path fill="none" stroke="#63b8ff" d="M309.71,-254.66C339.57,-254.25 375.37,-253.77 405.41,-253.36"/>
<polygon fill="#63b8ff" stroke="#63b8ff" points="405.82,-256.85 415.77,-253.22 405.73,-249.85 405.82,-256.85"/>
</a>
</g>
</g>
<!-- Node11 -->
<g id="Node000011" class="node">
<title>Node11</title>
<g id="a_Node000011"><a xlink:href="namespaceSpan.html#a3f4b8561d46e69596ba6a7c3177a92e7" target="_top" xlink:title=" ">
<polygon fill="white" stroke="#666666" points="761.5,-151 620.5,-151 620.5,-132 761.5,-132 761.5,-151"/>
<text text-anchor="middle" x="691" y="-139" font-family="Helvetica,sans-Serif" font-size="10.00">Span::ConsoleCtrlHandler</text>
</a>
</g>
</g>
<!-- Node10&#45;&gt;Node11 -->
<g id="edge10_Node000010_Node000011" class="edge">
<title>Node10&#45;&gt;Node11</title>
<g id="a_edge10_Node000010_Node000011"><a xlink:title=" ">
<path fill="none" stroke="#63b8ff" d="M491.73,-237.44C527.6,-212.03 596.93,-163.14 603,-160.5 608.77,-157.99 614.9,-155.79 621.13,-153.88"/>
<polygon fill="#63b8ff" stroke="#63b8ff" points="622.3,-157.19 630.98,-151.1 620.4,-150.45 622.3,-157.19"/>
</a>
</g>
</g>
<!-- Node13 -->
<g id="Node000013" class="node">
<title>Node13</title>
<g id="a_Node000013"><a xlink:href="classSpan_1_1AssetManager.html#a8b80e59ea529e23c8c8f5280d136fbf0" target="_top" xlink:title="シングルトンインスタンスを取得します。">
<polygon fill="white" stroke="#666666" points="761,-385 621,-385 621,-366 761,-366 761,-385"/>
<text text-anchor="middle" x="691" y="-373" font-family="Helvetica,sans-Serif" font-size="10.00">Span::AssetManager::Get</text>
</a>
</g>
</g>
<!-- Node10&#45;&gt;Node13 -->
<g id="edge13_Node000010_Node000013" class="edge">
<title>Node10&#45;&gt;Node13</title>
<g id="a_edge13_Node000010_Node000013"><a xlink:title=" ">
<path fill="none" stroke="#63b8ff" d="M523.2,-267.08C538.55,-273.15 554.52,-281.43 567,-292.5 591.41,-314.16 576.76,-337.1 603,-356.5 605.67,-358.48 608.51,-360.25 611.47,-361.85"/>
<polygon fill="#63b8ff" stroke="#63b8ff" points="610.1,-365.08 620.64,-366.14 613.06,-358.74 610.1,-365.08"/>
</a>
</g>
</g>
<!-- Node15 -->
<g id="Node000015" class="node">
<title>Node15</title>
<g id="a_Node000015"><a xlink:href="classSpan_1_1AssetManager.html#a69ad0e84f0e86f10a14693275d0872f2" target="_top" xlink:title="マネージャーを初期化します。">
<polygon fill="white" stroke="#666666" points="749,-347.5 633,-347.5 633,-317.5 749,-317.5 749,-347.5"/>
<text text-anchor="start" x="641" y="-335.5" font-family="Helvetica,sans-Serif" font-size="10.00">Span::AssetManager</text>
<text text-anchor="middle" x="691" y="-324.5" font-family="Helvetica,sans-Serif" font-size="10.00">::Initialize</text>
</a>
</g>
</g>
<!-- Node10&#45;&gt;Node15 -->
<g id="edge15_Node000010_Node000015" class="edge">
<title>Node10&#45;&gt;Node15</title>
<g id="a_edge15_Node000010_Node000015"><a xlink:title=" ">
<path fill="none" stroke="#63b8ff" d="M507.71,-267.67C525.67,-275.05 547.5,-284.13 567,-292.5 583.09,-299.41 586.51,-302.6 603,-308.5 609.44,-310.81 616.22,-313.02 623.03,-315.12"/>
<polygon fill="#63b8ff" stroke="#63b8ff" points="622.41,-318.58 632.99,-318.09 624.41,-311.88 622.41,-318.58"/>
</a>
</g>
</g>
<!-- Node24 -->
<g id="Node000024" class="node">
<title>Node24</title>
<g id="a_Node000024"><a xlink:href="classSpan_1_1GuiManager.html#ab78e1a284f6d5aced7912c00ab43c559" target="_top" xlink:title="ImGuiコンテキストとバックエンドを初期化します。">
<polygon fill="white" stroke="#666666" points="768,-299 614,-299 614,-280 768,-280 768,-299"/>
<text text-anchor="middle" x="691" y="-287" font-family="Helvetica,sans-Serif" font-size="10.00">Span::GuiManager::Initialize</text>
</a>
</g>
</g>
<!-- Node10&#45;&gt;Node24 -->
<g id="edge25_Node000010_Node000024" class="edge">
<title>Node10&#45;&gt;Node24</title>
<g id="a_edge25_Node000010_Node000024"><a xlink:title=" ">
<path fill="none" stroke="#63b8ff" d="M523.08,-261.36C553.17,-266.44 591.23,-272.85 623.41,-278.27"/>
<polygon fill="#63b8ff" stroke="#63b8ff" points="623.19,-281.79 633.63,-280 624.35,-274.88 623.19,-281.79"/>
</a>
</g>
</g>
<!-- Node27 -->
<g id="Node000027" class="node">
<title>Node27</title>
<g id="a_Node000027"><a xlink:href="classSpan_1_1Input.html#aac6e8f1cf694b484ed01742f2d16d63c" target="_top" xlink:title=" ">
<polygon fill="white" stroke="#666666" points="750.5,-262 631.5,-262 631.5,-243 750.5,-243 750.5,-262"/>
<text text-anchor="middle" x="691" y="-250" font-family="Helvetica,sans-Serif" font-size="10.00">Span::Input::Initialize</text>
</a>
</g>
</g>
<!-- Node10&#45;&gt;Node27 -->
<g id="edge28_Node000010_Node000027" class="edge">
<title>Node10&#45;&gt;Node27</title>
<g id="a_edge28_Node000010_Node000027"><a xlink:title=" ">
<path fill="none" stroke="#63b8ff" d="M523.08,-252.5C552.49,-252.5 589.5,-252.5 621.2,-252.5"/>
<polygon fill="#63b8ff" stroke="#63b8ff" points="621.28,-256 631.28,-252.5 621.28,-249 621.28,-256"/>
</a>
</g>
</g>
<!-- Node28 -->
<g id="Node000028" class="node">
<title>Node28</title>
<g id="a_Node000028"><a xlink:href="classSpan_1_1Logger.html#a557d77ccfa31551817d7b28d985866c8" target="_top" xlink:title="ロガーを初期化し、ログファイルを開きます。">
<polygon fill="white" stroke="#666666" points="755,-225 627,-225 627,-206 755,-206 755,-225"/>
<text text-anchor="middle" x="691" y="-213" font-family="Helvetica,sans-Serif" font-size="10.00">Span::Logger::Initialize</text>
</a>
</g>
</g>
<!-- Node10&#45;&gt;Node28 -->
<g id="edge29_Node000010_Node000028" class="edge">
<title>Node10&#45;&gt;Node28</title>
<g id="a_edge29_Node000010_Node000028"><a xlink:title=" ">
<path fill="none" stroke="#63b8ff" d="M523.08,-243.64C553.17,-238.56 591.23,-232.15 623.41,-226.73"/>
<polygon fill="#63b8ff" stroke="#63b8ff" points="624.35,-230.12 633.63,-225 623.19,-223.21 624.35,-230.12"/>
</a>
</g>
</g>
<!-- Node29 -->
<g id="Node000029" class="node">
<title>Node29</title>
<g id="a_Node000029"><a xlink:href="classSpan_1_1Time.html#ae9e018cd0d5a3b34b773e80c750860e7" target="_top" xlink:title="初期化（エンジン起動時）">
<polygon fill="white" stroke="#666666" points="750.5,-188 631.5,-188 631.5,-169 750.5,-169 750.5,-188"/>
<text text-anchor="middle" x="691" y="-176" font-family="Helvetica,sans-Serif" font-size="10.00">Span::Time::Initialize</text>
</a>
</g>
</g>
<!-- Node10&#45;&gt;Node29 -->
<g id="edge30_Node000010_Node000029" class="edge">
<title>Node10&#45;&gt;Node29</title>
<g id="a_edge30_Node000010_Node000029"><a xlink:title=" ">
<path fill="none" stroke="#63b8ff" d="M502.3,-237.41C528.78,-225.31 567.71,-208.58 603,-197.5 611.36,-194.88 620.28,-192.48 629.11,-190.35"/>
<polygon fill="#63b8ff" stroke="#63b8ff" points="630.05,-193.72 638.99,-188.04 628.46,-186.9 630.05,-193.72"/>
</a>
</g>
</g>
<!-- Node12 -->
<g id="Node000012" class="node">
<title>Node12</title>
<g id="a_Node000012"><a xlink:href="classSpan_1_1Application.html#a095598d0c2e753bfb8d00acee435980f" target="_top" xlink:title="シングルトンインスタンスのポインタ取得 (存在チェック用)">
<polygon fill="white" stroke="#666666" points="957.5,-132 836.5,-132 836.5,-113 957.5,-113 957.5,-132"/>
<text text-anchor="middle" x="897" y="-120" font-family="Helvetica,sans-Serif" font-size="10.00">Span::Application::Ptr</text>
</a>
</g>
</g>
<!-- Node11&#45;&gt;Node12 -->
<g id="edge11_Node000011_Node000012" class="edge">
<title>Node11&#45;&gt;Node12</title>
<g id="a_edge11_Node000011_Node000012"><a xlink:title=" ">
<path fill="none" stroke="#63b8ff" d="M761.63,-135.01C782.47,-133.07 805.3,-130.95 826.15,-129.01"/>
<polygon fill="#63b8ff" stroke="#63b8ff" points="826.57,-132.48 836.2,-128.07 825.92,-125.51 826.57,-132.48"/>
</a>
</g>
</g>
<!-- Node12&#45;&gt;Node10 -->
<g id="edge12_Node000012_Node000010" class="edge">
<title>Node12&#45;&gt;Node10</title>
<g id="a_edge12_Node000012_Node000010"><a xlink:title=" ">
<path fill="none" stroke="#63b8ff" d="M859.88,-112.93C802.16,-99.69 687.08,-81.81 603,-123.5 579.43,-135.19 585.13,-151.43 567,-170.5 545.79,-192.81 518.92,-215.24 498.92,-230.99"/>
<polygon fill="#63b8ff" stroke="#63b8ff" points="496.55,-228.4 490.81,-237.31 500.85,-233.93 496.55,-228.4"/>
</a>
</g>
</g>
<!-- Node14 -->
<g id="Node000014" class="node">
<title>Node14</title>
<g id="a_Node000014"><a xlink:href="classSpan_1_1AssetManager.html#a9d65496b728f9a4fef2a5334d5a8ad56" target="_top" xlink:title=" ">
<polygon fill="white" stroke="#666666" points="955,-433.5 839,-433.5 839,-403.5 955,-403.5 955,-433.5"/>
<text text-anchor="start" x="847" y="-421.5" font-family="Helvetica,sans-Serif" font-size="10.00">Span::AssetManager</text>
<text text-anchor="middle" x="897" y="-410.5" font-family="Helvetica,sans-Serif" font-size="10.00">::AssetManager</text>
</a>
</g>
</g>
<!-- Node13&#45;&gt;Node14 -->
<g id="edge14_Node000013_Node000014" class="edge">
<title>Node13&#45;&gt;Node14</title>
<g id="a_edge14_Node000013_Node000014"><a xlink:title=" ">
<path fill="none" stroke="#63b8ff" d="M737.27,-385.04C764.17,-390.71 798.77,-398.01 828.81,-404.34"/>
<polygon fill="#63b8ff" stroke="#63b8ff" points="828.29,-407.8 838.8,-406.44 829.73,-400.96 828.29,-407.8"/>
</a>
</g>
</g>
<!-- Node16 -->
<g id="Node000016" class="node">
<title>Node16</title>
<g id="a_Node000016"><a xlink:href="classSpan_1_1AssetRegistry.html#a2b83eeb5aa2e6d4c807d4e4a11db563c" target="_top" xlink:title=" ">
<polygon fill="white" stroke="#666666" points="965.5,-385 828.5,-385 828.5,-366 965.5,-366 965.5,-385"/>
<text text-anchor="middle" x="897" y="-373" font-family="Helvetica,sans-Serif" font-size="10.00">Span::AssetRegistry::Get</text>
</a>
</g>
</g>
<!-- Node15&#45;&gt;Node16 -->
<g id="edge16_Node000015_Node000016" class="edge">
<title>Node15&#45;&gt;Node16</title>
<g id="a_edge16_Node000015_Node000016"><a xlink:title=" ">
<path fill="none" stroke="#63b8ff" d="M749.1,-344.54C777.88,-350.6 812.63,-357.93 841.1,-363.93"/>
<polygon fill="#63b8ff" stroke="#63b8ff" points="840.38,-367.35 850.89,-365.99 841.83,-360.5 840.38,-367.35"/>
</a>
</g>
</g>
<!-- Node17 -->
<g id="Node000017" class="node">
<title>Node17</title>
<g id="a_Node000017"><a xlink:href="classSpan_1_1AssetRegistry.html#a71c0e006b41117cb0b296adaf0de1c56" target="_top" xlink:title="指定ディレクトリ以下の全アセットをスキャンし、レジストリを構築します。">
<polygon fill="white" stroke="#666666" points="954,-347.5 840,-347.5 840,-317.5 954,-317.5 954,-347.5"/>
<text text-anchor="start" x="848" y="-335.5" font-family="Helvetica,sans-Serif" font-size="10.00">Span::AssetRegistry</text>
<text text-anchor="middle" x="897" y="-324.5" font-family="Helvetica,sans-Serif" font-size="10.00">::Refresh</text>
</a>
</g>
</g>
<!-- Node15&#45;&gt;Node17 -->
<g id="edge17_Node000015_Node000017" class="edge">
<title>Node15&#45;&gt;Node17</title>
<g id="a_edge17_Node000015_Node000017"><a xlink:title=" ">
<path fill="none" stroke="#63b8ff" d="M749.1,-332.5C774.17,-332.5 803.78,-332.5 829.81,-332.5"/>
<polygon fill="#63b8ff" stroke="#63b8ff" points="829.98,-336 839.98,-332.5 829.98,-329 829.98,-336"/>
</a>
</g>
</g>
<!-- Node18 -->
<g id="Node000018" class="node">
<title>Node18</title>
<g id="a_Node000018"><a xlink:href="classSpan_1_1AssetRegistry.html#a432dbe6ae1b0ab930bd903d93ad5a734" target="_top" xlink:title="パスからアセット情報を登録・更新します (ファイル移動/作成時用)。">
<polygon fill="white" stroke="#666666" points="1129,-347.5 1015,-347.5 1015,-317.5 1129,-317.5 1129,-347.5"/>
<text text-anchor="start" x="1023" y="-335.5" font-family="Helvetica,sans-Serif" font-size="10.00">Span::AssetRegistry</text>
<text text-anchor="middle" x="1072" y="-324.5" font-family="Helvetica,sans-Serif" font-size="10.00">::RegisterAsset</text>
</a>
</g>
</g>
<!-- Node17&#45;&gt;Node18 -->
<g id="edge18_Node000017_Node000018" class="edge">
<title>Node17&#45;&gt;Node18</title>
<g id="a_edge18_Node000017_Node000018"><a xlink:title=" ">
<path fill="none" stroke="#63b8ff" d="M954.17,-332.5C970.26,-332.5 987.96,-332.5 1004.61,-332.5"/>
<polygon fill="#63b8ff" stroke="#63b8ff" points="1004.82,-336 1014.82,-332.5 1004.82,-329 1004.82,-336"/>
</a>
</g>
</g>
<!-- Node19 -->
<g id="Node000019" class="node">
<title>Node19</title>
<g id="a_Node000019"><a xlink:href="structSpan_1_1AssetMetadata.html#a83c8ed8bfd79a2aa90ed8d4e36b785b8" target="_top" xlink:title=" ">
<polygon fill="white" stroke="#666666" points="1474.5,-374.5 1354.5,-374.5 1354.5,-344.5 1474.5,-344.5 1474.5,-374.5"/>
<text text-anchor="start" x="1362.5" y="-362.5" font-family="Helvetica,sans-Serif" font-size="10.00">Span::AssetMetadata</text>
<text text-anchor="middle" x="1414.5" y="-351.5" font-family="Helvetica,sans-Serif" font-size="10.00">::IsValid</text>
</a>
</g>
</g>
<!-- Node18&#45;&gt;Node19 -->
<g id="edge19_Node000018_Node000019" class="edge">
<title>Node18&#45;&gt;Node19</title>
<g id="a_edge19_Node000018_Node000019"><a xlink:title=" ">
<path fill="none" stroke="#63b8ff" d="M1129.23,-336.96C1188.09,-341.63 1280.62,-348.96 1344.02,-353.99"/>
<polygon fill="#63b8ff" stroke="#63b8ff" points="1344.08,-357.51 1354.33,-354.81 1344.64,-350.53 1344.08,-357.51"/>
</a>
</g>
</g>
<!-- Node20 -->
<g id="Node000020" class="node">
<title>Node20</title>
<g id="a_Node000020"><a xlink:href="classSpan_1_1AssetSerializer.html#adea72d3eb1434b36473f6e0d38396451" target="_top" xlink:title="指定したアセットのメタデータを取得します。 .metaファイルが存在しない場合は、新規にGUIDを生成して作成します。">
<polygon fill="white" stroke="#666666" points="1301,-326.5 1165,-326.5 1165,-296.5 1301,-296.5 1301,-326.5"/>
<text text-anchor="start" x="1173" y="-314.5" font-family="Helvetica,sans-Serif" font-size="10.00">Span::AssetSerializer</text>
<text text-anchor="middle" x="1233" y="-303.5" font-family="Helvetica,sans-Serif" font-size="10.00">::LoadOrCreateMetadata</text>
</a>
</g>
</g>
<!-- Node18&#45;&gt;Node20 -->
<g id="edge20_Node000018_Node000020" class="edge">
<title>Node18&#45;&gt;Node20</title>
<g id="a_edge20_Node000018_Node000020"><a xlink:title=" ">
<path fill="none" stroke="#63b8ff" d="M1129.06,-325.1C1137.35,-324 1146.01,-322.86 1154.64,-321.72"/>
<polygon fill="#63b8ff" stroke="#63b8ff" points="1155.28,-325.16 1164.73,-320.38 1154.36,-318.22 1155.28,-325.16"/>
</a>
</g>
</g>
<!-- Node20&#45;&gt;Node19 -->
<g id="edge22_Node000020_Node000019" class="edge">
<title>Node20&#45;&gt;Node19</title>
<g id="a_edge22_Node000020_Node000019"><a xlink:title=" ">
<path fill="none" stroke="#63b8ff" d="M1290.3,-326.56C1308.51,-331.43 1328.87,-336.87 1347.71,-341.91"/>
<polygon fill="#63b8ff" stroke="#63b8ff" points="1346.83,-345.3 1357.4,-344.5 1348.64,-338.53 1346.83,-345.3"/>
</a>
</g>
</g>
<!-- Node21 -->
<g id="Node000021" class="node">
<title>Node21</title>
<g id="a_Node000021"><a xlink:href="classSpan_1_1AssetSerializer.html#a39e6a3bea02531fc2c31683a27d52061" target="_top" xlink:title="拡張子から汗ッとタイプを推論します。">
<polygon fill="white" stroke="#666666" points="1492,-326.5 1337,-326.5 1337,-296.5 1492,-296.5 1492,-326.5"/>
<text text-anchor="start" x="1345" y="-314.5" font-family="Helvetica,sans-Serif" font-size="10.00">Span::AssetSerializer</text>
<text text-anchor="middle" x="1414.5" y="-303.5" font-family="Helvetica,sans-Serif" font-size="10.00">::DeduceTypeFromExtension</text>
</a>
</g>
</g>
<!-- Node20&#45;&gt;Node21 -->
<g id="edge21_Node000020_Node000021" class="edge">
<title>Node20&#45;&gt;Node21</title>
<g id="a_edge21_Node000020_Node000021"><a xlink:title=" ">
<path fill="none" stroke="#63b8ff" d="M1301.09,-311.5C1309.47,-311.5 1318.12,-311.5 1326.74,-311.5"/>
<polygon fill="#63b8ff" stroke="#63b8ff" points="1326.82,-315 1336.82,-311.5 1326.82,-308 1326.82,-315"/>
</a>
</g>
</g>
<!-- Node22 -->
<g id="Node000022" class="node">
<title>Node22</title>
<g id="a_Node000022"><a xlink:href="namespaceSpan.html#a8ba99036404afdb464fdc44c3dbc7136" target="_top" xlink:title=" ">
<polygon fill="white" stroke="#666666" points="1459.5,-278 1369.5,-278 1369.5,-259 1459.5,-259 1459.5,-278"/>
<text text-anchor="middle" x="1414.5" y="-266" font-family="Helvetica,sans-Serif" font-size="10.00">Span::s_Engine</text>
</a>
</g>
</g>
<!-- Node20&#45;&gt;Node22 -->
<g id="edge23_Node000020_Node000022" class="edge">
<title>Node20&#45;&gt;Node22</title>
<g id="a_edge23_Node000020_Node000022"><a xlink:title=" ">
<path fill="none" stroke="#63b8ff" d="M1296.78,-296.46C1318.76,-291.2 1343.12,-285.36 1363.88,-280.39"/>
<polygon fill="#63b8ff" stroke="#63b8ff" points="1364.84,-283.76 1373.75,-278.02 1363.21,-276.95 1364.84,-283.76"/>
</a>
</g>
</g>
<!-- Node23 -->
<g id="Node000023" class="node">
<title>Node23</title>
<g id="a_Node000023"><a xlink:href="classSpan_1_1AssetSerializer.html#a0eb09ea936ef7cf65184977a5809ef6b" target="_top" xlink:title="メタデータをファイルに保存する。">
<polygon fill="white" stroke="#666666" points="1474,-240.5 1355,-240.5 1355,-210.5 1474,-210.5 1474,-240.5"/>
<text text-anchor="start" x="1363" y="-228.5" font-family="Helvetica,sans-Serif" font-size="10.00">Span::AssetSerializer</text>
<text text-anchor="middle" x="1414.5" y="-217.5" font-family="Helvetica,sans-Serif" font-size="10.00">::SaveMetadata</text>
</a>
</g>
</g>
<!-- Node20&#45;&gt;Node23 -->
<g id="edge24_Node000020_Node000023" class="edge">
<title>Node20&#45;&gt;Node23</title>
<g id="a_edge24_Node000020_Node000023"><a xlink:title=" ">
<path fill="none" stroke="#63b8ff" d="M1256.14,-296.45C1276.49,-283.1 1307.85,-263.7 1337,-250.5 1342.01,-248.23 1347.29,-246.07 1352.64,-244.03"/>
<polygon fill="#63b8ff" stroke="#63b8ff" points="1354.1,-247.23 1362.29,-240.51 1351.7,-240.65 1354.1,-247.23"/>
</a>
</g>
</g>
<!-- Node25 -->
<g id="Node000025" class="node">
<title>Node25</title>
<g id="a_Node000025"><a xlink:href="classSpan_1_1GuiManager.html#a79fd10d93a58b741c10bd8c8477afc0a" target="_top" xlink:title="管理対象のエディタパネルを追加します。">
<polygon fill="white" stroke="#666666" points="975.5,-262 818.5,-262 818.5,-243 975.5,-243 975.5,-262"/>
<text text-anchor="middle" x="897" y="-250" font-family="Helvetica,sans-Serif" font-size="10.00">Span::GuiManager::AddPanel</text>
</a>
</g>
</g>
<!-- Node24&#45;&gt;Node25 -->
<g id="edge26_Node000024_Node000025" class="edge">
<title>Node24&#45;&gt;Node25</title>
<g id="a_edge26_Node000024_Node000025"><a xlink:title=" ">
<path fill="none" stroke="#63b8ff" d="M744.54,-279.97C771.68,-275.05 804.98,-269.01 833.44,-263.85"/>
<polygon fill="#63b8ff" stroke="#63b8ff" points="834.07,-267.29 843.29,-262.06 832.82,-260.4 834.07,-267.29"/>
</a>
</g>
</g>
<!-- Node26 -->
<g id="Node000026" class="node">
<title>Node26</title>
<g id="a_Node000026"><a xlink:href="classSpan_1_1GuiManager.html#ad8ff21c11b12bff5ee5b454a4dae33d0" target="_top" xlink:title="フォントや配色などのスタイル設定を適用します。">
<polygon fill="white" stroke="#666666" points="979,-299 815,-299 815,-280 979,-280 979,-299"/>
<text text-anchor="middle" x="897" y="-287" font-family="Helvetica,sans-Serif" font-size="10.00">Span::GuiManager::ApplyStyle</text>
</a>
</g>
</g>
<!-- Node24&#45;&gt;Node26 -->
<g id="edge27_Node000024_Node000026" class="edge">
<title>Node24&#45;&gt;Node26</title>
<g id="a_edge27_Node000024_Node000026"><a xlink:title=" ">
<path fill="none" stroke="#63b8ff" d="M768.25,-289.5C780.1,-289.5 792.44,-289.5 804.58,-289.5"/>
<polygon fill="#63b8ff" stroke="#63b8ff" points="804.72,-293 814.72,-289.5 804.72,-286 804.72,-293"/>
</a>
</g>
</g>
<!-- Node33 -->
<g id="Node000033" class="node">
<title>Node33</title>
<g id="a_Node000033"><a xlink:href="structSpan_1_1Matrix4x4.html#a4adf277b2c441fe8d2ea295a0c0a2610" target="_top" xlink:title=" ">
<polygon fill="white" stroke="#666666" points="762.5,-72 619.5,-72 619.5,-53 762.5,-53 762.5,-72"/>
<text text-anchor="middle" x="691" y="-60" font-family="Helvetica,sans-Serif" font-size="10.00">Span::Matrix4x4::FromXM</text>
</a>
</g>
</g>
<!-- Node32&#45;&gt;Node33 -->
<g id="edge34_Node000032_Node000033" class="edge">
<title>Node32&#45;&gt;Node33</title>
<g id="a_edge34_Node000032_Node000033"><a xlink:title=" ">
<path fill="none" stroke="#63b8ff" d="M298.06,-142.04C376.13,-155.84 522.58,-177.07 567,-151.5 594.61,-135.6 578.08,-109.36 603,-89.5 610.27,-83.71 618.78,-79.16 627.58,-75.57"/>
<polygon fill="#63b8ff" stroke="#63b8ff" points="629.02,-78.78 637.21,-72.06 626.61,-72.2 629.02,-78.78"/>
</a>
</g>
</g>
<!-- Node34 -->
<g id="Node000034" class="node">
<title>Node34</title>
<g id="a_Node000034"><a xlink:href="structSpan_1_1Matrix4x4.html#a431bf3af613c1029e6de25d64cfda6b7" target="_top" xlink:title=" ">
<polygon fill="white" stroke="#666666" points="545.5,-105 393.5,-105 393.5,-86 545.5,-86 545.5,-105"/>
<text text-anchor="middle" x="469.5" y="-93" font-family="Helvetica,sans-Serif" font-size="10.00">Span::Matrix4x4::Matrix4x4</text>
</a>
</g>
</g>
<!-- Node32&#45;&gt;Node34 -->
<g id="edge35_Node000032_Node000034" class="edge">
<title>Node32&#45;&gt;Node34</title>
<g id="a_edge35_Node000032_Node000034"><a xlink:title=" ">
<path fill="none" stroke="#63b8ff" d="M304.78,-122.97C334.25,-118.03 370.43,-111.96 401.28,-106.78"/>
<polygon fill="#63b8ff" stroke="#63b8ff" points="402.24,-110.17 411.53,-105.06 401.08,-103.26 402.24,-110.17"/>
</a>
</g>
</g>
<!-- Node35 -->
<g id="Node000035" class="node">
<title>Node35</title>
<g id="a_Node000035"><a xlink:href="structSpan_1_1Matrix4x4.html#afc3f3a8aeeaac6aa4302a64b7568fbf3" target="_top" xlink:title=" ">
<polygon fill="white" stroke="#666666" points="533.5,-142 405.5,-142 405.5,-123 533.5,-123 533.5,-142"/>
<text text-anchor="middle" x="469.5" y="-130" font-family="Helvetica,sans-Serif" font-size="10.00">Span::Matrix4x4::ToXM</text>
</a>
</g>
</g>
<!-- Node32&#45;&gt;Node35 -->
<g id="edge37_Node000032_Node000035" class="edge">
<title>Node32&#45;&gt;Node35</title>
<g id="a_edge37_Node000032_Node000035"><a xlink:title=" ">
<path fill="none" stroke="#63b8ff" d="M312.67,-132.5C338.58,-132.5 368.58,-132.5 395.29,-132.5"/>
<polygon fill="#63b8ff" stroke="#63b8ff" points="395.35,-136 405.35,-132.5 395.35,-129 395.35,-136"/>
</a>
</g>
</g>
<!-- Node34&#45;&gt;Node33 -->
<g id="edge36_Node000034_Node000033" class="edge">
<title>Node34&#45;&gt;Node33</title>
<g id="a_edge36_Node000034_Node000033"><a xlink:title=" ">
<path fill="none" stroke="#63b8ff" d="M533.69,-86C559.52,-82.12 589.58,-77.6 616.39,-73.57"/>
<polygon fill="#63b8ff" stroke="#63b8ff" points="617.12,-77 626.49,-72.05 616.08,-70.07 617.12,-77"/>
</a>
</g>
</g>
<!-- Node36&#45;&gt;Node33 -->
<g id="edge39_Node000036_Node000033" class="edge">
<title>Node36&#45;&gt;Node33</title>
<g id="a_edge39_Node000036_Node000033"><a xlink:title=" ">
<path fill="none" stroke="#63b8ff" d="M336.15,-41.61C400.27,-39.04 489.14,-37.52 567,-43.5 587.64,-45.08 610.06,-48.14 630.04,-51.35"/>
<polygon fill="#63b8ff" stroke="#63b8ff" points="629.5,-54.81 639.93,-52.99 630.64,-47.91 629.5,-54.81"/>
</a>
</g>
</g>
<!-- Node36&#45;&gt;Node34 -->
<g id="edge40_Node000036_Node000034" class="edge">
<title>Node36&#45;&gt;Node34</title>
<g id="a_edge40_Node000036_Node000034"><a xlink:title=" ">
<path fill="none" stroke="#63b8ff" d="M292.79,-56.08C306.65,-59.07 321.96,-62.39 336,-65.5 362.72,-71.41 392.43,-78.12 416.94,-83.7"/>
<polygon fill="#63b8ff" stroke="#63b8ff" points="416.22,-87.13 426.75,-85.93 417.78,-80.3 416.22,-87.13"/>
</a>
</g>
</g>
<!-- Node37&#45;&gt;Node33 -->
<g id="edge42_Node000037_Node000033" class="edge">
<title>Node37&#45;&gt;Node33</title>
<g id="a_edge42_Node000037_Node000033"><a xlink:title=" ">
<path fill="none" stroke="#63b8ff" d="M326.65,-80.53C341.69,-79.02 357.32,-77.59 372,-76.5 452.56,-70.51 544.8,-66.8 609.12,-64.71"/>
<polygon fill="#63b8ff" stroke="#63b8ff" points="609.31,-68.21 619.2,-64.39 609.09,-61.21 609.31,-68.21"/>
</a>
</g>
</g>
<!-- Node37&#45;&gt;Node34 -->
<g id="edge43_Node000037_Node000034" class="edge">
<title>Node37&#45;&gt;Node34</title>
<g id="a_edge43_Node000037_Node000034"><a xlink:title=" ">
<path fill="none" stroke="#63b8ff" d="M326.67,-91.64C344.93,-92.14 364.46,-92.67 383,-93.17"/>
<polygon fill="#63b8ff" stroke="#63b8ff" points="383.09,-96.68 393.18,-93.45 383.28,-89.68 383.09,-96.68"/>
</a>
</g>
</g>
</g>
</svg>
