<?xml version="1.0" encoding="UTF-8" standalone="no"?>
<!DOCTYPE svg PUBLIC "-//W3C//DTD SVG 1.1//EN"
 "http://www.w3.org/Graphics/SVG/1.1/DTD/svg11.dtd">
<!-- Generated by graphviz version 2.43.0 (0)
 -->
<!-- Title: Span::AssetManager::GetMaterial Pages: 1 -->
<!--zoomable 364 -->

<svg id="main" version="1.1" xmlns="http://www.w3.org/2000/svg" xmlns:xlink="http://www.w3.org/1999/xlink" xml:space="preserve" onload="init(evt)">

<style type="text/css"><![CDATA[
.node, .edge {opacity: 0.7;}
.node.selected, .edge.selected {opacity: 1;}
.edge:hover path { stroke: red; }
.edge:hover polygon { stroke: red; fill: red; }
]]></style>

<defs>
  <circle id="rim" cx="0" cy="0" r="7"/>
  <circle id="rim2" cx="0" cy="0" r="3.5"/>
  <g id="zoomPlus">
    <use xlink:href="#rim" fill="#404040"><set attributeName="fill" to="#808080" begin="zoomplus.mouseover" end="zoomplus.mouseout"/></use>
    <path d="M-4,0h8M0,-4v8" fill="none" stroke="white" stroke-width="1.5" pointer-events="none"/>
  </g>
  <g id="zoomMin">
    <use xlink:href="#rim" fill="#404040"><set attributeName="fill" to="#808080" begin="zoomminus.mouseover" end="zoomminus.mouseout"/></use>
    <path d="M-4,0h8" fill="none" stroke="white" stroke-width="1.5" pointer-events="none"/>
  </g>
  <g id="arrowUp" transform="translate(30 24)">
    <use xlink:href="#rim"/>
    <path pointer-events="none" fill="none" stroke="white" stroke-width="1.5" d="M0,-3.0v7 M-2.5,-0.5L0,-3.0L2.5,-0.5"/>
  </g>
  <g id="arrowRight" transform="rotate(90) translate(36 -43)">
    <use xlink:href="#rim"/>
    <path pointer-events="none" fill="none" stroke="white" stroke-width="1.5" d="M0,-3.0v7 M-2.5,-0.5L0,-3.0L2.5,-0.5"/>
  </g>
  <g id="arrowDown" transform="rotate(180) translate(-30 -48)">
    <use xlink:href="#rim"/>
    <path pointer-events="none" fill="none" stroke="white" stroke-width="1.5" d="M0,-3.0v7 M-2.5,-0.5L0,-3.0L2.5,-0.5"/>
  </g>
  <g id="arrowLeft" transform="rotate(270) translate(-36 17)">
    <use xlink:href="#rim"/>
    <path pointer-events="none" fill="none" stroke="white" stroke-width="1.5" d="M0,-3.0v7 M-2.5,-0.5L0,-3.0L2.5,-0.5"/>
  </g>
  <g id="resetDef">
    <use xlink:href="#rim2" fill="#404040"><set attributeName="fill" to="#808080" begin="reset.mouseover" end="reset.mouseout"/></use>
  </g>
</defs>
<script type="application/ecmascript">
var viewWidth = 639;
var viewHeight = 364;
var sectionId = 'dynsection-9';
</script>
<script type="application/ecmascript" xlink:href="svg.min.js"/>
<svg id="graph" class="graph">
<g id="viewport">
<title>Span::AssetManager::GetMaterial</title>
<!-- Node1 -->
<g id="Node000001" class="node">
<title>Node1</title>
<g id="a_Node000001"><a xlink:title="パスでマテリアルを取得 (キャッシュ対応)。">
<polygon fill="#999999" stroke="#666666" points="116,-221 0,-221 0,-191 116,-191 116,-221"/>
<text text-anchor="start" x="8" y="-209" font-family="Helvetica,sans-Serif" font-size="10.00">Span::AssetManager</text>
<text text-anchor="middle" x="58" y="-198" font-family="Helvetica,sans-Serif" font-size="10.00">::GetMaterial</text>
</a>
</g>
</g>
<!-- Node2 -->
<g id="Node000002" class="node">
<title>Node2</title>
<g id="a_Node000002"><a xlink:href="classSpan_1_1AssetRegistry.html#a2b83eeb5aa2e6d4c807d4e4a11db563c" target="_top" xlink:title=" ">
<polygon fill="white" stroke="#666666" points="622,-347.5 485,-347.5 485,-328.5 622,-328.5 622,-347.5"/>
<text text-anchor="middle" x="553.5" y="-335.5" font-family="Helvetica,sans-Serif" font-size="10.00">Span::AssetRegistry::Get</text>
</a>
</g>
</g>
<!-- Node1&#45;&gt;Node2 -->
<g id="edge1_Node000001_Node000002" class="edge">
<title>Node1&#45;&gt;Node2</title>
<g id="a_edge1_Node000001_Node000002"><a xlink:title=" ">
<path fill="none" stroke="#63b8ff" d="M69.84,-221.29C85.59,-242.42 116.8,-280.39 152,-302 255.62,-365.61 403.63,-359.33 487.66,-348.82"/>
<polygon fill="#63b8ff" stroke="#63b8ff" points="488.12,-352.29 497.58,-347.52 487.21,-345.34 488.12,-352.29"/>
</a>
</g>
</g>
<!-- Node3 -->
<g id="Node000003" class="node">
<title>Node3</title>
<g id="a_Node000003"><a xlink:href="classSpan_1_1AssetRegistry.html#ac48f2d0e316daa76675614aaf1d94024" target="_top" xlink:title=" ">
<polygon fill="white" stroke="#666666" points="267,-293 153,-293 153,-263 267,-263 267,-293"/>
<text text-anchor="start" x="161" y="-281" font-family="Helvetica,sans-Serif" font-size="10.00">Span::AssetRegistry</text>
<text text-anchor="middle" x="210" y="-270" font-family="Helvetica,sans-Serif" font-size="10.00">::GetHandle</text>
</a>
</g>
</g>
<!-- Node1&#45;&gt;Node3 -->
<g id="edge2_Node000001_Node000003" class="edge">
<title>Node1&#45;&gt;Node3</title>
<g id="a_edge2_Node000001_Node000003"><a xlink:title=" ">
<path fill="none" stroke="#63b8ff" d="M86.8,-221.07C105.13,-230.83 129.78,-243.61 152,-254 155.51,-255.64 159.16,-257.3 162.85,-258.93"/>
<polygon fill="#63b8ff" stroke="#63b8ff" points="161.45,-262.14 172.02,-262.92 164.25,-255.72 161.45,-262.14"/>
</a>
</g>
</g>
<!-- Node4 -->
<g id="Node000004" class="node">
<title>Node4</title>
<g id="a_Node000004"><a xlink:href="classSpan_1_1AssetManager.html#afea5c55a143ce55fd19b8fedc4e578f5" target="_top" xlink:title="GUIDでマテリアルを取得 (推奨)">
<polygon fill="white" stroke="#666666" points="268,-245 152,-245 152,-215 268,-215 268,-245"/>
<text text-anchor="start" x="160" y="-233" font-family="Helvetica,sans-Serif" font-size="10.00">Span::AssetManager</text>
<text text-anchor="middle" x="210" y="-222" font-family="Helvetica,sans-Serif" font-size="10.00">::GetMaterial</text>
</a>
</g>
</g>
<!-- Node1&#45;&gt;Node4 -->
<g id="edge3_Node000001_Node000004" class="edge">
<title>Node1&#45;&gt;Node4</title>
<g id="a_edge3_Node000001_Node000004"><a xlink:title=" ">
<path fill="none" stroke="#63b8ff" d="M116.14,-215.14C124.47,-216.47 133.11,-217.86 141.62,-219.22"/>
<polygon fill="#63b8ff" stroke="#63b8ff" points="141.1,-222.68 151.53,-220.8 142.2,-215.77 141.1,-222.68"/>
</a>
</g>
</g>
<!-- Node8 -->
<g id="Node000008" class="node">
<title>Node8</title>
<g id="a_Node000008"><a xlink:href="structSpan_1_1AssetMetadata.html#a83c8ed8bfd79a2aa90ed8d4e36b785b8" target="_top" xlink:title=" ">
<polygon fill="white" stroke="#666666" points="613.5,-164 493.5,-164 493.5,-134 613.5,-134 613.5,-164"/>
<text text-anchor="start" x="501.5" y="-152" font-family="Helvetica,sans-Serif" font-size="10.00">Span::AssetMetadata</text>
<text text-anchor="middle" x="553.5" y="-141" font-family="Helvetica,sans-Serif" font-size="10.00">::IsValid</text>
</a>
</g>
</g>
<!-- Node1&#45;&gt;Node8 -->
<g id="edge10_Node000001_Node000008" class="edge">
<title>Node1&#45;&gt;Node8</title>
<g id="a_edge10_Node000001_Node000008"><a xlink:title=" ">
<path fill="none" stroke="#63b8ff" d="M116.09,-199.41C207.13,-188.89 384.89,-168.36 483.12,-157.01"/>
<polygon fill="#63b8ff" stroke="#63b8ff" points="483.71,-160.47 493.24,-155.84 482.91,-153.52 483.71,-160.47"/>
</a>
</g>
</g>
<!-- Node9 -->
<g id="Node000009" class="node">
<title>Node9</title>
<g id="a_Node000009"><a xlink:href="classSpan_1_1AssetSerializer.html#adea72d3eb1434b36473f6e0d38396451" target="_top" xlink:title="指定したアセットのメタデータを取得します。 .metaファイルが存在しない場合は、新規にGUIDを生成して作成します。">
<polygon fill="white" stroke="#666666" points="440,-98 304,-98 304,-68 440,-68 440,-98"/>
<text text-anchor="start" x="312" y="-86" font-family="Helvetica,sans-Serif" font-size="10.00">Span::AssetSerializer</text>
<text text-anchor="middle" x="372" y="-75" font-family="Helvetica,sans-Serif" font-size="10.00">::LoadOrCreateMetadata</text>
</a>
</g>
</g>
<!-- Node1&#45;&gt;Node9 -->
<g id="edge11_Node000001_Node000009" class="edge">
<title>Node1&#45;&gt;Node9</title>
<g id="a_edge11_Node000001_Node000009"><a xlink:title=" ">
<path fill="none" stroke="#63b8ff" d="M67.15,-190.74C80.97,-166.6 111.5,-120.27 152,-100 195.5,-78.23 250.03,-73.93 293.79,-75.1"/>
<polygon fill="#63b8ff" stroke="#63b8ff" points="293.69,-78.6 303.81,-75.47 293.94,-71.61 293.69,-78.6"/>
</a>
</g>
</g>
<!-- Node13 -->
<g id="Node000013" class="node">
<title>Node13</title>
<g id="a_Node000013"><a xlink:href="classSpan_1_1AssetRegistry.html#a432dbe6ae1b0ab930bd903d93ad5a734" target="_top" xlink:title="パスからアセット情報を登録・更新します (ファイル移動/作成時用)。">
<polygon fill="white" stroke="#666666" points="267,-139 153,-139 153,-109 267,-109 267,-139"/>
<text text-anchor="start" x="161" y="-127" font-family="Helvetica,sans-Serif" font-size="10.00">Span::AssetRegistry</text>
<text text-anchor="middle" x="210" y="-116" font-family="Helvetica,sans-Serif" font-size="10.00">::RegisterAsset</text>
</a>
</g>
</g>
<!-- Node1&#45;&gt;Node13 -->
<g id="edge16_Node000001_Node000013" class="edge">
<title>Node1&#45;&gt;Node13</title>
<g id="a_edge16_Node000001_Node000013"><a xlink:title=" ">
<path fill="none" stroke="#63b8ff" d="M84.87,-190.82C103.43,-180.04 129.1,-165.34 152,-153 157.64,-149.96 163.64,-146.81 169.55,-143.77"/>
<polygon fill="#63b8ff" stroke="#63b8ff" points="171.38,-146.76 178.69,-139.09 168.19,-140.53 171.38,-146.76"/>
</a>
</g>
</g>
<!-- Node4&#45;&gt;Node2 -->
<g id="edge4_Node000004_Node000002" class="edge">
<title>Node4&#45;&gt;Node2</title>
<g id="a_edge4_Node000004_Node000002"><a xlink:title=" ">
<path fill="none" stroke="#63b8ff" d="M255.43,-245.13C259.95,-247.69 264.25,-250.63 268,-254 292.57,-276.07 276.21,-301.16 304,-319 359.42,-354.57 436.77,-354.56 490.39,-348.71"/>
<polygon fill="#63b8ff" stroke="#63b8ff" points="490.93,-352.17 500.45,-347.51 490.11,-345.22 490.93,-352.17"/>
</a>
</g>
</g>
<!-- Node5 -->
<g id="Node000005" class="node">
<title>Node5</title>
<g id="a_Node000005"><a xlink:href="classSpan_1_1AssetManager.html#a98a270b7faf1990407f7082143e437d6" target="_top" xlink:title="デフォルト (標準) のマテリアルを取得します。 シェーダーやマテリアルが存在しない場合は内部で生成します。">
<polygon fill="white" stroke="#666666" points="430,-310 314,-310 314,-280 430,-280 430,-310"/>
<text text-anchor="start" x="322" y="-298" font-family="Helvetica,sans-Serif" font-size="10.00">Span::AssetManager</text>
<text text-anchor="middle" x="372" y="-287" font-family="Helvetica,sans-Serif" font-size="10.00">::GetDefaultMaterial</text>
</a>
</g>
</g>
<!-- Node4&#45;&gt;Node5 -->
<g id="edge5_Node000004_Node000005" class="edge">
<title>Node4&#45;&gt;Node5</title>
<g id="a_edge5_Node000004_Node000005"><a xlink:title=" ">
<path fill="none" stroke="#63b8ff" d="M247.28,-245C254.19,-247.94 261.33,-251.02 268,-254 284.16,-261.21 287.65,-264.23 304,-271 308.41,-272.82 313.01,-274.64 317.64,-276.42"/>
<polygon fill="#63b8ff" stroke="#63b8ff" points="316.56,-279.75 327.16,-279.99 319.02,-273.2 316.56,-279.75"/>
</a>
</g>
</g>
<!-- Node6 -->
<g id="Node000006" class="node">
<title>Node6</title>
<g id="a_Node000006"><a xlink:href="classSpan_1_1AssetRegistry.html#a3cae91f52d3d29c67936e289d1244319" target="_top" xlink:title=" ">
<polygon fill="white" stroke="#666666" points="610.5,-246 496.5,-246 496.5,-216 610.5,-216 610.5,-246"/>
<text text-anchor="start" x="504.5" y="-234" font-family="Helvetica,sans-Serif" font-size="10.00">Span::AssetRegistry</text>
<text text-anchor="middle" x="553.5" y="-223" font-family="Helvetica,sans-Serif" font-size="10.00">::GetPath</text>
</a>
</g>
</g>
<!-- Node4&#45;&gt;Node6 -->
<g id="edge6_Node000004_Node000006" class="edge">
<title>Node4&#45;&gt;Node6</title>
<g id="a_edge6_Node000004_Node000006"><a xlink:title=" ">
<path fill="none" stroke="#63b8ff" d="M268.01,-225.03C279.9,-224.18 292.35,-223.44 304,-223 364.4,-220.73 379.59,-220.85 440,-223 454.95,-223.53 470.99,-224.46 486.14,-225.5"/>
<polygon fill="#63b8ff" stroke="#63b8ff" points="486.24,-229.01 496.46,-226.23 486.74,-222.03 486.24,-229.01"/>
</a>
</g>
</g>
<!-- Node7 -->
<g id="Node000007" class="node">
<title>Node7</title>
<g id="a_Node000007"><a xlink:href="classSpan_1_1AssetManager.html#a8ad360aa2a6d909bfafc96484d426a0f" target="_top" xlink:title="GUIDでテクスチャを取得 (推奨)">
<polygon fill="white" stroke="#666666" points="430,-262 314,-262 314,-232 430,-232 430,-262"/>
<text text-anchor="start" x="322" y="-250" font-family="Helvetica,sans-Serif" font-size="10.00">Span::AssetManager</text>
<text text-anchor="middle" x="372" y="-239" font-family="Helvetica,sans-Serif" font-size="10.00">::GetTexture</text>
</a>
</g>
</g>
<!-- Node4&#45;&gt;Node7 -->
<g id="edge7_Node000004_Node000007" class="edge">
<title>Node4&#45;&gt;Node7</title>
<g id="a_edge7_Node000004_Node000007"><a xlink:title=" ">
<path fill="none" stroke="#63b8ff" d="M268.31,-236.09C279.75,-237.31 291.87,-238.59 303.62,-239.84"/>
<polygon fill="#63b8ff" stroke="#63b8ff" points="303.51,-243.35 313.82,-240.92 304.25,-236.39 303.51,-243.35"/>
</a>
</g>
</g>
<!-- Node7&#45;&gt;Node2 -->
<g id="edge8_Node000007_Node000002" class="edge">
<title>Node7&#45;&gt;Node2</title>
<g id="a_edge8_Node000007_Node000002"><a xlink:title=" ">
<path fill="none" stroke="#63b8ff" d="M418.89,-262.1C426.05,-264.84 433.29,-267.84 440,-271 472.53,-286.34 507.82,-308.3 530.03,-322.85"/>
<polygon fill="#63b8ff" stroke="#63b8ff" points="528.16,-325.81 538.43,-328.4 532.02,-319.97 528.16,-325.81"/>
</a>
</g>
</g>
<!-- Node7&#45;&gt;Node6 -->
<g id="edge9_Node000007_Node000006" class="edge">
<title>Node7&#45;&gt;Node6</title>
<g id="a_edge9_Node000007_Node000006"><a xlink:title=" ">
<path fill="none" stroke="#63b8ff" d="M430.29,-241.89C448.12,-240.3 467.93,-238.54 486.32,-236.9"/>
<polygon fill="#63b8ff" stroke="#63b8ff" points="486.72,-240.38 496.37,-236 486.1,-233.41 486.72,-240.38"/>
</a>
</g>
</g>
<!-- Node9&#45;&gt;Node8 -->
<g id="edge13_Node000009_Node000008" class="edge">
<title>Node9&#45;&gt;Node8</title>
<g id="a_edge13_Node000009_Node000008"><a xlink:title=" ">
<path fill="none" stroke="#63b8ff" d="M408,-98.12C427.8,-106.45 453.11,-116.76 476,-125 481.45,-126.96 487.16,-128.92 492.88,-130.83"/>
<polygon fill="#63b8ff" stroke="#63b8ff" points="491.91,-134.19 502.51,-133.97 494.09,-127.54 491.91,-134.19"/>
</a>
</g>
</g>
<!-- Node10 -->
<g id="Node000010" class="node">
<title>Node10</title>
<g id="a_Node000010"><a xlink:href="classSpan_1_1AssetSerializer.html#a39e6a3bea02531fc2c31683a27d52061" target="_top" xlink:title="拡張子から汗ッとタイプを推論します。">
<polygon fill="white" stroke="#666666" points="631,-116 476,-116 476,-86 631,-86 631,-116"/>
<text text-anchor="start" x="484" y="-104" font-family="Helvetica,sans-Serif" font-size="10.00">Span::AssetSerializer</text>
<text text-anchor="middle" x="553.5" y="-93" font-family="Helvetica,sans-Serif" font-size="10.00">::DeduceTypeFromExtension</text>
</a>
</g>
</g>
<!-- Node9&#45;&gt;Node10 -->
<g id="edge12_Node000009_Node000010" class="edge">
<title>Node9&#45;&gt;Node10</title>
<g id="a_edge12_Node000009_Node000010"><a xlink:title=" ">
<path fill="none" stroke="#63b8ff" d="M440.09,-89.73C448.47,-90.57 457.12,-91.44 465.74,-92.3"/>
<polygon fill="#63b8ff" stroke="#63b8ff" points="465.52,-95.8 475.82,-93.31 466.22,-88.83 465.52,-95.8"/>
</a>
</g>
</g>
<!-- Node11 -->
<g id="Node000011" class="node">
<title>Node11</title>
<g id="a_Node000011"><a xlink:href="namespaceSpan.html#a8ba99036404afdb464fdc44c3dbc7136" target="_top" xlink:title=" ">
<polygon fill="white" stroke="#666666" points="598.5,-67.5 508.5,-67.5 508.5,-48.5 598.5,-48.5 598.5,-67.5"/>
<text text-anchor="middle" x="553.5" y="-55.5" font-family="Helvetica,sans-Serif" font-size="10.00">Span::s_Engine</text>
</a>
</g>
</g>
<!-- Node9&#45;&gt;Node11 -->
<g id="edge14_Node000009_Node000011" class="edge">
<title>Node9&#45;&gt;Node11</title>
<g id="a_edge14_Node000009_Node000011"><a xlink:title=" ">
<path fill="none" stroke="#63b8ff" d="M440.09,-73.66C459.33,-70.98 480.06,-68.09 498.41,-65.53"/>
<polygon fill="#63b8ff" stroke="#63b8ff" points="498.92,-69 508.34,-64.15 497.95,-62.06 498.92,-69"/>
</a>
</g>
</g>
<!-- Node12 -->
<g id="Node000012" class="node">
<title>Node12</title>
<g id="a_Node000012"><a xlink:href="classSpan_1_1AssetSerializer.html#a0eb09ea936ef7cf65184977a5809ef6b" target="_top" xlink:title="メタデータをファイルに保存する。">
<polygon fill="white" stroke="#666666" points="613,-30 494,-30 494,0 613,0 613,-30"/>
<text text-anchor="start" x="502" y="-18" font-family="Helvetica,sans-Serif" font-size="10.00">Span::AssetSerializer</text>
<text text-anchor="middle" x="553.5" y="-7" font-family="Helvetica,sans-Serif" font-size="10.00">::SaveMetadata</text>
</a>
</g>
</g>
<!-- Node9&#45;&gt;Node12 -->
<g id="edge15_Node000009_Node000012" class="edge">
<title>Node9&#45;&gt;Node12</title>
<g id="a_edge15_Node000009_Node000012"><a xlink:title=" ">
<path fill="none" stroke="#63b8ff" d="M406.06,-67.88C426.1,-58.97 452.29,-47.76 476,-39 481.22,-37.07 486.68,-35.16 492.17,-33.3"/>
<polygon fill="#63b8ff" stroke="#63b8ff" points="493.66,-36.5 502.05,-30.04 491.46,-29.85 493.66,-36.5"/>
</a>
</g>
</g>
<!-- Node13&#45;&gt;Node8 -->
<g id="edge17_Node000013_Node000008" class="edge">
<title>Node13&#45;&gt;Node8</title>
<g id="a_edge17_Node000013_Node000008"><a xlink:title=" ">
<path fill="none" stroke="#63b8ff" d="M267.01,-128.1C326.07,-132.42 419.22,-139.24 482.95,-143.91"/>
<polygon fill="#63b8ff" stroke="#63b8ff" points="483.08,-147.43 493.31,-144.67 483.59,-140.45 483.08,-147.43"/>
</a>
</g>
</g>
<!-- Node13&#45;&gt;Node9 -->
<g id="edge18_Node000013_Node000009" class="edge">
<title>Node13&#45;&gt;Node9</title>
<g id="a_edge18_Node000013_Node000009"><a xlink:title=" ">
<path fill="none" stroke="#63b8ff" d="M267.41,-109.54C278.8,-106.63 290.88,-103.53 302.63,-100.52"/>
<polygon fill="#63b8ff" stroke="#63b8ff" points="303.57,-103.89 312.39,-98.02 301.84,-97.11 303.57,-103.89"/>
</a>
</g>
</g>
</g>
</svg>

<g id="navigator" transform="translate(0 0)" fill="#404254">
  <rect fill="#f2f5e9" fill-opacity="0.5" stroke="#606060" stroke-width=".5" x="0" y="0" width="60" height="60"/>
  <use id="zoomplus" xlink:href="#zoomPlus" x="17" y="9" onmousedown="handleZoom(evt,'in')"/>
  <use id="zoomminus" xlink:href="#zoomMin" x="42" y="9" onmousedown="handleZoom(evt,'out')"/>
  <use id="reset" xlink:href="#resetDef" x="30" y="36" onmousedown="handleReset()"/>
   <use id="arrowup" xlink:href="#arrowUp" x="0" y="0" onmousedown="handlePan(0,-1)"/>
  <use id="arrowright" xlink:href="#arrowRight" x="0" y="0" onmousedown="handlePan(1,0)"/>
  <use id="arrowdown" xlink:href="#arrowDown" x="0" y="0" onmousedown="handlePan(0,1)"/>
  <use id="arrowleft" xlink:href="#arrowLeft" x="0" y="0" onmousedown="handlePan(-1,0)"/>
</g>
<svg viewBox="0 0 15 15" width="100%" height="30px" preserveAspectRatio="xMaxYMin meet">
 <g id="arrow_out" transform="scale(0.3 0.3)">
  <a xlink:href="classSpan_1_1AssetManager_a6d21e48b9d53035bbd83c5ae91ec083b_cgraph_org.svg" target="_base">
   <rect id="button" ry="5" rx="5" y="6" x="6" height="38" width="38"
        fill="#f2f5e9" fill-opacity="0.5" stroke="#606060" stroke-width="1.0"/>
   <path id="arrow"
     d="M 11.500037,31.436501 C 11.940474,20.09759 22.043105,11.32322 32.158766,21.979434 L 37.068811,17.246167 C 37.068811,17.246167 37.088388,32 37.088388,32 L 22.160133,31.978069 C 22.160133,31.978069 26.997745,27.140456 26.997745,27.140456 C 18.528582,18.264221 13.291696,25.230495 11.500037,31.436501 z"
     style="fill:#404040;"/>
  </a>
 </g>
</svg>

<style type='text/css'>
<![CDATA[
[data-mouse-over-selected='false'] { opacity: 0.7; }
[data-mouse-over-selected='true']  { opacity: 1.0; }
]]>
</style>
<script type="application/ecmascript"><![CDATA[
document.addEventListener('DOMContentLoaded', (event) => {
  highlightEdges();
  highlightAdjacentNodes();
});
]]></script>
</svg>
