<?xml version="1.0" encoding="UTF-8" standalone="no"?>
<!DOCTYPE svg PUBLIC "-//W3C//DTD SVG 1.1//EN"
 "http://www.w3.org/Graphics/SVG/1.1/DTD/svg11.dtd">
<!-- Generated by graphviz version 2.43.0 (0)
 -->
<!-- Title: Span::Archetype::GetComponentAlignment Pages: 1 -->
<svg width="709pt" height="112pt"
 viewBox="0.00 0.00 709.00 111.50" xmlns="http://www.w3.org/2000/svg" xmlns:xlink="http://www.w3.org/1999/xlink">
<g id="graph0" class="graph" transform="scale(1 1) rotate(0) translate(4 107.5)">
<title>Span::Archetype::GetComponentAlignment</title>
<!-- Node1 -->
<g id="Node000001" class="node">
<title>Node1</title>
<g id="a_Node000001"><a xlink:title="コンポーネントのアライメントを取得します。">
<polygon fill="#999999" stroke="#666666" points="701,-42.5 525,-42.5 525,-12.5 701,-12.5 701,-42.5"/>
<text text-anchor="start" x="533" y="-30.5" font-family="Helvetica,sans-Serif" font-size="10.00">Span::Archetype::GetComponent</text>
<text text-anchor="middle" x="613" y="-19.5" font-family="Helvetica,sans-Serif" font-size="10.00">Alignment</text>
</a>
</g>
</g>
<!-- Node2 -->
<g id="Node000002" class="node">
<title>Node2</title>
<g id="a_Node000002"><a xlink:href="classSpan_1_1World.html#a555e11829d3833ce35f444779c4c2369" target="_top" xlink:title="既存のEntityに新しいコンポーネントを追加します。">
<polygon fill="white" stroke="#666666" points="478,-56 323,-56 323,-37 478,-37 478,-56"/>
<text text-anchor="middle" x="400.5" y="-44" font-family="Helvetica,sans-Serif" font-size="10.00">Span::World::AddComponent</text>
</a>
</g>
</g>
<!-- Node1&#45;&gt;Node2 -->
<g id="edge1_Node000001_Node000002" class="edge">
<title>Node1&#45;&gt;Node2</title>
<g id="a_edge1_Node000001_Node000002"><a xlink:title=" ">
<path fill="none" stroke="#63b8ff" d="M514.63,-36.29C502.39,-37.39 490.01,-38.51 478.15,-39.58"/>
<polygon fill="#63b8ff" stroke="#63b8ff" points="515.22,-39.75 524.86,-35.37 514.59,-32.78 515.22,-39.75"/>
</a>
</g>
</g>
<!-- Node6 -->
<g id="Node000006" class="node">
<title>Node6</title>
<g id="a_Node000006"><a xlink:href="classSpan_1_1World.html#a5d815ca319bd1f2756394cc107818c46" target="_top" xlink:title="エンティティから指定したコンポーネントを削除します。">
<polygon fill="white" stroke="#666666" points="489,-19 312,-19 312,0 489,0 489,-19"/>
<text text-anchor="middle" x="400.5" y="-7" font-family="Helvetica,sans-Serif" font-size="10.00">Span::World::RemoveComponent</text>
</a>
</g>
</g>
<!-- Node1&#45;&gt;Node6 -->
<g id="edge6_Node000001_Node000006" class="edge">
<title>Node1&#45;&gt;Node6</title>
<g id="a_edge6_Node000001_Node000006"><a xlink:title=" ">
<path fill="none" stroke="#63b8ff" d="M514.88,-19.19C506.33,-18.46 497.71,-17.73 489.25,-17"/>
<polygon fill="#63b8ff" stroke="#63b8ff" points="514.6,-22.68 524.86,-20.05 515.2,-15.71 514.6,-22.68"/>
</a>
</g>
</g>
<!-- Node3 -->
<g id="Node000003" class="node">
<title>Node3</title>
<g id="a_Node000003"><a xlink:href="classSpan_1_1HierarchyPanel.html#a2c08f8c6e0cafaed96f7846d76ff2b09" target="_top" xlink:title=" ">
<polygon fill="white" stroke="#666666" points="276,-85.5 156,-85.5 156,-55.5 276,-55.5 276,-85.5"/>
<text text-anchor="start" x="164" y="-73.5" font-family="Helvetica,sans-Serif" font-size="10.00">Span::HierarchyPanel</text>
<text text-anchor="middle" x="216" y="-62.5" font-family="Helvetica,sans-Serif" font-size="10.00">::DrawEntityNode</text>
</a>
</g>
</g>
<!-- Node2&#45;&gt;Node3 -->
<g id="edge2_Node000002_Node000003" class="edge">
<title>Node2&#45;&gt;Node3</title>
<g id="a_edge2_Node000002_Node000003"><a xlink:title=" ">
<path fill="none" stroke="#63b8ff" d="M317.11,-57.33C303.29,-59.15 289.19,-61.01 276.11,-62.73"/>
<polygon fill="#63b8ff" stroke="#63b8ff" points="317.65,-60.79 327.11,-56.02 316.74,-53.85 317.65,-60.79"/>
</a>
</g>
</g>
<!-- Node5 -->
<g id="Node000005" class="node">
<title>Node5</title>
<g id="a_Node000005"><a xlink:href="classSpan_1_1InspectorPanel.html#ae32fda6018a2e54f880e6708ac5b89fe" target="_top" xlink:title=" ">
<polygon fill="white" stroke="#666666" points="275,-37.5 157,-37.5 157,-7.5 275,-7.5 275,-37.5"/>
<text text-anchor="start" x="165" y="-25.5" font-family="Helvetica,sans-Serif" font-size="10.00">Span::InspectorPanel</text>
<text text-anchor="middle" x="216" y="-14.5" font-family="Helvetica,sans-Serif" font-size="10.00">::OnImGuiRender</text>
</a>
</g>
</g>
<!-- Node2&#45;&gt;Node5 -->
<g id="edge5_Node000002_Node000005" class="edge">
<title>Node2&#45;&gt;Node5</title>
<g id="a_edge5_Node000002_Node000005"><a xlink:title=" ">
<path fill="none" stroke="#63b8ff" d="M316.93,-35.64C302.86,-33.79 288.52,-31.91 275.25,-30.16"/>
<polygon fill="#63b8ff" stroke="#63b8ff" points="316.74,-39.15 327.11,-36.98 317.65,-32.21 316.74,-39.15"/>
</a>
</g>
</g>
<!-- Node3&#45;&gt;Node3 -->
<g id="edge3_Node000003_Node000003" class="edge">
<title>Node3&#45;&gt;Node3</title>
<g id="a_edge3_Node000003_Node000003"><a xlink:title=" ">
<path fill="none" stroke="#63b8ff" d="M243.31,-96.1C239.57,-100.47 230.47,-103.5 216,-103.5 191.62,-103.5 182.48,-94.91 188.58,-85.78"/>
<polygon fill="#63b8ff" stroke="#63b8ff" points="246.81,-95.81 243.42,-85.78 239.81,-95.74 246.81,-95.81"/>
</a>
</g>
</g>
<!-- Node4 -->
<g id="Node000004" class="node">
<title>Node4</title>
<g id="a_Node000004"><a xlink:href="classSpan_1_1HierarchyPanel.html#a6481eb57cd9f45cb3a094a26f35bbaa0" target="_top" xlink:title=" ">
<polygon fill="white" stroke="#666666" points="120,-85.5 0,-85.5 0,-55.5 120,-55.5 120,-85.5"/>
<text text-anchor="start" x="8" y="-73.5" font-family="Helvetica,sans-Serif" font-size="10.00">Span::HierarchyPanel</text>
<text text-anchor="middle" x="60" y="-62.5" font-family="Helvetica,sans-Serif" font-size="10.00">::OnImGuiRender</text>
</a>
</g>
</g>
<!-- Node3&#45;&gt;Node4 -->
<g id="edge4_Node000003_Node000004" class="edge">
<title>Node3&#45;&gt;Node4</title>
<g id="a_edge4_Node000003_Node000004"><a xlink:title=" ">
<path fill="none" stroke="#63b8ff" d="M145.63,-70.5C137.14,-70.5 128.52,-70.5 120.2,-70.5"/>
<polygon fill="#63b8ff" stroke="#63b8ff" points="145.9,-74 155.9,-70.5 145.9,-67 145.9,-74"/>
</a>
</g>
</g>
</g>
</svg>
