<?xml version="1.0" encoding="UTF-8" standalone="no"?>
<!DOCTYPE svg PUBLIC "-//W3C//DTD SVG 1.1//EN"
 "http://www.w3.org/Graphics/SVG/1.1/DTD/svg11.dtd">
<!-- Generated by graphviz version 2.43.0 (0)
 -->
<!-- Title: Span::AssetManager::Get Pages: 1 -->
<!--zoomable 962 -->

<svg id="main" version="1.1" xmlns="http://www.w3.org/2000/svg" xmlns:xlink="http://www.w3.org/1999/xlink" xml:space="preserve" onload="init(evt)">

<style type="text/css"><![CDATA[
.node, .edge {opacity: 0.7;}
.node.selected, .edge.selected {opacity: 1;}
.edge:hover path { stroke: red; }
.edge:hover polygon { stroke: red; fill: red; }
]]></style>

<defs>
  <circle id="rim" cx="0" cy="0" r="7"/>
  <circle id="rim2" cx="0" cy="0" r="3.5"/>
  <g id="zoomPlus">
    <use xlink:href="#rim" fill="#404040"><set attributeName="fill" to="#808080" begin="zoomplus.mouseover" end="zoomplus.mouseout"/></use>
    <path d="M-4,0h8M0,-4v8" fill="none" stroke="white" stroke-width="1.5" pointer-events="none"/>
  </g>
  <g id="zoomMin">
    <use xlink:href="#rim" fill="#404040"><set attributeName="fill" to="#808080" begin="zoomminus.mouseover" end="zoomminus.mouseout"/></use>
    <path d="M-4,0h8" fill="none" stroke="white" stroke-width="1.5" pointer-events="none"/>
  </g>
  <g id="arrowUp" transform="translate(30 24)">
    <use xlink:href="#rim"/>
    <path pointer-events="none" fill="none" stroke="white" stroke-width="1.5" d="M0,-3.0v7 M-2.5,-0.5L0,-3.0L2.5,-0.5"/>
  </g>
  <g id="arrowRight" transform="rotate(90) translate(36 -43)">
    <use xlink:href="#rim"/>
    <path pointer-events="none" fill="none" stroke="white" stroke-width="1.5" d="M0,-3.0v7 M-2.5,-0.5L0,-3.0L2.5,-0.5"/>
  </g>
  <g id="arrowDown" transform="rotate(180) translate(-30 -48)">
    <use xlink:href="#rim"/>
    <path pointer-events="none" fill="none" stroke="white" stroke-width="1.5" d="M0,-3.0v7 M-2.5,-0.5L0,-3.0L2.5,-0.5"/>
  </g>
  <g id="arrowLeft" transform="rotate(270) translate(-36 17)">
    <use xlink:href="#rim"/>
    <path pointer-events="none" fill="none" stroke="white" stroke-width="1.5" d="M0,-3.0v7 M-2.5,-0.5L0,-3.0L2.5,-0.5"/>
  </g>
  <g id="resetDef">
    <use xlink:href="#rim2" fill="#404040"><set attributeName="fill" to="#808080" begin="reset.mouseover" end="reset.mouseout"/></use>
  </g>
</defs>
<script type="application/ecmascript">
var viewWidth = 1102;
var viewHeight = 962;
var sectionId = 'dynsection-3';
</script>
<script type="application/ecmascript" xlink:href="svg.min.js"/>
<svg id="graph" class="graph">
<g id="viewport">
<title>Span::AssetManager::Get</title>
<!-- Node1 -->
<g id="Node000001" class="node">
<title>Node1</title>
<g id="a_Node000001"><a xlink:title="シングルトンインスタンスを取得します。">
<polygon fill="#999999" stroke="#666666" points="1094,-184.5 954,-184.5 954,-165.5 1094,-165.5 1094,-184.5"/>
<text text-anchor="middle" x="1024" y="-172.5" font-family="Helvetica,sans-Serif" font-size="10.00">Span::AssetManager::Get</text>
</a>
</g>
</g>
<!-- Node2 -->
<g id="Node000002" class="node">
<title>Node2</title>
<g id="a_Node000002"><a xlink:href="classSpan_1_1Application.html#a0c44e973ca5db1d23a02a2cee66f5c11" target="_top" xlink:title=" ">
<polygon fill="white" stroke="#666666" points="883,-238 776,-238 776,-208 883,-208 883,-238"/>
<text text-anchor="start" x="784" y="-226" font-family="Helvetica,sans-Serif" font-size="10.00">Span::Application::</text>
<text text-anchor="middle" x="829.5" y="-215" font-family="Helvetica,sans-Serif" font-size="10.00">Application</text>
</a>
</g>
</g>
<!-- Node1&#45;&gt;Node2 -->
<g id="edge1_Node000001_Node000002" class="edge">
<title>Node1&#45;&gt;Node2</title>
<g id="a_edge1_Node000001_Node000002"><a xlink:title=" ">
<path fill="none" stroke="#63b8ff" d="M974.59,-187.07C946.73,-194.02 911.69,-202.75 883.14,-209.87"/>
<polygon fill="#63b8ff" stroke="#63b8ff" points="975.65,-190.41 984.51,-184.6 973.96,-183.62 975.65,-190.41"/>
</a>
</g>
</g>
<!-- Node10 -->
<g id="Node000010" class="node">
<title>Node10</title>
<g id="a_Node000010"><a xlink:href="classSpan_1_1InspectorPanel.html#acbecd010da050d28a48148287775259a" target="_top" xlink:title="マテリアルアセット用のプロパティエディタを描画します。">
<polygon fill="white" stroke="#666666" points="506.5,-930 388.5,-930 388.5,-900 506.5,-900 506.5,-930"/>
<text text-anchor="start" x="396.5" y="-918" font-family="Helvetica,sans-Serif" font-size="10.00">Span::InspectorPanel</text>
<text text-anchor="middle" x="447.5" y="-907" font-family="Helvetica,sans-Serif" font-size="10.00">::DrawMaterialEditor</text>
</a>
</g>
</g>
<!-- Node1&#45;&gt;Node10 -->
<g id="edge39_Node000001_Node000010" class="edge">
<title>Node1&#45;&gt;Node10</title>
<g id="a_edge39_Node000001_Node000010"><a xlink:title=" ">
<path fill="none" stroke="#63b8ff" d="M1014.16,-193.79C971.78,-282.15 780.72,-661.18 523,-879 513.02,-887.44 500.72,-894.43 489.01,-899.93"/>
<polygon fill="#63b8ff" stroke="#63b8ff" points="1017.36,-195.22 1018.49,-184.69 1011.04,-192.21 1017.36,-195.22"/>
</a>
</g>
</g>
<!-- Node11 -->
<g id="Node000011" class="node">
<title>Node11</title>
<g id="a_Node000011"><a xlink:href="classSpan_1_1InspectorPanel.html#aa24fb5f7f8d1de98906fe4b644cb4a86" target="_top" xlink:title="アセット用のインスペクターを描画します。">
<polygon fill="white" stroke="#666666" points="309,-930 189,-930 189,-900 309,-900 309,-930"/>
<text text-anchor="start" x="197" y="-918" font-family="Helvetica,sans-Serif" font-size="10.00">Span::InspectorPanel</text>
<text text-anchor="middle" x="249" y="-907" font-family="Helvetica,sans-Serif" font-size="10.00">::DrawAssetInspector</text>
</a>
</g>
</g>
<!-- Node1&#45;&gt;Node11 -->
<g id="edge35_Node000001_Node000011" class="edge">
<title>Node1&#45;&gt;Node11</title>
<g id="a_edge35_Node000001_Node000011"><a xlink:title=" ">
<path fill="none" stroke="#63b8ff" d="M1019.8,-194.67C1010.36,-249.26 979.36,-406.21 918,-522 847.57,-654.91 810.21,-677.5 705,-785 630.88,-860.73 622.5,-902.55 523,-939 445.93,-967.23 348.77,-946.52 293.59,-930"/>
<polygon fill="#63b8ff" stroke="#63b8ff" points="1023.28,-195.07 1021.49,-184.63 1016.38,-193.91 1023.28,-195.07"/>
</a>
</g>
</g>
<!-- Node16 -->
<g id="Node000016" class="node">
<title>Node16</title>
<g id="a_Node000016"><a xlink:href="classSpan_1_1SceneViewPanel.html#afebf890816b85f92e9ed73de887b2354" target="_top" xlink:title="外部またはブラウザからドロップされたファイルを処理します。">
<polygon fill="white" stroke="#666666" points="510.5,-243 384.5,-243 384.5,-213 510.5,-213 510.5,-243"/>
<text text-anchor="start" x="392.5" y="-231" font-family="Helvetica,sans-Serif" font-size="10.00">Span::SceneViewPanel</text>
<text text-anchor="middle" x="447.5" y="-220" font-family="Helvetica,sans-Serif" font-size="10.00">::OnAssetDropped</text>
</a>
</g>
</g>
<!-- Node1&#45;&gt;Node16 -->
<g id="edge47_Node000001_Node000016" class="edge">
<title>Node1&#45;&gt;Node16</title>
<g id="a_edge47_Node000001_Node000016"><a xlink:title=" ">
<path fill="none" stroke="#63b8ff" d="M1005.97,-191.61C986.54,-209.29 952.91,-236.18 918,-247 776.57,-290.83 599.69,-262.96 508.71,-243.03"/>
<polygon fill="#63b8ff" stroke="#63b8ff" points="1008.47,-194.06 1013.39,-184.67 1003.69,-188.95 1008.47,-194.06"/>
</a>
</g>
</g>
<!-- Node25 -->
<g id="Node000025" class="node">
<title>Node25</title>
<g id="a_Node000025"><a xlink:href="classSpan_1_1ProjectBrowserPanel.html#a61f13161ddf1dcca1a2a1a5a8a865ccc" target="_top" xlink:title="個別のアセットアイテムを描画します。">
<polygon fill="white" stroke="#666666" points="902.5,-190 756.5,-190 756.5,-160 902.5,-160 902.5,-190"/>
<text text-anchor="start" x="764.5" y="-178" font-family="Helvetica,sans-Serif" font-size="10.00">Span::ProjectBrowserPanel</text>
<text text-anchor="middle" x="829.5" y="-167" font-family="Helvetica,sans-Serif" font-size="10.00">::DrawEntryItem</text>
</a>
</g>
</g>
<!-- Node1&#45;&gt;Node25 -->
<g id="edge36_Node000001_Node000025" class="edge">
<title>Node1&#45;&gt;Node25</title>
<g id="a_edge36_Node000001_Node000025"><a xlink:title=" ">
<path fill="none" stroke="#63b8ff" d="M943.53,-175C930,-175 916.01,-175 902.68,-175"/>
<polygon fill="#63b8ff" stroke="#63b8ff" points="943.78,-178.5 953.78,-175 943.78,-171.5 943.78,-178.5"/>
</a>
</g>
</g>
<!-- Node28 -->
<g id="Node000028" class="node">
<title>Node28</title>
<g id="a_Node000028"><a xlink:href="classSpan_1_1ImGuiUI.html#a34b9192587c923b4380f4cbc72155b75" target="_top" xlink:title=" ">
<polygon fill="white" stroke="#666666" points="918,-141.5 741,-141.5 741,-122.5 918,-122.5 918,-141.5"/>
<text text-anchor="middle" x="829.5" y="-129.5" font-family="Helvetica,sans-Serif" font-size="10.00">Span::ImGuiUI::DrawMaterialSlot</text>
</a>
</g>
</g>
<!-- Node1&#45;&gt;Node28 -->
<g id="edge40_Node000001_Node000028" class="edge">
<title>Node1&#45;&gt;Node28</title>
<g id="a_edge40_Node000001_Node000028"><a xlink:title=" ">
<path fill="none" stroke="#63b8ff" d="M972.05,-163.24C954.89,-159.31 935.62,-154.93 918,-151 904.04,-147.89 888.81,-144.56 875.03,-141.57"/>
<polygon fill="#63b8ff" stroke="#63b8ff" points="971.35,-166.67 981.88,-165.49 972.92,-159.85 971.35,-166.67"/>
</a>
</g>
</g>
<!-- Node31 -->
<g id="Node000031" class="node">
<title>Node31</title>
<g id="a_Node000031"><a xlink:href="classSpan_1_1ImGuiUI.html#aa8095db73105fc0e8d6936701f333bf0" target="_top" xlink:title=" ">
<polygon fill="white" stroke="#666666" points="911,-104.5 748,-104.5 748,-85.5 911,-85.5 911,-104.5"/>
<text text-anchor="middle" x="829.5" y="-92.5" font-family="Helvetica,sans-Serif" font-size="10.00">Span::ImGuiUI::DrawMeshSlot</text>
</a>
</g>
</g>
<!-- Node1&#45;&gt;Node31 -->
<g id="edge43_Node000001_Node000031" class="edge">
<title>Node1&#45;&gt;Node31</title>
<g id="a_edge43_Node000001_Node000031"><a xlink:title=" ">
<path fill="none" stroke="#63b8ff" d="M1001.46,-159.77C980.91,-145.93 948.65,-125.89 918,-114 908.14,-110.18 897.35,-107.04 886.81,-104.51"/>
<polygon fill="#63b8ff" stroke="#63b8ff" points="999.54,-162.7 1009.77,-165.47 1003.5,-156.93 999.54,-162.7"/>
</a>
</g>
</g>
<!-- Node32 -->
<g id="Node000032" class="node">
<title>Node32</title>
<g id="a_Node000032"><a xlink:href="classSpan_1_1ImGuiUI.html#a051be17f46f22409017503a9b0562d76" target="_top" xlink:title=" ">
<polygon fill="white" stroke="#666666" points="916,-67.5 743,-67.5 743,-48.5 916,-48.5 916,-67.5"/>
<text text-anchor="middle" x="829.5" y="-55.5" font-family="Helvetica,sans-Serif" font-size="10.00">Span::ImGuiUI::DrawTextureSlot</text>
</a>
</g>
</g>
<!-- Node1&#45;&gt;Node32 -->
<g id="edge45_Node000001_Node000032" class="edge">
<title>Node1&#45;&gt;Node32</title>
<g id="a_edge45_Node000001_Node000032"><a xlink:title=" ">
<path fill="none" stroke="#63b8ff" d="M1009.46,-157.19C991.25,-134.58 956.66,-96.1 918,-76 911.39,-72.57 904.19,-69.79 896.84,-67.54"/>
<polygon fill="#63b8ff" stroke="#63b8ff" points="1006.89,-159.58 1015.82,-165.28 1012.39,-155.25 1006.89,-159.58"/>
</a>
</g>
</g>
<!-- Node33 -->
<g id="Node000033" class="node">
<title>Node33</title>
<g id="a_Node000033"><a xlink:href="structSpan_1_1Internal_1_1JsonDeserializeVisitor.html#a9ec1cdf5e6d1a1d8bdc2d4138cbd5bc7" target="_top" xlink:title=" ">
<polygon fill="white" stroke="#666666" points="912,-30 747,-30 747,0 912,0 912,-30"/>
<text text-anchor="start" x="755" y="-18" font-family="Helvetica,sans-Serif" font-size="10.00">Span::Internal::JsonDeserialize</text>
<text text-anchor="middle" x="829.5" y="-7" font-family="Helvetica,sans-Serif" font-size="10.00">Visitor::Visit</text>
</a>
</g>
</g>
<!-- Node1&#45;&gt;Node33 -->
<g id="edge48_Node000001_Node000033" class="edge">
<title>Node1&#45;&gt;Node33</title>
<g id="a_edge48_Node000001_Node000033"><a xlink:title=" ">
<path fill="none" stroke="#63b8ff" d="M1013.64,-156.16C997.99,-126.62 963.66,-69.61 918,-39 912.9,-35.58 907.32,-32.64 901.53,-30.13"/>
<polygon fill="#63b8ff" stroke="#63b8ff" points="1010.7,-158.09 1018.39,-165.38 1016.92,-154.89 1010.7,-158.09"/>
</a>
</g>
</g>
<!-- Node3 -->
<g id="Node000003" class="node">
<title>Node3</title>
<g id="a_Node000003"><a xlink:href="classSpan_1_1Application.html#ae2e9eaebe90ffdf55cfef9d74ccbce3e" target="_top" xlink:title="シングルトンインスタンスの取得">
<polygon fill="white" stroke="#666666" points="694.5,-579.5 569.5,-579.5 569.5,-560.5 694.5,-560.5 694.5,-579.5"/>
<text text-anchor="middle" x="632" y="-567.5" font-family="Helvetica,sans-Serif" font-size="10.00">Span::Application::Get</text>
</a>
</g>
</g>
<!-- Node2&#45;&gt;Node3 -->
<g id="edge2_Node000002_Node000003" class="edge">
<title>Node2&#45;&gt;Node3</title>
<g id="a_edge2_Node000002_Node000003"><a xlink:title=" ">
<path fill="none" stroke="#63b8ff" d="M814.81,-247.29C775.62,-316.86 664.12,-514.76 638.36,-560.49"/>
<polygon fill="#63b8ff" stroke="#63b8ff" points="817.99,-248.79 819.85,-238.36 811.89,-245.35 817.99,-248.79"/>
</a>
</g>
</g>
<!-- Node23 -->
<g id="Node000023" class="node">
<title>Node23</title>
<g id="a_Node000023"><a xlink:href="classSpan_1_1Application.html#a095598d0c2e753bfb8d00acee435980f" target="_top" xlink:title="シングルトンインスタンスのポインタ取得 (存在チェック用)">
<polygon fill="white" stroke="#666666" points="692.5,-232.5 571.5,-232.5 571.5,-213.5 692.5,-213.5 692.5,-232.5"/>
<text text-anchor="middle" x="632" y="-220.5" font-family="Helvetica,sans-Serif" font-size="10.00">Span::Application::Ptr</text>
</a>
</g>
</g>
<!-- Node2&#45;&gt;Node23 -->
<g id="edge32_Node000002_Node000023" class="edge">
<title>Node2&#45;&gt;Node23</title>
<g id="a_edge32_Node000002_Node000023"><a xlink:title=" ">
<path fill="none" stroke="#63b8ff" d="M765.68,-223C742.26,-223 715.77,-223 692.65,-223"/>
<polygon fill="#63b8ff" stroke="#63b8ff" points="765.85,-226.5 775.85,-223 765.85,-219.5 765.85,-226.5"/>
</a>
</g>
</g>
<!-- Node4 -->
<g id="Node000004" class="node">
<title>Node4</title>
<g id="a_Node000004"><a xlink:href="classSpan_1_1HierarchyPanel.html#a331d846c46df5f3346cfc7bb8c7a8e76" target="_top" xlink:title="エンティティ上での右クリックメニューを描画します。">
<polygon fill="white" stroke="#666666" points="507.5,-521 387.5,-521 387.5,-491 507.5,-491 507.5,-521"/>
<text text-anchor="start" x="395.5" y="-509" font-family="Helvetica,sans-Serif" font-size="10.00">Span::HierarchyPanel</text>
<text text-anchor="middle" x="447.5" y="-498" font-family="Helvetica,sans-Serif" font-size="10.00">::DrawContextMenu</text>
</a>
</g>
</g>
<!-- Node3&#45;&gt;Node4 -->
<g id="edge3_Node000003_Node000004" class="edge">
<title>Node3&#45;&gt;Node4</title>
<g id="a_edge3_Node000003_Node000004"><a xlink:title=" ">
<path fill="none" stroke="#63b8ff" d="M594.09,-557.06C564.35,-546.63 522.49,-531.95 491.29,-521"/>
<polygon fill="#63b8ff" stroke="#63b8ff" points="593.08,-560.41 603.68,-560.42 595.4,-553.81 593.08,-560.41"/>
</a>
</g>
</g>
<!-- Node5 -->
<g id="Node000005" class="node">
<title>Node5</title>
<g id="a_Node000005"><a xlink:href="classSpan_1_1HierarchyPanel.html#a2c08f8c6e0cafaed96f7846d76ff2b09" target="_top" xlink:title="1つのエンティティとその子孫を再帰的に描画します。">
<polygon fill="white" stroke="#666666" points="309,-586 189,-586 189,-556 309,-556 309,-586"/>
<text text-anchor="start" x="197" y="-574" font-family="Helvetica,sans-Serif" font-size="10.00">Span::HierarchyPanel</text>
<text text-anchor="middle" x="249" y="-563" font-family="Helvetica,sans-Serif" font-size="10.00">::DrawEntityNode</text>
</a>
</g>
</g>
<!-- Node3&#45;&gt;Node5 -->
<g id="edge9_Node000003_Node000005" class="edge">
<title>Node3&#45;&gt;Node5</title>
<g id="a_edge9_Node000003_Node000005"><a xlink:title=" ">
<path fill="none" stroke="#63b8ff" d="M559.26,-568.49C547.16,-568.28 534.72,-568.11 523,-568 455.89,-567.38 439.11,-567.18 372,-568 351.56,-568.25 329.19,-568.74 309.25,-569.25"/>
<polygon fill="#63b8ff" stroke="#63b8ff" points="559.26,-571.99 569.32,-568.66 559.38,-564.99 559.26,-571.99"/>
</a>
</g>
</g>
<!-- Node6 -->
<g id="Node000006" class="node">
<title>Node6</title>
<g id="a_Node000006"><a xlink:href="classSpan_1_1HierarchyPanel.html#a6481eb57cd9f45cb3a094a26f35bbaa0" target="_top" xlink:title="毎フレーム呼ばれる描画関数。">
<polygon fill="white" stroke="#666666" points="123,-698 3,-698 3,-668 123,-668 123,-698"/>
<text text-anchor="start" x="11" y="-686" font-family="Helvetica,sans-Serif" font-size="10.00">Span::HierarchyPanel</text>
<text text-anchor="middle" x="63" y="-675" font-family="Helvetica,sans-Serif" font-size="10.00">::OnImGuiRender</text>
</a>
</g>
</g>
<!-- Node3&#45;&gt;Node6 -->
<g id="edge21_Node000003_Node000006" class="edge">
<title>Node3&#45;&gt;Node6</title>
<g id="a_edge21_Node000003_Node000006"><a xlink:title=" ">
<path fill="none" stroke="#63b8ff" d="M617.2,-587.87C598.6,-610.37 563.17,-648.01 523,-664 452.05,-692.24 230.4,-688.86 123.22,-685.37"/>
<polygon fill="#63b8ff" stroke="#63b8ff" points="620.15,-589.78 623.68,-579.79 614.69,-585.4 620.15,-589.78"/>
</a>
</g>
</g>
<!-- Node7 -->
<g id="Node000007" class="node">
<title>Node7</title>
<g id="a_Node000007"><a xlink:href="classSpan_1_1HierarchyPanel.html#a04888145be2266ef8385e234b79ec53a" target="_top" xlink:title="何もない場所での右クリックメニュー (新規作成など) を描画します。">
<polygon fill="white" stroke="#666666" points="336,-741 162,-741 162,-711 336,-711 336,-741"/>
<text text-anchor="start" x="170" y="-729" font-family="Helvetica,sans-Serif" font-size="10.00">Span::HierarchyPanel</text>
<text text-anchor="middle" x="249" y="-718" font-family="Helvetica,sans-Serif" font-size="10.00">::DrawEmptySpaceContextMenu</text>
</a>
</g>
</g>
<!-- Node3&#45;&gt;Node7 -->
<g id="edge7_Node000003_Node000007" class="edge">
<title>Node3&#45;&gt;Node7</title>
<g id="a_edge7_Node000003_Node000007"><a xlink:title=" ">
<path fill="none" stroke="#63b8ff" d="M621.19,-588.88C605.04,-617.77 569.93,-672.21 523,-697 465.79,-727.22 392.49,-733.54 336.25,-732.82"/>
<polygon fill="#63b8ff" stroke="#63b8ff" points="624.41,-590.27 626.1,-579.81 618.26,-586.94 624.41,-590.27"/>
</a>
</g>
</g>
<!-- Node8 -->
<g id="Node000008" class="node">
<title>Node8</title>
<g id="a_Node000008"><a xlink:href="classSpan_1_1SceneViewPanel.html#ad83a4a55f083c75371d0873322808796" target="_top" xlink:title="選択中のオブジェクトに対してマニピュレータ (矢印など) を描画します。">
<polygon fill="white" stroke="#666666" points="510.5,-425 384.5,-425 384.5,-395 510.5,-395 510.5,-425"/>
<text text-anchor="start" x="392.5" y="-413" font-family="Helvetica,sans-Serif" font-size="10.00">Span::SceneViewPanel</text>
<text text-anchor="middle" x="447.5" y="-402" font-family="Helvetica,sans-Serif" font-size="10.00">::DrawGizmo</text>
</a>
</g>
</g>
<!-- Node3&#45;&gt;Node8 -->
<g id="edge10_Node000003_Node000008" class="edge">
<title>Node3&#45;&gt;Node8</title>
<g id="a_edge10_Node000003_Node000008"><a xlink:title=" ">
<path fill="none" stroke="#63b8ff" d="M621.05,-551.36C604.52,-522.13 568.65,-465.61 523,-434 518.08,-430.6 512.66,-427.65 507.04,-425.11"/>
<polygon fill="#63b8ff" stroke="#63b8ff" points="618,-553.08 625.9,-560.15 624.13,-549.7 618,-553.08"/>
</a>
</g>
</g>
<!-- Node9 -->
<g id="Node000009" class="node">
<title>Node9</title>
<g id="a_Node000009"><a xlink:href="classSpan_1_1SceneViewPanel.html#aab2935de58bd68267a680cabd3656c9f" target="_top" xlink:title="毎フレームの描画処理。 画像の表示、ツールバーのオーバーレイ、ギズモの描画を行います。">
<polygon fill="white" stroke="#666666" points="312,-382 186,-382 186,-352 312,-352 312,-382"/>
<text text-anchor="start" x="194" y="-370" font-family="Helvetica,sans-Serif" font-size="10.00">Span::SceneViewPanel</text>
<text text-anchor="middle" x="249" y="-359" font-family="Helvetica,sans-Serif" font-size="10.00">::OnImGuiRender</text>
</a>
</g>
</g>
<!-- Node3&#45;&gt;Node9 -->
<g id="edge23_Node000003_Node000009" class="edge">
<title>Node3&#45;&gt;Node9</title>
<g id="a_edge23_Node000003_Node000009"><a xlink:title=" ">
<path fill="none" stroke="#63b8ff" d="M626.02,-550.23C614.98,-511.06 584.46,-424.08 523,-386 459.49,-346.65 371,-348.47 312.18,-355.73"/>
<polygon fill="#63b8ff" stroke="#63b8ff" points="622.7,-551.39 628.67,-560.14 629.46,-549.57 622.7,-551.39"/>
</a>
</g>
</g>
<!-- Node3&#45;&gt;Node10 -->
<g id="edge12_Node000003_Node000010" class="edge">
<title>Node3&#45;&gt;Node10</title>
<g id="a_edge12_Node000003_Node000010"><a xlink:title=" ">
<path fill="none" stroke="#63b8ff" d="M621.74,-588.59C606.88,-619 577.5,-681.57 559,-737 537.44,-801.62 567.84,-834.71 523,-886 518.07,-891.64 511.9,-896.2 505.24,-899.87"/>
<polygon fill="#63b8ff" stroke="#63b8ff" points="624.91,-590.08 626.19,-579.56 618.63,-586.99 624.91,-590.08"/>
</a>
</g>
</g>
<!-- Node12 -->
<g id="Node000012" class="node">
<title>Node12</title>
<g id="a_Node000012"><a xlink:href="classSpan_1_1InspectorPanel.html#ae32fda6018a2e54f880e6708ac5b89fe" target="_top" xlink:title="毎フレーム呼ばれる描画関数。">
<polygon fill="white" stroke="#666666" points="122,-908 4,-908 4,-878 122,-878 122,-908"/>
<text text-anchor="start" x="12" y="-896" font-family="Helvetica,sans-Serif" font-size="10.00">Span::InspectorPanel</text>
<text text-anchor="middle" x="63" y="-885" font-family="Helvetica,sans-Serif" font-size="10.00">::OnImGuiRender</text>
</a>
</g>
</g>
<!-- Node3&#45;&gt;Node12 -->
<g id="edge22_Node000003_Node000012" class="edge">
<title>Node3&#45;&gt;Node12</title>
<g id="a_edge22_Node000003_Node000012"><a xlink:title=" ">
<path fill="none" stroke="#63b8ff" d="M622.15,-588.73C607.86,-619.34 579.26,-682.19 559,-737 540.29,-787.63 565.03,-819.12 523,-853 492.44,-877.63 238.99,-888 122.35,-891.5"/>
<polygon fill="#63b8ff" stroke="#63b8ff" points="625.33,-590.18 626.41,-579.64 619,-587.21 625.33,-590.18"/>
</a>
</g>
</g>
<!-- Node13 -->
<g id="Node000013" class="node">
<title>Node13</title>
<g id="a_Node000013"><a xlink:href="classSpan_1_1GuiManager.html#a66e894c749b02f869c0851b41fd23fec" target="_top" xlink:title="ImGuiの描画コマンドを発行し、フレームを終了します。">
<polygon fill="white" stroke="#666666" points="329.5,-806.5 168.5,-806.5 168.5,-787.5 329.5,-787.5 329.5,-806.5"/>
<text text-anchor="middle" x="249" y="-794.5" font-family="Helvetica,sans-Serif" font-size="10.00">Span::GuiManager::EndFrame</text>
</a>
</g>
</g>
<!-- Node3&#45;&gt;Node13 -->
<g id="edge15_Node000003_Node000013" class="edge">
<title>Node3&#45;&gt;Node13</title>
<g id="a_edge15_Node000003_Node000013"><a xlink:title=" ">
<path fill="none" stroke="#63b8ff" d="M623.37,-589.15C609,-622.71 574.63,-691.96 523,-728 488.43,-752.13 376.49,-775.07 307.15,-787.47"/>
<polygon fill="#63b8ff" stroke="#63b8ff" points="626.74,-590.18 627.33,-579.6 620.27,-587.5 626.74,-590.18"/>
</a>
</g>
</g>
<!-- Node15 -->
<g id="Node000015" class="node">
<title>Node15</title>
<g id="a_Node000015"><a xlink:href="classSpan_1_1HierarchyPanel.html#af958ff25d0ba0576ae4848bbd01b2031" target="_top" xlink:title="ドラッグ&amp;ドロップの受け入れ処理 (親子付け替え・並び替え)。">
<polygon fill="white" stroke="#666666" points="507.5,-607 387.5,-607 387.5,-577 507.5,-577 507.5,-607"/>
<text text-anchor="start" x="395.5" y="-595" font-family="Helvetica,sans-Serif" font-size="10.00">Span::HierarchyPanel</text>
<text text-anchor="middle" x="447.5" y="-584" font-family="Helvetica,sans-Serif" font-size="10.00">::HandleDragDrop</text>
</a>
</g>
</g>
<!-- Node3&#45;&gt;Node15 -->
<g id="edge17_Node000003_Node000015" class="edge">
<title>Node3&#45;&gt;Node15</title>
<g id="a_edge17_Node000003_Node000015"><a xlink:title=" ">
<path fill="none" stroke="#63b8ff" d="M559.49,-578.62C542.31,-580.69 524.15,-582.88 507.6,-584.88"/>
<polygon fill="#63b8ff" stroke="#63b8ff" points="559.96,-582.09 569.47,-577.42 559.12,-575.14 559.96,-582.09"/>
</a>
</g>
</g>
<!-- Node3&#45;&gt;Node16 -->
<g id="edge19_Node000003_Node000016" class="edge">
<title>Node3&#45;&gt;Node16</title>
<g id="a_edge19_Node000003_Node000016"><a xlink:title=" ">
<path fill="none" stroke="#63b8ff" d="M630.18,-550.15C626.82,-494.83 609.7,-337.35 523,-252 519.32,-248.38 515.09,-245.3 510.56,-242.69"/>
<polygon fill="#63b8ff" stroke="#63b8ff" points="626.7,-550.54 630.71,-560.35 633.69,-550.18 626.7,-550.54"/>
</a>
</g>
</g>
<!-- Node17 -->
<g id="Node000017" class="node">
<title>Node17</title>
<g id="a_Node000017"><a xlink:href="classSpan_1_1CameraSystem.html#a7f4bf0245dedd7a6245ef352246f7391" target="_top" xlink:title="毎フレーム呼び出されます。ここにゲームロジックを記述します。">
<polygon fill="white" stroke="#666666" points="508.5,-655 386.5,-655 386.5,-625 508.5,-625 508.5,-655"/>
<text text-anchor="start" x="394.5" y="-643" font-family="Helvetica,sans-Serif" font-size="10.00">Span::CameraSystem</text>
<text text-anchor="middle" x="447.5" y="-632" font-family="Helvetica,sans-Serif" font-size="10.00">::OnUpdate</text>
</a>
</g>
</g>
<!-- Node3&#45;&gt;Node17 -->
<g id="edge24_Node000003_Node000017" class="edge">
<title>Node3&#45;&gt;Node17</title>
<g id="a_edge24_Node000003_Node000017"><a xlink:title=" ">
<path fill="none" stroke="#63b8ff" d="M600.86,-583.71C579.36,-593.27 549.66,-606.05 523,-616 514.85,-619.04 506.12,-622.06 497.61,-624.88"/>
<polygon fill="#63b8ff" stroke="#63b8ff" points="602.42,-586.84 610.12,-579.56 599.56,-580.46 602.42,-586.84"/>
</a>
</g>
</g>
<!-- Node18 -->
<g id="Node000018" class="node">
<title>Node18</title>
<g id="a_Node000018"><a xlink:href="classSpan_1_1EditorCameraSystem.html#ae933964fa5d0f299954c926cf63e091a" target="_top" xlink:title="毎フレーム呼び出されます。ここにゲームロジックを記述します。">
<polygon fill="white" stroke="#666666" points="522.5,-473 372.5,-473 372.5,-443 522.5,-443 522.5,-473"/>
<text text-anchor="start" x="380.5" y="-461" font-family="Helvetica,sans-Serif" font-size="10.00">Span::EditorCameraSystem</text>
<text text-anchor="middle" x="447.5" y="-450" font-family="Helvetica,sans-Serif" font-size="10.00">::OnUpdate</text>
</a>
</g>
</g>
<!-- Node3&#45;&gt;Node18 -->
<g id="edge25_Node000003_Node000018" class="edge">
<title>Node3&#45;&gt;Node18</title>
<g id="a_edge25_Node000003_Node000018"><a xlink:title=" ">
<path fill="none" stroke="#63b8ff" d="M614.68,-553.35C594.69,-533.8 559.02,-501.57 523,-482 516.79,-478.63 510.03,-475.63 503.2,-473.01"/>
<polygon fill="#63b8ff" stroke="#63b8ff" points="612.22,-555.84 621.78,-560.41 617.15,-550.87 612.22,-555.84"/>
</a>
</g>
</g>
<!-- Node19 -->
<g id="Node000019" class="node">
<title>Node19</title>
<g id="a_Node000019"><a xlink:href="classSpan_1_1RenderingSystem.html#aa0113a8f2b55129115c4da2c6ba449c4" target="_top" xlink:title="毎フレーム呼び出されます。ここにゲームロジックを記述します。">
<polygon fill="white" stroke="#666666" points="514,-339 381,-339 381,-309 514,-309 514,-339"/>
<text text-anchor="start" x="389" y="-327" font-family="Helvetica,sans-Serif" font-size="10.00">Span::RenderingSystem</text>
<text text-anchor="middle" x="447.5" y="-316" font-family="Helvetica,sans-Serif" font-size="10.00">::OnUpdate</text>
</a>
</g>
</g>
<!-- Node3&#45;&gt;Node19 -->
<g id="edge26_Node000003_Node000019" class="edge">
<title>Node3&#45;&gt;Node19</title>
<g id="a_edge26_Node000003_Node000019"><a xlink:title=" ">
<path fill="none" stroke="#63b8ff" d="M626.4,-550.46C615.57,-508.55 584.61,-409.27 523,-353 516.85,-347.38 509.49,-342.81 501.83,-339.09"/>
<polygon fill="#63b8ff" stroke="#63b8ff" points="623.02,-551.39 628.83,-560.25 629.82,-549.7 623.02,-551.39"/>
</a>
</g>
</g>
<!-- Node20 -->
<g id="Node000020" class="node">
<title>Node20</title>
<g id="a_Node000020"><a xlink:href="classSpan_1_1FileDialog.html#aad45925d2e59cc65f1025f18104770e8" target="_top" xlink:title="ファイルを開くダイアログを表示します。">
<polygon fill="white" stroke="#666666" points="519.5,-843.5 375.5,-843.5 375.5,-824.5 519.5,-824.5 519.5,-843.5"/>
<text text-anchor="middle" x="447.5" y="-831.5" font-family="Helvetica,sans-Serif" font-size="10.00">Span::FileDialog::OpenFile</text>
</a>
</g>
</g>
<!-- Node3&#45;&gt;Node20 -->
<g id="edge27_Node000003_Node000020" class="edge">
<title>Node3&#45;&gt;Node20</title>
<g id="a_edge27_Node000003_Node000020"><a xlink:title=" ">
<path fill="none" stroke="#63b8ff" d="M622.84,-588.89C598.08,-646.16 525.37,-814.01 523,-816 518.92,-819.42 514.29,-822.21 509.4,-824.48"/>
<polygon fill="#63b8ff" stroke="#63b8ff" points="626.12,-590.12 626.87,-579.55 619.69,-587.34 626.12,-590.12"/>
</a>
</g>
</g>
<!-- Node21 -->
<g id="Node000021" class="node">
<title>Node21</title>
<g id="a_Node000021"><a xlink:href="classSpan_1_1MaterialPreviewer.html#a7af64e04a1aae97d04d3a2bbe15f50a8" target="_top" xlink:title="オフスクリーンターゲットに球体を描画します。">
<polygon fill="white" stroke="#666666" points="515.5,-291 379.5,-291 379.5,-261 515.5,-261 515.5,-291"/>
<text text-anchor="start" x="387.5" y="-279" font-family="Helvetica,sans-Serif" font-size="10.00">Span::MaterialPreviewer</text>
<text text-anchor="middle" x="447.5" y="-268" font-family="Helvetica,sans-Serif" font-size="10.00">::Render</text>
</a>
</g>
</g>
<!-- Node3&#45;&gt;Node21 -->
<g id="edge29_Node000003_Node000021" class="edge">
<title>Node3&#45;&gt;Node21</title>
<g id="a_edge29_Node000003_Node000021"><a xlink:title=" ">
<path fill="none" stroke="#63b8ff" d="M628.82,-550.22C622.3,-500.72 598.5,-370.47 523,-300 519.32,-296.57 515.16,-293.63 510.71,-291.11"/>
<polygon fill="#63b8ff" stroke="#63b8ff" points="625.35,-550.74 630.04,-560.25 632.3,-549.9 625.35,-550.74"/>
</a>
</g>
</g>
<!-- Node22 -->
<g id="Node000022" class="node">
<title>Node22</title>
<g id="a_Node000022"><a xlink:href="classSpan_1_1FileDialog.html#a22c6ec8ccc13ed89cc79447ce8ff2468" target="_top" xlink:title="ファイルを保存するダイアログを表示します。">
<polygon fill="white" stroke="#666666" points="519,-806.5 376,-806.5 376,-787.5 519,-787.5 519,-806.5"/>
<text text-anchor="middle" x="447.5" y="-794.5" font-family="Helvetica,sans-Serif" font-size="10.00">Span::FileDialog::SaveFile</text>
</a>
</g>
</g>
<!-- Node3&#45;&gt;Node22 -->
<g id="edge30_Node000003_Node000022" class="edge">
<title>Node3&#45;&gt;Node22</title>
<g id="a_edge30_Node000003_Node000022"><a xlink:title=" ">
<path fill="none" stroke="#63b8ff" d="M626.04,-589.37C614.74,-629.58 583.3,-722.55 523,-773 515.5,-779.28 506.32,-783.92 497.01,-787.36"/>
<polygon fill="#63b8ff" stroke="#63b8ff" points="629.42,-590.28 628.64,-579.71 622.66,-588.46 629.42,-590.28"/>
</a>
</g>
</g>
<!-- Node4&#45;&gt;Node5 -->
<g id="edge4_Node000004_Node000005" class="edge">
<title>Node4&#45;&gt;Node5</title>
<g id="a_edge4_Node000004_Node000005"><a xlink:title=" ">
<path fill="none" stroke="#63b8ff" d="M391.38,-524.23C361.19,-534.22 324.23,-546.45 295.67,-555.89"/>
<polygon fill="#63b8ff" stroke="#63b8ff" points="392.53,-527.54 400.93,-521.08 390.33,-520.89 392.53,-527.54"/>
</a>
</g>
</g>
<!-- Node5&#45;&gt;Node5 -->
<g id="edge5_Node000005_Node000005" class="edge">
<title>Node5&#45;&gt;Node5</title>
<g id="a_edge5_Node000005_Node000005"><a xlink:title=" ">
<path fill="none" stroke="#63b8ff" d="M281.56,-596.6C277.11,-600.97 266.26,-604 249,-604 219.94,-604 209.04,-595.41 216.3,-586.28"/>
<polygon fill="#63b8ff" stroke="#63b8ff" points="285.06,-596.32 281.7,-586.28 278.06,-596.23 285.06,-596.32"/>
</a>
</g>
</g>
<!-- Node5&#45;&gt;Node6 -->
<g id="edge6_Node000005_Node000006" class="edge">
<title>Node5&#45;&gt;Node6</title>
<g id="a_edge6_Node000005_Node000006"><a xlink:title=" ">
<path fill="none" stroke="#63b8ff" d="M214.43,-591.43C178.13,-613.53 121.13,-648.23 88.72,-667.96"/>
<polygon fill="#63b8ff" stroke="#63b8ff" points="216.46,-594.29 223.18,-586.1 212.82,-588.31 216.46,-594.29"/>
</a>
</g>
</g>
<!-- Node7&#45;&gt;Node6 -->
<g id="edge8_Node000007_Node000006" class="edge">
<title>Node7&#45;&gt;Node6</title>
<g id="a_edge8_Node000007_Node000006"><a xlink:title=" ">
<path fill="none" stroke="#63b8ff" d="M173.82,-708.66C156.94,-704.72 139.23,-700.58 123.08,-696.81"/>
<polygon fill="#63b8ff" stroke="#63b8ff" points="173.11,-712.09 183.65,-710.96 174.7,-705.28 173.11,-712.09"/>
</a>
</g>
</g>
<!-- Node8&#45;&gt;Node9 -->
<g id="edge11_Node000008_Node000009" class="edge">
<title>Node8&#45;&gt;Node9</title>
<g id="a_edge11_Node000008_Node000009"><a xlink:title=" ">
<path fill="none" stroke="#63b8ff" d="M374.44,-394.23C353.99,-389.76 331.91,-384.92 312.11,-380.59"/>
<polygon fill="#63b8ff" stroke="#63b8ff" points="373.81,-397.68 384.33,-396.39 375.31,-390.84 373.81,-397.68"/>
</a>
</g>
</g>
<!-- Node10&#45;&gt;Node11 -->
<g id="edge13_Node000010_Node000011" class="edge">
<title>Node10&#45;&gt;Node11</title>
<g id="a_edge13_Node000010_Node000011"><a xlink:title=" ">
<path fill="none" stroke="#63b8ff" d="M378.17,-915C355.65,-915 330.8,-915 309.03,-915"/>
<polygon fill="#63b8ff" stroke="#63b8ff" points="378.34,-918.5 388.34,-915 378.34,-911.5 378.34,-918.5"/>
</a>
</g>
</g>
<!-- Node11&#45;&gt;Node12 -->
<g id="edge14_Node000011_Node000012" class="edge">
<title>Node11&#45;&gt;Node12</title>
<g id="a_edge14_Node000011_Node000012"><a xlink:title=" ">
<path fill="none" stroke="#63b8ff" d="M178.59,-906.7C160,-904.48 140.09,-902.1 122.18,-899.96"/>
<polygon fill="#63b8ff" stroke="#63b8ff" points="178.42,-910.21 188.77,-907.92 179.25,-903.26 178.42,-910.21"/>
</a>
</g>
</g>
<!-- Node14 -->
<g id="Node000014" class="node">
<title>Node14</title>
<g id="a_Node000014"><a xlink:href="classSpan_1_1Application.html#a9dc7321cf43512eac3757a83fbefbaa9" target="_top" xlink:title="アプリケーションを実行します (ブロック関数)。">
<polygon fill="white" stroke="#666666" points="126,-806.5 0,-806.5 0,-787.5 126,-787.5 126,-806.5"/>
<text text-anchor="middle" x="63" y="-794.5" font-family="Helvetica,sans-Serif" font-size="10.00">Span::Application::Run</text>
</a>
</g>
</g>
<!-- Node13&#45;&gt;Node14 -->
<g id="edge16_Node000013_Node000014" class="edge">
<title>Node13&#45;&gt;Node14</title>
<g id="a_edge16_Node000013_Node000014"><a xlink:title=" ">
<path fill="none" stroke="#63b8ff" d="M158.35,-797C147.4,-797 136.42,-797 126.01,-797"/>
<polygon fill="#63b8ff" stroke="#63b8ff" points="158.37,-800.5 168.37,-797 158.37,-793.5 158.37,-800.5"/>
</a>
</g>
</g>
<!-- Node15&#45;&gt;Node5 -->
<g id="edge18_Node000015_Node000005" class="edge">
<title>Node15&#45;&gt;Node5</title>
<g id="a_edge18_Node000015_Node000005"><a xlink:title=" ">
<path fill="none" stroke="#63b8ff" d="M377.23,-584.6C354.98,-582.22 330.55,-579.61 309.1,-577.32"/>
<polygon fill="#63b8ff" stroke="#63b8ff" points="376.96,-588.09 387.28,-585.67 377.71,-581.13 376.96,-588.09"/>
</a>
</g>
</g>
<!-- Node16&#45;&gt;Node9 -->
<g id="edge20_Node000016_Node000009" class="edge">
<title>Node16&#45;&gt;Node9</title>
<g id="a_edge20_Node000016_Node000009"><a xlink:title=" ">
<path fill="none" stroke="#63b8ff" d="M380.95,-247.23C377.87,-248.72 374.87,-250.31 372,-252 325.64,-279.4 282.57,-327.25 262.25,-351.69"/>
<polygon fill="#63b8ff" stroke="#63b8ff" points="382.66,-250.3 390.39,-243.05 379.83,-243.9 382.66,-250.3"/>
</a>
</g>
</g>
<!-- Node20&#45;&gt;Node13 -->
<g id="edge28_Node000020_Node000013" class="edge">
<title>Node20&#45;&gt;Node13</title>
<g id="a_edge28_Node000020_Node000013"><a xlink:title=" ">
<path fill="none" stroke="#63b8ff" d="M386.06,-822.62C358.74,-817.48 326.83,-811.47 300.77,-806.56"/>
<polygon fill="#63b8ff" stroke="#63b8ff" points="385.42,-826.06 395.9,-824.47 386.72,-819.18 385.42,-826.06"/>
</a>
</g>
</g>
<!-- Node22&#45;&gt;Node13 -->
<g id="edge31_Node000022_Node000013" class="edge">
<title>Node22&#45;&gt;Node13</title>
<g id="a_edge31_Node000022_Node000013"><a xlink:title=" ">
<path fill="none" stroke="#63b8ff" d="M365.54,-797C353.7,-797 341.52,-797 329.71,-797"/>
<polygon fill="#63b8ff" stroke="#63b8ff" points="365.84,-800.5 375.84,-797 365.84,-793.5 365.84,-800.5"/>
</a>
</g>
</g>
<!-- Node24 -->
<g id="Node000024" class="node">
<title>Node24</title>
<g id="a_Node000024"><a xlink:href="namespaceSpan.html#a3f4b8561d46e69596ba6a7c3177a92e7" target="_top" xlink:title=" ">
<polygon fill="white" stroke="#666666" points="518,-194.5 377,-194.5 377,-175.5 518,-175.5 518,-194.5"/>
<text text-anchor="middle" x="447.5" y="-182.5" font-family="Helvetica,sans-Serif" font-size="10.00">Span::ConsoleCtrlHandler</text>
</a>
</g>
</g>
<!-- Node23&#45;&gt;Node24 -->
<g id="edge33_Node000023_Node000024" class="edge">
<title>Node23&#45;&gt;Node24</title>
<g id="a_edge33_Node000023_Node000024"><a xlink:title=" ">
<path fill="none" stroke="#63b8ff" d="M574.9,-211.32C549.02,-205.93 518.69,-199.61 494.22,-194.52"/>
<polygon fill="#63b8ff" stroke="#63b8ff" points="574.44,-214.8 584.95,-213.41 575.87,-207.95 574.44,-214.8"/>
</a>
</g>
</g>
<!-- Node24&#45;&gt;Node2 -->
<g id="edge34_Node000024_Node000002" class="edge">
<title>Node24&#45;&gt;Node2</title>
<g id="a_edge34_Node000024_Node000002"><a xlink:title=" ">
<path fill="none" stroke="#63b8ff" d="M528.26,-189.84C578.95,-193.26 645.92,-198.4 705,-205 728.26,-207.6 753.87,-211.21 775.71,-214.51"/>
<polygon fill="#63b8ff" stroke="#63b8ff" points="528.23,-186.33 518.02,-189.16 527.77,-193.31 528.23,-186.33"/>
</a>
</g>
</g>
<!-- Node26 -->
<g id="Node000026" class="node">
<title>Node26</title>
<g id="a_Node000026"><a xlink:href="classSpan_1_1ProjectBrowserPanel.html#a3877e936c3c6ee4b522ea63dc65dfd3b" target="_top" xlink:title="右側のファイル/アセット一覧エリアを描画します。">
<polygon fill="white" stroke="#666666" points="705,-157 559,-157 559,-127 705,-127 705,-157"/>
<text text-anchor="start" x="567" y="-145" font-family="Helvetica,sans-Serif" font-size="10.00">Span::ProjectBrowserPanel</text>
<text text-anchor="middle" x="632" y="-134" font-family="Helvetica,sans-Serif" font-size="10.00">::DrawContentArea</text>
</a>
</g>
</g>
<!-- Node25&#45;&gt;Node26 -->
<g id="edge37_Node000025_Node000026" class="edge">
<title>Node25&#45;&gt;Node26</title>
<g id="a_edge37_Node000025_Node000026"><a xlink:title=" ">
<path fill="none" stroke="#63b8ff" d="M746,-161.07C732.47,-158.79 718.53,-156.44 705.27,-154.2"/>
<polygon fill="#63b8ff" stroke="#63b8ff" points="745.82,-164.59 756.26,-162.81 746.98,-157.69 745.82,-164.59"/>
</a>
</g>
</g>
<!-- Node27 -->
<g id="Node000027" class="node">
<title>Node27</title>
<g id="a_Node000027"><a xlink:href="classSpan_1_1ProjectBrowserPanel.html#ad259c8cf9a9c066350b699f9cd14438e" target="_top" xlink:title="GUI描画の更新処理">
<polygon fill="white" stroke="#666666" points="520.5,-157 374.5,-157 374.5,-127 520.5,-127 520.5,-157"/>
<text text-anchor="start" x="382.5" y="-145" font-family="Helvetica,sans-Serif" font-size="10.00">Span::ProjectBrowserPanel</text>
<text text-anchor="middle" x="447.5" y="-134" font-family="Helvetica,sans-Serif" font-size="10.00">::OnImGuiRender</text>
</a>
</g>
</g>
<!-- Node26&#45;&gt;Node27 -->
<g id="edge38_Node000026_Node000027" class="edge">
<title>Node26&#45;&gt;Node27</title>
<g id="a_edge38_Node000026_Node000027"><a xlink:title=" ">
<path fill="none" stroke="#63b8ff" d="M548.78,-142C539.42,-142 529.92,-142 520.7,-142"/>
<polygon fill="#63b8ff" stroke="#63b8ff" points="548.87,-145.5 558.87,-142 548.87,-138.5 548.87,-145.5"/>
</a>
</g>
</g>
<!-- Node29 -->
<g id="Node000029" class="node">
<title>Node29</title>
<g id="a_Node000029"><a xlink:href="namespaceSpan_1_1Internal.html#ae18b71c51d88d168549fe9542ed952bb" target="_top" xlink:title="型に応じた描画ヘルパー関数">
<polygon fill="white" stroke="#666666" points="701.5,-103.5 562.5,-103.5 562.5,-84.5 701.5,-84.5 701.5,-103.5"/>
<text text-anchor="middle" x="632" y="-91.5" font-family="Helvetica,sans-Serif" font-size="10.00">Span::Internal::DrawField</text>
</a>
</g>
</g>
<!-- Node28&#45;&gt;Node29 -->
<g id="edge41_Node000028_Node000029" class="edge">
<title>Node28&#45;&gt;Node29</title>
<g id="a_edge41_Node000028_Node000029"><a xlink:title=" ">
<path fill="none" stroke="#63b8ff" d="M769.39,-120.51C741.5,-115.09 708.6,-108.69 682.1,-103.54"/>
<polygon fill="#63b8ff" stroke="#63b8ff" points="768.94,-123.99 779.42,-122.46 770.27,-117.12 768.94,-123.99"/>
</a>
</g>
</g>
<!-- Node30 -->
<g id="Node000030" class="node">
<title>Node30</title>
<g id="a_Node000030"><a xlink:href="structSpan_1_1Internal_1_1ImGuiVisitor.html#a966eba59899c3c97a93ed58acb5612a8" target="_top" xlink:title=" ">
<polygon fill="white" stroke="#666666" points="523,-109 372,-109 372,-79 523,-79 523,-109"/>
<text text-anchor="start" x="380" y="-97" font-family="Helvetica,sans-Serif" font-size="10.00">Span::Internal::ImGuiVisitor</text>
<text text-anchor="middle" x="447.5" y="-86" font-family="Helvetica,sans-Serif" font-size="10.00">::Visit</text>
</a>
</g>
</g>
<!-- Node29&#45;&gt;Node30 -->
<g id="edge42_Node000029_Node000030" class="edge">
<title>Node29&#45;&gt;Node30</title>
<g id="a_edge42_Node000029_Node000030"><a xlink:title=" ">
<path fill="none" stroke="#63b8ff" d="M552.01,-94C542.47,-94 532.75,-94 523.28,-94"/>
<polygon fill="#63b8ff" stroke="#63b8ff" points="552.26,-97.5 562.26,-94 552.26,-90.5 552.26,-97.5"/>
</a>
</g>
</g>
<!-- Node31&#45;&gt;Node29 -->
<g id="edge44_Node000031_Node000029" class="edge">
<title>Node31&#45;&gt;Node29</title>
<g id="a_edge44_Node000031_Node000029"><a xlink:title=" ">
<path fill="none" stroke="#63b8ff" d="M737.71,-94.54C725.57,-94.47 713.29,-94.41 701.62,-94.35"/>
<polygon fill="#63b8ff" stroke="#63b8ff" points="737.84,-98.04 747.85,-94.59 737.87,-91.04 737.84,-98.04"/>
</a>
</g>
</g>
<!-- Node32&#45;&gt;Node29 -->
<g id="edge46_Node000032_Node000029" class="edge">
<title>Node32&#45;&gt;Node29</title>
<g id="a_edge46_Node000032_Node000029"><a xlink:title=" ">
<path fill="none" stroke="#63b8ff" d="M766.99,-69.33C740.61,-74.18 710.13,-79.8 684.91,-84.44"/>
<polygon fill="#63b8ff" stroke="#63b8ff" points="767.68,-72.76 776.88,-67.51 766.41,-65.87 767.68,-72.76"/>
</a>
</g>
</g>
</g>
</svg>

<g id="navigator" transform="translate(0 0)" fill="#404254">
  <rect fill="#f2f5e9" fill-opacity="0.5" stroke="#606060" stroke-width=".5" x="0" y="0" width="60" height="60"/>
  <use id="zoomplus" xlink:href="#zoomPlus" x="17" y="9" onmousedown="handleZoom(evt,'in')"/>
  <use id="zoomminus" xlink:href="#zoomMin" x="42" y="9" onmousedown="handleZoom(evt,'out')"/>
  <use id="reset" xlink:href="#resetDef" x="30" y="36" onmousedown="handleReset()"/>
   <use id="arrowup" xlink:href="#arrowUp" x="0" y="0" onmousedown="handlePan(0,-1)"/>
  <use id="arrowright" xlink:href="#arrowRight" x="0" y="0" onmousedown="handlePan(1,0)"/>
  <use id="arrowdown" xlink:href="#arrowDown" x="0" y="0" onmousedown="handlePan(0,1)"/>
  <use id="arrowleft" xlink:href="#arrowLeft" x="0" y="0" onmousedown="handlePan(-1,0)"/>
</g>
<svg viewBox="0 0 15 15" width="100%" height="30px" preserveAspectRatio="xMaxYMin meet">
 <g id="arrow_out" transform="scale(0.3 0.3)">
  <a xlink:href="classSpan_1_1AssetManager_a8b80e59ea529e23c8c8f5280d136fbf0_icgraph_org.svg" target="_base">
   <rect id="button" ry="5" rx="5" y="6" x="6" height="38" width="38"
        fill="#f2f5e9" fill-opacity="0.5" stroke="#606060" stroke-width="1.0"/>
   <path id="arrow"
     d="M 11.500037,31.436501 C 11.940474,20.09759 22.043105,11.32322 32.158766,21.979434 L 37.068811,17.246167 C 37.068811,17.246167 37.088388,32 37.088388,32 L 22.160133,31.978069 C 22.160133,31.978069 26.997745,27.140456 26.997745,27.140456 C 18.528582,18.264221 13.291696,25.230495 11.500037,31.436501 z"
     style="fill:#404040;"/>
  </a>
 </g>
</svg>

<style type='text/css'>
<![CDATA[
[data-mouse-over-selected='false'] { opacity: 0.7; }
[data-mouse-over-selected='true']  { opacity: 1.0; }
]]>
</style>
<script type="application/ecmascript"><![CDATA[
document.addEventListener('DOMContentLoaded', (event) => {
  highlightEdges();
  highlightAdjacentNodes();
});
]]></script>
</svg>
