<?xml version="1.0" encoding="UTF-8" standalone="no"?>
<!DOCTYPE svg PUBLIC "-//W3C//DTD SVG 1.1//EN"
 "http://www.w3.org/Graphics/SVG/1.1/DTD/svg11.dtd">
<!-- Generated by graphviz version 2.43.0 (0)
 -->
<!-- Title: Span::RelationshipSystem::InsertBefore Pages: 1 -->
<svg width="1305pt" height="181pt"
 viewBox="0.00 0.00 1305.00 181.05" xmlns="http://www.w3.org/2000/svg" xmlns:xlink="http://www.w3.org/1999/xlink">
<g id="graph0" class="graph" transform="scale(1 1) rotate(0) translate(4 177.05)">
<title>Span::RelationshipSystem::InsertBefore</title>
<!-- Node1 -->
<g id="Node000001" class="node">
<title>Node1</title>
<g id="a_Node000001"><a xlink:title="特定の兄弟の「直前」に挿入します (順序変更用)。">
<polygon fill="#999999" stroke="#666666" points="144,-64.05 0,-64.05 0,-34.05 144,-34.05 144,-64.05"/>
<text text-anchor="start" x="8" y="-52.05" font-family="Helvetica,sans-Serif" font-size="10.00">Span::RelationshipSystem</text>
<text text-anchor="middle" x="72" y="-41.05" font-family="Helvetica,sans-Serif" font-size="10.00">::InsertBefore</text>
</a>
</g>
</g>
<!-- Node2 -->
<g id="Node000002" class="node">
<title>Node2</title>
<g id="a_Node000002"><a xlink:href="classSpan_1_1RelationshipSystem.html#a67cd257ab95cd2a44e3c8830ccd4cf26" target="_top" xlink:title="指定したエンティティを現在の親から切断し、孤立させます。">
<polygon fill="white" stroke="#666666" points="504,-43.05 360,-43.05 360,-13.05 504,-13.05 504,-43.05"/>
<text text-anchor="start" x="368" y="-31.05" font-family="Helvetica,sans-Serif" font-size="10.00">Span::RelationshipSystem</text>
<text text-anchor="middle" x="432" y="-20.05" font-family="Helvetica,sans-Serif" font-size="10.00">::Disconnect</text>
</a>
</g>
</g>
<!-- Node1&#45;&gt;Node2 -->
<g id="edge1_Node000001_Node000002" class="edge">
<title>Node1&#45;&gt;Node2</title>
<g id="a_edge1_Node000001_Node000002"><a xlink:title=" ">
<path fill="none" stroke="#63b8ff" d="M144.16,-44.87C203.46,-41.39 287.93,-36.44 349.85,-32.81"/>
<polygon fill="#63b8ff" stroke="#63b8ff" points="350.2,-36.29 359.98,-32.21 349.79,-29.31 350.2,-36.29"/>
</a>
</g>
</g>
<!-- Node3 -->
<g id="Node000003" class="node">
<title>Node3</title>
<g id="a_Node000003"><a xlink:href="classSpan_1_1World.html#a0cebb4506e5366293854cde16a208677" target="_top" xlink:title="コンポーネントへの参照を取得します。">
<polygon fill="white" stroke="#666666" points="694,-118.55 540,-118.55 540,-99.55 694,-99.55 694,-118.55"/>
<text text-anchor="middle" x="617" y="-106.55" font-family="Helvetica,sans-Serif" font-size="10.00">Span::World::GetComponent</text>
</a>
</g>
</g>
<!-- Node1&#45;&gt;Node3 -->
<g id="edge11_Node000001_Node000003" class="edge">
<title>Node1&#45;&gt;Node3</title>
<g id="a_edge11_Node000001_Node000003"><a xlink:title=" ">
<path fill="none" stroke="#63b8ff" d="M100.69,-64.16C121.76,-74.86 151.85,-88.43 180,-95.05 298.91,-122.98 441.05,-121.28 529.95,-116.19"/>
<polygon fill="#63b8ff" stroke="#63b8ff" points="530.21,-119.68 539.98,-115.59 529.79,-112.69 530.21,-119.68"/>
</a>
</g>
</g>
<!-- Node10 -->
<g id="Node000010" class="node">
<title>Node10</title>
<g id="a_Node000010"><a xlink:href="structSpan_1_1Entity.html#a2ccdecba28a3d0bd98174e83b573bbe3" target="_top" xlink:title="このエンティティが無効 (Null) かどうかを判定します。">
<polygon fill="white" stroke="#666666" points="671,-37.55 563,-37.55 563,-18.55 671,-18.55 671,-37.55"/>
<text text-anchor="middle" x="617" y="-25.55" font-family="Helvetica,sans-Serif" font-size="10.00">Span::Entity::IsNull</text>
</a>
</g>
</g>
<!-- Node1&#45;&gt;Node10 -->
<g id="edge12_Node000001_Node000010" class="edge">
<title>Node1&#45;&gt;Node10</title>
<g id="a_edge12_Node000001_Node000010"><a xlink:title=" ">
<path fill="none" stroke="#63b8ff" d="M136.9,-33.99C221.06,-16.08 373.64,9.76 504,-4.05 526.25,-6.4 550.57,-11.32 570.85,-16.1"/>
<polygon fill="#63b8ff" stroke="#63b8ff" points="570.21,-19.55 580.75,-18.49 571.85,-12.74 570.21,-19.55"/>
</a>
</g>
</g>
<!-- Node11 -->
<g id="Node000011" class="node">
<title>Node11</title>
<g id="a_Node000011"><a xlink:href="classSpan_1_1RelationshipSystem.html#a22d8d93f263f586db5a1aa6de46711a0" target="_top" xlink:title="親子関係を設定します (末尾に追加)。">
<polygon fill="white" stroke="#666666" points="324,-86.05 180,-86.05 180,-56.05 324,-56.05 324,-86.05"/>
<text text-anchor="start" x="188" y="-74.05" font-family="Helvetica,sans-Serif" font-size="10.00">Span::RelationshipSystem</text>
<text text-anchor="middle" x="252" y="-63.05" font-family="Helvetica,sans-Serif" font-size="10.00">::SetParent</text>
</a>
</g>
</g>
<!-- Node1&#45;&gt;Node11 -->
<g id="edge13_Node000001_Node000011" class="edge">
<title>Node1&#45;&gt;Node11</title>
<g id="a_edge13_Node000001_Node000011"><a xlink:title=" ">
<path fill="none" stroke="#63b8ff" d="M144.12,-57.84C152.61,-58.89 161.33,-59.96 169.94,-61.03"/>
<polygon fill="#63b8ff" stroke="#63b8ff" points="169.64,-64.52 180,-62.27 170.5,-57.57 169.64,-64.52"/>
</a>
</g>
</g>
<!-- Node2&#45;&gt;Node3 -->
<g id="edge2_Node000002_Node000003" class="edge">
<title>Node2&#45;&gt;Node3</title>
<g id="a_edge2_Node000002_Node000003"><a xlink:title=" ">
<path fill="none" stroke="#63b8ff" d="M466.99,-43.09C500.81,-58.06 552.25,-80.83 584.98,-95.32"/>
<polygon fill="#63b8ff" stroke="#63b8ff" points="583.94,-98.68 594.5,-99.53 586.77,-92.28 583.94,-98.68"/>
</a>
</g>
</g>
<!-- Node2&#45;&gt;Node10 -->
<g id="edge10_Node000002_Node000010" class="edge">
<title>Node2&#45;&gt;Node10</title>
<g id="a_edge10_Node000002_Node000010"><a xlink:title=" ">
<path fill="none" stroke="#63b8ff" d="M504.01,-28.05C520.09,-28.05 537.05,-28.05 552.77,-28.05"/>
<polygon fill="#63b8ff" stroke="#63b8ff" points="552.9,-31.55 562.9,-28.05 552.9,-24.55 552.9,-31.55"/>
</a>
</g>
</g>
<!-- Node4 -->
<g id="Node000004" class="node">
<title>Node4</title>
<g id="a_Node000004"><a xlink:href="classSpan_1_1World.html#a44e36e9b91bb78cd486b93a5a02ff1fa" target="_top" xlink:title=" ">
<polygon fill="white" stroke="#666666" points="884.5,-146.05 730.5,-146.05 730.5,-116.05 884.5,-116.05 884.5,-146.05"/>
<text text-anchor="start" x="738.5" y="-134.05" font-family="Helvetica,sans-Serif" font-size="10.00">Span::World::GetComponent</text>
<text text-anchor="middle" x="807.5" y="-123.05" font-family="Helvetica,sans-Serif" font-size="10.00">Unsafe</text>
</a>
</g>
</g>
<!-- Node3&#45;&gt;Node4 -->
<g id="edge3_Node000003_Node000004" class="edge">
<title>Node3&#45;&gt;Node4</title>
<g id="a_edge3_Node000003_Node000004"><a xlink:title=" ">
<path fill="none" stroke="#63b8ff" d="M694.13,-117.93C702.72,-118.93 711.52,-119.96 720.23,-120.98"/>
<polygon fill="#63b8ff" stroke="#63b8ff" points="720.06,-124.48 730.4,-122.17 720.87,-117.53 720.06,-124.48"/>
</a>
</g>
</g>
<!-- Node8 -->
<g id="Node000008" class="node">
<title>Node8</title>
<g id="a_Node000008"><a xlink:href="classSpan_1_1World.html#a059bbe879fcaf0a57d1b935be05810f0" target="_top" xlink:title="指定したコンポーネントを持っているか確認します。">
<polygon fill="white" stroke="#666666" points="885,-97.55 730,-97.55 730,-78.55 885,-78.55 885,-97.55"/>
<text text-anchor="middle" x="807.5" y="-85.55" font-family="Helvetica,sans-Serif" font-size="10.00">Span::World::HasComponent</text>
</a>
</g>
</g>
<!-- Node3&#45;&gt;Node8 -->
<g id="edge7_Node000003_Node000008" class="edge">
<title>Node3&#45;&gt;Node8</title>
<g id="a_edge7_Node000003_Node000008"><a xlink:title=" ">
<path fill="none" stroke="#63b8ff" d="M694.13,-100.57C702.57,-99.63 711.22,-98.66 719.78,-97.71"/>
<polygon fill="#63b8ff" stroke="#63b8ff" points="720.23,-101.18 729.78,-96.59 719.46,-94.22 720.23,-101.18"/>
</a>
</g>
</g>
<!-- Node5 -->
<g id="Node000005" class="node">
<title>Node5</title>
<g id="a_Node000005"><a xlink:href="classSpan_1_1Archetype.html#ace55105d4678c95251e7c66ff00846d1" target="_top" xlink:title="コンポーネント配列の「チャンク内オフセット」を取得します。">
<polygon fill="white" stroke="#666666" points="1097,-173.05 921,-173.05 921,-143.05 1097,-143.05 1097,-173.05"/>
<text text-anchor="start" x="929" y="-161.05" font-family="Helvetica,sans-Serif" font-size="10.00">Span::Archetype::GetComponent</text>
<text text-anchor="middle" x="1009" y="-150.05" font-family="Helvetica,sans-Serif" font-size="10.00">Offset</text>
</a>
</g>
</g>
<!-- Node4&#45;&gt;Node5 -->
<g id="edge4_Node000004_Node000005" class="edge">
<title>Node4&#45;&gt;Node5</title>
<g id="a_edge4_Node000004_Node000005"><a xlink:title=" ">
<path fill="none" stroke="#63b8ff" d="M884.78,-141.37C893.24,-142.52 901.93,-143.69 910.61,-144.87"/>
<polygon fill="#63b8ff" stroke="#63b8ff" points="910.39,-148.37 920.77,-146.24 911.33,-141.43 910.39,-148.37"/>
</a>
</g>
</g>
<!-- Node6 -->
<g id="Node000006" class="node">
<title>Node6</title>
<g id="a_Node000006"><a xlink:href="classSpan_1_1ComponentType.html#aa561932b92eabbe74390cb7b0cef0de6" target="_top" xlink:title="型 T に対応する一意のIDを取得します。">
<polygon fill="white" stroke="#666666" points="1071.5,-125.05 946.5,-125.05 946.5,-95.05 1071.5,-95.05 1071.5,-125.05"/>
<text text-anchor="start" x="954.5" y="-113.05" font-family="Helvetica,sans-Serif" font-size="10.00">Span::ComponentType</text>
<text text-anchor="middle" x="1009" y="-102.05" font-family="Helvetica,sans-Serif" font-size="10.00">::GetID</text>
</a>
</g>
</g>
<!-- Node4&#45;&gt;Node6 -->
<g id="edge5_Node000004_Node000006" class="edge">
<title>Node4&#45;&gt;Node6</title>
<g id="a_edge5_Node000004_Node000006"><a xlink:title=" ">
<path fill="none" stroke="#63b8ff" d="M884.78,-123.02C901.63,-121.24 919.43,-119.37 936.1,-117.62"/>
<polygon fill="#63b8ff" stroke="#63b8ff" points="936.74,-121.07 946.32,-116.54 936,-114.11 936.74,-121.07"/>
</a>
</g>
</g>
<!-- Node7 -->
<g id="Node000007" class="node">
<title>Node7</title>
<g id="a_Node000007"><a xlink:href="classSpan_1_1ComponentTypeCounter.html#acc2798e44b8697764fd68d9942b18d20" target="_top" xlink:title=" ">
<polygon fill="white" stroke="#666666" points="1297,-125.05 1133,-125.05 1133,-95.05 1297,-95.05 1297,-125.05"/>
<text text-anchor="start" x="1141" y="-113.05" font-family="Helvetica,sans-Serif" font-size="10.00">Span::ComponentTypeCounter</text>
<text text-anchor="middle" x="1215" y="-102.05" font-family="Helvetica,sans-Serif" font-size="10.00">::GetNextID</text>
</a>
</g>
</g>
<!-- Node6&#45;&gt;Node7 -->
<g id="edge6_Node000006_Node000007" class="edge">
<title>Node6&#45;&gt;Node7</title>
<g id="a_edge6_Node000006_Node000007"><a xlink:title=" ">
<path fill="none" stroke="#63b8ff" d="M1071.76,-110.05C1087.84,-110.05 1105.5,-110.05 1122.75,-110.05"/>
<polygon fill="#63b8ff" stroke="#63b8ff" points="1122.85,-113.55 1132.85,-110.05 1122.85,-106.55 1122.85,-113.55"/>
</a>
</g>
</g>
<!-- Node8&#45;&gt;Node6 -->
<g id="edge8_Node000008_Node000006" class="edge">
<title>Node8&#45;&gt;Node6</title>
<g id="a_edge8_Node000008_Node000006"><a xlink:title=" ">
<path fill="none" stroke="#63b8ff" d="M885.06,-96.49C901.9,-98.35 919.66,-100.31 936.3,-102.14"/>
<polygon fill="#63b8ff" stroke="#63b8ff" points="936.17,-105.65 946.49,-103.26 936.93,-98.69 936.17,-105.65"/>
</a>
</g>
</g>
<!-- Node9 -->
<g id="Node000009" class="node">
<title>Node9</title>
<g id="a_Node000009"><a xlink:href="classSpan_1_1World.html#a5e0da52990e6715e2cc31a0d85913748" target="_top" xlink:title="エンティティが現在有効かどうかを確認します。">
<polygon fill="white" stroke="#666666" points="1065.5,-76.55 952.5,-76.55 952.5,-57.55 1065.5,-57.55 1065.5,-76.55"/>
<text text-anchor="middle" x="1009" y="-64.55" font-family="Helvetica,sans-Serif" font-size="10.00">Span::World::IsAlive</text>
</a>
</g>
</g>
<!-- Node8&#45;&gt;Node9 -->
<g id="edge9_Node000008_Node000009" class="edge">
<title>Node8&#45;&gt;Node9</title>
<g id="a_edge9_Node000008_Node000009"><a xlink:title=" ">
<path fill="none" stroke="#63b8ff" d="M885.06,-79.99C903.97,-78 924.07,-75.88 942.41,-73.95"/>
<polygon fill="#63b8ff" stroke="#63b8ff" points="942.82,-77.43 952.39,-72.9 942.08,-70.47 942.82,-77.43"/>
</a>
</g>
</g>
<!-- Node11&#45;&gt;Node2 -->
<g id="edge14_Node000011_Node000002" class="edge">
<title>Node11&#45;&gt;Node2</title>
<g id="a_edge14_Node000011_Node000002"><a xlink:title=" ">
<path fill="none" stroke="#63b8ff" d="M315.26,-56.01C329.35,-52.6 344.43,-48.96 358.89,-45.47"/>
<polygon fill="#63b8ff" stroke="#63b8ff" points="359.88,-48.83 368.78,-43.08 358.24,-42.02 359.88,-48.83"/>
</a>
</g>
</g>
<!-- Node11&#45;&gt;Node3 -->
<g id="edge15_Node000011_Node000003" class="edge">
<title>Node11&#45;&gt;Node3</title>
<g id="a_edge15_Node000011_Node000003"><a xlink:title=" ">
<path fill="none" stroke="#63b8ff" d="M324.04,-80.71C336.03,-82.24 348.36,-83.74 360,-85.05 416.44,-91.38 480.02,-97.35 529.69,-101.75"/>
<polygon fill="#63b8ff" stroke="#63b8ff" points="529.48,-105.24 539.75,-102.64 530.1,-98.27 529.48,-105.24"/>
</a>
</g>
</g>
<!-- Node11&#45;&gt;Node10 -->
<g id="edge16_Node000011_Node000010" class="edge">
<title>Node11&#45;&gt;Node10</title>
<g id="a_edge16_Node000011_Node000010"><a xlink:title=" ">
<path fill="none" stroke="#63b8ff" d="M324.15,-68.23C374.55,-65.61 443.66,-60.75 504,-52.05 525.12,-49 548.21,-44.29 567.91,-39.85"/>
<polygon fill="#63b8ff" stroke="#63b8ff" points="568.91,-43.21 577.87,-37.56 567.34,-36.39 568.91,-43.21"/>
</a>
</g>
</g>
</g>
</svg>
