<?xml version="1.0" encoding="UTF-8" standalone="no"?>
<!DOCTYPE svg PUBLIC "-//W3C//DTD SVG 1.1//EN"
 "http://www.w3.org/Graphics/SVG/1.1/DTD/svg11.dtd">
<!-- Generated by graphviz version 2.43.0 (0)
 -->
<!-- Title: Span::RenderingSystem::OnUpdate Pages: 1 -->
<!--zoomable 456 -->

<svg id="main" version="1.1" xmlns="http://www.w3.org/2000/svg" xmlns:xlink="http://www.w3.org/1999/xlink" xml:space="preserve" onload="init(evt)">

<style type="text/css"><![CDATA[
.node, .edge {opacity: 0.7;}
.node.selected, .edge.selected {opacity: 1;}
.edge:hover path { stroke: red; }
.edge:hover polygon { stroke: red; fill: red; }
]]></style>

<defs>
  <circle id="rim" cx="0" cy="0" r="7"/>
  <circle id="rim2" cx="0" cy="0" r="3.5"/>
  <g id="zoomPlus">
    <use xlink:href="#rim" fill="#404040"><set attributeName="fill" to="#808080" begin="zoomplus.mouseover" end="zoomplus.mouseout"/></use>
    <path d="M-4,0h8M0,-4v8" fill="none" stroke="white" stroke-width="1.5" pointer-events="none"/>
  </g>
  <g id="zoomMin">
    <use xlink:href="#rim" fill="#404040"><set attributeName="fill" to="#808080" begin="zoomminus.mouseover" end="zoomminus.mouseout"/></use>
    <path d="M-4,0h8" fill="none" stroke="white" stroke-width="1.5" pointer-events="none"/>
  </g>
  <g id="arrowUp" transform="translate(30 24)">
    <use xlink:href="#rim"/>
    <path pointer-events="none" fill="none" stroke="white" stroke-width="1.5" d="M0,-3.0v7 M-2.5,-0.5L0,-3.0L2.5,-0.5"/>
  </g>
  <g id="arrowRight" transform="rotate(90) translate(36 -43)">
    <use xlink:href="#rim"/>
    <path pointer-events="none" fill="none" stroke="white" stroke-width="1.5" d="M0,-3.0v7 M-2.5,-0.5L0,-3.0L2.5,-0.5"/>
  </g>
  <g id="arrowDown" transform="rotate(180) translate(-30 -48)">
    <use xlink:href="#rim"/>
    <path pointer-events="none" fill="none" stroke="white" stroke-width="1.5" d="M0,-3.0v7 M-2.5,-0.5L0,-3.0L2.5,-0.5"/>
  </g>
  <g id="arrowLeft" transform="rotate(270) translate(-36 17)">
    <use xlink:href="#rim"/>
    <path pointer-events="none" fill="none" stroke="white" stroke-width="1.5" d="M0,-3.0v7 M-2.5,-0.5L0,-3.0L2.5,-0.5"/>
  </g>
  <g id="resetDef">
    <use xlink:href="#rim2" fill="#404040"><set attributeName="fill" to="#808080" begin="reset.mouseover" end="reset.mouseout"/></use>
  </g>
</defs>
<script type="application/ecmascript">
var viewWidth = 1429;
var viewHeight = 456;
var sectionId = 'dynsection-2';
</script>
<script type="application/ecmascript" xlink:href="svg.min.js"/>
<svg id="graph" class="graph">
<g id="viewport">
<title>Span::RenderingSystem::OnUpdate</title>
<!-- Node1 -->
<g id="Node000001" class="node">
<title>Node1</title>
<g id="a_Node000001"><a xlink:title="毎フレーム呼び出されます。ここにゲームロジックを記述します。">
<polygon fill="#999999" stroke="#666666" points="133,-175.73 0,-175.73 0,-145.73 133,-145.73 133,-175.73"/>
<text text-anchor="start" x="8" y="-163.73" font-family="Helvetica,sans-Serif" font-size="10.00">Span::RenderingSystem</text>
<text text-anchor="middle" x="66.5" y="-152.73" font-family="Helvetica,sans-Serif" font-size="10.00">::OnUpdate</text>
</a>
</g>
</g>
<!-- Node2 -->
<g id="Node000002" class="node">
<title>Node2</title>
<g id="a_Node000002"><a xlink:href="classSpan_1_1Renderer.html#ade1cd95fe5d2e6aa78493393ce39c767" target="_top" xlink:title="メッシュ描画コマンドの発行。">
<polygon fill="white" stroke="#666666" points="318,-288.23 169,-288.23 169,-269.23 318,-269.23 318,-288.23"/>
<text text-anchor="middle" x="243.5" y="-276.23" font-family="Helvetica,sans-Serif" font-size="10.00">Span::Renderer::DrawMesh</text>
</a>
</g>
</g>
<!-- Node1&#45;&gt;Node2 -->
<g id="edge1_Node000001_Node000002" class="edge">
<title>Node1&#45;&gt;Node2</title>
<g id="a_edge1_Node000001_Node000002"><a xlink:title=" ">
<path fill="none" stroke="#63b8ff" d="M90.02,-175.92C123.43,-198.45 185.81,-240.51 219.5,-263.23"/>
<polygon fill="#63b8ff" stroke="#63b8ff" points="217.95,-266.4 228.2,-269.09 221.86,-260.6 217.95,-266.4"/>
</a>
</g>
</g>
<!-- Node11 -->
<g id="Node000011" class="node">
<title>Node11</title>
<g id="a_Node000011"><a xlink:href="classSpan_1_1Application.html#ae2e9eaebe90ffdf55cfef9d74ccbce3e" target="_top" xlink:title="シングルトンインスタンスの取得">
<polygon fill="white" stroke="#666666" points="306,-192.23 181,-192.23 181,-173.23 306,-173.23 306,-192.23"/>
<text text-anchor="middle" x="243.5" y="-180.23" font-family="Helvetica,sans-Serif" font-size="10.00">Span::Application::Get</text>
</a>
</g>
</g>
<!-- Node1&#45;&gt;Node11 -->
<g id="edge10_Node000001_Node000011" class="edge">
<title>Node1&#45;&gt;Node11</title>
<g id="a_edge10_Node000001_Node000011"><a xlink:title=" ">
<path fill="none" stroke="#63b8ff" d="M133.16,-168.99C145.36,-170.52 158.16,-172.13 170.54,-173.69"/>
<polygon fill="#63b8ff" stroke="#63b8ff" points="170.45,-177.2 180.81,-174.98 171.33,-170.26 170.45,-177.2"/>
</a>
</g>
</g>
<!-- Node32 -->
<g id="Node000032" class="node">
<title>Node32</title>
<g id="a_Node000032"><a xlink:href="classSpan_1_1Application.html#a405d83887371210b9a67e940727689da" target="_top" xlink:title=" ">
<polygon fill="white" stroke="#666666" points="297,-154.73 190,-154.73 190,-124.73 297,-124.73 297,-154.73"/>
<text text-anchor="start" x="198" y="-142.73" font-family="Helvetica,sans-Serif" font-size="10.00">Span::Application::</text>
<text text-anchor="middle" x="243.5" y="-131.73" font-family="Helvetica,sans-Serif" font-size="10.00">GetRenderer</text>
</a>
</g>
</g>
<!-- Node1&#45;&gt;Node32 -->
<g id="edge33_Node000001_Node000032" class="edge">
<title>Node1&#45;&gt;Node32</title>
<g id="a_edge33_Node000001_Node000032"><a xlink:title=" ">
<path fill="none" stroke="#63b8ff" d="M133.16,-152.86C148.37,-151.03 164.52,-149.09 179.61,-147.28"/>
<polygon fill="#63b8ff" stroke="#63b8ff" points="180.34,-150.72 189.86,-146.05 179.51,-143.77 180.34,-150.72"/>
</a>
</g>
</g>
<!-- Node33 -->
<g id="Node000033" class="node">
<title>Node33</title>
<g id="a_Node000033"><a xlink:href="classSpan_1_1System.html#adda3b04cc8e931689a3e86a5cf91b16e" target="_top" xlink:title="所属しているワールドを取得します。">
<polygon fill="white" stroke="#666666" points="310.5,-106.23 176.5,-106.23 176.5,-87.23 310.5,-87.23 310.5,-106.23"/>
<text text-anchor="middle" x="243.5" y="-94.23" font-family="Helvetica,sans-Serif" font-size="10.00">Span::System::GetWorld</text>
</a>
</g>
</g>
<!-- Node1&#45;&gt;Node33 -->
<g id="edge34_Node000001_Node000033" class="edge">
<title>Node1&#45;&gt;Node33</title>
<g id="a_edge34_Node000001_Node000033"><a xlink:title=" ">
<path fill="none" stroke="#63b8ff" d="M98.06,-145.6C117.94,-136.16 144.61,-124.23 169,-115.73 175.93,-113.32 183.32,-111.06 190.65,-108.99"/>
<polygon fill="#63b8ff" stroke="#63b8ff" points="191.82,-112.31 200.55,-106.31 189.98,-105.55 191.82,-112.31"/>
</a>
</g>
</g>
<!-- Node3 -->
<g id="Node000003" class="node">
<title>Node3</title>
<g id="a_Node000003"><a xlink:href="classSpan_1_1Mesh.html#a778cd9c09642759f91c6f0cbe53503a1" target="_top" xlink:title="描画コマンドを発行します。">
<polygon fill="white" stroke="#666666" points="488,-411.23 384,-411.23 384,-392.23 488,-392.23 488,-411.23"/>
<text text-anchor="middle" x="436" y="-399.23" font-family="Helvetica,sans-Serif" font-size="10.00">Span::Mesh::Draw</text>
</a>
</g>
</g>
<!-- Node2&#45;&gt;Node3 -->
<g id="edge2_Node000002_Node000003" class="edge">
<title>Node2&#45;&gt;Node3</title>
<g id="a_edge2_Node000002_Node000003"><a xlink:title=" ">
<path fill="none" stroke="#63b8ff" d="M251.5,-288.35C267.26,-309.27 307.79,-359 354,-383.73 360.14,-387.02 366.86,-389.71 373.71,-391.91"/>
<polygon fill="#63b8ff" stroke="#63b8ff" points="373.21,-395.41 383.79,-394.79 375.14,-388.68 373.21,-395.41"/>
</a>
</g>
</g>
<!-- Node4 -->
<g id="Node000004" class="node">
<title>Node4</title>
<g id="a_Node000004"><a xlink:href="structSpan_1_1Matrix4x4.html#a4adf277b2c441fe8d2ea295a0c0a2610" target="_top" xlink:title=" ">
<polygon fill="white" stroke="#666666" points="507.5,-374.23 364.5,-374.23 364.5,-355.23 507.5,-355.23 507.5,-374.23"/>
<text text-anchor="middle" x="436" y="-362.23" font-family="Helvetica,sans-Serif" font-size="10.00">Span::Matrix4x4::FromXM</text>
</a>
</g>
</g>
<!-- Node2&#45;&gt;Node4 -->
<g id="edge3_Node000002_Node000004" class="edge">
<title>Node2&#45;&gt;Node4</title>
<g id="a_edge3_Node000002_Node000004"><a xlink:title=" ">
<path fill="none" stroke="#63b8ff" d="M257.25,-288.43C276.96,-302.96 316.48,-330.32 354,-345.73 360.19,-348.28 366.8,-350.52 373.47,-352.5"/>
<polygon fill="#63b8ff" stroke="#63b8ff" points="372.67,-355.91 383.24,-355.19 374.53,-349.16 372.67,-355.91"/>
</a>
</g>
</g>
<!-- Node5 -->
<g id="Node000005" class="node">
<title>Node5</title>
<g id="a_Node000005"><a xlink:href="classSpan_1_1Material.html#ac1ad98a9d8fdea157446dfa1ac6b8868" target="_top" xlink:title="GPUアドレス取得">
<polygon fill="white" stroke="#666666" points="518,-336.73 354,-336.73 354,-306.73 518,-306.73 518,-336.73"/>
<text text-anchor="start" x="362" y="-324.73" font-family="Helvetica,sans-Serif" font-size="10.00">Span::Material::GetGPUVirtual</text>
<text text-anchor="middle" x="436" y="-313.73" font-family="Helvetica,sans-Serif" font-size="10.00">Address</text>
</a>
</g>
</g>
<!-- Node2&#45;&gt;Node5 -->
<g id="edge4_Node000002_Node000005" class="edge">
<title>Node2&#45;&gt;Node5</title>
<g id="a_edge4_Node000002_Node000005"><a xlink:title=" ">
<path fill="none" stroke="#63b8ff" d="M286.78,-288.28C307.88,-293.04 334.06,-298.95 358.52,-304.47"/>
<polygon fill="#63b8ff" stroke="#63b8ff" points="357.99,-307.94 368.52,-306.73 359.53,-301.11 357.99,-307.94"/>
</a>
</g>
</g>
<!-- Node6 -->
<g id="Node000006" class="node">
<title>Node6</title>
<g id="a_Node000006"><a xlink:href="classSpan_1_1Texture.html#a1e117e901ab11ec8630ef240fa59de6b" target="_top" xlink:title="SRVヒープ自体 (ShaderVisibleではない、保管用)">
<polygon fill="white" stroke="#666666" points="511.5,-288.23 360.5,-288.23 360.5,-269.23 511.5,-269.23 511.5,-288.23"/>
<text text-anchor="middle" x="436" y="-276.23" font-family="Helvetica,sans-Serif" font-size="10.00">Span::Texture::GetSRVHeap</text>
</a>
</g>
</g>
<!-- Node2&#45;&gt;Node6 -->
<g id="edge5_Node000002_Node000006" class="edge">
<title>Node2&#45;&gt;Node6</title>
<g id="a_edge5_Node000002_Node000006"><a xlink:title=" ">
<path fill="none" stroke="#63b8ff" d="M318.15,-278.73C328.63,-278.73 339.47,-278.73 350.13,-278.73"/>
<polygon fill="#63b8ff" stroke="#63b8ff" points="350.29,-282.23 360.29,-278.73 350.29,-275.23 350.29,-282.23"/>
</a>
</g>
</g>
<!-- Node7 -->
<g id="Node000007" class="node">
<title>Node7</title>
<g id="a_Node000007"><a xlink:href="classSpan_1_1Material.html#a86c0606bf8664d79712976e16867afda" target="_top" xlink:title=" ">
<polygon fill="white" stroke="#666666" points="509,-251.23 363,-251.23 363,-232.23 509,-232.23 509,-251.23"/>
<text text-anchor="middle" x="436" y="-239.23" font-family="Helvetica,sans-Serif" font-size="10.00">Span::Material::GetTexture</text>
</a>
</g>
</g>
<!-- Node2&#45;&gt;Node7 -->
<g id="edge6_Node000002_Node000007" class="edge">
<title>Node2&#45;&gt;Node7</title>
<g id="a_edge6_Node000002_Node000007"><a xlink:title=" ">
<path fill="none" stroke="#63b8ff" d="M293.56,-269.21C318.68,-264.33 349.46,-258.35 375.88,-253.22"/>
<polygon fill="#63b8ff" stroke="#63b8ff" points="376.63,-256.64 385.78,-251.29 375.29,-249.77 376.63,-256.64"/>
</a>
</g>
</g>
<!-- Node8 -->
<g id="Node000008" class="node">
<title>Node8</title>
<g id="a_Node000008"><a xlink:href="classSpan_1_1Material.html#abc4ee804b2e3c79090588ddcb26eef8f" target="_top" xlink:title="マテリアルが透明か">
<polygon fill="white" stroke="#666666" points="515,-214.23 357,-214.23 357,-195.23 515,-195.23 515,-214.23"/>
<text text-anchor="middle" x="436" y="-202.23" font-family="Helvetica,sans-Serif" font-size="10.00">Span::Material::IsTransparent</text>
</a>
</g>
</g>
<!-- Node2&#45;&gt;Node8 -->
<g id="edge7_Node000002_Node000008" class="edge">
<title>Node2&#45;&gt;Node8</title>
<g id="a_edge7_Node000002_Node000008"><a xlink:title=" ">
<path fill="none" stroke="#63b8ff" d="M260.66,-269.1C281.56,-256.99 319.4,-236.28 354,-223.73 361.08,-221.17 368.64,-218.86 376.18,-216.81"/>
<polygon fill="#63b8ff" stroke="#63b8ff" points="377.25,-220.15 386.06,-214.26 375.5,-213.37 377.25,-220.15"/>
</a>
</g>
</g>
<!-- Node9 -->
<g id="Node000009" class="node">
<title>Node9</title>
<g id="a_Node000009"><a xlink:href="structSpan_1_1Matrix4x4.html#afc3f3a8aeeaac6aa4302a64b7568fbf3" target="_top" xlink:title=" ">
<polygon fill="white" stroke="#666666" points="500,-177.23 372,-177.23 372,-158.23 500,-158.23 500,-177.23"/>
<text text-anchor="middle" x="436" y="-165.23" font-family="Helvetica,sans-Serif" font-size="10.00">Span::Matrix4x4::ToXM</text>
</a>
</g>
</g>
<!-- Node2&#45;&gt;Node9 -->
<g id="edge8_Node000002_Node000009" class="edge">
<title>Node2&#45;&gt;Node9</title>
<g id="a_edge8_Node000002_Node000009"><a xlink:title=" ">
<path fill="none" stroke="#63b8ff" d="M253.08,-268.96C270.26,-250.02 310.94,-208.32 354,-186.73 358.84,-184.31 364,-182.18 369.29,-180.33"/>
<polygon fill="#63b8ff" stroke="#63b8ff" points="370.42,-183.64 378.89,-177.26 368.3,-176.97 370.42,-183.64"/>
</a>
</g>
</g>
<!-- Node10 -->
<g id="Node000010" class="node">
<title>Node10</title>
<g id="a_Node000010"><a xlink:href="classSpan_1_1Material.html#a879a957f83f3a9a274b3415614ffe18f" target="_top" xlink:title="変更がある場合、データをGPUへ転送します。">
<polygon fill="white" stroke="#666666" points="500,-448.23 372,-448.23 372,-429.23 500,-429.23 500,-448.23"/>
<text text-anchor="middle" x="436" y="-436.23" font-family="Helvetica,sans-Serif" font-size="10.00">Span::Material::Update</text>
</a>
</g>
</g>
<!-- Node2&#45;&gt;Node10 -->
<g id="edge9_Node000002_Node000010" class="edge">
<title>Node2&#45;&gt;Node10</title>
<g id="a_edge9_Node000002_Node000010"><a xlink:title=" ">
<path fill="none" stroke="#63b8ff" d="M249.02,-288.55C261.59,-314.66 299.62,-386.16 354,-420.73 356.65,-422.42 359.44,-423.95 362.31,-425.33"/>
<polygon fill="#63b8ff" stroke="#63b8ff" points="361.2,-428.66 371.78,-429.3 363.91,-422.21 361.2,-428.66"/>
</a>
</g>
</g>
<!-- Node12 -->
<g id="Node000012" class="node">
<title>Node12</title>
<g id="a_Node000012"><a xlink:href="classSpan_1_1Application.html#a0c44e973ca5db1d23a02a2cee66f5c11" target="_top" xlink:title=" ">
<polygon fill="white" stroke="#666666" points="489.5,-139.73 382.5,-139.73 382.5,-109.73 489.5,-109.73 489.5,-139.73"/>
<text text-anchor="start" x="390.5" y="-127.73" font-family="Helvetica,sans-Serif" font-size="10.00">Span::Application::</text>
<text text-anchor="middle" x="436" y="-116.73" font-family="Helvetica,sans-Serif" font-size="10.00">Application</text>
</a>
</g>
</g>
<!-- Node11&#45;&gt;Node12 -->
<g id="edge11_Node000011_Node000012" class="edge">
<title>Node11&#45;&gt;Node12</title>
<g id="a_edge11_Node000011_Node000012"><a xlink:title=" ">
<path fill="none" stroke="#63b8ff" d="M285.62,-173.2C296.26,-170.44 307.63,-167.22 318,-163.73 334.43,-158.22 337.67,-154.54 354,-148.73 359.99,-146.61 366.26,-144.51 372.57,-142.5"/>
<polygon fill="#63b8ff" stroke="#63b8ff" points="373.95,-145.74 382.45,-139.42 371.86,-139.06 373.95,-145.74"/>
</a>
</g>
</g>
<!-- Node13 -->
<g id="Node000013" class="node">
<title>Node13</title>
<g id="a_Node000013"><a xlink:href="namespaceSpan.html#a3f4b8561d46e69596ba6a7c3177a92e7" target="_top" xlink:title=" ">
<polygon fill="white" stroke="#666666" points="701.5,-153.23 560.5,-153.23 560.5,-134.23 701.5,-134.23 701.5,-153.23"/>
<text text-anchor="middle" x="631" y="-141.23" font-family="Helvetica,sans-Serif" font-size="10.00">Span::ConsoleCtrlHandler</text>
</a>
</g>
</g>
<!-- Node12&#45;&gt;Node13 -->
<g id="edge12_Node000012_Node000013" class="edge">
<title>Node12&#45;&gt;Node13</title>
<g id="a_edge12_Node000012_Node000013"><a xlink:title=" ">
<path fill="none" stroke="#63b8ff" d="M489.74,-129.93C508.36,-131.76 529.73,-133.86 550.09,-135.87"/>
<polygon fill="#63b8ff" stroke="#63b8ff" points="550.01,-139.38 560.31,-136.87 550.7,-132.41 550.01,-139.38"/>
</a>
</g>
</g>
<!-- Node15 -->
<g id="Node000015" class="node">
<title>Node15</title>
<g id="a_Node000015"><a xlink:href="classSpan_1_1AssetManager.html#a8b80e59ea529e23c8c8f5280d136fbf0" target="_top" xlink:title="シングルトンインスタンスを取得します。">
<polygon fill="white" stroke="#666666" points="701,-298.23 561,-298.23 561,-279.23 701,-279.23 701,-298.23"/>
<text text-anchor="middle" x="631" y="-286.23" font-family="Helvetica,sans-Serif" font-size="10.00">Span::AssetManager::Get</text>
</a>
</g>
</g>
<!-- Node12&#45;&gt;Node15 -->
<g id="edge15_Node000012_Node000015" class="edge">
<title>Node12&#45;&gt;Node15</title>
<g id="a_edge15_Node000012_Node000015"><a xlink:title=" ">
<path fill="none" stroke="#63b8ff" d="M489.62,-132.6C499.99,-136.15 510.1,-141.3 518,-148.73 552.1,-180.82 523.4,-212.3 554,-247.73 564.19,-259.53 578.65,-268.51 592.22,-275.02"/>
<polygon fill="#63b8ff" stroke="#63b8ff" points="590.85,-278.24 601.41,-279.13 593.71,-271.85 590.85,-278.24"/>
</a>
</g>
</g>
<!-- Node17 -->
<g id="Node000017" class="node">
<title>Node17</title>
<g id="a_Node000017"><a xlink:href="classSpan_1_1AssetManager.html#a69ad0e84f0e86f10a14693275d0872f2" target="_top" xlink:title="マネージャーを初期化します。">
<polygon fill="white" stroke="#666666" points="689,-238.73 573,-238.73 573,-208.73 689,-208.73 689,-238.73"/>
<text text-anchor="start" x="581" y="-226.73" font-family="Helvetica,sans-Serif" font-size="10.00">Span::AssetManager</text>
<text text-anchor="middle" x="631" y="-215.73" font-family="Helvetica,sans-Serif" font-size="10.00">::Initialize</text>
</a>
</g>
</g>
<!-- Node12&#45;&gt;Node17 -->
<g id="edge17_Node000012_Node000017" class="edge">
<title>Node12&#45;&gt;Node17</title>
<g id="a_edge17_Node000012_Node000017"><a xlink:title=" ">
<path fill="none" stroke="#63b8ff" d="M489.51,-134.71C499.54,-138.12 509.54,-142.67 518,-148.73 540.55,-164.9 531.6,-183.37 554,-199.73 557.03,-201.95 560.26,-203.96 563.63,-205.79"/>
<polygon fill="#63b8ff" stroke="#63b8ff" points="562.28,-209.02 572.81,-210.22 565.33,-202.72 562.28,-209.02"/>
</a>
</g>
</g>
<!-- Node26 -->
<g id="Node000026" class="node">
<title>Node26</title>
<g id="a_Node000026"><a xlink:href="classSpan_1_1GuiManager.html#ab78e1a284f6d5aced7912c00ab43c559" target="_top" xlink:title="ImGuiコンテキストとバックエンドを初期化します。">
<polygon fill="white" stroke="#666666" points="708,-190.23 554,-190.23 554,-171.23 708,-171.23 708,-190.23"/>
<text text-anchor="middle" x="631" y="-178.23" font-family="Helvetica,sans-Serif" font-size="10.00">Span::GuiManager::Initialize</text>
</a>
</g>
</g>
<!-- Node12&#45;&gt;Node26 -->
<g id="edge27_Node000012_Node000026" class="edge">
<title>Node12&#45;&gt;Node26</title>
<g id="a_edge27_Node000012_Node000026"><a xlink:title=" ">
<path fill="none" stroke="#63b8ff" d="M489.43,-139.78C498.96,-142.66 508.8,-145.71 518,-148.73 534.16,-154.04 537.73,-156.78 554,-161.73 561.86,-164.13 570.25,-166.45 578.47,-168.61"/>
<polygon fill="#63b8ff" stroke="#63b8ff" points="577.82,-172.05 588.37,-171.14 579.55,-165.27 577.82,-172.05"/>
</a>
</g>
</g>
<!-- Node29 -->
<g id="Node000029" class="node">
<title>Node29</title>
<g id="a_Node000029"><a xlink:href="classSpan_1_1Input.html#aac6e8f1cf694b484ed01742f2d16d63c" target="_top" xlink:title=" ">
<polygon fill="white" stroke="#666666" points="690.5,-116.23 571.5,-116.23 571.5,-97.23 690.5,-97.23 690.5,-116.23"/>
<text text-anchor="middle" x="631" y="-104.23" font-family="Helvetica,sans-Serif" font-size="10.00">Span::Input::Initialize</text>
</a>
</g>
</g>
<!-- Node12&#45;&gt;Node29 -->
<g id="edge30_Node000012_Node000029" class="edge">
<title>Node12&#45;&gt;Node29</title>
<g id="a_edge30_Node000012_Node000029"><a xlink:title=" ">
<path fill="none" stroke="#63b8ff" d="M489.74,-119.82C511.71,-117.77 537.52,-115.36 560.97,-113.17"/>
<polygon fill="#63b8ff" stroke="#63b8ff" points="561.58,-116.63 571.21,-112.22 560.93,-109.66 561.58,-116.63"/>
</a>
</g>
</g>
<!-- Node30 -->
<g id="Node000030" class="node">
<title>Node30</title>
<g id="a_Node000030"><a xlink:href="classSpan_1_1Logger.html#a557d77ccfa31551817d7b28d985866c8" target="_top" xlink:title="ロガーを初期化し、ログファイルを開きます。">
<polygon fill="white" stroke="#666666" points="695,-79.23 567,-79.23 567,-60.23 695,-60.23 695,-79.23"/>
<text text-anchor="middle" x="631" y="-67.23" font-family="Helvetica,sans-Serif" font-size="10.00">Span::Logger::Initialize</text>
</a>
</g>
</g>
<!-- Node12&#45;&gt;Node30 -->
<g id="edge31_Node000012_Node000030" class="edge">
<title>Node12&#45;&gt;Node30</title>
<g id="a_edge31_Node000012_Node000030"><a xlink:title=" ">
<path fill="none" stroke="#63b8ff" d="M481.77,-109.72C503.47,-102.67 529.97,-94.37 554,-87.73 561.54,-85.65 569.53,-83.6 577.4,-81.66"/>
<polygon fill="#63b8ff" stroke="#63b8ff" points="578.35,-85.03 587.25,-79.28 576.71,-78.23 578.35,-85.03"/>
</a>
</g>
</g>
<!-- Node31 -->
<g id="Node000031" class="node">
<title>Node31</title>
<g id="a_Node000031"><a xlink:href="classSpan_1_1Time.html#ae9e018cd0d5a3b34b773e80c750860e7" target="_top" xlink:title="初期化（エンジン起動時）">
<polygon fill="white" stroke="#666666" points="690.5,-42.23 571.5,-42.23 571.5,-23.23 690.5,-23.23 690.5,-42.23"/>
<text text-anchor="middle" x="631" y="-30.23" font-family="Helvetica,sans-Serif" font-size="10.00">Span::Time::Initialize</text>
</a>
</g>
</g>
<!-- Node12&#45;&gt;Node31 -->
<g id="edge32_Node000012_Node000031" class="edge">
<title>Node12&#45;&gt;Node31</title>
<g id="a_edge32_Node000012_Node000031"><a xlink:title=" ">
<path fill="none" stroke="#63b8ff" d="M456.58,-109.46C478.95,-92.73 517.23,-66.21 554,-50.73 559,-48.63 564.29,-46.75 569.66,-45.06"/>
<polygon fill="#63b8ff" stroke="#63b8ff" points="570.75,-48.39 579.37,-42.24 568.79,-41.67 570.75,-48.39"/>
</a>
</g>
</g>
<!-- Node14 -->
<g id="Node000014" class="node">
<title>Node14</title>
<g id="a_Node000014"><a xlink:href="classSpan_1_1Application.html#a095598d0c2e753bfb8d00acee435980f" target="_top" xlink:title="シングルトンインスタンスのポインタ取得 (存在チェック用)">
<polygon fill="white" stroke="#666666" points="886.5,-60.23 765.5,-60.23 765.5,-41.23 886.5,-41.23 886.5,-60.23"/>
<text text-anchor="middle" x="826" y="-48.23" font-family="Helvetica,sans-Serif" font-size="10.00">Span::Application::Ptr</text>
</a>
</g>
</g>
<!-- Node13&#45;&gt;Node14 -->
<g id="edge13_Node000013_Node000014" class="edge">
<title>Node13&#45;&gt;Node14</title>
<g id="a_edge13_Node000013_Node000014"><a xlink:title=" ">
<path fill="none" stroke="#63b8ff" d="M680.2,-134.15C689.6,-131.6 699.25,-128.48 708,-124.73 744.28,-109.2 782.16,-83.15 804.65,-66.46"/>
<polygon fill="#63b8ff" stroke="#63b8ff" points="806.88,-69.17 812.76,-60.36 802.66,-63.58 806.88,-69.17"/>
</a>
</g>
</g>
<!-- Node14&#45;&gt;Node12 -->
<g id="edge14_Node000014_Node000012" class="edge">
<title>Node14&#45;&gt;Node12</title>
<g id="a_edge14_Node000014_Node000012"><a xlink:title=" ">
<path fill="none" stroke="#63b8ff" d="M804.43,-41.15C758,-20.92 642.21,21.45 554,-13.73 509.88,-31.33 472.86,-74.35 452.9,-101.37"/>
<polygon fill="#63b8ff" stroke="#63b8ff" points="450.03,-99.37 447.03,-109.53 455.71,-103.45 450.03,-99.37"/>
</a>
</g>
</g>
<!-- Node16 -->
<g id="Node000016" class="node">
<title>Node16</title>
<g id="a_Node000016"><a xlink:href="classSpan_1_1AssetManager.html#a9d65496b728f9a4fef2a5334d5a8ad56" target="_top" xlink:title=" ">
<polygon fill="white" stroke="#666666" points="884,-324.73 768,-324.73 768,-294.73 884,-294.73 884,-324.73"/>
<text text-anchor="start" x="776" y="-312.73" font-family="Helvetica,sans-Serif" font-size="10.00">Span::AssetManager</text>
<text text-anchor="middle" x="826" y="-301.73" font-family="Helvetica,sans-Serif" font-size="10.00">::AssetManager</text>
</a>
</g>
</g>
<!-- Node15&#45;&gt;Node16 -->
<g id="edge16_Node000015_Node000016" class="edge">
<title>Node15&#45;&gt;Node16</title>
<g id="a_edge16_Node000015_Node000016"><a xlink:title=" ">
<path fill="none" stroke="#63b8ff" d="M701.13,-296.26C719.57,-298.26 739.45,-300.43 757.79,-302.42"/>
<polygon fill="#63b8ff" stroke="#63b8ff" points="757.47,-305.91 767.79,-303.51 758.23,-298.95 757.47,-305.91"/>
</a>
</g>
</g>
<!-- Node18 -->
<g id="Node000018" class="node">
<title>Node18</title>
<g id="a_Node000018"><a xlink:href="classSpan_1_1AssetRegistry.html#a2b83eeb5aa2e6d4c807d4e4a11db563c" target="_top" xlink:title=" ">
<polygon fill="white" stroke="#666666" points="894.5,-276.23 757.5,-276.23 757.5,-257.23 894.5,-257.23 894.5,-276.23"/>
<text text-anchor="middle" x="826" y="-264.23" font-family="Helvetica,sans-Serif" font-size="10.00">Span::AssetRegistry::Get</text>
</a>
</g>
</g>
<!-- Node17&#45;&gt;Node18 -->
<g id="edge18_Node000017_Node000018" class="edge">
<title>Node17&#45;&gt;Node18</title>
<g id="a_edge18_Node000017_Node000018"><a xlink:title=" ">
<path fill="none" stroke="#63b8ff" d="M689.12,-236.46C715.42,-242.32 746.43,-249.23 772.18,-254.97"/>
<polygon fill="#63b8ff" stroke="#63b8ff" points="771.61,-258.43 782.13,-257.18 773.13,-251.59 771.61,-258.43"/>
</a>
</g>
</g>
<!-- Node19 -->
<g id="Node000019" class="node">
<title>Node19</title>
<g id="a_Node000019"><a xlink:href="classSpan_1_1AssetRegistry.html#a71c0e006b41117cb0b296adaf0de1c56" target="_top" xlink:title="指定ディレクトリ以下の全アセットをスキャンし、レジストリを構築します。">
<polygon fill="white" stroke="#666666" points="883,-238.73 769,-238.73 769,-208.73 883,-208.73 883,-238.73"/>
<text text-anchor="start" x="777" y="-226.73" font-family="Helvetica,sans-Serif" font-size="10.00">Span::AssetRegistry</text>
<text text-anchor="middle" x="826" y="-215.73" font-family="Helvetica,sans-Serif" font-size="10.00">::Refresh</text>
</a>
</g>
</g>
<!-- Node17&#45;&gt;Node19 -->
<g id="edge19_Node000017_Node000019" class="edge">
<title>Node17&#45;&gt;Node19</title>
<g id="a_edge19_Node000017_Node000019"><a xlink:title=" ">
<path fill="none" stroke="#63b8ff" d="M689.12,-223.73C710.91,-223.73 735.92,-223.73 758.51,-223.73"/>
<polygon fill="#63b8ff" stroke="#63b8ff" points="758.69,-227.23 768.69,-223.73 758.69,-220.23 758.69,-227.23"/>
</a>
</g>
</g>
<!-- Node20 -->
<g id="Node000020" class="node">
<title>Node20</title>
<g id="a_Node000020"><a xlink:href="classSpan_1_1AssetRegistry.html#a432dbe6ae1b0ab930bd903d93ad5a734" target="_top" xlink:title="パスからアセット情報を登録・更新します (ファイル移動/作成時用)。">
<polygon fill="white" stroke="#666666" points="1058,-238.73 944,-238.73 944,-208.73 1058,-208.73 1058,-238.73"/>
<text text-anchor="start" x="952" y="-226.73" font-family="Helvetica,sans-Serif" font-size="10.00">Span::AssetRegistry</text>
<text text-anchor="middle" x="1001" y="-215.73" font-family="Helvetica,sans-Serif" font-size="10.00">::RegisterAsset</text>
</a>
</g>
</g>
<!-- Node19&#45;&gt;Node20 -->
<g id="edge20_Node000019_Node000020" class="edge">
<title>Node19&#45;&gt;Node20</title>
<g id="a_edge20_Node000019_Node000020"><a xlink:title=" ">
<path fill="none" stroke="#63b8ff" d="M883.17,-223.73C899.26,-223.73 916.96,-223.73 933.61,-223.73"/>
<polygon fill="#63b8ff" stroke="#63b8ff" points="933.82,-227.23 943.82,-223.73 933.82,-220.23 933.82,-227.23"/>
</a>
</g>
</g>
<!-- Node21 -->
<g id="Node000021" class="node">
<title>Node21</title>
<g id="a_Node000021"><a xlink:href="structSpan_1_1AssetMetadata.html#a83c8ed8bfd79a2aa90ed8d4e36b785b8" target="_top" xlink:title=" ">
<polygon fill="white" stroke="#666666" points="1403.5,-265.73 1283.5,-265.73 1283.5,-235.73 1403.5,-235.73 1403.5,-265.73"/>
<text text-anchor="start" x="1291.5" y="-253.73" font-family="Helvetica,sans-Serif" font-size="10.00">Span::AssetMetadata</text>
<text text-anchor="middle" x="1343.5" y="-242.73" font-family="Helvetica,sans-Serif" font-size="10.00">::IsValid</text>
</a>
</g>
</g>
<!-- Node20&#45;&gt;Node21 -->
<g id="edge21_Node000020_Node000021" class="edge">
<title>Node20&#45;&gt;Node21</title>
<g id="a_edge21_Node000020_Node000021"><a xlink:title=" ">
<path fill="none" stroke="#63b8ff" d="M1058.23,-228.19C1117.09,-232.86 1209.62,-240.2 1273.02,-245.23"/>
<polygon fill="#63b8ff" stroke="#63b8ff" points="1273.08,-248.74 1283.33,-246.04 1273.64,-241.76 1273.08,-248.74"/>
</a>
</g>
</g>
<!-- Node22 -->
<g id="Node000022" class="node">
<title>Node22</title>
<g id="a_Node000022"><a xlink:href="classSpan_1_1AssetSerializer.html#adea72d3eb1434b36473f6e0d38396451" target="_top" xlink:title="指定したアセットのメタデータを取得します。 .metaファイルが存在しない場合は、新規にGUIDを生成して作成します。">
<polygon fill="white" stroke="#666666" points="1230,-217.73 1094,-217.73 1094,-187.73 1230,-187.73 1230,-217.73"/>
<text text-anchor="start" x="1102" y="-205.73" font-family="Helvetica,sans-Serif" font-size="10.00">Span::AssetSerializer</text>
<text text-anchor="middle" x="1162" y="-194.73" font-family="Helvetica,sans-Serif" font-size="10.00">::LoadOrCreateMetadata</text>
</a>
</g>
</g>
<!-- Node20&#45;&gt;Node22 -->
<g id="edge22_Node000020_Node000022" class="edge">
<title>Node20&#45;&gt;Node22</title>
<g id="a_edge22_Node000020_Node000022"><a xlink:title=" ">
<path fill="none" stroke="#63b8ff" d="M1058.06,-216.33C1066.35,-215.24 1075.01,-214.09 1083.64,-212.95"/>
<polygon fill="#63b8ff" stroke="#63b8ff" points="1084.28,-216.4 1093.73,-211.62 1083.36,-209.46 1084.28,-216.4"/>
</a>
</g>
</g>
<!-- Node22&#45;&gt;Node21 -->
<g id="edge24_Node000022_Node000021" class="edge">
<title>Node22&#45;&gt;Node21</title>
<g id="a_edge24_Node000022_Node000021"><a xlink:title=" ">
<path fill="none" stroke="#63b8ff" d="M1219.3,-217.79C1237.51,-222.66 1257.87,-228.1 1276.71,-233.14"/>
<polygon fill="#63b8ff" stroke="#63b8ff" points="1275.83,-236.53 1286.4,-235.73 1277.64,-229.77 1275.83,-236.53"/>
</a>
</g>
</g>
<!-- Node23 -->
<g id="Node000023" class="node">
<title>Node23</title>
<g id="a_Node000023"><a xlink:href="classSpan_1_1AssetSerializer.html#a39e6a3bea02531fc2c31683a27d52061" target="_top" xlink:title="拡張子から汗ッとタイプを推論します。">
<polygon fill="white" stroke="#666666" points="1421,-169.73 1266,-169.73 1266,-139.73 1421,-139.73 1421,-169.73"/>
<text text-anchor="start" x="1274" y="-157.73" font-family="Helvetica,sans-Serif" font-size="10.00">Span::AssetSerializer</text>
<text text-anchor="middle" x="1343.5" y="-146.73" font-family="Helvetica,sans-Serif" font-size="10.00">::DeduceTypeFromExtension</text>
</a>
</g>
</g>
<!-- Node22&#45;&gt;Node23 -->
<g id="edge23_Node000022_Node000023" class="edge">
<title>Node22&#45;&gt;Node23</title>
<g id="a_edge23_Node000022_Node000023"><a xlink:title=" ">
<path fill="none" stroke="#63b8ff" d="M1219.3,-187.68C1237.51,-182.81 1257.87,-177.37 1276.71,-172.33"/>
<polygon fill="#63b8ff" stroke="#63b8ff" points="1277.64,-175.7 1286.4,-169.74 1275.83,-168.94 1277.64,-175.7"/>
</a>
</g>
</g>
<!-- Node24 -->
<g id="Node000024" class="node">
<title>Node24</title>
<g id="a_Node000024"><a xlink:href="namespaceSpan.html#a8ba99036404afdb464fdc44c3dbc7136" target="_top" xlink:title=" ">
<polygon fill="white" stroke="#666666" points="1388.5,-121.23 1298.5,-121.23 1298.5,-102.23 1388.5,-102.23 1388.5,-121.23"/>
<text text-anchor="middle" x="1343.5" y="-109.23" font-family="Helvetica,sans-Serif" font-size="10.00">Span::s_Engine</text>
</a>
</g>
</g>
<!-- Node22&#45;&gt;Node24 -->
<g id="edge25_Node000022_Node000024" class="edge">
<title>Node22&#45;&gt;Node24</title>
<g id="a_edge25_Node000022_Node000024"><a xlink:title=" ">
<path fill="none" stroke="#63b8ff" d="M1180.37,-187.56C1199.91,-171.24 1233.23,-145.64 1266,-130.73 1273.09,-127.51 1280.82,-124.78 1288.54,-122.48"/>
<polygon fill="#63b8ff" stroke="#63b8ff" points="1289.56,-125.83 1298.28,-119.8 1287.7,-119.08 1289.56,-125.83"/>
</a>
</g>
</g>
<!-- Node25 -->
<g id="Node000025" class="node">
<title>Node25</title>
<g id="a_Node000025"><a xlink:href="classSpan_1_1AssetSerializer.html#a0eb09ea936ef7cf65184977a5809ef6b" target="_top" xlink:title="メタデータをファイルに保存する。">
<polygon fill="white" stroke="#666666" points="1403,-217.73 1284,-217.73 1284,-187.73 1403,-187.73 1403,-217.73"/>
<text text-anchor="start" x="1292" y="-205.73" font-family="Helvetica,sans-Serif" font-size="10.00">Span::AssetSerializer</text>
<text text-anchor="middle" x="1343.5" y="-194.73" font-family="Helvetica,sans-Serif" font-size="10.00">::SaveMetadata</text>
</a>
</g>
</g>
<!-- Node22&#45;&gt;Node25 -->
<g id="edge26_Node000022_Node000025" class="edge">
<title>Node22&#45;&gt;Node25</title>
<g id="a_edge26_Node000022_Node000025"><a xlink:title=" ">
<path fill="none" stroke="#63b8ff" d="M1230.09,-202.73C1244.28,-202.73 1259.27,-202.73 1273.52,-202.73"/>
<polygon fill="#63b8ff" stroke="#63b8ff" points="1273.74,-206.23 1283.74,-202.73 1273.74,-199.23 1273.74,-206.23"/>
</a>
</g>
</g>
<!-- Node27 -->
<g id="Node000027" class="node">
<title>Node27</title>
<g id="a_Node000027"><a xlink:href="classSpan_1_1GuiManager.html#a79fd10d93a58b741c10bd8c8477afc0a" target="_top" xlink:title="管理対象のエディタパネルを追加します。">
<polygon fill="white" stroke="#666666" points="904.5,-190.23 747.5,-190.23 747.5,-171.23 904.5,-171.23 904.5,-190.23"/>
<text text-anchor="middle" x="826" y="-178.23" font-family="Helvetica,sans-Serif" font-size="10.00">Span::GuiManager::AddPanel</text>
</a>
</g>
</g>
<!-- Node26&#45;&gt;Node27 -->
<g id="edge28_Node000026_Node000027" class="edge">
<title>Node26&#45;&gt;Node27</title>
<g id="a_edge28_Node000026_Node000027"><a xlink:title=" ">
<path fill="none" stroke="#63b8ff" d="M708,-180.73C717.63,-180.73 727.55,-180.73 737.34,-180.73"/>
<polygon fill="#63b8ff" stroke="#63b8ff" points="737.48,-184.23 747.48,-180.73 737.48,-177.23 737.48,-184.23"/>
</a>
</g>
</g>
<!-- Node28 -->
<g id="Node000028" class="node">
<title>Node28</title>
<g id="a_Node000028"><a xlink:href="classSpan_1_1GuiManager.html#ad8ff21c11b12bff5ee5b454a4dae33d0" target="_top" xlink:title="フォントや配色などのスタイル設定を適用します。">
<polygon fill="white" stroke="#666666" points="908,-153.23 744,-153.23 744,-134.23 908,-134.23 908,-153.23"/>
<text text-anchor="middle" x="826" y="-141.23" font-family="Helvetica,sans-Serif" font-size="10.00">Span::GuiManager::ApplyStyle</text>
</a>
</g>
</g>
<!-- Node26&#45;&gt;Node28 -->
<g id="edge29_Node000026_Node000028" class="edge">
<title>Node26&#45;&gt;Node28</title>
<g id="a_edge29_Node000026_Node000028"><a xlink:title=" ">
<path fill="none" stroke="#63b8ff" d="M681.7,-171.21C707.15,-166.33 738.34,-160.35 765.11,-155.22"/>
<polygon fill="#63b8ff" stroke="#63b8ff" points="765.97,-158.62 775.13,-153.29 764.65,-151.74 765.97,-158.62"/>
</a>
</g>
</g>
</g>
</svg>

<g id="navigator" transform="translate(0 0)" fill="#404254">
  <rect fill="#f2f5e9" fill-opacity="0.5" stroke="#606060" stroke-width=".5" x="0" y="0" width="60" height="60"/>
  <use id="zoomplus" xlink:href="#zoomPlus" x="17" y="9" onmousedown="handleZoom(evt,'in')"/>
  <use id="zoomminus" xlink:href="#zoomMin" x="42" y="9" onmousedown="handleZoom(evt,'out')"/>
  <use id="reset" xlink:href="#resetDef" x="30" y="36" onmousedown="handleReset()"/>
   <use id="arrowup" xlink:href="#arrowUp" x="0" y="0" onmousedown="handlePan(0,-1)"/>
  <use id="arrowright" xlink:href="#arrowRight" x="0" y="0" onmousedown="handlePan(1,0)"/>
  <use id="arrowdown" xlink:href="#arrowDown" x="0" y="0" onmousedown="handlePan(0,1)"/>
  <use id="arrowleft" xlink:href="#arrowLeft" x="0" y="0" onmousedown="handlePan(-1,0)"/>
</g>
<svg viewBox="0 0 15 15" width="100%" height="30px" preserveAspectRatio="xMaxYMin meet">
 <g id="arrow_out" transform="scale(0.3 0.3)">
  <a xlink:href="classSpan_1_1RenderingSystem_aa0113a8f2b55129115c4da2c6ba449c4_cgraph_org.svg" target="_base">
   <rect id="button" ry="5" rx="5" y="6" x="6" height="38" width="38"
        fill="#f2f5e9" fill-opacity="0.5" stroke="#606060" stroke-width="1.0"/>
   <path id="arrow"
     d="M 11.500037,31.436501 C 11.940474,20.09759 22.043105,11.32322 32.158766,21.979434 L 37.068811,17.246167 C 37.068811,17.246167 37.088388,32 37.088388,32 L 22.160133,31.978069 C 22.160133,31.978069 26.997745,27.140456 26.997745,27.140456 C 18.528582,18.264221 13.291696,25.230495 11.500037,31.436501 z"
     style="fill:#404040;"/>
  </a>
 </g>
</svg>

<style type='text/css'>
<![CDATA[
[data-mouse-over-selected='false'] { opacity: 0.7; }
[data-mouse-over-selected='true']  { opacity: 1.0; }
]]>
</style>
<script type="application/ecmascript"><![CDATA[
document.addEventListener('DOMContentLoaded', (event) => {
  highlightEdges();
  highlightAdjacentNodes();
});
]]></script>
</svg>
