<?xml version="1.0" encoding="UTF-8" standalone="no"?>
<!DOCTYPE svg PUBLIC "-//W3C//DTD SVG 1.1//EN"
 "http://www.w3.org/Graphics/SVG/1.1/DTD/svg11.dtd">
<!-- Generated by graphviz version 2.43.0 (0)
 -->
<!-- Title: Span::AssetSerializer::DeduceTypeFromExtension Pages: 1 -->
<!--zoomable 579 -->

<svg id="main" version="1.1" xmlns="http://www.w3.org/2000/svg" xmlns:xlink="http://www.w3.org/1999/xlink" xml:space="preserve" onload="init(evt)">

<style type="text/css"><![CDATA[
.node, .edge {opacity: 0.7;}
.node.selected, .edge.selected {opacity: 1;}
.edge:hover path { stroke: red; }
.edge:hover polygon { stroke: red; fill: red; }
]]></style>

<defs>
  <circle id="rim" cx="0" cy="0" r="7"/>
  <circle id="rim2" cx="0" cy="0" r="3.5"/>
  <g id="zoomPlus">
    <use xlink:href="#rim" fill="#404040"><set attributeName="fill" to="#808080" begin="zoomplus.mouseover" end="zoomplus.mouseout"/></use>
    <path d="M-4,0h8M0,-4v8" fill="none" stroke="white" stroke-width="1.5" pointer-events="none"/>
  </g>
  <g id="zoomMin">
    <use xlink:href="#rim" fill="#404040"><set attributeName="fill" to="#808080" begin="zoomminus.mouseover" end="zoomminus.mouseout"/></use>
    <path d="M-4,0h8" fill="none" stroke="white" stroke-width="1.5" pointer-events="none"/>
  </g>
  <g id="arrowUp" transform="translate(30 24)">
    <use xlink:href="#rim"/>
    <path pointer-events="none" fill="none" stroke="white" stroke-width="1.5" d="M0,-3.0v7 M-2.5,-0.5L0,-3.0L2.5,-0.5"/>
  </g>
  <g id="arrowRight" transform="rotate(90) translate(36 -43)">
    <use xlink:href="#rim"/>
    <path pointer-events="none" fill="none" stroke="white" stroke-width="1.5" d="M0,-3.0v7 M-2.5,-0.5L0,-3.0L2.5,-0.5"/>
  </g>
  <g id="arrowDown" transform="rotate(180) translate(-30 -48)">
    <use xlink:href="#rim"/>
    <path pointer-events="none" fill="none" stroke="white" stroke-width="1.5" d="M0,-3.0v7 M-2.5,-0.5L0,-3.0L2.5,-0.5"/>
  </g>
  <g id="arrowLeft" transform="rotate(270) translate(-36 17)">
    <use xlink:href="#rim"/>
    <path pointer-events="none" fill="none" stroke="white" stroke-width="1.5" d="M0,-3.0v7 M-2.5,-0.5L0,-3.0L2.5,-0.5"/>
  </g>
  <g id="resetDef">
    <use xlink:href="#rim2" fill="#404040"><set attributeName="fill" to="#808080" begin="reset.mouseover" end="reset.mouseout"/></use>
  </g>
</defs>
<script type="application/ecmascript">
var viewWidth = 1707;
var viewHeight = 579;
var sectionId = 'dynsection-1';
</script>
<script type="application/ecmascript" xlink:href="svg.min.js"/>
<svg id="graph" class="graph">
<g id="viewport">
<title>Span::AssetSerializer::DeduceTypeFromExtension</title>
<!-- Node1 -->
<g id="Node000001" class="node">
<title>Node1</title>
<g id="a_Node000001"><a xlink:title="拡張子から汗ッとタイプを推論します。">
<polygon fill="#999999" stroke="#666666" points="1699,-100 1544,-100 1544,-70 1699,-70 1699,-100"/>
<text text-anchor="start" x="1552" y="-88" font-family="Helvetica,sans-Serif" font-size="10.00">Span::AssetSerializer</text>
<text text-anchor="middle" x="1621.5" y="-77" font-family="Helvetica,sans-Serif" font-size="10.00">::DeduceTypeFromExtension</text>
</a>
</g>
</g>
<!-- Node2 -->
<g id="Node000002" class="node">
<title>Node2</title>
<g id="a_Node000002"><a xlink:href="classSpan_1_1AssetSerializer.html#adea72d3eb1434b36473f6e0d38396451" target="_top" xlink:title="指定したアセットのメタデータを取得します。 .metaファイルが存在しない場合は、新規にGUIDを生成して作成します。">
<polygon fill="white" stroke="#666666" points="1508,-100 1372,-100 1372,-70 1508,-70 1508,-100"/>
<text text-anchor="start" x="1380" y="-88" font-family="Helvetica,sans-Serif" font-size="10.00">Span::AssetSerializer</text>
<text text-anchor="middle" x="1440" y="-77" font-family="Helvetica,sans-Serif" font-size="10.00">::LoadOrCreateMetadata</text>
</a>
</g>
</g>
<!-- Node1&#45;&gt;Node2 -->
<g id="edge1_Node000001_Node000002" class="edge">
<title>Node1&#45;&gt;Node2</title>
<g id="a_edge1_Node000001_Node000002"><a xlink:title=" ">
<path fill="none" stroke="#63b8ff" d="M1533.75,-85C1525.11,-85 1516.43,-85 1508.04,-85"/>
<polygon fill="#63b8ff" stroke="#63b8ff" points="1533.86,-88.5 1543.86,-85 1533.86,-81.5 1533.86,-88.5"/>
</a>
</g>
</g>
<!-- Node3 -->
<g id="Node000003" class="node">
<title>Node3</title>
<g id="a_Node000003"><a xlink:href="classSpan_1_1ProjectBrowserPanel.html#a3877e936c3c6ee4b522ea63dc65dfd3b" target="_top" xlink:title="右側のファイル/アセット一覧エリアを描画します。">
<polygon fill="white" stroke="#666666" points="1336,-171 1190,-171 1190,-141 1336,-141 1336,-171"/>
<text text-anchor="start" x="1198" y="-159" font-family="Helvetica,sans-Serif" font-size="10.00">Span::ProjectBrowserPanel</text>
<text text-anchor="middle" x="1263" y="-148" font-family="Helvetica,sans-Serif" font-size="10.00">::DrawContentArea</text>
</a>
</g>
</g>
<!-- Node2&#45;&gt;Node3 -->
<g id="edge2_Node000002_Node000003" class="edge">
<title>Node2&#45;&gt;Node3</title>
<g id="a_edge2_Node000002_Node000003"><a xlink:title=" ">
<path fill="none" stroke="#63b8ff" d="M1392.5,-103.87C1363.89,-115.47 1327.73,-130.14 1301.06,-140.96"/>
<polygon fill="#63b8ff" stroke="#63b8ff" points="1393.94,-107.06 1401.89,-100.06 1391.3,-100.57 1393.94,-107.06"/>
</a>
</g>
</g>
<!-- Node5 -->
<g id="Node000005" class="node">
<title>Node5</title>
<g id="a_Node000005"><a xlink:href="classSpan_1_1AssetManager.html#ade6d0e8b7b3467e28cfd5af72896c89b" target="_top" xlink:title="メッシュデータを取得します (キャッシュ対応)。">
<polygon fill="white" stroke="#666666" points="1139,-126 1023,-126 1023,-96 1139,-96 1139,-126"/>
<text text-anchor="start" x="1031" y="-114" font-family="Helvetica,sans-Serif" font-size="10.00">Span::AssetManager</text>
<text text-anchor="middle" x="1081" y="-103" font-family="Helvetica,sans-Serif" font-size="10.00">::GetMesh</text>
</a>
</g>
</g>
<!-- Node2&#45;&gt;Node5 -->
<g id="edge4_Node000002_Node000005" class="edge">
<title>Node2&#45;&gt;Node5</title>
<g id="a_edge4_Node000002_Node000005"><a xlink:title=" ">
<path fill="none" stroke="#63b8ff" d="M1361.77,-90.62C1294.81,-95.5 1199.42,-102.45 1139.13,-106.84"/>
<polygon fill="#63b8ff" stroke="#63b8ff" points="1362.13,-94.11 1371.85,-89.89 1361.62,-87.13 1362.13,-94.11"/>
</a>
</g>
</g>
<!-- Node6 -->
<g id="Node000006" class="node">
<title>Node6</title>
<g id="a_Node000006"><a xlink:href="classSpan_1_1AssetManager.html#a93b56de9af3fadbc0ff27f1e21e44291" target="_top" xlink:title="テクスチャを取得します (キャッシュにあればそれを返し、無ければロードします)。">
<polygon fill="white" stroke="#666666" points="1139,-30 1023,-30 1023,0 1139,0 1139,-30"/>
<text text-anchor="start" x="1031" y="-18" font-family="Helvetica,sans-Serif" font-size="10.00">Span::AssetManager</text>
<text text-anchor="middle" x="1081" y="-7" font-family="Helvetica,sans-Serif" font-size="10.00">::GetTexture</text>
</a>
</g>
</g>
<!-- Node2&#45;&gt;Node6 -->
<g id="edge5_Node000002_Node000006" class="edge">
<title>Node2&#45;&gt;Node6</title>
<g id="a_edge5_Node000002_Node000006"><a xlink:title=" ">
<path fill="none" stroke="#63b8ff" d="M1402.01,-65.47C1382.83,-56.22 1358.72,-45.92 1336,-40 1269.86,-22.76 1191.21,-17.22 1139.14,-15.54"/>
<polygon fill="#63b8ff" stroke="#63b8ff" points="1400.49,-68.62 1411,-69.9 1403.58,-62.34 1400.49,-68.62"/>
</a>
</g>
</g>
<!-- Node7 -->
<g id="Node000007" class="node">
<title>Node7</title>
<g id="a_Node000007"><a xlink:href="classSpan_1_1AssetRegistry.html#a432dbe6ae1b0ab930bd903d93ad5a734" target="_top" xlink:title="パスからアセット情報を登録・更新します (ファイル移動/作成時用)。">
<polygon fill="white" stroke="#666666" points="1320,-79 1206,-79 1206,-49 1320,-49 1320,-79"/>
<text text-anchor="start" x="1214" y="-67" font-family="Helvetica,sans-Serif" font-size="10.00">Span::AssetRegistry</text>
<text text-anchor="middle" x="1263" y="-56" font-family="Helvetica,sans-Serif" font-size="10.00">::RegisterAsset</text>
</a>
</g>
</g>
<!-- Node2&#45;&gt;Node7 -->
<g id="edge6_Node000002_Node000007" class="edge">
<title>Node2&#45;&gt;Node7</title>
<g id="a_edge6_Node000002_Node000007"><a xlink:title=" ">
<path fill="none" stroke="#63b8ff" d="M1361.74,-75.73C1347.75,-74.05 1333.41,-72.33 1320.18,-70.74"/>
<polygon fill="#63b8ff" stroke="#63b8ff" points="1361.5,-79.22 1371.84,-76.94 1362.33,-72.27 1361.5,-79.22"/>
</a>
</g>
</g>
<!-- Node4 -->
<g id="Node000004" class="node">
<title>Node4</title>
<g id="a_Node000004"><a xlink:href="classSpan_1_1ProjectBrowserPanel.html#ad259c8cf9a9c066350b699f9cd14438e" target="_top" xlink:title="GUI描画の更新処理">
<polygon fill="white" stroke="#666666" points="1154,-174 1008,-174 1008,-144 1154,-144 1154,-174"/>
<text text-anchor="start" x="1016" y="-162" font-family="Helvetica,sans-Serif" font-size="10.00">Span::ProjectBrowserPanel</text>
<text text-anchor="middle" x="1081" y="-151" font-family="Helvetica,sans-Serif" font-size="10.00">::OnImGuiRender</text>
</a>
</g>
</g>
<!-- Node3&#45;&gt;Node4 -->
<g id="edge3_Node000003_Node000004" class="edge">
<title>Node3&#45;&gt;Node4</title>
<g id="a_edge3_Node000003_Node000004"><a xlink:title=" ">
<path fill="none" stroke="#63b8ff" d="M1179.56,-157.37C1171.09,-157.52 1162.54,-157.66 1154.19,-157.8"/>
<polygon fill="#63b8ff" stroke="#63b8ff" points="1179.88,-160.87 1189.82,-157.2 1179.77,-153.87 1179.88,-160.87"/>
</a>
</g>
</g>
<!-- Node7&#45;&gt;Node5 -->
<g id="edge7_Node000007_Node000005" class="edge">
<title>Node7&#45;&gt;Node5</title>
<g id="a_edge7_Node000007_Node000005"><a xlink:title=" ">
<path fill="none" stroke="#63b8ff" d="M1195.7,-81.31C1177.15,-86.15 1157.16,-91.38 1139.19,-96.07"/>
<polygon fill="#63b8ff" stroke="#63b8ff" points="1196.75,-84.66 1205.54,-78.74 1194.98,-77.88 1196.75,-84.66"/>
</a>
</g>
</g>
<!-- Node7&#45;&gt;Node6 -->
<g id="edge8_Node000007_Node000006" class="edge">
<title>Node7&#45;&gt;Node6</title>
<g id="a_edge8_Node000007_Node000006"><a xlink:title=" ">
<path fill="none" stroke="#63b8ff" d="M1196.8,-46.25C1177.29,-40.94 1156.1,-35.17 1137.29,-30.05"/>
<polygon fill="#63b8ff" stroke="#63b8ff" points="1195.96,-49.65 1206.53,-48.9 1197.8,-42.89 1195.96,-49.65"/>
</a>
</g>
</g>
<!-- Node8 -->
<g id="Node000008" class="node">
<title>Node8</title>
<g id="a_Node000008"><a xlink:href="classSpan_1_1AssetRegistry.html#a71c0e006b41117cb0b296adaf0de1c56" target="_top" xlink:title="指定ディレクトリ以下の全アセットをスキャンし、レジストリを構築します。">
<polygon fill="white" stroke="#666666" points="1138,-78 1024,-78 1024,-48 1138,-48 1138,-78"/>
<text text-anchor="start" x="1032" y="-66" font-family="Helvetica,sans-Serif" font-size="10.00">Span::AssetRegistry</text>
<text text-anchor="middle" x="1081" y="-55" font-family="Helvetica,sans-Serif" font-size="10.00">::Refresh</text>
</a>
</g>
</g>
<!-- Node7&#45;&gt;Node8 -->
<g id="edge9_Node000007_Node000008" class="edge">
<title>Node7&#45;&gt;Node8</title>
<g id="a_edge9_Node000007_Node000008"><a xlink:title=" ">
<path fill="none" stroke="#63b8ff" d="M1195.29,-63.63C1176.54,-63.53 1156.34,-63.41 1138.26,-63.31"/>
<polygon fill="#63b8ff" stroke="#63b8ff" points="1195.52,-67.13 1205.54,-63.69 1195.56,-60.13 1195.52,-67.13"/>
</a>
</g>
</g>
<!-- Node9 -->
<g id="Node000009" class="node">
<title>Node9</title>
<g id="a_Node000009"><a xlink:href="classSpan_1_1AssetManager.html#a69ad0e84f0e86f10a14693275d0872f2" target="_top" xlink:title="マネージャーを初期化します。">
<polygon fill="white" stroke="#666666" points="972,-78 856,-78 856,-48 972,-48 972,-78"/>
<text text-anchor="start" x="864" y="-66" font-family="Helvetica,sans-Serif" font-size="10.00">Span::AssetManager</text>
<text text-anchor="middle" x="914" y="-55" font-family="Helvetica,sans-Serif" font-size="10.00">::Initialize</text>
</a>
</g>
</g>
<!-- Node8&#45;&gt;Node9 -->
<g id="edge10_Node000008_Node000009" class="edge">
<title>Node8&#45;&gt;Node9</title>
<g id="a_edge10_Node000008_Node000009"><a xlink:title=" ">
<path fill="none" stroke="#63b8ff" d="M1013.38,-63C999.73,-63 985.48,-63 972.19,-63"/>
<polygon fill="#63b8ff" stroke="#63b8ff" points="1013.68,-66.5 1023.68,-63 1013.68,-59.5 1013.68,-66.5"/>
</a>
</g>
</g>
<!-- Node10 -->
<g id="Node000010" class="node">
<title>Node10</title>
<g id="a_Node000010"><a xlink:href="classSpan_1_1Application.html#a0c44e973ca5db1d23a02a2cee66f5c11" target="_top" xlink:title=" ">
<polygon fill="white" stroke="#666666" points="820,-78 713,-78 713,-48 820,-48 820,-78"/>
<text text-anchor="start" x="721" y="-66" font-family="Helvetica,sans-Serif" font-size="10.00">Span::Application::</text>
<text text-anchor="middle" x="766.5" y="-55" font-family="Helvetica,sans-Serif" font-size="10.00">Application</text>
</a>
</g>
</g>
<!-- Node9&#45;&gt;Node10 -->
<g id="edge11_Node000009_Node000010" class="edge">
<title>Node9&#45;&gt;Node10</title>
<g id="a_edge11_Node000009_Node000010"><a xlink:title=" ">
<path fill="none" stroke="#63b8ff" d="M845.86,-63C837.24,-63 828.5,-63 820.15,-63"/>
<polygon fill="#63b8ff" stroke="#63b8ff" points="845.91,-66.5 855.91,-63 845.91,-59.5 845.91,-66.5"/>
</a>
</g>
</g>
<!-- Node11 -->
<g id="Node000011" class="node">
<title>Node11</title>
<g id="a_Node000011"><a xlink:href="classSpan_1_1Application.html#ae2e9eaebe90ffdf55cfef9d74ccbce3e" target="_top" xlink:title="シングルトンインスタンスの取得">
<polygon fill="white" stroke="#666666" points="677,-307.5 552,-307.5 552,-288.5 677,-288.5 677,-307.5"/>
<text text-anchor="middle" x="614.5" y="-295.5" font-family="Helvetica,sans-Serif" font-size="10.00">Span::Application::Get</text>
</a>
</g>
</g>
<!-- Node10&#45;&gt;Node11 -->
<g id="edge12_Node000010_Node000011" class="edge">
<title>Node10&#45;&gt;Node11</title>
<g id="a_edge12_Node000010_Node000011"><a xlink:title=" ">
<path fill="none" stroke="#63b8ff" d="M750.37,-86.7C718.09,-137.28 643.6,-253.98 621.68,-288.33"/>
<polygon fill="#63b8ff" stroke="#63b8ff" points="753.46,-88.37 755.89,-78.06 747.56,-84.6 753.46,-88.37"/>
</a>
</g>
</g>
<!-- Node24 -->
<g id="Node000024" class="node">
<title>Node24</title>
<g id="a_Node000024"><a xlink:href="classSpan_1_1Application.html#a095598d0c2e753bfb8d00acee435980f" target="_top" xlink:title="シングルトンインスタンスのポインタ取得 (存在チェック用)">
<polygon fill="white" stroke="#666666" points="675,-34.5 554,-34.5 554,-15.5 675,-15.5 675,-34.5"/>
<text text-anchor="middle" x="614.5" y="-22.5" font-family="Helvetica,sans-Serif" font-size="10.00">Span::Application::Ptr</text>
</a>
</g>
</g>
<!-- Node10&#45;&gt;Node24 -->
<g id="edge32_Node000010_Node000024" class="edge">
<title>Node10&#45;&gt;Node24</title>
<g id="a_edge32_Node000010_Node000024"><a xlink:title=" ">
<path fill="none" stroke="#63b8ff" d="M702.83,-47.12C686,-42.86 668.33,-38.38 653.31,-34.58"/>
<polygon fill="#63b8ff" stroke="#63b8ff" points="702.06,-50.54 712.62,-49.6 703.78,-43.75 702.06,-50.54"/>
</a>
</g>
</g>
<!-- Node12 -->
<g id="Node000012" class="node">
<title>Node12</title>
<g id="a_Node000012"><a xlink:href="classSpan_1_1HierarchyPanel.html#a331d846c46df5f3346cfc7bb8c7a8e76" target="_top" xlink:title="エンティティ上での右クリックメニューを描画します。">
<polygon fill="white" stroke="#666666" points="501,-485 381,-485 381,-455 501,-455 501,-485"/>
<text text-anchor="start" x="389" y="-473" font-family="Helvetica,sans-Serif" font-size="10.00">Span::HierarchyPanel</text>
<text text-anchor="middle" x="441" y="-462" font-family="Helvetica,sans-Serif" font-size="10.00">::DrawContextMenu</text>
</a>
</g>
</g>
<!-- Node11&#45;&gt;Node12 -->
<g id="edge13_Node000011_Node000012" class="edge">
<title>Node11&#45;&gt;Node12</title>
<g id="a_edge13_Node000011_Node000012"><a xlink:title=" ">
<path fill="none" stroke="#63b8ff" d="M605.02,-317.26C590.78,-347.57 559.3,-406.49 516,-441 508.99,-446.59 500.76,-451.21 492.4,-454.99"/>
<polygon fill="#63b8ff" stroke="#63b8ff" points="608.36,-318.37 609.33,-307.82 602,-315.46 608.36,-318.37"/>
</a>
</g>
</g>
<!-- Node13 -->
<g id="Node000013" class="node">
<title>Node13</title>
<g id="a_Node000013"><a xlink:href="classSpan_1_1HierarchyPanel.html#a2c08f8c6e0cafaed96f7846d76ff2b09" target="_top" xlink:title="1つのエンティティとその子孫を再帰的に描画します。">
<polygon fill="white" stroke="#666666" points="303,-442 183,-442 183,-412 303,-412 303,-442"/>
<text text-anchor="start" x="191" y="-430" font-family="Helvetica,sans-Serif" font-size="10.00">Span::HierarchyPanel</text>
<text text-anchor="middle" x="243" y="-419" font-family="Helvetica,sans-Serif" font-size="10.00">::DrawEntityNode</text>
</a>
</g>
</g>
<!-- Node11&#45;&gt;Node13 -->
<g id="edge19_Node000011_Node000013" class="edge">
<title>Node11&#45;&gt;Node13</title>
<g id="a_edge19_Node000011_Node000013"><a xlink:title=" ">
<path fill="none" stroke="#63b8ff" d="M603.5,-316.34C588.36,-342.02 557.01,-387.8 516,-408 448.69,-441.15 360.46,-440.54 303.02,-435.26"/>
<polygon fill="#63b8ff" stroke="#63b8ff" points="606.58,-318 608.49,-307.58 600.5,-314.53 606.58,-318"/>
</a>
</g>
</g>
<!-- Node14 -->
<g id="Node000014" class="node">
<title>Node14</title>
<g id="a_Node000014"><a xlink:href="classSpan_1_1HierarchyPanel.html#a6481eb57cd9f45cb3a094a26f35bbaa0" target="_top" xlink:title="毎フレーム呼ばれる描画関数。">
<polygon fill="white" stroke="#666666" points="120,-442 0,-442 0,-412 120,-412 120,-442"/>
<text text-anchor="start" x="8" y="-430" font-family="Helvetica,sans-Serif" font-size="10.00">Span::HierarchyPanel</text>
<text text-anchor="middle" x="60" y="-419" font-family="Helvetica,sans-Serif" font-size="10.00">::OnImGuiRender</text>
</a>
</g>
</g>
<!-- Node11&#45;&gt;Node14 -->
<g id="edge26_Node000011_Node000014" class="edge">
<title>Node11&#45;&gt;Node14</title>
<g id="a_edge26_Node000011_Node000014"><a xlink:title=" ">
<path fill="none" stroke="#63b8ff" d="M565.52,-310.01C549.76,-313.9 532.15,-318.2 516,-322 356.37,-359.6 315.52,-364.91 156,-403 144.17,-405.82 131.54,-408.94 119.47,-411.97"/>
<polygon fill="#63b8ff" stroke="#63b8ff" points="566.71,-313.32 575.57,-307.52 565.03,-306.53 566.71,-313.32"/>
</a>
</g>
</g>
<!-- Node15 -->
<g id="Node000015" class="node">
<title>Node15</title>
<g id="a_Node000015"><a xlink:href="classSpan_1_1HierarchyPanel.html#a04888145be2266ef8385e234b79ec53a" target="_top" xlink:title="何もない場所での右クリックメニュー (新規作成など) を描画します。">
<polygon fill="white" stroke="#666666" points="330,-518 156,-518 156,-488 330,-488 330,-518"/>
<text text-anchor="start" x="164" y="-506" font-family="Helvetica,sans-Serif" font-size="10.00">Span::HierarchyPanel</text>
<text text-anchor="middle" x="243" y="-495" font-family="Helvetica,sans-Serif" font-size="10.00">::DrawEmptySpaceContextMenu</text>
</a>
</g>
</g>
<!-- Node11&#45;&gt;Node15 -->
<g id="edge17_Node000011_Node000015" class="edge">
<title>Node11&#45;&gt;Node15</title>
<g id="a_edge17_Node000011_Node000015"><a xlink:title=" ">
<path fill="none" stroke="#63b8ff" d="M610.44,-317.71C602.88,-358.86 579.13,-453.44 516,-494 453.69,-534.04 365.71,-528.42 306.85,-518.04"/>
<polygon fill="#63b8ff" stroke="#63b8ff" points="613.93,-318.06 612.16,-307.61 607.03,-316.88 613.93,-318.06"/>
</a>
</g>
</g>
<!-- Node16 -->
<g id="Node000016" class="node">
<title>Node16</title>
<g id="a_Node000016"><a xlink:href="classSpan_1_1SceneViewPanel.html#ad83a4a55f083c75371d0873322808796" target="_top" xlink:title="選択中のオブジェクトに対してマニピュレータ (矢印など) を描画します。">
<polygon fill="white" stroke="#666666" points="504,-265 378,-265 378,-235 504,-235 504,-265"/>
<text text-anchor="start" x="386" y="-253" font-family="Helvetica,sans-Serif" font-size="10.00">Span::SceneViewPanel</text>
<text text-anchor="middle" x="441" y="-242" font-family="Helvetica,sans-Serif" font-size="10.00">::DrawGizmo</text>
</a>
</g>
</g>
<!-- Node11&#45;&gt;Node16 -->
<g id="edge20_Node000011_Node000016" class="edge">
<title>Node11&#45;&gt;Node16</title>
<g id="a_edge20_Node000011_Node000016"><a xlink:title=" ">
<path fill="none" stroke="#63b8ff" d="M569.29,-285.63C546.87,-279.35 519.46,-271.68 495.82,-265.06"/>
<polygon fill="#63b8ff" stroke="#63b8ff" points="568.63,-289.08 579.21,-288.4 570.52,-282.34 568.63,-289.08"/>
</a>
</g>
</g>
<!-- Node17 -->
<g id="Node000017" class="node">
<title>Node17</title>
<g id="a_Node000017"><a xlink:href="classSpan_1_1SceneViewPanel.html#aab2935de58bd68267a680cabd3656c9f" target="_top" xlink:title="毎フレームの描画処理。 画像の表示、ツールバーのオーバーレイ、ギズモの描画を行います。">
<polygon fill="white" stroke="#666666" points="306,-265 180,-265 180,-235 306,-235 306,-265"/>
<text text-anchor="start" x="188" y="-253" font-family="Helvetica,sans-Serif" font-size="10.00">Span::SceneViewPanel</text>
<text text-anchor="middle" x="243" y="-242" font-family="Helvetica,sans-Serif" font-size="10.00">::OnImGuiRender</text>
</a>
</g>
</g>
<!-- Node11&#45;&gt;Node17 -->
<g id="edge28_Node000011_Node000017" class="edge">
<title>Node11&#45;&gt;Node17</title>
<g id="a_edge28_Node000011_Node000017"><a xlink:title=" ">
<path fill="none" stroke="#63b8ff" d="M597.44,-280.94C579.54,-263.27 548.76,-236.78 516,-226 439.9,-200.95 345.74,-219.43 290.52,-234.89"/>
<polygon fill="#63b8ff" stroke="#63b8ff" points="595.22,-283.66 604.72,-288.34 600.21,-278.76 595.22,-283.66"/>
</a>
</g>
</g>
<!-- Node18 -->
<g id="Node000018" class="node">
<title>Node18</title>
<g id="a_Node000018"><a xlink:href="classSpan_1_1HierarchyPanel.html#af958ff25d0ba0576ae4848bbd01b2031" target="_top" xlink:title="ドラッグ&amp;ドロップの受け入れ処理 (親子付け替え・並び替え)。">
<polygon fill="white" stroke="#666666" points="501,-399 381,-399 381,-369 501,-369 501,-399"/>
<text text-anchor="start" x="389" y="-387" font-family="Helvetica,sans-Serif" font-size="10.00">Span::HierarchyPanel</text>
<text text-anchor="middle" x="441" y="-376" font-family="Helvetica,sans-Serif" font-size="10.00">::HandleDragDrop</text>
</a>
</g>
</g>
<!-- Node11&#45;&gt;Node18 -->
<g id="edge22_Node000011_Node000018" class="edge">
<title>Node11&#45;&gt;Node18</title>
<g id="a_edge22_Node000011_Node000018"><a xlink:title=" ">
<path fill="none" stroke="#63b8ff" d="M590.22,-313C570.81,-325.16 542.2,-342.3 516,-355 505.82,-359.93 494.57,-364.68 483.97,-368.86"/>
<polygon fill="#63b8ff" stroke="#63b8ff" points="592.12,-315.94 598.7,-307.63 588.38,-310.02 592.12,-315.94"/>
</a>
</g>
</g>
<!-- Node19 -->
<g id="Node000019" class="node">
<title>Node19</title>
<g id="a_Node000019"><a xlink:href="classSpan_1_1SceneViewPanel.html#afebf890816b85f92e9ed73de887b2354" target="_top" xlink:title="外部またはブラウザからドロップされたファイルを処理します。">
<polygon fill="white" stroke="#666666" points="504,-313 378,-313 378,-283 504,-283 504,-313"/>
<text text-anchor="start" x="386" y="-301" font-family="Helvetica,sans-Serif" font-size="10.00">Span::SceneViewPanel</text>
<text text-anchor="middle" x="441" y="-290" font-family="Helvetica,sans-Serif" font-size="10.00">::OnAssetDropped</text>
</a>
</g>
</g>
<!-- Node11&#45;&gt;Node19 -->
<g id="edge24_Node000011_Node000019" class="edge">
<title>Node11&#45;&gt;Node19</title>
<g id="a_edge24_Node000011_Node000019"><a xlink:title=" ">
<path fill="none" stroke="#63b8ff" d="M541.31,-298C528.94,-298 516.19,-298 504.11,-298"/>
<polygon fill="#63b8ff" stroke="#63b8ff" points="541.58,-301.5 551.58,-298 541.58,-294.5 541.58,-301.5"/>
</a>
</g>
</g>
<!-- Node20 -->
<g id="Node000020" class="node">
<title>Node20</title>
<g id="a_Node000020"><a xlink:href="classSpan_1_1InspectorPanel.html#ae32fda6018a2e54f880e6708ac5b89fe" target="_top" xlink:title="毎フレーム呼ばれる描画関数。">
<polygon fill="white" stroke="#666666" points="500,-179 382,-179 382,-149 500,-149 500,-179"/>
<text text-anchor="start" x="390" y="-167" font-family="Helvetica,sans-Serif" font-size="10.00">Span::InspectorPanel</text>
<text text-anchor="middle" x="441" y="-156" font-family="Helvetica,sans-Serif" font-size="10.00">::OnImGuiRender</text>
</a>
</g>
</g>
<!-- Node11&#45;&gt;Node20 -->
<g id="edge27_Node000011_Node000020" class="edge">
<title>Node11&#45;&gt;Node20</title>
<g id="a_edge27_Node000011_Node000020"><a xlink:title=" ">
<path fill="none" stroke="#63b8ff" d="M600.88,-280.05C583.93,-257.08 551.76,-217.36 516,-193 508.02,-187.56 498.87,-182.93 489.78,-179.07"/>
<polygon fill="#63b8ff" stroke="#63b8ff" points="598.11,-282.18 606.8,-288.24 603.78,-278.08 598.11,-282.18"/>
</a>
</g>
</g>
<!-- Node21 -->
<g id="Node000021" class="node">
<title>Node21</title>
<g id="a_Node000021"><a xlink:href="classSpan_1_1CameraSystem.html#a7f4bf0245dedd7a6245ef352246f7391" target="_top" xlink:title="毎フレーム呼び出されます。ここにゲームロジックを記述します。">
<polygon fill="white" stroke="#666666" points="502,-131 380,-131 380,-101 502,-101 502,-131"/>
<text text-anchor="start" x="388" y="-119" font-family="Helvetica,sans-Serif" font-size="10.00">Span::CameraSystem</text>
<text text-anchor="middle" x="441" y="-108" font-family="Helvetica,sans-Serif" font-size="10.00">::OnUpdate</text>
</a>
</g>
</g>
<!-- Node11&#45;&gt;Node21 -->
<g id="edge29_Node000011_Node000021" class="edge">
<title>Node11&#45;&gt;Node21</title>
<g id="a_edge29_Node000011_Node000021"><a xlink:title=" ">
<path fill="none" stroke="#63b8ff" d="M606.72,-278.71C594.09,-245.52 563.81,-177.55 516,-140 511.65,-136.58 506.79,-133.64 501.7,-131.11"/>
<polygon fill="#63b8ff" stroke="#63b8ff" points="603.47,-280.01 610.2,-288.19 610.04,-277.59 603.47,-280.01"/>
</a>
</g>
</g>
<!-- Node22 -->
<g id="Node000022" class="node">
<title>Node22</title>
<g id="a_Node000022"><a xlink:href="classSpan_1_1EditorCameraSystem.html#ae933964fa5d0f299954c926cf63e091a" target="_top" xlink:title="毎フレーム呼び出されます。ここにゲームロジックを記述します。">
<polygon fill="white" stroke="#666666" points="516,-83 366,-83 366,-53 516,-53 516,-83"/>
<text text-anchor="start" x="374" y="-71" font-family="Helvetica,sans-Serif" font-size="10.00">Span::EditorCameraSystem</text>
<text text-anchor="middle" x="441" y="-60" font-family="Helvetica,sans-Serif" font-size="10.00">::OnUpdate</text>
</a>
</g>
</g>
<!-- Node11&#45;&gt;Node22 -->
<g id="edge30_Node000011_Node000022" class="edge">
<title>Node11&#45;&gt;Node22</title>
<g id="a_edge30_Node000011_Node000022"><a xlink:title=" ">
<path fill="none" stroke="#63b8ff" d="M609.61,-278.12C600.59,-237.26 574.4,-143.34 516,-92 512.04,-88.52 507.58,-85.55 502.84,-83"/>
<polygon fill="#63b8ff" stroke="#63b8ff" points="606.24,-279.09 611.71,-288.16 613.09,-277.66 606.24,-279.09"/>
</a>
</g>
</g>
<!-- Node23 -->
<g id="Node000023" class="node">
<title>Node23</title>
<g id="a_Node000023"><a xlink:href="classSpan_1_1RenderingSystem.html#aa0113a8f2b55129115c4da2c6ba449c4" target="_top" xlink:title="毎フレーム呼び出されます。ここにゲームロジックを記述します。">
<polygon fill="white" stroke="#666666" points="507.5,-571 374.5,-571 374.5,-541 507.5,-541 507.5,-571"/>
<text text-anchor="start" x="382.5" y="-559" font-family="Helvetica,sans-Serif" font-size="10.00">Span::RenderingSystem</text>
<text text-anchor="middle" x="441" y="-548" font-family="Helvetica,sans-Serif" font-size="10.00">::OnUpdate</text>
</a>
</g>
</g>
<!-- Node11&#45;&gt;Node23 -->
<g id="edge31_Node000011_Node000023" class="edge">
<title>Node11&#45;&gt;Node23</title>
<g id="a_edge31_Node000011_Node000023"><a xlink:title=" ">
<path fill="none" stroke="#63b8ff" d="M610.4,-317.68C602.54,-361.28 577.87,-466.9 516,-527 510.16,-532.67 503.08,-537.27 495.65,-540.99"/>
<polygon fill="#63b8ff" stroke="#63b8ff" points="613.86,-318.22 612.08,-307.78 606.96,-317.05 613.86,-318.22"/>
</a>
</g>
</g>
<!-- Node12&#45;&gt;Node13 -->
<g id="edge14_Node000012_Node000013" class="edge">
<title>Node12&#45;&gt;Node13</title>
<g id="a_edge14_Node000012_Node000013"><a xlink:title=" ">
<path fill="none" stroke="#63b8ff" d="M370.95,-454.85C348.86,-450.01 324.62,-444.69 303.29,-440.01"/>
<polygon fill="#63b8ff" stroke="#63b8ff" points="370.41,-458.32 380.93,-457.04 371.91,-451.48 370.41,-458.32"/>
</a>
</g>
</g>
<!-- Node13&#45;&gt;Node13 -->
<g id="edge15_Node000013_Node000013" class="edge">
<title>Node13&#45;&gt;Node13</title>
<g id="a_edge15_Node000013_Node000013"><a xlink:title=" ">
<path fill="none" stroke="#63b8ff" d="M274.86,-452.6C270.5,-456.97 259.88,-460 243,-460 214.56,-460 203.9,-451.41 211.01,-442.28"/>
<polygon fill="#63b8ff" stroke="#63b8ff" points="278.36,-452.32 274.99,-442.28 271.36,-452.23 278.36,-452.32"/>
</a>
</g>
</g>
<!-- Node13&#45;&gt;Node14 -->
<g id="edge16_Node000013_Node000014" class="edge">
<title>Node13&#45;&gt;Node14</title>
<g id="a_edge16_Node000013_Node000014"><a xlink:title=" ">
<path fill="none" stroke="#63b8ff" d="M172.67,-427C155.33,-427 136.88,-427 120.09,-427"/>
<polygon fill="#63b8ff" stroke="#63b8ff" points="172.73,-430.5 182.73,-427 172.73,-423.5 172.73,-430.5"/>
</a>
</g>
</g>
<!-- Node15&#45;&gt;Node14 -->
<g id="edge18_Node000015_Node000014" class="edge">
<title>Node15&#45;&gt;Node14</title>
<g id="a_edge18_Node000015_Node000014"><a xlink:title=" ">
<path fill="none" stroke="#63b8ff" d="M193.32,-484.15C181.1,-479.3 168.04,-474.04 156,-469 135.37,-460.37 112.44,-450.24 94.27,-442.1"/>
<polygon fill="#63b8ff" stroke="#63b8ff" points="192.32,-487.51 202.91,-487.92 194.89,-481 192.32,-487.51"/>
</a>
</g>
</g>
<!-- Node16&#45;&gt;Node17 -->
<g id="edge21_Node000016_Node000017" class="edge">
<title>Node16&#45;&gt;Node17</title>
<g id="a_edge21_Node000016_Node000017"><a xlink:title=" ">
<path fill="none" stroke="#63b8ff" d="M367.89,-250C347.68,-250 325.88,-250 306.28,-250"/>
<polygon fill="#63b8ff" stroke="#63b8ff" points="367.98,-253.5 377.98,-250 367.98,-246.5 367.98,-253.5"/>
</a>
</g>
</g>
<!-- Node18&#45;&gt;Node13 -->
<g id="edge23_Node000018_Node000013" class="edge">
<title>Node18&#45;&gt;Node13</title>
<g id="a_edge23_Node000018_Node000013"><a xlink:title=" ">
<path fill="none" stroke="#63b8ff" d="M370.95,-399.15C348.86,-403.99 324.62,-409.31 303.29,-413.99"/>
<polygon fill="#63b8ff" stroke="#63b8ff" points="371.91,-402.52 380.93,-396.96 370.41,-395.68 371.91,-402.52"/>
</a>
</g>
</g>
<!-- Node19&#45;&gt;Node17 -->
<g id="edge25_Node000019_Node000017" class="edge">
<title>Node19&#45;&gt;Node17</title>
<g id="a_edge25_Node000019_Node000017"><a xlink:title=" ">
<path fill="none" stroke="#63b8ff" d="M368.78,-280.56C347.96,-275.46 325.4,-269.93 305.26,-265"/>
<polygon fill="#63b8ff" stroke="#63b8ff" points="367.98,-283.96 378.52,-282.94 369.64,-277.17 367.98,-283.96"/>
</a>
</g>
</g>
<!-- Node25 -->
<g id="Node000025" class="node">
<title>Node25</title>
<g id="a_Node000025"><a xlink:href="namespaceSpan.html#a3f4b8561d46e69596ba6a7c3177a92e7" target="_top" xlink:title=" ">
<polygon fill="white" stroke="#666666" points="511.5,-34.5 370.5,-34.5 370.5,-15.5 511.5,-15.5 511.5,-34.5"/>
<text text-anchor="middle" x="441" y="-22.5" font-family="Helvetica,sans-Serif" font-size="10.00">Span::ConsoleCtrlHandler</text>
</a>
</g>
</g>
<!-- Node24&#45;&gt;Node25 -->
<g id="edge33_Node000024_Node000025" class="edge">
<title>Node24&#45;&gt;Node25</title>
<g id="a_edge33_Node000024_Node000025"><a xlink:title=" ">
<path fill="none" stroke="#63b8ff" d="M543.94,-25C533.31,-25 522.34,-25 511.71,-25"/>
<polygon fill="#63b8ff" stroke="#63b8ff" points="544,-28.5 554,-25 544,-21.5 544,-28.5"/>
</a>
</g>
</g>
<!-- Node25&#45;&gt;Node10 -->
<g id="edge34_Node000025_Node000010" class="edge">
<title>Node25&#45;&gt;Node10</title>
<g id="a_edge34_Node000025_Node000010"><a xlink:title=" ">
<path fill="none" stroke="#63b8ff" d="M505.87,-36.22C520.97,-38.65 537.03,-41.08 552,-43 606.65,-50.02 669.47,-55.61 712.74,-59.07"/>
<polygon fill="#63b8ff" stroke="#63b8ff" points="506.04,-32.7 495.6,-34.53 504.9,-39.6 506.04,-32.7"/>
</a>
</g>
</g>
</g>
</svg>

<g id="navigator" transform="translate(0 0)" fill="#404254">
  <rect fill="#f2f5e9" fill-opacity="0.5" stroke="#606060" stroke-width=".5" x="0" y="0" width="60" height="60"/>
  <use id="zoomplus" xlink:href="#zoomPlus" x="17" y="9" onmousedown="handleZoom(evt,'in')"/>
  <use id="zoomminus" xlink:href="#zoomMin" x="42" y="9" onmousedown="handleZoom(evt,'out')"/>
  <use id="reset" xlink:href="#resetDef" x="30" y="36" onmousedown="handleReset()"/>
   <use id="arrowup" xlink:href="#arrowUp" x="0" y="0" onmousedown="handlePan(0,-1)"/>
  <use id="arrowright" xlink:href="#arrowRight" x="0" y="0" onmousedown="handlePan(1,0)"/>
  <use id="arrowdown" xlink:href="#arrowDown" x="0" y="0" onmousedown="handlePan(0,1)"/>
  <use id="arrowleft" xlink:href="#arrowLeft" x="0" y="0" onmousedown="handlePan(-1,0)"/>
</g>
<svg viewBox="0 0 15 15" width="100%" height="30px" preserveAspectRatio="xMaxYMin meet">
 <g id="arrow_out" transform="scale(0.3 0.3)">
  <a xlink:href="classSpan_1_1AssetSerializer_a39e6a3bea02531fc2c31683a27d52061_icgraph_org.svg" target="_base">
   <rect id="button" ry="5" rx="5" y="6" x="6" height="38" width="38"
        fill="#f2f5e9" fill-opacity="0.5" stroke="#606060" stroke-width="1.0"/>
   <path id="arrow"
     d="M 11.500037,31.436501 C 11.940474,20.09759 22.043105,11.32322 32.158766,21.979434 L 37.068811,17.246167 C 37.068811,17.246167 37.088388,32 37.088388,32 L 22.160133,31.978069 C 22.160133,31.978069 26.997745,27.140456 26.997745,27.140456 C 18.528582,18.264221 13.291696,25.230495 11.500037,31.436501 z"
     style="fill:#404040;"/>
  </a>
 </g>
</svg>

<style type='text/css'>
<![CDATA[
[data-mouse-over-selected='false'] { opacity: 0.7; }
[data-mouse-over-selected='true']  { opacity: 1.0; }
]]>
</style>
<script type="application/ecmascript"><![CDATA[
document.addEventListener('DOMContentLoaded', (event) => {
  highlightEdges();
  highlightAdjacentNodes();
});
]]></script>
</svg>
