<?xml version="1.0" encoding="UTF-8" standalone="no"?>
<!DOCTYPE svg PUBLIC "-//W3C//DTD SVG 1.1//EN"
 "http://www.w3.org/Graphics/SVG/1.1/DTD/svg11.dtd">
<!-- Generated by graphviz version 2.43.0 (0)
 -->
<!-- Title: Span::ProjectBrowserPanel Pages: 1 -->
<svg width="156pt" height="532pt"
 viewBox="0.00 0.00 156.00 532.00" xmlns="http://www.w3.org/2000/svg" xmlns:xlink="http://www.w3.org/1999/xlink">
<g id="graph0" class="graph" transform="scale(1 1) rotate(0) translate(4 528)">
<title>Span::ProjectBrowserPanel</title>
<!-- Node1 -->
<g id="Node000001" class="node">
<title>Node1</title>
<g id="a_Node000001"><a xlink:title="ã‚¢ã‚»ãƒƒãƒˆãƒ‡ã‚£ãƒ¬ã‚¯ãƒˆãƒªã®å†…å®¹ã‚’è¡¨ç¤ºã—ã€ãƒ‰ãƒ©ãƒƒã‚°&amp;ãƒ‰ãƒ­ãƒƒãƒ—æ“ä½œã‚’æä¾›ã™ã‚‹ã‚¨ãƒ‡ã‚£ã‚¿ãƒ‘ãƒãƒ«ã€‚">
<polygon fill="#999999" stroke="transparent" points="148,-349 0,-349 0,0 148,0 148,-349"/>
<text text-anchor="start" x="9" y="-336.5" font-family="Helvetica,sans-Serif" font-size="10.00">Span::ProjectBrowserPanel</text>
<text text-anchor="start" x="6.5" y="-321.5" font-family="Helvetica,sans-Serif" font-size="10.00">&#45;</text>
<text text-anchor="start" x="17" y="-321.5" font-family="Helvetica,sans-Serif" font-size="10.00">m_BaseDirectory</text>
<text text-anchor="start" x="6.5" y="-306.5" font-family="Helvetica,sans-Serif" font-size="10.00">&#45;</text>
<text text-anchor="start" x="17" y="-306.5" font-family="Helvetica,sans-Serif" font-size="10.00">m_CurrentDirectory</text>
<text text-anchor="start" x="6.5" y="-291.5" font-family="Helvetica,sans-Serif" font-size="10.00">&#45;</text>
<text text-anchor="start" x="17" y="-291.5" font-family="Helvetica,sans-Serif" font-size="10.00">m_ThumbnailSize</text>
<text text-anchor="start" x="6.5" y="-276.5" font-family="Helvetica,sans-Serif" font-size="10.00">&#45;</text>
<text text-anchor="start" x="17" y="-276.5" font-family="Helvetica,sans-Serif" font-size="10.00">m_Padding</text>
<text text-anchor="start" x="6.5" y="-261.5" font-family="Helvetica,sans-Serif" font-size="10.00">&#45;</text>
<text text-anchor="start" x="17" y="-261.5" font-family="Helvetica,sans-Serif" font-size="10.00">m_SearchFilter</text>
<text text-anchor="start" x="6.5" y="-246.5" font-family="Helvetica,sans-Serif" font-size="10.00">&#45;</text>
<text text-anchor="start" x="17" y="-246.5" font-family="Helvetica,sans-Serif" font-size="10.00">m_SelectedItems</text>
<text text-anchor="start" x="6.5" y="-231.5" font-family="Helvetica,sans-Serif" font-size="10.00">&#45;</text>
<text text-anchor="start" x="17" y="-231.5" font-family="Helvetica,sans-Serif" font-size="10.00">m_IsRenaming</text>
<text text-anchor="start" x="6.5" y="-216.5" font-family="Helvetica,sans-Serif" font-size="10.00">&#45;</text>
<text text-anchor="start" x="17" y="-216.5" font-family="Helvetica,sans-Serif" font-size="10.00">m_RenameBuffer</text>
<text text-anchor="start" x="6.5" y="-201.5" font-family="Helvetica,sans-Serif" font-size="10.00">&#45;</text>
<text text-anchor="start" x="17" y="-201.5" font-family="Helvetica,sans-Serif" font-size="10.00">m_RenamingPath</text>
<text text-anchor="start" x="4" y="-186.5" font-family="Helvetica,sans-Serif" font-size="10.00">+</text>
<text text-anchor="start" x="17" y="-186.5" font-family="Helvetica,sans-Serif" font-size="10.00">ProjectBrowserPanel()</text>
<text text-anchor="start" x="4" y="-171.5" font-family="Helvetica,sans-Serif" font-size="10.00">+</text>
<text text-anchor="start" x="17" y="-171.5" font-family="Helvetica,sans-Serif" font-size="10.00">~ProjectBrowserPanel()</text>
<text text-anchor="start" x="4" y="-156.5" font-family="Helvetica,sans-Serif" font-size="10.00">+</text>
<text text-anchor="start" x="17" y="-156.5" font-family="Helvetica,sans-Serif" font-size="10.00">OnImGuiRender()</text>
<text text-anchor="start" x="6.5" y="-141.5" font-family="Helvetica,sans-Serif" font-size="10.00">&#45;</text>
<text text-anchor="start" x="17" y="-141.5" font-family="Helvetica,sans-Serif" font-size="10.00">DrawNavBar()</text>
<text text-anchor="start" x="6.5" y="-126.5" font-family="Helvetica,sans-Serif" font-size="10.00">&#45;</text>
<text text-anchor="start" x="17" y="-126.5" font-family="Helvetica,sans-Serif" font-size="10.00">DrawDirectoryTree()</text>
<text text-anchor="start" x="6.5" y="-111.5" font-family="Helvetica,sans-Serif" font-size="10.00">&#45;</text>
<text text-anchor="start" x="17" y="-111.5" font-family="Helvetica,sans-Serif" font-size="10.00">DrawContentArea()</text>
<text text-anchor="start" x="6.5" y="-96.5" font-family="Helvetica,sans-Serif" font-size="10.00">&#45;</text>
<text text-anchor="start" x="17" y="-96.5" font-family="Helvetica,sans-Serif" font-size="10.00">DrawContextMenu()</text>
<text text-anchor="start" x="6.5" y="-81.5" font-family="Helvetica,sans-Serif" font-size="10.00">&#45;</text>
<text text-anchor="start" x="17" y="-81.5" font-family="Helvetica,sans-Serif" font-size="10.00">DrawEntryItem()</text>
<text text-anchor="start" x="6.5" y="-66.5" font-family="Helvetica,sans-Serif" font-size="10.00">&#45;</text>
<text text-anchor="start" x="17" y="-66.5" font-family="Helvetica,sans-Serif" font-size="10.00">DrawTreeNode()</text>
<text text-anchor="start" x="6.5" y="-51.5" font-family="Helvetica,sans-Serif" font-size="10.00">&#45;</text>
<text text-anchor="start" x="17" y="-51.5" font-family="Helvetica,sans-Serif" font-size="10.00">SelectItem()</text>
<text text-anchor="start" x="6.5" y="-36.5" font-family="Helvetica,sans-Serif" font-size="10.00">&#45;</text>
<text text-anchor="start" x="17" y="-36.5" font-family="Helvetica,sans-Serif" font-size="10.00">CreateFileFromTemplate()</text>
<text text-anchor="start" x="6.5" y="-21.5" font-family="Helvetica,sans-Serif" font-size="10.00">&#45;</text>
<text text-anchor="start" x="17" y="-21.5" font-family="Helvetica,sans-Serif" font-size="10.00">CreateComponentScript()</text>
<text text-anchor="start" x="6.5" y="-6.5" font-family="Helvetica,sans-Serif" font-size="10.00">&#45;</text>
<text text-anchor="start" x="17" y="-6.5" font-family="Helvetica,sans-Serif" font-size="10.00">CreateSystemScript()</text>
<polygon fill="#666666" stroke="#666666" points="0,-331.5 0,-331.5 148,-331.5 148,-331.5 0,-331.5"/>
<polygon fill="#666666" stroke="#666666" points="0,-196.5 0,-196.5 15,-196.5 15,-196.5 0,-196.5"/>
<polygon fill="#666666" stroke="#666666" points="15,-196.5 15,-196.5 148,-196.5 148,-196.5 15,-196.5"/>
<polygon fill="none" stroke="#666666" points="0,0 0,-349 148,-349 148,0 0,0"/>
</a>
</g>
</g>
<!-- Node2 -->
<g id="Node000002" class="node">
<title>Node2</title>
<g id="a_Node000002"><a xlink:href="classSpan_1_1EditorPanel.html" target="_top" xlink:title="ðŸ–¼ å…¨ã¦ã®ã‚¨ãƒ‡ã‚£ã‚¿ãƒ‘ãƒãƒ«ã®åŸºåº•ã‚¯ãƒ©ã‚¹ã€‚">
<polygon fill="white" stroke="transparent" points="127,-524 21,-524 21,-385 127,-385 127,-524"/>
<text text-anchor="start" x="31.5" y="-511.5" font-family="Helvetica,sans-Serif" font-size="10.00">Span::EditorPanel</text>
<text text-anchor="start" x="25" y="-496.5" font-family="Helvetica,sans-Serif" font-size="10.00">+</text>
<text text-anchor="start" x="38" y="-496.5" font-family="Helvetica,sans-Serif" font-size="10.00">title</text>
<text text-anchor="start" x="25" y="-481.5" font-family="Helvetica,sans-Serif" font-size="10.00">+</text>
<text text-anchor="start" x="38" y="-481.5" font-family="Helvetica,sans-Serif" font-size="10.00">isOpen</text>
<text text-anchor="start" x="25" y="-466.5" font-family="Helvetica,sans-Serif" font-size="10.00">+</text>
<text text-anchor="start" x="38" y="-466.5" font-family="Helvetica,sans-Serif" font-size="10.00">EditorPanel()</text>
<text text-anchor="start" x="25" y="-451.5" font-family="Helvetica,sans-Serif" font-size="10.00">+</text>
<text text-anchor="start" x="38" y="-451.5" font-family="Helvetica,sans-Serif" font-size="10.00">~EditorPanel()</text>
<text text-anchor="start" x="25" y="-436.5" font-family="Helvetica,sans-Serif" font-size="10.00">+</text>
<text text-anchor="start" x="38" y="-436.5" font-family="Helvetica,sans-Serif" font-size="10.00">OnImGuiRender()</text>
<text text-anchor="start" x="25" y="-421.5" font-family="Helvetica,sans-Serif" font-size="10.00">+</text>
<text text-anchor="start" x="38" y="-421.5" font-family="Helvetica,sans-Serif" font-size="10.00">IsOpen()</text>
<text text-anchor="start" x="25" y="-406.5" font-family="Helvetica,sans-Serif" font-size="10.00">+</text>
<text text-anchor="start" x="38" y="-406.5" font-family="Helvetica,sans-Serif" font-size="10.00">Open()</text>
<text text-anchor="start" x="25" y="-391.5" font-family="Helvetica,sans-Serif" font-size="10.00">+</text>
<text text-anchor="start" x="38" y="-391.5" font-family="Helvetica,sans-Serif" font-size="10.00">Close()</text>
<polygon fill="#666666" stroke="#666666" points="21,-506.5 21,-506.5 127,-506.5 127,-506.5 21,-506.5"/>
<polygon fill="#666666" stroke="#666666" points="21,-476.5 21,-476.5 36,-476.5 36,-476.5 21,-476.5"/>
<polygon fill="#666666" stroke="#666666" points="36,-476.5 36,-476.5 127,-476.5 127,-476.5 36,-476.5"/>
<polygon fill="none" stroke="#666666" points="21,-385 21,-524 127,-524 127,-385 21,-385"/>
</a>
</g>
</g>
<!-- Node2&#45;&gt;Node1 -->
<g id="edge1_Node000001_Node000002" class="edge">
<title>Node2&#45;&gt;Node1</title>
<g id="a_edge1_Node000001_Node000002"><a xlink:title=" ">
<path fill="none" stroke="#63b8ff" d="M74,-374.62C74,-366.45 74,-357.93 74,-349.22"/>
<polygon fill="none" stroke="#63b8ff" points="70.5,-374.78 74,-384.78 77.5,-374.78 70.5,-374.78"/>
</a>
</g>
</g>
</g>
</svg>
