<?xml version="1.0" encoding="UTF-8" standalone="no"?>
<!DOCTYPE svg PUBLIC "-//W3C//DTD SVG 1.1//EN"
 "http://www.w3.org/Graphics/SVG/1.1/DTD/svg11.dtd">
<!-- Generated by graphviz version 2.43.0 (0)
 -->
<!-- Title: Span::FileDialog::OpenFile Pages: 1 -->
<svg width="1359pt" height="336pt"
 viewBox="0.00 0.00 1359.00 335.91" xmlns="http://www.w3.org/2000/svg" xmlns:xlink="http://www.w3.org/1999/xlink">
<g id="graph0" class="graph" transform="scale(1 1) rotate(0) translate(4 331.91)">
<title>Span::FileDialog::OpenFile</title>
<!-- Node1 -->
<g id="Node000001" class="node">
<title>Node1</title>
<g id="a_Node000001"><a xlink:title="ファイルを開くダイアログを表示します。">
<polygon fill="#999999" stroke="#666666" points="144,-137.41 0,-137.41 0,-118.41 144,-118.41 144,-137.41"/>
<text text-anchor="middle" x="72" y="-125.41" font-family="Helvetica,sans-Serif" font-size="10.00">Span::FileDialog::OpenFile</text>
</a>
</g>
</g>
<!-- Node2 -->
<g id="Node000002" class="node">
<title>Node2</title>
<g id="a_Node000002"><a xlink:href="classSpan_1_1Application.html#ae2e9eaebe90ffdf55cfef9d74ccbce3e" target="_top" xlink:title="シングルトンインスタンスの取得">
<polygon fill="white" stroke="#666666" points="305,-137.41 180,-137.41 180,-118.41 305,-118.41 305,-137.41"/>
<text text-anchor="middle" x="242.5" y="-125.41" font-family="Helvetica,sans-Serif" font-size="10.00">Span::Application::Get</text>
</a>
</g>
</g>
<!-- Node1&#45;&gt;Node2 -->
<g id="edge1_Node000001_Node000002" class="edge">
<title>Node1&#45;&gt;Node2</title>
<g id="a_edge1_Node000001_Node000002"><a xlink:title=" ">
<path fill="none" stroke="#63b8ff" d="M144.46,-127.91C152.81,-127.91 161.34,-127.91 169.7,-127.91"/>
<polygon fill="#63b8ff" stroke="#63b8ff" points="169.79,-131.41 179.79,-127.91 169.79,-124.41 169.79,-131.41"/>
</a>
</g>
</g>
<!-- Node3 -->
<g id="Node000003" class="node">
<title>Node3</title>
<g id="a_Node000003"><a xlink:href="classSpan_1_1Application.html#a0c44e973ca5db1d23a02a2cee66f5c11" target="_top" xlink:title=" ">
<polygon fill="white" stroke="#666666" points="448,-142.91 341,-142.91 341,-112.91 448,-112.91 448,-142.91"/>
<text text-anchor="start" x="349" y="-130.91" font-family="Helvetica,sans-Serif" font-size="10.00">Span::Application::</text>
<text text-anchor="middle" x="394.5" y="-119.91" font-family="Helvetica,sans-Serif" font-size="10.00">Application</text>
</a>
</g>
</g>
<!-- Node2&#45;&gt;Node3 -->
<g id="edge2_Node000002_Node000003" class="edge">
<title>Node2&#45;&gt;Node3</title>
<g id="a_edge2_Node000002_Node000003"><a xlink:title=" ">
<path fill="none" stroke="#63b8ff" d="M305.38,-127.91C313.75,-127.91 322.36,-127.91 330.75,-127.91"/>
<polygon fill="#63b8ff" stroke="#63b8ff" points="330.85,-131.41 340.85,-127.91 330.85,-124.41 330.85,-131.41"/>
</a>
</g>
</g>
<!-- Node4 -->
<g id="Node000004" class="node">
<title>Node4</title>
<g id="a_Node000004"><a xlink:href="namespaceSpan.html#a3f4b8561d46e69596ba6a7c3177a92e7" target="_top" xlink:title=" ">
<polygon fill="white" stroke="#666666" points="631.5,-156.41 490.5,-156.41 490.5,-137.41 631.5,-137.41 631.5,-156.41"/>
<text text-anchor="middle" x="561" y="-144.41" font-family="Helvetica,sans-Serif" font-size="10.00">Span::ConsoleCtrlHandler</text>
</a>
</g>
</g>
<!-- Node3&#45;&gt;Node4 -->
<g id="edge3_Node000003_Node000004" class="edge">
<title>Node3&#45;&gt;Node4</title>
<g id="a_edge3_Node000003_Node000004"><a xlink:title=" ">
<path fill="none" stroke="#63b8ff" d="M448,-133.98C458.3,-135.17 469.31,-136.44 480.26,-137.7"/>
<polygon fill="#63b8ff" stroke="#63b8ff" points="479.95,-141.19 490.28,-138.86 480.75,-134.24 479.95,-141.19"/>
</a>
</g>
</g>
<!-- Node6 -->
<g id="Node000006" class="node">
<title>Node6</title>
<g id="a_Node000006"><a xlink:href="classSpan_1_1AssetManager.html#a8b80e59ea529e23c8c8f5280d136fbf0" target="_top" xlink:title="シングルトンインスタンスを取得します。">
<polygon fill="white" stroke="#666666" points="631,-301.41 491,-301.41 491,-282.41 631,-282.41 631,-301.41"/>
<text text-anchor="middle" x="561" y="-289.41" font-family="Helvetica,sans-Serif" font-size="10.00">Span::AssetManager::Get</text>
</a>
</g>
</g>
<!-- Node3&#45;&gt;Node6 -->
<g id="edge6_Node000003_Node000006" class="edge">
<title>Node3&#45;&gt;Node6</title>
<g id="a_edge6_Node000003_Node000006"><a xlink:title=" ">
<path fill="none" stroke="#63b8ff" d="M403.49,-143.23C417.18,-168.32 447.24,-218.62 484,-250.91 496.54,-261.93 512.54,-271.12 526.62,-277.98"/>
<polygon fill="#63b8ff" stroke="#63b8ff" points="525.46,-281.3 536,-282.36 528.42,-274.96 525.46,-281.3"/>
</a>
</g>
</g>
<!-- Node8 -->
<g id="Node000008" class="node">
<title>Node8</title>
<g id="a_Node000008"><a xlink:href="classSpan_1_1AssetManager.html#a69ad0e84f0e86f10a14693275d0872f2" target="_top" xlink:title="マネージャーを初期化します。">
<polygon fill="white" stroke="#666666" points="619,-241.91 503,-241.91 503,-211.91 619,-211.91 619,-241.91"/>
<text text-anchor="start" x="511" y="-229.91" font-family="Helvetica,sans-Serif" font-size="10.00">Span::AssetManager</text>
<text text-anchor="middle" x="561" y="-218.91" font-family="Helvetica,sans-Serif" font-size="10.00">::Initialize</text>
</a>
</g>
</g>
<!-- Node3&#45;&gt;Node8 -->
<g id="edge8_Node000003_Node000008" class="edge">
<title>Node3&#45;&gt;Node8</title>
<g id="a_edge8_Node000003_Node000008"><a xlink:title=" ">
<path fill="none" stroke="#63b8ff" d="M409.77,-143.21C426.21,-160.02 454.73,-186.76 484,-202.91 487.22,-204.69 490.59,-206.36 494.04,-207.92"/>
<polygon fill="#63b8ff" stroke="#63b8ff" points="492.75,-211.17 503.33,-211.8 495.45,-204.71 492.75,-211.17"/>
</a>
</g>
</g>
<!-- Node17 -->
<g id="Node000017" class="node">
<title>Node17</title>
<g id="a_Node000017"><a xlink:href="classSpan_1_1GuiManager.html#ab78e1a284f6d5aced7912c00ab43c559" target="_top" xlink:title="ImGuiコンテキストとバックエンドを初期化します。">
<polygon fill="white" stroke="#666666" points="638,-193.41 484,-193.41 484,-174.41 638,-174.41 638,-193.41"/>
<text text-anchor="middle" x="561" y="-181.41" font-family="Helvetica,sans-Serif" font-size="10.00">Span::GuiManager::Initialize</text>
</a>
</g>
</g>
<!-- Node3&#45;&gt;Node17 -->
<g id="edge18_Node000003_Node000017" class="edge">
<title>Node3&#45;&gt;Node17</title>
<g id="a_edge18_Node000003_Node000017"><a xlink:title=" ">
<path fill="none" stroke="#63b8ff" d="M428.25,-143C444.75,-150.24 465.19,-158.67 484,-164.91 491.44,-167.38 499.39,-169.71 507.23,-171.82"/>
<polygon fill="#63b8ff" stroke="#63b8ff" points="506.51,-175.25 517.07,-174.38 508.27,-168.47 506.51,-175.25"/>
</a>
</g>
</g>
<!-- Node20 -->
<g id="Node000020" class="node">
<title>Node20</title>
<g id="a_Node000020"><a xlink:href="classSpan_1_1Input.html#aac6e8f1cf694b484ed01742f2d16d63c" target="_top" xlink:title=" ">
<polygon fill="white" stroke="#666666" points="620.5,-119.41 501.5,-119.41 501.5,-100.41 620.5,-100.41 620.5,-119.41"/>
<text text-anchor="middle" x="561" y="-107.41" font-family="Helvetica,sans-Serif" font-size="10.00">Span::Input::Initialize</text>
</a>
</g>
</g>
<!-- Node3&#45;&gt;Node20 -->
<g id="edge21_Node000003_Node000020" class="edge">
<title>Node3&#45;&gt;Node20</title>
<g id="a_edge21_Node000003_Node000020"><a xlink:title=" ">
<path fill="none" stroke="#63b8ff" d="M448,-122.17C461.83,-120.66 476.95,-119 491.49,-117.41"/>
<polygon fill="#63b8ff" stroke="#63b8ff" points="491.87,-120.89 501.43,-116.32 491.11,-113.93 491.87,-120.89"/>
</a>
</g>
</g>
<!-- Node21 -->
<g id="Node000021" class="node">
<title>Node21</title>
<g id="a_Node000021"><a xlink:href="classSpan_1_1Logger.html#a557d77ccfa31551817d7b28d985866c8" target="_top" xlink:title="ロガーを初期化し、ログファイルを開きます。">
<polygon fill="white" stroke="#666666" points="625,-82.41 497,-82.41 497,-63.41 625,-63.41 625,-82.41"/>
<text text-anchor="middle" x="561" y="-70.41" font-family="Helvetica,sans-Serif" font-size="10.00">Span::Logger::Initialize</text>
</a>
</g>
</g>
<!-- Node3&#45;&gt;Node21 -->
<g id="edge22_Node000003_Node000021" class="edge">
<title>Node3&#45;&gt;Node21</title>
<g id="a_edge22_Node000003_Node000021"><a xlink:title=" ">
<path fill="none" stroke="#63b8ff" d="M427.8,-112.91C444.36,-105.61 464.99,-97.09 484,-90.91 490.5,-88.8 497.38,-86.82 504.25,-85.01"/>
<polygon fill="#63b8ff" stroke="#63b8ff" points="505.42,-88.32 514.25,-82.47 503.7,-81.54 505.42,-88.32"/>
</a>
</g>
</g>
<!-- Node22 -->
<g id="Node000022" class="node">
<title>Node22</title>
<g id="a_Node000022"><a xlink:href="classSpan_1_1Time.html#ae9e018cd0d5a3b34b773e80c750860e7" target="_top" xlink:title="初期化（エンジン起動時）">
<polygon fill="white" stroke="#666666" points="620.5,-45.41 501.5,-45.41 501.5,-26.41 620.5,-26.41 620.5,-45.41"/>
<text text-anchor="middle" x="561" y="-33.41" font-family="Helvetica,sans-Serif" font-size="10.00">Span::Time::Initialize</text>
</a>
</g>
</g>
<!-- Node3&#45;&gt;Node22 -->
<g id="edge23_Node000003_Node000022" class="edge">
<title>Node3&#45;&gt;Node22</title>
<g id="a_edge23_Node000003_Node000022"><a xlink:title=" ">
<path fill="none" stroke="#63b8ff" d="M409.31,-112.73C425.55,-95.82 454.1,-68.9 484,-53.91 487.82,-52 491.85,-50.29 495.98,-48.75"/>
<polygon fill="#63b8ff" stroke="#63b8ff" points="497.38,-51.97 505.75,-45.48 495.16,-45.33 497.38,-51.97"/>
</a>
</g>
</g>
<!-- Node5 -->
<g id="Node000005" class="node">
<title>Node5</title>
<g id="a_Node000005"><a xlink:href="classSpan_1_1Application.html#a095598d0c2e753bfb8d00acee435980f" target="_top" xlink:title="シングルトンインスタンスのポインタ取得 (存在チェック用)">
<polygon fill="white" stroke="#666666" points="816.5,-63.41 695.5,-63.41 695.5,-44.41 816.5,-44.41 816.5,-63.41"/>
<text text-anchor="middle" x="756" y="-51.41" font-family="Helvetica,sans-Serif" font-size="10.00">Span::Application::Ptr</text>
</a>
</g>
</g>
<!-- Node4&#45;&gt;Node5 -->
<g id="edge4_Node000004_Node000005" class="edge">
<title>Node4&#45;&gt;Node5</title>
<g id="a_edge4_Node000004_Node000005"><a xlink:title=" ">
<path fill="none" stroke="#63b8ff" d="M610.2,-137.33C619.6,-134.78 629.25,-131.66 638,-127.91 674.28,-112.38 712.16,-86.33 734.65,-69.64"/>
<polygon fill="#63b8ff" stroke="#63b8ff" points="736.88,-72.35 742.76,-63.54 732.66,-66.76 736.88,-72.35"/>
</a>
</g>
</g>
<!-- Node5&#45;&gt;Node3 -->
<g id="edge5_Node000005_Node000003" class="edge">
<title>Node5&#45;&gt;Node3</title>
<g id="a_edge5_Node000005_Node000003"><a xlink:title=" ">
<path fill="none" stroke="#63b8ff" d="M735.79,-44.27C689.78,-22.62 570.63,24.81 484,-16.91 446.82,-34.82 420.42,-76.79 406.6,-103.68"/>
<polygon fill="#63b8ff" stroke="#63b8ff" points="403.37,-102.32 402.08,-112.83 409.64,-105.42 403.37,-102.32"/>
</a>
</g>
</g>
<!-- Node7 -->
<g id="Node000007" class="node">
<title>Node7</title>
<g id="a_Node000007"><a xlink:href="classSpan_1_1AssetManager.html#a9d65496b728f9a4fef2a5334d5a8ad56" target="_top" xlink:title=" ">
<polygon fill="white" stroke="#666666" points="814,-327.91 698,-327.91 698,-297.91 814,-297.91 814,-327.91"/>
<text text-anchor="start" x="706" y="-315.91" font-family="Helvetica,sans-Serif" font-size="10.00">Span::AssetManager</text>
<text text-anchor="middle" x="756" y="-304.91" font-family="Helvetica,sans-Serif" font-size="10.00">::AssetManager</text>
</a>
</g>
</g>
<!-- Node6&#45;&gt;Node7 -->
<g id="edge7_Node000006_Node000007" class="edge">
<title>Node6&#45;&gt;Node7</title>
<g id="a_edge7_Node000006_Node000007"><a xlink:title=" ">
<path fill="none" stroke="#63b8ff" d="M631.13,-299.44C649.57,-301.44 669.45,-303.61 687.79,-305.6"/>
<polygon fill="#63b8ff" stroke="#63b8ff" points="687.47,-309.09 697.79,-306.69 688.23,-302.13 687.47,-309.09"/>
</a>
</g>
</g>
<!-- Node9 -->
<g id="Node000009" class="node">
<title>Node9</title>
<g id="a_Node000009"><a xlink:href="classSpan_1_1AssetRegistry.html#a2b83eeb5aa2e6d4c807d4e4a11db563c" target="_top" xlink:title=" ">
<polygon fill="white" stroke="#666666" points="824.5,-279.41 687.5,-279.41 687.5,-260.41 824.5,-260.41 824.5,-279.41"/>
<text text-anchor="middle" x="756" y="-267.41" font-family="Helvetica,sans-Serif" font-size="10.00">Span::AssetRegistry::Get</text>
</a>
</g>
</g>
<!-- Node8&#45;&gt;Node9 -->
<g id="edge9_Node000008_Node000009" class="edge">
<title>Node8&#45;&gt;Node9</title>
<g id="a_edge9_Node000008_Node000009"><a xlink:title=" ">
<path fill="none" stroke="#63b8ff" d="M619.12,-239.64C645.42,-245.5 676.43,-252.41 702.18,-258.15"/>
<polygon fill="#63b8ff" stroke="#63b8ff" points="701.61,-261.6 712.13,-260.36 703.13,-254.77 701.61,-261.6"/>
</a>
</g>
</g>
<!-- Node10 -->
<g id="Node000010" class="node">
<title>Node10</title>
<g id="a_Node000010"><a xlink:href="classSpan_1_1AssetRegistry.html#a71c0e006b41117cb0b296adaf0de1c56" target="_top" xlink:title="指定ディレクトリ以下の全アセットをスキャンし、レジストリを構築します。">
<polygon fill="white" stroke="#666666" points="813,-241.91 699,-241.91 699,-211.91 813,-211.91 813,-241.91"/>
<text text-anchor="start" x="707" y="-229.91" font-family="Helvetica,sans-Serif" font-size="10.00">Span::AssetRegistry</text>
<text text-anchor="middle" x="756" y="-218.91" font-family="Helvetica,sans-Serif" font-size="10.00">::Refresh</text>
</a>
</g>
</g>
<!-- Node8&#45;&gt;Node10 -->
<g id="edge10_Node000008_Node000010" class="edge">
<title>Node8&#45;&gt;Node10</title>
<g id="a_edge10_Node000008_Node000010"><a xlink:title=" ">
<path fill="none" stroke="#63b8ff" d="M619.12,-226.91C640.91,-226.91 665.92,-226.91 688.51,-226.91"/>
<polygon fill="#63b8ff" stroke="#63b8ff" points="688.69,-230.41 698.69,-226.91 688.69,-223.41 688.69,-230.41"/>
</a>
</g>
</g>
<!-- Node11 -->
<g id="Node000011" class="node">
<title>Node11</title>
<g id="a_Node000011"><a xlink:href="classSpan_1_1AssetRegistry.html#a432dbe6ae1b0ab930bd903d93ad5a734" target="_top" xlink:title="パスからアセット情報を登録・更新します (ファイル移動/作成時用)。">
<polygon fill="white" stroke="#666666" points="988,-241.91 874,-241.91 874,-211.91 988,-211.91 988,-241.91"/>
<text text-anchor="start" x="882" y="-229.91" font-family="Helvetica,sans-Serif" font-size="10.00">Span::AssetRegistry</text>
<text text-anchor="middle" x="931" y="-218.91" font-family="Helvetica,sans-Serif" font-size="10.00">::RegisterAsset</text>
</a>
</g>
</g>
<!-- Node10&#45;&gt;Node11 -->
<g id="edge11_Node000010_Node000011" class="edge">
<title>Node10&#45;&gt;Node11</title>
<g id="a_edge11_Node000010_Node000011"><a xlink:title=" ">
<path fill="none" stroke="#63b8ff" d="M813.17,-226.91C829.26,-226.91 846.96,-226.91 863.61,-226.91"/>
<polygon fill="#63b8ff" stroke="#63b8ff" points="863.82,-230.41 873.82,-226.91 863.82,-223.41 863.82,-230.41"/>
</a>
</g>
</g>
<!-- Node12 -->
<g id="Node000012" class="node">
<title>Node12</title>
<g id="a_Node000012"><a xlink:href="structSpan_1_1AssetMetadata.html#a83c8ed8bfd79a2aa90ed8d4e36b785b8" target="_top" xlink:title=" ">
<polygon fill="white" stroke="#666666" points="1333.5,-268.91 1213.5,-268.91 1213.5,-238.91 1333.5,-238.91 1333.5,-268.91"/>
<text text-anchor="start" x="1221.5" y="-256.91" font-family="Helvetica,sans-Serif" font-size="10.00">Span::AssetMetadata</text>
<text text-anchor="middle" x="1273.5" y="-245.91" font-family="Helvetica,sans-Serif" font-size="10.00">::IsValid</text>
</a>
</g>
</g>
<!-- Node11&#45;&gt;Node12 -->
<g id="edge12_Node000011_Node000012" class="edge">
<title>Node11&#45;&gt;Node12</title>
<g id="a_edge12_Node000011_Node000012"><a xlink:title=" ">
<path fill="none" stroke="#63b8ff" d="M988.23,-231.37C1047.09,-236.04 1139.62,-243.38 1203.02,-248.4"/>
<polygon fill="#63b8ff" stroke="#63b8ff" points="1203.08,-251.92 1213.33,-249.22 1203.64,-244.94 1203.08,-251.92"/>
</a>
</g>
</g>
<!-- Node13 -->
<g id="Node000013" class="node">
<title>Node13</title>
<g id="a_Node000013"><a xlink:href="classSpan_1_1AssetSerializer.html#adea72d3eb1434b36473f6e0d38396451" target="_top" xlink:title="指定したアセットのメタデータを取得します。 .metaファイルが存在しない場合は、新規にGUIDを生成して作成します。">
<polygon fill="white" stroke="#666666" points="1160,-220.91 1024,-220.91 1024,-190.91 1160,-190.91 1160,-220.91"/>
<text text-anchor="start" x="1032" y="-208.91" font-family="Helvetica,sans-Serif" font-size="10.00">Span::AssetSerializer</text>
<text text-anchor="middle" x="1092" y="-197.91" font-family="Helvetica,sans-Serif" font-size="10.00">::LoadOrCreateMetadata</text>
</a>
</g>
</g>
<!-- Node11&#45;&gt;Node13 -->
<g id="edge13_Node000011_Node000013" class="edge">
<title>Node11&#45;&gt;Node13</title>
<g id="a_edge13_Node000011_Node000013"><a xlink:title=" ">
<path fill="none" stroke="#63b8ff" d="M988.06,-219.51C996.35,-218.41 1005.01,-217.27 1013.64,-216.13"/>
<polygon fill="#63b8ff" stroke="#63b8ff" points="1014.28,-219.58 1023.73,-214.8 1013.36,-212.64 1014.28,-219.58"/>
</a>
</g>
</g>
<!-- Node13&#45;&gt;Node12 -->
<g id="edge15_Node000013_Node000012" class="edge">
<title>Node13&#45;&gt;Node12</title>
<g id="a_edge15_Node000013_Node000012"><a xlink:title=" ">
<path fill="none" stroke="#63b8ff" d="M1149.3,-220.97C1167.51,-225.84 1187.87,-231.28 1206.71,-236.32"/>
<polygon fill="#63b8ff" stroke="#63b8ff" points="1205.83,-239.71 1216.4,-238.91 1207.64,-232.95 1205.83,-239.71"/>
</a>
</g>
</g>
<!-- Node14 -->
<g id="Node000014" class="node">
<title>Node14</title>
<g id="a_Node000014"><a xlink:href="classSpan_1_1AssetSerializer.html#a39e6a3bea02531fc2c31683a27d52061" target="_top" xlink:title="拡張子から汗ッとタイプを推論します。">
<polygon fill="white" stroke="#666666" points="1351,-172.91 1196,-172.91 1196,-142.91 1351,-142.91 1351,-172.91"/>
<text text-anchor="start" x="1204" y="-160.91" font-family="Helvetica,sans-Serif" font-size="10.00">Span::AssetSerializer</text>
<text text-anchor="middle" x="1273.5" y="-149.91" font-family="Helvetica,sans-Serif" font-size="10.00">::DeduceTypeFromExtension</text>
</a>
</g>
</g>
<!-- Node13&#45;&gt;Node14 -->
<g id="edge14_Node000013_Node000014" class="edge">
<title>Node13&#45;&gt;Node14</title>
<g id="a_edge14_Node000013_Node000014"><a xlink:title=" ">
<path fill="none" stroke="#63b8ff" d="M1149.3,-190.86C1167.51,-185.99 1187.87,-180.54 1206.71,-175.51"/>
<polygon fill="#63b8ff" stroke="#63b8ff" points="1207.64,-178.88 1216.4,-172.92 1205.83,-172.12 1207.64,-178.88"/>
</a>
</g>
</g>
<!-- Node15 -->
<g id="Node000015" class="node">
<title>Node15</title>
<g id="a_Node000015"><a xlink:href="namespaceSpan.html#a8ba99036404afdb464fdc44c3dbc7136" target="_top" xlink:title=" ">
<polygon fill="white" stroke="#666666" points="1318.5,-124.41 1228.5,-124.41 1228.5,-105.41 1318.5,-105.41 1318.5,-124.41"/>
<text text-anchor="middle" x="1273.5" y="-112.41" font-family="Helvetica,sans-Serif" font-size="10.00">Span::s_Engine</text>
</a>
</g>
</g>
<!-- Node13&#45;&gt;Node15 -->
<g id="edge16_Node000013_Node000015" class="edge">
<title>Node13&#45;&gt;Node15</title>
<g id="a_edge16_Node000013_Node000015"><a xlink:title=" ">
<path fill="none" stroke="#63b8ff" d="M1110.37,-190.74C1129.91,-174.42 1163.23,-148.81 1196,-133.91 1203.09,-130.69 1210.82,-127.96 1218.54,-125.66"/>
<polygon fill="#63b8ff" stroke="#63b8ff" points="1219.56,-129.01 1228.28,-122.98 1217.7,-122.26 1219.56,-129.01"/>
</a>
</g>
</g>
<!-- Node16 -->
<g id="Node000016" class="node">
<title>Node16</title>
<g id="a_Node000016"><a xlink:href="classSpan_1_1AssetSerializer.html#a0eb09ea936ef7cf65184977a5809ef6b" target="_top" xlink:title="メタデータをファイルに保存する。">
<polygon fill="white" stroke="#666666" points="1333,-220.91 1214,-220.91 1214,-190.91 1333,-190.91 1333,-220.91"/>
<text text-anchor="start" x="1222" y="-208.91" font-family="Helvetica,sans-Serif" font-size="10.00">Span::AssetSerializer</text>
<text text-anchor="middle" x="1273.5" y="-197.91" font-family="Helvetica,sans-Serif" font-size="10.00">::SaveMetadata</text>
</a>
</g>
</g>
<!-- Node13&#45;&gt;Node16 -->
<g id="edge17_Node000013_Node000016" class="edge">
<title>Node13&#45;&gt;Node16</title>
<g id="a_edge17_Node000013_Node000016"><a xlink:title=" ">
<path fill="none" stroke="#63b8ff" d="M1160.09,-205.91C1174.28,-205.91 1189.27,-205.91 1203.52,-205.91"/>
<polygon fill="#63b8ff" stroke="#63b8ff" points="1203.74,-209.41 1213.74,-205.91 1203.74,-202.41 1203.74,-209.41"/>
</a>
</g>
</g>
<!-- Node18 -->
<g id="Node000018" class="node">
<title>Node18</title>
<g id="a_Node000018"><a xlink:href="classSpan_1_1GuiManager.html#a79fd10d93a58b741c10bd8c8477afc0a" target="_top" xlink:title="管理対象のエディタパネルを追加します。">
<polygon fill="white" stroke="#666666" points="834.5,-193.41 677.5,-193.41 677.5,-174.41 834.5,-174.41 834.5,-193.41"/>
<text text-anchor="middle" x="756" y="-181.41" font-family="Helvetica,sans-Serif" font-size="10.00">Span::GuiManager::AddPanel</text>
</a>
</g>
</g>
<!-- Node17&#45;&gt;Node18 -->
<g id="edge19_Node000017_Node000018" class="edge">
<title>Node17&#45;&gt;Node18</title>
<g id="a_edge19_Node000017_Node000018"><a xlink:title=" ">
<path fill="none" stroke="#63b8ff" d="M638,-183.91C647.63,-183.91 657.55,-183.91 667.34,-183.91"/>
<polygon fill="#63b8ff" stroke="#63b8ff" points="667.48,-187.41 677.48,-183.91 667.48,-180.41 667.48,-187.41"/>
</a>
</g>
</g>
<!-- Node19 -->
<g id="Node000019" class="node">
<title>Node19</title>
<g id="a_Node000019"><a xlink:href="classSpan_1_1GuiManager.html#ad8ff21c11b12bff5ee5b454a4dae33d0" target="_top" xlink:title="フォントや配色などのスタイル設定を適用します。">
<polygon fill="white" stroke="#666666" points="838,-156.41 674,-156.41 674,-137.41 838,-137.41 838,-156.41"/>
<text text-anchor="middle" x="756" y="-144.41" font-family="Helvetica,sans-Serif" font-size="10.00">Span::GuiManager::ApplyStyle</text>
</a>
</g>
</g>
<!-- Node17&#45;&gt;Node19 -->
<g id="edge20_Node000017_Node000019" class="edge">
<title>Node17&#45;&gt;Node19</title>
<g id="a_edge20_Node000017_Node000019"><a xlink:title=" ">
<path fill="none" stroke="#63b8ff" d="M611.7,-174.39C637.15,-169.51 668.34,-163.53 695.11,-158.4"/>
<polygon fill="#63b8ff" stroke="#63b8ff" points="695.97,-161.79 705.13,-156.47 694.65,-154.92 695.97,-161.79"/>
</a>
</g>
</g>
</g>
</svg>
