<?xml version="1.0" encoding="UTF-8" standalone="no"?>
<!DOCTYPE svg PUBLIC "-//W3C//DTD SVG 1.1//EN"
 "http://www.w3.org/Graphics/SVG/1.1/DTD/svg11.dtd">
<!-- Generated by graphviz version 2.43.0 (0)
 -->
<!-- Title: Engine/Source/Runtime/Reflection/ComponentRegistry.h Pages: 1 -->
<svg width="3141pt" height="423pt"
 viewBox="0.00 0.00 3141.00 423.00" xmlns="http://www.w3.org/2000/svg" xmlns:xlink="http://www.w3.org/1999/xlink">
<g id="graph0" class="graph" transform="scale(1 1) rotate(0) translate(4 419)">
<title>Engine/Source/Runtime/Reflection/ComponentRegistry.h</title>
<!-- Node1 -->
<g id="Node000001" class="node">
<title>Node1</title>
<g id="a_Node000001"><a xlink:title="コンポーネントのメタデータ管理 (リフレクション)。">
<polygon fill="#999999" stroke="#666666" points="1351,-415 1175,-415 1175,-385 1351,-385 1351,-415"/>
<text text-anchor="start" x="1183" y="-403" font-family="Helvetica,sans-Serif" font-size="10.00">Engine/Source/Runtime</text>
<text text-anchor="middle" x="1263" y="-392" font-family="Helvetica,sans-Serif" font-size="10.00">/Reflection/ComponentRegistry.h</text>
</a>
</g>
</g>
<!-- Node2 -->
<g id="Node000002" class="node">
<title>Node2</title>
<g id="a_Node000002"><a xlink:href="Entity_8h.html" target="_top" xlink:title="ECSにおけるオブジェクトの識別子 (ID) を定義します。">
<polygon fill="white" stroke="#666666" points="1257,-129 1149,-129 1149,-110 1257,-110 1257,-129"/>
<text text-anchor="middle" x="1203" y="-117" font-family="Helvetica,sans-Serif" font-size="10.00">ECS/Kernel/Entity.h</text>
</a>
</g>
</g>
<!-- Node1&#45;&gt;Node2 -->
<g id="edge1_Node000001_Node000002" class="edge">
<title>Node1&#45;&gt;Node2</title>
<g id="a_edge1_Node000001_Node000002"><a xlink:title=" ">
<path fill="none" stroke="#63b8ff" d="M1241.21,-384.99C1214.58,-365.97 1173,-329.26 1173,-285.5 1173,-285.5 1173,-285.5 1173,-228.5 1173,-195.87 1185.87,-159.65 1194.75,-138.55"/>
<polygon fill="#63b8ff" stroke="#63b8ff" points="1198.02,-139.8 1198.83,-129.23 1191.61,-136.99 1198.02,-139.8"/>
</a>
</g>
</g>
<!-- Node43 -->
<g id="Node000043" class="node">
<title>Node43</title>
<g id="a_Node000043"><a xlink:href="World_8h.html" target="_top" xlink:title="ECSワールド (シーン) の管理クラス。">
<polygon fill="white" stroke="#666666" points="1508.5,-349 1399.5,-349 1399.5,-330 1508.5,-330 1508.5,-349"/>
<text text-anchor="middle" x="1454" y="-337" font-family="Helvetica,sans-Serif" font-size="10.00">ECS/Kernel/World.h</text>
</a>
</g>
</g>
<!-- Node1&#45;&gt;Node43 -->
<g id="edge43_Node000001_Node000043" class="edge">
<title>Node1&#45;&gt;Node43</title>
<g id="a_edge43_Node000001_Node000043"><a xlink:title=" ">
<path fill="none" stroke="#63b8ff" d="M1308.75,-384.99C1341.57,-374.94 1385.27,-361.55 1416.13,-352.1"/>
<polygon fill="#63b8ff" stroke="#63b8ff" points="1417.54,-355.33 1426.07,-349.05 1415.49,-348.64 1417.54,-355.33"/>
</a>
</g>
</g>
<!-- Node3 -->
<g id="Node000003" class="node">
<title>Node3</title>
<g id="a_Node000003"><a xlink:href="CoreMinimal_8h.html" target="_top" xlink:title="エンジンの標準インクルードファイル。">
<polygon fill="white" stroke="#666666" points="1532.5,-74 1419.5,-74 1419.5,-55 1532.5,-55 1532.5,-74"/>
<text text-anchor="middle" x="1476" y="-62" font-family="Helvetica,sans-Serif" font-size="10.00">Core/CoreMinimal.h</text>
</a>
</g>
</g>
<!-- Node2&#45;&gt;Node3 -->
<g id="edge2_Node000002_Node000003" class="edge">
<title>Node2&#45;&gt;Node3</title>
<g id="a_edge2_Node000002_Node000003"><a xlink:title=" ">
<path fill="none" stroke="#63b8ff" d="M1246.86,-109.98C1294.48,-100.74 1370.58,-85.97 1421.88,-76.01"/>
<polygon fill="#63b8ff" stroke="#63b8ff" points="1422.64,-79.42 1431.79,-74.08 1421.31,-72.55 1422.64,-79.42"/>
</a>
</g>
</g>
<!-- Node4 -->
<g id="Node000004" class="node">
<title>Node4</title>
<g id="a_Node000004"><a xlink:title=" ">
<polygon fill="#e0e0e0" stroke="#999999" points="70,-19 0,-19 0,0 70,0 70,-19"/>
<text text-anchor="middle" x="35" y="-7" font-family="Helvetica,sans-Serif" font-size="10.00">Windows.h</text>
</a>
</g>
</g>
<!-- Node3&#45;&gt;Node4 -->
<g id="edge3_Node000003_Node000004" class="edge">
<title>Node3&#45;&gt;Node4</title>
<g id="a_edge3_Node000003_Node000004"><a xlink:title=" ">
<path fill="none" stroke="#63b8ff" d="M1419.36,-62.9C1194.8,-60.33 365.91,-49.06 80.79,-18.98"/>
<polygon fill="#63b8ff" stroke="#63b8ff" points="80.79,-15.46 70.47,-17.85 80.03,-22.42 80.79,-15.46"/>
</a>
</g>
</g>
<!-- Node5 -->
<g id="Node000005" class="node">
<title>Node5</title>
<g id="a_Node000005"><a xlink:title=" ">
<polygon fill="#e0e0e0" stroke="#999999" points="129.5,-19 88.5,-19 88.5,0 129.5,0 129.5,-19"/>
<text text-anchor="middle" x="109" y="-7" font-family="Helvetica,sans-Serif" font-size="10.00">wrl.h</text>
</a>
</g>
</g>
<!-- Node3&#45;&gt;Node5 -->
<g id="edge4_Node000003_Node000005" class="edge">
<title>Node3&#45;&gt;Node5</title>
<g id="a_edge4_Node000003_Node000005"><a xlink:title=" ">
<path fill="none" stroke="#63b8ff" d="M1419.42,-63.51C1200.87,-63.27 410.98,-59.64 139.96,-18.86"/>
<polygon fill="#63b8ff" stroke="#63b8ff" points="140.19,-15.35 129.76,-17.27 139.11,-22.27 140.19,-15.35"/>
</a>
</g>
</g>
<!-- Node6 -->
<g id="Node000006" class="node">
<title>Node6</title>
<g id="a_Node000006"><a xlink:title=" ">
<polygon fill="#e0e0e0" stroke="#999999" points="218.5,-19 147.5,-19 147.5,0 218.5,0 218.5,-19"/>
<text text-anchor="middle" x="183" y="-7" font-family="Helvetica,sans-Serif" font-size="10.00">wrl/client.h</text>
</a>
</g>
</g>
<!-- Node3&#45;&gt;Node6 -->
<g id="edge5_Node000003_Node000006" class="edge">
<title>Node3&#45;&gt;Node6</title>
<g id="a_edge5_Node000003_Node000006"><a xlink:title=" ">
<path fill="none" stroke="#63b8ff" d="M1419.39,-62.62C1210.61,-59.19 483.19,-45.67 228.73,-18.85"/>
<polygon fill="#63b8ff" stroke="#63b8ff" points="229.11,-15.37 218.79,-17.76 228.35,-22.33 229.11,-15.37"/>
</a>
</g>
</g>
<!-- Node7 -->
<g id="Node000007" class="node">
<title>Node7</title>
<g id="a_Node000007"><a xlink:title=" ">
<polygon fill="#e0e0e0" stroke="#999999" points="287,-19 237,-19 237,0 287,0 287,-19"/>
<text text-anchor="middle" x="262" y="-7" font-family="Helvetica,sans-Serif" font-size="10.00">cstdint</text>
</a>
</g>
</g>
<!-- Node3&#45;&gt;Node7 -->
<g id="edge6_Node000003_Node000007" class="edge">
<title>Node3&#45;&gt;Node7</title>
<g id="a_edge6_Node000003_Node000007"><a xlink:title=" ">
<path fill="none" stroke="#63b8ff" d="M1419.29,-62.92C1217.85,-60.61 536.52,-50.71 297.17,-18.79"/>
<polygon fill="#63b8ff" stroke="#63b8ff" points="297.52,-15.3 287.14,-17.4 296.56,-22.24 297.52,-15.3"/>
</a>
</g>
</g>
<!-- Node8 -->
<g id="Node000008" class="node">
<title>Node8</title>
<g id="a_Node000008"><a xlink:title=" ">
<polygon fill="#e0e0e0" stroke="#999999" points="365,-19 305,-19 305,0 365,0 365,-19"/>
<text text-anchor="middle" x="335" y="-7" font-family="Helvetica,sans-Serif" font-size="10.00">iostream</text>
</a>
</g>
</g>
<!-- Node3&#45;&gt;Node8 -->
<g id="edge7_Node000003_Node000008" class="edge">
<title>Node3&#45;&gt;Node8</title>
<g id="a_edge7_Node000003_Node000008"><a xlink:title=" ">
<path fill="none" stroke="#63b8ff" d="M1419.4,-62.52C1227.07,-58.98 598.77,-45.73 375.16,-18.86"/>
<polygon fill="#63b8ff" stroke="#63b8ff" points="375.5,-15.38 365.14,-17.61 374.63,-22.32 375.5,-15.38"/>
</a>
</g>
</g>
<!-- Node9 -->
<g id="Node000009" class="node">
<title>Node9</title>
<g id="a_Node000009"><a xlink:title=" ">
<polygon fill="#e0e0e0" stroke="#999999" points="436.5,-19 383.5,-19 383.5,0 436.5,0 436.5,-19"/>
<text text-anchor="middle" x="410" y="-7" font-family="Helvetica,sans-Serif" font-size="10.00">string.h</text>
</a>
</g>
</g>
<!-- Node3&#45;&gt;Node9 -->
<g id="edge8_Node000003_Node000009" class="edge">
<title>Node3&#45;&gt;Node9</title>
<g id="a_edge8_Node000003_Node000009"><a xlink:title=" ">
<path fill="none" stroke="#63b8ff" d="M1419.22,-62.46C1235.17,-58.86 655.47,-45.78 446.59,-18.72"/>
<polygon fill="#63b8ff" stroke="#63b8ff" points="447.01,-15.24 436.63,-17.38 446.07,-22.18 447.01,-15.24"/>
</a>
</g>
</g>
<!-- Node10 -->
<g id="Node000010" class="node">
<title>Node10</title>
<g id="a_Node000010"><a xlink:title=" ">
<polygon fill="#e0e0e0" stroke="#999999" points="499,-19 455,-19 455,0 499,0 499,-19"/>
<text text-anchor="middle" x="477" y="-7" font-family="Helvetica,sans-Serif" font-size="10.00">string</text>
</a>
</g>
</g>
<!-- Node3&#45;&gt;Node10 -->
<g id="edge9_Node000003_Node000010" class="edge">
<title>Node3&#45;&gt;Node10</title>
<g id="a_edge9_Node000003_Node000010"><a xlink:title=" ">
<path fill="none" stroke="#63b8ff" d="M1419.49,-62.55C1243.32,-59.32 704.77,-47.47 509.38,-18.78"/>
<polygon fill="#63b8ff" stroke="#63b8ff" points="509.64,-15.28 499.22,-17.23 508.58,-22.2 509.64,-15.28"/>
</a>
</g>
</g>
<!-- Node11 -->
<g id="Node000011" class="node">
<title>Node11</title>
<g id="a_Node000011"><a xlink:title=" ">
<polygon fill="#e0e0e0" stroke="#999999" points="564.5,-19 517.5,-19 517.5,0 564.5,0 564.5,-19"/>
<text text-anchor="middle" x="541" y="-7" font-family="Helvetica,sans-Serif" font-size="10.00">vector</text>
</a>
</g>
</g>
<!-- Node3&#45;&gt;Node11 -->
<g id="edge10_Node000003_Node000011" class="edge">
<title>Node3&#45;&gt;Node11</title>
<g id="a_edge10_Node000003_Node000011"><a xlink:title=" ">
<path fill="none" stroke="#63b8ff" d="M1419.41,-62.27C1251.36,-58.37 756.14,-45.08 574.6,-18.88"/>
<polygon fill="#63b8ff" stroke="#63b8ff" points="575.06,-15.4 564.65,-17.38 574.01,-22.33 575.06,-15.4"/>
</a>
</g>
</g>
<!-- Node12 -->
<g id="Node000012" class="node">
<title>Node12</title>
<g id="a_Node000012"><a xlink:title=" ">
<polygon fill="#e0e0e0" stroke="#999999" points="629.5,-19 582.5,-19 582.5,0 629.5,0 629.5,-19"/>
<text text-anchor="middle" x="606" y="-7" font-family="Helvetica,sans-Serif" font-size="10.00">deque</text>
</a>
</g>
</g>
<!-- Node3&#45;&gt;Node12 -->
<g id="edge11_Node000003_Node000012" class="edge">
<title>Node3&#45;&gt;Node12</title>
<g id="a_edge11_Node000003_Node000012"><a xlink:title=" ">
<path fill="none" stroke="#63b8ff" d="M1419.48,-62.02C1260.02,-57.61 807.8,-43.42 639.6,-18.88"/>
<polygon fill="#63b8ff" stroke="#63b8ff" points="640.06,-15.41 629.65,-17.36 639.01,-22.33 640.06,-15.41"/>
</a>
</g>
</g>
<!-- Node13 -->
<g id="Node000013" class="node">
<title>Node13</title>
<g id="a_Node000013"><a xlink:title=" ">
<polygon fill="#e0e0e0" stroke="#999999" points="740.5,-19 647.5,-19 647.5,0 740.5,0 740.5,-19"/>
<text text-anchor="middle" x="694" y="-7" font-family="Helvetica,sans-Serif" font-size="10.00">unordered_map</text>
</a>
</g>
</g>
<!-- Node3&#45;&gt;Node13 -->
<g id="edge12_Node000003_Node000013" class="edge">
<title>Node3&#45;&gt;Node13</title>
<g id="a_edge12_Node000003_Node000013"><a xlink:title=" ">
<path fill="none" stroke="#63b8ff" d="M1419.38,-61.75C1298.57,-57.65 1006.46,-45.75 750.93,-18.99"/>
<polygon fill="#63b8ff" stroke="#63b8ff" points="751.02,-15.48 740.71,-17.91 750.29,-22.44 751.02,-15.48"/>
</a>
</g>
</g>
<!-- Node14 -->
<g id="Node000014" class="node">
<title>Node14</title>
<g id="a_Node000014"><a xlink:title=" ">
<polygon fill="#e0e0e0" stroke="#999999" points="797,-19 759,-19 759,0 797,0 797,-19"/>
<text text-anchor="middle" x="778" y="-7" font-family="Helvetica,sans-Serif" font-size="10.00">map</text>
</a>
</g>
</g>
<!-- Node3&#45;&gt;Node14 -->
<g id="edge13_Node000003_Node000014" class="edge">
<title>Node3&#45;&gt;Node14</title>
<g id="a_edge13_Node000003_Node000014"><a xlink:title=" ">
<path fill="none" stroke="#63b8ff" d="M1419.44,-64.07C1305.05,-64.3 1038.19,-60.09 807.07,-18.74"/>
<polygon fill="#63b8ff" stroke="#63b8ff" points="807.6,-15.28 797.14,-16.94 806.35,-22.17 807.6,-15.28"/>
</a>
</g>
</g>
<!-- Node15 -->
<g id="Node000015" class="node">
<title>Node15</title>
<g id="a_Node000015"><a xlink:title=" ">
<polygon fill="#e0e0e0" stroke="#999999" points="873,-19 815,-19 815,0 873,0 873,-19"/>
<text text-anchor="middle" x="844" y="-7" font-family="Helvetica,sans-Serif" font-size="10.00">memory</text>
</a>
</g>
</g>
<!-- Node3&#45;&gt;Node15 -->
<g id="edge14_Node000003_Node000015" class="edge">
<title>Node3&#45;&gt;Node15</title>
<g id="a_edge14_Node000003_Node000015"><a xlink:title=" ">
<path fill="none" stroke="#63b8ff" d="M1419.18,-61.99C1314.81,-58.61 1085.44,-48.42 883.29,-18.98"/>
<polygon fill="#63b8ff" stroke="#63b8ff" points="883.78,-15.51 873.38,-17.51 882.76,-22.44 883.78,-15.51"/>
</a>
</g>
</g>
<!-- Node16 -->
<g id="Node000016" class="node">
<title>Node16</title>
<g id="a_Node000016"><a xlink:title=" ">
<polygon fill="#e0e0e0" stroke="#999999" points="955,-19 891,-19 891,0 955,0 955,-19"/>
<text text-anchor="middle" x="923" y="-7" font-family="Helvetica,sans-Serif" font-size="10.00">algorithm</text>
</a>
</g>
</g>
<!-- Node3&#45;&gt;Node16 -->
<g id="edge15_Node000003_Node000016" class="edge">
<title>Node3&#45;&gt;Node16</title>
<g id="a_edge15_Node000003_Node000016"><a xlink:title=" ">
<path fill="none" stroke="#63b8ff" d="M1419.3,-60.76C1326.41,-55.79 1135.86,-43.58 965.09,-18.99"/>
<polygon fill="#63b8ff" stroke="#63b8ff" points="965.57,-15.52 955.17,-17.54 964.56,-22.45 965.57,-15.52"/>
</a>
</g>
</g>
<!-- Node17 -->
<g id="Node000017" class="node">
<title>Node17</title>
<g id="a_Node000017"><a xlink:title=" ">
<polygon fill="#e0e0e0" stroke="#999999" points="1038.5,-19 973.5,-19 973.5,0 1038.5,0 1038.5,-19"/>
<text text-anchor="middle" x="1006" y="-7" font-family="Helvetica,sans-Serif" font-size="10.00">functional</text>
</a>
</g>
</g>
<!-- Node3&#45;&gt;Node17 -->
<g id="edge16_Node000003_Node000017" class="edge">
<title>Node3&#45;&gt;Node17</title>
<g id="a_edge16_Node000003_Node000017"><a xlink:title=" ">
<path fill="none" stroke="#63b8ff" d="M1419.35,-59.35C1339.13,-53.1 1187.68,-39.87 1048.5,-18.92"/>
<polygon fill="#63b8ff" stroke="#63b8ff" points="1048.92,-15.44 1038.5,-17.4 1047.86,-22.36 1048.92,-15.44"/>
</a>
</g>
</g>
<!-- Node18 -->
<g id="Node000018" class="node">
<title>Node18</title>
<g id="a_Node000018"><a xlink:title=" ">
<polygon fill="#e0e0e0" stroke="#999999" points="1107,-19 1057,-19 1057,0 1107,0 1107,-19"/>
<text text-anchor="middle" x="1082" y="-7" font-family="Helvetica,sans-Serif" font-size="10.00">chrono</text>
</a>
</g>
</g>
<!-- Node3&#45;&gt;Node18 -->
<g id="edge17_Node000003_Node000018" class="edge">
<title>Node3&#45;&gt;Node18</title>
<g id="a_edge17_Node000003_Node000018"><a xlink:title=" ">
<path fill="none" stroke="#63b8ff" d="M1419.24,-58.64C1350.11,-52.25 1229.65,-39.56 1117.32,-19.04"/>
<polygon fill="#63b8ff" stroke="#63b8ff" points="1117.65,-15.54 1107.18,-17.16 1116.37,-22.42 1117.65,-15.54"/>
</a>
</g>
</g>
<!-- Node19 -->
<g id="Node000019" class="node">
<title>Node19</title>
<g id="a_Node000019"><a xlink:title=" ">
<polygon fill="#e0e0e0" stroke="#999999" points="1171,-19 1125,-19 1125,0 1171,0 1171,-19"/>
<text text-anchor="middle" x="1148" y="-7" font-family="Helvetica,sans-Serif" font-size="10.00">cstdio</text>
</a>
</g>
</g>
<!-- Node3&#45;&gt;Node19 -->
<g id="edge18_Node000003_Node000019" class="edge">
<title>Node3&#45;&gt;Node19</title>
<g id="a_edge18_Node000003_Node000019"><a xlink:title=" ">
<path fill="none" stroke="#63b8ff" d="M1419.48,-56.89C1361.83,-49.72 1269.65,-37.1 1181.27,-19.07"/>
<polygon fill="#63b8ff" stroke="#63b8ff" points="1181.85,-15.62 1171.35,-17.02 1180.43,-22.47 1181.85,-15.62"/>
</a>
</g>
</g>
<!-- Node20 -->
<g id="Node000020" class="node">
<title>Node20</title>
<g id="a_Node000020"><a xlink:title=" ">
<polygon fill="#e0e0e0" stroke="#999999" points="1241,-19 1189,-19 1189,0 1241,0 1241,-19"/>
<text text-anchor="middle" x="1215" y="-7" font-family="Helvetica,sans-Serif" font-size="10.00">cassert</text>
</a>
</g>
</g>
<!-- Node3&#45;&gt;Node20 -->
<g id="edge19_Node000003_Node000020" class="edge">
<title>Node3&#45;&gt;Node20</title>
<g id="a_edge19_Node000003_Node000020"><a xlink:title=" ">
<path fill="none" stroke="#63b8ff" d="M1429.56,-54.97C1385.93,-46.82 1318.59,-33.89 1251.27,-19.21"/>
<polygon fill="#63b8ff" stroke="#63b8ff" points="1251.86,-15.75 1241.34,-17.03 1250.36,-22.59 1251.86,-15.75"/>
</a>
</g>
</g>
<!-- Node21 -->
<g id="Node000021" class="node">
<title>Node21</title>
<g id="a_Node000021"><a xlink:title=" ">
<polygon fill="#e0e0e0" stroke="#999999" points="1324.5,-19 1259.5,-19 1259.5,0 1324.5,0 1324.5,-19"/>
<text text-anchor="middle" x="1292" y="-7" font-family="Helvetica,sans-Serif" font-size="10.00">typeindex</text>
</a>
</g>
</g>
<!-- Node3&#45;&gt;Node21 -->
<g id="edge20_Node000003_Node000021" class="edge">
<title>Node3&#45;&gt;Node21</title>
<g id="a_edge20_Node000003_Node000021"><a xlink:title=" ">
<path fill="none" stroke="#63b8ff" d="M1446.44,-54.98C1415.28,-46.01 1366.03,-31.82 1331.54,-21.89"/>
<polygon fill="#63b8ff" stroke="#63b8ff" points="1332.37,-18.49 1321.79,-19.08 1330.43,-25.21 1332.37,-18.49"/>
</a>
</g>
</g>
<!-- Node22 -->
<g id="Node000022" class="node">
<title>Node22</title>
<g id="a_Node000022"><a xlink:title=" ">
<polygon fill="#e0e0e0" stroke="#999999" points="1411,-19 1343,-19 1343,0 1411,0 1411,-19"/>
<text text-anchor="middle" x="1377" y="-7" font-family="Helvetica,sans-Serif" font-size="10.00">filesystem</text>
</a>
</g>
</g>
<!-- Node3&#45;&gt;Node22 -->
<g id="edge21_Node000003_Node000022" class="edge">
<title>Node3&#45;&gt;Node22</title>
<g id="a_edge21_Node000003_Node000022"><a xlink:title=" ">
<path fill="none" stroke="#63b8ff" d="M1460.09,-54.98C1444.45,-46.61 1420.34,-33.7 1402.12,-23.95"/>
<polygon fill="#63b8ff" stroke="#63b8ff" points="1403.66,-20.8 1393.2,-19.17 1400.36,-26.98 1403.66,-20.8"/>
</a>
</g>
</g>
<!-- Node23 -->
<g id="Node000023" class="node">
<title>Node23</title>
<g id="a_Node000023"><a xlink:title=" ">
<polygon fill="#e0e0e0" stroke="#999999" points="1461,-19 1429,-19 1429,0 1461,0 1461,-19"/>
<text text-anchor="middle" x="1445" y="-7" font-family="Helvetica,sans-Serif" font-size="10.00">set</text>
</a>
</g>
</g>
<!-- Node3&#45;&gt;Node23 -->
<g id="edge22_Node000003_Node000023" class="edge">
<title>Node3&#45;&gt;Node23</title>
<g id="a_edge22_Node000003_Node000023"><a xlink:title=" ">
<path fill="none" stroke="#63b8ff" d="M1470.88,-54.75C1466.64,-47.49 1460.47,-36.95 1455.22,-27.98"/>
<polygon fill="#63b8ff" stroke="#63b8ff" points="1458.09,-25.95 1450.02,-19.09 1452.05,-29.49 1458.09,-25.95"/>
</a>
</g>
</g>
<!-- Node24 -->
<g id="Node000024" class="node">
<title>Node24</title>
<g id="a_Node000024"><a xlink:title=" ">
<polygon fill="#e0e0e0" stroke="#999999" points="1534.5,-19 1479.5,-19 1479.5,0 1534.5,0 1534.5,-19"/>
<text text-anchor="middle" x="1507" y="-7" font-family="Helvetica,sans-Serif" font-size="10.00">fstream</text>
</a>
</g>
</g>
<!-- Node3&#45;&gt;Node24 -->
<g id="edge23_Node000003_Node000024" class="edge">
<title>Node3&#45;&gt;Node24</title>
<g id="a_edge23_Node000003_Node000024"><a xlink:title=" ">
<path fill="none" stroke="#63b8ff" d="M1481.12,-54.75C1485.36,-47.49 1491.53,-36.95 1496.78,-27.98"/>
<polygon fill="#63b8ff" stroke="#63b8ff" points="1499.95,-29.49 1501.98,-19.09 1493.91,-25.95 1499.95,-29.49"/>
</a>
</g>
</g>
<!-- Node25 -->
<g id="Node000025" class="node">
<title>Node25</title>
<g id="a_Node000025"><a xlink:title=" ">
<polygon fill="#e0e0e0" stroke="#999999" points="1609,-19 1553,-19 1553,0 1609,0 1609,-19"/>
<text text-anchor="middle" x="1581" y="-7" font-family="Helvetica,sans-Serif" font-size="10.00">sstream</text>
</a>
</g>
</g>
<!-- Node3&#45;&gt;Node25 -->
<g id="edge24_Node000003_Node000025" class="edge">
<title>Node3&#45;&gt;Node25</title>
<g id="a_edge24_Node000003_Node000025"><a xlink:title=" ">
<path fill="none" stroke="#63b8ff" d="M1492.87,-54.98C1509.61,-46.54 1535.5,-33.47 1554.89,-23.68"/>
<polygon fill="#63b8ff" stroke="#63b8ff" points="1556.47,-26.8 1563.82,-19.17 1553.32,-20.55 1556.47,-26.8"/>
</a>
</g>
</g>
<!-- Node26 -->
<g id="Node000026" class="node">
<title>Node26</title>
<g id="a_Node000026"><a xlink:title=" ">
<polygon fill="#e0e0e0" stroke="#999999" points="1675,-19 1627,-19 1627,0 1675,0 1675,-19"/>
<text text-anchor="middle" x="1651" y="-7" font-family="Helvetica,sans-Serif" font-size="10.00">mutex</text>
</a>
</g>
</g>
<!-- Node3&#45;&gt;Node26 -->
<g id="edge25_Node000003_Node000026" class="edge">
<title>Node3&#45;&gt;Node26</title>
<g id="a_edge25_Node000003_Node000026"><a xlink:title=" ">
<path fill="none" stroke="#63b8ff" d="M1504.12,-54.98C1534.94,-45.65 1584.37,-30.68 1617.26,-20.72"/>
<polygon fill="#63b8ff" stroke="#63b8ff" points="1618.34,-24.05 1626.9,-17.8 1616.31,-17.35 1618.34,-24.05"/>
</a>
</g>
</g>
<!-- Node27 -->
<g id="Node000027" class="node">
<title>Node27</title>
<g id="a_Node000027"><a xlink:title=" ">
<polygon fill="#e0e0e0" stroke="#999999" points="1747,-19 1693,-19 1693,0 1747,0 1747,-19"/>
<text text-anchor="middle" x="1720" y="-7" font-family="Helvetica,sans-Serif" font-size="10.00">random</text>
</a>
</g>
</g>
<!-- Node3&#45;&gt;Node27 -->
<g id="edge26_Node000003_Node000027" class="edge">
<title>Node3&#45;&gt;Node27</title>
<g id="a_edge26_Node000003_Node000027"><a xlink:title=" ">
<path fill="none" stroke="#63b8ff" d="M1517.1,-54.97C1557.05,-46.63 1619.69,-33.38 1683.12,-19.16"/>
<polygon fill="#63b8ff" stroke="#63b8ff" points="1683.9,-22.57 1692.89,-16.97 1682.36,-15.75 1683.9,-22.57"/>
</a>
</g>
</g>
<!-- Node28 -->
<g id="Node000028" class="node">
<title>Node28</title>
<g id="a_Node000028"><a xlink:title=" ">
<polygon fill="#e0e0e0" stroke="#999999" points="1813,-19 1765,-19 1765,0 1813,0 1813,-19"/>
<text text-anchor="middle" x="1789" y="-7" font-family="Helvetica,sans-Serif" font-size="10.00">thread</text>
</a>
</g>
</g>
<!-- Node3&#45;&gt;Node28 -->
<g id="edge27_Node000003_Node000028" class="edge">
<title>Node3&#45;&gt;Node28</title>
<g id="a_edge27_Node000003_Node000028"><a xlink:title=" ">
<path fill="none" stroke="#63b8ff" d="M1532.6,-56.11C1587.2,-48.61 1672.34,-35.98 1755.09,-19.02"/>
<polygon fill="#63b8ff" stroke="#63b8ff" points="1755.83,-22.44 1764.91,-16.98 1754.41,-15.59 1755.83,-22.44"/>
</a>
</g>
</g>
<!-- Node29 -->
<g id="Node000029" class="node">
<title>Node29</title>
<g id="a_Node000029"><a xlink:title=" ">
<polygon fill="#e0e0e0" stroke="#999999" points="1881,-19 1831,-19 1831,0 1881,0 1881,-19"/>
<text text-anchor="middle" x="1856" y="-7" font-family="Helvetica,sans-Serif" font-size="10.00">atomic</text>
</a>
</g>
</g>
<!-- Node3&#45;&gt;Node29 -->
<g id="edge28_Node000003_Node000029" class="edge">
<title>Node3&#45;&gt;Node29</title>
<g id="a_edge28_Node000003_Node000029"><a xlink:title=" ">
<path fill="none" stroke="#63b8ff" d="M1532.65,-58.27C1599.36,-51.65 1713.64,-38.89 1820.81,-19.02"/>
<polygon fill="#63b8ff" stroke="#63b8ff" points="1821.64,-22.43 1830.82,-17.14 1820.35,-15.55 1821.64,-22.43"/>
</a>
</g>
</g>
<!-- Node30 -->
<g id="Node000030" class="node">
<title>Node30</title>
<g id="a_Node000030"><a xlink:title=" ">
<polygon fill="#e0e0e0" stroke="#999999" points="1948.5,-19 1899.5,-19 1899.5,0 1948.5,0 1948.5,-19"/>
<text text-anchor="middle" x="1924" y="-7" font-family="Helvetica,sans-Serif" font-size="10.00">cctype</text>
</a>
</g>
</g>
<!-- Node3&#45;&gt;Node30 -->
<g id="edge29_Node000003_Node000030" class="edge">
<title>Node3&#45;&gt;Node30</title>
<g id="a_edge29_Node000003_Node000030"><a xlink:title=" ">
<path fill="none" stroke="#63b8ff" d="M1532.6,-59.9C1610.69,-54.38 1756,-42.15 1889.22,-18.89"/>
<polygon fill="#63b8ff" stroke="#63b8ff" points="1889.97,-22.31 1899.2,-17.12 1888.75,-15.42 1889.97,-22.31"/>
</a>
</g>
</g>
<!-- Node31 -->
<g id="Node000031" class="node">
<title>Node31</title>
<g id="a_Node000031"><a xlink:title=" ">
<polygon fill="#e0e0e0" stroke="#999999" points="2009,-19 1967,-19 1967,0 2009,0 2009,-19"/>
<text text-anchor="middle" x="1988" y="-7" font-family="Helvetica,sans-Serif" font-size="10.00">array</text>
</a>
</g>
</g>
<!-- Node3&#45;&gt;Node31 -->
<g id="edge30_Node000003_Node000031" class="edge">
<title>Node3&#45;&gt;Node31</title>
<g id="a_edge30_Node000003_Node000031"><a xlink:title=" ">
<path fill="none" stroke="#63b8ff" d="M1532.86,-61.64C1621.63,-57.99 1798.54,-47.74 1956.89,-18.86"/>
<polygon fill="#63b8ff" stroke="#63b8ff" points="1957.61,-22.29 1966.81,-17.03 1956.34,-15.41 1957.61,-22.29"/>
</a>
</g>
</g>
<!-- Node32 -->
<g id="Node000032" class="node">
<title>Node32</title>
<g id="a_Node000032"><a xlink:title=" ">
<polygon fill="#e0e0e0" stroke="#999999" points="2096.5,-19 2027.5,-19 2027.5,0 2096.5,0 2096.5,-19"/>
<text text-anchor="middle" x="2062" y="-7" font-family="Helvetica,sans-Serif" font-size="10.00">type_traits</text>
</a>
</g>
</g>
<!-- Node3&#45;&gt;Node32 -->
<g id="edge31_Node000003_Node000032" class="edge">
<title>Node3&#45;&gt;Node32</title>
<g id="a_edge31_Node000003_Node000032"><a xlink:title=" ">
<path fill="none" stroke="#63b8ff" d="M1532.79,-60.88C1629.93,-55.94 1834.36,-43.62 2017.39,-18.91"/>
<polygon fill="#63b8ff" stroke="#63b8ff" points="2018.04,-22.36 2027.47,-17.54 2017.09,-15.42 2018.04,-22.36"/>
</a>
</g>
</g>
<!-- Node33 -->
<g id="Node000033" class="node">
<title>Node33</title>
<g id="a_Node000033"><a xlink:title=" ">
<polygon fill="#e0e0e0" stroke="#999999" points="2159,-19 2115,-19 2115,0 2159,0 2159,-19"/>
<text text-anchor="middle" x="2137" y="-7" font-family="Helvetica,sans-Serif" font-size="10.00">cfloat</text>
</a>
</g>
</g>
<!-- Node3&#45;&gt;Node33 -->
<g id="edge32_Node000003_Node000033" class="edge">
<title>Node3&#45;&gt;Node33</title>
<g id="a_edge32_Node000003_Node000033"><a xlink:title=" ">
<path fill="none" stroke="#63b8ff" d="M1532.92,-63.22C1642.27,-61.88 1889.23,-54.92 2104.85,-18.84"/>
<polygon fill="#63b8ff" stroke="#63b8ff" points="2105.49,-22.28 2114.77,-17.16 2104.32,-15.38 2105.49,-22.28"/>
</a>
</g>
</g>
<!-- Node34 -->
<g id="Node000034" class="node">
<title>Node34</title>
<g id="a_Node000034"><a xlink:title=" ">
<polygon fill="#e0e0e0" stroke="#999999" points="2287,-19 2177,-19 2177,0 2287,0 2287,-19"/>
<text text-anchor="middle" x="2232" y="-7" font-family="Helvetica,sans-Serif" font-size="10.00">nlohmann/json.hpp</text>
</a>
</g>
</g>
<!-- Node3&#45;&gt;Node34 -->
<g id="edge33_Node000003_Node000034" class="edge">
<title>Node3&#45;&gt;Node34</title>
<g id="a_edge33_Node000003_Node000034"><a xlink:title=" ">
<path fill="none" stroke="#63b8ff" d="M1532.62,-61.16C1649.24,-56.06 1924.9,-42.55 2166.83,-19.05"/>
<polygon fill="#63b8ff" stroke="#63b8ff" points="2167.26,-22.52 2176.87,-18.06 2166.58,-15.55 2167.26,-22.52"/>
</a>
</g>
</g>
<!-- Node35 -->
<g id="Node000035" class="node">
<title>Node35</title>
<g id="a_Node000035"><a xlink:title=" ">
<polygon fill="#e0e0e0" stroke="#999999" points="2361,-19 2305,-19 2305,0 2361,0 2361,-19"/>
<text text-anchor="middle" x="2333" y="-7" font-family="Helvetica,sans-Serif" font-size="10.00">d3d12.h</text>
</a>
</g>
</g>
<!-- Node3&#45;&gt;Node35 -->
<g id="edge34_Node000003_Node000035" class="edge">
<title>Node3&#45;&gt;Node35</title>
<g id="a_edge34_Node000003_Node000035"><a xlink:title=" ">
<path fill="none" stroke="#63b8ff" d="M1532.99,-63.76C1665.29,-63.64 2003.48,-59.2 2294.48,-18.95"/>
<polygon fill="#63b8ff" stroke="#63b8ff" points="2295.39,-22.35 2304.81,-17.5 2294.42,-15.42 2295.39,-22.35"/>
</a>
</g>
</g>
<!-- Node36 -->
<g id="Node000036" class="node">
<title>Node36</title>
<g id="a_Node000036"><a xlink:title=" ">
<polygon fill="#e0e0e0" stroke="#999999" points="2443,-19 2379,-19 2379,0 2443,0 2443,-19"/>
<text text-anchor="middle" x="2411" y="-7" font-family="Helvetica,sans-Serif" font-size="10.00">dxgi1_6.h</text>
</a>
</g>
</g>
<!-- Node3&#45;&gt;Node36 -->
<g id="edge35_Node000003_Node000036" class="edge">
<title>Node3&#45;&gt;Node36</title>
<g id="a_edge35_Node000003_Node000036"><a xlink:title=" ">
<path fill="none" stroke="#63b8ff" d="M1532.75,-63.71C1673.1,-63.58 2047.75,-59.27 2368.89,-18.92"/>
<polygon fill="#63b8ff" stroke="#63b8ff" points="2369.37,-22.39 2378.85,-17.66 2368.49,-15.44 2369.37,-22.39"/>
</a>
</g>
</g>
<!-- Node37 -->
<g id="Node000037" class="node">
<title>Node37</title>
<g id="a_Node000037"><a xlink:title=" ">
<polygon fill="#e0e0e0" stroke="#999999" points="2547,-19 2461,-19 2461,0 2547,0 2547,-19"/>
<text text-anchor="middle" x="2504" y="-7" font-family="Helvetica,sans-Serif" font-size="10.00">d3dcompiler.h</text>
</a>
</g>
</g>
<!-- Node3&#45;&gt;Node37 -->
<g id="edge36_Node000003_Node000037" class="edge">
<title>Node3&#45;&gt;Node37</title>
<g id="a_edge36_Node000003_Node000037"><a xlink:title=" ">
<path fill="none" stroke="#63b8ff" d="M1532.56,-63.22C1681.34,-61.99 2096.04,-55.39 2450.97,-18.97"/>
<polygon fill="#63b8ff" stroke="#63b8ff" points="2451.34,-22.45 2460.92,-17.94 2450.61,-15.49 2451.34,-22.45"/>
</a>
</g>
</g>
<!-- Node38 -->
<g id="Node000038" class="node">
<title>Node38</title>
<g id="a_Node000038"><a xlink:title=" ">
<polygon fill="#e0e0e0" stroke="#999999" points="2651,-19 2565,-19 2565,0 2651,0 2651,-19"/>
<text text-anchor="middle" x="2608" y="-7" font-family="Helvetica,sans-Serif" font-size="10.00">DirectXMath.h</text>
</a>
</g>
</g>
<!-- Node3&#45;&gt;Node38 -->
<g id="edge37_Node000003_Node000038" class="edge">
<title>Node3&#45;&gt;Node38</title>
<g id="a_edge37_Node000003_Node000038"><a xlink:title=" ">
<path fill="none" stroke="#63b8ff" d="M1532.68,-63.57C1692.08,-63.26 2157.99,-58.83 2554.68,-18.99"/>
<polygon fill="#63b8ff" stroke="#63b8ff" points="2555.33,-22.44 2564.92,-17.95 2554.62,-15.48 2555.33,-22.44"/>
</a>
</g>
</g>
<!-- Node39 -->
<g id="Node000039" class="node">
<title>Node39</title>
<g id="a_Node000039"><a xlink:title=" ">
<polygon fill="#e0e0e0" stroke="#999999" points="2786.5,-19 2669.5,-19 2669.5,0 2786.5,0 2786.5,-19"/>
<text text-anchor="middle" x="2728" y="-7" font-family="Helvetica,sans-Serif" font-size="10.00">assimp/Importer.hpp</text>
</a>
</g>
</g>
<!-- Node3&#45;&gt;Node39 -->
<g id="edge38_Node000003_Node000039" class="edge">
<title>Node3&#45;&gt;Node39</title>
<g id="a_edge38_Node000003_Node000039"><a xlink:title=" ">
<path fill="none" stroke="#63b8ff" d="M1532.79,-63.11C1702.28,-61.58 2219.48,-54.21 2659.38,-18.96"/>
<polygon fill="#63b8ff" stroke="#63b8ff" points="2659.74,-22.44 2669.43,-18.15 2659.18,-15.47 2659.74,-22.44"/>
</a>
</g>
</g>
<!-- Node40 -->
<g id="Node000040" class="node">
<title>Node40</title>
<g id="a_Node000040"><a xlink:title=" ">
<polygon fill="#e0e0e0" stroke="#999999" points="2897,-19 2805,-19 2805,0 2897,0 2897,-19"/>
<text text-anchor="middle" x="2851" y="-7" font-family="Helvetica,sans-Serif" font-size="10.00">assimp/scene.h</text>
</a>
</g>
</g>
<!-- Node3&#45;&gt;Node40 -->
<g id="edge39_Node000003_Node000040" class="edge">
<title>Node3&#45;&gt;Node40</title>
<g id="a_edge39_Node000003_Node000040"><a xlink:title=" ">
<path fill="none" stroke="#63b8ff" d="M1532.76,-64.01C1714.81,-65.12 2300.51,-64.72 2794.65,-18.99"/>
<polygon fill="#63b8ff" stroke="#63b8ff" points="2795.2,-22.46 2804.84,-18.04 2794.55,-15.49 2795.2,-22.46"/>
</a>
</g>
</g>
<!-- Node41 -->
<g id="Node000041" class="node">
<title>Node41</title>
<g id="a_Node000041"><a xlink:title=" ">
<polygon fill="#e0e0e0" stroke="#999999" points="3037,-19 2915,-19 2915,0 3037,0 3037,-19"/>
<text text-anchor="middle" x="2976" y="-7" font-family="Helvetica,sans-Serif" font-size="10.00">assimp/postprocess.h</text>
</a>
</g>
</g>
<!-- Node3&#45;&gt;Node41 -->
<g id="edge40_Node000003_Node000041" class="edge">
<title>Node3&#45;&gt;Node41</title>
<g id="a_edge40_Node000003_Node000041"><a xlink:title=" ">
<path fill="none" stroke="#63b8ff" d="M1532.64,-63.56C1724.08,-63.38 2364.69,-59.63 2904.61,-19.02"/>
<polygon fill="#63b8ff" stroke="#63b8ff" points="2905.24,-22.49 2914.95,-18.24 2904.71,-15.51 2905.24,-22.49"/>
</a>
</g>
</g>
<!-- Node42 -->
<g id="Node000042" class="node">
<title>Node42</title>
<g id="a_Node000042"><a xlink:href="Logger_8h.html" target="_top" xlink:title="デバッグログ出力システム">
<polygon fill="white" stroke="#666666" points="3133,-19 3055,-19 3055,0 3133,0 3133,-19"/>
<text text-anchor="middle" x="3094" y="-7" font-family="Helvetica,sans-Serif" font-size="10.00">Log/Logger.h</text>
</a>
</g>
</g>
<!-- Node3&#45;&gt;Node42 -->
<g id="edge41_Node000003_Node000042" class="edge">
<title>Node3&#45;&gt;Node42</title>
<g id="a_edge41_Node000003_Node000042"><a xlink:title=" ">
<path fill="none" stroke="#63b8ff" d="M1532.66,-62.98C1776.36,-60.64 2735.89,-49.76 3037,-19 3039.5,-18.74 3042.08,-18.43 3044.68,-18.08"/>
<polygon fill="#63b8ff" stroke="#63b8ff" points="3045.42,-21.51 3054.79,-16.57 3044.39,-14.59 3045.42,-21.51"/>
</a>
</g>
</g>
<!-- Node42&#45;&gt;Node3 -->
<g id="edge42_Node000042_Node000003" class="edge">
<title>Node42&#45;&gt;Node3</title>
<g id="a_edge42_Node000042_Node000003"><a xlink:title=" ">
<path fill="none" stroke="#63b8ff" d="M3054.55,-19.05C2754.41,-49.62 1803.5,-60.53 1542.68,-62.95"/>
<polygon fill="#63b8ff" stroke="#63b8ff" points="1542.57,-59.45 1532.6,-63.04 1542.63,-66.45 1542.57,-59.45"/>
</a>
</g>
</g>
<!-- Node43&#45;&gt;Node3 -->
<g id="edge44_Node000043_Node000003" class="edge">
<title>Node43&#45;&gt;Node3</title>
<g id="a_edge44_Node000043_Node000003"><a xlink:title=" ">
<path fill="none" stroke="#63b8ff" d="M1480.11,-329.97C1517.8,-315.82 1583,-283.66 1583,-230.5 1583,-230.5 1583,-230.5 1583,-173.5 1583,-128.77 1536.11,-95.93 1504.41,-78.84"/>
<polygon fill="#63b8ff" stroke="#63b8ff" points="1505.62,-75.53 1495.13,-74.05 1502.41,-81.75 1505.62,-75.53"/>
</a>
</g>
</g>
<!-- Node44 -->
<g id="Node000044" class="node">
<title>Node44</title>
<g id="a_Node000044"><a xlink:href="EntityManager_8h.html" target="_top" xlink:title="エンティティIDのライフサイクル管理クラス">
<polygon fill="white" stroke="#666666" points="1337,-239 1241,-239 1241,-220 1337,-220 1337,-239"/>
<text text-anchor="middle" x="1289" y="-227" font-family="Helvetica,sans-Serif" font-size="10.00">EntityManager.h</text>
</a>
</g>
</g>
<!-- Node43&#45;&gt;Node44 -->
<g id="edge45_Node000043_Node000044" class="edge">
<title>Node43&#45;&gt;Node44</title>
<g id="a_edge45_Node000043_Node000044"><a xlink:title=" ">
<path fill="none" stroke="#63b8ff" d="M1440.78,-329.84C1412.42,-311.28 1345.51,-267.49 1310.78,-244.75"/>
<polygon fill="#63b8ff" stroke="#63b8ff" points="1312.57,-241.74 1302.29,-239.2 1308.74,-247.6 1312.57,-241.74"/>
</a>
</g>
</g>
<!-- Node45 -->
<g id="Node000045" class="node">
<title>Node45</title>
<g id="a_Node000045"><a xlink:href="ArchetypeManager_8h.html" target="_top" xlink:title="アーキタイプの生成と管理を行うクラス">
<polygon fill="white" stroke="#666666" points="1512.5,-294 1395.5,-294 1395.5,-275 1512.5,-275 1512.5,-294"/>
<text text-anchor="middle" x="1454" y="-282" font-family="Helvetica,sans-Serif" font-size="10.00">ArchetypeManager.h</text>
</a>
</g>
</g>
<!-- Node43&#45;&gt;Node45 -->
<g id="edge47_Node000043_Node000045" class="edge">
<title>Node43&#45;&gt;Node45</title>
<g id="a_edge47_Node000043_Node000045"><a xlink:title=" ">
<path fill="none" stroke="#63b8ff" d="M1454,-329.75C1454,-322.8 1454,-312.85 1454,-304.13"/>
<polygon fill="#63b8ff" stroke="#63b8ff" points="1457.5,-304.09 1454,-294.09 1450.5,-304.09 1457.5,-304.09"/>
</a>
</g>
</g>
<!-- Node50 -->
<g id="Node000050" class="node">
<title>Node50</title>
<g id="a_Node000050"><a xlink:href="System_8h.html" target="_top" xlink:title="ECSシステム (ロジック) の基底クラス。">
<polygon fill="white" stroke="#666666" points="1673,-294 1611,-294 1611,-275 1673,-275 1673,-294"/>
<text text-anchor="middle" x="1642" y="-282" font-family="Helvetica,sans-Serif" font-size="10.00">System.h</text>
</a>
</g>
</g>
<!-- Node43&#45;&gt;Node50 -->
<g id="edge57_Node000043_Node000050" class="edge">
<title>Node43&#45;&gt;Node50</title>
<g id="a_edge57_Node000043_Node000050"><a xlink:title=" ">
<path fill="none" stroke="#63b8ff" d="M1484.21,-329.98C1516.04,-321.01 1566.36,-306.82 1601.6,-296.89"/>
<polygon fill="#63b8ff" stroke="#63b8ff" points="1602.88,-300.16 1611.56,-294.08 1600.98,-293.43 1602.88,-300.16"/>
</a>
</g>
</g>
<!-- Node44&#45;&gt;Node2 -->
<g id="edge46_Node000044_Node000002" class="edge">
<title>Node44&#45;&gt;Node2</title>
<g id="a_edge46_Node000044_Node000002"><a xlink:title=" ">
<path fill="none" stroke="#63b8ff" d="M1273.39,-219.89C1260.31,-212 1241.93,-199.27 1230,-184 1219.51,-170.58 1212.35,-152.48 1208.05,-139.03"/>
<polygon fill="#63b8ff" stroke="#63b8ff" points="1211.29,-137.64 1205.1,-129.04 1204.57,-139.63 1211.29,-137.64"/>
</a>
</g>
</g>
<!-- Node45&#45;&gt;Node3 -->
<g id="edge48_Node000045_Node000003" class="edge">
<title>Node45&#45;&gt;Node3</title>
<g id="a_edge48_Node000045_Node000003"><a xlink:title=" ">
<path fill="none" stroke="#63b8ff" d="M1463.4,-274.75C1479.9,-258.68 1513.52,-222.54 1526,-184 1538.14,-146.52 1509.79,-104.4 1491,-81.86"/>
<polygon fill="#63b8ff" stroke="#63b8ff" points="1493.57,-79.48 1484.37,-74.22 1488.28,-84.07 1493.57,-79.48"/>
</a>
</g>
</g>
<!-- Node46 -->
<g id="Node000046" class="node">
<title>Node46</title>
<g id="a_Node000046"><a xlink:href="Archetype_8h.html" target="_top" xlink:title="ECSのメモリレイアウト定義 (アーキタイプ) を行うクラス。">
<polygon fill="white" stroke="#666666" points="1450.5,-239 1375.5,-239 1375.5,-220 1450.5,-220 1450.5,-239"/>
<text text-anchor="middle" x="1413" y="-227" font-family="Helvetica,sans-Serif" font-size="10.00">Archetype.h</text>
</a>
</g>
</g>
<!-- Node45&#45;&gt;Node46 -->
<g id="edge49_Node000045_Node000046" class="edge">
<title>Node45&#45;&gt;Node46</title>
<g id="a_edge49_Node000045_Node000046"><a xlink:title=" ">
<path fill="none" stroke="#63b8ff" d="M1447.23,-274.75C1441.44,-267.26 1432.94,-256.28 1425.86,-247.13"/>
<polygon fill="#63b8ff" stroke="#63b8ff" points="1428.53,-244.86 1419.64,-239.09 1422.99,-249.14 1428.53,-244.86"/>
</a>
</g>
</g>
<!-- Node46&#45;&gt;Node3 -->
<g id="edge50_Node000046_Node000003" class="edge">
<title>Node46&#45;&gt;Node3</title>
<g id="a_edge50_Node000046_Node000003"><a xlink:title=" ">
<path fill="none" stroke="#63b8ff" d="M1387.15,-219.99C1370.73,-213.09 1350.8,-201.58 1341,-184 1336.89,-176.62 1339.27,-173.27 1341,-165 1346.45,-138.89 1345.86,-128.57 1365,-110 1381.34,-94.15 1404.04,-83.71 1424.66,-76.96"/>
<polygon fill="#63b8ff" stroke="#63b8ff" points="1425.73,-80.3 1434.27,-74.02 1423.68,-73.6 1425.73,-80.3"/>
</a>
</g>
</g>
<!-- Node47 -->
<g id="Node000047" class="node">
<title>Node47</title>
<g id="a_Node000047"><a xlink:href="ComponentType_8h.html" target="_top" xlink:title="コンポーネント型システム (Type to Mapping)。">
<polygon fill="white" stroke="#666666" points="1517.5,-184 1350.5,-184 1350.5,-165 1517.5,-165 1517.5,-184"/>
<text text-anchor="middle" x="1434" y="-172" font-family="Helvetica,sans-Serif" font-size="10.00">ECS/Internal/ComponentType.h</text>
</a>
</g>
</g>
<!-- Node46&#45;&gt;Node47 -->
<g id="edge51_Node000046_Node000047" class="edge">
<title>Node46&#45;&gt;Node47</title>
<g id="a_edge51_Node000046_Node000047"><a xlink:title=" ">
<path fill="none" stroke="#63b8ff" d="M1416.47,-219.75C1419.28,-212.65 1423.34,-202.4 1426.85,-193.56"/>
<polygon fill="#63b8ff" stroke="#63b8ff" points="1430.17,-194.68 1430.6,-184.09 1423.66,-192.1 1430.17,-194.68"/>
</a>
</g>
</g>
<!-- Node49 -->
<g id="Node000049" class="node">
<title>Node49</title>
<g id="a_Node000049"><a xlink:href="Chunk_8h.html" target="_top" xlink:title="ECSのメモリブロック (チャンク) 定義。">
<polygon fill="white" stroke="#666666" points="1295,-184 1239,-184 1239,-165 1295,-165 1295,-184"/>
<text text-anchor="middle" x="1267" y="-172" font-family="Helvetica,sans-Serif" font-size="10.00">Chunk.h</text>
</a>
</g>
</g>
<!-- Node46&#45;&gt;Node49 -->
<g id="edge54_Node000046_Node000049" class="edge">
<title>Node46&#45;&gt;Node49</title>
<g id="a_edge54_Node000046_Node000049"><a xlink:title=" ">
<path fill="none" stroke="#63b8ff" d="M1389.54,-219.98C1365.42,-211.23 1327.63,-197.51 1300.4,-187.62"/>
<polygon fill="#63b8ff" stroke="#63b8ff" points="1301.48,-184.29 1290.88,-184.17 1299.09,-190.87 1301.48,-184.29"/>
</a>
</g>
</g>
<!-- Node47&#45;&gt;Node3 -->
<g id="edge52_Node000047_Node000003" class="edge">
<title>Node47&#45;&gt;Node3</title>
<g id="a_edge52_Node000047_Node000003"><a xlink:title=" ">
<path fill="none" stroke="#63b8ff" d="M1438.79,-164.82C1443.55,-155.98 1450.86,-141.79 1456,-129 1461.93,-114.24 1467.27,-96.99 1470.93,-84.19"/>
<polygon fill="#63b8ff" stroke="#63b8ff" points="1474.39,-84.85 1473.7,-74.28 1467.64,-82.97 1474.39,-84.85"/>
</a>
</g>
</g>
<!-- Node48 -->
<g id="Node000048" class="node">
<title>Node48</title>
<g id="a_Node000048"><a xlink:title=" ">
<polygon fill="#e0e0e0" stroke="#999999" points="1447.5,-129 1374.5,-129 1374.5,-110 1447.5,-110 1447.5,-129"/>
<text text-anchor="middle" x="1411" y="-117" font-family="Helvetica,sans-Serif" font-size="10.00">string_view</text>
</a>
</g>
</g>
<!-- Node47&#45;&gt;Node48 -->
<g id="edge53_Node000047_Node000048" class="edge">
<title>Node47&#45;&gt;Node48</title>
<g id="a_edge53_Node000047_Node000048"><a xlink:title=" ">
<path fill="none" stroke="#63b8ff" d="M1430.2,-164.75C1427.09,-157.57 1422.58,-147.18 1418.71,-138.27"/>
<polygon fill="#63b8ff" stroke="#63b8ff" points="1421.92,-136.87 1414.73,-129.09 1415.5,-139.66 1421.92,-136.87"/>
</a>
</g>
</g>
<!-- Node49&#45;&gt;Node2 -->
<g id="edge56_Node000049_Node000002" class="edge">
<title>Node49&#45;&gt;Node2</title>
<g id="a_edge56_Node000049_Node000002"><a xlink:title=" ">
<path fill="none" stroke="#63b8ff" d="M1256.72,-164.98C1247.16,-157.07 1232.72,-145.11 1221.22,-135.58"/>
<polygon fill="#63b8ff" stroke="#63b8ff" points="1223.4,-132.85 1213.47,-129.17 1218.94,-138.24 1223.4,-132.85"/>
</a>
</g>
</g>
<!-- Node49&#45;&gt;Node3 -->
<g id="edge55_Node000049_Node000003" class="edge">
<title>Node49&#45;&gt;Node3</title>
<g id="a_edge55_Node000049_Node000003"><a xlink:title=" ">
<path fill="none" stroke="#63b8ff" d="M1270.41,-164.63C1276.2,-150.79 1289.25,-124.2 1309,-110 1338.25,-88.97 1376.8,-77.87 1409.5,-72.02"/>
<polygon fill="#63b8ff" stroke="#63b8ff" points="1410.15,-75.46 1419.44,-70.37 1409,-68.56 1410.15,-75.46"/>
</a>
</g>
</g>
<!-- Node50&#45;&gt;Node3 -->
<g id="edge58_Node000050_Node000003" class="edge">
<title>Node50&#45;&gt;Node3</title>
<g id="a_edge58_Node000050_Node000003"><a xlink:title=" ">
<path fill="none" stroke="#63b8ff" d="M1642.38,-274.62C1643.1,-246.61 1641.5,-159.12 1597,-110 1582.28,-93.75 1561.1,-83.42 1540.56,-76.86"/>
<polygon fill="#63b8ff" stroke="#63b8ff" points="1541.46,-73.47 1530.88,-74.01 1539.49,-80.19 1541.46,-73.47"/>
</a>
</g>
</g>
</g>
</svg>
