<?xml version="1.0" encoding="UTF-8" standalone="no"?>
<!DOCTYPE svg PUBLIC "-//W3C//DTD SVG 1.1//EN"
 "http://www.w3.org/Graphics/SVG/1.1/DTD/svg11.dtd">
<!-- Generated by graphviz version 2.43.0 (0)
 -->
<!-- Title: Engine/Source/Runtime/Graphics Pages: 1 -->
<svg width="254pt" height="251pt"
 viewBox="0.00 0.00 253.50 251.00" xmlns="http://www.w3.org/2000/svg" xmlns:xlink="http://www.w3.org/1999/xlink">
<g id="graph0" class="graph" transform="scale(1 1) rotate(0) translate(4 247)">
<title>Engine/Source/Runtime/Graphics</title>
<g id="clust1" class="cluster">
<title>clusterdir_9f04efef762572853abdf73f62bebfcc</title>
<g id="a_clust1"><a xlink:href="dir_9f04efef762572853abdf73f62bebfcc.html" target="_top" xlink:title="Runtime">
<polygon fill="#edf0f7" stroke="#7f7f7f" stroke-dasharray="5,2" points="8,-8 8,-235 198,-235 198,-8 8,-8"/>
<text text-anchor="middle" x="103" y="-223" font-family="Helvetica,sans-Serif" font-size="10.00">Runtime</text>
</a>
</g>
</g>
<g id="clust2" class="cluster">
<title>clusterdir_6091cbee3e268cbb682ad3d3f55cf8b5</title>
<g id="a_clust2"><a xlink:href="dir_6091cbee3e268cbb682ad3d3f55cf8b5.html" target="_top">
<polygon fill="#edf0f7" stroke="#404040" stroke-width="2" points="16,-63 16,-208 120,-208 120,-63 16,-63"/>
</a>
</g>
</g>
<!-- dir_07f2be210ff6c371c35315ee7129d1a6 -->
<g id="node1" class="node">
<title>dir_07f2be210ff6c371c35315ee7129d1a6</title>
<g id="a_node1"><a xlink:href="dir_07f2be210ff6c371c35315ee7129d1a6.html" target="_top" xlink:title="Platform">
<polygon fill="#a2b4d6" stroke="#404040" points="107.5,-35 48.5,-35 48.5,-16 107.5,-16 107.5,-35"/>
<text text-anchor="middle" x="78" y="-23" font-family="Helvetica,sans-Serif" font-size="10.00">Platform</text>
</a>
</g>
</g>
<!-- dir_64427cf10fdcbb9dc3445223b1ad6a9b -->
<g id="node2" class="node">
<title>dir_64427cf10fdcbb9dc3445223b1ad6a9b</title>
<g id="a_node2"><a xlink:href="dir_64427cf10fdcbb9dc3445223b1ad6a9b.html" target="_top" xlink:title="Resource">
<polygon fill="#a2b4d6" stroke="#404040" points="190,-90 128,-90 128,-71 190,-71 190,-90"/>
<text text-anchor="middle" x="159" y="-78" font-family="Helvetica,sans-Serif" font-size="10.00">Resource</text>
</a>
</g>
</g>
<!-- dir_6091cbee3e268cbb682ad3d3f55cf8b5 -->
<g id="node3" class="node">
<title>dir_6091cbee3e268cbb682ad3d3f55cf8b5</title>
<text text-anchor="middle" x="78" y="-188" font-family="Helvetica,sans-Serif" font-size="10.00">Graphics</text>
</g>
<!-- dir_04c83e55f1dd055cbf491646f5a1a5df -->
<g id="node4" class="node">
<title>dir_04c83e55f1dd055cbf491646f5a1a5df</title>
<g id="a_node4"><a xlink:href="dir_04c83e55f1dd055cbf491646f5a1a5df.html" target="_top" xlink:title="Core">
<polygon fill="#a2b4d6" stroke="#404040" points="97.5,-90 58.5,-90 58.5,-71 97.5,-71 97.5,-90"/>
<text text-anchor="middle" x="78" y="-78" font-family="Helvetica,sans-Serif" font-size="10.00">Core</text>
</a>
</g>
</g>
<!-- dir_6091cbee3e268cbb682ad3d3f55cf8b5&#45;&gt;dir_04c83e55f1dd055cbf491646f5a1a5df -->
<g id="edge1" class="edge">
<title>dir_6091cbee3e268cbb682ad3d3f55cf8b5&#45;&gt;dir_04c83e55f1dd055cbf491646f5a1a5df</title>
<g id="a_edge1"><a xlink:href="dir_000014_000007.html" target="_top">
<path fill="none" stroke="#63b8ff" d="M65.51,-180.93C55.13,-172.99 41.12,-160.14 35,-145 27.7,-126.94 42.79,-108.79 57.05,-96.54"/>
<polygon fill="#63b8ff" stroke="#63b8ff" points="59.55,-99.03 65.19,-90.06 55.19,-93.56 59.55,-99.03"/>
</a>
</g>
<g id="a_edge1&#45;headlabel"><a xlink:href="dir_000014_000007.html" target="_top" xlink:title="5">
<text text-anchor="middle" x="58.51" y="-100.99" font-family="Helvetica,sans-Serif" font-size="10.00" fill="#63b8ff">5</text>
</a>
</g>
</g>
<!-- dir_c17e8be8c5e758fe8ade602a519bcee8 -->
<g id="node5" class="node">
<title>dir_c17e8be8c5e758fe8ade602a519bcee8</title>
<g id="a_node5"><a xlink:href="dir_c17e8be8c5e758fe8ade602a519bcee8.html" target="_top" xlink:title="Resources">
<polygon fill="#a2b4d6" stroke="#404040" points="111.5,-145 44.5,-145 44.5,-126 111.5,-126 111.5,-145"/>
<text text-anchor="middle" x="78" y="-133" font-family="Helvetica,sans-Serif" font-size="10.00">Resources</text>
</a>
</g>
</g>
<!-- dir_6091cbee3e268cbb682ad3d3f55cf8b5&#45;&gt;dir_c17e8be8c5e758fe8ade602a519bcee8 -->
<g id="edge3" class="edge">
<title>dir_6091cbee3e268cbb682ad3d3f55cf8b5&#45;&gt;dir_c17e8be8c5e758fe8ade602a519bcee8</title>
<g id="a_edge3"><a xlink:href="dir_000014_000030.html" target="_top">
<path fill="none" stroke="#63b8ff" d="M78,-180.75C78,-173.8 78,-163.85 78,-155.13"/>
<polygon fill="#63b8ff" stroke="#63b8ff" points="81.5,-155.09 78,-145.09 74.5,-155.09 81.5,-155.09"/>
</a>
</g>
<g id="a_edge3&#45;headlabel"><a xlink:href="dir_000014_000030.html" target="_top" xlink:title="4">
<text text-anchor="middle" x="84.34" y="-156.18" font-family="Helvetica,sans-Serif" font-size="10.00" fill="#63b8ff">4</text>
</a>
</g>
</g>
<!-- dir_580d866cebc144d44931193ef5e2059b -->
<g id="node6" class="node">
<title>dir_580d866cebc144d44931193ef5e2059b</title>
<g id="a_node6"><a xlink:href="dir_580d866cebc144d44931193ef5e2059b.html" target="_top" xlink:title="Core">
<polygon fill="#edf0f7" stroke="red" stroke-dasharray="5,2" points="245.5,-35 206.5,-35 206.5,-16 245.5,-16 245.5,-35"/>
<text text-anchor="middle" x="226" y="-23" font-family="Helvetica,sans-Serif" font-size="10.00">Core</text>
</a>
</g>
</g>
<!-- dir_6091cbee3e268cbb682ad3d3f55cf8b5&#45;&gt;dir_580d866cebc144d44931193ef5e2059b -->
<g id="edge2" class="edge">
<title>dir_6091cbee3e268cbb682ad3d3f55cf8b5&#45;&gt;dir_580d866cebc144d44931193ef5e2059b</title>
<g id="a_edge2"><a xlink:href="dir_000014_000003.html" target="_top">
<path fill="none" stroke="#63b8ff" d="M102.51,-180.97C136.73,-167.6 197.58,-138.13 224,-90 231.46,-76.4 231.33,-58.58 229.7,-45.28"/>
<polygon fill="#63b8ff" stroke="#63b8ff" points="233.14,-44.68 228.1,-35.37 226.23,-45.79 233.14,-44.68"/>
</a>
</g>
<g id="a_edge2&#45;headlabel"><a xlink:href="dir_000014_000003.html" target="_top" xlink:title="13">
<text text-anchor="middle" x="236.52" y="-45.28" font-family="Helvetica,sans-Serif" font-size="10.00" fill="#63b8ff">13</text>
</a>
</g>
</g>
<!-- dir_04c83e55f1dd055cbf491646f5a1a5df&#45;&gt;dir_07f2be210ff6c371c35315ee7129d1a6 -->
<g id="edge4" class="edge">
<title>dir_04c83e55f1dd055cbf491646f5a1a5df&#45;&gt;dir_07f2be210ff6c371c35315ee7129d1a6</title>
<g id="a_edge4"><a xlink:href="dir_000007_000026.html" target="_top">
<path fill="none" stroke="#63b8ff" d="M78,-70.75C78,-63.8 78,-53.85 78,-45.13"/>
<polygon fill="#63b8ff" stroke="#63b8ff" points="81.5,-45.09 78,-35.09 74.5,-45.09 81.5,-45.09"/>
</a>
</g>
<g id="a_edge4&#45;headlabel"><a xlink:href="dir_000007_000026.html" target="_top" xlink:title="1">
<text text-anchor="middle" x="84.34" y="-46.18" font-family="Helvetica,sans-Serif" font-size="10.00" fill="#63b8ff">1</text>
</a>
</g>
</g>
<!-- dir_04c83e55f1dd055cbf491646f5a1a5df&#45;&gt;dir_580d866cebc144d44931193ef5e2059b -->
<g id="edge5" class="edge">
<title>dir_04c83e55f1dd055cbf491646f5a1a5df&#45;&gt;dir_580d866cebc144d44931193ef5e2059b</title>
<g id="a_edge5"><a xlink:href="dir_000007_000003.html" target="_top">
<path fill="none" stroke="#63b8ff" d="M88.28,-70.95C92.09,-68.1 96.57,-65.12 101,-63 140.06,-44.3 155.39,-48.28 196.58,-36.52"/>
<polygon fill="#63b8ff" stroke="#63b8ff" points="197.82,-39.8 206.39,-33.57 195.81,-33.1 197.82,-39.8"/>
</a>
</g>
<g id="a_edge5&#45;headlabel"><a xlink:href="dir_000007_000003.html" target="_top" xlink:title="4">
<text text-anchor="middle" x="195.2" y="-41.06" font-family="Helvetica,sans-Serif" font-size="10.00" fill="#63b8ff">4</text>
</a>
</g>
</g>
<!-- dir_c17e8be8c5e758fe8ade602a519bcee8&#45;&gt;dir_64427cf10fdcbb9dc3445223b1ad6a9b -->
<g id="edge8" class="edge">
<title>dir_c17e8be8c5e758fe8ade602a519bcee8&#45;&gt;dir_64427cf10fdcbb9dc3445223b1ad6a9b</title>
<g id="a_edge8"><a xlink:href="dir_000030_000029.html" target="_top">
<path fill="none" stroke="#63b8ff" d="M91.01,-125.98C103.46,-117.84 122.46,-105.41 137.21,-95.76"/>
<polygon fill="#63b8ff" stroke="#63b8ff" points="139.3,-98.57 145.75,-90.17 135.46,-92.72 139.3,-98.57"/>
</a>
</g>
<g id="a_edge8&#45;headlabel"><a xlink:href="dir_000030_000029.html" target="_top" xlink:title="2">
<text text-anchor="middle" x="137.84" y="-100.42" font-family="Helvetica,sans-Serif" font-size="10.00" fill="#63b8ff">2</text>
</a>
</g>
</g>
<!-- dir_c17e8be8c5e758fe8ade602a519bcee8&#45;&gt;dir_04c83e55f1dd055cbf491646f5a1a5df -->
<g id="edge6" class="edge">
<title>dir_c17e8be8c5e758fe8ade602a519bcee8&#45;&gt;dir_04c83e55f1dd055cbf491646f5a1a5df</title>
<g id="a_edge6"><a xlink:href="dir_000030_000007.html" target="_top">
<path fill="none" stroke="#63b8ff" d="M78,-125.75C78,-118.8 78,-108.85 78,-100.13"/>
<polygon fill="#63b8ff" stroke="#63b8ff" points="81.5,-100.09 78,-90.09 74.5,-100.09 81.5,-100.09"/>
</a>
</g>
<g id="a_edge6&#45;headlabel"><a xlink:href="dir_000030_000007.html" target="_top" xlink:title="2">
<text text-anchor="middle" x="84.34" y="-101.18" font-family="Helvetica,sans-Serif" font-size="10.00" fill="#63b8ff">2</text>
</a>
</g>
</g>
<!-- dir_c17e8be8c5e758fe8ade602a519bcee8&#45;&gt;dir_580d866cebc144d44931193ef5e2059b -->
<g id="edge7" class="edge">
<title>dir_c17e8be8c5e758fe8ade602a519bcee8&#45;&gt;dir_580d866cebc144d44931193ef5e2059b</title>
<g id="a_edge7"><a xlink:href="dir_000030_000003.html" target="_top">
<path fill="none" stroke="#63b8ff" d="M111.59,-130.3C139.17,-125.2 177.54,-114.05 202,-90 214.2,-78 220.28,-59.19 223.26,-45.15"/>
<polygon fill="#63b8ff" stroke="#63b8ff" points="226.74,-45.59 225.04,-35.14 219.84,-44.37 226.74,-45.59"/>
</a>
</g>
<g id="a_edge7&#45;headlabel"><a xlink:href="dir_000030_000003.html" target="_top" xlink:title="5">
<text text-anchor="middle" x="228.9" y="-47.13" font-family="Helvetica,sans-Serif" font-size="10.00" fill="#63b8ff">5</text>
</a>
</g>
</g>
</g>
</svg>
