<?xml version="1.0" encoding="UTF-8" standalone="no"?>
<!DOCTYPE svg PUBLIC "-//W3C//DTD SVG 1.1//EN"
 "http://www.w3.org/Graphics/SVG/1.1/DTD/svg11.dtd">
<!-- Generated by graphviz version 2.43.0 (0)
 -->
<!-- Title: Engine/Source/Runtime/Graphics Pages: 1 -->
<svg width="269pt" height="306pt"
 viewBox="0.00 0.00 268.50 306.00" xmlns="http://www.w3.org/2000/svg" xmlns:xlink="http://www.w3.org/1999/xlink">

<svg id="main" version="1.1" xmlns="http://www.w3.org/2000/svg" xmlns:xlink="http://www.w3.org/1999/xlink" xml:space="preserve">

<style type="text/css"><![CDATA[
.node, .edge {opacity: 0.7;}
.node.selected, .edge.selected {opacity: 1;}
.edge:hover path { stroke: red; }
.edge:hover polygon { stroke: red; fill: red; }
]]></style>
<script type="application/ecmascript" xlink:href="svg.min.js"/>
<svg id="graph" class="graph">
<g id="graph0" class="graph" transform="scale(1 1) rotate(0) translate(4 302)">
<title>Engine/Source/Runtime/Graphics</title>
<g id="clust1" class="cluster">
<title>clusterdir_9f04efef762572853abdf73f62bebfcc</title>
<g id="a_clust1"><a xlink:href="dir_9f04efef762572853abdf73f62bebfcc.html" target="_top" xlink:title="Runtime">
<polygon fill="#edf0f7" stroke="#7f7f7f" stroke-dasharray="5,2" points="8,-8 8,-290 198,-290 198,-8 8,-8"/>
<text text-anchor="middle" x="103" y="-278" font-family="Helvetica,sans-Serif" font-size="10.00">Runtime</text>
</a>
</g>
</g>
<g id="clust2" class="cluster">
<title>clusterdir_6091cbee3e268cbb682ad3d3f55cf8b5</title>
<g id="a_clust2"><a xlink:href="dir_6091cbee3e268cbb682ad3d3f55cf8b5.html" target="_top">
<polygon fill="#edf0f7" stroke="#404040" stroke-width="2" points="16,-63 16,-263 122,-263 122,-63 16,-63"/>
</a>
</g>
</g>
<!-- dir_07f2be210ff6c371c35315ee7129d1a6 -->
<g id="node1" class="node">
<title>dir_07f2be210ff6c371c35315ee7129d1a6</title>
<g id="a_node1"><a xlink:href="dir_07f2be210ff6c371c35315ee7129d1a6.html" target="_top" xlink:title="Platform">
<polygon fill="#a2b4d6" stroke="#404040" points="189.5,-90 130.5,-90 130.5,-71 189.5,-71 189.5,-90"/>
<text text-anchor="middle" x="160" y="-78" font-family="Helvetica,sans-Serif" font-size="10.00">Platform</text>
</a>
</g>
</g>
<!-- dir_2028939d2f8cc233fd7b20118786c3c8 -->
<g id="node2" class="node">
<title>dir_2028939d2f8cc233fd7b20118786c3c8</title>
<g id="a_node2"><a xlink:href="dir_2028939d2f8cc233fd7b20118786c3c8.html" target="_top" xlink:title="Scene">
<polygon fill="#a2b4d6" stroke="#404040" points="176,-145 130,-145 130,-126 176,-126 176,-145"/>
<text text-anchor="middle" x="153" y="-133" font-family="Helvetica,sans-Serif" font-size="10.00">Scene</text>
</a>
</g>
</g>
<!-- dir_64427cf10fdcbb9dc3445223b1ad6a9b -->
<g id="node3" class="node">
<title>dir_64427cf10fdcbb9dc3445223b1ad6a9b</title>
<g id="a_node3"><a xlink:href="dir_64427cf10fdcbb9dc3445223b1ad6a9b.html" target="_top" xlink:title="Resource">
<polygon fill="#a2b4d6" stroke="#404040" points="110,-35 48,-35 48,-16 110,-16 110,-35"/>
<text text-anchor="middle" x="79" y="-23" font-family="Helvetica,sans-Serif" font-size="10.00">Resource</text>
</a>
</g>
</g>
<!-- dir_6091cbee3e268cbb682ad3d3f55cf8b5 -->
<g id="node4" class="node">
<title>dir_6091cbee3e268cbb682ad3d3f55cf8b5</title>
<text text-anchor="middle" x="84" y="-243" font-family="Helvetica,sans-Serif" font-size="10.00">Graphics</text>
</g>
<!-- dir_6091cbee3e268cbb682ad3d3f55cf8b5&#45;&gt;dir_2028939d2f8cc233fd7b20118786c3c8 -->
<g id="edge2" class="edge">
<title>dir_6091cbee3e268cbb682ad3d3f55cf8b5&#45;&gt;dir_2028939d2f8cc233fd7b20118786c3c8</title>
<g id="a_edge2"><a xlink:href="dir_000015_000034.html" target="_top">
<path fill="none" stroke="#63b8ff" d="M92.86,-235.9C101.33,-227.34 114.1,-213.57 123,-200 132.5,-185.52 140.69,-167.56 146.1,-154.44"/>
<polygon fill="#63b8ff" stroke="#63b8ff" points="149.37,-155.7 149.82,-145.11 142.87,-153.11 149.37,-155.7"/>
</a>
</g>
<g id="a_edge2&#45;headlabel"><a xlink:href="dir_000015_000034.html" target="_top" xlink:title="2">
<text text-anchor="middle" x="150.68" y="-157.59" font-family="Helvetica,sans-Serif" font-size="10.00" fill="#63b8ff">2</text>
</a>
</g>
</g>
<!-- dir_04c83e55f1dd055cbf491646f5a1a5df -->
<g id="node5" class="node">
<title>dir_04c83e55f1dd055cbf491646f5a1a5df</title>
<g id="a_node5"><a xlink:href="dir_04c83e55f1dd055cbf491646f5a1a5df.html" target="_top" xlink:title="Core">
<polygon fill="#a2b4d6" stroke="#404040" points="109.5,-145 70.5,-145 70.5,-126 109.5,-126 109.5,-145"/>
<text text-anchor="middle" x="90" y="-133" font-family="Helvetica,sans-Serif" font-size="10.00">Core</text>
</a>
</g>
</g>
<!-- dir_6091cbee3e268cbb682ad3d3f55cf8b5&#45;&gt;dir_04c83e55f1dd055cbf491646f5a1a5df -->
<g id="edge1" class="edge">
<title>dir_6091cbee3e268cbb682ad3d3f55cf8b5&#45;&gt;dir_04c83e55f1dd055cbf491646f5a1a5df</title>
<g id="a_edge1"><a xlink:href="dir_000015_000007.html" target="_top">
<path fill="none" stroke="#63b8ff" d="M75.23,-235.68C64.35,-223.61 48.02,-201.16 55,-181 58.67,-170.38 66.04,-160.38 73.08,-152.55"/>
<polygon fill="#63b8ff" stroke="#63b8ff" points="75.7,-154.88 80.12,-145.25 70.66,-150.02 75.7,-154.88"/>
</a>
</g>
<g id="a_edge1&#45;headlabel"><a xlink:href="dir_000015_000007.html" target="_top" xlink:title="12">
<text text-anchor="middle" x="75.24" y="-156.94" font-family="Helvetica,sans-Serif" font-size="10.00" fill="#63b8ff">12</text>
</a>
</g>
</g>
<!-- dir_8351ef56a0e0768b20aa52a37aad994e -->
<g id="node6" class="node">
<title>dir_8351ef56a0e0768b20aa52a37aad994e</title>
<g id="a_node6"><a xlink:href="dir_8351ef56a0e0768b20aa52a37aad994e.html" target="_top" xlink:title="Passes">
<polygon fill="#a2b4d6" stroke="#404040" points="114,-200 64,-200 64,-181 114,-181 114,-200"/>
<text text-anchor="middle" x="89" y="-188" font-family="Helvetica,sans-Serif" font-size="10.00">Passes</text>
</a>
</g>
</g>
<!-- dir_6091cbee3e268cbb682ad3d3f55cf8b5&#45;&gt;dir_8351ef56a0e0768b20aa52a37aad994e -->
<g id="edge4" class="edge">
<title>dir_6091cbee3e268cbb682ad3d3f55cf8b5&#45;&gt;dir_8351ef56a0e0768b20aa52a37aad994e</title>
<g id="a_edge4"><a xlink:href="dir_000015_000027.html" target="_top">
<path fill="none" stroke="#63b8ff" d="M84.83,-235.75C85.48,-228.8 86.42,-218.85 87.24,-210.13"/>
<polygon fill="#63b8ff" stroke="#63b8ff" points="90.73,-210.37 88.19,-200.09 83.77,-209.72 90.73,-210.37"/>
</a>
</g>
<g id="a_edge4&#45;headlabel"><a xlink:href="dir_000015_000027.html" target="_top" xlink:title="4">
<text text-anchor="middle" x="93.22" y="-211.72" font-family="Helvetica,sans-Serif" font-size="10.00" fill="#63b8ff">4</text>
</a>
</g>
</g>
<!-- dir_c17e8be8c5e758fe8ade602a519bcee8 -->
<g id="node7" class="node">
<title>dir_c17e8be8c5e758fe8ade602a519bcee8</title>
<g id="a_node7"><a xlink:href="dir_c17e8be8c5e758fe8ade602a519bcee8.html" target="_top" xlink:title="Resources">
<polygon fill="#a2b4d6" stroke="#404040" points="112.5,-90 45.5,-90 45.5,-71 112.5,-71 112.5,-90"/>
<text text-anchor="middle" x="79" y="-78" font-family="Helvetica,sans-Serif" font-size="10.00">Resources</text>
</a>
</g>
</g>
<!-- dir_6091cbee3e268cbb682ad3d3f55cf8b5&#45;&gt;dir_c17e8be8c5e758fe8ade602a519bcee8 -->
<g id="edge5" class="edge">
<title>dir_6091cbee3e268cbb682ad3d3f55cf8b5&#45;&gt;dir_c17e8be8c5e758fe8ade602a519bcee8</title>
<g id="a_edge5"><a xlink:href="dir_000015_000032.html" target="_top">
<path fill="none" stroke="#63b8ff" d="M74.39,-235.69C66.13,-227.41 54.8,-214.18 50,-200 44.9,-184.91 50.06,-145.72 56,-126 58.82,-116.65 63.59,-106.93 68.06,-98.98"/>
<polygon fill="#63b8ff" stroke="#63b8ff" points="71.13,-100.67 73.21,-90.29 65.1,-97.11 71.13,-100.67"/>
</a>
</g>
<g id="a_edge5&#45;headlabel"><a xlink:href="dir_000015_000032.html" target="_top" xlink:title="8">
<text text-anchor="middle" x="71.74" y="-102.71" font-family="Helvetica,sans-Serif" font-size="10.00" fill="#63b8ff">8</text>
</a>
</g>
</g>
<!-- dir_580d866cebc144d44931193ef5e2059b -->
<g id="node8" class="node">
<title>dir_580d866cebc144d44931193ef5e2059b</title>
<g id="a_node8"><a xlink:href="dir_580d866cebc144d44931193ef5e2059b.html" target="_top" xlink:title="Core">
<polygon fill="#edf0f7" stroke="red" stroke-dasharray="5,2" points="260.5,-35 221.5,-35 221.5,-16 260.5,-16 260.5,-35"/>
<text text-anchor="middle" x="241" y="-23" font-family="Helvetica,sans-Serif" font-size="10.00">Core</text>
</a>
</g>
</g>
<!-- dir_6091cbee3e268cbb682ad3d3f55cf8b5&#45;&gt;dir_580d866cebc144d44931193ef5e2059b -->
<g id="edge3" class="edge">
<title>dir_6091cbee3e268cbb682ad3d3f55cf8b5&#45;&gt;dir_580d866cebc144d44931193ef5e2059b</title>
<g id="a_edge3"><a xlink:href="dir_000015_000003.html" target="_top">
<path fill="none" stroke="#63b8ff" d="M113.67,-240.04C139.89,-234.69 177.65,-223.32 202,-200 240.4,-163.23 238.34,-142.08 249,-90 252.07,-75.01 249.52,-57.78 246.51,-45.05"/>
<polygon fill="#63b8ff" stroke="#63b8ff" points="249.84,-43.95 243.88,-35.2 243.08,-45.76 249.84,-43.95"/>
</a>
</g>
<g id="a_edge3&#45;headlabel"><a xlink:href="dir_000015_000003.html" target="_top" xlink:title="19">
<text text-anchor="middle" x="253.51" y="-44.19" font-family="Helvetica,sans-Serif" font-size="10.00" fill="#63b8ff">19</text>
</a>
</g>
</g>
<!-- dir_04c83e55f1dd055cbf491646f5a1a5df&#45;&gt;dir_07f2be210ff6c371c35315ee7129d1a6 -->
<g id="edge6" class="edge">
<title>dir_04c83e55f1dd055cbf491646f5a1a5df&#45;&gt;dir_07f2be210ff6c371c35315ee7129d1a6</title>
<g id="a_edge6"><a xlink:href="dir_000007_000028.html" target="_top">
<path fill="none" stroke="#63b8ff" d="M101.25,-125.98C111.8,-118 127.8,-105.88 140.44,-96.31"/>
<polygon fill="#63b8ff" stroke="#63b8ff" points="142.69,-99 148.55,-90.17 138.46,-93.42 142.69,-99"/>
</a>
</g>
<g id="a_edge6&#45;headlabel"><a xlink:href="dir_000007_000028.html" target="_top" xlink:title="1">
<text text-anchor="middle" x="141.54" y="-100.93" font-family="Helvetica,sans-Serif" font-size="10.00" fill="#63b8ff">1</text>
</a>
</g>
</g>
<!-- dir_04c83e55f1dd055cbf491646f5a1a5df&#45;&gt;dir_c17e8be8c5e758fe8ade602a519bcee8 -->
<g id="edge8" class="edge">
<title>dir_04c83e55f1dd055cbf491646f5a1a5df&#45;&gt;dir_c17e8be8c5e758fe8ade602a519bcee8</title>
<g id="a_edge8"><a xlink:href="dir_000007_000032.html" target="_top">
<path fill="none" stroke="#63b8ff" d="M83.02,-125.75C80.08,-118.8 77.58,-108.85 76.39,-100.13"/>
<polygon fill="#63b8ff" stroke="#63b8ff" points="79.87,-99.81 75.65,-90.09 72.89,-100.32 79.87,-99.81"/>
</a>
</g>
<g id="a_edge8&#45;headlabel"><a xlink:href="dir_000007_000032.html" target="_top" xlink:title="1">
<text text-anchor="middle" x="82.97" y="-100.68" font-family="Helvetica,sans-Serif" font-size="10.00" fill="#63b8ff">1</text>
</a>
</g>
</g>
<!-- dir_04c83e55f1dd055cbf491646f5a1a5df&#45;&gt;dir_580d866cebc144d44931193ef5e2059b -->
<g id="edge7" class="edge">
<title>dir_04c83e55f1dd055cbf491646f5a1a5df&#45;&gt;dir_580d866cebc144d44931193ef5e2059b</title>
<g id="a_edge7"><a xlink:href="dir_000007_000003.html" target="_top">
<path fill="none" stroke="#63b8ff" d="M109.71,-127.04C140.84,-115.2 198.28,-93.13 202,-90 216.52,-77.79 227.2,-58.74 233.68,-44.68"/>
<polygon fill="#63b8ff" stroke="#63b8ff" points="237.06,-45.68 237.8,-35.11 230.63,-42.91 237.06,-45.68"/>
</a>
</g>
<g id="a_edge7&#45;headlabel"><a xlink:href="dir_000007_000003.html" target="_top" xlink:title="6">
<text text-anchor="middle" x="238.25" y="-47.6" font-family="Helvetica,sans-Serif" font-size="10.00" fill="#63b8ff">6</text>
</a>
</g>
</g>
<!-- dir_8351ef56a0e0768b20aa52a37aad994e&#45;&gt;dir_2028939d2f8cc233fd7b20118786c3c8 -->
<g id="edge10" class="edge">
<title>dir_8351ef56a0e0768b20aa52a37aad994e&#45;&gt;dir_2028939d2f8cc233fd7b20118786c3c8</title>
<g id="a_edge10"><a xlink:href="dir_000027_000034.html" target="_top">
<path fill="none" stroke="#63b8ff" d="M99.28,-180.98C108.84,-173.07 123.28,-161.11 134.78,-151.58"/>
<polygon fill="#63b8ff" stroke="#63b8ff" points="137.06,-154.24 142.53,-145.17 132.6,-148.85 137.06,-154.24"/>
</a>
</g>
<g id="a_edge10&#45;headlabel"><a xlink:href="dir_000027_000034.html" target="_top" xlink:title="1">
<text text-anchor="middle" x="136.1" y="-156.22" font-family="Helvetica,sans-Serif" font-size="10.00" fill="#63b8ff">1</text>
</a>
</g>
</g>
<!-- dir_8351ef56a0e0768b20aa52a37aad994e&#45;&gt;dir_04c83e55f1dd055cbf491646f5a1a5df -->
<g id="edge9" class="edge">
<title>dir_8351ef56a0e0768b20aa52a37aad994e&#45;&gt;dir_04c83e55f1dd055cbf491646f5a1a5df</title>
<g id="a_edge9"><a xlink:href="dir_000027_000007.html" target="_top">
<path fill="none" stroke="#63b8ff" d="M89.17,-180.75C89.3,-173.8 89.48,-163.85 89.65,-155.13"/>
<polygon fill="#63b8ff" stroke="#63b8ff" points="93.15,-155.15 89.84,-145.09 86.15,-155.02 93.15,-155.15"/>
</a>
</g>
<g id="a_edge9&#45;headlabel"><a xlink:href="dir_000027_000007.html" target="_top" xlink:title="6">
<text text-anchor="middle" x="95.92" y="-156.3" font-family="Helvetica,sans-Serif" font-size="10.00" fill="#63b8ff">6</text>
</a>
</g>
</g>
<!-- dir_8351ef56a0e0768b20aa52a37aad994e&#45;&gt;dir_c17e8be8c5e758fe8ade602a519bcee8 -->
<g id="edge12" class="edge">
<title>dir_8351ef56a0e0768b20aa52a37aad994e&#45;&gt;dir_c17e8be8c5e758fe8ade602a519bcee8</title>
<g id="a_edge12"><a xlink:href="dir_000027_000032.html" target="_top">
<path fill="none" stroke="#63b8ff" d="M81.33,-180.7C74.48,-172.21 64.95,-158.68 61,-145 56.54,-129.54 62.39,-111.93 68.58,-99.18"/>
<polygon fill="#63b8ff" stroke="#63b8ff" points="71.79,-100.6 73.43,-90.13 65.62,-97.3 71.79,-100.6"/>
</a>
</g>
<g id="a_edge12&#45;headlabel"><a xlink:href="dir_000027_000032.html" target="_top" xlink:title="3">
<text text-anchor="middle" x="72.6" y="-102.61" font-family="Helvetica,sans-Serif" font-size="10.00" fill="#63b8ff">3</text>
</a>
</g>
</g>
<!-- dir_8351ef56a0e0768b20aa52a37aad994e&#45;&gt;dir_580d866cebc144d44931193ef5e2059b -->
<g id="edge11" class="edge">
<title>dir_8351ef56a0e0768b20aa52a37aad994e&#45;&gt;dir_580d866cebc144d44931193ef5e2059b</title>
<g id="a_edge11"><a xlink:href="dir_000027_000003.html" target="_top">
<path fill="none" stroke="#63b8ff" d="M114.43,-185.22C139.51,-179.81 177.54,-168.23 202,-145 230.04,-118.36 237.94,-71.23 240.15,-45.15"/>
<polygon fill="#63b8ff" stroke="#63b8ff" points="243.65,-45.3 240.81,-35.09 236.66,-44.85 243.65,-45.3"/>
</a>
</g>
<g id="a_edge11&#45;headlabel"><a xlink:href="dir_000027_000003.html" target="_top" xlink:title="4">
<text text-anchor="middle" x="246.25" y="-46.57" font-family="Helvetica,sans-Serif" font-size="10.00" fill="#63b8ff">4</text>
</a>
</g>
</g>
<!-- dir_c17e8be8c5e758fe8ade602a519bcee8&#45;&gt;dir_64427cf10fdcbb9dc3445223b1ad6a9b -->
<g id="edge15" class="edge">
<title>dir_c17e8be8c5e758fe8ade602a519bcee8&#45;&gt;dir_64427cf10fdcbb9dc3445223b1ad6a9b</title>
<g id="a_edge15"><a xlink:href="dir_000032_000031.html" target="_top">
<path fill="none" stroke="#63b8ff" d="M79,-70.75C79,-63.8 79,-53.85 79,-45.13"/>
<polygon fill="#63b8ff" stroke="#63b8ff" points="82.5,-45.09 79,-35.09 75.5,-45.09 82.5,-45.09"/>
</a>
</g>
<g id="a_edge15&#45;headlabel"><a xlink:href="dir_000032_000031.html" target="_top" xlink:title="2">
<text text-anchor="middle" x="85.34" y="-46.18" font-family="Helvetica,sans-Serif" font-size="10.00" fill="#63b8ff">2</text>
</a>
</g>
</g>
<!-- dir_c17e8be8c5e758fe8ade602a519bcee8&#45;&gt;dir_04c83e55f1dd055cbf491646f5a1a5df -->
<g id="edge13" class="edge">
<title>dir_c17e8be8c5e758fe8ade602a519bcee8&#45;&gt;dir_04c83e55f1dd055cbf491646f5a1a5df</title>
<g id="a_edge13"><a xlink:href="dir_000032_000007.html" target="_top">
<path fill="none" stroke="#63b8ff" d="M85.91,-90.09C88.85,-96.99 91.37,-106.93 92.58,-115.66"/>
<polygon fill="#63b8ff" stroke="#63b8ff" points="89.1,-116.04 93.35,-125.75 96.08,-115.51 89.1,-116.04"/>
</a>
</g>
<g id="a_edge13&#45;headlabel"><a xlink:href="dir_000032_000007.html" target="_top" xlink:title="2">
<text text-anchor="middle" x="86" y="-110.17" font-family="Helvetica,sans-Serif" font-size="10.00" fill="#63b8ff">2</text>
</a>
</g>
</g>
<!-- dir_c17e8be8c5e758fe8ade602a519bcee8&#45;&gt;dir_580d866cebc144d44931193ef5e2059b -->
<g id="edge14" class="edge">
<title>dir_c17e8be8c5e758fe8ade602a519bcee8&#45;&gt;dir_580d866cebc144d44931193ef5e2059b</title>
<g id="a_edge14"><a xlink:href="dir_000032_000003.html" target="_top">
<path fill="none" stroke="#63b8ff" d="M96.86,-70.95C102.87,-68.23 109.66,-65.33 116,-63 148.08,-51.22 185.86,-40.63 211.43,-33.92"/>
<polygon fill="#63b8ff" stroke="#63b8ff" points="212.44,-37.28 221.25,-31.38 210.69,-30.5 212.44,-37.28"/>
</a>
</g>
<g id="a_edge14&#45;headlabel"><a xlink:href="dir_000032_000003.html" target="_top" xlink:title="5">
<text text-anchor="middle" x="209.67" y="-38.43" font-family="Helvetica,sans-Serif" font-size="10.00" fill="#63b8ff">5</text>
</a>
</g>
</g>
</g>
</svg>
</svg>

<style type='text/css'>
<![CDATA[
[data-mouse-over-selected='false'] { opacity: 0.7; }
[data-mouse-over-selected='true']  { opacity: 1.0; }
]]>
</style>
<script type="application/ecmascript"><![CDATA[
document.addEventListener('DOMContentLoaded', (event) => {
  highlightEdges();
  highlightAdjacentNodes();
});
]]></script>
</svg>
