<?xml version="1.0" encoding="UTF-8" standalone="no"?>
<!DOCTYPE svg PUBLIC "-//W3C//DTD SVG 1.1//EN"
 "http://www.w3.org/Graphics/SVG/1.1/DTD/svg11.dtd">
<!-- Generated by graphviz version 2.43.0 (0)
 -->
<!-- Title: Engine/Source/Runtime Pages: 1 -->
<svg width="346pt" height="526pt"
 viewBox="0.00 0.00 346.00 526.00" xmlns="http://www.w3.org/2000/svg" xmlns:xlink="http://www.w3.org/1999/xlink">
<g id="graph0" class="graph" transform="scale(1 1) rotate(0) translate(4 522)">
<title>Engine/Source/Runtime</title>
<g id="clust1" class="cluster">
<title>clusterdir_9579d1ecb2c7bf48cbe1049c41745cb4</title>
<g id="a_clust1"><a xlink:href="dir_9579d1ecb2c7bf48cbe1049c41745cb4.html" target="_top" xlink:title="Source">
<polygon fill="#edf0f7" stroke="#7f7f7f" stroke-dasharray="5,2" points="8,-8 8,-510 330,-510 330,-8 8,-8"/>
<text text-anchor="middle" x="169" y="-498" font-family="Helvetica,sans-Serif" font-size="10.00">Source</text>
</a>
</g>
</g>
<g id="clust2" class="cluster">
<title>clusterdir_9f04efef762572853abdf73f62bebfcc</title>
<g id="a_clust2"><a xlink:href="dir_9f04efef762572853abdf73f62bebfcc.html" target="_top">
<polygon fill="#edf0f7" stroke="#404040" stroke-width="2" points="28,-63 28,-483 228,-483 228,-63 28,-63"/>
</a>
</g>
</g>
<!-- dir_580d866cebc144d44931193ef5e2059b -->
<g id="node1" class="node">
<title>dir_580d866cebc144d44931193ef5e2059b</title>
<g id="a_node1"><a xlink:href="dir_580d866cebc144d44931193ef5e2059b.html" target="_top" xlink:title="Core">
<polygon fill="#a2b4d6" stroke="red" points="149.5,-35 110.5,-35 110.5,-16 149.5,-16 149.5,-35"/>
<text text-anchor="middle" x="130" y="-23" font-family="Helvetica,sans-Serif" font-size="10.00">Core</text>
</a>
</g>
</g>
<!-- dir_c6cb6fb3292d721ac39edcf45c3f2a55 -->
<g id="node2" class="node">
<title>dir_c6cb6fb3292d721ac39edcf45c3f2a55</title>
<g id="a_node2"><a xlink:href="dir_c6cb6fb3292d721ac39edcf45c3f2a55.html" target="_top" xlink:title="Editor">
<polygon fill="#a2b4d6" stroke="red" points="281.5,-200 236.5,-200 236.5,-181 281.5,-181 281.5,-200"/>
<text text-anchor="middle" x="259" y="-188" font-family="Helvetica,sans-Serif" font-size="10.00">Editor</text>
</a>
</g>
</g>
<!-- dir_9f04efef762572853abdf73f62bebfcc -->
<g id="node3" class="node">
<title>dir_9f04efef762572853abdf73f62bebfcc</title>
<text text-anchor="middle" x="123" y="-463" font-family="Helvetica,sans-Serif" font-size="10.00">Runtime</text>
</g>
<!-- dir_9f04efef762572853abdf73f62bebfcc&#45;&gt;dir_580d866cebc144d44931193ef5e2059b -->
<g id="edge3" class="edge">
<title>dir_9f04efef762572853abdf73f62bebfcc&#45;&gt;dir_580d866cebc144d44931193ef5e2059b</title>
<g id="a_edge3"><a xlink:href="dir_000031_000003.html" target="_top">
<path fill="none" stroke="#63b8ff" d="M152.22,-461.93C207.29,-455.32 321,-432.46 321,-356.5 321,-356.5 321,-356.5 321,-134.5 321,-61.29 213.35,-37.13 159.69,-29.64"/>
<polygon fill="#63b8ff" stroke="#63b8ff" points="160.09,-26.16 149.72,-28.35 159.19,-33.1 160.09,-26.16"/>
</a>
</g>
<g id="a_edge3&#45;headlabel"><a xlink:href="dir_000031_000003.html" target="_top" xlink:title="36">
<text text-anchor="middle" x="164.02" y="-21.31" font-family="Helvetica,sans-Serif" font-size="10.00" fill="#63b8ff">36</text>
</a>
</g>
</g>
<!-- dir_9f04efef762572853abdf73f62bebfcc&#45;&gt;dir_c6cb6fb3292d721ac39edcf45c3f2a55 -->
<g id="edge6" class="edge">
<title>dir_9f04efef762572853abdf73f62bebfcc&#45;&gt;dir_c6cb6fb3292d721ac39edcf45c3f2a55</title>
<g id="a_edge6"><a xlink:href="dir_000031_000010.html" target="_top">
<path fill="none" stroke="#63b8ff" d="M152.39,-460.36C202.95,-451.4 301,-425.18 301,-356.5 301,-356.5 301,-356.5 301,-299.5 301,-265.46 282.65,-229.24 270.21,-208.59"/>
<polygon fill="#63b8ff" stroke="#63b8ff" points="273.12,-206.63 264.84,-200.02 267.19,-210.35 273.12,-206.63"/>
</a>
</g>
<g id="a_edge6&#45;headlabel"><a xlink:href="dir_000031_000010.html" target="_top" xlink:title="3">
<text text-anchor="middle" x="277.43" y="-205.67" font-family="Helvetica,sans-Serif" font-size="10.00" fill="#63b8ff">3</text>
</a>
</g>
</g>
<!-- dir_5e12f0ed66b5e5f61b7b40f53564b633 -->
<g id="node6" class="node">
<title>dir_5e12f0ed66b5e5f61b7b40f53564b633</title>
<g id="a_node6"><a xlink:href="dir_5e12f0ed66b5e5f61b7b40f53564b633.html" target="_top" xlink:title="ECS">
<polygon fill="#a2b4d6" stroke="#404040" points="132.5,-365 97.5,-365 97.5,-346 132.5,-346 132.5,-365"/>
<text text-anchor="middle" x="115" y="-353" font-family="Helvetica,sans-Serif" font-size="10.00">ECS</text>
</a>
</g>
</g>
<!-- dir_9f04efef762572853abdf73f62bebfcc&#45;&gt;dir_5e12f0ed66b5e5f61b7b40f53564b633 -->
<g id="edge4" class="edge">
<title>dir_9f04efef762572853abdf73f62bebfcc&#45;&gt;dir_5e12f0ed66b5e5f61b7b40f53564b633</title>
<g id="a_edge4"><a xlink:href="dir_000031_000009.html" target="_top">
<path fill="none" stroke="#63b8ff" d="M112.84,-455.81C104.1,-447.6 92.1,-434.43 87,-420 81.25,-403.76 90.66,-385.85 100.09,-373.2"/>
<polygon fill="#63b8ff" stroke="#63b8ff" points="102.86,-375.34 106.43,-365.37 97.42,-370.94 102.86,-375.34"/>
</a>
</g>
<g id="a_edge4&#45;headlabel"><a xlink:href="dir_000031_000009.html" target="_top" xlink:title="15">
<text text-anchor="middle" x="102.8" y="-377.42" font-family="Helvetica,sans-Serif" font-size="10.00" fill="#63b8ff">15</text>
</a>
</g>
</g>
<!-- dir_6091cbee3e268cbb682ad3d3f55cf8b5 -->
<g id="node7" class="node">
<title>dir_6091cbee3e268cbb682ad3d3f55cf8b5</title>
<g id="a_node7"><a xlink:href="dir_6091cbee3e268cbb682ad3d3f55cf8b5.html" target="_top" xlink:title="Graphics">
<polygon fill="#a2b4d6" stroke="#404040" points="156.5,-145 97.5,-145 97.5,-126 156.5,-126 156.5,-145"/>
<text text-anchor="middle" x="127" y="-133" font-family="Helvetica,sans-Serif" font-size="10.00">Graphics</text>
</a>
</g>
</g>
<!-- dir_9f04efef762572853abdf73f62bebfcc&#45;&gt;dir_6091cbee3e268cbb682ad3d3f55cf8b5 -->
<g id="edge5" class="edge">
<title>dir_9f04efef762572853abdf73f62bebfcc&#45;&gt;dir_6091cbee3e268cbb682ad3d3f55cf8b5</title>
<g id="a_edge5"><a xlink:href="dir_000031_000014.html" target="_top">
<path fill="none" stroke="#63b8ff" d="M111.94,-455.91C102.33,-447.77 88.89,-434.64 82,-420 57.41,-367.78 61.82,-348.49 67,-291 71.46,-241.51 65.12,-225.61 87,-181 92.28,-170.23 100.94,-160.12 108.85,-152.26"/>
<polygon fill="#63b8ff" stroke="#63b8ff" points="111.46,-154.62 116.37,-145.22 106.68,-149.51 111.46,-154.62"/>
</a>
</g>
<g id="a_edge5&#45;headlabel"><a xlink:href="dir_000031_000014.html" target="_top" xlink:title="19">
<text text-anchor="middle" x="110.78" y="-156.65" font-family="Helvetica,sans-Serif" font-size="10.00" fill="#63b8ff">19</text>
</a>
</g>
</g>
<!-- dir_07f2be210ff6c371c35315ee7129d1a6 -->
<g id="node8" class="node">
<title>dir_07f2be210ff6c371c35315ee7129d1a6</title>
<g id="a_node8"><a xlink:href="dir_07f2be210ff6c371c35315ee7129d1a6.html" target="_top" xlink:title="Platform">
<polygon fill="#a2b4d6" stroke="#404040" points="135.5,-90 76.5,-90 76.5,-71 135.5,-71 135.5,-90"/>
<text text-anchor="middle" x="106" y="-78" font-family="Helvetica,sans-Serif" font-size="10.00">Platform</text>
</a>
</g>
</g>
<!-- dir_9f04efef762572853abdf73f62bebfcc&#45;&gt;dir_07f2be210ff6c371c35315ee7129d1a6 -->
<g id="edge1" class="edge">
<title>dir_9f04efef762572853abdf73f62bebfcc&#45;&gt;dir_07f2be210ff6c371c35315ee7129d1a6</title>
<g id="a_edge1"><a xlink:href="dir_000031_000026.html" target="_top">
<path fill="none" stroke="#63b8ff" d="M107.99,-455.9C95.8,-448.12 79.19,-435.5 70,-420 57.29,-398.55 61.46,-389.81 59,-365 48.46,-258.52 55.54,-227.96 88,-126 90.81,-117.17 94.58,-107.61 97.94,-99.62"/>
<polygon fill="#63b8ff" stroke="#63b8ff" points="101.25,-100.79 102.01,-90.22 94.83,-98.01 101.25,-100.79"/>
</a>
</g>
<g id="a_edge1&#45;headlabel"><a xlink:href="dir_000031_000026.html" target="_top" xlink:title="2">
<text text-anchor="middle" x="102.43" y="-102.71" font-family="Helvetica,sans-Serif" font-size="10.00" fill="#63b8ff">2</text>
</a>
</g>
</g>
<!-- dir_2028939d2f8cc233fd7b20118786c3c8 -->
<g id="node11" class="node">
<title>dir_2028939d2f8cc233fd7b20118786c3c8</title>
<g id="a_node11"><a xlink:href="dir_2028939d2f8cc233fd7b20118786c3c8.html" target="_top" xlink:title="Scene">
<polygon fill="#a2b4d6" stroke="#404040" points="142,-420 96,-420 96,-401 142,-401 142,-420"/>
<text text-anchor="middle" x="119" y="-408" font-family="Helvetica,sans-Serif" font-size="10.00">Scene</text>
</a>
</g>
</g>
<!-- dir_9f04efef762572853abdf73f62bebfcc&#45;&gt;dir_2028939d2f8cc233fd7b20118786c3c8 -->
<g id="edge2" class="edge">
<title>dir_9f04efef762572853abdf73f62bebfcc&#45;&gt;dir_2028939d2f8cc233fd7b20118786c3c8</title>
<g id="a_edge2"><a xlink:href="dir_000031_000032.html" target="_top">
<path fill="none" stroke="#63b8ff" d="M122.34,-455.75C121.82,-448.8 121.06,-438.85 120.41,-430.13"/>
<polygon fill="#63b8ff" stroke="#63b8ff" points="123.89,-429.8 119.65,-420.09 116.91,-430.32 123.89,-429.8"/>
</a>
</g>
<g id="a_edge2&#45;headlabel"><a xlink:href="dir_000031_000032.html" target="_top" xlink:title="1">
<text text-anchor="middle" x="126.99" y="-430.67" font-family="Helvetica,sans-Serif" font-size="10.00" fill="#63b8ff">1</text>
</a>
</g>
</g>
<!-- dir_68e5ee02315a150ea198303cea974c1f -->
<g id="node4" class="node">
<title>dir_68e5ee02315a150ea198303cea974c1f</title>
<g id="a_node4"><a xlink:href="dir_68e5ee02315a150ea198303cea974c1f.html" target="_top" xlink:title="Components">
<polygon fill="#a2b4d6" stroke="#404040" points="154,-310 76,-310 76,-291 154,-291 154,-310"/>
<text text-anchor="middle" x="115" y="-298" font-family="Helvetica,sans-Serif" font-size="10.00">Components</text>
</a>
</g>
</g>
<!-- dir_68e5ee02315a150ea198303cea974c1f&#45;&gt;dir_580d866cebc144d44931193ef5e2059b -->
<g id="edge8" class="edge">
<title>dir_68e5ee02315a150ea198303cea974c1f&#45;&gt;dir_580d866cebc144d44931193ef5e2059b</title>
<g id="a_edge8"><a xlink:href="dir_000001_000003.html" target="_top">
<path fill="none" stroke="#63b8ff" d="M102.81,-290.95C80.88,-274.45 37,-235.91 37,-191.5 37,-191.5 37,-191.5 37,-134.5 37,-101.5 36,-88.45 57,-63 68.25,-49.37 85.85,-40.36 100.96,-34.7"/>
<polygon fill="#63b8ff" stroke="#63b8ff" points="102.11,-38.01 110.43,-31.45 99.84,-31.39 102.11,-38.01"/>
</a>
</g>
<g id="a_edge8&#45;headlabel"><a xlink:href="dir_000001_000003.html" target="_top" xlink:title="8">
<text text-anchor="middle" x="99.63" y="-39.36" font-family="Helvetica,sans-Serif" font-size="10.00" fill="#63b8ff">8</text>
</a>
</g>
</g>
<!-- dir_68e5ee02315a150ea198303cea974c1f&#45;&gt;dir_5e12f0ed66b5e5f61b7b40f53564b633 -->
<g id="edge9" class="edge">
<title>dir_68e5ee02315a150ea198303cea974c1f&#45;&gt;dir_5e12f0ed66b5e5f61b7b40f53564b633</title>
<g id="a_edge9"><a xlink:href="dir_000001_000009.html" target="_top">
<path fill="none" stroke="#63b8ff" d="M120.13,-310.09C121.64,-316.99 122.09,-326.93 121.49,-335.66"/>
<polygon fill="#63b8ff" stroke="#63b8ff" points="118,-335.38 120.17,-345.75 124.94,-336.29 118,-335.38"/>
</a>
</g>
<g id="a_edge9&#45;headlabel"><a xlink:href="dir_000001_000009.html" target="_top" xlink:title="2">
<text text-anchor="middle" x="115.65" y="-328.94" font-family="Helvetica,sans-Serif" font-size="10.00" fill="#63b8ff">2</text>
</a>
</g>
</g>
<!-- dir_68e5ee02315a150ea198303cea974c1f&#45;&gt;dir_6091cbee3e268cbb682ad3d3f55cf8b5 -->
<g id="edge10" class="edge">
<title>dir_68e5ee02315a150ea198303cea974c1f&#45;&gt;dir_6091cbee3e268cbb682ad3d3f55cf8b5</title>
<g id="a_edge10"><a xlink:href="dir_000001_000014.html" target="_top">
<path fill="none" stroke="#63b8ff" d="M114.53,-290.67C114.24,-277.81 115.21,-253.54 125,-236 136.98,-214.53 156.73,-222.34 167,-200 175.01,-182.58 160.6,-164.21 146.9,-151.74"/>
<polygon fill="#63b8ff" stroke="#63b8ff" points="148.98,-148.91 139.08,-145.12 144.46,-154.26 148.98,-148.91"/>
</a>
</g>
<g id="a_edge10&#45;headlabel"><a xlink:href="dir_000001_000014.html" target="_top" xlink:title="2">
<text text-anchor="middle" x="153.56" y="-146.57" font-family="Helvetica,sans-Serif" font-size="10.00" fill="#63b8ff">2</text>
</a>
</g>
</g>
<!-- dir_177deec2380c9242a3b71e61387bd4c4 -->
<g id="node9" class="node">
<title>dir_177deec2380c9242a3b71e61387bd4c4</title>
<g id="a_node9"><a xlink:href="dir_177deec2380c9242a3b71e61387bd4c4.html" target="_top" xlink:title="Reflection">
<polygon fill="#a2b4d6" stroke="#404040" points="199.5,-255 134.5,-255 134.5,-236 199.5,-236 199.5,-255"/>
<text text-anchor="middle" x="167" y="-243" font-family="Helvetica,sans-Serif" font-size="10.00">Reflection</text>
</a>
</g>
</g>
<!-- dir_68e5ee02315a150ea198303cea974c1f&#45;&gt;dir_177deec2380c9242a3b71e61387bd4c4 -->
<g id="edge7" class="edge">
<title>dir_68e5ee02315a150ea198303cea974c1f&#45;&gt;dir_177deec2380c9242a3b71e61387bd4c4</title>
<g id="a_edge7"><a xlink:href="dir_000001_000028.html" target="_top">
<path fill="none" stroke="#63b8ff" d="M123.59,-290.75C131.16,-283.03 142.38,-271.6 151.51,-262.28"/>
<polygon fill="#63b8ff" stroke="#63b8ff" points="154.07,-264.68 158.57,-255.09 149.07,-259.78 154.07,-264.68"/>
</a>
</g>
<g id="a_edge7&#45;headlabel"><a xlink:href="dir_000001_000028.html" target="_top" xlink:title="10">
<text text-anchor="middle" x="153.58" y="-266.73" font-family="Helvetica,sans-Serif" font-size="10.00" fill="#63b8ff">10</text>
</a>
</g>
</g>
<!-- dir_3de6fe8d63806cea4bedcdcf5470dc5e -->
<g id="node5" class="node">
<title>dir_3de6fe8d63806cea4bedcdcf5470dc5e</title>
<g id="a_node5"><a xlink:href="dir_3de6fe8d63806cea4bedcdcf5470dc5e.html" target="_top" xlink:title="Core">
<polygon fill="#a2b4d6" stroke="#404040" points="75.5,-475 36.5,-475 36.5,-456 75.5,-456 75.5,-475"/>
<text text-anchor="middle" x="56" y="-463" font-family="Helvetica,sans-Serif" font-size="10.00">Core</text>
</a>
</g>
</g>
<!-- dir_5e12f0ed66b5e5f61b7b40f53564b633&#45;&gt;dir_580d866cebc144d44931193ef5e2059b -->
<g id="edge11" class="edge">
<title>dir_5e12f0ed66b5e5f61b7b40f53564b633&#45;&gt;dir_580d866cebc144d44931193ef5e2059b</title>
<g id="a_edge11"><a xlink:href="dir_000009_000003.html" target="_top">
<path fill="none" stroke="#63b8ff" d="M97.93,-345.76C69.85,-330.03 17,-294.1 17,-246.5 17,-246.5 17,-246.5 17,-134.5 17,-101.5 14.88,-87.48 37,-63 53.41,-44.83 80,-35.6 100.55,-30.98"/>
<polygon fill="#63b8ff" stroke="#63b8ff" points="101.26,-34.41 110.37,-29.01 99.88,-27.54 101.26,-34.41"/>
</a>
</g>
<g id="a_edge11&#45;headlabel"><a xlink:href="dir_000009_000003.html" target="_top" xlink:title="7">
<text text-anchor="middle" x="98.29" y="-35.4" font-family="Helvetica,sans-Serif" font-size="10.00" fill="#63b8ff">7</text>
</a>
</g>
</g>
<!-- dir_5e12f0ed66b5e5f61b7b40f53564b633&#45;&gt;dir_68e5ee02315a150ea198303cea974c1f -->
<g id="edge12" class="edge">
<title>dir_5e12f0ed66b5e5f61b7b40f53564b633&#45;&gt;dir_68e5ee02315a150ea198303cea974c1f</title>
<g id="a_edge12"><a xlink:href="dir_000009_000001.html" target="_top">
<path fill="none" stroke="#63b8ff" d="M109.83,-345.75C108.34,-338.8 107.9,-328.85 108.52,-320.13"/>
<polygon fill="#63b8ff" stroke="#63b8ff" points="112.01,-320.47 109.87,-310.09 105.07,-319.53 112.01,-320.47"/>
</a>
</g>
<g id="a_edge12&#45;headlabel"><a xlink:href="dir_000009_000001.html" target="_top" xlink:title="6">
<text text-anchor="middle" x="114.34" y="-321.91" font-family="Helvetica,sans-Serif" font-size="10.00" fill="#63b8ff">6</text>
</a>
</g>
</g>
<!-- dir_6091cbee3e268cbb682ad3d3f55cf8b5&#45;&gt;dir_580d866cebc144d44931193ef5e2059b -->
<g id="edge14" class="edge">
<title>dir_6091cbee3e268cbb682ad3d3f55cf8b5&#45;&gt;dir_580d866cebc144d44931193ef5e2059b</title>
<g id="a_edge14"><a xlink:href="dir_000014_000003.html" target="_top">
<path fill="none" stroke="#63b8ff" d="M131.37,-125.91C135.56,-117.14 141.6,-103.01 144,-90 146.18,-78.2 146.19,-74.8 144,-63 142.86,-56.83 140.71,-50.35 138.44,-44.59"/>
<polygon fill="#63b8ff" stroke="#63b8ff" points="141.57,-43.03 134.4,-35.23 135.15,-45.8 141.57,-43.03"/>
</a>
</g>
<g id="a_edge14&#45;headlabel"><a xlink:href="dir_000014_000003.html" target="_top" xlink:title="13">
<text text-anchor="middle" x="145.61" y="-42.7" font-family="Helvetica,sans-Serif" font-size="10.00" fill="#63b8ff">13</text>
</a>
</g>
</g>
<!-- dir_6091cbee3e268cbb682ad3d3f55cf8b5&#45;&gt;dir_07f2be210ff6c371c35315ee7129d1a6 -->
<g id="edge13" class="edge">
<title>dir_6091cbee3e268cbb682ad3d3f55cf8b5&#45;&gt;dir_07f2be210ff6c371c35315ee7129d1a6</title>
<g id="a_edge13"><a xlink:href="dir_000014_000026.html" target="_top">
<path fill="none" stroke="#63b8ff" d="M123.53,-125.75C120.72,-118.65 116.66,-108.4 113.15,-99.56"/>
<polygon fill="#63b8ff" stroke="#63b8ff" points="116.34,-98.1 109.4,-90.09 109.83,-100.68 116.34,-98.1"/>
</a>
</g>
<g id="a_edge13&#45;headlabel"><a xlink:href="dir_000014_000026.html" target="_top" xlink:title="1">
<text text-anchor="middle" x="120.3" y="-97.89" font-family="Helvetica,sans-Serif" font-size="10.00" fill="#63b8ff">1</text>
</a>
</g>
</g>
<!-- dir_64427cf10fdcbb9dc3445223b1ad6a9b -->
<g id="node10" class="node">
<title>dir_64427cf10fdcbb9dc3445223b1ad6a9b</title>
<g id="a_node10"><a xlink:href="dir_64427cf10fdcbb9dc3445223b1ad6a9b.html" target="_top" xlink:title="Resource">
<polygon fill="#a2b4d6" stroke="#404040" points="158,-200 96,-200 96,-181 158,-181 158,-200"/>
<text text-anchor="middle" x="127" y="-188" font-family="Helvetica,sans-Serif" font-size="10.00">Resource</text>
</a>
</g>
</g>
<!-- dir_6091cbee3e268cbb682ad3d3f55cf8b5&#45;&gt;dir_64427cf10fdcbb9dc3445223b1ad6a9b -->
<g id="edge15" class="edge">
<title>dir_6091cbee3e268cbb682ad3d3f55cf8b5&#45;&gt;dir_64427cf10fdcbb9dc3445223b1ad6a9b</title>
<g id="a_edge15"><a xlink:href="dir_000014_000029.html" target="_top">
<path fill="none" stroke="#63b8ff" d="M132.13,-145.09C133.64,-151.99 134.09,-161.93 133.49,-170.66"/>
<polygon fill="#63b8ff" stroke="#63b8ff" points="130,-170.38 132.17,-180.75 136.94,-171.29 130,-170.38"/>
</a>
</g>
<g id="a_edge15&#45;headlabel"><a xlink:href="dir_000014_000029.html" target="_top" xlink:title="2">
<text text-anchor="middle" x="127.65" y="-163.94" font-family="Helvetica,sans-Serif" font-size="10.00" fill="#63b8ff">2</text>
</a>
</g>
</g>
<!-- dir_07f2be210ff6c371c35315ee7129d1a6&#45;&gt;dir_580d866cebc144d44931193ef5e2059b -->
<g id="edge16" class="edge">
<title>dir_07f2be210ff6c371c35315ee7129d1a6&#45;&gt;dir_580d866cebc144d44931193ef5e2059b</title>
<g id="a_edge16"><a xlink:href="dir_000026_000003.html" target="_top">
<path fill="none" stroke="#63b8ff" d="M109.96,-70.75C113.21,-63.57 117.92,-53.18 121.95,-44.27"/>
<polygon fill="#63b8ff" stroke="#63b8ff" points="125.17,-45.64 126.11,-35.09 118.8,-42.75 125.17,-45.64"/>
</a>
</g>
<g id="a_edge16&#45;headlabel"><a xlink:href="dir_000026_000003.html" target="_top" xlink:title="2">
<text text-anchor="middle" x="126.28" y="-47.59" font-family="Helvetica,sans-Serif" font-size="10.00" fill="#63b8ff">2</text>
</a>
</g>
</g>
<!-- dir_177deec2380c9242a3b71e61387bd4c4&#45;&gt;dir_580d866cebc144d44931193ef5e2059b -->
<g id="edge17" class="edge">
<title>dir_177deec2380c9242a3b71e61387bd4c4&#45;&gt;dir_580d866cebc144d44931193ef5e2059b</title>
<g id="a_edge17"><a xlink:href="dir_000028_000003.html" target="_top">
<path fill="none" stroke="#63b8ff" d="M169,-235.89C171.59,-223.69 175.6,-200.68 174,-181 169.66,-127.66 169.23,-112.94 150,-63 147.54,-56.61 144.16,-49.94 140.87,-44.08"/>
<polygon fill="#63b8ff" stroke="#63b8ff" points="143.72,-42.02 135.62,-35.18 137.69,-45.57 143.72,-42.02"/>
</a>
</g>
<g id="a_edge17&#45;headlabel"><a xlink:href="dir_000028_000003.html" target="_top" xlink:title="1">
<text text-anchor="middle" x="147.99" y="-41.17" font-family="Helvetica,sans-Serif" font-size="10.00" fill="#63b8ff">1</text>
</a>
</g>
</g>
<!-- dir_177deec2380c9242a3b71e61387bd4c4&#45;&gt;dir_c6cb6fb3292d721ac39edcf45c3f2a55 -->
<g id="edge20" class="edge">
<title>dir_177deec2380c9242a3b71e61387bd4c4&#45;&gt;dir_c6cb6fb3292d721ac39edcf45c3f2a55</title>
<g id="a_edge20"><a xlink:href="dir_000028_000010.html" target="_top">
<path fill="none" stroke="#63b8ff" d="M181.78,-235.98C196.18,-227.69 218.31,-214.94 235.19,-205.22"/>
<polygon fill="#63b8ff" stroke="#63b8ff" points="237.03,-208.19 243.95,-200.17 233.54,-202.13 237.03,-208.19"/>
</a>
</g>
<g id="a_edge20&#45;headlabel"><a xlink:href="dir_000028_000010.html" target="_top" xlink:title="1">
<text text-anchor="middle" x="235.33" y="-209.95" font-family="Helvetica,sans-Serif" font-size="10.00" fill="#63b8ff">1</text>
</a>
</g>
</g>
<!-- dir_177deec2380c9242a3b71e61387bd4c4&#45;&gt;dir_5e12f0ed66b5e5f61b7b40f53564b633 -->
<g id="edge18" class="edge">
<title>dir_177deec2380c9242a3b71e61387bd4c4&#45;&gt;dir_5e12f0ed66b5e5f61b7b40f53564b633</title>
<g id="a_edge18"><a xlink:href="dir_000028_000009.html" target="_top">
<path fill="none" stroke="#63b8ff" d="M168.41,-255.22C170.04,-267.94 171.52,-292.04 163,-310 157.35,-321.91 146.96,-332.17 137.29,-339.82"/>
<polygon fill="#63b8ff" stroke="#63b8ff" points="135.08,-337.1 129.11,-345.85 139.24,-342.73 135.08,-337.1"/>
</a>
</g>
<g id="a_edge18&#45;headlabel"><a xlink:href="dir_000028_000009.html" target="_top" xlink:title="2">
<text text-anchor="middle" x="136.29" y="-330.18" font-family="Helvetica,sans-Serif" font-size="10.00" fill="#63b8ff">2</text>
</a>
</g>
</g>
<!-- dir_177deec2380c9242a3b71e61387bd4c4&#45;&gt;dir_64427cf10fdcbb9dc3445223b1ad6a9b -->
<g id="edge19" class="edge">
<title>dir_177deec2380c9242a3b71e61387bd4c4&#45;&gt;dir_64427cf10fdcbb9dc3445223b1ad6a9b</title>
<g id="a_edge19"><a xlink:href="dir_000028_000029.html" target="_top">
<path fill="none" stroke="#63b8ff" d="M160.39,-235.75C154.74,-228.26 146.46,-217.28 139.55,-208.13"/>
<polygon fill="#63b8ff" stroke="#63b8ff" points="142.3,-205.96 133.48,-200.09 136.71,-210.18 142.3,-205.96"/>
</a>
</g>
<g id="a_edge19&#45;headlabel"><a xlink:href="dir_000028_000029.html" target="_top" xlink:title="1">
<text text-anchor="middle" x="146.73" y="-204.62" font-family="Helvetica,sans-Serif" font-size="10.00" fill="#63b8ff">1</text>
</a>
</g>
</g>
<!-- dir_64427cf10fdcbb9dc3445223b1ad6a9b&#45;&gt;dir_580d866cebc144d44931193ef5e2059b -->
<g id="edge21" class="edge">
<title>dir_64427cf10fdcbb9dc3445223b1ad6a9b&#45;&gt;dir_580d866cebc144d44931193ef5e2059b</title>
<g id="a_edge21"><a xlink:href="dir_000029_000003.html" target="_top">
<path fill="none" stroke="#63b8ff" d="M117.18,-180.98C94.53,-160.24 42.36,-105.75 67,-63 74.34,-50.26 88.02,-41.56 100.77,-35.86"/>
<polygon fill="#63b8ff" stroke="#63b8ff" points="102.23,-39.04 110.21,-32.07 99.62,-32.55 102.23,-39.04"/>
</a>
</g>
<g id="a_edge21&#45;headlabel"><a xlink:href="dir_000029_000003.html" target="_top" xlink:title="1">
<text text-anchor="middle" x="99.95" y="-40.52" font-family="Helvetica,sans-Serif" font-size="10.00" fill="#63b8ff">1</text>
</a>
</g>
</g>
<!-- dir_64427cf10fdcbb9dc3445223b1ad6a9b&#45;&gt;dir_6091cbee3e268cbb682ad3d3f55cf8b5 -->
<g id="edge22" class="edge">
<title>dir_64427cf10fdcbb9dc3445223b1ad6a9b&#45;&gt;dir_6091cbee3e268cbb682ad3d3f55cf8b5</title>
<g id="a_edge22"><a xlink:href="dir_000029_000014.html" target="_top">
<path fill="none" stroke="#63b8ff" d="M121.83,-180.75C120.34,-173.8 119.9,-163.85 120.52,-155.13"/>
<polygon fill="#63b8ff" stroke="#63b8ff" points="124.01,-155.47 121.87,-145.09 117.07,-154.53 124.01,-155.47"/>
</a>
</g>
<g id="a_edge22&#45;headlabel"><a xlink:href="dir_000029_000014.html" target="_top" xlink:title="4">
<text text-anchor="middle" x="126.34" y="-156.91" font-family="Helvetica,sans-Serif" font-size="10.00" fill="#63b8ff">4</text>
</a>
</g>
</g>
<!-- dir_2028939d2f8cc233fd7b20118786c3c8&#45;&gt;dir_5e12f0ed66b5e5f61b7b40f53564b633 -->
<g id="edge24" class="edge">
<title>dir_2028939d2f8cc233fd7b20118786c3c8&#45;&gt;dir_5e12f0ed66b5e5f61b7b40f53564b633</title>
<g id="a_edge24"><a xlink:href="dir_000032_000009.html" target="_top">
<path fill="none" stroke="#63b8ff" d="M118.34,-400.75C117.82,-393.8 117.06,-383.85 116.41,-375.13"/>
<polygon fill="#63b8ff" stroke="#63b8ff" points="119.89,-374.8 115.65,-365.09 112.91,-375.32 119.89,-374.8"/>
</a>
</g>
<g id="a_edge24&#45;headlabel"><a xlink:href="dir_000032_000009.html" target="_top" xlink:title="2">
<text text-anchor="middle" x="122.99" y="-375.67" font-family="Helvetica,sans-Serif" font-size="10.00" fill="#63b8ff">2</text>
</a>
</g>
</g>
<!-- dir_2028939d2f8cc233fd7b20118786c3c8&#45;&gt;dir_177deec2380c9242a3b71e61387bd4c4 -->
<g id="edge23" class="edge">
<title>dir_2028939d2f8cc233fd7b20118786c3c8&#45;&gt;dir_177deec2380c9242a3b71e61387bd4c4</title>
<g id="a_edge23"><a xlink:href="dir_000032_000028.html" target="_top">
<path fill="none" stroke="#63b8ff" d="M125.45,-400.77C137.29,-384.14 162.08,-346.34 171,-310 174.63,-295.23 173.2,-277.98 171.1,-265.19"/>
<polygon fill="#63b8ff" stroke="#63b8ff" points="174.52,-264.44 169.19,-255.27 167.64,-265.76 174.52,-264.44"/>
</a>
</g>
<g id="a_edge23&#45;headlabel"><a xlink:href="dir_000032_000028.html" target="_top" xlink:title="1">
<text text-anchor="middle" x="177.98" y="-264.93" font-family="Helvetica,sans-Serif" font-size="10.00" fill="#63b8ff">1</text>
</a>
</g>
</g>
<!-- dir_1f409e23445615a7676ed89cd8cccbf4 -->
<g id="node12" class="node">
<title>dir_1f409e23445615a7676ed89cd8cccbf4</title>
<g id="a_node12"><a xlink:href="dir_1f409e23445615a7676ed89cd8cccbf4.html" target="_top" xlink:title="Systems">
<polygon fill="#a2b4d6" stroke="#404040" points="219.5,-420 160.5,-420 160.5,-401 219.5,-401 219.5,-420"/>
<text text-anchor="middle" x="190" y="-408" font-family="Helvetica,sans-Serif" font-size="10.00">Systems</text>
</a>
</g>
</g>
<!-- dir_1f409e23445615a7676ed89cd8cccbf4&#45;&gt;dir_580d866cebc144d44931193ef5e2059b -->
<g id="edge25" class="edge">
<title>dir_1f409e23445615a7676ed89cd8cccbf4&#45;&gt;dir_580d866cebc144d44931193ef5e2059b</title>
<g id="a_edge25"><a xlink:href="dir_000035_000003.html" target="_top">
<path fill="none" stroke="#63b8ff" d="M199.32,-400.82C230.58,-370.6 327.74,-267.18 291,-181 262.92,-115.13 191.46,-63.84 153.9,-40.41"/>
<polygon fill="#63b8ff" stroke="#63b8ff" points="155.49,-37.28 145.13,-35.06 151.84,-43.26 155.49,-37.28"/>
</a>
</g>
<g id="a_edge25&#45;headlabel"><a xlink:href="dir_000035_000003.html" target="_top" xlink:title="3">
<text text-anchor="middle" x="160.03" y="-34.23" font-family="Helvetica,sans-Serif" font-size="10.00" fill="#63b8ff">3</text>
</a>
</g>
</g>
<!-- dir_1f409e23445615a7676ed89cd8cccbf4&#45;&gt;dir_68e5ee02315a150ea198303cea974c1f -->
<g id="edge28" class="edge">
<title>dir_1f409e23445615a7676ed89cd8cccbf4&#45;&gt;dir_68e5ee02315a150ea198303cea974c1f</title>
<g id="a_edge28"><a xlink:href="dir_000035_000001.html" target="_top">
<path fill="none" stroke="#63b8ff" d="M183.86,-400.66C171.38,-382.69 142.88,-341.64 126.72,-318.38"/>
<polygon fill="#63b8ff" stroke="#63b8ff" points="129.59,-316.38 121.01,-310.16 123.84,-320.37 129.59,-316.38"/>
</a>
</g>
<g id="a_edge28&#45;headlabel"><a xlink:href="dir_000035_000001.html" target="_top" xlink:title="15">
<text text-anchor="middle" x="133.97" y="-315.21" font-family="Helvetica,sans-Serif" font-size="10.00" fill="#63b8ff">15</text>
</a>
</g>
</g>
<!-- dir_1f409e23445615a7676ed89cd8cccbf4&#45;&gt;dir_5e12f0ed66b5e5f61b7b40f53564b633 -->
<g id="edge26" class="edge">
<title>dir_1f409e23445615a7676ed89cd8cccbf4&#45;&gt;dir_5e12f0ed66b5e5f61b7b40f53564b633</title>
<g id="a_edge26"><a xlink:href="dir_000035_000009.html" target="_top">
<path fill="none" stroke="#63b8ff" d="M177.95,-400.98C166.54,-392.92 149.17,-380.65 135.57,-371.03"/>
<polygon fill="#63b8ff" stroke="#63b8ff" points="137.46,-368.08 127.27,-365.17 133.42,-373.8 137.46,-368.08"/>
</a>
</g>
<g id="a_edge26&#45;headlabel"><a xlink:href="dir_000035_000009.html" target="_top" xlink:title="7">
<text text-anchor="middle" x="142.03" y="-365.34" font-family="Helvetica,sans-Serif" font-size="10.00" fill="#63b8ff">7</text>
</a>
</g>
</g>
<!-- dir_1f409e23445615a7676ed89cd8cccbf4&#45;&gt;dir_6091cbee3e268cbb682ad3d3f55cf8b5 -->
<g id="edge27" class="edge">
<title>dir_1f409e23445615a7676ed89cd8cccbf4&#45;&gt;dir_6091cbee3e268cbb682ad3d3f55cf8b5</title>
<g id="a_edge27"><a xlink:href="dir_000035_000014.html" target="_top">
<path fill="none" stroke="#63b8ff" d="M193.09,-401C201.91,-375.47 225.46,-297.46 208,-236 197.89,-200.41 166.79,-169.11 146.21,-151.52"/>
<polygon fill="#63b8ff" stroke="#63b8ff" points="148.32,-148.73 138.38,-145.06 143.86,-154.12 148.32,-148.73"/>
</a>
</g>
<g id="a_edge27&#45;headlabel"><a xlink:href="dir_000035_000014.html" target="_top" xlink:title="1">
<text text-anchor="middle" x="152.9" y="-146.33" font-family="Helvetica,sans-Serif" font-size="10.00" fill="#63b8ff">1</text>
</a>
</g>
</g>
</g>
</svg>
