<?xml version="1.0" encoding="UTF-8" standalone="no"?>
<!DOCTYPE svg PUBLIC "-//W3C//DTD SVG 1.1//EN"
 "http://www.w3.org/Graphics/SVG/1.1/DTD/svg11.dtd">
<!-- Generated by graphviz version 2.43.0 (0)
 -->
<!-- Title: Engine/Source/Editor Pages: 1 -->
<svg width="250pt" height="306pt"
 viewBox="0.00 0.00 250.00 306.00" xmlns="http://www.w3.org/2000/svg" xmlns:xlink="http://www.w3.org/1999/xlink">
<g id="graph0" class="graph" transform="scale(1 1) rotate(0) translate(4 302)">
<title>Engine/Source/Editor</title>
<g id="clust1" class="cluster">
<title>clusterdir_9579d1ecb2c7bf48cbe1049c41745cb4</title>
<g id="a_clust1"><a xlink:href="dir_9579d1ecb2c7bf48cbe1049c41745cb4.html" target="_top" xlink:title="Source">
<polygon fill="#edf0f7" stroke="#7f7f7f" stroke-dasharray="5,2" points="8,-8 8,-290 234,-290 234,-8 8,-8"/>
<text text-anchor="middle" x="121" y="-278" font-family="Helvetica,sans-Serif" font-size="10.00">Source</text>
</a>
</g>
</g>
<g id="clust2" class="cluster">
<title>clusterdir_c6cb6fb3292d721ac39edcf45c3f2a55</title>
<g id="a_clust2"><a xlink:href="dir_c6cb6fb3292d721ac39edcf45c3f2a55.html" target="_top">
<polygon fill="#edf0f7" stroke="#404040" stroke-width="2" points="28,-63 28,-263 156,-263 156,-63 28,-63"/>
</a>
</g>
</g>
<!-- dir_580d866cebc144d44931193ef5e2059b -->
<g id="node1" class="node">
<title>dir_580d866cebc144d44931193ef5e2059b</title>
<g id="a_node1"><a xlink:href="dir_580d866cebc144d44931193ef5e2059b.html" target="_top" xlink:title="Core">
<polygon fill="#a2b4d6" stroke="red" points="225.5,-145 186.5,-145 186.5,-126 225.5,-126 225.5,-145"/>
<text text-anchor="middle" x="206" y="-133" font-family="Helvetica,sans-Serif" font-size="10.00">Core</text>
</a>
</g>
</g>
<!-- dir_9f04efef762572853abdf73f62bebfcc -->
<g id="node2" class="node">
<title>dir_9f04efef762572853abdf73f62bebfcc</title>
<g id="a_node2"><a xlink:href="dir_9f04efef762572853abdf73f62bebfcc.html" target="_top" xlink:title="Runtime">
<polygon fill="#a2b4d6" stroke="red" points="153,-35 95,-35 95,-16 153,-16 153,-35"/>
<text text-anchor="middle" x="124" y="-23" font-family="Helvetica,sans-Serif" font-size="10.00">Runtime</text>
</a>
</g>
</g>
<!-- dir_c6cb6fb3292d721ac39edcf45c3f2a55 -->
<g id="node3" class="node">
<title>dir_c6cb6fb3292d721ac39edcf45c3f2a55</title>
<text text-anchor="middle" x="61" y="-243" font-family="Helvetica,sans-Serif" font-size="10.00">Editor</text>
</g>
<!-- dir_c6cb6fb3292d721ac39edcf45c3f2a55&#45;&gt;dir_580d866cebc144d44931193ef5e2059b -->
<g id="edge1" class="edge">
<title>dir_c6cb6fb3292d721ac39edcf45c3f2a55&#45;&gt;dir_580d866cebc144d44931193ef5e2059b</title>
<g id="a_edge1"><a xlink:href="dir_000010_000003.html" target="_top">
<path fill="none" stroke="#63b8ff" d="M83.73,-237.44C112.1,-228.28 158.54,-212.05 172,-200 185.66,-187.77 194.83,-168.72 200.16,-154.67"/>
<polygon fill="#63b8ff" stroke="#63b8ff" points="203.51,-155.7 203.51,-145.1 196.91,-153.38 203.51,-155.7"/>
</a>
</g>
<g id="a_edge1&#45;headlabel"><a xlink:href="dir_000010_000003.html" target="_top" xlink:title="6">
<text text-anchor="middle" x="205.01" y="-157.53" font-family="Helvetica,sans-Serif" font-size="10.00" fill="#63b8ff">6</text>
</a>
</g>
</g>
<!-- dir_c6cb6fb3292d721ac39edcf45c3f2a55&#45;&gt;dir_9f04efef762572853abdf73f62bebfcc -->
<g id="edge2" class="edge">
<title>dir_c6cb6fb3292d721ac39edcf45c3f2a55&#45;&gt;dir_9f04efef762572853abdf73f62bebfcc</title>
<g id="a_edge2"><a xlink:href="dir_000010_000032.html" target="_top">
<path fill="none" stroke="#63b8ff" d="M72.38,-235.78C82.92,-227.35 98.63,-213.86 110,-200 128.08,-177.96 132.95,-171.68 143,-145 155.94,-110.64 165.09,-97.67 153,-63 150.42,-55.61 145.65,-48.59 140.71,-42.72"/>
<polygon fill="#63b8ff" stroke="#63b8ff" points="142.95,-39.99 133.59,-35.03 137.82,-44.74 142.95,-39.99"/>
</a>
</g>
<g id="a_edge2&#45;headlabel"><a xlink:href="dir_000010_000032.html" target="_top" xlink:title="12">
<text text-anchor="middle" x="147.48" y="-38.2" font-family="Helvetica,sans-Serif" font-size="10.00" fill="#63b8ff">12</text>
</a>
</g>
</g>
<!-- dir_bcba414dde695aa9b94bbe05564e6e5d -->
<g id="node7" class="node">
<title>dir_bcba414dde695aa9b94bbe05564e6e5d</title>
<g id="a_node7"><a xlink:href="dir_bcba414dde695aa9b94bbe05564e6e5d.html" target="_top" xlink:title="Panels">
<polygon fill="#a2b4d6" stroke="#404040" points="101,-200 53,-200 53,-181 101,-181 101,-200"/>
<text text-anchor="middle" x="77" y="-188" font-family="Helvetica,sans-Serif" font-size="10.00">Panels</text>
</a>
</g>
</g>
<!-- dir_c6cb6fb3292d721ac39edcf45c3f2a55&#45;&gt;dir_bcba414dde695aa9b94bbe05564e6e5d -->
<g id="edge3" class="edge">
<title>dir_c6cb6fb3292d721ac39edcf45c3f2a55&#45;&gt;dir_bcba414dde695aa9b94bbe05564e6e5d</title>
<g id="a_edge3"><a xlink:href="dir_000010_000025.html" target="_top">
<path fill="none" stroke="#63b8ff" d="M63.64,-235.75C65.76,-228.72 68.81,-218.62 71.46,-209.84"/>
<polygon fill="#63b8ff" stroke="#63b8ff" points="74.87,-210.67 74.41,-200.09 68.17,-208.65 74.87,-210.67"/>
</a>
</g>
<g id="a_edge3&#45;headlabel"><a xlink:href="dir_000010_000025.html" target="_top" xlink:title="3">
<text text-anchor="middle" x="76.55" y="-212.44" font-family="Helvetica,sans-Serif" font-size="10.00" fill="#63b8ff">3</text>
</a>
</g>
</g>
<!-- dir_4211c0e63637b7627ec0c685c2cd5e93 -->
<g id="node4" class="node">
<title>dir_4211c0e63637b7627ec0c685c2cd5e93</title>
<g id="a_node4"><a xlink:href="dir_4211c0e63637b7627ec0c685c2cd5e93.html" target="_top" xlink:title="Commands">
<polygon fill="#a2b4d6" stroke="#404040" points="128,-145 56,-145 56,-126 128,-126 128,-145"/>
<text text-anchor="middle" x="92" y="-133" font-family="Helvetica,sans-Serif" font-size="10.00">Commands</text>
</a>
</g>
</g>
<!-- dir_158d6f7ff44d6791d8d784a86ee0a375 -->
<g id="node5" class="node">
<title>dir_158d6f7ff44d6791d8d784a86ee0a375</title>
<g id="a_node5"><a xlink:href="dir_158d6f7ff44d6791d8d784a86ee0a375.html" target="_top" xlink:title="Core">
<polygon fill="#a2b4d6" stroke="#404040" points="82.5,-90 43.5,-90 43.5,-71 82.5,-71 82.5,-90"/>
<text text-anchor="middle" x="63" y="-78" font-family="Helvetica,sans-Serif" font-size="10.00">Core</text>
</a>
</g>
</g>
<!-- dir_4211c0e63637b7627ec0c685c2cd5e93&#45;&gt;dir_158d6f7ff44d6791d8d784a86ee0a375 -->
<g id="edge5" class="edge">
<title>dir_4211c0e63637b7627ec0c685c2cd5e93&#45;&gt;dir_158d6f7ff44d6791d8d784a86ee0a375</title>
<g id="a_edge5"><a xlink:href="dir_000000_000004.html" target="_top">
<path fill="none" stroke="#63b8ff" d="M87.21,-125.75C83.24,-118.49 77.47,-107.95 72.57,-98.98"/>
<polygon fill="#63b8ff" stroke="#63b8ff" points="75.57,-97.18 67.7,-90.09 69.43,-100.54 75.57,-97.18"/>
</a>
</g>
<g id="a_edge5&#45;headlabel"><a xlink:href="dir_000000_000004.html" target="_top" xlink:title="1">
<text text-anchor="middle" x="79.79" y="-96.47" font-family="Helvetica,sans-Serif" font-size="10.00" fill="#63b8ff">1</text>
</a>
</g>
</g>
<!-- dir_081b3def49d6dcff92d2057173091811 -->
<g id="node8" class="node">
<title>dir_081b3def49d6dcff92d2057173091811</title>
<g id="a_node8"><a xlink:href="dir_081b3def49d6dcff92d2057173091811.html" target="_top" xlink:title="Utils">
<polygon fill="#a2b4d6" stroke="#404040" points="143.5,-90 104.5,-90 104.5,-71 143.5,-71 143.5,-90"/>
<text text-anchor="middle" x="124" y="-78" font-family="Helvetica,sans-Serif" font-size="10.00">Utils</text>
</a>
</g>
</g>
<!-- dir_4211c0e63637b7627ec0c685c2cd5e93&#45;&gt;dir_081b3def49d6dcff92d2057173091811 -->
<g id="edge4" class="edge">
<title>dir_4211c0e63637b7627ec0c685c2cd5e93&#45;&gt;dir_081b3def49d6dcff92d2057173091811</title>
<g id="a_edge4"><a xlink:href="dir_000000_000038.html" target="_top">
<path fill="none" stroke="#63b8ff" d="M97.28,-125.75C101.71,-118.42 108.16,-107.73 113.62,-98.7"/>
<polygon fill="#63b8ff" stroke="#63b8ff" points="116.64,-100.46 118.81,-90.09 110.65,-96.84 116.64,-100.46"/>
</a>
</g>
<g id="a_edge4&#45;headlabel"><a xlink:href="dir_000000_000038.html" target="_top" xlink:title="1">
<text text-anchor="middle" x="117.21" y="-102.5" font-family="Helvetica,sans-Serif" font-size="10.00" fill="#63b8ff">1</text>
</a>
</g>
</g>
<!-- dir_22289c9afc80c11c6d0f8e03d47699e8 -->
<g id="node6" class="node">
<title>dir_22289c9afc80c11c6d0f8e03d47699e8</title>
<g id="a_node6"><a xlink:href="dir_22289c9afc80c11c6d0f8e03d47699e8.html" target="_top" xlink:title="ImGui">
<polygon fill="#a2b4d6" stroke="#404040" points="148,-255 102,-255 102,-236 148,-236 148,-255"/>
<text text-anchor="middle" x="125" y="-243" font-family="Helvetica,sans-Serif" font-size="10.00">ImGui</text>
</a>
</g>
</g>
<!-- dir_22289c9afc80c11c6d0f8e03d47699e8&#45;&gt;dir_580d866cebc144d44931193ef5e2059b -->
<g id="edge6" class="edge">
<title>dir_22289c9afc80c11c6d0f8e03d47699e8&#45;&gt;dir_580d866cebc144d44931193ef5e2059b</title>
<g id="a_edge6"><a xlink:href="dir_000017_000003.html" target="_top">
<path fill="none" stroke="#63b8ff" d="M145.72,-235.92C160.86,-228.59 180.63,-216.59 192,-200 201.07,-186.76 204.39,-168.64 205.54,-155.14"/>
<polygon fill="#63b8ff" stroke="#63b8ff" points="209.04,-155.27 206.08,-145.1 202.05,-154.9 209.04,-155.27"/>
</a>
</g>
<g id="a_edge6&#45;headlabel"><a xlink:href="dir_000017_000003.html" target="_top" xlink:title="2">
<text text-anchor="middle" x="211.68" y="-156.52" font-family="Helvetica,sans-Serif" font-size="10.00" fill="#63b8ff">2</text>
</a>
</g>
</g>
<!-- dir_bcba414dde695aa9b94bbe05564e6e5d&#45;&gt;dir_580d866cebc144d44931193ef5e2059b -->
<g id="edge9" class="edge">
<title>dir_bcba414dde695aa9b94bbe05564e6e5d&#45;&gt;dir_580d866cebc144d44931193ef5e2059b</title>
<g id="a_edge9"><a xlink:href="dir_000025_000003.html" target="_top">
<path fill="none" stroke="#63b8ff" d="M97.73,-180.98C119.13,-172.19 152.72,-158.39 176.81,-148.49"/>
<polygon fill="#63b8ff" stroke="#63b8ff" points="178.25,-151.68 186.17,-144.65 175.59,-145.21 178.25,-151.68"/>
</a>
</g>
<g id="a_edge9&#45;headlabel"><a xlink:href="dir_000025_000003.html" target="_top" xlink:title="3">
<text text-anchor="middle" x="176.01" y="-153.18" font-family="Helvetica,sans-Serif" font-size="10.00" fill="#63b8ff">3</text>
</a>
</g>
</g>
<!-- dir_bcba414dde695aa9b94bbe05564e6e5d&#45;&gt;dir_9f04efef762572853abdf73f62bebfcc -->
<g id="edge10" class="edge">
<title>dir_bcba414dde695aa9b94bbe05564e6e5d&#45;&gt;dir_9f04efef762572853abdf73f62bebfcc</title>
<g id="a_edge10"><a xlink:href="dir_000025_000032.html" target="_top">
<path fill="none" stroke="#63b8ff" d="M67.92,-180.88C59.72,-172.53 48.05,-159.09 42,-145 27.56,-111.35 13.54,-93.37 34,-63 45.42,-46.05 66.2,-36.97 84.92,-32.1"/>
<polygon fill="#63b8ff" stroke="#63b8ff" points="85.77,-35.5 94.75,-29.87 84.22,-28.67 85.77,-35.5"/>
</a>
</g>
<g id="a_edge10&#45;headlabel"><a xlink:href="dir_000025_000032.html" target="_top" xlink:title="9">
<text text-anchor="middle" x="82.9" y="-36.56" font-family="Helvetica,sans-Serif" font-size="10.00" fill="#63b8ff">9</text>
</a>
</g>
</g>
<!-- dir_bcba414dde695aa9b94bbe05564e6e5d&#45;&gt;dir_4211c0e63637b7627ec0c685c2cd5e93 -->
<g id="edge8" class="edge">
<title>dir_bcba414dde695aa9b94bbe05564e6e5d&#45;&gt;dir_4211c0e63637b7627ec0c685c2cd5e93</title>
<g id="a_edge8"><a xlink:href="dir_000025_000000.html" target="_top">
<path fill="none" stroke="#63b8ff" d="M79.48,-180.75C81.46,-173.72 84.32,-163.62 86.81,-154.84"/>
<polygon fill="#63b8ff" stroke="#63b8ff" points="90.21,-155.66 89.57,-145.09 83.48,-153.76 90.21,-155.66"/>
</a>
</g>
<g id="a_edge8&#45;headlabel"><a xlink:href="dir_000025_000000.html" target="_top" xlink:title="2">
<text text-anchor="middle" x="91.97" y="-157.4" font-family="Helvetica,sans-Serif" font-size="10.00" fill="#63b8ff">2</text>
</a>
</g>
</g>
<!-- dir_bcba414dde695aa9b94bbe05564e6e5d&#45;&gt;dir_158d6f7ff44d6791d8d784a86ee0a375 -->
<g id="edge11" class="edge">
<title>dir_bcba414dde695aa9b94bbe05564e6e5d&#45;&gt;dir_158d6f7ff44d6791d8d784a86ee0a375</title>
<g id="a_edge11"><a xlink:href="dir_000025_000004.html" target="_top">
<path fill="none" stroke="#63b8ff" d="M68.79,-180.8C61.46,-172.38 51.25,-158.9 47,-145 42.33,-129.73 47.6,-112.1 53.31,-99.3"/>
<polygon fill="#63b8ff" stroke="#63b8ff" points="56.51,-100.72 57.8,-90.2 50.24,-97.62 56.51,-100.72"/>
</a>
</g>
<g id="a_edge11&#45;headlabel"><a xlink:href="dir_000025_000004.html" target="_top" xlink:title="1">
<text text-anchor="middle" x="57.47" y="-102.7" font-family="Helvetica,sans-Serif" font-size="10.00" fill="#63b8ff">1</text>
</a>
</g>
</g>
<!-- dir_bcba414dde695aa9b94bbe05564e6e5d&#45;&gt;dir_081b3def49d6dcff92d2057173091811 -->
<g id="edge7" class="edge">
<title>dir_bcba414dde695aa9b94bbe05564e6e5d&#45;&gt;dir_081b3def49d6dcff92d2057173091811</title>
<g id="a_edge7"><a xlink:href="dir_000025_000038.html" target="_top">
<path fill="none" stroke="#63b8ff" d="M96.58,-180.98C110.67,-173.68 128.6,-161.68 137,-145 144.19,-130.72 139.4,-112.74 133.71,-99.56"/>
<polygon fill="#63b8ff" stroke="#63b8ff" points="136.67,-97.66 129.16,-90.18 130.37,-100.71 136.67,-97.66"/>
</a>
</g>
<g id="a_edge7&#45;headlabel"><a xlink:href="dir_000025_000038.html" target="_top" xlink:title="3">
<text text-anchor="middle" x="140.8" y="-97.15" font-family="Helvetica,sans-Serif" font-size="10.00" fill="#63b8ff">3</text>
</a>
</g>
</g>
<!-- dir_081b3def49d6dcff92d2057173091811&#45;&gt;dir_9f04efef762572853abdf73f62bebfcc -->
<g id="edge12" class="edge">
<title>dir_081b3def49d6dcff92d2057173091811&#45;&gt;dir_9f04efef762572853abdf73f62bebfcc</title>
<g id="a_edge12"><a xlink:href="dir_000038_000032.html" target="_top">
<path fill="none" stroke="#63b8ff" d="M124,-70.75C124,-63.8 124,-53.85 124,-45.13"/>
<polygon fill="#63b8ff" stroke="#63b8ff" points="127.5,-45.09 124,-35.09 120.5,-45.09 127.5,-45.09"/>
</a>
</g>
<g id="a_edge12&#45;headlabel"><a xlink:href="dir_000038_000032.html" target="_top" xlink:title="1">
<text text-anchor="middle" x="130.34" y="-46.18" font-family="Helvetica,sans-Serif" font-size="10.00" fill="#63b8ff">1</text>
</a>
</g>
</g>
</g>
</svg>
