<?xml version="1.0" encoding="UTF-8" standalone="no"?>
<!DOCTYPE svg PUBLIC "-//W3C//DTD SVG 1.1//EN"
 "http://www.w3.org/Graphics/SVG/1.1/DTD/svg11.dtd">
<!-- Generated by graphviz version 2.43.0 (0)
 -->
<!-- Title: Engine/Source/Runtime Pages: 1 -->
<svg width="400pt" height="361pt"
 viewBox="0.00 0.00 400.00 361.00" xmlns="http://www.w3.org/2000/svg" xmlns:xlink="http://www.w3.org/1999/xlink">

<svg id="main" version="1.1" xmlns="http://www.w3.org/2000/svg" xmlns:xlink="http://www.w3.org/1999/xlink" xml:space="preserve">

<style type="text/css"><![CDATA[
.node, .edge {opacity: 0.7;}
.node.selected, .edge.selected {opacity: 1;}
.edge:hover path { stroke: red; }
.edge:hover polygon { stroke: red; fill: red; }
]]></style>
<script type="application/ecmascript" xlink:href="svg.min.js"/>
<svg id="graph" class="graph">
<g id="graph0" class="graph" transform="scale(1 1) rotate(0) translate(4 357)">
<title>Engine/Source/Runtime</title>
<g id="clust1" class="cluster">
<title>clusterdir_9579d1ecb2c7bf48cbe1049c41745cb4</title>
<g id="a_clust1"><a xlink:href="dir_9579d1ecb2c7bf48cbe1049c41745cb4.html" target="_top" xlink:title="Source">
<polygon fill="#edf0f7" stroke="#7f7f7f" stroke-dasharray="5,2" points="8,-8 8,-345 384,-345 384,-8 8,-8"/>
<text text-anchor="middle" x="196" y="-333" font-family="Helvetica,sans-Serif" font-size="10.00">Source</text>
</a>
</g>
</g>
<g id="clust2" class="cluster">
<title>clusterdir_9f04efef762572853abdf73f62bebfcc</title>
<g id="a_clust2"><a xlink:href="dir_9f04efef762572853abdf73f62bebfcc.html" target="_top">
<polygon fill="#edf0f7" stroke="#404040" stroke-width="2" points="28,-63 28,-318 282,-318 282,-63 28,-63"/>
</a>
</g>
</g>
<!-- dir_580d866cebc144d44931193ef5e2059b -->
<g id="node1" class="node">
<title>dir_580d866cebc144d44931193ef5e2059b</title>
<g id="a_node1"><a xlink:href="dir_580d866cebc144d44931193ef5e2059b.html" target="_top" xlink:title="Core">
<polygon fill="#a2b4d6" stroke="red" points="215.5,-35 176.5,-35 176.5,-16 215.5,-16 215.5,-35"/>
<text text-anchor="middle" x="196" y="-23" font-family="Helvetica,sans-Serif" font-size="10.00">Core</text>
</a>
</g>
</g>
<!-- dir_c6cb6fb3292d721ac39edcf45c3f2a55 -->
<g id="node2" class="node">
<title>dir_c6cb6fb3292d721ac39edcf45c3f2a55</title>
<g id="a_node2"><a xlink:href="dir_c6cb6fb3292d721ac39edcf45c3f2a55.html" target="_top" xlink:title="Editor">
<polygon fill="#a2b4d6" stroke="red" points="335.5,-90 290.5,-90 290.5,-71 335.5,-71 335.5,-90"/>
<text text-anchor="middle" x="313" y="-78" font-family="Helvetica,sans-Serif" font-size="10.00">Editor</text>
</a>
</g>
</g>
<!-- dir_9f04efef762572853abdf73f62bebfcc -->
<g id="node3" class="node">
<title>dir_9f04efef762572853abdf73f62bebfcc</title>
<text text-anchor="middle" x="158" y="-298" font-family="Helvetica,sans-Serif" font-size="10.00">Runtime</text>
</g>
<!-- dir_9f04efef762572853abdf73f62bebfcc&#45;&gt;dir_580d866cebc144d44931193ef5e2059b -->
<g id="edge2" class="edge">
<title>dir_9f04efef762572853abdf73f62bebfcc&#45;&gt;dir_580d866cebc144d44931193ef5e2059b</title>
<g id="a_edge2"><a xlink:href="dir_000030_000003.html" target="_top">
<path fill="none" stroke="#63b8ff" d="M184.98,-290.92C238.93,-272.94 355,-229.82 355,-191.5 355,-191.5 355,-191.5 355,-134.5 355,-102.41 366.51,-86.81 345,-63 329.29,-45.61 264.79,-34.88 225.98,-29.87"/>
<polygon fill="#63b8ff" stroke="#63b8ff" points="226.14,-26.37 215.78,-28.61 225.28,-33.31 226.14,-26.37"/>
</a>
</g>
<g id="a_edge2&#45;headlabel"><a xlink:href="dir_000030_000003.html" target="_top" xlink:title="34">
<text text-anchor="middle" x="230.05" y="-21.49" font-family="Helvetica,sans-Serif" font-size="10.00" fill="#63b8ff">34</text>
</a>
</g>
</g>
<!-- dir_9f04efef762572853abdf73f62bebfcc&#45;&gt;dir_c6cb6fb3292d721ac39edcf45c3f2a55 -->
<g id="edge5" class="edge">
<title>dir_9f04efef762572853abdf73f62bebfcc&#45;&gt;dir_c6cb6fb3292d721ac39edcf45c3f2a55</title>
<g id="a_edge5"><a xlink:href="dir_000030_000009.html" target="_top">
<path fill="none" stroke="#63b8ff" d="M174.69,-291C201.8,-276.29 255.19,-243.45 283,-200 302.95,-168.83 309.64,-125.14 311.88,-100.45"/>
<polygon fill="#63b8ff" stroke="#63b8ff" points="315.38,-100.51 312.64,-90.27 308.4,-99.98 315.38,-100.51"/>
</a>
</g>
<g id="a_edge5&#45;headlabel"><a xlink:href="dir_000030_000009.html" target="_top" xlink:title="3">
<text text-anchor="middle" x="317.95" y="-101.8" font-family="Helvetica,sans-Serif" font-size="10.00" fill="#63b8ff">3</text>
</a>
</g>
</g>
<!-- dir_5e12f0ed66b5e5f61b7b40f53564b633 -->
<g id="node5" class="node">
<title>dir_5e12f0ed66b5e5f61b7b40f53564b633</title>
<g id="a_node5"><a xlink:href="dir_5e12f0ed66b5e5f61b7b40f53564b633.html" target="_top" xlink:title="ECS">
<polygon fill="#a2b4d6" stroke="#404040" points="205.5,-255 170.5,-255 170.5,-236 205.5,-236 205.5,-255"/>
<text text-anchor="middle" x="188" y="-243" font-family="Helvetica,sans-Serif" font-size="10.00">ECS</text>
</a>
</g>
</g>
<!-- dir_9f04efef762572853abdf73f62bebfcc&#45;&gt;dir_5e12f0ed66b5e5f61b7b40f53564b633 -->
<g id="edge3" class="edge">
<title>dir_9f04efef762572853abdf73f62bebfcc&#45;&gt;dir_5e12f0ed66b5e5f61b7b40f53564b633</title>
<g id="a_edge3"><a xlink:href="dir_000030_000008.html" target="_top">
<path fill="none" stroke="#63b8ff" d="M162.95,-290.75C167.06,-283.49 173.03,-272.95 178.1,-263.98"/>
<polygon fill="#63b8ff" stroke="#63b8ff" points="181.26,-265.52 183.14,-255.09 175.17,-262.07 181.26,-265.52"/>
</a>
</g>
<g id="a_edge3&#45;headlabel"><a xlink:href="dir_000030_000008.html" target="_top" xlink:title="13">
<text text-anchor="middle" x="181.96" y="-267.54" font-family="Helvetica,sans-Serif" font-size="10.00" fill="#63b8ff">13</text>
</a>
</g>
</g>
<!-- dir_6091cbee3e268cbb682ad3d3f55cf8b5 -->
<g id="node6" class="node">
<title>dir_6091cbee3e268cbb682ad3d3f55cf8b5</title>
<g id="a_node6"><a xlink:href="dir_6091cbee3e268cbb682ad3d3f55cf8b5.html" target="_top" xlink:title="Graphics">
<polygon fill="#a2b4d6" stroke="#404040" points="144.5,-145 85.5,-145 85.5,-126 144.5,-126 144.5,-145"/>
<text text-anchor="middle" x="115" y="-133" font-family="Helvetica,sans-Serif" font-size="10.00">Graphics</text>
</a>
</g>
</g>
<!-- dir_9f04efef762572853abdf73f62bebfcc&#45;&gt;dir_6091cbee3e268cbb682ad3d3f55cf8b5 -->
<g id="edge4" class="edge">
<title>dir_9f04efef762572853abdf73f62bebfcc&#45;&gt;dir_6091cbee3e268cbb682ad3d3f55cf8b5</title>
<g id="a_edge4"><a xlink:href="dir_000030_000013.html" target="_top">
<path fill="none" stroke="#63b8ff" d="M128.99,-292.89C109.16,-286.69 84.32,-275.25 72,-255 54.9,-226.9 59.67,-211.49 72,-181 76.69,-169.41 86,-159.16 94.76,-151.43"/>
<polygon fill="#63b8ff" stroke="#63b8ff" points="97,-154.12 102.51,-145.07 92.56,-148.71 97,-154.12"/>
</a>
</g>
<g id="a_edge4&#45;headlabel"><a xlink:href="dir_000030_000013.html" target="_top" xlink:title="19">
<text text-anchor="middle" x="96.02" y="-156.1" font-family="Helvetica,sans-Serif" font-size="10.00" fill="#63b8ff">19</text>
</a>
</g>
</g>
<!-- dir_07f2be210ff6c371c35315ee7129d1a6 -->
<g id="node7" class="node">
<title>dir_07f2be210ff6c371c35315ee7129d1a6</title>
<g id="a_node7"><a xlink:href="dir_07f2be210ff6c371c35315ee7129d1a6.html" target="_top" xlink:title="Platform">
<polygon fill="#a2b4d6" stroke="#404040" points="176.5,-90 117.5,-90 117.5,-71 176.5,-71 176.5,-90"/>
<text text-anchor="middle" x="147" y="-78" font-family="Helvetica,sans-Serif" font-size="10.00">Platform</text>
</a>
</g>
</g>
<!-- dir_9f04efef762572853abdf73f62bebfcc&#45;&gt;dir_07f2be210ff6c371c35315ee7129d1a6 -->
<g id="edge1" class="edge">
<title>dir_9f04efef762572853abdf73f62bebfcc&#45;&gt;dir_07f2be210ff6c371c35315ee7129d1a6</title>
<g id="a_edge1"><a xlink:href="dir_000030_000025.html" target="_top">
<path fill="none" stroke="#63b8ff" d="M128.85,-294.94C105.8,-289.64 75.08,-278.41 60,-255 28.71,-206.43 41.56,-172.39 76,-126 86.07,-112.43 101.63,-102.01 115.61,-94.68"/>
<polygon fill="#63b8ff" stroke="#63b8ff" points="117.52,-97.64 124.96,-90.09 114.44,-91.36 117.52,-97.64"/>
</a>
</g>
<g id="a_edge1&#45;headlabel"><a xlink:href="dir_000030_000025.html" target="_top" xlink:title="2">
<text text-anchor="middle" x="115.55" y="-99.27" font-family="Helvetica,sans-Serif" font-size="10.00" fill="#63b8ff">2</text>
</a>
</g>
</g>
<!-- dir_68e5ee02315a150ea198303cea974c1f -->
<g id="node4" class="node">
<title>dir_68e5ee02315a150ea198303cea974c1f</title>
<g id="a_node4"><a xlink:href="dir_68e5ee02315a150ea198303cea974c1f.html" target="_top" xlink:title="Components">
<polygon fill="#a2b4d6" stroke="#404040" points="274,-200 196,-200 196,-181 274,-181 274,-200"/>
<text text-anchor="middle" x="235" y="-188" font-family="Helvetica,sans-Serif" font-size="10.00">Components</text>
</a>
</g>
</g>
<!-- dir_68e5ee02315a150ea198303cea974c1f&#45;&gt;dir_580d866cebc144d44931193ef5e2059b -->
<g id="edge7" class="edge">
<title>dir_68e5ee02315a150ea198303cea974c1f&#45;&gt;dir_580d866cebc144d44931193ef5e2059b</title>
<g id="a_edge7"><a xlink:href="dir_000001_000003.html" target="_top">
<path fill="none" stroke="#63b8ff" d="M235.5,-180.97C235.99,-172.02 236.72,-157.53 237,-145 237.19,-136.56 238.64,-134.28 237,-126 231.04,-95.88 215.83,-63.42 205.71,-44.04"/>
<polygon fill="#63b8ff" stroke="#63b8ff" points="208.77,-42.34 200.95,-35.19 202.6,-45.65 208.77,-42.34"/>
</a>
</g>
<g id="a_edge7&#45;headlabel"><a xlink:href="dir_000001_000003.html" target="_top" xlink:title="7">
<text text-anchor="middle" x="212.97" y="-41.67" font-family="Helvetica,sans-Serif" font-size="10.00" fill="#63b8ff">7</text>
</a>
</g>
</g>
<!-- dir_68e5ee02315a150ea198303cea974c1f&#45;&gt;dir_5e12f0ed66b5e5f61b7b40f53564b633 -->
<g id="edge8" class="edge">
<title>dir_68e5ee02315a150ea198303cea974c1f&#45;&gt;dir_5e12f0ed66b5e5f61b7b40f53564b633</title>
<g id="a_edge8"><a xlink:href="dir_000001_000008.html" target="_top">
<path fill="none" stroke="#63b8ff" d="M232.46,-200.17C227.23,-207.98 217.24,-219.64 207.9,-229.04"/>
<polygon fill="#63b8ff" stroke="#63b8ff" points="205.46,-226.54 200.67,-235.98 210.31,-231.59 205.46,-226.54"/>
</a>
</g>
<g id="a_edge8&#45;headlabel"><a xlink:href="dir_000001_000008.html" target="_top" xlink:title="2">
<text text-anchor="middle" x="206.09" y="-219.5" font-family="Helvetica,sans-Serif" font-size="10.00" fill="#63b8ff">2</text>
</a>
</g>
</g>
<!-- dir_68e5ee02315a150ea198303cea974c1f&#45;&gt;dir_6091cbee3e268cbb682ad3d3f55cf8b5 -->
<g id="edge9" class="edge">
<title>dir_68e5ee02315a150ea198303cea974c1f&#45;&gt;dir_6091cbee3e268cbb682ad3d3f55cf8b5</title>
<g id="a_edge9"><a xlink:href="dir_000001_000013.html" target="_top">
<path fill="none" stroke="#63b8ff" d="M215.72,-180.98C196.33,-172.42 166.19,-159.11 143.93,-149.28"/>
<polygon fill="#63b8ff" stroke="#63b8ff" points="145.19,-146.01 134.63,-145.17 142.36,-152.41 145.19,-146.01"/>
</a>
</g>
<g id="a_edge9&#45;headlabel"><a xlink:href="dir_000001_000013.html" target="_top" xlink:title="2">
<text text-anchor="middle" x="149.63" y="-142.36" font-family="Helvetica,sans-Serif" font-size="10.00" fill="#63b8ff">2</text>
</a>
</g>
</g>
<!-- dir_177deec2380c9242a3b71e61387bd4c4 -->
<g id="node8" class="node">
<title>dir_177deec2380c9242a3b71e61387bd4c4</title>
<g id="a_node8"><a xlink:href="dir_177deec2380c9242a3b71e61387bd4c4.html" target="_top" xlink:title="Reflection">
<polygon fill="#a2b4d6" stroke="#404040" points="227.5,-145 162.5,-145 162.5,-126 227.5,-126 227.5,-145"/>
<text text-anchor="middle" x="195" y="-133" font-family="Helvetica,sans-Serif" font-size="10.00">Reflection</text>
</a>
</g>
</g>
<!-- dir_68e5ee02315a150ea198303cea974c1f&#45;&gt;dir_177deec2380c9242a3b71e61387bd4c4 -->
<g id="edge6" class="edge">
<title>dir_68e5ee02315a150ea198303cea974c1f&#45;&gt;dir_177deec2380c9242a3b71e61387bd4c4</title>
<g id="a_edge6"><a xlink:href="dir_000001_000027.html" target="_top">
<path fill="none" stroke="#63b8ff" d="M228.39,-180.75C222.74,-173.26 214.46,-162.28 207.55,-153.13"/>
<polygon fill="#63b8ff" stroke="#63b8ff" points="210.3,-150.96 201.48,-145.09 204.71,-155.18 210.3,-150.96"/>
</a>
</g>
<g id="a_edge6&#45;headlabel"><a xlink:href="dir_000001_000027.html" target="_top" xlink:title="7">
<text text-anchor="middle" x="214.73" y="-149.62" font-family="Helvetica,sans-Serif" font-size="10.00" fill="#63b8ff">7</text>
</a>
</g>
</g>
<!-- dir_5e12f0ed66b5e5f61b7b40f53564b633&#45;&gt;dir_580d866cebc144d44931193ef5e2059b -->
<g id="edge10" class="edge">
<title>dir_5e12f0ed66b5e5f61b7b40f53564b633&#45;&gt;dir_580d866cebc144d44931193ef5e2059b</title>
<g id="a_edge10"><a xlink:href="dir_000008_000003.html" target="_top">
<path fill="none" stroke="#63b8ff" d="M170.37,-241.81C147.48,-237.34 108,-226.15 87,-200 66.18,-174.07 69.98,-158.7 76,-126 81.42,-96.53 78.81,-84.18 100,-63 117.8,-45.21 145.16,-35.94 166.12,-31.21"/>
<polygon fill="#63b8ff" stroke="#63b8ff" points="167.02,-34.59 176.12,-29.17 165.62,-27.73 167.02,-34.59"/>
</a>
</g>
<g id="a_edge10&#45;headlabel"><a xlink:href="dir_000008_000003.html" target="_top" xlink:title="7">
<text text-anchor="middle" x="164.06" y="-35.59" font-family="Helvetica,sans-Serif" font-size="10.00" fill="#63b8ff">7</text>
</a>
</g>
</g>
<!-- dir_5e12f0ed66b5e5f61b7b40f53564b633&#45;&gt;dir_68e5ee02315a150ea198303cea974c1f -->
<g id="edge11" class="edge">
<title>dir_5e12f0ed66b5e5f61b7b40f53564b633&#45;&gt;dir_68e5ee02315a150ea198303cea974c1f</title>
<g id="a_edge11"><a xlink:href="dir_000008_000001.html" target="_top">
<path fill="none" stroke="#63b8ff" d="M190.59,-235.75C195.78,-228.03 205.56,-216.6 214.77,-207.28"/>
<polygon fill="#63b8ff" stroke="#63b8ff" points="217.47,-209.54 222.25,-200.09 212.62,-204.5 217.47,-209.54"/>
</a>
</g>
<g id="a_edge11&#45;headlabel"><a xlink:href="dir_000008_000001.html" target="_top" xlink:title="6">
<text text-anchor="middle" x="216.85" y="-211.58" font-family="Helvetica,sans-Serif" font-size="10.00" fill="#63b8ff">6</text>
</a>
</g>
</g>
<!-- dir_6091cbee3e268cbb682ad3d3f55cf8b5&#45;&gt;dir_580d866cebc144d44931193ef5e2059b -->
<g id="edge13" class="edge">
<title>dir_6091cbee3e268cbb682ad3d3f55cf8b5&#45;&gt;dir_580d866cebc144d44931193ef5e2059b</title>
<g id="a_edge13"><a xlink:href="dir_000013_000003.html" target="_top">
<path fill="none" stroke="#63b8ff" d="M138.27,-125.99C154.31,-118.88 174.7,-107.12 186,-90 194.74,-76.76 196.86,-58.64 197.01,-45.14"/>
<polygon fill="#63b8ff" stroke="#63b8ff" points="200.51,-45.02 196.78,-35.1 193.51,-45.18 200.51,-45.02"/>
</a>
</g>
<g id="a_edge13&#45;headlabel"><a xlink:href="dir_000013_000003.html" target="_top" xlink:title="13">
<text text-anchor="middle" x="203.43" y="-46.05" font-family="Helvetica,sans-Serif" font-size="10.00" fill="#63b8ff">13</text>
</a>
</g>
</g>
<!-- dir_6091cbee3e268cbb682ad3d3f55cf8b5&#45;&gt;dir_07f2be210ff6c371c35315ee7129d1a6 -->
<g id="edge12" class="edge">
<title>dir_6091cbee3e268cbb682ad3d3f55cf8b5&#45;&gt;dir_07f2be210ff6c371c35315ee7129d1a6</title>
<g id="a_edge12"><a xlink:href="dir_000013_000025.html" target="_top">
<path fill="none" stroke="#63b8ff" d="M120.28,-125.75C124.71,-118.42 131.16,-107.73 136.62,-98.7"/>
<polygon fill="#63b8ff" stroke="#63b8ff" points="139.64,-100.46 141.81,-90.09 133.65,-96.84 139.64,-100.46"/>
</a>
</g>
<g id="a_edge12&#45;headlabel"><a xlink:href="dir_000013_000025.html" target="_top" xlink:title="1">
<text text-anchor="middle" x="140.21" y="-102.5" font-family="Helvetica,sans-Serif" font-size="10.00" fill="#63b8ff">1</text>
</a>
</g>
</g>
<!-- dir_07f2be210ff6c371c35315ee7129d1a6&#45;&gt;dir_580d866cebc144d44931193ef5e2059b -->
<g id="edge14" class="edge">
<title>dir_07f2be210ff6c371c35315ee7129d1a6&#45;&gt;dir_580d866cebc144d44931193ef5e2059b</title>
<g id="a_edge14"><a xlink:href="dir_000025_000003.html" target="_top">
<path fill="none" stroke="#63b8ff" d="M155.09,-70.75C162.16,-63.11 172.59,-51.82 181.15,-42.56"/>
<polygon fill="#63b8ff" stroke="#63b8ff" points="183.84,-44.81 188.06,-35.09 178.7,-40.06 183.84,-44.81"/>
</a>
</g>
<g id="a_edge14&#45;headlabel"><a xlink:href="dir_000025_000003.html" target="_top" xlink:title="2">
<text text-anchor="middle" x="183.49" y="-46.87" font-family="Helvetica,sans-Serif" font-size="10.00" fill="#63b8ff">2</text>
</a>
</g>
</g>
<!-- dir_177deec2380c9242a3b71e61387bd4c4&#45;&gt;dir_580d866cebc144d44931193ef5e2059b -->
<g id="edge15" class="edge">
<title>dir_177deec2380c9242a3b71e61387bd4c4&#45;&gt;dir_580d866cebc144d44931193ef5e2059b</title>
<g id="a_edge15"><a xlink:href="dir_000027_000003.html" target="_top">
<path fill="none" stroke="#63b8ff" d="M162.2,-126.88C142.8,-120.51 119.77,-109.25 108,-90 101.74,-79.76 101.34,-72.98 108,-63 120.91,-43.67 146.16,-34.57 166.31,-30.28"/>
<polygon fill="#63b8ff" stroke="#63b8ff" points="167.09,-33.7 176.29,-28.45 165.83,-26.81 167.09,-33.7"/>
</a>
</g>
<g id="a_edge15&#45;headlabel"><a xlink:href="dir_000027_000003.html" target="_top" xlink:title="1">
<text text-anchor="middle" x="164.06" y="-34.64" font-family="Helvetica,sans-Serif" font-size="10.00" fill="#63b8ff">1</text>
</a>
</g>
</g>
<!-- dir_177deec2380c9242a3b71e61387bd4c4&#45;&gt;dir_c6cb6fb3292d721ac39edcf45c3f2a55 -->
<g id="edge17" class="edge">
<title>dir_177deec2380c9242a3b71e61387bd4c4&#45;&gt;dir_c6cb6fb3292d721ac39edcf45c3f2a55</title>
<g id="a_edge17"><a xlink:href="dir_000027_000009.html" target="_top">
<path fill="none" stroke="#63b8ff" d="M213.96,-125.98C233.03,-117.42 262.66,-104.11 284.55,-94.28"/>
<polygon fill="#63b8ff" stroke="#63b8ff" points="286.01,-97.46 293.7,-90.17 283.14,-91.07 286.01,-97.46"/>
</a>
</g>
<g id="a_edge17&#45;headlabel"><a xlink:href="dir_000027_000009.html" target="_top" xlink:title="1">
<text text-anchor="middle" x="283.89" y="-99.02" font-family="Helvetica,sans-Serif" font-size="10.00" fill="#63b8ff">1</text>
</a>
</g>
</g>
<!-- dir_177deec2380c9242a3b71e61387bd4c4&#45;&gt;dir_5e12f0ed66b5e5f61b7b40f53564b633 -->
<g id="edge16" class="edge">
<title>dir_177deec2380c9242a3b71e61387bd4c4&#45;&gt;dir_5e12f0ed66b5e5f61b7b40f53564b633</title>
<g id="a_edge16"><a xlink:href="dir_000027_000008.html" target="_top">
<path fill="none" stroke="#63b8ff" d="M192.94,-145.3C190.96,-154.23 188.12,-168.49 187,-181 185.67,-195.97 186.04,-212.99 186.67,-225.65"/>
<polygon fill="#63b8ff" stroke="#63b8ff" points="183.19,-226.08 187.29,-235.85 190.18,-225.66 183.19,-226.08"/>
</a>
</g>
<g id="a_edge16&#45;headlabel"><a xlink:href="dir_000027_000008.html" target="_top" xlink:title="2">
<text text-anchor="middle" x="180.14" y="-220.17" font-family="Helvetica,sans-Serif" font-size="10.00" fill="#63b8ff">2</text>
</a>
</g>
</g>
<!-- dir_64427cf10fdcbb9dc3445223b1ad6a9b -->
<g id="node9" class="node">
<title>dir_64427cf10fdcbb9dc3445223b1ad6a9b</title>
<g id="a_node9"><a xlink:href="dir_64427cf10fdcbb9dc3445223b1ad6a9b.html" target="_top" xlink:title="Resource">
<polygon fill="#a2b4d6" stroke="#404040" points="158,-200 96,-200 96,-181 158,-181 158,-200"/>
<text text-anchor="middle" x="127" y="-188" font-family="Helvetica,sans-Serif" font-size="10.00">Resource</text>
</a>
</g>
</g>
<!-- dir_64427cf10fdcbb9dc3445223b1ad6a9b&#45;&gt;dir_6091cbee3e268cbb682ad3d3f55cf8b5 -->
<g id="edge18" class="edge">
<title>dir_64427cf10fdcbb9dc3445223b1ad6a9b&#45;&gt;dir_6091cbee3e268cbb682ad3d3f55cf8b5</title>
<g id="a_edge18"><a xlink:href="dir_000028_000013.html" target="_top">
<path fill="none" stroke="#63b8ff" d="M125.02,-180.75C123.43,-173.72 121.14,-163.62 119.15,-154.84"/>
<polygon fill="#63b8ff" stroke="#63b8ff" points="122.57,-154.07 116.94,-145.09 115.74,-155.62 122.57,-154.07"/>
</a>
</g>
<g id="a_edge18&#45;headlabel"><a xlink:href="dir_000028_000013.html" target="_top" xlink:title="4">
<text text-anchor="middle" x="126.13" y="-154.45" font-family="Helvetica,sans-Serif" font-size="10.00" fill="#63b8ff">4</text>
</a>
</g>
</g>
<!-- dir_1f409e23445615a7676ed89cd8cccbf4 -->
<g id="node10" class="node">
<title>dir_1f409e23445615a7676ed89cd8cccbf4</title>
<g id="a_node10"><a xlink:href="dir_1f409e23445615a7676ed89cd8cccbf4.html" target="_top" xlink:title="Systems">
<polygon fill="#a2b4d6" stroke="#404040" points="264.5,-310 205.5,-310 205.5,-291 264.5,-291 264.5,-310"/>
<text text-anchor="middle" x="235" y="-298" font-family="Helvetica,sans-Serif" font-size="10.00">Systems</text>
</a>
</g>
</g>
<!-- dir_1f409e23445615a7676ed89cd8cccbf4&#45;&gt;dir_580d866cebc144d44931193ef5e2059b -->
<g id="edge19" class="edge">
<title>dir_1f409e23445615a7676ed89cd8cccbf4&#45;&gt;dir_580d866cebc144d44931193ef5e2059b</title>
<g id="a_edge19"><a xlink:href="dir_000033_000003.html" target="_top">
<path fill="none" stroke="#63b8ff" d="M264.69,-291.21C305.79,-277.7 375,-246.76 375,-191.5 375,-191.5 375,-191.5 375,-134.5 375,-101.62 379.66,-85.83 356,-63 337.61,-45.25 266.43,-34.46 225.47,-29.58"/>
<polygon fill="#63b8ff" stroke="#63b8ff" points="225.85,-26.1 215.52,-28.44 225.06,-33.06 225.85,-26.1"/>
</a>
</g>
<g id="a_edge19&#45;headlabel"><a xlink:href="dir_000033_000003.html" target="_top" xlink:title="3">
<text text-anchor="middle" x="229.75" y="-21.19" font-family="Helvetica,sans-Serif" font-size="10.00" fill="#63b8ff">3</text>
</a>
</g>
</g>
<!-- dir_1f409e23445615a7676ed89cd8cccbf4&#45;&gt;dir_68e5ee02315a150ea198303cea974c1f -->
<g id="edge22" class="edge">
<title>dir_1f409e23445615a7676ed89cd8cccbf4&#45;&gt;dir_68e5ee02315a150ea198303cea974c1f</title>
<g id="a_edge22"><a xlink:href="dir_000033_000001.html" target="_top">
<path fill="none" stroke="#63b8ff" d="M235,-290.66C235,-273.17 235,-233.8 235,-210.27"/>
<polygon fill="#63b8ff" stroke="#63b8ff" points="238.5,-210.16 235,-200.16 231.5,-210.16 238.5,-210.16"/>
</a>
</g>
<g id="a_edge22&#45;headlabel"><a xlink:href="dir_000033_000001.html" target="_top" xlink:title="15">
<text text-anchor="middle" x="241.34" y="-211.25" font-family="Helvetica,sans-Serif" font-size="10.00" fill="#63b8ff">15</text>
</a>
</g>
</g>
<!-- dir_1f409e23445615a7676ed89cd8cccbf4&#45;&gt;dir_5e12f0ed66b5e5f61b7b40f53564b633 -->
<g id="edge20" class="edge">
<title>dir_1f409e23445615a7676ed89cd8cccbf4&#45;&gt;dir_5e12f0ed66b5e5f61b7b40f53564b633</title>
<g id="a_edge20"><a xlink:href="dir_000033_000008.html" target="_top">
<path fill="none" stroke="#63b8ff" d="M227.24,-290.75C220.53,-283.18 210.66,-272.05 202.49,-262.84"/>
<polygon fill="#63b8ff" stroke="#63b8ff" points="204.87,-260.25 195.62,-255.09 199.63,-264.89 204.87,-260.25"/>
</a>
</g>
<g id="a_edge20&#45;headlabel"><a xlink:href="dir_000033_000008.html" target="_top" xlink:title="7">
<text text-anchor="middle" x="209.38" y="-258.55" font-family="Helvetica,sans-Serif" font-size="10.00" fill="#63b8ff">7</text>
</a>
</g>
</g>
<!-- dir_1f409e23445615a7676ed89cd8cccbf4&#45;&gt;dir_6091cbee3e268cbb682ad3d3f55cf8b5 -->
<g id="edge21" class="edge">
<title>dir_1f409e23445615a7676ed89cd8cccbf4&#45;&gt;dir_6091cbee3e268cbb682ad3d3f55cf8b5</title>
<g id="a_edge21"><a xlink:href="dir_000033_000013.html" target="_top">
<path fill="none" stroke="#63b8ff" d="M208.45,-290.91C172.94,-277.78 111.61,-248.96 87,-200 79.1,-184.28 89.32,-165.84 99.56,-152.89"/>
<polygon fill="#63b8ff" stroke="#63b8ff" points="102.25,-155.13 106.1,-145.26 96.94,-150.57 102.25,-155.13"/>
</a>
</g>
<g id="a_edge21&#45;headlabel"><a xlink:href="dir_000033_000013.html" target="_top" xlink:title="1">
<text text-anchor="middle" x="102.07" y="-157.2" font-family="Helvetica,sans-Serif" font-size="10.00" fill="#63b8ff">1</text>
</a>
</g>
</g>
</g>
</svg>
</svg>

<style type='text/css'>
<![CDATA[
[data-mouse-over-selected='false'] { opacity: 0.7; }
[data-mouse-over-selected='true']  { opacity: 1.0; }
]]>
</style>
<script type="application/ecmascript"><![CDATA[
document.addEventListener('DOMContentLoaded', (event) => {
  highlightEdges();
  highlightAdjacentNodes();
});
]]></script>
</svg>
