<?xml version="1.0" encoding="UTF-8" standalone="no"?>
<!DOCTYPE svg PUBLIC "-//W3C//DTD SVG 1.1//EN"
 "http://www.w3.org/Graphics/SVG/1.1/DTD/svg11.dtd">
<!-- Generated by graphviz version 2.43.0 (0)
 -->
<!-- Title: Engine/Source/Runtime Pages: 1 -->
<svg width="345pt" height="361pt"
 viewBox="0.00 0.00 345.00 361.00" xmlns="http://www.w3.org/2000/svg" xmlns:xlink="http://www.w3.org/1999/xlink">

<svg id="main" version="1.1" xmlns="http://www.w3.org/2000/svg" xmlns:xlink="http://www.w3.org/1999/xlink" xml:space="preserve">

<style type="text/css"><![CDATA[
.node, .edge {opacity: 0.7;}
.node.selected, .edge.selected {opacity: 1;}
.edge:hover path { stroke: red; }
.edge:hover polygon { stroke: red; fill: red; }
]]></style>
<script type="application/ecmascript" xlink:href="svg.min.js"/>
<svg id="graph" class="graph">
<g id="graph0" class="graph" transform="scale(1 1) rotate(0) translate(4 357)">
<title>Engine/Source/Runtime</title>
<g id="clust1" class="cluster">
<title>clusterdir_9579d1ecb2c7bf48cbe1049c41745cb4</title>
<g id="a_clust1"><a xlink:href="dir_9579d1ecb2c7bf48cbe1049c41745cb4.html" target="_top" xlink:title="Source">
<polygon fill="#edf0f7" stroke="#7f7f7f" stroke-dasharray="5,2" points="8,-8 8,-345 329,-345 329,-8 8,-8"/>
<text text-anchor="middle" x="168.5" y="-333" font-family="Helvetica,sans-Serif" font-size="10.00">Source</text>
</a>
</g>
</g>
<g id="clust2" class="cluster">
<title>clusterdir_9f04efef762572853abdf73f62bebfcc</title>
<g id="a_clust2"><a xlink:href="dir_9f04efef762572853abdf73f62bebfcc.html" target="_top">
<polygon fill="#edf0f7" stroke="#404040" stroke-width="2" points="28,-63 28,-318 207,-318 207,-63 28,-63"/>
</a>
</g>
</g>
<!-- dir_580d866cebc144d44931193ef5e2059b -->
<g id="node1" class="node">
<title>dir_580d866cebc144d44931193ef5e2059b</title>
<g id="a_node1"><a xlink:href="dir_580d866cebc144d44931193ef5e2059b.html" target="_top" xlink:title="Core">
<polygon fill="#a2b4d6" stroke="red" points="212.5,-35 173.5,-35 173.5,-16 212.5,-16 212.5,-35"/>
<text text-anchor="middle" x="193" y="-23" font-family="Helvetica,sans-Serif" font-size="10.00">Core</text>
</a>
</g>
</g>
<!-- dir_c6cb6fb3292d721ac39edcf45c3f2a55 -->
<g id="node2" class="node">
<title>dir_c6cb6fb3292d721ac39edcf45c3f2a55</title>
<g id="a_node2"><a xlink:href="dir_c6cb6fb3292d721ac39edcf45c3f2a55.html" target="_top" xlink:title="Editor">
<polygon fill="#a2b4d6" stroke="red" points="260.5,-90 215.5,-90 215.5,-71 260.5,-71 260.5,-90"/>
<text text-anchor="middle" x="238" y="-78" font-family="Helvetica,sans-Serif" font-size="10.00">Editor</text>
</a>
</g>
</g>
<!-- dir_9f04efef762572853abdf73f62bebfcc -->
<g id="node3" class="node">
<title>dir_9f04efef762572853abdf73f62bebfcc</title>
<text text-anchor="middle" x="92" y="-298" font-family="Helvetica,sans-Serif" font-size="10.00">Runtime</text>
</g>
<!-- dir_9f04efef762572853abdf73f62bebfcc&#45;&gt;dir_580d866cebc144d44931193ef5e2059b -->
<g id="edge2" class="edge">
<title>dir_9f04efef762572853abdf73f62bebfcc&#45;&gt;dir_580d866cebc144d44931193ef5e2059b</title>
<g id="a_edge2"><a xlink:href="dir_000026_000002.html" target="_top">
<path fill="none" stroke="#63b8ff" d="M121.36,-290.92C178.7,-273.28 300,-231.27 300,-191.5 300,-191.5 300,-191.5 300,-134.5 300,-101.12 299.41,-87.74 277,-63 262.74,-47.26 240.51,-38.01 222.49,-32.76"/>
<polygon fill="#63b8ff" stroke="#63b8ff" points="223.29,-29.36 212.73,-30.18 221.5,-36.12 223.29,-29.36"/>
</a>
</g>
<g id="a_edge2&#45;headlabel"><a xlink:href="dir_000026_000002.html" target="_top" xlink:title="36">
<text text-anchor="middle" x="227.49" y="-25.03" font-family="Helvetica,sans-Serif" font-size="10.00" fill="#63b8ff">36</text>
</a>
</g>
</g>
<!-- dir_9f04efef762572853abdf73f62bebfcc&#45;&gt;dir_c6cb6fb3292d721ac39edcf45c3f2a55 -->
<g id="edge5" class="edge">
<title>dir_9f04efef762572853abdf73f62bebfcc&#45;&gt;dir_c6cb6fb3292d721ac39edcf45c3f2a55</title>
<g id="a_edge5"><a xlink:href="dir_000026_000007.html" target="_top">
<path fill="none" stroke="#63b8ff" d="M105.11,-290.92C117.27,-282.59 135.47,-269.16 149,-255 193.94,-207.94 221.56,-133.75 232.54,-99.69"/>
<polygon fill="#63b8ff" stroke="#63b8ff" points="235.89,-100.72 235.53,-90.13 229.21,-98.63 235.89,-100.72"/>
</a>
</g>
<g id="a_edge5&#45;headlabel"><a xlink:href="dir_000026_000007.html" target="_top" xlink:title="3">
<text text-anchor="middle" x="237.53" y="-102.49" font-family="Helvetica,sans-Serif" font-size="10.00" fill="#63b8ff">3</text>
</a>
</g>
</g>
<!-- dir_5e12f0ed66b5e5f61b7b40f53564b633 -->
<g id="node5" class="node">
<title>dir_5e12f0ed66b5e5f61b7b40f53564b633</title>
<g id="a_node5"><a xlink:href="dir_5e12f0ed66b5e5f61b7b40f53564b633.html" target="_top" xlink:title="ECS">
<polygon fill="#a2b4d6" stroke="#404040" points="140.5,-255 105.5,-255 105.5,-236 140.5,-236 140.5,-255"/>
<text text-anchor="middle" x="123" y="-243" font-family="Helvetica,sans-Serif" font-size="10.00">ECS</text>
</a>
</g>
</g>
<!-- dir_9f04efef762572853abdf73f62bebfcc&#45;&gt;dir_5e12f0ed66b5e5f61b7b40f53564b633 -->
<g id="edge3" class="edge">
<title>dir_9f04efef762572853abdf73f62bebfcc&#45;&gt;dir_5e12f0ed66b5e5f61b7b40f53564b633</title>
<g id="a_edge3"><a xlink:href="dir_000026_000006.html" target="_top">
<path fill="none" stroke="#63b8ff" d="M97.12,-290.75C101.36,-283.49 107.53,-272.95 112.78,-263.98"/>
<polygon fill="#63b8ff" stroke="#63b8ff" points="115.95,-265.49 117.98,-255.09 109.91,-261.95 115.95,-265.49"/>
</a>
</g>
<g id="a_edge3&#45;headlabel"><a xlink:href="dir_000026_000006.html" target="_top" xlink:title="13">
<text text-anchor="middle" x="116.58" y="-267.52" font-family="Helvetica,sans-Serif" font-size="10.00" fill="#63b8ff">13</text>
</a>
</g>
</g>
<!-- dir_6091cbee3e268cbb682ad3d3f55cf8b5 -->
<g id="node6" class="node">
<title>dir_6091cbee3e268cbb682ad3d3f55cf8b5</title>
<g id="a_node6"><a xlink:href="dir_6091cbee3e268cbb682ad3d3f55cf8b5.html" target="_top" xlink:title="Graphics">
<polygon fill="#a2b4d6" stroke="#404040" points="198.5,-145 139.5,-145 139.5,-126 198.5,-126 198.5,-145"/>
<text text-anchor="middle" x="169" y="-133" font-family="Helvetica,sans-Serif" font-size="10.00">Graphics</text>
</a>
</g>
</g>
<!-- dir_9f04efef762572853abdf73f62bebfcc&#45;&gt;dir_6091cbee3e268cbb682ad3d3f55cf8b5 -->
<g id="edge4" class="edge">
<title>dir_9f04efef762572853abdf73f62bebfcc&#45;&gt;dir_6091cbee3e268cbb682ad3d3f55cf8b5</title>
<g id="a_edge4"><a xlink:href="dir_000026_000011.html" target="_top">
<path fill="none" stroke="#63b8ff" d="M89.23,-290.71C83.24,-269.97 71.23,-216.99 92,-181 100.42,-166.41 115.65,-156.17 130.35,-149.23"/>
<polygon fill="#63b8ff" stroke="#63b8ff" points="132.07,-152.3 139.86,-145.13 129.29,-145.87 132.07,-152.3"/>
</a>
</g>
<g id="a_edge4&#45;headlabel"><a xlink:href="dir_000026_000011.html" target="_top" xlink:title="14">
<text text-anchor="middle" x="129.89" y="-153.83" font-family="Helvetica,sans-Serif" font-size="10.00" fill="#63b8ff">14</text>
</a>
</g>
</g>
<!-- dir_07f2be210ff6c371c35315ee7129d1a6 -->
<g id="node7" class="node">
<title>dir_07f2be210ff6c371c35315ee7129d1a6</title>
<g id="a_node7"><a xlink:href="dir_07f2be210ff6c371c35315ee7129d1a6.html" target="_top" xlink:title="Platform">
<polygon fill="#a2b4d6" stroke="#404040" points="173.5,-90 114.5,-90 114.5,-71 173.5,-71 173.5,-90"/>
<text text-anchor="middle" x="144" y="-78" font-family="Helvetica,sans-Serif" font-size="10.00">Platform</text>
</a>
</g>
</g>
<!-- dir_9f04efef762572853abdf73f62bebfcc&#45;&gt;dir_07f2be210ff6c371c35315ee7129d1a6 -->
<g id="edge1" class="edge">
<title>dir_9f04efef762572853abdf73f62bebfcc&#45;&gt;dir_07f2be210ff6c371c35315ee7129d1a6</title>
<g id="a_edge1"><a xlink:href="dir_000026_000023.html" target="_top">
<path fill="none" stroke="#63b8ff" d="M85.31,-290.81C65.62,-264.07 11.38,-181.53 47,-126 54.11,-114.92 83.22,-102.42 107.72,-93.5"/>
<polygon fill="#63b8ff" stroke="#63b8ff" points="108.91,-96.79 117.17,-90.15 106.57,-90.2 108.91,-96.79"/>
</a>
</g>
<g id="a_edge1&#45;headlabel"><a xlink:href="dir_000026_000023.html" target="_top" xlink:title="2">
<text text-anchor="middle" x="106.48" y="-98.17" font-family="Helvetica,sans-Serif" font-size="10.00" fill="#63b8ff">2</text>
</a>
</g>
</g>
<!-- dir_68e5ee02315a150ea198303cea974c1f -->
<g id="node4" class="node">
<title>dir_68e5ee02315a150ea198303cea974c1f</title>
<g id="a_node4"><a xlink:href="dir_68e5ee02315a150ea198303cea974c1f.html" target="_top" xlink:title="Components">
<polygon fill="#a2b4d6" stroke="#404040" points="179,-200 101,-200 101,-181 179,-181 179,-200"/>
<text text-anchor="middle" x="140" y="-188" font-family="Helvetica,sans-Serif" font-size="10.00">Components</text>
</a>
</g>
</g>
<!-- dir_68e5ee02315a150ea198303cea974c1f&#45;&gt;dir_580d866cebc144d44931193ef5e2059b -->
<g id="edge7" class="edge">
<title>dir_68e5ee02315a150ea198303cea974c1f&#45;&gt;dir_580d866cebc144d44931193ef5e2059b</title>
<g id="a_edge7"><a xlink:href="dir_000000_000002.html" target="_top">
<path fill="none" stroke="#63b8ff" d="M161.5,-180.96C192.65,-167.23 248.9,-136.92 270,-90 274.92,-79.06 276.42,-73.14 270,-63 259.65,-46.64 239.77,-37.47 222.8,-32.41"/>
<polygon fill="#63b8ff" stroke="#63b8ff" points="223.28,-28.92 212.72,-29.77 221.5,-35.69 223.28,-28.92"/>
</a>
</g>
<g id="a_edge7&#45;headlabel"><a xlink:href="dir_000000_000002.html" target="_top" xlink:title="7">
<text text-anchor="middle" x="227.48" y="-24.59" font-family="Helvetica,sans-Serif" font-size="10.00" fill="#63b8ff">7</text>
</a>
</g>
</g>
<!-- dir_68e5ee02315a150ea198303cea974c1f&#45;&gt;dir_5e12f0ed66b5e5f61b7b40f53564b633 -->
<g id="edge8" class="edge">
<title>dir_68e5ee02315a150ea198303cea974c1f&#45;&gt;dir_5e12f0ed66b5e5f61b7b40f53564b633</title>
<g id="a_edge8"><a xlink:href="dir_000000_000006.html" target="_top">
<path fill="none" stroke="#63b8ff" d="M142.38,-200.09C141.65,-207.22 138.75,-217.6 135.19,-226.53"/>
<polygon fill="#63b8ff" stroke="#63b8ff" points="131.95,-225.2 130.97,-235.75 138.32,-228.11 131.95,-225.2"/>
</a>
</g>
<g id="a_edge8&#45;headlabel"><a xlink:href="dir_000000_000006.html" target="_top" xlink:title="2">
<text text-anchor="middle" x="130.87" y="-218.25" font-family="Helvetica,sans-Serif" font-size="10.00" fill="#63b8ff">2</text>
</a>
</g>
</g>
<!-- dir_68e5ee02315a150ea198303cea974c1f&#45;&gt;dir_6091cbee3e268cbb682ad3d3f55cf8b5 -->
<g id="edge9" class="edge">
<title>dir_68e5ee02315a150ea198303cea974c1f&#45;&gt;dir_6091cbee3e268cbb682ad3d3f55cf8b5</title>
<g id="a_edge9"><a xlink:href="dir_000000_000011.html" target="_top">
<path fill="none" stroke="#63b8ff" d="M144.79,-180.75C148.76,-173.49 154.53,-162.95 159.43,-153.98"/>
<polygon fill="#63b8ff" stroke="#63b8ff" points="162.57,-155.54 164.3,-145.09 156.43,-152.18 162.57,-155.54"/>
</a>
</g>
<g id="a_edge9&#45;headlabel"><a xlink:href="dir_000000_000011.html" target="_top" xlink:title="2">
<text text-anchor="middle" x="163.34" y="-157.56" font-family="Helvetica,sans-Serif" font-size="10.00" fill="#63b8ff">2</text>
</a>
</g>
</g>
<!-- dir_177deec2380c9242a3b71e61387bd4c4 -->
<g id="node8" class="node">
<title>dir_177deec2380c9242a3b71e61387bd4c4</title>
<g id="a_node8"><a xlink:href="dir_177deec2380c9242a3b71e61387bd4c4.html" target="_top" xlink:title="Reflection">
<polygon fill="#a2b4d6" stroke="#404040" points="121.5,-145 56.5,-145 56.5,-126 121.5,-126 121.5,-145"/>
<text text-anchor="middle" x="89" y="-133" font-family="Helvetica,sans-Serif" font-size="10.00">Reflection</text>
</a>
</g>
</g>
<!-- dir_68e5ee02315a150ea198303cea974c1f&#45;&gt;dir_177deec2380c9242a3b71e61387bd4c4 -->
<g id="edge6" class="edge">
<title>dir_68e5ee02315a150ea198303cea974c1f&#45;&gt;dir_177deec2380c9242a3b71e61387bd4c4</title>
<g id="a_edge6"><a xlink:href="dir_000000_000024.html" target="_top">
<path fill="none" stroke="#63b8ff" d="M131.58,-180.75C124.23,-173.11 113.37,-161.82 104.46,-152.56"/>
<polygon fill="#63b8ff" stroke="#63b8ff" points="106.72,-149.87 97.26,-145.09 101.68,-154.72 106.72,-149.87"/>
</a>
</g>
<g id="a_edge6&#45;headlabel"><a xlink:href="dir_000000_000024.html" target="_top" xlink:title="7">
<text text-anchor="middle" x="111.26" y="-147.99" font-family="Helvetica,sans-Serif" font-size="10.00" fill="#63b8ff">7</text>
</a>
</g>
</g>
<!-- dir_5e12f0ed66b5e5f61b7b40f53564b633&#45;&gt;dir_580d866cebc144d44931193ef5e2059b -->
<g id="edge10" class="edge">
<title>dir_5e12f0ed66b5e5f61b7b40f53564b633&#45;&gt;dir_580d866cebc144d44931193ef5e2059b</title>
<g id="a_edge10"><a xlink:href="dir_000006_000002.html" target="_top">
<path fill="none" stroke="#63b8ff" d="M110.53,-235.86C85.57,-217.41 33.05,-172.08 47,-126 56.75,-93.79 62.42,-83.64 89,-63 110.79,-46.08 141.02,-36.64 163.28,-31.63"/>
<polygon fill="#63b8ff" stroke="#63b8ff" points="164.11,-35.03 173.18,-29.56 162.68,-28.17 164.11,-35.03"/>
</a>
</g>
<g id="a_edge10&#45;headlabel"><a xlink:href="dir_000006_000002.html" target="_top" xlink:title="7">
<text text-anchor="middle" x="161.17" y="-36.04" font-family="Helvetica,sans-Serif" font-size="10.00" fill="#63b8ff">7</text>
</a>
</g>
</g>
<!-- dir_5e12f0ed66b5e5f61b7b40f53564b633&#45;&gt;dir_68e5ee02315a150ea198303cea974c1f -->
<g id="edge11" class="edge">
<title>dir_5e12f0ed66b5e5f61b7b40f53564b633&#45;&gt;dir_68e5ee02315a150ea198303cea974c1f</title>
<g id="a_edge11"><a xlink:href="dir_000006_000000.html" target="_top">
<path fill="none" stroke="#63b8ff" d="M120.64,-235.75C121.4,-228.57 124.32,-218.18 127.89,-209.27"/>
<polygon fill="#63b8ff" stroke="#63b8ff" points="131.11,-210.64 132.11,-200.09 124.75,-207.71 131.11,-210.64"/>
</a>
</g>
<g id="a_edge11&#45;headlabel"><a xlink:href="dir_000006_000000.html" target="_top" xlink:title="6">
<text text-anchor="middle" x="132.19" y="-212.59" font-family="Helvetica,sans-Serif" font-size="10.00" fill="#63b8ff">6</text>
</a>
</g>
</g>
<!-- dir_6091cbee3e268cbb682ad3d3f55cf8b5&#45;&gt;dir_580d866cebc144d44931193ef5e2059b -->
<g id="edge13" class="edge">
<title>dir_6091cbee3e268cbb682ad3d3f55cf8b5&#45;&gt;dir_580d866cebc144d44931193ef5e2059b</title>
<g id="a_edge13"><a xlink:href="dir_000011_000002.html" target="_top">
<path fill="none" stroke="#63b8ff" d="M172.18,-125.74C175.31,-116.84 180.04,-102.62 183,-90 186.47,-75.19 189.08,-58.16 190.76,-45.46"/>
<polygon fill="#63b8ff" stroke="#63b8ff" points="194.28,-45.56 192.04,-35.21 187.33,-44.7 194.28,-45.56"/>
</a>
</g>
<g id="a_edge13&#45;headlabel"><a xlink:href="dir_000011_000002.html" target="_top" xlink:title="13">
<text text-anchor="middle" x="196.65" y="-46.98" font-family="Helvetica,sans-Serif" font-size="10.00" fill="#63b8ff">13</text>
</a>
</g>
</g>
<!-- dir_6091cbee3e268cbb682ad3d3f55cf8b5&#45;&gt;dir_07f2be210ff6c371c35315ee7129d1a6 -->
<g id="edge12" class="edge">
<title>dir_6091cbee3e268cbb682ad3d3f55cf8b5&#45;&gt;dir_07f2be210ff6c371c35315ee7129d1a6</title>
<g id="a_edge12"><a xlink:href="dir_000011_000023.html" target="_top">
<path fill="none" stroke="#63b8ff" d="M164.87,-125.75C161.49,-118.57 156.58,-108.18 152.38,-99.27"/>
<polygon fill="#63b8ff" stroke="#63b8ff" points="155.48,-97.64 148.05,-90.09 149.15,-100.63 155.48,-97.64"/>
</a>
</g>
<g id="a_edge12&#45;headlabel"><a xlink:href="dir_000011_000023.html" target="_top" xlink:title="1">
<text text-anchor="middle" x="159.58" y="-97.18" font-family="Helvetica,sans-Serif" font-size="10.00" fill="#63b8ff">1</text>
</a>
</g>
</g>
<!-- dir_07f2be210ff6c371c35315ee7129d1a6&#45;&gt;dir_580d866cebc144d44931193ef5e2059b -->
<g id="edge14" class="edge">
<title>dir_07f2be210ff6c371c35315ee7129d1a6&#45;&gt;dir_580d866cebc144d44931193ef5e2059b</title>
<g id="a_edge14"><a xlink:href="dir_000023_000002.html" target="_top">
<path fill="none" stroke="#63b8ff" d="M152.09,-70.75C159.16,-63.11 169.59,-51.82 178.15,-42.56"/>
<polygon fill="#63b8ff" stroke="#63b8ff" points="180.84,-44.81 185.06,-35.09 175.7,-40.06 180.84,-44.81"/>
</a>
</g>
<g id="a_edge14&#45;headlabel"><a xlink:href="dir_000023_000002.html" target="_top" xlink:title="2">
<text text-anchor="middle" x="180.49" y="-46.87" font-family="Helvetica,sans-Serif" font-size="10.00" fill="#63b8ff">2</text>
</a>
</g>
</g>
<!-- dir_177deec2380c9242a3b71e61387bd4c4&#45;&gt;dir_580d866cebc144d44931193ef5e2059b -->
<g id="edge15" class="edge">
<title>dir_177deec2380c9242a3b71e61387bd4c4&#45;&gt;dir_580d866cebc144d44931193ef5e2059b</title>
<g id="a_edge15"><a xlink:href="dir_000024_000002.html" target="_top">
<path fill="none" stroke="#63b8ff" d="M88.53,-125.92C88.2,-111.29 89.61,-81.31 105,-63 119.7,-45.5 144.17,-36.26 163.58,-31.46"/>
<polygon fill="#63b8ff" stroke="#63b8ff" points="164.45,-34.85 173.46,-29.28 162.95,-28.02 164.45,-34.85"/>
</a>
</g>
<g id="a_edge15&#45;headlabel"><a xlink:href="dir_000024_000002.html" target="_top" xlink:title="1">
<text text-anchor="middle" x="161.55" y="-35.9" font-family="Helvetica,sans-Serif" font-size="10.00" fill="#63b8ff">1</text>
</a>
</g>
</g>
<!-- dir_177deec2380c9242a3b71e61387bd4c4&#45;&gt;dir_c6cb6fb3292d721ac39edcf45c3f2a55 -->
<g id="edge17" class="edge">
<title>dir_177deec2380c9242a3b71e61387bd4c4&#45;&gt;dir_c6cb6fb3292d721ac39edcf45c3f2a55</title>
<g id="a_edge17"><a xlink:href="dir_000024_000007.html" target="_top">
<path fill="none" stroke="#63b8ff" d="M112.94,-125.98C138,-117.07 177.5,-103.02 205.4,-93.1"/>
<polygon fill="#63b8ff" stroke="#63b8ff" points="206.85,-96.3 215.1,-89.65 204.5,-89.7 206.85,-96.3"/>
</a>
</g>
<g id="a_edge17&#45;headlabel"><a xlink:href="dir_000024_000007.html" target="_top" xlink:title="1">
<text text-anchor="middle" x="204.41" y="-97.67" font-family="Helvetica,sans-Serif" font-size="10.00" fill="#63b8ff">1</text>
</a>
</g>
</g>
<!-- dir_177deec2380c9242a3b71e61387bd4c4&#45;&gt;dir_5e12f0ed66b5e5f61b7b40f53564b633 -->
<g id="edge16" class="edge">
<title>dir_177deec2380c9242a3b71e61387bd4c4&#45;&gt;dir_5e12f0ed66b5e5f61b7b40f53564b633</title>
<g id="a_edge16"><a xlink:href="dir_000024_000006.html" target="_top">
<path fill="none" stroke="#63b8ff" d="M87.9,-145.41C86.69,-157.97 85.67,-181.4 92,-200 95.47,-210.21 102.05,-220.2 108.25,-228.11"/>
<polygon fill="#63b8ff" stroke="#63b8ff" points="105.57,-230.37 114.67,-235.8 110.95,-225.88 105.57,-230.37"/>
</a>
</g>
<g id="a_edge16&#45;headlabel"><a xlink:href="dir_000024_000006.html" target="_top" xlink:title="2">
<text text-anchor="middle" x="101.09" y="-226.93" font-family="Helvetica,sans-Serif" font-size="10.00" fill="#63b8ff">2</text>
</a>
</g>
</g>
<!-- dir_1f409e23445615a7676ed89cd8cccbf4 -->
<g id="node9" class="node">
<title>dir_1f409e23445615a7676ed89cd8cccbf4</title>
<g id="a_node9"><a xlink:href="dir_1f409e23445615a7676ed89cd8cccbf4.html" target="_top" xlink:title="Systems">
<polygon fill="#a2b4d6" stroke="#404040" points="198.5,-310 139.5,-310 139.5,-291 198.5,-291 198.5,-310"/>
<text text-anchor="middle" x="169" y="-298" font-family="Helvetica,sans-Serif" font-size="10.00">Systems</text>
</a>
</g>
</g>
<!-- dir_1f409e23445615a7676ed89cd8cccbf4&#45;&gt;dir_580d866cebc144d44931193ef5e2059b -->
<g id="edge18" class="edge">
<title>dir_1f409e23445615a7676ed89cd8cccbf4&#45;&gt;dir_580d866cebc144d44931193ef5e2059b</title>
<g id="a_edge18"><a xlink:href="dir_000029_000002.html" target="_top">
<path fill="none" stroke="#63b8ff" d="M198.67,-297.98C229.66,-294.76 277.51,-284.91 305,-255 324.62,-233.65 320,-220.5 320,-191.5 320,-191.5 320,-191.5 320,-134.5 320,-102.03 326.68,-87.17 305,-63 284.21,-39.82 248.53,-31.3 223.03,-28.21"/>
<polygon fill="#63b8ff" stroke="#63b8ff" points="223.1,-24.7 212.8,-27.18 222.4,-31.66 223.1,-24.7"/>
</a>
</g>
<g id="a_edge18&#45;headlabel"><a xlink:href="dir_000029_000002.html" target="_top" xlink:title="3">
<text text-anchor="middle" x="226.96" y="-19.73" font-family="Helvetica,sans-Serif" font-size="10.00" fill="#63b8ff">3</text>
</a>
</g>
</g>
<!-- dir_1f409e23445615a7676ed89cd8cccbf4&#45;&gt;dir_68e5ee02315a150ea198303cea974c1f -->
<g id="edge21" class="edge">
<title>dir_1f409e23445615a7676ed89cd8cccbf4&#45;&gt;dir_68e5ee02315a150ea198303cea974c1f</title>
<g id="a_edge21"><a xlink:href="dir_000029_000000.html" target="_top">
<path fill="none" stroke="#63b8ff" d="M166.63,-290.66C161.91,-273.09 151.26,-233.45 144.96,-209.95"/>
<polygon fill="#63b8ff" stroke="#63b8ff" points="148.3,-208.91 142.32,-200.16 141.54,-210.72 148.3,-208.91"/>
</a>
</g>
<g id="a_edge21&#45;headlabel"><a xlink:href="dir_000029_000000.html" target="_top" xlink:title="15">
<text text-anchor="middle" x="151.97" y="-209.14" font-family="Helvetica,sans-Serif" font-size="10.00" fill="#63b8ff">15</text>
</a>
</g>
</g>
<!-- dir_1f409e23445615a7676ed89cd8cccbf4&#45;&gt;dir_5e12f0ed66b5e5f61b7b40f53564b633 -->
<g id="edge19" class="edge">
<title>dir_1f409e23445615a7676ed89cd8cccbf4&#45;&gt;dir_5e12f0ed66b5e5f61b7b40f53564b633</title>
<g id="a_edge19"><a xlink:href="dir_000029_000006.html" target="_top">
<path fill="none" stroke="#63b8ff" d="M161.4,-290.75C154.84,-283.18 145.18,-272.05 137.19,-262.84"/>
<polygon fill="#63b8ff" stroke="#63b8ff" points="139.65,-260.35 130.45,-255.09 134.37,-264.94 139.65,-260.35"/>
</a>
</g>
<g id="a_edge19&#45;headlabel"><a xlink:href="dir_000029_000006.html" target="_top" xlink:title="7">
<text text-anchor="middle" x="144.15" y="-258.7" font-family="Helvetica,sans-Serif" font-size="10.00" fill="#63b8ff">7</text>
</a>
</g>
</g>
<!-- dir_1f409e23445615a7676ed89cd8cccbf4&#45;&gt;dir_6091cbee3e268cbb682ad3d3f55cf8b5 -->
<g id="edge20" class="edge">
<title>dir_1f409e23445615a7676ed89cd8cccbf4&#45;&gt;dir_6091cbee3e268cbb682ad3d3f55cf8b5</title>
<g id="a_edge20"><a xlink:href="dir_000029_000011.html" target="_top">
<path fill="none" stroke="#63b8ff" d="M172.53,-290.83C180.06,-271.19 196.35,-221.83 188,-181 186.11,-171.74 182.21,-162.03 178.43,-154.04"/>
<polygon fill="#63b8ff" stroke="#63b8ff" points="181.51,-152.37 173.88,-145.02 175.26,-155.53 181.51,-152.37"/>
</a>
</g>
<g id="a_edge20&#45;headlabel"><a xlink:href="dir_000029_000011.html" target="_top" xlink:title="1">
<text text-anchor="middle" x="185.66" y="-151.8" font-family="Helvetica,sans-Serif" font-size="10.00" fill="#63b8ff">1</text>
</a>
</g>
</g>
</g>
</svg>
</svg>

<style type='text/css'>
<![CDATA[
[data-mouse-over-selected='false'] { opacity: 0.7; }
[data-mouse-over-selected='true']  { opacity: 1.0; }
]]>
</style>
<script type="application/ecmascript"><![CDATA[
document.addEventListener('DOMContentLoaded', (event) => {
  highlightEdges();
  highlightAdjacentNodes();
});
]]></script>
</svg>
