<?xml version="1.0" encoding="UTF-8" standalone="no"?>
<!DOCTYPE svg PUBLIC "-//W3C//DTD SVG 1.1//EN"
 "http://www.w3.org/Graphics/SVG/1.1/DTD/svg11.dtd">
<!-- Generated by graphviz version 2.43.0 (0)
 -->
<!-- Title: Engine/Source/Editor/Panels Pages: 1 -->
<svg width="578pt" height="141pt"
 viewBox="0.00 0.00 577.50 141.00" xmlns="http://www.w3.org/2000/svg" xmlns:xlink="http://www.w3.org/1999/xlink">
<g id="graph0" class="graph" transform="scale(1 1) rotate(0) translate(4 137)">
<title>Engine/Source/Editor/Panels</title>
<g id="clust1" class="cluster">
<title>clusterdir_c6cb6fb3292d721ac39edcf45c3f2a55</title>
<g id="a_clust1"><a xlink:href="dir_c6cb6fb3292d721ac39edcf45c3f2a55.html" target="_top" xlink:title="Editor">
<polygon fill="#edf0f7" stroke="#7f7f7f" stroke-dasharray="5,2" points="8,-8 8,-125 446,-125 446,-8 8,-8"/>
<text text-anchor="middle" x="227" y="-113" font-family="Helvetica,sans-Serif" font-size="10.00">Editor</text>
</a>
</g>
</g>
<g id="clust2" class="cluster">
<title>clusterdir_bcba414dde695aa9b94bbe05564e6e5d</title>
<g id="a_clust2"><a xlink:href="dir_bcba414dde695aa9b94bbe05564e6e5d.html" target="_top">
<polygon fill="#edf0f7" stroke="#404040" stroke-width="2" points="16,-63 16,-98 438,-98 438,-63 16,-63"/>
</a>
</g>
</g>
<!-- dir_081b3def49d6dcff92d2057173091811 -->
<g id="node1" class="node">
<title>dir_081b3def49d6dcff92d2057173091811</title>
<g id="a_node1"><a xlink:href="dir_081b3def49d6dcff92d2057173091811.html" target="_top" xlink:title="Utils">
<polygon fill="#a2b4d6" stroke="#404040" points="202.5,-35 163.5,-35 163.5,-16 202.5,-16 202.5,-35"/>
<text text-anchor="middle" x="183" y="-23" font-family="Helvetica,sans-Serif" font-size="10.00">Utils</text>
</a>
</g>
</g>
<!-- dir_4211c0e63637b7627ec0c685c2cd5e93 -->
<g id="node2" class="node">
<title>dir_4211c0e63637b7627ec0c685c2cd5e93</title>
<g id="a_node2"><a xlink:href="dir_4211c0e63637b7627ec0c685c2cd5e93.html" target="_top" xlink:title="Commands">
<polygon fill="#a2b4d6" stroke="#404040" points="88,-35 16,-35 16,-16 88,-16 88,-35"/>
<text text-anchor="middle" x="52" y="-23" font-family="Helvetica,sans-Serif" font-size="10.00">Commands</text>
</a>
</g>
</g>
<!-- dir_158d6f7ff44d6791d8d784a86ee0a375 -->
<g id="node3" class="node">
<title>dir_158d6f7ff44d6791d8d784a86ee0a375</title>
<g id="a_node3"><a xlink:href="dir_158d6f7ff44d6791d8d784a86ee0a375.html" target="_top" xlink:title="Core">
<polygon fill="#a2b4d6" stroke="#404040" points="145.5,-35 106.5,-35 106.5,-16 145.5,-16 145.5,-35"/>
<text text-anchor="middle" x="126" y="-23" font-family="Helvetica,sans-Serif" font-size="10.00">Core</text>
</a>
</g>
</g>
<!-- dir_bcba414dde695aa9b94bbe05564e6e5d -->
<g id="node4" class="node">
<title>dir_bcba414dde695aa9b94bbe05564e6e5d</title>
<text text-anchor="middle" x="406" y="-78" font-family="Helvetica,sans-Serif" font-size="10.00">Panels</text>
</g>
<!-- dir_580d866cebc144d44931193ef5e2059b -->
<g id="node9" class="node">
<title>dir_580d866cebc144d44931193ef5e2059b</title>
<g id="a_node9"><a xlink:href="dir_580d866cebc144d44931193ef5e2059b.html" target="_top" xlink:title="Core">
<polygon fill="#edf0f7" stroke="red" stroke-dasharray="5,2" points="569.5,-35 530.5,-35 530.5,-16 569.5,-16 569.5,-35"/>
<text text-anchor="middle" x="550" y="-23" font-family="Helvetica,sans-Serif" font-size="10.00">Core</text>
</a>
</g>
</g>
<!-- dir_bcba414dde695aa9b94bbe05564e6e5d&#45;&gt;dir_580d866cebc144d44931193ef5e2059b -->
<g id="edge1" class="edge">
<title>dir_bcba414dde695aa9b94bbe05564e6e5d&#45;&gt;dir_580d866cebc144d44931193ef5e2059b</title>
<g id="a_edge1"><a xlink:href="dir_000024_000003.html" target="_top">
<path fill="none" stroke="#63b8ff" d="M429.14,-70.98C453.95,-61.85 493.43,-47.32 520.47,-37.37"/>
<polygon fill="#63b8ff" stroke="#63b8ff" points="521.99,-40.54 530.17,-33.8 519.57,-33.97 521.99,-40.54"/>
</a>
</g>
<g id="a_edge1&#45;headlabel"><a xlink:href="dir_000024_000003.html" target="_top" xlink:title="2">
<text text-anchor="middle" x="519.6" y="-41.94" font-family="Helvetica,sans-Serif" font-size="10.00" fill="#63b8ff">2</text>
</a>
</g>
</g>
<!-- dir_2f1be21ba10cfa0500915560a64c9d50 -->
<g id="node5" class="node">
<title>dir_2f1be21ba10cfa0500915560a64c9d50</title>
<g id="a_node5"><a xlink:href="dir_2f1be21ba10cfa0500915560a64c9d50.html" target="_top" xlink:title="Hierarchy">
<polygon fill="#a2b4d6" stroke="#404040" points="276,-90 212,-90 212,-71 276,-71 276,-90"/>
<text text-anchor="middle" x="244" y="-78" font-family="Helvetica,sans-Serif" font-size="10.00">Hierarchy</text>
</a>
</g>
</g>
<!-- dir_9f04efef762572853abdf73f62bebfcc -->
<g id="node10" class="node">
<title>dir_9f04efef762572853abdf73f62bebfcc</title>
<g id="a_node10"><a xlink:href="dir_9f04efef762572853abdf73f62bebfcc.html" target="_top" xlink:title="Runtime">
<polygon fill="#edf0f7" stroke="red" stroke-dasharray="5,2" points="512,-35 454,-35 454,-16 512,-16 512,-35"/>
<text text-anchor="middle" x="483" y="-23" font-family="Helvetica,sans-Serif" font-size="10.00">Runtime</text>
</a>
</g>
</g>
<!-- dir_2f1be21ba10cfa0500915560a64c9d50&#45;&gt;dir_9f04efef762572853abdf73f62bebfcc -->
<g id="edge2" class="edge">
<title>dir_2f1be21ba10cfa0500915560a64c9d50&#45;&gt;dir_9f04efef762572853abdf73f62bebfcc</title>
<g id="a_edge2"><a xlink:href="dir_000015_000030.html" target="_top">
<path fill="none" stroke="#63b8ff" d="M262.89,-70.91C269.74,-68.06 277.62,-65.09 285,-63 353.36,-43.69 375.29,-49.87 443.88,-36.21"/>
<polygon fill="#63b8ff" stroke="#63b8ff" points="444.79,-39.59 453.88,-34.14 443.38,-32.74 444.79,-39.59"/>
</a>
</g>
<g id="a_edge2&#45;headlabel"><a xlink:href="dir_000015_000030.html" target="_top" xlink:title="1">
<text text-anchor="middle" x="441.85" y="-40.6" font-family="Helvetica,sans-Serif" font-size="10.00" fill="#63b8ff">1</text>
</a>
</g>
</g>
<!-- dir_b6b1c143615c8369fe6c6b8386f9603d -->
<g id="node6" class="node">
<title>dir_b6b1c143615c8369fe6c6b8386f9603d</title>
<g id="a_node6"><a xlink:href="dir_b6b1c143615c8369fe6c6b8386f9603d.html" target="_top" xlink:title="Inspector">
<polygon fill="#a2b4d6" stroke="#404040" points="194,-90 132,-90 132,-71 194,-71 194,-90"/>
<text text-anchor="middle" x="163" y="-78" font-family="Helvetica,sans-Serif" font-size="10.00">Inspector</text>
</a>
</g>
</g>
<!-- dir_b6b1c143615c8369fe6c6b8386f9603d&#45;&gt;dir_081b3def49d6dcff92d2057173091811 -->
<g id="edge3" class="edge">
<title>dir_b6b1c143615c8369fe6c6b8386f9603d&#45;&gt;dir_081b3def49d6dcff92d2057173091811</title>
<g id="a_edge3"><a xlink:href="dir_000018_000035.html" target="_top">
<path fill="none" stroke="#63b8ff" d="M166.3,-70.75C168.98,-63.65 172.85,-53.4 176.19,-44.56"/>
<polygon fill="#63b8ff" stroke="#63b8ff" points="179.5,-45.68 179.76,-35.09 172.95,-43.21 179.5,-45.68"/>
</a>
</g>
<g id="a_edge3&#45;headlabel"><a xlink:href="dir_000018_000035.html" target="_top" xlink:title="1">
<text text-anchor="middle" x="180.89" y="-47.55" font-family="Helvetica,sans-Serif" font-size="10.00" fill="#63b8ff">1</text>
</a>
</g>
</g>
<!-- dir_b6b1c143615c8369fe6c6b8386f9603d&#45;&gt;dir_9f04efef762572853abdf73f62bebfcc -->
<g id="edge4" class="edge">
<title>dir_b6b1c143615c8369fe6c6b8386f9603d&#45;&gt;dir_9f04efef762572853abdf73f62bebfcc</title>
<g id="a_edge4"><a xlink:href="dir_000018_000030.html" target="_top">
<path fill="none" stroke="#63b8ff" d="M180.95,-70.85C187.72,-67.92 195.58,-64.91 203,-63 306.75,-36.28 339.39,-53.91 443.9,-36.01"/>
<polygon fill="#63b8ff" stroke="#63b8ff" points="444.67,-39.43 453.9,-34.23 443.44,-32.54 444.67,-39.43"/>
</a>
</g>
<g id="a_edge4&#45;headlabel"><a xlink:href="dir_000018_000030.html" target="_top" xlink:title="1">
<text text-anchor="middle" x="441.63" y="-40.36" font-family="Helvetica,sans-Serif" font-size="10.00" fill="#63b8ff">1</text>
</a>
</g>
</g>
<!-- dir_906ee79392a6adfa2c1e37875c46be73 -->
<g id="node7" class="node">
<title>dir_906ee79392a6adfa2c1e37875c46be73</title>
<g id="a_node7"><a xlink:href="dir_906ee79392a6adfa2c1e37875c46be73.html" target="_top" xlink:title="ProjectBrowser">
<polygon fill="#a2b4d6" stroke="#404040" points="114,-90 24,-90 24,-71 114,-71 114,-90"/>
<text text-anchor="middle" x="69" y="-78" font-family="Helvetica,sans-Serif" font-size="10.00">ProjectBrowser</text>
</a>
</g>
</g>
<!-- dir_906ee79392a6adfa2c1e37875c46be73&#45;&gt;dir_081b3def49d6dcff92d2057173091811 -->
<g id="edge5" class="edge">
<title>dir_906ee79392a6adfa2c1e37875c46be73&#45;&gt;dir_081b3def49d6dcff92d2057173091811</title>
<g id="a_edge5"><a xlink:href="dir_000026_000035.html" target="_top">
<path fill="none" stroke="#63b8ff" d="M87.32,-70.98C105.66,-62.46 134.11,-49.23 155.23,-39.41"/>
<polygon fill="#63b8ff" stroke="#63b8ff" points="156.76,-42.56 164.35,-35.17 153.81,-36.21 156.76,-42.56"/>
</a>
</g>
<g id="a_edge5&#45;headlabel"><a xlink:href="dir_000026_000035.html" target="_top" xlink:title="1">
<text text-anchor="middle" x="154.7" y="-44.15" font-family="Helvetica,sans-Serif" font-size="10.00" fill="#63b8ff">1</text>
</a>
</g>
</g>
<!-- dir_906ee79392a6adfa2c1e37875c46be73&#45;&gt;dir_4211c0e63637b7627ec0c685c2cd5e93 -->
<g id="edge7" class="edge">
<title>dir_906ee79392a6adfa2c1e37875c46be73&#45;&gt;dir_4211c0e63637b7627ec0c685c2cd5e93</title>
<g id="a_edge7"><a xlink:href="dir_000026_000000.html" target="_top">
<path fill="none" stroke="#63b8ff" d="M66.19,-70.75C63.94,-63.72 60.7,-53.62 57.88,-44.84"/>
<polygon fill="#63b8ff" stroke="#63b8ff" points="61.14,-43.54 54.75,-35.09 54.48,-45.68 61.14,-43.54"/>
</a>
</g>
<g id="a_edge7&#45;headlabel"><a xlink:href="dir_000026_000000.html" target="_top" xlink:title="1">
<text text-anchor="middle" x="64.94" y="-43.6" font-family="Helvetica,sans-Serif" font-size="10.00" fill="#63b8ff">1</text>
</a>
</g>
</g>
<!-- dir_906ee79392a6adfa2c1e37875c46be73&#45;&gt;dir_158d6f7ff44d6791d8d784a86ee0a375 -->
<g id="edge6" class="edge">
<title>dir_906ee79392a6adfa2c1e37875c46be73&#45;&gt;dir_158d6f7ff44d6791d8d784a86ee0a375</title>
<g id="a_edge6"><a xlink:href="dir_000026_000004.html" target="_top">
<path fill="none" stroke="#63b8ff" d="M78.16,-70.98C86.5,-63.23 99.03,-51.58 109.18,-42.14"/>
<polygon fill="#63b8ff" stroke="#63b8ff" points="111.74,-44.54 116.68,-35.17 106.97,-39.42 111.74,-44.54"/>
</a>
</g>
<g id="a_edge6&#45;headlabel"><a xlink:href="dir_000026_000004.html" target="_top" xlink:title="1">
<text text-anchor="middle" x="111.04" y="-46.57" font-family="Helvetica,sans-Serif" font-size="10.00" fill="#63b8ff">1</text>
</a>
</g>
</g>
<!-- dir_f5fd920a71b969805613c433fb62d310 -->
<g id="node8" class="node">
<title>dir_f5fd920a71b969805613c433fb62d310</title>
<g id="a_node8"><a xlink:href="dir_f5fd920a71b969805613c433fb62d310.html" target="_top" xlink:title="SceneView">
<polygon fill="#a2b4d6" stroke="#404040" points="364,-90 294,-90 294,-71 364,-71 364,-90"/>
<text text-anchor="middle" x="329" y="-78" font-family="Helvetica,sans-Serif" font-size="10.00">SceneView</text>
</a>
</g>
</g>
<!-- dir_f5fd920a71b969805613c433fb62d310&#45;&gt;dir_580d866cebc144d44931193ef5e2059b -->
<g id="edge8" class="edge">
<title>dir_f5fd920a71b969805613c433fb62d310&#45;&gt;dir_580d866cebc144d44931193ef5e2059b</title>
<g id="a_edge8"><a xlink:href="dir_000031_000003.html" target="_top">
<path fill="none" stroke="#63b8ff" d="M349.79,-70.87C357.05,-68.08 365.3,-65.15 373,-63 434.45,-45.8 454.08,-50.17 520.3,-34.92"/>
<polygon fill="#63b8ff" stroke="#63b8ff" points="521.49,-38.24 530.41,-32.52 519.88,-31.42 521.49,-38.24"/>
</a>
</g>
<g id="a_edge8&#45;headlabel"><a xlink:href="dir_000031_000003.html" target="_top" xlink:title="1">
<text text-anchor="middle" x="518.65" y="-39.33" font-family="Helvetica,sans-Serif" font-size="10.00" fill="#63b8ff">1</text>
</a>
</g>
</g>
</g>
</svg>
