<?xml version="1.0" encoding="UTF-8" standalone="no"?>
<!DOCTYPE svg PUBLIC "-//W3C//DTD SVG 1.1//EN"
 "http://www.w3.org/Graphics/SVG/1.1/DTD/svg11.dtd">
<!-- Generated by graphviz version 2.43.0 (0)
 -->
<!-- Title: Engine/Source/Runtime/ECS/Kernel/EntityManager.h Pages: 1 -->
<!--zoomable 522 -->

<svg id="main" version="1.1" xmlns="http://www.w3.org/2000/svg" xmlns:xlink="http://www.w3.org/1999/xlink" xml:space="preserve" onload="init(evt)">

<style type="text/css"><![CDATA[
.node, .edge {opacity: 0.7;}
.node.selected, .edge.selected {opacity: 1;}
.edge:hover path { stroke: red; }
.edge:hover polygon { stroke: red; fill: red; }
]]></style>

<defs>
  <circle id="rim" cx="0" cy="0" r="7"/>
  <circle id="rim2" cx="0" cy="0" r="3.5"/>
  <g id="zoomPlus">
    <use xlink:href="#rim" fill="#404040"><set attributeName="fill" to="#808080" begin="zoomplus.mouseover" end="zoomplus.mouseout"/></use>
    <path d="M-4,0h8M0,-4v8" fill="none" stroke="white" stroke-width="1.5" pointer-events="none"/>
  </g>
  <g id="zoomMin">
    <use xlink:href="#rim" fill="#404040"><set attributeName="fill" to="#808080" begin="zoomminus.mouseover" end="zoomminus.mouseout"/></use>
    <path d="M-4,0h8" fill="none" stroke="white" stroke-width="1.5" pointer-events="none"/>
  </g>
  <g id="arrowUp" transform="translate(30 24)">
    <use xlink:href="#rim"/>
    <path pointer-events="none" fill="none" stroke="white" stroke-width="1.5" d="M0,-3.0v7 M-2.5,-0.5L0,-3.0L2.5,-0.5"/>
  </g>
  <g id="arrowRight" transform="rotate(90) translate(36 -43)">
    <use xlink:href="#rim"/>
    <path pointer-events="none" fill="none" stroke="white" stroke-width="1.5" d="M0,-3.0v7 M-2.5,-0.5L0,-3.0L2.5,-0.5"/>
  </g>
  <g id="arrowDown" transform="rotate(180) translate(-30 -48)">
    <use xlink:href="#rim"/>
    <path pointer-events="none" fill="none" stroke="white" stroke-width="1.5" d="M0,-3.0v7 M-2.5,-0.5L0,-3.0L2.5,-0.5"/>
  </g>
  <g id="arrowLeft" transform="rotate(270) translate(-36 17)">
    <use xlink:href="#rim"/>
    <path pointer-events="none" fill="none" stroke="white" stroke-width="1.5" d="M0,-3.0v7 M-2.5,-0.5L0,-3.0L2.5,-0.5"/>
  </g>
  <g id="resetDef">
    <use xlink:href="#rim2" fill="#404040"><set attributeName="fill" to="#808080" begin="reset.mouseover" end="reset.mouseout"/></use>
  </g>
</defs>
<script type="application/ecmascript">
var viewWidth = 1804;
var viewHeight = 522;
var sectionId = 'dynsection-1';
</script>
<script type="application/ecmascript" xlink:href="svg.min.js"/>
<svg id="graph" class="graph">
<g id="viewport">
<title>Engine/Source/Runtime/ECS/Kernel/EntityManager.h</title>
<!-- Node1 -->
<g id="Node000001" class="node">
<title>Node1</title>
<g id="a_Node000001"><a xlink:title="エンティティIDのライフサイクル管理クラス">
<polygon fill="#999999" stroke="#666666" points="1616.2,-514 1461.2,-514 1461.2,-484 1616.2,-484 1616.2,-514"/>
<text text-anchor="start" x="1469.2" y="-502" font-family="Helvetica,sans-Serif" font-size="10.00">Engine/Source/Runtime</text>
<text text-anchor="middle" x="1538.7" y="-491" font-family="Helvetica,sans-Serif" font-size="10.00">/ECS/Kernel/EntityManager.h</text>
</a>
</g>
</g>
<!-- Node2 -->
<g id="Node000002" class="node">
<title>Node2</title>
<g id="a_Node000002"><a xlink:href="EntityManager_8cpp.html" target="_top" xlink:title=" ">
<polygon fill="white" stroke="#666666" points="1455.7,-448 1289.7,-448 1289.7,-418 1455.7,-418 1455.7,-448"/>
<text text-anchor="start" x="1297.7" y="-436" font-family="Helvetica,sans-Serif" font-size="10.00">Engine/Source/Runtime</text>
<text text-anchor="middle" x="1372.7" y="-425" font-family="Helvetica,sans-Serif" font-size="10.00">/ECS/Kernel/EntityManager.cpp</text>
</a>
</g>
</g>
<!-- Node1&#45;&gt;Node2 -->
<g id="edge1_Node000001_Node000002" class="edge">
<title>Node1&#45;&gt;Node2</title>
<g id="a_edge1_Node000001_Node000002"><a xlink:title=" ">
<path fill="none" stroke="#63b8ff" d="M1492.85,-480.32C1466.43,-470.14 1433.68,-457.51 1409.04,-448.01"/>
<polygon fill="#63b8ff" stroke="#63b8ff" points="1491.68,-483.62 1502.27,-483.95 1494.2,-477.09 1491.68,-483.62"/>
</a>
</g>
</g>
<!-- Node3 -->
<g id="Node000003" class="node">
<title>Node3</title>
<g id="a_Node000003"><a xlink:href="World_8h.html" target="_top" xlink:title="ECSワールド (シーン) の管理クラス。">
<polygon fill="white" stroke="#666666" points="1603.7,-448 1473.7,-448 1473.7,-418 1603.7,-418 1603.7,-448"/>
<text text-anchor="start" x="1481.7" y="-436" font-family="Helvetica,sans-Serif" font-size="10.00">Engine/Source/Runtime</text>
<text text-anchor="middle" x="1538.7" y="-425" font-family="Helvetica,sans-Serif" font-size="10.00">/ECS/Kernel/World.h</text>
</a>
</g>
</g>
<!-- Node1&#45;&gt;Node3 -->
<g id="edge2_Node000001_Node000003" class="edge">
<title>Node1&#45;&gt;Node3</title>
<g id="a_edge2_Node000001_Node000003"><a xlink:title=" ">
<path fill="none" stroke="#63b8ff" d="M1538.7,-473.54C1538.7,-464.96 1538.7,-455.61 1538.7,-448.16"/>
<polygon fill="#63b8ff" stroke="#63b8ff" points="1535.2,-473.8 1538.7,-483.8 1542.2,-473.8 1535.2,-473.8"/>
</a>
</g>
</g>
<!-- Node8 -->
<g id="Node000008" class="node">
<title>Node8</title>
<g id="a_Node000008"><a xlink:href="SpanEngine_8h.html" target="_top" xlink:title=" ">
<polygon fill="white" stroke="#666666" points="1188.2,-96 1033.2,-96 1033.2,-77 1188.2,-77 1188.2,-96"/>
<text text-anchor="middle" x="1110.7" y="-84" font-family="Helvetica,sans-Serif" font-size="10.00">Engine/Source/SpanEngine.h</text>
</a>
</g>
</g>
<!-- Node1&#45;&gt;Node8 -->
<g id="edge59_Node000001_Node000008" class="edge">
<title>Node1&#45;&gt;Node8</title>
<g id="a_edge59_Node000001_Node000008"><a xlink:title=" ">
<path fill="none" stroke="#63b8ff" d="M1626.15,-484.55C1691.18,-469 1768.7,-436.17 1768.7,-368 1768.7,-368 1768.7,-368 1768.7,-228.5 1768.7,-175.25 1744.27,-157.81 1697.7,-132 1654.2,-107.89 1337.57,-94.72 1188.24,-89.79"/>
<polygon fill="#63b8ff" stroke="#63b8ff" points="1625.22,-481.17 1616.25,-486.81 1626.77,-488 1625.22,-481.17"/>
</a>
</g>
</g>
<!-- Node4 -->
<g id="Node000004" class="node">
<title>Node4</title>
<g id="a_Node000004"><a xlink:href="Application_8h.html" target="_top" xlink:title="エンジンのメインループとライフサイクル管理。">
<polygon fill="white" stroke="#666666" points="1662.7,-244.5 1532.7,-244.5 1532.7,-214.5 1662.7,-214.5 1662.7,-244.5"/>
<text text-anchor="start" x="1540.7" y="-232.5" font-family="Helvetica,sans-Serif" font-size="10.00">Engine/Source/Runtime</text>
<text text-anchor="middle" x="1597.7" y="-221.5" font-family="Helvetica,sans-Serif" font-size="10.00">/Application.h</text>
</a>
</g>
</g>
<!-- Node3&#45;&gt;Node4 -->
<g id="edge3_Node000003_Node000004" class="edge">
<title>Node3&#45;&gt;Node4</title>
<g id="a_edge3_Node000003_Node000004"><a xlink:title=" ">
<path fill="none" stroke="#63b8ff" d="M1598.72,-413.68C1613.32,-406.25 1627.17,-396 1635.7,-382 1663.22,-336.85 1626.77,-272.58 1607.83,-244.52"/>
<polygon fill="#63b8ff" stroke="#63b8ff" points="1597.16,-410.55 1589.58,-417.95 1600.12,-416.89 1597.16,-410.55"/>
</a>
</g>
</g>
<!-- Node3&#45;&gt;Node8 -->
<g id="edge58_Node000003_Node000008" class="edge">
<title>Node3&#45;&gt;Node8</title>
<g id="a_edge58_Node000003_Node000008"><a xlink:title=" ">
<path fill="none" stroke="#63b8ff" d="M1600.75,-414.3C1619.44,-406.68 1638.9,-396.17 1653.7,-382 1682.27,-354.64 1692.7,-341.56 1692.7,-302 1692.7,-302 1692.7,-302 1692.7,-228.5 1692.7,-184.79 1706.34,-161.07 1673.7,-132 1638.26,-100.43 1334.36,-91.16 1188.37,-88.52"/>
<polygon fill="#63b8ff" stroke="#63b8ff" points="1599.44,-411.06 1591.37,-417.92 1601.96,-417.59 1599.44,-411.06"/>
</a>
</g>
</g>
<!-- Node18 -->
<g id="Node000018" class="node">
<title>Node18</title>
<g id="a_Node000018"><a xlink:href="RenderingSystem_8h.html" target="_top" xlink:title="描画コマンド発行システム。">
<polygon fill="white" stroke="#666666" points="1440.7,-173 1280.7,-173 1280.7,-132 1440.7,-132 1440.7,-173"/>
<text text-anchor="start" x="1288.7" y="-161" font-family="Helvetica,sans-Serif" font-size="10.00">Engine/Source/Runtime</text>
<text text-anchor="start" x="1288.7" y="-150" font-family="Helvetica,sans-Serif" font-size="10.00">/Systems/Graphics/Rendering</text>
<text text-anchor="middle" x="1360.7" y="-139" font-family="Helvetica,sans-Serif" font-size="10.00">System.h</text>
</a>
</g>
</g>
<!-- Node3&#45;&gt;Node18 -->
<g id="edge57_Node000003_Node000018" class="edge">
<title>Node3&#45;&gt;Node18</title>
<g id="a_edge57_Node000003_Node000018"><a xlink:title=" ">
<path fill="none" stroke="#63b8ff" d="M1478.68,-413.68C1464.08,-406.25 1450.23,-396 1441.7,-382 1401.68,-316.35 1478.74,-276.92 1442.7,-209 1434.56,-193.66 1420.08,-181.79 1405.53,-173.03"/>
<polygon fill="#63b8ff" stroke="#63b8ff" points="1477.28,-416.89 1487.82,-417.95 1480.24,-410.55 1477.28,-416.89"/>
</a>
</g>
</g>
<!-- Node19 -->
<g id="Node000019" class="node">
<title>Node19</title>
<g id="a_Node000019"><a xlink:href="EntityBuilder_8h.html" target="_top" xlink:title="エンティティ生成を簡略化するヘルパークラス。">
<polygon fill="white" stroke="#666666" points="1072.7,-167.5 926.7,-167.5 926.7,-137.5 1072.7,-137.5 1072.7,-167.5"/>
<text text-anchor="start" x="934.7" y="-155.5" font-family="Helvetica,sans-Serif" font-size="10.00">Engine/Source/Runtime</text>
<text text-anchor="middle" x="999.7" y="-144.5" font-family="Helvetica,sans-Serif" font-size="10.00">/ECS/Kernel/EntityBuilder.h</text>
</a>
</g>
</g>
<!-- Node3&#45;&gt;Node19 -->
<g id="edge21_Node000003_Node000019" class="edge">
<title>Node3&#45;&gt;Node19</title>
<g id="a_edge21_Node000003_Node000019"><a xlink:title=" ">
<path fill="none" stroke="#63b8ff" d="M1463.55,-417.67C1246.29,-376.16 632.41,-258.26 625.7,-250 564.48,-174.67 675.01,-204.13 879.7,-173 894.83,-170.7 911.01,-168.14 926.44,-165.65"/>
<polygon fill="#63b8ff" stroke="#63b8ff" points="1463.11,-421.15 1473.59,-419.59 1464.42,-414.27 1463.11,-421.15"/>
</a>
</g>
</g>
<!-- Node20 -->
<g id="Node000020" class="node">
<title>Node20</title>
<g id="a_Node000020"><a xlink:href="ComponentRegistry_8h.html" target="_top" xlink:title="コンポーネントのメタデータ管理 (リフレクション)。">
<polygon fill="white" stroke="#666666" points="1626.7,-382 1450.7,-382 1450.7,-352 1626.7,-352 1626.7,-382"/>
<text text-anchor="start" x="1458.7" y="-370" font-family="Helvetica,sans-Serif" font-size="10.00">Engine/Source/Runtime</text>
<text text-anchor="middle" x="1538.7" y="-359" font-family="Helvetica,sans-Serif" font-size="10.00">/Reflection/ComponentRegistry.h</text>
</a>
</g>
</g>
<!-- Node3&#45;&gt;Node20 -->
<g id="edge23_Node000003_Node000020" class="edge">
<title>Node3&#45;&gt;Node20</title>
<g id="a_edge23_Node000003_Node000020"><a xlink:title=" ">
<path fill="none" stroke="#63b8ff" d="M1538.7,-407.54C1538.7,-398.96 1538.7,-389.61 1538.7,-382.16"/>
<polygon fill="#63b8ff" stroke="#63b8ff" points="1535.2,-407.8 1538.7,-417.8 1542.2,-407.8 1535.2,-407.8"/>
</a>
</g>
</g>
<!-- Node27 -->
<g id="Node000027" class="node">
<title>Node27</title>
<g id="a_Node000027"><a xlink:href="TransformSystem_8h.html" target="_top" xlink:title="ローカル座標からワールド座標への変換行列計算">
<polygon fill="white" stroke="#666666" points="210.2,-167.5 25.2,-167.5 25.2,-137.5 210.2,-137.5 210.2,-167.5"/>
<text text-anchor="start" x="33.2" y="-155.5" font-family="Helvetica,sans-Serif" font-size="10.00">Engine/Source/Runtime</text>
<text text-anchor="middle" x="117.7" y="-144.5" font-family="Helvetica,sans-Serif" font-size="10.00">/Systems/Core/TransformSystem.h</text>
</a>
</g>
</g>
<!-- Node3&#45;&gt;Node27 -->
<g id="edge56_Node000003_Node000027" class="edge">
<title>Node3&#45;&gt;Node27</title>
<g id="a_edge56_Node000003_Node000027"><a xlink:title=" ">
<path fill="none" stroke="#63b8ff" d="M1463.32,-417.87C1313.09,-396.12 1272.76,-400.83 1125.7,-382 733.42,-331.77 610.36,-403.08 245.7,-250 198.74,-230.29 153.51,-189.45 131.53,-167.76"/>
<polygon fill="#63b8ff" stroke="#63b8ff" points="1462.98,-421.36 1473.38,-419.34 1463.99,-414.43 1462.98,-421.36"/>
</a>
</g>
</g>
<!-- Node5 -->
<g id="Node000005" class="node">
<title>Node5</title>
<g id="a_Node000005"><a xlink:href="Application_8cpp.html" target="_top" xlink:title=" ">
<polygon fill="white" stroke="#666666" points="1795.7,-35.5 1665.7,-35.5 1665.7,-5.5 1795.7,-5.5 1795.7,-35.5"/>
<text text-anchor="start" x="1673.7" y="-23.5" font-family="Helvetica,sans-Serif" font-size="10.00">Engine/Source/Runtime</text>
<text text-anchor="middle" x="1730.7" y="-12.5" font-family="Helvetica,sans-Serif" font-size="10.00">/Application.cpp</text>
</a>
</g>
</g>
<!-- Node4&#45;&gt;Node5 -->
<g id="edge4_Node000004_Node000005" class="edge">
<title>Node4&#45;&gt;Node5</title>
<g id="a_edge4_Node000004_Node000005"><a xlink:title=" ">
<path fill="none" stroke="#63b8ff" d="M1633,-208.93C1647.22,-199.6 1662.81,-187.33 1673.7,-173 1706.86,-129.37 1722.58,-64.31 1728.18,-35.78"/>
<polygon fill="#63b8ff" stroke="#63b8ff" points="1630.97,-206.07 1624.37,-214.36 1634.7,-212 1630.97,-206.07"/>
</a>
</g>
</g>
<!-- Node6 -->
<g id="Node000006" class="node">
<title>Node6</title>
<g id="a_Node000006"><a xlink:href="EntryPoint_8h.html" target="_top" xlink:title="アプリケーションのエントリーポイント (main関数)。">
<polygon fill="white" stroke="#666666" points="1664.7,-167.5 1534.7,-167.5 1534.7,-137.5 1664.7,-137.5 1664.7,-167.5"/>
<text text-anchor="start" x="1542.7" y="-155.5" font-family="Helvetica,sans-Serif" font-size="10.00">Engine/Source/Runtime</text>
<text text-anchor="middle" x="1599.7" y="-144.5" font-family="Helvetica,sans-Serif" font-size="10.00">/EntryPoint.h</text>
</a>
</g>
</g>
<!-- Node4&#45;&gt;Node6 -->
<g id="edge5_Node000004_Node000006" class="edge">
<title>Node4&#45;&gt;Node6</title>
<g id="a_edge5_Node000004_Node000006"><a xlink:title=" ">
<path fill="none" stroke="#63b8ff" d="M1598.35,-204.04C1598.67,-191.95 1599.05,-177.79 1599.32,-167.54"/>
<polygon fill="#63b8ff" stroke="#63b8ff" points="1594.84,-204.3 1598.08,-214.39 1601.84,-204.49 1594.84,-204.3"/>
</a>
</g>
</g>
<!-- Node7 -->
<g id="Node000007" class="node">
<title>Node7</title>
<g id="a_Node000007"><a xlink:href="CameraSystem_8h.html" target="_top" xlink:title="カメラ行列の更新とレンダラーへの適用。">
<polygon fill="white" stroke="#666666" points="654.7,-167.5 460.7,-167.5 460.7,-137.5 654.7,-137.5 654.7,-167.5"/>
<text text-anchor="start" x="468.7" y="-155.5" font-family="Helvetica,sans-Serif" font-size="10.00">Engine/Source/Runtime</text>
<text text-anchor="middle" x="557.7" y="-144.5" font-family="Helvetica,sans-Serif" font-size="10.00">/Systems/Graphics/CameraSystem.h</text>
</a>
</g>
</g>
<!-- Node4&#45;&gt;Node7 -->
<g id="edge6_Node000004_Node000007" class="edge">
<title>Node4&#45;&gt;Node7</title>
<g id="a_edge6_Node000004_Node000007"><a xlink:title=" ">
<path fill="none" stroke="#63b8ff" d="M1522.67,-217.85C1497.32,-214.57 1468.82,-211.24 1442.7,-209 1097.82,-179.37 1008.63,-212.12 664.7,-173 652.41,-171.6 639.41,-169.64 626.86,-167.5"/>
<polygon fill="#63b8ff" stroke="#63b8ff" points="1522.22,-221.32 1532.59,-219.15 1523.12,-214.38 1522.22,-221.32"/>
</a>
</g>
</g>
<!-- Node4&#45;&gt;Node8 -->
<g id="edge20_Node000004_Node000008" class="edge">
<title>Node4&#45;&gt;Node8</title>
<g id="a_edge20_Node000004_Node000008"><a xlink:title=" ">
<path fill="none" stroke="#63b8ff" d="M1570.24,-208.4C1556.58,-198.14 1539.98,-185.26 1525.7,-173 1505.66,-155.8 1506.59,-143.26 1482.7,-132 1432.1,-108.16 1281.57,-96.27 1188.23,-91.03"/>
<polygon fill="#63b8ff" stroke="#63b8ff" points="1568.21,-211.25 1578.32,-214.42 1572.39,-205.64 1568.21,-211.25"/>
</a>
</g>
</g>
<!-- Node4&#45;&gt;Node18 -->
<g id="edge18_Node000004_Node000018" class="edge">
<title>Node4&#45;&gt;Node18</title>
<g id="a_edge18_Node000004_Node000018"><a xlink:title=" ">
<path fill="none" stroke="#63b8ff" d="M1543.56,-211.37C1507.56,-199.97 1460.17,-184.98 1422.66,-173.11"/>
<polygon fill="#63b8ff" stroke="#63b8ff" points="1542.81,-214.8 1553.4,-214.48 1544.92,-208.13 1542.81,-214.8"/>
</a>
</g>
</g>
<!-- Node7&#45;&gt;Node8 -->
<g id="edge7_Node000007_Node000008" class="edge">
<title>Node7&#45;&gt;Node8</title>
<g id="a_edge7_Node000007_Node000008"><a xlink:title=" ">
<path fill="none" stroke="#63b8ff" d="M640.16,-135.78C648.43,-134.41 656.72,-133.12 664.7,-132 793.38,-113.88 943.97,-100.47 1033.12,-93.33"/>
<polygon fill="#63b8ff" stroke="#63b8ff" points="639.37,-132.37 630.09,-137.49 640.54,-139.27 639.37,-132.37"/>
</a>
</g>
</g>
<!-- Node8&#45;&gt;Node5 -->
<g id="edge15_Node000008_Node000005" class="edge">
<title>Node8&#45;&gt;Node5</title>
<g id="a_edge15_Node000008_Node000005"><a xlink:title=" ">
<path fill="none" stroke="#63b8ff" d="M1198.78,-83.09C1307.21,-79.04 1496.64,-68.39 1656.7,-41 1665.08,-39.57 1673.9,-37.63 1682.4,-35.53"/>
<polygon fill="#63b8ff" stroke="#63b8ff" points="1198.41,-79.61 1188.55,-83.47 1198.67,-86.6 1198.41,-79.61"/>
</a>
</g>
</g>
<!-- Node9 -->
<g id="Node000009" class="node">
<title>Node9</title>
<g id="a_Node000009"><a xlink:href="GuiManager_8cpp.html" target="_top" xlink:title=" ">
<polygon fill="white" stroke="#666666" points="1512.2,-35.5 1395.2,-35.5 1395.2,-5.5 1512.2,-5.5 1512.2,-35.5"/>
<text text-anchor="start" x="1403.2" y="-23.5" font-family="Helvetica,sans-Serif" font-size="10.00">Engine/Source/Editor</text>
<text text-anchor="middle" x="1453.7" y="-12.5" font-family="Helvetica,sans-Serif" font-size="10.00">/GuiManager.cpp</text>
</a>
</g>
</g>
<!-- Node8&#45;&gt;Node9 -->
<g id="edge8_Node000008_Node000009" class="edge">
<title>Node8&#45;&gt;Node9</title>
<g id="a_edge8_Node000008_Node000009"><a xlink:title=" ">
<path fill="none" stroke="#63b8ff" d="M1187.34,-75.59C1242.77,-67.82 1319.27,-55.84 1385.7,-41 1392.77,-39.42 1400.19,-37.53 1407.43,-35.56"/>
<polygon fill="#63b8ff" stroke="#63b8ff" points="1186.67,-72.15 1177.24,-76.99 1187.63,-79.08 1186.67,-72.15"/>
</a>
</g>
</g>
<!-- Node10 -->
<g id="Node000010" class="node">
<title>Node10</title>
<g id="a_Node000010"><a xlink:href="ImGuiUI_8cpp.html" target="_top" xlink:title=" ">
<polygon fill="white" stroke="#666666" points="1647.2,-35.5 1530.2,-35.5 1530.2,-5.5 1647.2,-5.5 1647.2,-35.5"/>
<text text-anchor="start" x="1538.2" y="-23.5" font-family="Helvetica,sans-Serif" font-size="10.00">Engine/Source/Editor</text>
<text text-anchor="middle" x="1588.7" y="-12.5" font-family="Helvetica,sans-Serif" font-size="10.00">/ImGui/ImGuiUI.cpp</text>
</a>
</g>
</g>
<!-- Node8&#45;&gt;Node10 -->
<g id="edge9_Node000008_Node000010" class="edge">
<title>Node8&#45;&gt;Node10</title>
<g id="a_edge9_Node000008_Node000010"><a xlink:title=" ">
<path fill="none" stroke="#63b8ff" d="M1198.81,-80.45C1282.49,-74.59 1411.54,-62.82 1521.7,-41 1529.19,-39.52 1537.05,-37.58 1544.64,-35.51"/>
<polygon fill="#63b8ff" stroke="#63b8ff" points="1198.31,-76.97 1188.58,-81.15 1198.79,-83.95 1198.31,-76.97"/>
</a>
</g>
</g>
<!-- Node11 -->
<g id="Node000011" class="node">
<title>Node11</title>
<g id="a_Node000011"><a xlink:href="HierarchyPanel_8cpp.html" target="_top" xlink:title=" ">
<polygon fill="white" stroke="#666666" points="354.7,-41 202.7,-41 202.7,0 354.7,0 354.7,-41"/>
<text text-anchor="start" x="210.7" y="-29" font-family="Helvetica,sans-Serif" font-size="10.00">Engine/Source/Editor</text>
<text text-anchor="start" x="210.7" y="-18" font-family="Helvetica,sans-Serif" font-size="10.00">/Panels/Hierarchy/Hierarchy</text>
<text text-anchor="middle" x="278.7" y="-7" font-family="Helvetica,sans-Serif" font-size="10.00">Panel.cpp</text>
</a>
</g>
</g>
<!-- Node8&#45;&gt;Node11 -->
<g id="edge10_Node000008_Node000011" class="edge">
<title>Node8&#45;&gt;Node11</title>
<g id="a_edge10_Node000008_Node000011"><a xlink:title=" ">
<path fill="none" stroke="#63b8ff" d="M1022.72,-84.89C882.72,-82.89 600.92,-74.6 364.7,-41 361.52,-40.55 358.28,-40.04 355.01,-39.48"/>
<polygon fill="#63b8ff" stroke="#63b8ff" points="1022.91,-88.4 1032.96,-85.03 1023.01,-81.4 1022.91,-88.4"/>
</a>
</g>
</g>
<!-- Node12 -->
<g id="Node000012" class="node">
<title>Node12</title>
<g id="a_Node000012"><a xlink:href="InspectorPanel_8cpp.html" target="_top" xlink:title=" ">
<polygon fill="white" stroke="#666666" points="520.2,-41 373.2,-41 373.2,0 520.2,0 520.2,-41"/>
<text text-anchor="start" x="381.2" y="-29" font-family="Helvetica,sans-Serif" font-size="10.00">Engine/Source/Editor</text>
<text text-anchor="start" x="381.2" y="-18" font-family="Helvetica,sans-Serif" font-size="10.00">/Panels/Inspector/Inspector</text>
<text text-anchor="middle" x="446.7" y="-7" font-family="Helvetica,sans-Serif" font-size="10.00">Panel.cpp</text>
</a>
</g>
</g>
<!-- Node8&#45;&gt;Node12 -->
<g id="edge11_Node000008_Node000012" class="edge">
<title>Node8&#45;&gt;Node12</title>
<g id="a_edge11_Node000008_Node000012"><a xlink:title=" ">
<path fill="none" stroke="#63b8ff" d="M1022.64,-82.98C908.39,-78.75 703.16,-67.86 529.7,-41 526.63,-40.52 523.5,-40 520.35,-39.43"/>
<polygon fill="#63b8ff" stroke="#63b8ff" points="1022.61,-86.48 1032.73,-83.35 1022.86,-79.49 1022.61,-86.48"/>
</a>
</g>
</g>
<!-- Node13 -->
<g id="Node000013" class="node">
<title>Node13</title>
<g id="a_Node000013"><a xlink:href="ProjectBrowserPanel_8cpp.html" target="_top" xlink:title="ProjectBrowserPanelの実装。">
<polygon fill="white" stroke="#666666" points="678.7,-41 538.7,-41 538.7,0 678.7,0 678.7,-41"/>
<text text-anchor="start" x="546.7" y="-29" font-family="Helvetica,sans-Serif" font-size="10.00">Engine/Source/Editor</text>
<text text-anchor="start" x="546.7" y="-18" font-family="Helvetica,sans-Serif" font-size="10.00">/Panels/ProjectBrowser</text>
<text text-anchor="middle" x="608.7" y="-7" font-family="Helvetica,sans-Serif" font-size="10.00">/ProjectBrowserPanel.cpp</text>
</a>
</g>
</g>
<!-- Node8&#45;&gt;Node13 -->
<g id="edge12_Node000008_Node000013" class="edge">
<title>Node8&#45;&gt;Node13</title>
<g id="a_edge12_Node000008_Node000013"><a xlink:title=" ">
<path fill="none" stroke="#63b8ff" d="M1022.84,-79.79C936.94,-73.37 802.68,-61.14 687.7,-41 684.78,-40.49 681.8,-39.93 678.8,-39.33"/>
<polygon fill="#63b8ff" stroke="#63b8ff" points="1022.84,-83.3 1033.07,-80.54 1023.35,-76.32 1022.84,-83.3"/>
</a>
</g>
</g>
<!-- Node14 -->
<g id="Node000014" class="node">
<title>Node14</title>
<g id="a_Node000014"><a xlink:href="SceneViewPanel_8cpp.html" target="_top" xlink:title=" ">
<polygon fill="white" stroke="#666666" points="860.7,-41 696.7,-41 696.7,0 860.7,0 860.7,-41"/>
<text text-anchor="start" x="704.7" y="-29" font-family="Helvetica,sans-Serif" font-size="10.00">Engine/Source/Editor</text>
<text text-anchor="start" x="704.7" y="-18" font-family="Helvetica,sans-Serif" font-size="10.00">/Panels/SceneView/SceneView</text>
<text text-anchor="middle" x="778.7" y="-7" font-family="Helvetica,sans-Serif" font-size="10.00">Panel.cpp</text>
</a>
</g>
</g>
<!-- Node8&#45;&gt;Node14 -->
<g id="edge13_Node000008_Node000014" class="edge">
<title>Node8&#45;&gt;Node14</title>
<g id="a_edge13_Node000008_Node000014"><a xlink:title=" ">
<path fill="none" stroke="#63b8ff" d="M1052.08,-75.16C1003.22,-66.42 931.83,-53.39 869.7,-41 866.85,-40.43 863.95,-39.85 861.02,-39.25"/>
<polygon fill="#63b8ff" stroke="#63b8ff" points="1051.69,-78.64 1062.15,-76.96 1052.92,-71.75 1051.69,-78.64"/>
</a>
</g>
</g>
<!-- Node15 -->
<g id="Node000015" class="node">
<title>Node15</title>
<g id="a_Node000015"><a xlink:href="EditorFileSystem_8cpp.html" target="_top" xlink:title="EditorFileSystemの実装。">
<polygon fill="white" stroke="#666666" points="1026.7,-35.5 878.7,-35.5 878.7,-5.5 1026.7,-5.5 1026.7,-35.5"/>
<text text-anchor="start" x="886.7" y="-23.5" font-family="Helvetica,sans-Serif" font-size="10.00">Engine/Source/Editor</text>
<text text-anchor="middle" x="952.7" y="-12.5" font-family="Helvetica,sans-Serif" font-size="10.00">/Utils/EditorFileSystem.cpp</text>
</a>
</g>
</g>
<!-- Node8&#45;&gt;Node15 -->
<g id="edge14_Node000008_Node000015" class="edge">
<title>Node8&#45;&gt;Node15</title>
<g id="a_edge14_Node000008_Node000015"><a xlink:title=" ">
<path fill="none" stroke="#63b8ff" d="M1079.85,-73C1053.35,-62.27 1015.15,-46.8 987.55,-35.62"/>
<polygon fill="#63b8ff" stroke="#63b8ff" points="1078.81,-76.36 1089.39,-76.87 1081.44,-69.87 1078.81,-76.36"/>
</a>
</g>
</g>
<!-- Node16 -->
<g id="Node000016" class="node">
<title>Node16</title>
<g id="a_Node000016"><a xlink:href="AssetRegistry_8cpp.html" target="_top" xlink:title="AssetRegistryの実装。">
<polygon fill="white" stroke="#666666" points="1198.7,-35.5 1044.7,-35.5 1044.7,-5.5 1198.7,-5.5 1198.7,-35.5"/>
<text text-anchor="start" x="1052.7" y="-23.5" font-family="Helvetica,sans-Serif" font-size="10.00">Engine/Source/Runtime</text>
<text text-anchor="middle" x="1121.7" y="-12.5" font-family="Helvetica,sans-Serif" font-size="10.00">/Resource/AssetRegistry.cpp</text>
</a>
</g>
</g>
<!-- Node8&#45;&gt;Node16 -->
<g id="edge16_Node000008_Node000016" class="edge">
<title>Node8&#45;&gt;Node16</title>
<g id="a_edge16_Node000008_Node000016"><a xlink:title=" ">
<path fill="none" stroke="#63b8ff" d="M1113.9,-66.85C1115.6,-56.97 1117.66,-45.01 1119.23,-35.86"/>
<polygon fill="#63b8ff" stroke="#63b8ff" points="1110.43,-66.42 1112.18,-76.87 1117.33,-67.61 1110.43,-66.42"/>
</a>
</g>
</g>
<!-- Node17 -->
<g id="Node000017" class="node">
<title>Node17</title>
<g id="a_Node000017"><a xlink:href="AssetSerializer_8cpp.html" target="_top" xlink:title="AssetSerializerの実装。">
<polygon fill="white" stroke="#666666" points="1376.7,-35.5 1216.7,-35.5 1216.7,-5.5 1376.7,-5.5 1376.7,-35.5"/>
<text text-anchor="start" x="1224.7" y="-23.5" font-family="Helvetica,sans-Serif" font-size="10.00">Engine/Source/Runtime</text>
<text text-anchor="middle" x="1296.7" y="-12.5" font-family="Helvetica,sans-Serif" font-size="10.00">/Resource/AssetSerializer.cpp</text>
</a>
</g>
</g>
<!-- Node8&#45;&gt;Node17 -->
<g id="edge17_Node000008_Node000017" class="edge">
<title>Node8&#45;&gt;Node17</title>
<g id="a_edge17_Node000008_Node000017"><a xlink:title=" ">
<path fill="none" stroke="#63b8ff" d="M1145.38,-73.57C1176.63,-62.81 1222.61,-46.99 1255.68,-35.62"/>
<polygon fill="#63b8ff" stroke="#63b8ff" points="1144.1,-70.31 1135.78,-76.87 1146.38,-76.92 1144.1,-70.31"/>
</a>
</g>
</g>
<!-- Node18&#45;&gt;Node8 -->
<g id="edge19_Node000018_Node000008" class="edge">
<title>Node18&#45;&gt;Node8</title>
<g id="a_edge19_Node000018_Node000008"><a xlink:title=" ">
<path fill="none" stroke="#63b8ff" d="M1274.56,-129.45C1229.58,-117.93 1177.14,-104.51 1143.93,-96.01"/>
<polygon fill="#63b8ff" stroke="#63b8ff" points="1273.78,-132.86 1284.33,-131.95 1275.51,-126.08 1273.78,-132.86"/>
</a>
</g>
</g>
<!-- Node19&#45;&gt;Node8 -->
<g id="edge22_Node000019_Node000008" class="edge">
<title>Node19&#45;&gt;Node8</title>
<g id="a_edge22_Node000019_Node000008"><a xlink:title=" ">
<path fill="none" stroke="#63b8ff" d="M1032.98,-132.31C1053.93,-120.23 1079.94,-105.23 1095.93,-96.02"/>
<polygon fill="#63b8ff" stroke="#63b8ff" points="1030.97,-129.43 1024.06,-137.45 1034.47,-135.49 1030.97,-129.43"/>
</a>
</g>
</g>
<!-- Node20&#45;&gt;Node8 -->
<g id="edge55_Node000020_Node000008" class="edge">
<title>Node20&#45;&gt;Node8</title>
<g id="a_edge55_Node000020_Node000008"><a xlink:title=" ">
<path fill="none" stroke="#63b8ff" d="M1532.9,-342.07C1519.32,-288.01 1483.98,-159.1 1449.7,-132 1410.41,-100.94 1275.62,-91.49 1188.3,-88.66"/>
<polygon fill="#63b8ff" stroke="#63b8ff" points="1529.52,-342.96 1535.32,-351.82 1536.31,-341.28 1529.52,-342.96"/>
</a>
</g>
</g>
<!-- Node21 -->
<g id="Node000021" class="node">
<title>Node21</title>
<g id="a_Node000021"><a xlink:href="SpanReflection_8h.html" target="_top" xlink:title="コンポーネント定義用のリフレクションマクロ。">
<polygon fill="white" stroke="#666666" points="1103.2,-316 950.2,-316 950.2,-286 1103.2,-286 1103.2,-316"/>
<text text-anchor="start" x="958.2" y="-304" font-family="Helvetica,sans-Serif" font-size="10.00">Engine/Source/Runtime</text>
<text text-anchor="middle" x="1026.7" y="-293" font-family="Helvetica,sans-Serif" font-size="10.00">/Reflection/SpanReflection.h</text>
</a>
</g>
</g>
<!-- Node20&#45;&gt;Node21 -->
<g id="edge24_Node000020_Node000021" class="edge">
<title>Node20&#45;&gt;Node21</title>
<g id="a_edge24_Node000020_Node000021"><a xlink:title=" ">
<path fill="none" stroke="#63b8ff" d="M1440.75,-353.76C1342.59,-341.49 1193.49,-322.85 1103.55,-311.61"/>
<polygon fill="#63b8ff" stroke="#63b8ff" points="1440.33,-357.23 1450.68,-355 1441.19,-350.28 1440.33,-357.23"/>
</a>
</g>
</g>
<!-- Node21&#45;&gt;Node8 -->
<g id="edge54_Node000021_Node000008" class="edge">
<title>Node21&#45;&gt;Node8</title>
<g id="a_edge54_Node000021_Node000008"><a xlink:title=" ">
<path fill="none" stroke="#63b8ff" d="M1070.61,-281.07C1084.48,-273.22 1098.76,-262.89 1108.7,-250 1141.32,-207.68 1143.38,-184.14 1131.7,-132 1128.75,-118.83 1121.44,-104.97 1116.28,-96.28"/>
<polygon fill="#63b8ff" stroke="#63b8ff" points="1068.79,-278.08 1061.61,-285.87 1072.08,-284.25 1068.79,-278.08"/>
</a>
</g>
</g>
<!-- Node22 -->
<g id="Node000022" class="node">
<title>Node22</title>
<g id="a_Node000022"><a xlink:href="Layer_8h.html" target="_top" xlink:title="物理演算やレンダリングのレイヤー分け。">
<polygon fill="white" stroke="#666666" points="1099.2,-244.5 954.2,-244.5 954.2,-214.5 1099.2,-214.5 1099.2,-244.5"/>
<text text-anchor="start" x="962.2" y="-232.5" font-family="Helvetica,sans-Serif" font-size="10.00">Engine/Source/Runtime</text>
<text text-anchor="middle" x="1026.7" y="-221.5" font-family="Helvetica,sans-Serif" font-size="10.00">/Components/Core/Layer.h</text>
</a>
</g>
</g>
<!-- Node21&#45;&gt;Node22 -->
<g id="edge25_Node000021_Node000022" class="edge">
<title>Node21&#45;&gt;Node22</title>
<g id="a_edge25_Node000021_Node000022"><a xlink:title=" ">
<path fill="none" stroke="#63b8ff" d="M1026.7,-275.75C1026.7,-265.31 1026.7,-253.49 1026.7,-244.54"/>
<polygon fill="#63b8ff" stroke="#63b8ff" points="1023.2,-275.94 1026.7,-285.94 1030.2,-275.94 1023.2,-275.94"/>
</a>
</g>
</g>
<!-- Node23 -->
<g id="Node000023" class="node">
<title>Node23</title>
<g id="a_Node000023"><a xlink:href="Name_8h.html" target="_top" xlink:title="エンティティの名前">
<polygon fill="white" stroke="#666666" points="782.7,-244.5 634.7,-244.5 634.7,-214.5 782.7,-214.5 782.7,-244.5"/>
<text text-anchor="start" x="642.7" y="-232.5" font-family="Helvetica,sans-Serif" font-size="10.00">Engine/Source/Runtime</text>
<text text-anchor="middle" x="708.7" y="-221.5" font-family="Helvetica,sans-Serif" font-size="10.00">/Components/Core/Name.h</text>
</a>
</g>
</g>
<!-- Node21&#45;&gt;Node23 -->
<g id="edge28_Node000021_Node000023" class="edge">
<title>Node21&#45;&gt;Node23</title>
<g id="a_edge28_Node000021_Node000023"><a xlink:title=" ">
<path fill="none" stroke="#63b8ff" d="M949.72,-283.91C904.04,-274.27 845.02,-261.66 792.7,-250 784.95,-248.27 776.82,-246.43 768.78,-244.58"/>
<polygon fill="#63b8ff" stroke="#63b8ff" points="949.05,-287.34 959.56,-285.98 950.49,-280.49 949.05,-287.34"/>
</a>
</g>
</g>
<!-- Node24 -->
<g id="Node000024" class="node">
<title>Node24</title>
<g id="a_Node000024"><a xlink:href="Tag_8h.html" target="_top" xlink:title="エンティティのタグ分類">
<polygon fill="white" stroke="#666666" points="936.2,-244.5 801.2,-244.5 801.2,-214.5 936.2,-214.5 936.2,-244.5"/>
<text text-anchor="start" x="809.2" y="-232.5" font-family="Helvetica,sans-Serif" font-size="10.00">Engine/Source/Runtime</text>
<text text-anchor="middle" x="868.7" y="-221.5" font-family="Helvetica,sans-Serif" font-size="10.00">/Components/Core/Tag.h</text>
</a>
</g>
</g>
<!-- Node21&#45;&gt;Node24 -->
<g id="edge31_Node000021_Node000024" class="edge">
<title>Node21&#45;&gt;Node24</title>
<g id="a_edge31_Node000021_Node000024"><a xlink:title=" ">
<path fill="none" stroke="#63b8ff" d="M985.34,-281.81C958.86,-270.16 925.03,-255.28 900.63,-244.54"/>
<polygon fill="#63b8ff" stroke="#63b8ff" points="984.16,-285.11 994.73,-285.94 986.98,-278.71 984.16,-285.11"/>
</a>
</g>
</g>
<!-- Node25 -->
<g id="Node000025" class="node">
<title>Node25</title>
<g id="a_Node000025"><a xlink:href="Transform_8h.html" target="_top" xlink:title="位置、回転、拡大縮小を管理するコンポーネント。">
<polygon fill="white" stroke="#666666" points="579.2,-244.5 412.2,-244.5 412.2,-214.5 579.2,-214.5 579.2,-244.5"/>
<text text-anchor="start" x="420.2" y="-232.5" font-family="Helvetica,sans-Serif" font-size="10.00">Engine/Source/Runtime</text>
<text text-anchor="middle" x="495.7" y="-221.5" font-family="Helvetica,sans-Serif" font-size="10.00">/Components/Core/Transform.h</text>
</a>
</g>
</g>
<!-- Node21&#45;&gt;Node25 -->
<g id="edge34_Node000021_Node000025" class="edge">
<title>Node21&#45;&gt;Node25</title>
<g id="a_edge34_Node000021_Node000025"><a xlink:title=" ">
<path fill="none" stroke="#63b8ff" d="M939.94,-289.81C858.67,-280.12 733.85,-264.85 625.7,-250 610.66,-247.94 594.67,-245.63 579.22,-243.34"/>
<polygon fill="#63b8ff" stroke="#63b8ff" points="939.78,-293.32 950.12,-291.03 940.61,-286.37 939.78,-293.32"/>
</a>
</g>
</g>
<!-- Node29 -->
<g id="Node000029" class="node">
<title>Node29</title>
<g id="a_Node000029"><a xlink:href="Camera_8h.html" target="_top" xlink:title="レンダリング視点を定義するカメラコンポーネント。">
<polygon fill="white" stroke="#666666" points="384.7,-250 254.7,-250 254.7,-209 384.7,-209 384.7,-250"/>
<text text-anchor="start" x="262.7" y="-238" font-family="Helvetica,sans-Serif" font-size="10.00">Engine/Source/Runtime</text>
<text text-anchor="start" x="262.7" y="-227" font-family="Helvetica,sans-Serif" font-size="10.00">/Components/Graphics</text>
<text text-anchor="middle" x="319.7" y="-216" font-family="Helvetica,sans-Serif" font-size="10.00">/Camera.h</text>
</a>
</g>
</g>
<!-- Node21&#45;&gt;Node29 -->
<g id="edge44_Node000021_Node000029" class="edge">
<title>Node21&#45;&gt;Node29</title>
<g id="a_edge44_Node000021_Node000029"><a xlink:title=" ">
<path fill="none" stroke="#63b8ff" d="M939.73,-297.08C818.88,-292.11 593.58,-279.49 403.7,-250 397.63,-249.06 391.36,-247.92 385.09,-246.67"/>
<polygon fill="#63b8ff" stroke="#63b8ff" points="939.9,-300.59 950.03,-297.5 940.18,-293.6 939.9,-300.59"/>
</a>
</g>
</g>
<!-- Node30 -->
<g id="Node000030" class="node">
<title>Node30</title>
<g id="a_Node000030"><a xlink:href="MeshFilter_8h.html" target="_top" xlink:title="描画する形状 (メッシュ) への参照。">
<polygon fill="white" stroke="#666666" points="1433.7,-250 1303.7,-250 1303.7,-209 1433.7,-209 1433.7,-250"/>
<text text-anchor="start" x="1311.7" y="-238" font-family="Helvetica,sans-Serif" font-size="10.00">Engine/Source/Runtime</text>
<text text-anchor="start" x="1311.7" y="-227" font-family="Helvetica,sans-Serif" font-size="10.00">/Components/Graphics</text>
<text text-anchor="middle" x="1368.7" y="-216" font-family="Helvetica,sans-Serif" font-size="10.00">/MeshFilter.h</text>
</a>
</g>
</g>
<!-- Node21&#45;&gt;Node30 -->
<g id="edge48_Node000021_Node000030" class="edge">
<title>Node21&#45;&gt;Node30</title>
<g id="a_edge48_Node000021_Node000030"><a xlink:title=" ">
<path fill="none" stroke="#63b8ff" d="M1113.22,-285.51C1165.88,-276.29 1234.4,-263.55 1294.7,-250 1297.55,-249.36 1300.46,-248.68 1303.39,-247.99"/>
<polygon fill="#63b8ff" stroke="#63b8ff" points="1112.5,-282.09 1103.25,-287.25 1113.7,-288.98 1112.5,-282.09"/>
</a>
</g>
</g>
<!-- Node31 -->
<g id="Node000031" class="node">
<title>Node31</title>
<g id="a_Node000031"><a xlink:href="MeshRenderer_8h.html" target="_top" xlink:title="メッシュの描画設定とマテリアル参照。">
<polygon fill="white" stroke="#666666" points="1285.7,-250 1155.7,-250 1155.7,-209 1285.7,-209 1285.7,-250"/>
<text text-anchor="start" x="1163.7" y="-238" font-family="Helvetica,sans-Serif" font-size="10.00">Engine/Source/Runtime</text>
<text text-anchor="start" x="1163.7" y="-227" font-family="Helvetica,sans-Serif" font-size="10.00">/Components/Graphics</text>
<text text-anchor="middle" x="1220.7" y="-216" font-family="Helvetica,sans-Serif" font-size="10.00">/MeshRenderer.h</text>
</a>
</g>
</g>
<!-- Node21&#45;&gt;Node31 -->
<g id="edge51_Node000021_Node000031" class="edge">
<title>Node21&#45;&gt;Node31</title>
<g id="a_edge51_Node000021_Node000031"><a xlink:title=" ">
<path fill="none" stroke="#63b8ff" d="M1075.4,-282.55C1102.98,-272.67 1137.56,-260.28 1166.06,-250.07"/>
<polygon fill="#63b8ff" stroke="#63b8ff" points="1074.19,-279.27 1065.96,-285.94 1076.55,-285.86 1074.19,-279.27"/>
</a>
</g>
</g>
<!-- Node22&#45;&gt;Node8 -->
<g id="edge27_Node000022_Node000008" class="edge">
<title>Node22&#45;&gt;Node8</title>
<g id="a_edge27_Node000022_Node000008"><a xlink:title=" ">
<path fill="none" stroke="#63b8ff" d="M1074.66,-209.71C1090.29,-201.02 1105.88,-189 1114.7,-173 1128.48,-148.02 1119.34,-112.41 1113.91,-96.18"/>
<polygon fill="#63b8ff" stroke="#63b8ff" points="1072.77,-206.74 1065.5,-214.44 1075.99,-212.96 1072.77,-206.74"/>
</a>
</g>
</g>
<!-- Node22&#45;&gt;Node19 -->
<g id="edge26_Node000022_Node000019" class="edge">
<title>Node22&#45;&gt;Node19</title>
<g id="a_edge26_Node000022_Node000019"><a xlink:title=" ">
<path fill="none" stroke="#63b8ff" d="M1018.16,-204.78C1013.75,-192.53 1008.52,-178 1004.76,-167.54"/>
<polygon fill="#63b8ff" stroke="#63b8ff" points="1014.94,-206.17 1021.62,-214.39 1021.53,-203.8 1014.94,-206.17"/>
</a>
</g>
</g>
<!-- Node23&#45;&gt;Node8 -->
<g id="edge30_Node000023_Node000008" class="edge">
<title>Node23&#45;&gt;Node8</title>
<g id="a_edge30_Node000023_Node000008"><a xlink:title=" ">
<path fill="none" stroke="#63b8ff" d="M771.46,-211.72C812.35,-200.11 861.38,-184.71 879.7,-173 900.64,-159.62 896.2,-144.45 917.7,-132 952.66,-111.75 996.19,-100.71 1033.05,-94.7"/>
<polygon fill="#63b8ff" stroke="#63b8ff" points="770.48,-208.36 761.8,-214.43 772.38,-215.1 770.48,-208.36"/>
</a>
</g>
</g>
<!-- Node23&#45;&gt;Node19 -->
<g id="edge29_Node000023_Node000019" class="edge">
<title>Node23&#45;&gt;Node19</title>
<g id="a_edge29_Node000023_Node000019"><a xlink:title=" ">
<path fill="none" stroke="#63b8ff" d="M772.81,-211.98C824.42,-198.68 896.17,-180.18 945.08,-167.58"/>
<polygon fill="#63b8ff" stroke="#63b8ff" points="771.9,-208.6 763.09,-214.48 773.65,-215.37 771.9,-208.6"/>
</a>
</g>
</g>
<!-- Node24&#45;&gt;Node8 -->
<g id="edge33_Node000024_Node000008" class="edge">
<title>Node24&#45;&gt;Node8</title>
<g id="a_edge33_Node000024_Node000008"><a xlink:title=" ">
<path fill="none" stroke="#63b8ff" d="M933.65,-211.96C995.78,-196.09 1080.29,-174.31 1081.7,-173 1104.08,-152.18 1109.19,-113.47 1110.36,-96.2"/>
<polygon fill="#63b8ff" stroke="#63b8ff" points="932.71,-208.59 923.88,-214.46 934.44,-215.37 932.71,-208.59"/>
</a>
</g>
</g>
<!-- Node24&#45;&gt;Node19 -->
<g id="edge32_Node000024_Node000019" class="edge">
<title>Node24&#45;&gt;Node19</title>
<g id="a_edge32_Node000024_Node000019"><a xlink:title=" ">
<path fill="none" stroke="#63b8ff" d="M902.32,-209.25C925.07,-196.23 954.62,-179.31 975.17,-167.54"/>
<polygon fill="#63b8ff" stroke="#63b8ff" points="900.28,-206.39 893.34,-214.39 903.76,-212.46 900.28,-206.39"/>
</a>
</g>
</g>
<!-- Node25&#45;&gt;Node7 -->
<g id="edge40_Node000025_Node000007" class="edge">
<title>Node25&#45;&gt;Node7</title>
<g id="a_edge40_Node000025_Node000007"><a xlink:title=" ">
<path fill="none" stroke="#63b8ff" d="M513.8,-206.6C524.23,-193.99 537.01,-178.53 546.09,-167.54"/>
<polygon fill="#63b8ff" stroke="#63b8ff" points="511.03,-204.46 507.36,-214.39 516.43,-208.92 511.03,-204.46"/>
</a>
</g>
</g>
<!-- Node25&#45;&gt;Node8 -->
<g id="edge43_Node000025_Node000008" class="edge">
<title>Node25&#45;&gt;Node8</title>
<g id="a_edge43_Node000025_Node000008"><a xlink:title=" ">
<path fill="none" stroke="#63b8ff" d="M473.4,-207.17C453.89,-185.96 431.54,-153.56 451.7,-132 490.66,-90.32 867.26,-86.55 1033.03,-86.94"/>
<polygon fill="#63b8ff" stroke="#63b8ff" points="470.93,-209.65 480.38,-214.44 475.98,-204.8 470.93,-209.65"/>
</a>
</g>
</g>
<!-- Node25&#45;&gt;Node19 -->
<g id="edge35_Node000025_Node000019" class="edge">
<title>Node25&#45;&gt;Node19</title>
<g id="a_edge35_Node000025_Node000019"><a xlink:title=" ">
<path fill="none" stroke="#63b8ff" d="M572.22,-212.57C579.13,-211.3 586.04,-210.09 592.7,-209 719.58,-188.32 752.46,-191.31 879.7,-173 894.85,-170.82 911.04,-168.31 926.47,-165.83"/>
<polygon fill="#63b8ff" stroke="#63b8ff" points="571.29,-209.19 562.11,-214.48 572.58,-216.07 571.29,-209.19"/>
</a>
</g>
</g>
<!-- Node26 -->
<g id="Node000026" class="node">
<title>Node26</title>
<g id="a_Node000026"><a xlink:href="RelationshipSystem_8h.html" target="_top" xlink:title="エンティティ間の親子・兄弟関係 (階層構造) を操作するシステム。">
<polygon fill="white" stroke="#666666" points="870.2,-167.5 673.2,-167.5 673.2,-137.5 870.2,-137.5 870.2,-167.5"/>
<text text-anchor="start" x="681.2" y="-155.5" font-family="Helvetica,sans-Serif" font-size="10.00">Engine/Source/Runtime</text>
<text text-anchor="middle" x="771.7" y="-144.5" font-family="Helvetica,sans-Serif" font-size="10.00">/Systems/Core/RelationshipSystem.h</text>
</a>
</g>
</g>
<!-- Node25&#45;&gt;Node26 -->
<g id="edge36_Node000025_Node000026" class="edge">
<title>Node25&#45;&gt;Node26</title>
<g id="a_edge36_Node000025_Node000026"><a xlink:title=" ">
<path fill="none" stroke="#63b8ff" d="M557.12,-211.81C606.02,-198.52 673.7,-180.13 719.89,-167.58"/>
<polygon fill="#63b8ff" stroke="#63b8ff" points="556.02,-208.48 547.29,-214.48 557.86,-215.24 556.02,-208.48"/>
</a>
</g>
</g>
<!-- Node25&#45;&gt;Node27 -->
<g id="edge38_Node000025_Node000027" class="edge">
<title>Node25&#45;&gt;Node27</title>
<g id="a_edge38_Node000025_Node000027"><a xlink:title=" ">
<path fill="none" stroke="#63b8ff" d="M414.9,-212.47C347.58,-199.11 252.65,-180.28 188.33,-167.51"/>
<polygon fill="#63b8ff" stroke="#63b8ff" points="414.55,-215.97 425.04,-214.48 415.92,-209.1 414.55,-215.97"/>
</a>
</g>
</g>
<!-- Node28 -->
<g id="Node000028" class="node">
<title>Node28</title>
<g id="a_Node000028"><a xlink:href="EditorCameraSystem_8h.html" target="_top" xlink:title="エディタ用フリーカメラの操作システム">
<polygon fill="white" stroke="#666666" points="405.2,-173 228.2,-173 228.2,-132 405.2,-132 405.2,-173"/>
<text text-anchor="start" x="236.2" y="-161" font-family="Helvetica,sans-Serif" font-size="10.00">Engine/Source/Runtime</text>
<text text-anchor="start" x="236.2" y="-150" font-family="Helvetica,sans-Serif" font-size="10.00">/Systems/Graphics/EditorCamera</text>
<text text-anchor="middle" x="316.7" y="-139" font-family="Helvetica,sans-Serif" font-size="10.00">System.h</text>
</a>
</g>
</g>
<!-- Node25&#45;&gt;Node28 -->
<g id="edge41_Node000025_Node000028" class="edge">
<title>Node25&#45;&gt;Node28</title>
<g id="a_edge41_Node000025_Node000028"><a xlink:title=" ">
<path fill="none" stroke="#63b8ff" d="M452.49,-210.4C425.57,-199.12 390.94,-184.61 363.39,-173.06"/>
<polygon fill="#63b8ff" stroke="#63b8ff" points="451.46,-213.76 462.03,-214.39 454.16,-207.3 451.46,-213.76"/>
</a>
</g>
</g>
<!-- Node26&#45;&gt;Node8 -->
<g id="edge37_Node000026_Node000008" class="edge">
<title>Node26&#45;&gt;Node8</title>
<g id="a_edge37_Node000026_Node000008"><a xlink:title=" ">
<path fill="none" stroke="#63b8ff" d="M856.12,-135.56C922.46,-123.04 1012.28,-106.08 1065.58,-96.02"/>
<polygon fill="#63b8ff" stroke="#63b8ff" points="855.27,-132.16 846.09,-137.45 856.57,-139.04 855.27,-132.16"/>
</a>
</g>
</g>
<!-- Node27&#45;&gt;Node8 -->
<g id="edge39_Node000027_Node000008" class="edge">
<title>Node27&#45;&gt;Node8</title>
<g id="a_edge39_Node000027_Node000008"><a xlink:title=" ">
<path fill="none" stroke="#63b8ff" d="M193.98,-135.72C202.63,-134.29 211.34,-133 219.7,-132 518.8,-96.12 877.73,-89.07 1032.93,-87.76"/>
<polygon fill="#63b8ff" stroke="#63b8ff" points="193.14,-132.32 183.88,-137.46 194.33,-139.21 193.14,-132.32"/>
</a>
</g>
</g>
<!-- Node28&#45;&gt;Node8 -->
<g id="edge42_Node000028_Node000008" class="edge">
<title>Node28&#45;&gt;Node8</title>
<g id="a_edge42_Node000028_Node000008"><a xlink:title=" ">
<path fill="none" stroke="#63b8ff" d="M415.4,-132.43C416.5,-132.28 417.6,-132.14 418.7,-132 640.53,-103.77 904.77,-93.08 1033.08,-89.34"/>
<polygon fill="#63b8ff" stroke="#63b8ff" points="414.73,-128.99 405.33,-133.87 415.72,-135.92 414.73,-128.99"/>
</a>
</g>
</g>
<!-- Node29&#45;&gt;Node7 -->
<g id="edge45_Node000029_Node000007" class="edge">
<title>Node29&#45;&gt;Node7</title>
<g id="a_edge45_Node000029_Node000007"><a xlink:title=" ">
<path fill="none" stroke="#63b8ff" d="M391.22,-205.96C430.79,-193.49 478.75,-178.38 513.01,-167.58"/>
<polygon fill="#63b8ff" stroke="#63b8ff" points="390.1,-202.65 381.61,-208.99 392.2,-209.32 390.1,-202.65"/>
</a>
</g>
</g>
<!-- Node29&#45;&gt;Node8 -->
<g id="edge47_Node000029_Node000008" class="edge">
<title>Node29&#45;&gt;Node8</title>
<g id="a_edge47_Node000029_Node000008"><a xlink:title=" ">
<path fill="none" stroke="#63b8ff" d="M244.35,-227.33C133.06,-223.19 -54.87,-205.49 15.7,-132 50.87,-95.37 788.98,-88.89 1033.09,-87.74"/>
<polygon fill="#63b8ff" stroke="#63b8ff" points="244.42,-230.84 254.54,-227.68 244.66,-223.84 244.42,-230.84"/>
</a>
</g>
</g>
<!-- Node29&#45;&gt;Node28 -->
<g id="edge46_Node000029_Node000028" class="edge">
<title>Node29&#45;&gt;Node28</title>
<g id="a_edge46_Node000029_Node000028"><a xlink:title=" ">
<path fill="none" stroke="#63b8ff" d="M318.51,-198.69C318.16,-190.08 317.8,-180.9 317.48,-173.07"/>
<polygon fill="#63b8ff" stroke="#63b8ff" points="315.01,-198.94 318.91,-208.79 322.01,-198.66 315.01,-198.94"/>
</a>
</g>
</g>
<!-- Node30&#45;&gt;Node8 -->
<g id="edge50_Node000030_Node000008" class="edge">
<title>Node30&#45;&gt;Node8</title>
<g id="a_edge50_Node000030_Node000008"><a xlink:title=" ">
<path fill="none" stroke="#63b8ff" d="M1323.38,-203.75C1306.9,-194.45 1288.26,-183.56 1271.7,-173 1245.08,-156.03 1241.23,-147.45 1213.7,-132 1187.54,-117.31 1155.58,-104.19 1134.27,-96.07"/>
<polygon fill="#63b8ff" stroke="#63b8ff" points="1321.85,-206.91 1332.28,-208.75 1325.27,-200.8 1321.85,-206.91"/>
</a>
</g>
</g>
<!-- Node30&#45;&gt;Node18 -->
<g id="edge49_Node000030_Node000018" class="edge">
<title>Node30&#45;&gt;Node18</title>
<g id="a_edge49_Node000030_Node000018"><a xlink:title=" ">
<path fill="none" stroke="#63b8ff" d="M1365.52,-198.69C1364.6,-190.08 1363.62,-180.9 1362.79,-173.07"/>
<polygon fill="#63b8ff" stroke="#63b8ff" points="1362.06,-199.22 1366.6,-208.79 1369.02,-198.48 1362.06,-199.22"/>
</a>
</g>
</g>
<!-- Node31&#45;&gt;Node8 -->
<g id="edge53_Node000031_Node000008" class="edge">
<title>Node31&#45;&gt;Node8</title>
<g id="a_edge53_Node000031_Node000008"><a xlink:title=" ">
<path fill="none" stroke="#63b8ff" d="M1217.32,-198.61C1213.67,-178 1206.15,-151.02 1190.7,-132 1176.77,-114.85 1154.38,-103.21 1136.83,-96.14"/>
<polygon fill="#63b8ff" stroke="#63b8ff" points="1213.89,-199.38 1218.89,-208.72 1220.81,-198.3 1213.89,-199.38"/>
</a>
</g>
</g>
<!-- Node31&#45;&gt;Node18 -->
<g id="edge52_Node000031_Node000018" class="edge">
<title>Node31&#45;&gt;Node18</title>
<g id="a_edge52_Node000031_Node000018"><a xlink:title=" ">
<path fill="none" stroke="#63b8ff" d="M1266.07,-204.19C1284.81,-194.15 1306.25,-182.67 1323.98,-173.17"/>
<polygon fill="#63b8ff" stroke="#63b8ff" points="1264.28,-201.18 1257.12,-208.99 1267.58,-207.35 1264.28,-201.18"/>
</a>
</g>
</g>
</g>
</svg>

<g id="navigator" transform="translate(0 0)" fill="#404254">
  <rect fill="#f2f5e9" fill-opacity="0.5" stroke="#606060" stroke-width=".5" x="0" y="0" width="60" height="60"/>
  <use id="zoomplus" xlink:href="#zoomPlus" x="17" y="9" onmousedown="handleZoom(evt,'in')"/>
  <use id="zoomminus" xlink:href="#zoomMin" x="42" y="9" onmousedown="handleZoom(evt,'out')"/>
  <use id="reset" xlink:href="#resetDef" x="30" y="36" onmousedown="handleReset()"/>
   <use id="arrowup" xlink:href="#arrowUp" x="0" y="0" onmousedown="handlePan(0,-1)"/>
  <use id="arrowright" xlink:href="#arrowRight" x="0" y="0" onmousedown="handlePan(1,0)"/>
  <use id="arrowdown" xlink:href="#arrowDown" x="0" y="0" onmousedown="handlePan(0,1)"/>
  <use id="arrowleft" xlink:href="#arrowLeft" x="0" y="0" onmousedown="handlePan(-1,0)"/>
</g>
<svg viewBox="0 0 15 15" width="100%" height="30px" preserveAspectRatio="xMaxYMin meet">
 <g id="arrow_out" transform="scale(0.3 0.3)">
  <a xlink:href="EntityManager_8h__dep__incl_org.svg" target="_base">
   <rect id="button" ry="5" rx="5" y="6" x="6" height="38" width="38"
        fill="#f2f5e9" fill-opacity="0.5" stroke="#606060" stroke-width="1.0"/>
   <path id="arrow"
     d="M 11.500037,31.436501 C 11.940474,20.09759 22.043105,11.32322 32.158766,21.979434 L 37.068811,17.246167 C 37.068811,17.246167 37.088388,32 37.088388,32 L 22.160133,31.978069 C 22.160133,31.978069 26.997745,27.140456 26.997745,27.140456 C 18.528582,18.264221 13.291696,25.230495 11.500037,31.436501 z"
     style="fill:#404040;"/>
  </a>
 </g>
</svg>

<style type='text/css'>
<![CDATA[
[data-mouse-over-selected='false'] { opacity: 0.7; }
[data-mouse-over-selected='true']  { opacity: 1.0; }
]]>
</style>
<script type="application/ecmascript"><![CDATA[
document.addEventListener('DOMContentLoaded', (event) => {
  highlightEdges();
  highlightAdjacentNodes();
});
]]></script>
</svg>
