<?xml version="1.0" encoding="UTF-8" standalone="no"?>
<!DOCTYPE svg PUBLIC "-//W3C//DTD SVG 1.1//EN"
 "http://www.w3.org/Graphics/SVG/1.1/DTD/svg11.dtd">
<!-- Generated by graphviz version 2.43.0 (0)
 -->
<!-- Title: Engine/Source/Runtime/ECS/Kernel/EntityBuilder.h Pages: 1 -->
<!--zoomable 324 -->

<svg id="main" version="1.1" xmlns="http://www.w3.org/2000/svg" xmlns:xlink="http://www.w3.org/1999/xlink" xml:space="preserve" onload="init(evt)">

<style type="text/css"><![CDATA[
.node, .edge {opacity: 0.7;}
.node.selected, .edge.selected {opacity: 1;}
.edge:hover path { stroke: red; }
.edge:hover polygon { stroke: red; fill: red; }
]]></style>

<defs>
  <circle id="rim" cx="0" cy="0" r="7"/>
  <circle id="rim2" cx="0" cy="0" r="3.5"/>
  <g id="zoomPlus">
    <use xlink:href="#rim" fill="#404040"><set attributeName="fill" to="#808080" begin="zoomplus.mouseover" end="zoomplus.mouseout"/></use>
    <path d="M-4,0h8M0,-4v8" fill="none" stroke="white" stroke-width="1.5" pointer-events="none"/>
  </g>
  <g id="zoomMin">
    <use xlink:href="#rim" fill="#404040"><set attributeName="fill" to="#808080" begin="zoomminus.mouseover" end="zoomminus.mouseout"/></use>
    <path d="M-4,0h8" fill="none" stroke="white" stroke-width="1.5" pointer-events="none"/>
  </g>
  <g id="arrowUp" transform="translate(30 24)">
    <use xlink:href="#rim"/>
    <path pointer-events="none" fill="none" stroke="white" stroke-width="1.5" d="M0,-3.0v7 M-2.5,-0.5L0,-3.0L2.5,-0.5"/>
  </g>
  <g id="arrowRight" transform="rotate(90) translate(36 -43)">
    <use xlink:href="#rim"/>
    <path pointer-events="none" fill="none" stroke="white" stroke-width="1.5" d="M0,-3.0v7 M-2.5,-0.5L0,-3.0L2.5,-0.5"/>
  </g>
  <g id="arrowDown" transform="rotate(180) translate(-30 -48)">
    <use xlink:href="#rim"/>
    <path pointer-events="none" fill="none" stroke="white" stroke-width="1.5" d="M0,-3.0v7 M-2.5,-0.5L0,-3.0L2.5,-0.5"/>
  </g>
  <g id="arrowLeft" transform="rotate(270) translate(-36 17)">
    <use xlink:href="#rim"/>
    <path pointer-events="none" fill="none" stroke="white" stroke-width="1.5" d="M0,-3.0v7 M-2.5,-0.5L0,-3.0L2.5,-0.5"/>
  </g>
  <g id="resetDef">
    <use xlink:href="#rim2" fill="#404040"><set attributeName="fill" to="#808080" begin="reset.mouseover" end="reset.mouseout"/></use>
  </g>
</defs>
<script type="application/ecmascript">
var viewWidth = 2555;
var viewHeight = 324;
var sectionId = 'dynsection-0';
</script>
<script type="application/ecmascript" xlink:href="svg.min.js"/>
<svg id="graph" class="graph">
<g id="viewport">
<title>Engine/Source/Runtime/ECS/Kernel/EntityBuilder.h</title>
<!-- Node1 -->
<g id="Node000001" class="node">
<title>Node1</title>
<g id="a_Node000001"><a xlink:title="エンティティ生成を簡略化するヘルパークラス。">
<polygon fill="#999999" stroke="#666666" points="1789,-316 1643,-316 1643,-286 1789,-286 1789,-316"/>
<text text-anchor="start" x="1651" y="-304" font-family="Helvetica,sans-Serif" font-size="10.00">Engine/Source/Runtime</text>
<text text-anchor="middle" x="1716" y="-293" font-family="Helvetica,sans-Serif" font-size="10.00">/ECS/Kernel/EntityBuilder.h</text>
</a>
</g>
</g>
<!-- Node2 -->
<g id="Node000002" class="node">
<title>Node2</title>
<g id="a_Node000002"><a xlink:href="World_8h.html" target="_top" xlink:title="ECSワールド (シーン) の管理クラス。">
<polygon fill="white" stroke="#666666" points="1453.5,-250 1400.5,-250 1400.5,-231 1453.5,-231 1453.5,-250"/>
<text text-anchor="middle" x="1427" y="-238" font-family="Helvetica,sans-Serif" font-size="10.00">World.h</text>
</a>
</g>
</g>
<!-- Node1&#45;&gt;Node2 -->
<g id="edge1_Node000001_Node000002" class="edge">
<title>Node1&#45;&gt;Node2</title>
<g id="a_edge1_Node000001_Node000002"><a xlink:title=" ">
<path fill="none" stroke="#63b8ff" d="M1646.78,-285.99C1589.18,-274.33 1509.45,-258.19 1463.54,-248.9"/>
<polygon fill="#63b8ff" stroke="#63b8ff" points="1464.22,-245.46 1453.73,-246.91 1462.83,-252.32 1464.22,-245.46"/>
</a>
</g>
</g>
<!-- Node51 -->
<g id="Node000051" class="node">
<title>Node51</title>
<g id="a_Node000051"><a xlink:href="Name_8h.html" target="_top" xlink:title="エンティティの名前">
<polygon fill="white" stroke="#666666" points="1631.5,-250 1486.5,-250 1486.5,-231 1631.5,-231 1631.5,-250"/>
<text text-anchor="middle" x="1559" y="-238" font-family="Helvetica,sans-Serif" font-size="10.00">Components/Core/Name.h</text>
</a>
</g>
</g>
<!-- Node1&#45;&gt;Node51 -->
<g id="edge44_Node000001_Node000051" class="edge">
<title>Node1&#45;&gt;Node51</title>
<g id="a_edge44_Node000001_Node000051"><a xlink:title=" ">
<path fill="none" stroke="#63b8ff" d="M1678.39,-285.99C1651.97,-276.14 1616.96,-263.1 1591.69,-253.68"/>
<polygon fill="#63b8ff" stroke="#63b8ff" points="1592.78,-250.35 1582.19,-250.14 1590.33,-256.91 1592.78,-250.35"/>
</a>
</g>
</g>
<!-- Node62 -->
<g id="Node000062" class="node">
<title>Node62</title>
<g id="a_Node000062"><a xlink:href="Tag_8h.html" target="_top" xlink:title="エンティティのタグ分類">
<polygon fill="white" stroke="#666666" points="1782,-250 1650,-250 1650,-231 1782,-231 1782,-250"/>
<text text-anchor="middle" x="1716" y="-238" font-family="Helvetica,sans-Serif" font-size="10.00">Components/Core/Tag.h</text>
</a>
</g>
</g>
<!-- Node1&#45;&gt;Node62 -->
<g id="edge50_Node000001_Node000062" class="edge">
<title>Node1&#45;&gt;Node62</title>
<g id="a_edge50_Node000001_Node000062"><a xlink:title=" ">
<path fill="none" stroke="#63b8ff" d="M1716,-285.84C1716,-278.21 1716,-268.7 1716,-260.45"/>
<polygon fill="#63b8ff" stroke="#63b8ff" points="1719.5,-260.27 1716,-250.27 1712.5,-260.27 1719.5,-260.27"/>
</a>
</g>
</g>
<!-- Node63 -->
<g id="Node000063" class="node">
<title>Node63</title>
<g id="a_Node000063"><a xlink:href="Layer_8h.html" target="_top" xlink:title="物理演算やレンダリングのレイヤー分け。">
<polygon fill="white" stroke="#666666" points="1942,-250 1800,-250 1800,-231 1942,-231 1942,-250"/>
<text text-anchor="middle" x="1871" y="-238" font-family="Helvetica,sans-Serif" font-size="10.00">Components/Core/Layer.h</text>
</a>
</g>
</g>
<!-- Node1&#45;&gt;Node63 -->
<g id="edge52_Node000001_Node000063" class="edge">
<title>Node1&#45;&gt;Node63</title>
<g id="a_edge52_Node000001_Node000063"><a xlink:title=" ">
<path fill="none" stroke="#63b8ff" d="M1753.13,-285.99C1779.22,-276.14 1813.78,-263.1 1838.73,-253.68"/>
<polygon fill="#63b8ff" stroke="#63b8ff" points="1839.99,-256.94 1848.11,-250.14 1837.52,-250.4 1839.99,-256.94"/>
</a>
</g>
</g>
<!-- Node64 -->
<g id="Node000064" class="node">
<title>Node64</title>
<g id="a_Node000064"><a xlink:href="Transform_8h.html" target="_top" xlink:title="位置、回転、拡大縮小を管理するコンポーネント。">
<polygon fill="white" stroke="#666666" points="2288,-250 2124,-250 2124,-231 2288,-231 2288,-250"/>
<text text-anchor="middle" x="2206" y="-238" font-family="Helvetica,sans-Serif" font-size="10.00">Components/Core/Transform.h</text>
</a>
</g>
</g>
<!-- Node1&#45;&gt;Node64 -->
<g id="edge54_Node000001_Node000064" class="edge">
<title>Node1&#45;&gt;Node64</title>
<g id="a_edge54_Node000001_Node000064"><a xlink:title=" ">
<path fill="none" stroke="#63b8ff" d="M1789.09,-291.27C1878.93,-280.55 2030.93,-262.4 2124.47,-251.23"/>
<polygon fill="#63b8ff" stroke="#63b8ff" points="2124.94,-254.7 2134.45,-250.04 2124.11,-247.75 2124.94,-254.7"/>
</a>
</g>
</g>
<!-- Node65 -->
<g id="Node000065" class="node">
<title>Node65</title>
<g id="a_Node000065"><a xlink:href="Relationship_8h.html" target="_top" xlink:title="ECSにおける階層構造 (親子関係) データ。">
<polygon fill="white" stroke="#666666" points="1247,-189.5 1071,-189.5 1071,-170.5 1247,-170.5 1247,-189.5"/>
<text text-anchor="middle" x="1159" y="-177.5" font-family="Helvetica,sans-Serif" font-size="10.00">Components/Core/Relationship.h</text>
</a>
</g>
</g>
<!-- Node1&#45;&gt;Node65 -->
<g id="edge58_Node000001_Node000065" class="edge">
<title>Node1&#45;&gt;Node65</title>
<g id="a_edge58_Node000001_Node000065"><a xlink:title=" ">
<path fill="none" stroke="#63b8ff" d="M1642.77,-291.56C1576.76,-283.28 1477.25,-269.11 1392,-250 1320.43,-233.96 1238.61,-207.88 1193.47,-192.8"/>
<polygon fill="#63b8ff" stroke="#63b8ff" points="1194.47,-189.44 1183.88,-189.58 1192.24,-196.08 1194.47,-189.44"/>
</a>
</g>
</g>
<!-- Node66 -->
<g id="Node000066" class="node">
<title>Node66</title>
<g id="a_Node000066"><a xlink:href="Active_8h.html" target="_top" xlink:title="エンティティの有効/無効フラグ。">
<polygon fill="white" stroke="#666666" points="2106,-250 1960,-250 1960,-231 2106,-231 2106,-250"/>
<text text-anchor="middle" x="2033" y="-238" font-family="Helvetica,sans-Serif" font-size="10.00">Components/Core/Active.h</text>
</a>
</g>
</g>
<!-- Node1&#45;&gt;Node66 -->
<g id="edge60_Node000001_Node000066" class="edge">
<title>Node1&#45;&gt;Node66</title>
<g id="a_edge60_Node000001_Node000066"><a xlink:title=" ">
<path fill="none" stroke="#63b8ff" d="M1789.12,-286.51C1846.21,-275.97 1924.35,-261.55 1976.64,-251.9"/>
<polygon fill="#63b8ff" stroke="#63b8ff" points="1977.55,-255.29 1986.74,-250.04 1976.28,-248.41 1977.55,-255.29"/>
</a>
</g>
</g>
<!-- Node3 -->
<g id="Node000003" class="node">
<title>Node3</title>
<g id="a_Node000003"><a xlink:href="CoreMinimal_8h.html" target="_top" xlink:title="エンジンの標準インクルードファイル。">
<polygon fill="#fff0f0" stroke="red" points="1354.5,-74 1241.5,-74 1241.5,-55 1354.5,-55 1354.5,-74"/>
<text text-anchor="middle" x="1298" y="-62" font-family="Helvetica,sans-Serif" font-size="10.00">Core/CoreMinimal.h</text>
</a>
</g>
</g>
<!-- Node2&#45;&gt;Node3 -->
<g id="edge2_Node000002_Node000003" class="edge">
<title>Node2&#45;&gt;Node3</title>
<g id="a_edge2_Node000002_Node000003"><a xlink:title=" ">
<path fill="none" stroke="#63b8ff" d="M1432.09,-230.91C1444.61,-208.53 1473.93,-147.56 1446,-110 1427.23,-84.76 1394.61,-73.3 1364.76,-68.3"/>
<polygon fill="#63b8ff" stroke="#63b8ff" points="1365.17,-64.82 1354.77,-66.84 1364.16,-71.75 1365.17,-64.82"/>
</a>
</g>
</g>
<!-- Node43 -->
<g id="Node000043" class="node">
<title>Node43</title>
<g id="a_Node000043"><a xlink:href="EntityManager_8h.html" target="_top" xlink:title="エンティティIDのライフサイクル管理クラス">
<polygon fill="white" stroke="#666666" points="1361,-189.5 1265,-189.5 1265,-170.5 1361,-170.5 1361,-189.5"/>
<text text-anchor="middle" x="1313" y="-177.5" font-family="Helvetica,sans-Serif" font-size="10.00">EntityManager.h</text>
</a>
</g>
</g>
<!-- Node2&#45;&gt;Node43 -->
<g id="edge37_Node000002_Node000043" class="edge">
<title>Node2&#45;&gt;Node43</title>
<g id="a_edge37_Node000002_Node000043"><a xlink:title=" ">
<path fill="none" stroke="#63b8ff" d="M1410.18,-230.87C1391.4,-221.23 1360.8,-205.53 1338.95,-194.31"/>
<polygon fill="#63b8ff" stroke="#63b8ff" points="1340.39,-191.12 1329.89,-189.67 1337.19,-197.35 1340.39,-191.12"/>
</a>
</g>
</g>
<!-- Node45 -->
<g id="Node000045" class="node">
<title>Node45</title>
<g id="a_Node000045"><a xlink:href="ArchetypeManager_8h.html" target="_top" xlink:title="アーキタイプの生成と管理を行うクラス">
<polygon fill="#fff0f0" stroke="red" points="1356.5,-129 1239.5,-129 1239.5,-110 1356.5,-110 1356.5,-129"/>
<text text-anchor="middle" x="1298" y="-117" font-family="Helvetica,sans-Serif" font-size="10.00">ArchetypeManager.h</text>
</a>
</g>
</g>
<!-- Node2&#45;&gt;Node45 -->
<g id="edge40_Node000002_Node000045" class="edge">
<title>Node2&#45;&gt;Node45</title>
<g id="a_edge40_Node000002_Node000045"><a xlink:title=" ">
<path fill="none" stroke="#63b8ff" d="M1421.88,-230.87C1412.8,-216.09 1392.7,-185.55 1370,-165 1356.42,-152.7 1338.98,-141.83 1324.67,-133.91"/>
<polygon fill="#63b8ff" stroke="#63b8ff" points="1326.26,-130.79 1315.79,-129.14 1322.95,-136.96 1326.26,-130.79"/>
</a>
</g>
</g>
<!-- Node50 -->
<g id="Node000050" class="node">
<title>Node50</title>
<g id="a_Node000050"><a xlink:href="System_8h.html" target="_top" xlink:title="ECSシステム (ロジック) の基底クラス。">
<polygon fill="white" stroke="#666666" points="1437,-129 1375,-129 1375,-110 1437,-110 1437,-129"/>
<text text-anchor="middle" x="1406" y="-117" font-family="Helvetica,sans-Serif" font-size="10.00">System.h</text>
</a>
</g>
</g>
<!-- Node2&#45;&gt;Node50 -->
<g id="edge42_Node000002_Node000050" class="edge">
<title>Node2&#45;&gt;Node50</title>
<g id="a_edge42_Node000002_Node000050"><a xlink:title=" ">
<path fill="none" stroke="#63b8ff" d="M1425.49,-230.94C1422.13,-211.91 1413.97,-165.69 1409.35,-139.47"/>
<polygon fill="#63b8ff" stroke="#63b8ff" points="1412.74,-138.54 1407.55,-129.3 1405.84,-139.76 1412.74,-138.54"/>
</a>
</g>
</g>
<!-- Node4 -->
<g id="Node000004" class="node">
<title>Node4</title>
<g id="a_Node000004"><a xlink:title=" ">
<polygon fill="#e0e0e0" stroke="#999999" points="2120,-19 2050,-19 2050,0 2120,0 2120,-19"/>
<text text-anchor="middle" x="2085" y="-7" font-family="Helvetica,sans-Serif" font-size="10.00">Windows.h</text>
</a>
</g>
</g>
<!-- Node3&#45;&gt;Node4 -->
<g id="edge3_Node000003_Node000004" class="edge">
<title>Node3&#45;&gt;Node4</title>
<g id="a_edge3_Node000003_Node000004"><a xlink:title=" ">
<path fill="none" stroke="#63b8ff" d="M1354.62,-62.64C1477.61,-60.21 1778.42,-51.33 2039.47,-19.03"/>
<polygon fill="#63b8ff" stroke="#63b8ff" points="2040.03,-22.48 2049.52,-17.77 2039.17,-15.54 2040.03,-22.48"/>
</a>
</g>
</g>
<!-- Node5 -->
<g id="Node000005" class="node">
<title>Node5</title>
<g id="a_Node000005"><a xlink:title=" ">
<polygon fill="#e0e0e0" stroke="#999999" points="2179.5,-19 2138.5,-19 2138.5,0 2179.5,0 2179.5,-19"/>
<text text-anchor="middle" x="2159" y="-7" font-family="Helvetica,sans-Serif" font-size="10.00">wrl.h</text>
</a>
</g>
</g>
<!-- Node3&#45;&gt;Node5 -->
<g id="edge4_Node000003_Node000005" class="edge">
<title>Node3&#45;&gt;Node5</title>
<g id="a_edge4_Node000003_Node000005"><a xlink:title=" ">
<path fill="none" stroke="#63b8ff" d="M1354.64,-62.11C1513.34,-57.96 1961.03,-44.43 2128.57,-18.56"/>
<polygon fill="#63b8ff" stroke="#63b8ff" points="2129.17,-22.01 2138.48,-16.96 2128.05,-15.1 2129.17,-22.01"/>
</a>
</g>
</g>
<!-- Node6 -->
<g id="Node000006" class="node">
<title>Node6</title>
<g id="a_Node000006"><a xlink:title=" ">
<polygon fill="#e0e0e0" stroke="#999999" points="2268.5,-19 2197.5,-19 2197.5,0 2268.5,0 2268.5,-19"/>
<text text-anchor="middle" x="2233" y="-7" font-family="Helvetica,sans-Serif" font-size="10.00">wrl/client.h</text>
</a>
</g>
</g>
<!-- Node3&#45;&gt;Node6 -->
<g id="edge5_Node000003_Node000006" class="edge">
<title>Node3&#45;&gt;Node6</title>
<g id="a_edge5_Node000003_Node000006"><a xlink:title=" ">
<path fill="none" stroke="#63b8ff" d="M1354.53,-63.43C1494.26,-62.68 1867.2,-57.06 2186.66,-19.12"/>
<polygon fill="#63b8ff" stroke="#63b8ff" points="2187.54,-22.54 2197.05,-17.87 2186.7,-15.59 2187.54,-22.54"/>
</a>
</g>
</g>
<!-- Node7 -->
<g id="Node000007" class="node">
<title>Node7</title>
<g id="a_Node000007"><a xlink:title=" ">
<polygon fill="#e0e0e0" stroke="#999999" points="2337,-19 2287,-19 2287,0 2337,0 2337,-19"/>
<text text-anchor="middle" x="2312" y="-7" font-family="Helvetica,sans-Serif" font-size="10.00">cstdint</text>
</a>
</g>
</g>
<!-- Node3&#45;&gt;Node7 -->
<g id="edge6_Node000003_Node000007" class="edge">
<title>Node3&#45;&gt;Node7</title>
<g id="a_edge6_Node000003_Node000007"><a xlink:title=" ">
<path fill="none" stroke="#63b8ff" d="M1354.55,-62.42C1532.24,-58.78 2078.77,-45.79 2276.85,-18.8"/>
<polygon fill="#63b8ff" stroke="#63b8ff" points="2277.45,-22.25 2286.86,-17.38 2276.47,-15.32 2277.45,-22.25"/>
</a>
</g>
</g>
<!-- Node8 -->
<g id="Node000008" class="node">
<title>Node8</title>
<g id="a_Node000008"><a xlink:title=" ">
<polygon fill="#e0e0e0" stroke="#999999" points="60,-19 0,-19 0,0 60,0 60,-19"/>
<text text-anchor="middle" x="30" y="-7" font-family="Helvetica,sans-Serif" font-size="10.00">iostream</text>
</a>
</g>
</g>
<!-- Node3&#45;&gt;Node8 -->
<g id="edge7_Node000003_Node000008" class="edge">
<title>Node3&#45;&gt;Node8</title>
<g id="a_edge7_Node000003_Node000008"><a xlink:title=" ">
<path fill="none" stroke="#63b8ff" d="M1241.15,-62.79C1034.15,-59.99 320.18,-48.48 70.26,-18.87"/>
<polygon fill="#63b8ff" stroke="#63b8ff" points="70.49,-15.37 60.14,-17.63 69.64,-22.32 70.49,-15.37"/>
</a>
</g>
</g>
<!-- Node9 -->
<g id="Node000009" class="node">
<title>Node9</title>
<g id="a_Node000009"><a xlink:title=" ">
<polygon fill="#e0e0e0" stroke="#999999" points="131.5,-19 78.5,-19 78.5,0 131.5,0 131.5,-19"/>
<text text-anchor="middle" x="105" y="-7" font-family="Helvetica,sans-Serif" font-size="10.00">string.h</text>
</a>
</g>
</g>
<!-- Node3&#45;&gt;Node9 -->
<g id="edge8_Node000003_Node000009" class="edge">
<title>Node3&#45;&gt;Node9</title>
<g id="a_edge8_Node000003_Node000009"><a xlink:title=" ">
<path fill="none" stroke="#63b8ff" d="M1241.37,-62.77C1042.7,-60 377.25,-48.76 141.84,-18.74"/>
<polygon fill="#63b8ff" stroke="#63b8ff" points="142,-15.24 131.63,-17.39 141.08,-22.17 142,-15.24"/>
</a>
</g>
</g>
<!-- Node10 -->
<g id="Node000010" class="node">
<title>Node10</title>
<g id="a_Node000010"><a xlink:title=" ">
<polygon fill="#e0e0e0" stroke="#999999" points="194,-19 150,-19 150,0 194,0 194,-19"/>
<text text-anchor="middle" x="172" y="-7" font-family="Helvetica,sans-Serif" font-size="10.00">string</text>
</a>
</g>
</g>
<!-- Node3&#45;&gt;Node10 -->
<g id="edge9_Node000003_Node000010" class="edge">
<title>Node3&#45;&gt;Node10</title>
<g id="a_edge9_Node000003_Node000010"><a xlink:title=" ">
<path fill="none" stroke="#63b8ff" d="M1241.36,-62.89C1049.68,-60.58 425.45,-50.86 204.14,-18.74"/>
<polygon fill="#63b8ff" stroke="#63b8ff" points="204.63,-15.27 194.22,-17.24 203.59,-22.2 204.63,-15.27"/>
</a>
</g>
</g>
<!-- Node11 -->
<g id="Node000011" class="node">
<title>Node11</title>
<g id="a_Node000011"><a xlink:title=" ">
<polygon fill="#e0e0e0" stroke="#999999" points="259.5,-19 212.5,-19 212.5,0 259.5,0 259.5,-19"/>
<text text-anchor="middle" x="236" y="-7" font-family="Helvetica,sans-Serif" font-size="10.00">vector</text>
</a>
</g>
</g>
<!-- Node3&#45;&gt;Node11 -->
<g id="edge10_Node000003_Node000011" class="edge">
<title>Node3&#45;&gt;Node11</title>
<g id="a_edge10_Node000003_Node000011"><a xlink:title=" ">
<path fill="none" stroke="#63b8ff" d="M1241.19,-62.66C1057.05,-59.7 477.09,-48.36 269.54,-18.86"/>
<polygon fill="#63b8ff" stroke="#63b8ff" points="270.05,-15.39 259.64,-17.39 269.02,-22.32 270.05,-15.39"/>
</a>
</g>
</g>
<!-- Node12 -->
<g id="Node000012" class="node">
<title>Node12</title>
<g id="a_Node000012"><a xlink:title=" ">
<polygon fill="#e0e0e0" stroke="#999999" points="324.5,-19 277.5,-19 277.5,0 324.5,0 324.5,-19"/>
<text text-anchor="middle" x="301" y="-7" font-family="Helvetica,sans-Serif" font-size="10.00">deque</text>
</a>
</g>
</g>
<!-- Node3&#45;&gt;Node12 -->
<g id="edge11_Node000003_Node000012" class="edge">
<title>Node3&#45;&gt;Node12</title>
<g id="a_edge11_Node000003_Node000012"><a xlink:title=" ">
<path fill="none" stroke="#63b8ff" d="M1241.36,-62.48C1065.44,-59.05 529.15,-46.69 334.75,-18.89"/>
<polygon fill="#63b8ff" stroke="#63b8ff" points="335.05,-15.4 324.65,-17.38 334.02,-22.32 335.05,-15.4"/>
</a>
</g>
</g>
<!-- Node13 -->
<g id="Node000013" class="node">
<title>Node13</title>
<g id="a_Node000013"><a xlink:title=" ">
<polygon fill="#e0e0e0" stroke="#999999" points="435.5,-19 342.5,-19 342.5,0 435.5,0 435.5,-19"/>
<text text-anchor="middle" x="389" y="-7" font-family="Helvetica,sans-Serif" font-size="10.00">unordered_map</text>
</a>
</g>
</g>
<!-- Node3&#45;&gt;Node13 -->
<g id="edge12_Node000003_Node000013" class="edge">
<title>Node3&#45;&gt;Node13</title>
<g id="a_edge12_Node000003_Node000013"><a xlink:title=" ">
<path fill="none" stroke="#63b8ff" d="M1241.46,-62.47C1105.95,-59.6 751.83,-49.65 445.66,-18.95"/>
<polygon fill="#63b8ff" stroke="#63b8ff" points="446.01,-15.47 435.71,-17.94 445.3,-22.43 446.01,-15.47"/>
</a>
</g>
</g>
<!-- Node14 -->
<g id="Node000014" class="node">
<title>Node14</title>
<g id="a_Node000014"><a xlink:title=" ">
<polygon fill="#e0e0e0" stroke="#999999" points="492,-19 454,-19 454,0 492,0 492,-19"/>
<text text-anchor="middle" x="473" y="-7" font-family="Helvetica,sans-Serif" font-size="10.00">map</text>
</a>
</g>
</g>
<!-- Node3&#45;&gt;Node14 -->
<g id="edge13_Node000003_Node000014" class="edge">
<title>Node3&#45;&gt;Node14</title>
<g id="a_edge13_Node000003_Node000014"><a xlink:title=" ">
<path fill="none" stroke="#63b8ff" d="M1241.41,-62.1C1087.43,-58.01 662.31,-44.82 502.28,-18.71"/>
<polygon fill="#63b8ff" stroke="#63b8ff" points="502.58,-15.21 492.13,-16.97 501.4,-22.1 502.58,-15.21"/>
</a>
</g>
</g>
<!-- Node15 -->
<g id="Node000015" class="node">
<title>Node15</title>
<g id="a_Node000015"><a xlink:title=" ">
<polygon fill="#e0e0e0" stroke="#999999" points="568,-19 510,-19 510,0 568,0 568,-19"/>
<text text-anchor="middle" x="539" y="-7" font-family="Helvetica,sans-Serif" font-size="10.00">memory</text>
</a>
</g>
</g>
<!-- Node3&#45;&gt;Node15 -->
<g id="edge14_Node000003_Node000015" class="edge">
<title>Node3&#45;&gt;Node15</title>
<g id="a_edge14_Node000003_Node000015"><a xlink:title=" ">
<path fill="none" stroke="#63b8ff" d="M1241.14,-63.04C1120.57,-61.42 830.33,-54.01 578.45,-18.97"/>
<polygon fill="#63b8ff" stroke="#63b8ff" points="578.76,-15.48 568.37,-17.55 577.79,-22.41 578.76,-15.48"/>
</a>
</g>
</g>
<!-- Node16 -->
<g id="Node000016" class="node">
<title>Node16</title>
<g id="a_Node000016"><a xlink:title=" ">
<polygon fill="#e0e0e0" stroke="#999999" points="2547,-19 2483,-19 2483,0 2547,0 2547,-19"/>
<text text-anchor="middle" x="2515" y="-7" font-family="Helvetica,sans-Serif" font-size="10.00">algorithm</text>
</a>
</g>
</g>
<!-- Node3&#45;&gt;Node16 -->
<g id="edge15_Node000003_Node000016" class="edge">
<title>Node3&#45;&gt;Node16</title>
<g id="a_edge15_Node000003_Node000016"><a xlink:title=" ">
<path fill="none" stroke="#63b8ff" d="M1354.83,-62.6C1555.89,-59.24 2233.86,-46.22 2472.83,-18.88"/>
<polygon fill="#63b8ff" stroke="#63b8ff" points="2473.34,-22.34 2482.85,-17.69 2472.51,-15.39 2473.34,-22.34"/>
</a>
</g>
</g>
<!-- Node17 -->
<g id="Node000017" class="node">
<title>Node17</title>
<g id="a_Node000017"><a xlink:title=" ">
<polygon fill="#e0e0e0" stroke="#999999" points="651.5,-19 586.5,-19 586.5,0 651.5,0 651.5,-19"/>
<text text-anchor="middle" x="619" y="-7" font-family="Helvetica,sans-Serif" font-size="10.00">functional</text>
</a>
</g>
</g>
<!-- Node3&#45;&gt;Node17 -->
<g id="edge16_Node000003_Node000017" class="edge">
<title>Node3&#45;&gt;Node17</title>
<g id="a_edge16_Node000003_Node000017"><a xlink:title=" ">
<path fill="none" stroke="#63b8ff" d="M1241.08,-62C1131.08,-58.57 881.55,-48.17 662.05,-18.95"/>
<polygon fill="#63b8ff" stroke="#63b8ff" points="662.32,-15.46 651.95,-17.59 661.39,-22.39 662.32,-15.46"/>
</a>
</g>
</g>
<!-- Node18 -->
<g id="Node000018" class="node">
<title>Node18</title>
<g id="a_Node000018"><a xlink:title=" ">
<polygon fill="#e0e0e0" stroke="#999999" points="720,-19 670,-19 670,0 720,0 720,-19"/>
<text text-anchor="middle" x="695" y="-7" font-family="Helvetica,sans-Serif" font-size="10.00">chrono</text>
</a>
</g>
</g>
<!-- Node3&#45;&gt;Node18 -->
<g id="edge17_Node000003_Node000018" class="edge">
<title>Node3&#45;&gt;Node18</title>
<g id="a_edge17_Node000003_Node000018"><a xlink:title=" ">
<path fill="none" stroke="#63b8ff" d="M1241.5,-62.2C1140.58,-59.2 922.67,-49.65 730.17,-18.91"/>
<polygon fill="#63b8ff" stroke="#63b8ff" points="730.58,-15.43 720.15,-17.29 729.47,-22.34 730.58,-15.43"/>
</a>
</g>
</g>
<!-- Node19 -->
<g id="Node000019" class="node">
<title>Node19</title>
<g id="a_Node000019"><a xlink:title=" ">
<polygon fill="#e0e0e0" stroke="#999999" points="784,-19 738,-19 738,0 784,0 784,-19"/>
<text text-anchor="middle" x="761" y="-7" font-family="Helvetica,sans-Serif" font-size="10.00">cstdio</text>
</a>
</g>
</g>
<!-- Node3&#45;&gt;Node19 -->
<g id="edge18_Node000003_Node000019" class="edge">
<title>Node3&#45;&gt;Node19</title>
<g id="a_edge18_Node000003_Node000019"><a xlink:title=" ">
<path fill="none" stroke="#63b8ff" d="M1241.16,-61.67C1149.08,-58.01 961.53,-47.68 794.29,-18.93"/>
<polygon fill="#63b8ff" stroke="#63b8ff" points="794.77,-15.46 784.32,-17.19 793.56,-22.36 794.77,-15.46"/>
</a>
</g>
</g>
<!-- Node20 -->
<g id="Node000020" class="node">
<title>Node20</title>
<g id="a_Node000020"><a xlink:title=" ">
<polygon fill="#e0e0e0" stroke="#999999" points="854,-19 802,-19 802,0 854,0 854,-19"/>
<text text-anchor="middle" x="828" y="-7" font-family="Helvetica,sans-Serif" font-size="10.00">cassert</text>
</a>
</g>
</g>
<!-- Node3&#45;&gt;Node20 -->
<g id="edge19_Node000003_Node000020" class="edge">
<title>Node3&#45;&gt;Node20</title>
<g id="a_edge19_Node000003_Node000020"><a xlink:title=" ">
<path fill="none" stroke="#63b8ff" d="M1241.36,-60.18C1159.97,-54.86 1005.15,-42.72 864.4,-19.02"/>
<polygon fill="#63b8ff" stroke="#63b8ff" points="864.74,-15.53 854.29,-17.29 863.56,-22.43 864.74,-15.53"/>
</a>
</g>
</g>
<!-- Node21 -->
<g id="Node000021" class="node">
<title>Node21</title>
<g id="a_Node000021"><a xlink:title=" ">
<polygon fill="#e0e0e0" stroke="#999999" points="937.5,-19 872.5,-19 872.5,0 937.5,0 937.5,-19"/>
<text text-anchor="middle" x="905" y="-7" font-family="Helvetica,sans-Serif" font-size="10.00">typeindex</text>
</a>
</g>
</g>
<!-- Node3&#45;&gt;Node21 -->
<g id="edge20_Node000003_Node000021" class="edge">
<title>Node3&#45;&gt;Node21</title>
<g id="a_edge20_Node000003_Node000021"><a xlink:title=" ">
<path fill="none" stroke="#63b8ff" d="M1241.28,-57.61C1173.76,-50.3 1057.41,-36.81 947.45,-18.95"/>
<polygon fill="#63b8ff" stroke="#63b8ff" points="947.95,-15.49 937.52,-17.33 946.82,-22.4 947.95,-15.49"/>
</a>
</g>
</g>
<!-- Node22 -->
<g id="Node000022" class="node">
<title>Node22</title>
<g id="a_Node000022"><a xlink:title=" ">
<polygon fill="#e0e0e0" stroke="#999999" points="1024,-19 956,-19 956,0 1024,0 1024,-19"/>
<text text-anchor="middle" x="990" y="-7" font-family="Helvetica,sans-Serif" font-size="10.00">filesystem</text>
</a>
</g>
</g>
<!-- Node3&#45;&gt;Node22 -->
<g id="edge21_Node000003_Node000022" class="edge">
<title>Node3&#45;&gt;Node22</title>
<g id="a_edge21_Node000003_Node000022"><a xlink:title=" ">
<path fill="none" stroke="#63b8ff" d="M1244.37,-54.96C1192.98,-46.67 1112.98,-33.49 1034.33,-19.2"/>
<polygon fill="#63b8ff" stroke="#63b8ff" points="1034.72,-15.71 1024.25,-17.36 1033.46,-22.6 1034.72,-15.71"/>
</a>
</g>
</g>
<!-- Node23 -->
<g id="Node000023" class="node">
<title>Node23</title>
<g id="a_Node000023"><a xlink:title=" ">
<polygon fill="#e0e0e0" stroke="#999999" points="1074,-19 1042,-19 1042,0 1074,0 1074,-19"/>
<text text-anchor="middle" x="1058" y="-7" font-family="Helvetica,sans-Serif" font-size="10.00">set</text>
</a>
</g>
</g>
<!-- Node3&#45;&gt;Node23 -->
<g id="edge22_Node000003_Node000023" class="edge">
<title>Node3&#45;&gt;Node23</title>
<g id="a_edge22_Node000003_Node000023"><a xlink:title=" ">
<path fill="none" stroke="#63b8ff" d="M1248.06,-54.97C1206.44,-47.46 1145.48,-35.52 1083.93,-18.98"/>
<polygon fill="#63b8ff" stroke="#63b8ff" points="1084.62,-15.54 1074.05,-16.28 1082.77,-22.29 1084.62,-15.54"/>
</a>
</g>
</g>
<!-- Node24 -->
<g id="Node000024" class="node">
<title>Node24</title>
<g id="a_Node000024"><a xlink:title=" ">
<polygon fill="#e0e0e0" stroke="#999999" points="1147.5,-19 1092.5,-19 1092.5,0 1147.5,0 1147.5,-19"/>
<text text-anchor="middle" x="1120" y="-7" font-family="Helvetica,sans-Serif" font-size="10.00">fstream</text>
</a>
</g>
</g>
<!-- Node3&#45;&gt;Node24 -->
<g id="edge23_Node000003_Node000024" class="edge">
<title>Node3&#45;&gt;Node24</title>
<g id="a_edge23_Node000003_Node000024"><a xlink:title=" ">
<path fill="none" stroke="#63b8ff" d="M1269.4,-54.98C1239.03,-45.94 1190.9,-31.61 1157.5,-21.67"/>
<polygon fill="#63b8ff" stroke="#63b8ff" points="1158.23,-18.23 1147.65,-18.73 1156.23,-24.94 1158.23,-18.23"/>
</a>
</g>
</g>
<!-- Node25 -->
<g id="Node000025" class="node">
<title>Node25</title>
<g id="a_Node000025"><a xlink:title=" ">
<polygon fill="#e0e0e0" stroke="#999999" points="1222,-19 1166,-19 1166,0 1222,0 1222,-19"/>
<text text-anchor="middle" x="1194" y="-7" font-family="Helvetica,sans-Serif" font-size="10.00">sstream</text>
</a>
</g>
</g>
<!-- Node3&#45;&gt;Node25 -->
<g id="edge24_Node000003_Node000025" class="edge">
<title>Node3&#45;&gt;Node25</title>
<g id="a_edge24_Node000003_Node000025"><a xlink:title=" ">
<path fill="none" stroke="#63b8ff" d="M1281.29,-54.98C1264.79,-46.57 1239.3,-33.59 1220.12,-23.81"/>
<polygon fill="#63b8ff" stroke="#63b8ff" points="1221.51,-20.59 1211.01,-19.17 1218.33,-26.83 1221.51,-20.59"/>
</a>
</g>
</g>
<!-- Node26 -->
<g id="Node000026" class="node">
<title>Node26</title>
<g id="a_Node000026"><a xlink:title=" ">
<polygon fill="#e0e0e0" stroke="#999999" points="1288,-19 1240,-19 1240,0 1288,0 1288,-19"/>
<text text-anchor="middle" x="1264" y="-7" font-family="Helvetica,sans-Serif" font-size="10.00">mutex</text>
</a>
</g>
</g>
<!-- Node3&#45;&gt;Node26 -->
<g id="edge25_Node000003_Node000026" class="edge">
<title>Node3&#45;&gt;Node26</title>
<g id="a_edge25_Node000003_Node000026"><a xlink:title=" ">
<path fill="none" stroke="#63b8ff" d="M1292.39,-54.75C1287.68,-47.42 1280.83,-36.73 1275.03,-27.7"/>
<polygon fill="#63b8ff" stroke="#63b8ff" points="1277.86,-25.62 1269.51,-19.09 1271.96,-29.4 1277.86,-25.62"/>
</a>
</g>
</g>
<!-- Node27 -->
<g id="Node000027" class="node">
<title>Node27</title>
<g id="a_Node000027"><a xlink:title=" ">
<polygon fill="#e0e0e0" stroke="#999999" points="1360,-19 1306,-19 1306,0 1360,0 1360,-19"/>
<text text-anchor="middle" x="1333" y="-7" font-family="Helvetica,sans-Serif" font-size="10.00">random</text>
</a>
</g>
</g>
<!-- Node3&#45;&gt;Node27 -->
<g id="edge26_Node000003_Node000027" class="edge">
<title>Node3&#45;&gt;Node27</title>
<g id="a_edge26_Node000003_Node000027"><a xlink:title=" ">
<path fill="none" stroke="#63b8ff" d="M1303.78,-54.75C1308.62,-47.42 1315.68,-36.73 1321.64,-27.7"/>
<polygon fill="#63b8ff" stroke="#63b8ff" points="1324.74,-29.36 1327.33,-19.09 1318.9,-25.5 1324.74,-29.36"/>
</a>
</g>
</g>
<!-- Node28 -->
<g id="Node000028" class="node">
<title>Node28</title>
<g id="a_Node000028"><a xlink:title=" ">
<polygon fill="#e0e0e0" stroke="#999999" points="1426,-19 1378,-19 1378,0 1426,0 1426,-19"/>
<text text-anchor="middle" x="1402" y="-7" font-family="Helvetica,sans-Serif" font-size="10.00">thread</text>
</a>
</g>
</g>
<!-- Node3&#45;&gt;Node28 -->
<g id="edge27_Node000003_Node000028" class="edge">
<title>Node3&#45;&gt;Node28</title>
<g id="a_edge27_Node000003_Node000028"><a xlink:title=" ">
<path fill="none" stroke="#63b8ff" d="M1314.71,-54.98C1331.21,-46.57 1356.7,-33.59 1375.88,-23.81"/>
<polygon fill="#63b8ff" stroke="#63b8ff" points="1377.67,-26.83 1384.99,-19.17 1374.49,-20.59 1377.67,-26.83"/>
</a>
</g>
</g>
<!-- Node29 -->
<g id="Node000029" class="node">
<title>Node29</title>
<g id="a_Node000029"><a xlink:title=" ">
<polygon fill="#e0e0e0" stroke="#999999" points="1494,-19 1444,-19 1444,0 1494,0 1494,-19"/>
<text text-anchor="middle" x="1469" y="-7" font-family="Helvetica,sans-Serif" font-size="10.00">atomic</text>
</a>
</g>
</g>
<!-- Node3&#45;&gt;Node29 -->
<g id="edge28_Node000003_Node000029" class="edge">
<title>Node3&#45;&gt;Node29</title>
<g id="a_edge28_Node000003_Node000029"><a xlink:title=" ">
<path fill="none" stroke="#63b8ff" d="M1325.47,-54.98C1354.95,-45.85 1401.85,-31.31 1433.96,-21.36"/>
<polygon fill="#63b8ff" stroke="#63b8ff" points="1435.31,-24.61 1443.82,-18.3 1433.24,-17.92 1435.31,-24.61"/>
</a>
</g>
</g>
<!-- Node30 -->
<g id="Node000030" class="node">
<title>Node30</title>
<g id="a_Node000030"><a xlink:title=" ">
<polygon fill="#e0e0e0" stroke="#999999" points="1561.5,-19 1512.5,-19 1512.5,0 1561.5,0 1561.5,-19"/>
<text text-anchor="middle" x="1537" y="-7" font-family="Helvetica,sans-Serif" font-size="10.00">cctype</text>
</a>
</g>
</g>
<!-- Node3&#45;&gt;Node30 -->
<g id="edge29_Node000003_Node000030" class="edge">
<title>Node3&#45;&gt;Node30</title>
<g id="a_edge29_Node000003_Node000030"><a xlink:title=" ">
<path fill="none" stroke="#63b8ff" d="M1339.31,-54.93C1378.67,-46.67 1439.83,-33.62 1502.13,-19.14"/>
<polygon fill="#63b8ff" stroke="#63b8ff" points="1503.2,-22.49 1512.14,-16.81 1501.61,-15.67 1503.2,-22.49"/>
</a>
</g>
</g>
<!-- Node31 -->
<g id="Node000031" class="node">
<title>Node31</title>
<g id="a_Node000031"><a xlink:title=" ">
<polygon fill="#e0e0e0" stroke="#999999" points="1622,-19 1580,-19 1580,0 1622,0 1622,-19"/>
<text text-anchor="middle" x="1601" y="-7" font-family="Helvetica,sans-Serif" font-size="10.00">array</text>
</a>
</g>
</g>
<!-- Node3&#45;&gt;Node31 -->
<g id="edge30_Node000003_Node000031" class="edge">
<title>Node3&#45;&gt;Node31</title>
<g id="a_edge30_Node000003_Node000031"><a xlink:title=" ">
<path fill="none" stroke="#63b8ff" d="M1354.57,-56.21C1407.75,-48.92 1489.75,-36.56 1569.55,-19.11"/>
<polygon fill="#63b8ff" stroke="#63b8ff" points="1570.77,-22.42 1579.77,-16.84 1569.25,-15.59 1570.77,-22.42"/>
</a>
</g>
</g>
<!-- Node32 -->
<g id="Node000032" class="node">
<title>Node32</title>
<g id="a_Node000032"><a xlink:title=" ">
<polygon fill="#e0e0e0" stroke="#999999" points="1709.5,-19 1640.5,-19 1640.5,0 1709.5,0 1709.5,-19"/>
<text text-anchor="middle" x="1675" y="-7" font-family="Helvetica,sans-Serif" font-size="10.00">type_traits</text>
</a>
</g>
</g>
<!-- Node3&#45;&gt;Node32 -->
<g id="edge31_Node000003_Node000032" class="edge">
<title>Node3&#45;&gt;Node32</title>
<g id="a_edge31_Node000003_Node000032"><a xlink:title=" ">
<path fill="none" stroke="#63b8ff" d="M1354.71,-56.94C1419.03,-49.27 1527.26,-35.67 1630.48,-18.99"/>
<polygon fill="#63b8ff" stroke="#63b8ff" points="1631.14,-22.43 1640.45,-17.37 1630.01,-15.52 1631.14,-22.43"/>
</a>
</g>
</g>
<!-- Node33 -->
<g id="Node000033" class="node">
<title>Node33</title>
<g id="a_Node000033"><a xlink:title=" ">
<polygon fill="#e0e0e0" stroke="#999999" points="1772,-19 1728,-19 1728,0 1772,0 1772,-19"/>
<text text-anchor="middle" x="1750" y="-7" font-family="Helvetica,sans-Serif" font-size="10.00">cfloat</text>
</a>
</g>
</g>
<!-- Node3&#45;&gt;Node33 -->
<g id="edge32_Node000003_Node000033" class="edge">
<title>Node3&#45;&gt;Node33</title>
<g id="a_edge32_Node000003_Node000033"><a xlink:title=" ">
<path fill="none" stroke="#63b8ff" d="M1354.6,-60.44C1433.85,-55.52 1582.42,-43.94 1717.63,-18.97"/>
<polygon fill="#63b8ff" stroke="#63b8ff" points="1718.57,-22.35 1727.75,-17.07 1717.28,-15.47 1718.57,-22.35"/>
</a>
</g>
</g>
<!-- Node34 -->
<g id="Node000034" class="node">
<title>Node34</title>
<g id="a_Node000034"><a xlink:title=" ">
<polygon fill="#e0e0e0" stroke="#999999" points="2465,-19 2355,-19 2355,0 2465,0 2465,-19"/>
<text text-anchor="middle" x="2410" y="-7" font-family="Helvetica,sans-Serif" font-size="10.00">nlohmann/json.hpp</text>
</a>
</g>
</g>
<!-- Node3&#45;&gt;Node34 -->
<g id="edge33_Node000003_Node000034" class="edge">
<title>Node3&#45;&gt;Node34</title>
<g id="a_edge33_Node000003_Node000034"><a xlink:title=" ">
<path fill="none" stroke="#63b8ff" d="M1354.63,-62.88C1510.72,-60.78 1960.43,-52.18 2344.67,-19.03"/>
<polygon fill="#63b8ff" stroke="#63b8ff" points="2345.22,-22.49 2354.88,-18.14 2344.61,-15.52 2345.22,-22.49"/>
</a>
</g>
</g>
<!-- Node35 -->
<g id="Node000035" class="node">
<title>Node35</title>
<g id="a_Node000035"><a xlink:title=" ">
<polygon fill="#e0e0e0" stroke="#999999" points="1846,-19 1790,-19 1790,0 1846,0 1846,-19"/>
<text text-anchor="middle" x="1818" y="-7" font-family="Helvetica,sans-Serif" font-size="10.00">d3d12.h</text>
</a>
</g>
</g>
<!-- Node3&#45;&gt;Node35 -->
<g id="edge34_Node000003_Node000035" class="edge">
<title>Node3&#45;&gt;Node35</title>
<g id="a_edge34_Node000003_Node000035"><a xlink:title=" ">
<path fill="none" stroke="#63b8ff" d="M1354.82,-60.74C1443.56,-55.88 1620.56,-44.01 1779.82,-18.98"/>
<polygon fill="#63b8ff" stroke="#63b8ff" points="1780.47,-22.42 1789.79,-17.39 1779.37,-15.51 1780.47,-22.42"/>
</a>
</g>
</g>
<!-- Node36 -->
<g id="Node000036" class="node">
<title>Node36</title>
<g id="a_Node000036"><a xlink:title=" ">
<polygon fill="#e0e0e0" stroke="#999999" points="1928,-19 1864,-19 1864,0 1928,0 1928,-19"/>
<text text-anchor="middle" x="1896" y="-7" font-family="Helvetica,sans-Serif" font-size="10.00">dxgi1_6.h</text>
</a>
</g>
</g>
<!-- Node3&#45;&gt;Node36 -->
<g id="edge35_Node000003_Node000036" class="edge">
<title>Node3&#45;&gt;Node36</title>
<g id="a_edge35_Node000003_Node000036"><a xlink:title=" ">
<path fill="none" stroke="#63b8ff" d="M1354.79,-61.3C1454.05,-56.95 1665.65,-45.41 1853.76,-19"/>
<polygon fill="#63b8ff" stroke="#63b8ff" points="1854.43,-22.44 1863.84,-17.56 1853.44,-15.51 1854.43,-22.44"/>
</a>
</g>
</g>
<!-- Node37 -->
<g id="Node000037" class="node">
<title>Node37</title>
<g id="a_Node000037"><a xlink:title=" ">
<polygon fill="#e0e0e0" stroke="#999999" points="2032,-19 1946,-19 1946,0 2032,0 2032,-19"/>
<text text-anchor="middle" x="1989" y="-7" font-family="Helvetica,sans-Serif" font-size="10.00">d3dcompiler.h</text>
</a>
</g>
</g>
<!-- Node3&#45;&gt;Node37 -->
<g id="edge36_Node000003_Node000037" class="edge">
<title>Node3&#45;&gt;Node37</title>
<g id="a_edge36_Node000003_Node000037"><a xlink:title=" ">
<path fill="none" stroke="#63b8ff" d="M1354.58,-61.32C1464.55,-56.7 1714.97,-44.31 1935.75,-19.03"/>
<polygon fill="#63b8ff" stroke="#63b8ff" points="1936.38,-22.48 1945.91,-17.86 1935.58,-15.53 1936.38,-22.48"/>
</a>
</g>
</g>
<!-- Node44 -->
<g id="Node000044" class="node">
<title>Node44</title>
<g id="a_Node000044"><a xlink:href="Entity_8h.html" target="_top" xlink:title="ECSにおけるオブジェクトの識別子 (ID) を定義します。">
<polygon fill="white" stroke="#666666" points="1221.5,-129 1168.5,-129 1168.5,-110 1221.5,-110 1221.5,-129"/>
<text text-anchor="middle" x="1195" y="-117" font-family="Helvetica,sans-Serif" font-size="10.00">Entity.h</text>
</a>
</g>
</g>
<!-- Node43&#45;&gt;Node44 -->
<g id="edge38_Node000043_Node000044" class="edge">
<title>Node43&#45;&gt;Node44</title>
<g id="a_edge38_Node000043_Node000044"><a xlink:title=" ">
<path fill="none" stroke="#63b8ff" d="M1295.84,-170.49C1276.27,-160.79 1244.03,-144.81 1221.28,-133.53"/>
<polygon fill="#63b8ff" stroke="#63b8ff" points="1222.69,-130.32 1212.18,-129.02 1219.58,-136.59 1222.69,-130.32"/>
</a>
</g>
</g>
<!-- Node44&#45;&gt;Node3 -->
<g id="edge39_Node000044_Node000003" class="edge">
<title>Node44&#45;&gt;Node3</title>
<g id="a_edge39_Node000044_Node000003"><a xlink:title=" ">
<path fill="none" stroke="#63b8ff" d="M1211.55,-109.98C1227.89,-101.57 1253.13,-88.59 1272.13,-78.81"/>
<polygon fill="#63b8ff" stroke="#63b8ff" points="1273.86,-81.86 1281.15,-74.17 1270.66,-75.63 1273.86,-81.86"/>
</a>
</g>
</g>
<!-- Node45&#45;&gt;Node3 -->
<g id="edge41_Node000045_Node000003" class="edge">
<title>Node45&#45;&gt;Node3</title>
<g id="a_edge41_Node000045_Node000003"><a xlink:title=" ">
<path fill="none" stroke="#63b8ff" d="M1298,-109.75C1298,-102.8 1298,-92.85 1298,-84.13"/>
<polygon fill="#63b8ff" stroke="#63b8ff" points="1301.5,-84.09 1298,-74.09 1294.5,-84.09 1301.5,-84.09"/>
</a>
</g>
</g>
<!-- Node50&#45;&gt;Node3 -->
<g id="edge43_Node000050_Node000003" class="edge">
<title>Node50&#45;&gt;Node3</title>
<g id="a_edge43_Node000050_Node000003"><a xlink:title=" ">
<path fill="none" stroke="#63b8ff" d="M1388.65,-109.98C1371.43,-101.54 1344.8,-88.47 1324.85,-78.68"/>
<polygon fill="#63b8ff" stroke="#63b8ff" points="1326.19,-75.43 1315.67,-74.17 1323.1,-81.72 1326.19,-75.43"/>
</a>
</g>
</g>
<!-- Node52 -->
<g id="Node000052" class="node">
<title>Node52</title>
<g id="a_Node000052"><a xlink:href="FixedString_8h.html" target="_top" xlink:title="固定長文字列ラッパー (POD)">
<polygon fill="#fff0f0" stroke="red" points="1654.5,-129 1493.5,-129 1493.5,-110 1654.5,-110 1654.5,-129"/>
<text text-anchor="middle" x="1574" y="-117" font-family="Helvetica,sans-Serif" font-size="10.00">Core/Containers/FixedString.h</text>
</a>
</g>
</g>
<!-- Node51&#45;&gt;Node52 -->
<g id="edge45_Node000051_Node000052" class="edge">
<title>Node51&#45;&gt;Node52</title>
<g id="a_edge45_Node000051_Node000052"><a xlink:title=" ">
<path fill="none" stroke="#63b8ff" d="M1560.08,-230.94C1562.48,-211.91 1568.3,-165.69 1571.61,-139.47"/>
<polygon fill="#63b8ff" stroke="#63b8ff" points="1575.11,-139.66 1572.89,-129.3 1568.17,-138.79 1575.11,-139.66"/>
</a>
</g>
</g>
<!-- Node53 -->
<g id="Node000053" class="node">
<title>Node53</title>
<g id="a_Node000053"><a xlink:href="SpanReflection_8h.html" target="_top" xlink:title="コンポーネント定義用のリフレクションマクロ。">
<polygon fill="#fff0f0" stroke="red" points="1926,-195 1816,-195 1816,-165 1926,-165 1926,-195"/>
<text text-anchor="start" x="1824" y="-183" font-family="Helvetica,sans-Serif" font-size="10.00">Runtime/Reflection</text>
<text text-anchor="middle" x="1871" y="-172" font-family="Helvetica,sans-Serif" font-size="10.00">/SpanReflection.h</text>
</a>
</g>
</g>
<!-- Node51&#45;&gt;Node53 -->
<g id="edge47_Node000051_Node000053" class="edge">
<title>Node51&#45;&gt;Node53</title>
<g id="a_edge47_Node000051_Node000053"><a xlink:title=" ">
<path fill="none" stroke="#63b8ff" d="M1604.37,-230.99C1657.33,-221.06 1745.34,-204.56 1805.66,-193.25"/>
<polygon fill="#63b8ff" stroke="#63b8ff" points="1806.66,-196.63 1815.84,-191.34 1805.37,-189.75 1806.66,-196.63"/>
</a>
</g>
</g>
<!-- Node52&#45;&gt;Node3 -->
<g id="edge46_Node000052_Node000003" class="edge">
<title>Node52&#45;&gt;Node3</title>
<g id="a_edge46_Node000052_Node000003"><a xlink:title=" ">
<path fill="none" stroke="#63b8ff" d="M1529.66,-109.98C1481.51,-100.74 1404.58,-85.97 1352.71,-76.01"/>
<polygon fill="#63b8ff" stroke="#63b8ff" points="1353.17,-72.53 1342.69,-74.08 1351.85,-79.41 1353.17,-72.53"/>
</a>
</g>
</g>
<!-- Node53&#45;&gt;Node34 -->
<g id="edge49_Node000053_Node000034" class="edge">
<title>Node53&#45;&gt;Node34</title>
<g id="a_edge49_Node000053_Node000034"><a xlink:title=" ">
<path fill="none" stroke="#63b8ff" d="M1916.03,-164.92C2020.37,-132.3 2277.11,-52.04 2373.04,-22.05"/>
<polygon fill="#63b8ff" stroke="#63b8ff" points="2374.11,-25.39 2382.61,-19.06 2372.02,-18.71 2374.11,-25.39"/>
</a>
</g>
</g>
<!-- Node53&#45;&gt;Node52 -->
<g id="edge48_Node000053_Node000052" class="edge">
<title>Node53&#45;&gt;Node52</title>
<g id="a_edge48_Node000053_Node000052"><a xlink:title=" ">
<path fill="none" stroke="#63b8ff" d="M1815.83,-168.13C1761.93,-157.52 1680.45,-141.47 1627.23,-130.98"/>
<polygon fill="#63b8ff" stroke="#63b8ff" points="1627.79,-127.53 1617.3,-129.03 1626.44,-134.4 1627.79,-127.53"/>
</a>
</g>
</g>
<!-- Node62&#45;&gt;Node53 -->
<g id="edge51_Node000062_Node000053" class="edge">
<title>Node62&#45;&gt;Node53</title>
<g id="a_edge51_Node000062_Node000053"><a xlink:title=" ">
<path fill="none" stroke="#63b8ff" d="M1738.54,-230.99C1760.85,-222.57 1795.67,-209.43 1824.01,-198.73"/>
<polygon fill="#63b8ff" stroke="#63b8ff" points="1825.62,-201.87 1833.74,-195.06 1823.14,-195.32 1825.62,-201.87"/>
</a>
</g>
</g>
<!-- Node63&#45;&gt;Node53 -->
<g id="edge53_Node000063_Node000053" class="edge">
<title>Node63&#45;&gt;Node53</title>
<g id="a_edge53_Node000063_Node000053"><a xlink:title=" ">
<path fill="none" stroke="#63b8ff" d="M1871,-230.87C1871,-224.11 1871,-214.35 1871,-205.26"/>
<polygon fill="#63b8ff" stroke="#63b8ff" points="1874.5,-205.11 1871,-195.11 1867.5,-205.11 1874.5,-205.11"/>
</a>
</g>
</g>
<!-- Node64&#45;&gt;Node53 -->
<g id="edge57_Node000064_Node000053" class="edge">
<title>Node64&#45;&gt;Node53</title>
<g id="a_edge57_Node000064_Node000053"><a xlink:title=" ">
<path fill="none" stroke="#63b8ff" d="M2157.29,-230.99C2098.98,-220.81 2001.11,-203.72 1936.29,-192.4"/>
<polygon fill="#63b8ff" stroke="#63b8ff" points="1936.64,-188.91 1926.18,-190.64 1935.43,-195.8 1936.64,-188.91"/>
</a>
</g>
</g>
<!-- Node57 -->
<g id="Node000057" class="node">
<title>Node57</title>
<g id="a_Node000057"><a xlink:href="SpanMath_8h.html" target="_top" xlink:title="算術ライブラリ (Vector, Matrix, Quaternion)。">
<polygon fill="#fff0f0" stroke="red" points="2468,-74 2340,-74 2340,-55 2468,-55 2468,-74"/>
<text text-anchor="middle" x="2404" y="-62" font-family="Helvetica,sans-Serif" font-size="10.00">Core/Math/SpanMath.h</text>
</a>
</g>
</g>
<!-- Node64&#45;&gt;Node57 -->
<g id="edge55_Node000064_Node000057" class="edge">
<title>Node64&#45;&gt;Node57</title>
<g id="a_edge55_Node000064_Node000057"><a xlink:title=" ">
<path fill="none" stroke="#63b8ff" d="M2215.82,-230.87C2247.29,-203.21 2345.95,-116.52 2386.41,-80.95"/>
<polygon fill="#63b8ff" stroke="#63b8ff" points="2388.92,-83.41 2394.12,-74.18 2384.3,-78.15 2388.92,-83.41"/>
</a>
</g>
</g>
<!-- Node57&#45;&gt;Node16 -->
<g id="edge56_Node000057_Node000016" class="edge">
<title>Node57&#45;&gt;Node16</title>
<g id="a_edge56_Node000057_Node000016"><a xlink:title=" ">
<path fill="none" stroke="#63b8ff" d="M2421.83,-54.98C2439.61,-46.5 2467.15,-33.35 2487.68,-23.54"/>
<polygon fill="#63b8ff" stroke="#63b8ff" points="2489.33,-26.64 2496.84,-19.17 2486.31,-20.32 2489.33,-26.64"/>
</a>
</g>
</g>
<!-- Node65&#45;&gt;Node44 -->
<g id="edge59_Node000065_Node000044" class="edge">
<title>Node65&#45;&gt;Node44</title>
<g id="a_edge59_Node000065_Node000044"><a xlink:title=" ">
<path fill="none" stroke="#63b8ff" d="M1164.31,-170.37C1169.58,-161.81 1177.79,-148.47 1184.39,-137.74"/>
<polygon fill="#63b8ff" stroke="#63b8ff" points="1187.41,-139.52 1189.67,-129.17 1181.44,-135.85 1187.41,-139.52"/>
</a>
</g>
</g>
<!-- Node66&#45;&gt;Node53 -->
<g id="edge61_Node000066_Node000053" class="edge">
<title>Node66&#45;&gt;Node53</title>
<g id="a_edge61_Node000066_Node000053"><a xlink:title=" ">
<path fill="none" stroke="#63b8ff" d="M2009.44,-230.99C1986.03,-222.54 1949.42,-209.32 1919.72,-198.59"/>
<polygon fill="#63b8ff" stroke="#63b8ff" points="1920.54,-195.17 1909.95,-195.06 1918.16,-201.75 1920.54,-195.17"/>
</a>
</g>
</g>
</g>
</svg>

<g id="navigator" transform="translate(0 0)" fill="#404254">
  <rect fill="#f2f5e9" fill-opacity="0.5" stroke="#606060" stroke-width=".5" x="0" y="0" width="60" height="60"/>
  <use id="zoomplus" xlink:href="#zoomPlus" x="17" y="9" onmousedown="handleZoom(evt,'in')"/>
  <use id="zoomminus" xlink:href="#zoomMin" x="42" y="9" onmousedown="handleZoom(evt,'out')"/>
  <use id="reset" xlink:href="#resetDef" x="30" y="36" onmousedown="handleReset()"/>
   <use id="arrowup" xlink:href="#arrowUp" x="0" y="0" onmousedown="handlePan(0,-1)"/>
  <use id="arrowright" xlink:href="#arrowRight" x="0" y="0" onmousedown="handlePan(1,0)"/>
  <use id="arrowdown" xlink:href="#arrowDown" x="0" y="0" onmousedown="handlePan(0,1)"/>
  <use id="arrowleft" xlink:href="#arrowLeft" x="0" y="0" onmousedown="handlePan(-1,0)"/>
</g>
<svg viewBox="0 0 15 15" width="100%" height="30px" preserveAspectRatio="xMaxYMin meet">
 <g id="arrow_out" transform="scale(0.3 0.3)">
  <a xlink:href="EntityBuilder_8h__incl_org.svg" target="_base">
   <rect id="button" ry="5" rx="5" y="6" x="6" height="38" width="38"
        fill="#f2f5e9" fill-opacity="0.5" stroke="#606060" stroke-width="1.0"/>
   <path id="arrow"
     d="M 11.500037,31.436501 C 11.940474,20.09759 22.043105,11.32322 32.158766,21.979434 L 37.068811,17.246167 C 37.068811,17.246167 37.088388,32 37.088388,32 L 22.160133,31.978069 C 22.160133,31.978069 26.997745,27.140456 26.997745,27.140456 C 18.528582,18.264221 13.291696,25.230495 11.500037,31.436501 z"
     style="fill:#404040;"/>
  </a>
 </g>
</svg>

<style type='text/css'>
<![CDATA[
[data-mouse-over-selected='false'] { opacity: 0.7; }
[data-mouse-over-selected='true']  { opacity: 1.0; }
]]>
</style>
<script type="application/ecmascript"><![CDATA[
document.addEventListener('DOMContentLoaded', (event) => {
  highlightEdges();
  highlightAdjacentNodes();
});
]]></script>
</svg>
