<?xml version="1.0" encoding="UTF-8" standalone="no"?>
<!DOCTYPE svg PUBLIC "-//W3C//DTD SVG 1.1//EN"
 "http://www.w3.org/Graphics/SVG/1.1/DTD/svg11.dtd">
<!-- Generated by graphviz version 2.43.0 (0)
 -->
<!-- Title: Engine/Source/Runtime/ECS/Kernel/EntityManager.h Pages: 1 -->
<!--zoomable 522 -->

<svg id="main" version="1.1" xmlns="http://www.w3.org/2000/svg" xmlns:xlink="http://www.w3.org/1999/xlink" xml:space="preserve" onload="init(evt)">

<style type="text/css"><![CDATA[
.node, .edge {opacity: 0.7;}
.node.selected, .edge.selected {opacity: 1;}
.edge:hover path { stroke: red; }
.edge:hover polygon { stroke: red; fill: red; }
]]></style>

<defs>
  <circle id="rim" cx="0" cy="0" r="7"/>
  <circle id="rim2" cx="0" cy="0" r="3.5"/>
  <g id="zoomPlus">
    <use xlink:href="#rim" fill="#404040"><set attributeName="fill" to="#808080" begin="zoomplus.mouseover" end="zoomplus.mouseout"/></use>
    <path d="M-4,0h8M0,-4v8" fill="none" stroke="white" stroke-width="1.5" pointer-events="none"/>
  </g>
  <g id="zoomMin">
    <use xlink:href="#rim" fill="#404040"><set attributeName="fill" to="#808080" begin="zoomminus.mouseover" end="zoomminus.mouseout"/></use>
    <path d="M-4,0h8" fill="none" stroke="white" stroke-width="1.5" pointer-events="none"/>
  </g>
  <g id="arrowUp" transform="translate(30 24)">
    <use xlink:href="#rim"/>
    <path pointer-events="none" fill="none" stroke="white" stroke-width="1.5" d="M0,-3.0v7 M-2.5,-0.5L0,-3.0L2.5,-0.5"/>
  </g>
  <g id="arrowRight" transform="rotate(90) translate(36 -43)">
    <use xlink:href="#rim"/>
    <path pointer-events="none" fill="none" stroke="white" stroke-width="1.5" d="M0,-3.0v7 M-2.5,-0.5L0,-3.0L2.5,-0.5"/>
  </g>
  <g id="arrowDown" transform="rotate(180) translate(-30 -48)">
    <use xlink:href="#rim"/>
    <path pointer-events="none" fill="none" stroke="white" stroke-width="1.5" d="M0,-3.0v7 M-2.5,-0.5L0,-3.0L2.5,-0.5"/>
  </g>
  <g id="arrowLeft" transform="rotate(270) translate(-36 17)">
    <use xlink:href="#rim"/>
    <path pointer-events="none" fill="none" stroke="white" stroke-width="1.5" d="M0,-3.0v7 M-2.5,-0.5L0,-3.0L2.5,-0.5"/>
  </g>
  <g id="resetDef">
    <use xlink:href="#rim2" fill="#404040"><set attributeName="fill" to="#808080" begin="reset.mouseover" end="reset.mouseout"/></use>
  </g>
</defs>
<script type="application/ecmascript">
var viewWidth = 1777;
var viewHeight = 522;
var sectionId = 'dynsection-1';
</script>
<script type="application/ecmascript" xlink:href="svg.min.js"/>
<svg id="graph" class="graph">
<g id="viewport">
<title>Engine/Source/Runtime/ECS/Kernel/EntityManager.h</title>
<!-- Node1 -->
<g id="Node000001" class="node">
<title>Node1</title>
<g id="a_Node000001"><a xlink:title="エンティティIDのライフサイクル管理クラス">
<polygon fill="#999999" stroke="#666666" points="1616.21,-514 1461.21,-514 1461.21,-484 1616.21,-484 1616.21,-514"/>
<text text-anchor="start" x="1469.21" y="-502" font-family="Helvetica,sans-Serif" font-size="10.00">Engine/Source/Runtime</text>
<text text-anchor="middle" x="1538.71" y="-491" font-family="Helvetica,sans-Serif" font-size="10.00">/ECS/Kernel/EntityManager.h</text>
</a>
</g>
</g>
<!-- Node2 -->
<g id="Node000002" class="node">
<title>Node2</title>
<g id="a_Node000002"><a xlink:href="EntityManager_8cpp.html" target="_top" xlink:title=" ">
<polygon fill="white" stroke="#666666" points="1455.71,-448 1289.71,-448 1289.71,-418 1455.71,-418 1455.71,-448"/>
<text text-anchor="start" x="1297.71" y="-436" font-family="Helvetica,sans-Serif" font-size="10.00">Engine/Source/Runtime</text>
<text text-anchor="middle" x="1372.71" y="-425" font-family="Helvetica,sans-Serif" font-size="10.00">/ECS/Kernel/EntityManager.cpp</text>
</a>
</g>
</g>
<!-- Node1&#45;&gt;Node2 -->
<g id="edge1_Node000001_Node000002" class="edge">
<title>Node1&#45;&gt;Node2</title>
<g id="a_edge1_Node000001_Node000002"><a xlink:title=" ">
<path fill="none" stroke="#63b8ff" d="M1492.86,-480.32C1466.44,-470.14 1433.69,-457.51 1409.06,-448.01"/>
<polygon fill="#63b8ff" stroke="#63b8ff" points="1491.69,-483.62 1502.28,-483.95 1494.21,-477.09 1491.69,-483.62"/>
</a>
</g>
</g>
<!-- Node3 -->
<g id="Node000003" class="node">
<title>Node3</title>
<g id="a_Node000003"><a xlink:href="World_8h.html" target="_top" xlink:title="ECSワールド (シーン) の管理クラス。">
<polygon fill="white" stroke="#666666" points="1603.71,-448 1473.71,-448 1473.71,-418 1603.71,-418 1603.71,-448"/>
<text text-anchor="start" x="1481.71" y="-436" font-family="Helvetica,sans-Serif" font-size="10.00">Engine/Source/Runtime</text>
<text text-anchor="middle" x="1538.71" y="-425" font-family="Helvetica,sans-Serif" font-size="10.00">/ECS/Kernel/World.h</text>
</a>
</g>
</g>
<!-- Node1&#45;&gt;Node3 -->
<g id="edge2_Node000001_Node000003" class="edge">
<title>Node1&#45;&gt;Node3</title>
<g id="a_edge2_Node000001_Node000003"><a xlink:title=" ">
<path fill="none" stroke="#63b8ff" d="M1538.71,-473.54C1538.71,-464.96 1538.71,-455.61 1538.71,-448.16"/>
<polygon fill="#63b8ff" stroke="#63b8ff" points="1535.21,-473.8 1538.71,-483.8 1542.21,-473.8 1535.21,-473.8"/>
</a>
</g>
</g>
<!-- Node8 -->
<g id="Node000008" class="node">
<title>Node8</title>
<g id="a_Node000008"><a xlink:href="SpanEngine_8h.html" target="_top" xlink:title=" ">
<polygon fill="white" stroke="#666666" points="1216.21,-96 1061.21,-96 1061.21,-77 1216.21,-77 1216.21,-96"/>
<text text-anchor="middle" x="1138.71" y="-84" font-family="Helvetica,sans-Serif" font-size="10.00">Engine/Source/SpanEngine.h</text>
</a>
</g>
</g>
<!-- Node1&#45;&gt;Node8 -->
<g id="edge55_Node000001_Node000008" class="edge">
<title>Node1&#45;&gt;Node8</title>
<g id="a_edge55_Node000001_Node000008"><a xlink:title=" ">
<path fill="none" stroke="#63b8ff" d="M1626.16,-484.55C1691.19,-469 1768.71,-436.17 1768.71,-368 1768.71,-368 1768.71,-368 1768.71,-228.5 1768.71,-175.25 1744.24,-157.9 1697.71,-132 1656.7,-109.17 1360.17,-95.48 1216.43,-90.12"/>
<polygon fill="#63b8ff" stroke="#63b8ff" points="1625.23,-481.17 1616.26,-486.81 1626.79,-488 1625.23,-481.17"/>
</a>
</g>
</g>
<!-- Node4 -->
<g id="Node000004" class="node">
<title>Node4</title>
<g id="a_Node000004"><a xlink:href="Application_8h.html" target="_top" xlink:title="エンジンのメインループとライフサイクル管理。">
<polygon fill="white" stroke="#666666" points="1662.71,-244.5 1532.71,-244.5 1532.71,-214.5 1662.71,-214.5 1662.71,-244.5"/>
<text text-anchor="start" x="1540.71" y="-232.5" font-family="Helvetica,sans-Serif" font-size="10.00">Engine/Source/Runtime</text>
<text text-anchor="middle" x="1597.71" y="-221.5" font-family="Helvetica,sans-Serif" font-size="10.00">/Application.h</text>
</a>
</g>
</g>
<!-- Node3&#45;&gt;Node4 -->
<g id="edge3_Node000003_Node000004" class="edge">
<title>Node3&#45;&gt;Node4</title>
<g id="a_edge3_Node000003_Node000004"><a xlink:title=" ">
<path fill="none" stroke="#63b8ff" d="M1598.73,-413.68C1613.33,-406.25 1627.18,-396 1635.71,-382 1663.23,-336.85 1626.78,-272.58 1607.84,-244.52"/>
<polygon fill="#63b8ff" stroke="#63b8ff" points="1597.17,-410.55 1589.59,-417.95 1600.13,-416.89 1597.17,-410.55"/>
</a>
</g>
</g>
<!-- Node3&#45;&gt;Node8 -->
<g id="edge54_Node000003_Node000008" class="edge">
<title>Node3&#45;&gt;Node8</title>
<g id="a_edge54_Node000003_Node000008"><a xlink:title=" ">
<path fill="none" stroke="#63b8ff" d="M1600.77,-414.3C1619.46,-406.68 1638.91,-396.17 1653.71,-382 1682.28,-354.64 1692.71,-341.56 1692.71,-302 1692.71,-302 1692.71,-302 1692.71,-228.5 1692.71,-184.79 1706.29,-161.14 1673.71,-132 1640.39,-102.2 1356.47,-92.07 1216.33,-88.87"/>
<polygon fill="#63b8ff" stroke="#63b8ff" points="1599.45,-411.06 1591.38,-417.92 1601.97,-417.59 1599.45,-411.06"/>
</a>
</g>
</g>
<!-- Node14 -->
<g id="Node000014" class="node">
<title>Node14</title>
<g id="a_Node000014"><a xlink:href="RenderingSystem_8h.html" target="_top" xlink:title="描画コマンド発行システム。">
<polygon fill="white" stroke="#666666" points="1440.71,-173 1280.71,-173 1280.71,-132 1440.71,-132 1440.71,-173"/>
<text text-anchor="start" x="1288.71" y="-161" font-family="Helvetica,sans-Serif" font-size="10.00">Engine/Source/Runtime</text>
<text text-anchor="start" x="1288.71" y="-150" font-family="Helvetica,sans-Serif" font-size="10.00">/Systems/Graphics/Rendering</text>
<text text-anchor="middle" x="1360.71" y="-139" font-family="Helvetica,sans-Serif" font-size="10.00">System.h</text>
</a>
</g>
</g>
<!-- Node3&#45;&gt;Node14 -->
<g id="edge53_Node000003_Node000014" class="edge">
<title>Node3&#45;&gt;Node14</title>
<g id="a_edge53_Node000003_Node000014"><a xlink:title=" ">
<path fill="none" stroke="#63b8ff" d="M1478.69,-413.68C1464.09,-406.25 1450.25,-396 1441.71,-382 1401.69,-316.35 1478.76,-276.92 1442.71,-209 1434.57,-193.66 1420.09,-181.79 1405.54,-173.03"/>
<polygon fill="#63b8ff" stroke="#63b8ff" points="1477.29,-416.89 1487.83,-417.95 1480.26,-410.55 1477.29,-416.89"/>
</a>
</g>
</g>
<!-- Node15 -->
<g id="Node000015" class="node">
<title>Node15</title>
<g id="a_Node000015"><a xlink:href="EntityBuilder_8h.html" target="_top" xlink:title="エンティティ生成を簡略化するヘルパークラス。">
<polygon fill="white" stroke="#666666" points="1072.71,-167.5 926.71,-167.5 926.71,-137.5 1072.71,-137.5 1072.71,-167.5"/>
<text text-anchor="start" x="934.71" y="-155.5" font-family="Helvetica,sans-Serif" font-size="10.00">Engine/Source/Runtime</text>
<text text-anchor="middle" x="999.71" y="-144.5" font-family="Helvetica,sans-Serif" font-size="10.00">/ECS/Kernel/EntityBuilder.h</text>
</a>
</g>
</g>
<!-- Node3&#45;&gt;Node15 -->
<g id="edge17_Node000003_Node000015" class="edge">
<title>Node3&#45;&gt;Node15</title>
<g id="a_edge17_Node000003_Node000015"><a xlink:title=" ">
<path fill="none" stroke="#63b8ff" d="M1463.56,-417.67C1246.3,-376.16 632.42,-258.26 625.71,-250 564.49,-174.67 675.02,-204.13 879.71,-173 894.84,-170.7 911.02,-168.14 926.45,-165.65"/>
<polygon fill="#63b8ff" stroke="#63b8ff" points="1463.12,-421.15 1473.6,-419.59 1464.44,-414.27 1463.12,-421.15"/>
</a>
</g>
</g>
<!-- Node16 -->
<g id="Node000016" class="node">
<title>Node16</title>
<g id="a_Node000016"><a xlink:href="ComponentRegistry_8h.html" target="_top" xlink:title="コンポーネントのメタデータ管理 (リフレクション)。">
<polygon fill="white" stroke="#666666" points="1626.71,-382 1450.71,-382 1450.71,-352 1626.71,-352 1626.71,-382"/>
<text text-anchor="start" x="1458.71" y="-370" font-family="Helvetica,sans-Serif" font-size="10.00">Engine/Source/Runtime</text>
<text text-anchor="middle" x="1538.71" y="-359" font-family="Helvetica,sans-Serif" font-size="10.00">/Reflection/ComponentRegistry.h</text>
</a>
</g>
</g>
<!-- Node3&#45;&gt;Node16 -->
<g id="edge19_Node000003_Node000016" class="edge">
<title>Node3&#45;&gt;Node16</title>
<g id="a_edge19_Node000003_Node000016"><a xlink:title=" ">
<path fill="none" stroke="#63b8ff" d="M1538.71,-407.54C1538.71,-398.96 1538.71,-389.61 1538.71,-382.16"/>
<polygon fill="#63b8ff" stroke="#63b8ff" points="1535.21,-407.8 1538.71,-417.8 1542.21,-407.8 1535.21,-407.8"/>
</a>
</g>
</g>
<!-- Node23 -->
<g id="Node000023" class="node">
<title>Node23</title>
<g id="a_Node000023"><a xlink:href="TransformSystem_8h.html" target="_top" xlink:title="ローカル座標からワールド座標への変換行列計算">
<polygon fill="white" stroke="#666666" points="210.21,-167.5 25.21,-167.5 25.21,-137.5 210.21,-137.5 210.21,-167.5"/>
<text text-anchor="start" x="33.21" y="-155.5" font-family="Helvetica,sans-Serif" font-size="10.00">Engine/Source/Runtime</text>
<text text-anchor="middle" x="117.71" y="-144.5" font-family="Helvetica,sans-Serif" font-size="10.00">/Systems/Core/TransformSystem.h</text>
</a>
</g>
</g>
<!-- Node3&#45;&gt;Node23 -->
<g id="edge52_Node000003_Node000023" class="edge">
<title>Node3&#45;&gt;Node23</title>
<g id="a_edge52_Node000003_Node000023"><a xlink:title=" ">
<path fill="none" stroke="#63b8ff" d="M1463.33,-417.87C1313.1,-396.12 1272.77,-400.83 1125.71,-382 733.43,-331.77 610.37,-403.08 245.71,-250 198.75,-230.29 153.52,-189.45 131.55,-167.76"/>
<polygon fill="#63b8ff" stroke="#63b8ff" points="1462.99,-421.36 1473.39,-419.34 1464,-414.43 1462.99,-421.36"/>
</a>
</g>
</g>
<!-- Node5 -->
<g id="Node000005" class="node">
<title>Node5</title>
<g id="a_Node000005"><a xlink:href="Application_8cpp.html" target="_top" xlink:title=" ">
<polygon fill="white" stroke="#666666" points="1735.71,-35.5 1605.71,-35.5 1605.71,-5.5 1735.71,-5.5 1735.71,-35.5"/>
<text text-anchor="start" x="1613.71" y="-23.5" font-family="Helvetica,sans-Serif" font-size="10.00">Engine/Source/Runtime</text>
<text text-anchor="middle" x="1670.71" y="-12.5" font-family="Helvetica,sans-Serif" font-size="10.00">/Application.cpp</text>
</a>
</g>
</g>
<!-- Node4&#45;&gt;Node5 -->
<g id="edge4_Node000004_Node000005" class="edge">
<title>Node4&#45;&gt;Node5</title>
<g id="a_edge4_Node000004_Node000005"><a xlink:title=" ">
<path fill="none" stroke="#63b8ff" d="M1638,-209.15C1651.94,-200.23 1665.99,-188.2 1673.71,-173 1696.83,-127.5 1683.19,-63.96 1675.22,-35.85"/>
<polygon fill="#63b8ff" stroke="#63b8ff" points="1636.17,-206.16 1629.39,-214.3 1639.77,-212.17 1636.17,-206.16"/>
</a>
</g>
</g>
<!-- Node6 -->
<g id="Node000006" class="node">
<title>Node6</title>
<g id="a_Node000006"><a xlink:href="EntryPoint_8h.html" target="_top" xlink:title="アプリケーションのエントリーポイント (main関数)。">
<polygon fill="white" stroke="#666666" points="1664.71,-167.5 1534.71,-167.5 1534.71,-137.5 1664.71,-137.5 1664.71,-167.5"/>
<text text-anchor="start" x="1542.71" y="-155.5" font-family="Helvetica,sans-Serif" font-size="10.00">Engine/Source/Runtime</text>
<text text-anchor="middle" x="1599.71" y="-144.5" font-family="Helvetica,sans-Serif" font-size="10.00">/EntryPoint.h</text>
</a>
</g>
</g>
<!-- Node4&#45;&gt;Node6 -->
<g id="edge5_Node000004_Node000006" class="edge">
<title>Node4&#45;&gt;Node6</title>
<g id="a_edge5_Node000004_Node000006"><a xlink:title=" ">
<path fill="none" stroke="#63b8ff" d="M1598.36,-204.04C1598.69,-191.95 1599.06,-177.79 1599.34,-167.54"/>
<polygon fill="#63b8ff" stroke="#63b8ff" points="1594.86,-204.3 1598.09,-214.39 1601.85,-204.49 1594.86,-204.3"/>
</a>
</g>
</g>
<!-- Node7 -->
<g id="Node000007" class="node">
<title>Node7</title>
<g id="a_Node000007"><a xlink:href="CameraSystem_8h.html" target="_top" xlink:title="カメラ行列の更新とレンダラーへの適用。">
<polygon fill="white" stroke="#666666" points="654.71,-167.5 460.71,-167.5 460.71,-137.5 654.71,-137.5 654.71,-167.5"/>
<text text-anchor="start" x="468.71" y="-155.5" font-family="Helvetica,sans-Serif" font-size="10.00">Engine/Source/Runtime</text>
<text text-anchor="middle" x="557.71" y="-144.5" font-family="Helvetica,sans-Serif" font-size="10.00">/Systems/Graphics/CameraSystem.h</text>
</a>
</g>
</g>
<!-- Node4&#45;&gt;Node7 -->
<g id="edge6_Node000004_Node000007" class="edge">
<title>Node4&#45;&gt;Node7</title>
<g id="a_edge6_Node000004_Node000007"><a xlink:title=" ">
<path fill="none" stroke="#63b8ff" d="M1522.68,-217.85C1497.33,-214.57 1468.83,-211.24 1442.71,-209 1097.83,-179.37 1008.64,-212.12 664.71,-173 652.42,-171.6 639.42,-169.64 626.87,-167.5"/>
<polygon fill="#63b8ff" stroke="#63b8ff" points="1522.23,-221.32 1532.6,-219.15 1523.14,-214.38 1522.23,-221.32"/>
</a>
</g>
</g>
<!-- Node4&#45;&gt;Node8 -->
<g id="edge16_Node000004_Node000008" class="edge">
<title>Node4&#45;&gt;Node8</title>
<g id="a_edge16_Node000004_Node000008"><a xlink:title=" ">
<path fill="none" stroke="#63b8ff" d="M1570.25,-208.4C1556.6,-198.14 1540,-185.26 1525.71,-173 1505.67,-155.8 1506.55,-143.37 1482.71,-132 1437.06,-110.22 1303.18,-97.86 1216.53,-91.94"/>
<polygon fill="#63b8ff" stroke="#63b8ff" points="1568.22,-211.25 1578.33,-214.42 1572.41,-205.64 1568.22,-211.25"/>
</a>
</g>
</g>
<!-- Node4&#45;&gt;Node14 -->
<g id="edge14_Node000004_Node000014" class="edge">
<title>Node4&#45;&gt;Node14</title>
<g id="a_edge14_Node000004_Node000014"><a xlink:title=" ">
<path fill="none" stroke="#63b8ff" d="M1543.58,-211.37C1507.57,-199.97 1460.19,-184.98 1422.67,-173.11"/>
<polygon fill="#63b8ff" stroke="#63b8ff" points="1542.82,-214.8 1553.41,-214.48 1544.93,-208.13 1542.82,-214.8"/>
</a>
</g>
</g>
<!-- Node7&#45;&gt;Node8 -->
<g id="edge7_Node000007_Node000008" class="edge">
<title>Node7&#45;&gt;Node8</title>
<g id="a_edge7_Node000007_Node000008"><a xlink:title=" ">
<path fill="none" stroke="#63b8ff" d="M639.68,-135.81C648.12,-134.42 656.58,-133.12 664.71,-132 803.7,-112.85 966.78,-99.53 1060.89,-92.73"/>
<polygon fill="#63b8ff" stroke="#63b8ff" points="639.09,-132.37 629.81,-137.48 640.25,-139.27 639.09,-132.37"/>
</a>
</g>
</g>
<!-- Node8&#45;&gt;Node5 -->
<g id="edge13_Node000008_Node000005" class="edge">
<title>Node8&#45;&gt;Node5</title>
<g id="a_edge13_Node000008_Node000005"><a xlink:title=" ">
<path fill="none" stroke="#63b8ff" d="M1226.49,-76.47C1307,-68 1429.5,-54.62 1535.71,-41 1558.5,-38.08 1583.4,-34.57 1605.54,-31.34"/>
<polygon fill="#63b8ff" stroke="#63b8ff" points="1225.97,-73.01 1216.39,-77.53 1226.7,-79.97 1225.97,-73.01"/>
</a>
</g>
</g>
<!-- Node9 -->
<g id="Node000009" class="node">
<title>Node9</title>
<g id="a_Node000009"><a xlink:href="GuiManager_8cpp.html" target="_top" xlink:title=" ">
<polygon fill="white" stroke="#666666" points="1356.21,-35.5 1239.21,-35.5 1239.21,-5.5 1356.21,-5.5 1356.21,-35.5"/>
<text text-anchor="start" x="1247.21" y="-23.5" font-family="Helvetica,sans-Serif" font-size="10.00">Engine/Source/Editor</text>
<text text-anchor="middle" x="1297.71" y="-12.5" font-family="Helvetica,sans-Serif" font-size="10.00">/GuiManager.cpp</text>
</a>
</g>
</g>
<!-- Node8&#45;&gt;Node9 -->
<g id="edge8_Node000008_Node000009" class="edge">
<title>Node8&#45;&gt;Node9</title>
<g id="a_edge8_Node000008_Node000009"><a xlink:title=" ">
<path fill="none" stroke="#63b8ff" d="M1169.76,-73C1196.43,-62.27 1234.87,-46.8 1262.64,-35.62"/>
<polygon fill="#63b8ff" stroke="#63b8ff" points="1168.13,-69.89 1160.16,-76.87 1170.74,-76.38 1168.13,-69.89"/>
</a>
</g>
</g>
<!-- Node10 -->
<g id="Node000010" class="node">
<title>Node10</title>
<g id="a_Node000010"><a xlink:href="HierarchyPanel_8cpp.html" target="_top" xlink:title=" ">
<polygon fill="white" stroke="#666666" points="1526.71,-41 1374.71,-41 1374.71,0 1526.71,0 1526.71,-41"/>
<text text-anchor="start" x="1382.71" y="-29" font-family="Helvetica,sans-Serif" font-size="10.00">Engine/Source/Editor</text>
<text text-anchor="start" x="1382.71" y="-18" font-family="Helvetica,sans-Serif" font-size="10.00">/Panels/Hierarchy/Hierarchy</text>
<text text-anchor="middle" x="1450.71" y="-7" font-family="Helvetica,sans-Serif" font-size="10.00">Panel.cpp</text>
</a>
</g>
</g>
<!-- Node8&#45;&gt;Node10 -->
<g id="edge9_Node000008_Node000010" class="edge">
<title>Node8&#45;&gt;Node10</title>
<g id="a_edge9_Node000008_Node000010"><a xlink:title=" ">
<path fill="none" stroke="#63b8ff" d="M1194.52,-75.07C1240.53,-66.35 1307.46,-53.39 1365.71,-41 1368.53,-40.4 1371.39,-39.78 1374.28,-39.16"/>
<polygon fill="#63b8ff" stroke="#63b8ff" points="1193.63,-71.68 1184.45,-76.98 1194.93,-78.56 1193.63,-71.68"/>
</a>
</g>
</g>
<!-- Node11 -->
<g id="Node000011" class="node">
<title>Node11</title>
<g id="a_Node000011"><a xlink:href="InspectorPanel_8cpp.html" target="_top" xlink:title=" ">
<polygon fill="white" stroke="#666666" points="880.21,-41 733.21,-41 733.21,0 880.21,0 880.21,-41"/>
<text text-anchor="start" x="741.21" y="-29" font-family="Helvetica,sans-Serif" font-size="10.00">Engine/Source/Editor</text>
<text text-anchor="start" x="741.21" y="-18" font-family="Helvetica,sans-Serif" font-size="10.00">/Panels/Inspector/Inspector</text>
<text text-anchor="middle" x="806.71" y="-7" font-family="Helvetica,sans-Serif" font-size="10.00">Panel.cpp</text>
</a>
</g>
</g>
<!-- Node8&#45;&gt;Node11 -->
<g id="edge10_Node000008_Node000011" class="edge">
<title>Node8&#45;&gt;Node11</title>
<g id="a_edge10_Node000008_Node000011"><a xlink:title=" ">
<path fill="none" stroke="#63b8ff" d="M1075.99,-75.25C1025.53,-66.78 952.88,-54.05 889.71,-41 886.67,-40.37 883.57,-39.71 880.43,-39.04"/>
<polygon fill="#63b8ff" stroke="#63b8ff" points="1075.65,-78.74 1086.09,-76.94 1076.81,-71.84 1075.65,-78.74"/>
</a>
</g>
</g>
<!-- Node12 -->
<g id="Node000012" class="node">
<title>Node12</title>
<g id="a_Node000012"><a xlink:href="ProjectBrowserPanel_8cpp.html" target="_top" xlink:title=" ">
<polygon fill="white" stroke="#666666" points="1038.71,-41 898.71,-41 898.71,0 1038.71,0 1038.71,-41"/>
<text text-anchor="start" x="906.71" y="-29" font-family="Helvetica,sans-Serif" font-size="10.00">Engine/Source/Editor</text>
<text text-anchor="start" x="906.71" y="-18" font-family="Helvetica,sans-Serif" font-size="10.00">/Panels/ProjectBrowser</text>
<text text-anchor="middle" x="968.71" y="-7" font-family="Helvetica,sans-Serif" font-size="10.00">/ProjectBrowserPanel.cpp</text>
</a>
</g>
</g>
<!-- Node8&#45;&gt;Node12 -->
<g id="edge11_Node000008_Node000012" class="edge">
<title>Node8&#45;&gt;Node12</title>
<g id="a_edge11_Node000008_Node000012"><a xlink:title=" ">
<path fill="none" stroke="#63b8ff" d="M1106.35,-73.32C1082.12,-64.19 1048.49,-51.53 1020.53,-41.01"/>
<polygon fill="#63b8ff" stroke="#63b8ff" points="1105.19,-76.62 1115.79,-76.87 1107.66,-70.07 1105.19,-76.62"/>
</a>
</g>
</g>
<!-- Node13 -->
<g id="Node000013" class="node">
<title>Node13</title>
<g id="a_Node000013"><a xlink:href="SceneViewPanel_8cpp.html" target="_top" xlink:title=" ">
<polygon fill="white" stroke="#666666" points="1220.71,-41 1056.71,-41 1056.71,0 1220.71,0 1220.71,-41"/>
<text text-anchor="start" x="1064.71" y="-29" font-family="Helvetica,sans-Serif" font-size="10.00">Engine/Source/Editor</text>
<text text-anchor="start" x="1064.71" y="-18" font-family="Helvetica,sans-Serif" font-size="10.00">/Panels/SceneView/SceneView</text>
<text text-anchor="middle" x="1138.71" y="-7" font-family="Helvetica,sans-Serif" font-size="10.00">Panel.cpp</text>
</a>
</g>
</g>
<!-- Node8&#45;&gt;Node13 -->
<g id="edge12_Node000008_Node000013" class="edge">
<title>Node8&#45;&gt;Node13</title>
<g id="a_edge12_Node000008_Node000013"><a xlink:title=" ">
<path fill="none" stroke="#63b8ff" d="M1138.71,-66.63C1138.71,-58.56 1138.71,-49.15 1138.71,-41.01"/>
<polygon fill="#63b8ff" stroke="#63b8ff" points="1135.21,-66.87 1138.71,-76.87 1142.21,-66.87 1135.21,-66.87"/>
</a>
</g>
</g>
<!-- Node14&#45;&gt;Node8 -->
<g id="edge15_Node000014_Node000008" class="edge">
<title>Node14&#45;&gt;Node8</title>
<g id="a_edge15_Node000014_Node000008"><a xlink:title=" ">
<path fill="none" stroke="#63b8ff" d="M1283.22,-129.16C1243.5,-117.71 1197.46,-104.44 1168.22,-96.01"/>
<polygon fill="#63b8ff" stroke="#63b8ff" points="1282.32,-132.54 1292.9,-131.95 1284.26,-125.82 1282.32,-132.54"/>
</a>
</g>
</g>
<!-- Node15&#45;&gt;Node8 -->
<g id="edge18_Node000015_Node000008" class="edge">
<title>Node15&#45;&gt;Node8</title>
<g id="a_edge18_Node000015_Node000008"><a xlink:title=" ">
<path fill="none" stroke="#63b8ff" d="M1039.63,-133.12C1066.16,-120.91 1099.75,-105.44 1120.21,-96.02"/>
<polygon fill="#63b8ff" stroke="#63b8ff" points="1037.84,-130.09 1030.22,-137.45 1040.76,-136.45 1037.84,-130.09"/>
</a>
</g>
</g>
<!-- Node16&#45;&gt;Node8 -->
<g id="edge51_Node000016_Node000008" class="edge">
<title>Node16&#45;&gt;Node8</title>
<g id="a_edge51_Node000016_Node000008"><a xlink:title=" ">
<path fill="none" stroke="#63b8ff" d="M1532.9,-342.09C1519.27,-288.1 1483.84,-159.3 1449.71,-132 1414.73,-104.02 1296.62,-93.62 1216.44,-89.77"/>
<polygon fill="#63b8ff" stroke="#63b8ff" points="1529.51,-342.98 1535.32,-351.84 1536.3,-341.29 1529.51,-342.98"/>
</a>
</g>
</g>
<!-- Node17 -->
<g id="Node000017" class="node">
<title>Node17</title>
<g id="a_Node000017"><a xlink:href="SpanReflection_8h.html" target="_top" xlink:title="コンポーネント定義用のリフレクションマクロ。">
<polygon fill="white" stroke="#666666" points="1103.21,-316 950.21,-316 950.21,-286 1103.21,-286 1103.21,-316"/>
<text text-anchor="start" x="958.21" y="-304" font-family="Helvetica,sans-Serif" font-size="10.00">Engine/Source/Runtime</text>
<text text-anchor="middle" x="1026.71" y="-293" font-family="Helvetica,sans-Serif" font-size="10.00">/Reflection/SpanReflection.h</text>
</a>
</g>
</g>
<!-- Node16&#45;&gt;Node17 -->
<g id="edge20_Node000016_Node000017" class="edge">
<title>Node16&#45;&gt;Node17</title>
<g id="a_edge20_Node000016_Node000017"><a xlink:title=" ">
<path fill="none" stroke="#63b8ff" d="M1440.77,-353.76C1342.6,-341.49 1193.5,-322.85 1103.56,-311.61"/>
<polygon fill="#63b8ff" stroke="#63b8ff" points="1440.34,-357.23 1450.7,-355 1441.21,-350.28 1440.34,-357.23"/>
</a>
</g>
</g>
<!-- Node17&#45;&gt;Node8 -->
<g id="edge50_Node000017_Node000008" class="edge">
<title>Node17&#45;&gt;Node8</title>
<g id="a_edge50_Node000017_Node000008"><a xlink:title=" ">
<path fill="none" stroke="#63b8ff" d="M1069.5,-281.12C1083.55,-273.2 1098.23,-262.81 1108.71,-250 1147.24,-202.94 1142.53,-122.38 1139.77,-96.08"/>
<polygon fill="#63b8ff" stroke="#63b8ff" points="1067.58,-278.18 1060.41,-285.98 1070.88,-284.35 1067.58,-278.18"/>
</a>
</g>
</g>
<!-- Node18 -->
<g id="Node000018" class="node">
<title>Node18</title>
<g id="a_Node000018"><a xlink:href="Layer_8h.html" target="_top" xlink:title="物理演算やレンダリングのレイヤー分け。">
<polygon fill="white" stroke="#666666" points="1099.21,-244.5 954.21,-244.5 954.21,-214.5 1099.21,-214.5 1099.21,-244.5"/>
<text text-anchor="start" x="962.21" y="-232.5" font-family="Helvetica,sans-Serif" font-size="10.00">Engine/Source/Runtime</text>
<text text-anchor="middle" x="1026.71" y="-221.5" font-family="Helvetica,sans-Serif" font-size="10.00">/Components/Core/Layer.h</text>
</a>
</g>
</g>
<!-- Node17&#45;&gt;Node18 -->
<g id="edge21_Node000017_Node000018" class="edge">
<title>Node17&#45;&gt;Node18</title>
<g id="a_edge21_Node000017_Node000018"><a xlink:title=" ">
<path fill="none" stroke="#63b8ff" d="M1026.71,-275.75C1026.71,-265.31 1026.71,-253.49 1026.71,-244.54"/>
<polygon fill="#63b8ff" stroke="#63b8ff" points="1023.21,-275.94 1026.71,-285.94 1030.21,-275.94 1023.21,-275.94"/>
</a>
</g>
</g>
<!-- Node19 -->
<g id="Node000019" class="node">
<title>Node19</title>
<g id="a_Node000019"><a xlink:href="Name_8h.html" target="_top" xlink:title="エンティティの名前">
<polygon fill="white" stroke="#666666" points="782.71,-244.5 634.71,-244.5 634.71,-214.5 782.71,-214.5 782.71,-244.5"/>
<text text-anchor="start" x="642.71" y="-232.5" font-family="Helvetica,sans-Serif" font-size="10.00">Engine/Source/Runtime</text>
<text text-anchor="middle" x="708.71" y="-221.5" font-family="Helvetica,sans-Serif" font-size="10.00">/Components/Core/Name.h</text>
</a>
</g>
</g>
<!-- Node17&#45;&gt;Node19 -->
<g id="edge24_Node000017_Node000019" class="edge">
<title>Node17&#45;&gt;Node19</title>
<g id="a_edge24_Node000017_Node000019"><a xlink:title=" ">
<path fill="none" stroke="#63b8ff" d="M949.74,-283.91C904.06,-274.27 845.03,-261.66 792.71,-250 784.97,-248.27 776.83,-246.43 768.79,-244.58"/>
<polygon fill="#63b8ff" stroke="#63b8ff" points="949.06,-287.34 959.57,-285.98 950.51,-280.49 949.06,-287.34"/>
</a>
</g>
</g>
<!-- Node20 -->
<g id="Node000020" class="node">
<title>Node20</title>
<g id="a_Node000020"><a xlink:href="Tag_8h.html" target="_top" xlink:title="エンティティのタグ分類">
<polygon fill="white" stroke="#666666" points="936.21,-244.5 801.21,-244.5 801.21,-214.5 936.21,-214.5 936.21,-244.5"/>
<text text-anchor="start" x="809.21" y="-232.5" font-family="Helvetica,sans-Serif" font-size="10.00">Engine/Source/Runtime</text>
<text text-anchor="middle" x="868.71" y="-221.5" font-family="Helvetica,sans-Serif" font-size="10.00">/Components/Core/Tag.h</text>
</a>
</g>
</g>
<!-- Node17&#45;&gt;Node20 -->
<g id="edge27_Node000017_Node000020" class="edge">
<title>Node17&#45;&gt;Node20</title>
<g id="a_edge27_Node000017_Node000020"><a xlink:title=" ">
<path fill="none" stroke="#63b8ff" d="M985.35,-281.81C958.87,-270.16 925.04,-255.28 900.64,-244.54"/>
<polygon fill="#63b8ff" stroke="#63b8ff" points="984.18,-285.11 994.74,-285.94 986.99,-278.71 984.18,-285.11"/>
</a>
</g>
</g>
<!-- Node21 -->
<g id="Node000021" class="node">
<title>Node21</title>
<g id="a_Node000021"><a xlink:href="Transform_8h.html" target="_top" xlink:title="位置、回転、拡大縮小を管理するコンポーネント。">
<polygon fill="white" stroke="#666666" points="579.21,-244.5 412.21,-244.5 412.21,-214.5 579.21,-214.5 579.21,-244.5"/>
<text text-anchor="start" x="420.21" y="-232.5" font-family="Helvetica,sans-Serif" font-size="10.00">Engine/Source/Runtime</text>
<text text-anchor="middle" x="495.71" y="-221.5" font-family="Helvetica,sans-Serif" font-size="10.00">/Components/Core/Transform.h</text>
</a>
</g>
</g>
<!-- Node17&#45;&gt;Node21 -->
<g id="edge30_Node000017_Node000021" class="edge">
<title>Node17&#45;&gt;Node21</title>
<g id="a_edge30_Node000017_Node000021"><a xlink:title=" ">
<path fill="none" stroke="#63b8ff" d="M939.95,-289.81C858.68,-280.12 733.86,-264.85 625.71,-250 610.68,-247.94 594.68,-245.63 579.24,-243.34"/>
<polygon fill="#63b8ff" stroke="#63b8ff" points="939.79,-293.32 950.14,-291.03 940.62,-286.37 939.79,-293.32"/>
</a>
</g>
</g>
<!-- Node25 -->
<g id="Node000025" class="node">
<title>Node25</title>
<g id="a_Node000025"><a xlink:href="Camera_8h.html" target="_top" xlink:title="レンダリング視点を定義するカメラコンポーネント。">
<polygon fill="white" stroke="#666666" points="384.71,-250 254.71,-250 254.71,-209 384.71,-209 384.71,-250"/>
<text text-anchor="start" x="262.71" y="-238" font-family="Helvetica,sans-Serif" font-size="10.00">Engine/Source/Runtime</text>
<text text-anchor="start" x="262.71" y="-227" font-family="Helvetica,sans-Serif" font-size="10.00">/Components/Graphics</text>
<text text-anchor="middle" x="319.71" y="-216" font-family="Helvetica,sans-Serif" font-size="10.00">/Camera.h</text>
</a>
</g>
</g>
<!-- Node17&#45;&gt;Node25 -->
<g id="edge40_Node000017_Node000025" class="edge">
<title>Node17&#45;&gt;Node25</title>
<g id="a_edge40_Node000017_Node000025"><a xlink:title=" ">
<path fill="none" stroke="#63b8ff" d="M939.74,-297.08C818.89,-292.11 593.59,-279.49 403.71,-250 397.65,-249.06 391.37,-247.92 385.1,-246.67"/>
<polygon fill="#63b8ff" stroke="#63b8ff" points="939.91,-300.59 950.04,-297.5 940.19,-293.6 939.91,-300.59"/>
</a>
</g>
</g>
<!-- Node26 -->
<g id="Node000026" class="node">
<title>Node26</title>
<g id="a_Node000026"><a xlink:href="MeshFilter_8h.html" target="_top" xlink:title="描画する形状 (メッシュ) への参照。">
<polygon fill="white" stroke="#666666" points="1433.71,-250 1303.71,-250 1303.71,-209 1433.71,-209 1433.71,-250"/>
<text text-anchor="start" x="1311.71" y="-238" font-family="Helvetica,sans-Serif" font-size="10.00">Engine/Source/Runtime</text>
<text text-anchor="start" x="1311.71" y="-227" font-family="Helvetica,sans-Serif" font-size="10.00">/Components/Graphics</text>
<text text-anchor="middle" x="1368.71" y="-216" font-family="Helvetica,sans-Serif" font-size="10.00">/MeshFilter.h</text>
</a>
</g>
</g>
<!-- Node17&#45;&gt;Node26 -->
<g id="edge44_Node000017_Node000026" class="edge">
<title>Node17&#45;&gt;Node26</title>
<g id="a_edge44_Node000017_Node000026"><a xlink:title=" ">
<path fill="none" stroke="#63b8ff" d="M1113.24,-285.51C1165.9,-276.29 1234.41,-263.55 1294.71,-250 1297.56,-249.36 1300.47,-248.68 1303.41,-247.99"/>
<polygon fill="#63b8ff" stroke="#63b8ff" points="1112.51,-282.09 1103.26,-287.25 1113.71,-288.98 1112.51,-282.09"/>
</a>
</g>
</g>
<!-- Node27 -->
<g id="Node000027" class="node">
<title>Node27</title>
<g id="a_Node000027"><a xlink:href="MeshRenderer_8h.html" target="_top" xlink:title="メッシュの描画設定とマテリアル参照。">
<polygon fill="white" stroke="#666666" points="1285.71,-250 1155.71,-250 1155.71,-209 1285.71,-209 1285.71,-250"/>
<text text-anchor="start" x="1163.71" y="-238" font-family="Helvetica,sans-Serif" font-size="10.00">Engine/Source/Runtime</text>
<text text-anchor="start" x="1163.71" y="-227" font-family="Helvetica,sans-Serif" font-size="10.00">/Components/Graphics</text>
<text text-anchor="middle" x="1220.71" y="-216" font-family="Helvetica,sans-Serif" font-size="10.00">/MeshRenderer.h</text>
</a>
</g>
</g>
<!-- Node17&#45;&gt;Node27 -->
<g id="edge47_Node000017_Node000027" class="edge">
<title>Node17&#45;&gt;Node27</title>
<g id="a_edge47_Node000017_Node000027"><a xlink:title=" ">
<path fill="none" stroke="#63b8ff" d="M1075.41,-282.55C1103,-272.67 1137.57,-260.28 1166.08,-250.07"/>
<polygon fill="#63b8ff" stroke="#63b8ff" points="1074.2,-279.27 1065.97,-285.94 1076.57,-285.86 1074.2,-279.27"/>
</a>
</g>
</g>
<!-- Node18&#45;&gt;Node8 -->
<g id="edge23_Node000018_Node000008" class="edge">
<title>Node18&#45;&gt;Node8</title>
<g id="a_edge23_Node000018_Node000008"><a xlink:title=" ">
<path fill="none" stroke="#63b8ff" d="M1069.63,-209.77C1085.84,-200.76 1103.14,-188.51 1114.71,-173 1132.5,-149.15 1137.11,-112.66 1138.3,-96.15"/>
<polygon fill="#63b8ff" stroke="#63b8ff" points="1067.99,-206.67 1060.78,-214.43 1071.26,-212.86 1067.99,-206.67"/>
</a>
</g>
</g>
<!-- Node18&#45;&gt;Node15 -->
<g id="edge22_Node000018_Node000015" class="edge">
<title>Node18&#45;&gt;Node15</title>
<g id="a_edge22_Node000018_Node000015"><a xlink:title=" ">
<path fill="none" stroke="#63b8ff" d="M1018.17,-204.78C1013.76,-192.53 1008.53,-178 1004.77,-167.54"/>
<polygon fill="#63b8ff" stroke="#63b8ff" points="1014.95,-206.17 1021.63,-214.39 1021.54,-203.8 1014.95,-206.17"/>
</a>
</g>
</g>
<!-- Node19&#45;&gt;Node8 -->
<g id="edge26_Node000019_Node000008" class="edge">
<title>Node19&#45;&gt;Node8</title>
<g id="a_edge26_Node000019_Node000008"><a xlink:title=" ">
<path fill="none" stroke="#63b8ff" d="M771.47,-211.72C812.36,-200.11 861.39,-184.71 879.71,-173 900.65,-159.62 896.04,-144.15 917.71,-132 961.41,-107.5 1016.66,-96.37 1060.98,-91.37"/>
<polygon fill="#63b8ff" stroke="#63b8ff" points="770.5,-208.36 761.82,-214.43 772.39,-215.1 770.5,-208.36"/>
</a>
</g>
</g>
<!-- Node19&#45;&gt;Node15 -->
<g id="edge25_Node000019_Node000015" class="edge">
<title>Node19&#45;&gt;Node15</title>
<g id="a_edge25_Node000019_Node000015"><a xlink:title=" ">
<path fill="none" stroke="#63b8ff" d="M772.82,-211.98C824.43,-198.68 896.19,-180.18 945.09,-167.58"/>
<polygon fill="#63b8ff" stroke="#63b8ff" points="771.92,-208.6 763.11,-214.48 773.66,-215.37 771.92,-208.6"/>
</a>
</g>
</g>
<!-- Node20&#45;&gt;Node8 -->
<g id="edge29_Node000020_Node000008" class="edge">
<title>Node20&#45;&gt;Node8</title>
<g id="a_edge29_Node000020_Node000008"><a xlink:title=" ">
<path fill="none" stroke="#63b8ff" d="M933.32,-211.95C995.42,-196.01 1080.14,-174.12 1081.71,-173 1096.32,-162.6 1123.13,-115.82 1133.97,-96.2"/>
<polygon fill="#63b8ff" stroke="#63b8ff" points="932.38,-208.58 923.56,-214.46 934.12,-215.36 932.38,-208.58"/>
</a>
</g>
</g>
<!-- Node20&#45;&gt;Node15 -->
<g id="edge28_Node000020_Node000015" class="edge">
<title>Node20&#45;&gt;Node15</title>
<g id="a_edge28_Node000020_Node000015"><a xlink:title=" ">
<path fill="none" stroke="#63b8ff" d="M902.33,-209.25C925.09,-196.23 954.63,-179.31 975.18,-167.54"/>
<polygon fill="#63b8ff" stroke="#63b8ff" points="900.29,-206.39 893.35,-214.39 903.77,-212.46 900.29,-206.39"/>
</a>
</g>
</g>
<!-- Node21&#45;&gt;Node7 -->
<g id="edge36_Node000021_Node000007" class="edge">
<title>Node21&#45;&gt;Node7</title>
<g id="a_edge36_Node000021_Node000007"><a xlink:title=" ">
<path fill="none" stroke="#63b8ff" d="M513.82,-206.6C524.24,-193.99 537.02,-178.53 546.1,-167.54"/>
<polygon fill="#63b8ff" stroke="#63b8ff" points="511.05,-204.46 507.37,-214.39 516.44,-208.92 511.05,-204.46"/>
</a>
</g>
</g>
<!-- Node21&#45;&gt;Node8 -->
<g id="edge39_Node000021_Node000008" class="edge">
<title>Node21&#45;&gt;Node8</title>
<g id="a_edge39_Node000021_Node000008"><a xlink:title=" ">
<path fill="none" stroke="#63b8ff" d="M473.41,-207.16C453.88,-185.94 431.53,-153.54 451.71,-132 492.63,-88.34 889.9,-85.76 1060.98,-86.7"/>
<polygon fill="#63b8ff" stroke="#63b8ff" points="470.94,-209.64 480.39,-214.43 475.98,-204.79 470.94,-209.64"/>
</a>
</g>
</g>
<!-- Node21&#45;&gt;Node15 -->
<g id="edge31_Node000021_Node000015" class="edge">
<title>Node21&#45;&gt;Node15</title>
<g id="a_edge31_Node000021_Node000015"><a xlink:title=" ">
<path fill="none" stroke="#63b8ff" d="M572.23,-212.57C579.15,-211.3 586.05,-210.09 592.71,-209 719.59,-188.32 752.47,-191.31 879.71,-173 894.86,-170.82 911.05,-168.31 926.48,-165.83"/>
<polygon fill="#63b8ff" stroke="#63b8ff" points="571.3,-209.19 562.12,-214.48 572.6,-216.07 571.3,-209.19"/>
</a>
</g>
</g>
<!-- Node22 -->
<g id="Node000022" class="node">
<title>Node22</title>
<g id="a_Node000022"><a xlink:href="RelationshipSystem_8h.html" target="_top" xlink:title="エンティティ間の親子・兄弟関係 (階層構造) を操作するシステム。">
<polygon fill="white" stroke="#666666" points="870.21,-167.5 673.21,-167.5 673.21,-137.5 870.21,-137.5 870.21,-167.5"/>
<text text-anchor="start" x="681.21" y="-155.5" font-family="Helvetica,sans-Serif" font-size="10.00">Engine/Source/Runtime</text>
<text text-anchor="middle" x="771.71" y="-144.5" font-family="Helvetica,sans-Serif" font-size="10.00">/Systems/Core/RelationshipSystem.h</text>
</a>
</g>
</g>
<!-- Node21&#45;&gt;Node22 -->
<g id="edge32_Node000021_Node000022" class="edge">
<title>Node21&#45;&gt;Node22</title>
<g id="a_edge32_Node000021_Node000022"><a xlink:title=" ">
<path fill="none" stroke="#63b8ff" d="M557.13,-211.81C606.03,-198.52 673.72,-180.13 719.91,-167.58"/>
<polygon fill="#63b8ff" stroke="#63b8ff" points="556.03,-208.48 547.3,-214.48 557.87,-215.24 556.03,-208.48"/>
</a>
</g>
</g>
<!-- Node21&#45;&gt;Node23 -->
<g id="edge34_Node000021_Node000023" class="edge">
<title>Node21&#45;&gt;Node23</title>
<g id="a_edge34_Node000021_Node000023"><a xlink:title=" ">
<path fill="none" stroke="#63b8ff" d="M414.92,-212.47C347.6,-199.11 252.66,-180.28 188.34,-167.51"/>
<polygon fill="#63b8ff" stroke="#63b8ff" points="414.57,-215.97 425.06,-214.48 415.93,-209.1 414.57,-215.97"/>
</a>
</g>
</g>
<!-- Node24 -->
<g id="Node000024" class="node">
<title>Node24</title>
<g id="a_Node000024"><a xlink:href="EditorCameraSystem_8h.html" target="_top" xlink:title="エディタ用フリーカメラの操作システム">
<polygon fill="white" stroke="#666666" points="405.21,-173 228.21,-173 228.21,-132 405.21,-132 405.21,-173"/>
<text text-anchor="start" x="236.21" y="-161" font-family="Helvetica,sans-Serif" font-size="10.00">Engine/Source/Runtime</text>
<text text-anchor="start" x="236.21" y="-150" font-family="Helvetica,sans-Serif" font-size="10.00">/Systems/Graphics/EditorCamera</text>
<text text-anchor="middle" x="316.71" y="-139" font-family="Helvetica,sans-Serif" font-size="10.00">System.h</text>
</a>
</g>
</g>
<!-- Node21&#45;&gt;Node24 -->
<g id="edge37_Node000021_Node000024" class="edge">
<title>Node21&#45;&gt;Node24</title>
<g id="a_edge37_Node000021_Node000024"><a xlink:title=" ">
<path fill="none" stroke="#63b8ff" d="M452.5,-210.4C425.58,-199.12 390.95,-184.61 363.4,-173.06"/>
<polygon fill="#63b8ff" stroke="#63b8ff" points="451.47,-213.76 462.04,-214.39 454.17,-207.3 451.47,-213.76"/>
</a>
</g>
</g>
<!-- Node22&#45;&gt;Node8 -->
<g id="edge33_Node000022_Node000008" class="edge">
<title>Node22&#45;&gt;Node8</title>
<g id="a_edge33_Node000022_Node000008"><a xlink:title=" ">
<path fill="none" stroke="#63b8ff" d="M862.22,-135.72C934.12,-123.18 1031.92,-106.12 1089.87,-96.02"/>
<polygon fill="#63b8ff" stroke="#63b8ff" points="861.5,-132.29 852.25,-137.45 862.7,-139.18 861.5,-132.29"/>
</a>
</g>
</g>
<!-- Node23&#45;&gt;Node8 -->
<g id="edge35_Node000023_Node000008" class="edge">
<title>Node23&#45;&gt;Node8</title>
<g id="a_edge35_Node000023_Node000008"><a xlink:title=" ">
<path fill="none" stroke="#63b8ff" d="M193.51,-135.79C202.32,-134.33 211.19,-133.02 219.71,-132 529.8,-95.04 902.23,-88.58 1060.95,-87.59"/>
<polygon fill="#63b8ff" stroke="#63b8ff" points="192.88,-132.35 183.62,-137.5 194.07,-139.25 192.88,-132.35"/>
</a>
</g>
</g>
<!-- Node24&#45;&gt;Node8 -->
<g id="edge38_Node000024_Node000008" class="edge">
<title>Node24&#45;&gt;Node8</title>
<g id="a_edge38_Node000024_Node000008"><a xlink:title=" ">
<path fill="none" stroke="#63b8ff" d="M415.41,-132.43C416.52,-132.28 417.62,-132.14 418.71,-132 651.38,-102.69 928.89,-92.45 1061.16,-89.06"/>
<polygon fill="#63b8ff" stroke="#63b8ff" points="414.75,-128.99 405.34,-133.86 415.73,-135.92 414.75,-128.99"/>
</a>
</g>
</g>
<!-- Node25&#45;&gt;Node7 -->
<g id="edge41_Node000025_Node000007" class="edge">
<title>Node25&#45;&gt;Node7</title>
<g id="a_edge41_Node000025_Node000007"><a xlink:title=" ">
<path fill="none" stroke="#63b8ff" d="M391.23,-205.96C430.81,-193.49 478.77,-178.38 513.02,-167.58"/>
<polygon fill="#63b8ff" stroke="#63b8ff" points="390.11,-202.65 381.62,-208.99 392.21,-209.32 390.11,-202.65"/>
</a>
</g>
</g>
<!-- Node25&#45;&gt;Node8 -->
<g id="edge43_Node000025_Node000008" class="edge">
<title>Node25&#45;&gt;Node8</title>
<g id="a_edge43_Node000025_Node000008"><a xlink:title=" ">
<path fill="none" stroke="#63b8ff" d="M244.35,-227.33C133.06,-223.17 -54.89,-205.46 15.71,-132 51.88,-94.37 812.32,-88.56 1060.87,-87.66"/>
<polygon fill="#63b8ff" stroke="#63b8ff" points="244.43,-230.83 254.54,-227.68 244.67,-223.83 244.43,-230.83"/>
</a>
</g>
</g>
<!-- Node25&#45;&gt;Node24 -->
<g id="edge42_Node000025_Node000024" class="edge">
<title>Node25&#45;&gt;Node24</title>
<g id="a_edge42_Node000025_Node000024"><a xlink:title=" ">
<path fill="none" stroke="#63b8ff" d="M318.52,-198.69C318.18,-190.08 317.81,-180.9 317.5,-173.07"/>
<polygon fill="#63b8ff" stroke="#63b8ff" points="315.03,-198.94 318.92,-208.79 322.02,-198.66 315.03,-198.94"/>
</a>
</g>
</g>
<!-- Node26&#45;&gt;Node8 -->
<g id="edge46_Node000026_Node000008" class="edge">
<title>Node26&#45;&gt;Node8</title>
<g id="a_edge46_Node000026_Node000008"><a xlink:title=" ">
<path fill="none" stroke="#63b8ff" d="M1323.39,-203.75C1306.91,-194.45 1288.28,-183.56 1271.71,-173 1245.09,-156.03 1240.2,-149.18 1213.71,-132 1193.39,-118.82 1169.17,-104.73 1153.87,-96.02"/>
<polygon fill="#63b8ff" stroke="#63b8ff" points="1321.86,-206.91 1332.29,-208.75 1325.28,-200.8 1321.86,-206.91"/>
</a>
</g>
</g>
<!-- Node26&#45;&gt;Node14 -->
<g id="edge45_Node000026_Node000014" class="edge">
<title>Node26&#45;&gt;Node14</title>
<g id="a_edge45_Node000026_Node000014"><a xlink:title=" ">
<path fill="none" stroke="#63b8ff" d="M1365.53,-198.69C1364.61,-190.08 1363.63,-180.9 1362.8,-173.07"/>
<polygon fill="#63b8ff" stroke="#63b8ff" points="1362.07,-199.22 1366.61,-208.79 1369.03,-198.48 1362.07,-199.22"/>
</a>
</g>
</g>
<!-- Node27&#45;&gt;Node8 -->
<g id="edge49_Node000027_Node000008" class="edge">
<title>Node27&#45;&gt;Node8</title>
<g id="a_edge49_Node000027_Node000008"><a xlink:title=" ">
<path fill="none" stroke="#63b8ff" d="M1215.95,-198.76C1211.7,-178.67 1204.02,-152.22 1190.71,-132 1180.78,-116.91 1164.31,-104.05 1152.57,-96.1"/>
<polygon fill="#63b8ff" stroke="#63b8ff" points="1212.52,-199.48 1217.87,-208.62 1219.39,-198.14 1212.52,-199.48"/>
</a>
</g>
</g>
<!-- Node27&#45;&gt;Node14 -->
<g id="edge48_Node000027_Node000014" class="edge">
<title>Node27&#45;&gt;Node14</title>
<g id="a_edge48_Node000027_Node000014"><a xlink:title=" ">
<path fill="none" stroke="#63b8ff" d="M1266.08,-204.19C1284.82,-194.15 1306.26,-182.67 1323.99,-173.17"/>
<polygon fill="#63b8ff" stroke="#63b8ff" points="1264.29,-201.18 1257.13,-208.99 1267.6,-207.35 1264.29,-201.18"/>
</a>
</g>
</g>
</g>
</svg>

<g id="navigator" transform="translate(0 0)" fill="#404254">
  <rect fill="#f2f5e9" fill-opacity="0.5" stroke="#606060" stroke-width=".5" x="0" y="0" width="60" height="60"/>
  <use id="zoomplus" xlink:href="#zoomPlus" x="17" y="9" onmousedown="handleZoom(evt,'in')"/>
  <use id="zoomminus" xlink:href="#zoomMin" x="42" y="9" onmousedown="handleZoom(evt,'out')"/>
  <use id="reset" xlink:href="#resetDef" x="30" y="36" onmousedown="handleReset()"/>
   <use id="arrowup" xlink:href="#arrowUp" x="0" y="0" onmousedown="handlePan(0,-1)"/>
  <use id="arrowright" xlink:href="#arrowRight" x="0" y="0" onmousedown="handlePan(1,0)"/>
  <use id="arrowdown" xlink:href="#arrowDown" x="0" y="0" onmousedown="handlePan(0,1)"/>
  <use id="arrowleft" xlink:href="#arrowLeft" x="0" y="0" onmousedown="handlePan(-1,0)"/>
</g>
<svg viewBox="0 0 15 15" width="100%" height="30px" preserveAspectRatio="xMaxYMin meet">
 <g id="arrow_out" transform="scale(0.3 0.3)">
  <a xlink:href="EntityManager_8h__dep__incl_org.svg" target="_base">
   <rect id="button" ry="5" rx="5" y="6" x="6" height="38" width="38"
        fill="#f2f5e9" fill-opacity="0.5" stroke="#606060" stroke-width="1.0"/>
   <path id="arrow"
     d="M 11.500037,31.436501 C 11.940474,20.09759 22.043105,11.32322 32.158766,21.979434 L 37.068811,17.246167 C 37.068811,17.246167 37.088388,32 37.088388,32 L 22.160133,31.978069 C 22.160133,31.978069 26.997745,27.140456 26.997745,27.140456 C 18.528582,18.264221 13.291696,25.230495 11.500037,31.436501 z"
     style="fill:#404040;"/>
  </a>
 </g>
</svg>

<style type='text/css'>
<![CDATA[
[data-mouse-over-selected='false'] { opacity: 0.7; }
[data-mouse-over-selected='true']  { opacity: 1.0; }
]]>
</style>
<script type="application/ecmascript"><![CDATA[
document.addEventListener('DOMContentLoaded', (event) => {
  highlightEdges();
  highlightAdjacentNodes();
});
]]></script>
</svg>
