<?xml version="1.0" encoding="UTF-8" standalone="no"?>
<!DOCTYPE svg PUBLIC "-//W3C//DTD SVG 1.1//EN"
 "http://www.w3.org/Graphics/SVG/1.1/DTD/svg11.dtd">
<!-- Generated by graphviz version 2.43.0 (0)
 -->
<!-- Title: Engine/Source/Runtime/EntryPoint.h Pages: 1 -->
<!--zoomable 368 -->

<svg id="main" version="1.1" xmlns="http://www.w3.org/2000/svg" xmlns:xlink="http://www.w3.org/1999/xlink" xml:space="preserve" onload="init(evt)">

<style type="text/css"><![CDATA[
.node, .edge {opacity: 0.7;}
.node.selected, .edge.selected {opacity: 1;}
.edge:hover path { stroke: red; }
.edge:hover polygon { stroke: red; fill: red; }
]]></style>

<defs>
  <circle id="rim" cx="0" cy="0" r="7"/>
  <circle id="rim2" cx="0" cy="0" r="3.5"/>
  <g id="zoomPlus">
    <use xlink:href="#rim" fill="#404040"><set attributeName="fill" to="#808080" begin="zoomplus.mouseover" end="zoomplus.mouseout"/></use>
    <path d="M-4,0h8M0,-4v8" fill="none" stroke="white" stroke-width="1.5" pointer-events="none"/>
  </g>
  <g id="zoomMin">
    <use xlink:href="#rim" fill="#404040"><set attributeName="fill" to="#808080" begin="zoomminus.mouseover" end="zoomminus.mouseout"/></use>
    <path d="M-4,0h8" fill="none" stroke="white" stroke-width="1.5" pointer-events="none"/>
  </g>
  <g id="arrowUp" transform="translate(30 24)">
    <use xlink:href="#rim"/>
    <path pointer-events="none" fill="none" stroke="white" stroke-width="1.5" d="M0,-3.0v7 M-2.5,-0.5L0,-3.0L2.5,-0.5"/>
  </g>
  <g id="arrowRight" transform="rotate(90) translate(36 -43)">
    <use xlink:href="#rim"/>
    <path pointer-events="none" fill="none" stroke="white" stroke-width="1.5" d="M0,-3.0v7 M-2.5,-0.5L0,-3.0L2.5,-0.5"/>
  </g>
  <g id="arrowDown" transform="rotate(180) translate(-30 -48)">
    <use xlink:href="#rim"/>
    <path pointer-events="none" fill="none" stroke="white" stroke-width="1.5" d="M0,-3.0v7 M-2.5,-0.5L0,-3.0L2.5,-0.5"/>
  </g>
  <g id="arrowLeft" transform="rotate(270) translate(-36 17)">
    <use xlink:href="#rim"/>
    <path pointer-events="none" fill="none" stroke="white" stroke-width="1.5" d="M0,-3.0v7 M-2.5,-0.5L0,-3.0L2.5,-0.5"/>
  </g>
  <g id="resetDef">
    <use xlink:href="#rim2" fill="#404040"><set attributeName="fill" to="#808080" begin="reset.mouseover" end="reset.mouseout"/></use>
  </g>
</defs>
<script type="application/ecmascript">
var viewWidth = 3141;
var viewHeight = 368;
var sectionId = 'dynsection-0';
</script>
<script type="application/ecmascript" xlink:href="svg.min.js"/>
<svg id="graph" class="graph">
<g id="viewport">
<title>Engine/Source/Runtime/EntryPoint.h</title>
<!-- Node1 -->
<g id="Node000001" class="node">
<title>Node1</title>
<g id="a_Node000001"><a xlink:title="アプリケーションのエントリーポイント (main関数)。">
<polygon fill="#999999" stroke="#666666" points="1482,-360 1352,-360 1352,-330 1482,-330 1482,-360"/>
<text text-anchor="start" x="1360" y="-348" font-family="Helvetica,sans-Serif" font-size="10.00">Engine/Source/Runtime</text>
<text text-anchor="middle" x="1417" y="-337" font-family="Helvetica,sans-Serif" font-size="10.00">/EntryPoint.h</text>
</a>
</g>
</g>
<!-- Node2 -->
<g id="Node000002" class="node">
<title>Node2</title>
<g id="a_Node000002"><a xlink:href="Application_8h.html" target="_top" xlink:title="エンジンのメインループとライフサイクル管理。">
<polygon fill="white" stroke="#666666" points="1457,-294 1377,-294 1377,-275 1457,-275 1457,-294"/>
<text text-anchor="middle" x="1417" y="-282" font-family="Helvetica,sans-Serif" font-size="10.00">Application.h</text>
</a>
</g>
</g>
<!-- Node1&#45;&gt;Node2 -->
<g id="edge1_Node000001_Node000002" class="edge">
<title>Node1&#45;&gt;Node2</title>
<g id="a_edge1_Node000001_Node000002"><a xlink:title=" ">
<path fill="none" stroke="#63b8ff" d="M1417,-329.84C1417,-322.21 1417,-312.7 1417,-304.45"/>
<polygon fill="#63b8ff" stroke="#63b8ff" points="1420.5,-304.27 1417,-294.27 1413.5,-304.27 1420.5,-304.27"/>
</a>
</g>
</g>
<!-- Node3 -->
<g id="Node000003" class="node">
<title>Node3</title>
<g id="a_Node000003"><a xlink:href="CoreMinimal_8h.html" target="_top" xlink:title="エンジンの標準インクルードファイル。">
<polygon fill="white" stroke="#666666" points="1506.5,-74 1393.5,-74 1393.5,-55 1506.5,-55 1506.5,-74"/>
<text text-anchor="middle" x="1450" y="-62" font-family="Helvetica,sans-Serif" font-size="10.00">Core/CoreMinimal.h</text>
</a>
</g>
</g>
<!-- Node2&#45;&gt;Node3 -->
<g id="edge2_Node000002_Node000003" class="edge">
<title>Node2&#45;&gt;Node3</title>
<g id="a_edge2_Node000002_Node000003"><a xlink:title=" ">
<path fill="none" stroke="#63b8ff" d="M1457.19,-280.08C1488.24,-275.45 1530.43,-264.58 1558,-239 1577.3,-221.09 1575.02,-209.85 1580,-184 1586.56,-149.91 1579.86,-134.23 1555,-110 1539.04,-94.44 1516.81,-83.96 1496.91,-77.1"/>
<polygon fill="#63b8ff" stroke="#63b8ff" points="1497.96,-73.76 1487.37,-74.02 1495.81,-80.43 1497.96,-73.76"/>
</a>
</g>
</g>
<!-- Node43 -->
<g id="Node000043" class="node">
<title>Node43</title>
<g id="a_Node000043"><a xlink:href="Window_8h.html" target="_top" xlink:title="Windows OSS ウィンドウのラッパー。">
<polygon fill="white" stroke="#666666" points="1274.5,-129 1165.5,-129 1165.5,-110 1274.5,-110 1274.5,-129"/>
<text text-anchor="middle" x="1220" y="-117" font-family="Helvetica,sans-Serif" font-size="10.00">Platform/Window.h</text>
</a>
</g>
</g>
<!-- Node2&#45;&gt;Node43 -->
<g id="edge43_Node000002_Node000043" class="edge">
<title>Node2&#45;&gt;Node43</title>
<g id="a_edge43_Node000002_Node000043"><a xlink:title=" ">
<path fill="none" stroke="#63b8ff" d="M1376.57,-281.92C1317.47,-277.07 1210.35,-257.97 1172,-184 1162.52,-165.72 1180.34,-147.2 1196.89,-134.92"/>
<polygon fill="#63b8ff" stroke="#63b8ff" points="1199.06,-137.68 1205.28,-129.1 1195.07,-131.93 1199.06,-137.68"/>
</a>
</g>
</g>
<!-- Node45 -->
<g id="Node000045" class="node">
<title>Node45</title>
<g id="a_Node000045"><a xlink:href="Renderer_8h.html" target="_top" xlink:title="描画パイプラインの構築と実行。">
<polygon fill="#fff0f0" stroke="red" points="1388.5,-239 1273.5,-239 1273.5,-220 1388.5,-220 1388.5,-239"/>
<text text-anchor="middle" x="1331" y="-227" font-family="Helvetica,sans-Serif" font-size="10.00">Graphics/Renderer.h</text>
</a>
</g>
</g>
<!-- Node2&#45;&gt;Node45 -->
<g id="edge46_Node000002_Node000045" class="edge">
<title>Node2&#45;&gt;Node45</title>
<g id="a_edge46_Node000002_Node000045"><a xlink:title=" ">
<path fill="none" stroke="#63b8ff" d="M1403.18,-274.98C1389.85,-266.77 1369.42,-254.18 1353.69,-244.49"/>
<polygon fill="#63b8ff" stroke="#63b8ff" points="1355.42,-241.44 1345.07,-239.17 1351.75,-247.4 1355.42,-241.44"/>
</a>
</g>
</g>
<!-- Node48 -->
<g id="Node000048" class="node">
<title>Node48</title>
<g id="a_Node000048"><a xlink:href="GraphicsContext_8h.html" target="_top" xlink:title="DirectX 12 デヴァイスとスワップチェーンの管理クラス。">
<polygon fill="white" stroke="#666666" points="1313,-184 1181,-184 1181,-165 1313,-165 1313,-184"/>
<text text-anchor="middle" x="1247" y="-172" font-family="Helvetica,sans-Serif" font-size="10.00">Core/GraphicsContext.h</text>
</a>
</g>
</g>
<!-- Node2&#45;&gt;Node48 -->
<g id="edge54_Node000002_Node000048" class="edge">
<title>Node2&#45;&gt;Node48</title>
<g id="a_edge54_Node000002_Node000048"><a xlink:title=" ">
<path fill="none" stroke="#63b8ff" d="M1376.67,-282.34C1342.15,-279.17 1293.51,-269.15 1264,-239 1252.41,-227.16 1248.5,-208.32 1247.28,-194.24"/>
<polygon fill="#63b8ff" stroke="#63b8ff" points="1250.78,-194 1246.79,-184.18 1243.78,-194.34 1250.78,-194"/>
</a>
</g>
</g>
<!-- Node57 -->
<g id="Node000057" class="node">
<title>Node57</title>
<g id="a_Node000057"><a xlink:href="RenderTarget_8h.html" target="_top" xlink:title="レンダリングターゲット (RTV) とシェーダーリソース (SRV) の管理。">
<polygon fill="white" stroke="#666666" points="1530.5,-129 1369.5,-129 1369.5,-110 1530.5,-110 1530.5,-129"/>
<text text-anchor="middle" x="1450" y="-117" font-family="Helvetica,sans-Serif" font-size="10.00">Graphics/Core/RenderTarget.h</text>
</a>
</g>
</g>
<!-- Node2&#45;&gt;Node57 -->
<g id="edge55_Node000002_Node000057" class="edge">
<title>Node2&#45;&gt;Node57</title>
<g id="a_edge55_Node000002_Node000057"><a xlink:title=" ">
<path fill="none" stroke="#63b8ff" d="M1418.77,-274.74C1423.94,-249.2 1439.08,-174.43 1446.21,-139.23"/>
<polygon fill="#63b8ff" stroke="#63b8ff" points="1449.66,-139.8 1448.22,-129.31 1442.8,-138.41 1449.66,-139.8"/>
</a>
</g>
</g>
<!-- Node58 -->
<g id="Node000058" class="node">
<title>Node58</title>
<g id="a_Node000058"><a xlink:href="World_8h.html" target="_top" xlink:title="ECSワールド (シーン) の管理クラス。">
<polygon fill="#fff0f0" stroke="red" points="1570.5,-184 1461.5,-184 1461.5,-165 1570.5,-165 1570.5,-184"/>
<text text-anchor="middle" x="1516" y="-172" font-family="Helvetica,sans-Serif" font-size="10.00">ECS/Kernel/World.h</text>
</a>
</g>
</g>
<!-- Node2&#45;&gt;Node58 -->
<g id="edge57_Node000002_Node000058" class="edge">
<title>Node2&#45;&gt;Node58</title>
<g id="a_edge57_Node000002_Node000058"><a xlink:title=" ">
<path fill="none" stroke="#63b8ff" d="M1457.16,-280.92C1485.98,-276.72 1522.94,-266.01 1542,-239 1552.14,-224.63 1541.93,-205.71 1531.48,-192.27"/>
<polygon fill="#63b8ff" stroke="#63b8ff" points="1533.91,-189.72 1524.78,-184.33 1528.55,-194.23 1533.91,-189.72"/>
</a>
</g>
</g>
<!-- Node67 -->
<g id="Node000067" class="node">
<title>Node67</title>
<g id="a_Node000067"><a xlink:href="Scene_8h.html" target="_top" xlink:title="ゲームシーン全体を管理するコンテナクラス。">
<polygon fill="#fff0f0" stroke="red" points="1532.5,-239 1445.5,-239 1445.5,-220 1532.5,-220 1532.5,-239"/>
<text text-anchor="middle" x="1489" y="-227" font-family="Helvetica,sans-Serif" font-size="10.00">Scene/Scene.h</text>
</a>
</g>
</g>
<!-- Node2&#45;&gt;Node67 -->
<g id="edge59_Node000002_Node000067" class="edge">
<title>Node2&#45;&gt;Node67</title>
<g id="a_edge59_Node000002_Node000067"><a xlink:title=" ">
<path fill="none" stroke="#63b8ff" d="M1428.57,-274.98C1439.42,-267 1455.88,-254.88 1468.88,-245.31"/>
<polygon fill="#63b8ff" stroke="#63b8ff" points="1471.24,-247.92 1477.22,-239.17 1467.09,-242.28 1471.24,-247.92"/>
</a>
</g>
</g>
<!-- Node4 -->
<g id="Node000004" class="node">
<title>Node4</title>
<g id="a_Node000004"><a xlink:title=" ">
<polygon fill="#e0e0e0" stroke="#999999" points="2916,-19 2846,-19 2846,0 2916,0 2916,-19"/>
<text text-anchor="middle" x="2881" y="-7" font-family="Helvetica,sans-Serif" font-size="10.00">Windows.h</text>
</a>
</g>
</g>
<!-- Node3&#45;&gt;Node4 -->
<g id="edge3_Node000003_Node000004" class="edge">
<title>Node3&#45;&gt;Node4</title>
<g id="a_edge3_Node000003_Node000004"><a xlink:title=" ">
<path fill="none" stroke="#63b8ff" d="M1506.62,-62.88C1730.13,-60.27 2552.32,-48.86 2835.29,-18.97"/>
<polygon fill="#63b8ff" stroke="#63b8ff" points="2835.97,-22.42 2845.53,-17.85 2835.21,-15.46 2835.97,-22.42"/>
</a>
</g>
</g>
<!-- Node5 -->
<g id="Node000005" class="node">
<title>Node5</title>
<g id="a_Node000005"><a xlink:title=" ">
<polygon fill="#e0e0e0" stroke="#999999" points="2975.5,-19 2934.5,-19 2934.5,0 2975.5,0 2975.5,-19"/>
<text text-anchor="middle" x="2955" y="-7" font-family="Helvetica,sans-Serif" font-size="10.00">wrl.h</text>
</a>
</g>
</g>
<!-- Node3&#45;&gt;Node5 -->
<g id="edge4_Node000003_Node000005" class="edge">
<title>Node3&#45;&gt;Node5</title>
<g id="a_edge4_Node000003_Node000005"><a xlink:title=" ">
<path fill="none" stroke="#63b8ff" d="M1506.67,-63.65C1739.5,-63.98 2623.94,-62.39 2924.48,-18.54"/>
<polygon fill="#63b8ff" stroke="#63b8ff" points="2925.12,-21.98 2934.49,-17.03 2924.08,-15.06 2925.12,-21.98"/>
</a>
</g>
</g>
<!-- Node6 -->
<g id="Node000006" class="node">
<title>Node6</title>
<g id="a_Node000006"><a xlink:title=" ">
<polygon fill="#e0e0e0" stroke="#999999" points="3064.5,-19 2993.5,-19 2993.5,0 3064.5,0 3064.5,-19"/>
<text text-anchor="middle" x="3029" y="-7" font-family="Helvetica,sans-Serif" font-size="10.00">wrl/client.h</text>
</a>
</g>
</g>
<!-- Node3&#45;&gt;Node6 -->
<g id="edge5_Node000003_Node000006" class="edge">
<title>Node3&#45;&gt;Node6</title>
<g id="a_edge5_Node000003_Node000006"><a xlink:title=" ">
<path fill="none" stroke="#63b8ff" d="M1506.83,-63.08C1745.7,-61.15 2670.04,-51.74 2983.07,-19.01"/>
<polygon fill="#63b8ff" stroke="#63b8ff" points="2983.49,-22.49 2993.05,-17.94 2982.74,-15.53 2983.49,-22.49"/>
</a>
</g>
</g>
<!-- Node7 -->
<g id="Node000007" class="node">
<title>Node7</title>
<g id="a_Node000007"><a xlink:title=" ">
<polygon fill="#e0e0e0" stroke="#999999" points="3133,-19 3083,-19 3083,0 3133,0 3133,-19"/>
<text text-anchor="middle" x="3108" y="-7" font-family="Helvetica,sans-Serif" font-size="10.00">cstdint</text>
</a>
</g>
</g>
<!-- Node3&#45;&gt;Node7 -->
<g id="edge6_Node000003_Node000007" class="edge">
<title>Node3&#45;&gt;Node7</title>
<g id="a_edge6_Node000003_Node000007"><a xlink:title=" ">
<path fill="none" stroke="#63b8ff" d="M1506.78,-63.6C1754.32,-63.78 2741.2,-61.83 3072.78,-18.78"/>
<polygon fill="#63b8ff" stroke="#63b8ff" points="3073.42,-22.23 3082.87,-17.43 3072.49,-15.29 3073.42,-22.23"/>
</a>
</g>
</g>
<!-- Node8 -->
<g id="Node000008" class="node">
<title>Node8</title>
<g id="a_Node000008"><a xlink:title=" ">
<polygon fill="#e0e0e0" stroke="#999999" points="246,-19 186,-19 186,0 246,0 246,-19"/>
<text text-anchor="middle" x="216" y="-7" font-family="Helvetica,sans-Serif" font-size="10.00">iostream</text>
</a>
</g>
</g>
<!-- Node3&#45;&gt;Node8 -->
<g id="edge7_Node000003_Node000008" class="edge">
<title>Node3&#45;&gt;Node8</title>
<g id="a_edge7_Node000003_Node000008"><a xlink:title=" ">
<path fill="none" stroke="#63b8ff" d="M1393.35,-60.82C1355.81,-59.07 1305.47,-56.8 1261,-55 817.35,-37.09 700.66,-74.29 256.36,-18.91"/>
<polygon fill="#63b8ff" stroke="#63b8ff" points="256.5,-15.4 246.14,-17.63 255.63,-22.35 256.5,-15.4"/>
</a>
</g>
</g>
<!-- Node9 -->
<g id="Node000009" class="node">
<title>Node9</title>
<g id="a_Node000009"><a xlink:title=" ">
<polygon fill="#e0e0e0" stroke="#999999" points="317.5,-19 264.5,-19 264.5,0 317.5,0 317.5,-19"/>
<text text-anchor="middle" x="291" y="-7" font-family="Helvetica,sans-Serif" font-size="10.00">string.h</text>
</a>
</g>
</g>
<!-- Node3&#45;&gt;Node9 -->
<g id="edge8_Node000003_Node000009" class="edge">
<title>Node3&#45;&gt;Node9</title>
<g id="a_edge8_Node000003_Node000009"><a xlink:title=" ">
<path fill="none" stroke="#63b8ff" d="M1393.35,-60.86C1355.81,-59.13 1305.47,-56.86 1261,-55 849.29,-37.81 740.38,-74.39 327.74,-18.77"/>
<polygon fill="#63b8ff" stroke="#63b8ff" points="328.01,-15.27 317.63,-17.39 327.07,-22.21 328.01,-15.27"/>
</a>
</g>
</g>
<!-- Node10 -->
<g id="Node000010" class="node">
<title>Node10</title>
<g id="a_Node000010"><a xlink:title=" ">
<polygon fill="#e0e0e0" stroke="#999999" points="380,-19 336,-19 336,0 380,0 380,-19"/>
<text text-anchor="middle" x="358" y="-7" font-family="Helvetica,sans-Serif" font-size="10.00">string</text>
</a>
</g>
</g>
<!-- Node3&#45;&gt;Node10 -->
<g id="edge9_Node000003_Node000010" class="edge">
<title>Node3&#45;&gt;Node10</title>
<g id="a_edge9_Node000003_Node000010"><a xlink:title=" ">
<path fill="none" stroke="#63b8ff" d="M1393.35,-60.9C1355.81,-59.19 1305.46,-56.92 1261,-55 876.79,-38.43 774.02,-77.98 390.21,-18.79"/>
<polygon fill="#63b8ff" stroke="#63b8ff" points="390.64,-15.32 380.22,-17.24 389.56,-22.23 390.64,-15.32"/>
</a>
</g>
</g>
<!-- Node11 -->
<g id="Node000011" class="node">
<title>Node11</title>
<g id="a_Node000011"><a xlink:title=" ">
<polygon fill="#e0e0e0" stroke="#999999" points="445.5,-19 398.5,-19 398.5,0 445.5,0 445.5,-19"/>
<text text-anchor="middle" x="422" y="-7" font-family="Helvetica,sans-Serif" font-size="10.00">vector</text>
</a>
</g>
</g>
<!-- Node3&#45;&gt;Node11 -->
<g id="edge10_Node000003_Node000011" class="edge">
<title>Node3&#45;&gt;Node11</title>
<g id="a_edge10_Node000003_Node000011"><a xlink:title=" ">
<path fill="none" stroke="#63b8ff" d="M1393.35,-60.95C1355.81,-59.26 1305.46,-56.99 1261,-55 905.66,-39.08 810.64,-72.76 455.69,-18.92"/>
<polygon fill="#63b8ff" stroke="#63b8ff" points="456.06,-15.44 445.65,-17.39 455,-22.36 456.06,-15.44"/>
</a>
</g>
</g>
<!-- Node12 -->
<g id="Node000012" class="node">
<title>Node12</title>
<g id="a_Node000012"><a xlink:title=" ">
<polygon fill="#e0e0e0" stroke="#999999" points="510.5,-19 463.5,-19 463.5,0 510.5,0 510.5,-19"/>
<text text-anchor="middle" x="487" y="-7" font-family="Helvetica,sans-Serif" font-size="10.00">deque</text>
</a>
</g>
</g>
<!-- Node3&#45;&gt;Node12 -->
<g id="edge11_Node000003_Node000012" class="edge">
<title>Node3&#45;&gt;Node12</title>
<g id="a_edge11_Node000003_Node000012"><a xlink:title=" ">
<path fill="none" stroke="#63b8ff" d="M1393.27,-60.95C1205.22,-52.48 609.61,-25.48 520.72,-18.39"/>
<polygon fill="#63b8ff" stroke="#63b8ff" points="520.95,-14.89 510.65,-17.38 520.25,-21.86 520.95,-14.89"/>
</a>
</g>
</g>
<!-- Node13 -->
<g id="Node000013" class="node">
<title>Node13</title>
<g id="a_Node000013"><a xlink:title=" ">
<polygon fill="#e0e0e0" stroke="#999999" points="621.5,-19 528.5,-19 528.5,0 621.5,0 621.5,-19"/>
<text text-anchor="middle" x="575" y="-7" font-family="Helvetica,sans-Serif" font-size="10.00">unordered_map</text>
</a>
</g>
</g>
<!-- Node3&#45;&gt;Node13 -->
<g id="edge12_Node000003_Node000013" class="edge">
<title>Node3&#45;&gt;Node13</title>
<g id="a_edge12_Node000003_Node000013"><a xlink:title=" ">
<path fill="none" stroke="#63b8ff" d="M1393.31,-60.74C1226.2,-52.55 740.95,-28.46 631.85,-18.89"/>
<polygon fill="#63b8ff" stroke="#63b8ff" points="631.99,-15.39 621.71,-17.93 631.33,-22.36 631.99,-15.39"/>
</a>
</g>
</g>
<!-- Node14 -->
<g id="Node000014" class="node">
<title>Node14</title>
<g id="a_Node000014"><a xlink:title=" ">
<polygon fill="#e0e0e0" stroke="#999999" points="678,-19 640,-19 640,0 678,0 678,-19"/>
<text text-anchor="middle" x="659" y="-7" font-family="Helvetica,sans-Serif" font-size="10.00">map</text>
</a>
</g>
</g>
<!-- Node3&#45;&gt;Node14 -->
<g id="edge13_Node000003_Node000014" class="edge">
<title>Node3&#45;&gt;Node14</title>
<g id="a_edge13_Node000003_Node000014"><a xlink:title=" ">
<path fill="none" stroke="#63b8ff" d="M1393.36,-60.97C1234.4,-53.77 789.58,-32.86 688.07,-18.54"/>
<polygon fill="#63b8ff" stroke="#63b8ff" points="688.56,-15.08 678.13,-16.96 687.46,-21.99 688.56,-15.08"/>
</a>
</g>
</g>
<!-- Node15 -->
<g id="Node000015" class="node">
<title>Node15</title>
<g id="a_Node000015"><a xlink:title=" ">
<polygon fill="#e0e0e0" stroke="#999999" points="754,-19 696,-19 696,0 754,0 754,-19"/>
<text text-anchor="middle" x="725" y="-7" font-family="Helvetica,sans-Serif" font-size="10.00">memory</text>
</a>
</g>
</g>
<!-- Node3&#45;&gt;Node15 -->
<g id="edge14_Node000003_Node000015" class="edge">
<title>Node3&#45;&gt;Node15</title>
<g id="a_edge14_Node000003_Node000015"><a xlink:title=" ">
<path fill="none" stroke="#63b8ff" d="M1393.25,-60.96C1254.87,-54.6 901.99,-37.25 764.3,-18.92"/>
<polygon fill="#63b8ff" stroke="#63b8ff" points="764.76,-15.45 754.38,-17.54 763.8,-22.39 764.76,-15.45"/>
</a>
</g>
</g>
<!-- Node16 -->
<g id="Node000016" class="node">
<title>Node16</title>
<g id="a_Node000016"><a xlink:title=" ">
<polygon fill="#e0e0e0" stroke="#999999" points="64,-19 0,-19 0,0 64,0 64,-19"/>
<text text-anchor="middle" x="32" y="-7" font-family="Helvetica,sans-Serif" font-size="10.00">algorithm</text>
</a>
</g>
</g>
<!-- Node3&#45;&gt;Node16 -->
<g id="edge15_Node000003_Node000016" class="edge">
<title>Node3&#45;&gt;Node16</title>
<g id="a_edge15_Node000003_Node000016"><a xlink:title=" ">
<path fill="none" stroke="#63b8ff" d="M1393.36,-60.74C1355.82,-58.96 1305.47,-56.67 1261,-55 736.48,-35.26 599.35,-80.27 74.25,-18.9"/>
<polygon fill="#63b8ff" stroke="#63b8ff" points="74.48,-15.41 64.14,-17.72 73.67,-22.36 74.48,-15.41"/>
</a>
</g>
</g>
<!-- Node17 -->
<g id="Node000017" class="node">
<title>Node17</title>
<g id="a_Node000017"><a xlink:title=" ">
<polygon fill="#e0e0e0" stroke="#999999" points="837.5,-19 772.5,-19 772.5,0 837.5,0 837.5,-19"/>
<text text-anchor="middle" x="805" y="-7" font-family="Helvetica,sans-Serif" font-size="10.00">functional</text>
</a>
</g>
</g>
<!-- Node3&#45;&gt;Node17 -->
<g id="edge16_Node000003_Node000017" class="edge">
<title>Node3&#45;&gt;Node17</title>
<g id="a_edge16_Node000003_Node000017"><a xlink:title=" ">
<path fill="none" stroke="#63b8ff" d="M1393.41,-60.24C1268.07,-52.87 969.21,-34.47 848.08,-18.93"/>
<polygon fill="#63b8ff" stroke="#63b8ff" points="848.32,-15.43 837.95,-17.58 847.4,-22.37 848.32,-15.43"/>
</a>
</g>
</g>
<!-- Node18 -->
<g id="Node000018" class="node">
<title>Node18</title>
<g id="a_Node000018"><a xlink:title=" ">
<polygon fill="#e0e0e0" stroke="#999999" points="906,-19 856,-19 856,0 906,0 906,-19"/>
<text text-anchor="middle" x="881" y="-7" font-family="Helvetica,sans-Serif" font-size="10.00">chrono</text>
</a>
</g>
</g>
<!-- Node3&#45;&gt;Node18 -->
<g id="edge17_Node000003_Node000018" class="edge">
<title>Node3&#45;&gt;Node18</title>
<g id="a_edge17_Node000003_Node000018"><a xlink:title=" ">
<path fill="none" stroke="#63b8ff" d="M1393.18,-59.94C1278.74,-52.6 1022.99,-35.2 916.31,-18.9"/>
<polygon fill="#63b8ff" stroke="#63b8ff" points="916.58,-15.4 906.16,-17.27 915.48,-22.31 916.58,-15.4"/>
</a>
</g>
</g>
<!-- Node19 -->
<g id="Node000019" class="node">
<title>Node19</title>
<g id="a_Node000019"><a xlink:title=" ">
<polygon fill="#e0e0e0" stroke="#999999" points="970,-19 924,-19 924,0 970,0 970,-19"/>
<text text-anchor="middle" x="947" y="-7" font-family="Helvetica,sans-Serif" font-size="10.00">cstdio</text>
</a>
</g>
</g>
<!-- Node3&#45;&gt;Node19 -->
<g id="edge18_Node000003_Node000019" class="edge">
<title>Node3&#45;&gt;Node19</title>
<g id="a_edge18_Node000003_Node000019"><a xlink:title=" ">
<path fill="none" stroke="#63b8ff" d="M1393.4,-61.18C1306.46,-56.95 1134.74,-45.97 980.46,-18.97"/>
<polygon fill="#63b8ff" stroke="#63b8ff" points="980.78,-15.48 970.32,-17.17 979.55,-22.37 980.78,-15.48"/>
</a>
</g>
</g>
<!-- Node20 -->
<g id="Node000020" class="node">
<title>Node20</title>
<g id="a_Node000020"><a xlink:title=" ">
<polygon fill="#e0e0e0" stroke="#999999" points="1040,-19 988,-19 988,0 1040,0 1040,-19"/>
<text text-anchor="middle" x="1014" y="-7" font-family="Helvetica,sans-Serif" font-size="10.00">cassert</text>
</a>
</g>
</g>
<!-- Node3&#45;&gt;Node20 -->
<g id="edge19_Node000003_Node000020" class="edge">
<title>Node3&#45;&gt;Node20</title>
<g id="a_edge19_Node000003_Node000020"><a xlink:title=" ">
<path fill="none" stroke="#63b8ff" d="M1393.23,-59.5C1317.22,-53.63 1178.05,-41.11 1050.26,-19.01"/>
<polygon fill="#63b8ff" stroke="#63b8ff" points="1050.75,-15.55 1040.3,-17.27 1049.54,-22.44 1050.75,-15.55"/>
</a>
</g>
</g>
<!-- Node21 -->
<g id="Node000021" class="node">
<title>Node21</title>
<g id="a_Node000021"><a xlink:title=" ">
<polygon fill="#e0e0e0" stroke="#999999" points="1123.5,-19 1058.5,-19 1058.5,0 1123.5,0 1123.5,-19"/>
<text text-anchor="middle" x="1091" y="-7" font-family="Helvetica,sans-Serif" font-size="10.00">typeindex</text>
</a>
</g>
</g>
<!-- Node3&#45;&gt;Node21 -->
<g id="edge20_Node000003_Node000021" class="edge">
<title>Node3&#45;&gt;Node21</title>
<g id="a_edge20_Node000003_Node000021"><a xlink:title=" ">
<path fill="none" stroke="#63b8ff" d="M1393.44,-56.6C1332.01,-48.88 1230.79,-35.47 1133.53,-18.99"/>
<polygon fill="#63b8ff" stroke="#63b8ff" points="1133.97,-15.52 1123.52,-17.28 1132.79,-22.42 1133.97,-15.52"/>
</a>
</g>
</g>
<!-- Node22 -->
<g id="Node000022" class="node">
<title>Node22</title>
<g id="a_Node000022"><a xlink:title=" ">
<polygon fill="#e0e0e0" stroke="#999999" points="1210,-19 1142,-19 1142,0 1210,0 1210,-19"/>
<text text-anchor="middle" x="1176" y="-7" font-family="Helvetica,sans-Serif" font-size="10.00">filesystem</text>
</a>
</g>
</g>
<!-- Node3&#45;&gt;Node22 -->
<g id="edge21_Node000003_Node000022" class="edge">
<title>Node3&#45;&gt;Node22</title>
<g id="a_edge21_Node000003_Node000022"><a xlink:title=" ">
<path fill="none" stroke="#63b8ff" d="M1405.27,-54.95C1360.82,-46.44 1290.42,-32.92 1220.17,-19.22"/>
<polygon fill="#63b8ff" stroke="#63b8ff" points="1220.75,-15.77 1210.26,-17.29 1219.41,-22.64 1220.75,-15.77"/>
</a>
</g>
</g>
<!-- Node23 -->
<g id="Node000023" class="node">
<title>Node23</title>
<g id="a_Node000023"><a xlink:title=" ">
<polygon fill="#e0e0e0" stroke="#999999" points="1260,-19 1228,-19 1228,0 1260,0 1260,-19"/>
<text text-anchor="middle" x="1244" y="-7" font-family="Helvetica,sans-Serif" font-size="10.00">set</text>
</a>
</g>
</g>
<!-- Node3&#45;&gt;Node23 -->
<g id="edge22_Node000003_Node000023" class="edge">
<title>Node3&#45;&gt;Node23</title>
<g id="a_edge22_Node000003_Node000023"><a xlink:title=" ">
<path fill="none" stroke="#63b8ff" d="M1411.26,-55C1376.51,-47.15 1323.98,-34.72 1269.84,-19.05"/>
<polygon fill="#63b8ff" stroke="#63b8ff" points="1270.65,-15.64 1260.07,-16.19 1268.69,-22.36 1270.65,-15.64"/>
</a>
</g>
</g>
<!-- Node24 -->
<g id="Node000024" class="node">
<title>Node24</title>
<g id="a_Node000024"><a xlink:title=" ">
<polygon fill="#e0e0e0" stroke="#999999" points="1333.5,-19 1278.5,-19 1278.5,0 1333.5,0 1333.5,-19"/>
<text text-anchor="middle" x="1306" y="-7" font-family="Helvetica,sans-Serif" font-size="10.00">fstream</text>
</a>
</g>
</g>
<!-- Node3&#45;&gt;Node24 -->
<g id="edge23_Node000003_Node000024" class="edge">
<title>Node3&#45;&gt;Node24</title>
<g id="a_edge23_Node000003_Node000024"><a xlink:title=" ">
<path fill="none" stroke="#63b8ff" d="M1426.86,-54.98C1403.18,-46.27 1366.13,-32.63 1339.29,-22.75"/>
<polygon fill="#63b8ff" stroke="#63b8ff" points="1340.15,-19.34 1329.56,-19.17 1337.73,-25.91 1340.15,-19.34"/>
</a>
</g>
</g>
<!-- Node25 -->
<g id="Node000025" class="node">
<title>Node25</title>
<g id="a_Node000025"><a xlink:title=" ">
<polygon fill="#e0e0e0" stroke="#999999" points="1408,-19 1352,-19 1352,0 1408,0 1408,-19"/>
<text text-anchor="middle" x="1380" y="-7" font-family="Helvetica,sans-Serif" font-size="10.00">sstream</text>
</a>
</g>
</g>
<!-- Node3&#45;&gt;Node25 -->
<g id="edge24_Node000003_Node000025" class="edge">
<title>Node3&#45;&gt;Node25</title>
<g id="a_edge24_Node000003_Node000025"><a xlink:title=" ">
<path fill="none" stroke="#63b8ff" d="M1438.75,-54.98C1428.2,-47 1412.2,-34.88 1399.56,-25.31"/>
<polygon fill="#63b8ff" stroke="#63b8ff" points="1401.54,-22.42 1391.45,-19.17 1397.31,-28 1401.54,-22.42"/>
</a>
</g>
</g>
<!-- Node26 -->
<g id="Node000026" class="node">
<title>Node26</title>
<g id="a_Node000026"><a xlink:title=" ">
<polygon fill="#e0e0e0" stroke="#999999" points="1474,-19 1426,-19 1426,0 1474,0 1474,-19"/>
<text text-anchor="middle" x="1450" y="-7" font-family="Helvetica,sans-Serif" font-size="10.00">mutex</text>
</a>
</g>
</g>
<!-- Node3&#45;&gt;Node26 -->
<g id="edge25_Node000003_Node000026" class="edge">
<title>Node3&#45;&gt;Node26</title>
<g id="a_edge25_Node000003_Node000026"><a xlink:title=" ">
<path fill="none" stroke="#63b8ff" d="M1450,-54.75C1450,-47.8 1450,-37.85 1450,-29.13"/>
<polygon fill="#63b8ff" stroke="#63b8ff" points="1453.5,-29.09 1450,-19.09 1446.5,-29.09 1453.5,-29.09"/>
</a>
</g>
</g>
<!-- Node27 -->
<g id="Node000027" class="node">
<title>Node27</title>
<g id="a_Node000027"><a xlink:title=" ">
<polygon fill="#e0e0e0" stroke="#999999" points="1546,-19 1492,-19 1492,0 1546,0 1546,-19"/>
<text text-anchor="middle" x="1519" y="-7" font-family="Helvetica,sans-Serif" font-size="10.00">random</text>
</a>
</g>
</g>
<!-- Node3&#45;&gt;Node27 -->
<g id="edge26_Node000003_Node000027" class="edge">
<title>Node3&#45;&gt;Node27</title>
<g id="a_edge26_Node000003_Node000027"><a xlink:title=" ">
<path fill="none" stroke="#63b8ff" d="M1461.09,-54.98C1471.49,-47 1487.26,-34.88 1499.72,-25.31"/>
<polygon fill="#63b8ff" stroke="#63b8ff" points="1501.91,-28.04 1507.71,-19.17 1497.65,-22.49 1501.91,-28.04"/>
</a>
</g>
</g>
<!-- Node28 -->
<g id="Node000028" class="node">
<title>Node28</title>
<g id="a_Node000028"><a xlink:title=" ">
<polygon fill="#e0e0e0" stroke="#999999" points="1612,-19 1564,-19 1564,0 1612,0 1612,-19"/>
<text text-anchor="middle" x="1588" y="-7" font-family="Helvetica,sans-Serif" font-size="10.00">thread</text>
</a>
</g>
</g>
<!-- Node3&#45;&gt;Node28 -->
<g id="edge27_Node000003_Node000028" class="edge">
<title>Node3&#45;&gt;Node28</title>
<g id="a_edge27_Node000003_Node000028"><a xlink:title=" ">
<path fill="none" stroke="#63b8ff" d="M1472.17,-54.98C1494.77,-46.3 1530.06,-32.75 1555.75,-22.88"/>
<polygon fill="#63b8ff" stroke="#63b8ff" points="1557.34,-26.02 1565.42,-19.17 1554.83,-19.49 1557.34,-26.02"/>
</a>
</g>
</g>
<!-- Node29 -->
<g id="Node000029" class="node">
<title>Node29</title>
<g id="a_Node000029"><a xlink:title=" ">
<polygon fill="#e0e0e0" stroke="#999999" points="1680,-19 1630,-19 1630,0 1680,0 1680,-19"/>
<text text-anchor="middle" x="1655" y="-7" font-family="Helvetica,sans-Serif" font-size="10.00">atomic</text>
</a>
</g>
</g>
<!-- Node3&#45;&gt;Node29 -->
<g id="edge28_Node000003_Node000029" class="edge">
<title>Node3&#45;&gt;Node29</title>
<g id="a_edge28_Node000003_Node000029"><a xlink:title=" ">
<path fill="none" stroke="#63b8ff" d="M1482.94,-54.98C1520.55,-45.26 1581.82,-29.42 1620.19,-19.5"/>
<polygon fill="#63b8ff" stroke="#63b8ff" points="1621.09,-22.88 1629.9,-16.99 1619.34,-16.1 1621.09,-22.88"/>
</a>
</g>
</g>
<!-- Node30 -->
<g id="Node000030" class="node">
<title>Node30</title>
<g id="a_Node000030"><a xlink:title=" ">
<polygon fill="#e0e0e0" stroke="#999999" points="1747.5,-19 1698.5,-19 1698.5,0 1747.5,0 1747.5,-19"/>
<text text-anchor="middle" x="1723" y="-7" font-family="Helvetica,sans-Serif" font-size="10.00">cctype</text>
</a>
</g>
</g>
<!-- Node3&#45;&gt;Node30 -->
<g id="edge29_Node000003_Node000030" class="edge">
<title>Node3&#45;&gt;Node30</title>
<g id="a_edge29_Node000003_Node000030"><a xlink:title=" ">
<path fill="none" stroke="#63b8ff" d="M1501,-54.93C1547.33,-46.94 1617.78,-34.26 1688.22,-19.06"/>
<polygon fill="#63b8ff" stroke="#63b8ff" points="1689.13,-22.44 1698.16,-16.9 1687.64,-15.6 1689.13,-22.44"/>
</a>
</g>
</g>
<!-- Node31 -->
<g id="Node000031" class="node">
<title>Node31</title>
<g id="a_Node000031"><a xlink:title=" ">
<polygon fill="#e0e0e0" stroke="#999999" points="1808,-19 1766,-19 1766,0 1808,0 1808,-19"/>
<text text-anchor="middle" x="1787" y="-7" font-family="Helvetica,sans-Serif" font-size="10.00">array</text>
</a>
</g>
</g>
<!-- Node3&#45;&gt;Node31 -->
<g id="edge30_Node000003_Node000031" class="edge">
<title>Node3&#45;&gt;Node31</title>
<g id="a_edge30_Node000003_Node000031"><a xlink:title=" ">
<path fill="none" stroke="#63b8ff" d="M1506.7,-57.56C1566.49,-50.78 1663.57,-38.33 1755.99,-18.97"/>
<polygon fill="#63b8ff" stroke="#63b8ff" points="1756.73,-22.39 1765.78,-16.89 1755.27,-15.54 1756.73,-22.39"/>
</a>
</g>
</g>
<!-- Node32 -->
<g id="Node000032" class="node">
<title>Node32</title>
<g id="a_Node000032"><a xlink:title=" ">
<polygon fill="#e0e0e0" stroke="#999999" points="1895.5,-19 1826.5,-19 1826.5,0 1895.5,0 1895.5,-19"/>
<text text-anchor="middle" x="1861" y="-7" font-family="Helvetica,sans-Serif" font-size="10.00">type_traits</text>
</a>
</g>
</g>
<!-- Node3&#45;&gt;Node32 -->
<g id="edge31_Node000003_Node000032" class="edge">
<title>Node3&#45;&gt;Node32</title>
<g id="a_edge31_Node000003_Node000032"><a xlink:title=" ">
<path fill="none" stroke="#63b8ff" d="M1506.75,-57.87C1576.97,-50.62 1700.39,-36.97 1816.34,-18.99"/>
<polygon fill="#63b8ff" stroke="#63b8ff" points="1817.11,-22.42 1826.45,-17.41 1816.03,-15.5 1817.11,-22.42"/>
</a>
</g>
</g>
<!-- Node33 -->
<g id="Node000033" class="node">
<title>Node33</title>
<g id="a_Node000033"><a xlink:title=" ">
<polygon fill="#e0e0e0" stroke="#999999" points="1958,-19 1914,-19 1914,0 1958,0 1958,-19"/>
<text text-anchor="middle" x="1936" y="-7" font-family="Helvetica,sans-Serif" font-size="10.00">cfloat</text>
</a>
</g>
</g>
<!-- Node3&#45;&gt;Node33 -->
<g id="edge32_Node000003_Node000033" class="edge">
<title>Node3&#45;&gt;Node33</title>
<g id="a_edge32_Node000003_Node000033"><a xlink:title=" ">
<path fill="none" stroke="#63b8ff" d="M1506.82,-61.05C1591.43,-56.72 1755.56,-45.7 1903.58,-18.96"/>
<polygon fill="#63b8ff" stroke="#63b8ff" points="1904.55,-22.34 1913.75,-17.09 1903.29,-15.45 1904.55,-22.34"/>
</a>
</g>
</g>
<!-- Node34 -->
<g id="Node000034" class="node">
<title>Node34</title>
<g id="a_Node000034"><a xlink:title=" ">
<polygon fill="#e0e0e0" stroke="#999999" points="2086,-19 1976,-19 1976,0 2086,0 2086,-19"/>
<text text-anchor="middle" x="2031" y="-7" font-family="Helvetica,sans-Serif" font-size="10.00">nlohmann/json.hpp</text>
</a>
</g>
</g>
<!-- Node3&#45;&gt;Node34 -->
<g id="edge33_Node000003_Node000034" class="edge">
<title>Node3&#45;&gt;Node34</title>
<g id="a_edge33_Node000003_Node000034"><a xlink:title=" ">
<path fill="none" stroke="#63b8ff" d="M1506.69,-59.48C1600.11,-52.67 1792.47,-37.85 1965.79,-19.08"/>
<polygon fill="#63b8ff" stroke="#63b8ff" points="1966.3,-22.55 1975.86,-17.99 1965.54,-15.59 1966.3,-22.55"/>
</a>
</g>
</g>
<!-- Node35 -->
<g id="Node000035" class="node">
<title>Node35</title>
<g id="a_Node000035"><a xlink:title=" ">
<polygon fill="#e0e0e0" stroke="#999999" points="2160,-19 2104,-19 2104,0 2160,0 2160,-19"/>
<text text-anchor="middle" x="2132" y="-7" font-family="Helvetica,sans-Serif" font-size="10.00">d3d12.h</text>
</a>
</g>
</g>
<!-- Node3&#45;&gt;Node35 -->
<g id="edge34_Node000003_Node000035" class="edge">
<title>Node3&#45;&gt;Node35</title>
<g id="a_edge34_Node000003_Node000035"><a xlink:title=" ">
<path fill="none" stroke="#63b8ff" d="M1506.83,-62.57C1617.88,-60.1 1871.5,-51.28 2093.59,-18.96"/>
<polygon fill="#63b8ff" stroke="#63b8ff" points="2094.42,-22.38 2103.81,-17.46 2093.4,-15.45 2094.42,-22.38"/>
</a>
</g>
</g>
<!-- Node36 -->
<g id="Node000036" class="node">
<title>Node36</title>
<g id="a_Node000036"><a xlink:title=" ">
<polygon fill="#e0e0e0" stroke="#999999" points="2242,-19 2178,-19 2178,0 2242,0 2242,-19"/>
<text text-anchor="middle" x="2210" y="-7" font-family="Helvetica,sans-Serif" font-size="10.00">dxgi1_6.h</text>
</a>
</g>
</g>
<!-- Node3&#45;&gt;Node36 -->
<g id="edge35_Node000003_Node000036" class="edge">
<title>Node3&#45;&gt;Node36</title>
<g id="a_edge35_Node000003_Node000036"><a xlink:title=" ">
<path fill="none" stroke="#63b8ff" d="M1506.66,-62.74C1626.82,-60.52 1916.11,-52.05 2167.78,-18.96"/>
<polygon fill="#63b8ff" stroke="#63b8ff" points="2168.39,-22.41 2177.85,-17.62 2167.47,-15.47 2168.39,-22.41"/>
</a>
</g>
</g>
<!-- Node37 -->
<g id="Node000037" class="node">
<title>Node37</title>
<g id="a_Node000037"><a xlink:title=" ">
<polygon fill="#e0e0e0" stroke="#999999" points="2346,-19 2260,-19 2260,0 2346,0 2346,-19"/>
<text text-anchor="middle" x="2303" y="-7" font-family="Helvetica,sans-Serif" font-size="10.00">d3dcompiler.h</text>
</a>
</g>
</g>
<!-- Node3&#45;&gt;Node37 -->
<g id="edge36_Node000003_Node000037" class="edge">
<title>Node3&#45;&gt;Node37</title>
<g id="a_edge36_Node000003_Node000037"><a xlink:title=" ">
<path fill="none" stroke="#63b8ff" d="M1506.98,-62.42C1636.92,-59.5 1965.24,-49.59 2249.81,-19"/>
<polygon fill="#63b8ff" stroke="#63b8ff" points="2250.35,-22.46 2259.92,-17.9 2249.6,-15.5 2250.35,-22.46"/>
</a>
</g>
</g>
<!-- Node38 -->
<g id="Node000038" class="node">
<title>Node38</title>
<g id="a_Node000038"><a xlink:title=" ">
<polygon fill="#e0e0e0" stroke="#999999" points="168,-19 82,-19 82,0 168,0 168,-19"/>
<text text-anchor="middle" x="125" y="-7" font-family="Helvetica,sans-Serif" font-size="10.00">DirectXMath.h</text>
</a>
</g>
</g>
<!-- Node3&#45;&gt;Node38 -->
<g id="edge37_Node000003_Node000038" class="edge">
<title>Node3&#45;&gt;Node38</title>
<g id="a_edge37_Node000003_Node000038"><a xlink:title=" ">
<path fill="none" stroke="#63b8ff" d="M1393.36,-60.78C1355.82,-59.02 1305.47,-56.74 1261,-55 782.62,-36.3 658.44,-65.57 178.04,-18.95"/>
<polygon fill="#63b8ff" stroke="#63b8ff" points="178.37,-15.47 168.07,-17.98 177.69,-22.43 178.37,-15.47"/>
</a>
</g>
</g>
<!-- Node39 -->
<g id="Node000039" class="node">
<title>Node39</title>
<g id="a_Node000039"><a xlink:title=" ">
<polygon fill="#e0e0e0" stroke="#999999" points="2481.5,-19 2364.5,-19 2364.5,0 2481.5,0 2481.5,-19"/>
<text text-anchor="middle" x="2423" y="-7" font-family="Helvetica,sans-Serif" font-size="10.00">assimp/Importer.hpp</text>
</a>
</g>
</g>
<!-- Node3&#45;&gt;Node39 -->
<g id="edge38_Node000003_Node000039" class="edge">
<title>Node3&#45;&gt;Node39</title>
<g id="a_edge38_Node000003_Node000039"><a xlink:title=" ">
<path fill="none" stroke="#63b8ff" d="M1506.75,-62.19C1648.03,-58.62 2027.03,-47.08 2354.27,-18.98"/>
<polygon fill="#63b8ff" stroke="#63b8ff" points="2354.76,-22.45 2364.42,-18.11 2354.16,-15.48 2354.76,-22.45"/>
</a>
</g>
</g>
<!-- Node40 -->
<g id="Node000040" class="node">
<title>Node40</title>
<g id="a_Node000040"><a xlink:title=" ">
<polygon fill="#e0e0e0" stroke="#999999" points="2592,-19 2500,-19 2500,0 2592,0 2592,-19"/>
<text text-anchor="middle" x="2546" y="-7" font-family="Helvetica,sans-Serif" font-size="10.00">assimp/scene.h</text>
</a>
</g>
</g>
<!-- Node3&#45;&gt;Node40 -->
<g id="edge39_Node000003_Node000040" class="edge">
<title>Node3&#45;&gt;Node40</title>
<g id="a_edge39_Node000003_Node000040"><a xlink:title=" ">
<path fill="none" stroke="#63b8ff" d="M1506.58,-63.28C1661.98,-62.2 2108.6,-55.94 2489.71,-19"/>
<polygon fill="#63b8ff" stroke="#63b8ff" points="2490.22,-22.47 2499.83,-18.01 2489.54,-15.5 2490.22,-22.47"/>
</a>
</g>
</g>
<!-- Node41 -->
<g id="Node000041" class="node">
<title>Node41</title>
<g id="a_Node000041"><a xlink:title=" ">
<polygon fill="#e0e0e0" stroke="#999999" points="2732,-19 2610,-19 2610,0 2732,0 2732,-19"/>
<text text-anchor="middle" x="2671" y="-7" font-family="Helvetica,sans-Serif" font-size="10.00">assimp/postprocess.h</text>
</a>
</g>
</g>
<!-- Node3&#45;&gt;Node41 -->
<g id="edge40_Node000003_Node000041" class="edge">
<title>Node3&#45;&gt;Node41</title>
<g id="a_edge40_Node000003_Node000041"><a xlink:title=" ">
<path fill="none" stroke="#63b8ff" d="M1506.69,-62.96C1672.92,-61.01 2173.73,-52.64 2599.89,-19.01"/>
<polygon fill="#63b8ff" stroke="#63b8ff" points="2600.26,-22.49 2609.95,-18.21 2599.7,-15.52 2600.26,-22.49"/>
</a>
</g>
</g>
<!-- Node42 -->
<g id="Node000042" class="node">
<title>Node42</title>
<g id="a_Node000042"><a xlink:href="Logger_8h.html" target="_top" xlink:title="デバッグログ出力システム">
<polygon fill="white" stroke="#666666" points="2828,-19 2750,-19 2750,0 2828,0 2828,-19"/>
<text text-anchor="middle" x="2789" y="-7" font-family="Helvetica,sans-Serif" font-size="10.00">Log/Logger.h</text>
</a>
</g>
</g>
<!-- Node3&#45;&gt;Node42 -->
<g id="edge41_Node000003_Node000042" class="edge">
<title>Node3&#45;&gt;Node42</title>
<g id="a_edge41_Node000003_Node000042"><a xlink:title=" ">
<path fill="none" stroke="#63b8ff" d="M1506.64,-62.55C1721.89,-58.9 2488.62,-44.62 2732,-19 2734.5,-18.74 2737.07,-18.42 2739.68,-18.06"/>
<polygon fill="#63b8ff" stroke="#63b8ff" points="2740.42,-21.49 2749.79,-16.54 2739.38,-14.57 2740.42,-21.49"/>
</a>
</g>
</g>
<!-- Node42&#45;&gt;Node3 -->
<g id="edge42_Node000042_Node000003" class="edge">
<title>Node42&#45;&gt;Node3</title>
<g id="a_edge42_Node000042_Node000003"><a xlink:title=" ">
<path fill="none" stroke="#63b8ff" d="M2749.64,-19.04C2507.07,-44.5 1747.4,-58.76 1516.9,-62.5"/>
<polygon fill="#63b8ff" stroke="#63b8ff" points="1516.6,-59 1506.66,-62.66 1516.71,-66 1516.6,-59"/>
</a>
</g>
</g>
<!-- Node43&#45;&gt;Node3 -->
<g id="edge44_Node000043_Node000003" class="edge">
<title>Node43&#45;&gt;Node3</title>
<g id="a_edge44_Node000043_Node000003"><a xlink:title=" ">
<path fill="none" stroke="#63b8ff" d="M1256.95,-109.98C1296.57,-100.86 1359.59,-86.33 1402.77,-76.38"/>
<polygon fill="#63b8ff" stroke="#63b8ff" points="1403.8,-79.74 1412.76,-74.08 1402.23,-72.92 1403.8,-79.74"/>
</a>
</g>
</g>
<!-- Node44 -->
<g id="Node000044" class="node">
<title>Node44</title>
<g id="a_Node000044"><a xlink:title=" ">
<polygon fill="#e0e0e0" stroke="#999999" points="1252,-74 1188,-74 1188,-55 1252,-55 1252,-74"/>
<text text-anchor="middle" x="1220" y="-62" font-family="Helvetica,sans-Serif" font-size="10.00">shellapi.h</text>
</a>
</g>
</g>
<!-- Node43&#45;&gt;Node44 -->
<g id="edge45_Node000043_Node000044" class="edge">
<title>Node43&#45;&gt;Node44</title>
<g id="a_edge45_Node000043_Node000044"><a xlink:title=" ">
<path fill="none" stroke="#63b8ff" d="M1220,-109.75C1220,-102.8 1220,-92.85 1220,-84.13"/>
<polygon fill="#63b8ff" stroke="#63b8ff" points="1223.5,-84.09 1220,-74.09 1216.5,-84.09 1223.5,-84.09"/>
</a>
</g>
</g>
<!-- Node45&#45;&gt;Node3 -->
<g id="edge47_Node000045_Node000003" class="edge">
<title>Node45&#45;&gt;Node3</title>
<g id="a_edge47_Node000045_Node000003"><a xlink:title=" ">
<path fill="none" stroke="#63b8ff" d="M1330.76,-219.99C1330.6,-198.94 1332.97,-143.71 1360,-110 1372.03,-94.99 1390.41,-84.66 1407.43,-77.75"/>
<polygon fill="#63b8ff" stroke="#63b8ff" points="1409.11,-80.86 1417.24,-74.07 1406.65,-74.31 1409.11,-80.86"/>
</a>
</g>
</g>
<!-- Node46 -->
<g id="Node000046" class="node">
<title>Node46</title>
<g id="a_Node000046"><a xlink:href="SpanMath_8h.html" target="_top" xlink:title="算術ライブラリ (Vector, Matrix, Quaternion)。">
<polygon fill="#fff0f0" stroke="red" points="189,-74 61,-74 61,-55 189,-55 189,-74"/>
<text text-anchor="middle" x="125" y="-62" font-family="Helvetica,sans-Serif" font-size="10.00">Core/Math/SpanMath.h</text>
</a>
</g>
</g>
<!-- Node45&#45;&gt;Node46 -->
<g id="edge48_Node000045_Node000046" class="edge">
<title>Node45&#45;&gt;Node46</title>
<g id="a_edge48_Node000045_Node000046"><a xlink:title=" ">
<path fill="none" stroke="#63b8ff" d="M1273.24,-220.69C1074.47,-193.83 418.85,-105.22 198.2,-75.39"/>
<polygon fill="#63b8ff" stroke="#63b8ff" points="198.41,-71.89 188.03,-74.02 197.47,-78.83 198.41,-71.89"/>
</a>
</g>
</g>
<!-- Node45&#45;&gt;Node48 -->
<g id="edge51_Node000045_Node000048" class="edge">
<title>Node45&#45;&gt;Node48</title>
<g id="a_edge51_Node000045_Node000048"><a xlink:title=" ">
<path fill="none" stroke="#63b8ff" d="M1317.5,-219.98C1304.6,-211.84 1284.9,-199.41 1269.6,-189.76"/>
<polygon fill="#63b8ff" stroke="#63b8ff" points="1271.07,-186.55 1260.74,-184.17 1267.33,-192.47 1271.07,-186.55"/>
</a>
</g>
</g>
<!-- Node46&#45;&gt;Node16 -->
<g id="edge50_Node000046_Node000016" class="edge">
<title>Node46&#45;&gt;Node16</title>
<g id="a_edge50_Node000046_Node000016"><a xlink:title=" ">
<path fill="none" stroke="#63b8ff" d="M110.06,-54.98C95.5,-46.69 73.13,-33.94 56.07,-24.22"/>
<polygon fill="#63b8ff" stroke="#63b8ff" points="57.64,-21.08 47.21,-19.17 54.17,-27.16 57.64,-21.08"/>
</a>
</g>
</g>
<!-- Node46&#45;&gt;Node38 -->
<g id="edge49_Node000046_Node000038" class="edge">
<title>Node46&#45;&gt;Node38</title>
<g id="a_edge49_Node000046_Node000038"><a xlink:title=" ">
<path fill="none" stroke="#63b8ff" d="M125,-54.75C125,-47.8 125,-37.85 125,-29.13"/>
<polygon fill="#63b8ff" stroke="#63b8ff" points="128.5,-29.09 125,-19.09 121.5,-29.09 128.5,-29.09"/>
</a>
</g>
</g>
<!-- Node48&#45;&gt;Node3 -->
<g id="edge52_Node000048_Node000003" class="edge">
<title>Node48&#45;&gt;Node3</title>
<g id="a_edge52_Node000048_Node000003"><a xlink:title=" ">
<path fill="none" stroke="#63b8ff" d="M1256.12,-164.59C1270.27,-151.19 1298.82,-125.73 1327,-110 1352.53,-95.75 1383.5,-84.58 1407.97,-76.99"/>
<polygon fill="#63b8ff" stroke="#63b8ff" points="1409.12,-80.3 1417.69,-74.06 1407.1,-73.6 1409.12,-80.3"/>
</a>
</g>
</g>
<!-- Node48&#45;&gt;Node43 -->
<g id="edge53_Node000048_Node000043" class="edge">
<title>Node48&#45;&gt;Node43</title>
<g id="a_edge53_Node000048_Node000043"><a xlink:title=" ">
<path fill="none" stroke="#63b8ff" d="M1242.54,-164.75C1238.88,-157.57 1233.59,-147.18 1229.05,-138.27"/>
<polygon fill="#63b8ff" stroke="#63b8ff" points="1232.03,-136.41 1224.38,-129.09 1225.8,-139.59 1232.03,-136.41"/>
</a>
</g>
</g>
<!-- Node57&#45;&gt;Node3 -->
<g id="edge56_Node000057_Node000003" class="edge">
<title>Node57&#45;&gt;Node3</title>
<g id="a_edge56_Node000057_Node000003"><a xlink:title=" ">
<path fill="none" stroke="#63b8ff" d="M1450,-109.75C1450,-102.8 1450,-92.85 1450,-84.13"/>
<polygon fill="#63b8ff" stroke="#63b8ff" points="1453.5,-84.09 1450,-74.09 1446.5,-84.09 1453.5,-84.09"/>
</a>
</g>
</g>
<!-- Node58&#45;&gt;Node3 -->
<g id="edge58_Node000058_Node000003" class="edge">
<title>Node58&#45;&gt;Node3</title>
<g id="a_edge58_Node000058_Node000003"><a xlink:title=" ">
<path fill="none" stroke="#63b8ff" d="M1524.05,-164.8C1534.78,-152.09 1551.19,-128.02 1540,-110 1530.47,-94.65 1513.9,-84.44 1497.55,-77.71"/>
<polygon fill="#63b8ff" stroke="#63b8ff" points="1498.61,-74.37 1488.01,-74.15 1496.15,-80.93 1498.61,-74.37"/>
</a>
</g>
</g>
<!-- Node67&#45;&gt;Node58 -->
<g id="edge60_Node000067_Node000058" class="edge">
<title>Node67&#45;&gt;Node58</title>
<g id="a_edge60_Node000067_Node000058"><a xlink:title=" ">
<path fill="none" stroke="#63b8ff" d="M1493.46,-219.75C1497.12,-212.57 1502.41,-202.18 1506.95,-193.27"/>
<polygon fill="#63b8ff" stroke="#63b8ff" points="1510.2,-194.59 1511.62,-184.09 1503.97,-191.41 1510.2,-194.59"/>
</a>
</g>
</g>
</g>
</svg>

<g id="navigator" transform="translate(0 0)" fill="#404254">
  <rect fill="#f2f5e9" fill-opacity="0.5" stroke="#606060" stroke-width=".5" x="0" y="0" width="60" height="60"/>
  <use id="zoomplus" xlink:href="#zoomPlus" x="17" y="9" onmousedown="handleZoom(evt,'in')"/>
  <use id="zoomminus" xlink:href="#zoomMin" x="42" y="9" onmousedown="handleZoom(evt,'out')"/>
  <use id="reset" xlink:href="#resetDef" x="30" y="36" onmousedown="handleReset()"/>
   <use id="arrowup" xlink:href="#arrowUp" x="0" y="0" onmousedown="handlePan(0,-1)"/>
  <use id="arrowright" xlink:href="#arrowRight" x="0" y="0" onmousedown="handlePan(1,0)"/>
  <use id="arrowdown" xlink:href="#arrowDown" x="0" y="0" onmousedown="handlePan(0,1)"/>
  <use id="arrowleft" xlink:href="#arrowLeft" x="0" y="0" onmousedown="handlePan(-1,0)"/>
</g>
<svg viewBox="0 0 15 15" width="100%" height="30px" preserveAspectRatio="xMaxYMin meet">
 <g id="arrow_out" transform="scale(0.3 0.3)">
  <a xlink:href="EntryPoint_8h__incl_org.svg" target="_base">
   <rect id="button" ry="5" rx="5" y="6" x="6" height="38" width="38"
        fill="#f2f5e9" fill-opacity="0.5" stroke="#606060" stroke-width="1.0"/>
   <path id="arrow"
     d="M 11.500037,31.436501 C 11.940474,20.09759 22.043105,11.32322 32.158766,21.979434 L 37.068811,17.246167 C 37.068811,17.246167 37.088388,32 37.088388,32 L 22.160133,31.978069 C 22.160133,31.978069 26.997745,27.140456 26.997745,27.140456 C 18.528582,18.264221 13.291696,25.230495 11.500037,31.436501 z"
     style="fill:#404040;"/>
  </a>
 </g>
</svg>

<style type='text/css'>
<![CDATA[
[data-mouse-over-selected='false'] { opacity: 0.7; }
[data-mouse-over-selected='true']  { opacity: 1.0; }
]]>
</style>
<script type="application/ecmascript"><![CDATA[
document.addEventListener('DOMContentLoaded', (event) => {
  highlightEdges();
  highlightAdjacentNodes();
});
]]></script>
</svg>
