<?xml version="1.0" encoding="UTF-8" standalone="no"?>
<!DOCTYPE svg PUBLIC "-//W3C//DTD SVG 1.1//EN"
 "http://www.w3.org/Graphics/SVG/1.1/DTD/svg11.dtd">
<!-- Generated by graphviz version 2.43.0 (0)
 -->
<!-- Title: Engine/Source/Runtime/EntryPoint.h Pages: 1 -->
<svg width="2243pt" height="478pt"
 viewBox="0.00 0.00 2243.00 478.00" xmlns="http://www.w3.org/2000/svg" xmlns:xlink="http://www.w3.org/1999/xlink">
<g id="graph0" class="graph" transform="scale(1 1) rotate(0) translate(4 474)">
<title>Engine/Source/Runtime/EntryPoint.h</title>
<!-- Node1 -->
<g id="Node000001" class="node">
<title>Node1</title>
<g id="a_Node000001"><a xlink:title=" ">
<polygon fill="#999999" stroke="#666666" points="1146,-470 1016,-470 1016,-440 1146,-440 1146,-470"/>
<text text-anchor="start" x="1024" y="-458" font-family="Helvetica,sans-Serif" font-size="10.00">Engine/Source/Runtime</text>
<text text-anchor="middle" x="1081" y="-447" font-family="Helvetica,sans-Serif" font-size="10.00">/EntryPoint.h</text>
</a>
</g>
</g>
<!-- Node2 -->
<g id="Node000002" class="node">
<title>Node2</title>
<g id="a_Node000002"><a xlink:href="Application_8h.html" target="_top" xlink:title=" ">
<polygon fill="white" stroke="#666666" points="1121,-404 1041,-404 1041,-385 1121,-385 1121,-404"/>
<text text-anchor="middle" x="1081" y="-392" font-family="Helvetica,sans-Serif" font-size="10.00">Application.h</text>
</a>
</g>
</g>
<!-- Node1&#45;&gt;Node2 -->
<g id="edge1_Node000001_Node000002" class="edge">
<title>Node1&#45;&gt;Node2</title>
<g id="a_edge1_Node000001_Node000002"><a xlink:title=" ">
<path fill="none" stroke="#63b8ff" d="M1081,-439.84C1081,-432.21 1081,-422.7 1081,-414.45"/>
<polygon fill="#63b8ff" stroke="#63b8ff" points="1084.5,-414.27 1081,-404.27 1077.5,-414.27 1084.5,-414.27"/>
</a>
</g>
</g>
<!-- Node3 -->
<g id="Node000003" class="node">
<title>Node3</title>
<g id="a_Node000003"><a xlink:href="CoreMinimal_8h.html" target="_top" xlink:title=" ">
<polygon fill="white" stroke="#666666" points="1159.5,-74 1046.5,-74 1046.5,-55 1159.5,-55 1159.5,-74"/>
<text text-anchor="middle" x="1103" y="-62" font-family="Helvetica,sans-Serif" font-size="10.00">Core/CoreMinimal.h</text>
</a>
</g>
</g>
<!-- Node2&#45;&gt;Node3 -->
<g id="edge2_Node000002_Node000003" class="edge">
<title>Node2&#45;&gt;Node3</title>
<g id="a_edge2_Node000002_Node000003"><a xlink:title=" ">
<path fill="none" stroke="#63b8ff" d="M1121.07,-392.81C1234.73,-389.77 1551,-373.41 1551,-285.5 1551,-285.5 1551,-285.5 1551,-173.5 1551,-129.48 1515.41,-127.45 1475,-110 1421.69,-86.98 1261.77,-74.43 1169.9,-68.93"/>
<polygon fill="#63b8ff" stroke="#63b8ff" points="1170.05,-65.44 1159.86,-68.35 1169.64,-72.43 1170.05,-65.44"/>
</a>
</g>
</g>
<!-- Node31 -->
<g id="Node000031" class="node">
<title>Node31</title>
<g id="a_Node000031"><a xlink:href="Window_8h.html" target="_top" xlink:title=" ">
<polygon fill="white" stroke="#666666" points="1036.5,-129 927.5,-129 927.5,-110 1036.5,-110 1036.5,-129"/>
<text text-anchor="middle" x="982" y="-117" font-family="Helvetica,sans-Serif" font-size="10.00">Platform/Window.h</text>
</a>
</g>
</g>
<!-- Node2&#45;&gt;Node31 -->
<g id="edge31_Node000002_Node000031" class="edge">
<title>Node2&#45;&gt;Node31</title>
<g id="a_edge31_Node000002_Node000031"><a xlink:title=" ">
<path fill="none" stroke="#63b8ff" d="M1072.68,-384.99C1064.81,-376.51 1053.15,-362.78 1046,-349 1032.43,-322.85 1027,-314.96 1027,-285.5 1027,-285.5 1027,-285.5 1027,-228.5 1027,-194.31 1007.54,-158.38 994.22,-137.79"/>
<polygon fill="#63b8ff" stroke="#63b8ff" points="996.94,-135.57 988.45,-129.23 991.13,-139.48 996.94,-135.57"/>
</a>
</g>
</g>
<!-- Node32 -->
<g id="Node000032" class="node">
<title>Node32</title>
<g id="a_Node000032"><a xlink:href="Renderer_8h.html" target="_top" xlink:title=" ">
<polygon fill="white" stroke="#666666" points="775.5,-239 660.5,-239 660.5,-220 775.5,-220 775.5,-239"/>
<text text-anchor="middle" x="718" y="-227" font-family="Helvetica,sans-Serif" font-size="10.00">Graphics/Renderer.h</text>
</a>
</g>
</g>
<!-- Node2&#45;&gt;Node32 -->
<g id="edge33_Node000002_Node000032" class="edge">
<title>Node2&#45;&gt;Node32</title>
<g id="a_edge33_Node000002_Node000032"><a xlink:title=" ">
<path fill="none" stroke="#63b8ff" d="M1059.79,-384.85C1038.33,-376.03 1004.23,-361.87 975,-349 890.62,-311.85 791.85,-265.49 745.13,-243.39"/>
<polygon fill="#63b8ff" stroke="#63b8ff" points="746.51,-240.17 735.97,-239.05 743.51,-246.49 746.51,-240.17"/>
</a>
</g>
</g>
<!-- Node33 -->
<g id="Node000033" class="node">
<title>Node33</title>
<g id="a_Node000033"><a xlink:href="GraphicsContext_8h.html" target="_top" xlink:title=" ">
<polygon fill="white" stroke="#666666" points="999,-184 867,-184 867,-165 999,-165 999,-184"/>
<text text-anchor="middle" x="933" y="-172" font-family="Helvetica,sans-Serif" font-size="10.00">Core/GraphicsContext.h</text>
</a>
</g>
</g>
<!-- Node2&#45;&gt;Node33 -->
<g id="edge55_Node000002_Node000033" class="edge">
<title>Node2&#45;&gt;Node33</title>
<g id="a_edge55_Node000002_Node000033"><a xlink:title=" ">
<path fill="none" stroke="#63b8ff" d="M1062.19,-384.87C1047.23,-377.21 1026.64,-364.81 1013,-349 971.54,-300.93 947.36,-227.78 937.8,-193.9"/>
<polygon fill="#63b8ff" stroke="#63b8ff" points="941.11,-192.74 935.11,-184.01 934.35,-194.58 941.11,-192.74"/>
</a>
</g>
</g>
<!-- Node41 -->
<g id="Node000041" class="node">
<title>Node41</title>
<g id="a_Node000041"><a xlink:href="RenderTarget_8h.html" target="_top" xlink:title=" ">
<polygon fill="white" stroke="#666666" points="1216.5,-349 1055.5,-349 1055.5,-330 1216.5,-330 1216.5,-349"/>
<text text-anchor="middle" x="1136" y="-337" font-family="Helvetica,sans-Serif" font-size="10.00">Graphics/Core/RenderTarget.h</text>
</a>
</g>
</g>
<!-- Node2&#45;&gt;Node41 -->
<g id="edge56_Node000002_Node000041" class="edge">
<title>Node2&#45;&gt;Node41</title>
<g id="a_edge56_Node000002_Node000041"><a xlink:title=" ">
<path fill="none" stroke="#63b8ff" d="M1090.08,-384.75C1098.09,-377.03 1109.96,-365.6 1119.62,-356.28"/>
<polygon fill="#63b8ff" stroke="#63b8ff" points="1122.31,-358.55 1127.09,-349.09 1117.46,-353.51 1122.31,-358.55"/>
</a>
</g>
</g>
<!-- Node42 -->
<g id="Node000042" class="node">
<title>Node42</title>
<g id="a_Node000042"><a xlink:href="World_8h.html" target="_top" xlink:title="ECSワールド (シーン) の管理クラス。">
<polygon fill="white" stroke="#666666" points="1349.5,-349 1240.5,-349 1240.5,-330 1349.5,-330 1349.5,-349"/>
<text text-anchor="middle" x="1295" y="-337" font-family="Helvetica,sans-Serif" font-size="10.00">ECS/Kernel/World.h</text>
</a>
</g>
</g>
<!-- Node2&#45;&gt;Node42 -->
<g id="edge58_Node000002_Node000042" class="edge">
<title>Node2&#45;&gt;Node42</title>
<g id="a_edge58_Node000002_Node000042"><a xlink:title=" ">
<path fill="none" stroke="#63b8ff" d="M1115.38,-384.98C1152.09,-375.89 1210.38,-361.46 1250.55,-351.51"/>
<polygon fill="#63b8ff" stroke="#63b8ff" points="1251.48,-354.88 1260.35,-349.08 1249.8,-348.09 1251.48,-354.88"/>
</a>
</g>
</g>
<!-- Node4 -->
<g id="Node000004" class="node">
<title>Node4</title>
<g id="a_Node000004"><a xlink:title=" ">
<polygon fill="#e0e0e0" stroke="#999999" points="1411,-19 1341,-19 1341,0 1411,0 1411,-19"/>
<text text-anchor="middle" x="1376" y="-7" font-family="Helvetica,sans-Serif" font-size="10.00">Windows.h</text>
</a>
</g>
</g>
<!-- Node3&#45;&gt;Node4 -->
<g id="edge3_Node000003_Node000004" class="edge">
<title>Node3&#45;&gt;Node4</title>
<g id="a_edge3_Node000003_Node000004"><a xlink:title=" ">
<path fill="none" stroke="#63b8ff" d="M1146.86,-54.98C1197.34,-45.18 1279.83,-29.17 1330.85,-19.27"/>
<polygon fill="#63b8ff" stroke="#63b8ff" points="1331.78,-22.65 1340.93,-17.31 1330.44,-15.78 1331.78,-22.65"/>
</a>
</g>
</g>
<!-- Node5 -->
<g id="Node000005" class="node">
<title>Node5</title>
<g id="a_Node000005"><a xlink:title=" ">
<polygon fill="#e0e0e0" stroke="#999999" points="1500.5,-19 1429.5,-19 1429.5,0 1500.5,0 1500.5,-19"/>
<text text-anchor="middle" x="1465" y="-7" font-family="Helvetica,sans-Serif" font-size="10.00">wrl/client.h</text>
</a>
</g>
</g>
<!-- Node3&#45;&gt;Node5 -->
<g id="edge4_Node000003_Node000005" class="edge">
<title>Node3&#45;&gt;Node5</title>
<g id="a_edge4_Node000003_Node000005"><a xlink:title=" ">
<path fill="none" stroke="#63b8ff" d="M1159.53,-56.38C1220.92,-48.47 1322.11,-34.89 1419.18,-19.07"/>
<polygon fill="#63b8ff" stroke="#63b8ff" points="1419.86,-22.5 1429.17,-17.43 1418.73,-15.59 1419.86,-22.5"/>
</a>
</g>
</g>
<!-- Node6 -->
<g id="Node000006" class="node">
<title>Node6</title>
<g id="a_Node000006"><a xlink:title=" ">
<polygon fill="#e0e0e0" stroke="#999999" points="1569,-19 1519,-19 1519,0 1569,0 1569,-19"/>
<text text-anchor="middle" x="1544" y="-7" font-family="Helvetica,sans-Serif" font-size="10.00">cstdint</text>
</a>
</g>
</g>
<!-- Node3&#45;&gt;Node6 -->
<g id="edge5_Node000003_Node000006" class="edge">
<title>Node3&#45;&gt;Node6</title>
<g id="a_edge5_Node000003_Node000006"><a xlink:title=" ">
<path fill="none" stroke="#63b8ff" d="M1159.81,-59.6C1238.62,-53.66 1385.38,-40.69 1509,-19 1509.1,-18.98 1509.2,-18.96 1509.3,-18.95"/>
<polygon fill="#63b8ff" stroke="#63b8ff" points="1509.74,-22.43 1518.85,-17.02 1508.35,-15.57 1509.74,-22.43"/>
</a>
</g>
</g>
<!-- Node7 -->
<g id="Node000007" class="node">
<title>Node7</title>
<g id="a_Node000007"><a xlink:title=" ">
<polygon fill="#e0e0e0" stroke="#999999" points="1647,-19 1587,-19 1587,0 1647,0 1647,-19"/>
<text text-anchor="middle" x="1617" y="-7" font-family="Helvetica,sans-Serif" font-size="10.00">iostream</text>
</a>
</g>
</g>
<!-- Node3&#45;&gt;Node7 -->
<g id="edge6_Node000003_Node000007" class="edge">
<title>Node3&#45;&gt;Node7</title>
<g id="a_edge6_Node000003_Node000007"><a xlink:title=" ">
<path fill="none" stroke="#63b8ff" d="M1159.58,-60.42C1246.96,-55.18 1420.17,-42.86 1576.56,-19.04"/>
<polygon fill="#63b8ff" stroke="#63b8ff" points="1577.48,-22.44 1586.83,-17.45 1576.42,-15.52 1577.48,-22.44"/>
</a>
</g>
</g>
<!-- Node8 -->
<g id="Node000008" class="node">
<title>Node8</title>
<g id="a_Node000008"><a xlink:title=" ">
<polygon fill="#e0e0e0" stroke="#999999" points="1709,-19 1665,-19 1665,0 1709,0 1709,-19"/>
<text text-anchor="middle" x="1687" y="-7" font-family="Helvetica,sans-Serif" font-size="10.00">string</text>
</a>
</g>
</g>
<!-- Node3&#45;&gt;Node8 -->
<g id="edge7_Node000003_Node000008" class="edge">
<title>Node3&#45;&gt;Node8</title>
<g id="a_edge7_Node000003_Node000008"><a xlink:title=" ">
<path fill="none" stroke="#63b8ff" d="M1159.57,-62.44C1258.39,-59.82 1468.9,-50.87 1654.81,-18.87"/>
<polygon fill="#63b8ff" stroke="#63b8ff" points="1655.51,-22.3 1664.76,-17.13 1654.31,-15.41 1655.51,-22.3"/>
</a>
</g>
</g>
<!-- Node9 -->
<g id="Node000009" class="node">
<title>Node9</title>
<g id="a_Node000009"><a xlink:title=" ">
<polygon fill="#e0e0e0" stroke="#999999" points="1774.5,-19 1727.5,-19 1727.5,0 1774.5,0 1774.5,-19"/>
<text text-anchor="middle" x="1751" y="-7" font-family="Helvetica,sans-Serif" font-size="10.00">vector</text>
</a>
</g>
</g>
<!-- Node3&#45;&gt;Node9 -->
<g id="edge8_Node000003_Node000009" class="edge">
<title>Node3&#45;&gt;Node9</title>
<g id="a_edge8_Node000003_Node000009"><a xlink:title=" ">
<path fill="none" stroke="#63b8ff" d="M1159.78,-62.79C1267.03,-60.72 1506.73,-52.57 1717.31,-18.77"/>
<polygon fill="#63b8ff" stroke="#63b8ff" points="1718.01,-22.21 1727.32,-17.14 1716.88,-15.3 1718.01,-22.21"/>
</a>
</g>
</g>
<!-- Node10 -->
<g id="Node000010" class="node">
<title>Node10</title>
<g id="a_Node000010"><a xlink:title=" ">
<polygon fill="#e0e0e0" stroke="#999999" points="1839.5,-19 1792.5,-19 1792.5,0 1839.5,0 1839.5,-19"/>
<text text-anchor="middle" x="1816" y="-7" font-family="Helvetica,sans-Serif" font-size="10.00">deque</text>
</a>
</g>
</g>
<!-- Node3&#45;&gt;Node10 -->
<g id="edge9_Node000003_Node000010" class="edge">
<title>Node3&#45;&gt;Node10</title>
<g id="a_edge9_Node000003_Node000010"><a xlink:title=" ">
<path fill="none" stroke="#63b8ff" d="M1159.82,-63.35C1275.41,-62.28 1546.22,-55.84 1782.17,-18.78"/>
<polygon fill="#63b8ff" stroke="#63b8ff" points="1782.99,-22.19 1792.32,-17.16 1781.89,-15.28 1782.99,-22.19"/>
</a>
</g>
</g>
<!-- Node11 -->
<g id="Node000011" class="node">
<title>Node11</title>
<g id="a_Node000011"><a xlink:title=" ">
<polygon fill="#e0e0e0" stroke="#999999" points="1950.5,-19 1857.5,-19 1857.5,0 1950.5,0 1950.5,-19"/>
<text text-anchor="middle" x="1904" y="-7" font-family="Helvetica,sans-Serif" font-size="10.00">unordered_map</text>
</a>
</g>
</g>
<!-- Node3&#45;&gt;Node11 -->
<g id="edge10_Node000003_Node000011" class="edge">
<title>Node3&#45;&gt;Node11</title>
<g id="a_edge10_Node000003_Node000011"><a xlink:title=" ">
<path fill="none" stroke="#63b8ff" d="M1159.69,-61.87C1282.83,-57.96 1584.12,-46.33 1847.16,-18.98"/>
<polygon fill="#63b8ff" stroke="#63b8ff" points="1847.71,-22.44 1857.29,-17.91 1846.98,-15.48 1847.71,-22.44"/>
</a>
</g>
</g>
<!-- Node12 -->
<g id="Node000012" class="node">
<title>Node12</title>
<g id="a_Node000012"><a xlink:title=" ">
<polygon fill="#e0e0e0" stroke="#999999" points="2007,-19 1969,-19 1969,0 2007,0 2007,-19"/>
<text text-anchor="middle" x="1988" y="-7" font-family="Helvetica,sans-Serif" font-size="10.00">map</text>
</a>
</g>
</g>
<!-- Node3&#45;&gt;Node12 -->
<g id="edge11_Node000003_Node000012" class="edge">
<title>Node3&#45;&gt;Node12</title>
<g id="a_edge11_Node000003_Node000012"><a xlink:title=" ">
<path fill="none" stroke="#63b8ff" d="M1159.58,-62.28C1324.79,-58.44 1804.5,-45.29 1959,-19 1959.1,-18.98 1959.2,-18.97 1959.3,-18.95"/>
<polygon fill="#63b8ff" stroke="#63b8ff" points="1959.82,-22.42 1968.8,-16.81 1958.28,-15.59 1959.82,-22.42"/>
</a>
</g>
</g>
<!-- Node13 -->
<g id="Node000013" class="node">
<title>Node13</title>
<g id="a_Node000013"><a xlink:title=" ">
<polygon fill="#e0e0e0" stroke="#999999" points="2083,-19 2025,-19 2025,0 2083,0 2083,-19"/>
<text text-anchor="middle" x="2054" y="-7" font-family="Helvetica,sans-Serif" font-size="10.00">memory</text>
</a>
</g>
</g>
<!-- Node3&#45;&gt;Node13 -->
<g id="edge12_Node000003_Node000013" class="edge">
<title>Node3&#45;&gt;Node13</title>
<g id="a_edge12_Node000003_Node000013"><a xlink:title=" ">
<path fill="none" stroke="#63b8ff" d="M1159.67,-64.1C1302.04,-64.89 1686.21,-62.56 2014.45,-18.96"/>
<polygon fill="#63b8ff" stroke="#63b8ff" points="2015.19,-22.39 2024.63,-17.59 2014.25,-15.45 2015.19,-22.39"/>
</a>
</g>
</g>
<!-- Node14 -->
<g id="Node000014" class="node">
<title>Node14</title>
<g id="a_Node000014"><a xlink:title=" ">
<polygon fill="#e0e0e0" stroke="#999999" points="64,-19 0,-19 0,0 64,0 64,-19"/>
<text text-anchor="middle" x="32" y="-7" font-family="Helvetica,sans-Serif" font-size="10.00">algorithm</text>
</a>
</g>
</g>
<!-- Node3&#45;&gt;Node14 -->
<g id="edge13_Node000003_Node000014" class="edge">
<title>Node3&#45;&gt;Node14</title>
<g id="a_edge13_Node000003_Node000014"><a xlink:title=" ">
<path fill="none" stroke="#63b8ff" d="M1046.25,-62.25C862.28,-58.03 282.8,-43.22 74.1,-18.88"/>
<polygon fill="#63b8ff" stroke="#63b8ff" points="74.5,-15.4 64.15,-17.68 73.65,-22.35 74.5,-15.4"/>
</a>
</g>
</g>
<!-- Node15 -->
<g id="Node000015" class="node">
<title>Node15</title>
<g id="a_Node000015"><a xlink:title=" ">
<polygon fill="#e0e0e0" stroke="#999999" points="2166.5,-19 2101.5,-19 2101.5,0 2166.5,0 2166.5,-19"/>
<text text-anchor="middle" x="2134" y="-7" font-family="Helvetica,sans-Serif" font-size="10.00">functional</text>
</a>
</g>
</g>
<!-- Node3&#45;&gt;Node15 -->
<g id="edge14_Node000003_Node000015" class="edge">
<title>Node3&#45;&gt;Node15</title>
<g id="a_edge14_Node000003_Node000015"><a xlink:title=" ">
<path fill="none" stroke="#63b8ff" d="M1159.57,-64.01C1309.82,-64.7 1731.38,-62.4 2090.98,-18.9"/>
<polygon fill="#63b8ff" stroke="#63b8ff" points="2091.56,-22.35 2101.06,-17.67 2090.71,-15.41 2091.56,-22.35"/>
</a>
</g>
</g>
<!-- Node16 -->
<g id="Node000016" class="node">
<title>Node16</title>
<g id="a_Node000016"><a xlink:title=" ">
<polygon fill="#e0e0e0" stroke="#999999" points="2235,-19 2185,-19 2185,0 2235,0 2235,-19"/>
<text text-anchor="middle" x="2210" y="-7" font-family="Helvetica,sans-Serif" font-size="10.00">chrono</text>
</a>
</g>
</g>
<!-- Node3&#45;&gt;Node16 -->
<g id="edge15_Node000003_Node000016" class="edge">
<title>Node3&#45;&gt;Node16</title>
<g id="a_edge15_Node000003_Node000016"><a xlink:title=" ">
<path fill="none" stroke="#63b8ff" d="M1159.8,-62.67C1349.01,-59.67 1957.62,-48.06 2174.82,-18.8"/>
<polygon fill="#63b8ff" stroke="#63b8ff" points="2175.44,-22.24 2184.86,-17.39 2174.47,-15.31 2175.44,-22.24"/>
</a>
</g>
</g>
<!-- Node17 -->
<g id="Node000017" class="node">
<title>Node17</title>
<g id="a_Node000017"><a xlink:title=" ">
<polygon fill="#e0e0e0" stroke="#999999" points="232,-19 186,-19 186,0 232,0 232,-19"/>
<text text-anchor="middle" x="209" y="-7" font-family="Helvetica,sans-Serif" font-size="10.00">cstdio</text>
</a>
</g>
</g>
<!-- Node3&#45;&gt;Node17 -->
<g id="edge16_Node000003_Node000017" class="edge">
<title>Node3&#45;&gt;Node17</title>
<g id="a_edge16_Node000003_Node000017"><a xlink:title=" ">
<path fill="none" stroke="#63b8ff" d="M1046.35,-62.11C883.59,-57.89 415.76,-44.03 242.31,-18.81"/>
<polygon fill="#63b8ff" stroke="#63b8ff" points="242.71,-15.33 232.3,-17.29 241.66,-22.25 242.71,-15.33"/>
</a>
</g>
</g>
<!-- Node18 -->
<g id="Node000018" class="node">
<title>Node18</title>
<g id="a_Node000018"><a xlink:title=" ">
<polygon fill="#e0e0e0" stroke="#999999" points="302,-19 250,-19 250,0 302,0 302,-19"/>
<text text-anchor="middle" x="276" y="-7" font-family="Helvetica,sans-Serif" font-size="10.00">cassert</text>
</a>
</g>
</g>
<!-- Node3&#45;&gt;Node18 -->
<g id="edge17_Node000003_Node000018" class="edge">
<title>Node3&#45;&gt;Node18</title>
<g id="a_edge17_Node000003_Node000018"><a xlink:title=" ">
<path fill="none" stroke="#63b8ff" d="M1046.47,-63.84C917.6,-63.87 592.22,-59.65 312.21,-18.89"/>
<polygon fill="#63b8ff" stroke="#63b8ff" points="312.68,-15.42 302.27,-17.42 311.65,-22.34 312.68,-15.42"/>
</a>
</g>
</g>
<!-- Node19 -->
<g id="Node000019" class="node">
<title>Node19</title>
<g id="a_Node000019"><a xlink:title=" ">
<polygon fill="#e0e0e0" stroke="#999999" points="385.5,-19 320.5,-19 320.5,0 385.5,0 385.5,-19"/>
<text text-anchor="middle" x="353" y="-7" font-family="Helvetica,sans-Serif" font-size="10.00">typeindex</text>
</a>
</g>
</g>
<!-- Node3&#45;&gt;Node19 -->
<g id="edge18_Node000003_Node000019" class="edge">
<title>Node3&#45;&gt;Node19</title>
<g id="a_edge18_Node000003_Node000019"><a xlink:title=" ">
<path fill="none" stroke="#63b8ff" d="M1046.3,-62.57C927.52,-60.04 643.74,-51.04 396.22,-18.96"/>
<polygon fill="#63b8ff" stroke="#63b8ff" points="396.31,-15.44 385.94,-17.61 395.4,-22.38 396.31,-15.44"/>
</a>
</g>
</g>
<!-- Node20 -->
<g id="Node000020" class="node">
<title>Node20</title>
<g id="a_Node000020"><a xlink:title=" ">
<polygon fill="#e0e0e0" stroke="#999999" points="472,-19 404,-19 404,0 472,0 472,-19"/>
<text text-anchor="middle" x="438" y="-7" font-family="Helvetica,sans-Serif" font-size="10.00">filesystem</text>
</a>
</g>
</g>
<!-- Node3&#45;&gt;Node20 -->
<g id="edge19_Node000003_Node000020" class="edge">
<title>Node3&#45;&gt;Node20</title>
<g id="a_edge19_Node000003_Node000020"><a xlink:title=" ">
<path fill="none" stroke="#63b8ff" d="M1046.16,-61.79C938.17,-58.02 695.82,-47.12 482.35,-19.01"/>
<polygon fill="#63b8ff" stroke="#63b8ff" points="482.58,-15.51 472.2,-17.66 481.65,-22.45 482.58,-15.51"/>
</a>
</g>
</g>
<!-- Node21 -->
<g id="Node000021" class="node">
<title>Node21</title>
<g id="a_Node000021"><a xlink:title=" ">
<polygon fill="#e0e0e0" stroke="#999999" points="522,-19 490,-19 490,0 522,0 522,-19"/>
<text text-anchor="middle" x="506" y="-7" font-family="Helvetica,sans-Serif" font-size="10.00">set</text>
</a>
</g>
</g>
<!-- Node3&#45;&gt;Node21 -->
<g id="edge20_Node000003_Node000021" class="edge">
<title>Node3&#45;&gt;Node21</title>
<g id="a_edge20_Node000003_Node000021"><a xlink:title=" ">
<path fill="none" stroke="#63b8ff" d="M1046.33,-63.75C944.62,-63.2 724.55,-57.4 532.25,-18.72"/>
<polygon fill="#63b8ff" stroke="#63b8ff" points="532.74,-15.25 522.24,-16.68 531.34,-22.11 532.74,-15.25"/>
</a>
</g>
</g>
<!-- Node22 -->
<g id="Node000022" class="node">
<title>Node22</title>
<g id="a_Node000022"><a xlink:title=" ">
<polygon fill="#e0e0e0" stroke="#999999" points="596,-19 540,-19 540,0 596,0 596,-19"/>
<text text-anchor="middle" x="568" y="-7" font-family="Helvetica,sans-Serif" font-size="10.00">d3d12.h</text>
</a>
</g>
</g>
<!-- Node3&#45;&gt;Node22 -->
<g id="edge21_Node000003_Node000022" class="edge">
<title>Node3&#45;&gt;Node22</title>
<g id="a_edge21_Node000003_Node000022"><a xlink:title=" ">
<path fill="none" stroke="#63b8ff" d="M1046.3,-60.96C955.46,-56.34 771.55,-44.71 606.54,-19.03"/>
<polygon fill="#63b8ff" stroke="#63b8ff" points="606.63,-15.5 596.2,-17.4 605.54,-22.41 606.63,-15.5"/>
</a>
</g>
</g>
<!-- Node23 -->
<g id="Node000023" class="node">
<title>Node23</title>
<g id="a_Node000023"><a xlink:title=" ">
<polygon fill="#e0e0e0" stroke="#999999" points="678,-19 614,-19 614,0 678,0 678,-19"/>
<text text-anchor="middle" x="646" y="-7" font-family="Helvetica,sans-Serif" font-size="10.00">dxgi1_6.h</text>
</a>
</g>
</g>
<!-- Node3&#45;&gt;Node23 -->
<g id="edge22_Node000003_Node000023" class="edge">
<title>Node3&#45;&gt;Node23</title>
<g id="a_edge22_Node000003_Node000023"><a xlink:title=" ">
<path fill="none" stroke="#63b8ff" d="M1046.25,-59.2C967.91,-52.87 822.07,-39.69 688.2,-19.04"/>
<polygon fill="#63b8ff" stroke="#63b8ff" points="688.59,-15.56 678.17,-17.48 687.52,-22.48 688.59,-15.56"/>
</a>
</g>
</g>
<!-- Node24 -->
<g id="Node000024" class="node">
<title>Node24</title>
<g id="a_Node000024"><a xlink:title=" ">
<polygon fill="#e0e0e0" stroke="#999999" points="782,-19 696,-19 696,0 782,0 782,-19"/>
<text text-anchor="middle" x="739" y="-7" font-family="Helvetica,sans-Serif" font-size="10.00">d3dcompiler.h</text>
</a>
</g>
</g>
<!-- Node3&#45;&gt;Node24 -->
<g id="edge23_Node000003_Node000024" class="edge">
<title>Node3&#45;&gt;Node24</title>
<g id="a_edge23_Node000003_Node000024"><a xlink:title=" ">
<path fill="none" stroke="#63b8ff" d="M1046.3,-55.77C985.88,-47.45 887.14,-33.62 792.18,-19.16"/>
<polygon fill="#63b8ff" stroke="#63b8ff" points="792.53,-15.67 782.12,-17.62 791.48,-22.59 792.53,-15.67"/>
</a>
</g>
</g>
<!-- Node25 -->
<g id="Node000025" class="node">
<title>Node25</title>
<g id="a_Node000025"><a xlink:title=" ">
<polygon fill="#e0e0e0" stroke="#999999" points="841.5,-19 800.5,-19 800.5,0 841.5,0 841.5,-19"/>
<text text-anchor="middle" x="821" y="-7" font-family="Helvetica,sans-Serif" font-size="10.00">wrl.h</text>
</a>
</g>
</g>
<!-- Node3&#45;&gt;Node25 -->
<g id="edge24_Node000003_Node000025" class="edge">
<title>Node3&#45;&gt;Node25</title>
<g id="a_edge24_Node000003_Node000025"><a xlink:title=" ">
<path fill="none" stroke="#63b8ff" d="M1046.36,-55.38C997.16,-47.91 923.83,-35.78 851.69,-19.19"/>
<polygon fill="#63b8ff" stroke="#63b8ff" points="852.05,-15.68 841.52,-16.82 850.46,-22.5 852.05,-15.68"/>
</a>
</g>
</g>
<!-- Node26 -->
<g id="Node000026" class="node">
<title>Node26</title>
<g id="a_Node000026"><a xlink:title=" ">
<polygon fill="#e0e0e0" stroke="#999999" points="168,-19 82,-19 82,0 168,0 168,-19"/>
<text text-anchor="middle" x="125" y="-7" font-family="Helvetica,sans-Serif" font-size="10.00">DirectXMath.h</text>
</a>
</g>
</g>
<!-- Node3&#45;&gt;Node26 -->
<g id="edge25_Node000003_Node000026" class="edge">
<title>Node3&#45;&gt;Node26</title>
<g id="a_edge25_Node000003_Node000026"><a xlink:title=" ">
<path fill="none" stroke="#63b8ff" d="M1046.46,-63.02C903.02,-61.33 513.23,-53.75 178.47,-19.02"/>
<polygon fill="#63b8ff" stroke="#63b8ff" points="178.39,-15.49 168.08,-17.93 177.66,-22.45 178.39,-15.49"/>
</a>
</g>
</g>
<!-- Node27 -->
<g id="Node000027" class="node">
<title>Node27</title>
<g id="a_Node000027"><a xlink:title=" ">
<polygon fill="#e0e0e0" stroke="#999999" points="976.5,-19 859.5,-19 859.5,0 976.5,0 976.5,-19"/>
<text text-anchor="middle" x="918" y="-7" font-family="Helvetica,sans-Serif" font-size="10.00">assimp/Importer.hpp</text>
</a>
</g>
</g>
<!-- Node3&#45;&gt;Node27 -->
<g id="edge26_Node000003_Node000027" class="edge">
<title>Node3&#45;&gt;Node27</title>
<g id="a_edge26_Node000003_Node000027"><a xlink:title=" ">
<path fill="none" stroke="#63b8ff" d="M1073.28,-54.98C1041.95,-46.01 992.43,-31.82 957.76,-21.89"/>
<polygon fill="#63b8ff" stroke="#63b8ff" points="958.53,-18.47 947.96,-19.08 956.61,-25.2 958.53,-18.47"/>
</a>
</g>
</g>
<!-- Node28 -->
<g id="Node000028" class="node">
<title>Node28</title>
<g id="a_Node000028"><a xlink:title=" ">
<polygon fill="#e0e0e0" stroke="#999999" points="1087,-19 995,-19 995,0 1087,0 1087,-19"/>
<text text-anchor="middle" x="1041" y="-7" font-family="Helvetica,sans-Serif" font-size="10.00">assimp/scene.h</text>
</a>
</g>
</g>
<!-- Node3&#45;&gt;Node28 -->
<g id="edge27_Node000003_Node000028" class="edge">
<title>Node3&#45;&gt;Node28</title>
<g id="a_edge27_Node000003_Node000028"><a xlink:title=" ">
<path fill="none" stroke="#63b8ff" d="M1093.04,-54.98C1083.87,-47.15 1070.06,-35.34 1058.97,-25.86"/>
<polygon fill="#63b8ff" stroke="#63b8ff" points="1061.02,-23.01 1051.14,-19.17 1056.47,-28.33 1061.02,-23.01"/>
</a>
</g>
</g>
<!-- Node29 -->
<g id="Node000029" class="node">
<title>Node29</title>
<g id="a_Node000029"><a xlink:title=" ">
<polygon fill="#e0e0e0" stroke="#999999" points="1227,-19 1105,-19 1105,0 1227,0 1227,-19"/>
<text text-anchor="middle" x="1166" y="-7" font-family="Helvetica,sans-Serif" font-size="10.00">assimp/postprocess.h</text>
</a>
</g>
</g>
<!-- Node3&#45;&gt;Node29 -->
<g id="edge28_Node000003_Node000029" class="edge">
<title>Node3&#45;&gt;Node29</title>
<g id="a_edge28_Node000003_Node000029"><a xlink:title=" ">
<path fill="none" stroke="#63b8ff" d="M1113.12,-54.98C1122.44,-47.15 1136.47,-35.34 1147.74,-25.86"/>
<polygon fill="#63b8ff" stroke="#63b8ff" points="1150.29,-28.29 1155.69,-19.17 1145.79,-22.93 1150.29,-28.29"/>
</a>
</g>
</g>
<!-- Node30 -->
<g id="Node000030" class="node">
<title>Node30</title>
<g id="a_Node000030"><a xlink:href="Logger_8h.html" target="_top" xlink:title=" ">
<polygon fill="white" stroke="#666666" points="1323,-19 1245,-19 1245,0 1323,0 1323,-19"/>
<text text-anchor="middle" x="1284" y="-7" font-family="Helvetica,sans-Serif" font-size="10.00">Log/Logger.h</text>
</a>
</g>
</g>
<!-- Node3&#45;&gt;Node30 -->
<g id="edge29_Node000003_Node000030" class="edge">
<title>Node3&#45;&gt;Node30</title>
<g id="a_edge29_Node000003_Node000030"><a xlink:title=" ">
<path fill="none" stroke="#63b8ff" d="M1126.97,-54.98C1155.76,-45.97 1204.32,-31.7 1239.9,-21.76"/>
<polygon fill="#63b8ff" stroke="#63b8ff" points="1240.86,-25.13 1249.56,-19.08 1238.99,-18.38 1240.86,-25.13"/>
</a>
</g>
</g>
<!-- Node30&#45;&gt;Node3 -->
<g id="edge30_Node000030_Node000003" class="edge">
<title>Node30&#45;&gt;Node3</title>
<g id="a_edge30_Node000030_Node000003"><a xlink:title=" ">
<path fill="none" stroke="#63b8ff" d="M1259.82,-19.08C1230.93,-28.12 1182.36,-42.39 1146.84,-52.31"/>
<polygon fill="#63b8ff" stroke="#63b8ff" points="1145.9,-48.94 1137.2,-54.98 1147.77,-55.69 1145.9,-48.94"/>
</a>
</g>
</g>
<!-- Node31&#45;&gt;Node3 -->
<g id="edge32_Node000031_Node000003" class="edge">
<title>Node31&#45;&gt;Node3</title>
<g id="a_edge32_Node000031_Node000003"><a xlink:title=" ">
<path fill="none" stroke="#63b8ff" d="M1001.44,-109.98C1020.99,-101.42 1051.38,-88.11 1073.82,-78.28"/>
<polygon fill="#63b8ff" stroke="#63b8ff" points="1075.45,-81.39 1083.21,-74.17 1072.64,-74.98 1075.45,-81.39"/>
</a>
</g>
</g>
<!-- Node32&#45;&gt;Node3 -->
<g id="edge34_Node000032_Node000003" class="edge">
<title>Node32&#45;&gt;Node3</title>
<g id="a_edge34_Node000032_Node000003"><a xlink:title=" ">
<path fill="none" stroke="#63b8ff" d="M721.36,-219.6C726.82,-206.22 738.74,-180.78 756,-165 833.92,-93.78 959.52,-73.21 1036.33,-67.46"/>
<polygon fill="#63b8ff" stroke="#63b8ff" points="1036.63,-70.95 1046.37,-66.78 1036.16,-63.97 1036.63,-70.95"/>
</a>
</g>
</g>
<!-- Node32&#45;&gt;Node33 -->
<g id="edge35_Node000032_Node000033" class="edge">
<title>Node32&#45;&gt;Node33</title>
<g id="a_edge35_Node000032_Node000033"><a xlink:title=" ">
<path fill="none" stroke="#63b8ff" d="M752.54,-219.98C789.42,-210.89 847.99,-196.46 888.34,-186.51"/>
<polygon fill="#63b8ff" stroke="#63b8ff" points="889.31,-189.87 898.19,-184.08 887.64,-183.08 889.31,-189.87"/>
</a>
</g>
</g>
<!-- Node34 -->
<g id="Node000034" class="node">
<title>Node34</title>
<g id="a_Node000034"><a xlink:href="Shader_8h.html" target="_top" xlink:title=" ">
<polygon fill="white" stroke="#666666" points="849,-184 765,-184 765,-165 849,-165 849,-184"/>
<text text-anchor="middle" x="807" y="-172" font-family="Helvetica,sans-Serif" font-size="10.00">Core/Shader.h</text>
</a>
</g>
</g>
<!-- Node32&#45;&gt;Node34 -->
<g id="edge38_Node000032_Node000034" class="edge">
<title>Node32&#45;&gt;Node34</title>
<g id="a_edge38_Node000032_Node000034"><a xlink:title=" ">
<path fill="none" stroke="#63b8ff" d="M732.3,-219.98C746.1,-211.77 767.24,-199.18 783.51,-189.49"/>
<polygon fill="#63b8ff" stroke="#63b8ff" points="785.64,-192.29 792.44,-184.17 782.06,-186.28 785.64,-192.29"/>
</a>
</g>
</g>
<!-- Node35 -->
<g id="Node000035" class="node">
<title>Node35</title>
<g id="a_Node000035"><a xlink:href="ConstantBuffer_8h.html" target="_top" xlink:title=" ">
<polygon fill="white" stroke="#666666" points="762.5,-129 639.5,-129 639.5,-110 762.5,-110 762.5,-129"/>
<text text-anchor="middle" x="701" y="-117" font-family="Helvetica,sans-Serif" font-size="10.00">Core/ConstantBuffer.h</text>
</a>
</g>
</g>
<!-- Node32&#45;&gt;Node35 -->
<g id="edge40_Node000032_Node000035" class="edge">
<title>Node32&#45;&gt;Node35</title>
<g id="a_edge40_Node000032_Node000035"><a xlink:title=" ">
<path fill="none" stroke="#63b8ff" d="M716.61,-219.66C713.86,-202.17 707.66,-162.8 703.96,-139.27"/>
<polygon fill="#63b8ff" stroke="#63b8ff" points="707.38,-138.49 702.36,-129.16 700.46,-139.58 707.38,-138.49"/>
</a>
</g>
</g>
<!-- Node36 -->
<g id="Node000036" class="node">
<title>Node36</title>
<g id="a_Node000036"><a xlink:href="Mesh_8h.html" target="_top" xlink:title=" ">
<polygon fill="white" stroke="#666666" points="533.5,-184 428.5,-184 428.5,-165 533.5,-165 533.5,-184"/>
<text text-anchor="middle" x="481" y="-172" font-family="Helvetica,sans-Serif" font-size="10.00">Resources/Mesh.h</text>
</a>
</g>
</g>
<!-- Node32&#45;&gt;Node36 -->
<g id="edge42_Node000032_Node000036" class="edge">
<title>Node32&#45;&gt;Node36</title>
<g id="a_edge42_Node000032_Node000036"><a xlink:title=" ">
<path fill="none" stroke="#63b8ff" d="M679.92,-219.98C639.01,-210.84 573.89,-196.27 529.38,-186.32"/>
<polygon fill="#63b8ff" stroke="#63b8ff" points="529.9,-182.85 519.38,-184.08 528.37,-189.68 529.9,-182.85"/>
</a>
</g>
</g>
<!-- Node37 -->
<g id="Node000037" class="node">
<title>Node37</title>
<g id="a_Node000037"><a xlink:href="SpanMath_8h.html" target="_top" xlink:title=" ">
<polygon fill="white" stroke="#666666" points="464,-129 336,-129 336,-110 464,-110 464,-129"/>
<text text-anchor="middle" x="400" y="-117" font-family="Helvetica,sans-Serif" font-size="10.00">Core/Math/SpanMath.h</text>
</a>
</g>
</g>
<!-- Node32&#45;&gt;Node37 -->
<g id="edge54_Node000032_Node000037" class="edge">
<title>Node32&#45;&gt;Node37</title>
<g id="a_edge54_Node000032_Node000037"><a xlink:title=" ">
<path fill="none" stroke="#63b8ff" d="M660.18,-227.09C583.6,-224.04 454.1,-214.41 419,-184 406.24,-172.94 401.86,-153.69 400.45,-139.28"/>
<polygon fill="#63b8ff" stroke="#63b8ff" points="403.93,-138.78 399.86,-129 396.94,-139.19 403.93,-138.78"/>
</a>
</g>
</g>
<!-- Node39 -->
<g id="Node000039" class="node">
<title>Node39</title>
<g id="a_Node000039"><a xlink:href="Material_8h.html" target="_top" xlink:title=" ">
<polygon fill="white" stroke="#666666" points="670.5,-184 551.5,-184 551.5,-165 670.5,-165 670.5,-184"/>
<text text-anchor="middle" x="611" y="-172" font-family="Helvetica,sans-Serif" font-size="10.00">Resources/Material.h</text>
</a>
</g>
</g>
<!-- Node32&#45;&gt;Node39 -->
<g id="edge48_Node000032_Node000039" class="edge">
<title>Node32&#45;&gt;Node39</title>
<g id="a_edge48_Node000032_Node000039"><a xlink:title=" ">
<path fill="none" stroke="#63b8ff" d="M700.81,-219.98C683.75,-211.54 657.37,-198.47 637.6,-188.68"/>
<polygon fill="#63b8ff" stroke="#63b8ff" points="639.02,-185.47 628.5,-184.17 635.91,-191.75 639.02,-185.47"/>
</a>
</g>
</g>
<!-- Node33&#45;&gt;Node3 -->
<g id="edge36_Node000033_Node000003" class="edge">
<title>Node33&#45;&gt;Node3</title>
<g id="a_edge36_Node000033_Node000003"><a xlink:title=" ">
<path fill="none" stroke="#63b8ff" d="M926.77,-164.71C918.2,-151.46 905.24,-126.19 918,-110 932.71,-91.33 989.37,-79.58 1036.15,-72.88"/>
<polygon fill="#63b8ff" stroke="#63b8ff" points="1036.84,-76.32 1046.26,-71.49 1035.88,-69.38 1036.84,-76.32"/>
</a>
</g>
</g>
<!-- Node33&#45;&gt;Node31 -->
<g id="edge37_Node000033_Node000031" class="edge">
<title>Node33&#45;&gt;Node31</title>
<g id="a_edge37_Node000033_Node000031"><a xlink:title=" ">
<path fill="none" stroke="#63b8ff" d="M941.09,-164.75C948.16,-157.11 958.59,-145.82 967.15,-136.56"/>
<polygon fill="#63b8ff" stroke="#63b8ff" points="969.84,-138.81 974.06,-129.09 964.7,-134.06 969.84,-138.81"/>
</a>
</g>
</g>
<!-- Node34&#45;&gt;Node3 -->
<g id="edge39_Node000034_Node000003" class="edge">
<title>Node34&#45;&gt;Node3</title>
<g id="a_edge39_Node000034_Node000003"><a xlink:title=" ">
<path fill="none" stroke="#63b8ff" d="M817.95,-164.95C835.94,-151.32 873.32,-124.71 909,-110 949.76,-93.19 998.09,-82.08 1036.31,-75.17"/>
<polygon fill="#63b8ff" stroke="#63b8ff" points="1037.05,-78.59 1046.3,-73.41 1035.84,-71.7 1037.05,-78.59"/>
</a>
</g>
</g>
<!-- Node35&#45;&gt;Node3 -->
<g id="edge41_Node000035_Node000003" class="edge">
<title>Node35&#45;&gt;Node3</title>
<g id="a_edge41_Node000035_Node000003"><a xlink:title=" ">
<path fill="none" stroke="#63b8ff" d="M762.93,-110.33C836.91,-100.58 960.2,-84.33 1036.25,-74.3"/>
<polygon fill="#63b8ff" stroke="#63b8ff" points="1036.74,-77.77 1046.2,-72.99 1035.83,-70.83 1036.74,-77.77"/>
</a>
</g>
</g>
<!-- Node36&#45;&gt;Node3 -->
<g id="edge43_Node000036_Node000003" class="edge">
<title>Node36&#45;&gt;Node3</title>
<g id="a_edge43_Node000036_Node000003"><a xlink:title=" ">
<path fill="none" stroke="#63b8ff" d="M482.45,-164.73C485.31,-150.52 493.11,-122.81 512,-110 554.54,-81.15 890.77,-70.23 1036.27,-66.82"/>
<polygon fill="#63b8ff" stroke="#63b8ff" points="1036.49,-70.32 1046.41,-66.59 1036.33,-63.32 1036.49,-70.32"/>
</a>
</g>
</g>
<!-- Node36&#45;&gt;Node37 -->
<g id="edge44_Node000036_Node000037" class="edge">
<title>Node36&#45;&gt;Node37</title>
<g id="a_edge44_Node000036_Node000037"><a xlink:title=" ">
<path fill="none" stroke="#63b8ff" d="M467.99,-164.98C455.54,-156.84 436.54,-144.41 421.79,-134.76"/>
<polygon fill="#63b8ff" stroke="#63b8ff" points="423.54,-131.72 413.25,-129.17 419.7,-137.57 423.54,-131.72"/>
</a>
</g>
</g>
<!-- Node37&#45;&gt;Node14 -->
<g id="edge47_Node000037_Node000014" class="edge">
<title>Node37&#45;&gt;Node14</title>
<g id="a_edge47_Node000037_Node000014"><a xlink:title=" ">
<path fill="none" stroke="#63b8ff" d="M394.88,-109.74C386.08,-95.56 366.61,-67.87 342,-55 237.93,-0.58 194.23,-37.21 74.12,-19"/>
<polygon fill="#63b8ff" stroke="#63b8ff" points="74.62,-15.54 64.19,-17.4 73.5,-22.45 74.62,-15.54"/>
</a>
</g>
</g>
<!-- Node37&#45;&gt;Node26 -->
<g id="edge45_Node000037_Node000026" class="edge">
<title>Node37&#45;&gt;Node26</title>
<g id="a_edge45_Node000037_Node000026"><a xlink:title=" ">
<path fill="none" stroke="#63b8ff" d="M399.38,-109.99C397.9,-96.17 392.87,-68.99 376,-55 372.18,-51.83 250.56,-31.27 178.05,-19.23"/>
<polygon fill="#63b8ff" stroke="#63b8ff" points="178.59,-15.78 168.16,-17.6 177.45,-22.68 178.59,-15.78"/>
</a>
</g>
</g>
<!-- Node38 -->
<g id="Node000038" class="node">
<title>Node38</title>
<g id="a_Node000038"><a xlink:title=" ">
<polygon fill="#e0e0e0" stroke="#999999" points="333.5,-74 286.5,-74 286.5,-55 333.5,-55 333.5,-74"/>
<text text-anchor="middle" x="310" y="-62" font-family="Helvetica,sans-Serif" font-size="10.00">cmath</text>
</a>
</g>
</g>
<!-- Node37&#45;&gt;Node38 -->
<g id="edge46_Node000037_Node000038" class="edge">
<title>Node37&#45;&gt;Node38</title>
<g id="a_edge46_Node000037_Node000038"><a xlink:title=" ">
<path fill="none" stroke="#63b8ff" d="M385.54,-109.98C371.58,-101.77 350.21,-89.18 333.75,-79.49"/>
<polygon fill="#63b8ff" stroke="#63b8ff" points="335.12,-76.23 324.72,-74.17 331.56,-82.26 335.12,-76.23"/>
</a>
</g>
</g>
<!-- Node39&#45;&gt;Node3 -->
<g id="edge49_Node000039_Node000003" class="edge">
<title>Node39&#45;&gt;Node3</title>
<g id="a_edge49_Node000039_Node000003"><a xlink:title=" ">
<path fill="none" stroke="#63b8ff" d="M610.77,-164.9C610.92,-150.94 613.45,-123.57 630,-110 660.74,-84.78 913.54,-72.31 1036.43,-67.69"/>
<polygon fill="#63b8ff" stroke="#63b8ff" points="1036.61,-71.18 1046.47,-67.31 1036.35,-64.19 1036.61,-71.18"/>
</a>
</g>
</g>
<!-- Node39&#45;&gt;Node35 -->
<g id="edge51_Node000039_Node000035" class="edge">
<title>Node39&#45;&gt;Node35</title>
<g id="a_edge51_Node000039_Node000035"><a xlink:title=" ">
<path fill="none" stroke="#63b8ff" d="M625.46,-164.98C639.42,-156.77 660.79,-144.18 677.25,-134.49"/>
<polygon fill="#63b8ff" stroke="#63b8ff" points="679.44,-137.26 686.28,-129.17 675.88,-131.23 679.44,-137.26"/>
</a>
</g>
</g>
<!-- Node39&#45;&gt;Node37 -->
<g id="edge50_Node000039_Node000037" class="edge">
<title>Node39&#45;&gt;Node37</title>
<g id="a_edge50_Node000039_Node000037"><a xlink:title=" ">
<path fill="none" stroke="#63b8ff" d="M577.1,-164.98C540.98,-155.91 483.68,-141.52 444.08,-131.57"/>
<polygon fill="#63b8ff" stroke="#63b8ff" points="444.72,-128.12 434.17,-129.08 443.01,-134.91 444.72,-128.12"/>
</a>
</g>
</g>
<!-- Node40 -->
<g id="Node000040" class="node">
<title>Node40</title>
<g id="a_Node000040"><a xlink:href="Texture_8h.html" target="_top" xlink:title=" ">
<polygon fill="white" stroke="#666666" points="583,-129 521,-129 521,-110 583,-110 583,-129"/>
<text text-anchor="middle" x="552" y="-117" font-family="Helvetica,sans-Serif" font-size="10.00">Texture.h</text>
</a>
</g>
</g>
<!-- Node39&#45;&gt;Node40 -->
<g id="edge52_Node000039_Node000040" class="edge">
<title>Node39&#45;&gt;Node40</title>
<g id="a_edge52_Node000039_Node000040"><a xlink:title=" ">
<path fill="none" stroke="#63b8ff" d="M601.52,-164.98C592.8,-157.15 579.66,-145.34 569.1,-135.86"/>
<polygon fill="#63b8ff" stroke="#63b8ff" points="571.43,-133.25 561.65,-129.17 566.75,-138.46 571.43,-133.25"/>
</a>
</g>
</g>
<!-- Node40&#45;&gt;Node3 -->
<g id="edge53_Node000040_Node000003" class="edge">
<title>Node40&#45;&gt;Node3</title>
<g id="a_edge53_Node000040_Node000003"><a xlink:title=" ">
<path fill="none" stroke="#63b8ff" d="M583.41,-112.16C587.96,-111.36 592.59,-110.61 597,-110 753.56,-88.38 938.91,-75.22 1036,-69.27"/>
<polygon fill="#63b8ff" stroke="#63b8ff" points="1036.49,-72.75 1046.26,-68.65 1036.07,-65.76 1036.49,-72.75"/>
</a>
</g>
</g>
<!-- Node41&#45;&gt;Node3 -->
<g id="edge57_Node000041_Node000003" class="edge">
<title>Node41&#45;&gt;Node3</title>
<g id="a_edge57_Node000041_Node000003"><a xlink:title=" ">
<path fill="none" stroke="#63b8ff" d="M1125.22,-329.97C1105.35,-313.2 1065,-273.81 1065,-230.5 1065,-230.5 1065,-230.5 1065,-173.5 1065,-140.02 1081.45,-103.84 1092.7,-83.01"/>
<polygon fill="#63b8ff" stroke="#63b8ff" points="1095.87,-84.53 1097.72,-74.1 1089.76,-81.1 1095.87,-84.53"/>
</a>
</g>
</g>
<!-- Node42&#45;&gt;Node3 -->
<g id="edge59_Node000042_Node000003" class="edge">
<title>Node42&#45;&gt;Node3</title>
<g id="a_edge59_Node000042_Node000003"><a xlink:title=" ">
<path fill="none" stroke="#63b8ff" d="M1349.73,-334.75C1414.31,-327 1513,-303.25 1513,-230.5 1513,-230.5 1513,-230.5 1513,-173.5 1513,-129.82 1477.93,-127.7 1438,-110 1391.34,-89.31 1253.36,-76.19 1169.74,-69.91"/>
<polygon fill="#63b8ff" stroke="#63b8ff" points="1169.8,-66.4 1159.57,-69.15 1169.29,-73.38 1169.8,-66.4"/>
</a>
</g>
</g>
<!-- Node43 -->
<g id="Node000043" class="node">
<title>Node43</title>
<g id="a_Node000043"><a xlink:href="EntityManager_8h.html" target="_top" xlink:title=" ">
<polygon fill="white" stroke="#666666" points="1343,-239 1247,-239 1247,-220 1343,-220 1343,-239"/>
<text text-anchor="middle" x="1295" y="-227" font-family="Helvetica,sans-Serif" font-size="10.00">EntityManager.h</text>
</a>
</g>
</g>
<!-- Node42&#45;&gt;Node43 -->
<g id="edge60_Node000042_Node000043" class="edge">
<title>Node42&#45;&gt;Node43</title>
<g id="a_edge60_Node000042_Node000043"><a xlink:title=" ">
<path fill="none" stroke="#63b8ff" d="M1295,-329.66C1295,-312.17 1295,-272.8 1295,-249.27"/>
<polygon fill="#63b8ff" stroke="#63b8ff" points="1298.5,-249.16 1295,-239.16 1291.5,-249.16 1298.5,-249.16"/>
</a>
</g>
</g>
<!-- Node45 -->
<g id="Node000045" class="node">
<title>Node45</title>
<g id="a_Node000045"><a xlink:href="ArchetypeManager_8h.html" target="_top" xlink:title=" ">
<polygon fill="white" stroke="#666666" points="1249.5,-294 1132.5,-294 1132.5,-275 1249.5,-275 1249.5,-294"/>
<text text-anchor="middle" x="1191" y="-282" font-family="Helvetica,sans-Serif" font-size="10.00">ArchetypeManager.h</text>
</a>
</g>
</g>
<!-- Node42&#45;&gt;Node45 -->
<g id="edge63_Node000042_Node000045" class="edge">
<title>Node42&#45;&gt;Node45</title>
<g id="a_edge63_Node000042_Node000045"><a xlink:title=" ">
<path fill="none" stroke="#63b8ff" d="M1278.29,-329.98C1261.79,-321.57 1236.3,-308.59 1217.12,-298.81"/>
<polygon fill="#63b8ff" stroke="#63b8ff" points="1218.51,-295.59 1208.01,-294.17 1215.33,-301.83 1218.51,-295.59"/>
</a>
</g>
</g>
<!-- Node50 -->
<g id="Node000050" class="node">
<title>Node50</title>
<g id="a_Node000050"><a xlink:href="System_8h.html" target="_top" xlink:title=" ">
<polygon fill="white" stroke="#666666" points="1435,-294 1373,-294 1373,-275 1435,-275 1435,-294"/>
<text text-anchor="middle" x="1404" y="-282" font-family="Helvetica,sans-Serif" font-size="10.00">System.h</text>
</a>
</g>
</g>
<!-- Node42&#45;&gt;Node50 -->
<g id="edge73_Node000042_Node000050" class="edge">
<title>Node42&#45;&gt;Node50</title>
<g id="a_edge73_Node000042_Node000050"><a xlink:title=" ">
<path fill="none" stroke="#63b8ff" d="M1312.51,-329.98C1329.97,-321.5 1357.01,-308.35 1377.17,-298.54"/>
<polygon fill="#63b8ff" stroke="#63b8ff" points="1378.71,-301.69 1386.17,-294.17 1375.64,-295.4 1378.71,-301.69"/>
</a>
</g>
</g>
<!-- Node44 -->
<g id="Node000044" class="node">
<title>Node44</title>
<g id="a_Node000044"><a xlink:href="Entity_8h.html" target="_top" xlink:title="ECSにおけるオブジェクトの識別子 (ID) を定義します。">
<polygon fill="white" stroke="#666666" points="1260.5,-129 1207.5,-129 1207.5,-110 1260.5,-110 1260.5,-129"/>
<text text-anchor="middle" x="1234" y="-117" font-family="Helvetica,sans-Serif" font-size="10.00">Entity.h</text>
</a>
</g>
</g>
<!-- Node43&#45;&gt;Node44 -->
<g id="edge61_Node000043_Node000044" class="edge">
<title>Node43&#45;&gt;Node44</title>
<g id="a_edge61_Node000043_Node000044"><a xlink:title=" ">
<path fill="none" stroke="#63b8ff" d="M1290.01,-219.66C1279.95,-201.85 1257.08,-161.37 1243.89,-138.01"/>
<polygon fill="#63b8ff" stroke="#63b8ff" points="1246.86,-136.14 1238.89,-129.16 1240.76,-139.59 1246.86,-136.14"/>
</a>
</g>
</g>
<!-- Node44&#45;&gt;Node3 -->
<g id="edge62_Node000044_Node000003" class="edge">
<title>Node44&#45;&gt;Node3</title>
<g id="a_edge62_Node000044_Node000003"><a xlink:title=" ">
<path fill="none" stroke="#63b8ff" d="M1212.95,-109.98C1191.59,-101.34 1158.3,-87.87 1133.94,-78.02"/>
<polygon fill="#63b8ff" stroke="#63b8ff" points="1135.01,-74.68 1124.43,-74.17 1132.39,-81.17 1135.01,-74.68"/>
</a>
</g>
</g>
<!-- Node45&#45;&gt;Node3 -->
<g id="edge64_Node000045_Node000003" class="edge">
<title>Node45&#45;&gt;Node3</title>
<g id="a_edge64_Node000045_Node000003"><a xlink:title=" ">
<path fill="none" stroke="#63b8ff" d="M1178.25,-274.76C1167.49,-266.71 1152.52,-253.8 1144,-239 1114.71,-188.13 1106.32,-117.42 1103.93,-84.18"/>
<polygon fill="#63b8ff" stroke="#63b8ff" points="1107.42,-83.84 1103.32,-74.07 1100.43,-84.27 1107.42,-83.84"/>
</a>
</g>
</g>
<!-- Node46 -->
<g id="Node000046" class="node">
<title>Node46</title>
<g id="a_Node000046"><a xlink:href="Archetype_8h.html" target="_top" xlink:title=" ">
<polygon fill="white" stroke="#666666" points="1228.5,-239 1153.5,-239 1153.5,-220 1228.5,-220 1228.5,-239"/>
<text text-anchor="middle" x="1191" y="-227" font-family="Helvetica,sans-Serif" font-size="10.00">Archetype.h</text>
</a>
</g>
</g>
<!-- Node45&#45;&gt;Node46 -->
<g id="edge65_Node000045_Node000046" class="edge">
<title>Node45&#45;&gt;Node46</title>
<g id="a_edge65_Node000045_Node000046"><a xlink:title=" ">
<path fill="none" stroke="#63b8ff" d="M1191,-274.75C1191,-267.8 1191,-257.85 1191,-249.13"/>
<polygon fill="#63b8ff" stroke="#63b8ff" points="1194.5,-249.09 1191,-239.09 1187.5,-249.09 1194.5,-249.09"/>
</a>
</g>
</g>
<!-- Node46&#45;&gt;Node3 -->
<g id="edge66_Node000046_Node000003" class="edge">
<title>Node46&#45;&gt;Node3</title>
<g id="a_edge66_Node000046_Node000003"><a xlink:title=" ">
<path fill="none" stroke="#63b8ff" d="M1184.4,-219.91C1177.81,-211.14 1167.59,-197.01 1160,-184 1139.94,-149.63 1120.77,-107.13 1110.58,-83.5"/>
<polygon fill="#63b8ff" stroke="#63b8ff" points="1113.7,-81.9 1106.56,-74.07 1107.26,-84.64 1113.7,-81.9"/>
</a>
</g>
</g>
<!-- Node47 -->
<g id="Node000047" class="node">
<title>Node47</title>
<g id="a_Node000047"><a xlink:href="ComponentType_8h.html" target="_top" xlink:title=" ">
<polygon fill="white" stroke="#666666" points="1447.5,-184 1280.5,-184 1280.5,-165 1447.5,-165 1447.5,-184"/>
<text text-anchor="middle" x="1364" y="-172" font-family="Helvetica,sans-Serif" font-size="10.00">ECS/Internal/ComponentType.h</text>
</a>
</g>
</g>
<!-- Node46&#45;&gt;Node47 -->
<g id="edge67_Node000046_Node000047" class="edge">
<title>Node46&#45;&gt;Node47</title>
<g id="a_edge67_Node000046_Node000047"><a xlink:title=" ">
<path fill="none" stroke="#63b8ff" d="M1218.8,-219.98C1247.97,-211.05 1294,-196.94 1326.4,-187.02"/>
<polygon fill="#63b8ff" stroke="#63b8ff" points="1327.45,-190.36 1335.99,-184.08 1325.4,-183.66 1327.45,-190.36"/>
</a>
</g>
</g>
<!-- Node49 -->
<g id="Node000049" class="node">
<title>Node49</title>
<g id="a_Node000049"><a xlink:href="Chunk_8h.html" target="_top" xlink:title=" ">
<polygon fill="white" stroke="#666666" points="1225,-184 1169,-184 1169,-165 1225,-165 1225,-184"/>
<text text-anchor="middle" x="1197" y="-172" font-family="Helvetica,sans-Serif" font-size="10.00">Chunk.h</text>
</a>
</g>
</g>
<!-- Node46&#45;&gt;Node49 -->
<g id="edge70_Node000046_Node000049" class="edge">
<title>Node46&#45;&gt;Node49</title>
<g id="a_edge70_Node000046_Node000049"><a xlink:title=" ">
<path fill="none" stroke="#63b8ff" d="M1191.99,-219.75C1192.78,-212.8 1193.9,-202.85 1194.89,-194.13"/>
<polygon fill="#63b8ff" stroke="#63b8ff" points="1198.38,-194.42 1196.03,-184.09 1191.42,-193.63 1198.38,-194.42"/>
</a>
</g>
</g>
<!-- Node47&#45;&gt;Node3 -->
<g id="edge68_Node000047_Node000003" class="edge">
<title>Node47&#45;&gt;Node3</title>
<g id="a_edge68_Node000047_Node000003"><a xlink:title=" ">
<path fill="none" stroke="#63b8ff" d="M1353.57,-164.83C1336.78,-151.28 1302.25,-125.07 1269,-110 1234.52,-94.37 1193.44,-83.3 1160.78,-76.12"/>
<polygon fill="#63b8ff" stroke="#63b8ff" points="1161.44,-72.68 1150.93,-74.01 1159.97,-79.52 1161.44,-72.68"/>
</a>
</g>
</g>
<!-- Node48 -->
<g id="Node000048" class="node">
<title>Node48</title>
<g id="a_Node000048"><a xlink:title=" ">
<polygon fill="#e0e0e0" stroke="#999999" points="1400.5,-129 1327.5,-129 1327.5,-110 1400.5,-110 1400.5,-129"/>
<text text-anchor="middle" x="1364" y="-117" font-family="Helvetica,sans-Serif" font-size="10.00">string_view</text>
</a>
</g>
</g>
<!-- Node47&#45;&gt;Node48 -->
<g id="edge69_Node000047_Node000048" class="edge">
<title>Node47&#45;&gt;Node48</title>
<g id="a_edge69_Node000047_Node000048"><a xlink:title=" ">
<path fill="none" stroke="#63b8ff" d="M1364,-164.75C1364,-157.8 1364,-147.85 1364,-139.13"/>
<polygon fill="#63b8ff" stroke="#63b8ff" points="1367.5,-139.09 1364,-129.09 1360.5,-139.09 1367.5,-139.09"/>
</a>
</g>
</g>
<!-- Node49&#45;&gt;Node3 -->
<g id="edge71_Node000049_Node000003" class="edge">
<title>Node49&#45;&gt;Node3</title>
<g id="a_edge71_Node000049_Node000003"><a xlink:title=" ">
<path fill="none" stroke="#63b8ff" d="M1192.26,-164.75C1185.12,-151.98 1170.75,-127.83 1155,-110 1145.41,-99.15 1133.17,-88.54 1122.97,-80.41"/>
<polygon fill="#63b8ff" stroke="#63b8ff" points="1125.03,-77.58 1114.99,-74.21 1120.74,-83.11 1125.03,-77.58"/>
</a>
</g>
</g>
<!-- Node49&#45;&gt;Node44 -->
<g id="edge72_Node000049_Node000044" class="edge">
<title>Node49&#45;&gt;Node44</title>
<g id="a_edge72_Node000049_Node000044"><a xlink:title=" ">
<path fill="none" stroke="#63b8ff" d="M1203.11,-164.75C1208.28,-157.34 1215.85,-146.5 1222.19,-137.41"/>
<polygon fill="#63b8ff" stroke="#63b8ff" points="1225.15,-139.29 1228,-129.09 1219.41,-135.29 1225.15,-139.29"/>
</a>
</g>
</g>
<!-- Node50&#45;&gt;Node3 -->
<g id="edge74_Node000050_Node000003" class="edge">
<title>Node50&#45;&gt;Node3</title>
<g id="a_edge74_Node000050_Node000003"><a xlink:title=" ">
<path fill="none" stroke="#63b8ff" d="M1410.45,-274.77C1422.29,-258.14 1447.08,-220.34 1456,-184 1465.29,-146.16 1443.12,-128.82 1409,-110 1369.02,-87.95 1247.05,-75.55 1169.72,-69.72"/>
<polygon fill="#63b8ff" stroke="#63b8ff" points="1169.81,-66.22 1159.58,-68.97 1169.3,-73.2 1169.81,-66.22"/>
</a>
</g>
</g>
</g>
</svg>
