<?xml version="1.0" encoding="UTF-8" standalone="no"?>
<!DOCTYPE svg PUBLIC "-//W3C//DTD SVG 1.1//EN"
 "http://www.w3.org/Graphics/SVG/1.1/DTD/svg11.dtd">
<!-- Generated by graphviz version 2.43.0 (0)
 -->
<!-- Title: Engine/Source/Runtime/Scene/EnvironmentSettings.h Pages: 1 -->
<svg width="2081pt" height="401pt"
 viewBox="0.00 0.00 2081.00 401.00" xmlns="http://www.w3.org/2000/svg" xmlns:xlink="http://www.w3.org/1999/xlink">
<g id="graph0" class="graph" transform="scale(1 1) rotate(0) translate(4 397)">
<title>Engine/Source/Runtime/Scene/EnvironmentSettings.h</title>
<!-- Node1 -->
<g id="Node000001" class="node">
<title>Node1</title>
<g id="a_Node000001"><a xlink:title="シーンの環境光、スカイボックス、フォグなどの設定データ">
<polygon fill="#999999" stroke="#666666" points="792,-393 629,-393 629,-363 792,-363 792,-393"/>
<text text-anchor="start" x="637" y="-381" font-family="Helvetica,sans-Serif" font-size="10.00">Engine/Source/Runtime</text>
<text text-anchor="middle" x="710.5" y="-370" font-family="Helvetica,sans-Serif" font-size="10.00">/Scene/EnvironmentSettings.h</text>
</a>
</g>
</g>
<!-- Node2 -->
<g id="Node000002" class="node">
<title>Node2</title>
<g id="a_Node000002"><a xlink:href="SkyboxPass_8h.html" target="_top" xlink:title="プロシージャルスカイボックス描画パス。">
<polygon fill="white" stroke="#666666" points="438,-261 271,-261 271,-231 438,-231 438,-261"/>
<text text-anchor="start" x="279" y="-249" font-family="Helvetica,sans-Serif" font-size="10.00">Engine/Source/Runtime</text>
<text text-anchor="middle" x="354.5" y="-238" font-family="Helvetica,sans-Serif" font-size="10.00">/Graphics/Passes/SkyboxPass.h</text>
</a>
</g>
</g>
<!-- Node1&#45;&gt;Node2 -->
<g id="edge1_Node000001_Node000002" class="edge">
<title>Node1&#45;&gt;Node2</title>
<g id="a_edge1_Node000001_Node000002"><a xlink:title=" ">
<path fill="none" stroke="#63b8ff" d="M662.41,-359.44C591.03,-333.37 458.46,-284.96 393.05,-261.08"/>
<polygon fill="#63b8ff" stroke="#63b8ff" points="661.47,-362.82 672.06,-362.96 663.87,-356.25 661.47,-362.82"/>
</a>
</g>
</g>
<!-- Node18 -->
<g id="Node000018" class="node">
<title>Node18</title>
<g id="a_Node000018"><a xlink:href="Renderer_8h.html" target="_top" xlink:title="描画パイプラインの構築と実行。">
<polygon fill="white" stroke="#666666" points="775.5,-327 645.5,-327 645.5,-297 775.5,-297 775.5,-327"/>
<text text-anchor="start" x="653.5" y="-315" font-family="Helvetica,sans-Serif" font-size="10.00">Engine/Source/Runtime</text>
<text text-anchor="middle" x="710.5" y="-304" font-family="Helvetica,sans-Serif" font-size="10.00">/Graphics/Renderer.h</text>
</a>
</g>
</g>
<!-- Node1&#45;&gt;Node18 -->
<g id="edge17_Node000001_Node000018" class="edge">
<title>Node1&#45;&gt;Node18</title>
<g id="a_edge17_Node000001_Node000018"><a xlink:title=" ">
<path fill="none" stroke="#63b8ff" d="M710.5,-352.54C710.5,-343.96 710.5,-334.61 710.5,-327.16"/>
<polygon fill="#63b8ff" stroke="#63b8ff" points="707,-352.8 710.5,-362.8 714,-352.8 707,-352.8"/>
</a>
</g>
</g>
<!-- Node31 -->
<g id="Node000031" class="node">
<title>Node31</title>
<g id="a_Node000031"><a xlink:href="Scene_8h.html" target="_top" xlink:title="ゲームシーン全体を管理するコンテナクラス。">
<polygon fill="white" stroke="#666666" points="1222.5,-327 1092.5,-327 1092.5,-297 1222.5,-297 1222.5,-327"/>
<text text-anchor="start" x="1100.5" y="-315" font-family="Helvetica,sans-Serif" font-size="10.00">Engine/Source/Runtime</text>
<text text-anchor="middle" x="1157.5" y="-304" font-family="Helvetica,sans-Serif" font-size="10.00">/Scene/Scene.h</text>
</a>
</g>
</g>
<!-- Node1&#45;&gt;Node31 -->
<g id="edge48_Node000001_Node000031" class="edge">
<title>Node1&#45;&gt;Node31</title>
<g id="a_edge48_Node000001_Node000031"><a xlink:title=" ">
<path fill="none" stroke="#63b8ff" d="M802.29,-363.86C888.66,-351.49 1015.84,-333.28 1092.28,-322.34"/>
<polygon fill="#63b8ff" stroke="#63b8ff" points="801.63,-360.42 792.23,-365.3 802.62,-367.35 801.63,-360.42"/>
</a>
</g>
</g>
<!-- Node3 -->
<g id="Node000003" class="node">
<title>Node3</title>
<g id="a_Node000003"><a xlink:href="SkyboxPass_8cpp.html" target="_top" xlink:title="SkyboxPassの実装。">
<polygon fill="white" stroke="#666666" points="179,-189.5 0,-189.5 0,-159.5 179,-159.5 179,-189.5"/>
<text text-anchor="start" x="8" y="-177.5" font-family="Helvetica,sans-Serif" font-size="10.00">Engine/Source/Runtime</text>
<text text-anchor="middle" x="89.5" y="-166.5" font-family="Helvetica,sans-Serif" font-size="10.00">/Graphics/Passes/SkyboxPass.cpp</text>
</a>
</g>
</g>
<!-- Node2&#45;&gt;Node3 -->
<g id="edge2_Node000002_Node000003" class="edge">
<title>Node2&#45;&gt;Node3</title>
<g id="a_edge2_Node000002_Node000003"><a xlink:title=" ">
<path fill="none" stroke="#63b8ff" d="M291.18,-228.39C245.98,-216.54 185.86,-200.77 143.05,-189.54"/>
<polygon fill="#63b8ff" stroke="#63b8ff" points="290.31,-231.78 300.87,-230.94 292.09,-225.01 290.31,-231.78"/>
</a>
</g>
</g>
<!-- Node4 -->
<g id="Node000004" class="node">
<title>Node4</title>
<g id="a_Node000004"><a xlink:href="Renderer_8cpp.html" target="_top" xlink:title=" ">
<polygon fill="white" stroke="#666666" points="327.5,-189.5 197.5,-189.5 197.5,-159.5 327.5,-159.5 327.5,-189.5"/>
<text text-anchor="start" x="205.5" y="-177.5" font-family="Helvetica,sans-Serif" font-size="10.00">Engine/Source/Runtime</text>
<text text-anchor="middle" x="262.5" y="-166.5" font-family="Helvetica,sans-Serif" font-size="10.00">/Graphics/Renderer.cpp</text>
</a>
</g>
</g>
<!-- Node2&#45;&gt;Node4 -->
<g id="edge3_Node000002_Node000004" class="edge">
<title>Node2&#45;&gt;Node4</title>
<g id="a_edge3_Node000002_Node000004"><a xlink:title=" ">
<path fill="none" stroke="#63b8ff" d="M327.53,-224.63C312.6,-213.35 294.43,-199.62 281.09,-189.54"/>
<polygon fill="#63b8ff" stroke="#63b8ff" points="325.79,-227.7 335.88,-230.94 330.01,-222.12 325.79,-227.7"/>
</a>
</g>
</g>
<!-- Node5 -->
<g id="Node000005" class="node">
<title>Node5</title>
<g id="a_Node000005"><a xlink:href="RenderingSystem_8h.html" target="_top" xlink:title="描画コマンド発行システム。">
<polygon fill="white" stroke="#666666" points="917.5,-195 757.5,-195 757.5,-154 917.5,-154 917.5,-195"/>
<text text-anchor="start" x="765.5" y="-183" font-family="Helvetica,sans-Serif" font-size="10.00">Engine/Source/Runtime</text>
<text text-anchor="start" x="765.5" y="-172" font-family="Helvetica,sans-Serif" font-size="10.00">/Systems/Graphics/Rendering</text>
<text text-anchor="middle" x="837.5" y="-161" font-family="Helvetica,sans-Serif" font-size="10.00">System.h</text>
</a>
</g>
</g>
<!-- Node2&#45;&gt;Node5 -->
<g id="edge4_Node000002_Node000005" class="edge">
<title>Node2&#45;&gt;Node5</title>
<g id="a_edge4_Node000002_Node000005"><a xlink:title=" ">
<path fill="none" stroke="#63b8ff" d="M448.27,-232.16C520.09,-222.25 621.6,-208.07 710.5,-195 725.62,-192.78 741.74,-190.35 757.24,-187.98"/>
<polygon fill="#63b8ff" stroke="#63b8ff" points="447.77,-228.7 438.34,-233.53 448.73,-235.63 447.77,-228.7"/>
</a>
</g>
</g>
<!-- Node6 -->
<g id="Node000006" class="node">
<title>Node6</title>
<g id="a_Node000006"><a xlink:href="SpanEngine_8h.html" target="_top" xlink:title=" ">
<polygon fill="white" stroke="#666666" points="1257,-107 1102,-107 1102,-88 1257,-88 1257,-107"/>
<text text-anchor="middle" x="1179.5" y="-95" font-family="Helvetica,sans-Serif" font-size="10.00">Engine/Source/SpanEngine.h</text>
</a>
</g>
</g>
<!-- Node5&#45;&gt;Node6 -->
<g id="edge5_Node000005_Node000006" class="edge">
<title>Node5&#45;&gt;Node6</title>
<g id="a_edge5_Node000005_Node000006"><a xlink:title=" ">
<path fill="none" stroke="#63b8ff" d="M927.72,-153.71C996.93,-138.54 1089.07,-118.33 1140.51,-107.05"/>
<polygon fill="#63b8ff" stroke="#63b8ff" points="926.7,-150.35 917.68,-155.92 928.2,-157.19 926.7,-150.35"/>
</a>
</g>
</g>
<!-- Node7 -->
<g id="Node000007" class="node">
<title>Node7</title>
<g id="a_Node000007"><a xlink:href="GuiManager_8cpp.html" target="_top" xlink:title=" ">
<polygon fill="white" stroke="#666666" points="1089,-35.5 972,-35.5 972,-5.5 1089,-5.5 1089,-35.5"/>
<text text-anchor="start" x="980" y="-23.5" font-family="Helvetica,sans-Serif" font-size="10.00">Engine/Source/Editor</text>
<text text-anchor="middle" x="1030.5" y="-12.5" font-family="Helvetica,sans-Serif" font-size="10.00">/GuiManager.cpp</text>
</a>
</g>
</g>
<!-- Node6&#45;&gt;Node7 -->
<g id="edge6_Node000006_Node000007" class="edge">
<title>Node6&#45;&gt;Node7</title>
<g id="a_edge6_Node000006_Node000007"><a xlink:title=" ">
<path fill="none" stroke="#63b8ff" d="M1153.32,-83.32C1126.75,-69.95 1085.76,-49.31 1058.54,-35.61"/>
<polygon fill="#63b8ff" stroke="#63b8ff" points="1151.9,-86.53 1162.41,-87.9 1155.05,-80.27 1151.9,-86.53"/>
</a>
</g>
</g>
<!-- Node8 -->
<g id="Node000008" class="node">
<title>Node8</title>
<g id="a_Node000008"><a xlink:href="ImGuiUI_8cpp.html" target="_top" xlink:title=" ">
<polygon fill="white" stroke="#666666" points="1741,-35.5 1624,-35.5 1624,-5.5 1741,-5.5 1741,-35.5"/>
<text text-anchor="start" x="1632" y="-23.5" font-family="Helvetica,sans-Serif" font-size="10.00">Engine/Source/Editor</text>
<text text-anchor="middle" x="1682.5" y="-12.5" font-family="Helvetica,sans-Serif" font-size="10.00">/ImGui/ImGuiUI.cpp</text>
</a>
</g>
</g>
<!-- Node6&#45;&gt;Node8 -->
<g id="edge7_Node000006_Node000008" class="edge">
<title>Node6&#45;&gt;Node8</title>
<g id="a_edge7_Node000006_Node000008"><a xlink:title=" ">
<path fill="none" stroke="#63b8ff" d="M1267.07,-89.28C1355.38,-81.08 1495.31,-65.54 1614.5,-41 1621.84,-39.49 1629.54,-37.59 1637.02,-35.58"/>
<polygon fill="#63b8ff" stroke="#63b8ff" points="1266.73,-85.8 1257.09,-90.2 1267.37,-92.77 1266.73,-85.8"/>
</a>
</g>
</g>
<!-- Node9 -->
<g id="Node000009" class="node">
<title>Node9</title>
<g id="a_Node000009"><a xlink:href="HierarchyPanel_8cpp.html" target="_top" xlink:title=" ">
<polygon fill="white" stroke="#666666" points="613.5,-41 461.5,-41 461.5,0 613.5,0 613.5,-41"/>
<text text-anchor="start" x="469.5" y="-29" font-family="Helvetica,sans-Serif" font-size="10.00">Engine/Source/Editor</text>
<text text-anchor="start" x="469.5" y="-18" font-family="Helvetica,sans-Serif" font-size="10.00">/Panels/Hierarchy/Hierarchy</text>
<text text-anchor="middle" x="537.5" y="-7" font-family="Helvetica,sans-Serif" font-size="10.00">Panel.cpp</text>
</a>
</g>
</g>
<!-- Node6&#45;&gt;Node9 -->
<g id="edge8_Node000006_Node000009" class="edge">
<title>Node6&#45;&gt;Node9</title>
<g id="a_edge8_Node000006_Node000009"><a xlink:title=" ">
<path fill="none" stroke="#63b8ff" d="M1091.54,-91.18C981.38,-83.72 787.11,-67.97 622.5,-41 619.66,-40.53 616.78,-40.03 613.87,-39.5"/>
<polygon fill="#63b8ff" stroke="#63b8ff" points="1091.39,-94.68 1101.6,-91.85 1091.86,-87.69 1091.39,-94.68"/>
</a>
</g>
</g>
<!-- Node10 -->
<g id="Node000010" class="node">
<title>Node10</title>
<g id="a_Node000010"><a xlink:href="InspectorPanel_8cpp.html" target="_top" xlink:title=" ">
<polygon fill="white" stroke="#666666" points="443,-41 296,-41 296,0 443,0 443,-41"/>
<text text-anchor="start" x="304" y="-29" font-family="Helvetica,sans-Serif" font-size="10.00">Engine/Source/Editor</text>
<text text-anchor="start" x="304" y="-18" font-family="Helvetica,sans-Serif" font-size="10.00">/Panels/Inspector/Inspector</text>
<text text-anchor="middle" x="369.5" y="-7" font-family="Helvetica,sans-Serif" font-size="10.00">Panel.cpp</text>
</a>
</g>
</g>
<!-- Node6&#45;&gt;Node10 -->
<g id="edge9_Node000006_Node000010" class="edge">
<title>Node6&#45;&gt;Node10</title>
<g id="a_edge9_Node000006_Node000010"><a xlink:title=" ">
<path fill="none" stroke="#63b8ff" d="M1091.81,-94.18C954.69,-89.56 681.48,-76.42 452.5,-41 449.43,-40.52 446.3,-40 443.15,-39.43"/>
<polygon fill="#63b8ff" stroke="#63b8ff" points="1091.74,-97.68 1101.85,-94.51 1091.97,-90.68 1091.74,-97.68"/>
</a>
</g>
</g>
<!-- Node11 -->
<g id="Node000011" class="node">
<title>Node11</title>
<g id="a_Node000011"><a xlink:href="ProjectBrowserPanel_8cpp.html" target="_top" xlink:title="ProjectBrowserPanelの実装。">
<polygon fill="white" stroke="#666666" points="771.5,-41 631.5,-41 631.5,0 771.5,0 771.5,-41"/>
<text text-anchor="start" x="639.5" y="-29" font-family="Helvetica,sans-Serif" font-size="10.00">Engine/Source/Editor</text>
<text text-anchor="start" x="639.5" y="-18" font-family="Helvetica,sans-Serif" font-size="10.00">/Panels/ProjectBrowser</text>
<text text-anchor="middle" x="701.5" y="-7" font-family="Helvetica,sans-Serif" font-size="10.00">/ProjectBrowserPanel.cpp</text>
</a>
</g>
</g>
<!-- Node6&#45;&gt;Node11 -->
<g id="edge10_Node000006_Node000011" class="edge">
<title>Node6&#45;&gt;Node11</title>
<g id="a_edge10_Node000006_Node000011"><a xlink:title=" ">
<path fill="none" stroke="#63b8ff" d="M1091.7,-86.94C1010.57,-77.48 886.87,-61.47 780.5,-41 777.59,-40.44 774.62,-39.84 771.63,-39.21"/>
<polygon fill="#63b8ff" stroke="#63b8ff" points="1091.54,-90.45 1101.87,-88.12 1092.34,-83.49 1091.54,-90.45"/>
</a>
</g>
</g>
<!-- Node12 -->
<g id="Node000012" class="node">
<title>Node12</title>
<g id="a_Node000012"><a xlink:href="SceneViewPanel_8cpp.html" target="_top" xlink:title=" ">
<polygon fill="white" stroke="#666666" points="953.5,-41 789.5,-41 789.5,0 953.5,0 953.5,-41"/>
<text text-anchor="start" x="797.5" y="-29" font-family="Helvetica,sans-Serif" font-size="10.00">Engine/Source/Editor</text>
<text text-anchor="start" x="797.5" y="-18" font-family="Helvetica,sans-Serif" font-size="10.00">/Panels/SceneView/SceneView</text>
<text text-anchor="middle" x="871.5" y="-7" font-family="Helvetica,sans-Serif" font-size="10.00">Panel.cpp</text>
</a>
</g>
</g>
<!-- Node6&#45;&gt;Node12 -->
<g id="edge11_Node000006_Node000012" class="edge">
<title>Node6&#45;&gt;Node12</title>
<g id="a_edge11_Node000006_Node000012"><a xlink:title=" ">
<path fill="none" stroke="#63b8ff" d="M1134.71,-85.59C1086.85,-73.94 1009.99,-55.22 951.65,-41.02"/>
<polygon fill="#63b8ff" stroke="#63b8ff" points="1133.92,-89 1144.47,-87.97 1135.58,-82.2 1133.92,-89"/>
</a>
</g>
</g>
<!-- Node13 -->
<g id="Node000013" class="node">
<title>Node13</title>
<g id="a_Node000013"><a xlink:href="EditorFileSystem_8cpp.html" target="_top" xlink:title="EditorFileSystemの実装。">
<polygon fill="white" stroke="#666666" points="1255.5,-35.5 1107.5,-35.5 1107.5,-5.5 1255.5,-5.5 1255.5,-35.5"/>
<text text-anchor="start" x="1115.5" y="-23.5" font-family="Helvetica,sans-Serif" font-size="10.00">Engine/Source/Editor</text>
<text text-anchor="middle" x="1181.5" y="-12.5" font-family="Helvetica,sans-Serif" font-size="10.00">/Utils/EditorFileSystem.cpp</text>
</a>
</g>
</g>
<!-- Node6&#45;&gt;Node13 -->
<g id="edge12_Node000006_Node000013" class="edge">
<title>Node6&#45;&gt;Node13</title>
<g id="a_edge12_Node000006_Node000013"><a xlink:title=" ">
<path fill="none" stroke="#63b8ff" d="M1180,-77.7C1180.35,-64.64 1180.81,-47.51 1181.12,-35.61"/>
<polygon fill="#63b8ff" stroke="#63b8ff" points="1176.5,-77.81 1179.73,-87.9 1183.49,-77.99 1176.5,-77.81"/>
</a>
</g>
</g>
<!-- Node14 -->
<g id="Node000014" class="node">
<title>Node14</title>
<g id="a_Node000014"><a xlink:href="Application_8cpp.html" target="_top" xlink:title=" ">
<polygon fill="white" stroke="#666666" points="1889.5,-35.5 1759.5,-35.5 1759.5,-5.5 1889.5,-5.5 1889.5,-35.5"/>
<text text-anchor="start" x="1767.5" y="-23.5" font-family="Helvetica,sans-Serif" font-size="10.00">Engine/Source/Runtime</text>
<text text-anchor="middle" x="1824.5" y="-12.5" font-family="Helvetica,sans-Serif" font-size="10.00">/Application.cpp</text>
</a>
</g>
</g>
<!-- Node6&#45;&gt;Node14 -->
<g id="edge13_Node000006_Node000014" class="edge">
<title>Node6&#45;&gt;Node14</title>
<g id="a_edge13_Node000006_Node000014"><a xlink:title=" ">
<path fill="none" stroke="#63b8ff" d="M1267.45,-92.35C1380.1,-86.02 1581.04,-71.36 1750.5,-41 1758.74,-39.52 1767.4,-37.59 1775.79,-35.52"/>
<polygon fill="#63b8ff" stroke="#63b8ff" points="1266.95,-88.87 1257.16,-92.92 1267.34,-95.86 1266.95,-88.87"/>
</a>
</g>
</g>
<!-- Node15 -->
<g id="Node000015" class="node">
<title>Node15</title>
<g id="a_Node000015"><a xlink:href="AssetRegistry_8cpp.html" target="_top" xlink:title="AssetRegistryの実装。">
<polygon fill="white" stroke="#666666" points="1427.5,-35.5 1273.5,-35.5 1273.5,-5.5 1427.5,-5.5 1427.5,-35.5"/>
<text text-anchor="start" x="1281.5" y="-23.5" font-family="Helvetica,sans-Serif" font-size="10.00">Engine/Source/Runtime</text>
<text text-anchor="middle" x="1350.5" y="-12.5" font-family="Helvetica,sans-Serif" font-size="10.00">/Resource/AssetRegistry.cpp</text>
</a>
</g>
</g>
<!-- Node6&#45;&gt;Node15 -->
<g id="edge14_Node000006_Node000015" class="edge">
<title>Node6&#45;&gt;Node15</title>
<g id="a_edge14_Node000006_Node000015"><a xlink:title=" ">
<path fill="none" stroke="#63b8ff" d="M1208.35,-83.85C1238.79,-70.49 1286.67,-49.49 1318.32,-35.61"/>
<polygon fill="#63b8ff" stroke="#63b8ff" points="1206.87,-80.67 1199.12,-87.9 1209.68,-87.09 1206.87,-80.67"/>
</a>
</g>
</g>
<!-- Node16 -->
<g id="Node000016" class="node">
<title>Node16</title>
<g id="a_Node000016"><a xlink:href="AssetSerializer_8cpp.html" target="_top" xlink:title="AssetSerializerの実装。">
<polygon fill="white" stroke="#666666" points="1605.5,-35.5 1445.5,-35.5 1445.5,-5.5 1605.5,-5.5 1605.5,-35.5"/>
<text text-anchor="start" x="1453.5" y="-23.5" font-family="Helvetica,sans-Serif" font-size="10.00">Engine/Source/Runtime</text>
<text text-anchor="middle" x="1525.5" y="-12.5" font-family="Helvetica,sans-Serif" font-size="10.00">/Resource/AssetSerializer.cpp</text>
</a>
</g>
</g>
<!-- Node6&#45;&gt;Node16 -->
<g id="edge15_Node000006_Node000016" class="edge">
<title>Node6&#45;&gt;Node16</title>
<g id="a_edge15_Node000006_Node000016"><a xlink:title=" ">
<path fill="none" stroke="#63b8ff" d="M1229.05,-85.85C1280.81,-74.71 1364.37,-56.69 1436.5,-41 1444.54,-39.25 1452.98,-37.41 1461.34,-35.58"/>
<polygon fill="#63b8ff" stroke="#63b8ff" points="1228.17,-82.45 1219.13,-87.98 1229.64,-89.3 1228.17,-82.45"/>
</a>
</g>
</g>
<!-- Node17 -->
<g id="Node000017" class="node">
<title>Node17</title>
<g id="a_Node000017"><a xlink:href="SceneSerializer_8cpp.html" target="_top" xlink:title="SceneSerializerの実装。">
<polygon fill="white" stroke="#666666" points="2068.5,-35.5 1922.5,-35.5 1922.5,-5.5 2068.5,-5.5 2068.5,-35.5"/>
<text text-anchor="start" x="1930.5" y="-23.5" font-family="Helvetica,sans-Serif" font-size="10.00">Engine/Source/Runtime</text>
<text text-anchor="middle" x="1995.5" y="-12.5" font-family="Helvetica,sans-Serif" font-size="10.00">/Scene/SceneSerializer.cpp</text>
</a>
</g>
</g>
<!-- Node6&#45;&gt;Node17 -->
<g id="edge16_Node000006_Node000017" class="edge">
<title>Node6&#45;&gt;Node17</title>
<g id="a_edge16_Node000006_Node000017"><a xlink:title=" ">
<path fill="none" stroke="#63b8ff" d="M1267.59,-93.15C1403.51,-87.2 1672.33,-72.34 1898.5,-41 1909.22,-39.51 1920.54,-37.58 1931.51,-35.51"/>
<polygon fill="#63b8ff" stroke="#63b8ff" points="1267.08,-89.67 1257.24,-93.59 1267.38,-96.66 1267.08,-89.67"/>
</a>
</g>
</g>
<!-- Node18&#45;&gt;Node2 -->
<g id="edge44_Node000018_Node000002" class="edge">
<title>Node18&#45;&gt;Node2</title>
<g id="a_edge44_Node000018_Node000002"><a xlink:title=" ">
<path fill="none" stroke="#63b8ff" d="M635.11,-297.45C575.52,-286.73 492.64,-271.83 432.41,-261.01"/>
<polygon fill="#63b8ff" stroke="#63b8ff" points="634.74,-300.94 645.2,-299.26 635.98,-294.05 634.74,-300.94"/>
</a>
</g>
</g>
<!-- Node18&#45;&gt;Node4 -->
<g id="edge45_Node000018_Node000004" class="edge">
<title>Node18&#45;&gt;Node4</title>
<g id="a_edge45_Node000018_Node000004"><a xlink:title=" ">
<path fill="none" stroke="#63b8ff" d="M635.1,-302.96C589.79,-296.06 531.92,-283.5 484.5,-261 465.06,-251.78 465.58,-240.95 446.5,-231 434.41,-224.69 362.71,-203.8 312.47,-189.53"/>
<polygon fill="#63b8ff" stroke="#63b8ff" points="634.75,-306.45 645.15,-304.43 635.76,-299.52 634.75,-306.45"/>
</a>
</g>
</g>
<!-- Node18&#45;&gt;Node5 -->
<g id="edge46_Node000018_Node000005" class="edge">
<title>Node18&#45;&gt;Node5</title>
<g id="a_edge46_Node000018_Node000005"><a xlink:title=" ">
<path fill="none" stroke="#63b8ff" d="M785.68,-306.66C852.8,-301.02 943.91,-288.43 966.5,-261 990.07,-232.38 950.74,-209.77 909.48,-195.01"/>
<polygon fill="#63b8ff" stroke="#63b8ff" points="785.23,-303.18 775.54,-307.47 785.79,-310.16 785.23,-303.18"/>
</a>
</g>
</g>
<!-- Node18&#45;&gt;Node6 -->
<g id="edge47_Node000018_Node000006" class="edge">
<title>Node18&#45;&gt;Node6</title>
<g id="a_edge47_Node000018_Node000006"><a xlink:title=" ">
<path fill="none" stroke="#63b8ff" d="M708.61,-286.36C707.41,-251.31 711,-187.61 748.5,-154 774.27,-130.9 984.55,-112.4 1101.58,-103.77"/>
<polygon fill="#63b8ff" stroke="#63b8ff" points="705.13,-286.84 709.13,-296.66 712.12,-286.49 705.13,-286.84"/>
</a>
</g>
</g>
<!-- Node19 -->
<g id="Node000019" class="node">
<title>Node19</title>
<g id="a_Node000019"><a xlink:href="GuiManager_8h.html" target="_top" xlink:title="ImGuiのライフサイクルとレンダリング管理。">
<polygon fill="white" stroke="#666666" points="701,-189.5 584,-189.5 584,-159.5 701,-159.5 701,-189.5"/>
<text text-anchor="start" x="592" y="-177.5" font-family="Helvetica,sans-Serif" font-size="10.00">Engine/Source/Editor</text>
<text text-anchor="middle" x="642.5" y="-166.5" font-family="Helvetica,sans-Serif" font-size="10.00">/GuiManager.h</text>
</a>
</g>
</g>
<!-- Node18&#45;&gt;Node19 -->
<g id="edge18_Node000018_Node000019" class="edge">
<title>Node18&#45;&gt;Node19</title>
<g id="a_edge18_Node000018_Node000019"><a xlink:title=" ">
<path fill="none" stroke="#63b8ff" d="M699.76,-287.55C692.31,-271.52 682.06,-249.85 672.5,-231 665.26,-216.74 656.52,-200.69 650.35,-189.54"/>
<polygon fill="#63b8ff" stroke="#63b8ff" points="696.62,-289.12 703.99,-296.73 702.98,-286.18 696.62,-289.12"/>
</a>
</g>
</g>
<!-- Node21 -->
<g id="Node000021" class="node">
<title>Node21</title>
<g id="a_Node000021"><a xlink:href="MaterialPreviewer_8h.html" target="_top" xlink:title="マテリアルプレビュー用のオフスクリーンレンダリング管理。">
<polygon fill="white" stroke="#666666" points="957.5,-261 757.5,-261 757.5,-231 957.5,-231 957.5,-261"/>
<text text-anchor="start" x="765.5" y="-249" font-family="Helvetica,sans-Serif" font-size="10.00">Engine/Source/Editor</text>
<text text-anchor="middle" x="857.5" y="-238" font-family="Helvetica,sans-Serif" font-size="10.00">/Panels/Inspector/MaterialPreviewer.h</text>
</a>
</g>
</g>
<!-- Node18&#45;&gt;Node21 -->
<g id="edge26_Node000018_Node000021" class="edge">
<title>Node18&#45;&gt;Node21</title>
<g id="a_edge26_Node000018_Node000021"><a xlink:title=" ">
<path fill="none" stroke="#63b8ff" d="M752.03,-292.92C775.26,-282.8 803.79,-270.38 825.32,-261.01"/>
<polygon fill="#63b8ff" stroke="#63b8ff" points="750.53,-289.75 742.76,-296.95 753.33,-296.17 750.53,-289.75"/>
</a>
</g>
</g>
<!-- Node24 -->
<g id="Node000024" class="node">
<title>Node24</title>
<g id="a_Node000024"><a xlink:href="Application_8h.html" target="_top" xlink:title="エンジンのメインループとライフサイクル管理。">
<polygon fill="white" stroke="#666666" points="1283.5,-261 1153.5,-261 1153.5,-231 1283.5,-231 1283.5,-261"/>
<text text-anchor="start" x="1161.5" y="-249" font-family="Helvetica,sans-Serif" font-size="10.00">Engine/Source/Runtime</text>
<text text-anchor="middle" x="1218.5" y="-238" font-family="Helvetica,sans-Serif" font-size="10.00">/Application.h</text>
</a>
</g>
</g>
<!-- Node18&#45;&gt;Node24 -->
<g id="edge30_Node000018_Node000024" class="edge">
<title>Node18&#45;&gt;Node24</title>
<g id="a_edge30_Node000018_Node000024"><a xlink:title=" ">
<path fill="none" stroke="#63b8ff" d="M785.6,-301.54C885.11,-289 1059.04,-267.09 1153.3,-255.21"/>
<polygon fill="#63b8ff" stroke="#63b8ff" points="785.1,-298.07 775.61,-302.8 785.97,-305.02 785.1,-298.07"/>
</a>
</g>
</g>
<!-- Node29 -->
<g id="Node000029" class="node">
<title>Node29</title>
<g id="a_Node000029"><a xlink:href="ShadowPass_8h.html" target="_top" xlink:title="シャドウ生成パス (Directional / Spot Light 兼用・Array対応版)">
<polygon fill="white" stroke="#666666" points="663.5,-261 493.5,-261 493.5,-231 663.5,-231 663.5,-261"/>
<text text-anchor="start" x="501.5" y="-249" font-family="Helvetica,sans-Serif" font-size="10.00">Engine/Source/Runtime</text>
<text text-anchor="middle" x="578.5" y="-238" font-family="Helvetica,sans-Serif" font-size="10.00">/Graphics/Passes/ShadowPass.h</text>
</a>
</g>
</g>
<!-- Node18&#45;&gt;Node29 -->
<g id="edge40_Node000018_Node000029" class="edge">
<title>Node18&#45;&gt;Node29</title>
<g id="a_edge40_Node000018_Node000029"><a xlink:title=" ">
<path fill="none" stroke="#63b8ff" d="M672.37,-292.51C651.66,-282.47 626.47,-270.26 607.4,-261.01"/>
<polygon fill="#63b8ff" stroke="#63b8ff" points="671.01,-295.74 681.53,-296.95 674.06,-289.44 671.01,-295.74"/>
</a>
</g>
</g>
<!-- Node19&#45;&gt;Node7 -->
<g id="edge19_Node000019_Node000007" class="edge">
<title>Node19&#45;&gt;Node7</title>
<g id="a_edge19_Node000019_Node000007"><a xlink:title=" ">
<path fill="none" stroke="#63b8ff" d="M687.85,-155.73C765.78,-125.2 923.54,-63.4 994.5,-35.6"/>
<polygon fill="#63b8ff" stroke="#63b8ff" points="686.34,-152.57 678.31,-159.47 688.89,-159.08 686.34,-152.57"/>
</a>
</g>
</g>
<!-- Node19&#45;&gt;Node14 -->
<g id="edge20_Node000019_Node000014" class="edge">
<title>Node19&#45;&gt;Node14</title>
<g id="a_edge20_Node000019_Node000014"><a xlink:title=" ">
<path fill="none" stroke="#63b8ff" d="M711.04,-159.73C723.47,-157.56 736.34,-155.54 748.5,-154 977.46,-125.08 1037.21,-144.15 1266.5,-118 1482.91,-93.31 1537.37,-85.92 1750.5,-41 1758.04,-39.41 1765.96,-37.54 1773.71,-35.6"/>
<polygon fill="#63b8ff" stroke="#63b8ff" points="710.42,-156.28 701.19,-161.49 711.65,-163.17 710.42,-156.28"/>
</a>
</g>
</g>
<!-- Node20 -->
<g id="Node000020" class="node">
<title>Node20</title>
<g id="a_Node000020"><a xlink:href="SpanEditor_8h.html" target="_top" xlink:title=" ">
<polygon fill="white" stroke="#666666" points="717,-107 568,-107 568,-88 717,-88 717,-107"/>
<text text-anchor="middle" x="642.5" y="-95" font-family="Helvetica,sans-Serif" font-size="10.00">Engine/Source/SpanEditor.h</text>
</a>
</g>
</g>
<!-- Node19&#45;&gt;Node20 -->
<g id="edge21_Node000019_Node000020" class="edge">
<title>Node19&#45;&gt;Node20</title>
<g id="a_edge21_Node000019_Node000020"><a xlink:title=" ">
<path fill="none" stroke="#63b8ff" d="M642.5,-149.18C642.5,-134.86 642.5,-117.61 642.5,-107.37"/>
<polygon fill="#63b8ff" stroke="#63b8ff" points="639,-149.39 642.5,-159.39 646,-149.39 639,-149.39"/>
</a>
</g>
</g>
<!-- Node20&#45;&gt;Node9 -->
<g id="edge22_Node000020_Node000009" class="edge">
<title>Node20&#45;&gt;Node9</title>
<g id="a_edge22_Node000020_Node000009"><a xlink:title=" ">
<path fill="none" stroke="#63b8ff" d="M622.19,-82C605.95,-70.39 583,-54 565.09,-41.21"/>
<polygon fill="#63b8ff" stroke="#63b8ff" points="620.28,-84.93 630.46,-87.9 624.35,-79.24 620.28,-84.93"/>
</a>
</g>
</g>
<!-- Node20&#45;&gt;Node10 -->
<g id="edge23_Node000020_Node000010" class="edge">
<title>Node20&#45;&gt;Node10</title>
<g id="a_edge23_Node000020_Node000010"><a xlink:title=" ">
<path fill="none" stroke="#63b8ff" d="M601.73,-85.3C559.24,-73.63 491.82,-55.1 440.55,-41.02"/>
<polygon fill="#63b8ff" stroke="#63b8ff" points="600.88,-88.7 611.45,-87.97 602.73,-81.95 600.88,-88.7"/>
</a>
</g>
</g>
<!-- Node20&#45;&gt;Node11 -->
<g id="edge24_Node000020_Node000011" class="edge">
<title>Node20&#45;&gt;Node11</title>
<g id="a_edge24_Node000020_Node000011"><a xlink:title=" ">
<path fill="none" stroke="#63b8ff" d="M655.47,-80.02C664.46,-68.58 676.49,-53.29 686,-41.21"/>
<polygon fill="#63b8ff" stroke="#63b8ff" points="652.7,-77.87 649.27,-87.9 658.2,-82.2 652.7,-77.87"/>
</a>
</g>
</g>
<!-- Node20&#45;&gt;Node12 -->
<g id="edge25_Node000020_Node000012" class="edge">
<title>Node20&#45;&gt;Node12</title>
<g id="a_edge25_Node000020_Node000012"><a xlink:title=" ">
<path fill="none" stroke="#63b8ff" d="M678.28,-84.78C713.97,-73.09 769.43,-54.93 811.8,-41.05"/>
<polygon fill="#63b8ff" stroke="#63b8ff" points="677.18,-81.46 668.77,-87.9 679.36,-88.11 677.18,-81.46"/>
</a>
</g>
</g>
<!-- Node22 -->
<g id="Node000022" class="node">
<title>Node22</title>
<g id="a_Node000022"><a xlink:href="InspectorPanel_8h.html" target="_top" xlink:title="エンティティの詳細情報表示パネル。">
<polygon fill="white" stroke="#666666" points="509,-118 362,-118 362,-77 509,-77 509,-118"/>
<text text-anchor="start" x="370" y="-106" font-family="Helvetica,sans-Serif" font-size="10.00">Engine/Source/Editor</text>
<text text-anchor="start" x="370" y="-95" font-family="Helvetica,sans-Serif" font-size="10.00">/Panels/Inspector/Inspector</text>
<text text-anchor="middle" x="435.5" y="-84" font-family="Helvetica,sans-Serif" font-size="10.00">Panel.h</text>
</a>
</g>
</g>
<!-- Node21&#45;&gt;Node22 -->
<g id="edge27_Node000021_Node000022" class="edge">
<title>Node21&#45;&gt;Node22</title>
<g id="a_edge27_Node000021_Node000022"><a xlink:title=" ">
<path fill="none" stroke="#63b8ff" d="M747.2,-241.5C692.83,-235.89 627.87,-223.13 575.5,-195 553.34,-183.1 556.42,-169.35 536.5,-154 518.59,-140.2 496.81,-127.77 478.07,-118.19"/>
<polygon fill="#63b8ff" stroke="#63b8ff" points="746.93,-244.99 757.22,-242.47 747.61,-238.03 746.93,-244.99"/>
</a>
</g>
</g>
<!-- Node23 -->
<g id="Node000023" class="node">
<title>Node23</title>
<g id="a_Node000023"><a xlink:href="MaterialPreviewer_8cpp.html" target="_top" xlink:title="MaterialPreviewerの実装。">
<polygon fill="white" stroke="#666666" points="1147,-189.5 936,-189.5 936,-159.5 1147,-159.5 1147,-189.5"/>
<text text-anchor="start" x="944" y="-177.5" font-family="Helvetica,sans-Serif" font-size="10.00">Engine/Source/Editor</text>
<text text-anchor="middle" x="1041.5" y="-166.5" font-family="Helvetica,sans-Serif" font-size="10.00">/Panels/Inspector/MaterialPreviewer.cpp</text>
</a>
</g>
</g>
<!-- Node21&#45;&gt;Node23 -->
<g id="edge29_Node000021_Node000023" class="edge">
<title>Node21&#45;&gt;Node23</title>
<g id="a_edge29_Node000021_Node000023"><a xlink:title=" ">
<path fill="none" stroke="#63b8ff" d="M904.46,-227.26C935.46,-215.55 975.53,-200.42 1004.32,-189.54"/>
<polygon fill="#63b8ff" stroke="#63b8ff" points="902.85,-224.13 894.74,-230.94 905.33,-230.68 902.85,-224.13"/>
</a>
</g>
</g>
<!-- Node22&#45;&gt;Node10 -->
<g id="edge28_Node000022_Node000010" class="edge">
<title>Node22&#45;&gt;Node10</title>
<g id="a_edge28_Node000022_Node000010"><a xlink:title=" ">
<path fill="none" stroke="#63b8ff" d="M411.51,-69.23C403.3,-59.91 394.29,-49.67 386.72,-41.07"/>
<polygon fill="#63b8ff" stroke="#63b8ff" points="408.93,-71.6 418.16,-76.79 414.18,-66.98 408.93,-71.6"/>
</a>
</g>
</g>
<!-- Node24&#45;&gt;Node5 -->
<g id="edge38_Node000024_Node000005" class="edge">
<title>Node24&#45;&gt;Node5</title>
<g id="a_edge38_Node000024_Node000005"><a xlink:title=" ">
<path fill="none" stroke="#63b8ff" d="M1143.39,-233.01C1084.53,-223.39 1000.64,-209.2 927.5,-195 924.36,-194.39 921.16,-193.76 917.94,-193.11"/>
<polygon fill="#63b8ff" stroke="#63b8ff" points="1142.91,-236.48 1153.34,-234.63 1144.03,-229.57 1142.91,-236.48"/>
</a>
</g>
</g>
<!-- Node24&#45;&gt;Node6 -->
<g id="edge39_Node000024_Node000006" class="edge">
<title>Node24&#45;&gt;Node6</title>
<g id="a_edge39_Node000024_Node000006"><a xlink:title=" ">
<path fill="none" stroke="#63b8ff" d="M1206.31,-221.9C1202.36,-213.61 1198.28,-204.06 1195.5,-195 1185.84,-163.5 1181.63,-124.33 1180.16,-107.2"/>
<polygon fill="#63b8ff" stroke="#63b8ff" points="1203.23,-223.56 1210.81,-230.96 1209.5,-220.45 1203.23,-223.56"/>
</a>
</g>
</g>
<!-- Node24&#45;&gt;Node14 -->
<g id="edge34_Node000024_Node000014" class="edge">
<title>Node24&#45;&gt;Node14</title>
<g id="a_edge34_Node000024_Node000014"><a xlink:title=" ">
<path fill="none" stroke="#63b8ff" d="M1293.84,-242.12C1465.11,-235.2 1870.44,-216.61 1890.5,-195 1934.57,-147.53 1868.75,-67.64 1838.43,-35.51"/>
<polygon fill="#63b8ff" stroke="#63b8ff" points="1293.5,-238.63 1283.64,-242.53 1293.78,-245.62 1293.5,-238.63"/>
</a>
</g>
</g>
<!-- Node24&#45;&gt;Node23 -->
<g id="edge32_Node000024_Node000023" class="edge">
<title>Node24&#45;&gt;Node23</title>
<g id="a_edge32_Node000024_Node000023"><a xlink:title=" ">
<path fill="none" stroke="#63b8ff" d="M1173.33,-227.26C1143.5,-215.55 1104.96,-200.42 1077.27,-189.54"/>
<polygon fill="#63b8ff" stroke="#63b8ff" points="1172.09,-230.54 1182.68,-230.94 1174.65,-224.02 1172.09,-230.54"/>
</a>
</g>
</g>
<!-- Node25 -->
<g id="Node000025" class="node">
<title>Node25</title>
<g id="a_Node000025"><a xlink:href="EnvironmentPanel_8cpp.html" target="_top" xlink:title="EnvironmentPanelの実装。">
<polygon fill="white" stroke="#666666" points="1881.5,-195 1699.5,-195 1699.5,-154 1881.5,-154 1881.5,-195"/>
<text text-anchor="start" x="1707.5" y="-183" font-family="Helvetica,sans-Serif" font-size="10.00">Engine/Source/Editor</text>
<text text-anchor="start" x="1707.5" y="-172" font-family="Helvetica,sans-Serif" font-size="10.00">/Panels/Environment/Environment</text>
<text text-anchor="middle" x="1790.5" y="-161" font-family="Helvetica,sans-Serif" font-size="10.00">Panel.cpp</text>
</a>
</g>
</g>
<!-- Node24&#45;&gt;Node25 -->
<g id="edge31_Node000024_Node000025" class="edge">
<title>Node24&#45;&gt;Node25</title>
<g id="a_edge31_Node000024_Node000025"><a xlink:title=" ">
<path fill="none" stroke="#63b8ff" d="M1293.82,-239.06C1387.2,-231.22 1551.08,-215.94 1690.5,-195 1693.39,-194.57 1696.32,-194.11 1699.27,-193.63"/>
<polygon fill="#63b8ff" stroke="#63b8ff" points="1293.3,-235.59 1283.62,-239.91 1293.88,-242.56 1293.3,-235.59"/>
</a>
</g>
</g>
<!-- Node26 -->
<g id="Node000026" class="node">
<title>Node26</title>
<g id="a_Node000026"><a xlink:href="FileDialog_8cpp.html" target="_top" xlink:title="FileDialogの実装">
<polygon fill="white" stroke="#666666" points="1321,-189.5 1204,-189.5 1204,-159.5 1321,-159.5 1321,-189.5"/>
<text text-anchor="start" x="1212" y="-177.5" font-family="Helvetica,sans-Serif" font-size="10.00">Engine/Source/Editor</text>
<text text-anchor="middle" x="1262.5" y="-166.5" font-family="Helvetica,sans-Serif" font-size="10.00">/Utils/FileDialog.cpp</text>
</a>
</g>
</g>
<!-- Node24&#45;&gt;Node26 -->
<g id="edge33_Node000024_Node000026" class="edge">
<title>Node24&#45;&gt;Node26</title>
<g id="a_edge33_Node000024_Node000026"><a xlink:title=" ">
<path fill="none" stroke="#63b8ff" d="M1232.82,-222.38C1239.67,-211.57 1247.65,-198.96 1253.61,-189.54"/>
<polygon fill="#63b8ff" stroke="#63b8ff" points="1229.8,-220.61 1227.4,-230.94 1235.71,-224.36 1229.8,-220.61"/>
</a>
</g>
</g>
<!-- Node27 -->
<g id="Node000027" class="node">
<title>Node27</title>
<g id="a_Node000027"><a xlink:href="EntryPoint_8h.html" target="_top" xlink:title="アプリケーションのエントリーポイント (main関数)。">
<polygon fill="white" stroke="#666666" points="1469.5,-189.5 1339.5,-189.5 1339.5,-159.5 1469.5,-159.5 1469.5,-189.5"/>
<text text-anchor="start" x="1347.5" y="-177.5" font-family="Helvetica,sans-Serif" font-size="10.00">Engine/Source/Runtime</text>
<text text-anchor="middle" x="1404.5" y="-166.5" font-family="Helvetica,sans-Serif" font-size="10.00">/EntryPoint.h</text>
</a>
</g>
</g>
<!-- Node24&#45;&gt;Node27 -->
<g id="edge35_Node000024_Node000027" class="edge">
<title>Node24&#45;&gt;Node27</title>
<g id="a_edge35_Node000024_Node000027"><a xlink:title=" ">
<path fill="none" stroke="#63b8ff" d="M1265.56,-227.42C1296.96,-215.68 1337.69,-200.47 1366.92,-189.54"/>
<polygon fill="#63b8ff" stroke="#63b8ff" points="1264.28,-224.16 1256.14,-230.94 1266.73,-230.71 1264.28,-224.16"/>
</a>
</g>
</g>
<!-- Node28 -->
<g id="Node000028" class="node">
<title>Node28</title>
<g id="a_Node000028"><a xlink:href="CameraSystem_8h.html" target="_top" xlink:title="カメラ行列の更新とレンダラーへの適用。">
<polygon fill="white" stroke="#666666" points="1681.5,-189.5 1487.5,-189.5 1487.5,-159.5 1681.5,-159.5 1681.5,-189.5"/>
<text text-anchor="start" x="1495.5" y="-177.5" font-family="Helvetica,sans-Serif" font-size="10.00">Engine/Source/Runtime</text>
<text text-anchor="middle" x="1584.5" y="-166.5" font-family="Helvetica,sans-Serif" font-size="10.00">/Systems/Graphics/CameraSystem.h</text>
</a>
</g>
</g>
<!-- Node24&#45;&gt;Node28 -->
<g id="edge36_Node000024_Node000028" class="edge">
<title>Node24&#45;&gt;Node28</title>
<g id="a_edge36_Node000024_Node000028"><a xlink:title=" ">
<path fill="none" stroke="#63b8ff" d="M1293.46,-230.77C1356.96,-218.71 1447.48,-201.52 1510.65,-189.52"/>
<polygon fill="#63b8ff" stroke="#63b8ff" points="1292.68,-227.35 1283.51,-232.65 1293.99,-234.23 1292.68,-227.35"/>
</a>
</g>
</g>
<!-- Node28&#45;&gt;Node6 -->
<g id="edge37_Node000028_Node000006" class="edge">
<title>Node28&#45;&gt;Node6</title>
<g id="a_edge37_Node000028_Node000006"><a xlink:title=" ">
<path fill="none" stroke="#63b8ff" d="M1498.83,-157.64C1415.43,-142.19 1291.85,-119.3 1225.53,-107.02"/>
<polygon fill="#63b8ff" stroke="#63b8ff" points="1498.33,-161.1 1508.8,-159.48 1499.6,-154.22 1498.33,-161.1"/>
</a>
</g>
</g>
<!-- Node29&#45;&gt;Node4 -->
<g id="edge42_Node000029_Node000004" class="edge">
<title>Node29&#45;&gt;Node4</title>
<g id="a_edge42_Node000029_Node000004"><a xlink:title=" ">
<path fill="none" stroke="#63b8ff" d="M495.38,-228.98C448.57,-219.67 389.13,-207.36 336.5,-195 329.39,-193.33 321.91,-191.48 314.56,-189.6"/>
<polygon fill="#63b8ff" stroke="#63b8ff" points="494.98,-232.47 505.47,-230.98 496.34,-225.6 494.98,-232.47"/>
</a>
</g>
</g>
<!-- Node29&#45;&gt;Node5 -->
<g id="edge43_Node000029_Node000005" class="edge">
<title>Node29&#45;&gt;Node5</title>
<g id="a_edge43_Node000029_Node000005"><a xlink:title=" ">
<path fill="none" stroke="#63b8ff" d="M640.64,-228.32C677.92,-218.32 725.51,-205.55 764.56,-195.07"/>
<polygon fill="#63b8ff" stroke="#63b8ff" points="639.66,-224.96 630.91,-230.94 641.48,-231.72 639.66,-224.96"/>
</a>
</g>
</g>
<!-- Node30 -->
<g id="Node000030" class="node">
<title>Node30</title>
<g id="a_Node000030"><a xlink:href="ShadowPass_8cpp.html" target="_top" xlink:title="ShadowPassの実装。">
<polygon fill="white" stroke="#666666" points="527.5,-189.5 345.5,-189.5 345.5,-159.5 527.5,-159.5 527.5,-189.5"/>
<text text-anchor="start" x="353.5" y="-177.5" font-family="Helvetica,sans-Serif" font-size="10.00">Engine/Source/Runtime</text>
<text text-anchor="middle" x="436.5" y="-166.5" font-family="Helvetica,sans-Serif" font-size="10.00">/Graphics/Passes/ShadowPass.cpp</text>
</a>
</g>
</g>
<!-- Node29&#45;&gt;Node30 -->
<g id="edge41_Node000029_Node000030" class="edge">
<title>Node29&#45;&gt;Node30</title>
<g id="a_edge41_Node000029_Node000030"><a xlink:title=" ">
<path fill="none" stroke="#63b8ff" d="M540.7,-226.5C517,-214.9 486.93,-200.18 465.19,-189.54"/>
<polygon fill="#63b8ff" stroke="#63b8ff" points="539.24,-229.68 549.76,-230.94 542.32,-223.4 539.24,-229.68"/>
</a>
</g>
</g>
<!-- Node31&#45;&gt;Node5 -->
<g id="edge53_Node000031_Node000005" class="edge">
<title>Node31&#45;&gt;Node5</title>
<g id="a_edge53_Node000031_Node000005"><a xlink:title=" ">
<path fill="none" stroke="#63b8ff" d="M1119.14,-292.46C1084.11,-275.74 1030.72,-250.81 983.5,-231 953.37,-218.36 919.25,-205.33 891.58,-195.06"/>
<polygon fill="#63b8ff" stroke="#63b8ff" points="1117.99,-295.78 1128.52,-296.94 1121.01,-289.47 1117.99,-295.78"/>
</a>
</g>
</g>
<!-- Node31&#45;&gt;Node24 -->
<g id="edge49_Node000031_Node000024" class="edge">
<title>Node31&#45;&gt;Node24</title>
<g id="a_edge49_Node000031_Node000024"><a xlink:title=" ">
<path fill="none" stroke="#63b8ff" d="M1178.12,-289.37C1186.99,-280.06 1197.11,-269.44 1205,-261.16"/>
<polygon fill="#63b8ff" stroke="#63b8ff" points="1175.4,-287.14 1171.04,-296.8 1180.47,-291.97 1175.4,-287.14"/>
</a>
</g>
</g>
<!-- Node32 -->
<g id="Node000032" class="node">
<title>Node32</title>
<g id="a_Node000032"><a xlink:href="SceneSerializer_8h.html" target="_top" xlink:title="ECSワールド(シーン)のデータをJSON形式で保存・読み込みするクラス。">
<polygon fill="white" stroke="#666666" points="2073,-189.5 1938,-189.5 1938,-159.5 2073,-159.5 2073,-189.5"/>
<text text-anchor="start" x="1946" y="-177.5" font-family="Helvetica,sans-Serif" font-size="10.00">Engine/Source/Runtime</text>
<text text-anchor="middle" x="2005.5" y="-166.5" font-family="Helvetica,sans-Serif" font-size="10.00">/Scene/SceneSerializer.h</text>
</a>
</g>
</g>
<!-- Node31&#45;&gt;Node32 -->
<g id="edge50_Node000031_Node000032" class="edge">
<title>Node31&#45;&gt;Node32</title>
<g id="a_edge50_Node000031_Node000032"><a xlink:title=" ">
<path fill="none" stroke="#63b8ff" d="M1232.65,-301.73C1370.29,-284.28 1671.84,-243.89 1923.5,-195 1931.83,-193.38 1940.6,-191.5 1949.17,-189.55"/>
<polygon fill="#63b8ff" stroke="#63b8ff" points="1232.11,-298.27 1222.63,-303 1232.99,-305.21 1232.11,-298.27"/>
</a>
</g>
</g>
<!-- Node32&#45;&gt;Node6 -->
<g id="edge52_Node000032_Node000006" class="edge">
<title>Node32&#45;&gt;Node6</title>
<g id="a_edge52_Node000032_Node000006"><a xlink:title=" ">
<path fill="none" stroke="#63b8ff" d="M1927.92,-159.37C1915.44,-157.38 1902.63,-155.5 1890.5,-154 1661.02,-125.65 1387.99,-109.13 1257.06,-102.26"/>
<polygon fill="#63b8ff" stroke="#63b8ff" points="1927.41,-162.83 1937.85,-160.99 1928.54,-155.92 1927.41,-162.83"/>
</a>
</g>
</g>
<!-- Node32&#45;&gt;Node17 -->
<g id="edge51_Node000032_Node000017" class="edge">
<title>Node32&#45;&gt;Node17</title>
<g id="a_edge51_Node000032_Node000017"><a xlink:title=" ">
<path fill="none" stroke="#63b8ff" d="M2003.9,-149.22C2001.8,-117.24 1998.17,-62.02 1996.45,-35.94"/>
<polygon fill="#63b8ff" stroke="#63b8ff" points="2000.43,-149.72 2004.58,-159.47 2007.41,-149.26 2000.43,-149.72"/>
</a>
</g>
</g>
</g>
</svg>
