<?xml version="1.0" encoding="UTF-8" standalone="no"?>
<!DOCTYPE svg PUBLIC "-//W3C//DTD SVG 1.1//EN"
 "http://www.w3.org/Graphics/SVG/1.1/DTD/svg11.dtd">
<!-- Generated by graphviz version 2.43.0 (0)
 -->
<!-- Title: Engine/Source/Core/Containers/FixedString.h Pages: 1 -->
<svg width="1433pt" height="456pt"
 viewBox="0.00 0.00 1432.57 456.00" xmlns="http://www.w3.org/2000/svg" xmlns:xlink="http://www.w3.org/1999/xlink">
<g id="graph0" class="graph" transform="scale(1 1) rotate(0) translate(4 452)">
<title>Engine/Source/Core/Containers/FixedString.h</title>
<!-- Node1 -->
<g id="Node000001" class="node">
<title>Node1</title>
<g id="a_Node000001"><a xlink:title="固定長文字列ラッパー (POD)">
<polygon fill="#999999" stroke="#666666" points="158.39,-448 20.39,-448 20.39,-418 158.39,-418 158.39,-448"/>
<text text-anchor="start" x="28.39" y="-436" font-family="Helvetica,sans-Serif" font-size="10.00">Engine/Source/Core</text>
<text text-anchor="middle" x="89.39" y="-425" font-family="Helvetica,sans-Serif" font-size="10.00">/Containers/FixedString.h</text>
</a>
</g>
</g>
<!-- Node2 -->
<g id="Node000002" class="node">
<title>Node2</title>
<g id="a_Node000002"><a xlink:href="Name_8h.html" target="_top" xlink:title="エンティティの名前">
<polygon fill="white" stroke="#666666" points="163.39,-310.5 15.39,-310.5 15.39,-280.5 163.39,-280.5 163.39,-310.5"/>
<text text-anchor="start" x="23.39" y="-298.5" font-family="Helvetica,sans-Serif" font-size="10.00">Engine/Source/Runtime</text>
<text text-anchor="middle" x="89.39" y="-287.5" font-family="Helvetica,sans-Serif" font-size="10.00">/Components/Core/Name.h</text>
</a>
</g>
</g>
<!-- Node1&#45;&gt;Node2 -->
<g id="edge1_Node000001_Node000002" class="edge">
<title>Node1&#45;&gt;Node2</title>
<g id="a_edge1_Node000001_Node000002"><a xlink:title=" ">
<path fill="none" stroke="#63b8ff" d="M89.39,-407.48C89.39,-379.14 89.39,-333.46 89.39,-310.55"/>
<polygon fill="#63b8ff" stroke="#63b8ff" points="85.9,-407.76 89.39,-417.76 92.9,-407.76 85.9,-407.76"/>
</a>
</g>
</g>
<!-- Node4 -->
<g id="Node000004" class="node">
<title>Node4</title>
<g id="a_Node000004"><a xlink:href="SpanEngine_8h.html" target="_top" xlink:title=" ">
<polygon fill="white" stroke="#666666" points="798.89,-162 643.89,-162 643.89,-143 798.89,-143 798.89,-162"/>
<text text-anchor="middle" x="721.39" y="-150" font-family="Helvetica,sans-Serif" font-size="10.00">Engine/Source/SpanEngine.h</text>
</a>
</g>
</g>
<!-- Node1&#45;&gt;Node4 -->
<g id="edge46_Node000001_Node000004" class="edge">
<title>Node1&#45;&gt;Node4</title>
<g id="a_edge46_Node000001_Node000004"><a xlink:title=" ">
<path fill="none" stroke="#63b8ff" d="M67.68,-410.61C47.36,-388.95 18.39,-353.38 6.39,-316 -11.06,-261.6 8,-226.7 57.39,-198 107,-169.18 479.35,-158.29 643.76,-154.86"/>
<polygon fill="#63b8ff" stroke="#63b8ff" points="65.27,-413.16 74.73,-417.94 70.32,-408.31 65.27,-413.16"/>
</a>
</g>
</g>
<!-- Node14 -->
<g id="Node000014" class="node">
<title>Node14</title>
<g id="a_Node000014"><a xlink:href="SpanReflection_8h.html" target="_top" xlink:title="コンポーネント定義用のリフレクションマクロ。">
<polygon fill="white" stroke="#666666" points="716.89,-382 563.89,-382 563.89,-352 716.89,-352 716.89,-382"/>
<text text-anchor="start" x="571.89" y="-370" font-family="Helvetica,sans-Serif" font-size="10.00">Engine/Source/Runtime</text>
<text text-anchor="middle" x="640.39" y="-359" font-family="Helvetica,sans-Serif" font-size="10.00">/Reflection/SpanReflection.h</text>
</a>
</g>
</g>
<!-- Node1&#45;&gt;Node14 -->
<g id="edge15_Node000001_Node000014" class="edge">
<title>Node1&#45;&gt;Node14</title>
<g id="a_edge15_Node000001_Node000014"><a xlink:title=" ">
<path fill="none" stroke="#63b8ff" d="M168.57,-422.8C273.99,-410.56 459.23,-389.04 563.49,-376.93"/>
<polygon fill="#63b8ff" stroke="#63b8ff" points="168.15,-419.33 158.62,-423.96 168.96,-426.28 168.15,-419.33"/>
</a>
</g>
</g>
<!-- Node3 -->
<g id="Node000003" class="node">
<title>Node3</title>
<g id="a_Node000003"><a xlink:href="EntityBuilder_8h.html" target="_top" xlink:title="エンティティ生成を簡略化するヘルパークラス。">
<polygon fill="white" stroke="#666666" points="237.39,-233.5 91.39,-233.5 91.39,-203.5 237.39,-203.5 237.39,-233.5"/>
<text text-anchor="start" x="99.39" y="-221.5" font-family="Helvetica,sans-Serif" font-size="10.00">Engine/Source/Runtime</text>
<text text-anchor="middle" x="164.39" y="-210.5" font-family="Helvetica,sans-Serif" font-size="10.00">/ECS/Kernel/EntityBuilder.h</text>
</a>
</g>
</g>
<!-- Node2&#45;&gt;Node3 -->
<g id="edge2_Node000002_Node000003" class="edge">
<title>Node2&#45;&gt;Node3</title>
<g id="a_edge2_Node000002_Node000003"><a xlink:title=" ">
<path fill="none" stroke="#63b8ff" d="M110.58,-273.32C123.31,-260.58 139.16,-244.74 150.35,-233.54"/>
<polygon fill="#63b8ff" stroke="#63b8ff" points="108.1,-270.85 103.5,-280.39 113.05,-275.8 108.1,-270.85"/>
</a>
</g>
</g>
<!-- Node2&#45;&gt;Node4 -->
<g id="edge14_Node000002_Node000004" class="edge">
<title>Node2&#45;&gt;Node4</title>
<g id="a_edge14_Node000002_Node000004"><a xlink:title=" ">
<path fill="none" stroke="#63b8ff" d="M75.01,-271.43C63.49,-249.72 52.02,-217.68 70.39,-198 108.79,-156.89 479.5,-152.78 643.74,-153.01"/>
<polygon fill="#63b8ff" stroke="#63b8ff" points="72.06,-273.34 80.03,-280.32 78.15,-269.89 72.06,-273.34"/>
</a>
</g>
</g>
<!-- Node3&#45;&gt;Node4 -->
<g id="edge3_Node000003_Node000004" class="edge">
<title>Node3&#45;&gt;Node4</title>
<g id="a_edge3_Node000003_Node000004"><a xlink:title=" ">
<path fill="none" stroke="#63b8ff" d="M232.3,-201.42C238.73,-200.15 245.17,-198.99 251.39,-198 388.6,-176.22 550.16,-163.77 643.67,-157.85"/>
<polygon fill="#63b8ff" stroke="#63b8ff" points="231.33,-198.04 222.23,-203.47 232.73,-204.9 231.33,-198.04"/>
</a>
</g>
</g>
<!-- Node5 -->
<g id="Node000005" class="node">
<title>Node5</title>
<g id="a_Node000005"><a xlink:href="GuiManager_8cpp.html" target="_top" xlink:title=" ">
<polygon fill="white" stroke="#666666" points="126.89,-101.5 9.89,-101.5 9.89,-71.5 126.89,-71.5 126.89,-101.5"/>
<text text-anchor="start" x="17.89" y="-89.5" font-family="Helvetica,sans-Serif" font-size="10.00">Engine/Source/Editor</text>
<text text-anchor="middle" x="68.39" y="-78.5" font-family="Helvetica,sans-Serif" font-size="10.00">/GuiManager.cpp</text>
</a>
</g>
</g>
<!-- Node4&#45;&gt;Node5 -->
<g id="edge4_Node000004_Node000005" class="edge">
<title>Node4&#45;&gt;Node5</title>
<g id="a_edge4_Node000004_Node000005"><a xlink:title=" ">
<path fill="none" stroke="#63b8ff" d="M633.47,-150.36C518.4,-147.62 310.84,-138.31 136.39,-107 128.54,-105.59 120.29,-103.64 112.35,-101.51"/>
<polygon fill="#63b8ff" stroke="#63b8ff" points="633.56,-153.87 643.64,-150.6 633.72,-146.87 633.56,-153.87"/>
</a>
</g>
</g>
<!-- Node6 -->
<g id="Node000006" class="node">
<title>Node6</title>
<g id="a_Node000006"><a xlink:href="HierarchyPanel_8cpp.html" target="_top" xlink:title=" ">
<polygon fill="white" stroke="#666666" points="297.39,-107 145.39,-107 145.39,-66 297.39,-66 297.39,-107"/>
<text text-anchor="start" x="153.39" y="-95" font-family="Helvetica,sans-Serif" font-size="10.00">Engine/Source/Editor</text>
<text text-anchor="start" x="153.39" y="-84" font-family="Helvetica,sans-Serif" font-size="10.00">/Panels/Hierarchy/Hierarchy</text>
<text text-anchor="middle" x="221.39" y="-73" font-family="Helvetica,sans-Serif" font-size="10.00">Panel.cpp</text>
</a>
</g>
</g>
<!-- Node4&#45;&gt;Node6 -->
<g id="edge5_Node000004_Node000006" class="edge">
<title>Node4&#45;&gt;Node6</title>
<g id="a_edge5_Node000004_Node000006"><a xlink:title=" ">
<path fill="none" stroke="#63b8ff" d="M633.73,-145.14C549.45,-138.31 418.67,-125.83 306.39,-107 303.56,-106.52 300.67,-106.01 297.77,-105.47"/>
<polygon fill="#63b8ff" stroke="#63b8ff" points="633.52,-148.63 643.77,-145.94 634.08,-141.66 633.52,-148.63"/>
</a>
</g>
</g>
<!-- Node7 -->
<g id="Node000007" class="node">
<title>Node7</title>
<g id="a_Node000007"><a xlink:href="InspectorPanel_8cpp.html" target="_top" xlink:title=" ">
<polygon fill="white" stroke="#666666" points="462.89,-107 315.89,-107 315.89,-66 462.89,-66 462.89,-107"/>
<text text-anchor="start" x="323.89" y="-95" font-family="Helvetica,sans-Serif" font-size="10.00">Engine/Source/Editor</text>
<text text-anchor="start" x="323.89" y="-84" font-family="Helvetica,sans-Serif" font-size="10.00">/Panels/Inspector/Inspector</text>
<text text-anchor="middle" x="389.39" y="-73" font-family="Helvetica,sans-Serif" font-size="10.00">Panel.cpp</text>
</a>
</g>
</g>
<!-- Node4&#45;&gt;Node7 -->
<g id="edge6_Node000004_Node000007" class="edge">
<title>Node4&#45;&gt;Node7</title>
<g id="a_edge6_Node000004_Node000007"><a xlink:title=" ">
<path fill="none" stroke="#63b8ff" d="M658.67,-141.25C608.21,-132.78 535.56,-120.05 472.39,-107 469.35,-106.37 466.25,-105.71 463.12,-105.04"/>
<polygon fill="#63b8ff" stroke="#63b8ff" points="658.33,-144.74 668.77,-142.94 659.49,-137.84 658.33,-144.74"/>
</a>
</g>
</g>
<!-- Node8 -->
<g id="Node000008" class="node">
<title>Node8</title>
<g id="a_Node000008"><a xlink:href="ProjectBrowserPanel_8cpp.html" target="_top" xlink:title="ProjectBrowserPanelの実装。">
<polygon fill="white" stroke="#666666" points="621.39,-107 481.39,-107 481.39,-66 621.39,-66 621.39,-107"/>
<text text-anchor="start" x="489.39" y="-95" font-family="Helvetica,sans-Serif" font-size="10.00">Engine/Source/Editor</text>
<text text-anchor="start" x="489.39" y="-84" font-family="Helvetica,sans-Serif" font-size="10.00">/Panels/ProjectBrowser</text>
<text text-anchor="middle" x="551.39" y="-73" font-family="Helvetica,sans-Serif" font-size="10.00">/ProjectBrowserPanel.cpp</text>
</a>
</g>
</g>
<!-- Node4&#45;&gt;Node8 -->
<g id="edge7_Node000004_Node000008" class="edge">
<title>Node4&#45;&gt;Node8</title>
<g id="a_edge7_Node000004_Node000008"><a xlink:title=" ">
<path fill="none" stroke="#63b8ff" d="M689.03,-139.32C664.8,-130.19 631.17,-117.53 603.22,-107.01"/>
<polygon fill="#63b8ff" stroke="#63b8ff" points="687.88,-142.62 698.47,-142.87 690.34,-136.07 687.88,-142.62"/>
</a>
</g>
</g>
<!-- Node9 -->
<g id="Node000009" class="node">
<title>Node9</title>
<g id="a_Node000009"><a xlink:href="SceneViewPanel_8cpp.html" target="_top" xlink:title=" ">
<polygon fill="white" stroke="#666666" points="803.39,-107 639.39,-107 639.39,-66 803.39,-66 803.39,-107"/>
<text text-anchor="start" x="647.39" y="-95" font-family="Helvetica,sans-Serif" font-size="10.00">Engine/Source/Editor</text>
<text text-anchor="start" x="647.39" y="-84" font-family="Helvetica,sans-Serif" font-size="10.00">/Panels/SceneView/SceneView</text>
<text text-anchor="middle" x="721.39" y="-73" font-family="Helvetica,sans-Serif" font-size="10.00">Panel.cpp</text>
</a>
</g>
</g>
<!-- Node4&#45;&gt;Node9 -->
<g id="edge8_Node000004_Node000009" class="edge">
<title>Node4&#45;&gt;Node9</title>
<g id="a_edge8_Node000004_Node000009"><a xlink:title=" ">
<path fill="none" stroke="#63b8ff" d="M721.39,-132.63C721.39,-124.56 721.39,-115.15 721.39,-107.01"/>
<polygon fill="#63b8ff" stroke="#63b8ff" points="717.9,-132.87 721.39,-142.87 724.9,-132.87 717.9,-132.87"/>
</a>
</g>
</g>
<!-- Node10 -->
<g id="Node000010" class="node">
<title>Node10</title>
<g id="a_Node000010"><a xlink:href="Application_8cpp.html" target="_top" xlink:title=" ">
<polygon fill="white" stroke="#666666" points="951.39,-101.5 821.39,-101.5 821.39,-71.5 951.39,-71.5 951.39,-101.5"/>
<text text-anchor="start" x="829.39" y="-89.5" font-family="Helvetica,sans-Serif" font-size="10.00">Engine/Source/Runtime</text>
<text text-anchor="middle" x="886.39" y="-78.5" font-family="Helvetica,sans-Serif" font-size="10.00">/Application.cpp</text>
</a>
</g>
</g>
<!-- Node4&#45;&gt;Node10 -->
<g id="edge9_Node000004_Node000010" class="edge">
<title>Node4&#45;&gt;Node10</title>
<g id="a_edge9_Node000004_Node000010"><a xlink:title=" ">
<path fill="none" stroke="#63b8ff" d="M753.24,-139.15C780.94,-128.4 821.05,-112.85 850,-101.62"/>
<polygon fill="#63b8ff" stroke="#63b8ff" points="751.71,-135.99 743.65,-142.87 754.24,-142.52 751.71,-135.99"/>
</a>
</g>
</g>
<!-- Node11 -->
<g id="Node000011" class="node">
<title>Node11</title>
<g id="a_Node000011"><a xlink:href="AssetManager_8h.html" target="_top" xlink:title="エンジン全域のアセットライフサイクルを管理するシングルトン。">
<polygon fill="white" stroke="#666666" points="1115.39,-101.5 969.39,-101.5 969.39,-71.5 1115.39,-71.5 1115.39,-101.5"/>
<text text-anchor="start" x="977.39" y="-89.5" font-family="Helvetica,sans-Serif" font-size="10.00">Engine/Source/Runtime</text>
<text text-anchor="middle" x="1042.39" y="-78.5" font-family="Helvetica,sans-Serif" font-size="10.00">/Resource/AssetManager.h</text>
</a>
</g>
</g>
<!-- Node4&#45;&gt;Node11 -->
<g id="edge10_Node000004_Node000011" class="edge">
<title>Node4&#45;&gt;Node11</title>
<g id="a_edge10_Node000004_Node000011"><a xlink:title=" ">
<path fill="none" stroke="#63b8ff" d="M774.43,-141.11C821.16,-132.58 890.81,-119.84 951.39,-107 959.27,-105.33 967.54,-103.48 975.77,-101.6"/>
<polygon fill="#63b8ff" stroke="#63b8ff" points="773.74,-137.68 764.53,-142.92 774.99,-144.57 773.74,-137.68"/>
</a>
</g>
</g>
<!-- Node13 -->
<g id="Node000013" class="node">
<title>Node13</title>
<g id="a_Node000013"><a xlink:href="AssetSerializer_8cpp.html" target="_top" xlink:title="AssetSerializerの実装。">
<polygon fill="white" stroke="#666666" points="1293.39,-101.5 1133.39,-101.5 1133.39,-71.5 1293.39,-71.5 1293.39,-101.5"/>
<text text-anchor="start" x="1141.39" y="-89.5" font-family="Helvetica,sans-Serif" font-size="10.00">Engine/Source/Runtime</text>
<text text-anchor="middle" x="1213.39" y="-78.5" font-family="Helvetica,sans-Serif" font-size="10.00">/Resource/AssetSerializer.cpp</text>
</a>
</g>
</g>
<!-- Node4&#45;&gt;Node13 -->
<g id="edge13_Node000004_Node000013" class="edge">
<title>Node4&#45;&gt;Node13</title>
<g id="a_edge13_Node000004_Node000013"><a xlink:title=" ">
<path fill="none" stroke="#63b8ff" d="M809,-144.52C890.88,-137.35 1016.38,-124.75 1124.39,-107 1133.76,-105.46 1143.62,-103.57 1153.24,-101.58"/>
<polygon fill="#63b8ff" stroke="#63b8ff" points="808.64,-141.03 798.98,-145.38 809.25,-148.01 808.64,-141.03"/>
</a>
</g>
</g>
<!-- Node11&#45;&gt;Node4 -->
<g id="edge12_Node000011_Node000004" class="edge">
<title>Node11&#45;&gt;Node4</title>
<g id="a_edge12_Node000011_Node000004"><a xlink:title=" ">
<path fill="none" stroke="#63b8ff" d="M983.71,-103.87C978.89,-104.95 974.07,-106.01 969.39,-107 904.36,-120.78 828.89,-134.45 778.34,-142.92"/>
<polygon fill="#63b8ff" stroke="#63b8ff" points="984.63,-107.25 993.6,-101.6 983.07,-100.43 984.63,-107.25"/>
</a>
</g>
</g>
<!-- Node12 -->
<g id="Node000012" class="node">
<title>Node12</title>
<g id="a_Node000012"><a xlink:href="AssetManager_8cpp.html" target="_top" xlink:title="AssetManagerの実装。">
<polygon fill="white" stroke="#666666" points="1120.89,-30 963.89,-30 963.89,0 1120.89,0 1120.89,-30"/>
<text text-anchor="start" x="971.89" y="-18" font-family="Helvetica,sans-Serif" font-size="10.00">Engine/Source/Runtime</text>
<text text-anchor="middle" x="1042.39" y="-7" font-family="Helvetica,sans-Serif" font-size="10.00">/Resource/AssetManager.cpp</text>
</a>
</g>
</g>
<!-- Node11&#45;&gt;Node12 -->
<g id="edge11_Node000011_Node000012" class="edge">
<title>Node11&#45;&gt;Node12</title>
<g id="a_edge11_Node000011_Node000012"><a xlink:title=" ">
<path fill="none" stroke="#63b8ff" d="M1042.39,-61.25C1042.39,-50.81 1042.39,-38.99 1042.39,-30.04"/>
<polygon fill="#63b8ff" stroke="#63b8ff" points="1038.9,-61.44 1042.39,-71.44 1045.9,-61.44 1038.9,-61.44"/>
</a>
</g>
</g>
<!-- Node14&#45;&gt;Node2 -->
<g id="edge19_Node000014_Node000002" class="edge">
<title>Node14&#45;&gt;Node2</title>
<g id="a_edge19_Node000014_Node000002"><a xlink:title=" ">
<path fill="none" stroke="#63b8ff" d="M553.74,-359.98C459.46,-352.69 304.52,-338.49 172.39,-316 163.49,-314.48 154.12,-312.58 145.01,-310.57"/>
<polygon fill="#63b8ff" stroke="#63b8ff" points="553.56,-363.48 563.8,-360.75 554.09,-356.5 553.56,-363.48"/>
</a>
</g>
</g>
<!-- Node14&#45;&gt;Node4 -->
<g id="edge45_Node000014_Node000004" class="edge">
<title>Node14&#45;&gt;Node4</title>
<g id="a_edge45_Node000014_Node000004"><a xlink:title=" ">
<path fill="none" stroke="#63b8ff" d="M727.26,-366.27C917.1,-366.03 1356.01,-360.58 1405.39,-316 1431.16,-292.74 1415.5,-273.59 1418.39,-239 1419.92,-220.84 1430.86,-211.29 1418.39,-198 1397.47,-175.7 976.64,-160.91 799.21,-155.64"/>
<polygon fill="#63b8ff" stroke="#63b8ff" points="727.04,-362.77 717.04,-366.28 727.04,-369.77 727.04,-362.77"/>
</a>
</g>
</g>
<!-- Node15 -->
<g id="Node000015" class="node">
<title>Node15</title>
<g id="a_Node000015"><a xlink:href="Layer_8h.html" target="_top" xlink:title="物理演算やレンダリングのレイヤー分け。">
<polygon fill="white" stroke="#666666" points="479.89,-310.5 334.89,-310.5 334.89,-280.5 479.89,-280.5 479.89,-310.5"/>
<text text-anchor="start" x="342.89" y="-298.5" font-family="Helvetica,sans-Serif" font-size="10.00">Engine/Source/Runtime</text>
<text text-anchor="middle" x="407.39" y="-287.5" font-family="Helvetica,sans-Serif" font-size="10.00">/Components/Core/Layer.h</text>
</a>
</g>
</g>
<!-- Node14&#45;&gt;Node15 -->
<g id="edge16_Node000014_Node000015" class="edge">
<title>Node14&#45;&gt;Node15</title>
<g id="a_edge16_Node000014_Node000015"><a xlink:title=" ">
<path fill="none" stroke="#63b8ff" d="M583.47,-349.02C543.87,-337.21 491.72,-321.65 454.48,-310.54"/>
<polygon fill="#63b8ff" stroke="#63b8ff" points="582.66,-352.43 593.24,-351.94 584.66,-345.72 582.66,-352.43"/>
</a>
</g>
</g>
<!-- Node16 -->
<g id="Node000016" class="node">
<title>Node16</title>
<g id="a_Node000016"><a xlink:href="Tag_8h.html" target="_top" xlink:title="エンティティのタグ分類">
<polygon fill="white" stroke="#666666" points="316.89,-310.5 181.89,-310.5 181.89,-280.5 316.89,-280.5 316.89,-310.5"/>
<text text-anchor="start" x="189.89" y="-298.5" font-family="Helvetica,sans-Serif" font-size="10.00">Engine/Source/Runtime</text>
<text text-anchor="middle" x="249.39" y="-287.5" font-family="Helvetica,sans-Serif" font-size="10.00">/Components/Core/Tag.h</text>
</a>
</g>
</g>
<!-- Node14&#45;&gt;Node16 -->
<g id="edge20_Node000014_Node000016" class="edge">
<title>Node14&#45;&gt;Node16</title>
<g id="a_edge20_Node000014_Node000016"><a xlink:title=" ">
<path fill="none" stroke="#63b8ff" d="M553.67,-354.47C490.18,-345.48 402.08,-331.89 325.39,-316 317.66,-314.4 309.53,-312.52 301.58,-310.57"/>
<polygon fill="#63b8ff" stroke="#63b8ff" points="553.26,-357.94 563.65,-355.87 554.23,-351.01 553.26,-357.94"/>
</a>
</g>
</g>
<!-- Node17 -->
<g id="Node000017" class="node">
<title>Node17</title>
<g id="a_Node000017"><a xlink:href="Transform_8h.html" target="_top" xlink:title="位置、回転、拡大縮小を管理するコンポーネント。">
<polygon fill="white" stroke="#666666" points="723.89,-310.5 556.89,-310.5 556.89,-280.5 723.89,-280.5 723.89,-310.5"/>
<text text-anchor="start" x="564.89" y="-298.5" font-family="Helvetica,sans-Serif" font-size="10.00">Engine/Source/Runtime</text>
<text text-anchor="middle" x="640.39" y="-287.5" font-family="Helvetica,sans-Serif" font-size="10.00">/Components/Core/Transform.h</text>
</a>
</g>
</g>
<!-- Node14&#45;&gt;Node17 -->
<g id="edge23_Node000014_Node000017" class="edge">
<title>Node14&#45;&gt;Node17</title>
<g id="a_edge23_Node000014_Node000017"><a xlink:title=" ">
<path fill="none" stroke="#63b8ff" d="M640.39,-341.75C640.39,-331.31 640.39,-319.49 640.39,-310.54"/>
<polygon fill="#63b8ff" stroke="#63b8ff" points="636.9,-341.94 640.39,-351.94 643.9,-341.94 636.9,-341.94"/>
</a>
</g>
</g>
<!-- Node22 -->
<g id="Node000022" class="node">
<title>Node22</title>
<g id="a_Node000022"><a xlink:href="Camera_8h.html" target="_top" xlink:title="レンダリング視点を定義するカメラコンポーネント。">
<polygon fill="white" stroke="#666666" points="995.39,-316 865.39,-316 865.39,-275 995.39,-275 995.39,-316"/>
<text text-anchor="start" x="873.39" y="-304" font-family="Helvetica,sans-Serif" font-size="10.00">Engine/Source/Runtime</text>
<text text-anchor="start" x="873.39" y="-293" font-family="Helvetica,sans-Serif" font-size="10.00">/Components/Graphics</text>
<text text-anchor="middle" x="930.39" y="-282" font-family="Helvetica,sans-Serif" font-size="10.00">/Camera.h</text>
</a>
</g>
</g>
<!-- Node14&#45;&gt;Node22 -->
<g id="edge34_Node000014_Node000022" class="edge">
<title>Node14&#45;&gt;Node22</title>
<g id="a_edge34_Node000014_Node000022"><a xlink:title=" ">
<path fill="none" stroke="#63b8ff" d="M708.93,-349.58C756.21,-338.24 818.69,-323.27 865.23,-312.12"/>
<polygon fill="#63b8ff" stroke="#63b8ff" points="707.99,-346.2 699.08,-351.94 709.62,-353.01 707.99,-346.2"/>
</a>
</g>
</g>
<!-- Node23 -->
<g id="Node000023" class="node">
<title>Node23</title>
<g id="a_Node000023"><a xlink:href="MeshFilter_8h.html" target="_top" xlink:title="描画する形状 (メッシュ) への参照。">
<polygon fill="white" stroke="#666666" points="1248.39,-316 1118.39,-316 1118.39,-275 1248.39,-275 1248.39,-316"/>
<text text-anchor="start" x="1126.39" y="-304" font-family="Helvetica,sans-Serif" font-size="10.00">Engine/Source/Runtime</text>
<text text-anchor="start" x="1126.39" y="-293" font-family="Helvetica,sans-Serif" font-size="10.00">/Components/Graphics</text>
<text text-anchor="middle" x="1183.39" y="-282" font-family="Helvetica,sans-Serif" font-size="10.00">/MeshFilter.h</text>
</a>
</g>
</g>
<!-- Node14&#45;&gt;Node23 -->
<g id="edge38_Node000014_Node000023" class="edge">
<title>Node14&#45;&gt;Node23</title>
<g id="a_edge38_Node000014_Node000023"><a xlink:title=" ">
<path fill="none" stroke="#63b8ff" d="M727.02,-354.91C835.94,-340.97 1020.47,-317.35 1118.19,-304.85"/>
<polygon fill="#63b8ff" stroke="#63b8ff" points="726.52,-351.45 717.04,-356.19 727.41,-358.39 726.52,-351.45"/>
</a>
</g>
</g>
<!-- Node25 -->
<g id="Node000025" class="node">
<title>Node25</title>
<g id="a_Node000025"><a xlink:href="MeshRenderer_8h.html" target="_top" xlink:title="メッシュの描画設定とマテリアル参照。">
<polygon fill="white" stroke="#666666" points="1396.39,-316 1266.39,-316 1266.39,-275 1396.39,-275 1396.39,-316"/>
<text text-anchor="start" x="1274.39" y="-304" font-family="Helvetica,sans-Serif" font-size="10.00">Engine/Source/Runtime</text>
<text text-anchor="start" x="1274.39" y="-293" font-family="Helvetica,sans-Serif" font-size="10.00">/Components/Graphics</text>
<text text-anchor="middle" x="1331.39" y="-282" font-family="Helvetica,sans-Serif" font-size="10.00">/MeshRenderer.h</text>
</a>
</g>
</g>
<!-- Node14&#45;&gt;Node25 -->
<g id="edge42_Node000014_Node000025" class="edge">
<title>Node14&#45;&gt;Node25</title>
<g id="a_edge42_Node000014_Node000025"><a xlink:title=" ">
<path fill="none" stroke="#63b8ff" d="M727.15,-363.8C847.11,-359.66 1070.06,-348.01 1257.39,-316 1260.28,-315.51 1263.21,-314.96 1266.16,-314.36"/>
<polygon fill="#63b8ff" stroke="#63b8ff" points="726.8,-360.31 716.92,-364.14 727.04,-367.3 726.8,-360.31"/>
</a>
</g>
</g>
<!-- Node15&#45;&gt;Node3 -->
<g id="edge17_Node000015_Node000003" class="edge">
<title>Node15&#45;&gt;Node3</title>
<g id="a_edge17_Node000015_Node000003"><a xlink:title=" ">
<path fill="none" stroke="#63b8ff" d="M352.24,-277.48C309.27,-264.21 250.34,-246.02 210.01,-233.58"/>
<polygon fill="#63b8ff" stroke="#63b8ff" points="351.39,-280.88 361.97,-280.48 353.45,-274.19 351.39,-280.88"/>
</a>
</g>
</g>
<!-- Node15&#45;&gt;Node4 -->
<g id="edge18_Node000015_Node000004" class="edge">
<title>Node15&#45;&gt;Node4</title>
<g id="a_edge18_Node000015_Node000004"><a xlink:title=" ">
<path fill="none" stroke="#63b8ff" d="M332.79,-276.69C313.82,-268.43 295.65,-256.42 284.39,-239 274.51,-223.69 272.18,-211.52 284.39,-198 307.97,-171.9 524.55,-160.31 643.69,-155.87"/>
<polygon fill="#63b8ff" stroke="#63b8ff" points="331.55,-279.96 342.14,-280.44 334.16,-273.47 331.55,-279.96"/>
</a>
</g>
</g>
<!-- Node16&#45;&gt;Node3 -->
<g id="edge21_Node000016_Node000003" class="edge">
<title>Node16&#45;&gt;Node3</title>
<g id="a_edge21_Node000016_Node000003"><a xlink:title=" ">
<path fill="none" stroke="#63b8ff" d="M225.79,-273.67C211.29,-260.88 193.11,-244.84 180.31,-233.54"/>
<polygon fill="#63b8ff" stroke="#63b8ff" points="223.59,-276.4 233.41,-280.39 228.22,-271.15 223.59,-276.4"/>
</a>
</g>
</g>
<!-- Node16&#45;&gt;Node4 -->
<g id="edge22_Node000016_Node000004" class="edge">
<title>Node16&#45;&gt;Node4</title>
<g id="a_edge22_Node000016_Node000004"><a xlink:title=" ">
<path fill="none" stroke="#63b8ff" d="M187.25,-277.64C142.52,-264.89 88.93,-248.06 82.39,-239 71.73,-224.22 69.97,-211.33 82.39,-198 119.94,-157.75 481.66,-153.14 643.64,-153.12"/>
<polygon fill="#63b8ff" stroke="#63b8ff" points="186.36,-281.03 196.93,-280.38 188.26,-274.29 186.36,-281.03"/>
</a>
</g>
</g>
<!-- Node17&#45;&gt;Node3 -->
<g id="edge24_Node000017_Node000003" class="edge">
<title>Node17&#45;&gt;Node3</title>
<g id="a_edge24_Node000017_Node000003"><a xlink:title=" ">
<path fill="none" stroke="#63b8ff" d="M546.64,-280.05C474.84,-268.95 373.34,-253.16 284.39,-239 269.28,-236.59 253.11,-233.99 237.68,-231.49"/>
<polygon fill="#63b8ff" stroke="#63b8ff" points="546.16,-283.52 556.57,-281.59 547.23,-276.6 546.16,-283.52"/>
</a>
</g>
</g>
<!-- Node17&#45;&gt;Node4 -->
<g id="edge33_Node000017_Node000004" class="edge">
<title>Node17&#45;&gt;Node4</title>
<g id="a_edge33_Node000017_Node000004"><a xlink:title=" ">
<path fill="none" stroke="#63b8ff" d="M670.49,-273.96C682.1,-264.59 694.47,-252.54 702.39,-239 717.15,-213.81 720.46,-178.31 721.19,-162.14"/>
<polygon fill="#63b8ff" stroke="#63b8ff" points="668.04,-271.43 662.25,-280.3 672.31,-276.98 668.04,-271.43"/>
</a>
</g>
</g>
<!-- Node18 -->
<g id="Node000018" class="node">
<title>Node18</title>
<g id="a_Node000018"><a xlink:href="RelationshipSystem_8h.html" target="_top" xlink:title="エンティティ間の親子・兄弟関係 (階層構造) を操作するシステム。">
<polygon fill="white" stroke="#666666" points="490.89,-233.5 293.89,-233.5 293.89,-203.5 490.89,-203.5 490.89,-233.5"/>
<text text-anchor="start" x="301.89" y="-221.5" font-family="Helvetica,sans-Serif" font-size="10.00">Engine/Source/Runtime</text>
<text text-anchor="middle" x="392.39" y="-210.5" font-family="Helvetica,sans-Serif" font-size="10.00">/Systems/Core/RelationshipSystem.h</text>
</a>
</g>
</g>
<!-- Node17&#45;&gt;Node18 -->
<g id="edge25_Node000017_Node000018" class="edge">
<title>Node17&#45;&gt;Node18</title>
<g id="a_edge25_Node000017_Node000018"><a xlink:title=" ">
<path fill="none" stroke="#63b8ff" d="M584.38,-277.56C540.5,-264.29 480.19,-246.05 438.94,-233.58"/>
<polygon fill="#63b8ff" stroke="#63b8ff" points="583.45,-280.94 594.04,-280.48 585.48,-274.24 583.45,-280.94"/>
</a>
</g>
</g>
<!-- Node19 -->
<g id="Node000019" class="node">
<title>Node19</title>
<g id="a_Node000019"><a xlink:href="TransformSystem_8h.html" target="_top" xlink:title="ローカル座標からワールド座標への変換行列計算">
<polygon fill="white" stroke="#666666" points="693.89,-233.5 508.89,-233.5 508.89,-203.5 693.89,-203.5 693.89,-233.5"/>
<text text-anchor="start" x="516.89" y="-221.5" font-family="Helvetica,sans-Serif" font-size="10.00">Engine/Source/Runtime</text>
<text text-anchor="middle" x="601.39" y="-210.5" font-family="Helvetica,sans-Serif" font-size="10.00">/Systems/Core/TransformSystem.h</text>
</a>
</g>
</g>
<!-- Node17&#45;&gt;Node19 -->
<g id="edge27_Node000017_Node000019" class="edge">
<title>Node17&#45;&gt;Node19</title>
<g id="a_edge27_Node000017_Node000019"><a xlink:title=" ">
<path fill="none" stroke="#63b8ff" d="M628.44,-271.51C621.99,-259.11 614.25,-244.21 608.7,-233.54"/>
<polygon fill="#63b8ff" stroke="#63b8ff" points="625.34,-273.14 633.06,-280.39 631.55,-269.91 625.34,-273.14"/>
</a>
</g>
</g>
<!-- Node20 -->
<g id="Node000020" class="node">
<title>Node20</title>
<g id="a_Node000020"><a xlink:href="CameraSystem_8h.html" target="_top" xlink:title="カメラ行列の更新とレンダラーへの適用。">
<polygon fill="white" stroke="#666666" points="943.39,-233.5 749.39,-233.5 749.39,-203.5 943.39,-203.5 943.39,-233.5"/>
<text text-anchor="start" x="757.39" y="-221.5" font-family="Helvetica,sans-Serif" font-size="10.00">Engine/Source/Runtime</text>
<text text-anchor="middle" x="846.39" y="-210.5" font-family="Helvetica,sans-Serif" font-size="10.00">/Systems/Graphics/CameraSystem.h</text>
</a>
</g>
</g>
<!-- Node17&#45;&gt;Node20 -->
<g id="edge29_Node000017_Node000020" class="edge">
<title>Node17&#45;&gt;Node20</title>
<g id="a_edge29_Node000017_Node000020"><a xlink:title=" ">
<path fill="none" stroke="#63b8ff" d="M688.55,-276.97C724.88,-263.74 774.07,-245.83 807.82,-233.54"/>
<polygon fill="#63b8ff" stroke="#63b8ff" points="687.34,-273.68 679.14,-280.39 689.74,-280.26 687.34,-273.68"/>
</a>
</g>
</g>
<!-- Node21 -->
<g id="Node000021" class="node">
<title>Node21</title>
<g id="a_Node000021"><a xlink:href="EditorCameraSystem_8h.html" target="_top" xlink:title="エディタ用フリーカメラの操作システム">
<polygon fill="white" stroke="#666666" points="1137.89,-239 960.89,-239 960.89,-198 1137.89,-198 1137.89,-239"/>
<text text-anchor="start" x="968.89" y="-227" font-family="Helvetica,sans-Serif" font-size="10.00">Engine/Source/Runtime</text>
<text text-anchor="start" x="968.89" y="-216" font-family="Helvetica,sans-Serif" font-size="10.00">/Systems/Graphics/EditorCamera</text>
<text text-anchor="middle" x="1049.39" y="-205" font-family="Helvetica,sans-Serif" font-size="10.00">System.h</text>
</a>
</g>
</g>
<!-- Node17&#45;&gt;Node21 -->
<g id="edge31_Node000017_Node000021" class="edge">
<title>Node17&#45;&gt;Node21</title>
<g id="a_edge31_Node000017_Node000021"><a xlink:title=" ">
<path fill="none" stroke="#63b8ff" d="M732.45,-278.68C794.63,-267.86 878.53,-252.99 952.39,-239 955.18,-238.47 958.01,-237.93 960.86,-237.38"/>
<polygon fill="#63b8ff" stroke="#63b8ff" points="731.53,-275.29 722.27,-280.45 732.72,-282.19 731.53,-275.29"/>
</a>
</g>
</g>
<!-- Node18&#45;&gt;Node4 -->
<g id="edge26_Node000018_Node000004" class="edge">
<title>Node18&#45;&gt;Node4</title>
<g id="a_edge26_Node000018_Node000004"><a xlink:title=" ">
<path fill="none" stroke="#63b8ff" d="M474.72,-201.49C539.06,-188.97 625.98,-172.06 677.61,-162.02"/>
<polygon fill="#63b8ff" stroke="#63b8ff" points="473.74,-198.11 464.6,-203.45 475.08,-204.98 473.74,-198.11"/>
</a>
</g>
</g>
<!-- Node19&#45;&gt;Node4 -->
<g id="edge28_Node000019_Node000004" class="edge">
<title>Node19&#45;&gt;Node4</title>
<g id="a_edge28_Node000019_Node000004"><a xlink:title=" ">
<path fill="none" stroke="#63b8ff" d="M636.76,-198.64C659.52,-186.5 687.99,-171.32 705.42,-162.02"/>
<polygon fill="#63b8ff" stroke="#63b8ff" points="634.91,-195.66 627.73,-203.45 638.2,-201.84 634.91,-195.66"/>
</a>
</g>
</g>
<!-- Node20&#45;&gt;Node4 -->
<g id="edge30_Node000020_Node000004" class="edge">
<title>Node20&#45;&gt;Node4</title>
<g id="a_edge30_Node000020_Node000004"><a xlink:title=" ">
<path fill="none" stroke="#63b8ff" d="M809.87,-198.8C786.11,-186.64 756.27,-171.36 738.03,-162.02"/>
<polygon fill="#63b8ff" stroke="#63b8ff" points="808.47,-202.01 818.96,-203.45 811.66,-195.78 808.47,-202.01"/>
</a>
</g>
</g>
<!-- Node21&#45;&gt;Node4 -->
<g id="edge32_Node000021_Node000004" class="edge">
<title>Node21&#45;&gt;Node4</title>
<g id="a_edge32_Node000021_Node000004"><a xlink:title=" ">
<path fill="none" stroke="#63b8ff" d="M950.98,-197.73C881,-183.98 810.59,-170.49 766.13,-162.01"/>
<polygon fill="#63b8ff" stroke="#63b8ff" points="950.37,-201.17 960.85,-199.67 951.72,-194.31 950.37,-201.17"/>
</a>
</g>
</g>
<!-- Node22&#45;&gt;Node4 -->
<g id="edge37_Node000022_Node000004" class="edge">
<title>Node22&#45;&gt;Node4</title>
<g id="a_edge37_Node000022_Node000004"><a xlink:title=" ">
<path fill="none" stroke="#63b8ff" d="M1005.7,-286.32C1085.04,-274.83 1192.59,-249.29 1146.39,-198 1123.65,-172.75 915.7,-160.85 799.34,-156.12"/>
<polygon fill="#63b8ff" stroke="#63b8ff" points="1005.11,-282.87 995.69,-287.72 1006.08,-289.8 1005.11,-282.87"/>
</a>
</g>
</g>
<!-- Node22&#45;&gt;Node20 -->
<g id="edge35_Node000022_Node000020" class="edge">
<title>Node22&#45;&gt;Node20</title>
<g id="a_edge35_Node000022_Node000020"><a xlink:title=" ">
<path fill="none" stroke="#63b8ff" d="M900.54,-267.84C887.61,-256.3 873,-243.25 862.22,-233.63"/>
<polygon fill="#63b8ff" stroke="#63b8ff" points="898.53,-270.75 908.32,-274.79 903.2,-265.52 898.53,-270.75"/>
</a>
</g>
</g>
<!-- Node22&#45;&gt;Node21 -->
<g id="edge36_Node000022_Node000021" class="edge">
<title>Node22&#45;&gt;Node21</title>
<g id="a_edge36_Node000022_Node000021"><a xlink:title=" ">
<path fill="none" stroke="#63b8ff" d="M969.83,-269.64C985.55,-259.74 1003.39,-248.5 1018.18,-239.17"/>
<polygon fill="#63b8ff" stroke="#63b8ff" points="967.94,-266.7 961.35,-274.99 971.68,-272.62 967.94,-266.7"/>
</a>
</g>
</g>
<!-- Node23&#45;&gt;Node4 -->
<g id="edge41_Node000023_Node000004" class="edge">
<title>Node23&#45;&gt;Node4</title>
<g id="a_edge41_Node000023_Node000004"><a xlink:title=" ">
<path fill="none" stroke="#63b8ff" d="M1186.8,-264.6C1187.46,-242.92 1184.29,-214.61 1166.39,-198 1140.07,-173.57 919.4,-161.21 799.02,-156.23"/>
<polygon fill="#63b8ff" stroke="#63b8ff" points="1183.3,-264.44 1186.21,-274.63 1190.29,-264.85 1183.3,-264.44"/>
</a>
</g>
</g>
<!-- Node24 -->
<g id="Node000024" class="node">
<title>Node24</title>
<g id="a_Node000024"><a xlink:href="RenderingSystem_8h.html" target="_top" xlink:title="描画コマンド発行システム。">
<polygon fill="white" stroke="#666666" points="1391.39,-239 1231.39,-239 1231.39,-198 1391.39,-198 1391.39,-239"/>
<text text-anchor="start" x="1239.39" y="-227" font-family="Helvetica,sans-Serif" font-size="10.00">Engine/Source/Runtime</text>
<text text-anchor="start" x="1239.39" y="-216" font-family="Helvetica,sans-Serif" font-size="10.00">/Systems/Graphics/Rendering</text>
<text text-anchor="middle" x="1311.39" y="-205" font-family="Helvetica,sans-Serif" font-size="10.00">System.h</text>
</a>
</g>
</g>
<!-- Node23&#45;&gt;Node24 -->
<g id="edge39_Node000023_Node000024" class="edge">
<title>Node23&#45;&gt;Node24</title>
<g id="a_edge39_Node000023_Node000024"><a xlink:title=" ">
<path fill="none" stroke="#63b8ff" d="M1225.35,-269.92C1242.37,-259.95 1261.76,-248.58 1277.82,-239.17"/>
<polygon fill="#63b8ff" stroke="#63b8ff" points="1223.55,-266.92 1216.69,-274.99 1227.09,-272.95 1223.55,-266.92"/>
</a>
</g>
</g>
<!-- Node24&#45;&gt;Node4 -->
<g id="edge40_Node000024_Node000004" class="edge">
<title>Node24&#45;&gt;Node4</title>
<g id="a_edge40_Node000024_Node000004"><a xlink:title=" ">
<path fill="none" stroke="#63b8ff" d="M1221.25,-198.59C1219.95,-198.38 1218.67,-198.19 1217.39,-198 1070.29,-176.22 896.96,-163.62 799.04,-157.69"/>
<polygon fill="#63b8ff" stroke="#63b8ff" points="1220.82,-202.06 1231.25,-200.23 1221.95,-195.15 1220.82,-202.06"/>
</a>
</g>
</g>
<!-- Node25&#45;&gt;Node4 -->
<g id="edge44_Node000025_Node000004" class="edge">
<title>Node25&#45;&gt;Node4</title>
<g id="a_edge44_Node000025_Node000004"><a xlink:title=" ">
<path fill="none" stroke="#63b8ff" d="M1375.56,-268.67C1385.55,-260.54 1394.84,-250.6 1400.39,-239 1408.27,-222.57 1412.85,-211.3 1400.39,-198 1360.04,-154.92 968.79,-151.98 799.18,-152.77"/>
<polygon fill="#63b8ff" stroke="#63b8ff" points="1373.32,-265.98 1367.45,-274.8 1377.54,-271.56 1373.32,-265.98"/>
</a>
</g>
</g>
<!-- Node25&#45;&gt;Node24 -->
<g id="edge43_Node000025_Node000024" class="edge">
<title>Node25&#45;&gt;Node24</title>
<g id="a_edge43_Node000025_Node000024"><a xlink:title=" ">
<path fill="none" stroke="#63b8ff" d="M1323.52,-264.98C1321.2,-256.28 1318.72,-246.98 1316.61,-239.07"/>
<polygon fill="#63b8ff" stroke="#63b8ff" points="1320.18,-266.03 1326.14,-274.79 1326.95,-264.23 1320.18,-266.03"/>
</a>
</g>
</g>
</g>
</svg>
