<?xml version="1.0" encoding="UTF-8" standalone="no"?>
<!DOCTYPE svg PUBLIC "-//W3C//DTD SVG 1.1//EN"
 "http://www.w3.org/Graphics/SVG/1.1/DTD/svg11.dtd">
<!-- Generated by graphviz version 2.43.0 (0)
 -->
<!-- Title: Engine/Source/Runtime/Graphics/Core/GraphicsContext.h Pages: 1 -->
<svg width="1430pt" height="379pt"
 viewBox="0.00 0.00 1429.50 379.00" xmlns="http://www.w3.org/2000/svg" xmlns:xlink="http://www.w3.org/1999/xlink">
<g id="graph0" class="graph" transform="scale(1 1) rotate(0) translate(4 375)">
<title>Engine/Source/Runtime/Graphics/Core/GraphicsContext.h</title>
<!-- Node1 -->
<g id="Node000001" class="node">
<title>Node1</title>
<g id="a_Node000001"><a xlink:title="DirectX 12 デヴァイスとスワップチェーンの管理クラス。">
<polygon fill="#999999" stroke="#666666" points="871.5,-371 690.5,-371 690.5,-341 871.5,-341 871.5,-371"/>
<text text-anchor="start" x="698.5" y="-359" font-family="Helvetica,sans-Serif" font-size="10.00">Engine/Source/Runtime</text>
<text text-anchor="middle" x="781" y="-348" font-family="Helvetica,sans-Serif" font-size="10.00">/Graphics/Core/GraphicsContext.h</text>
</a>
</g>
</g>
<!-- Node2 -->
<g id="Node000002" class="node">
<title>Node2</title>
<g id="a_Node000002"><a xlink:href="Application_8h.html" target="_top" xlink:title="エンジンのメインループとライフサイクル管理。">
<polygon fill="white" stroke="#666666" points="621,-239 491,-239 491,-209 621,-209 621,-239"/>
<text text-anchor="start" x="499" y="-227" font-family="Helvetica,sans-Serif" font-size="10.00">Engine/Source/Runtime</text>
<text text-anchor="middle" x="556" y="-216" font-family="Helvetica,sans-Serif" font-size="10.00">/Application.h</text>
</a>
</g>
</g>
<!-- Node1&#45;&gt;Node2 -->
<g id="edge1_Node000001_Node000002" class="edge">
<title>Node1&#45;&gt;Node2</title>
<g id="a_edge1_Node000001_Node000002"><a xlink:title=" ">
<path fill="none" stroke="#63b8ff" d="M691.21,-338.09C666.08,-330.62 639.71,-320 618,-305 592.84,-287.62 573.24,-256.91 563.27,-239.02"/>
<polygon fill="#63b8ff" stroke="#63b8ff" points="690.57,-341.54 701.15,-340.9 692.48,-334.81 690.57,-341.54"/>
</a>
</g>
</g>
<!-- Node6 -->
<g id="Node000006" class="node">
<title>Node6</title>
<g id="a_Node000006"><a xlink:href="SpanEngine_8h.html" target="_top" xlink:title=" ">
<polygon fill="white" stroke="#666666" points="764.5,-96 609.5,-96 609.5,-77 764.5,-77 764.5,-96"/>
<text text-anchor="middle" x="687" y="-84" font-family="Helvetica,sans-Serif" font-size="10.00">Engine/Source/SpanEngine.h</text>
</a>
</g>
</g>
<!-- Node1&#45;&gt;Node6 -->
<g id="edge32_Node000001_Node000006" class="edge">
<title>Node1&#45;&gt;Node6</title>
<g id="a_edge32_Node000001_Node000006"><a xlink:title=" ">
<path fill="none" stroke="#63b8ff" d="M881.57,-340.76C922.73,-332.68 963.63,-320.94 976,-305 1023.14,-244.25 1026.06,-190.36 976,-132 962.32,-116.06 845.55,-102.13 764.69,-94.27"/>
<polygon fill="#63b8ff" stroke="#63b8ff" points="880.85,-337.33 871.67,-342.63 882.15,-344.21 880.85,-337.33"/>
</a>
</g>
</g>
<!-- Node16 -->
<g id="Node000016" class="node">
<title>Node16</title>
<g id="a_Node000016"><a xlink:href="GraphicsContext_8cpp.html" target="_top" xlink:title=" ">
<polygon fill="white" stroke="#666666" points="967,-305 775,-305 775,-275 967,-275 967,-305"/>
<text text-anchor="start" x="783" y="-293" font-family="Helvetica,sans-Serif" font-size="10.00">Engine/Source/Runtime</text>
<text text-anchor="middle" x="871" y="-282" font-family="Helvetica,sans-Serif" font-size="10.00">/Graphics/Core/GraphicsContext.cpp</text>
</a>
</g>
</g>
<!-- Node1&#45;&gt;Node16 -->
<g id="edge18_Node000001_Node000016" class="edge">
<title>Node1&#45;&gt;Node16</title>
<g id="a_edge18_Node000001_Node000016"><a xlink:title=" ">
<path fill="none" stroke="#63b8ff" d="M809.47,-334.75C823.01,-325.13 838.86,-313.86 851.08,-305.16"/>
<polygon fill="#63b8ff" stroke="#63b8ff" points="807.1,-332.15 800.97,-340.8 811.15,-337.85 807.1,-332.15"/>
</a>
</g>
</g>
<!-- Node17 -->
<g id="Node000017" class="node">
<title>Node17</title>
<g id="a_Node000017"><a xlink:href="Renderer_8h.html" target="_top" xlink:title="描画パイプラインの構築と実行。">
<polygon fill="white" stroke="#666666" points="757,-305 627,-305 627,-275 757,-275 757,-305"/>
<text text-anchor="start" x="635" y="-293" font-family="Helvetica,sans-Serif" font-size="10.00">Engine/Source/Runtime</text>
<text text-anchor="middle" x="692" y="-282" font-family="Helvetica,sans-Serif" font-size="10.00">/Graphics/Renderer.h</text>
</a>
</g>
</g>
<!-- Node1&#45;&gt;Node17 -->
<g id="edge19_Node000001_Node000017" class="edge">
<title>Node1&#45;&gt;Node17</title>
<g id="a_edge19_Node000001_Node000017"><a xlink:title=" ">
<path fill="none" stroke="#63b8ff" d="M752.84,-334.75C739.46,-325.13 723.78,-313.86 711.7,-305.16"/>
<polygon fill="#63b8ff" stroke="#63b8ff" points="751.09,-337.8 761.25,-340.8 755.17,-332.12 751.09,-337.8"/>
</a>
</g>
</g>
<!-- Node3 -->
<g id="Node000003" class="node">
<title>Node3</title>
<g id="a_Node000003"><a xlink:href="Application_8cpp.html" target="_top" xlink:title=" ">
<polygon fill="white" stroke="#666666" points="130,-35.5 0,-35.5 0,-5.5 130,-5.5 130,-35.5"/>
<text text-anchor="start" x="8" y="-23.5" font-family="Helvetica,sans-Serif" font-size="10.00">Engine/Source/Runtime</text>
<text text-anchor="middle" x="65" y="-12.5" font-family="Helvetica,sans-Serif" font-size="10.00">/Application.cpp</text>
</a>
</g>
</g>
<!-- Node2&#45;&gt;Node3 -->
<g id="edge2_Node000002_Node000003" class="edge">
<title>Node2&#45;&gt;Node3</title>
<g id="a_edge2_Node000002_Node000003"><a xlink:title=" ">
<path fill="none" stroke="#63b8ff" d="M480.61,-219.98C385.11,-214.98 226.92,-202.43 177,-173 120.93,-139.94 84.35,-66.73 70.85,-35.77"/>
<polygon fill="#63b8ff" stroke="#63b8ff" points="480.63,-223.48 490.79,-220.49 480.98,-216.49 480.63,-223.48"/>
</a>
</g>
</g>
<!-- Node4 -->
<g id="Node000004" class="node">
<title>Node4</title>
<g id="a_Node000004"><a xlink:href="EntryPoint_8h.html" target="_top" xlink:title="アプリケーションのエントリーポイント (main関数)。">
<polygon fill="white" stroke="#666666" points="316,-167.5 186,-167.5 186,-137.5 316,-137.5 316,-167.5"/>
<text text-anchor="start" x="194" y="-155.5" font-family="Helvetica,sans-Serif" font-size="10.00">Engine/Source/Runtime</text>
<text text-anchor="middle" x="251" y="-144.5" font-family="Helvetica,sans-Serif" font-size="10.00">/EntryPoint.h</text>
</a>
</g>
</g>
<!-- Node2&#45;&gt;Node4 -->
<g id="edge3_Node000002_Node000004" class="edge">
<title>Node2&#45;&gt;Node4</title>
<g id="a_edge3_Node000002_Node000004"><a xlink:title=" ">
<path fill="none" stroke="#63b8ff" d="M480.58,-207.56C435.35,-198.08 376.75,-185.41 325,-173 317.89,-171.3 310.43,-169.42 303.08,-167.53"/>
<polygon fill="#63b8ff" stroke="#63b8ff" points="480.1,-211.04 490.61,-209.65 481.53,-204.18 480.1,-211.04"/>
</a>
</g>
</g>
<!-- Node5 -->
<g id="Node000005" class="node">
<title>Node5</title>
<g id="a_Node000005"><a xlink:href="CameraSystem_8h.html" target="_top" xlink:title="カメラ行列の更新とレンダラーへの適用。">
<polygon fill="white" stroke="#666666" points="528,-167.5 334,-167.5 334,-137.5 528,-137.5 528,-167.5"/>
<text text-anchor="start" x="342" y="-155.5" font-family="Helvetica,sans-Serif" font-size="10.00">Engine/Source/Runtime</text>
<text text-anchor="middle" x="431" y="-144.5" font-family="Helvetica,sans-Serif" font-size="10.00">/Systems/Graphics/CameraSystem.h</text>
</a>
</g>
</g>
<!-- Node2&#45;&gt;Node5 -->
<g id="edge4_Node000002_Node000005" class="edge">
<title>Node2&#45;&gt;Node5</title>
<g id="a_edge4_Node000002_Node000005"><a xlink:title=" ">
<path fill="none" stroke="#63b8ff" d="M521.89,-204.03C501.16,-192.51 475.14,-178.04 456.26,-167.54"/>
<polygon fill="#63b8ff" stroke="#63b8ff" points="520.26,-207.14 530.7,-208.94 523.67,-201.02 520.26,-207.14"/>
</a>
</g>
</g>
<!-- Node2&#45;&gt;Node6 -->
<g id="edge17_Node000002_Node000006" class="edge">
<title>Node2&#45;&gt;Node6</title>
<g id="a_edge17_Node000002_Node000006"><a xlink:title=" ">
<path fill="none" stroke="#63b8ff" d="M555.06,-198.72C555.56,-178.66 559.4,-150.55 575,-132 590.76,-113.26 615.5,-102.36 637.73,-96.04"/>
<polygon fill="#63b8ff" stroke="#63b8ff" points="551.56,-198.93 555.07,-208.93 558.56,-198.92 551.56,-198.93"/>
</a>
</g>
</g>
<!-- Node15 -->
<g id="Node000015" class="node">
<title>Node15</title>
<g id="a_Node000015"><a xlink:href="RenderingSystem_8h.html" target="_top" xlink:title="描画コマンド発行システム。">
<polygon fill="white" stroke="#666666" points="744,-173 584,-173 584,-132 744,-132 744,-173"/>
<text text-anchor="start" x="592" y="-161" font-family="Helvetica,sans-Serif" font-size="10.00">Engine/Source/Runtime</text>
<text text-anchor="start" x="592" y="-150" font-family="Helvetica,sans-Serif" font-size="10.00">/Systems/Graphics/Rendering</text>
<text text-anchor="middle" x="664" y="-139" font-family="Helvetica,sans-Serif" font-size="10.00">System.h</text>
</a>
</g>
</g>
<!-- Node2&#45;&gt;Node15 -->
<g id="edge15_Node000002_Node000015" class="edge">
<title>Node2&#45;&gt;Node15</title>
<g id="a_edge15_Node000002_Node000015"><a xlink:title=" ">
<path fill="none" stroke="#63b8ff" d="M586.59,-203.31C601.31,-193.84 618.89,-182.53 633.58,-173.07"/>
<polygon fill="#63b8ff" stroke="#63b8ff" points="584.37,-200.58 577.86,-208.94 588.16,-206.47 584.37,-200.58"/>
</a>
</g>
</g>
<!-- Node5&#45;&gt;Node6 -->
<g id="edge5_Node000005_Node000006" class="edge">
<title>Node5&#45;&gt;Node6</title>
<g id="a_edge5_Node000005_Node000006"><a xlink:title=" ">
<path fill="none" stroke="#63b8ff" d="M496.92,-135.02C546.79,-122.55 613.25,-105.94 652.93,-96.02"/>
<polygon fill="#63b8ff" stroke="#63b8ff" points="496.03,-131.63 487.18,-137.45 497.73,-138.42 496.03,-131.63"/>
</a>
</g>
</g>
<!-- Node6&#45;&gt;Node3 -->
<g id="edge13_Node000006_Node000003" class="edge">
<title>Node6&#45;&gt;Node3</title>
<g id="a_edge13_Node000006_Node000003"><a xlink:title=" ">
<path fill="none" stroke="#63b8ff" d="M599.06,-83.14C490.31,-79.12 299.87,-68.51 139,-41 130.62,-39.57 121.8,-37.63 113.29,-35.53"/>
<polygon fill="#63b8ff" stroke="#63b8ff" points="599.2,-86.64 609.32,-83.51 599.45,-79.65 599.2,-86.64"/>
</a>
</g>
</g>
<!-- Node7 -->
<g id="Node000007" class="node">
<title>Node7</title>
<g id="a_Node000007"><a xlink:href="GuiManager_8cpp.html" target="_top" xlink:title=" ">
<polygon fill="white" stroke="#666666" points="1421.5,-35.5 1304.5,-35.5 1304.5,-5.5 1421.5,-5.5 1421.5,-35.5"/>
<text text-anchor="start" x="1312.5" y="-23.5" font-family="Helvetica,sans-Serif" font-size="10.00">Engine/Source/Editor</text>
<text text-anchor="middle" x="1363" y="-12.5" font-family="Helvetica,sans-Serif" font-size="10.00">/GuiManager.cpp</text>
</a>
</g>
</g>
<!-- Node6&#45;&gt;Node7 -->
<g id="edge6_Node000006_Node000007" class="edge">
<title>Node6&#45;&gt;Node7</title>
<g id="a_edge6_Node000006_Node000007"><a xlink:title=" ">
<path fill="none" stroke="#63b8ff" d="M774.63,-80.09C930.7,-70.31 1245.2,-49.87 1295,-41 1302.86,-39.6 1311.11,-37.66 1319.05,-35.53"/>
<polygon fill="#63b8ff" stroke="#63b8ff" points="774.34,-76.6 764.58,-80.72 774.78,-83.59 774.34,-76.6"/>
</a>
</g>
</g>
<!-- Node8 -->
<g id="Node000008" class="node">
<title>Node8</title>
<g id="a_Node000008"><a xlink:href="ImGuiUI_8cpp.html" target="_top" xlink:title=" ">
<polygon fill="white" stroke="#666666" points="265.5,-35.5 148.5,-35.5 148.5,-5.5 265.5,-5.5 265.5,-35.5"/>
<text text-anchor="start" x="156.5" y="-23.5" font-family="Helvetica,sans-Serif" font-size="10.00">Engine/Source/Editor</text>
<text text-anchor="middle" x="207" y="-12.5" font-family="Helvetica,sans-Serif" font-size="10.00">/ImGui/ImGuiUI.cpp</text>
</a>
</g>
</g>
<!-- Node6&#45;&gt;Node8 -->
<g id="edge7_Node000006_Node000008" class="edge">
<title>Node6&#45;&gt;Node8</title>
<g id="a_edge7_Node000006_Node000008"><a xlink:title=" ">
<path fill="none" stroke="#63b8ff" d="M599.34,-80.41C515.48,-74.51 385.76,-62.69 275,-41 267.41,-39.51 259.43,-37.58 251.73,-35.5"/>
<polygon fill="#63b8ff" stroke="#63b8ff" points="599.11,-83.9 609.33,-81.1 599.6,-76.92 599.11,-83.9"/>
</a>
</g>
</g>
<!-- Node9 -->
<g id="Node000009" class="node">
<title>Node9</title>
<g id="a_Node000009"><a xlink:href="HierarchyPanel_8cpp.html" target="_top" xlink:title=" ">
<polygon fill="white" stroke="#666666" points="962,-41 810,-41 810,0 962,0 962,-41"/>
<text text-anchor="start" x="818" y="-29" font-family="Helvetica,sans-Serif" font-size="10.00">Engine/Source/Editor</text>
<text text-anchor="start" x="818" y="-18" font-family="Helvetica,sans-Serif" font-size="10.00">/Panels/Hierarchy/Hierarchy</text>
<text text-anchor="middle" x="886" y="-7" font-family="Helvetica,sans-Serif" font-size="10.00">Panel.cpp</text>
</a>
</g>
</g>
<!-- Node6&#45;&gt;Node9 -->
<g id="edge8_Node000006_Node000009" class="edge">
<title>Node6&#45;&gt;Node9</title>
<g id="a_edge8_Node000006_Node000009"><a xlink:title=" ">
<path fill="none" stroke="#63b8ff" d="M723.38,-73.8C751.84,-64.65 792.03,-51.72 825.34,-41.01"/>
<polygon fill="#63b8ff" stroke="#63b8ff" points="722.29,-70.48 713.84,-76.87 724.43,-77.14 722.29,-70.48"/>
</a>
</g>
</g>
<!-- Node10 -->
<g id="Node000010" class="node">
<title>Node10</title>
<g id="a_Node000010"><a xlink:href="InspectorPanel_8cpp.html" target="_top" xlink:title=" ">
<polygon fill="white" stroke="#666666" points="1127.5,-41 980.5,-41 980.5,0 1127.5,0 1127.5,-41"/>
<text text-anchor="start" x="988.5" y="-29" font-family="Helvetica,sans-Serif" font-size="10.00">Engine/Source/Editor</text>
<text text-anchor="start" x="988.5" y="-18" font-family="Helvetica,sans-Serif" font-size="10.00">/Panels/Inspector/Inspector</text>
<text text-anchor="middle" x="1054" y="-7" font-family="Helvetica,sans-Serif" font-size="10.00">Panel.cpp</text>
</a>
</g>
</g>
<!-- Node6&#45;&gt;Node10 -->
<g id="edge9_Node000006_Node000010" class="edge">
<title>Node6&#45;&gt;Node10</title>
<g id="a_edge9_Node000006_Node000010"><a xlink:title=" ">
<path fill="none" stroke="#63b8ff" d="M760.21,-75.58C817.72,-67.41 899.73,-54.94 971,-41 974.05,-40.4 977.16,-39.77 980.3,-39.12"/>
<polygon fill="#63b8ff" stroke="#63b8ff" points="759.54,-72.14 750.13,-77 760.52,-79.07 759.54,-72.14"/>
</a>
</g>
</g>
<!-- Node11 -->
<g id="Node000011" class="node">
<title>Node11</title>
<g id="a_Node000011"><a xlink:href="ProjectBrowserPanel_8cpp.html" target="_top" xlink:title="ProjectBrowserPanelの実装。">
<polygon fill="white" stroke="#666666" points="1286,-41 1146,-41 1146,0 1286,0 1286,-41"/>
<text text-anchor="start" x="1154" y="-29" font-family="Helvetica,sans-Serif" font-size="10.00">Engine/Source/Editor</text>
<text text-anchor="start" x="1154" y="-18" font-family="Helvetica,sans-Serif" font-size="10.00">/Panels/ProjectBrowser</text>
<text text-anchor="middle" x="1216" y="-7" font-family="Helvetica,sans-Serif" font-size="10.00">/ProjectBrowserPanel.cpp</text>
</a>
</g>
</g>
<!-- Node6&#45;&gt;Node11 -->
<g id="edge10_Node000006_Node000011" class="edge">
<title>Node6&#45;&gt;Node11</title>
<g id="a_edge10_Node000006_Node000011"><a xlink:title=" ">
<path fill="none" stroke="#63b8ff" d="M774.69,-80.56C865.75,-74.56 1012.09,-62.48 1137,-41 1139.92,-40.5 1142.9,-39.95 1145.9,-39.36"/>
<polygon fill="#63b8ff" stroke="#63b8ff" points="774.44,-77.07 764.69,-81.21 774.9,-84.06 774.44,-77.07"/>
</a>
</g>
</g>
<!-- Node12 -->
<g id="Node000012" class="node">
<title>Node12</title>
<g id="a_Node000012"><a xlink:href="SceneViewPanel_8cpp.html" target="_top" xlink:title=" ">
<polygon fill="white" stroke="#666666" points="792,-41 628,-41 628,0 792,0 792,-41"/>
<text text-anchor="start" x="636" y="-29" font-family="Helvetica,sans-Serif" font-size="10.00">Engine/Source/Editor</text>
<text text-anchor="start" x="636" y="-18" font-family="Helvetica,sans-Serif" font-size="10.00">/Panels/SceneView/SceneView</text>
<text text-anchor="middle" x="710" y="-7" font-family="Helvetica,sans-Serif" font-size="10.00">Panel.cpp</text>
</a>
</g>
</g>
<!-- Node6&#45;&gt;Node12 -->
<g id="edge11_Node000006_Node000012" class="edge">
<title>Node6&#45;&gt;Node12</title>
<g id="a_edge11_Node000006_Node000012"><a xlink:title=" ">
<path fill="none" stroke="#63b8ff" d="M693.58,-67.19C696.52,-59 700,-49.33 702.99,-41.01"/>
<polygon fill="#63b8ff" stroke="#63b8ff" points="690.19,-66.27 690.1,-76.87 696.78,-68.64 690.19,-66.27"/>
</a>
</g>
</g>
<!-- Node13 -->
<g id="Node000013" class="node">
<title>Node13</title>
<g id="a_Node000013"><a xlink:href="EditorFileSystem_8cpp.html" target="_top" xlink:title="EditorFileSystemの実装。">
<polygon fill="white" stroke="#666666" points="432,-35.5 284,-35.5 284,-5.5 432,-5.5 432,-35.5"/>
<text text-anchor="start" x="292" y="-23.5" font-family="Helvetica,sans-Serif" font-size="10.00">Engine/Source/Editor</text>
<text text-anchor="middle" x="358" y="-12.5" font-family="Helvetica,sans-Serif" font-size="10.00">/Utils/EditorFileSystem.cpp</text>
</a>
</g>
</g>
<!-- Node6&#45;&gt;Node13 -->
<g id="edge12_Node000006_Node000013" class="edge">
<title>Node6&#45;&gt;Node13</title>
<g id="a_edge12_Node000006_Node000013"><a xlink:title=" ">
<path fill="none" stroke="#63b8ff" d="M625.51,-75.29C575.65,-66.79 503.61,-54.01 441,-41 432.88,-39.31 424.35,-37.43 415.96,-35.52"/>
<polygon fill="#63b8ff" stroke="#63b8ff" points="625.05,-78.76 635.49,-76.98 626.22,-71.86 625.05,-78.76"/>
</a>
</g>
</g>
<!-- Node14 -->
<g id="Node000014" class="node">
<title>Node14</title>
<g id="a_Node000014"><a xlink:href="AssetSerializer_8cpp.html" target="_top" xlink:title="AssetSerializerの実装。">
<polygon fill="white" stroke="#666666" points="610,-35.5 450,-35.5 450,-5.5 610,-5.5 610,-35.5"/>
<text text-anchor="start" x="458" y="-23.5" font-family="Helvetica,sans-Serif" font-size="10.00">Engine/Source/Runtime</text>
<text text-anchor="middle" x="530" y="-12.5" font-family="Helvetica,sans-Serif" font-size="10.00">/Resource/AssetSerializer.cpp</text>
</a>
</g>
</g>
<!-- Node6&#45;&gt;Node14 -->
<g id="edge14_Node000006_Node000014" class="edge">
<title>Node6&#45;&gt;Node14</title>
<g id="a_edge14_Node000006_Node000014"><a xlink:title=" ">
<path fill="none" stroke="#63b8ff" d="M656.35,-73C630.01,-62.27 592.06,-46.8 564.63,-35.62"/>
<polygon fill="#63b8ff" stroke="#63b8ff" points="655.24,-76.33 665.83,-76.87 657.89,-69.85 655.24,-76.33"/>
</a>
</g>
</g>
<!-- Node15&#45;&gt;Node6 -->
<g id="edge16_Node000015_Node000006" class="edge">
<title>Node15&#45;&gt;Node6</title>
<g id="a_edge16_Node000015_Node000006"><a xlink:title=" ">
<path fill="none" stroke="#63b8ff" d="M674.48,-122.34C677.89,-112.86 681.41,-103.05 683.85,-96.26"/>
<polygon fill="#63b8ff" stroke="#63b8ff" points="671.11,-121.36 671.03,-131.95 677.7,-123.72 671.11,-121.36"/>
</a>
</g>
</g>
<!-- Node17&#45;&gt;Node2 -->
<g id="edge28_Node000017_Node000002" class="edge">
<title>Node17&#45;&gt;Node2</title>
<g id="a_edge28_Node000017_Node000002"><a xlink:title=" ">
<path fill="none" stroke="#63b8ff" d="M653,-270.65C631.61,-260.58 605.51,-248.3 585.78,-239.01"/>
<polygon fill="#63b8ff" stroke="#63b8ff" points="651.62,-273.86 662.15,-274.95 654.6,-267.53 651.62,-273.86"/>
</a>
</g>
</g>
<!-- Node17&#45;&gt;Node6 -->
<g id="edge31_Node000017_Node000006" class="edge">
<title>Node17&#45;&gt;Node6</title>
<g id="a_edge31_Node000017_Node000006"><a xlink:title=" ">
<path fill="none" stroke="#63b8ff" d="M712.31,-267C738.36,-235.96 777.45,-177.98 753,-132 743.92,-114.92 725.03,-103.21 709.78,-96.11"/>
<polygon fill="#63b8ff" stroke="#63b8ff" points="709.59,-264.8 705.69,-274.65 714.88,-269.38 709.59,-264.8"/>
</a>
</g>
</g>
<!-- Node17&#45;&gt;Node15 -->
<g id="edge30_Node000017_Node000015" class="edge">
<title>Node17&#45;&gt;Node15</title>
<g id="a_edge30_Node000017_Node000015"><a xlink:title=" ">
<path fill="none" stroke="#63b8ff" d="M687.02,-264.89C681.61,-238.74 673.09,-197.49 668.07,-173.21"/>
<polygon fill="#63b8ff" stroke="#63b8ff" points="683.61,-265.67 689.06,-274.76 690.46,-264.25 683.61,-265.67"/>
</a>
</g>
</g>
<!-- Node18 -->
<g id="Node000018" class="node">
<title>Node18</title>
<g id="a_Node000018"><a xlink:href="GuiManager_8h.html" target="_top" xlink:title="ImGuiのライフサイクルとレンダリング管理。">
<polygon fill="white" stroke="#666666" points="966.5,-167.5 849.5,-167.5 849.5,-137.5 966.5,-137.5 966.5,-167.5"/>
<text text-anchor="start" x="857.5" y="-155.5" font-family="Helvetica,sans-Serif" font-size="10.00">Engine/Source/Editor</text>
<text text-anchor="middle" x="908" y="-144.5" font-family="Helvetica,sans-Serif" font-size="10.00">/GuiManager.h</text>
</a>
</g>
</g>
<!-- Node17&#45;&gt;Node18 -->
<g id="edge20_Node000017_Node000018" class="edge">
<title>Node17&#45;&gt;Node18</title>
<g id="a_edge20_Node000017_Node000018"><a xlink:title=" ">
<path fill="none" stroke="#63b8ff" d="M767.13,-274.47C829.99,-261.95 910.21,-244.98 915,-239 931.29,-218.65 922.04,-186.17 914.55,-167.65"/>
<polygon fill="#63b8ff" stroke="#63b8ff" points="766.33,-271.06 757.2,-276.44 767.69,-277.93 766.33,-271.06"/>
</a>
</g>
</g>
<!-- Node20 -->
<g id="Node000020" class="node">
<title>Node20</title>
<g id="a_Node000020"><a xlink:href="Renderer_8cpp.html" target="_top" xlink:title=" ">
<polygon fill="white" stroke="#666666" points="906,-239 776,-239 776,-209 906,-209 906,-239"/>
<text text-anchor="start" x="784" y="-227" font-family="Helvetica,sans-Serif" font-size="10.00">Engine/Source/Runtime</text>
<text text-anchor="middle" x="841" y="-216" font-family="Helvetica,sans-Serif" font-size="10.00">/Graphics/Renderer.cpp</text>
</a>
</g>
</g>
<!-- Node17&#45;&gt;Node20 -->
<g id="edge29_Node000017_Node000020" class="edge">
<title>Node17&#45;&gt;Node20</title>
<g id="a_edge29_Node000017_Node000020"><a xlink:title=" ">
<path fill="none" stroke="#63b8ff" d="M734.09,-270.92C757.64,-260.8 786.56,-248.38 808.38,-239.01"/>
<polygon fill="#63b8ff" stroke="#63b8ff" points="732.51,-267.79 724.7,-274.95 735.27,-274.22 732.51,-267.79"/>
</a>
</g>
</g>
<!-- Node18&#45;&gt;Node3 -->
<g id="edge22_Node000018_Node000003" class="edge">
<title>Node18&#45;&gt;Node3</title>
<g id="a_edge22_Node000018_Node000003"><a xlink:title=" ">
<path fill="none" stroke="#63b8ff" d="M838.94,-142.61C676.32,-121.52 272.87,-68.16 139,-41 131.19,-39.41 122.97,-37.5 114.97,-35.5"/>
<polygon fill="#63b8ff" stroke="#63b8ff" points="838.93,-146.14 849.3,-143.96 839.83,-139.2 838.93,-146.14"/>
</a>
</g>
</g>
<!-- Node18&#45;&gt;Node7 -->
<g id="edge21_Node000018_Node000007" class="edge">
<title>Node18&#45;&gt;Node7</title>
<g id="a_edge21_Node000018_Node000007"><a xlink:title=" ">
<path fill="none" stroke="#63b8ff" d="M967.04,-134.67C1042.93,-113.02 1178.8,-74.25 1295,-41 1301.14,-39.24 1307.59,-37.4 1313.97,-35.57"/>
<polygon fill="#63b8ff" stroke="#63b8ff" points="965.84,-131.37 957.18,-137.48 967.76,-138.1 965.84,-131.37"/>
</a>
</g>
</g>
<!-- Node19 -->
<g id="Node000019" class="node">
<title>Node19</title>
<g id="a_Node000019"><a xlink:href="SpanEditor_8h.html" target="_top" xlink:title=" ">
<polygon fill="white" stroke="#666666" points="982.5,-96 833.5,-96 833.5,-77 982.5,-77 982.5,-96"/>
<text text-anchor="middle" x="908" y="-84" font-family="Helvetica,sans-Serif" font-size="10.00">Engine/Source/SpanEditor.h</text>
</a>
</g>
</g>
<!-- Node18&#45;&gt;Node19 -->
<g id="edge23_Node000018_Node000019" class="edge">
<title>Node18&#45;&gt;Node19</title>
<g id="a_edge23_Node000018_Node000019"><a xlink:title=" ">
<path fill="none" stroke="#63b8ff" d="M908,-127.1C908,-116.3 908,-104.28 908,-96.34"/>
<polygon fill="#63b8ff" stroke="#63b8ff" points="904.5,-127.3 908,-137.3 911.5,-127.3 904.5,-127.3"/>
</a>
</g>
</g>
<!-- Node19&#45;&gt;Node9 -->
<g id="edge24_Node000019_Node000009" class="edge">
<title>Node19&#45;&gt;Node9</title>
<g id="a_edge24_Node000019_Node000009"><a xlink:title=" ">
<path fill="none" stroke="#63b8ff" d="M901.71,-67.19C898.89,-59 895.57,-49.33 892.71,-41.01"/>
<polygon fill="#63b8ff" stroke="#63b8ff" points="898.47,-68.55 905.03,-76.87 905.09,-66.27 898.47,-68.55"/>
</a>
</g>
</g>
<!-- Node19&#45;&gt;Node10 -->
<g id="edge25_Node000019_Node000010" class="edge">
<title>Node19&#45;&gt;Node10</title>
<g id="a_edge25_Node000019_Node000010"><a xlink:title=" ">
<path fill="none" stroke="#63b8ff" d="M936.91,-72.83C957.63,-63.75 985.91,-51.35 1009.5,-41.01"/>
<polygon fill="#63b8ff" stroke="#63b8ff" points="935.44,-69.65 927.69,-76.87 938.25,-76.06 935.44,-69.65"/>
</a>
</g>
</g>
<!-- Node19&#45;&gt;Node11 -->
<g id="edge26_Node000019_Node000011" class="edge">
<title>Node19&#45;&gt;Node11</title>
<g id="a_edge26_Node000019_Node000011"><a xlink:title=" ">
<path fill="none" stroke="#63b8ff" d="M965.38,-75.17C1011.8,-66.62 1078.78,-53.83 1137,-41 1139.9,-40.36 1142.85,-39.7 1145.83,-39.01"/>
<polygon fill="#63b8ff" stroke="#63b8ff" points="964.71,-71.74 955.51,-76.99 965.98,-78.62 964.71,-71.74"/>
</a>
</g>
</g>
<!-- Node19&#45;&gt;Node12 -->
<g id="edge27_Node000019_Node000012" class="edge">
<title>Node19&#45;&gt;Node12</title>
<g id="a_edge27_Node000019_Node000012"><a xlink:title=" ">
<path fill="none" stroke="#63b8ff" d="M871.43,-73.68C843.13,-64.53 803.35,-51.67 770.36,-41.01"/>
<polygon fill="#63b8ff" stroke="#63b8ff" points="870.71,-77.12 881.3,-76.87 872.86,-70.46 870.71,-77.12"/>
</a>
</g>
</g>
</g>
</svg>
