<?xml version="1.0" encoding="UTF-8" standalone="no"?>
<!DOCTYPE svg PUBLIC "-//W3C//DTD SVG 1.1//EN"
 "http://www.w3.org/Graphics/SVG/1.1/DTD/svg11.dtd">
<!-- Generated by graphviz version 2.43.0 (0)
 -->
<!-- Title: Engine/Source/Runtime/Graphics/Core/GraphicsContext.h Pages: 1 -->
<!--zoomable 390 -->

<svg id="main" version="1.1" xmlns="http://www.w3.org/2000/svg" xmlns:xlink="http://www.w3.org/1999/xlink" xml:space="preserve" onload="init(evt)">

<style type="text/css"><![CDATA[
.node, .edge {opacity: 0.7;}
.node.selected, .edge.selected {opacity: 1;}
.edge:hover path { stroke: red; }
.edge:hover polygon { stroke: red; fill: red; }
]]></style>

<defs>
  <circle id="rim" cx="0" cy="0" r="7"/>
  <circle id="rim2" cx="0" cy="0" r="3.5"/>
  <g id="zoomPlus">
    <use xlink:href="#rim" fill="#404040"><set attributeName="fill" to="#808080" begin="zoomplus.mouseover" end="zoomplus.mouseout"/></use>
    <path d="M-4,0h8M0,-4v8" fill="none" stroke="white" stroke-width="1.5" pointer-events="none"/>
  </g>
  <g id="zoomMin">
    <use xlink:href="#rim" fill="#404040"><set attributeName="fill" to="#808080" begin="zoomminus.mouseover" end="zoomminus.mouseout"/></use>
    <path d="M-4,0h8" fill="none" stroke="white" stroke-width="1.5" pointer-events="none"/>
  </g>
  <g id="arrowUp" transform="translate(30 24)">
    <use xlink:href="#rim"/>
    <path pointer-events="none" fill="none" stroke="white" stroke-width="1.5" d="M0,-3.0v7 M-2.5,-0.5L0,-3.0L2.5,-0.5"/>
  </g>
  <g id="arrowRight" transform="rotate(90) translate(36 -43)">
    <use xlink:href="#rim"/>
    <path pointer-events="none" fill="none" stroke="white" stroke-width="1.5" d="M0,-3.0v7 M-2.5,-0.5L0,-3.0L2.5,-0.5"/>
  </g>
  <g id="arrowDown" transform="rotate(180) translate(-30 -48)">
    <use xlink:href="#rim"/>
    <path pointer-events="none" fill="none" stroke="white" stroke-width="1.5" d="M0,-3.0v7 M-2.5,-0.5L0,-3.0L2.5,-0.5"/>
  </g>
  <g id="arrowLeft" transform="rotate(270) translate(-36 17)">
    <use xlink:href="#rim"/>
    <path pointer-events="none" fill="none" stroke="white" stroke-width="1.5" d="M0,-3.0v7 M-2.5,-0.5L0,-3.0L2.5,-0.5"/>
  </g>
  <g id="resetDef">
    <use xlink:href="#rim2" fill="#404040"><set attributeName="fill" to="#808080" begin="reset.mouseover" end="reset.mouseout"/></use>
  </g>
</defs>
<script type="application/ecmascript">
var viewWidth = 1026;
var viewHeight = 390;
var sectionId = 'dynsection-1';
</script>
<script type="application/ecmascript" xlink:href="svg.min.js"/>
<svg id="graph" class="graph">
<g id="viewport">
<title>Engine/Source/Runtime/Graphics/Core/GraphicsContext.h</title>
<!-- Node1 -->
<g id="Node000001" class="node">
<title>Node1</title>
<g id="a_Node000001"><a xlink:title="DirectX 12 デヴァイスとスワップチェーンの管理クラス。">
<polygon fill="#999999" stroke="#666666" points="816,-382 635,-382 635,-352 816,-352 816,-382"/>
<text text-anchor="start" x="643" y="-370" font-family="Helvetica,sans-Serif" font-size="10.00">Engine/Source/Runtime</text>
<text text-anchor="middle" x="725.5" y="-359" font-family="Helvetica,sans-Serif" font-size="10.00">/Graphics/Core/GraphicsContext.h</text>
</a>
</g>
</g>
<!-- Node2 -->
<g id="Node000002" class="node">
<title>Node2</title>
<g id="a_Node000002"><a xlink:href="Application_8h.html" target="_top" xlink:title="エンジンのメインループとライフサイクル管理。">
<polygon fill="white" stroke="#666666" points="574.5,-250 444.5,-250 444.5,-220 574.5,-220 574.5,-250"/>
<text text-anchor="start" x="452.5" y="-238" font-family="Helvetica,sans-Serif" font-size="10.00">Engine/Source/Runtime</text>
<text text-anchor="middle" x="509.5" y="-227" font-family="Helvetica,sans-Serif" font-size="10.00">/Application.h</text>
</a>
</g>
</g>
<!-- Node1&#45;&gt;Node2 -->
<g id="edge1_Node000001_Node000002" class="edge">
<title>Node1&#45;&gt;Node2</title>
<g id="a_edge1_Node000001_Node000002"><a xlink:title=" ">
<path fill="none" stroke="#63b8ff" d="M693.13,-346.52C649.21,-320.09 571.77,-273.48 533,-250.14"/>
<polygon fill="#63b8ff" stroke="#63b8ff" points="691.6,-349.68 701.97,-351.84 695.21,-343.68 691.6,-349.68"/>
</a>
</g>
</g>
<!-- Node6 -->
<g id="Node000006" class="node">
<title>Node6</title>
<g id="a_Node000006"><a xlink:href="SpanEngine_8h.html" target="_top" xlink:title=" ">
<polygon fill="white" stroke="#666666" points="614,-101.5 459,-101.5 459,-82.5 614,-82.5 614,-101.5"/>
<text text-anchor="middle" x="536.5" y="-89.5" font-family="Helvetica,sans-Serif" font-size="10.00">Engine/Source/SpanEngine.h</text>
</a>
</g>
</g>
<!-- Node1&#45;&gt;Node6 -->
<g id="edge26_Node000001_Node000006" class="edge">
<title>Node1&#45;&gt;Node6</title>
<g id="a_edge26_Node000001_Node000006"><a xlink:title=" ">
<path fill="none" stroke="#63b8ff" d="M741.84,-343.71C771.61,-300.18 827.29,-202.9 778.5,-143 757.98,-117.8 676.99,-104.92 614.29,-98.6"/>
<polygon fill="#63b8ff" stroke="#63b8ff" points="738.97,-341.71 736.1,-351.91 744.7,-345.73 738.97,-341.71"/>
</a>
</g>
</g>
<!-- Node12 -->
<g id="Node000012" class="node">
<title>Node12</title>
<g id="a_Node000012"><a xlink:href="GraphicsContext_8cpp.html" target="_top" xlink:title=" ">
<polygon fill="white" stroke="#666666" points="1017.5,-316 825.5,-316 825.5,-286 1017.5,-286 1017.5,-316"/>
<text text-anchor="start" x="833.5" y="-304" font-family="Helvetica,sans-Serif" font-size="10.00">Engine/Source/Runtime</text>
<text text-anchor="middle" x="921.5" y="-293" font-family="Helvetica,sans-Serif" font-size="10.00">/Graphics/Core/GraphicsContext.cpp</text>
</a>
</g>
</g>
<!-- Node1&#45;&gt;Node12 -->
<g id="edge13_Node000001_Node000012" class="edge">
<title>Node1&#45;&gt;Node12</title>
<g id="a_edge13_Node000001_Node000012"><a xlink:title=" ">
<path fill="none" stroke="#63b8ff" d="M778.41,-348.72C809.82,-338.47 849.12,-325.63 878.59,-316.01"/>
<polygon fill="#63b8ff" stroke="#63b8ff" points="776.93,-345.52 768.51,-351.95 779.11,-352.18 776.93,-345.52"/>
</a>
</g>
</g>
<!-- Node13 -->
<g id="Node000013" class="node">
<title>Node13</title>
<g id="a_Node000013"><a xlink:href="Renderer_8h.html" target="_top" xlink:title="描画パイプラインの構築と実行。">
<polygon fill="white" stroke="#666666" points="365.5,-316 235.5,-316 235.5,-286 365.5,-286 365.5,-316"/>
<text text-anchor="start" x="243.5" y="-304" font-family="Helvetica,sans-Serif" font-size="10.00">Engine/Source/Runtime</text>
<text text-anchor="middle" x="300.5" y="-293" font-family="Helvetica,sans-Serif" font-size="10.00">/Graphics/Renderer.h</text>
</a>
</g>
</g>
<!-- Node1&#45;&gt;Node13 -->
<g id="edge14_Node000001_Node000013" class="edge">
<title>Node1&#45;&gt;Node13</title>
<g id="a_edge14_Node000001_Node000013"><a xlink:title=" ">
<path fill="none" stroke="#63b8ff" d="M624.73,-350.83C544.57,-338.75 434.75,-322.22 365.73,-311.82"/>
<polygon fill="#63b8ff" stroke="#63b8ff" points="624.44,-354.32 634.85,-352.35 625.48,-347.4 624.44,-354.32"/>
</a>
</g>
</g>
<!-- Node3 -->
<g id="Node000003" class="node">
<title>Node3</title>
<g id="a_Node000003"><a xlink:href="Application_8cpp.html" target="_top" xlink:title=" ">
<polygon fill="white" stroke="#666666" points="440.5,-107 310.5,-107 310.5,-77 440.5,-77 440.5,-107"/>
<text text-anchor="start" x="318.5" y="-95" font-family="Helvetica,sans-Serif" font-size="10.00">Engine/Source/Runtime</text>
<text text-anchor="middle" x="375.5" y="-84" font-family="Helvetica,sans-Serif" font-size="10.00">/Application.cpp</text>
</a>
</g>
</g>
<!-- Node2&#45;&gt;Node3 -->
<g id="edge2_Node000002_Node000003" class="edge">
<title>Node2&#45;&gt;Node3</title>
<g id="a_edge2_Node000002_Node000003"><a xlink:title=" ">
<path fill="none" stroke="#63b8ff" d="M510.28,-209.51C509.65,-189.55 505.72,-161.69 490.5,-143 476.62,-125.95 455.79,-114.57 435.66,-107.04"/>
<polygon fill="#63b8ff" stroke="#63b8ff" points="506.78,-209.7 510.34,-219.68 513.78,-209.66 506.78,-209.7"/>
</a>
</g>
</g>
<!-- Node4 -->
<g id="Node000004" class="node">
<title>Node4</title>
<g id="a_Node000004"><a xlink:href="EntryPoint_8h.html" target="_top" xlink:title="アプリケーションのエントリーポイント (main関数)。">
<polygon fill="white" stroke="#666666" points="481.5,-178.5 351.5,-178.5 351.5,-148.5 481.5,-148.5 481.5,-178.5"/>
<text text-anchor="start" x="359.5" y="-166.5" font-family="Helvetica,sans-Serif" font-size="10.00">Engine/Source/Runtime</text>
<text text-anchor="middle" x="416.5" y="-155.5" font-family="Helvetica,sans-Serif" font-size="10.00">/EntryPoint.h</text>
</a>
</g>
</g>
<!-- Node2&#45;&gt;Node4 -->
<g id="edge3_Node000002_Node000004" class="edge">
<title>Node2&#45;&gt;Node4</title>
<g id="a_edge3_Node000002_Node000004"><a xlink:title=" ">
<path fill="none" stroke="#63b8ff" d="M482.66,-213.94C467.49,-202.6 448.9,-188.71 435.29,-178.54"/>
<polygon fill="#63b8ff" stroke="#63b8ff" points="480.57,-216.75 490.68,-219.94 484.76,-211.15 480.57,-216.75"/>
</a>
</g>
</g>
<!-- Node5 -->
<g id="Node000005" class="node">
<title>Node5</title>
<g id="a_Node000005"><a xlink:href="CameraSystem_8h.html" target="_top" xlink:title="カメラ行列の更新とレンダラーへの適用。">
<polygon fill="white" stroke="#666666" points="769.5,-178.5 575.5,-178.5 575.5,-148.5 769.5,-148.5 769.5,-178.5"/>
<text text-anchor="start" x="583.5" y="-166.5" font-family="Helvetica,sans-Serif" font-size="10.00">Engine/Source/Runtime</text>
<text text-anchor="middle" x="672.5" y="-155.5" font-family="Helvetica,sans-Serif" font-size="10.00">/Systems/Graphics/CameraSystem.h</text>
</a>
</g>
</g>
<!-- Node2&#45;&gt;Node5 -->
<g id="edge4_Node000002_Node000005" class="edge">
<title>Node2&#45;&gt;Node5</title>
<g id="a_edge4_Node000002_Node000005"><a xlink:title=" ">
<path fill="none" stroke="#63b8ff" d="M551.81,-215.96C579.18,-204.29 614.28,-189.32 639.56,-178.54"/>
<polygon fill="#63b8ff" stroke="#63b8ff" points="550.31,-212.79 542.49,-219.94 553.06,-219.23 550.31,-212.79"/>
</a>
</g>
</g>
<!-- Node2&#45;&gt;Node6 -->
<g id="edge12_Node000002_Node000006" class="edge">
<title>Node2&#45;&gt;Node6</title>
<g id="a_edge12_Node000002_Node000006"><a xlink:title=" ">
<path fill="none" stroke="#63b8ff" d="M516.91,-210.01C519.25,-201.81 521.7,-192.56 523.5,-184 529.81,-154.02 533.97,-117.82 535.65,-101.6"/>
<polygon fill="#63b8ff" stroke="#63b8ff" points="513.52,-209.1 514.05,-219.68 520.24,-211.08 513.52,-209.1"/>
</a>
</g>
</g>
<!-- Node11 -->
<g id="Node000011" class="node">
<title>Node11</title>
<g id="a_Node000011"><a xlink:href="RenderingSystem_8h.html" target="_top" xlink:title="描画コマンド発行システム。">
<polygon fill="white" stroke="#666666" points="333.5,-184 173.5,-184 173.5,-143 333.5,-143 333.5,-184"/>
<text text-anchor="start" x="181.5" y="-172" font-family="Helvetica,sans-Serif" font-size="10.00">Engine/Source/Runtime</text>
<text text-anchor="start" x="181.5" y="-161" font-family="Helvetica,sans-Serif" font-size="10.00">/Systems/Graphics/Rendering</text>
<text text-anchor="middle" x="253.5" y="-150" font-family="Helvetica,sans-Serif" font-size="10.00">System.h</text>
</a>
</g>
</g>
<!-- Node2&#45;&gt;Node11 -->
<g id="edge10_Node000002_Node000011" class="edge">
<title>Node2&#45;&gt;Node11</title>
<g id="a_edge10_Node000002_Node000011"><a xlink:title=" ">
<path fill="none" stroke="#63b8ff" d="M447.6,-217.2C410.83,-207.21 364.03,-194.51 325.6,-184.07"/>
<polygon fill="#63b8ff" stroke="#63b8ff" points="447.13,-220.69 457.69,-219.94 448.96,-213.94 447.13,-220.69"/>
</a>
</g>
</g>
<!-- Node5&#45;&gt;Node6 -->
<g id="edge5_Node000005_Node000006" class="edge">
<title>Node5&#45;&gt;Node6</title>
<g id="a_edge5_Node000005_Node000006"><a xlink:title=" ">
<path fill="none" stroke="#63b8ff" d="M635.86,-143.78C608.99,-130.04 573.75,-112.03 553.27,-101.57"/>
<polygon fill="#63b8ff" stroke="#63b8ff" points="634.48,-147 644.98,-148.44 637.67,-140.77 634.48,-147"/>
</a>
</g>
</g>
<!-- Node7 -->
<g id="Node000007" class="node">
<title>Node7</title>
<g id="a_Node000007"><a xlink:href="GuiManager_8cpp.html" target="_top" xlink:title=" ">
<polygon fill="white" stroke="#666666" points="117,-35.5 0,-35.5 0,-5.5 117,-5.5 117,-35.5"/>
<text text-anchor="start" x="8" y="-23.5" font-family="Helvetica,sans-Serif" font-size="10.00">Engine/Source/Editor</text>
<text text-anchor="middle" x="58.5" y="-12.5" font-family="Helvetica,sans-Serif" font-size="10.00">/GuiManager.cpp</text>
</a>
</g>
</g>
<!-- Node6&#45;&gt;Node7 -->
<g id="edge6_Node000006_Node000007" class="edge">
<title>Node6&#45;&gt;Node7</title>
<g id="a_edge6_Node000006_Node000007"><a xlink:title=" ">
<path fill="none" stroke="#63b8ff" d="M476.03,-80.88C467.14,-79.51 458.09,-78.17 449.5,-77 306.38,-57.52 268.2,-69.01 126.5,-41 119.03,-39.52 111.19,-37.62 103.6,-35.58"/>
<polygon fill="#63b8ff" stroke="#63b8ff" points="475.54,-84.35 485.96,-82.44 476.62,-77.43 475.54,-84.35"/>
</a>
</g>
</g>
<!-- Node8 -->
<g id="Node000008" class="node">
<title>Node8</title>
<g id="a_Node000008"><a xlink:href="HierarchyPanel_8cpp.html" target="_top" xlink:title=" ">
<polygon fill="white" stroke="#666666" points="469.5,-41 317.5,-41 317.5,0 469.5,0 469.5,-41"/>
<text text-anchor="start" x="325.5" y="-29" font-family="Helvetica,sans-Serif" font-size="10.00">Engine/Source/Editor</text>
<text text-anchor="start" x="325.5" y="-18" font-family="Helvetica,sans-Serif" font-size="10.00">/Panels/Hierarchy/Hierarchy</text>
<text text-anchor="middle" x="393.5" y="-7" font-family="Helvetica,sans-Serif" font-size="10.00">Panel.cpp</text>
</a>
</g>
</g>
<!-- Node6&#45;&gt;Node8 -->
<g id="edge7_Node000006_Node000008" class="edge">
<title>Node6&#45;&gt;Node8</title>
<g id="a_edge7_Node000006_Node000008"><a xlink:title=" ">
<path fill="none" stroke="#63b8ff" d="M509.82,-78.03C488.41,-67.63 458.02,-52.86 433.68,-41.03"/>
<polygon fill="#63b8ff" stroke="#63b8ff" points="508.44,-81.25 518.97,-82.48 511.5,-74.96 508.44,-81.25"/>
</a>
</g>
</g>
<!-- Node9 -->
<g id="Node000009" class="node">
<title>Node9</title>
<g id="a_Node000009"><a xlink:href="InspectorPanel_8cpp.html" target="_top" xlink:title=" ">
<polygon fill="white" stroke="#666666" points="635,-41 488,-41 488,0 635,0 635,-41"/>
<text text-anchor="start" x="496" y="-29" font-family="Helvetica,sans-Serif" font-size="10.00">Engine/Source/Editor</text>
<text text-anchor="start" x="496" y="-18" font-family="Helvetica,sans-Serif" font-size="10.00">/Panels/Inspector/Inspector</text>
<text text-anchor="middle" x="561.5" y="-7" font-family="Helvetica,sans-Serif" font-size="10.00">Panel.cpp</text>
</a>
</g>
</g>
<!-- Node6&#45;&gt;Node9 -->
<g id="edge8_Node000006_Node000009" class="edge">
<title>Node6&#45;&gt;Node9</title>
<g id="a_edge8_Node000006_Node000009"><a xlink:title=" ">
<path fill="none" stroke="#63b8ff" d="M542.97,-73.01C546.48,-63.25 550.82,-51.18 554.42,-41.17"/>
<polygon fill="#63b8ff" stroke="#63b8ff" points="539.66,-71.88 539.57,-82.48 546.24,-74.25 539.66,-71.88"/>
</a>
</g>
</g>
<!-- Node10 -->
<g id="Node000010" class="node">
<title>Node10</title>
<g id="a_Node000010"><a xlink:href="SceneViewPanel_8cpp.html" target="_top" xlink:title=" ">
<polygon fill="white" stroke="#666666" points="299.5,-41 135.5,-41 135.5,0 299.5,0 299.5,-41"/>
<text text-anchor="start" x="143.5" y="-29" font-family="Helvetica,sans-Serif" font-size="10.00">Engine/Source/Editor</text>
<text text-anchor="start" x="143.5" y="-18" font-family="Helvetica,sans-Serif" font-size="10.00">/Panels/SceneView/SceneView</text>
<text text-anchor="middle" x="217.5" y="-7" font-family="Helvetica,sans-Serif" font-size="10.00">Panel.cpp</text>
</a>
</g>
</g>
<!-- Node6&#45;&gt;Node10 -->
<g id="edge9_Node000006_Node000010" class="edge">
<title>Node6&#45;&gt;Node10</title>
<g id="a_edge9_Node000006_Node000010"><a xlink:title=" ">
<path fill="none" stroke="#63b8ff" d="M487.47,-80.32C437.49,-69.43 359.06,-52.34 299.59,-39.38"/>
<polygon fill="#63b8ff" stroke="#63b8ff" points="486.87,-83.77 497.38,-82.48 488.36,-76.93 486.87,-83.77"/>
</a>
</g>
</g>
<!-- Node11&#45;&gt;Node6 -->
<g id="edge11_Node000011_Node000006" class="edge">
<title>Node11&#45;&gt;Node6</title>
<g id="a_edge11_Node000011_Node000006"><a xlink:title=" ">
<path fill="none" stroke="#63b8ff" d="M343.01,-140.52C396.94,-127.27 462.58,-111.15 501.87,-101.5"/>
<polygon fill="#63b8ff" stroke="#63b8ff" points="341.96,-137.17 333.08,-142.96 343.63,-143.97 341.96,-137.17"/>
</a>
</g>
</g>
<!-- Node13&#45;&gt;Node2 -->
<g id="edge22_Node000013_Node000002" class="edge">
<title>Node13&#45;&gt;Node2</title>
<g id="a_edge22_Node000013_Node000002"><a xlink:title=" ">
<path fill="none" stroke="#63b8ff" d="M356.05,-282.99C389.68,-272.69 432.05,-259.72 463.74,-250.01"/>
<polygon fill="#63b8ff" stroke="#63b8ff" points="354.9,-279.68 346.37,-285.95 356.95,-286.37 354.9,-279.68"/>
</a>
</g>
</g>
<!-- Node13&#45;&gt;Node6 -->
<g id="edge25_Node000013_Node000006" class="edge">
<title>Node13&#45;&gt;Node6</title>
<g id="a_edge25_Node000013_Node000006"><a xlink:title=" ">
<path fill="none" stroke="#63b8ff" d="M262.91,-281.02C209.03,-251.41 120.88,-192.48 164.5,-143 206.72,-95.12 386.31,-116.07 449.5,-107 461.16,-105.33 473.68,-103.39 485.48,-101.51"/>
<polygon fill="#63b8ff" stroke="#63b8ff" points="261.42,-284.19 271.89,-285.85 264.75,-278.03 261.42,-284.19"/>
</a>
</g>
</g>
<!-- Node13&#45;&gt;Node11 -->
<g id="edge24_Node000013_Node000011" class="edge">
<title>Node13&#45;&gt;Node11</title>
<g id="a_edge24_Node000013_Node000011"><a xlink:title=" ">
<path fill="none" stroke="#63b8ff" d="M285.76,-276.99C280.98,-268.73 276.01,-259.18 272.5,-250 264.2,-228.26 259.04,-201.97 256.22,-184.33"/>
<polygon fill="#63b8ff" stroke="#63b8ff" points="282.83,-278.91 290.99,-285.67 288.83,-275.3 282.83,-278.91"/>
</a>
</g>
</g>
<!-- Node14 -->
<g id="Node000014" class="node">
<title>Node14</title>
<g id="a_Node000014"><a xlink:href="GuiManager_8h.html" target="_top" xlink:title="ImGuiのライフサイクルとレンダリング管理。">
<polygon fill="white" stroke="#666666" points="117,-178.5 0,-178.5 0,-148.5 117,-148.5 117,-178.5"/>
<text text-anchor="start" x="8" y="-166.5" font-family="Helvetica,sans-Serif" font-size="10.00">Engine/Source/Editor</text>
<text text-anchor="middle" x="58.5" y="-155.5" font-family="Helvetica,sans-Serif" font-size="10.00">/GuiManager.h</text>
</a>
</g>
</g>
<!-- Node13&#45;&gt;Node14 -->
<g id="edge15_Node000013_Node000014" class="edge">
<title>Node13&#45;&gt;Node14</title>
<g id="a_edge15_Node000013_Node000014"><a xlink:title=" ">
<path fill="none" stroke="#63b8ff" d="M225.53,-287.57C194.67,-280.06 159.64,-268.27 131.5,-250 102.52,-231.19 78.72,-197.52 66.79,-178.53"/>
<polygon fill="#63b8ff" stroke="#63b8ff" points="224.86,-291.01 235.39,-289.86 226.44,-284.19 224.86,-291.01"/>
</a>
</g>
</g>
<!-- Node16 -->
<g id="Node000016" class="node">
<title>Node16</title>
<g id="a_Node000016"><a xlink:href="Renderer_8cpp.html" target="_top" xlink:title=" ">
<polygon fill="white" stroke="#666666" points="411.5,-250 281.5,-250 281.5,-220 411.5,-220 411.5,-250"/>
<text text-anchor="start" x="289.5" y="-238" font-family="Helvetica,sans-Serif" font-size="10.00">Engine/Source/Runtime</text>
<text text-anchor="middle" x="346.5" y="-227" font-family="Helvetica,sans-Serif" font-size="10.00">/Graphics/Renderer.cpp</text>
</a>
</g>
</g>
<!-- Node13&#45;&gt;Node16 -->
<g id="edge23_Node000013_Node000016" class="edge">
<title>Node13&#45;&gt;Node16</title>
<g id="a_edge23_Node000013_Node000016"><a xlink:title=" ">
<path fill="none" stroke="#63b8ff" d="M316.65,-277.53C323.19,-268.43 330.55,-258.19 336.32,-250.16"/>
<polygon fill="#63b8ff" stroke="#63b8ff" points="313.7,-275.63 310.71,-285.8 319.39,-279.72 313.7,-275.63"/>
</a>
</g>
</g>
<!-- Node14&#45;&gt;Node3 -->
<g id="edge17_Node000014_Node000003" class="edge">
<title>Node14&#45;&gt;Node3</title>
<g id="a_edge17_Node000014_Node000003"><a xlink:title=" ">
<path fill="none" stroke="#63b8ff" d="M119.18,-146C123.34,-144.96 127.48,-143.95 131.5,-143 164.75,-135.16 249.9,-117.95 310.22,-105.93"/>
<polygon fill="#63b8ff" stroke="#63b8ff" points="118.28,-142.62 109.46,-148.48 120.01,-149.4 118.28,-142.62"/>
</a>
</g>
</g>
<!-- Node14&#45;&gt;Node7 -->
<g id="edge16_Node000014_Node000007" class="edge">
<title>Node14&#45;&gt;Node7</title>
<g id="a_edge16_Node000014_Node000007"><a xlink:title=" ">
<path fill="none" stroke="#63b8ff" d="M58.5,-138.2C58.5,-108.72 58.5,-59.99 58.5,-35.9"/>
<polygon fill="#63b8ff" stroke="#63b8ff" points="55,-138.46 58.5,-148.46 62,-138.46 55,-138.46"/>
</a>
</g>
</g>
<!-- Node15 -->
<g id="Node000015" class="node">
<title>Node15</title>
<g id="a_Node000015"><a xlink:href="SpanEditor_8h.html" target="_top" xlink:title=" ">
<polygon fill="white" stroke="#666666" points="292,-101.5 143,-101.5 143,-82.5 292,-82.5 292,-101.5"/>
<text text-anchor="middle" x="217.5" y="-89.5" font-family="Helvetica,sans-Serif" font-size="10.00">Engine/Source/SpanEditor.h</text>
</a>
</g>
</g>
<!-- Node14&#45;&gt;Node15 -->
<g id="edge18_Node000014_Node000015" class="edge">
<title>Node14&#45;&gt;Node15</title>
<g id="a_edge18_Node000014_Node000015"><a xlink:title=" ">
<path fill="none" stroke="#63b8ff" d="M100.11,-144.31C131.67,-130.52 173.64,-112.17 197.9,-101.57"/>
<polygon fill="#63b8ff" stroke="#63b8ff" points="98.44,-141.22 90.68,-148.44 101.24,-147.64 98.44,-141.22"/>
</a>
</g>
</g>
<!-- Node15&#45;&gt;Node8 -->
<g id="edge19_Node000015_Node000008" class="edge">
<title>Node15&#45;&gt;Node8</title>
<g id="a_edge19_Node000015_Node000008"><a xlink:title=" ">
<path fill="none" stroke="#63b8ff" d="M248.58,-78.73C275,-68.29 313.41,-53.13 344.05,-41.03"/>
<polygon fill="#63b8ff" stroke="#63b8ff" points="247.1,-75.55 239.08,-82.48 249.67,-82.06 247.1,-75.55"/>
</a>
</g>
</g>
<!-- Node15&#45;&gt;Node9 -->
<g id="edge20_Node000015_Node000009" class="edge">
<title>Node15&#45;&gt;Node9</title>
<g id="a_edge20_Node000015_Node000009"><a xlink:title=" ">
<path fill="none" stroke="#63b8ff" d="M275.13,-80.67C328.11,-71 408.77,-55.86 478.5,-41 481.54,-40.35 484.64,-39.68 487.77,-38.99"/>
<polygon fill="#63b8ff" stroke="#63b8ff" points="274.46,-77.23 265.25,-82.47 275.71,-84.12 274.46,-77.23"/>
</a>
</g>
</g>
<!-- Node15&#45;&gt;Node10 -->
<g id="edge21_Node000015_Node000010" class="edge">
<title>Node15&#45;&gt;Node10</title>
<g id="a_edge21_Node000015_Node000010"><a xlink:title=" ">
<path fill="none" stroke="#63b8ff" d="M217.5,-72.38C217.5,-62.74 217.5,-50.96 217.5,-41.17"/>
<polygon fill="#63b8ff" stroke="#63b8ff" points="214,-72.48 217.5,-82.48 221,-72.48 214,-72.48"/>
</a>
</g>
</g>
</g>
</svg>

<g id="navigator" transform="translate(0 0)" fill="#404254">
  <rect fill="#f2f5e9" fill-opacity="0.5" stroke="#606060" stroke-width=".5" x="0" y="0" width="60" height="60"/>
  <use id="zoomplus" xlink:href="#zoomPlus" x="17" y="9" onmousedown="handleZoom(evt,'in')"/>
  <use id="zoomminus" xlink:href="#zoomMin" x="42" y="9" onmousedown="handleZoom(evt,'out')"/>
  <use id="reset" xlink:href="#resetDef" x="30" y="36" onmousedown="handleReset()"/>
   <use id="arrowup" xlink:href="#arrowUp" x="0" y="0" onmousedown="handlePan(0,-1)"/>
  <use id="arrowright" xlink:href="#arrowRight" x="0" y="0" onmousedown="handlePan(1,0)"/>
  <use id="arrowdown" xlink:href="#arrowDown" x="0" y="0" onmousedown="handlePan(0,1)"/>
  <use id="arrowleft" xlink:href="#arrowLeft" x="0" y="0" onmousedown="handlePan(-1,0)"/>
</g>
<svg viewBox="0 0 15 15" width="100%" height="30px" preserveAspectRatio="xMaxYMin meet">
 <g id="arrow_out" transform="scale(0.3 0.3)">
  <a xlink:href="GraphicsContext_8h__dep__incl_org.svg" target="_base">
   <rect id="button" ry="5" rx="5" y="6" x="6" height="38" width="38"
        fill="#f2f5e9" fill-opacity="0.5" stroke="#606060" stroke-width="1.0"/>
   <path id="arrow"
     d="M 11.500037,31.436501 C 11.940474,20.09759 22.043105,11.32322 32.158766,21.979434 L 37.068811,17.246167 C 37.068811,17.246167 37.088388,32 37.088388,32 L 22.160133,31.978069 C 22.160133,31.978069 26.997745,27.140456 26.997745,27.140456 C 18.528582,18.264221 13.291696,25.230495 11.500037,31.436501 z"
     style="fill:#404040;"/>
  </a>
 </g>
</svg>

<style type='text/css'>
<![CDATA[
[data-mouse-over-selected='false'] { opacity: 0.7; }
[data-mouse-over-selected='true']  { opacity: 1.0; }
]]>
</style>
<script type="application/ecmascript"><![CDATA[
document.addEventListener('DOMContentLoaded', (event) => {
  highlightEdges();
  highlightAdjacentNodes();
});
]]></script>
</svg>
