<?xml version="1.0" encoding="UTF-8" standalone="no"?>
<!DOCTYPE svg PUBLIC "-//W3C//DTD SVG 1.1//EN"
 "http://www.w3.org/Graphics/SVG/1.1/DTD/svg11.dtd">
<!-- Generated by graphviz version 2.43.0 (0)
 -->
<!-- Title: Engine/Source/Editor/GuiManager.h Pages: 1 -->
<svg width="2243pt" height="324pt"
 viewBox="0.00 0.00 2243.00 324.00" xmlns="http://www.w3.org/2000/svg" xmlns:xlink="http://www.w3.org/1999/xlink">
<g id="graph0" class="graph" transform="scale(1 1) rotate(0) translate(4 320)">
<title>Engine/Source/Editor/GuiManager.h</title>
<!-- Node1 -->
<g id="Node000001" class="node">
<title>Node1</title>
<g id="a_Node000001"><a xlink:title="ImGuiのライフサイクルとレンダリング管理。">
<polygon fill="#999999" stroke="#666666" points="1668.5,-316 1551.5,-316 1551.5,-286 1668.5,-286 1668.5,-316"/>
<text text-anchor="start" x="1559.5" y="-304" font-family="Helvetica,sans-Serif" font-size="10.00">Engine/Source/Editor</text>
<text text-anchor="middle" x="1610" y="-293" font-family="Helvetica,sans-Serif" font-size="10.00">/GuiManager.h</text>
</a>
</g>
</g>
<!-- Node2 -->
<g id="Node000002" class="node">
<title>Node2</title>
<g id="a_Node000002"><a xlink:href="EditorPanel_8h.html" target="_top" xlink:title="エディタ上のウィンドウ (パネル) の基底クラス。">
<polygon fill="white" stroke="#666666" points="1619.5,-184 1504.5,-184 1504.5,-165 1619.5,-165 1619.5,-184"/>
<text text-anchor="middle" x="1562" y="-172" font-family="Helvetica,sans-Serif" font-size="10.00">Panels/EditorPanel.h</text>
</a>
</g>
</g>
<!-- Node1&#45;&gt;Node2 -->
<g id="edge1_Node000001_Node000002" class="edge">
<title>Node1&#45;&gt;Node2</title>
<g id="a_edge1_Node000001_Node000002"><a xlink:title=" ">
<path fill="none" stroke="#63b8ff" d="M1607.88,-285.98C1605.1,-269.66 1599.44,-242.12 1590,-220 1585.93,-210.47 1579.96,-200.63 1574.58,-192.64"/>
<polygon fill="#63b8ff" stroke="#63b8ff" points="1577.29,-190.41 1568.68,-184.24 1571.56,-194.43 1577.29,-190.41"/>
</a>
</g>
</g>
<!-- Node3 -->
<g id="Node000003" class="node">
<title>Node3</title>
<g id="a_Node000003"><a xlink:href="CoreMinimal_8h.html" target="_top" xlink:title="エンジンの標準インクルードファイル。">
<polygon fill="white" stroke="#666666" points="1143.5,-74 1030.5,-74 1030.5,-55 1143.5,-55 1143.5,-74"/>
<text text-anchor="middle" x="1087" y="-62" font-family="Helvetica,sans-Serif" font-size="10.00">Core/CoreMinimal.h</text>
</a>
</g>
</g>
<!-- Node1&#45;&gt;Node3 -->
<g id="edge38_Node000001_Node000003" class="edge">
<title>Node1&#45;&gt;Node3</title>
<g id="a_edge38_Node000001_Node000003"><a xlink:title=" ">
<path fill="none" stroke="#63b8ff" d="M1551.26,-298.45C1508.08,-294.43 1450.31,-282.67 1411,-250 1379.03,-223.43 1399.82,-195.88 1372,-165 1339.85,-129.33 1323.58,-127.85 1279,-110 1238.76,-93.89 1191.33,-82.82 1153.68,-75.76"/>
<polygon fill="#63b8ff" stroke="#63b8ff" points="1154.3,-72.31 1143.83,-73.96 1153.04,-79.2 1154.3,-72.31"/>
</a>
</g>
</g>
<!-- Node31 -->
<g id="Node000031" class="node">
<title>Node31</title>
<g id="a_Node000031"><a xlink:title=" ">
<polygon fill="#e0e0e0" stroke="#999999" points="1662.5,-129 1609.5,-129 1609.5,-110 1662.5,-110 1662.5,-129"/>
<text text-anchor="middle" x="1636" y="-117" font-family="Helvetica,sans-Serif" font-size="10.00">imgui.h</text>
</a>
</g>
</g>
<!-- Node1&#45;&gt;Node31 -->
<g id="edge59_Node000001_Node000031" class="edge">
<title>Node1&#45;&gt;Node31</title>
<g id="a_edge59_Node000001_Node000031"><a xlink:title=" ">
<path fill="none" stroke="#63b8ff" d="M1612.35,-285.73C1615.92,-263.86 1622.84,-220.73 1628,-184 1630.11,-169 1632.24,-151.98 1633.77,-139.33"/>
<polygon fill="#63b8ff" stroke="#63b8ff" points="1637.28,-139.48 1634.99,-129.14 1630.33,-138.65 1637.28,-139.48"/>
</a>
</g>
</g>
<!-- Node32 -->
<g id="Node000032" class="node">
<title>Node32</title>
<g id="a_Node000032"><a xlink:href="SceneViewPanel_8h.html" target="_top" xlink:title=" ">
<polygon fill="white" stroke="#666666" points="1581.5,-250 1420.5,-250 1420.5,-220 1581.5,-220 1581.5,-250"/>
<text text-anchor="start" x="1428.5" y="-238" font-family="Helvetica,sans-Serif" font-size="10.00">Panels/SceneView/SceneView</text>
<text text-anchor="middle" x="1501" y="-227" font-family="Helvetica,sans-Serif" font-size="10.00">Panel.h</text>
</a>
</g>
</g>
<!-- Node1&#45;&gt;Node32 -->
<g id="edge32_Node000001_Node000032" class="edge">
<title>Node1&#45;&gt;Node32</title>
<g id="a_edge32_Node000001_Node000032"><a xlink:title=" ">
<path fill="none" stroke="#63b8ff" d="M1586.08,-285.95C1570.75,-276.95 1550.64,-265.14 1533.82,-255.27"/>
<polygon fill="#63b8ff" stroke="#63b8ff" points="1535.26,-252.06 1524.86,-250.01 1531.72,-258.09 1535.26,-252.06"/>
</a>
</g>
</g>
<!-- Node35 -->
<g id="Node000035" class="node">
<title>Node35</title>
<g id="a_Node000035"><a xlink:href="Renderer_8h.html" target="_top" xlink:title="描画パイプラインの構築と実行。">
<polygon fill="white" stroke="#666666" points="1243.5,-244.5 1128.5,-244.5 1128.5,-225.5 1243.5,-225.5 1243.5,-244.5"/>
<text text-anchor="middle" x="1186" y="-232.5" font-family="Helvetica,sans-Serif" font-size="10.00">Graphics/Renderer.h</text>
</a>
</g>
</g>
<!-- Node1&#45;&gt;Node35 -->
<g id="edge39_Node000001_Node000035" class="edge">
<title>Node1&#45;&gt;Node35</title>
<g id="a_edge39_Node000001_Node000035"><a xlink:title=" ">
<path fill="none" stroke="#63b8ff" d="M1551.49,-291.17C1473.2,-279.35 1334.71,-258.45 1252.54,-246.04"/>
<polygon fill="#63b8ff" stroke="#63b8ff" points="1252.97,-242.57 1242.56,-244.54 1251.92,-249.49 1252.97,-242.57"/>
</a>
</g>
</g>
<!-- Node43 -->
<g id="Node000043" class="node">
<title>Node43</title>
<g id="a_Node000043"><a xlink:title=" ">
<polygon fill="#e0e0e0" stroke="#999999" points="1791.5,-244.5 1676.5,-244.5 1676.5,-225.5 1791.5,-225.5 1791.5,-244.5"/>
<text text-anchor="middle" x="1734" y="-232.5" font-family="Helvetica,sans-Serif" font-size="10.00">imgui_impl_win32.h</text>
</a>
</g>
</g>
<!-- Node1&#45;&gt;Node43 -->
<g id="edge60_Node000001_Node000043" class="edge">
<title>Node1&#45;&gt;Node43</title>
<g id="a_edge60_Node000001_Node000043"><a xlink:title=" ">
<path fill="none" stroke="#63b8ff" d="M1637.21,-285.95C1658.48,-274.98 1687.82,-259.83 1708.61,-249.11"/>
<polygon fill="#63b8ff" stroke="#63b8ff" points="1710.22,-252.21 1717.5,-244.52 1707.01,-245.99 1710.22,-252.21"/>
</a>
</g>
</g>
<!-- Node44 -->
<g id="Node000044" class="node">
<title>Node44</title>
<g id="a_Node000044"><a xlink:title=" ">
<polygon fill="#e0e0e0" stroke="#999999" points="1920,-244.5 1810,-244.5 1810,-225.5 1920,-225.5 1920,-244.5"/>
<text text-anchor="middle" x="1865" y="-232.5" font-family="Helvetica,sans-Serif" font-size="10.00">imgui_impl_dx12.h</text>
</a>
</g>
</g>
<!-- Node1&#45;&gt;Node44 -->
<g id="edge61_Node000001_Node000044" class="edge">
<title>Node1&#45;&gt;Node44</title>
<g id="a_edge61_Node000001_Node000044"><a xlink:title=" ">
<path fill="none" stroke="#63b8ff" d="M1665.96,-285.95C1712.65,-274.24 1778.27,-257.77 1821.2,-246.99"/>
<polygon fill="#63b8ff" stroke="#63b8ff" points="1822.22,-250.35 1831.06,-244.52 1820.51,-243.56 1822.22,-250.35"/>
</a>
</g>
</g>
<!-- Node2&#45;&gt;Node3 -->
<g id="edge2_Node000002_Node000003" class="edge">
<title>Node2&#45;&gt;Node3</title>
<g id="a_edge2_Node000002_Node000003"><a xlink:title=" ">
<path fill="none" stroke="#63b8ff" d="M1563.11,-164.99C1564.37,-151.18 1564.56,-124 1549,-110 1520.26,-84.15 1274.98,-72.05 1153.97,-67.61"/>
<polygon fill="#63b8ff" stroke="#63b8ff" points="1153.83,-64.1 1143.72,-67.24 1153.58,-71.1 1153.83,-64.1"/>
</a>
</g>
</g>
<!-- Node2&#45;&gt;Node31 -->
<g id="edge31_Node000002_Node000031" class="edge">
<title>Node2&#45;&gt;Node31</title>
<g id="a_edge31_Node000002_Node000031"><a xlink:title=" ">
<path fill="none" stroke="#63b8ff" d="M1573.89,-164.98C1585.15,-156.92 1602.29,-144.65 1615.71,-135.03"/>
<polygon fill="#63b8ff" stroke="#63b8ff" points="1617.8,-137.84 1623.89,-129.17 1613.73,-132.15 1617.8,-137.84"/>
</a>
</g>
</g>
<!-- Node4 -->
<g id="Node000004" class="node">
<title>Node4</title>
<g id="a_Node000004"><a xlink:title=" ">
<polygon fill="#e0e0e0" stroke="#999999" points="1832,-19 1762,-19 1762,0 1832,0 1832,-19"/>
<text text-anchor="middle" x="1797" y="-7" font-family="Helvetica,sans-Serif" font-size="10.00">Windows.h</text>
</a>
</g>
</g>
<!-- Node3&#45;&gt;Node4 -->
<g id="edge3_Node000003_Node000004" class="edge">
<title>Node3&#45;&gt;Node4</title>
<g id="a_edge3_Node000003_Node000004"><a xlink:title=" ">
<path fill="none" stroke="#63b8ff" d="M1143.81,-62.08C1257.46,-58.72 1521.01,-48.36 1752.06,-18.95"/>
<polygon fill="#63b8ff" stroke="#63b8ff" points="1752.53,-22.42 1762,-17.67 1751.63,-15.47 1752.53,-22.42"/>
</a>
</g>
</g>
<!-- Node5 -->
<g id="Node000005" class="node">
<title>Node5</title>
<g id="a_Node000005"><a xlink:title=" ">
<polygon fill="#e0e0e0" stroke="#999999" points="1891.5,-19 1850.5,-19 1850.5,0 1891.5,0 1891.5,-19"/>
<text text-anchor="middle" x="1871" y="-7" font-family="Helvetica,sans-Serif" font-size="10.00">wrl.h</text>
</a>
</g>
</g>
<!-- Node3&#45;&gt;Node5 -->
<g id="edge4_Node000003_Node000005" class="edge">
<title>Node3&#45;&gt;Node5</title>
<g id="a_edge4_Node000003_Node000005"><a xlink:title=" ">
<path fill="none" stroke="#63b8ff" d="M1143.76,-61.75C1291.9,-56.92 1688.58,-42.35 1840.41,-18.6"/>
<polygon fill="#63b8ff" stroke="#63b8ff" points="1841.18,-22.02 1850.48,-16.95 1840.04,-15.11 1841.18,-22.02"/>
</a>
</g>
</g>
<!-- Node6 -->
<g id="Node000006" class="node">
<title>Node6</title>
<g id="a_Node000006"><a xlink:title=" ">
<polygon fill="#e0e0e0" stroke="#999999" points="1980.5,-19 1909.5,-19 1909.5,0 1980.5,0 1980.5,-19"/>
<text text-anchor="middle" x="1945" y="-7" font-family="Helvetica,sans-Serif" font-size="10.00">wrl/client.h</text>
</a>
</g>
</g>
<!-- Node3&#45;&gt;Node6 -->
<g id="edge5_Node000003_Node000006" class="edge">
<title>Node3&#45;&gt;Node6</title>
<g id="a_edge5_Node000003_Node000006"><a xlink:title=" ">
<path fill="none" stroke="#63b8ff" d="M1143.9,-62.96C1275.21,-61.17 1609.63,-53.43 1898.93,-18.94"/>
<polygon fill="#63b8ff" stroke="#63b8ff" points="1899.7,-22.37 1909.21,-17.7 1898.86,-15.42 1899.7,-22.37"/>
</a>
</g>
</g>
<!-- Node7 -->
<g id="Node000007" class="node">
<title>Node7</title>
<g id="a_Node000007"><a xlink:title=" ">
<polygon fill="#e0e0e0" stroke="#999999" points="2049,-19 1999,-19 1999,0 2049,0 2049,-19"/>
<text text-anchor="middle" x="2024" y="-7" font-family="Helvetica,sans-Serif" font-size="10.00">cstdint</text>
</a>
</g>
</g>
<!-- Node3&#45;&gt;Node7 -->
<g id="edge6_Node000003_Node000007" class="edge">
<title>Node3&#45;&gt;Node7</title>
<g id="a_edge6_Node000003_Node000007"><a xlink:title=" ">
<path fill="none" stroke="#63b8ff" d="M1143.5,-62.11C1314.48,-57.69 1824.62,-42.8 1989,-19 1989.1,-18.99 1989.2,-18.97 1989.3,-18.96"/>
<polygon fill="#63b8ff" stroke="#63b8ff" points="1989.67,-22.45 1998.88,-17.2 1988.41,-15.56 1989.67,-22.45"/>
</a>
</g>
</g>
<!-- Node8 -->
<g id="Node000008" class="node">
<title>Node8</title>
<g id="a_Node000008"><a xlink:title=" ">
<polygon fill="#e0e0e0" stroke="#999999" points="60,-19 0,-19 0,0 60,0 60,-19"/>
<text text-anchor="middle" x="30" y="-7" font-family="Helvetica,sans-Serif" font-size="10.00">iostream</text>
</a>
</g>
</g>
<!-- Node3&#45;&gt;Node8 -->
<g id="edge7_Node000003_Node000008" class="edge">
<title>Node3&#45;&gt;Node8</title>
<g id="a_edge7_Node000003_Node000008"><a xlink:title=" ">
<path fill="none" stroke="#63b8ff" d="M1030.25,-62.3C847.78,-58.23 276.55,-43.92 70.28,-18.88"/>
<polygon fill="#63b8ff" stroke="#63b8ff" points="70.5,-15.38 60.14,-17.6 69.63,-22.33 70.5,-15.38"/>
</a>
</g>
</g>
<!-- Node9 -->
<g id="Node000009" class="node">
<title>Node9</title>
<g id="a_Node000009"><a xlink:title=" ">
<polygon fill="#e0e0e0" stroke="#999999" points="122,-19 78,-19 78,0 122,0 122,-19"/>
<text text-anchor="middle" x="100" y="-7" font-family="Helvetica,sans-Serif" font-size="10.00">string</text>
</a>
</g>
</g>
<!-- Node3&#45;&gt;Node9 -->
<g id="edge8_Node000003_Node000009" class="edge">
<title>Node3&#45;&gt;Node9</title>
<g id="a_edge8_Node000003_Node000009"><a xlink:title=" ">
<path fill="none" stroke="#63b8ff" d="M1030.25,-62.5C855.3,-59.18 324.97,-47.13 132.24,-18.76"/>
<polygon fill="#63b8ff" stroke="#63b8ff" points="132.64,-15.28 122.22,-17.23 131.58,-22.2 132.64,-15.28"/>
</a>
</g>
</g>
<!-- Node10 -->
<g id="Node000010" class="node">
<title>Node10</title>
<g id="a_Node000010"><a xlink:title=" ">
<polygon fill="#e0e0e0" stroke="#999999" points="187.5,-19 140.5,-19 140.5,0 187.5,0 187.5,-19"/>
<text text-anchor="middle" x="164" y="-7" font-family="Helvetica,sans-Serif" font-size="10.00">vector</text>
</a>
</g>
</g>
<!-- Node3&#45;&gt;Node10 -->
<g id="edge9_Node000003_Node000010" class="edge">
<title>Node3&#45;&gt;Node10</title>
<g id="a_edge9_Node000003_Node000010"><a xlink:title=" ">
<path fill="none" stroke="#63b8ff" d="M1030.26,-62.22C863.66,-58.23 376.85,-44.77 197.73,-18.89"/>
<polygon fill="#63b8ff" stroke="#63b8ff" points="198.06,-15.4 187.65,-17.37 197.01,-22.33 198.06,-15.4"/>
</a>
</g>
</g>
<!-- Node11 -->
<g id="Node000011" class="node">
<title>Node11</title>
<g id="a_Node000011"><a xlink:title=" ">
<polygon fill="#e0e0e0" stroke="#999999" points="252.5,-19 205.5,-19 205.5,0 252.5,0 252.5,-19"/>
<text text-anchor="middle" x="229" y="-7" font-family="Helvetica,sans-Serif" font-size="10.00">deque</text>
</a>
</g>
</g>
<!-- Node3&#45;&gt;Node11 -->
<g id="edge10_Node000003_Node000011" class="edge">
<title>Node3&#45;&gt;Node11</title>
<g id="a_edge10_Node000003_Node000011"><a xlink:title=" ">
<path fill="none" stroke="#63b8ff" d="M1030.43,-61.97C872.56,-57.46 428.49,-43.11 262.69,-18.9"/>
<polygon fill="#63b8ff" stroke="#63b8ff" points="263.06,-15.41 252.65,-17.36 262.01,-22.33 263.06,-15.41"/>
</a>
</g>
</g>
<!-- Node12 -->
<g id="Node000012" class="node">
<title>Node12</title>
<g id="a_Node000012"><a xlink:title=" ">
<polygon fill="#e0e0e0" stroke="#999999" points="363.5,-19 270.5,-19 270.5,0 363.5,0 363.5,-19"/>
<text text-anchor="middle" x="317" y="-7" font-family="Helvetica,sans-Serif" font-size="10.00">unordered_map</text>
</a>
</g>
</g>
<!-- Node3&#45;&gt;Node12 -->
<g id="edge11_Node000003_Node000012" class="edge">
<title>Node3&#45;&gt;Node12</title>
<g id="a_edge11_Node000003_Node000012"><a xlink:title=" ">
<path fill="none" stroke="#63b8ff" d="M1030.4,-61.67C911.03,-57.45 624.59,-45.38 373.74,-18.97"/>
<polygon fill="#63b8ff" stroke="#63b8ff" points="374.02,-15.48 363.71,-17.91 373.29,-22.44 374.02,-15.48"/>
</a>
</g>
</g>
<!-- Node13 -->
<g id="Node000013" class="node">
<title>Node13</title>
<g id="a_Node000013"><a xlink:title=" ">
<polygon fill="#e0e0e0" stroke="#999999" points="420,-19 382,-19 382,0 420,0 420,-19"/>
<text text-anchor="middle" x="401" y="-7" font-family="Helvetica,sans-Serif" font-size="10.00">map</text>
</a>
</g>
</g>
<!-- Node3&#45;&gt;Node13 -->
<g id="edge12_Node000003_Node000013" class="edge">
<title>Node3&#45;&gt;Node13</title>
<g id="a_edge12_Node000003_Node000013"><a xlink:title=" ">
<path fill="none" stroke="#63b8ff" d="M1030.13,-63.97C917.12,-63.99 656.4,-59.36 430.2,-18.77"/>
<polygon fill="#63b8ff" stroke="#63b8ff" points="430.6,-15.29 420.14,-16.94 429.35,-22.17 430.6,-15.29"/>
</a>
</g>
</g>
<!-- Node14 -->
<g id="Node000014" class="node">
<title>Node14</title>
<g id="a_Node000014"><a xlink:title=" ">
<polygon fill="#e0e0e0" stroke="#999999" points="496,-19 438,-19 438,0 496,0 496,-19"/>
<text text-anchor="middle" x="467" y="-7" font-family="Helvetica,sans-Serif" font-size="10.00">memory</text>
</a>
</g>
</g>
<!-- Node3&#45;&gt;Node14 -->
<g id="edge13_Node000003_Node000014" class="edge">
<title>Node3&#45;&gt;Node14</title>
<g id="a_edge13_Node000003_Node000014"><a xlink:title=" ">
<path fill="none" stroke="#63b8ff" d="M1030.11,-61.86C927.32,-58.31 703.76,-47.89 506.35,-18.99"/>
<polygon fill="#63b8ff" stroke="#63b8ff" points="506.79,-15.52 496.38,-17.51 505.76,-22.44 506.79,-15.52"/>
</a>
</g>
</g>
<!-- Node15 -->
<g id="Node000015" class="node">
<title>Node15</title>
<g id="a_Node000015"><a xlink:title=" ">
<polygon fill="#e0e0e0" stroke="#999999" points="2235,-19 2171,-19 2171,0 2235,0 2235,-19"/>
<text text-anchor="middle" x="2203" y="-7" font-family="Helvetica,sans-Serif" font-size="10.00">algorithm</text>
</a>
</g>
</g>
<!-- Node3&#45;&gt;Node15 -->
<g id="edge14_Node000003_Node000015" class="edge">
<title>Node3&#45;&gt;Node15</title>
<g id="a_edge14_Node000003_Node000015"><a xlink:title=" ">
<path fill="none" stroke="#63b8ff" d="M1143.54,-62.38C1332.58,-58.44 1942.55,-44.16 2160.76,-18.89"/>
<polygon fill="#63b8ff" stroke="#63b8ff" points="2161.34,-22.35 2170.85,-17.68 2160.51,-15.4 2161.34,-22.35"/>
</a>
</g>
</g>
<!-- Node16 -->
<g id="Node000016" class="node">
<title>Node16</title>
<g id="a_Node000016"><a xlink:title=" ">
<polygon fill="#e0e0e0" stroke="#999999" points="579.5,-19 514.5,-19 514.5,0 579.5,0 579.5,-19"/>
<text text-anchor="middle" x="547" y="-7" font-family="Helvetica,sans-Serif" font-size="10.00">functional</text>
</a>
</g>
</g>
<!-- Node3&#45;&gt;Node16 -->
<g id="edge15_Node000003_Node000016" class="edge">
<title>Node3&#45;&gt;Node16</title>
<g id="a_edge15_Node000003_Node000016"><a xlink:title=" ">
<path fill="none" stroke="#63b8ff" d="M1030.38,-60.48C939.63,-55.2 755.86,-42.67 590.33,-19.03"/>
<polygon fill="#63b8ff" stroke="#63b8ff" points="590.35,-15.49 579.95,-17.53 589.35,-22.42 590.35,-15.49"/>
</a>
</g>
</g>
<!-- Node17 -->
<g id="Node000017" class="node">
<title>Node17</title>
<g id="a_Node000017"><a xlink:title=" ">
<polygon fill="#e0e0e0" stroke="#999999" points="648,-19 598,-19 598,0 648,0 648,-19"/>
<text text-anchor="middle" x="623" y="-7" font-family="Helvetica,sans-Serif" font-size="10.00">chrono</text>
</a>
</g>
</g>
<!-- Node3&#45;&gt;Node17 -->
<g id="edge16_Node000003_Node000017" class="edge">
<title>Node3&#45;&gt;Node17</title>
<g id="a_edge16_Node000003_Node000017"><a xlink:title=" ">
<path fill="none" stroke="#63b8ff" d="M1030.3,-60.2C949.64,-54.95 797.05,-42.91 658.14,-18.96"/>
<polygon fill="#63b8ff" stroke="#63b8ff" points="658.62,-15.49 648.17,-17.21 657.41,-22.38 658.62,-15.49"/>
</a>
</g>
</g>
<!-- Node18 -->
<g id="Node000018" class="node">
<title>Node18</title>
<g id="a_Node000018"><a xlink:title=" ">
<polygon fill="#e0e0e0" stroke="#999999" points="712,-19 666,-19 666,0 712,0 712,-19"/>
<text text-anchor="middle" x="689" y="-7" font-family="Helvetica,sans-Serif" font-size="10.00">cstdio</text>
</a>
</g>
</g>
<!-- Node3&#45;&gt;Node18 -->
<g id="edge17_Node000003_Node000018" class="edge">
<title>Node3&#45;&gt;Node18</title>
<g id="a_edge17_Node000003_Node000018"><a xlink:title=" ">
<path fill="none" stroke="#63b8ff" d="M1030.19,-59.05C959.96,-53.01 836.66,-40.61 722.31,-19.01"/>
<polygon fill="#63b8ff" stroke="#63b8ff" points="722.81,-15.54 712.33,-17.1 721.49,-22.42 722.81,-15.54"/>
</a>
</g>
</g>
<!-- Node19 -->
<g id="Node000019" class="node">
<title>Node19</title>
<g id="a_Node000019"><a xlink:title=" ">
<polygon fill="#e0e0e0" stroke="#999999" points="782,-19 730,-19 730,0 782,0 782,-19"/>
<text text-anchor="middle" x="756" y="-7" font-family="Helvetica,sans-Serif" font-size="10.00">cassert</text>
</a>
</g>
</g>
<!-- Node3&#45;&gt;Node19 -->
<g id="edge18_Node000003_Node000019" class="edge">
<title>Node3&#45;&gt;Node19</title>
<g id="a_edge18_Node000003_Node000019"><a xlink:title=" ">
<path fill="none" stroke="#63b8ff" d="M1030.27,-56.5C972.66,-49.04 880.68,-36.2 792.25,-19.1"/>
<polygon fill="#63b8ff" stroke="#63b8ff" points="792.8,-15.64 782.32,-17.16 791.46,-22.51 792.8,-15.64"/>
</a>
</g>
</g>
<!-- Node20 -->
<g id="Node000020" class="node">
<title>Node20</title>
<g id="a_Node000020"><a xlink:title=" ">
<polygon fill="#e0e0e0" stroke="#999999" points="865.5,-19 800.5,-19 800.5,0 865.5,0 865.5,-19"/>
<text text-anchor="middle" x="833" y="-7" font-family="Helvetica,sans-Serif" font-size="10.00">typeindex</text>
</a>
</g>
</g>
<!-- Node3&#45;&gt;Node20 -->
<g id="edge19_Node000003_Node000020" class="edge">
<title>Node3&#45;&gt;Node20</title>
<g id="a_edge19_Node000003_Node000020"><a xlink:title=" ">
<path fill="none" stroke="#63b8ff" d="M1046.19,-54.98C999.42,-45.23 923.12,-29.3 875.6,-19.39"/>
<polygon fill="#63b8ff" stroke="#63b8ff" points="876.14,-15.93 865.63,-17.31 874.71,-22.78 876.14,-15.93"/>
</a>
</g>
</g>
<!-- Node21 -->
<g id="Node000021" class="node">
<title>Node21</title>
<g id="a_Node000021"><a xlink:title=" ">
<polygon fill="#e0e0e0" stroke="#999999" points="952,-19 884,-19 884,0 952,0 952,-19"/>
<text text-anchor="middle" x="918" y="-7" font-family="Helvetica,sans-Serif" font-size="10.00">filesystem</text>
</a>
</g>
</g>
<!-- Node3&#45;&gt;Node21 -->
<g id="edge20_Node000003_Node000021" class="edge">
<title>Node3&#45;&gt;Node21</title>
<g id="a_edge20_Node000003_Node000021"><a xlink:title=" ">
<path fill="none" stroke="#63b8ff" d="M1059.85,-54.98C1031.47,-46.09 986.77,-32.07 955.14,-22.15"/>
<polygon fill="#63b8ff" stroke="#63b8ff" points="955.95,-18.73 945.37,-19.08 953.86,-25.41 955.95,-18.73"/>
</a>
</g>
</g>
<!-- Node22 -->
<g id="Node000022" class="node">
<title>Node22</title>
<g id="a_Node000022"><a xlink:title=" ">
<polygon fill="#e0e0e0" stroke="#999999" points="1002,-19 970,-19 970,0 1002,0 1002,-19"/>
<text text-anchor="middle" x="986" y="-7" font-family="Helvetica,sans-Serif" font-size="10.00">set</text>
</a>
</g>
</g>
<!-- Node3&#45;&gt;Node22 -->
<g id="edge21_Node000003_Node000022" class="edge">
<title>Node3&#45;&gt;Node22</title>
<g id="a_edge21_Node000003_Node000022"><a xlink:title=" ">
<path fill="none" stroke="#63b8ff" d="M1070.77,-54.98C1054.72,-46.56 1029.93,-33.55 1011.29,-23.77"/>
<polygon fill="#63b8ff" stroke="#63b8ff" points="1012.67,-20.54 1002.19,-18.99 1009.42,-26.74 1012.67,-20.54"/>
</a>
</g>
</g>
<!-- Node23 -->
<g id="Node000023" class="node">
<title>Node23</title>
<g id="a_Node000023"><a xlink:title=" ">
<polygon fill="#e0e0e0" stroke="#999999" points="1076,-19 1020,-19 1020,0 1076,0 1076,-19"/>
<text text-anchor="middle" x="1048" y="-7" font-family="Helvetica,sans-Serif" font-size="10.00">d3d12.h</text>
</a>
</g>
</g>
<!-- Node3&#45;&gt;Node23 -->
<g id="edge22_Node000003_Node000023" class="edge">
<title>Node3&#45;&gt;Node23</title>
<g id="a_edge22_Node000003_Node000023"><a xlink:title=" ">
<path fill="none" stroke="#63b8ff" d="M1080.56,-54.75C1075.11,-47.34 1067.14,-36.5 1060.44,-27.41"/>
<polygon fill="#63b8ff" stroke="#63b8ff" points="1063.07,-25.07 1054.32,-19.09 1057.43,-29.22 1063.07,-25.07"/>
</a>
</g>
</g>
<!-- Node24 -->
<g id="Node000024" class="node">
<title>Node24</title>
<g id="a_Node000024"><a xlink:title=" ">
<polygon fill="#e0e0e0" stroke="#999999" points="1158,-19 1094,-19 1094,0 1158,0 1158,-19"/>
<text text-anchor="middle" x="1126" y="-7" font-family="Helvetica,sans-Serif" font-size="10.00">dxgi1_6.h</text>
</a>
</g>
</g>
<!-- Node3&#45;&gt;Node24 -->
<g id="edge23_Node000003_Node000024" class="edge">
<title>Node3&#45;&gt;Node24</title>
<g id="a_edge23_Node000003_Node000024"><a xlink:title=" ">
<path fill="none" stroke="#63b8ff" d="M1093.44,-54.75C1098.89,-47.34 1106.86,-36.5 1113.56,-27.41"/>
<polygon fill="#63b8ff" stroke="#63b8ff" points="1116.57,-29.22 1119.68,-19.09 1110.93,-25.07 1116.57,-29.22"/>
</a>
</g>
</g>
<!-- Node25 -->
<g id="Node000025" class="node">
<title>Node25</title>
<g id="a_Node000025"><a xlink:title=" ">
<polygon fill="#e0e0e0" stroke="#999999" points="1262,-19 1176,-19 1176,0 1262,0 1262,-19"/>
<text text-anchor="middle" x="1219" y="-7" font-family="Helvetica,sans-Serif" font-size="10.00">d3dcompiler.h</text>
</a>
</g>
</g>
<!-- Node3&#45;&gt;Node25 -->
<g id="edge24_Node000003_Node000025" class="edge">
<title>Node3&#45;&gt;Node25</title>
<g id="a_edge24_Node000003_Node000025"><a xlink:title=" ">
<path fill="none" stroke="#63b8ff" d="M1108.21,-54.98C1129.73,-46.34 1163.28,-32.87 1187.83,-23.02"/>
<polygon fill="#63b8ff" stroke="#63b8ff" points="1189.43,-26.14 1197.41,-19.17 1186.82,-19.65 1189.43,-26.14"/>
</a>
</g>
</g>
<!-- Node26 -->
<g id="Node000026" class="node">
<title>Node26</title>
<g id="a_Node000026"><a xlink:title=" ">
<polygon fill="#e0e0e0" stroke="#999999" points="2153,-19 2067,-19 2067,0 2153,0 2153,-19"/>
<text text-anchor="middle" x="2110" y="-7" font-family="Helvetica,sans-Serif" font-size="10.00">DirectXMath.h</text>
</a>
</g>
</g>
<!-- Node3&#45;&gt;Node26 -->
<g id="edge25_Node000003_Node000026" class="edge">
<title>Node3&#45;&gt;Node26</title>
<g id="a_edge25_Node000003_Node000026"><a xlink:title=" ">
<path fill="none" stroke="#63b8ff" d="M1143.59,-61.77C1320.08,-56.25 1859.94,-38.31 2056.96,-18.95"/>
<polygon fill="#63b8ff" stroke="#63b8ff" points="2057.33,-22.43 2066.92,-17.94 2056.62,-15.47 2057.33,-22.43"/>
</a>
</g>
</g>
<!-- Node27 -->
<g id="Node000027" class="node">
<title>Node27</title>
<g id="a_Node000027"><a xlink:title=" ">
<polygon fill="#e0e0e0" stroke="#999999" points="1397.5,-19 1280.5,-19 1280.5,0 1397.5,0 1397.5,-19"/>
<text text-anchor="middle" x="1339" y="-7" font-family="Helvetica,sans-Serif" font-size="10.00">assimp/Importer.hpp</text>
</a>
</g>
</g>
<!-- Node3&#45;&gt;Node27 -->
<g id="edge26_Node000003_Node000027" class="edge">
<title>Node3&#45;&gt;Node27</title>
<g id="a_edge26_Node000003_Node000027"><a xlink:title=" ">
<path fill="none" stroke="#63b8ff" d="M1127.49,-54.98C1171.17,-45.8 1240.81,-31.15 1288.15,-21.19"/>
<polygon fill="#63b8ff" stroke="#63b8ff" points="1289.13,-24.57 1298.19,-19.08 1287.69,-17.72 1289.13,-24.57"/>
</a>
</g>
</g>
<!-- Node28 -->
<g id="Node000028" class="node">
<title>Node28</title>
<g id="a_Node000028"><a xlink:title=" ">
<polygon fill="#e0e0e0" stroke="#999999" points="1508,-19 1416,-19 1416,0 1508,0 1508,-19"/>
<text text-anchor="middle" x="1462" y="-7" font-family="Helvetica,sans-Serif" font-size="10.00">assimp/scene.h</text>
</a>
</g>
</g>
<!-- Node3&#45;&gt;Node28 -->
<g id="edge27_Node000003_Node000028" class="edge">
<title>Node3&#45;&gt;Node28</title>
<g id="a_edge27_Node000003_Node000028"><a xlink:title=" ">
<path fill="none" stroke="#63b8ff" d="M1143.5,-55.83C1205.17,-47.41 1307.1,-33.35 1405.71,-19.02"/>
<polygon fill="#63b8ff" stroke="#63b8ff" points="1406.47,-22.45 1415.86,-17.55 1405.46,-15.52 1406.47,-22.45"/>
</a>
</g>
</g>
<!-- Node29 -->
<g id="Node000029" class="node">
<title>Node29</title>
<g id="a_Node000029"><a xlink:title=" ">
<polygon fill="#e0e0e0" stroke="#999999" points="1648,-19 1526,-19 1526,0 1648,0 1648,-19"/>
<text text-anchor="middle" x="1587" y="-7" font-family="Helvetica,sans-Serif" font-size="10.00">assimp/postprocess.h</text>
</a>
</g>
</g>
<!-- Node3&#45;&gt;Node29 -->
<g id="edge28_Node000003_Node000029" class="edge">
<title>Node3&#45;&gt;Node29</title>
<g id="a_edge28_Node000003_Node000029"><a xlink:title=" ">
<path fill="none" stroke="#63b8ff" d="M1143.73,-57.95C1224.09,-50.02 1375.98,-34.77 1515.87,-19.11"/>
<polygon fill="#63b8ff" stroke="#63b8ff" points="1516.38,-22.57 1525.92,-17.98 1515.6,-15.62 1516.38,-22.57"/>
</a>
</g>
</g>
<!-- Node30 -->
<g id="Node000030" class="node">
<title>Node30</title>
<g id="a_Node000030"><a xlink:href="Logger_8h.html" target="_top" xlink:title="デバッグログ出力システム">
<polygon fill="white" stroke="#666666" points="1744,-19 1666,-19 1666,0 1744,0 1744,-19"/>
<text text-anchor="middle" x="1705" y="-7" font-family="Helvetica,sans-Serif" font-size="10.00">Log/Logger.h</text>
</a>
</g>
</g>
<!-- Node3&#45;&gt;Node30 -->
<g id="edge29_Node000003_Node000030" class="edge">
<title>Node3&#45;&gt;Node30</title>
<g id="a_edge29_Node000003_Node000030"><a xlink:title=" ">
<path fill="none" stroke="#63b8ff" d="M1143.69,-60.63C1245.19,-55.34 1464.12,-42.4 1648,-19 1650.5,-18.68 1653.06,-18.32 1655.66,-17.94"/>
<polygon fill="#63b8ff" stroke="#63b8ff" points="1656.43,-21.36 1665.77,-16.34 1655.34,-14.44 1656.43,-21.36"/>
</a>
</g>
</g>
<!-- Node30&#45;&gt;Node3 -->
<g id="edge30_Node000030_Node000003" class="edge">
<title>Node30&#45;&gt;Node3</title>
<g id="a_edge30_Node000030_Node000003"><a xlink:title=" ">
<path fill="none" stroke="#63b8ff" d="M1665.72,-19.04C1481.44,-42.47 1262.04,-55.41 1153.9,-60.67"/>
<polygon fill="#63b8ff" stroke="#63b8ff" points="1153.6,-57.18 1143.78,-61.15 1153.94,-64.17 1153.6,-57.18"/>
</a>
</g>
</g>
<!-- Node32&#45;&gt;Node2 -->
<g id="edge37_Node000032_Node000002" class="edge">
<title>Node32&#45;&gt;Node2</title>
<g id="a_edge37_Node000032_Node000002"><a xlink:title=" ">
<path fill="none" stroke="#63b8ff" d="M1515.77,-219.84C1524.71,-211.26 1536.14,-200.3 1545.4,-191.42"/>
<polygon fill="#63b8ff" stroke="#63b8ff" points="1548.06,-193.71 1552.86,-184.27 1543.22,-188.66 1548.06,-193.71"/>
</a>
</g>
</g>
<!-- Node33 -->
<g id="Node000033" class="node">
<title>Node33</title>
<g id="a_Node000033"><a xlink:href="SpanMath_8h.html" target="_top" xlink:title="算術ライブラリ (Vector, Matrix, Quaternion)。">
<polygon fill="white" stroke="#666666" points="1540,-129 1412,-129 1412,-110 1540,-110 1540,-129"/>
<text text-anchor="middle" x="1476" y="-117" font-family="Helvetica,sans-Serif" font-size="10.00">Core/Math/SpanMath.h</text>
</a>
</g>
</g>
<!-- Node32&#45;&gt;Node33 -->
<g id="edge33_Node000032_Node000033" class="edge">
<title>Node32&#45;&gt;Node33</title>
<g id="a_edge33_Node000032_Node000033"><a xlink:title=" ">
<path fill="none" stroke="#63b8ff" d="M1497.83,-219.63C1493.34,-199.21 1485.1,-161.81 1480.13,-139.24"/>
<polygon fill="#63b8ff" stroke="#63b8ff" points="1483.49,-138.24 1477.92,-129.23 1476.66,-139.75 1483.49,-138.24"/>
</a>
</g>
</g>
<!-- Node33&#45;&gt;Node15 -->
<g id="edge36_Node000033_Node000015" class="edge">
<title>Node33&#45;&gt;Node15</title>
<g id="a_edge36_Node000033_Node000015"><a xlink:title=" ">
<path fill="none" stroke="#63b8ff" d="M1540.04,-110.52C1659.91,-95.31 1926.46,-60.12 2160.73,-19.14"/>
<polygon fill="#63b8ff" stroke="#63b8ff" points="2161.56,-22.54 2170.81,-17.37 2160.35,-15.65 2161.56,-22.54"/>
</a>
</g>
</g>
<!-- Node33&#45;&gt;Node26 -->
<g id="edge34_Node000033_Node000026" class="edge">
<title>Node33&#45;&gt;Node26</title>
<g id="a_edge34_Node000033_Node000026"><a xlink:title=" ">
<path fill="none" stroke="#63b8ff" d="M1475.73,-109.84C1475.81,-95.81 1478.25,-68.32 1495,-55 1542.14,-17.5 1961.04,-25.35 2056.88,-18.76"/>
<polygon fill="#63b8ff" stroke="#63b8ff" points="2057.26,-22.24 2066.92,-17.88 2056.65,-15.26 2057.26,-22.24"/>
</a>
</g>
</g>
<!-- Node34 -->
<g id="Node000034" class="node">
<title>Node34</title>
<g id="a_Node000034"><a xlink:title=" ">
<polygon fill="#e0e0e0" stroke="#999999" points="1551.5,-74 1504.5,-74 1504.5,-55 1551.5,-55 1551.5,-74"/>
<text text-anchor="middle" x="1528" y="-62" font-family="Helvetica,sans-Serif" font-size="10.00">cmath</text>
</a>
</g>
</g>
<!-- Node33&#45;&gt;Node34 -->
<g id="edge35_Node000033_Node000034" class="edge">
<title>Node33&#45;&gt;Node34</title>
<g id="a_edge35_Node000033_Node000034"><a xlink:title=" ">
<path fill="none" stroke="#63b8ff" d="M1484.59,-109.75C1492.16,-102.03 1503.38,-90.6 1512.51,-81.28"/>
<polygon fill="#63b8ff" stroke="#63b8ff" points="1515.07,-83.68 1519.57,-74.09 1510.07,-78.78 1515.07,-83.68"/>
</a>
</g>
</g>
<!-- Node35&#45;&gt;Node3 -->
<g id="edge40_Node000035_Node000003" class="edge">
<title>Node35&#45;&gt;Node3</title>
<g id="a_edge40_Node000035_Node000003"><a xlink:title=" ">
<path fill="none" stroke="#63b8ff" d="M1191.71,-225.23C1197.63,-215.59 1206.5,-199.4 1210,-184 1217.39,-151.51 1219.52,-135.44 1198,-110 1184.46,-94 1164.34,-83.7 1144.94,-77.09"/>
<polygon fill="#63b8ff" stroke="#63b8ff" points="1145.79,-73.69 1135.2,-74.05 1143.7,-80.37 1145.79,-73.69"/>
</a>
</g>
</g>
<!-- Node35&#45;&gt;Node33 -->
<g id="edge58_Node000035_Node000033" class="edge">
<title>Node35&#45;&gt;Node33</title>
<g id="a_edge58_Node000035_Node000033"><a xlink:title=" ">
<path fill="none" stroke="#63b8ff" d="M1231.94,-225.48C1270.34,-217.46 1326.06,-203.71 1372,-184 1403.02,-170.69 1435.77,-149.3 1456.05,-135.08"/>
<polygon fill="#63b8ff" stroke="#63b8ff" points="1458.32,-137.75 1464.44,-129.1 1454.26,-132.05 1458.32,-137.75"/>
</a>
</g>
</g>
<!-- Node36 -->
<g id="Node000036" class="node">
<title>Node36</title>
<g id="a_Node000036"><a xlink:href="GraphicsContext_8h.html" target="_top" xlink:title="DirectX 12 デヴァイスとスワップチェーンの管理クラス。">
<polygon fill="white" stroke="#666666" points="941,-184 809,-184 809,-165 941,-165 941,-184"/>
<text text-anchor="middle" x="875" y="-172" font-family="Helvetica,sans-Serif" font-size="10.00">Core/GraphicsContext.h</text>
</a>
</g>
</g>
<!-- Node35&#45;&gt;Node36 -->
<g id="edge41_Node000035_Node000036" class="edge">
<title>Node35&#45;&gt;Node36</title>
<g id="a_edge41_Node000035_Node000036"><a xlink:title=" ">
<path fill="none" stroke="#63b8ff" d="M1140.78,-225.49C1085.04,-215.01 990.35,-197.2 930.33,-185.91"/>
<polygon fill="#63b8ff" stroke="#63b8ff" points="930.75,-182.43 920.28,-184.02 929.46,-189.31 930.75,-182.43"/>
</a>
</g>
</g>
<!-- Node38 -->
<g id="Node000038" class="node">
<title>Node38</title>
<g id="a_Node000038"><a xlink:href="Shader_8h.html" target="_top" xlink:title="HLSLシェーダーのロードとコンパイル管理。">
<polygon fill="white" stroke="#666666" points="783,-184 699,-184 699,-165 783,-165 783,-184"/>
<text text-anchor="middle" x="741" y="-172" font-family="Helvetica,sans-Serif" font-size="10.00">Core/Shader.h</text>
</a>
</g>
</g>
<!-- Node35&#45;&gt;Node38 -->
<g id="edge45_Node000035_Node000038" class="edge">
<title>Node35&#45;&gt;Node38</title>
<g id="a_edge45_Node000035_Node000038"><a xlink:title=" ">
<path fill="none" stroke="#63b8ff" d="M1128.42,-226.8C1052.95,-217.31 916.49,-199.94 800,-184 797.79,-183.7 795.54,-183.39 793.26,-183.07"/>
<polygon fill="#63b8ff" stroke="#63b8ff" points="793.6,-179.58 783.21,-181.66 792.62,-186.51 793.6,-179.58"/>
</a>
</g>
</g>
<!-- Node39 -->
<g id="Node000039" class="node">
<title>Node39</title>
<g id="a_Node000039"><a xlink:href="ConstantBuffer_8h.html" target="_top" xlink:title="DirectX 12 定数バッファ (CBV) のラッパークラス">
<polygon fill="white" stroke="#666666" points="1092.5,-129 969.5,-129 969.5,-110 1092.5,-110 1092.5,-129"/>
<text text-anchor="middle" x="1031" y="-117" font-family="Helvetica,sans-Serif" font-size="10.00">Core/ConstantBuffer.h</text>
</a>
</g>
</g>
<!-- Node35&#45;&gt;Node39 -->
<g id="edge47_Node000035_Node000039" class="edge">
<title>Node35&#45;&gt;Node39</title>
<g id="a_edge47_Node000035_Node000039"><a xlink:title=" ">
<path fill="none" stroke="#63b8ff" d="M1154.59,-225.43C1130.31,-217.63 1096.93,-204.21 1073,-184 1058.05,-171.37 1046.34,-152.11 1039.13,-138.11"/>
<polygon fill="#63b8ff" stroke="#63b8ff" points="1042.22,-136.47 1034.69,-129.02 1035.93,-139.54 1042.22,-136.47"/>
</a>
</g>
</g>
<!-- Node40 -->
<g id="Node000040" class="node">
<title>Node40</title>
<g id="a_Node000040"><a xlink:href="Mesh_8h.html" target="_top" xlink:title="3Dモデルの形状データ (頂点バッファ) 管理。">
<polygon fill="white" stroke="#666666" points="1363.5,-184 1258.5,-184 1258.5,-165 1363.5,-165 1363.5,-184"/>
<text text-anchor="middle" x="1311" y="-172" font-family="Helvetica,sans-Serif" font-size="10.00">Resources/Mesh.h</text>
</a>
</g>
</g>
<!-- Node35&#45;&gt;Node40 -->
<g id="edge49_Node000035_Node000040" class="edge">
<title>Node35&#45;&gt;Node40</title>
<g id="a_edge49_Node000035_Node000040"><a xlink:title=" ">
<path fill="none" stroke="#63b8ff" d="M1204.18,-225.49C1225.01,-215.75 1259.37,-199.66 1283.48,-188.38"/>
<polygon fill="#63b8ff" stroke="#63b8ff" points="1285.23,-191.43 1292.8,-184.02 1282.26,-185.09 1285.23,-191.43"/>
</a>
</g>
</g>
<!-- Node41 -->
<g id="Node000041" class="node">
<title>Node41</title>
<g id="a_Node000041"><a xlink:href="Material_8h.html" target="_top" xlink:title="PBRマテリアルのパラメータ管理。">
<polygon fill="white" stroke="#666666" points="1201.5,-184 1082.5,-184 1082.5,-165 1201.5,-165 1201.5,-184"/>
<text text-anchor="middle" x="1142" y="-172" font-family="Helvetica,sans-Serif" font-size="10.00">Resources/Material.h</text>
</a>
</g>
</g>
<!-- Node35&#45;&gt;Node41 -->
<g id="edge52_Node000035_Node000041" class="edge">
<title>Node35&#45;&gt;Node41</title>
<g id="a_edge52_Node000035_Node000041"><a xlink:title=" ">
<path fill="none" stroke="#63b8ff" d="M1179.51,-225.37C1173.01,-216.73 1162.84,-203.2 1154.72,-192.42"/>
<polygon fill="#63b8ff" stroke="#63b8ff" points="1157.33,-190.06 1148.52,-184.17 1151.73,-194.26 1157.33,-190.06"/>
</a>
</g>
</g>
<!-- Node36&#45;&gt;Node3 -->
<g id="edge42_Node000036_Node000003" class="edge">
<title>Node36&#45;&gt;Node3</title>
<g id="a_edge42_Node000036_Node000003"><a xlink:title=" ">
<path fill="none" stroke="#63b8ff" d="M845.43,-164.91C813.09,-154.06 768.4,-133.9 789,-110 818.21,-76.11 941.45,-67.64 1020.01,-65.75"/>
<polygon fill="#63b8ff" stroke="#63b8ff" points="1020.38,-69.25 1030.31,-65.54 1020.24,-62.25 1020.38,-69.25"/>
</a>
</g>
</g>
<!-- Node37 -->
<g id="Node000037" class="node">
<title>Node37</title>
<g id="a_Node000037"><a xlink:href="Window_8h.html" target="_top" xlink:title=" ">
<polygon fill="white" stroke="#666666" points="951.5,-129 798.5,-129 798.5,-110 951.5,-110 951.5,-129"/>
<text text-anchor="middle" x="875" y="-117" font-family="Helvetica,sans-Serif" font-size="10.00">Runtime/Platform/Window.h</text>
</a>
</g>
</g>
<!-- Node36&#45;&gt;Node37 -->
<g id="edge43_Node000036_Node000037" class="edge">
<title>Node36&#45;&gt;Node37</title>
<g id="a_edge43_Node000036_Node000037"><a xlink:title=" ">
<path fill="none" stroke="#63b8ff" d="M875,-164.75C875,-157.8 875,-147.85 875,-139.13"/>
<polygon fill="#63b8ff" stroke="#63b8ff" points="878.5,-139.09 875,-129.09 871.5,-139.09 878.5,-139.09"/>
</a>
</g>
</g>
<!-- Node37&#45;&gt;Node3 -->
<g id="edge44_Node000037_Node000003" class="edge">
<title>Node37&#45;&gt;Node3</title>
<g id="a_edge44_Node000037_Node000003"><a xlink:title=" ">
<path fill="none" stroke="#63b8ff" d="M909.06,-109.98C945.42,-100.89 1003.17,-86.46 1042.97,-76.51"/>
<polygon fill="#63b8ff" stroke="#63b8ff" points="1043.82,-79.9 1052.67,-74.08 1042.12,-73.11 1043.82,-79.9"/>
</a>
</g>
</g>
<!-- Node38&#45;&gt;Node3 -->
<g id="edge46_Node000038_Node000003" class="edge">
<title>Node38&#45;&gt;Node3</title>
<g id="a_edge46_Node000038_Node000003"><a xlink:title=" ">
<path fill="none" stroke="#63b8ff" d="M743.64,-164.82C748.42,-150.75 759.9,-123.23 780,-110 818.37,-84.75 941.93,-73.39 1020.1,-68.62"/>
<polygon fill="#63b8ff" stroke="#63b8ff" points="1020.57,-72.1 1030.34,-68.02 1020.15,-65.11 1020.57,-72.1"/>
</a>
</g>
</g>
<!-- Node39&#45;&gt;Node3 -->
<g id="edge48_Node000039_Node000003" class="edge">
<title>Node39&#45;&gt;Node3</title>
<g id="a_edge48_Node000039_Node000003"><a xlink:title=" ">
<path fill="none" stroke="#63b8ff" d="M1040,-109.98C1048.19,-102.23 1060.51,-90.58 1070.47,-81.14"/>
<polygon fill="#63b8ff" stroke="#63b8ff" points="1072.98,-83.59 1077.84,-74.17 1068.17,-78.5 1072.98,-83.59"/>
</a>
</g>
</g>
<!-- Node40&#45;&gt;Node3 -->
<g id="edge50_Node000040_Node000003" class="edge">
<title>Node40&#45;&gt;Node3</title>
<g id="a_edge50_Node000040_Node000003"><a xlink:title=" ">
<path fill="none" stroke="#63b8ff" d="M1305.39,-164.64C1296.17,-150.83 1276.47,-124.27 1253,-110 1222.98,-91.75 1185.45,-80.87 1153.68,-74.45"/>
<polygon fill="#63b8ff" stroke="#63b8ff" points="1154.06,-70.96 1143.58,-72.51 1152.74,-77.83 1154.06,-70.96"/>
</a>
</g>
</g>
<!-- Node40&#45;&gt;Node33 -->
<g id="edge51_Node000040_Node000033" class="edge">
<title>Node40&#45;&gt;Node33</title>
<g id="a_edge51_Node000040_Node000033"><a xlink:title=" ">
<path fill="none" stroke="#63b8ff" d="M1337.51,-164.98C1365.21,-156.09 1408.86,-142.07 1439.74,-132.15"/>
<polygon fill="#63b8ff" stroke="#63b8ff" points="1440.83,-135.47 1449.28,-129.08 1438.69,-128.81 1440.83,-135.47"/>
</a>
</g>
</g>
<!-- Node41&#45;&gt;Node3 -->
<g id="edge53_Node000041_Node000003" class="edge">
<title>Node41&#45;&gt;Node3</title>
<g id="a_edge53_Node000041_Node000003"><a xlink:title=" ">
<path fill="none" stroke="#63b8ff" d="M1154.34,-164.86C1170.24,-152.63 1194.44,-129.57 1182,-110 1172.12,-94.45 1155.21,-84.25 1138.38,-77.58"/>
<polygon fill="#63b8ff" stroke="#63b8ff" points="1139.12,-74.13 1128.53,-74.06 1136.76,-80.72 1139.12,-74.13"/>
</a>
</g>
</g>
<!-- Node41&#45;&gt;Node33 -->
<g id="edge54_Node000041_Node000033" class="edge">
<title>Node41&#45;&gt;Node33</title>
<g id="a_edge54_Node000041_Node000033"><a xlink:title=" ">
<path fill="none" stroke="#63b8ff" d="M1195.66,-164.98C1254.62,-155.63 1349.25,-140.61 1412.02,-130.65"/>
<polygon fill="#63b8ff" stroke="#63b8ff" points="1412.87,-134.06 1422.19,-129.04 1411.77,-127.15 1412.87,-134.06"/>
</a>
</g>
</g>
<!-- Node41&#45;&gt;Node39 -->
<g id="edge55_Node000041_Node000039" class="edge">
<title>Node41&#45;&gt;Node39</title>
<g id="a_edge55_Node000041_Node000039"><a xlink:title=" ">
<path fill="none" stroke="#63b8ff" d="M1124.17,-164.98C1106.39,-156.5 1078.85,-143.35 1058.32,-133.54"/>
<polygon fill="#63b8ff" stroke="#63b8ff" points="1059.69,-130.32 1049.16,-129.17 1056.67,-136.64 1059.69,-130.32"/>
</a>
</g>
</g>
<!-- Node42 -->
<g id="Node000042" class="node">
<title>Node42</title>
<g id="a_Node000042"><a xlink:href="Texture_8h.html" target="_top" xlink:title="画像読み込みとテクスチャリソース管理。">
<polygon fill="white" stroke="#666666" points="1173,-129 1111,-129 1111,-110 1173,-110 1173,-129"/>
<text text-anchor="middle" x="1142" y="-117" font-family="Helvetica,sans-Serif" font-size="10.00">Texture.h</text>
</a>
</g>
</g>
<!-- Node41&#45;&gt;Node42 -->
<g id="edge56_Node000041_Node000042" class="edge">
<title>Node41&#45;&gt;Node42</title>
<g id="a_edge56_Node000041_Node000042"><a xlink:title=" ">
<path fill="none" stroke="#63b8ff" d="M1142,-164.75C1142,-157.8 1142,-147.85 1142,-139.13"/>
<polygon fill="#63b8ff" stroke="#63b8ff" points="1145.5,-139.09 1142,-129.09 1138.5,-139.09 1145.5,-139.09"/>
</a>
</g>
</g>
<!-- Node42&#45;&gt;Node3 -->
<g id="edge57_Node000042_Node000003" class="edge">
<title>Node42&#45;&gt;Node3</title>
<g id="a_edge57_Node000042_Node000003"><a xlink:title=" ">
<path fill="none" stroke="#63b8ff" d="M1132.92,-109.75C1124.91,-102.03 1113.04,-90.6 1103.38,-81.28"/>
<polygon fill="#63b8ff" stroke="#63b8ff" points="1105.54,-78.51 1095.91,-74.09 1100.69,-83.55 1105.54,-78.51"/>
</a>
</g>
</g>
</g>
</svg>
