<?xml version="1.0" encoding="UTF-8" standalone="no"?>
<!DOCTYPE svg PUBLIC "-//W3C//DTD SVG 1.1//EN"
 "http://www.w3.org/Graphics/SVG/1.1/DTD/svg11.dtd">
<!-- Generated by graphviz version 2.43.0 (0)
 -->
<!-- Title: Engine/Source/Editor/GuiManager.cpp Pages: 1 -->
<svg width="2243pt" height="379pt"
 viewBox="0.00 0.00 2243.00 379.00" xmlns="http://www.w3.org/2000/svg" xmlns:xlink="http://www.w3.org/1999/xlink">
<g id="graph0" class="graph" transform="scale(1 1) rotate(0) translate(4 375)">
<title>Engine/Source/Editor/GuiManager.cpp</title>
<!-- Node1 -->
<g id="Node000001" class="node">
<title>Node1</title>
<g id="a_Node000001"><a xlink:title=" ">
<polygon fill="#999999" stroke="#666666" points="1253.5,-371 1136.5,-371 1136.5,-341 1253.5,-341 1253.5,-371"/>
<text text-anchor="start" x="1144.5" y="-359" font-family="Helvetica,sans-Serif" font-size="10.00">Engine/Source/Editor</text>
<text text-anchor="middle" x="1195" y="-348" font-family="Helvetica,sans-Serif" font-size="10.00">/GuiManager.cpp</text>
</a>
</g>
</g>
<!-- Node2 -->
<g id="Node000002" class="node">
<title>Node2</title>
<g id="a_Node000002"><a xlink:href="GuiManager_8h.html" target="_top" xlink:title=" ">
<polygon fill="white" stroke="#666666" points="1237,-305 1153,-305 1153,-286 1237,-286 1237,-305"/>
<text text-anchor="middle" x="1195" y="-293" font-family="Helvetica,sans-Serif" font-size="10.00">GuiManager.h</text>
</a>
</g>
</g>
<!-- Node1&#45;&gt;Node2 -->
<g id="edge1_Node000001_Node000002" class="edge">
<title>Node1&#45;&gt;Node2</title>
<g id="a_edge1_Node000001_Node000002"><a xlink:title=" ">
<path fill="none" stroke="#63b8ff" d="M1195,-340.84C1195,-333.21 1195,-323.7 1195,-315.45"/>
<polygon fill="#63b8ff" stroke="#63b8ff" points="1198.5,-315.27 1195,-305.27 1191.5,-315.27 1198.5,-315.27"/>
</a>
</g>
</g>
<!-- Node46 -->
<g id="Node000046" class="node">
<title>Node46</title>
<g id="a_Node000046"><a xlink:href="PanelManager_8h.html" target="_top" xlink:title=" ">
<polygon fill="white" stroke="#666666" points="1431,-305 1337,-305 1337,-286 1431,-286 1431,-305"/>
<text text-anchor="middle" x="1384" y="-293" font-family="Helvetica,sans-Serif" font-size="10.00">PanelManager.h</text>
</a>
</g>
</g>
<!-- Node1&#45;&gt;Node46 -->
<g id="edge63_Node000001_Node000046" class="edge">
<title>Node1&#45;&gt;Node46</title>
<g id="a_edge63_Node000001_Node000046"><a xlink:title=" ">
<path fill="none" stroke="#63b8ff" d="M1240.27,-340.99C1272.75,-330.94 1315.99,-317.55 1346.53,-308.1"/>
<polygon fill="#63b8ff" stroke="#63b8ff" points="1347.85,-311.35 1356.37,-305.05 1345.78,-304.67 1347.85,-311.35"/>
</a>
</g>
</g>
<!-- Node47 -->
<g id="Node000047" class="node">
<title>Node47</title>
<g id="a_Node000047"><a xlink:href="Input_8h.html" target="_top" xlink:title=" ">
<polygon fill="white" stroke="#666666" points="500,-184 422,-184 422,-165 500,-165 500,-184"/>
<text text-anchor="middle" x="461" y="-172" font-family="Helvetica,sans-Serif" font-size="10.00">Input/Input.h</text>
</a>
</g>
</g>
<!-- Node1&#45;&gt;Node47 -->
<g id="edge65_Node000001_Node000047" class="edge">
<title>Node1&#45;&gt;Node47</title>
<g id="a_edge65_Node000001_Node000047"><a xlink:title=" ">
<path fill="none" stroke="#63b8ff" d="M1136.42,-343.84C1044.91,-326.07 862.68,-289.3 710,-250 633.3,-230.26 544.73,-202.57 496.62,-187.11"/>
<polygon fill="#63b8ff" stroke="#63b8ff" points="497.57,-183.74 486.98,-184 495.43,-190.4 497.57,-183.74"/>
</a>
</g>
</g>
<!-- Node3 -->
<g id="Node000003" class="node">
<title>Node3</title>
<g id="a_Node000003"><a xlink:href="EditorPanel_8h.html" target="_top" xlink:title=" ">
<polygon fill="white" stroke="#666666" points="1417.5,-184 1302.5,-184 1302.5,-165 1417.5,-165 1417.5,-184"/>
<text text-anchor="middle" x="1360" y="-172" font-family="Helvetica,sans-Serif" font-size="10.00">Panels/EditorPanel.h</text>
</a>
</g>
</g>
<!-- Node2&#45;&gt;Node3 -->
<g id="edge2_Node000002_Node000003" class="edge">
<title>Node2&#45;&gt;Node3</title>
<g id="a_edge2_Node000002_Node000003"><a xlink:title=" ">
<path fill="none" stroke="#63b8ff" d="M1237.22,-286.99C1262.89,-280.67 1295.03,-269.44 1318,-250 1335.67,-235.05 1347.39,-210.69 1353.86,-193.92"/>
<polygon fill="#63b8ff" stroke="#63b8ff" points="1357.27,-194.76 1357.36,-184.17 1350.68,-192.4 1357.27,-194.76"/>
</a>
</g>
</g>
<!-- Node4 -->
<g id="Node000004" class="node">
<title>Node4</title>
<g id="a_Node000004"><a xlink:href="CoreMinimal_8h.html" target="_top" xlink:title=" ">
<polygon fill="white" stroke="#666666" points="1039.5,-74 926.5,-74 926.5,-55 1039.5,-55 1039.5,-74"/>
<text text-anchor="middle" x="983" y="-62" font-family="Helvetica,sans-Serif" font-size="10.00">Core/CoreMinimal.h</text>
</a>
</g>
</g>
<!-- Node2&#45;&gt;Node4 -->
<g id="edge39_Node000002_Node000004" class="edge">
<title>Node2&#45;&gt;Node4</title>
<g id="a_edge39_Node000002_Node000004"><a xlink:title=" ">
<path fill="none" stroke="#63b8ff" d="M1237.17,-289.5C1313.06,-278.41 1461.64,-246.01 1426,-165 1411.43,-131.89 1398.9,-125.04 1366,-110 1311.23,-84.96 1144.22,-73.13 1049.83,-68.32"/>
<polygon fill="#63b8ff" stroke="#63b8ff" points="1049.97,-64.82 1039.81,-67.82 1049.62,-71.81 1049.97,-64.82"/>
</a>
</g>
</g>
<!-- Node32 -->
<g id="Node000032" class="node">
<title>Node32</title>
<g id="a_Node000032"><a xlink:title=" ">
<polygon fill="#e0e0e0" stroke="#999999" points="1337.5,-129 1284.5,-129 1284.5,-110 1337.5,-110 1337.5,-129"/>
<text text-anchor="middle" x="1311" y="-117" font-family="Helvetica,sans-Serif" font-size="10.00">imgui.h</text>
</a>
</g>
</g>
<!-- Node2&#45;&gt;Node32 -->
<g id="edge60_Node000002_Node000032" class="edge">
<title>Node2&#45;&gt;Node32</title>
<g id="a_edge60_Node000002_Node000032"><a xlink:title=" ">
<path fill="none" stroke="#63b8ff" d="M1230.05,-285.88C1249.15,-279.3 1271.4,-268.17 1284,-250 1305.65,-218.78 1283.79,-201.86 1293,-165 1295.25,-156.01 1298.94,-146.42 1302.4,-138.47"/>
<polygon fill="#63b8ff" stroke="#63b8ff" points="1305.7,-139.67 1306.67,-129.12 1299.33,-136.76 1305.7,-139.67"/>
</a>
</g>
</g>
<!-- Node33 -->
<g id="Node000033" class="node">
<title>Node33</title>
<g id="a_Node000033"><a xlink:href="SceneViewPanel_8h.html" target="_top" xlink:title=" ">
<polygon fill="white" stroke="#666666" points="1275.5,-250 1114.5,-250 1114.5,-220 1275.5,-220 1275.5,-250"/>
<text text-anchor="start" x="1122.5" y="-238" font-family="Helvetica,sans-Serif" font-size="10.00">Panels/SceneView/SceneView</text>
<text text-anchor="middle" x="1195" y="-227" font-family="Helvetica,sans-Serif" font-size="10.00">Panel.h</text>
</a>
</g>
</g>
<!-- Node2&#45;&gt;Node33 -->
<g id="edge33_Node000002_Node000033" class="edge">
<title>Node2&#45;&gt;Node33</title>
<g id="a_edge33_Node000002_Node000033"><a xlink:title=" ">
<path fill="none" stroke="#63b8ff" d="M1195,-285.87C1195,-279.11 1195,-269.35 1195,-260.26"/>
<polygon fill="#63b8ff" stroke="#63b8ff" points="1198.5,-260.11 1195,-250.11 1191.5,-260.11 1198.5,-260.11"/>
</a>
</g>
</g>
<!-- Node36 -->
<g id="Node000036" class="node">
<title>Node36</title>
<g id="a_Node000036"><a xlink:href="Renderer_8h.html" target="_top" xlink:title=" ">
<polygon fill="white" stroke="#666666" points="834.5,-244.5 719.5,-244.5 719.5,-225.5 834.5,-225.5 834.5,-244.5"/>
<text text-anchor="middle" x="777" y="-232.5" font-family="Helvetica,sans-Serif" font-size="10.00">Graphics/Renderer.h</text>
</a>
</g>
</g>
<!-- Node2&#45;&gt;Node36 -->
<g id="edge40_Node000002_Node000036" class="edge">
<title>Node2&#45;&gt;Node36</title>
<g id="a_edge40_Node000002_Node000036"><a xlink:title=" ">
<path fill="none" stroke="#63b8ff" d="M1152.84,-290.32C1086.62,-283.49 954.3,-268.81 843,-250 837.08,-249 830.89,-247.84 824.76,-246.62"/>
<polygon fill="#63b8ff" stroke="#63b8ff" points="825.09,-243.12 814.59,-244.54 823.69,-249.97 825.09,-243.12"/>
</a>
</g>
</g>
<!-- Node44 -->
<g id="Node000044" class="node">
<title>Node44</title>
<g id="a_Node000044"><a xlink:title=" ">
<polygon fill="#e0e0e0" stroke="#999999" points="967.5,-244.5 852.5,-244.5 852.5,-225.5 967.5,-225.5 967.5,-244.5"/>
<text text-anchor="middle" x="910" y="-232.5" font-family="Helvetica,sans-Serif" font-size="10.00">imgui_impl_win32.h</text>
</a>
</g>
</g>
<!-- Node2&#45;&gt;Node44 -->
<g id="edge61_Node000002_Node000044" class="edge">
<title>Node2&#45;&gt;Node44</title>
<g id="a_edge61_Node000002_Node000044"><a xlink:title=" ">
<path fill="none" stroke="#63b8ff" d="M1152.79,-285.94C1108.87,-277.03 1038.09,-262.62 977,-250 971.69,-248.9 966.15,-247.75 960.62,-246.6"/>
<polygon fill="#63b8ff" stroke="#63b8ff" points="961.24,-243.16 950.74,-244.54 959.82,-250.01 961.24,-243.16"/>
</a>
</g>
</g>
<!-- Node45 -->
<g id="Node000045" class="node">
<title>Node45</title>
<g id="a_Node000045"><a xlink:title=" ">
<polygon fill="#e0e0e0" stroke="#999999" points="1096,-244.5 986,-244.5 986,-225.5 1096,-225.5 1096,-244.5"/>
<text text-anchor="middle" x="1041" y="-232.5" font-family="Helvetica,sans-Serif" font-size="10.00">imgui_impl_dx12.h</text>
</a>
</g>
</g>
<!-- Node2&#45;&gt;Node45 -->
<g id="edge62_Node000002_Node000045" class="edge">
<title>Node2&#45;&gt;Node45</title>
<g id="a_edge62_Node000002_Node000045"><a xlink:title=" ">
<path fill="none" stroke="#63b8ff" d="M1172.61,-285.99C1146.38,-276.03 1102.72,-259.45 1072.94,-248.13"/>
<polygon fill="#63b8ff" stroke="#63b8ff" points="1074.01,-244.8 1063.42,-244.52 1071.53,-251.34 1074.01,-244.8"/>
</a>
</g>
</g>
<!-- Node3&#45;&gt;Node4 -->
<g id="edge3_Node000003_Node000004" class="edge">
<title>Node3&#45;&gt;Node4</title>
<g id="a_edge3_Node000003_Node000004"><a xlink:title=" ">
<path fill="none" stroke="#63b8ff" d="M1360.95,-164.57C1361.88,-150.66 1361.37,-123.97 1346,-110 1303.89,-71.71 1142.73,-65.23 1049.92,-64.78"/>
<polygon fill="#63b8ff" stroke="#63b8ff" points="1049.79,-61.28 1039.78,-64.75 1049.77,-68.28 1049.79,-61.28"/>
</a>
</g>
</g>
<!-- Node3&#45;&gt;Node32 -->
<g id="edge32_Node000003_Node000032" class="edge">
<title>Node3&#45;&gt;Node32</title>
<g id="a_edge32_Node000003_Node000032"><a xlink:title=" ">
<path fill="none" stroke="#63b8ff" d="M1351.91,-164.75C1344.84,-157.11 1334.41,-145.82 1325.85,-136.56"/>
<polygon fill="#63b8ff" stroke="#63b8ff" points="1328.3,-134.06 1318.94,-129.09 1323.16,-138.81 1328.3,-134.06"/>
</a>
</g>
</g>
<!-- Node5 -->
<g id="Node000005" class="node">
<title>Node5</title>
<g id="a_Node000005"><a xlink:title=" ">
<polygon fill="#e0e0e0" stroke="#999999" points="1999,-19 1929,-19 1929,0 1999,0 1999,-19"/>
<text text-anchor="middle" x="1964" y="-7" font-family="Helvetica,sans-Serif" font-size="10.00">Windows.h</text>
</a>
</g>
</g>
<!-- Node4&#45;&gt;Node5 -->
<g id="edge4_Node000004_Node000005" class="edge">
<title>Node4&#45;&gt;Node5</title>
<g id="a_edge4_Node000004_Node000005"><a xlink:title=" ">
<path fill="none" stroke="#63b8ff" d="M1039.74,-63.63C1184.66,-63.36 1580.28,-58.82 1918.54,-18.99"/>
<polygon fill="#63b8ff" stroke="#63b8ff" points="1919.01,-22.46 1928.53,-17.81 1918.18,-15.51 1919.01,-22.46"/>
</a>
</g>
</g>
<!-- Node6 -->
<g id="Node000006" class="node">
<title>Node6</title>
<g id="a_Node000006"><a xlink:title=" ">
<polygon fill="#e0e0e0" stroke="#999999" points="2088.5,-19 2017.5,-19 2017.5,0 2088.5,0 2088.5,-19"/>
<text text-anchor="middle" x="2053" y="-7" font-family="Helvetica,sans-Serif" font-size="10.00">wrl/client.h</text>
</a>
</g>
</g>
<!-- Node4&#45;&gt;Node6 -->
<g id="edge5_Node000004_Node000006" class="edge">
<title>Node4&#45;&gt;Node6</title>
<g id="a_edge5_Node000004_Node000006"><a xlink:title=" ">
<path fill="none" stroke="#63b8ff" d="M1039.61,-63.88C1193.57,-64.31 1632.81,-61.5 2007.26,-18.88"/>
<polygon fill="#63b8ff" stroke="#63b8ff" points="2007.67,-22.36 2017.21,-17.74 2006.88,-15.4 2007.67,-22.36"/>
</a>
</g>
</g>
<!-- Node7 -->
<g id="Node000007" class="node">
<title>Node7</title>
<g id="a_Node000007"><a xlink:title=" ">
<polygon fill="#e0e0e0" stroke="#999999" points="2157,-19 2107,-19 2107,0 2157,0 2157,-19"/>
<text text-anchor="middle" x="2132" y="-7" font-family="Helvetica,sans-Serif" font-size="10.00">cstdint</text>
</a>
</g>
</g>
<!-- Node4&#45;&gt;Node7 -->
<g id="edge6_Node000004_Node000007" class="edge">
<title>Node4&#45;&gt;Node7</title>
<g id="a_edge6_Node000004_Node000007"><a xlink:title=" ">
<path fill="none" stroke="#63b8ff" d="M1039.62,-62.77C1233.5,-60.06 1870.72,-49.11 2096.74,-18.81"/>
<polygon fill="#63b8ff" stroke="#63b8ff" points="2097.44,-22.24 2106.86,-17.39 2096.48,-15.31 2097.44,-22.24"/>
</a>
</g>
</g>
<!-- Node8 -->
<g id="Node000008" class="node">
<title>Node8</title>
<g id="a_Node000008"><a xlink:title=" ">
<polygon fill="#e0e0e0" stroke="#999999" points="2235,-19 2175,-19 2175,0 2235,0 2235,-19"/>
<text text-anchor="middle" x="2205" y="-7" font-family="Helvetica,sans-Serif" font-size="10.00">iostream</text>
</a>
</g>
</g>
<!-- Node4&#45;&gt;Node8 -->
<g id="edge7_Node000004_Node000008" class="edge">
<title>Node4&#45;&gt;Node8</title>
<g id="a_edge7_Node000004_Node000008"><a xlink:title=" ">
<path fill="none" stroke="#63b8ff" d="M1039.82,-62.7C1241.67,-59.63 1924.42,-47.48 2164.78,-18.86"/>
<polygon fill="#63b8ff" stroke="#63b8ff" points="2165.36,-22.32 2174.86,-17.62 2164.5,-15.37 2165.36,-22.32"/>
</a>
</g>
</g>
<!-- Node9 -->
<g id="Node000009" class="node">
<title>Node9</title>
<g id="a_Node000009"><a xlink:title=" ">
<polygon fill="#e0e0e0" stroke="#999999" points="230,-19 186,-19 186,0 230,0 230,-19"/>
<text text-anchor="middle" x="208" y="-7" font-family="Helvetica,sans-Serif" font-size="10.00">string</text>
</a>
</g>
</g>
<!-- Node4&#45;&gt;Node9 -->
<g id="edge8_Node000004_Node000009" class="edge">
<title>Node4&#45;&gt;Node9</title>
<g id="a_edge8_Node000004_Node000009"><a xlink:title=" ">
<path fill="none" stroke="#63b8ff" d="M926.09,-64.11C802.52,-64.56 500.54,-61 240.25,-18.84"/>
<polygon fill="#63b8ff" stroke="#63b8ff" points="240.66,-15.36 230.23,-17.19 239.53,-22.26 240.66,-15.36"/>
</a>
</g>
</g>
<!-- Node10 -->
<g id="Node000010" class="node">
<title>Node10</title>
<g id="a_Node000010"><a xlink:title=" ">
<polygon fill="#e0e0e0" stroke="#999999" points="295.5,-19 248.5,-19 248.5,0 295.5,0 295.5,-19"/>
<text text-anchor="middle" x="272" y="-7" font-family="Helvetica,sans-Serif" font-size="10.00">vector</text>
</a>
</g>
</g>
<!-- Node4&#45;&gt;Node10 -->
<g id="edge9_Node000004_Node000010" class="edge">
<title>Node4&#45;&gt;Node10</title>
<g id="a_edge9_Node000004_Node000010"><a xlink:title=" ">
<path fill="none" stroke="#63b8ff" d="M926.24,-63.49C810.78,-62.66 540.29,-56.64 305.74,-18.97"/>
<polygon fill="#63b8ff" stroke="#63b8ff" points="306.09,-15.48 295.65,-17.33 304.96,-22.39 306.09,-15.48"/>
</a>
</g>
</g>
<!-- Node11 -->
<g id="Node000011" class="node">
<title>Node11</title>
<g id="a_Node000011"><a xlink:title=" ">
<polygon fill="#e0e0e0" stroke="#999999" points="360.5,-19 313.5,-19 313.5,0 360.5,0 360.5,-19"/>
<text text-anchor="middle" x="337" y="-7" font-family="Helvetica,sans-Serif" font-size="10.00">deque</text>
</a>
</g>
</g>
<!-- Node4&#45;&gt;Node11 -->
<g id="edge10_Node000004_Node000011" class="edge">
<title>Node4&#45;&gt;Node11</title>
<g id="a_edge10_Node000004_Node000011"><a xlink:title=" ">
<path fill="none" stroke="#63b8ff" d="M926.29,-62.93C819.18,-61.08 579.81,-53.29 370.6,-18.97"/>
<polygon fill="#63b8ff" stroke="#63b8ff" points="371.1,-15.5 360.66,-17.31 369.95,-22.41 371.1,-15.5"/>
</a>
</g>
</g>
<!-- Node12 -->
<g id="Node000012" class="node">
<title>Node12</title>
<g id="a_Node000012"><a xlink:title=" ">
<polygon fill="#e0e0e0" stroke="#999999" points="471.5,-19 378.5,-19 378.5,0 471.5,0 471.5,-19"/>
<text text-anchor="middle" x="425" y="-7" font-family="Helvetica,sans-Serif" font-size="10.00">unordered_map</text>
</a>
</g>
</g>
<!-- Node4&#45;&gt;Node12 -->
<g id="edge11_Node000004_Node000012" class="edge">
<title>Node4&#45;&gt;Node12</title>
<g id="a_edge11_Node000004_Node000012"><a xlink:title=" ">
<path fill="none" stroke="#63b8ff" d="M926.42,-59.64C835.15,-53.15 649.58,-38.92 481.73,-19.01"/>
<polygon fill="#63b8ff" stroke="#63b8ff" points="482.07,-15.53 471.72,-17.81 481.24,-22.48 482.07,-15.53"/>
</a>
</g>
</g>
<!-- Node13 -->
<g id="Node000013" class="node">
<title>Node13</title>
<g id="a_Node000013"><a xlink:title=" ">
<polygon fill="#e0e0e0" stroke="#999999" points="528,-19 490,-19 490,0 528,0 528,-19"/>
<text text-anchor="middle" x="509" y="-7" font-family="Helvetica,sans-Serif" font-size="10.00">map</text>
</a>
</g>
</g>
<!-- Node4&#45;&gt;Node13 -->
<g id="edge12_Node000004_Node000013" class="edge">
<title>Node4&#45;&gt;Node13</title>
<g id="a_edge12_Node000004_Node000013"><a xlink:title=" ">
<path fill="none" stroke="#63b8ff" d="M926.15,-61.38C842.8,-57.49 682.52,-47.06 538.08,-18.83"/>
<polygon fill="#63b8ff" stroke="#63b8ff" points="538.64,-15.37 528.15,-16.85 537.28,-22.24 538.64,-15.37"/>
</a>
</g>
</g>
<!-- Node14 -->
<g id="Node000014" class="node">
<title>Node14</title>
<g id="a_Node000014"><a xlink:title=" ">
<polygon fill="#e0e0e0" stroke="#999999" points="604,-19 546,-19 546,0 604,0 604,-19"/>
<text text-anchor="middle" x="575" y="-7" font-family="Helvetica,sans-Serif" font-size="10.00">memory</text>
</a>
</g>
</g>
<!-- Node4&#45;&gt;Node14 -->
<g id="edge13_Node000004_Node000014" class="edge">
<title>Node4&#45;&gt;Node14</title>
<g id="a_edge13_Node000004_Node000014"><a xlink:title=" ">
<path fill="none" stroke="#63b8ff" d="M926.33,-58.47C855.57,-51.79 730.65,-38.69 614.53,-19.11"/>
<polygon fill="#63b8ff" stroke="#63b8ff" points="614.85,-15.61 604.4,-17.38 613.67,-22.51 614.85,-15.61"/>
</a>
</g>
</g>
<!-- Node15 -->
<g id="Node000015" class="node">
<title>Node15</title>
<g id="a_Node000015"><a xlink:title=" ">
<polygon fill="#e0e0e0" stroke="#999999" points="168,-19 104,-19 104,0 168,0 168,-19"/>
<text text-anchor="middle" x="136" y="-7" font-family="Helvetica,sans-Serif" font-size="10.00">algorithm</text>
</a>
</g>
</g>
<!-- Node4&#45;&gt;Node15 -->
<g id="edge14_Node000004_Node000015" class="edge">
<title>Node4&#45;&gt;Node15</title>
<g id="a_edge14_Node000004_Node000015"><a xlink:title=" ">
<path fill="none" stroke="#63b8ff" d="M926.05,-63.27C795.44,-62.11 464.2,-55.61 178.3,-18.96"/>
<polygon fill="#63b8ff" stroke="#63b8ff" points="178.52,-15.45 168.15,-17.64 177.62,-22.4 178.52,-15.45"/>
</a>
</g>
</g>
<!-- Node16 -->
<g id="Node000016" class="node">
<title>Node16</title>
<g id="a_Node000016"><a xlink:title=" ">
<polygon fill="#e0e0e0" stroke="#999999" points="687.5,-19 622.5,-19 622.5,0 687.5,0 687.5,-19"/>
<text text-anchor="middle" x="655" y="-7" font-family="Helvetica,sans-Serif" font-size="10.00">functional</text>
</a>
</g>
</g>
<!-- Node4&#45;&gt;Node16 -->
<g id="edge15_Node000004_Node000016" class="edge">
<title>Node4&#45;&gt;Node16</title>
<g id="a_edge15_Node000004_Node000016"><a xlink:title=" ">
<path fill="none" stroke="#63b8ff" d="M926.44,-55.47C870.8,-47.4 783.19,-34.23 697.44,-19"/>
<polygon fill="#63b8ff" stroke="#63b8ff" points="697.99,-15.55 687.53,-17.24 696.76,-22.44 697.99,-15.55"/>
</a>
</g>
</g>
<!-- Node17 -->
<g id="Node000017" class="node">
<title>Node17</title>
<g id="a_Node000017"><a xlink:title=" ">
<polygon fill="#e0e0e0" stroke="#999999" points="756,-19 706,-19 706,0 756,0 756,-19"/>
<text text-anchor="middle" x="731" y="-7" font-family="Helvetica,sans-Serif" font-size="10.00">chrono</text>
</a>
</g>
</g>
<!-- Node4&#45;&gt;Node17 -->
<g id="edge16_Node000004_Node000017" class="edge">
<title>Node4&#45;&gt;Node17</title>
<g id="a_edge16_Node000004_Node000017"><a xlink:title=" ">
<path fill="none" stroke="#63b8ff" d="M938.2,-54.95C896.2,-46.8 831.42,-33.89 766.26,-19.21"/>
<polygon fill="#63b8ff" stroke="#63b8ff" points="766.75,-15.73 756.22,-16.94 765.2,-22.56 766.75,-15.73"/>
</a>
</g>
</g>
<!-- Node18 -->
<g id="Node000018" class="node">
<title>Node18</title>
<g id="a_Node000018"><a xlink:title=" ">
<polygon fill="#e0e0e0" stroke="#999999" points="820,-19 774,-19 774,0 820,0 820,-19"/>
<text text-anchor="middle" x="797" y="-7" font-family="Helvetica,sans-Serif" font-size="10.00">cstdio</text>
</a>
</g>
</g>
<!-- Node4&#45;&gt;Node18 -->
<g id="edge17_Node000004_Node000018" class="edge">
<title>Node4&#45;&gt;Node18</title>
<g id="a_edge17_Node000004_Node000018"><a xlink:title=" ">
<path fill="none" stroke="#63b8ff" d="M953.12,-54.98C919.38,-45.37 864.65,-29.78 829.76,-19.84"/>
<polygon fill="#63b8ff" stroke="#63b8ff" points="830.63,-16.44 820.05,-17.07 828.71,-23.18 830.63,-16.44"/>
</a>
</g>
</g>
<!-- Node19 -->
<g id="Node000019" class="node">
<title>Node19</title>
<g id="a_Node000019"><a xlink:title=" ">
<polygon fill="#e0e0e0" stroke="#999999" points="890,-19 838,-19 838,0 890,0 890,-19"/>
<text text-anchor="middle" x="864" y="-7" font-family="Helvetica,sans-Serif" font-size="10.00">cassert</text>
</a>
</g>
</g>
<!-- Node4&#45;&gt;Node19 -->
<g id="edge18_Node000004_Node000019" class="edge">
<title>Node4&#45;&gt;Node19</title>
<g id="a_edge18_Node000004_Node000019"><a xlink:title=" ">
<path fill="none" stroke="#63b8ff" d="M963.88,-54.98C944.65,-46.42 914.77,-33.11 892.69,-23.28"/>
<polygon fill="#63b8ff" stroke="#63b8ff" points="894.03,-20.04 883.47,-19.17 891.18,-26.44 894.03,-20.04"/>
</a>
</g>
</g>
<!-- Node20 -->
<g id="Node000020" class="node">
<title>Node20</title>
<g id="a_Node000020"><a xlink:title=" ">
<polygon fill="#e0e0e0" stroke="#999999" points="973.5,-19 908.5,-19 908.5,0 973.5,0 973.5,-19"/>
<text text-anchor="middle" x="941" y="-7" font-family="Helvetica,sans-Serif" font-size="10.00">typeindex</text>
</a>
</g>
</g>
<!-- Node4&#45;&gt;Node20 -->
<g id="edge19_Node000004_Node000020" class="edge">
<title>Node4&#45;&gt;Node20</title>
<g id="a_edge19_Node000004_Node000020"><a xlink:title=" ">
<path fill="none" stroke="#63b8ff" d="M976.06,-54.75C970.13,-47.26 961.43,-36.28 954.18,-27.13"/>
<polygon fill="#63b8ff" stroke="#63b8ff" points="956.76,-24.75 947.81,-19.09 951.27,-29.1 956.76,-24.75"/>
</a>
</g>
</g>
<!-- Node21 -->
<g id="Node000021" class="node">
<title>Node21</title>
<g id="a_Node000021"><a xlink:title=" ">
<polygon fill="#e0e0e0" stroke="#999999" points="1060,-19 992,-19 992,0 1060,0 1060,-19"/>
<text text-anchor="middle" x="1026" y="-7" font-family="Helvetica,sans-Serif" font-size="10.00">filesystem</text>
</a>
</g>
</g>
<!-- Node4&#45;&gt;Node21 -->
<g id="edge20_Node000004_Node000021" class="edge">
<title>Node4&#45;&gt;Node21</title>
<g id="a_edge20_Node000004_Node000021"><a xlink:title=" ">
<path fill="none" stroke="#63b8ff" d="M990.1,-54.75C996.17,-47.26 1005.09,-36.28 1012.51,-27.13"/>
<polygon fill="#63b8ff" stroke="#63b8ff" points="1015.45,-29.06 1019.03,-19.09 1010.01,-24.65 1015.45,-29.06"/>
</a>
</g>
</g>
<!-- Node22 -->
<g id="Node000022" class="node">
<title>Node22</title>
<g id="a_Node000022"><a xlink:title=" ">
<polygon fill="#e0e0e0" stroke="#999999" points="1110,-19 1078,-19 1078,0 1110,0 1110,-19"/>
<text text-anchor="middle" x="1094" y="-7" font-family="Helvetica,sans-Serif" font-size="10.00">set</text>
</a>
</g>
</g>
<!-- Node4&#45;&gt;Node22 -->
<g id="edge21_Node000004_Node000022" class="edge">
<title>Node4&#45;&gt;Node22</title>
<g id="a_edge21_Node000004_Node000022"><a xlink:title=" ">
<path fill="none" stroke="#63b8ff" d="M1000.83,-54.98C1019.14,-46.24 1047.79,-32.56 1068.49,-22.68"/>
<polygon fill="#63b8ff" stroke="#63b8ff" points="1070.14,-25.77 1077.66,-18.3 1067.12,-19.45 1070.14,-25.77"/>
</a>
</g>
</g>
<!-- Node23 -->
<g id="Node000023" class="node">
<title>Node23</title>
<g id="a_Node000023"><a xlink:title=" ">
<polygon fill="#e0e0e0" stroke="#999999" points="1184,-19 1128,-19 1128,0 1184,0 1184,-19"/>
<text text-anchor="middle" x="1156" y="-7" font-family="Helvetica,sans-Serif" font-size="10.00">d3d12.h</text>
</a>
</g>
</g>
<!-- Node4&#45;&gt;Node23 -->
<g id="edge22_Node000004_Node000023" class="edge">
<title>Node4&#45;&gt;Node23</title>
<g id="a_edge22_Node000004_Node000023"><a xlink:title=" ">
<path fill="none" stroke="#63b8ff" d="M1010.8,-54.98C1039.97,-46.05 1086,-31.94 1118.4,-22.02"/>
<polygon fill="#63b8ff" stroke="#63b8ff" points="1119.45,-25.36 1127.99,-19.08 1117.4,-18.66 1119.45,-25.36"/>
</a>
</g>
</g>
<!-- Node24 -->
<g id="Node000024" class="node">
<title>Node24</title>
<g id="a_Node000024"><a xlink:title=" ">
<polygon fill="#e0e0e0" stroke="#999999" points="1266,-19 1202,-19 1202,0 1266,0 1266,-19"/>
<text text-anchor="middle" x="1234" y="-7" font-family="Helvetica,sans-Serif" font-size="10.00">dxgi1_6.h</text>
</a>
</g>
</g>
<!-- Node4&#45;&gt;Node24 -->
<g id="edge23_Node000004_Node000024" class="edge">
<title>Node4&#45;&gt;Node24</title>
<g id="a_edge23_Node000004_Node000024"><a xlink:title=" ">
<path fill="none" stroke="#63b8ff" d="M1023.33,-54.98C1069.55,-45.23 1144.95,-29.3 1191.9,-19.39"/>
<polygon fill="#63b8ff" stroke="#63b8ff" points="1192.69,-22.8 1201.75,-17.31 1191.24,-15.95 1192.69,-22.8"/>
</a>
</g>
</g>
<!-- Node25 -->
<g id="Node000025" class="node">
<title>Node25</title>
<g id="a_Node000025"><a xlink:title=" ">
<polygon fill="#e0e0e0" stroke="#999999" points="1370,-19 1284,-19 1284,0 1370,0 1370,-19"/>
<text text-anchor="middle" x="1327" y="-7" font-family="Helvetica,sans-Serif" font-size="10.00">d3dcompiler.h</text>
</a>
</g>
</g>
<!-- Node4&#45;&gt;Node25 -->
<g id="edge24_Node000004_Node000025" class="edge">
<title>Node4&#45;&gt;Node25</title>
<g id="a_edge24_Node000004_Node000025"><a xlink:title=" ">
<path fill="none" stroke="#63b8ff" d="M1039.55,-55.07C1096.21,-46.58 1186.21,-32.97 1273.77,-19.18"/>
<polygon fill="#63b8ff" stroke="#63b8ff" points="1274.54,-22.6 1283.88,-17.59 1273.45,-15.69 1274.54,-22.6"/>
</a>
</g>
</g>
<!-- Node26 -->
<g id="Node000026" class="node">
<title>Node26</title>
<g id="a_Node000026"><a xlink:title=" ">
<polygon fill="#e0e0e0" stroke="#999999" points="1429.5,-19 1388.5,-19 1388.5,0 1429.5,0 1429.5,-19"/>
<text text-anchor="middle" x="1409" y="-7" font-family="Helvetica,sans-Serif" font-size="10.00">wrl.h</text>
</a>
</g>
</g>
<!-- Node4&#45;&gt;Node26 -->
<g id="edge25_Node000004_Node000026" class="edge">
<title>Node4&#45;&gt;Node26</title>
<g id="a_edge25_Node000004_Node000026"><a xlink:title=" ">
<path fill="none" stroke="#63b8ff" d="M1039.51,-60.08C1114.79,-54.87 1252.15,-43.12 1378.59,-18.73"/>
<polygon fill="#63b8ff" stroke="#63b8ff" points="1379.31,-22.16 1388.45,-16.8 1377.96,-15.29 1379.31,-22.16"/>
</a>
</g>
</g>
<!-- Node27 -->
<g id="Node000027" class="node">
<title>Node27</title>
<g id="a_Node000027"><a xlink:title=" ">
<polygon fill="#e0e0e0" stroke="#999999" points="86,-19 0,-19 0,0 86,0 86,-19"/>
<text text-anchor="middle" x="43" y="-7" font-family="Helvetica,sans-Serif" font-size="10.00">DirectXMath.h</text>
</a>
</g>
</g>
<!-- Node4&#45;&gt;Node27 -->
<g id="edge26_Node000004_Node000027" class="edge">
<title>Node4&#45;&gt;Node27</title>
<g id="a_edge26_Node000004_Node000027"><a xlink:title=" ">
<path fill="none" stroke="#63b8ff" d="M926.47,-62.86C787.15,-60.81 416.02,-52.49 96.47,-19.02"/>
<polygon fill="#63b8ff" stroke="#63b8ff" points="96.39,-15.49 86.08,-17.92 95.66,-22.46 96.39,-15.49"/>
</a>
</g>
</g>
<!-- Node28 -->
<g id="Node000028" class="node">
<title>Node28</title>
<g id="a_Node000028"><a xlink:title=" ">
<polygon fill="#e0e0e0" stroke="#999999" points="1564.5,-19 1447.5,-19 1447.5,0 1564.5,0 1564.5,-19"/>
<text text-anchor="middle" x="1506" y="-7" font-family="Helvetica,sans-Serif" font-size="10.00">assimp/Importer.hpp</text>
</a>
</g>
</g>
<!-- Node4&#45;&gt;Node28 -->
<g id="edge27_Node000004_Node000028" class="edge">
<title>Node4&#45;&gt;Node28</title>
<g id="a_edge27_Node000004_Node000028"><a xlink:title=" ">
<path fill="none" stroke="#63b8ff" d="M1039.8,-58.44C1124.02,-50.82 1287.28,-35.65 1437.1,-19.07"/>
<polygon fill="#63b8ff" stroke="#63b8ff" points="1437.85,-22.51 1447.41,-17.93 1437.08,-15.55 1437.85,-22.51"/>
</a>
</g>
</g>
<!-- Node29 -->
<g id="Node000029" class="node">
<title>Node29</title>
<g id="a_Node000029"><a xlink:title=" ">
<polygon fill="#e0e0e0" stroke="#999999" points="1675,-19 1583,-19 1583,0 1675,0 1675,-19"/>
<text text-anchor="middle" x="1629" y="-7" font-family="Helvetica,sans-Serif" font-size="10.00">assimp/scene.h</text>
</a>
</g>
</g>
<!-- Node4&#45;&gt;Node29 -->
<g id="edge28_Node000004_Node000029" class="edge">
<title>Node4&#45;&gt;Node29</title>
<g id="a_edge28_Node000004_Node000029"><a xlink:title=" ">
<path fill="none" stroke="#63b8ff" d="M1039.68,-60.65C1143.22,-55.13 1370.1,-41.6 1572.65,-18.94"/>
<polygon fill="#63b8ff" stroke="#63b8ff" points="1573.35,-22.38 1582.89,-17.78 1572.56,-15.42 1573.35,-22.38"/>
</a>
</g>
</g>
<!-- Node30 -->
<g id="Node000030" class="node">
<title>Node30</title>
<g id="a_Node000030"><a xlink:title=" ">
<polygon fill="#e0e0e0" stroke="#999999" points="1815,-19 1693,-19 1693,0 1815,0 1815,-19"/>
<text text-anchor="middle" x="1754" y="-7" font-family="Helvetica,sans-Serif" font-size="10.00">assimp/postprocess.h</text>
</a>
</g>
</g>
<!-- Node4&#45;&gt;Node30 -->
<g id="edge29_Node000004_Node000030" class="edge">
<title>Node4&#45;&gt;Node30</title>
<g id="a_edge29_Node000004_Node000030"><a xlink:title=" ">
<path fill="none" stroke="#63b8ff" d="M1039.88,-61C1157.71,-55.58 1437.31,-41.46 1682.75,-19.06"/>
<polygon fill="#63b8ff" stroke="#63b8ff" points="1683.3,-22.52 1692.94,-18.12 1682.66,-15.55 1683.3,-22.52"/>
</a>
</g>
</g>
<!-- Node31 -->
<g id="Node000031" class="node">
<title>Node31</title>
<g id="a_Node000031"><a xlink:href="Logger_8h.html" target="_top" xlink:title=" ">
<polygon fill="white" stroke="#666666" points="1911,-19 1833,-19 1833,0 1911,0 1911,-19"/>
<text text-anchor="middle" x="1872" y="-7" font-family="Helvetica,sans-Serif" font-size="10.00">Log/Logger.h</text>
</a>
</g>
</g>
<!-- Node4&#45;&gt;Node31 -->
<g id="edge30_Node000004_Node000031" class="edge">
<title>Node4&#45;&gt;Node31</title>
<g id="a_edge30_Node000004_Node000031"><a xlink:title=" ">
<path fill="none" stroke="#63b8ff" d="M1039.71,-62.82C1174.59,-60.72 1524.48,-52.28 1815,-19 1817.5,-18.71 1820.07,-18.38 1822.67,-18.01"/>
<polygon fill="#63b8ff" stroke="#63b8ff" points="1823.43,-21.44 1832.78,-16.46 1822.36,-14.52 1823.43,-21.44"/>
</a>
</g>
</g>
<!-- Node31&#45;&gt;Node4 -->
<g id="edge31_Node000031_Node000004" class="edge">
<title>Node31&#45;&gt;Node4</title>
<g id="a_edge31_Node000031_Node000004"><a xlink:title=" ">
<path fill="none" stroke="#63b8ff" d="M1832.56,-19.05C1542.66,-52.23 1193.81,-60.69 1049.92,-62.81"/>
<polygon fill="#63b8ff" stroke="#63b8ff" points="1049.46,-59.32 1039.51,-62.96 1049.56,-66.32 1049.46,-59.32"/>
</a>
</g>
</g>
<!-- Node33&#45;&gt;Node3 -->
<g id="edge38_Node000033_Node000003" class="edge">
<title>Node33&#45;&gt;Node3</title>
<g id="a_edge38_Node000033_Node000003"><a xlink:title=" ">
<path fill="none" stroke="#63b8ff" d="M1234.52,-219.99C1262.42,-210.1 1299.41,-196.98 1326,-187.56"/>
<polygon fill="#63b8ff" stroke="#63b8ff" points="1327.38,-190.78 1335.63,-184.14 1325.04,-184.18 1327.38,-190.78"/>
</a>
</g>
</g>
<!-- Node34 -->
<g id="Node000034" class="node">
<title>Node34</title>
<g id="a_Node000034"><a xlink:href="SpanMath_8h.html" target="_top" xlink:title=" ">
<polygon fill="white" stroke="#666666" points="617,-129 489,-129 489,-110 617,-110 617,-129"/>
<text text-anchor="middle" x="553" y="-117" font-family="Helvetica,sans-Serif" font-size="10.00">Core/Math/SpanMath.h</text>
</a>
</g>
</g>
<!-- Node33&#45;&gt;Node34 -->
<g id="edge34_Node000033_Node000034" class="edge">
<title>Node33&#45;&gt;Node34</title>
<g id="a_edge34_Node000033_Node000034"><a xlink:title=" ">
<path fill="none" stroke="#63b8ff" d="M1114.09,-221.08C1111.02,-220.7 1107.99,-220.33 1105,-220 1047.44,-213.54 633.24,-216.06 585,-184 569.76,-173.87 561.44,-154.19 557.14,-139.4"/>
<polygon fill="#63b8ff" stroke="#63b8ff" points="560.43,-138.13 554.58,-129.3 553.64,-139.85 560.43,-138.13"/>
</a>
</g>
</g>
<!-- Node34&#45;&gt;Node15 -->
<g id="edge37_Node000034_Node000015" class="edge">
<title>Node34&#45;&gt;Node15</title>
<g id="a_edge37_Node000034_Node000015"><a xlink:title=" ">
<path fill="none" stroke="#63b8ff" d="M553.07,-109.9C552.68,-95.94 549.67,-68.57 533,-55 473.56,-6.62 270.98,-29.29 178.14,-18.82"/>
<polygon fill="#63b8ff" stroke="#63b8ff" points="178.55,-15.34 168.17,-17.5 177.62,-22.28 178.55,-15.34"/>
</a>
</g>
</g>
<!-- Node34&#45;&gt;Node27 -->
<g id="edge35_Node000034_Node000027" class="edge">
<title>Node34&#45;&gt;Node27</title>
<g id="a_edge35_Node000034_Node000027"><a xlink:title=" ">
<path fill="none" stroke="#63b8ff" d="M512.55,-109.94C420.31,-90.4 194.54,-42.59 93.42,-21.18"/>
<polygon fill="#63b8ff" stroke="#63b8ff" points="93.96,-17.71 83.45,-19.07 92.51,-24.56 93.96,-17.71"/>
</a>
</g>
</g>
<!-- Node35 -->
<g id="Node000035" class="node">
<title>Node35</title>
<g id="a_Node000035"><a xlink:title=" ">
<polygon fill="#e0e0e0" stroke="#999999" points="524.5,-74 477.5,-74 477.5,-55 524.5,-55 524.5,-74"/>
<text text-anchor="middle" x="501" y="-62" font-family="Helvetica,sans-Serif" font-size="10.00">cmath</text>
</a>
</g>
</g>
<!-- Node34&#45;&gt;Node35 -->
<g id="edge36_Node000034_Node000035" class="edge">
<title>Node34&#45;&gt;Node35</title>
<g id="a_edge36_Node000034_Node000035"><a xlink:title=" ">
<path fill="none" stroke="#63b8ff" d="M544.41,-109.75C536.84,-102.03 525.62,-90.6 516.49,-81.28"/>
<polygon fill="#63b8ff" stroke="#63b8ff" points="518.93,-78.78 509.43,-74.09 513.93,-83.68 518.93,-78.78"/>
</a>
</g>
</g>
<!-- Node36&#45;&gt;Node4 -->
<g id="edge41_Node000036_Node000004" class="edge">
<title>Node36&#45;&gt;Node4</title>
<g id="a_edge41_Node000036_Node000004"><a xlink:title=" ">
<path fill="none" stroke="#63b8ff" d="M794.1,-225.36C811.91,-216.06 840.33,-200.4 863,-184 892.85,-162.41 898.77,-154.86 925,-129 940.53,-113.7 957.21,-95.19 968.68,-82.12"/>
<polygon fill="#63b8ff" stroke="#63b8ff" points="971.47,-84.24 975.4,-74.4 966.19,-79.64 971.47,-84.24"/>
</a>
</g>
</g>
<!-- Node36&#45;&gt;Node34 -->
<g id="edge59_Node000036_Node000034" class="edge">
<title>Node36&#45;&gt;Node34</title>
<g id="a_edge59_Node000036_Node000034"><a xlink:title=" ">
<path fill="none" stroke="#63b8ff" d="M719.48,-229.27C659.89,-223.04 572.63,-209.71 552,-184 542.09,-171.65 543.62,-153.17 546.86,-139.33"/>
<polygon fill="#63b8ff" stroke="#63b8ff" points="550.31,-140 549.65,-129.43 543.57,-138.1 550.31,-140"/>
</a>
</g>
</g>
<!-- Node37 -->
<g id="Node000037" class="node">
<title>Node37</title>
<g id="a_Node000037"><a xlink:href="GraphicsContext_8h.html" target="_top" xlink:title=" ">
<polygon fill="white" stroke="#666666" points="1105,-184 973,-184 973,-165 1105,-165 1105,-184"/>
<text text-anchor="middle" x="1039" y="-172" font-family="Helvetica,sans-Serif" font-size="10.00">Core/GraphicsContext.h</text>
</a>
</g>
</g>
<!-- Node36&#45;&gt;Node37 -->
<g id="edge42_Node000036_Node000037" class="edge">
<title>Node36&#45;&gt;Node37</title>
<g id="a_edge42_Node000036_Node000037"><a xlink:title=" ">
<path fill="none" stroke="#63b8ff" d="M815.1,-225.49C861.57,-215.12 940.18,-197.57 990.81,-186.26"/>
<polygon fill="#63b8ff" stroke="#63b8ff" points="991.86,-189.61 1000.86,-184.02 990.33,-182.78 991.86,-189.61"/>
</a>
</g>
</g>
<!-- Node39 -->
<g id="Node000039" class="node">
<title>Node39</title>
<g id="a_Node000039"><a xlink:href="Shader_8h.html" target="_top" xlink:title=" ">
<polygon fill="white" stroke="#666666" points="1267,-129 1183,-129 1183,-110 1267,-110 1267,-129"/>
<text text-anchor="middle" x="1225" y="-117" font-family="Helvetica,sans-Serif" font-size="10.00">Core/Shader.h</text>
</a>
</g>
</g>
<!-- Node36&#45;&gt;Node39 -->
<g id="edge46_Node000036_Node000039" class="edge">
<title>Node36&#45;&gt;Node39</title>
<g id="a_edge46_Node000036_Node000039"><a xlink:title=" ">
<path fill="none" stroke="#63b8ff" d="M814.95,-225.43C824.1,-223.5 833.88,-221.57 843,-220 962.74,-199.38 998.89,-222.89 1114,-184 1148.23,-172.43 1183.8,-149.91 1205.17,-135.03"/>
<polygon fill="#63b8ff" stroke="#63b8ff" points="1207.29,-137.82 1213.42,-129.18 1203.24,-132.12 1207.29,-137.82"/>
</a>
</g>
</g>
<!-- Node40 -->
<g id="Node000040" class="node">
<title>Node40</title>
<g id="a_Node000040"><a xlink:href="ConstantBuffer_8h.html" target="_top" xlink:title=" ">
<polygon fill="white" stroke="#666666" points="916.5,-129 793.5,-129 793.5,-110 916.5,-110 916.5,-129"/>
<text text-anchor="middle" x="855" y="-117" font-family="Helvetica,sans-Serif" font-size="10.00">Core/ConstantBuffer.h</text>
</a>
</g>
</g>
<!-- Node36&#45;&gt;Node40 -->
<g id="edge48_Node000036_Node000040" class="edge">
<title>Node36&#45;&gt;Node40</title>
<g id="a_edge48_Node000036_Node000040"><a xlink:title=" ">
<path fill="none" stroke="#63b8ff" d="M795.82,-225.37C811.62,-217.09 833.42,-203.03 845,-184 853.16,-170.58 855.37,-152.72 855.71,-139.36"/>
<polygon fill="#63b8ff" stroke="#63b8ff" points="859.21,-138.97 855.62,-129 852.21,-139.03 859.21,-138.97"/>
</a>
</g>
</g>
<!-- Node41 -->
<g id="Node000041" class="node">
<title>Node41</title>
<g id="a_Node000041"><a xlink:href="Mesh_8h.html" target="_top" xlink:title=" ">
<polygon fill="white" stroke="#666666" points="699.5,-184 594.5,-184 594.5,-165 699.5,-165 699.5,-184"/>
<text text-anchor="middle" x="647" y="-172" font-family="Helvetica,sans-Serif" font-size="10.00">Resources/Mesh.h</text>
</a>
</g>
</g>
<!-- Node36&#45;&gt;Node41 -->
<g id="edge50_Node000036_Node000041" class="edge">
<title>Node36&#45;&gt;Node41</title>
<g id="a_edge50_Node000036_Node000041"><a xlink:title=" ">
<path fill="none" stroke="#63b8ff" d="M758.1,-225.49C736.34,-215.7 700.38,-199.52 675.29,-188.23"/>
<polygon fill="#63b8ff" stroke="#63b8ff" points="676.48,-184.93 665.93,-184.02 673.61,-191.31 676.48,-184.93"/>
</a>
</g>
</g>
<!-- Node42 -->
<g id="Node000042" class="node">
<title>Node42</title>
<g id="a_Node000042"><a xlink:href="Material_8h.html" target="_top" xlink:title=" ">
<polygon fill="white" stroke="#666666" points="836.5,-184 717.5,-184 717.5,-165 836.5,-165 836.5,-184"/>
<text text-anchor="middle" x="777" y="-172" font-family="Helvetica,sans-Serif" font-size="10.00">Resources/Material.h</text>
</a>
</g>
</g>
<!-- Node36&#45;&gt;Node42 -->
<g id="edge53_Node000036_Node000042" class="edge">
<title>Node36&#45;&gt;Node42</title>
<g id="a_edge53_Node000036_Node000042"><a xlink:title=" ">
<path fill="none" stroke="#63b8ff" d="M777,-225.37C777,-217.25 777,-204.81 777,-194.39"/>
<polygon fill="#63b8ff" stroke="#63b8ff" points="780.5,-194.17 777,-184.17 773.5,-194.17 780.5,-194.17"/>
</a>
</g>
</g>
<!-- Node37&#45;&gt;Node4 -->
<g id="edge43_Node000037_Node000004" class="edge">
<title>Node37&#45;&gt;Node4</title>
<g id="a_edge43_Node000037_Node000004"><a xlink:title=" ">
<path fill="none" stroke="#63b8ff" d="M1029.86,-164.76C1021.53,-156.32 1009.41,-142.81 1002,-129 994.43,-114.88 989.47,-97.34 986.53,-84.27"/>
<polygon fill="#63b8ff" stroke="#63b8ff" points="989.89,-83.23 984.44,-74.14 983.03,-84.64 989.89,-83.23"/>
</a>
</g>
</g>
<!-- Node38 -->
<g id="Node000038" class="node">
<title>Node38</title>
<g id="a_Node000038"><a xlink:href="Window_8h.html" target="_top" xlink:title=" ">
<polygon fill="white" stroke="#666666" points="1164.5,-129 1011.5,-129 1011.5,-110 1164.5,-110 1164.5,-129"/>
<text text-anchor="middle" x="1088" y="-117" font-family="Helvetica,sans-Serif" font-size="10.00">Runtime/Platform/Window.h</text>
</a>
</g>
</g>
<!-- Node37&#45;&gt;Node38 -->
<g id="edge44_Node000037_Node000038" class="edge">
<title>Node37&#45;&gt;Node38</title>
<g id="a_edge44_Node000037_Node000038"><a xlink:title=" ">
<path fill="none" stroke="#63b8ff" d="M1047.09,-164.75C1054.16,-157.11 1064.59,-145.82 1073.15,-136.56"/>
<polygon fill="#63b8ff" stroke="#63b8ff" points="1075.84,-138.81 1080.06,-129.09 1070.7,-134.06 1075.84,-138.81"/>
</a>
</g>
</g>
<!-- Node38&#45;&gt;Node4 -->
<g id="edge45_Node000038_Node000004" class="edge">
<title>Node38&#45;&gt;Node4</title>
<g id="a_edge45_Node000038_Node000004"><a xlink:title=" ">
<path fill="none" stroke="#63b8ff" d="M1071.13,-109.98C1054.39,-101.54 1028.5,-88.47 1009.11,-78.68"/>
<polygon fill="#63b8ff" stroke="#63b8ff" points="1010.68,-75.55 1000.18,-74.17 1007.53,-81.8 1010.68,-75.55"/>
</a>
</g>
</g>
<!-- Node39&#45;&gt;Node4 -->
<g id="edge47_Node000039_Node000004" class="edge">
<title>Node39&#45;&gt;Node4</title>
<g id="a_edge47_Node000039_Node000004"><a xlink:title=" ">
<path fill="none" stroke="#63b8ff" d="M1186.12,-109.98C1144.26,-100.82 1077.57,-86.21 1032.12,-76.26"/>
<polygon fill="#63b8ff" stroke="#63b8ff" points="1032.7,-72.8 1022.19,-74.08 1031.21,-79.64 1032.7,-72.8"/>
</a>
</g>
</g>
<!-- Node40&#45;&gt;Node4 -->
<g id="edge49_Node000040_Node000004" class="edge">
<title>Node40&#45;&gt;Node4</title>
<g id="a_edge49_Node000040_Node000004"><a xlink:title=" ">
<path fill="none" stroke="#63b8ff" d="M875.57,-109.98C896.43,-101.34 928.97,-87.87 952.77,-78.02"/>
<polygon fill="#63b8ff" stroke="#63b8ff" points="954.16,-81.23 962.06,-74.17 951.48,-74.76 954.16,-81.23"/>
</a>
</g>
</g>
<!-- Node41&#45;&gt;Node4 -->
<g id="edge51_Node000041_Node000004" class="edge">
<title>Node41&#45;&gt;Node4</title>
<g id="a_edge51_Node000041_Node000004"><a xlink:title=" ">
<path fill="none" stroke="#63b8ff" d="M646.84,-164.98C647.09,-151.15 649.77,-123.95 666,-110 702.48,-78.66 834.56,-69.35 916.28,-66.62"/>
<polygon fill="#63b8ff" stroke="#63b8ff" points="916.59,-70.11 926.47,-66.3 916.37,-63.11 916.59,-70.11"/>
</a>
</g>
</g>
<!-- Node41&#45;&gt;Node34 -->
<g id="edge52_Node000041_Node000034" class="edge">
<title>Node41&#45;&gt;Node34</title>
<g id="a_edge52_Node000041_Node000034"><a xlink:title=" ">
<path fill="none" stroke="#63b8ff" d="M631.9,-164.98C617.18,-156.69 594.58,-143.94 577.33,-134.22"/>
<polygon fill="#63b8ff" stroke="#63b8ff" points="578.81,-131.03 568.38,-129.17 575.37,-137.13 578.81,-131.03"/>
</a>
</g>
</g>
<!-- Node42&#45;&gt;Node4 -->
<g id="edge54_Node000042_Node000004" class="edge">
<title>Node42&#45;&gt;Node4</title>
<g id="a_edge54_Node000042_Node000004"><a xlink:title=" ">
<path fill="none" stroke="#63b8ff" d="M775.12,-164.86C772.73,-151.36 770.39,-125.2 784,-110 801.49,-90.47 865.36,-78.64 916.09,-72.14"/>
<polygon fill="#63b8ff" stroke="#63b8ff" points="916.55,-75.61 926.04,-70.91 915.69,-68.66 916.55,-75.61"/>
</a>
</g>
</g>
<!-- Node42&#45;&gt;Node34 -->
<g id="edge55_Node000042_Node000034" class="edge">
<title>Node42&#45;&gt;Node34</title>
<g id="a_edge55_Node000042_Node000034"><a xlink:title=" ">
<path fill="none" stroke="#63b8ff" d="M741.01,-164.98C702.51,-155.87 641.31,-141.4 599.26,-131.45"/>
<polygon fill="#63b8ff" stroke="#63b8ff" points="599.81,-127.98 589.27,-129.08 598.2,-134.79 599.81,-127.98"/>
</a>
</g>
</g>
<!-- Node42&#45;&gt;Node40 -->
<g id="edge56_Node000042_Node000040" class="edge">
<title>Node42&#45;&gt;Node40</title>
<g id="a_edge56_Node000042_Node000040"><a xlink:title=" ">
<path fill="none" stroke="#63b8ff" d="M789.53,-164.98C801.4,-156.92 819.46,-144.65 833.61,-135.03"/>
<polygon fill="#63b8ff" stroke="#63b8ff" points="835.94,-137.69 842.24,-129.17 832,-131.9 835.94,-137.69"/>
</a>
</g>
</g>
<!-- Node43 -->
<g id="Node000043" class="node">
<title>Node43</title>
<g id="a_Node000043"><a xlink:href="Texture_8h.html" target="_top" xlink:title=" ">
<polygon fill="white" stroke="#666666" points="737,-129 675,-129 675,-110 737,-110 737,-129"/>
<text text-anchor="middle" x="706" y="-117" font-family="Helvetica,sans-Serif" font-size="10.00">Texture.h</text>
</a>
</g>
</g>
<!-- Node42&#45;&gt;Node43 -->
<g id="edge57_Node000042_Node000043" class="edge">
<title>Node42&#45;&gt;Node43</title>
<g id="a_edge57_Node000042_Node000043"><a xlink:title=" ">
<path fill="none" stroke="#63b8ff" d="M765.59,-164.98C754.89,-157 738.66,-144.88 725.84,-135.31"/>
<polygon fill="#63b8ff" stroke="#63b8ff" points="727.72,-132.35 717.61,-129.17 723.53,-137.96 727.72,-132.35"/>
</a>
</g>
</g>
<!-- Node43&#45;&gt;Node4 -->
<g id="edge58_Node000043_Node000004" class="edge">
<title>Node43&#45;&gt;Node4</title>
<g id="a_edge58_Node000043_Node000004"><a xlink:title=" ">
<path fill="none" stroke="#63b8ff" d="M737.24,-112.52C783.55,-103.66 871.1,-86.91 928.23,-75.98"/>
<polygon fill="#63b8ff" stroke="#63b8ff" points="929.01,-79.39 938.18,-74.08 927.7,-72.52 929.01,-79.39"/>
</a>
</g>
</g>
<!-- Node46&#45;&gt;Node3 -->
<g id="edge64_Node000046_Node000003" class="edge">
<title>Node46&#45;&gt;Node3</title>
<g id="a_edge64_Node000046_Node000003"><a xlink:title=" ">
<path fill="none" stroke="#63b8ff" d="M1382.27,-285.94C1378.42,-266.82 1369.03,-220.27 1363.76,-194.12"/>
<polygon fill="#63b8ff" stroke="#63b8ff" points="1367.18,-193.41 1361.78,-184.3 1360.32,-194.8 1367.18,-193.41"/>
</a>
</g>
</g>
<!-- Node47&#45;&gt;Node4 -->
<g id="edge66_Node000047_Node000004" class="edge">
<title>Node47&#45;&gt;Node4</title>
<g id="a_edge66_Node000047_Node000004"><a xlink:title=" ">
<path fill="none" stroke="#63b8ff" d="M460.76,-164.89C460.9,-150.92 463.41,-123.53 480,-110 513.07,-83.03 786.86,-71.34 916.03,-67.29"/>
<polygon fill="#63b8ff" stroke="#63b8ff" points="916.31,-70.79 926.2,-66.98 916.1,-63.79 916.31,-70.79"/>
</a>
</g>
</g>
<!-- Node47&#45;&gt;Node34 -->
<g id="edge67_Node000047_Node000034" class="edge">
<title>Node47&#45;&gt;Node34</title>
<g id="a_edge67_Node000047_Node000034"><a xlink:title=" ">
<path fill="none" stroke="#63b8ff" d="M475.78,-164.98C490.18,-156.69 512.31,-143.94 529.19,-134.22"/>
<polygon fill="#63b8ff" stroke="#63b8ff" points="531.03,-137.19 537.95,-129.17 527.54,-131.13 531.03,-137.19"/>
</a>
</g>
</g>
</g>
</svg>
