<?xml version="1.0" encoding="UTF-8" standalone="no"?>
<!DOCTYPE svg PUBLIC "-//W3C//DTD SVG 1.1//EN"
 "http://www.w3.org/Graphics/SVG/1.1/DTD/svg11.dtd">
<!-- Generated by graphviz version 2.43.0 (0)
 -->
<!-- Title: Engine/Source/Editor/ImGui/ImGuiUI.h Pages: 1 -->
<!--zoomable 335 -->

<svg id="main" version="1.1" xmlns="http://www.w3.org/2000/svg" xmlns:xlink="http://www.w3.org/1999/xlink" xml:space="preserve" onload="init(evt)">

<style type="text/css"><![CDATA[
.node, .edge {opacity: 0.7;}
.node.selected, .edge.selected {opacity: 1;}
.edge:hover path { stroke: red; }
.edge:hover polygon { stroke: red; fill: red; }
]]></style>

<defs>
  <circle id="rim" cx="0" cy="0" r="7"/>
  <circle id="rim2" cx="0" cy="0" r="3.5"/>
  <g id="zoomPlus">
    <use xlink:href="#rim" fill="#404040"><set attributeName="fill" to="#808080" begin="zoomplus.mouseover" end="zoomplus.mouseout"/></use>
    <path d="M-4,0h8M0,-4v8" fill="none" stroke="white" stroke-width="1.5" pointer-events="none"/>
  </g>
  <g id="zoomMin">
    <use xlink:href="#rim" fill="#404040"><set attributeName="fill" to="#808080" begin="zoomminus.mouseover" end="zoomminus.mouseout"/></use>
    <path d="M-4,0h8" fill="none" stroke="white" stroke-width="1.5" pointer-events="none"/>
  </g>
  <g id="arrowUp" transform="translate(30 24)">
    <use xlink:href="#rim"/>
    <path pointer-events="none" fill="none" stroke="white" stroke-width="1.5" d="M0,-3.0v7 M-2.5,-0.5L0,-3.0L2.5,-0.5"/>
  </g>
  <g id="arrowRight" transform="rotate(90) translate(36 -43)">
    <use xlink:href="#rim"/>
    <path pointer-events="none" fill="none" stroke="white" stroke-width="1.5" d="M0,-3.0v7 M-2.5,-0.5L0,-3.0L2.5,-0.5"/>
  </g>
  <g id="arrowDown" transform="rotate(180) translate(-30 -48)">
    <use xlink:href="#rim"/>
    <path pointer-events="none" fill="none" stroke="white" stroke-width="1.5" d="M0,-3.0v7 M-2.5,-0.5L0,-3.0L2.5,-0.5"/>
  </g>
  <g id="arrowLeft" transform="rotate(270) translate(-36 17)">
    <use xlink:href="#rim"/>
    <path pointer-events="none" fill="none" stroke="white" stroke-width="1.5" d="M0,-3.0v7 M-2.5,-0.5L0,-3.0L2.5,-0.5"/>
  </g>
  <g id="resetDef">
    <use xlink:href="#rim2" fill="#404040"><set attributeName="fill" to="#808080" begin="reset.mouseover" end="reset.mouseout"/></use>
  </g>
</defs>
<script type="application/ecmascript">
var viewWidth = 1543;
var viewHeight = 335;
var sectionId = 'dynsection-1';
</script>
<script type="application/ecmascript" xlink:href="svg.min.js"/>
<svg id="graph" class="graph">
<g id="viewport">
<title>Engine/Source/Editor/ImGui/ImGuiUI.h</title>
<!-- Node1 -->
<g id="Node000001" class="node">
<title>Node1</title>
<g id="a_Node000001"><a xlink:title="ImGui用のカスタムウィジェットヘルパー。">
<polygon fill="#999999" stroke="#666666" points="294,-327 177,-327 177,-297 294,-297 294,-327"/>
<text text-anchor="start" x="185" y="-315" font-family="Helvetica,sans-Serif" font-size="10.00">Engine/Source/Editor</text>
<text text-anchor="middle" x="235.5" y="-304" font-family="Helvetica,sans-Serif" font-size="10.00">/ImGui/ImGuiUI.h</text>
</a>
</g>
</g>
<!-- Node2 -->
<g id="Node000002" class="node">
<title>Node2</title>
<g id="a_Node000002"><a xlink:href="InspectorPanel_8cpp.html" target="_top" xlink:title=" ">
<polygon fill="white" stroke="#666666" points="147,-118 0,-118 0,-77 147,-77 147,-118"/>
<text text-anchor="start" x="8" y="-106" font-family="Helvetica,sans-Serif" font-size="10.00">Engine/Source/Editor</text>
<text text-anchor="start" x="8" y="-95" font-family="Helvetica,sans-Serif" font-size="10.00">/Panels/Inspector/Inspector</text>
<text text-anchor="middle" x="73.5" y="-84" font-family="Helvetica,sans-Serif" font-size="10.00">Panel.cpp</text>
</a>
</g>
</g>
<!-- Node1&#45;&gt;Node2 -->
<g id="edge1_Node000001_Node000002" class="edge">
<title>Node1&#45;&gt;Node2</title>
<g id="a_edge1_Node000001_Node000002"><a xlink:title=" ">
<path fill="none" stroke="#63b8ff" d="M178.07,-293.33C133.1,-276.11 73.6,-245.08 45.5,-195 31.67,-170.35 46.56,-138.26 59.35,-118.01"/>
<polygon fill="#63b8ff" stroke="#63b8ff" points="177.13,-296.71 187.72,-296.89 179.55,-290.14 177.13,-296.71"/>
</a>
</g>
</g>
<!-- Node3 -->
<g id="Node000003" class="node">
<title>Node3</title>
<g id="a_Node000003"><a xlink:href="SpanReflection_8h.html" target="_top" xlink:title="コンポーネント定義用のリフレクションマクロ。">
<polygon fill="white" stroke="#666666" points="622,-261 469,-261 469,-231 622,-231 622,-261"/>
<text text-anchor="start" x="477" y="-249" font-family="Helvetica,sans-Serif" font-size="10.00">Engine/Source/Runtime</text>
<text text-anchor="middle" x="545.5" y="-238" font-family="Helvetica,sans-Serif" font-size="10.00">/Reflection/SpanReflection.h</text>
</a>
</g>
</g>
<!-- Node1&#45;&gt;Node3 -->
<g id="edge2_Node000001_Node000003" class="edge">
<title>Node1&#45;&gt;Node3</title>
<g id="a_edge2_Node000001_Node000003"><a xlink:title=" ">
<path fill="none" stroke="#63b8ff" d="M304.24,-296.81C355.86,-286.15 426.21,-271.63 477.62,-261.01"/>
<polygon fill="#63b8ff" stroke="#63b8ff" points="303.26,-293.44 294.17,-298.89 304.67,-300.29 303.26,-293.44"/>
</a>
</g>
</g>
<!-- Node4 -->
<g id="Node000004" class="node">
<title>Node4</title>
<g id="a_Node000004"><a xlink:href="Layer_8h.html" target="_top" xlink:title="物理演算やレンダリングのレイヤー分け。">
<polygon fill="white" stroke="#666666" points="200,-189.5 55,-189.5 55,-159.5 200,-159.5 200,-189.5"/>
<text text-anchor="start" x="63" y="-177.5" font-family="Helvetica,sans-Serif" font-size="10.00">Engine/Source/Runtime</text>
<text text-anchor="middle" x="127.5" y="-166.5" font-family="Helvetica,sans-Serif" font-size="10.00">/Components/Core/Layer.h</text>
</a>
</g>
</g>
<!-- Node3&#45;&gt;Node4 -->
<g id="edge3_Node000003_Node000004" class="edge">
<title>Node3&#45;&gt;Node4</title>
<g id="a_edge3_Node000003_Node000004"><a xlink:title=" ">
<path fill="none" stroke="#63b8ff" d="M458.6,-234.27C390.33,-225.32 293,-211.41 208.5,-195 200.26,-193.4 191.6,-191.53 183.13,-189.58"/>
<polygon fill="#63b8ff" stroke="#63b8ff" points="458.51,-237.79 468.88,-235.61 459.42,-230.84 458.51,-237.79"/>
</a>
</g>
</g>
<!-- Node7 -->
<g id="Node000007" class="node">
<title>Node7</title>
<g id="a_Node000007"><a xlink:href="Name_8h.html" target="_top" xlink:title="エンティティの名前">
<polygon fill="white" stroke="#666666" points="519.5,-189.5 371.5,-189.5 371.5,-159.5 519.5,-159.5 519.5,-189.5"/>
<text text-anchor="start" x="379.5" y="-177.5" font-family="Helvetica,sans-Serif" font-size="10.00">Engine/Source/Runtime</text>
<text text-anchor="middle" x="445.5" y="-166.5" font-family="Helvetica,sans-Serif" font-size="10.00">/Components/Core/Name.h</text>
</a>
</g>
</g>
<!-- Node3&#45;&gt;Node7 -->
<g id="edge7_Node000003_Node000007" class="edge">
<title>Node3&#45;&gt;Node7</title>
<g id="a_edge7_Node000003_Node000007"><a xlink:title=" ">
<path fill="none" stroke="#63b8ff" d="M516.64,-224.94C500.33,-213.6 480.34,-199.71 465.71,-189.54"/>
<polygon fill="#63b8ff" stroke="#63b8ff" points="515.05,-228.1 525.26,-230.94 519.05,-222.35 515.05,-228.1"/>
</a>
</g>
</g>
<!-- Node8 -->
<g id="Node000008" class="node">
<title>Node8</title>
<g id="a_Node000008"><a xlink:href="Tag_8h.html" target="_top" xlink:title="エンティティのタグ分類">
<polygon fill="white" stroke="#666666" points="353,-189.5 218,-189.5 218,-159.5 353,-159.5 353,-189.5"/>
<text text-anchor="start" x="226" y="-177.5" font-family="Helvetica,sans-Serif" font-size="10.00">Engine/Source/Runtime</text>
<text text-anchor="middle" x="285.5" y="-166.5" font-family="Helvetica,sans-Serif" font-size="10.00">/Components/Core/Tag.h</text>
</a>
</g>
</g>
<!-- Node3&#45;&gt;Node8 -->
<g id="edge11_Node000003_Node000008" class="edge">
<title>Node3&#45;&gt;Node8</title>
<g id="a_edge11_Node000003_Node000008"><a xlink:title=" ">
<path fill="none" stroke="#63b8ff" d="M483.09,-228.32C438.78,-216.47 379.95,-200.75 338.04,-189.54"/>
<polygon fill="#63b8ff" stroke="#63b8ff" points="482.32,-231.73 492.89,-230.94 484.13,-224.97 482.32,-231.73"/>
</a>
</g>
</g>
<!-- Node9 -->
<g id="Node000009" class="node">
<title>Node9</title>
<g id="a_Node000009"><a xlink:href="Transform_8h.html" target="_top" xlink:title="位置、回転、拡大縮小を管理するコンポーネント。">
<polygon fill="white" stroke="#666666" points="729,-189.5 562,-189.5 562,-159.5 729,-159.5 729,-189.5"/>
<text text-anchor="start" x="570" y="-177.5" font-family="Helvetica,sans-Serif" font-size="10.00">Engine/Source/Runtime</text>
<text text-anchor="middle" x="645.5" y="-166.5" font-family="Helvetica,sans-Serif" font-size="10.00">/Components/Core/Transform.h</text>
</a>
</g>
</g>
<!-- Node3&#45;&gt;Node9 -->
<g id="edge14_Node000003_Node000009" class="edge">
<title>Node3&#45;&gt;Node9</title>
<g id="a_edge14_Node000003_Node000009"><a xlink:title=" ">
<path fill="none" stroke="#63b8ff" d="M574.36,-224.94C590.67,-213.6 610.66,-199.71 625.29,-189.54"/>
<polygon fill="#63b8ff" stroke="#63b8ff" points="571.95,-222.35 565.74,-230.94 575.95,-228.1 571.95,-222.35"/>
</a>
</g>
</g>
<!-- Node15 -->
<g id="Node000015" class="node">
<title>Node15</title>
<g id="a_Node000015"><a xlink:href="Camera_8h.html" target="_top" xlink:title="レンダリング視点を定義するカメラコンポーネント。">
<polygon fill="white" stroke="#666666" points="968.5,-195 838.5,-195 838.5,-154 968.5,-154 968.5,-195"/>
<text text-anchor="start" x="846.5" y="-183" font-family="Helvetica,sans-Serif" font-size="10.00">Engine/Source/Runtime</text>
<text text-anchor="start" x="846.5" y="-172" font-family="Helvetica,sans-Serif" font-size="10.00">/Components/Graphics</text>
<text text-anchor="middle" x="903.5" y="-161" font-family="Helvetica,sans-Serif" font-size="10.00">/Camera.h</text>
</a>
</g>
</g>
<!-- Node3&#45;&gt;Node15 -->
<g id="edge23_Node000003_Node000015" class="edge">
<title>Node3&#45;&gt;Node15</title>
<g id="a_edge23_Node000003_Node000015"><a xlink:title=" ">
<path fill="none" stroke="#63b8ff" d="M628,-228.98C691.94,-216.57 779.31,-199.61 838.38,-188.14"/>
<polygon fill="#63b8ff" stroke="#63b8ff" points="627.1,-225.59 617.95,-230.94 628.43,-232.47 627.1,-225.59"/>
</a>
</g>
</g>
<!-- Node16 -->
<g id="Node000016" class="node">
<title>Node16</title>
<g id="a_Node000016"><a xlink:href="MeshFilter_8h.html" target="_top" xlink:title="描画する形状 (メッシュ) への参照。">
<polygon fill="white" stroke="#666666" points="1261.5,-195 1131.5,-195 1131.5,-154 1261.5,-154 1261.5,-195"/>
<text text-anchor="start" x="1139.5" y="-183" font-family="Helvetica,sans-Serif" font-size="10.00">Engine/Source/Runtime</text>
<text text-anchor="start" x="1139.5" y="-172" font-family="Helvetica,sans-Serif" font-size="10.00">/Components/Graphics</text>
<text text-anchor="middle" x="1196.5" y="-161" font-family="Helvetica,sans-Serif" font-size="10.00">/MeshFilter.h</text>
</a>
</g>
</g>
<!-- Node3&#45;&gt;Node16 -->
<g id="edge27_Node000003_Node000016" class="edge">
<title>Node3&#45;&gt;Node16</title>
<g id="a_edge27_Node000003_Node000016"><a xlink:title=" ">
<path fill="none" stroke="#63b8ff" d="M632.18,-235.75C764.39,-221.63 1013.48,-195.04 1131.42,-182.45"/>
<polygon fill="#63b8ff" stroke="#63b8ff" points="631.66,-232.28 622.09,-236.82 632.41,-239.24 631.66,-232.28"/>
</a>
</g>
</g>
<!-- Node18 -->
<g id="Node000018" class="node">
<title>Node18</title>
<g id="a_Node000018"><a xlink:href="MeshRenderer_8h.html" target="_top" xlink:title="メッシュの描画設定とマテリアル参照。">
<polygon fill="white" stroke="#666666" points="1482.5,-195 1352.5,-195 1352.5,-154 1482.5,-154 1482.5,-195"/>
<text text-anchor="start" x="1360.5" y="-183" font-family="Helvetica,sans-Serif" font-size="10.00">Engine/Source/Runtime</text>
<text text-anchor="start" x="1360.5" y="-172" font-family="Helvetica,sans-Serif" font-size="10.00">/Components/Graphics</text>
<text text-anchor="middle" x="1417.5" y="-161" font-family="Helvetica,sans-Serif" font-size="10.00">/MeshRenderer.h</text>
</a>
</g>
</g>
<!-- Node3&#45;&gt;Node18 -->
<g id="edge29_Node000003_Node000018" class="edge">
<title>Node3&#45;&gt;Node18</title>
<g id="a_edge29_Node000003_Node000018"><a xlink:title=" ">
<path fill="none" stroke="#63b8ff" d="M632.46,-240.78C768.7,-233.76 1040.64,-218.15 1270.5,-195 1297.4,-192.29 1326.96,-188.52 1352.47,-185.02"/>
<polygon fill="#63b8ff" stroke="#63b8ff" points="631.9,-237.3 622.1,-241.31 632.26,-244.29 631.9,-237.3"/>
</a>
</g>
</g>
<!-- Node4&#45;&gt;Node2 -->
<g id="edge4_Node000004_Node000002" class="edge">
<title>Node4&#45;&gt;Node2</title>
<g id="a_edge4_Node000004_Node000002"><a xlink:title=" ">
<path fill="none" stroke="#63b8ff" d="M111.4,-151.14C103.86,-140.67 94.97,-128.31 87.69,-118.2"/>
<polygon fill="#63b8ff" stroke="#63b8ff" points="108.66,-153.32 117.34,-159.39 114.34,-149.23 108.66,-153.32"/>
</a>
</g>
</g>
<!-- Node5 -->
<g id="Node000005" class="node">
<title>Node5</title>
<g id="a_Node000005"><a xlink:href="EntityBuilder_8h.html" target="_top" xlink:title="エンティティ生成を簡略化するヘルパークラス。">
<polygon fill="white" stroke="#666666" points="311.5,-112.5 165.5,-112.5 165.5,-82.5 311.5,-82.5 311.5,-112.5"/>
<text text-anchor="start" x="173.5" y="-100.5" font-family="Helvetica,sans-Serif" font-size="10.00">Engine/Source/Runtime</text>
<text text-anchor="middle" x="238.5" y="-89.5" font-family="Helvetica,sans-Serif" font-size="10.00">/ECS/Kernel/EntityBuilder.h</text>
</a>
</g>
</g>
<!-- Node4&#45;&gt;Node5 -->
<g id="edge5_Node000004_Node000005" class="edge">
<title>Node4&#45;&gt;Node5</title>
<g id="a_edge5_Node000004_Node000005"><a xlink:title=" ">
<path fill="none" stroke="#63b8ff" d="M156.76,-153.73C175.93,-140.78 200.53,-124.15 217.72,-112.54"/>
<polygon fill="#63b8ff" stroke="#63b8ff" points="154.7,-150.89 148.38,-159.39 158.62,-156.69 154.7,-150.89"/>
</a>
</g>
</g>
<!-- Node6 -->
<g id="Node000006" class="node">
<title>Node6</title>
<g id="a_Node000006"><a xlink:href="HierarchyPanel_8cpp.html" target="_top" xlink:title=" ">
<polygon fill="white" stroke="#666666" points="415.5,-41 263.5,-41 263.5,0 415.5,0 415.5,-41"/>
<text text-anchor="start" x="271.5" y="-29" font-family="Helvetica,sans-Serif" font-size="10.00">Engine/Source/Editor</text>
<text text-anchor="start" x="271.5" y="-18" font-family="Helvetica,sans-Serif" font-size="10.00">/Panels/Hierarchy/Hierarchy</text>
<text text-anchor="middle" x="339.5" y="-7" font-family="Helvetica,sans-Serif" font-size="10.00">Panel.cpp</text>
</a>
</g>
</g>
<!-- Node5&#45;&gt;Node6 -->
<g id="edge6_Node000005_Node000006" class="edge">
<title>Node5&#45;&gt;Node6</title>
<g id="a_edge6_Node000005_Node000006"><a xlink:title=" ">
<path fill="none" stroke="#63b8ff" d="M265.7,-76.31C280.37,-65.41 298.4,-52.02 312.97,-41.2"/>
<polygon fill="#63b8ff" stroke="#63b8ff" points="263.44,-73.62 257.5,-82.39 267.61,-79.24 263.44,-73.62"/>
</a>
</g>
</g>
<!-- Node7&#45;&gt;Node2 -->
<g id="edge9_Node000007_Node000002" class="edge">
<title>Node7&#45;&gt;Node2</title>
<g id="a_edge9_Node000007_Node000002"><a xlink:title=" ">
<path fill="none" stroke="#63b8ff" d="M376.86,-157.25C371.67,-156.11 366.51,-155.02 361.5,-154 270.86,-135.53 247.12,-136.59 156.5,-118 153.45,-117.38 150.35,-116.72 147.22,-116.05"/>
<polygon fill="#63b8ff" stroke="#63b8ff" points="376.32,-160.71 386.84,-159.46 377.84,-153.88 376.32,-160.71"/>
</a>
</g>
</g>
<!-- Node7&#45;&gt;Node5 -->
<g id="edge10_Node000007_Node000005" class="edge">
<title>Node7&#45;&gt;Node5</title>
<g id="a_edge10_Node000007_Node000005"><a xlink:title=" ">
<path fill="none" stroke="#63b8ff" d="M397.11,-155.97C360.6,-142.74 311.18,-124.83 277.26,-112.54"/>
<polygon fill="#63b8ff" stroke="#63b8ff" points="395.97,-159.28 406.56,-159.39 398.36,-152.7 395.97,-159.28"/>
</a>
</g>
</g>
<!-- Node7&#45;&gt;Node6 -->
<g id="edge8_Node000007_Node000006" class="edge">
<title>Node7&#45;&gt;Node6</title>
<g id="a_edge8_Node000007_Node000006"><a xlink:title=" ">
<path fill="none" stroke="#63b8ff" d="M400.65,-154.6C384.71,-145.73 368.1,-133.62 357.5,-118 341.9,-95.01 338.87,-62.18 338.72,-41.35"/>
<polygon fill="#63b8ff" stroke="#63b8ff" points="399.43,-157.91 409.91,-159.45 402.68,-151.71 399.43,-157.91"/>
</a>
</g>
</g>
<!-- Node8&#45;&gt;Node2 -->
<g id="edge12_Node000008_Node000002" class="edge">
<title>Node8&#45;&gt;Node2</title>
<g id="a_edge12_Node000008_Node000002"><a xlink:title=" ">
<path fill="none" stroke="#63b8ff" d="M235.99,-155.99C203.88,-144.63 162,-129.81 128.8,-118.06"/>
<polygon fill="#63b8ff" stroke="#63b8ff" points="235.03,-159.36 245.62,-159.39 237.36,-152.76 235.03,-159.36"/>
</a>
</g>
</g>
<!-- Node8&#45;&gt;Node5 -->
<g id="edge13_Node000008_Node000005" class="edge">
<title>Node8&#45;&gt;Node5</title>
<g id="a_edge13_Node000008_Node000005"><a xlink:title=" ">
<path fill="none" stroke="#63b8ff" d="M271.32,-150.88C263.51,-138.41 254.05,-123.32 247.3,-112.54"/>
<polygon fill="#63b8ff" stroke="#63b8ff" points="268.38,-152.78 276.66,-159.39 274.32,-149.06 268.38,-152.78"/>
</a>
</g>
</g>
<!-- Node9&#45;&gt;Node2 -->
<g id="edge15_Node000009_Node000002" class="edge">
<title>Node9&#45;&gt;Node2</title>
<g id="a_edge15_Node000009_Node000002"><a xlink:title=" ">
<path fill="none" stroke="#63b8ff" d="M555.97,-157.93C546.71,-156.51 537.42,-155.17 528.5,-154 363.81,-132.33 320.39,-145.06 156.5,-118 153.43,-117.49 150.31,-116.94 147.16,-116.35"/>
<polygon fill="#63b8ff" stroke="#63b8ff" points="555.58,-161.41 565.99,-159.5 556.65,-154.5 555.58,-161.41"/>
</a>
</g>
</g>
<!-- Node9&#45;&gt;Node5 -->
<g id="edge17_Node000009_Node000005" class="edge">
<title>Node9&#45;&gt;Node5</title>
<g id="a_edge17_Node000009_Node000005"><a xlink:title=" ">
<path fill="none" stroke="#63b8ff" d="M559.27,-157.61C485.78,-144.07 381.32,-124.82 311.8,-112.01"/>
<polygon fill="#63b8ff" stroke="#63b8ff" points="558.96,-161.11 569.42,-159.48 560.22,-154.23 558.96,-161.11"/>
</a>
</g>
</g>
<!-- Node10 -->
<g id="Node000010" class="node">
<title>Node10</title>
<g id="a_Node000010"><a xlink:href="SceneViewPanel_8cpp.html" target="_top" xlink:title=" ">
<polygon fill="white" stroke="#666666" points="949.5,-118 785.5,-118 785.5,-77 949.5,-77 949.5,-118"/>
<text text-anchor="start" x="793.5" y="-106" font-family="Helvetica,sans-Serif" font-size="10.00">Engine/Source/Editor</text>
<text text-anchor="start" x="793.5" y="-95" font-family="Helvetica,sans-Serif" font-size="10.00">/Panels/SceneView/SceneView</text>
<text text-anchor="middle" x="867.5" y="-84" font-family="Helvetica,sans-Serif" font-size="10.00">Panel.cpp</text>
</a>
</g>
</g>
<!-- Node9&#45;&gt;Node10 -->
<g id="edge16_Node000009_Node000010" class="edge">
<title>Node9&#45;&gt;Node10</title>
<g id="a_edge16_Node000009_Node000010"><a xlink:title=" ">
<path fill="none" stroke="#63b8ff" d="M696.64,-156.22C730.32,-144.85 774.47,-129.93 809.46,-118.11"/>
<polygon fill="#63b8ff" stroke="#63b8ff" points="695.35,-152.96 687,-159.48 697.59,-159.6 695.35,-152.96"/>
</a>
</g>
</g>
<!-- Node11 -->
<g id="Node000011" class="node">
<title>Node11</title>
<g id="a_Node000011"><a xlink:href="RelationshipSystem_8h.html" target="_top" xlink:title="エンティティ間の親子・兄弟関係 (階層構造) を操作するシステム。">
<polygon fill="white" stroke="#666666" points="767,-112.5 570,-112.5 570,-82.5 767,-82.5 767,-112.5"/>
<text text-anchor="start" x="578" y="-100.5" font-family="Helvetica,sans-Serif" font-size="10.00">Engine/Source/Runtime</text>
<text text-anchor="middle" x="668.5" y="-89.5" font-family="Helvetica,sans-Serif" font-size="10.00">/Systems/Core/RelationshipSystem.h</text>
</a>
</g>
</g>
<!-- Node9&#45;&gt;Node11 -->
<g id="edge18_Node000009_Node000011" class="edge">
<title>Node9&#45;&gt;Node11</title>
<g id="a_edge18_Node000009_Node000011"><a xlink:title=" ">
<path fill="none" stroke="#63b8ff" d="M652.77,-149.78C656.53,-137.53 660.99,-123 664.19,-112.54"/>
<polygon fill="#63b8ff" stroke="#63b8ff" points="649.41,-148.81 649.83,-159.39 656.1,-150.86 649.41,-148.81"/>
</a>
</g>
</g>
<!-- Node12 -->
<g id="Node000012" class="node">
<title>Node12</title>
<g id="a_Node000012"><a xlink:href="TransformSystem_8h.html" target="_top" xlink:title="ローカル座標からワールド座標への変換行列計算">
<polygon fill="white" stroke="#666666" points="552,-112.5 367,-112.5 367,-82.5 552,-82.5 552,-112.5"/>
<text text-anchor="start" x="375" y="-100.5" font-family="Helvetica,sans-Serif" font-size="10.00">Engine/Source/Runtime</text>
<text text-anchor="middle" x="459.5" y="-89.5" font-family="Helvetica,sans-Serif" font-size="10.00">/Systems/Core/TransformSystem.h</text>
</a>
</g>
</g>
<!-- Node9&#45;&gt;Node12 -->
<g id="edge20_Node000009_Node000012" class="edge">
<title>Node9&#45;&gt;Node12</title>
<g id="a_edge20_Node000009_Node000012"><a xlink:title=" ">
<path fill="none" stroke="#63b8ff" d="M601.18,-155.63C568.46,-142.43 524.55,-124.73 494.33,-112.54"/>
<polygon fill="#63b8ff" stroke="#63b8ff" points="599.93,-158.9 610.51,-159.39 602.55,-152.41 599.93,-158.9"/>
</a>
</g>
</g>
<!-- Node13 -->
<g id="Node000013" class="node">
<title>Node13</title>
<g id="a_Node000013"><a xlink:href="CameraSystem_8h.html" target="_top" xlink:title=" ">
<polygon fill="white" stroke="#666666" points="1161.5,-112.5 967.5,-112.5 967.5,-82.5 1161.5,-82.5 1161.5,-112.5"/>
<text text-anchor="start" x="975.5" y="-100.5" font-family="Helvetica,sans-Serif" font-size="10.00">Engine/Source/Runtime</text>
<text text-anchor="middle" x="1064.5" y="-89.5" font-family="Helvetica,sans-Serif" font-size="10.00">/Systems/Graphics/CameraSystem.h</text>
</a>
</g>
</g>
<!-- Node9&#45;&gt;Node13 -->
<g id="edge21_Node000009_Node000013" class="edge">
<title>Node9&#45;&gt;Node13</title>
<g id="a_edge21_Node000009_Node000013"><a xlink:title=" ">
<path fill="none" stroke="#63b8ff" d="M735.52,-157.7C798.08,-146.67 883.39,-131.57 958.5,-118 968.26,-116.24 978.52,-114.37 988.66,-112.51"/>
<polygon fill="#63b8ff" stroke="#63b8ff" points="734.53,-154.32 725.29,-159.5 735.74,-161.21 734.53,-154.32"/>
</a>
</g>
</g>
<!-- Node14 -->
<g id="Node000014" class="node">
<title>Node14</title>
<g id="a_Node000014"><a xlink:href="EditorCameraSystem_8h.html" target="_top" xlink:title=" ">
<polygon fill="white" stroke="#666666" points="1356,-118 1179,-118 1179,-77 1356,-77 1356,-118"/>
<text text-anchor="start" x="1187" y="-106" font-family="Helvetica,sans-Serif" font-size="10.00">Engine/Source/Runtime</text>
<text text-anchor="start" x="1187" y="-95" font-family="Helvetica,sans-Serif" font-size="10.00">/Systems/Graphics/EditorCamera</text>
<text text-anchor="middle" x="1267.5" y="-84" font-family="Helvetica,sans-Serif" font-size="10.00">System.h</text>
</a>
</g>
</g>
<!-- Node9&#45;&gt;Node14 -->
<g id="edge22_Node000009_Node000014" class="edge">
<title>Node9&#45;&gt;Node14</title>
<g id="a_edge22_Node000009_Node000014"><a xlink:title=" ">
<path fill="none" stroke="#63b8ff" d="M739.4,-163.54C768.3,-160.48 800.21,-157.1 829.5,-154 981.05,-137.97 1019.85,-141.04 1170.5,-118 1173.22,-117.58 1175.97,-117.14 1178.75,-116.69"/>
<polygon fill="#63b8ff" stroke="#63b8ff" points="738.89,-160.08 729.31,-164.61 739.62,-167.04 738.89,-160.08"/>
</a>
</g>
</g>
<!-- Node11&#45;&gt;Node6 -->
<g id="edge19_Node000011_Node000006" class="edge">
<title>Node11&#45;&gt;Node6</title>
<g id="a_edge19_Node000011_Node000006"><a xlink:title=" ">
<path fill="none" stroke="#63b8ff" d="M597.24,-80.26C543.69,-68.05 470.46,-51.35 415.74,-38.88"/>
<polygon fill="#63b8ff" stroke="#63b8ff" points="596.48,-83.67 607,-82.48 598.03,-76.85 596.48,-83.67"/>
</a>
</g>
</g>
<!-- Node15&#45;&gt;Node10 -->
<g id="edge24_Node000015_Node000010" class="edge">
<title>Node15&#45;&gt;Node10</title>
<g id="a_edge24_Node000015_Node000010"><a xlink:title=" ">
<path fill="none" stroke="#63b8ff" d="M889.6,-144.55C885.35,-135.69 880.77,-126.15 876.9,-118.07"/>
<polygon fill="#63b8ff" stroke="#63b8ff" points="886.56,-146.29 894.04,-153.79 892.87,-143.26 886.56,-146.29"/>
</a>
</g>
</g>
<!-- Node15&#45;&gt;Node13 -->
<g id="edge25_Node000015_Node000013" class="edge">
<title>Node15&#45;&gt;Node13</title>
<g id="a_edge25_Node000015_Node000013"><a xlink:title=" ">
<path fill="none" stroke="#63b8ff" d="M954.79,-149.61C980.97,-137.41 1011.93,-122.99 1034.27,-112.58"/>
<polygon fill="#63b8ff" stroke="#63b8ff" points="952.97,-146.6 945.38,-153.99 955.92,-152.94 952.97,-146.6"/>
</a>
</g>
</g>
<!-- Node15&#45;&gt;Node14 -->
<g id="edge26_Node000015_Node000014" class="edge">
<title>Node15&#45;&gt;Node14</title>
<g id="a_edge26_Node000015_Node000014"><a xlink:title=" ">
<path fill="none" stroke="#63b8ff" d="M978.43,-158.06C1036.57,-146.08 1117.33,-129.44 1178.72,-116.79"/>
<polygon fill="#63b8ff" stroke="#63b8ff" points="977.66,-154.65 968.58,-160.09 979.08,-161.5 977.66,-154.65"/>
</a>
</g>
</g>
<!-- Node17 -->
<g id="Node000017" class="node">
<title>Node17</title>
<g id="a_Node000017"><a xlink:href="RenderingSystem_8h.html" target="_top" xlink:title=" ">
<polygon fill="white" stroke="#666666" points="1534.5,-118 1374.5,-118 1374.5,-77 1534.5,-77 1534.5,-118"/>
<text text-anchor="start" x="1382.5" y="-106" font-family="Helvetica,sans-Serif" font-size="10.00">Engine/Source/Runtime</text>
<text text-anchor="start" x="1382.5" y="-95" font-family="Helvetica,sans-Serif" font-size="10.00">/Systems/Graphics/Rendering</text>
<text text-anchor="middle" x="1454.5" y="-84" font-family="Helvetica,sans-Serif" font-size="10.00">System.h</text>
</a>
</g>
</g>
<!-- Node16&#45;&gt;Node17 -->
<g id="edge28_Node000016_Node000017" class="edge">
<title>Node16&#45;&gt;Node17</title>
<g id="a_edge28_Node000016_Node000017"><a xlink:title=" ">
<path fill="none" stroke="#63b8ff" d="M1271.24,-151.77C1307.85,-141.13 1351.6,-128.41 1387.17,-118.07"/>
<polygon fill="#63b8ff" stroke="#63b8ff" points="1270.23,-148.42 1261.6,-154.57 1272.18,-155.14 1270.23,-148.42"/>
</a>
</g>
</g>
<!-- Node18&#45;&gt;Node17 -->
<g id="edge30_Node000018_Node000017" class="edge">
<title>Node18&#45;&gt;Node17</title>
<g id="a_edge30_Node000018_Node000017"><a xlink:title=" ">
<path fill="none" stroke="#63b8ff" d="M1431.78,-144.55C1436.16,-135.69 1440.86,-126.15 1444.84,-118.07"/>
<polygon fill="#63b8ff" stroke="#63b8ff" points="1428.51,-143.28 1427.22,-153.79 1434.78,-146.38 1428.51,-143.28"/>
</a>
</g>
</g>
</g>
</svg>

<g id="navigator" transform="translate(0 0)" fill="#404254">
  <rect fill="#f2f5e9" fill-opacity="0.5" stroke="#606060" stroke-width=".5" x="0" y="0" width="60" height="60"/>
  <use id="zoomplus" xlink:href="#zoomPlus" x="17" y="9" onmousedown="handleZoom(evt,'in')"/>
  <use id="zoomminus" xlink:href="#zoomMin" x="42" y="9" onmousedown="handleZoom(evt,'out')"/>
  <use id="reset" xlink:href="#resetDef" x="30" y="36" onmousedown="handleReset()"/>
   <use id="arrowup" xlink:href="#arrowUp" x="0" y="0" onmousedown="handlePan(0,-1)"/>
  <use id="arrowright" xlink:href="#arrowRight" x="0" y="0" onmousedown="handlePan(1,0)"/>
  <use id="arrowdown" xlink:href="#arrowDown" x="0" y="0" onmousedown="handlePan(0,1)"/>
  <use id="arrowleft" xlink:href="#arrowLeft" x="0" y="0" onmousedown="handlePan(-1,0)"/>
</g>
<svg viewBox="0 0 15 15" width="100%" height="30px" preserveAspectRatio="xMaxYMin meet">
 <g id="arrow_out" transform="scale(0.3 0.3)">
  <a xlink:href="ImGuiUI_8h__dep__incl_org.svg" target="_base">
   <rect id="button" ry="5" rx="5" y="6" x="6" height="38" width="38"
        fill="#f2f5e9" fill-opacity="0.5" stroke="#606060" stroke-width="1.0"/>
   <path id="arrow"
     d="M 11.500037,31.436501 C 11.940474,20.09759 22.043105,11.32322 32.158766,21.979434 L 37.068811,17.246167 C 37.068811,17.246167 37.088388,32 37.088388,32 L 22.160133,31.978069 C 22.160133,31.978069 26.997745,27.140456 26.997745,27.140456 C 18.528582,18.264221 13.291696,25.230495 11.500037,31.436501 z"
     style="fill:#404040;"/>
  </a>
 </g>
</svg>

<style type='text/css'>
<![CDATA[
[data-mouse-over-selected='false'] { opacity: 0.7; }
[data-mouse-over-selected='true']  { opacity: 1.0; }
]]>
</style>
<script type="application/ecmascript"><![CDATA[
document.addEventListener('DOMContentLoaded', (event) => {
  highlightEdges();
  highlightAdjacentNodes();
});
]]></script>
</svg>
