<?xml version="1.0" encoding="UTF-8" standalone="no"?>
<!DOCTYPE svg PUBLIC "-//W3C//DTD SVG 1.1//EN"
 "http://www.w3.org/Graphics/SVG/1.1/DTD/svg11.dtd">
<!-- Generated by graphviz version 2.43.0 (0)
 -->
<!-- Title: Engine/Source/Editor/ImGui/ImGuiUI.h Pages: 1 -->
<!--zoomable 390 -->

<svg id="main" version="1.1" xmlns="http://www.w3.org/2000/svg" xmlns:xlink="http://www.w3.org/1999/xlink" xml:space="preserve" onload="init(evt)">

<style type="text/css"><![CDATA[
.node, .edge {opacity: 0.7;}
.node.selected, .edge.selected {opacity: 1;}
.edge:hover path { stroke: red; }
.edge:hover polygon { stroke: red; fill: red; }
]]></style>

<defs>
  <circle id="rim" cx="0" cy="0" r="7"/>
  <circle id="rim2" cx="0" cy="0" r="3.5"/>
  <g id="zoomPlus">
    <use xlink:href="#rim" fill="#404040"><set attributeName="fill" to="#808080" begin="zoomplus.mouseover" end="zoomplus.mouseout"/></use>
    <path d="M-4,0h8M0,-4v8" fill="none" stroke="white" stroke-width="1.5" pointer-events="none"/>
  </g>
  <g id="zoomMin">
    <use xlink:href="#rim" fill="#404040"><set attributeName="fill" to="#808080" begin="zoomminus.mouseover" end="zoomminus.mouseout"/></use>
    <path d="M-4,0h8" fill="none" stroke="white" stroke-width="1.5" pointer-events="none"/>
  </g>
  <g id="arrowUp" transform="translate(30 24)">
    <use xlink:href="#rim"/>
    <path pointer-events="none" fill="none" stroke="white" stroke-width="1.5" d="M0,-3.0v7 M-2.5,-0.5L0,-3.0L2.5,-0.5"/>
  </g>
  <g id="arrowRight" transform="rotate(90) translate(36 -43)">
    <use xlink:href="#rim"/>
    <path pointer-events="none" fill="none" stroke="white" stroke-width="1.5" d="M0,-3.0v7 M-2.5,-0.5L0,-3.0L2.5,-0.5"/>
  </g>
  <g id="arrowDown" transform="rotate(180) translate(-30 -48)">
    <use xlink:href="#rim"/>
    <path pointer-events="none" fill="none" stroke="white" stroke-width="1.5" d="M0,-3.0v7 M-2.5,-0.5L0,-3.0L2.5,-0.5"/>
  </g>
  <g id="arrowLeft" transform="rotate(270) translate(-36 17)">
    <use xlink:href="#rim"/>
    <path pointer-events="none" fill="none" stroke="white" stroke-width="1.5" d="M0,-3.0v7 M-2.5,-0.5L0,-3.0L2.5,-0.5"/>
  </g>
  <g id="resetDef">
    <use xlink:href="#rim2" fill="#404040"><set attributeName="fill" to="#808080" begin="reset.mouseover" end="reset.mouseout"/></use>
  </g>
</defs>
<script type="application/ecmascript">
var viewWidth = 1462;
var viewHeight = 390;
var sectionId = 'dynsection-1';
</script>
<script type="application/ecmascript" xlink:href="svg.min.js"/>
<svg id="graph" class="graph">
<g id="viewport">
<title>Engine/Source/Editor/ImGui/ImGuiUI.h</title>
<!-- Node1 -->
<g id="Node000001" class="node">
<title>Node1</title>
<g id="a_Node000001"><a xlink:title="ImGui用のカスタムウィジェットヘルパー。">
<polygon fill="#999999" stroke="#666666" points="355.5,-382 238.5,-382 238.5,-352 355.5,-352 355.5,-382"/>
<text text-anchor="start" x="246.5" y="-370" font-family="Helvetica,sans-Serif" font-size="10.00">Engine/Source/Editor</text>
<text text-anchor="middle" x="297" y="-359" font-family="Helvetica,sans-Serif" font-size="10.00">/ImGui/ImGuiUI.h</text>
</a>
</g>
</g>
<!-- Node2 -->
<g id="Node000002" class="node">
<title>Node2</title>
<g id="a_Node000002"><a xlink:href="InspectorPanel_8cpp.html" target="_top" xlink:title=" ">
<polygon fill="white" stroke="#666666" points="224.5,-41 77.5,-41 77.5,0 224.5,0 224.5,-41"/>
<text text-anchor="start" x="85.5" y="-29" font-family="Helvetica,sans-Serif" font-size="10.00">Engine/Source/Editor</text>
<text text-anchor="start" x="85.5" y="-18" font-family="Helvetica,sans-Serif" font-size="10.00">/Panels/Inspector/Inspector</text>
<text text-anchor="middle" x="151" y="-7" font-family="Helvetica,sans-Serif" font-size="10.00">Panel.cpp</text>
</a>
</g>
</g>
<!-- Node1&#45;&gt;Node2 -->
<g id="edge1_Node000001_Node000002" class="edge">
<title>Node1&#45;&gt;Node2</title>
<g id="a_edge1_Node000001_Node000002"><a xlink:title=" ">
<path fill="none" stroke="#63b8ff" d="M228.16,-363.8C140.43,-356.9 0,-330.27 0,-230.5 0,-230.5 0,-230.5 0,-151.5 0,-97.71 55.71,-61.3 99.46,-41"/>
<polygon fill="#63b8ff" stroke="#63b8ff" points="228.1,-367.3 238.32,-364.53 228.6,-360.32 228.1,-367.3"/>
</a>
</g>
</g>
<!-- Node3 -->
<g id="Node000003" class="node">
<title>Node3</title>
<g id="a_Node000003"><a xlink:href="SpanReflection_8h.html" target="_top" xlink:title="コンポーネント定義用のリフレクションマクロ。">
<polygon fill="white" stroke="#666666" points="695.5,-316 542.5,-316 542.5,-286 695.5,-286 695.5,-316"/>
<text text-anchor="start" x="550.5" y="-304" font-family="Helvetica,sans-Serif" font-size="10.00">Engine/Source/Runtime</text>
<text text-anchor="middle" x="619" y="-293" font-family="Helvetica,sans-Serif" font-size="10.00">/Reflection/SpanReflection.h</text>
</a>
</g>
</g>
<!-- Node1&#45;&gt;Node3 -->
<g id="edge2_Node000001_Node000003" class="edge">
<title>Node1&#45;&gt;Node3</title>
<g id="a_edge2_Node000001_Node000003"><a xlink:title=" ">
<path fill="none" stroke="#63b8ff" d="M365.82,-352.32C419.61,-341.63 494.11,-326.82 548.36,-316.04"/>
<polygon fill="#63b8ff" stroke="#63b8ff" points="364.81,-348.95 355.69,-354.34 366.18,-355.82 364.81,-348.95"/>
</a>
</g>
</g>
<!-- Node4 -->
<g id="Node000004" class="node">
<title>Node4</title>
<g id="a_Node000004"><a xlink:href="Layer_8h.html" target="_top" xlink:title="物理演算やレンダリングのレイヤー分け。">
<polygon fill="white" stroke="#666666" points="492.5,-244.5 347.5,-244.5 347.5,-214.5 492.5,-214.5 492.5,-244.5"/>
<text text-anchor="start" x="355.5" y="-232.5" font-family="Helvetica,sans-Serif" font-size="10.00">Engine/Source/Runtime</text>
<text text-anchor="middle" x="420" y="-221.5" font-family="Helvetica,sans-Serif" font-size="10.00">/Components/Core/Layer.h</text>
</a>
</g>
</g>
<!-- Node3&#45;&gt;Node4 -->
<g id="edge3_Node000003_Node000004" class="edge">
<title>Node3&#45;&gt;Node4</title>
<g id="a_edge3_Node000003_Node000004"><a xlink:title=" ">
<path fill="none" stroke="#63b8ff" d="M569.08,-282.57C535.43,-270.81 491.62,-255.51 460.21,-244.54"/>
<polygon fill="#63b8ff" stroke="#63b8ff" points="568.13,-285.94 578.73,-285.94 570.44,-279.33 568.13,-285.94"/>
</a>
</g>
</g>
<!-- Node6 -->
<g id="Node000006" class="node">
<title>Node6</title>
<g id="a_Node000006"><a xlink:href="SpanEngine_8h.html" target="_top" xlink:title=" ">
<polygon fill="white" stroke="#666666" points="722.5,-96 567.5,-96 567.5,-77 722.5,-77 722.5,-96"/>
<text text-anchor="middle" x="645" y="-84" font-family="Helvetica,sans-Serif" font-size="10.00">Engine/Source/SpanEngine.h</text>
</a>
</g>
</g>
<!-- Node3&#45;&gt;Node6 -->
<g id="edge39_Node000003_Node000006" class="edge">
<title>Node3&#45;&gt;Node6</title>
<g id="a_edge39_Node000003_Node000006"><a xlink:title=" ">
<path fill="none" stroke="#63b8ff" d="M705.8,-300.54C901.88,-300.91 1366.03,-296.8 1418,-250 1457.21,-214.7 1467.24,-170.35 1431,-132 1406.92,-106.51 916.2,-93.29 722.58,-89.05"/>
<polygon fill="#63b8ff" stroke="#63b8ff" points="705.55,-297.04 695.54,-300.51 705.53,-304.04 705.55,-297.04"/>
</a>
</g>
</g>
<!-- Node10 -->
<g id="Node000010" class="node">
<title>Node10</title>
<g id="a_Node000010"><a xlink:href="Name_8h.html" target="_top" xlink:title="エンティティの名前">
<polygon fill="white" stroke="#666666" points="176,-244.5 28,-244.5 28,-214.5 176,-214.5 176,-244.5"/>
<text text-anchor="start" x="36" y="-232.5" font-family="Helvetica,sans-Serif" font-size="10.00">Engine/Source/Runtime</text>
<text text-anchor="middle" x="102" y="-221.5" font-family="Helvetica,sans-Serif" font-size="10.00">/Components/Core/Name.h</text>
</a>
</g>
</g>
<!-- Node3&#45;&gt;Node10 -->
<g id="edge11_Node000003_Node000010" class="edge">
<title>Node3&#45;&gt;Node10</title>
<g id="a_edge11_Node000003_Node000010"><a xlink:title=" ">
<path fill="none" stroke="#63b8ff" d="M531.98,-292.97C444.05,-285.16 304.49,-270.85 185,-250 176.11,-248.45 166.74,-246.53 157.63,-244.5"/>
<polygon fill="#63b8ff" stroke="#63b8ff" points="531.91,-296.47 542.18,-293.86 532.52,-289.5 531.91,-296.47"/>
</a>
</g>
</g>
<!-- Node11 -->
<g id="Node000011" class="node">
<title>Node11</title>
<g id="a_Node000011"><a xlink:href="Tag_8h.html" target="_top" xlink:title="エンティティのタグ分類">
<polygon fill="white" stroke="#666666" points="329.5,-244.5 194.5,-244.5 194.5,-214.5 329.5,-214.5 329.5,-244.5"/>
<text text-anchor="start" x="202.5" y="-232.5" font-family="Helvetica,sans-Serif" font-size="10.00">Engine/Source/Runtime</text>
<text text-anchor="middle" x="262" y="-221.5" font-family="Helvetica,sans-Serif" font-size="10.00">/Components/Core/Tag.h</text>
</a>
</g>
</g>
<!-- Node3&#45;&gt;Node11 -->
<g id="edge14_Node000003_Node000011" class="edge">
<title>Node3&#45;&gt;Node11</title>
<g id="a_edge14_Node000003_Node000011"><a xlink:title=" ">
<path fill="none" stroke="#63b8ff" d="M532.18,-286.28C476.48,-277.05 402.73,-264.04 338,-250 330.41,-248.35 322.44,-246.47 314.62,-244.55"/>
<polygon fill="#63b8ff" stroke="#63b8ff" points="531.93,-289.79 542.37,-287.96 533.07,-282.88 531.93,-289.79"/>
</a>
</g>
</g>
<!-- Node12 -->
<g id="Node000012" class="node">
<title>Node12</title>
<g id="a_Node000012"><a xlink:href="Transform_8h.html" target="_top" xlink:title="位置、回転、拡大縮小を管理するコンポーネント。">
<polygon fill="white" stroke="#666666" points="702.5,-244.5 535.5,-244.5 535.5,-214.5 702.5,-214.5 702.5,-244.5"/>
<text text-anchor="start" x="543.5" y="-232.5" font-family="Helvetica,sans-Serif" font-size="10.00">Engine/Source/Runtime</text>
<text text-anchor="middle" x="619" y="-221.5" font-family="Helvetica,sans-Serif" font-size="10.00">/Components/Core/Transform.h</text>
</a>
</g>
</g>
<!-- Node3&#45;&gt;Node12 -->
<g id="edge17_Node000003_Node000012" class="edge">
<title>Node3&#45;&gt;Node12</title>
<g id="a_edge17_Node000003_Node000012"><a xlink:title=" ">
<path fill="none" stroke="#63b8ff" d="M619,-275.75C619,-265.31 619,-253.49 619,-244.54"/>
<polygon fill="#63b8ff" stroke="#63b8ff" points="615.5,-275.94 619,-285.94 622.5,-275.94 615.5,-275.94"/>
</a>
</g>
</g>
<!-- Node17 -->
<g id="Node000017" class="node">
<title>Node17</title>
<g id="a_Node000017"><a xlink:href="Camera_8h.html" target="_top" xlink:title="レンダリング視点を定義するカメラコンポーネント。">
<polygon fill="white" stroke="#666666" points="1004,-250 874,-250 874,-209 1004,-209 1004,-250"/>
<text text-anchor="start" x="882" y="-238" font-family="Helvetica,sans-Serif" font-size="10.00">Engine/Source/Runtime</text>
<text text-anchor="start" x="882" y="-227" font-family="Helvetica,sans-Serif" font-size="10.00">/Components/Graphics</text>
<text text-anchor="middle" x="939" y="-216" font-family="Helvetica,sans-Serif" font-size="10.00">/Camera.h</text>
</a>
</g>
</g>
<!-- Node3&#45;&gt;Node17 -->
<g id="edge28_Node000003_Node000017" class="edge">
<title>Node3&#45;&gt;Node17</title>
<g id="a_edge28_Node000003_Node000017"><a xlink:title=" ">
<path fill="none" stroke="#63b8ff" d="M693.72,-283.77C748.3,-271.92 821.58,-256 873.79,-244.66"/>
<polygon fill="#63b8ff" stroke="#63b8ff" points="692.79,-280.39 683.76,-285.94 694.27,-287.23 692.79,-280.39"/>
</a>
</g>
</g>
<!-- Node18 -->
<g id="Node000018" class="node">
<title>Node18</title>
<g id="a_Node000018"><a xlink:href="MeshFilter_8h.html" target="_top" xlink:title="描画する形状 (メッシュ) への参照。">
<polygon fill="white" stroke="#666666" points="1261,-250 1131,-250 1131,-209 1261,-209 1261,-250"/>
<text text-anchor="start" x="1139" y="-238" font-family="Helvetica,sans-Serif" font-size="10.00">Engine/Source/Runtime</text>
<text text-anchor="start" x="1139" y="-227" font-family="Helvetica,sans-Serif" font-size="10.00">/Components/Graphics</text>
<text text-anchor="middle" x="1196" y="-216" font-family="Helvetica,sans-Serif" font-size="10.00">/MeshFilter.h</text>
</a>
</g>
</g>
<!-- Node3&#45;&gt;Node18 -->
<g id="edge32_Node000003_Node000018" class="edge">
<title>Node3&#45;&gt;Node18</title>
<g id="a_edge32_Node000003_Node000018"><a xlink:title=" ">
<path fill="none" stroke="#63b8ff" d="M705.57,-289.57C821.96,-275.55 1026.32,-250.94 1130.67,-238.37"/>
<polygon fill="#63b8ff" stroke="#63b8ff" points="705.13,-286.1 695.62,-290.77 705.97,-293.05 705.13,-286.1"/>
</a>
</g>
</g>
<!-- Node20 -->
<g id="Node000020" class="node">
<title>Node20</title>
<g id="a_Node000020"><a xlink:href="MeshRenderer_8h.html" target="_top" xlink:title="メッシュの描画設定とマテリアル参照。">
<polygon fill="white" stroke="#666666" points="1409,-250 1279,-250 1279,-209 1409,-209 1409,-250"/>
<text text-anchor="start" x="1287" y="-238" font-family="Helvetica,sans-Serif" font-size="10.00">Engine/Source/Runtime</text>
<text text-anchor="start" x="1287" y="-227" font-family="Helvetica,sans-Serif" font-size="10.00">/Components/Graphics</text>
<text text-anchor="middle" x="1344" y="-216" font-family="Helvetica,sans-Serif" font-size="10.00">/MeshRenderer.h</text>
</a>
</g>
</g>
<!-- Node3&#45;&gt;Node20 -->
<g id="edge36_Node000003_Node000020" class="edge">
<title>Node3&#45;&gt;Node20</title>
<g id="a_edge36_Node000003_Node000020"><a xlink:title=" ">
<path fill="none" stroke="#63b8ff" d="M706.02,-298.31C831.45,-294.75 1069.96,-283.75 1270,-250 1272.88,-249.51 1275.82,-248.97 1278.77,-248.37"/>
<polygon fill="#63b8ff" stroke="#63b8ff" points="705.61,-294.82 695.71,-298.59 705.81,-301.82 705.61,-294.82"/>
</a>
</g>
</g>
<!-- Node5 -->
<g id="Node000005" class="node">
<title>Node5</title>
<g id="a_Node000005"><a xlink:href="EntityBuilder_8h.html" target="_top" xlink:title="エンティティ生成を簡略化するヘルパークラス。">
<polygon fill="white" stroke="#666666" points="250,-167.5 104,-167.5 104,-137.5 250,-137.5 250,-167.5"/>
<text text-anchor="start" x="112" y="-155.5" font-family="Helvetica,sans-Serif" font-size="10.00">Engine/Source/Runtime</text>
<text text-anchor="middle" x="177" y="-144.5" font-family="Helvetica,sans-Serif" font-size="10.00">/ECS/Kernel/EntityBuilder.h</text>
</a>
</g>
</g>
<!-- Node4&#45;&gt;Node5 -->
<g id="edge4_Node000004_Node000005" class="edge">
<title>Node4&#45;&gt;Node5</title>
<g id="a_edge4_Node000004_Node000005"><a xlink:title=" ">
<path fill="none" stroke="#63b8ff" d="M364.84,-211.48C321.88,-198.21 262.94,-180.02 222.61,-167.58"/>
<polygon fill="#63b8ff" stroke="#63b8ff" points="363.99,-214.88 374.58,-214.48 366.06,-208.19 363.99,-214.88"/>
</a>
</g>
</g>
<!-- Node4&#45;&gt;Node6 -->
<g id="edge10_Node000004_Node000006" class="edge">
<title>Node4&#45;&gt;Node6</title>
<g id="a_edge10_Node000004_Node000006"><a xlink:title=" ">
<path fill="none" stroke="#63b8ff" d="M344.52,-210.69C325.5,-202.44 307.3,-190.44 296,-173 286.09,-157.71 283.96,-145.68 296,-132 313.64,-111.97 469.82,-98.55 567.18,-92.05"/>
<polygon fill="#63b8ff" stroke="#63b8ff" points="343.31,-213.98 353.9,-214.45 345.92,-207.48 343.31,-213.98"/>
</a>
</g>
</g>
<!-- Node5&#45;&gt;Node6 -->
<g id="edge5_Node000005_Node000006" class="edge">
<title>Node5&#45;&gt;Node6</title>
<g id="a_edge5_Node000005_Node000006"><a xlink:title=" ">
<path fill="none" stroke="#63b8ff" d="M246,-135.35C252.07,-134.13 258.13,-133 264,-132 368.39,-114.25 490.08,-101.39 567.31,-94.18"/>
<polygon fill="#63b8ff" stroke="#63b8ff" points="244.89,-132 235.8,-137.45 246.3,-138.86 244.89,-132"/>
</a>
</g>
</g>
<!-- Node6&#45;&gt;Node2 -->
<g id="edge8_Node000006_Node000002" class="edge">
<title>Node6&#45;&gt;Node2</title>
<g id="a_edge8_Node000006_Node000002"><a xlink:title=" ">
<path fill="none" stroke="#63b8ff" d="M569.18,-75.68C475.6,-63.55 317.52,-43.07 224.85,-31.07"/>
<polygon fill="#63b8ff" stroke="#63b8ff" points="568.78,-79.15 579.15,-76.97 569.68,-72.21 568.78,-79.15"/>
</a>
</g>
</g>
<!-- Node7 -->
<g id="Node000007" class="node">
<title>Node7</title>
<g id="a_Node000007"><a xlink:href="GuiManager_8cpp.html" target="_top" xlink:title=" ">
<polygon fill="white" stroke="#666666" points="862.5,-35.5 745.5,-35.5 745.5,-5.5 862.5,-5.5 862.5,-35.5"/>
<text text-anchor="start" x="753.5" y="-23.5" font-family="Helvetica,sans-Serif" font-size="10.00">Engine/Source/Editor</text>
<text text-anchor="middle" x="804" y="-12.5" font-family="Helvetica,sans-Serif" font-size="10.00">/GuiManager.cpp</text>
</a>
</g>
</g>
<!-- Node6&#45;&gt;Node7 -->
<g id="edge6_Node000006_Node000007" class="edge">
<title>Node6&#45;&gt;Node7</title>
<g id="a_edge6_Node000006_Node000007"><a xlink:title=" ">
<path fill="none" stroke="#63b8ff" d="M676.04,-73C702.72,-62.27 741.15,-46.8 768.93,-35.62"/>
<polygon fill="#63b8ff" stroke="#63b8ff" points="674.41,-69.89 666.44,-76.87 677.03,-76.38 674.41,-69.89"/>
</a>
</g>
</g>
<!-- Node8 -->
<g id="Node000008" class="node">
<title>Node8</title>
<g id="a_Node000008"><a xlink:href="HierarchyPanel_8cpp.html" target="_top" xlink:title=" ">
<polygon fill="white" stroke="#666666" points="545,-41 393,-41 393,0 545,0 545,-41"/>
<text text-anchor="start" x="401" y="-29" font-family="Helvetica,sans-Serif" font-size="10.00">Engine/Source/Editor</text>
<text text-anchor="start" x="401" y="-18" font-family="Helvetica,sans-Serif" font-size="10.00">/Panels/Hierarchy/Hierarchy</text>
<text text-anchor="middle" x="469" y="-7" font-family="Helvetica,sans-Serif" font-size="10.00">Panel.cpp</text>
</a>
</g>
</g>
<!-- Node6&#45;&gt;Node8 -->
<g id="edge7_Node000006_Node000008" class="edge">
<title>Node6&#45;&gt;Node8</title>
<g id="a_edge7_Node000006_Node000008"><a xlink:title=" ">
<path fill="none" stroke="#63b8ff" d="M611.83,-73.44C586.72,-64.31 551.72,-51.58 522.65,-41.01"/>
<polygon fill="#63b8ff" stroke="#63b8ff" points="610.67,-76.74 621.26,-76.87 613.06,-70.16 610.67,-76.74"/>
</a>
</g>
</g>
<!-- Node9 -->
<g id="Node000009" class="node">
<title>Node9</title>
<g id="a_Node000009"><a xlink:href="SceneViewPanel_8cpp.html" target="_top" xlink:title=" ">
<polygon fill="white" stroke="#666666" points="727,-41 563,-41 563,0 727,0 727,-41"/>
<text text-anchor="start" x="571" y="-29" font-family="Helvetica,sans-Serif" font-size="10.00">Engine/Source/Editor</text>
<text text-anchor="start" x="571" y="-18" font-family="Helvetica,sans-Serif" font-size="10.00">/Panels/SceneView/SceneView</text>
<text text-anchor="middle" x="645" y="-7" font-family="Helvetica,sans-Serif" font-size="10.00">Panel.cpp</text>
</a>
</g>
</g>
<!-- Node6&#45;&gt;Node9 -->
<g id="edge9_Node000006_Node000009" class="edge">
<title>Node6&#45;&gt;Node9</title>
<g id="a_edge9_Node000006_Node000009"><a xlink:title=" ">
<path fill="none" stroke="#63b8ff" d="M645,-66.63C645,-58.56 645,-49.15 645,-41.01"/>
<polygon fill="#63b8ff" stroke="#63b8ff" points="641.5,-66.87 645,-76.87 648.5,-66.87 641.5,-66.87"/>
</a>
</g>
</g>
<!-- Node10&#45;&gt;Node5 -->
<g id="edge12_Node000010_Node000005" class="edge">
<title>Node10&#45;&gt;Node5</title>
<g id="a_edge12_Node000010_Node000005"><a xlink:title=" ">
<path fill="none" stroke="#63b8ff" d="M123.18,-207.32C135.92,-194.58 151.76,-178.74 162.96,-167.54"/>
<polygon fill="#63b8ff" stroke="#63b8ff" points="120.7,-204.85 116.11,-214.39 125.65,-209.8 120.7,-204.85"/>
</a>
</g>
</g>
<!-- Node10&#45;&gt;Node6 -->
<g id="edge13_Node000010_Node000006" class="edge">
<title>Node10&#45;&gt;Node6</title>
<g id="a_edge13_Node000010_Node000006"><a xlink:title=" ">
<path fill="none" stroke="#63b8ff" d="M87.66,-205.48C76.17,-183.8 64.73,-151.77 83,-132 115.19,-97.16 420.95,-89.57 567.46,-87.93"/>
<polygon fill="#63b8ff" stroke="#63b8ff" points="84.7,-207.36 92.66,-214.35 90.8,-203.92 84.7,-207.36"/>
</a>
</g>
</g>
<!-- Node11&#45;&gt;Node5 -->
<g id="edge15_Node000011_Node000005" class="edge">
<title>Node11&#45;&gt;Node5</title>
<g id="a_edge15_Node000011_Node000005"><a xlink:title=" ">
<path fill="none" stroke="#63b8ff" d="M238.39,-207.67C223.9,-194.88 205.72,-178.84 192.92,-167.54"/>
<polygon fill="#63b8ff" stroke="#63b8ff" points="236.2,-210.4 246.01,-214.39 240.83,-205.15 236.2,-210.4"/>
</a>
</g>
</g>
<!-- Node11&#45;&gt;Node6 -->
<g id="edge16_Node000011_Node000006" class="edge">
<title>Node11&#45;&gt;Node6</title>
<g id="a_edge16_Node000011_Node000006"><a xlink:title=" ">
<path fill="none" stroke="#63b8ff" d="M199.86,-211.64C155.12,-198.89 101.54,-182.06 95,-173 84.34,-158.22 82.65,-145.39 95,-132 126.36,-98 423.41,-89.97 567.44,-88.08"/>
<polygon fill="#63b8ff" stroke="#63b8ff" points="198.96,-215.03 209.54,-214.38 200.87,-208.29 198.96,-215.03"/>
</a>
</g>
</g>
<!-- Node12&#45;&gt;Node5 -->
<g id="edge18_Node000012_Node000005" class="edge">
<title>Node12&#45;&gt;Node5</title>
<g id="a_edge18_Node000012_Node000005"><a xlink:title=" ">
<path fill="none" stroke="#63b8ff" d="M526.29,-212.77C444.1,-198.82 325.69,-178.73 250.05,-165.9"/>
<polygon fill="#63b8ff" stroke="#63b8ff" points="525.94,-216.26 536.38,-214.48 527.11,-209.36 525.94,-216.26"/>
</a>
</g>
</g>
<!-- Node12&#45;&gt;Node6 -->
<g id="edge27_Node000012_Node000006" class="edge">
<title>Node12&#45;&gt;Node6</title>
<g id="a_edge27_Node000012_Node000006"><a xlink:title=" ">
<path fill="none" stroke="#63b8ff" d="M574.9,-209.4C560.11,-200.61 545.27,-188.59 537,-173 528.46,-156.9 526.86,-147.14 537,-132 549.58,-113.21 571.69,-102.35 592.64,-96.07"/>
<polygon fill="#63b8ff" stroke="#63b8ff" points="573.6,-212.69 584.05,-214.47 577,-206.56 573.6,-212.69"/>
</a>
</g>
</g>
<!-- Node13 -->
<g id="Node000013" class="node">
<title>Node13</title>
<g id="a_Node000013"><a xlink:href="RelationshipSystem_8h.html" target="_top" xlink:title="エンティティ間の親子・兄弟関係 (階層構造) を操作するシステム。">
<polygon fill="white" stroke="#666666" points="743.5,-167.5 546.5,-167.5 546.5,-137.5 743.5,-137.5 743.5,-167.5"/>
<text text-anchor="start" x="554.5" y="-155.5" font-family="Helvetica,sans-Serif" font-size="10.00">Engine/Source/Runtime</text>
<text text-anchor="middle" x="645" y="-144.5" font-family="Helvetica,sans-Serif" font-size="10.00">/Systems/Core/RelationshipSystem.h</text>
</a>
</g>
</g>
<!-- Node12&#45;&gt;Node13 -->
<g id="edge19_Node000012_Node000013" class="edge">
<title>Node12&#45;&gt;Node13</title>
<g id="a_edge19_Node000012_Node000013"><a xlink:title=" ">
<path fill="none" stroke="#63b8ff" d="M627.22,-204.78C631.47,-192.53 636.51,-178 640.13,-167.54"/>
<polygon fill="#63b8ff" stroke="#63b8ff" points="623.86,-203.8 623.89,-214.39 630.47,-206.09 623.86,-203.8"/>
</a>
</g>
</g>
<!-- Node14 -->
<g id="Node000014" class="node">
<title>Node14</title>
<g id="a_Node000014"><a xlink:href="TransformSystem_8h.html" target="_top" xlink:title="ローカル座標からワールド座標への変換行列計算">
<polygon fill="white" stroke="#666666" points="490.5,-167.5 305.5,-167.5 305.5,-137.5 490.5,-137.5 490.5,-167.5"/>
<text text-anchor="start" x="313.5" y="-155.5" font-family="Helvetica,sans-Serif" font-size="10.00">Engine/Source/Runtime</text>
<text text-anchor="middle" x="398" y="-144.5" font-family="Helvetica,sans-Serif" font-size="10.00">/Systems/Core/TransformSystem.h</text>
</a>
</g>
</g>
<!-- Node12&#45;&gt;Node14 -->
<g id="edge21_Node000012_Node000014" class="edge">
<title>Node12&#45;&gt;Node14</title>
<g id="a_edge21_Node000012_Node000014"><a xlink:title=" ">
<path fill="none" stroke="#63b8ff" d="M568.1,-211.22C529.08,-197.99 475.93,-179.95 439.48,-167.58"/>
<polygon fill="#63b8ff" stroke="#63b8ff" points="567.1,-214.58 577.69,-214.48 569.35,-207.95 567.1,-214.58"/>
</a>
</g>
</g>
<!-- Node15 -->
<g id="Node000015" class="node">
<title>Node15</title>
<g id="a_Node000015"><a xlink:href="CameraSystem_8h.html" target="_top" xlink:title="カメラ行列の更新とレンダラーへの適用。">
<polygon fill="white" stroke="#666666" points="1150,-167.5 956,-167.5 956,-137.5 1150,-137.5 1150,-167.5"/>
<text text-anchor="start" x="964" y="-155.5" font-family="Helvetica,sans-Serif" font-size="10.00">Engine/Source/Runtime</text>
<text text-anchor="middle" x="1053" y="-144.5" font-family="Helvetica,sans-Serif" font-size="10.00">/Systems/Graphics/CameraSystem.h</text>
</a>
</g>
</g>
<!-- Node12&#45;&gt;Node15 -->
<g id="edge23_Node000012_Node000015" class="edge">
<title>Node12&#45;&gt;Node15</title>
<g id="a_edge23_Node000012_Node000015"><a xlink:title=" ">
<path fill="none" stroke="#63b8ff" d="M712.56,-213.04C778.21,-202.09 868.02,-186.95 947,-173 956.86,-171.26 967.23,-169.39 977.46,-167.53"/>
<polygon fill="#63b8ff" stroke="#63b8ff" points="711.93,-209.59 702.64,-214.69 713.08,-216.5 711.93,-209.59"/>
</a>
</g>
</g>
<!-- Node16 -->
<g id="Node000016" class="node">
<title>Node16</title>
<g id="a_Node000016"><a xlink:href="EditorCameraSystem_8h.html" target="_top" xlink:title="エディタ用フリーカメラの操作システム">
<polygon fill="white" stroke="#666666" points="938.5,-173 761.5,-173 761.5,-132 938.5,-132 938.5,-173"/>
<text text-anchor="start" x="769.5" y="-161" font-family="Helvetica,sans-Serif" font-size="10.00">Engine/Source/Runtime</text>
<text text-anchor="start" x="769.5" y="-150" font-family="Helvetica,sans-Serif" font-size="10.00">/Systems/Graphics/EditorCamera</text>
<text text-anchor="middle" x="850" y="-139" font-family="Helvetica,sans-Serif" font-size="10.00">System.h</text>
</a>
</g>
</g>
<!-- Node12&#45;&gt;Node16 -->
<g id="edge25_Node000012_Node000016" class="edge">
<title>Node12&#45;&gt;Node16</title>
<g id="a_edge25_Node000012_Node000016"><a xlink:title=" ">
<path fill="none" stroke="#63b8ff" d="M671.77,-211.37C706.86,-199.97 753.05,-184.98 789.61,-173.11"/>
<polygon fill="#63b8ff" stroke="#63b8ff" points="670.61,-208.06 662.18,-214.48 672.77,-214.72 670.61,-208.06"/>
</a>
</g>
</g>
<!-- Node13&#45;&gt;Node6 -->
<g id="edge20_Node000013_Node000006" class="edge">
<title>Node13&#45;&gt;Node6</title>
<g id="a_edge20_Node000013_Node000006"><a xlink:title=" ">
<path fill="none" stroke="#63b8ff" d="M645,-127.1C645,-116.3 645,-104.28 645,-96.34"/>
<polygon fill="#63b8ff" stroke="#63b8ff" points="641.5,-127.3 645,-137.3 648.5,-127.3 641.5,-127.3"/>
</a>
</g>
</g>
<!-- Node14&#45;&gt;Node6 -->
<g id="edge22_Node000014_Node000006" class="edge">
<title>Node14&#45;&gt;Node6</title>
<g id="a_edge22_Node000014_Node000006"><a xlink:title=" ">
<path fill="none" stroke="#63b8ff" d="M461.9,-134.94C509.99,-122.48 573.93,-105.92 612.13,-96.02"/>
<polygon fill="#63b8ff" stroke="#63b8ff" points="461.01,-131.56 452.21,-137.45 462.76,-138.33 461.01,-131.56"/>
</a>
</g>
</g>
<!-- Node15&#45;&gt;Node6 -->
<g id="edge24_Node000015_Node000006" class="edge">
<title>Node15&#45;&gt;Node6</title>
<g id="a_edge24_Node000015_Node000006"><a xlink:title=" ">
<path fill="none" stroke="#63b8ff" d="M968.66,-135.7C961.34,-134.42 954.04,-133.17 947,-132 864.26,-118.3 768.41,-104.53 707.28,-96.02"/>
<polygon fill="#63b8ff" stroke="#63b8ff" points="968.18,-139.17 978.64,-137.47 969.41,-132.28 968.18,-139.17"/>
</a>
</g>
</g>
<!-- Node16&#45;&gt;Node6 -->
<g id="edge26_Node000016_Node000006" class="edge">
<title>Node16&#45;&gt;Node6</title>
<g id="a_edge26_Node000016_Node000006"><a xlink:title=" ">
<path fill="none" stroke="#63b8ff" d="M777.74,-128.94C741.22,-117.54 699.08,-104.38 672.25,-96.01"/>
<polygon fill="#63b8ff" stroke="#63b8ff" points="776.79,-132.31 787.38,-131.95 778.88,-125.63 776.79,-132.31"/>
</a>
</g>
</g>
<!-- Node17&#45;&gt;Node6 -->
<g id="edge31_Node000017_Node000006" class="edge">
<title>Node17&#45;&gt;Node6</title>
<g id="a_edge31_Node000017_Node000006"><a xlink:title=" ">
<path fill="none" stroke="#63b8ff" d="M1014.43,-220.64C1095.48,-209.37 1206.65,-183.95 1159,-132 1130.13,-100.52 858.91,-91.25 722.53,-88.56"/>
<polygon fill="#63b8ff" stroke="#63b8ff" points="1013.66,-217.21 1004.21,-222.01 1014.59,-224.15 1013.66,-217.21"/>
</a>
</g>
</g>
<!-- Node17&#45;&gt;Node15 -->
<g id="edge29_Node000017_Node000015" class="edge">
<title>Node17&#45;&gt;Node15</title>
<g id="a_edge29_Node000017_Node000015"><a xlink:title=" ">
<path fill="none" stroke="#63b8ff" d="M977.25,-203.34C995.29,-191.47 1016.16,-177.74 1031.42,-167.7"/>
<polygon fill="#63b8ff" stroke="#63b8ff" points="975.09,-200.57 968.65,-208.99 978.93,-206.42 975.09,-200.57"/>
</a>
</g>
</g>
<!-- Node17&#45;&gt;Node16 -->
<g id="edge30_Node000017_Node000016" class="edge">
<title>Node17&#45;&gt;Node16</title>
<g id="a_edge30_Node000017_Node000016"><a xlink:title=" ">
<path fill="none" stroke="#63b8ff" d="M907.97,-202.35C896.55,-192.73 883.84,-182.01 873.23,-173.07"/>
<polygon fill="#63b8ff" stroke="#63b8ff" points="905.71,-205.03 915.62,-208.79 910.22,-199.67 905.71,-205.03"/>
</a>
</g>
</g>
<!-- Node18&#45;&gt;Node6 -->
<g id="edge35_Node000018_Node000006" class="edge">
<title>Node18&#45;&gt;Node6</title>
<g id="a_edge35_Node000018_Node000006"><a xlink:title=" ">
<path fill="none" stroke="#63b8ff" d="M1199.47,-198.9C1200.23,-177.13 1197.14,-148.56 1179,-132 1146.04,-101.92 862.5,-91.93 722.53,-88.81"/>
<polygon fill="#63b8ff" stroke="#63b8ff" points="1195.97,-198.76 1198.84,-208.96 1202.96,-199.2 1195.97,-198.76"/>
</a>
</g>
</g>
<!-- Node19 -->
<g id="Node000019" class="node">
<title>Node19</title>
<g id="a_Node000019"><a xlink:href="RenderingSystem_8h.html" target="_top" xlink:title="描画コマンド発行システム。">
<polygon fill="white" stroke="#666666" points="1404,-173 1244,-173 1244,-132 1404,-132 1404,-173"/>
<text text-anchor="start" x="1252" y="-161" font-family="Helvetica,sans-Serif" font-size="10.00">Engine/Source/Runtime</text>
<text text-anchor="start" x="1252" y="-150" font-family="Helvetica,sans-Serif" font-size="10.00">/Systems/Graphics/Rendering</text>
<text text-anchor="middle" x="1324" y="-139" font-family="Helvetica,sans-Serif" font-size="10.00">System.h</text>
</a>
</g>
</g>
<!-- Node18&#45;&gt;Node19 -->
<g id="edge33_Node000018_Node000019" class="edge">
<title>Node18&#45;&gt;Node19</title>
<g id="a_edge33_Node000018_Node000019"><a xlink:title=" ">
<path fill="none" stroke="#63b8ff" d="M1237.95,-203.92C1254.97,-193.95 1274.37,-182.58 1290.43,-173.17"/>
<polygon fill="#63b8ff" stroke="#63b8ff" points="1236.15,-200.92 1229.3,-208.99 1239.69,-206.95 1236.15,-200.92"/>
</a>
</g>
</g>
<!-- Node19&#45;&gt;Node6 -->
<g id="edge34_Node000019_Node000006" class="edge">
<title>Node19&#45;&gt;Node6</title>
<g id="a_edge34_Node000019_Node000006"><a xlink:title=" ">
<path fill="none" stroke="#63b8ff" d="M1233.85,-132.56C1232.56,-132.37 1231.28,-132.18 1230,-132 1049.47,-106.52 835.39,-94.91 722.94,-90.24"/>
<polygon fill="#63b8ff" stroke="#63b8ff" points="1233.44,-136.04 1243.87,-134.16 1234.54,-129.13 1233.44,-136.04"/>
</a>
</g>
</g>
<!-- Node20&#45;&gt;Node6 -->
<g id="edge38_Node000020_Node000006" class="edge">
<title>Node20&#45;&gt;Node6</title>
<g id="a_edge38_Node000020_Node000006"><a xlink:title=" ">
<path fill="none" stroke="#63b8ff" d="M1388.16,-202.67C1398.15,-194.54 1407.45,-184.6 1413,-173 1420.87,-156.57 1425.51,-145.25 1413,-132 1389.55,-107.16 912.91,-93.6 722.54,-89.16"/>
<polygon fill="#63b8ff" stroke="#63b8ff" points="1385.92,-199.98 1380.06,-208.8 1390.14,-205.56 1385.92,-199.98"/>
</a>
</g>
</g>
<!-- Node20&#45;&gt;Node19 -->
<g id="edge37_Node000020_Node000019" class="edge">
<title>Node20&#45;&gt;Node19</title>
<g id="a_edge37_Node000020_Node000019"><a xlink:title=" ">
<path fill="none" stroke="#63b8ff" d="M1336.13,-198.98C1333.81,-190.28 1331.33,-180.98 1329.22,-173.07"/>
<polygon fill="#63b8ff" stroke="#63b8ff" points="1332.79,-200.03 1338.75,-208.79 1339.55,-198.23 1332.79,-200.03"/>
</a>
</g>
</g>
</g>
</svg>

<g id="navigator" transform="translate(0 0)" fill="#404254">
  <rect fill="#f2f5e9" fill-opacity="0.5" stroke="#606060" stroke-width=".5" x="0" y="0" width="60" height="60"/>
  <use id="zoomplus" xlink:href="#zoomPlus" x="17" y="9" onmousedown="handleZoom(evt,'in')"/>
  <use id="zoomminus" xlink:href="#zoomMin" x="42" y="9" onmousedown="handleZoom(evt,'out')"/>
  <use id="reset" xlink:href="#resetDef" x="30" y="36" onmousedown="handleReset()"/>
   <use id="arrowup" xlink:href="#arrowUp" x="0" y="0" onmousedown="handlePan(0,-1)"/>
  <use id="arrowright" xlink:href="#arrowRight" x="0" y="0" onmousedown="handlePan(1,0)"/>
  <use id="arrowdown" xlink:href="#arrowDown" x="0" y="0" onmousedown="handlePan(0,1)"/>
  <use id="arrowleft" xlink:href="#arrowLeft" x="0" y="0" onmousedown="handlePan(-1,0)"/>
</g>
<svg viewBox="0 0 15 15" width="100%" height="30px" preserveAspectRatio="xMaxYMin meet">
 <g id="arrow_out" transform="scale(0.3 0.3)">
  <a xlink:href="ImGuiUI_8h__dep__incl_org.svg" target="_base">
   <rect id="button" ry="5" rx="5" y="6" x="6" height="38" width="38"
        fill="#f2f5e9" fill-opacity="0.5" stroke="#606060" stroke-width="1.0"/>
   <path id="arrow"
     d="M 11.500037,31.436501 C 11.940474,20.09759 22.043105,11.32322 32.158766,21.979434 L 37.068811,17.246167 C 37.068811,17.246167 37.088388,32 37.088388,32 L 22.160133,31.978069 C 22.160133,31.978069 26.997745,27.140456 26.997745,27.140456 C 18.528582,18.264221 13.291696,25.230495 11.500037,31.436501 z"
     style="fill:#404040;"/>
  </a>
 </g>
</svg>

<style type='text/css'>
<![CDATA[
[data-mouse-over-selected='false'] { opacity: 0.7; }
[data-mouse-over-selected='true']  { opacity: 1.0; }
]]>
</style>
<script type="application/ecmascript"><![CDATA[
document.addEventListener('DOMContentLoaded', (event) => {
  highlightEdges();
  highlightAdjacentNodes();
});
]]></script>
</svg>
