<?xml version="1.0" encoding="UTF-8" standalone="no"?>
<!DOCTYPE svg PUBLIC "-//W3C//DTD SVG 1.1//EN"
 "http://www.w3.org/Graphics/SVG/1.1/DTD/svg11.dtd">
<!-- Generated by graphviz version 2.43.0 (0)
 -->
<!-- Title: Engine/Source/Editor/ImGui/ImGuiUI.h Pages: 1 -->
<svg width="2773pt" height="203pt"
 viewBox="0.00 0.00 2773.00 203.00" xmlns="http://www.w3.org/2000/svg" xmlns:xlink="http://www.w3.org/1999/xlink">
<g id="graph0" class="graph" transform="scale(1 1) rotate(0) translate(4 199)">
<title>Engine/Source/Editor/ImGui/ImGuiUI.h</title>
<!-- Node1 -->
<g id="Node000001" class="node">
<title>Node1</title>
<g id="a_Node000001"><a xlink:title="ImGui用のカスタムウィジェットヘルパー。">
<polygon fill="#999999" stroke="#666666" points="1418,-195 1301,-195 1301,-165 1418,-165 1418,-195"/>
<text text-anchor="start" x="1309" y="-183" font-family="Helvetica,sans-Serif" font-size="10.00">Engine/Source/Editor</text>
<text text-anchor="middle" x="1359.5" y="-172" font-family="Helvetica,sans-Serif" font-size="10.00">/ImGui/ImGuiUI.h</text>
</a>
</g>
</g>
<!-- Node2 -->
<g id="Node000002" class="node">
<title>Node2</title>
<g id="a_Node000002"><a xlink:href="SpanMath_8h.html" target="_top" xlink:title="算術ライブラリ (Vector, Matrix, Quaternion)。">
<polygon fill="white" stroke="#666666" points="208.5,-74 80.5,-74 80.5,-55 208.5,-55 208.5,-74"/>
<text text-anchor="middle" x="144.5" y="-62" font-family="Helvetica,sans-Serif" font-size="10.00">Core/Math/SpanMath.h</text>
</a>
</g>
</g>
<!-- Node1&#45;&gt;Node2 -->
<g id="edge1_Node000001_Node000002" class="edge">
<title>Node1&#45;&gt;Node2</title>
<g id="a_edge1_Node000001_Node000002"><a xlink:title=" ">
<path fill="none" stroke="#63b8ff" d="M1300.9,-173.53C1100.37,-154.79 441.77,-93.27 218.95,-72.45"/>
<polygon fill="#63b8ff" stroke="#63b8ff" points="218.95,-68.94 208.67,-71.49 218.3,-75.91 218.95,-68.94"/>
</a>
</g>
</g>
<!-- Node6 -->
<g id="Node000006" class="node">
<title>Node6</title>
<g id="a_Node000006"><a xlink:href="Logger_8h.html" target="_top" xlink:title="デバッグログ出力システム">
<polygon fill="white" stroke="#666666" points="1363.5,-129 1259.5,-129 1259.5,-110 1363.5,-110 1363.5,-129"/>
<text text-anchor="middle" x="1311.5" y="-117" font-family="Helvetica,sans-Serif" font-size="10.00">Core/Log/Logger.h</text>
</a>
</g>
</g>
<!-- Node1&#45;&gt;Node6 -->
<g id="edge5_Node000001_Node000006" class="edge">
<title>Node1&#45;&gt;Node6</title>
<g id="a_edge5_Node000001_Node000006"><a xlink:title=" ">
<path fill="none" stroke="#63b8ff" d="M1347.88,-164.84C1341.06,-156.52 1332.39,-145.96 1325.23,-137.23"/>
<polygon fill="#63b8ff" stroke="#63b8ff" points="1327.74,-134.78 1318.69,-129.27 1322.33,-139.22 1327.74,-134.78"/>
</a>
</g>
</g>
<!-- Node40 -->
<g id="Node000040" class="node">
<title>Node40</title>
<g id="a_Node000040"><a xlink:title=" ">
<polygon fill="#e0e0e0" stroke="#999999" points="1435,-129 1382,-129 1382,-110 1435,-110 1435,-129"/>
<text text-anchor="middle" x="1408.5" y="-117" font-family="Helvetica,sans-Serif" font-size="10.00">imgui.h</text>
</a>
</g>
</g>
<!-- Node1&#45;&gt;Node40 -->
<g id="edge42_Node000001_Node000040" class="edge">
<title>Node1&#45;&gt;Node40</title>
<g id="a_edge42_Node000001_Node000040"><a xlink:title=" ">
<path fill="none" stroke="#63b8ff" d="M1371.36,-164.84C1378.4,-156.43 1387.36,-145.74 1394.71,-136.96"/>
<polygon fill="#63b8ff" stroke="#63b8ff" points="1397.42,-139.18 1401.16,-129.27 1392.05,-134.68 1397.42,-139.18"/>
</a>
</g>
</g>
<!-- Node41 -->
<g id="Node000041" class="node">
<title>Node41</title>
<g id="a_Node000041"><a xlink:title=" ">
<polygon fill="#e0e0e0" stroke="#999999" points="1549.5,-129 1453.5,-129 1453.5,-110 1549.5,-110 1549.5,-129"/>
<text text-anchor="middle" x="1501.5" y="-117" font-family="Helvetica,sans-Serif" font-size="10.00">imgui_internal.h</text>
</a>
</g>
</g>
<!-- Node1&#45;&gt;Node41 -->
<g id="edge43_Node000001_Node000041" class="edge">
<title>Node1&#45;&gt;Node41</title>
<g id="a_edge43_Node000001_Node000041"><a xlink:title=" ">
<path fill="none" stroke="#63b8ff" d="M1393.51,-164.99C1417.1,-155.27 1448.24,-142.44 1471.02,-133.06"/>
<polygon fill="#63b8ff" stroke="#63b8ff" points="1472.62,-136.18 1480.53,-129.14 1469.95,-129.71 1472.62,-136.18"/>
</a>
</g>
</g>
<!-- Node3 -->
<g id="Node000003" class="node">
<title>Node3</title>
<g id="a_Node000003"><a xlink:title=" ">
<polygon fill="#e0e0e0" stroke="#999999" points="233.5,-19 147.5,-19 147.5,0 233.5,0 233.5,-19"/>
<text text-anchor="middle" x="190.5" y="-7" font-family="Helvetica,sans-Serif" font-size="10.00">DirectXMath.h</text>
</a>
</g>
</g>
<!-- Node2&#45;&gt;Node3 -->
<g id="edge2_Node000002_Node000003" class="edge">
<title>Node2&#45;&gt;Node3</title>
<g id="a_edge2_Node000002_Node000003"><a xlink:title=" ">
<path fill="none" stroke="#63b8ff" d="M152.1,-54.75C158.66,-47.18 168.32,-36.05 176.31,-26.84"/>
<polygon fill="#63b8ff" stroke="#63b8ff" points="179.13,-28.94 183.05,-19.09 173.85,-24.35 179.13,-28.94"/>
</a>
</g>
</g>
<!-- Node4 -->
<g id="Node000004" class="node">
<title>Node4</title>
<g id="a_Node000004"><a xlink:title=" ">
<polygon fill="#e0e0e0" stroke="#999999" points="47,-19 0,-19 0,0 47,0 47,-19"/>
<text text-anchor="middle" x="23.5" y="-7" font-family="Helvetica,sans-Serif" font-size="10.00">cmath</text>
</a>
</g>
</g>
<!-- Node2&#45;&gt;Node4 -->
<g id="edge3_Node000002_Node000004" class="edge">
<title>Node2&#45;&gt;Node4</title>
<g id="a_edge3_Node000002_Node000004"><a xlink:title=" ">
<path fill="none" stroke="#63b8ff" d="M125.06,-54.98C105.51,-46.42 75.12,-33.11 52.68,-23.28"/>
<polygon fill="#63b8ff" stroke="#63b8ff" points="53.86,-19.98 43.29,-19.17 51.05,-26.39 53.86,-19.98"/>
</a>
</g>
</g>
<!-- Node5 -->
<g id="Node000005" class="node">
<title>Node5</title>
<g id="a_Node000005"><a xlink:title=" ">
<polygon fill="#e0e0e0" stroke="#999999" points="129.5,-19 65.5,-19 65.5,0 129.5,0 129.5,-19"/>
<text text-anchor="middle" x="97.5" y="-7" font-family="Helvetica,sans-Serif" font-size="10.00">algorithm</text>
</a>
</g>
</g>
<!-- Node2&#45;&gt;Node5 -->
<g id="edge4_Node000002_Node000005" class="edge">
<title>Node2&#45;&gt;Node5</title>
<g id="a_edge4_Node000002_Node000005"><a xlink:title=" ">
<path fill="none" stroke="#63b8ff" d="M136.74,-54.75C130.03,-47.18 120.16,-36.05 111.99,-26.84"/>
<polygon fill="#63b8ff" stroke="#63b8ff" points="114.37,-24.25 105.12,-19.09 109.13,-28.89 114.37,-24.25"/>
</a>
</g>
</g>
<!-- Node7 -->
<g id="Node000007" class="node">
<title>Node7</title>
<g id="a_Node000007"><a xlink:href="CoreMinimal_8h.html" target="_top" xlink:title="エンジンの標準インクルードファイル。">
<polygon fill="white" stroke="#666666" points="1368,-74 1255,-74 1255,-55 1368,-55 1368,-74"/>
<text text-anchor="middle" x="1311.5" y="-62" font-family="Helvetica,sans-Serif" font-size="10.00">Core/CoreMinimal.h</text>
</a>
</g>
</g>
<!-- Node6&#45;&gt;Node7 -->
<g id="edge6_Node000006_Node000007" class="edge">
<title>Node6&#45;&gt;Node7</title>
<g id="a_edge6_Node000006_Node000007"><a xlink:title=" ">
<path fill="none" stroke="#63b8ff" d="M1306.33,-109.75C1304.84,-102.8 1304.4,-92.85 1305.02,-84.13"/>
<polygon fill="#63b8ff" stroke="#63b8ff" points="1308.51,-84.47 1306.37,-74.09 1301.57,-83.53 1308.51,-84.47"/>
</a>
</g>
</g>
<!-- Node7&#45;&gt;Node3 -->
<g id="edge37_Node000007_Node000003" class="edge">
<title>Node7&#45;&gt;Node3</title>
<g id="a_edge37_Node000007_Node000003"><a xlink:title=" ">
<path fill="none" stroke="#63b8ff" d="M1254.83,-63.54C1096.51,-63.14 635.98,-58.47 243.7,-18.98"/>
<polygon fill="#63b8ff" stroke="#63b8ff" points="243.88,-15.48 233.58,-17.95 243.17,-22.44 243.88,-15.48"/>
</a>
</g>
</g>
<!-- Node7&#45;&gt;Node5 -->
<g id="edge19_Node000007_Node000005" class="edge">
<title>Node7&#45;&gt;Node5</title>
<g id="a_edge19_Node000007_Node000005"><a xlink:title=" ">
<path fill="none" stroke="#63b8ff" d="M1254.82,-62.6C1054.27,-59.23 378.02,-46.17 139.64,-18.88"/>
<polygon fill="#63b8ff" stroke="#63b8ff" points="139.99,-15.39 129.65,-17.69 139.16,-22.34 139.99,-15.39"/>
</a>
</g>
</g>
<!-- Node7&#45;&gt;Node6 -->
<g id="edge41_Node000007_Node000006" class="edge">
<title>Node7&#45;&gt;Node6</title>
<g id="a_edge41_Node000007_Node000006"><a xlink:title=" ">
<path fill="none" stroke="#63b8ff" d="M1316.63,-74.09C1318.14,-80.99 1318.59,-90.93 1317.99,-99.66"/>
<polygon fill="#63b8ff" stroke="#63b8ff" points="1314.5,-99.38 1316.67,-109.75 1321.44,-100.29 1314.5,-99.38"/>
</a>
</g>
</g>
<!-- Node8 -->
<g id="Node000008" class="node">
<title>Node8</title>
<g id="a_Node000008"><a xlink:title=" ">
<polygon fill="#e0e0e0" stroke="#999999" points="2205.5,-19 2135.5,-19 2135.5,0 2205.5,0 2205.5,-19"/>
<text text-anchor="middle" x="2170.5" y="-7" font-family="Helvetica,sans-Serif" font-size="10.00">Windows.h</text>
</a>
</g>
</g>
<!-- Node7&#45;&gt;Node8 -->
<g id="edge7_Node000007_Node000008" class="edge">
<title>Node7&#45;&gt;Node8</title>
<g id="a_edge7_Node000007_Node000008"><a xlink:title=" ">
<path fill="none" stroke="#63b8ff" d="M1368.05,-63.06C1499.36,-61.47 1835.12,-54.12 2124.74,-19.04"/>
<polygon fill="#63b8ff" stroke="#63b8ff" points="2125.52,-22.47 2135.02,-17.78 2124.67,-15.53 2125.52,-22.47"/>
</a>
</g>
</g>
<!-- Node9 -->
<g id="Node000009" class="node">
<title>Node9</title>
<g id="a_Node000009"><a xlink:title=" ">
<polygon fill="#e0e0e0" stroke="#999999" points="2265,-19 2224,-19 2224,0 2265,0 2265,-19"/>
<text text-anchor="middle" x="2244.5" y="-7" font-family="Helvetica,sans-Serif" font-size="10.00">wrl.h</text>
</a>
</g>
</g>
<!-- Node7&#45;&gt;Node9 -->
<g id="edge8_Node000007_Node000009" class="edge">
<title>Node7&#45;&gt;Node9</title>
<g id="a_edge8_Node000007_Node000009"><a xlink:title=" ">
<path fill="none" stroke="#63b8ff" d="M1368.11,-62.39C1536.22,-58.83 2031.57,-46.4 2213.98,-18.57"/>
<polygon fill="#63b8ff" stroke="#63b8ff" points="2214.66,-22.01 2223.98,-16.98 2213.56,-15.09 2214.66,-22.01"/>
</a>
</g>
</g>
<!-- Node10 -->
<g id="Node000010" class="node">
<title>Node10</title>
<g id="a_Node000010"><a xlink:title=" ">
<polygon fill="#e0e0e0" stroke="#999999" points="2354,-19 2283,-19 2283,0 2354,0 2354,-19"/>
<text text-anchor="middle" x="2318.5" y="-7" font-family="Helvetica,sans-Serif" font-size="10.00">wrl/client.h</text>
</a>
</g>
</g>
<!-- Node7&#45;&gt;Node10 -->
<g id="edge9_Node000007_Node000010" class="edge">
<title>Node7&#45;&gt;Node10</title>
<g id="a_edge9_Node000007_Node000010"><a xlink:title=" ">
<path fill="none" stroke="#63b8ff" d="M1368.18,-63.74C1515.78,-63.74 1924.27,-59.84 2272.52,-19.07"/>
<polygon fill="#63b8ff" stroke="#63b8ff" points="2273.03,-22.53 2282.55,-17.88 2272.21,-15.58 2273.03,-22.53"/>
</a>
</g>
</g>
<!-- Node11 -->
<g id="Node000011" class="node">
<title>Node11</title>
<g id="a_Node000011"><a xlink:title=" ">
<polygon fill="#e0e0e0" stroke="#999999" points="2422.5,-19 2372.5,-19 2372.5,0 2422.5,0 2422.5,-19"/>
<text text-anchor="middle" x="2397.5" y="-7" font-family="Helvetica,sans-Serif" font-size="10.00">cstdint</text>
</a>
</g>
</g>
<!-- Node7&#45;&gt;Node11 -->
<g id="edge10_Node000007_Node000011" class="edge">
<title>Node7&#45;&gt;Node11</title>
<g id="a_edge10_Node000007_Node000011"><a xlink:title=" ">
<path fill="none" stroke="#63b8ff" d="M1368.18,-62.62C1554.71,-59.48 2149.2,-47.55 2362.21,-18.81"/>
<polygon fill="#63b8ff" stroke="#63b8ff" points="2362.95,-22.24 2372.36,-17.39 2361.97,-15.31 2362.95,-22.24"/>
</a>
</g>
</g>
<!-- Node12 -->
<g id="Node000012" class="node">
<title>Node12</title>
<g id="a_Node000012"><a xlink:title=" ">
<polygon fill="#e0e0e0" stroke="#999999" points="2500.5,-19 2440.5,-19 2440.5,0 2500.5,0 2500.5,-19"/>
<text text-anchor="middle" x="2470.5" y="-7" font-family="Helvetica,sans-Serif" font-size="10.00">iostream</text>
</a>
</g>
</g>
<!-- Node7&#45;&gt;Node12 -->
<g id="edge11_Node000007_Node000012" class="edge">
<title>Node7&#45;&gt;Node12</title>
<g id="a_edge11_Node000007_Node000012"><a xlink:title=" ">
<path fill="none" stroke="#63b8ff" d="M1368.34,-62.56C1562.99,-59.12 2202.78,-46.11 2430.17,-18.88"/>
<polygon fill="#63b8ff" stroke="#63b8ff" points="2430.86,-22.32 2440.36,-17.61 2430,-15.37 2430.86,-22.32"/>
</a>
</g>
</g>
<!-- Node13 -->
<g id="Node000013" class="node">
<title>Node13</title>
<g id="a_Node000013"><a xlink:title=" ">
<polygon fill="#e0e0e0" stroke="#999999" points="2572,-19 2519,-19 2519,0 2572,0 2572,-19"/>
<text text-anchor="middle" x="2545.5" y="-7" font-family="Helvetica,sans-Serif" font-size="10.00">string.h</text>
</a>
</g>
</g>
<!-- Node7&#45;&gt;Node13 -->
<g id="edge12_Node000007_Node000013" class="edge">
<title>Node7&#45;&gt;Node13</title>
<g id="a_edge12_Node000007_Node000013"><a xlink:title=" ">
<path fill="none" stroke="#63b8ff" d="M1368.35,-62.86C1571.91,-60.32 2264.81,-49.71 2508.65,-18.74"/>
<polygon fill="#63b8ff" stroke="#63b8ff" points="2509.41,-22.17 2518.87,-17.4 2508.5,-15.23 2509.41,-22.17"/>
</a>
</g>
</g>
<!-- Node14 -->
<g id="Node000014" class="node">
<title>Node14</title>
<g id="a_Node000014"><a xlink:title=" ">
<polygon fill="#e0e0e0" stroke="#999999" points="2634.5,-19 2590.5,-19 2590.5,0 2634.5,0 2634.5,-19"/>
<text text-anchor="middle" x="2612.5" y="-7" font-family="Helvetica,sans-Serif" font-size="10.00">string</text>
</a>
</g>
</g>
<!-- Node7&#45;&gt;Node14 -->
<g id="edge13_Node000007_Node000014" class="edge">
<title>Node7&#45;&gt;Node14</title>
<g id="a_edge13_Node000007_Node000014"><a xlink:title=" ">
<path fill="none" stroke="#63b8ff" d="M1368.09,-63.26C1579.36,-62.12 2322.59,-55.61 2580.22,-18.75"/>
<polygon fill="#63b8ff" stroke="#63b8ff" points="2580.9,-22.19 2590.28,-17.26 2579.88,-15.26 2580.9,-22.19"/>
</a>
</g>
</g>
<!-- Node15 -->
<g id="Node000015" class="node">
<title>Node15</title>
<g id="a_Node000015"><a xlink:title=" ">
<polygon fill="#e0e0e0" stroke="#999999" points="2700,-19 2653,-19 2653,0 2700,0 2700,-19"/>
<text text-anchor="middle" x="2676.5" y="-7" font-family="Helvetica,sans-Serif" font-size="10.00">vector</text>
</a>
</g>
</g>
<!-- Node7&#45;&gt;Node15 -->
<g id="edge14_Node000007_Node000015" class="edge">
<title>Node7&#45;&gt;Node15</title>
<g id="a_edge14_Node000007_Node000015"><a xlink:title=" ">
<path fill="none" stroke="#63b8ff" d="M1368.17,-63.26C1586.13,-62.06 2371.29,-55.38 2642.62,-18.69"/>
<polygon fill="#63b8ff" stroke="#63b8ff" points="2643.41,-22.11 2652.83,-17.26 2642.44,-15.18 2643.41,-22.11"/>
</a>
</g>
</g>
<!-- Node16 -->
<g id="Node000016" class="node">
<title>Node16</title>
<g id="a_Node000016"><a xlink:title=" ">
<polygon fill="#e0e0e0" stroke="#999999" points="2765,-19 2718,-19 2718,0 2765,0 2765,-19"/>
<text text-anchor="middle" x="2741.5" y="-7" font-family="Helvetica,sans-Serif" font-size="10.00">deque</text>
</a>
</g>
</g>
<!-- Node7&#45;&gt;Node16 -->
<g id="edge15_Node000007_Node000016" class="edge">
<title>Node7&#45;&gt;Node16</title>
<g id="a_edge15_Node000007_Node000016"><a xlink:title=" ">
<path fill="none" stroke="#63b8ff" d="M1368.25,-63.42C1593.22,-62.82 2423.55,-58.06 2707.58,-18.89"/>
<polygon fill="#63b8ff" stroke="#63b8ff" points="2708.45,-22.3 2717.86,-17.42 2707.47,-15.37 2708.45,-22.3"/>
</a>
</g>
</g>
<!-- Node17 -->
<g id="Node000017" class="node">
<title>Node17</title>
<g id="a_Node000017"><a xlink:title=" ">
<polygon fill="#e0e0e0" stroke="#999999" points="345,-19 252,-19 252,0 345,0 345,-19"/>
<text text-anchor="middle" x="298.5" y="-7" font-family="Helvetica,sans-Serif" font-size="10.00">unordered_map</text>
</a>
</g>
</g>
<!-- Node7&#45;&gt;Node17 -->
<g id="edge16_Node000007_Node000017" class="edge">
<title>Node7&#45;&gt;Node17</title>
<g id="a_edge16_Node000007_Node000017"><a xlink:title=" ">
<path fill="none" stroke="#63b8ff" d="M1254.99,-62.92C1108.28,-60.99 703.08,-52.85 355.22,-18.95"/>
<polygon fill="#63b8ff" stroke="#63b8ff" points="355.5,-15.46 345.21,-17.96 354.81,-22.42 355.5,-15.46"/>
</a>
</g>
</g>
<!-- Node18 -->
<g id="Node000018" class="node">
<title>Node18</title>
<g id="a_Node000018"><a xlink:title=" ">
<polygon fill="#e0e0e0" stroke="#999999" points="401.5,-19 363.5,-19 363.5,0 401.5,0 401.5,-19"/>
<text text-anchor="middle" x="382.5" y="-7" font-family="Helvetica,sans-Serif" font-size="10.00">map</text>
</a>
</g>
</g>
<!-- Node7&#45;&gt;Node18 -->
<g id="edge17_Node000007_Node000018" class="edge">
<title>Node7&#45;&gt;Node18</title>
<g id="a_edge17_Node000007_Node000018"><a xlink:title=" ">
<path fill="none" stroke="#63b8ff" d="M1254.99,-62.52C1087.19,-59.33 592.78,-47.84 411.57,-18.66"/>
<polygon fill="#63b8ff" stroke="#63b8ff" points="412.07,-15.19 401.63,-16.98 410.91,-22.1 412.07,-15.19"/>
</a>
</g>
</g>
<!-- Node19 -->
<g id="Node000019" class="node">
<title>Node19</title>
<g id="a_Node000019"><a xlink:title=" ">
<polygon fill="#e0e0e0" stroke="#999999" points="477.5,-19 419.5,-19 419.5,0 477.5,0 477.5,-19"/>
<text text-anchor="middle" x="448.5" y="-7" font-family="Helvetica,sans-Serif" font-size="10.00">memory</text>
</a>
</g>
</g>
<!-- Node7&#45;&gt;Node19 -->
<g id="edge18_Node000007_Node000019" class="edge">
<title>Node7&#45;&gt;Node19</title>
<g id="a_edge18_Node000007_Node000019"><a xlink:title=" ">
<path fill="none" stroke="#63b8ff" d="M1254.93,-63.68C1122.33,-63.39 781.13,-58.65 487.85,-18.94"/>
<polygon fill="#63b8ff" stroke="#63b8ff" points="488.25,-15.47 477.87,-17.58 487.3,-22.4 488.25,-15.47"/>
</a>
</g>
</g>
<!-- Node20 -->
<g id="Node000020" class="node">
<title>Node20</title>
<g id="a_Node000020"><a xlink:title=" ">
<polygon fill="#e0e0e0" stroke="#999999" points="561,-19 496,-19 496,0 561,0 561,-19"/>
<text text-anchor="middle" x="528.5" y="-7" font-family="Helvetica,sans-Serif" font-size="10.00">functional</text>
</a>
</g>
</g>
<!-- Node7&#45;&gt;Node20 -->
<g id="edge20_Node000007_Node000020" class="edge">
<title>Node7&#45;&gt;Node20</title>
<g id="a_edge20_Node000007_Node000020"><a xlink:title=" ">
<path fill="none" stroke="#63b8ff" d="M1254.54,-62.79C1131.55,-60.66 831.9,-52.34 571.47,-18.92"/>
<polygon fill="#63b8ff" stroke="#63b8ff" points="571.81,-15.44 561.44,-17.62 570.91,-22.38 571.81,-15.44"/>
</a>
</g>
</g>
<!-- Node21 -->
<g id="Node000021" class="node">
<title>Node21</title>
<g id="a_Node000021"><a xlink:title=" ">
<polygon fill="#e0e0e0" stroke="#999999" points="629.5,-19 579.5,-19 579.5,0 629.5,0 629.5,-19"/>
<text text-anchor="middle" x="604.5" y="-7" font-family="Helvetica,sans-Serif" font-size="10.00">chrono</text>
</a>
</g>
</g>
<!-- Node7&#45;&gt;Node21 -->
<g id="edge21_Node000007_Node000021" class="edge">
<title>Node7&#45;&gt;Node21</title>
<g id="a_edge21_Node000007_Node000021"><a xlink:title=" ">
<path fill="none" stroke="#63b8ff" d="M1254.84,-63.16C1140.23,-61.75 872.67,-54.7 639.67,-18.88"/>
<polygon fill="#63b8ff" stroke="#63b8ff" points="640.07,-15.4 629.65,-17.32 638.99,-22.32 640.07,-15.4"/>
</a>
</g>
</g>
<!-- Node22 -->
<g id="Node000022" class="node">
<title>Node22</title>
<g id="a_Node000022"><a xlink:title=" ">
<polygon fill="#e0e0e0" stroke="#999999" points="693.5,-19 647.5,-19 647.5,0 693.5,0 693.5,-19"/>
<text text-anchor="middle" x="670.5" y="-7" font-family="Helvetica,sans-Serif" font-size="10.00">cstdio</text>
</a>
</g>
</g>
<!-- Node7&#45;&gt;Node22 -->
<g id="edge22_Node000007_Node000022" class="edge">
<title>Node7&#45;&gt;Node22</title>
<g id="a_edge22_Node000007_Node000022"><a xlink:title=" ">
<path fill="none" stroke="#63b8ff" d="M1254.83,-62.88C1148.38,-60.95 911.32,-53.03 703.67,-18.88"/>
<polygon fill="#63b8ff" stroke="#63b8ff" points="704.25,-15.42 693.81,-17.23 703.1,-22.33 704.25,-15.42"/>
</a>
</g>
</g>
<!-- Node23 -->
<g id="Node000023" class="node">
<title>Node23</title>
<g id="a_Node000023"><a xlink:title=" ">
<polygon fill="#e0e0e0" stroke="#999999" points="763.5,-19 711.5,-19 711.5,0 763.5,0 763.5,-19"/>
<text text-anchor="middle" x="737.5" y="-7" font-family="Helvetica,sans-Serif" font-size="10.00">cassert</text>
</a>
</g>
</g>
<!-- Node7&#45;&gt;Node23 -->
<g id="edge23_Node000007_Node000023" class="edge">
<title>Node7&#45;&gt;Node23</title>
<g id="a_edge23_Node000007_Node000023"><a xlink:title=" ">
<path fill="none" stroke="#63b8ff" d="M1254.89,-61.73C1158.1,-58.06 954.52,-47.6 773.74,-18.95"/>
<polygon fill="#63b8ff" stroke="#63b8ff" points="774.21,-15.48 763.78,-17.35 773.1,-22.39 774.21,-15.48"/>
</a>
</g>
</g>
<!-- Node24 -->
<g id="Node000024" class="node">
<title>Node24</title>
<g id="a_Node000024"><a xlink:title=" ">
<polygon fill="#e0e0e0" stroke="#999999" points="847,-19 782,-19 782,0 847,0 847,-19"/>
<text text-anchor="middle" x="814.5" y="-7" font-family="Helvetica,sans-Serif" font-size="10.00">typeindex</text>
</a>
</g>
</g>
<!-- Node7&#45;&gt;Node24 -->
<g id="edge24_Node000007_Node000024" class="edge">
<title>Node7&#45;&gt;Node24</title>
<g id="a_edge24_Node000007_Node000024"><a xlink:title=" ">
<path fill="none" stroke="#63b8ff" d="M1254.88,-59.83C1170.54,-53.95 1006.73,-40.96 857.28,-18.95"/>
<polygon fill="#63b8ff" stroke="#63b8ff" points="857.41,-15.43 847,-17.42 856.38,-22.35 857.41,-15.43"/>
</a>
</g>
</g>
<!-- Node25 -->
<g id="Node000025" class="node">
<title>Node25</title>
<g id="a_Node000025"><a xlink:title=" ">
<polygon fill="#e0e0e0" stroke="#999999" points="933.5,-19 865.5,-19 865.5,0 933.5,0 933.5,-19"/>
<text text-anchor="middle" x="899.5" y="-7" font-family="Helvetica,sans-Serif" font-size="10.00">filesystem</text>
</a>
</g>
</g>
<!-- Node7&#45;&gt;Node25 -->
<g id="edge25_Node000007_Node000025" class="edge">
<title>Node7&#45;&gt;Node25</title>
<g id="a_edge25_Node000007_Node000025"><a xlink:title=" ">
<path fill="none" stroke="#63b8ff" d="M1254.74,-57.99C1184.19,-50.85 1059.88,-37.29 943.85,-19.11"/>
<polygon fill="#63b8ff" stroke="#63b8ff" points="944.15,-15.61 933.73,-17.51 943.06,-22.53 944.15,-15.61"/>
</a>
</g>
</g>
<!-- Node26 -->
<g id="Node000026" class="node">
<title>Node26</title>
<g id="a_Node000026"><a xlink:title=" ">
<polygon fill="#e0e0e0" stroke="#999999" points="983.5,-19 951.5,-19 951.5,0 983.5,0 983.5,-19"/>
<text text-anchor="middle" x="967.5" y="-7" font-family="Helvetica,sans-Serif" font-size="10.00">set</text>
</a>
</g>
</g>
<!-- Node7&#45;&gt;Node26 -->
<g id="edge26_Node000007_Node000026" class="edge">
<title>Node7&#45;&gt;Node26</title>
<g id="a_edge26_Node000007_Node000026"><a xlink:title=" ">
<path fill="none" stroke="#63b8ff" d="M1254.72,-58.85C1192.59,-53.03 1090.04,-41.29 993.44,-18.8"/>
<polygon fill="#63b8ff" stroke="#63b8ff" points="994.05,-15.34 983.51,-16.44 992.43,-22.16 994.05,-15.34"/>
</a>
</g>
</g>
<!-- Node27 -->
<g id="Node000027" class="node">
<title>Node27</title>
<g id="a_Node000027"><a xlink:title=" ">
<polygon fill="#e0e0e0" stroke="#999999" points="1057,-19 1002,-19 1002,0 1057,0 1057,-19"/>
<text text-anchor="middle" x="1029.5" y="-7" font-family="Helvetica,sans-Serif" font-size="10.00">fstream</text>
</a>
</g>
</g>
<!-- Node7&#45;&gt;Node27 -->
<g id="edge27_Node000007_Node000027" class="edge">
<title>Node7&#45;&gt;Node27</title>
<g id="a_edge27_Node000007_Node000027"><a xlink:title=" ">
<path fill="none" stroke="#63b8ff" d="M1260.69,-54.98C1213.18,-46.85 1140.03,-33.92 1067.16,-19.06"/>
<polygon fill="#63b8ff" stroke="#63b8ff" points="1067.85,-15.63 1057.35,-17.04 1066.44,-22.48 1067.85,-15.63"/>
</a>
</g>
</g>
<!-- Node28 -->
<g id="Node000028" class="node">
<title>Node28</title>
<g id="a_Node000028"><a xlink:title=" ">
<polygon fill="#e0e0e0" stroke="#999999" points="1131.5,-19 1075.5,-19 1075.5,0 1131.5,0 1131.5,-19"/>
<text text-anchor="middle" x="1103.5" y="-7" font-family="Helvetica,sans-Serif" font-size="10.00">sstream</text>
</a>
</g>
</g>
<!-- Node7&#45;&gt;Node28 -->
<g id="edge28_Node000007_Node000028" class="edge">
<title>Node7&#45;&gt;Node28</title>
<g id="a_edge28_Node000007_Node000028"><a xlink:title=" ">
<path fill="none" stroke="#63b8ff" d="M1278.08,-54.98C1240.76,-45.48 1180.49,-30.12 1141.43,-20.17"/>
<polygon fill="#63b8ff" stroke="#63b8ff" points="1142.06,-16.71 1131.5,-17.63 1140.33,-23.5 1142.06,-16.71"/>
</a>
</g>
</g>
<!-- Node29 -->
<g id="Node000029" class="node">
<title>Node29</title>
<g id="a_Node000029"><a xlink:title=" ">
<polygon fill="#e0e0e0" stroke="#999999" points="1197.5,-19 1149.5,-19 1149.5,0 1197.5,0 1197.5,-19"/>
<text text-anchor="middle" x="1173.5" y="-7" font-family="Helvetica,sans-Serif" font-size="10.00">mutex</text>
</a>
</g>
</g>
<!-- Node7&#45;&gt;Node29 -->
<g id="edge29_Node000007_Node000029" class="edge">
<title>Node7&#45;&gt;Node29</title>
<g id="a_edge29_Node000007_Node000029"><a xlink:title=" ">
<path fill="none" stroke="#63b8ff" d="M1289.33,-54.98C1266.73,-46.3 1231.44,-32.75 1205.75,-22.88"/>
<polygon fill="#63b8ff" stroke="#63b8ff" points="1206.67,-19.49 1196.08,-19.17 1204.16,-26.02 1206.67,-19.49"/>
</a>
</g>
</g>
<!-- Node30 -->
<g id="Node000030" class="node">
<title>Node30</title>
<g id="a_Node000030"><a xlink:title=" ">
<polygon fill="#e0e0e0" stroke="#999999" points="1269.5,-19 1215.5,-19 1215.5,0 1269.5,0 1269.5,-19"/>
<text text-anchor="middle" x="1242.5" y="-7" font-family="Helvetica,sans-Serif" font-size="10.00">random</text>
</a>
</g>
</g>
<!-- Node7&#45;&gt;Node30 -->
<g id="edge30_Node000007_Node000030" class="edge">
<title>Node7&#45;&gt;Node30</title>
<g id="a_edge30_Node000007_Node000030"><a xlink:title=" ">
<path fill="none" stroke="#63b8ff" d="M1300.41,-54.98C1290.01,-47 1274.24,-34.88 1261.78,-25.31"/>
<polygon fill="#63b8ff" stroke="#63b8ff" points="1263.85,-22.49 1253.79,-19.17 1259.59,-28.04 1263.85,-22.49"/>
</a>
</g>
</g>
<!-- Node31 -->
<g id="Node000031" class="node">
<title>Node31</title>
<g id="a_Node000031"><a xlink:title=" ">
<polygon fill="#e0e0e0" stroke="#999999" points="1335.5,-19 1287.5,-19 1287.5,0 1335.5,0 1335.5,-19"/>
<text text-anchor="middle" x="1311.5" y="-7" font-family="Helvetica,sans-Serif" font-size="10.00">thread</text>
</a>
</g>
</g>
<!-- Node7&#45;&gt;Node31 -->
<g id="edge31_Node000007_Node000031" class="edge">
<title>Node7&#45;&gt;Node31</title>
<g id="a_edge31_Node000007_Node000031"><a xlink:title=" ">
<path fill="none" stroke="#63b8ff" d="M1311.5,-54.75C1311.5,-47.8 1311.5,-37.85 1311.5,-29.13"/>
<polygon fill="#63b8ff" stroke="#63b8ff" points="1315,-29.09 1311.5,-19.09 1308,-29.09 1315,-29.09"/>
</a>
</g>
</g>
<!-- Node32 -->
<g id="Node000032" class="node">
<title>Node32</title>
<g id="a_Node000032"><a xlink:title=" ">
<polygon fill="#e0e0e0" stroke="#999999" points="1403.5,-19 1353.5,-19 1353.5,0 1403.5,0 1403.5,-19"/>
<text text-anchor="middle" x="1378.5" y="-7" font-family="Helvetica,sans-Serif" font-size="10.00">atomic</text>
</a>
</g>
</g>
<!-- Node7&#45;&gt;Node32 -->
<g id="edge32_Node000007_Node000032" class="edge">
<title>Node7&#45;&gt;Node32</title>
<g id="a_edge32_Node000007_Node000032"><a xlink:title=" ">
<path fill="none" stroke="#63b8ff" d="M1322.26,-54.98C1332.27,-47.07 1347.39,-35.11 1359.43,-25.58"/>
<polygon fill="#63b8ff" stroke="#63b8ff" points="1361.87,-28.12 1367.54,-19.17 1357.53,-22.63 1361.87,-28.12"/>
</a>
</g>
</g>
<!-- Node33 -->
<g id="Node000033" class="node">
<title>Node33</title>
<g id="a_Node000033"><a xlink:title=" ">
<polygon fill="#e0e0e0" stroke="#999999" points="1471,-19 1422,-19 1422,0 1471,0 1471,-19"/>
<text text-anchor="middle" x="1446.5" y="-7" font-family="Helvetica,sans-Serif" font-size="10.00">cctype</text>
</a>
</g>
</g>
<!-- Node7&#45;&gt;Node33 -->
<g id="edge33_Node000007_Node000033" class="edge">
<title>Node7&#45;&gt;Node33</title>
<g id="a_edge33_Node000007_Node000033"><a xlink:title=" ">
<path fill="none" stroke="#63b8ff" d="M1333.19,-54.98C1355.3,-46.3 1389.82,-32.75 1414.95,-22.88"/>
<polygon fill="#63b8ff" stroke="#63b8ff" points="1416.39,-26.08 1424.42,-19.17 1413.83,-19.57 1416.39,-26.08"/>
</a>
</g>
</g>
<!-- Node34 -->
<g id="Node000034" class="node">
<title>Node34</title>
<g id="a_Node000034"><a xlink:title=" ">
<polygon fill="#e0e0e0" stroke="#999999" points="1545.5,-19 1489.5,-19 1489.5,0 1545.5,0 1545.5,-19"/>
<text text-anchor="middle" x="1517.5" y="-7" font-family="Helvetica,sans-Serif" font-size="10.00">d3d12.h</text>
</a>
</g>
</g>
<!-- Node7&#45;&gt;Node34 -->
<g id="edge34_Node000007_Node000034" class="edge">
<title>Node7&#45;&gt;Node34</title>
<g id="a_edge34_Node000007_Node000034"><a xlink:title=" ">
<path fill="none" stroke="#63b8ff" d="M1344.6,-54.98C1381.45,-45.5 1440.91,-30.2 1479.6,-20.25"/>
<polygon fill="#63b8ff" stroke="#63b8ff" points="1480.64,-23.6 1489.45,-17.72 1478.89,-16.82 1480.64,-23.6"/>
</a>
</g>
</g>
<!-- Node35 -->
<g id="Node000035" class="node">
<title>Node35</title>
<g id="a_Node000035"><a xlink:title=" ">
<polygon fill="#e0e0e0" stroke="#999999" points="1627.5,-19 1563.5,-19 1563.5,0 1627.5,0 1627.5,-19"/>
<text text-anchor="middle" x="1595.5" y="-7" font-family="Helvetica,sans-Serif" font-size="10.00">dxgi1_6.h</text>
</a>
</g>
</g>
<!-- Node7&#45;&gt;Node35 -->
<g id="edge35_Node000007_Node000035" class="edge">
<title>Node7&#45;&gt;Node35</title>
<g id="a_edge35_Node000007_Node000035"><a xlink:title=" ">
<path fill="none" stroke="#63b8ff" d="M1359.97,-54.97C1406.96,-46.62 1480.49,-33.35 1553.46,-19.17"/>
<polygon fill="#63b8ff" stroke="#63b8ff" points="1554.14,-22.6 1563.29,-17.25 1552.8,-15.73 1554.14,-22.6"/>
</a>
</g>
</g>
<!-- Node36 -->
<g id="Node000036" class="node">
<title>Node36</title>
<g id="a_Node000036"><a xlink:title=" ">
<polygon fill="#e0e0e0" stroke="#999999" points="1731.5,-19 1645.5,-19 1645.5,0 1731.5,0 1731.5,-19"/>
<text text-anchor="middle" x="1688.5" y="-7" font-family="Helvetica,sans-Serif" font-size="10.00">d3dcompiler.h</text>
</a>
</g>
</g>
<!-- Node7&#45;&gt;Node36 -->
<g id="edge36_Node000007_Node000036" class="edge">
<title>Node7&#45;&gt;Node36</title>
<g id="a_edge36_Node000007_Node000036"><a xlink:title=" ">
<path fill="none" stroke="#63b8ff" d="M1368.22,-56.19C1431.04,-47.99 1535.58,-34.04 1635.43,-19.13"/>
<polygon fill="#63b8ff" stroke="#63b8ff" points="1636.01,-22.58 1645.38,-17.64 1634.97,-15.66 1636.01,-22.58"/>
</a>
</g>
</g>
<!-- Node37 -->
<g id="Node000037" class="node">
<title>Node37</title>
<g id="a_Node000037"><a xlink:title=" ">
<polygon fill="#e0e0e0" stroke="#999999" points="1867,-19 1750,-19 1750,0 1867,0 1867,-19"/>
<text text-anchor="middle" x="1808.5" y="-7" font-family="Helvetica,sans-Serif" font-size="10.00">assimp/Importer.hpp</text>
</a>
</g>
</g>
<!-- Node7&#45;&gt;Node37 -->
<g id="edge38_Node000007_Node000037" class="edge">
<title>Node7&#45;&gt;Node37</title>
<g id="a_edge38_Node000007_Node000037"><a xlink:title=" ">
<path fill="none" stroke="#63b8ff" d="M1368.1,-58.01C1448.29,-50.15 1599.83,-34.98 1739.84,-19.05"/>
<polygon fill="#63b8ff" stroke="#63b8ff" points="1740.37,-22.52 1749.9,-17.9 1739.57,-15.56 1740.37,-22.52"/>
</a>
</g>
</g>
<!-- Node38 -->
<g id="Node000038" class="node">
<title>Node38</title>
<g id="a_Node000038"><a xlink:title=" ">
<polygon fill="#e0e0e0" stroke="#999999" points="1977.5,-19 1885.5,-19 1885.5,0 1977.5,0 1977.5,-19"/>
<text text-anchor="middle" x="1931.5" y="-7" font-family="Helvetica,sans-Serif" font-size="10.00">assimp/scene.h</text>
</a>
</g>
</g>
<!-- Node7&#45;&gt;Node38 -->
<g id="edge39_Node000007_Node000038" class="edge">
<title>Node7&#45;&gt;Node38</title>
<g id="a_edge39_Node000007_Node000038"><a xlink:title=" ">
<path fill="none" stroke="#63b8ff" d="M1368.17,-60.44C1468.37,-54.73 1683.53,-41.08 1875.34,-19.05"/>
<polygon fill="#63b8ff" stroke="#63b8ff" points="1875.79,-22.52 1885.32,-17.89 1874.98,-15.57 1875.79,-22.52"/>
</a>
</g>
</g>
<!-- Node39 -->
<g id="Node000039" class="node">
<title>Node39</title>
<g id="a_Node000039"><a xlink:title=" ">
<polygon fill="#e0e0e0" stroke="#999999" points="2117.5,-19 1995.5,-19 1995.5,0 2117.5,0 2117.5,-19"/>
<text text-anchor="middle" x="2056.5" y="-7" font-family="Helvetica,sans-Serif" font-size="10.00">assimp/postprocess.h</text>
</a>
</g>
</g>
<!-- Node7&#45;&gt;Node39 -->
<g id="edge40_Node000007_Node000039" class="edge">
<title>Node7&#45;&gt;Node39</title>
<g id="a_edge40_Node000007_Node000039"><a xlink:title=" ">
<path fill="none" stroke="#63b8ff" d="M1368.03,-60.83C1482.45,-55.18 1749.89,-40.84 1985.31,-19.06"/>
<polygon fill="#63b8ff" stroke="#63b8ff" points="1985.81,-22.53 1995.44,-18.12 1985.16,-15.56 1985.81,-22.53"/>
</a>
</g>
</g>
</g>
</svg>
