<?xml version="1.0" encoding="UTF-8" standalone="no"?>
<!DOCTYPE svg PUBLIC "-//W3C//DTD SVG 1.1//EN"
 "http://www.w3.org/Graphics/SVG/1.1/DTD/svg11.dtd">
<!-- Generated by graphviz version 2.43.0 (0)
 -->
<!-- Title: Engine/Source/Core/Input/Input.h Pages: 1 -->
<svg width="1429pt" height="247pt"
 viewBox="0.00 0.00 1428.50 247.00" xmlns="http://www.w3.org/2000/svg" xmlns:xlink="http://www.w3.org/1999/xlink">
<g id="graph0" class="graph" transform="scale(1 1) rotate(0) translate(4 243)">
<title>Engine/Source/Core/Input/Input.h</title>
<!-- Node1 -->
<g id="Node000001" class="node">
<title>Node1</title>
<g id="a_Node000001"><a xlink:title="入力管理システム (キーボード、マウス、ゲームパッド)。">
<polygon fill="#999999" stroke="#666666" points="588,-239 477,-239 477,-209 588,-209 588,-239"/>
<text text-anchor="start" x="485" y="-227" font-family="Helvetica,sans-Serif" font-size="10.00">Engine/Source/Core</text>
<text text-anchor="middle" x="532.5" y="-216" font-family="Helvetica,sans-Serif" font-size="10.00">/Input/Input.h</text>
</a>
</g>
</g>
<!-- Node2 -->
<g id="Node000002" class="node">
<title>Node2</title>
<g id="a_Node000002"><a xlink:href="Input_8cpp.html" target="_top" xlink:title=" ">
<polygon fill="white" stroke="#666666" points="363,-167.5 252,-167.5 252,-137.5 363,-137.5 363,-167.5"/>
<text text-anchor="start" x="260" y="-155.5" font-family="Helvetica,sans-Serif" font-size="10.00">Engine/Source/Core</text>
<text text-anchor="middle" x="307.5" y="-144.5" font-family="Helvetica,sans-Serif" font-size="10.00">/Input/Input.cpp</text>
</a>
</g>
</g>
<!-- Node1&#45;&gt;Node2 -->
<g id="edge1_Node000001_Node000002" class="edge">
<title>Node1&#45;&gt;Node2</title>
<g id="a_edge1_Node000001_Node000002"><a xlink:title=" ">
<path fill="none" stroke="#63b8ff" d="M477.04,-205.87C438.87,-194.08 388.78,-178.61 352.96,-167.54"/>
<polygon fill="#63b8ff" stroke="#63b8ff" points="476.38,-209.33 486.97,-208.94 478.45,-202.64 476.38,-209.33"/>
</a>
</g>
</g>
<!-- Node3 -->
<g id="Node000003" class="node">
<title>Node3</title>
<g id="a_Node000003"><a xlink:href="Window_8cpp.html" target="_top" xlink:title=" ">
<polygon fill="white" stroke="#666666" points="511.5,-167.5 381.5,-167.5 381.5,-137.5 511.5,-137.5 511.5,-167.5"/>
<text text-anchor="start" x="389.5" y="-155.5" font-family="Helvetica,sans-Serif" font-size="10.00">Engine/Source/Runtime</text>
<text text-anchor="middle" x="446.5" y="-144.5" font-family="Helvetica,sans-Serif" font-size="10.00">/Platform/Window.cpp</text>
</a>
</g>
</g>
<!-- Node1&#45;&gt;Node3 -->
<g id="edge2_Node000001_Node000003" class="edge">
<title>Node1&#45;&gt;Node3</title>
<g id="a_edge2_Node000001_Node000003"><a xlink:title=" ">
<path fill="none" stroke="#63b8ff" d="M507.29,-202.63C493.33,-191.35 476.34,-177.62 463.88,-167.54"/>
<polygon fill="#63b8ff" stroke="#63b8ff" points="505.12,-205.37 515.1,-208.94 509.52,-199.93 505.12,-205.37"/>
</a>
</g>
</g>
<!-- Node4 -->
<g id="Node000004" class="node">
<title>Node4</title>
<g id="a_Node000004"><a xlink:href="EditorCameraSystem_8h.html" target="_top" xlink:title="エディタ用フリーカメラの操作システム">
<polygon fill="white" stroke="#666666" points="707,-173 530,-173 530,-132 707,-132 707,-173"/>
<text text-anchor="start" x="538" y="-161" font-family="Helvetica,sans-Serif" font-size="10.00">Engine/Source/Runtime</text>
<text text-anchor="start" x="538" y="-150" font-family="Helvetica,sans-Serif" font-size="10.00">/Systems/Graphics/EditorCamera</text>
<text text-anchor="middle" x="618.5" y="-139" font-family="Helvetica,sans-Serif" font-size="10.00">System.h</text>
</a>
</g>
</g>
<!-- Node1&#45;&gt;Node4 -->
<g id="edge3_Node000001_Node000004" class="edge">
<title>Node1&#45;&gt;Node4</title>
<g id="a_edge3_Node000001_Node000004"><a xlink:title=" ">
<path fill="none" stroke="#63b8ff" d="M557.86,-202.5C569.37,-193.21 582.91,-182.26 594.28,-173.07"/>
<polygon fill="#63b8ff" stroke="#63b8ff" points="555.48,-199.93 549.9,-208.94 559.88,-205.37 555.48,-199.93"/>
</a>
</g>
</g>
<!-- Node5 -->
<g id="Node000005" class="node">
<title>Node5</title>
<g id="a_Node000005"><a xlink:href="SpanEngine_8h.html" target="_top" xlink:title=" ">
<polygon fill="white" stroke="#666666" points="754,-96 599,-96 599,-77 754,-77 754,-96"/>
<text text-anchor="middle" x="676.5" y="-84" font-family="Helvetica,sans-Serif" font-size="10.00">Engine/Source/SpanEngine.h</text>
</a>
</g>
</g>
<!-- Node1&#45;&gt;Node5 -->
<g id="edge14_Node000001_Node000005" class="edge">
<title>Node1&#45;&gt;Node5</title>
<g id="a_edge14_Node000001_Node000005"><a xlink:title=" ">
<path fill="none" stroke="#63b8ff" d="M598.18,-213.68C644.93,-205.55 701.94,-192.05 716.5,-173 727.57,-158.52 723.02,-149.01 716.5,-132 710.85,-117.26 697.81,-104.33 688.14,-96.27"/>
<polygon fill="#63b8ff" stroke="#63b8ff" points="597.36,-210.27 588.08,-215.39 598.52,-217.17 597.36,-210.27"/>
</a>
</g>
</g>
<!-- Node4&#45;&gt;Node5 -->
<g id="edge4_Node000004_Node000005" class="edge">
<title>Node4&#45;&gt;Node5</title>
<g id="a_edge4_Node000004_Node000005"><a xlink:title=" ">
<path fill="none" stroke="#63b8ff" d="M643.04,-124.42C652.19,-114.32 661.96,-103.55 668.56,-96.26"/>
<polygon fill="#63b8ff" stroke="#63b8ff" points="640.34,-122.19 636.22,-131.95 645.53,-126.89 640.34,-122.19"/>
</a>
</g>
</g>
<!-- Node6 -->
<g id="Node000006" class="node">
<title>Node6</title>
<g id="a_Node000006"><a xlink:href="GuiManager_8cpp.html" target="_top" xlink:title=" ">
<polygon fill="white" stroke="#666666" points="117,-35.5 0,-35.5 0,-5.5 117,-5.5 117,-35.5"/>
<text text-anchor="start" x="8" y="-23.5" font-family="Helvetica,sans-Serif" font-size="10.00">Engine/Source/Editor</text>
<text text-anchor="middle" x="58.5" y="-12.5" font-family="Helvetica,sans-Serif" font-size="10.00">/GuiManager.cpp</text>
</a>
</g>
</g>
<!-- Node5&#45;&gt;Node6 -->
<g id="edge5_Node000005_Node000006" class="edge">
<title>Node5&#45;&gt;Node6</title>
<g id="a_edge5_Node000005_Node000006"><a xlink:title=" ">
<path fill="none" stroke="#63b8ff" d="M588.42,-83.87C479.04,-80.6 287.12,-70.73 125.5,-41 117.87,-39.6 109.87,-37.68 102.16,-35.59"/>
<polygon fill="#63b8ff" stroke="#63b8ff" points="588.65,-87.38 598.74,-84.17 588.85,-80.38 588.65,-87.38"/>
</a>
</g>
</g>
<!-- Node7 -->
<g id="Node000007" class="node">
<title>Node7</title>
<g id="a_Node000007"><a xlink:href="ImGuiUI_8cpp.html" target="_top" xlink:title=" ">
<polygon fill="white" stroke="#666666" points="252,-35.5 135,-35.5 135,-5.5 252,-5.5 252,-35.5"/>
<text text-anchor="start" x="143" y="-23.5" font-family="Helvetica,sans-Serif" font-size="10.00">Engine/Source/Editor</text>
<text text-anchor="middle" x="193.5" y="-12.5" font-family="Helvetica,sans-Serif" font-size="10.00">/ImGui/ImGuiUI.cpp</text>
</a>
</g>
</g>
<!-- Node5&#45;&gt;Node7 -->
<g id="edge6_Node000005_Node000007" class="edge">
<title>Node5&#45;&gt;Node7</title>
<g id="a_edge6_Node000005_Node000007"><a xlink:title=" ">
<path fill="none" stroke="#63b8ff" d="M588.59,-80.49C504.13,-74.63 373.23,-62.84 261.5,-41 253.91,-39.52 245.93,-37.58 238.22,-35.51"/>
<polygon fill="#63b8ff" stroke="#63b8ff" points="588.44,-83.98 598.65,-81.17 588.91,-77 588.44,-83.98"/>
</a>
</g>
</g>
<!-- Node8 -->
<g id="Node000008" class="node">
<title>Node8</title>
<g id="a_Node000008"><a xlink:href="HierarchyPanel_8cpp.html" target="_top" xlink:title=" ">
<polygon fill="white" stroke="#666666" points="422.5,-41 270.5,-41 270.5,0 422.5,0 422.5,-41"/>
<text text-anchor="start" x="278.5" y="-29" font-family="Helvetica,sans-Serif" font-size="10.00">Engine/Source/Editor</text>
<text text-anchor="start" x="278.5" y="-18" font-family="Helvetica,sans-Serif" font-size="10.00">/Panels/Hierarchy/Hierarchy</text>
<text text-anchor="middle" x="346.5" y="-7" font-family="Helvetica,sans-Serif" font-size="10.00">Panel.cpp</text>
</a>
</g>
</g>
<!-- Node5&#45;&gt;Node8 -->
<g id="edge7_Node000005_Node000008" class="edge">
<title>Node5&#45;&gt;Node8</title>
<g id="a_edge7_Node000005_Node000008"><a xlink:title=" ">
<path fill="none" stroke="#63b8ff" d="M616.01,-75.21C566.55,-66.61 494.86,-53.75 432.5,-41 429.35,-40.36 426.14,-39.69 422.9,-39"/>
<polygon fill="#63b8ff" stroke="#63b8ff" points="615.46,-78.66 625.91,-76.92 616.65,-71.77 615.46,-78.66"/>
</a>
</g>
</g>
<!-- Node9 -->
<g id="Node000009" class="node">
<title>Node9</title>
<g id="a_Node000009"><a xlink:href="InspectorPanel_8cpp.html" target="_top" xlink:title=" ">
<polygon fill="white" stroke="#666666" points="588,-41 441,-41 441,0 588,0 588,-41"/>
<text text-anchor="start" x="449" y="-29" font-family="Helvetica,sans-Serif" font-size="10.00">Engine/Source/Editor</text>
<text text-anchor="start" x="449" y="-18" font-family="Helvetica,sans-Serif" font-size="10.00">/Panels/Inspector/Inspector</text>
<text text-anchor="middle" x="514.5" y="-7" font-family="Helvetica,sans-Serif" font-size="10.00">Panel.cpp</text>
</a>
</g>
</g>
<!-- Node5&#45;&gt;Node9 -->
<g id="edge8_Node000005_Node000009" class="edge">
<title>Node5&#45;&gt;Node9</title>
<g id="a_edge8_Node000005_Node000009"><a xlink:title=" ">
<path fill="none" stroke="#63b8ff" d="M645.35,-73.19C622.29,-64.08 590.4,-51.49 563.88,-41.01"/>
<polygon fill="#63b8ff" stroke="#63b8ff" points="644.07,-76.45 654.65,-76.87 646.64,-69.94 644.07,-76.45"/>
</a>
</g>
</g>
<!-- Node10 -->
<g id="Node000010" class="node">
<title>Node10</title>
<g id="a_Node000010"><a xlink:href="ProjectBrowserPanel_8cpp.html" target="_top" xlink:title="ProjectBrowserPanelの実装。">
<polygon fill="white" stroke="#666666" points="746.5,-41 606.5,-41 606.5,0 746.5,0 746.5,-41"/>
<text text-anchor="start" x="614.5" y="-29" font-family="Helvetica,sans-Serif" font-size="10.00">Engine/Source/Editor</text>
<text text-anchor="start" x="614.5" y="-18" font-family="Helvetica,sans-Serif" font-size="10.00">/Panels/ProjectBrowser</text>
<text text-anchor="middle" x="676.5" y="-7" font-family="Helvetica,sans-Serif" font-size="10.00">/ProjectBrowserPanel.cpp</text>
</a>
</g>
</g>
<!-- Node5&#45;&gt;Node10 -->
<g id="edge9_Node000005_Node000010" class="edge">
<title>Node5&#45;&gt;Node10</title>
<g id="a_edge9_Node000005_Node000010"><a xlink:title=" ">
<path fill="none" stroke="#63b8ff" d="M676.5,-66.63C676.5,-58.56 676.5,-49.15 676.5,-41.01"/>
<polygon fill="#63b8ff" stroke="#63b8ff" points="673,-66.87 676.5,-76.87 680,-66.87 673,-66.87"/>
</a>
</g>
</g>
<!-- Node11 -->
<g id="Node000011" class="node">
<title>Node11</title>
<g id="a_Node000011"><a xlink:href="SceneViewPanel_8cpp.html" target="_top" xlink:title=" ">
<polygon fill="white" stroke="#666666" points="928.5,-41 764.5,-41 764.5,0 928.5,0 928.5,-41"/>
<text text-anchor="start" x="772.5" y="-29" font-family="Helvetica,sans-Serif" font-size="10.00">Engine/Source/Editor</text>
<text text-anchor="start" x="772.5" y="-18" font-family="Helvetica,sans-Serif" font-size="10.00">/Panels/SceneView/SceneView</text>
<text text-anchor="middle" x="846.5" y="-7" font-family="Helvetica,sans-Serif" font-size="10.00">Panel.cpp</text>
</a>
</g>
</g>
<!-- Node5&#45;&gt;Node11 -->
<g id="edge10_Node000005_Node000011" class="edge">
<title>Node5&#45;&gt;Node11</title>
<g id="a_edge10_Node000005_Node000011"><a xlink:title=" ">
<path fill="none" stroke="#63b8ff" d="M708.87,-73.32C733.09,-64.19 766.72,-51.53 794.68,-41.01"/>
<polygon fill="#63b8ff" stroke="#63b8ff" points="707.55,-70.07 699.43,-76.87 710.02,-76.62 707.55,-70.07"/>
</a>
</g>
</g>
<!-- Node12 -->
<g id="Node000012" class="node">
<title>Node12</title>
<g id="a_Node000012"><a xlink:href="EditorFileSystem_8cpp.html" target="_top" xlink:title="EditorFileSystemの実装。">
<polygon fill="white" stroke="#666666" points="1094.5,-35.5 946.5,-35.5 946.5,-5.5 1094.5,-5.5 1094.5,-35.5"/>
<text text-anchor="start" x="954.5" y="-23.5" font-family="Helvetica,sans-Serif" font-size="10.00">Engine/Source/Editor</text>
<text text-anchor="middle" x="1020.5" y="-12.5" font-family="Helvetica,sans-Serif" font-size="10.00">/Utils/EditorFileSystem.cpp</text>
</a>
</g>
</g>
<!-- Node5&#45;&gt;Node12 -->
<g id="edge11_Node000005_Node000012" class="edge">
<title>Node5&#45;&gt;Node12</title>
<g id="a_edge11_Node000005_Node000012"><a xlink:title=" ">
<path fill="none" stroke="#63b8ff" d="M742.37,-75.43C795.26,-67.06 871.37,-54.39 937.5,-41 945.62,-39.35 954.17,-37.5 962.55,-35.6"/>
<polygon fill="#63b8ff" stroke="#63b8ff" points="741.77,-71.98 732.44,-76.99 742.86,-78.89 741.77,-71.98"/>
</a>
</g>
</g>
<!-- Node13 -->
<g id="Node000013" class="node">
<title>Node13</title>
<g id="a_Node000013"><a xlink:href="Application_8cpp.html" target="_top" xlink:title=" ">
<polygon fill="white" stroke="#666666" points="1242.5,-35.5 1112.5,-35.5 1112.5,-5.5 1242.5,-5.5 1242.5,-35.5"/>
<text text-anchor="start" x="1120.5" y="-23.5" font-family="Helvetica,sans-Serif" font-size="10.00">Engine/Source/Runtime</text>
<text text-anchor="middle" x="1177.5" y="-12.5" font-family="Helvetica,sans-Serif" font-size="10.00">/Application.cpp</text>
</a>
</g>
</g>
<!-- Node5&#45;&gt;Node13 -->
<g id="edge12_Node000005_Node000013" class="edge">
<title>Node5&#45;&gt;Node13</title>
<g id="a_edge12_Node000005_Node000013"><a xlink:title=" ">
<path fill="none" stroke="#63b8ff" d="M764.21,-80.32C850.93,-74.27 987.13,-62.27 1103.5,-41 1111.6,-39.52 1120.12,-37.61 1128.38,-35.57"/>
<polygon fill="#63b8ff" stroke="#63b8ff" points="763.88,-76.83 754.15,-81.01 764.36,-83.82 763.88,-76.83"/>
</a>
</g>
</g>
<!-- Node14 -->
<g id="Node000014" class="node">
<title>Node14</title>
<g id="a_Node000014"><a xlink:href="AssetSerializer_8cpp.html" target="_top" xlink:title="AssetSerializerの実装。">
<polygon fill="white" stroke="#666666" points="1420.5,-35.5 1260.5,-35.5 1260.5,-5.5 1420.5,-5.5 1420.5,-35.5"/>
<text text-anchor="start" x="1268.5" y="-23.5" font-family="Helvetica,sans-Serif" font-size="10.00">Engine/Source/Runtime</text>
<text text-anchor="middle" x="1340.5" y="-12.5" font-family="Helvetica,sans-Serif" font-size="10.00">/Resource/AssetSerializer.cpp</text>
</a>
</g>
</g>
<!-- Node5&#45;&gt;Node14 -->
<g id="edge13_Node000005_Node000014" class="edge">
<title>Node5&#45;&gt;Node14</title>
<g id="a_edge13_Node000005_Node000014"><a xlink:title=" ">
<path fill="none" stroke="#63b8ff" d="M764.07,-82.49C877.16,-77.75 1079.87,-66.32 1251.5,-41 1261.36,-39.55 1271.75,-37.63 1281.83,-35.56"/>
<polygon fill="#63b8ff" stroke="#63b8ff" points="763.92,-79 754.07,-82.91 764.21,-85.99 763.92,-79"/>
</a>
</g>
</g>
</g>
</svg>
