<?xml version="1.0" encoding="UTF-8" standalone="no"?>
<!DOCTYPE svg PUBLIC "-//W3C//DTD SVG 1.1//EN"
 "http://www.w3.org/Graphics/SVG/1.1/DTD/svg11.dtd">
<!-- Generated by graphviz version 2.43.0 (0)
 -->
<!-- Title: Engine/Source/Core/Input/Input.h Pages: 1 -->
<svg width="928pt" height="115pt"
 viewBox="0.00 0.00 928.00 115.00" xmlns="http://www.w3.org/2000/svg" xmlns:xlink="http://www.w3.org/1999/xlink">
<g id="graph0" class="graph" transform="scale(1 1) rotate(0) translate(4 111)">
<title>Engine/Source/Core/Input/Input.h</title>
<!-- Node1 -->
<g id="Node000001" class="node">
<title>Node1</title>
<g id="a_Node000001"><a xlink:title=" ">
<polygon fill="#999999" stroke="#666666" points="484,-107 373,-107 373,-77 484,-77 484,-107"/>
<text text-anchor="start" x="381" y="-95" font-family="Helvetica,sans-Serif" font-size="10.00">Engine/Source/Core</text>
<text text-anchor="middle" x="428.5" y="-84" font-family="Helvetica,sans-Serif" font-size="10.00">/Input/Input.h</text>
</a>
</g>
</g>
<!-- Node2 -->
<g id="Node000002" class="node">
<title>Node2</title>
<g id="a_Node000002"><a xlink:href="Input_8cpp.html" target="_top" xlink:title=" ">
<polygon fill="white" stroke="#666666" points="111,-35.5 0,-35.5 0,-5.5 111,-5.5 111,-35.5"/>
<text text-anchor="start" x="8" y="-23.5" font-family="Helvetica,sans-Serif" font-size="10.00">Engine/Source/Core</text>
<text text-anchor="middle" x="55.5" y="-12.5" font-family="Helvetica,sans-Serif" font-size="10.00">/Input/Input.cpp</text>
</a>
</g>
</g>
<!-- Node1&#45;&gt;Node2 -->
<g id="edge1_Node000001_Node000002" class="edge">
<title>Node1&#45;&gt;Node2</title>
<g id="a_edge1_Node000001_Node000002"><a xlink:title=" ">
<path fill="none" stroke="#63b8ff" d="M362.62,-82.97C299.72,-74.68 202.49,-60.26 119.5,-41 112.71,-39.42 105.59,-37.52 98.66,-35.52"/>
<polygon fill="#63b8ff" stroke="#63b8ff" points="362.43,-86.47 372.8,-84.3 363.34,-79.53 362.43,-86.47"/>
</a>
</g>
</g>
<!-- Node3 -->
<g id="Node000003" class="node">
<title>Node3</title>
<g id="a_Node000003"><a xlink:href="GuiManager_8cpp.html" target="_top" xlink:title=" ">
<polygon fill="white" stroke="#666666" points="246,-35.5 129,-35.5 129,-5.5 246,-5.5 246,-35.5"/>
<text text-anchor="start" x="137" y="-23.5" font-family="Helvetica,sans-Serif" font-size="10.00">Engine/Source/Editor</text>
<text text-anchor="middle" x="187.5" y="-12.5" font-family="Helvetica,sans-Serif" font-size="10.00">/GuiManager.cpp</text>
</a>
</g>
</g>
<!-- Node1&#45;&gt;Node3 -->
<g id="edge2_Node000001_Node000003" class="edge">
<title>Node1&#45;&gt;Node3</title>
<g id="a_edge2_Node000001_Node000003"><a xlink:title=" ">
<path fill="none" stroke="#63b8ff" d="M369.88,-74.09C328.89,-62.28 274.81,-46.68 236.2,-35.54"/>
<polygon fill="#63b8ff" stroke="#63b8ff" points="369.15,-77.53 379.73,-76.94 371.09,-70.8 369.15,-77.53"/>
</a>
</g>
</g>
<!-- Node4 -->
<g id="Node000004" class="node">
<title>Node4</title>
<g id="a_Node000004"><a xlink:href="SceneViewPanel_8cpp.html" target="_top" xlink:title=" ">
<polygon fill="white" stroke="#666666" points="428.5,-41 264.5,-41 264.5,0 428.5,0 428.5,-41"/>
<text text-anchor="start" x="272.5" y="-29" font-family="Helvetica,sans-Serif" font-size="10.00">Engine/Source/Editor</text>
<text text-anchor="start" x="272.5" y="-18" font-family="Helvetica,sans-Serif" font-size="10.00">/Panels/SceneView/SceneView</text>
<text text-anchor="middle" x="346.5" y="-7" font-family="Helvetica,sans-Serif" font-size="10.00">Panel.cpp</text>
</a>
</g>
</g>
<!-- Node1&#45;&gt;Node4 -->
<g id="edge3_Node000001_Node000004" class="edge">
<title>Node1&#45;&gt;Node4</title>
<g id="a_edge3_Node000001_Node000004"><a xlink:title=" ">
<path fill="none" stroke="#63b8ff" d="M404,-70.23C393.1,-60.99 380.33,-50.17 369.59,-41.07"/>
<polygon fill="#63b8ff" stroke="#63b8ff" points="402.01,-73.14 411.91,-76.94 406.54,-67.8 402.01,-73.14"/>
</a>
</g>
</g>
<!-- Node5 -->
<g id="Node000005" class="node">
<title>Node5</title>
<g id="a_Node000005"><a xlink:href="Application_8cpp.html" target="_top" xlink:title=" ">
<polygon fill="white" stroke="#666666" points="576.5,-35.5 446.5,-35.5 446.5,-5.5 576.5,-5.5 576.5,-35.5"/>
<text text-anchor="start" x="454.5" y="-23.5" font-family="Helvetica,sans-Serif" font-size="10.00">Engine/Source/Runtime</text>
<text text-anchor="middle" x="511.5" y="-12.5" font-family="Helvetica,sans-Serif" font-size="10.00">/Application.cpp</text>
</a>
</g>
</g>
<!-- Node1&#45;&gt;Node5 -->
<g id="edge4_Node000001_Node000005" class="edge">
<title>Node1&#45;&gt;Node5</title>
<g id="a_edge4_Node000001_Node000005"><a xlink:title=" ">
<path fill="none" stroke="#63b8ff" d="M453.21,-70.31C466.61,-59.09 482.81,-45.52 494.73,-35.54"/>
<polygon fill="#63b8ff" stroke="#63b8ff" points="450.72,-67.83 445.3,-76.94 455.21,-73.2 450.72,-67.83"/>
</a>
</g>
</g>
<!-- Node6 -->
<g id="Node000006" class="node">
<title>Node6</title>
<g id="a_Node000006"><a xlink:href="Window_8cpp.html" target="_top" xlink:title=" ">
<polygon fill="white" stroke="#666666" points="724.5,-35.5 594.5,-35.5 594.5,-5.5 724.5,-5.5 724.5,-35.5"/>
<text text-anchor="start" x="602.5" y="-23.5" font-family="Helvetica,sans-Serif" font-size="10.00">Engine/Source/Runtime</text>
<text text-anchor="middle" x="659.5" y="-12.5" font-family="Helvetica,sans-Serif" font-size="10.00">/Platform/Window.cpp</text>
</a>
</g>
</g>
<!-- Node1&#45;&gt;Node6 -->
<g id="edge5_Node000001_Node000006" class="edge">
<title>Node1&#45;&gt;Node6</title>
<g id="a_edge5_Node000001_Node000006"><a xlink:title=" ">
<path fill="none" stroke="#63b8ff" d="M484.94,-74.02C524.19,-62.21 575.9,-46.65 612.82,-35.54"/>
<polygon fill="#63b8ff" stroke="#63b8ff" points="483.81,-70.7 475.25,-76.94 485.83,-77.41 483.81,-70.7"/>
</a>
</g>
</g>
<!-- Node7 -->
<g id="Node000007" class="node">
<title>Node7</title>
<g id="a_Node000007"><a xlink:href="EditorCameraSystem_8h.html" target="_top" xlink:title=" ">
<polygon fill="white" stroke="#666666" points="920,-41 743,-41 743,0 920,0 920,-41"/>
<text text-anchor="start" x="751" y="-29" font-family="Helvetica,sans-Serif" font-size="10.00">Engine/Source/Runtime</text>
<text text-anchor="start" x="751" y="-18" font-family="Helvetica,sans-Serif" font-size="10.00">/Systems/Graphics/EditorCamera</text>
<text text-anchor="middle" x="831.5" y="-7" font-family="Helvetica,sans-Serif" font-size="10.00">System.h</text>
</a>
</g>
</g>
<!-- Node1&#45;&gt;Node7 -->
<g id="edge6_Node000001_Node000007" class="edge">
<title>Node1&#45;&gt;Node7</title>
<g id="a_edge6_Node000001_Node000007"><a xlink:title=" ">
<path fill="none" stroke="#63b8ff" d="M494.26,-80.88C556.11,-71.21 651.23,-55.92 733.5,-41 736.57,-40.44 739.7,-39.87 742.85,-39.28"/>
<polygon fill="#63b8ff" stroke="#63b8ff" points="493.59,-77.44 484.25,-82.44 494.67,-84.36 493.59,-77.44"/>
</a>
</g>
</g>
</g>
</svg>
