<?xml version="1.0" encoding="UTF-8" standalone="no"?>
<!DOCTYPE svg PUBLIC "-//W3C//DTD SVG 1.1//EN"
 "http://www.w3.org/Graphics/SVG/1.1/DTD/svg11.dtd">
<!-- Generated by graphviz version 2.43.0 (0)
 -->
<!-- Title: Engine/Source/Editor/Panels/Inspector/InspectorPanel.h Pages: 1 -->
<svg width="2803pt" height="214pt"
 viewBox="0.00 0.00 2803.00 214.00" xmlns="http://www.w3.org/2000/svg" xmlns:xlink="http://www.w3.org/1999/xlink">
<g id="graph0" class="graph" transform="scale(1 1) rotate(0) translate(4 210)">
<title>Engine/Source/Editor/Panels/Inspector/InspectorPanel.h</title>
<!-- Node1 -->
<g id="Node000001" class="node">
<title>Node1</title>
<g id="a_Node000001"><a xlink:title="エンティティの詳細情報表示パネル。">
<polygon fill="#999999" stroke="#666666" points="1457.5,-206 1310.5,-206 1310.5,-165 1457.5,-165 1457.5,-206"/>
<text text-anchor="start" x="1318.5" y="-194" font-family="Helvetica,sans-Serif" font-size="10.00">Engine/Source/Editor</text>
<text text-anchor="start" x="1318.5" y="-183" font-family="Helvetica,sans-Serif" font-size="10.00">/Panels/Inspector/Inspector</text>
<text text-anchor="middle" x="1384" y="-172" font-family="Helvetica,sans-Serif" font-size="10.00">Panel.h</text>
</a>
</g>
</g>
<!-- Node2 -->
<g id="Node000002" class="node">
<title>Node2</title>
<g id="a_Node000002"><a xlink:href="EditorPanel_8h.html" target="_top" xlink:title="エディタ上のウィンドウ (パネル) の基底クラス。">
<polygon fill="white" stroke="#666666" points="1530,-129 1384,-129 1384,-110 1530,-110 1530,-129"/>
<text text-anchor="middle" x="1457" y="-117" font-family="Helvetica,sans-Serif" font-size="10.00">Editor/Panels/EditorPanel.h</text>
</a>
</g>
</g>
<!-- Node1&#45;&gt;Node2 -->
<g id="edge1_Node000001_Node000002" class="edge">
<title>Node1&#45;&gt;Node2</title>
<g id="a_edge1_Node000001_Node000002"><a xlink:title=" ">
<path fill="none" stroke="#63b8ff" d="M1406.3,-164.95C1416.91,-155.65 1429.42,-144.68 1439.36,-135.96"/>
<polygon fill="#63b8ff" stroke="#63b8ff" points="1441.8,-138.48 1447.01,-129.26 1437.18,-133.22 1441.8,-138.48"/>
</a>
</g>
</g>
<!-- Node40 -->
<g id="Node000040" class="node">
<title>Node40</title>
<g id="a_Node000040"><a xlink:href="Entity_8h.html" target="_top" xlink:title="ECSにおけるオブジェクトの識別子 (ID) を定義します。">
<polygon fill="white" stroke="#666666" points="1366,-129 1258,-129 1258,-110 1366,-110 1366,-129"/>
<text text-anchor="middle" x="1312" y="-117" font-family="Helvetica,sans-Serif" font-size="10.00">ECS/Kernel/Entity.h</text>
</a>
</g>
</g>
<!-- Node1&#45;&gt;Node40 -->
<g id="edge40_Node000001_Node000040" class="edge">
<title>Node1&#45;&gt;Node40</title>
<g id="a_edge40_Node000001_Node000040"><a xlink:title=" ">
<path fill="none" stroke="#63b8ff" d="M1362.01,-164.95C1351.54,-155.65 1339.2,-144.68 1329.4,-135.96"/>
<polygon fill="#63b8ff" stroke="#63b8ff" points="1331.66,-133.29 1321.86,-129.26 1327,-138.52 1331.66,-133.29"/>
</a>
</g>
</g>
<!-- Node3 -->
<g id="Node000003" class="node">
<title>Node3</title>
<g id="a_Node000003"><a xlink:href="CoreMinimal_8h.html" target="_top" xlink:title="エンジンの標準インクルードファイル。">
<polygon fill="white" stroke="#666666" points="1390.5,-74 1277.5,-74 1277.5,-55 1390.5,-55 1390.5,-74"/>
<text text-anchor="middle" x="1334" y="-62" font-family="Helvetica,sans-Serif" font-size="10.00">Core/CoreMinimal.h</text>
</a>
</g>
</g>
<!-- Node2&#45;&gt;Node3 -->
<g id="edge2_Node000002_Node000003" class="edge">
<title>Node2&#45;&gt;Node3</title>
<g id="a_edge2_Node000002_Node000003"><a xlink:title=" ">
<path fill="none" stroke="#63b8ff" d="M1437.24,-109.98C1417.27,-101.38 1386.2,-87.99 1363.35,-78.15"/>
<polygon fill="#63b8ff" stroke="#63b8ff" points="1364.69,-74.91 1354.12,-74.17 1361.92,-81.34 1364.69,-74.91"/>
</a>
</g>
</g>
<!-- Node39 -->
<g id="Node000039" class="node">
<title>Node39</title>
<g id="a_Node000039"><a xlink:title=" ">
<polygon fill="#e0e0e0" stroke="#999999" points="1483.5,-74 1430.5,-74 1430.5,-55 1483.5,-55 1483.5,-74"/>
<text text-anchor="middle" x="1457" y="-62" font-family="Helvetica,sans-Serif" font-size="10.00">imgui.h</text>
</a>
</g>
</g>
<!-- Node2&#45;&gt;Node39 -->
<g id="edge39_Node000002_Node000039" class="edge">
<title>Node2&#45;&gt;Node39</title>
<g id="a_edge39_Node000002_Node000039"><a xlink:title=" ">
<path fill="none" stroke="#63b8ff" d="M1457,-109.75C1457,-102.8 1457,-92.85 1457,-84.13"/>
<polygon fill="#63b8ff" stroke="#63b8ff" points="1460.5,-84.09 1457,-74.09 1453.5,-84.09 1460.5,-84.09"/>
</a>
</g>
</g>
<!-- Node4 -->
<g id="Node000004" class="node">
<title>Node4</title>
<g id="a_Node000004"><a xlink:title=" ">
<polygon fill="#e0e0e0" stroke="#999999" points="70,-19 0,-19 0,0 70,0 70,-19"/>
<text text-anchor="middle" x="35" y="-7" font-family="Helvetica,sans-Serif" font-size="10.00">Windows.h</text>
</a>
</g>
</g>
<!-- Node3&#45;&gt;Node4 -->
<g id="edge3_Node000003_Node000004" class="edge">
<title>Node3&#45;&gt;Node4</title>
<g id="a_edge3_Node000003_Node000004"><a xlink:title=" ">
<path fill="none" stroke="#63b8ff" d="M1277.43,-62.66C1067.95,-59.39 335.73,-46.29 80.44,-18.95"/>
<polygon fill="#63b8ff" stroke="#63b8ff" points="80.79,-15.46 70.47,-17.84 80.02,-22.42 80.79,-15.46"/>
</a>
</g>
</g>
<!-- Node5 -->
<g id="Node000005" class="node">
<title>Node5</title>
<g id="a_Node000005"><a xlink:title=" ">
<polygon fill="#e0e0e0" stroke="#999999" points="129.5,-19 88.5,-19 88.5,0 129.5,0 129.5,-19"/>
<text text-anchor="middle" x="109" y="-7" font-family="Helvetica,sans-Serif" font-size="10.00">wrl.h</text>
</a>
</g>
</g>
<!-- Node3&#45;&gt;Node5 -->
<g id="edge4_Node000003_Node000005" class="edge">
<title>Node3&#45;&gt;Node5</title>
<g id="a_edge4_Node000003_Node000005"><a xlink:title=" ">
<path fill="none" stroke="#63b8ff" d="M1277.19,-63.25C1073.76,-62.07 381.41,-55.51 139.89,-18.85"/>
<polygon fill="#63b8ff" stroke="#63b8ff" points="140.19,-15.36 129.77,-17.26 139.1,-22.27 140.19,-15.36"/>
</a>
</g>
</g>
<!-- Node6 -->
<g id="Node000006" class="node">
<title>Node6</title>
<g id="a_Node000006"><a xlink:title=" ">
<polygon fill="#e0e0e0" stroke="#999999" points="218.5,-19 147.5,-19 147.5,0 218.5,0 218.5,-19"/>
<text text-anchor="middle" x="183" y="-7" font-family="Helvetica,sans-Serif" font-size="10.00">wrl/client.h</text>
</a>
</g>
</g>
<!-- Node3&#45;&gt;Node6 -->
<g id="edge5_Node000003_Node000006" class="edge">
<title>Node3&#45;&gt;Node6</title>
<g id="a_edge5_Node000003_Node000006"><a xlink:title=" ">
<path fill="none" stroke="#63b8ff" d="M1277.38,-64.14C1115.37,-65.35 636.05,-64.59 229,-18.91"/>
<polygon fill="#63b8ff" stroke="#63b8ff" points="229.12,-15.4 218.79,-17.75 228.33,-22.35 229.12,-15.4"/>
</a>
</g>
</g>
<!-- Node7 -->
<g id="Node000007" class="node">
<title>Node7</title>
<g id="a_Node000007"><a xlink:title=" ">
<polygon fill="#e0e0e0" stroke="#999999" points="287,-19 237,-19 237,0 287,0 287,-19"/>
<text text-anchor="middle" x="262" y="-7" font-family="Helvetica,sans-Serif" font-size="10.00">cstdint</text>
</a>
</g>
</g>
<!-- Node3&#45;&gt;Node7 -->
<g id="edge6_Node000003_Node000007" class="edge">
<title>Node3&#45;&gt;Node7</title>
<g id="a_edge6_Node000003_Node000007"><a xlink:title=" ">
<path fill="none" stroke="#63b8ff" d="M1277.42,-62.58C1092.63,-59.35 507.18,-47.21 297.15,-18.8"/>
<polygon fill="#63b8ff" stroke="#63b8ff" points="297.53,-15.31 287.14,-17.39 296.55,-22.25 297.53,-15.31"/>
</a>
</g>
</g>
<!-- Node8 -->
<g id="Node000008" class="node">
<title>Node8</title>
<g id="a_Node000008"><a xlink:title=" ">
<polygon fill="#e0e0e0" stroke="#999999" points="365,-19 305,-19 305,0 365,0 365,-19"/>
<text text-anchor="middle" x="335" y="-7" font-family="Helvetica,sans-Serif" font-size="10.00">iostream</text>
</a>
</g>
</g>
<!-- Node3&#45;&gt;Node8 -->
<g id="edge7_Node000003_Node000008" class="edge">
<title>Node3&#45;&gt;Node8</title>
<g id="a_edge7_Node000003_Node000008"><a xlink:title=" ">
<path fill="none" stroke="#63b8ff" d="M1277.44,-64.19C1130.15,-65.27 722.64,-63.74 375.15,-18.9"/>
<polygon fill="#63b8ff" stroke="#63b8ff" points="375.51,-15.42 365.15,-17.59 374.61,-22.36 375.51,-15.42"/>
</a>
</g>
</g>
<!-- Node9 -->
<g id="Node000009" class="node">
<title>Node9</title>
<g id="a_Node000009"><a xlink:title=" ">
<polygon fill="#e0e0e0" stroke="#999999" points="436.5,-19 383.5,-19 383.5,0 436.5,0 436.5,-19"/>
<text text-anchor="middle" x="410" y="-7" font-family="Helvetica,sans-Serif" font-size="10.00">string.h</text>
</a>
</g>
</g>
<!-- Node3&#45;&gt;Node9 -->
<g id="edge8_Node000003_Node000009" class="edge">
<title>Node3&#45;&gt;Node9</title>
<g id="a_edge8_Node000003_Node000009"><a xlink:title=" ">
<path fill="none" stroke="#63b8ff" d="M1277.3,-64.22C1137.6,-65.22 765.68,-63.26 447,-18.82"/>
<polygon fill="#63b8ff" stroke="#63b8ff" points="447.02,-15.29 436.63,-17.36 446.05,-22.22 447.02,-15.29"/>
</a>
</g>
</g>
<!-- Node10 -->
<g id="Node000010" class="node">
<title>Node10</title>
<g id="a_Node000010"><a xlink:title=" ">
<polygon fill="#e0e0e0" stroke="#999999" points="499,-19 455,-19 455,0 499,0 499,-19"/>
<text text-anchor="middle" x="477" y="-7" font-family="Helvetica,sans-Serif" font-size="10.00">string</text>
</a>
</g>
</g>
<!-- Node3&#45;&gt;Node10 -->
<g id="edge9_Node000003_Node000010" class="edge">
<title>Node3&#45;&gt;Node10</title>
<g id="a_edge9_Node000003_Node000010"><a xlink:title=" ">
<path fill="none" stroke="#63b8ff" d="M1277.42,-62.03C1119.53,-57.67 675.39,-43.69 509.29,-18.78"/>
<polygon fill="#63b8ff" stroke="#63b8ff" points="509.65,-15.3 499.23,-17.21 508.56,-22.21 509.65,-15.3"/>
</a>
</g>
</g>
<!-- Node11 -->
<g id="Node000011" class="node">
<title>Node11</title>
<g id="a_Node000011"><a xlink:title=" ">
<polygon fill="#e0e0e0" stroke="#999999" points="564.5,-19 517.5,-19 517.5,0 564.5,0 564.5,-19"/>
<text text-anchor="middle" x="541" y="-7" font-family="Helvetica,sans-Serif" font-size="10.00">vector</text>
</a>
</g>
</g>
<!-- Node3&#45;&gt;Node11 -->
<g id="edge10_Node000003_Node000011" class="edge">
<title>Node3&#45;&gt;Node11</title>
<g id="a_edge10_Node000003_Node000011"><a xlink:title=" ">
<path fill="none" stroke="#63b8ff" d="M1277.25,-64.06C1151.84,-64.47 841.7,-60.9 574.92,-18.99"/>
<polygon fill="#63b8ff" stroke="#63b8ff" points="575.08,-15.47 564.65,-17.35 573.98,-22.38 575.08,-15.47"/>
</a>
</g>
</g>
<!-- Node12 -->
<g id="Node000012" class="node">
<title>Node12</title>
<g id="a_Node000012"><a xlink:title=" ">
<polygon fill="#e0e0e0" stroke="#999999" points="629.5,-19 582.5,-19 582.5,0 629.5,0 629.5,-19"/>
<text text-anchor="middle" x="606" y="-7" font-family="Helvetica,sans-Serif" font-size="10.00">deque</text>
</a>
</g>
</g>
<!-- Node3&#45;&gt;Node12 -->
<g id="edge11_Node000003_Node000012" class="edge">
<title>Node3&#45;&gt;Node12</title>
<g id="a_edge11_Node000003_Node000012"><a xlink:title=" ">
<path fill="none" stroke="#63b8ff" d="M1277.19,-63.62C1159.57,-63.05 880.87,-57.52 639.66,-18.96"/>
<polygon fill="#63b8ff" stroke="#63b8ff" points="640.09,-15.48 629.65,-17.34 638.96,-22.39 640.09,-15.48"/>
</a>
</g>
</g>
<!-- Node13 -->
<g id="Node000013" class="node">
<title>Node13</title>
<g id="a_Node000013"><a xlink:title=" ">
<polygon fill="#e0e0e0" stroke="#999999" points="740.5,-19 647.5,-19 647.5,0 740.5,0 740.5,-19"/>
<text text-anchor="middle" x="694" y="-7" font-family="Helvetica,sans-Serif" font-size="10.00">unordered_map</text>
</a>
</g>
</g>
<!-- Node3&#45;&gt;Node13 -->
<g id="edge12_Node000003_Node000013" class="edge">
<title>Node3&#45;&gt;Node13</title>
<g id="a_edge12_Node000003_Node000013"><a xlink:title=" ">
<path fill="none" stroke="#63b8ff" d="M1277.49,-60.6C1174.81,-55.02 950.57,-41.43 750.81,-19"/>
<polygon fill="#63b8ff" stroke="#63b8ff" points="751.05,-15.5 740.72,-17.86 750.26,-22.46 751.05,-15.5"/>
</a>
</g>
</g>
<!-- Node14 -->
<g id="Node000014" class="node">
<title>Node14</title>
<g id="a_Node000014"><a xlink:title=" ">
<polygon fill="#e0e0e0" stroke="#999999" points="797,-19 759,-19 759,0 797,0 797,-19"/>
<text text-anchor="middle" x="778" y="-7" font-family="Helvetica,sans-Serif" font-size="10.00">map</text>
</a>
</g>
</g>
<!-- Node3&#45;&gt;Node14 -->
<g id="edge13_Node000003_Node000014" class="edge">
<title>Node3&#45;&gt;Node14</title>
<g id="a_edge13_Node000003_Node000014"><a xlink:title=" ">
<path fill="none" stroke="#63b8ff" d="M1277.21,-62.62C1181.7,-60.29 982.95,-51.8 807.09,-18.79"/>
<polygon fill="#63b8ff" stroke="#63b8ff" points="807.63,-15.33 797.15,-16.89 806.31,-22.21 807.63,-15.33"/>
</a>
</g>
</g>
<!-- Node15 -->
<g id="Node000015" class="node">
<title>Node15</title>
<g id="a_Node000015"><a xlink:title=" ">
<polygon fill="#e0e0e0" stroke="#999999" points="873,-19 815,-19 815,0 873,0 873,-19"/>
<text text-anchor="middle" x="844" y="-7" font-family="Helvetica,sans-Serif" font-size="10.00">memory</text>
</a>
</g>
</g>
<!-- Node3&#45;&gt;Node15 -->
<g id="edge14_Node000003_Node000015" class="edge">
<title>Node3&#45;&gt;Node15</title>
<g id="a_edge14_Node000003_Node000015"><a xlink:title=" ">
<path fill="none" stroke="#63b8ff" d="M1277.34,-60.15C1193.38,-54.69 1030.82,-42.25 883.52,-19.06"/>
<polygon fill="#63b8ff" stroke="#63b8ff" points="883.82,-15.56 873.39,-17.45 882.71,-22.48 883.82,-15.56"/>
</a>
</g>
</g>
<!-- Node16 -->
<g id="Node000016" class="node">
<title>Node16</title>
<g id="a_Node000016"><a xlink:title=" ">
<polygon fill="#e0e0e0" stroke="#999999" points="955,-19 891,-19 891,0 955,0 955,-19"/>
<text text-anchor="middle" x="923" y="-7" font-family="Helvetica,sans-Serif" font-size="10.00">algorithm</text>
</a>
</g>
</g>
<!-- Node3&#45;&gt;Node16 -->
<g id="edge15_Node000003_Node000016" class="edge">
<title>Node3&#45;&gt;Node16</title>
<g id="a_edge15_Node000003_Node000016"><a xlink:title=" ">
<path fill="none" stroke="#63b8ff" d="M1277.37,-58.2C1206.66,-51.24 1081.79,-37.85 965.34,-19.09"/>
<polygon fill="#63b8ff" stroke="#63b8ff" points="965.61,-15.59 955.18,-17.44 964.49,-22.5 965.61,-15.59"/>
</a>
</g>
</g>
<!-- Node17 -->
<g id="Node000017" class="node">
<title>Node17</title>
<g id="a_Node000017"><a xlink:title=" ">
<polygon fill="#e0e0e0" stroke="#999999" points="1038.5,-19 973.5,-19 973.5,0 1038.5,0 1038.5,-19"/>
<text text-anchor="middle" x="1006" y="-7" font-family="Helvetica,sans-Serif" font-size="10.00">functional</text>
</a>
</g>
</g>
<!-- Node3&#45;&gt;Node17 -->
<g id="edge16_Node000003_Node000017" class="edge">
<title>Node3&#45;&gt;Node17</title>
<g id="a_edge16_Node000003_Node000017"><a xlink:title=" ">
<path fill="none" stroke="#63b8ff" d="M1277.44,-55.47C1221.8,-47.4 1134.19,-34.23 1048.44,-19"/>
<polygon fill="#63b8ff" stroke="#63b8ff" points="1048.99,-15.55 1038.53,-17.24 1047.76,-22.44 1048.99,-15.55"/>
</a>
</g>
</g>
<!-- Node18 -->
<g id="Node000018" class="node">
<title>Node18</title>
<g id="a_Node000018"><a xlink:title=" ">
<polygon fill="#e0e0e0" stroke="#999999" points="1107,-19 1057,-19 1057,0 1107,0 1107,-19"/>
<text text-anchor="middle" x="1082" y="-7" font-family="Helvetica,sans-Serif" font-size="10.00">chrono</text>
</a>
</g>
</g>
<!-- Node3&#45;&gt;Node18 -->
<g id="edge17_Node000003_Node000018" class="edge">
<title>Node3&#45;&gt;Node18</title>
<g id="a_edge17_Node000003_Node000018"><a xlink:title=" ">
<path fill="none" stroke="#63b8ff" d="M1289.2,-54.95C1247.2,-46.8 1182.42,-33.89 1117.26,-19.21"/>
<polygon fill="#63b8ff" stroke="#63b8ff" points="1117.75,-15.73 1107.22,-16.94 1116.2,-22.56 1117.75,-15.73"/>
</a>
</g>
</g>
<!-- Node19 -->
<g id="Node000019" class="node">
<title>Node19</title>
<g id="a_Node000019"><a xlink:title=" ">
<polygon fill="#e0e0e0" stroke="#999999" points="1171,-19 1125,-19 1125,0 1171,0 1171,-19"/>
<text text-anchor="middle" x="1148" y="-7" font-family="Helvetica,sans-Serif" font-size="10.00">cstdio</text>
</a>
</g>
</g>
<!-- Node3&#45;&gt;Node19 -->
<g id="edge18_Node000003_Node000019" class="edge">
<title>Node3&#45;&gt;Node19</title>
<g id="a_edge18_Node000003_Node000019"><a xlink:title=" ">
<path fill="none" stroke="#63b8ff" d="M1304.12,-54.98C1270.38,-45.37 1215.65,-29.78 1180.76,-19.84"/>
<polygon fill="#63b8ff" stroke="#63b8ff" points="1181.63,-16.44 1171.05,-17.07 1179.71,-23.18 1181.63,-16.44"/>
</a>
</g>
</g>
<!-- Node20 -->
<g id="Node000020" class="node">
<title>Node20</title>
<g id="a_Node000020"><a xlink:title=" ">
<polygon fill="#e0e0e0" stroke="#999999" points="1241,-19 1189,-19 1189,0 1241,0 1241,-19"/>
<text text-anchor="middle" x="1215" y="-7" font-family="Helvetica,sans-Serif" font-size="10.00">cassert</text>
</a>
</g>
</g>
<!-- Node3&#45;&gt;Node20 -->
<g id="edge19_Node000003_Node000020" class="edge">
<title>Node3&#45;&gt;Node20</title>
<g id="a_edge19_Node000003_Node000020"><a xlink:title=" ">
<path fill="none" stroke="#63b8ff" d="M1314.88,-54.98C1295.65,-46.42 1265.77,-33.11 1243.69,-23.28"/>
<polygon fill="#63b8ff" stroke="#63b8ff" points="1245.03,-20.04 1234.47,-19.17 1242.18,-26.44 1245.03,-20.04"/>
</a>
</g>
</g>
<!-- Node21 -->
<g id="Node000021" class="node">
<title>Node21</title>
<g id="a_Node000021"><a xlink:title=" ">
<polygon fill="#e0e0e0" stroke="#999999" points="1324.5,-19 1259.5,-19 1259.5,0 1324.5,0 1324.5,-19"/>
<text text-anchor="middle" x="1292" y="-7" font-family="Helvetica,sans-Serif" font-size="10.00">typeindex</text>
</a>
</g>
</g>
<!-- Node3&#45;&gt;Node21 -->
<g id="edge20_Node000003_Node000021" class="edge">
<title>Node3&#45;&gt;Node21</title>
<g id="a_edge20_Node000003_Node000021"><a xlink:title=" ">
<path fill="none" stroke="#63b8ff" d="M1327.06,-54.75C1321.13,-47.26 1312.43,-36.28 1305.18,-27.13"/>
<polygon fill="#63b8ff" stroke="#63b8ff" points="1307.76,-24.75 1298.81,-19.09 1302.27,-29.1 1307.76,-24.75"/>
</a>
</g>
</g>
<!-- Node22 -->
<g id="Node000022" class="node">
<title>Node22</title>
<g id="a_Node000022"><a xlink:title=" ">
<polygon fill="#e0e0e0" stroke="#999999" points="1411,-19 1343,-19 1343,0 1411,0 1411,-19"/>
<text text-anchor="middle" x="1377" y="-7" font-family="Helvetica,sans-Serif" font-size="10.00">filesystem</text>
</a>
</g>
</g>
<!-- Node3&#45;&gt;Node22 -->
<g id="edge21_Node000003_Node000022" class="edge">
<title>Node3&#45;&gt;Node22</title>
<g id="a_edge21_Node000003_Node000022"><a xlink:title=" ">
<path fill="none" stroke="#63b8ff" d="M1341.1,-54.75C1347.17,-47.26 1356.09,-36.28 1363.51,-27.13"/>
<polygon fill="#63b8ff" stroke="#63b8ff" points="1366.45,-29.06 1370.03,-19.09 1361.01,-24.65 1366.45,-29.06"/>
</a>
</g>
</g>
<!-- Node23 -->
<g id="Node000023" class="node">
<title>Node23</title>
<g id="a_Node000023"><a xlink:title=" ">
<polygon fill="#e0e0e0" stroke="#999999" points="1461,-19 1429,-19 1429,0 1461,0 1461,-19"/>
<text text-anchor="middle" x="1445" y="-7" font-family="Helvetica,sans-Serif" font-size="10.00">set</text>
</a>
</g>
</g>
<!-- Node3&#45;&gt;Node23 -->
<g id="edge22_Node000003_Node000023" class="edge">
<title>Node3&#45;&gt;Node23</title>
<g id="a_edge22_Node000003_Node000023"><a xlink:title=" ">
<path fill="none" stroke="#63b8ff" d="M1351.83,-54.98C1370.14,-46.24 1398.79,-32.56 1419.49,-22.68"/>
<polygon fill="#63b8ff" stroke="#63b8ff" points="1421.14,-25.77 1428.66,-18.3 1418.12,-19.45 1421.14,-25.77"/>
</a>
</g>
</g>
<!-- Node24 -->
<g id="Node000024" class="node">
<title>Node24</title>
<g id="a_Node000024"><a xlink:title=" ">
<polygon fill="#e0e0e0" stroke="#999999" points="1534.5,-19 1479.5,-19 1479.5,0 1534.5,0 1534.5,-19"/>
<text text-anchor="middle" x="1507" y="-7" font-family="Helvetica,sans-Serif" font-size="10.00">fstream</text>
</a>
</g>
</g>
<!-- Node3&#45;&gt;Node24 -->
<g id="edge23_Node000003_Node000024" class="edge">
<title>Node3&#45;&gt;Node24</title>
<g id="a_edge23_Node000003_Node000024"><a xlink:title=" ">
<path fill="none" stroke="#63b8ff" d="M1361.8,-54.98C1391.05,-46.02 1437.27,-31.86 1469.69,-21.93"/>
<polygon fill="#63b8ff" stroke="#63b8ff" points="1470.74,-25.27 1479.27,-18.99 1468.69,-18.58 1470.74,-25.27"/>
</a>
</g>
</g>
<!-- Node25 -->
<g id="Node000025" class="node">
<title>Node25</title>
<g id="a_Node000025"><a xlink:title=" ">
<polygon fill="#e0e0e0" stroke="#999999" points="1609,-19 1553,-19 1553,0 1609,0 1609,-19"/>
<text text-anchor="middle" x="1581" y="-7" font-family="Helvetica,sans-Serif" font-size="10.00">sstream</text>
</a>
</g>
</g>
<!-- Node3&#45;&gt;Node25 -->
<g id="edge24_Node000003_Node000025" class="edge">
<title>Node3&#45;&gt;Node25</title>
<g id="a_edge24_Node000003_Node000025"><a xlink:title=" ">
<path fill="none" stroke="#63b8ff" d="M1375.48,-54.93C1415.81,-46.54 1479.04,-33.27 1542.89,-19.22"/>
<polygon fill="#63b8ff" stroke="#63b8ff" points="1543.72,-22.62 1552.73,-17.05 1542.21,-15.78 1543.72,-22.62"/>
</a>
</g>
</g>
<!-- Node26 -->
<g id="Node000026" class="node">
<title>Node26</title>
<g id="a_Node000026"><a xlink:title=" ">
<polygon fill="#e0e0e0" stroke="#999999" points="1675,-19 1627,-19 1627,0 1675,0 1675,-19"/>
<text text-anchor="middle" x="1651" y="-7" font-family="Helvetica,sans-Serif" font-size="10.00">mutex</text>
</a>
</g>
</g>
<!-- Node3&#45;&gt;Node26 -->
<g id="edge25_Node000003_Node000026" class="edge">
<title>Node3&#45;&gt;Node26</title>
<g id="a_edge25_Node000003_Node000026"><a xlink:title=" ">
<path fill="none" stroke="#63b8ff" d="M1390.6,-56.27C1445.94,-48.84 1532.75,-36.19 1616.93,-19.05"/>
<polygon fill="#63b8ff" stroke="#63b8ff" points="1617.82,-22.44 1626.91,-16.99 1616.41,-15.58 1617.82,-22.44"/>
</a>
</g>
</g>
<!-- Node27 -->
<g id="Node000027" class="node">
<title>Node27</title>
<g id="a_Node000027"><a xlink:title=" ">
<polygon fill="#e0e0e0" stroke="#999999" points="1747,-19 1693,-19 1693,0 1747,0 1747,-19"/>
<text text-anchor="middle" x="1720" y="-7" font-family="Helvetica,sans-Serif" font-size="10.00">random</text>
</a>
</g>
</g>
<!-- Node3&#45;&gt;Node27 -->
<g id="edge26_Node000003_Node000027" class="edge">
<title>Node3&#45;&gt;Node27</title>
<g id="a_edge26_Node000003_Node000027"><a xlink:title=" ">
<path fill="none" stroke="#63b8ff" d="M1390.66,-58.15C1458,-51.38 1573.95,-38.43 1682.77,-19.05"/>
<polygon fill="#63b8ff" stroke="#63b8ff" points="1683.72,-22.43 1692.94,-17.21 1682.47,-15.54 1683.72,-22.43"/>
</a>
</g>
</g>
<!-- Node28 -->
<g id="Node000028" class="node">
<title>Node28</title>
<g id="a_Node000028"><a xlink:title=" ">
<polygon fill="#e0e0e0" stroke="#999999" points="1813,-19 1765,-19 1765,0 1813,0 1813,-19"/>
<text text-anchor="middle" x="1789" y="-7" font-family="Helvetica,sans-Serif" font-size="10.00">thread</text>
</a>
</g>
</g>
<!-- Node3&#45;&gt;Node28 -->
<g id="edge27_Node000003_Node000028" class="edge">
<title>Node3&#45;&gt;Node28</title>
<g id="a_edge27_Node000003_Node000028"><a xlink:title=" ">
<path fill="none" stroke="#63b8ff" d="M1390.91,-57.97C1491.31,-48.15 1694.33,-27.97 1755.04,-18.77"/>
<polygon fill="#63b8ff" stroke="#63b8ff" points="1755.64,-22.22 1764.94,-17.13 1754.5,-15.31 1755.64,-22.22"/>
</a>
</g>
</g>
<!-- Node29 -->
<g id="Node000029" class="node">
<title>Node29</title>
<g id="a_Node000029"><a xlink:title=" ">
<polygon fill="#e0e0e0" stroke="#999999" points="1881,-19 1831,-19 1831,0 1881,0 1881,-19"/>
<text text-anchor="middle" x="1856" y="-7" font-family="Helvetica,sans-Serif" font-size="10.00">atomic</text>
</a>
</g>
</g>
<!-- Node3&#45;&gt;Node29 -->
<g id="edge28_Node000003_Node000029" class="edge">
<title>Node3&#45;&gt;Node29</title>
<g id="a_edge28_Node000003_Node000029"><a xlink:title=" ">
<path fill="none" stroke="#63b8ff" d="M1390.8,-57.96C1401.18,-56.96 1411.91,-55.94 1422,-55 1596.51,-38.72 1644.28,-48.37 1820.96,-18.92"/>
<polygon fill="#63b8ff" stroke="#63b8ff" points="1821.56,-22.37 1830.84,-17.25 1820.4,-15.46 1821.56,-22.37"/>
</a>
</g>
</g>
<!-- Node30 -->
<g id="Node000030" class="node">
<title>Node30</title>
<g id="a_Node000030"><a xlink:title=" ">
<polygon fill="#e0e0e0" stroke="#999999" points="1948.5,-19 1899.5,-19 1899.5,0 1948.5,0 1948.5,-19"/>
<text text-anchor="middle" x="1924" y="-7" font-family="Helvetica,sans-Serif" font-size="10.00">cctype</text>
</a>
</g>
</g>
<!-- Node3&#45;&gt;Node30 -->
<g id="edge29_Node000003_Node000030" class="edge">
<title>Node3&#45;&gt;Node30</title>
<g id="a_edge29_Node000003_Node000030"><a xlink:title=" ">
<path fill="none" stroke="#63b8ff" d="M1390.79,-57.85C1401.17,-56.86 1411.91,-55.88 1422,-55 1626.59,-37.25 1682.35,-51.94 1889.25,-18.82"/>
<polygon fill="#63b8ff" stroke="#63b8ff" points="1889.91,-22.26 1899.22,-17.21 1888.79,-15.35 1889.91,-22.26"/>
</a>
</g>
</g>
<!-- Node31 -->
<g id="Node000031" class="node">
<title>Node31</title>
<g id="a_Node000031"><a xlink:title=" ">
<polygon fill="#e0e0e0" stroke="#999999" points="2023,-19 1967,-19 1967,0 2023,0 2023,-19"/>
<text text-anchor="middle" x="1995" y="-7" font-family="Helvetica,sans-Serif" font-size="10.00">d3d12.h</text>
</a>
</g>
</g>
<!-- Node3&#45;&gt;Node31 -->
<g id="edge30_Node000003_Node000031" class="edge">
<title>Node3&#45;&gt;Node31</title>
<g id="a_edge30_Node000003_Node000031"><a xlink:title=" ">
<path fill="none" stroke="#63b8ff" d="M1390.78,-57.77C1401.16,-56.79 1411.9,-55.83 1422,-55 1656.71,-35.79 1720.07,-53.34 1956.86,-18.92"/>
<polygon fill="#63b8ff" stroke="#63b8ff" points="1957.42,-22.38 1966.81,-17.46 1956.4,-15.45 1957.42,-22.38"/>
</a>
</g>
</g>
<!-- Node32 -->
<g id="Node000032" class="node">
<title>Node32</title>
<g id="a_Node000032"><a xlink:title=" ">
<polygon fill="#e0e0e0" stroke="#999999" points="2105,-19 2041,-19 2041,0 2105,0 2105,-19"/>
<text text-anchor="middle" x="2073" y="-7" font-family="Helvetica,sans-Serif" font-size="10.00">dxgi1_6.h</text>
</a>
</g>
</g>
<!-- Node3&#45;&gt;Node32 -->
<g id="edge31_Node000003_Node000032" class="edge">
<title>Node3&#45;&gt;Node32</title>
<g id="a_edge31_Node000003_Node000032"><a xlink:title=" ">
<path fill="none" stroke="#63b8ff" d="M1390.78,-57.7C1401.16,-56.73 1411.9,-55.79 1422,-55 1689.46,-34.2 1761.03,-54.16 2030.76,-18.96"/>
<polygon fill="#63b8ff" stroke="#63b8ff" points="2031.39,-22.4 2040.85,-17.63 2030.47,-15.46 2031.39,-22.4"/>
</a>
</g>
</g>
<!-- Node33 -->
<g id="Node000033" class="node">
<title>Node33</title>
<g id="a_Node000033"><a xlink:title=" ">
<polygon fill="#e0e0e0" stroke="#999999" points="2209,-19 2123,-19 2123,0 2209,0 2209,-19"/>
<text text-anchor="middle" x="2166" y="-7" font-family="Helvetica,sans-Serif" font-size="10.00">d3dcompiler.h</text>
</a>
</g>
</g>
<!-- Node3&#45;&gt;Node33 -->
<g id="edge32_Node000003_Node000033" class="edge">
<title>Node3&#45;&gt;Node33</title>
<g id="a_edge32_Node000003_Node000033"><a xlink:title=" ">
<path fill="none" stroke="#63b8ff" d="M1390.77,-57.64C1401.16,-56.68 1411.9,-55.75 1422,-55 1725.83,-32.43 1806.07,-51.47 2112.85,-18.99"/>
<polygon fill="#63b8ff" stroke="#63b8ff" points="2113.35,-22.46 2122.92,-17.92 2112.6,-15.5 2113.35,-22.46"/>
</a>
</g>
</g>
<!-- Node34 -->
<g id="Node000034" class="node">
<title>Node34</title>
<g id="a_Node000034"><a xlink:title=" ">
<polygon fill="#e0e0e0" stroke="#999999" points="2313,-19 2227,-19 2227,0 2313,0 2313,-19"/>
<text text-anchor="middle" x="2270" y="-7" font-family="Helvetica,sans-Serif" font-size="10.00">DirectXMath.h</text>
</a>
</g>
</g>
<!-- Node3&#45;&gt;Node34 -->
<g id="edge33_Node000003_Node000034" class="edge">
<title>Node3&#45;&gt;Node34</title>
<g id="a_edge33_Node000003_Node000034"><a xlink:title=" ">
<path fill="none" stroke="#63b8ff" d="M1390.77,-57.59C1401.15,-56.63 1411.9,-55.72 1422,-55 1771.98,-30.2 1864.06,-55.16 2216.94,-18.97"/>
<polygon fill="#63b8ff" stroke="#63b8ff" points="2217.34,-22.45 2226.92,-17.94 2216.61,-15.49 2217.34,-22.45"/>
</a>
</g>
</g>
<!-- Node35 -->
<g id="Node000035" class="node">
<title>Node35</title>
<g id="a_Node000035"><a xlink:title=" ">
<polygon fill="#e0e0e0" stroke="#999999" points="2448.5,-19 2331.5,-19 2331.5,0 2448.5,0 2448.5,-19"/>
<text text-anchor="middle" x="2390" y="-7" font-family="Helvetica,sans-Serif" font-size="10.00">assimp/Importer.hpp</text>
</a>
</g>
</g>
<!-- Node3&#45;&gt;Node35 -->
<g id="edge34_Node000003_Node000035" class="edge">
<title>Node3&#45;&gt;Node35</title>
<g id="a_edge34_Node000003_Node000035"><a xlink:title=" ">
<path fill="none" stroke="#63b8ff" d="M1390.77,-57.54C1401.15,-56.59 1411.89,-55.69 1422,-55 1818.08,-27.97 1921.32,-51.46 2321.32,-18.97"/>
<polygon fill="#63b8ff" stroke="#63b8ff" points="2321.75,-22.44 2331.43,-18.14 2321.17,-15.47 2321.75,-22.44"/>
</a>
</g>
</g>
<!-- Node36 -->
<g id="Node000036" class="node">
<title>Node36</title>
<g id="a_Node000036"><a xlink:title=" ">
<polygon fill="#e0e0e0" stroke="#999999" points="2559,-19 2467,-19 2467,0 2559,0 2559,-19"/>
<text text-anchor="middle" x="2513" y="-7" font-family="Helvetica,sans-Serif" font-size="10.00">assimp/scene.h</text>
</a>
</g>
</g>
<!-- Node3&#45;&gt;Node36 -->
<g id="edge35_Node000003_Node000036" class="edge">
<title>Node3&#45;&gt;Node36</title>
<g id="a_edge35_Node000003_Node000036"><a xlink:title=" ">
<path fill="none" stroke="#63b8ff" d="M1390.76,-57.5C1401.15,-56.55 1411.89,-55.66 1422,-55 1878.37,-25.06 1997.57,-61.72 2456.62,-19"/>
<polygon fill="#63b8ff" stroke="#63b8ff" points="2457.21,-22.46 2466.84,-18.04 2456.55,-15.49 2457.21,-22.46"/>
</a>
</g>
</g>
<!-- Node37 -->
<g id="Node000037" class="node">
<title>Node37</title>
<g id="a_Node000037"><a xlink:title=" ">
<polygon fill="#e0e0e0" stroke="#999999" points="2699,-19 2577,-19 2577,0 2699,0 2699,-19"/>
<text text-anchor="middle" x="2638" y="-7" font-family="Helvetica,sans-Serif" font-size="10.00">assimp/postprocess.h</text>
</a>
</g>
</g>
<!-- Node3&#45;&gt;Node37 -->
<g id="edge36_Node000003_Node000037" class="edge">
<title>Node3&#45;&gt;Node37</title>
<g id="a_edge36_Node000003_Node000037"><a xlink:title=" ">
<path fill="none" stroke="#63b8ff" d="M1390.76,-57.47C1401.14,-56.52 1411.89,-55.65 1422,-55 1927.19,-22.7 2058.17,-57.29 2566.77,-19.01"/>
<polygon fill="#63b8ff" stroke="#63b8ff" points="2567.24,-22.49 2576.95,-18.24 2566.71,-15.51 2567.24,-22.49"/>
</a>
</g>
</g>
<!-- Node38 -->
<g id="Node000038" class="node">
<title>Node38</title>
<g id="a_Node000038"><a xlink:href="Logger_8h.html" target="_top" xlink:title="デバッグログ出力システム">
<polygon fill="white" stroke="#666666" points="2795,-19 2717,-19 2717,0 2795,0 2795,-19"/>
<text text-anchor="middle" x="2756" y="-7" font-family="Helvetica,sans-Serif" font-size="10.00">Log/Logger.h</text>
</a>
</g>
</g>
<!-- Node3&#45;&gt;Node38 -->
<g id="edge37_Node000003_Node000038" class="edge">
<title>Node3&#45;&gt;Node38</title>
<g id="a_edge37_Node000003_Node000038"><a xlink:title=" ">
<path fill="none" stroke="#63b8ff" d="M1390.85,-56.65C1398.28,-56.02 1405.8,-55.45 1413,-55 1983.68,-19.49 2130.17,-77.01 2699,-19 2701.5,-18.74 2704.08,-18.43 2706.68,-18.08"/>
<polygon fill="#63b8ff" stroke="#63b8ff" points="2707.42,-21.51 2716.79,-16.57 2706.39,-14.59 2707.42,-21.51"/>
</a>
</g>
</g>
<!-- Node38&#45;&gt;Node3 -->
<g id="edge38_Node000038_Node000003" class="edge">
<title>Node38&#45;&gt;Node3</title>
<g id="a_edge38_Node000038_Node000003"><a xlink:title=" ">
<path fill="none" stroke="#63b8ff" d="M2716.58,-19.04C2148.1,-76.98 2001.54,-19.5 1431,-55 1421.23,-55.61 1410.87,-56.44 1400.68,-57.35"/>
<polygon fill="#63b8ff" stroke="#63b8ff" points="1400.22,-53.87 1390.58,-58.27 1400.86,-60.85 1400.22,-53.87"/>
</a>
</g>
</g>
<!-- Node40&#45;&gt;Node3 -->
<g id="edge41_Node000040_Node000003" class="edge">
<title>Node40&#45;&gt;Node3</title>
<g id="a_edge41_Node000040_Node000003"><a xlink:title=" ">
<path fill="none" stroke="#63b8ff" d="M1315.63,-109.75C1318.58,-102.65 1322.83,-92.4 1326.51,-83.56"/>
<polygon fill="#63b8ff" stroke="#63b8ff" points="1329.83,-84.67 1330.43,-74.09 1323.37,-81.98 1329.83,-84.67"/>
</a>
</g>
</g>
</g>
</svg>
