<?xml version="1.0" encoding="UTF-8" standalone="no"?>
<!DOCTYPE svg PUBLIC "-//W3C//DTD SVG 1.1//EN"
 "http://www.w3.org/Graphics/SVG/1.1/DTD/svg11.dtd">
<!-- Generated by graphviz version 2.43.0 (0)
 -->
<!-- Title: Engine/Source/Runtime/Components/Core/LocalToWorld.h Pages: 1 -->
<!--zoomable 313 -->

<svg id="main" version="1.1" xmlns="http://www.w3.org/2000/svg" xmlns:xlink="http://www.w3.org/1999/xlink" xml:space="preserve" onload="init(evt)">

<style type="text/css"><![CDATA[
.node, .edge {opacity: 0.7;}
.node.selected, .edge.selected {opacity: 1;}
.edge:hover path { stroke: red; }
.edge:hover polygon { stroke: red; fill: red; }
]]></style>

<defs>
  <circle id="rim" cx="0" cy="0" r="7"/>
  <circle id="rim2" cx="0" cy="0" r="3.5"/>
  <g id="zoomPlus">
    <use xlink:href="#rim" fill="#404040"><set attributeName="fill" to="#808080" begin="zoomplus.mouseover" end="zoomplus.mouseout"/></use>
    <path d="M-4,0h8M0,-4v8" fill="none" stroke="white" stroke-width="1.5" pointer-events="none"/>
  </g>
  <g id="zoomMin">
    <use xlink:href="#rim" fill="#404040"><set attributeName="fill" to="#808080" begin="zoomminus.mouseover" end="zoomminus.mouseout"/></use>
    <path d="M-4,0h8" fill="none" stroke="white" stroke-width="1.5" pointer-events="none"/>
  </g>
  <g id="arrowUp" transform="translate(30 24)">
    <use xlink:href="#rim"/>
    <path pointer-events="none" fill="none" stroke="white" stroke-width="1.5" d="M0,-3.0v7 M-2.5,-0.5L0,-3.0L2.5,-0.5"/>
  </g>
  <g id="arrowRight" transform="rotate(90) translate(36 -43)">
    <use xlink:href="#rim"/>
    <path pointer-events="none" fill="none" stroke="white" stroke-width="1.5" d="M0,-3.0v7 M-2.5,-0.5L0,-3.0L2.5,-0.5"/>
  </g>
  <g id="arrowDown" transform="rotate(180) translate(-30 -48)">
    <use xlink:href="#rim"/>
    <path pointer-events="none" fill="none" stroke="white" stroke-width="1.5" d="M0,-3.0v7 M-2.5,-0.5L0,-3.0L2.5,-0.5"/>
  </g>
  <g id="arrowLeft" transform="rotate(270) translate(-36 17)">
    <use xlink:href="#rim"/>
    <path pointer-events="none" fill="none" stroke="white" stroke-width="1.5" d="M0,-3.0v7 M-2.5,-0.5L0,-3.0L2.5,-0.5"/>
  </g>
  <g id="resetDef">
    <use xlink:href="#rim2" fill="#404040"><set attributeName="fill" to="#808080" begin="reset.mouseover" end="reset.mouseout"/></use>
  </g>
</defs>
<script type="application/ecmascript">
var viewWidth = 1292;
var viewHeight = 313;
var sectionId = 'dynsection-1';
</script>
<script type="application/ecmascript" xlink:href="svg.min.js"/>
<svg id="graph" class="graph">
<g id="viewport">
<title>Engine/Source/Runtime/Components/Core/LocalToWorld.h</title>
<!-- Node1 -->
<g id="Node000001" class="node">
<title>Node1</title>
<g id="a_Node000001"><a xlink:title="計算済みのワールド変換行列">
<polygon fill="#999999" stroke="#666666" points="802.5,-305 620.5,-305 620.5,-275 802.5,-275 802.5,-305"/>
<text text-anchor="start" x="628.5" y="-293" font-family="Helvetica,sans-Serif" font-size="10.00">Engine/Source/Runtime</text>
<text text-anchor="middle" x="711.5" y="-282" font-family="Helvetica,sans-Serif" font-size="10.00">/Components/Core/LocalToWorld.h</text>
</a>
</g>
</g>
<!-- Node2 -->
<g id="Node000002" class="node">
<title>Node2</title>
<g id="a_Node000002"><a xlink:href="RelationshipSystem_8h.html" target="_top" xlink:title="エンティティ間の親子・兄弟関係 (階層構造) を操作するシステム。">
<polygon fill="white" stroke="#666666" points="563,-233.5 366,-233.5 366,-203.5 563,-203.5 563,-233.5"/>
<text text-anchor="start" x="374" y="-221.5" font-family="Helvetica,sans-Serif" font-size="10.00">Engine/Source/Runtime</text>
<text text-anchor="middle" x="464.5" y="-210.5" font-family="Helvetica,sans-Serif" font-size="10.00">/Systems/Core/RelationshipSystem.h</text>
</a>
</g>
</g>
<!-- Node1&#45;&gt;Node2 -->
<g id="edge1_Node000001_Node000002" class="edge">
<title>Node1&#45;&gt;Node2</title>
<g id="a_edge1_Node000001_Node000002"><a xlink:title=" ">
<path fill="none" stroke="#63b8ff" d="M651.68,-272.17C609.65,-260.34 554.06,-244.7 514.41,-233.54"/>
<polygon fill="#63b8ff" stroke="#63b8ff" points="650.94,-275.6 661.52,-274.94 652.84,-268.86 650.94,-275.6"/>
</a>
</g>
</g>
<!-- Node3 -->
<g id="Node000003" class="node">
<title>Node3</title>
<g id="a_Node000003"><a xlink:href="SpanEngine_8h.html" target="_top" xlink:title=" ">
<polygon fill="white" stroke="#666666" points="789,-162 634,-162 634,-143 789,-143 789,-162"/>
<text text-anchor="middle" x="711.5" y="-150" font-family="Helvetica,sans-Serif" font-size="10.00">Engine/Source/SpanEngine.h</text>
</a>
</g>
</g>
<!-- Node1&#45;&gt;Node3 -->
<g id="edge19_Node000001_Node000003" class="edge">
<title>Node1&#45;&gt;Node3</title>
<g id="a_edge19_Node000001_Node000003"><a xlink:title=" ">
<path fill="none" stroke="#63b8ff" d="M647.14,-270.67C632.28,-263.29 618.27,-253.07 609.5,-239 599.86,-223.54 599.52,-213.25 609.5,-198 621.78,-179.25 643.87,-168.36 664.36,-162.05"/>
<polygon fill="#63b8ff" stroke="#63b8ff" points="645.91,-273.96 656.46,-274.91 648.81,-267.58 645.91,-273.96"/>
</a>
</g>
</g>
<!-- Node13 -->
<g id="Node000013" class="node">
<title>Node13</title>
<g id="a_Node000013"><a xlink:href="TransformSystem_8h.html" target="_top" xlink:title="ローカル座標からワールド座標への変換行列計算">
<polygon fill="white" stroke="#666666" points="804,-233.5 619,-233.5 619,-203.5 804,-203.5 804,-233.5"/>
<text text-anchor="start" x="627" y="-221.5" font-family="Helvetica,sans-Serif" font-size="10.00">Engine/Source/Runtime</text>
<text text-anchor="middle" x="711.5" y="-210.5" font-family="Helvetica,sans-Serif" font-size="10.00">/Systems/Core/TransformSystem.h</text>
</a>
</g>
</g>
<!-- Node1&#45;&gt;Node13 -->
<g id="edge13_Node000001_Node000013" class="edge">
<title>Node1&#45;&gt;Node13</title>
<g id="a_edge13_Node000001_Node000013"><a xlink:title=" ">
<path fill="none" stroke="#63b8ff" d="M711.5,-264.75C711.5,-254.31 711.5,-242.49 711.5,-233.54"/>
<polygon fill="#63b8ff" stroke="#63b8ff" points="708,-264.94 711.5,-274.94 715,-264.94 708,-264.94"/>
</a>
</g>
</g>
<!-- Node14 -->
<g id="Node000014" class="node">
<title>Node14</title>
<g id="a_Node000014"><a xlink:href="CameraSystem_8h.html" target="_top" xlink:title="カメラ行列の更新とレンダラーへの適用。">
<polygon fill="white" stroke="#666666" points="1015.5,-233.5 821.5,-233.5 821.5,-203.5 1015.5,-203.5 1015.5,-233.5"/>
<text text-anchor="start" x="829.5" y="-221.5" font-family="Helvetica,sans-Serif" font-size="10.00">Engine/Source/Runtime</text>
<text text-anchor="middle" x="918.5" y="-210.5" font-family="Helvetica,sans-Serif" font-size="10.00">/Systems/Graphics/CameraSystem.h</text>
</a>
</g>
</g>
<!-- Node1&#45;&gt;Node14 -->
<g id="edge15_Node000001_Node000014" class="edge">
<title>Node1&#45;&gt;Node14</title>
<g id="a_edge15_Node000001_Node000014"><a xlink:title=" ">
<path fill="none" stroke="#63b8ff" d="M762.97,-271.72C798.04,-259.95 843.86,-244.56 876.67,-233.54"/>
<polygon fill="#63b8ff" stroke="#63b8ff" points="761.76,-268.43 753.39,-274.94 763.98,-275.07 761.76,-268.43"/>
</a>
</g>
</g>
<!-- Node15 -->
<g id="Node000015" class="node">
<title>Node15</title>
<g id="a_Node000015"><a xlink:href="RenderingSystem_8h.html" target="_top" xlink:title="描画コマンド発行システム。">
<polygon fill="white" stroke="#666666" points="1193.5,-239 1033.5,-239 1033.5,-198 1193.5,-198 1193.5,-239"/>
<text text-anchor="start" x="1041.5" y="-227" font-family="Helvetica,sans-Serif" font-size="10.00">Engine/Source/Runtime</text>
<text text-anchor="start" x="1041.5" y="-216" font-family="Helvetica,sans-Serif" font-size="10.00">/Systems/Graphics/Rendering</text>
<text text-anchor="middle" x="1113.5" y="-205" font-family="Helvetica,sans-Serif" font-size="10.00">System.h</text>
</a>
</g>
</g>
<!-- Node1&#45;&gt;Node15 -->
<g id="edge17_Node000001_Node000015" class="edge">
<title>Node1&#45;&gt;Node15</title>
<g id="a_edge17_Node000001_Node000015"><a xlink:title=" ">
<path fill="none" stroke="#63b8ff" d="M812.9,-274.31C874.29,-265.04 954.08,-252.33 1024.5,-239 1027.45,-238.44 1030.46,-237.86 1033.49,-237.26"/>
<polygon fill="#63b8ff" stroke="#63b8ff" points="812.19,-270.87 802.82,-275.82 813.23,-277.8 812.19,-270.87"/>
</a>
</g>
</g>
<!-- Node2&#45;&gt;Node3 -->
<g id="edge2_Node000002_Node000003" class="edge">
<title>Node2&#45;&gt;Node3</title>
<g id="a_edge2_Node000002_Node000003"><a xlink:title=" ">
<path fill="none" stroke="#63b8ff" d="M528.4,-200.94C576.49,-188.48 640.43,-171.92 678.63,-162.02"/>
<polygon fill="#63b8ff" stroke="#63b8ff" points="527.51,-197.56 518.71,-203.45 529.26,-204.33 527.51,-197.56"/>
</a>
</g>
</g>
<!-- Node4 -->
<g id="Node000004" class="node">
<title>Node4</title>
<g id="a_Node000004"><a xlink:href="GuiManager_8cpp.html" target="_top" xlink:title=" ">
<polygon fill="white" stroke="#666666" points="117,-101.5 0,-101.5 0,-71.5 117,-71.5 117,-101.5"/>
<text text-anchor="start" x="8" y="-89.5" font-family="Helvetica,sans-Serif" font-size="10.00">Engine/Source/Editor</text>
<text text-anchor="middle" x="58.5" y="-78.5" font-family="Helvetica,sans-Serif" font-size="10.00">/GuiManager.cpp</text>
</a>
</g>
</g>
<!-- Node3&#45;&gt;Node4 -->
<g id="edge3_Node000003_Node000004" class="edge">
<title>Node3&#45;&gt;Node4</title>
<g id="a_edge3_Node000003_Node000004"><a xlink:title=" ">
<path fill="none" stroke="#63b8ff" d="M623.58,-150.36C508.5,-147.62 300.94,-138.31 126.5,-107 118.64,-105.59 110.39,-103.64 102.45,-101.51"/>
<polygon fill="#63b8ff" stroke="#63b8ff" points="623.66,-153.87 633.74,-150.6 623.82,-146.87 623.66,-153.87"/>
</a>
</g>
</g>
<!-- Node5 -->
<g id="Node000005" class="node">
<title>Node5</title>
<g id="a_Node000005"><a xlink:href="HierarchyPanel_8cpp.html" target="_top" xlink:title=" ">
<polygon fill="white" stroke="#666666" points="287.5,-107 135.5,-107 135.5,-66 287.5,-66 287.5,-107"/>
<text text-anchor="start" x="143.5" y="-95" font-family="Helvetica,sans-Serif" font-size="10.00">Engine/Source/Editor</text>
<text text-anchor="start" x="143.5" y="-84" font-family="Helvetica,sans-Serif" font-size="10.00">/Panels/Hierarchy/Hierarchy</text>
<text text-anchor="middle" x="211.5" y="-73" font-family="Helvetica,sans-Serif" font-size="10.00">Panel.cpp</text>
</a>
</g>
</g>
<!-- Node3&#45;&gt;Node5 -->
<g id="edge4_Node000003_Node000005" class="edge">
<title>Node3&#45;&gt;Node5</title>
<g id="a_edge4_Node000003_Node000005"><a xlink:title=" ">
<path fill="none" stroke="#63b8ff" d="M623.83,-145.14C539.55,-138.31 408.78,-125.83 296.5,-107 293.66,-106.52 290.78,-106.01 287.87,-105.47"/>
<polygon fill="#63b8ff" stroke="#63b8ff" points="623.63,-148.63 633.87,-145.94 624.19,-141.66 623.63,-148.63"/>
</a>
</g>
</g>
<!-- Node6 -->
<g id="Node000006" class="node">
<title>Node6</title>
<g id="a_Node000006"><a xlink:href="InspectorPanel_8cpp.html" target="_top" xlink:title=" ">
<polygon fill="white" stroke="#666666" points="453,-107 306,-107 306,-66 453,-66 453,-107"/>
<text text-anchor="start" x="314" y="-95" font-family="Helvetica,sans-Serif" font-size="10.00">Engine/Source/Editor</text>
<text text-anchor="start" x="314" y="-84" font-family="Helvetica,sans-Serif" font-size="10.00">/Panels/Inspector/Inspector</text>
<text text-anchor="middle" x="379.5" y="-73" font-family="Helvetica,sans-Serif" font-size="10.00">Panel.cpp</text>
</a>
</g>
</g>
<!-- Node3&#45;&gt;Node6 -->
<g id="edge5_Node000003_Node000006" class="edge">
<title>Node3&#45;&gt;Node6</title>
<g id="a_edge5_Node000003_Node000006"><a xlink:title=" ">
<path fill="none" stroke="#63b8ff" d="M648.78,-141.25C598.32,-132.78 525.67,-120.05 462.5,-107 459.46,-106.37 456.35,-105.71 453.22,-105.04"/>
<polygon fill="#63b8ff" stroke="#63b8ff" points="648.44,-144.74 658.88,-142.94 649.59,-137.84 648.44,-144.74"/>
</a>
</g>
</g>
<!-- Node7 -->
<g id="Node000007" class="node">
<title>Node7</title>
<g id="a_Node000007"><a xlink:href="ProjectBrowserPanel_8cpp.html" target="_top" xlink:title="ProjectBrowserPanelの実装。">
<polygon fill="white" stroke="#666666" points="611.5,-107 471.5,-107 471.5,-66 611.5,-66 611.5,-107"/>
<text text-anchor="start" x="479.5" y="-95" font-family="Helvetica,sans-Serif" font-size="10.00">Engine/Source/Editor</text>
<text text-anchor="start" x="479.5" y="-84" font-family="Helvetica,sans-Serif" font-size="10.00">/Panels/ProjectBrowser</text>
<text text-anchor="middle" x="541.5" y="-73" font-family="Helvetica,sans-Serif" font-size="10.00">/ProjectBrowserPanel.cpp</text>
</a>
</g>
</g>
<!-- Node3&#45;&gt;Node7 -->
<g id="edge6_Node000003_Node000007" class="edge">
<title>Node3&#45;&gt;Node7</title>
<g id="a_edge6_Node000003_Node000007"><a xlink:title=" ">
<path fill="none" stroke="#63b8ff" d="M679.13,-139.32C654.91,-130.19 621.28,-117.53 593.32,-107.01"/>
<polygon fill="#63b8ff" stroke="#63b8ff" points="677.98,-142.62 688.57,-142.87 680.45,-136.07 677.98,-142.62"/>
</a>
</g>
</g>
<!-- Node8 -->
<g id="Node000008" class="node">
<title>Node8</title>
<g id="a_Node000008"><a xlink:href="SceneViewPanel_8cpp.html" target="_top" xlink:title=" ">
<polygon fill="white" stroke="#666666" points="793.5,-107 629.5,-107 629.5,-66 793.5,-66 793.5,-107"/>
<text text-anchor="start" x="637.5" y="-95" font-family="Helvetica,sans-Serif" font-size="10.00">Engine/Source/Editor</text>
<text text-anchor="start" x="637.5" y="-84" font-family="Helvetica,sans-Serif" font-size="10.00">/Panels/SceneView/SceneView</text>
<text text-anchor="middle" x="711.5" y="-73" font-family="Helvetica,sans-Serif" font-size="10.00">Panel.cpp</text>
</a>
</g>
</g>
<!-- Node3&#45;&gt;Node8 -->
<g id="edge7_Node000003_Node000008" class="edge">
<title>Node3&#45;&gt;Node8</title>
<g id="a_edge7_Node000003_Node000008"><a xlink:title=" ">
<path fill="none" stroke="#63b8ff" d="M711.5,-132.63C711.5,-124.56 711.5,-115.15 711.5,-107.01"/>
<polygon fill="#63b8ff" stroke="#63b8ff" points="708,-132.87 711.5,-142.87 715,-132.87 708,-132.87"/>
</a>
</g>
</g>
<!-- Node9 -->
<g id="Node000009" class="node">
<title>Node9</title>
<g id="a_Node000009"><a xlink:href="Application_8cpp.html" target="_top" xlink:title=" ">
<polygon fill="white" stroke="#666666" points="941.5,-101.5 811.5,-101.5 811.5,-71.5 941.5,-71.5 941.5,-101.5"/>
<text text-anchor="start" x="819.5" y="-89.5" font-family="Helvetica,sans-Serif" font-size="10.00">Engine/Source/Runtime</text>
<text text-anchor="middle" x="876.5" y="-78.5" font-family="Helvetica,sans-Serif" font-size="10.00">/Application.cpp</text>
</a>
</g>
</g>
<!-- Node3&#45;&gt;Node9 -->
<g id="edge8_Node000003_Node000009" class="edge">
<title>Node3&#45;&gt;Node9</title>
<g id="a_edge8_Node000003_Node000009"><a xlink:title=" ">
<path fill="none" stroke="#63b8ff" d="M743.35,-139.15C771.04,-128.4 811.16,-112.85 840.11,-101.62"/>
<polygon fill="#63b8ff" stroke="#63b8ff" points="741.81,-135.99 733.75,-142.87 744.34,-142.52 741.81,-135.99"/>
</a>
</g>
</g>
<!-- Node10 -->
<g id="Node000010" class="node">
<title>Node10</title>
<g id="a_Node000010"><a xlink:href="AssetManager_8h.html" target="_top" xlink:title="エンジン全域のアセットライフサイクルを管理するシングルトン。">
<polygon fill="white" stroke="#666666" points="1105.5,-101.5 959.5,-101.5 959.5,-71.5 1105.5,-71.5 1105.5,-101.5"/>
<text text-anchor="start" x="967.5" y="-89.5" font-family="Helvetica,sans-Serif" font-size="10.00">Engine/Source/Runtime</text>
<text text-anchor="middle" x="1032.5" y="-78.5" font-family="Helvetica,sans-Serif" font-size="10.00">/Resource/AssetManager.h</text>
</a>
</g>
</g>
<!-- Node3&#45;&gt;Node10 -->
<g id="edge9_Node000003_Node000010" class="edge">
<title>Node3&#45;&gt;Node10</title>
<g id="a_edge9_Node000003_Node000010"><a xlink:title=" ">
<path fill="none" stroke="#63b8ff" d="M764.54,-141.11C811.26,-132.58 880.91,-119.84 941.5,-107 949.37,-105.33 957.65,-103.48 965.88,-101.6"/>
<polygon fill="#63b8ff" stroke="#63b8ff" points="763.84,-137.68 754.63,-142.92 765.1,-144.57 763.84,-137.68"/>
</a>
</g>
</g>
<!-- Node12 -->
<g id="Node000012" class="node">
<title>Node12</title>
<g id="a_Node000012"><a xlink:href="AssetSerializer_8cpp.html" target="_top" xlink:title="AssetSerializerの実装。">
<polygon fill="white" stroke="#666666" points="1283.5,-101.5 1123.5,-101.5 1123.5,-71.5 1283.5,-71.5 1283.5,-101.5"/>
<text text-anchor="start" x="1131.5" y="-89.5" font-family="Helvetica,sans-Serif" font-size="10.00">Engine/Source/Runtime</text>
<text text-anchor="middle" x="1203.5" y="-78.5" font-family="Helvetica,sans-Serif" font-size="10.00">/Resource/AssetSerializer.cpp</text>
</a>
</g>
</g>
<!-- Node3&#45;&gt;Node12 -->
<g id="edge12_Node000003_Node000012" class="edge">
<title>Node3&#45;&gt;Node12</title>
<g id="a_edge12_Node000003_Node000012"><a xlink:title=" ">
<path fill="none" stroke="#63b8ff" d="M799.1,-144.52C880.98,-137.35 1006.48,-124.75 1114.5,-107 1123.87,-105.46 1133.73,-103.57 1143.34,-101.58"/>
<polygon fill="#63b8ff" stroke="#63b8ff" points="798.75,-141.03 789.09,-145.38 799.35,-148.01 798.75,-141.03"/>
</a>
</g>
</g>
<!-- Node10&#45;&gt;Node3 -->
<g id="edge11_Node000010_Node000003" class="edge">
<title>Node10&#45;&gt;Node3</title>
<g id="a_edge11_Node000010_Node000003"><a xlink:title=" ">
<path fill="none" stroke="#63b8ff" d="M973.82,-103.87C968.99,-104.95 964.17,-106.01 959.5,-107 894.47,-120.78 818.99,-134.45 768.44,-142.92"/>
<polygon fill="#63b8ff" stroke="#63b8ff" points="974.74,-107.25 983.7,-101.6 973.17,-100.43 974.74,-107.25"/>
</a>
</g>
</g>
<!-- Node11 -->
<g id="Node000011" class="node">
<title>Node11</title>
<g id="a_Node000011"><a xlink:href="AssetManager_8cpp.html" target="_top" xlink:title="AssetManagerの実装。">
<polygon fill="white" stroke="#666666" points="1111,-30 954,-30 954,0 1111,0 1111,-30"/>
<text text-anchor="start" x="962" y="-18" font-family="Helvetica,sans-Serif" font-size="10.00">Engine/Source/Runtime</text>
<text text-anchor="middle" x="1032.5" y="-7" font-family="Helvetica,sans-Serif" font-size="10.00">/Resource/AssetManager.cpp</text>
</a>
</g>
</g>
<!-- Node10&#45;&gt;Node11 -->
<g id="edge10_Node000010_Node000011" class="edge">
<title>Node10&#45;&gt;Node11</title>
<g id="a_edge10_Node000010_Node000011"><a xlink:title=" ">
<path fill="none" stroke="#63b8ff" d="M1032.5,-61.25C1032.5,-50.81 1032.5,-38.99 1032.5,-30.04"/>
<polygon fill="#63b8ff" stroke="#63b8ff" points="1029,-61.44 1032.5,-71.44 1036,-61.44 1029,-61.44"/>
</a>
</g>
</g>
<!-- Node13&#45;&gt;Node3 -->
<g id="edge14_Node000013_Node000003" class="edge">
<title>Node13&#45;&gt;Node3</title>
<g id="a_edge14_Node000013_Node000003"><a xlink:title=" ">
<path fill="none" stroke="#63b8ff" d="M711.5,-193.1C711.5,-182.3 711.5,-170.28 711.5,-162.34"/>
<polygon fill="#63b8ff" stroke="#63b8ff" points="708,-193.3 711.5,-203.3 715,-193.3 708,-193.3"/>
</a>
</g>
</g>
<!-- Node14&#45;&gt;Node3 -->
<g id="edge16_Node000014_Node000003" class="edge">
<title>Node14&#45;&gt;Node3</title>
<g id="a_edge16_Node000014_Node000003"><a xlink:title=" ">
<path fill="none" stroke="#63b8ff" d="M863.42,-200.47C823.31,-188.07 770.66,-171.79 739.05,-162.02"/>
<polygon fill="#63b8ff" stroke="#63b8ff" points="862.49,-203.84 873.07,-203.45 864.55,-197.16 862.49,-203.84"/>
</a>
</g>
</g>
<!-- Node15&#45;&gt;Node3 -->
<g id="edge18_Node000015_Node000003" class="edge">
<title>Node15&#45;&gt;Node3</title>
<g id="a_edge18_Node000015_Node000003"><a xlink:title=" ">
<path fill="none" stroke="#63b8ff" d="M1023.11,-197.81C934.84,-182.14 843.59,-169.78 782.29,-162.04"/>
<polygon fill="#63b8ff" stroke="#63b8ff" points="1022.56,-201.27 1033.02,-199.59 1023.8,-194.38 1022.56,-201.27"/>
</a>
</g>
</g>
</g>
</svg>

<g id="navigator" transform="translate(0 0)" fill="#404254">
  <rect fill="#f2f5e9" fill-opacity="0.5" stroke="#606060" stroke-width=".5" x="0" y="0" width="60" height="60"/>
  <use id="zoomplus" xlink:href="#zoomPlus" x="17" y="9" onmousedown="handleZoom(evt,'in')"/>
  <use id="zoomminus" xlink:href="#zoomMin" x="42" y="9" onmousedown="handleZoom(evt,'out')"/>
  <use id="reset" xlink:href="#resetDef" x="30" y="36" onmousedown="handleReset()"/>
   <use id="arrowup" xlink:href="#arrowUp" x="0" y="0" onmousedown="handlePan(0,-1)"/>
  <use id="arrowright" xlink:href="#arrowRight" x="0" y="0" onmousedown="handlePan(1,0)"/>
  <use id="arrowdown" xlink:href="#arrowDown" x="0" y="0" onmousedown="handlePan(0,1)"/>
  <use id="arrowleft" xlink:href="#arrowLeft" x="0" y="0" onmousedown="handlePan(-1,0)"/>
</g>
<svg viewBox="0 0 15 15" width="100%" height="30px" preserveAspectRatio="xMaxYMin meet">
 <g id="arrow_out" transform="scale(0.3 0.3)">
  <a xlink:href="LocalToWorld_8h__dep__incl_org.svg" target="_base">
   <rect id="button" ry="5" rx="5" y="6" x="6" height="38" width="38"
        fill="#f2f5e9" fill-opacity="0.5" stroke="#606060" stroke-width="1.0"/>
   <path id="arrow"
     d="M 11.500037,31.436501 C 11.940474,20.09759 22.043105,11.32322 32.158766,21.979434 L 37.068811,17.246167 C 37.068811,17.246167 37.088388,32 37.088388,32 L 22.160133,31.978069 C 22.160133,31.978069 26.997745,27.140456 26.997745,27.140456 C 18.528582,18.264221 13.291696,25.230495 11.500037,31.436501 z"
     style="fill:#404040;"/>
  </a>
 </g>
</svg>

<style type='text/css'>
<![CDATA[
[data-mouse-over-selected='false'] { opacity: 0.7; }
[data-mouse-over-selected='true']  { opacity: 1.0; }
]]>
</style>
<script type="application/ecmascript"><![CDATA[
document.addEventListener('DOMContentLoaded', (event) => {
  highlightEdges();
  highlightAdjacentNodes();
});
]]></script>
</svg>
