<?xml version="1.0" encoding="UTF-8" standalone="no"?>
<!DOCTYPE svg PUBLIC "-//W3C//DTD SVG 1.1//EN"
 "http://www.w3.org/Graphics/SVG/1.1/DTD/svg11.dtd">
<!-- Generated by graphviz version 2.43.0 (0)
 -->
<!-- Title: Engine/Source/Runtime/Graphics/Resources/Material.h Pages: 1 -->
<svg width="853pt" height="390pt"
 viewBox="0.00 0.00 853.42 390.00" xmlns="http://www.w3.org/2000/svg" xmlns:xlink="http://www.w3.org/1999/xlink">
<g id="graph0" class="graph" transform="scale(1 1) rotate(0) translate(4 386)">
<title>Engine/Source/Runtime/Graphics/Resources/Material.h</title>
<!-- Node1 -->
<g id="Node000001" class="node">
<title>Node1</title>
<g id="a_Node000001"><a xlink:title="PBRマテリアルのパラメータ管理。">
<polygon fill="#999999" stroke="#666666" points="606.92,-382 438.92,-382 438.92,-352 606.92,-352 606.92,-382"/>
<text text-anchor="start" x="446.92" y="-370" font-family="Helvetica,sans-Serif" font-size="10.00">Engine/Source/Runtime</text>
<text text-anchor="middle" x="522.92" y="-359" font-family="Helvetica,sans-Serif" font-size="10.00">/Graphics/Resources/Material.h</text>
</a>
</g>
</g>
<!-- Node2 -->
<g id="Node000002" class="node">
<title>Node2</title>
<g id="a_Node000002"><a xlink:href="MeshRenderer_8h.html" target="_top" xlink:title="メッシュの描画設定とマテリアル参照。">
<polygon fill="white" stroke="#666666" points="679.92,-250 549.92,-250 549.92,-209 679.92,-209 679.92,-250"/>
<text text-anchor="start" x="557.92" y="-238" font-family="Helvetica,sans-Serif" font-size="10.00">Engine/Source/Runtime</text>
<text text-anchor="start" x="557.92" y="-227" font-family="Helvetica,sans-Serif" font-size="10.00">/Components/Graphics</text>
<text text-anchor="middle" x="614.92" y="-216" font-family="Helvetica,sans-Serif" font-size="10.00">/MeshRenderer.h</text>
</a>
</g>
</g>
<!-- Node1&#45;&gt;Node2 -->
<g id="edge1_Node000001_Node000002" class="edge">
<title>Node1&#45;&gt;Node2</title>
<g id="a_edge1_Node000001_Node000002"><a xlink:title=" ">
<path fill="none" stroke="#63b8ff" d="M538.35,-343.27C556.04,-317.21 584.76,-274.93 601.54,-250.21"/>
<polygon fill="#63b8ff" stroke="#63b8ff" points="535.31,-341.52 532.59,-351.76 541.1,-345.45 535.31,-341.52"/>
</a>
</g>
</g>
<!-- Node4 -->
<g id="Node000004" class="node">
<title>Node4</title>
<g id="a_Node000004"><a xlink:href="SpanEngine_8h.html" target="_top" xlink:title=" ">
<polygon fill="white" stroke="#666666" points="497.42,-96 342.42,-96 342.42,-77 497.42,-77 497.42,-96"/>
<text text-anchor="middle" x="419.92" y="-84" font-family="Helvetica,sans-Serif" font-size="10.00">Engine/Source/SpanEngine.h</text>
</a>
</g>
</g>
<!-- Node1&#45;&gt;Node4 -->
<g id="edge29_Node000001_Node000004" class="edge">
<title>Node1&#45;&gt;Node4</title>
<g id="a_edge29_Node000001_Node000004"><a xlink:title=" ">
<path fill="none" stroke="#63b8ff" d="M428.81,-365.38C302.37,-358.59 84.84,-324.32 9.92,-173 1.83,-156.67 -2.25,-145.56 9.92,-132 31.68,-107.75 229.72,-95.49 342.4,-90.43"/>
<polygon fill="#63b8ff" stroke="#63b8ff" points="428.72,-368.88 438.88,-365.87 429.06,-361.89 428.72,-368.88"/>
</a>
</g>
</g>
<!-- Node10 -->
<g id="Node000010" class="node">
<title>Node10</title>
<g id="a_Node000010"><a xlink:href="Renderer_8h.html" target="_top" xlink:title="描画パイプラインの構築と実行。">
<polygon fill="white" stroke="#666666" points="541.92,-316 411.92,-316 411.92,-286 541.92,-286 541.92,-316"/>
<text text-anchor="start" x="419.92" y="-304" font-family="Helvetica,sans-Serif" font-size="10.00">Engine/Source/Runtime</text>
<text text-anchor="middle" x="476.92" y="-293" font-family="Helvetica,sans-Serif" font-size="10.00">/Graphics/Renderer.h</text>
</a>
</g>
</g>
<!-- Node1&#45;&gt;Node10 -->
<g id="edge10_Node000001_Node000010" class="edge">
<title>Node1&#45;&gt;Node10</title>
<g id="a_edge10_Node000001_Node000010"><a xlink:title=" ">
<path fill="none" stroke="#63b8ff" d="M506.77,-343.53C500.23,-334.43 492.87,-324.19 487.1,-316.16"/>
<polygon fill="#63b8ff" stroke="#63b8ff" points="504.03,-345.72 512.71,-351.8 509.72,-341.63 504.03,-345.72"/>
</a>
</g>
</g>
<!-- Node17 -->
<g id="Node000017" class="node">
<title>Node17</title>
<g id="a_Node000017"><a xlink:href="Material_8cpp.html" target="_top" xlink:title=" ">
<polygon fill="white" stroke="#666666" points="777.42,-316 598.42,-316 598.42,-286 777.42,-286 777.42,-316"/>
<text text-anchor="start" x="606.42" y="-304" font-family="Helvetica,sans-Serif" font-size="10.00">Engine/Source/Runtime</text>
<text text-anchor="middle" x="687.92" y="-293" font-family="Helvetica,sans-Serif" font-size="10.00">/Graphics/Resources/Material.cpp</text>
</a>
</g>
</g>
<!-- Node1&#45;&gt;Node17 -->
<g id="edge28_Node000001_Node000017" class="edge">
<title>Node1&#45;&gt;Node17</title>
<g id="a_edge28_Node000001_Node000017"><a xlink:title=" ">
<path fill="none" stroke="#63b8ff" d="M568.49,-348.32C594.76,-338.14 627.31,-325.51 651.79,-316.01"/>
<polygon fill="#63b8ff" stroke="#63b8ff" points="567.19,-345.08 559.13,-351.95 569.72,-351.6 567.19,-345.08"/>
</a>
</g>
</g>
<!-- Node3 -->
<g id="Node000003" class="node">
<title>Node3</title>
<g id="a_Node000003"><a xlink:href="RenderingSystem_8h.html" target="_top" xlink:title="描画コマンド発行システム。">
<polygon fill="white" stroke="#666666" points="550.92,-173 390.92,-173 390.92,-132 550.92,-132 550.92,-173"/>
<text text-anchor="start" x="398.92" y="-161" font-family="Helvetica,sans-Serif" font-size="10.00">Engine/Source/Runtime</text>
<text text-anchor="start" x="398.92" y="-150" font-family="Helvetica,sans-Serif" font-size="10.00">/Systems/Graphics/Rendering</text>
<text text-anchor="middle" x="470.92" y="-139" font-family="Helvetica,sans-Serif" font-size="10.00">System.h</text>
</a>
</g>
</g>
<!-- Node2&#45;&gt;Node3 -->
<g id="edge2_Node000002_Node000003" class="edge">
<title>Node2&#45;&gt;Node3</title>
<g id="a_edge2_Node000002_Node000003"><a xlink:title=" ">
<path fill="none" stroke="#63b8ff" d="M568.48,-204.31C549.06,-194.2 526.79,-182.6 508.44,-173.04"/>
<polygon fill="#63b8ff" stroke="#63b8ff" points="566.97,-207.48 577.46,-208.99 570.21,-201.27 566.97,-207.48"/>
</a>
</g>
</g>
<!-- Node2&#45;&gt;Node4 -->
<g id="edge9_Node000002_Node000004" class="edge">
<title>Node2&#45;&gt;Node4</title>
<g id="a_edge9_Node000002_Node000004"><a xlink:title=" ">
<path fill="none" stroke="#63b8ff" d="M615.84,-198.54C614.84,-177.27 609.93,-149.49 592.92,-132 577.08,-115.72 522.71,-103.5 479.1,-96.02"/>
<polygon fill="#63b8ff" stroke="#63b8ff" points="612.34,-198.76 616.05,-208.69 619.34,-198.62 612.34,-198.76"/>
</a>
</g>
</g>
<!-- Node3&#45;&gt;Node4 -->
<g id="edge3_Node000003_Node000004" class="edge">
<title>Node3&#45;&gt;Node4</title>
<g id="a_edge3_Node000003_Node000004"><a xlink:title=" ">
<path fill="none" stroke="#63b8ff" d="M449.11,-124.13C441.12,-114.11 432.65,-103.47 426.9,-96.26"/>
<polygon fill="#63b8ff" stroke="#63b8ff" points="446.37,-126.31 455.34,-131.95 451.85,-121.95 446.37,-126.31"/>
</a>
</g>
</g>
<!-- Node5 -->
<g id="Node000005" class="node">
<title>Node5</title>
<g id="a_Node000005"><a xlink:href="GuiManager_8cpp.html" target="_top" xlink:title=" ">
<polygon fill="white" stroke="#666666" points="845.42,-35.5 728.42,-35.5 728.42,-5.5 845.42,-5.5 845.42,-35.5"/>
<text text-anchor="start" x="736.42" y="-23.5" font-family="Helvetica,sans-Serif" font-size="10.00">Engine/Source/Editor</text>
<text text-anchor="middle" x="786.92" y="-12.5" font-family="Helvetica,sans-Serif" font-size="10.00">/GuiManager.cpp</text>
</a>
</g>
</g>
<!-- Node4&#45;&gt;Node5 -->
<g id="edge4_Node000004_Node000005" class="edge">
<title>Node4&#45;&gt;Node5</title>
<g id="a_edge4_Node000004_Node000005"><a xlink:title=" ">
<path fill="none" stroke="#63b8ff" d="M506.19,-75.71C566.21,-68.16 647.89,-56.4 718.92,-41 726.12,-39.44 733.68,-37.54 741.04,-35.54"/>
<polygon fill="#63b8ff" stroke="#63b8ff" points="505.48,-72.27 495.99,-76.98 506.35,-79.22 505.48,-72.27"/>
</a>
</g>
</g>
<!-- Node6 -->
<g id="Node000006" class="node">
<title>Node6</title>
<g id="a_Node000006"><a xlink:href="HierarchyPanel_8cpp.html" target="_top" xlink:title=" ">
<polygon fill="white" stroke="#666666" points="361.92,-41 209.92,-41 209.92,0 361.92,0 361.92,-41"/>
<text text-anchor="start" x="217.92" y="-29" font-family="Helvetica,sans-Serif" font-size="10.00">Engine/Source/Editor</text>
<text text-anchor="start" x="217.92" y="-18" font-family="Helvetica,sans-Serif" font-size="10.00">/Panels/Hierarchy/Hierarchy</text>
<text text-anchor="middle" x="285.92" y="-7" font-family="Helvetica,sans-Serif" font-size="10.00">Panel.cpp</text>
</a>
</g>
</g>
<!-- Node4&#45;&gt;Node6 -->
<g id="edge5_Node000004_Node000006" class="edge">
<title>Node4&#45;&gt;Node6</title>
<g id="a_edge5_Node000004_Node000006"><a xlink:title=" ">
<path fill="none" stroke="#63b8ff" d="M392.6,-72.45C373.67,-63.41 348.12,-51.21 326.77,-41.01"/>
<polygon fill="#63b8ff" stroke="#63b8ff" points="391.32,-75.72 401.85,-76.87 394.33,-69.4 391.32,-75.72"/>
</a>
</g>
</g>
<!-- Node7 -->
<g id="Node000007" class="node">
<title>Node7</title>
<g id="a_Node000007"><a xlink:href="InspectorPanel_8cpp.html" target="_top" xlink:title=" ">
<polygon fill="white" stroke="#666666" points="527.42,-41 380.42,-41 380.42,0 527.42,0 527.42,-41"/>
<text text-anchor="start" x="388.42" y="-29" font-family="Helvetica,sans-Serif" font-size="10.00">Engine/Source/Editor</text>
<text text-anchor="start" x="388.42" y="-18" font-family="Helvetica,sans-Serif" font-size="10.00">/Panels/Inspector/Inspector</text>
<text text-anchor="middle" x="453.92" y="-7" font-family="Helvetica,sans-Serif" font-size="10.00">Panel.cpp</text>
</a>
</g>
</g>
<!-- Node4&#45;&gt;Node7 -->
<g id="edge6_Node000004_Node000007" class="edge">
<title>Node4&#45;&gt;Node7</title>
<g id="a_edge6_Node000004_Node000007"><a xlink:title=" ">
<path fill="none" stroke="#63b8ff" d="M429.21,-68.01C433.65,-59.65 438.98,-49.62 443.55,-41.01"/>
<polygon fill="#63b8ff" stroke="#63b8ff" points="426.11,-66.4 424.5,-76.87 432.29,-69.68 426.11,-66.4"/>
</a>
</g>
</g>
<!-- Node8 -->
<g id="Node000008" class="node">
<title>Node8</title>
<g id="a_Node000008"><a xlink:href="SceneViewPanel_8cpp.html" target="_top" xlink:title=" ">
<polygon fill="white" stroke="#666666" points="709.92,-41 545.92,-41 545.92,0 709.92,0 709.92,-41"/>
<text text-anchor="start" x="553.92" y="-29" font-family="Helvetica,sans-Serif" font-size="10.00">Engine/Source/Editor</text>
<text text-anchor="start" x="553.92" y="-18" font-family="Helvetica,sans-Serif" font-size="10.00">/Panels/SceneView/SceneView</text>
<text text-anchor="middle" x="627.92" y="-7" font-family="Helvetica,sans-Serif" font-size="10.00">Panel.cpp</text>
</a>
</g>
</g>
<!-- Node4&#45;&gt;Node8 -->
<g id="edge7_Node000004_Node000008" class="edge">
<title>Node4&#45;&gt;Node8</title>
<g id="a_edge7_Node000004_Node000008"><a xlink:title=" ">
<path fill="none" stroke="#63b8ff" d="M457.56,-73.92C487.33,-64.76 529.55,-51.77 564.51,-41.01"/>
<polygon fill="#63b8ff" stroke="#63b8ff" points="456.5,-70.58 447.97,-76.87 458.56,-77.27 456.5,-70.58"/>
</a>
</g>
</g>
<!-- Node9 -->
<g id="Node000009" class="node">
<title>Node9</title>
<g id="a_Node000009"><a xlink:href="Application_8cpp.html" target="_top" xlink:title=" ">
<polygon fill="white" stroke="#666666" points="191.92,-35.5 61.92,-35.5 61.92,-5.5 191.92,-5.5 191.92,-35.5"/>
<text text-anchor="start" x="69.92" y="-23.5" font-family="Helvetica,sans-Serif" font-size="10.00">Engine/Source/Runtime</text>
<text text-anchor="middle" x="126.92" y="-12.5" font-family="Helvetica,sans-Serif" font-size="10.00">/Application.cpp</text>
</a>
</g>
</g>
<!-- Node4&#45;&gt;Node9 -->
<g id="edge8_Node000004_Node000009" class="edge">
<title>Node4&#45;&gt;Node9</title>
<g id="a_edge8_Node000004_Node000009"><a xlink:title=" ">
<path fill="none" stroke="#63b8ff" d="M364.03,-75.06C319.66,-66.55 256.13,-53.87 200.92,-41 193.67,-39.31 186.06,-37.43 178.58,-35.52"/>
<polygon fill="#63b8ff" stroke="#63b8ff" points="363.55,-78.53 374.03,-76.97 364.87,-71.65 363.55,-78.53"/>
</a>
</g>
</g>
<!-- Node10&#45;&gt;Node3 -->
<g id="edge26_Node000010_Node000003" class="edge">
<title>Node10&#45;&gt;Node3</title>
<g id="a_edge26_Node000010_Node000003"><a xlink:title=" ">
<path fill="none" stroke="#63b8ff" d="M475.92,-275.58C474.74,-246.88 472.82,-199.8 471.73,-173.27"/>
<polygon fill="#63b8ff" stroke="#63b8ff" points="472.44,-276.1 476.34,-285.95 479.43,-275.82 472.44,-276.1"/>
</a>
</g>
</g>
<!-- Node10&#45;&gt;Node4 -->
<g id="edge27_Node000010_Node000004" class="edge">
<title>Node10&#45;&gt;Node4</title>
<g id="a_edge27_Node000010_Node000004"><a xlink:title=" ">
<path fill="none" stroke="#63b8ff" d="M492.6,-277.55C515.69,-244.27 556.49,-184.53 559.92,-173 565.12,-155.54 570.68,-146.71 559.92,-132 548.59,-116.51 502.19,-103.85 465.88,-96.05"/>
<polygon fill="#63b8ff" stroke="#63b8ff" points="489.71,-275.57 486.87,-285.78 495.46,-279.57 489.71,-275.57"/>
</a>
</g>
</g>
<!-- Node11 -->
<g id="Node000011" class="node">
<title>Node11</title>
<g id="a_Node000011"><a xlink:href="GuiManager_8h.html" target="_top" xlink:title="ImGuiのライフサイクルとレンダリング管理。">
<polygon fill="white" stroke="#666666" points="765.42,-167.5 648.42,-167.5 648.42,-137.5 765.42,-137.5 765.42,-167.5"/>
<text text-anchor="start" x="656.42" y="-155.5" font-family="Helvetica,sans-Serif" font-size="10.00">Engine/Source/Editor</text>
<text text-anchor="middle" x="706.92" y="-144.5" font-family="Helvetica,sans-Serif" font-size="10.00">/GuiManager.h</text>
</a>
</g>
</g>
<!-- Node10&#45;&gt;Node11 -->
<g id="edge11_Node000010_Node000011" class="edge">
<title>Node10&#45;&gt;Node11</title>
<g id="a_edge11_Node000010_Node000011"><a xlink:title=" ">
<path fill="none" stroke="#63b8ff" d="M552.13,-291.01C605.21,-283.1 670.1,-269.73 688.92,-250 710.21,-227.68 710.39,-188.68 708.67,-167.75"/>
<polygon fill="#63b8ff" stroke="#63b8ff" points="551.42,-287.58 542.03,-292.47 552.43,-294.5 551.42,-287.58"/>
</a>
</g>
</g>
<!-- Node13 -->
<g id="Node000013" class="node">
<title>Node13</title>
<g id="a_Node000013"><a xlink:href="Application_8h.html" target="_top" xlink:title="エンジンのメインループとライフサイクル管理。">
<polygon fill="white" stroke="#666666" points="249.92,-244.5 119.92,-244.5 119.92,-214.5 249.92,-214.5 249.92,-244.5"/>
<text text-anchor="start" x="127.92" y="-232.5" font-family="Helvetica,sans-Serif" font-size="10.00">Engine/Source/Runtime</text>
<text text-anchor="middle" x="184.92" y="-221.5" font-family="Helvetica,sans-Serif" font-size="10.00">/Application.h</text>
</a>
</g>
</g>
<!-- Node10&#45;&gt;Node13 -->
<g id="edge18_Node000010_Node000013" class="edge">
<title>Node10&#45;&gt;Node13</title>
<g id="a_edge18_Node000010_Node000013"><a xlink:title=" ">
<path fill="none" stroke="#63b8ff" d="M408.08,-283.62C358.18,-271.74 291.39,-255.84 243.92,-244.54"/>
<polygon fill="#63b8ff" stroke="#63b8ff" points="407.29,-287.02 417.83,-285.94 408.91,-280.22 407.29,-287.02"/>
</a>
</g>
</g>
<!-- Node16 -->
<g id="Node000016" class="node">
<title>Node16</title>
<g id="a_Node000016"><a xlink:href="Renderer_8cpp.html" target="_top" xlink:title=" ">
<polygon fill="white" stroke="#666666" points="448.92,-244.5 318.92,-244.5 318.92,-214.5 448.92,-214.5 448.92,-244.5"/>
<text text-anchor="start" x="326.92" y="-232.5" font-family="Helvetica,sans-Serif" font-size="10.00">Engine/Source/Runtime</text>
<text text-anchor="middle" x="383.92" y="-221.5" font-family="Helvetica,sans-Serif" font-size="10.00">/Graphics/Renderer.cpp</text>
</a>
</g>
</g>
<!-- Node10&#45;&gt;Node16 -->
<g id="edge25_Node000010_Node000016" class="edge">
<title>Node10&#45;&gt;Node16</title>
<g id="a_edge25_Node000010_Node000016"><a xlink:title=" ">
<path fill="none" stroke="#63b8ff" d="M450.08,-279.94C434.91,-268.6 416.32,-254.71 402.71,-244.54"/>
<polygon fill="#63b8ff" stroke="#63b8ff" points="447.99,-282.75 458.1,-285.94 452.18,-277.15 447.99,-282.75"/>
</a>
</g>
</g>
<!-- Node11&#45;&gt;Node5 -->
<g id="edge12_Node000011_Node000005" class="edge">
<title>Node11&#45;&gt;Node5</title>
<g id="a_edge12_Node000011_Node000005"><a xlink:title=" ">
<path fill="none" stroke="#63b8ff" d="M721.01,-128.6C737.55,-101.73 764.46,-58 778.22,-35.64"/>
<polygon fill="#63b8ff" stroke="#63b8ff" points="717.89,-126.99 715.63,-137.34 723.85,-130.66 717.89,-126.99"/>
</a>
</g>
</g>
<!-- Node11&#45;&gt;Node9 -->
<g id="edge13_Node000011_Node000009" class="edge">
<title>Node11&#45;&gt;Node9</title>
<g id="a_edge13_Node000011_Node000009"><a xlink:title=" ">
<path fill="none" stroke="#63b8ff" d="M650.66,-134.27C619.17,-124.12 579.43,-110.46 544.92,-96 527.5,-88.7 525.01,-82.41 506.92,-77 375.71,-37.79 335.46,-66.51 200.92,-41 192.96,-39.49 184.59,-37.59 176.46,-35.58"/>
<polygon fill="#63b8ff" stroke="#63b8ff" points="649.98,-137.73 660.57,-137.44 652.11,-131.06 649.98,-137.73"/>
</a>
</g>
</g>
<!-- Node12 -->
<g id="Node000012" class="node">
<title>Node12</title>
<g id="a_Node000012"><a xlink:href="SpanEditor_8h.html" target="_top" xlink:title=" ">
<polygon fill="white" stroke="#666666" points="702.42,-96 553.42,-96 553.42,-77 702.42,-77 702.42,-96"/>
<text text-anchor="middle" x="627.92" y="-84" font-family="Helvetica,sans-Serif" font-size="10.00">Engine/Source/SpanEditor.h</text>
</a>
</g>
</g>
<!-- Node11&#45;&gt;Node12 -->
<g id="edge14_Node000011_Node000012" class="edge">
<title>Node11&#45;&gt;Node12</title>
<g id="a_edge14_Node000011_Node000012"><a xlink:title=" ">
<path fill="none" stroke="#63b8ff" d="M681.32,-130.76C666.94,-119.11 649.75,-105.19 638.84,-96.34"/>
<polygon fill="#63b8ff" stroke="#63b8ff" points="679.41,-133.72 689.39,-137.3 683.82,-128.28 679.41,-133.72"/>
</a>
</g>
</g>
<!-- Node12&#45;&gt;Node6 -->
<g id="edge15_Node000012_Node000006" class="edge">
<title>Node12&#45;&gt;Node6</title>
<g id="a_edge15_Node000012_Node000006"><a xlink:title=" ">
<path fill="none" stroke="#63b8ff" d="M564.27,-75.36C512.37,-66.87 437.23,-54.07 371.92,-41 368.77,-40.37 365.55,-39.71 362.31,-39.03"/>
<polygon fill="#63b8ff" stroke="#63b8ff" points="563.89,-78.84 574.33,-77 565.02,-71.94 563.89,-78.84"/>
</a>
</g>
</g>
<!-- Node12&#45;&gt;Node7 -->
<g id="edge16_Node000012_Node000007" class="edge">
<title>Node12&#45;&gt;Node7</title>
<g id="a_edge16_Node000012_Node000007"><a xlink:title=" ">
<path fill="none" stroke="#63b8ff" d="M594.79,-73.32C570,-64.19 535.57,-51.53 506.96,-41.01"/>
<polygon fill="#63b8ff" stroke="#63b8ff" points="593.86,-76.7 604.45,-76.87 596.28,-70.13 593.86,-76.7"/>
</a>
</g>
</g>
<!-- Node12&#45;&gt;Node8 -->
<g id="edge17_Node000012_Node000008" class="edge">
<title>Node12&#45;&gt;Node8</title>
<g id="a_edge17_Node000012_Node000008"><a xlink:title=" ">
<path fill="none" stroke="#63b8ff" d="M627.92,-66.63C627.92,-58.56 627.92,-49.15 627.92,-41.01"/>
<polygon fill="#63b8ff" stroke="#63b8ff" points="624.42,-66.87 627.92,-76.87 631.42,-66.87 624.42,-66.87"/>
</a>
</g>
</g>
<!-- Node13&#45;&gt;Node3 -->
<g id="edge23_Node000013_Node000003" class="edge">
<title>Node13&#45;&gt;Node3</title>
<g id="a_edge23_Node000013_Node000003"><a xlink:title=" ">
<path fill="none" stroke="#63b8ff" d="M248.33,-211.87C292.09,-200.4 350.44,-185.09 396.42,-173.04"/>
<polygon fill="#63b8ff" stroke="#63b8ff" points="247.16,-208.56 238.38,-214.48 248.94,-215.33 247.16,-208.56"/>
</a>
</g>
</g>
<!-- Node13&#45;&gt;Node4 -->
<g id="edge24_Node000013_Node000004" class="edge">
<title>Node13&#45;&gt;Node4</title>
<g id="a_edge24_Node000013_Node000004"><a xlink:title=" ">
<path fill="none" stroke="#63b8ff" d="M109.72,-222.08C77.19,-215.13 42.03,-201.09 21.92,-173 11.31,-158.18 9.77,-145.58 21.92,-132 42.86,-108.58 232.64,-96.05 342.4,-90.7"/>
<polygon fill="#63b8ff" stroke="#63b8ff" points="109.23,-225.55 119.71,-224.01 110.56,-218.67 109.23,-225.55"/>
</a>
</g>
</g>
<!-- Node13&#45;&gt;Node9 -->
<g id="edge19_Node000013_Node000009" class="edge">
<title>Node13&#45;&gt;Node9</title>
<g id="a_edge19_Node000013_Node000009"><a xlink:title=" ">
<path fill="none" stroke="#63b8ff" d="M109.76,-224.53C73.42,-218.35 32.81,-204.27 9.92,-173 -27.77,-121.51 56.89,-62.04 101.57,-35.52"/>
<polygon fill="#63b8ff" stroke="#63b8ff" points="109.47,-228.02 119.88,-226.07 110.52,-221.1 109.47,-228.02"/>
</a>
</g>
</g>
<!-- Node14 -->
<g id="Node000014" class="node">
<title>Node14</title>
<g id="a_Node000014"><a xlink:href="EntryPoint_8h.html" target="_top" xlink:title="アプリケーションのエントリーポイント (main関数)。">
<polygon fill="white" stroke="#666666" points="372.92,-167.5 242.92,-167.5 242.92,-137.5 372.92,-137.5 372.92,-167.5"/>
<text text-anchor="start" x="250.92" y="-155.5" font-family="Helvetica,sans-Serif" font-size="10.00">Engine/Source/Runtime</text>
<text text-anchor="middle" x="307.92" y="-144.5" font-family="Helvetica,sans-Serif" font-size="10.00">/EntryPoint.h</text>
</a>
</g>
</g>
<!-- Node13&#45;&gt;Node14 -->
<g id="edge20_Node000013_Node000014" class="edge">
<title>Node13&#45;&gt;Node14</title>
<g id="a_edge20_Node000013_Node000014"><a xlink:title=" ">
<path fill="none" stroke="#63b8ff" d="M216.77,-209.08C238.1,-196.08 265.68,-179.26 284.89,-167.54"/>
<polygon fill="#63b8ff" stroke="#63b8ff" points="214.77,-206.2 208.05,-214.39 218.41,-212.18 214.77,-206.2"/>
</a>
</g>
</g>
<!-- Node15 -->
<g id="Node000015" class="node">
<title>Node15</title>
<g id="a_Node000015"><a xlink:href="CameraSystem_8h.html" target="_top" xlink:title="カメラ行列の更新とレンダラーへの適用。">
<polygon fill="white" stroke="#666666" points="224.92,-167.5 30.92,-167.5 30.92,-137.5 224.92,-137.5 224.92,-167.5"/>
<text text-anchor="start" x="38.92" y="-155.5" font-family="Helvetica,sans-Serif" font-size="10.00">Engine/Source/Runtime</text>
<text text-anchor="middle" x="127.92" y="-144.5" font-family="Helvetica,sans-Serif" font-size="10.00">/Systems/Graphics/CameraSystem.h</text>
</a>
</g>
</g>
<!-- Node13&#45;&gt;Node15 -->
<g id="edge21_Node000013_Node000015" class="edge">
<title>Node13&#45;&gt;Node15</title>
<g id="a_edge21_Node000013_Node000015"><a xlink:title=" ">
<path fill="none" stroke="#63b8ff" d="M168,-206.24C158.47,-193.7 146.86,-178.42 138.59,-167.54"/>
<polygon fill="#63b8ff" stroke="#63b8ff" points="165.36,-208.55 174.2,-214.39 170.93,-204.31 165.36,-208.55"/>
</a>
</g>
</g>
<!-- Node15&#45;&gt;Node4 -->
<g id="edge22_Node000015_Node000004" class="edge">
<title>Node15&#45;&gt;Node4</title>
<g id="a_edge22_Node000015_Node000004"><a xlink:title=" ">
<path fill="none" stroke="#63b8ff" d="M202.05,-135.25C259.05,-122.76 335.52,-106 381.06,-96.02"/>
<polygon fill="#63b8ff" stroke="#63b8ff" points="201.02,-131.9 192,-137.45 202.52,-138.73 201.02,-131.9"/>
</a>
</g>
</g>
</g>
</svg>
