<?xml version="1.0" encoding="UTF-8" standalone="no"?>
<!DOCTYPE svg PUBLIC "-//W3C//DTD SVG 1.1//EN"
 "http://www.w3.org/Graphics/SVG/1.1/DTD/svg11.dtd">
<!-- Generated by graphviz version 2.43.0 (0)
 -->
<!-- Title: Engine/Source/Runtime/Graphics/Resources/Material.h Pages: 1 -->
<!--zoomable 390 -->

<svg id="main" version="1.1" xmlns="http://www.w3.org/2000/svg" xmlns:xlink="http://www.w3.org/1999/xlink" xml:space="preserve" onload="init(evt)">

<style type="text/css"><![CDATA[
.node, .edge {opacity: 0.7;}
.node.selected, .edge.selected {opacity: 1;}
.edge:hover path { stroke: red; }
.edge:hover polygon { stroke: red; fill: red; }
]]></style>

<defs>
  <circle id="rim" cx="0" cy="0" r="7"/>
  <circle id="rim2" cx="0" cy="0" r="3.5"/>
  <g id="zoomPlus">
    <use xlink:href="#rim" fill="#404040"><set attributeName="fill" to="#808080" begin="zoomplus.mouseover" end="zoomplus.mouseout"/></use>
    <path d="M-4,0h8M0,-4v8" fill="none" stroke="white" stroke-width="1.5" pointer-events="none"/>
  </g>
  <g id="zoomMin">
    <use xlink:href="#rim" fill="#404040"><set attributeName="fill" to="#808080" begin="zoomminus.mouseover" end="zoomminus.mouseout"/></use>
    <path d="M-4,0h8" fill="none" stroke="white" stroke-width="1.5" pointer-events="none"/>
  </g>
  <g id="arrowUp" transform="translate(30 24)">
    <use xlink:href="#rim"/>
    <path pointer-events="none" fill="none" stroke="white" stroke-width="1.5" d="M0,-3.0v7 M-2.5,-0.5L0,-3.0L2.5,-0.5"/>
  </g>
  <g id="arrowRight" transform="rotate(90) translate(36 -43)">
    <use xlink:href="#rim"/>
    <path pointer-events="none" fill="none" stroke="white" stroke-width="1.5" d="M0,-3.0v7 M-2.5,-0.5L0,-3.0L2.5,-0.5"/>
  </g>
  <g id="arrowDown" transform="rotate(180) translate(-30 -48)">
    <use xlink:href="#rim"/>
    <path pointer-events="none" fill="none" stroke="white" stroke-width="1.5" d="M0,-3.0v7 M-2.5,-0.5L0,-3.0L2.5,-0.5"/>
  </g>
  <g id="arrowLeft" transform="rotate(270) translate(-36 17)">
    <use xlink:href="#rim"/>
    <path pointer-events="none" fill="none" stroke="white" stroke-width="1.5" d="M0,-3.0v7 M-2.5,-0.5L0,-3.0L2.5,-0.5"/>
  </g>
  <g id="resetDef">
    <use xlink:href="#rim2" fill="#404040"><set attributeName="fill" to="#808080" begin="reset.mouseover" end="reset.mouseout"/></use>
  </g>
</defs>
<script type="application/ecmascript">
var viewWidth = 1430;
var viewHeight = 390;
var sectionId = 'dynsection-1';
</script>
<script type="application/ecmascript" xlink:href="svg.min.js"/>
<svg id="graph" class="graph">
<g id="viewport">
<title>Engine/Source/Runtime/Graphics/Resources/Material.h</title>
<!-- Node1 -->
<g id="Node000001" class="node">
<title>Node1</title>
<g id="a_Node000001"><a xlink:title="PBRマテリアルのパラメータ管理。">
<polygon fill="#999999" stroke="#666666" points="960.5,-382 792.5,-382 792.5,-352 960.5,-352 960.5,-382"/>
<text text-anchor="start" x="800.5" y="-370" font-family="Helvetica,sans-Serif" font-size="10.00">Engine/Source/Runtime</text>
<text text-anchor="middle" x="876.5" y="-359" font-family="Helvetica,sans-Serif" font-size="10.00">/Graphics/Resources/Material.h</text>
</a>
</g>
</g>
<!-- Node2 -->
<g id="Node000002" class="node">
<title>Node2</title>
<g id="a_Node000002"><a xlink:href="MeshRenderer_8h.html" target="_top" xlink:title="メッシュの描画設定とマテリアル参照。">
<polygon fill="white" stroke="#666666" points="996.5,-250 866.5,-250 866.5,-209 996.5,-209 996.5,-250"/>
<text text-anchor="start" x="874.5" y="-238" font-family="Helvetica,sans-Serif" font-size="10.00">Engine/Source/Runtime</text>
<text text-anchor="start" x="874.5" y="-227" font-family="Helvetica,sans-Serif" font-size="10.00">/Components/Graphics</text>
<text text-anchor="middle" x="931.5" y="-216" font-family="Helvetica,sans-Serif" font-size="10.00">/MeshRenderer.h</text>
</a>
</g>
</g>
<!-- Node1&#45;&gt;Node2 -->
<g id="edge1_Node000001_Node000002" class="edge">
<title>Node1&#45;&gt;Node2</title>
<g id="a_edge1_Node000001_Node000002"><a xlink:title=" ">
<path fill="none" stroke="#63b8ff" d="M880.04,-341.69C882.94,-325.47 887.83,-303.91 895.5,-286 900.92,-273.33 909.17,-260.34 916.4,-250.12"/>
<polygon fill="#63b8ff" stroke="#63b8ff" points="876.53,-341.52 878.35,-351.96 883.43,-342.66 876.53,-341.52"/>
</a>
</g>
</g>
<!-- Node4 -->
<g id="Node000004" class="node">
<title>Node4</title>
<g id="a_Node000004"><a xlink:href="SpanEngine_8h.html" target="_top" xlink:title=" ">
<polygon fill="white" stroke="#666666" points="794,-96 639,-96 639,-77 794,-77 794,-96"/>
<text text-anchor="middle" x="716.5" y="-84" font-family="Helvetica,sans-Serif" font-size="10.00">Engine/Source/SpanEngine.h</text>
</a>
</g>
</g>
<!-- Node1&#45;&gt;Node4 -->
<g id="edge37_Node000001_Node000004" class="edge">
<title>Node1&#45;&gt;Node4</title>
<g id="a_edge37_Node000001_Node000004"><a xlink:title=" ">
<path fill="none" stroke="#63b8ff" d="M872.36,-341.71C862.25,-282.65 836.88,-136.05 833.5,-132 817.85,-113.21 793.36,-102.35 770.82,-96.06"/>
<polygon fill="#63b8ff" stroke="#63b8ff" points="868.92,-342.39 874.06,-351.66 875.82,-341.22 868.92,-342.39"/>
</a>
</g>
</g>
<!-- Node14 -->
<g id="Node000014" class="node">
<title>Node14</title>
<g id="a_Node000014"><a xlink:href="Renderer_8h.html" target="_top" xlink:title="描画パイプラインの構築と実行。">
<polygon fill="white" stroke="#666666" points="479.5,-316 349.5,-316 349.5,-286 479.5,-286 479.5,-316"/>
<text text-anchor="start" x="357.5" y="-304" font-family="Helvetica,sans-Serif" font-size="10.00">Engine/Source/Runtime</text>
<text text-anchor="middle" x="414.5" y="-293" font-family="Helvetica,sans-Serif" font-size="10.00">/Graphics/Renderer.h</text>
</a>
</g>
</g>
<!-- Node1&#45;&gt;Node14 -->
<g id="edge14_Node000001_Node000014" class="edge">
<title>Node1&#45;&gt;Node14</title>
<g id="a_edge14_Node000001_Node000014"><a xlink:title=" ">
<path fill="none" stroke="#63b8ff" d="M782.36,-352.96C692.29,-340.48 558.82,-321.99 479.85,-311.05"/>
<polygon fill="#63b8ff" stroke="#63b8ff" points="781.91,-356.43 792.3,-354.34 782.87,-349.5 781.91,-356.43"/>
</a>
</g>
</g>
<!-- Node21 -->
<g id="Node000021" class="node">
<title>Node21</title>
<g id="a_Node000021"><a xlink:href="Material_8cpp.html" target="_top" xlink:title=" ">
<polygon fill="white" stroke="#666666" points="1084,-316 905,-316 905,-286 1084,-286 1084,-316"/>
<text text-anchor="start" x="913" y="-304" font-family="Helvetica,sans-Serif" font-size="10.00">Engine/Source/Runtime</text>
<text text-anchor="middle" x="994.5" y="-293" font-family="Helvetica,sans-Serif" font-size="10.00">/Graphics/Resources/Material.cpp</text>
</a>
</g>
</g>
<!-- Node1&#45;&gt;Node21 -->
<g id="edge33_Node000001_Node000021" class="edge">
<title>Node1&#45;&gt;Node21</title>
<g id="a_edge33_Node000001_Node000021"><a xlink:title=" ">
<path fill="none" stroke="#63b8ff" d="M911.34,-347.11C929.7,-337.14 951.85,-325.13 968.66,-316.01"/>
<polygon fill="#63b8ff" stroke="#63b8ff" points="909.52,-344.11 902.4,-351.95 912.85,-350.26 909.52,-344.11"/>
</a>
</g>
</g>
<!-- Node22 -->
<g id="Node000022" class="node">
<title>Node22</title>
<g id="a_Node000022"><a xlink:href="AssetManager_8h.html" target="_top" xlink:title="エンジン全域のアセットライフサイクルを管理するシングルトン。">
<polygon fill="white" stroke="#666666" points="1248.5,-316 1102.5,-316 1102.5,-286 1248.5,-286 1248.5,-316"/>
<text text-anchor="start" x="1110.5" y="-304" font-family="Helvetica,sans-Serif" font-size="10.00">Engine/Source/Runtime</text>
<text text-anchor="middle" x="1175.5" y="-293" font-family="Helvetica,sans-Serif" font-size="10.00">/Resource/AssetManager.h</text>
</a>
</g>
</g>
<!-- Node1&#45;&gt;Node22 -->
<g id="edge34_Node000001_Node000022" class="edge">
<title>Node1&#45;&gt;Node22</title>
<g id="a_edge34_Node000001_Node000022"><a xlink:title=" ">
<path fill="none" stroke="#63b8ff" d="M951.98,-349.84C1000.69,-339.42 1063.43,-325.99 1110.04,-316.01"/>
<polygon fill="#63b8ff" stroke="#63b8ff" points="951.16,-346.44 942.12,-351.95 952.63,-353.28 951.16,-346.44"/>
</a>
</g>
</g>
<!-- Node3 -->
<g id="Node000003" class="node">
<title>Node3</title>
<g id="a_Node000003"><a xlink:href="RenderingSystem_8h.html" target="_top" xlink:title="描画コマンド発行システム。">
<polygon fill="white" stroke="#666666" points="824.5,-173 664.5,-173 664.5,-132 824.5,-132 824.5,-173"/>
<text text-anchor="start" x="672.5" y="-161" font-family="Helvetica,sans-Serif" font-size="10.00">Engine/Source/Runtime</text>
<text text-anchor="start" x="672.5" y="-150" font-family="Helvetica,sans-Serif" font-size="10.00">/Systems/Graphics/Rendering</text>
<text text-anchor="middle" x="744.5" y="-139" font-family="Helvetica,sans-Serif" font-size="10.00">System.h</text>
</a>
</g>
</g>
<!-- Node2&#45;&gt;Node3 -->
<g id="edge2_Node000002_Node000003" class="edge">
<title>Node2&#45;&gt;Node3</title>
<g id="a_edge2_Node000002_Node000003"><a xlink:title=" ">
<path fill="none" stroke="#63b8ff" d="M873.57,-205.27C847.81,-194.94 817.81,-182.9 793.22,-173.04"/>
<polygon fill="#63b8ff" stroke="#63b8ff" points="872.27,-208.52 882.86,-208.99 874.88,-202.02 872.27,-208.52"/>
</a>
</g>
</g>
<!-- Node2&#45;&gt;Node4 -->
<g id="edge13_Node000002_Node000004" class="edge">
<title>Node2&#45;&gt;Node4</title>
<g id="a_edge13_Node000002_Node000004"><a xlink:title=" ">
<path fill="none" stroke="#63b8ff" d="M918.86,-199.79C907.94,-178.18 890.19,-149.39 866.5,-132 840.99,-113.27 807.63,-102.38 778.86,-96.06"/>
<polygon fill="#63b8ff" stroke="#63b8ff" points="915.74,-201.39 923.25,-208.86 922.04,-198.33 915.74,-201.39"/>
</a>
</g>
</g>
<!-- Node3&#45;&gt;Node4 -->
<g id="edge3_Node000003_Node000004" class="edge">
<title>Node3&#45;&gt;Node4</title>
<g id="a_edge3_Node000003_Node000004"><a xlink:title=" ">
<path fill="none" stroke="#63b8ff" d="M731.87,-122.63C727.68,-113.06 723.33,-103.12 720.33,-96.26"/>
<polygon fill="#63b8ff" stroke="#63b8ff" points="728.73,-124.19 735.95,-131.95 735.15,-121.39 728.73,-124.19"/>
</a>
</g>
</g>
<!-- Node5 -->
<g id="Node000005" class="node">
<title>Node5</title>
<g id="a_Node000005"><a xlink:href="GuiManager_8cpp.html" target="_top" xlink:title=" ">
<polygon fill="white" stroke="#666666" points="117,-35.5 0,-35.5 0,-5.5 117,-5.5 117,-35.5"/>
<text text-anchor="start" x="8" y="-23.5" font-family="Helvetica,sans-Serif" font-size="10.00">Engine/Source/Editor</text>
<text text-anchor="middle" x="58.5" y="-12.5" font-family="Helvetica,sans-Serif" font-size="10.00">/GuiManager.cpp</text>
</a>
</g>
</g>
<!-- Node4&#45;&gt;Node5 -->
<g id="edge4_Node000004_Node000005" class="edge">
<title>Node4&#45;&gt;Node5</title>
<g id="a_edge4_Node000004_Node000005"><a xlink:title=" ">
<path fill="none" stroke="#63b8ff" d="M628.9,-78.95C465.32,-66.71 129.56,-41.55 126.5,-41 118.64,-39.59 110.39,-37.64 102.45,-35.52"/>
<polygon fill="#63b8ff" stroke="#63b8ff" points="628.71,-82.45 638.94,-79.7 629.23,-75.46 628.71,-82.45"/>
</a>
</g>
</g>
<!-- Node6 -->
<g id="Node000006" class="node">
<title>Node6</title>
<g id="a_Node000006"><a xlink:href="ImGuiUI_8cpp.html" target="_top" xlink:title=" ">
<polygon fill="white" stroke="#666666" points="1255,-35.5 1138,-35.5 1138,-5.5 1255,-5.5 1255,-35.5"/>
<text text-anchor="start" x="1146" y="-23.5" font-family="Helvetica,sans-Serif" font-size="10.00">Engine/Source/Editor</text>
<text text-anchor="middle" x="1196.5" y="-12.5" font-family="Helvetica,sans-Serif" font-size="10.00">/ImGui/ImGuiUI.cpp</text>
</a>
</g>
</g>
<!-- Node4&#45;&gt;Node6 -->
<g id="edge5_Node000004_Node000006" class="edge">
<title>Node4&#45;&gt;Node6</title>
<g id="a_edge5_Node000004_Node000006"><a xlink:title=" ">
<path fill="none" stroke="#63b8ff" d="M804.16,-80.41C888.02,-74.51 1017.74,-62.69 1128.5,-41 1136.09,-39.51 1144.07,-37.58 1151.77,-35.5"/>
<polygon fill="#63b8ff" stroke="#63b8ff" points="803.9,-76.92 794.17,-81.1 804.39,-83.9 803.9,-76.92"/>
</a>
</g>
</g>
<!-- Node7 -->
<g id="Node000007" class="node">
<title>Node7</title>
<g id="a_Node000007"><a xlink:href="HierarchyPanel_8cpp.html" target="_top" xlink:title=" ">
<polygon fill="white" stroke="#666666" points="941.5,-41 789.5,-41 789.5,0 941.5,0 941.5,-41"/>
<text text-anchor="start" x="797.5" y="-29" font-family="Helvetica,sans-Serif" font-size="10.00">Engine/Source/Editor</text>
<text text-anchor="start" x="797.5" y="-18" font-family="Helvetica,sans-Serif" font-size="10.00">/Panels/Hierarchy/Hierarchy</text>
<text text-anchor="middle" x="865.5" y="-7" font-family="Helvetica,sans-Serif" font-size="10.00">Panel.cpp</text>
</a>
</g>
</g>
<!-- Node4&#45;&gt;Node7 -->
<g id="edge6_Node000004_Node000007" class="edge">
<title>Node4&#45;&gt;Node7</title>
<g id="a_edge6_Node000004_Node000007"><a xlink:title=" ">
<path fill="none" stroke="#63b8ff" d="M746.01,-72.83C767.15,-63.75 796.02,-51.35 820.08,-41.01"/>
<polygon fill="#63b8ff" stroke="#63b8ff" points="744.4,-69.71 736.59,-76.87 747.16,-76.14 744.4,-69.71"/>
</a>
</g>
</g>
<!-- Node8 -->
<g id="Node000008" class="node">
<title>Node8</title>
<g id="a_Node000008"><a xlink:href="InspectorPanel_8cpp.html" target="_top" xlink:title=" ">
<polygon fill="white" stroke="#666666" points="431,-41 284,-41 284,0 431,0 431,-41"/>
<text text-anchor="start" x="292" y="-29" font-family="Helvetica,sans-Serif" font-size="10.00">Engine/Source/Editor</text>
<text text-anchor="start" x="292" y="-18" font-family="Helvetica,sans-Serif" font-size="10.00">/Panels/Inspector/Inspector</text>
<text text-anchor="middle" x="357.5" y="-7" font-family="Helvetica,sans-Serif" font-size="10.00">Panel.cpp</text>
</a>
</g>
</g>
<!-- Node4&#45;&gt;Node8 -->
<g id="edge7_Node000004_Node000008" class="edge">
<title>Node4&#45;&gt;Node8</title>
<g id="a_edge7_Node000004_Node000008"><a xlink:title=" ">
<path fill="none" stroke="#63b8ff" d="M645.56,-75.48C589.66,-67.24 509.86,-54.72 440.5,-41 437.45,-40.4 434.34,-39.76 431.21,-39.1"/>
<polygon fill="#63b8ff" stroke="#63b8ff" points="645.3,-78.98 655.71,-76.96 646.32,-72.05 645.3,-78.98"/>
</a>
</g>
</g>
<!-- Node9 -->
<g id="Node000009" class="node">
<title>Node9</title>
<g id="a_Node000009"><a xlink:href="ProjectBrowserPanel_8cpp.html" target="_top" xlink:title="ProjectBrowserPanelの実装。">
<polygon fill="white" stroke="#666666" points="589.5,-41 449.5,-41 449.5,0 589.5,0 589.5,-41"/>
<text text-anchor="start" x="457.5" y="-29" font-family="Helvetica,sans-Serif" font-size="10.00">Engine/Source/Editor</text>
<text text-anchor="start" x="457.5" y="-18" font-family="Helvetica,sans-Serif" font-size="10.00">/Panels/ProjectBrowser</text>
<text text-anchor="middle" x="519.5" y="-7" font-family="Helvetica,sans-Serif" font-size="10.00">/ProjectBrowserPanel.cpp</text>
</a>
</g>
</g>
<!-- Node4&#45;&gt;Node9 -->
<g id="edge8_Node000004_Node000009" class="edge">
<title>Node4&#45;&gt;Node9</title>
<g id="a_edge8_Node000004_Node000009"><a xlink:title=" ">
<path fill="none" stroke="#63b8ff" d="M680.11,-73.68C651.96,-64.53 612.38,-51.67 579.55,-41.01"/>
<polygon fill="#63b8ff" stroke="#63b8ff" points="679.34,-77.11 689.93,-76.87 681.5,-70.45 679.34,-77.11"/>
</a>
</g>
</g>
<!-- Node10 -->
<g id="Node000010" class="node">
<title>Node10</title>
<g id="a_Node000010"><a xlink:href="SceneViewPanel_8cpp.html" target="_top" xlink:title=" ">
<polygon fill="white" stroke="#666666" points="771.5,-41 607.5,-41 607.5,0 771.5,0 771.5,-41"/>
<text text-anchor="start" x="615.5" y="-29" font-family="Helvetica,sans-Serif" font-size="10.00">Engine/Source/Editor</text>
<text text-anchor="start" x="615.5" y="-18" font-family="Helvetica,sans-Serif" font-size="10.00">/Panels/SceneView/SceneView</text>
<text text-anchor="middle" x="689.5" y="-7" font-family="Helvetica,sans-Serif" font-size="10.00">Panel.cpp</text>
</a>
</g>
</g>
<!-- Node4&#45;&gt;Node10 -->
<g id="edge9_Node000004_Node000010" class="edge">
<title>Node4&#45;&gt;Node10</title>
<g id="a_edge9_Node000004_Node000010"><a xlink:title=" ">
<path fill="none" stroke="#63b8ff" d="M708.89,-67.46C705.41,-59.22 701.28,-49.43 697.73,-41.01"/>
<polygon fill="#63b8ff" stroke="#63b8ff" points="705.75,-69.02 712.86,-76.87 712.2,-66.29 705.75,-69.02"/>
</a>
</g>
</g>
<!-- Node11 -->
<g id="Node000011" class="node">
<title>Node11</title>
<g id="a_Node000011"><a xlink:href="EditorFileSystem_8cpp.html" target="_top" xlink:title="EditorFileSystemの実装。">
<polygon fill="white" stroke="#666666" points="1421.5,-35.5 1273.5,-35.5 1273.5,-5.5 1421.5,-5.5 1421.5,-35.5"/>
<text text-anchor="start" x="1281.5" y="-23.5" font-family="Helvetica,sans-Serif" font-size="10.00">Engine/Source/Editor</text>
<text text-anchor="middle" x="1347.5" y="-12.5" font-family="Helvetica,sans-Serif" font-size="10.00">/Utils/EditorFileSystem.cpp</text>
</a>
</g>
</g>
<!-- Node4&#45;&gt;Node11 -->
<g id="edge10_Node000004_Node000011" class="edge">
<title>Node4&#45;&gt;Node11</title>
<g id="a_edge10_Node000004_Node000011"><a xlink:title=" ">
<path fill="none" stroke="#63b8ff" d="M804.32,-82.42C912.95,-77.68 1103.27,-66.34 1264.5,-41 1273.71,-39.55 1283.42,-37.64 1292.81,-35.57"/>
<polygon fill="#63b8ff" stroke="#63b8ff" points="803.91,-78.93 794.07,-82.86 804.21,-85.93 803.91,-78.93"/>
</a>
</g>
</g>
<!-- Node12 -->
<g id="Node000012" class="node">
<title>Node12</title>
<g id="a_Node000012"><a xlink:href="Application_8cpp.html" target="_top" xlink:title=" ">
<polygon fill="white" stroke="#666666" points="265.5,-35.5 135.5,-35.5 135.5,-5.5 265.5,-5.5 265.5,-35.5"/>
<text text-anchor="start" x="143.5" y="-23.5" font-family="Helvetica,sans-Serif" font-size="10.00">Engine/Source/Runtime</text>
<text text-anchor="middle" x="200.5" y="-12.5" font-family="Helvetica,sans-Serif" font-size="10.00">/Application.cpp</text>
</a>
</g>
</g>
<!-- Node4&#45;&gt;Node12 -->
<g id="edge11_Node000004_Node000012" class="edge">
<title>Node4&#45;&gt;Node12</title>
<g id="a_edge11_Node000004_Node000012"><a xlink:title=" ">
<path fill="none" stroke="#63b8ff" d="M628.58,-78.3C519.62,-69.09 340.27,-52.9 274.5,-41 266.39,-39.53 257.87,-37.63 249.62,-35.6"/>
<polygon fill="#63b8ff" stroke="#63b8ff" points="628.32,-81.79 638.58,-79.14 628.91,-74.81 628.32,-81.79"/>
</a>
</g>
</g>
<!-- Node13 -->
<g id="Node000013" class="node">
<title>Node13</title>
<g id="a_Node000013"><a xlink:href="AssetSerializer_8cpp.html" target="_top" xlink:title="AssetSerializerの実装。">
<polygon fill="white" stroke="#666666" points="1119.5,-35.5 959.5,-35.5 959.5,-5.5 1119.5,-5.5 1119.5,-35.5"/>
<text text-anchor="start" x="967.5" y="-23.5" font-family="Helvetica,sans-Serif" font-size="10.00">Engine/Source/Runtime</text>
<text text-anchor="middle" x="1039.5" y="-12.5" font-family="Helvetica,sans-Serif" font-size="10.00">/Resource/AssetSerializer.cpp</text>
</a>
</g>
</g>
<!-- Node4&#45;&gt;Node13 -->
<g id="edge12_Node000004_Node000013" class="edge">
<title>Node4&#45;&gt;Node13</title>
<g id="a_edge12_Node000004_Node000013"><a xlink:title=" ">
<path fill="none" stroke="#63b8ff" d="M773.71,-75.08C821.14,-66.33 890.3,-53.32 950.5,-41 958.87,-39.29 967.67,-37.43 976.34,-35.57"/>
<polygon fill="#63b8ff" stroke="#63b8ff" points="772.84,-71.68 763.64,-76.93 774.1,-78.56 772.84,-71.68"/>
</a>
</g>
</g>
<!-- Node14&#45;&gt;Node3 -->
<g id="edge31_Node000014_Node000003" class="edge">
<title>Node14&#45;&gt;Node3</title>
<g id="a_edge31_Node000014_Node000003"><a xlink:title=" ">
<path fill="none" stroke="#63b8ff" d="M472.11,-282.93C499.83,-274.11 533.31,-262.57 562.5,-250 616.21,-226.87 675.55,-193.92 711.42,-173.13"/>
<polygon fill="#63b8ff" stroke="#63b8ff" points="471.05,-279.59 462.56,-285.93 473.15,-286.27 471.05,-279.59"/>
</a>
</g>
</g>
<!-- Node14&#45;&gt;Node4 -->
<g id="edge32_Node000014_Node000004" class="edge">
<title>Node14&#45;&gt;Node4</title>
<g id="a_edge32_Node000014_Node000004"><a xlink:title=" ">
<path fill="none" stroke="#63b8ff" d="M339.55,-291.45C312.59,-284.54 284.44,-272.15 266.5,-250 233.4,-209.12 222.15,-170.94 257.5,-132 263.84,-125.02 509.7,-104.19 638.92,-93.69"/>
<polygon fill="#63b8ff" stroke="#63b8ff" points="338.87,-294.89 349.4,-293.76 340.46,-288.07 338.87,-294.89"/>
</a>
</g>
</g>
<!-- Node15 -->
<g id="Node000015" class="node">
<title>Node15</title>
<g id="a_Node000015"><a xlink:href="GuiManager_8h.html" target="_top" xlink:title="ImGuiのライフサイクルとレンダリング管理。">
<polygon fill="white" stroke="#666666" points="172,-167.5 55,-167.5 55,-137.5 172,-137.5 172,-167.5"/>
<text text-anchor="start" x="63" y="-155.5" font-family="Helvetica,sans-Serif" font-size="10.00">Engine/Source/Editor</text>
<text text-anchor="middle" x="113.5" y="-144.5" font-family="Helvetica,sans-Serif" font-size="10.00">/GuiManager.h</text>
</a>
</g>
</g>
<!-- Node14&#45;&gt;Node15 -->
<g id="edge15_Node000014_Node000015" class="edge">
<title>Node14&#45;&gt;Node15</title>
<g id="a_edge15_Node000014_Node000015"><a xlink:title=" ">
<path fill="none" stroke="#63b8ff" d="M339.33,-288.46C303.16,-280.89 260.05,-268.8 224.5,-250 183.42,-228.27 144.65,-188.66 125.66,-167.58"/>
<polygon fill="#63b8ff" stroke="#63b8ff" points="338.84,-291.94 349.33,-290.48 340.22,-285.07 338.84,-291.94"/>
</a>
</g>
</g>
<!-- Node17 -->
<g id="Node000017" class="node">
<title>Node17</title>
<g id="a_Node000017"><a xlink:href="Application_8h.html" target="_top" xlink:title="エンジンのメインループとライフサイクル管理。">
<polygon fill="white" stroke="#666666" points="553.5,-244.5 423.5,-244.5 423.5,-214.5 553.5,-214.5 553.5,-244.5"/>
<text text-anchor="start" x="431.5" y="-232.5" font-family="Helvetica,sans-Serif" font-size="10.00">Engine/Source/Runtime</text>
<text text-anchor="middle" x="488.5" y="-221.5" font-family="Helvetica,sans-Serif" font-size="10.00">/Application.h</text>
</a>
</g>
</g>
<!-- Node14&#45;&gt;Node17 -->
<g id="edge23_Node000014_Node000017" class="edge">
<title>Node14&#45;&gt;Node17</title>
<g id="a_edge23_Node000014_Node000017"><a xlink:title=" ">
<path fill="none" stroke="#63b8ff" d="M436.87,-278.99C448.75,-267.84 463.02,-254.43 473.55,-244.54"/>
<polygon fill="#63b8ff" stroke="#63b8ff" points="434.37,-276.54 429.48,-285.94 439.16,-281.64 434.37,-276.54"/>
</a>
</g>
</g>
<!-- Node20 -->
<g id="Node000020" class="node">
<title>Node20</title>
<g id="a_Node000020"><a xlink:href="Renderer_8cpp.html" target="_top" xlink:title=" ">
<polygon fill="white" stroke="#666666" points="405.5,-244.5 275.5,-244.5 275.5,-214.5 405.5,-214.5 405.5,-244.5"/>
<text text-anchor="start" x="283.5" y="-232.5" font-family="Helvetica,sans-Serif" font-size="10.00">Engine/Source/Runtime</text>
<text text-anchor="middle" x="340.5" y="-221.5" font-family="Helvetica,sans-Serif" font-size="10.00">/Graphics/Renderer.cpp</text>
</a>
</g>
</g>
<!-- Node14&#45;&gt;Node20 -->
<g id="edge30_Node000014_Node000020" class="edge">
<title>Node14&#45;&gt;Node20</title>
<g id="a_edge30_Node000014_Node000020"><a xlink:title=" ">
<path fill="none" stroke="#63b8ff" d="M392.13,-278.99C380.25,-267.84 365.98,-254.43 355.45,-244.54"/>
<polygon fill="#63b8ff" stroke="#63b8ff" points="389.84,-281.64 399.52,-285.94 394.63,-276.54 389.84,-281.64"/>
</a>
</g>
</g>
<!-- Node15&#45;&gt;Node5 -->
<g id="edge16_Node000015_Node000005" class="edge">
<title>Node15&#45;&gt;Node5</title>
<g id="a_edge16_Node000015_Node000005"><a xlink:title=" ">
<path fill="none" stroke="#63b8ff" d="M103.51,-127.89C92.12,-100.96 73.86,-57.81 64.48,-35.64"/>
<polygon fill="#63b8ff" stroke="#63b8ff" points="100.39,-129.49 107.51,-137.34 106.84,-126.77 100.39,-129.49"/>
</a>
</g>
</g>
<!-- Node15&#45;&gt;Node12 -->
<g id="edge17_Node000015_Node000012" class="edge">
<title>Node15&#45;&gt;Node12</title>
<g id="a_edge17_Node000015_Node000012"><a xlink:title=" ">
<path fill="none" stroke="#63b8ff" d="M128.59,-128.95C146.55,-102.11 176.01,-58.1 191.04,-35.64"/>
<polygon fill="#63b8ff" stroke="#63b8ff" points="125.63,-127.08 122.98,-137.34 131.45,-130.98 125.63,-127.08"/>
</a>
</g>
</g>
<!-- Node16 -->
<g id="Node000016" class="node">
<title>Node16</title>
<g id="a_Node000016"><a xlink:href="SpanEditor_8h.html" target="_top" xlink:title=" ">
<polygon fill="white" stroke="#666666" points="594,-96 445,-96 445,-77 594,-77 594,-96"/>
<text text-anchor="middle" x="519.5" y="-84" font-family="Helvetica,sans-Serif" font-size="10.00">Engine/Source/SpanEditor.h</text>
</a>
</g>
</g>
<!-- Node15&#45;&gt;Node16 -->
<g id="edge18_Node000015_Node000016" class="edge">
<title>Node15&#45;&gt;Node16</title>
<g id="a_edge18_Node000015_Node000016"><a xlink:title=" ">
<path fill="none" stroke="#63b8ff" d="M182.25,-139.15C196.22,-136.72 210.83,-134.23 224.5,-132 306.03,-118.69 400.48,-104.69 460.11,-96.03"/>
<polygon fill="#63b8ff" stroke="#63b8ff" points="181.46,-135.74 172.21,-140.91 182.67,-142.64 181.46,-135.74"/>
</a>
</g>
</g>
<!-- Node16&#45;&gt;Node7 -->
<g id="edge19_Node000016_Node000007" class="edge">
<title>Node16&#45;&gt;Node7</title>
<g id="a_edge19_Node000016_Node000007"><a xlink:title=" ">
<path fill="none" stroke="#63b8ff" d="M584.84,-75.41C637.75,-66.99 714.12,-54.26 780.5,-41 783.32,-40.44 786.19,-39.85 789.09,-39.24"/>
<polygon fill="#63b8ff" stroke="#63b8ff" points="584.24,-71.96 574.91,-76.99 585.34,-78.88 584.24,-71.96"/>
</a>
</g>
</g>
<!-- Node16&#45;&gt;Node8 -->
<g id="edge20_Node000016_Node000008" class="edge">
<title>Node16&#45;&gt;Node8</title>
<g id="a_edge20_Node000016_Node000008"><a xlink:title=" ">
<path fill="none" stroke="#63b8ff" d="M488.35,-73.19C465.29,-64.08 433.4,-51.49 406.88,-41.01"/>
<polygon fill="#63b8ff" stroke="#63b8ff" points="487.07,-76.45 497.65,-76.87 489.64,-69.94 487.07,-76.45"/>
</a>
</g>
</g>
<!-- Node16&#45;&gt;Node9 -->
<g id="edge21_Node000016_Node000009" class="edge">
<title>Node16&#45;&gt;Node9</title>
<g id="a_edge21_Node000016_Node000009"><a xlink:title=" ">
<path fill="none" stroke="#63b8ff" d="M519.5,-66.63C519.5,-58.56 519.5,-49.15 519.5,-41.01"/>
<polygon fill="#63b8ff" stroke="#63b8ff" points="516,-66.87 519.5,-76.87 523,-66.87 516,-66.87"/>
</a>
</g>
</g>
<!-- Node16&#45;&gt;Node10 -->
<g id="edge22_Node000016_Node000010" class="edge">
<title>Node16&#45;&gt;Node10</title>
<g id="a_edge22_Node000016_Node000010"><a xlink:title=" ">
<path fill="none" stroke="#63b8ff" d="M551.87,-73.32C576.09,-64.19 609.72,-51.53 637.68,-41.01"/>
<polygon fill="#63b8ff" stroke="#63b8ff" points="550.55,-70.07 542.43,-76.87 553.02,-76.62 550.55,-70.07"/>
</a>
</g>
</g>
<!-- Node17&#45;&gt;Node3 -->
<g id="edge28_Node000017_Node000003" class="edge">
<title>Node17&#45;&gt;Node3</title>
<g id="a_edge28_Node000017_Node000003"><a xlink:title=" ">
<path fill="none" stroke="#63b8ff" d="M545.98,-211.66C584.99,-200.23 636.71,-185.08 677.57,-173.11"/>
<polygon fill="#63b8ff" stroke="#63b8ff" points="544.96,-208.31 536.35,-214.48 546.93,-215.03 544.96,-208.31"/>
</a>
</g>
</g>
<!-- Node17&#45;&gt;Node4 -->
<g id="edge29_Node000017_Node000004" class="edge">
<title>Node17&#45;&gt;Node4</title>
<g id="a_edge29_Node000017_Node000004"><a xlink:title=" ">
<path fill="none" stroke="#63b8ff" d="M486.37,-204.03C485.89,-182.19 488.95,-150.84 507.5,-132 525.85,-113.36 587.39,-101.76 638.97,-95.09"/>
<polygon fill="#63b8ff" stroke="#63b8ff" points="482.88,-204.35 486.85,-214.18 489.87,-204.02 482.88,-204.35"/>
</a>
</g>
</g>
<!-- Node17&#45;&gt;Node12 -->
<g id="edge24_Node000017_Node000012" class="edge">
<title>Node17&#45;&gt;Node12</title>
<g id="a_edge24_Node000017_Node000012"><a xlink:title=" ">
<path fill="none" stroke="#63b8ff" d="M426.17,-211.92C422.22,-210.92 418.31,-209.94 414.5,-209 344.99,-191.88 311.41,-220.11 257.5,-173 215.6,-136.39 204.42,-65.78 201.5,-35.67"/>
<polygon fill="#63b8ff" stroke="#63b8ff" points="425.44,-215.35 436,-214.44 427.18,-208.57 425.44,-215.35"/>
</a>
</g>
</g>
<!-- Node18 -->
<g id="Node000018" class="node">
<title>Node18</title>
<g id="a_Node000018"><a xlink:href="EntryPoint_8h.html" target="_top" xlink:title="アプリケーションのエントリーポイント (main関数)。">
<polygon fill="white" stroke="#666666" points="646.5,-167.5 516.5,-167.5 516.5,-137.5 646.5,-137.5 646.5,-167.5"/>
<text text-anchor="start" x="524.5" y="-155.5" font-family="Helvetica,sans-Serif" font-size="10.00">Engine/Source/Runtime</text>
<text text-anchor="middle" x="581.5" y="-144.5" font-family="Helvetica,sans-Serif" font-size="10.00">/EntryPoint.h</text>
</a>
</g>
</g>
<!-- Node17&#45;&gt;Node18 -->
<g id="edge25_Node000017_Node000018" class="edge">
<title>Node17&#45;&gt;Node18</title>
<g id="a_edge25_Node000017_Node000018"><a xlink:title=" ">
<path fill="none" stroke="#63b8ff" d="M513.89,-208.03C529.82,-195.18 549.95,-178.94 564.09,-167.54"/>
<polygon fill="#63b8ff" stroke="#63b8ff" points="511.58,-205.39 505.99,-214.39 515.97,-210.84 511.58,-205.39"/>
</a>
</g>
</g>
<!-- Node19 -->
<g id="Node000019" class="node">
<title>Node19</title>
<g id="a_Node000019"><a xlink:href="CameraSystem_8h.html" target="_top" xlink:title="カメラ行列の更新とレンダラーへの適用。">
<polygon fill="white" stroke="#666666" points="460.5,-167.5 266.5,-167.5 266.5,-137.5 460.5,-137.5 460.5,-167.5"/>
<text text-anchor="start" x="274.5" y="-155.5" font-family="Helvetica,sans-Serif" font-size="10.00">Engine/Source/Runtime</text>
<text text-anchor="middle" x="363.5" y="-144.5" font-family="Helvetica,sans-Serif" font-size="10.00">/Systems/Graphics/CameraSystem.h</text>
</a>
</g>
</g>
<!-- Node17&#45;&gt;Node19 -->
<g id="edge26_Node000017_Node000019" class="edge">
<title>Node17&#45;&gt;Node19</title>
<g id="a_edge26_Node000017_Node000019"><a xlink:title=" ">
<path fill="none" stroke="#63b8ff" d="M456.13,-209.08C434.46,-196.08 406.43,-179.26 386.91,-167.54"/>
<polygon fill="#63b8ff" stroke="#63b8ff" points="454.61,-212.25 464.99,-214.39 458.21,-206.25 454.61,-212.25"/>
</a>
</g>
</g>
<!-- Node19&#45;&gt;Node4 -->
<g id="edge27_Node000019_Node000004" class="edge">
<title>Node19&#45;&gt;Node4</title>
<g id="a_edge27_Node000019_Node000004"><a xlink:title=" ">
<path fill="none" stroke="#63b8ff" d="M450.98,-135.64C520.1,-123.11 613.9,-106.1 669.52,-96.02"/>
<polygon fill="#63b8ff" stroke="#63b8ff" points="450.18,-132.23 440.97,-137.45 451.43,-139.11 450.18,-132.23"/>
</a>
</g>
</g>
<!-- Node22&#45;&gt;Node4 -->
<g id="edge36_Node000022_Node000004" class="edge">
<title>Node22&#45;&gt;Node4</title>
<g id="a_edge36_Node000022_Node000004"><a xlink:title=" ">
<path fill="none" stroke="#63b8ff" d="M1185.06,-276.11C1191.34,-256.14 1195.99,-227.96 1181.5,-209 1134.44,-147.43 910.86,-111.24 791.7,-96.02"/>
<polygon fill="#63b8ff" stroke="#63b8ff" points="1181.7,-275.12 1181.72,-285.71 1188.31,-277.42 1181.7,-275.12"/>
</a>
</g>
</g>
<!-- Node23 -->
<g id="Node000023" class="node">
<title>Node23</title>
<g id="a_Node000023"><a xlink:href="AssetManager_8cpp.html" target="_top" xlink:title="AssetManagerの実装。">
<polygon fill="white" stroke="#666666" points="1172,-244.5 1015,-244.5 1015,-214.5 1172,-214.5 1172,-244.5"/>
<text text-anchor="start" x="1023" y="-232.5" font-family="Helvetica,sans-Serif" font-size="10.00">Engine/Source/Runtime</text>
<text text-anchor="middle" x="1093.5" y="-221.5" font-family="Helvetica,sans-Serif" font-size="10.00">/Resource/AssetManager.cpp</text>
</a>
</g>
</g>
<!-- Node22&#45;&gt;Node23 -->
<g id="edge35_Node000022_Node000023" class="edge">
<title>Node22&#45;&gt;Node23</title>
<g id="a_edge35_Node000022_Node000023"><a xlink:title=" ">
<path fill="none" stroke="#63b8ff" d="M1151.09,-279.31C1137.85,-268.09 1121.84,-254.52 1110.07,-244.54"/>
<polygon fill="#63b8ff" stroke="#63b8ff" points="1149.01,-282.14 1158.91,-285.94 1153.54,-276.8 1149.01,-282.14"/>
</a>
</g>
</g>
</g>
</svg>

<g id="navigator" transform="translate(0 0)" fill="#404254">
  <rect fill="#f2f5e9" fill-opacity="0.5" stroke="#606060" stroke-width=".5" x="0" y="0" width="60" height="60"/>
  <use id="zoomplus" xlink:href="#zoomPlus" x="17" y="9" onmousedown="handleZoom(evt,'in')"/>
  <use id="zoomminus" xlink:href="#zoomMin" x="42" y="9" onmousedown="handleZoom(evt,'out')"/>
  <use id="reset" xlink:href="#resetDef" x="30" y="36" onmousedown="handleReset()"/>
   <use id="arrowup" xlink:href="#arrowUp" x="0" y="0" onmousedown="handlePan(0,-1)"/>
  <use id="arrowright" xlink:href="#arrowRight" x="0" y="0" onmousedown="handlePan(1,0)"/>
  <use id="arrowdown" xlink:href="#arrowDown" x="0" y="0" onmousedown="handlePan(0,1)"/>
  <use id="arrowleft" xlink:href="#arrowLeft" x="0" y="0" onmousedown="handlePan(-1,0)"/>
</g>
<svg viewBox="0 0 15 15" width="100%" height="30px" preserveAspectRatio="xMaxYMin meet">
 <g id="arrow_out" transform="scale(0.3 0.3)">
  <a xlink:href="Material_8h__dep__incl_org.svg" target="_base">
   <rect id="button" ry="5" rx="5" y="6" x="6" height="38" width="38"
        fill="#f2f5e9" fill-opacity="0.5" stroke="#606060" stroke-width="1.0"/>
   <path id="arrow"
     d="M 11.500037,31.436501 C 11.940474,20.09759 22.043105,11.32322 32.158766,21.979434 L 37.068811,17.246167 C 37.068811,17.246167 37.088388,32 37.088388,32 L 22.160133,31.978069 C 22.160133,31.978069 26.997745,27.140456 26.997745,27.140456 C 18.528582,18.264221 13.291696,25.230495 11.500037,31.436501 z"
     style="fill:#404040;"/>
  </a>
 </g>
</svg>

<style type='text/css'>
<![CDATA[
[data-mouse-over-selected='false'] { opacity: 0.7; }
[data-mouse-over-selected='true']  { opacity: 1.0; }
]]>
</style>
<script type="application/ecmascript"><![CDATA[
document.addEventListener('DOMContentLoaded', (event) => {
  highlightEdges();
  highlightAdjacentNodes();
});
]]></script>
</svg>
