<?xml version="1.0" encoding="UTF-8" standalone="no"?>
<!DOCTYPE svg PUBLIC "-//W3C//DTD SVG 1.1//EN"
 "http://www.w3.org/Graphics/SVG/1.1/DTD/svg11.dtd">
<!-- Generated by graphviz version 2.43.0 (0)
 -->
<!-- Title: Engine/Source/Runtime/Components/Graphics/MeshFilter.h Pages: 1 -->
<svg width="792pt" height="258pt"
 viewBox="0.00 0.00 791.50 258.00" xmlns="http://www.w3.org/2000/svg" xmlns:xlink="http://www.w3.org/1999/xlink">
<g id="graph0" class="graph" transform="scale(1 1) rotate(0) translate(4 254)">
<title>Engine/Source/Runtime/Components/Graphics/MeshFilter.h</title>
<!-- Node1 -->
<g id="Node000001" class="node">
<title>Node1</title>
<g id="a_Node000001"><a xlink:title="描画する形状 (メッシュ) への参照。">
<polygon fill="#999999" stroke="#666666" points="444.5,-250 314.5,-250 314.5,-209 444.5,-209 444.5,-250"/>
<text text-anchor="start" x="322.5" y="-238" font-family="Helvetica,sans-Serif" font-size="10.00">Engine/Source/Runtime</text>
<text text-anchor="start" x="322.5" y="-227" font-family="Helvetica,sans-Serif" font-size="10.00">/Components/Graphics</text>
<text text-anchor="middle" x="379.5" y="-216" font-family="Helvetica,sans-Serif" font-size="10.00">/MeshFilter.h</text>
</a>
</g>
</g>
<!-- Node2 -->
<g id="Node000002" class="node">
<title>Node2</title>
<g id="a_Node000002"><a xlink:href="RenderingSystem_8h.html" target="_top" xlink:title="描画コマンド発行システム。">
<polygon fill="white" stroke="#666666" points="405.5,-173 245.5,-173 245.5,-132 405.5,-132 405.5,-173"/>
<text text-anchor="start" x="253.5" y="-161" font-family="Helvetica,sans-Serif" font-size="10.00">Engine/Source/Runtime</text>
<text text-anchor="start" x="253.5" y="-150" font-family="Helvetica,sans-Serif" font-size="10.00">/Systems/Graphics/Rendering</text>
<text text-anchor="middle" x="325.5" y="-139" font-family="Helvetica,sans-Serif" font-size="10.00">System.h</text>
</a>
</g>
</g>
<!-- Node1&#45;&gt;Node2 -->
<g id="edge1_Node000001_Node000002" class="edge">
<title>Node1&#45;&gt;Node2</title>
<g id="a_edge1_Node000001_Node000002"><a xlink:title=" ">
<path fill="none" stroke="#63b8ff" d="M359.46,-200.67C352.86,-191.5 345.66,-181.5 339.59,-173.07"/>
<polygon fill="#63b8ff" stroke="#63b8ff" points="356.63,-202.72 365.31,-208.79 362.31,-198.63 356.63,-202.72"/>
</a>
</g>
</g>
<!-- Node3 -->
<g id="Node000003" class="node">
<title>Node3</title>
<g id="a_Node000003"><a xlink:href="SpanEngine_8h.html" target="_top" xlink:title=" ">
<polygon fill="white" stroke="#666666" points="457,-96 302,-96 302,-77 457,-77 457,-96"/>
<text text-anchor="middle" x="379.5" y="-84" font-family="Helvetica,sans-Serif" font-size="10.00">Engine/Source/SpanEngine.h</text>
</a>
</g>
</g>
<!-- Node1&#45;&gt;Node3 -->
<g id="edge8_Node000001_Node000003" class="edge">
<title>Node1&#45;&gt;Node3</title>
<g id="a_edge8_Node000001_Node000003"><a xlink:title=" ">
<path fill="none" stroke="#63b8ff" d="M401.42,-200.49C406.76,-192.11 411.73,-182.58 414.5,-173 419.56,-155.49 420.46,-149.22 414.5,-132 409.55,-117.7 397.89,-104.5 389.38,-96.25"/>
<polygon fill="#63b8ff" stroke="#63b8ff" points="398.52,-198.52 395.79,-208.76 404.31,-202.46 398.52,-198.52"/>
</a>
</g>
</g>
<!-- Node2&#45;&gt;Node3 -->
<g id="edge2_Node000002_Node000003" class="edge">
<title>Node2&#45;&gt;Node3</title>
<g id="a_edge2_Node000002_Node000003"><a xlink:title=" ">
<path fill="none" stroke="#63b8ff" d="M348.6,-124.13C357.05,-114.11 366.02,-103.47 372.11,-96.26"/>
<polygon fill="#63b8ff" stroke="#63b8ff" points="345.77,-122.05 342,-131.95 351.12,-126.56 345.77,-122.05"/>
</a>
</g>
</g>
<!-- Node4 -->
<g id="Node000004" class="node">
<title>Node4</title>
<g id="a_Node000004"><a xlink:href="GuiManager_8cpp.html" target="_top" xlink:title=" ">
<polygon fill="white" stroke="#666666" points="117,-35.5 0,-35.5 0,-5.5 117,-5.5 117,-35.5"/>
<text text-anchor="start" x="8" y="-23.5" font-family="Helvetica,sans-Serif" font-size="10.00">Engine/Source/Editor</text>
<text text-anchor="middle" x="58.5" y="-12.5" font-family="Helvetica,sans-Serif" font-size="10.00">/GuiManager.cpp</text>
</a>
</g>
</g>
<!-- Node3&#45;&gt;Node4 -->
<g id="edge3_Node000003_Node000004" class="edge">
<title>Node3&#45;&gt;Node4</title>
<g id="a_edge3_Node000003_Node000004"><a xlink:title=" ">
<path fill="none" stroke="#63b8ff" d="M310.92,-75.44C259.8,-67.45 188.43,-55.28 126.5,-41 119.56,-39.4 112.27,-37.52 105.15,-35.58"/>
<polygon fill="#63b8ff" stroke="#63b8ff" points="310.45,-78.91 320.87,-76.98 311.52,-71.99 310.45,-78.91"/>
</a>
</g>
</g>
<!-- Node5 -->
<g id="Node000005" class="node">
<title>Node5</title>
<g id="a_Node000005"><a xlink:href="HierarchyPanel_8cpp.html" target="_top" xlink:title=" ">
<polygon fill="white" stroke="#666666" points="287.5,-41 135.5,-41 135.5,0 287.5,0 287.5,-41"/>
<text text-anchor="start" x="143.5" y="-29" font-family="Helvetica,sans-Serif" font-size="10.00">Engine/Source/Editor</text>
<text text-anchor="start" x="143.5" y="-18" font-family="Helvetica,sans-Serif" font-size="10.00">/Panels/Hierarchy/Hierarchy</text>
<text text-anchor="middle" x="211.5" y="-7" font-family="Helvetica,sans-Serif" font-size="10.00">Panel.cpp</text>
</a>
</g>
</g>
<!-- Node3&#45;&gt;Node5 -->
<g id="edge4_Node000003_Node000005" class="edge">
<title>Node3&#45;&gt;Node5</title>
<g id="a_edge4_Node000003_Node000005"><a xlink:title=" ">
<path fill="none" stroke="#63b8ff" d="M347.2,-73.19C323.28,-64.08 290.21,-51.49 262.71,-41.01"/>
<polygon fill="#63b8ff" stroke="#63b8ff" points="346.25,-76.58 356.84,-76.87 348.74,-70.04 346.25,-76.58"/>
</a>
</g>
</g>
<!-- Node6 -->
<g id="Node000006" class="node">
<title>Node6</title>
<g id="a_Node000006"><a xlink:href="InspectorPanel_8cpp.html" target="_top" xlink:title=" ">
<polygon fill="white" stroke="#666666" points="453,-41 306,-41 306,0 453,0 453,-41"/>
<text text-anchor="start" x="314" y="-29" font-family="Helvetica,sans-Serif" font-size="10.00">Engine/Source/Editor</text>
<text text-anchor="start" x="314" y="-18" font-family="Helvetica,sans-Serif" font-size="10.00">/Panels/Inspector/Inspector</text>
<text text-anchor="middle" x="379.5" y="-7" font-family="Helvetica,sans-Serif" font-size="10.00">Panel.cpp</text>
</a>
</g>
</g>
<!-- Node3&#45;&gt;Node6 -->
<g id="edge5_Node000003_Node000006" class="edge">
<title>Node3&#45;&gt;Node6</title>
<g id="a_edge5_Node000003_Node000006"><a xlink:title=" ">
<path fill="none" stroke="#63b8ff" d="M379.5,-66.63C379.5,-58.56 379.5,-49.15 379.5,-41.01"/>
<polygon fill="#63b8ff" stroke="#63b8ff" points="376,-66.87 379.5,-76.87 383,-66.87 376,-66.87"/>
</a>
</g>
</g>
<!-- Node7 -->
<g id="Node000007" class="node">
<title>Node7</title>
<g id="a_Node000007"><a xlink:href="SceneViewPanel_8cpp.html" target="_top" xlink:title=" ">
<polygon fill="white" stroke="#666666" points="635.5,-41 471.5,-41 471.5,0 635.5,0 635.5,-41"/>
<text text-anchor="start" x="479.5" y="-29" font-family="Helvetica,sans-Serif" font-size="10.00">Engine/Source/Editor</text>
<text text-anchor="start" x="479.5" y="-18" font-family="Helvetica,sans-Serif" font-size="10.00">/Panels/SceneView/SceneView</text>
<text text-anchor="middle" x="553.5" y="-7" font-family="Helvetica,sans-Serif" font-size="10.00">Panel.cpp</text>
</a>
</g>
</g>
<!-- Node3&#45;&gt;Node7 -->
<g id="edge6_Node000003_Node000007" class="edge">
<title>Node3&#45;&gt;Node7</title>
<g id="a_edge6_Node000003_Node000007"><a xlink:title=" ">
<path fill="none" stroke="#63b8ff" d="M412.63,-73.32C437.42,-64.19 471.85,-51.53 500.46,-41.01"/>
<polygon fill="#63b8ff" stroke="#63b8ff" points="411.14,-70.13 402.97,-76.87 413.56,-76.7 411.14,-70.13"/>
</a>
</g>
</g>
<!-- Node8 -->
<g id="Node000008" class="node">
<title>Node8</title>
<g id="a_Node000008"><a xlink:href="Application_8cpp.html" target="_top" xlink:title=" ">
<polygon fill="white" stroke="#666666" points="783.5,-35.5 653.5,-35.5 653.5,-5.5 783.5,-5.5 783.5,-35.5"/>
<text text-anchor="start" x="661.5" y="-23.5" font-family="Helvetica,sans-Serif" font-size="10.00">Engine/Source/Runtime</text>
<text text-anchor="middle" x="718.5" y="-12.5" font-family="Helvetica,sans-Serif" font-size="10.00">/Application.cpp</text>
</a>
</g>
</g>
<!-- Node3&#45;&gt;Node8 -->
<g id="edge7_Node000003_Node000008" class="edge">
<title>Node3&#45;&gt;Node8</title>
<g id="a_edge7_Node000003_Node000008"><a xlink:title=" ">
<path fill="none" stroke="#63b8ff" d="M449.87,-75.47C503.47,-67.4 578.95,-55.11 644.5,-41 652.03,-39.38 659.95,-37.49 667.69,-35.54"/>
<polygon fill="#63b8ff" stroke="#63b8ff" points="449.16,-72.04 439.79,-76.98 450.2,-78.96 449.16,-72.04"/>
</a>
</g>
</g>
</g>
</svg>
