<?xml version="1.0" encoding="UTF-8" standalone="no"?>
<!DOCTYPE svg PUBLIC "-//W3C//DTD SVG 1.1//EN"
 "http://www.w3.org/Graphics/SVG/1.1/DTD/svg11.dtd">
<!-- Generated by graphviz version 2.43.0 (0)
 -->
<!-- Title: Engine/Source/Runtime/Components/Graphics/MeshFilter.h Pages: 1 -->
<!--zoomable 346 -->

<svg id="main" version="1.1" xmlns="http://www.w3.org/2000/svg" xmlns:xlink="http://www.w3.org/1999/xlink" xml:space="preserve" onload="init(evt)">

<style type="text/css"><![CDATA[
.node, .edge {opacity: 0.7;}
.node.selected, .edge.selected {opacity: 1;}
.edge:hover path { stroke: red; }
.edge:hover polygon { stroke: red; fill: red; }
]]></style>

<defs>
  <circle id="rim" cx="0" cy="0" r="7"/>
  <circle id="rim2" cx="0" cy="0" r="3.5"/>
  <g id="zoomPlus">
    <use xlink:href="#rim" fill="#404040"><set attributeName="fill" to="#808080" begin="zoomplus.mouseover" end="zoomplus.mouseout"/></use>
    <path d="M-4,0h8M0,-4v8" fill="none" stroke="white" stroke-width="1.5" pointer-events="none"/>
  </g>
  <g id="zoomMin">
    <use xlink:href="#rim" fill="#404040"><set attributeName="fill" to="#808080" begin="zoomminus.mouseover" end="zoomminus.mouseout"/></use>
    <path d="M-4,0h8" fill="none" stroke="white" stroke-width="1.5" pointer-events="none"/>
  </g>
  <g id="arrowUp" transform="translate(30 24)">
    <use xlink:href="#rim"/>
    <path pointer-events="none" fill="none" stroke="white" stroke-width="1.5" d="M0,-3.0v7 M-2.5,-0.5L0,-3.0L2.5,-0.5"/>
  </g>
  <g id="arrowRight" transform="rotate(90) translate(36 -43)">
    <use xlink:href="#rim"/>
    <path pointer-events="none" fill="none" stroke="white" stroke-width="1.5" d="M0,-3.0v7 M-2.5,-0.5L0,-3.0L2.5,-0.5"/>
  </g>
  <g id="arrowDown" transform="rotate(180) translate(-30 -48)">
    <use xlink:href="#rim"/>
    <path pointer-events="none" fill="none" stroke="white" stroke-width="1.5" d="M0,-3.0v7 M-2.5,-0.5L0,-3.0L2.5,-0.5"/>
  </g>
  <g id="arrowLeft" transform="rotate(270) translate(-36 17)">
    <use xlink:href="#rim"/>
    <path pointer-events="none" fill="none" stroke="white" stroke-width="1.5" d="M0,-3.0v7 M-2.5,-0.5L0,-3.0L2.5,-0.5"/>
  </g>
  <g id="resetDef">
    <use xlink:href="#rim2" fill="#404040"><set attributeName="fill" to="#808080" begin="reset.mouseover" end="reset.mouseout"/></use>
  </g>
</defs>
<script type="application/ecmascript">
var viewWidth = 2928;
var viewHeight = 346;
var sectionId = 'dynsection-0';
</script>
<script type="application/ecmascript" xlink:href="svg.min.js"/>
<svg id="graph" class="graph">
<g id="viewport">
<title>Engine/Source/Runtime/Components/Graphics/MeshFilter.h</title>
<!-- Node1 -->
<g id="Node000001" class="node">
<title>Node1</title>
<g id="a_Node000001"><a xlink:title="描画する形状 (メッシュ) への参照。">
<polygon fill="#999999" stroke="#666666" points="1767.5,-338 1637.5,-338 1637.5,-297 1767.5,-297 1767.5,-338"/>
<text text-anchor="start" x="1645.5" y="-326" font-family="Helvetica,sans-Serif" font-size="10.00">Engine/Source/Runtime</text>
<text text-anchor="start" x="1645.5" y="-315" font-family="Helvetica,sans-Serif" font-size="10.00">/Components/Graphics</text>
<text text-anchor="middle" x="1702.5" y="-304" font-family="Helvetica,sans-Serif" font-size="10.00">/MeshFilter.h</text>
</a>
</g>
</g>
<!-- Node2 -->
<g id="Node000002" class="node">
<title>Node2</title>
<g id="a_Node000002"><a xlink:href="CoreMinimal_8h.html" target="_top" xlink:title="エンジンの標準インクルードファイル。">
<polygon fill="white" stroke="#666666" points="1730,-74 1617,-74 1617,-55 1730,-55 1730,-74"/>
<text text-anchor="middle" x="1673.5" y="-62" font-family="Helvetica,sans-Serif" font-size="10.00">Core/CoreMinimal.h</text>
</a>
</g>
</g>
<!-- Node1&#45;&gt;Node2 -->
<g id="edge1_Node000001_Node000002" class="edge">
<title>Node1&#45;&gt;Node2</title>
<g id="a_edge1_Node000001_Node000002"><a xlink:title=" ">
<path fill="none" stroke="#63b8ff" d="M1701.27,-296.77C1698.82,-259.93 1692.67,-178.22 1682.5,-110 1681.24,-101.52 1679.42,-92.22 1677.75,-84.32"/>
<polygon fill="#63b8ff" stroke="#63b8ff" points="1681.12,-83.34 1675.56,-74.32 1674.28,-84.84 1681.12,-83.34"/>
</a>
</g>
</g>
<!-- Node38 -->
<g id="Node000038" class="node">
<title>Node38</title>
<g id="a_Node000038"><a xlink:href="Mesh_8h.html" target="_top" xlink:title="3Dモデルの形状データ (頂点バッファ) 管理。">
<polygon fill="white" stroke="#666666" points="1674,-140 1561,-140 1561,-110 1674,-110 1674,-140"/>
<text text-anchor="start" x="1569" y="-128" font-family="Helvetica,sans-Serif" font-size="10.00">Graphics/Resources</text>
<text text-anchor="middle" x="1617.5" y="-117" font-family="Helvetica,sans-Serif" font-size="10.00">/Mesh.h</text>
</a>
</g>
</g>
<!-- Node1&#45;&gt;Node38 -->
<g id="edge38_Node000001_Node000038" class="edge">
<title>Node1&#45;&gt;Node38</title>
<g id="a_edge38_Node000001_Node000038"><a xlink:title=" ">
<path fill="none" stroke="#63b8ff" d="M1693.72,-296.83C1677.99,-261.58 1645.06,-187.77 1628.1,-149.75"/>
<polygon fill="#63b8ff" stroke="#63b8ff" points="1631.23,-148.18 1623.96,-140.47 1624.83,-151.03 1631.23,-148.18"/>
</a>
</g>
</g>
<!-- Node41 -->
<g id="Node000041" class="node">
<title>Node41</title>
<g id="a_Node000041"><a xlink:href="SpanReflection_8h.html" target="_top" xlink:title="コンポーネント定義用のリフレクションマクロ。">
<polygon fill="white" stroke="#666666" points="2545.5,-261 2435.5,-261 2435.5,-231 2545.5,-231 2545.5,-261"/>
<text text-anchor="start" x="2443.5" y="-249" font-family="Helvetica,sans-Serif" font-size="10.00">Runtime/Reflection</text>
<text text-anchor="middle" x="2490.5" y="-238" font-family="Helvetica,sans-Serif" font-size="10.00">/SpanReflection.h</text>
</a>
</g>
</g>
<!-- Node1&#45;&gt;Node41 -->
<g id="edge44_Node000001_Node000041" class="edge">
<title>Node1&#45;&gt;Node41</title>
<g id="a_edge44_Node000001_Node000041"><a xlink:title=" ">
<path fill="none" stroke="#63b8ff" d="M1767.66,-310.75C1915.84,-297.68 2276.7,-265.86 2425.11,-252.77"/>
<polygon fill="#63b8ff" stroke="#63b8ff" points="2425.77,-256.22 2435.42,-251.86 2425.15,-249.25 2425.77,-256.22"/>
</a>
</g>
</g>
<!-- Node3 -->
<g id="Node000003" class="node">
<title>Node3</title>
<g id="a_Node000003"><a xlink:title=" ">
<polygon fill="#e0e0e0" stroke="#999999" points="1265.5,-19 1195.5,-19 1195.5,0 1265.5,0 1265.5,-19"/>
<text text-anchor="middle" x="1230.5" y="-7" font-family="Helvetica,sans-Serif" font-size="10.00">Windows.h</text>
</a>
</g>
</g>
<!-- Node2&#45;&gt;Node3 -->
<g id="edge2_Node000002_Node000003" class="edge">
<title>Node2&#45;&gt;Node3</title>
<g id="a_edge2_Node000002_Node000003"><a xlink:title=" ">
<path fill="none" stroke="#63b8ff" d="M1616.82,-58.61C1541.26,-51.78 1403.19,-38.19 1275.48,-19.03"/>
<polygon fill="#63b8ff" stroke="#63b8ff" points="1275.93,-15.56 1265.52,-17.53 1274.88,-22.48 1275.93,-15.56"/>
</a>
</g>
</g>
<!-- Node4 -->
<g id="Node000004" class="node">
<title>Node4</title>
<g id="a_Node000004"><a xlink:title=" ">
<polygon fill="#e0e0e0" stroke="#999999" points="1325,-19 1284,-19 1284,0 1325,0 1325,-19"/>
<text text-anchor="middle" x="1304.5" y="-7" font-family="Helvetica,sans-Serif" font-size="10.00">wrl.h</text>
</a>
</g>
</g>
<!-- Node2&#45;&gt;Node4 -->
<g id="edge3_Node000002_Node000004" class="edge">
<title>Node2&#45;&gt;Node4</title>
<g id="a_edge3_Node000002_Node000004"><a xlink:title=" ">
<path fill="none" stroke="#63b8ff" d="M1616.8,-58.79C1551.05,-52.72 1439.35,-40.56 1335.35,-19.12"/>
<polygon fill="#63b8ff" stroke="#63b8ff" points="1335.82,-15.64 1325.31,-17.02 1334.38,-22.5 1335.82,-15.64"/>
</a>
</g>
</g>
<!-- Node5 -->
<g id="Node000005" class="node">
<title>Node5</title>
<g id="a_Node000005"><a xlink:title=" ">
<polygon fill="#e0e0e0" stroke="#999999" points="1414,-19 1343,-19 1343,0 1414,0 1414,-19"/>
<text text-anchor="middle" x="1378.5" y="-7" font-family="Helvetica,sans-Serif" font-size="10.00">wrl/client.h</text>
</a>
</g>
</g>
<!-- Node2&#45;&gt;Node5 -->
<g id="edge4_Node000002_Node000005" class="edge">
<title>Node2&#45;&gt;Node5</title>
<g id="a_edge4_Node000002_Node000005"><a xlink:title=" ">
<path fill="none" stroke="#63b8ff" d="M1624.61,-54.95C1576.36,-46.49 1500.21,-33.03 1424.54,-19.18"/>
<polygon fill="#63b8ff" stroke="#63b8ff" points="1424.82,-15.67 1414.36,-17.31 1423.56,-22.55 1424.82,-15.67"/>
</a>
</g>
</g>
<!-- Node6 -->
<g id="Node000006" class="node">
<title>Node6</title>
<g id="a_Node000006"><a xlink:title=" ">
<polygon fill="#e0e0e0" stroke="#999999" points="1482.5,-19 1432.5,-19 1432.5,0 1482.5,0 1482.5,-19"/>
<text text-anchor="middle" x="1457.5" y="-7" font-family="Helvetica,sans-Serif" font-size="10.00">cstdint</text>
</a>
</g>
</g>
<!-- Node2&#45;&gt;Node6 -->
<g id="edge5_Node000002_Node000006" class="edge">
<title>Node2&#45;&gt;Node6</title>
<g id="a_edge5_Node000002_Node000006"><a xlink:title=" ">
<path fill="none" stroke="#63b8ff" d="M1638.26,-54.94C1603.59,-46.51 1548.89,-33.17 1492.54,-19.25"/>
<polygon fill="#63b8ff" stroke="#63b8ff" points="1493.3,-15.83 1482.75,-16.83 1491.62,-22.62 1493.3,-15.83"/>
</a>
</g>
</g>
<!-- Node7 -->
<g id="Node000007" class="node">
<title>Node7</title>
<g id="a_Node000007"><a xlink:title=" ">
<polygon fill="#e0e0e0" stroke="#999999" points="1560.5,-19 1500.5,-19 1500.5,0 1560.5,0 1560.5,-19"/>
<text text-anchor="middle" x="1530.5" y="-7" font-family="Helvetica,sans-Serif" font-size="10.00">iostream</text>
</a>
</g>
</g>
<!-- Node2&#45;&gt;Node7 -->
<g id="edge6_Node000002_Node000007" class="edge">
<title>Node2&#45;&gt;Node7</title>
<g id="a_edge6_Node000002_Node000007"><a xlink:title=" ">
<path fill="none" stroke="#63b8ff" d="M1650.52,-54.98C1627,-46.27 1590.21,-32.63 1563.56,-22.75"/>
<polygon fill="#63b8ff" stroke="#63b8ff" points="1564.49,-19.36 1553.89,-19.17 1562.05,-25.93 1564.49,-19.36"/>
</a>
</g>
</g>
<!-- Node8 -->
<g id="Node000008" class="node">
<title>Node8</title>
<g id="a_Node000008"><a xlink:title=" ">
<polygon fill="#e0e0e0" stroke="#999999" points="1632,-19 1579,-19 1579,0 1632,0 1632,-19"/>
<text text-anchor="middle" x="1605.5" y="-7" font-family="Helvetica,sans-Serif" font-size="10.00">string.h</text>
</a>
</g>
</g>
<!-- Node2&#45;&gt;Node8 -->
<g id="edge7_Node000002_Node000008" class="edge">
<title>Node2&#45;&gt;Node8</title>
<g id="a_edge7_Node000002_Node000008"><a xlink:title=" ">
<path fill="none" stroke="#63b8ff" d="M1662.57,-54.98C1652.42,-47.07 1637.08,-35.11 1624.85,-25.58"/>
<polygon fill="#63b8ff" stroke="#63b8ff" points="1626.66,-22.56 1616.62,-19.17 1622.36,-28.08 1626.66,-22.56"/>
</a>
</g>
</g>
<!-- Node9 -->
<g id="Node000009" class="node">
<title>Node9</title>
<g id="a_Node000009"><a xlink:title=" ">
<polygon fill="#e0e0e0" stroke="#999999" points="2859.5,-19 2815.5,-19 2815.5,0 2859.5,0 2859.5,-19"/>
<text text-anchor="middle" x="2837.5" y="-7" font-family="Helvetica,sans-Serif" font-size="10.00">string</text>
</a>
</g>
</g>
<!-- Node2&#45;&gt;Node9 -->
<g id="edge8_Node000002_Node000009" class="edge">
<title>Node2&#45;&gt;Node9</title>
<g id="a_edge8_Node000002_Node000009"><a xlink:title=" ">
<path fill="none" stroke="#63b8ff" d="M1730.02,-62.99C1925.96,-60.94 2576.11,-51.89 2805.34,-18.74"/>
<polygon fill="#63b8ff" stroke="#63b8ff" points="2805.91,-22.19 2815.28,-17.25 2804.87,-15.27 2805.91,-22.19"/>
</a>
</g>
</g>
<!-- Node10 -->
<g id="Node000010" class="node">
<title>Node10</title>
<g id="a_Node000010"><a xlink:title=" ">
<polygon fill="#e0e0e0" stroke="#999999" points="2797,-19 2750,-19 2750,0 2797,0 2797,-19"/>
<text text-anchor="middle" x="2773.5" y="-7" font-family="Helvetica,sans-Serif" font-size="10.00">vector</text>
</a>
</g>
</g>
<!-- Node2&#45;&gt;Node10 -->
<g id="edge9_Node000002_Node000010" class="edge">
<title>Node2&#45;&gt;Node10</title>
<g id="a_edge9_Node000002_Node000010"><a xlink:title=" ">
<path fill="none" stroke="#63b8ff" d="M1730.06,-62.77C1918.43,-60.08 2524.35,-49.37 2739.89,-18.86"/>
<polygon fill="#63b8ff" stroke="#63b8ff" points="2740.47,-22.32 2749.86,-17.4 2739.45,-15.39 2740.47,-22.32"/>
</a>
</g>
</g>
<!-- Node11 -->
<g id="Node000011" class="node">
<title>Node11</title>
<g id="a_Node000011"><a xlink:title=" ">
<polygon fill="#e0e0e0" stroke="#999999" points="1697,-19 1650,-19 1650,0 1697,0 1697,-19"/>
<text text-anchor="middle" x="1673.5" y="-7" font-family="Helvetica,sans-Serif" font-size="10.00">deque</text>
</a>
</g>
</g>
<!-- Node2&#45;&gt;Node11 -->
<g id="edge10_Node000002_Node000011" class="edge">
<title>Node2&#45;&gt;Node11</title>
<g id="a_edge10_Node000002_Node000011"><a xlink:title=" ">
<path fill="none" stroke="#63b8ff" d="M1673.5,-54.75C1673.5,-47.8 1673.5,-37.85 1673.5,-29.13"/>
<polygon fill="#63b8ff" stroke="#63b8ff" points="1677,-29.09 1673.5,-19.09 1670,-29.09 1677,-29.09"/>
</a>
</g>
</g>
<!-- Node12 -->
<g id="Node000012" class="node">
<title>Node12</title>
<g id="a_Node000012"><a xlink:title=" ">
<polygon fill="#e0e0e0" stroke="#999999" points="1808,-19 1715,-19 1715,0 1808,0 1808,-19"/>
<text text-anchor="middle" x="1761.5" y="-7" font-family="Helvetica,sans-Serif" font-size="10.00">unordered_map</text>
</a>
</g>
</g>
<!-- Node2&#45;&gt;Node12 -->
<g id="edge11_Node000002_Node000012" class="edge">
<title>Node2&#45;&gt;Node12</title>
<g id="a_edge11_Node000002_Node000012"><a xlink:title=" ">
<path fill="none" stroke="#63b8ff" d="M1687.64,-54.98C1701.29,-46.77 1722.19,-34.18 1738.28,-24.49"/>
<polygon fill="#63b8ff" stroke="#63b8ff" points="1740.34,-27.33 1747.1,-19.17 1736.73,-21.33 1740.34,-27.33"/>
</a>
</g>
</g>
<!-- Node13 -->
<g id="Node000013" class="node">
<title>Node13</title>
<g id="a_Node000013"><a xlink:title=" ">
<polygon fill="#e0e0e0" stroke="#999999" points="1864.5,-19 1826.5,-19 1826.5,0 1864.5,0 1864.5,-19"/>
<text text-anchor="middle" x="1845.5" y="-7" font-family="Helvetica,sans-Serif" font-size="10.00">map</text>
</a>
</g>
</g>
<!-- Node2&#45;&gt;Node13 -->
<g id="edge12_Node000002_Node000013" class="edge">
<title>Node2&#45;&gt;Node13</title>
<g id="a_edge12_Node000002_Node000013"><a xlink:title=" ">
<path fill="none" stroke="#63b8ff" d="M1701.13,-54.98C1732.84,-45.22 1784.58,-29.27 1816.75,-19.36"/>
<polygon fill="#63b8ff" stroke="#63b8ff" points="1817.93,-22.66 1826.45,-16.37 1815.87,-15.97 1817.93,-22.66"/>
</a>
</g>
</g>
<!-- Node14 -->
<g id="Node000014" class="node">
<title>Node14</title>
<g id="a_Node000014"><a xlink:title=" ">
<polygon fill="#e0e0e0" stroke="#999999" points="1940.5,-19 1882.5,-19 1882.5,0 1940.5,0 1940.5,-19"/>
<text text-anchor="middle" x="1911.5" y="-7" font-family="Helvetica,sans-Serif" font-size="10.00">memory</text>
</a>
</g>
</g>
<!-- Node2&#45;&gt;Node14 -->
<g id="edge13_Node000002_Node000014" class="edge">
<title>Node2&#45;&gt;Node14</title>
<g id="a_edge13_Node000002_Node000014"><a xlink:title=" ">
<path fill="none" stroke="#63b8ff" d="M1711.84,-54.98C1750.06,-46.49 1810.7,-33 1872.53,-19.22"/>
<polygon fill="#63b8ff" stroke="#63b8ff" points="1873.46,-22.59 1882.45,-17 1871.93,-15.76 1873.46,-22.59"/>
</a>
</g>
</g>
<!-- Node15 -->
<g id="Node000015" class="node">
<title>Node15</title>
<g id="a_Node000015"><a xlink:title=" ">
<polygon fill="#e0e0e0" stroke="#999999" points="129.5,-19 65.5,-19 65.5,0 129.5,0 129.5,-19"/>
<text text-anchor="middle" x="97.5" y="-7" font-family="Helvetica,sans-Serif" font-size="10.00">algorithm</text>
</a>
</g>
</g>
<!-- Node2&#45;&gt;Node15 -->
<g id="edge14_Node000002_Node000015" class="edge">
<title>Node2&#45;&gt;Node15</title>
<g id="a_edge14_Node000002_Node000015"><a xlink:title=" ">
<path fill="none" stroke="#63b8ff" d="M1616.66,-63.19C1377.74,-61.67 453.24,-53.71 139.64,-18.86"/>
<polygon fill="#63b8ff" stroke="#63b8ff" points="139.98,-15.38 129.64,-17.72 139.18,-22.33 139.98,-15.38"/>
</a>
</g>
</g>
<!-- Node16 -->
<g id="Node000016" class="node">
<title>Node16</title>
<g id="a_Node000016"><a xlink:title=" ">
<polygon fill="#e0e0e0" stroke="#999999" points="2732,-19 2667,-19 2667,0 2732,0 2732,-19"/>
<text text-anchor="middle" x="2699.5" y="-7" font-family="Helvetica,sans-Serif" font-size="10.00">functional</text>
</a>
</g>
</g>
<!-- Node2&#45;&gt;Node16 -->
<g id="edge15_Node000002_Node000016" class="edge">
<title>Node2&#45;&gt;Node16</title>
<g id="a_edge15_Node000002_Node000016"><a xlink:title=" ">
<path fill="none" stroke="#63b8ff" d="M1730.06,-63.99C1879.78,-64.63 2298.93,-62.2 2656.53,-18.89"/>
<polygon fill="#63b8ff" stroke="#63b8ff" points="2657.06,-22.35 2666.56,-17.67 2656.21,-15.41 2657.06,-22.35"/>
</a>
</g>
</g>
<!-- Node17 -->
<g id="Node000017" class="node">
<title>Node17</title>
<g id="a_Node000017"><a xlink:title=" ">
<polygon fill="#e0e0e0" stroke="#999999" points="2008.5,-19 1958.5,-19 1958.5,0 2008.5,0 2008.5,-19"/>
<text text-anchor="middle" x="1983.5" y="-7" font-family="Helvetica,sans-Serif" font-size="10.00">chrono</text>
</a>
</g>
</g>
<!-- Node2&#45;&gt;Node17 -->
<g id="edge16_Node000002_Node000017" class="edge">
<title>Node2&#45;&gt;Node17</title>
<g id="a_edge16_Node000002_Node000017"><a xlink:title=" ">
<path fill="none" stroke="#63b8ff" d="M1730.05,-55.82C1783.83,-48.19 1867.2,-35.53 1948.41,-19.08"/>
<polygon fill="#63b8ff" stroke="#63b8ff" points="1949.21,-22.49 1958.3,-17.05 1947.8,-15.63 1949.21,-22.49"/>
</a>
</g>
</g>
<!-- Node18 -->
<g id="Node000018" class="node">
<title>Node18</title>
<g id="a_Node000018"><a xlink:title=" ">
<polygon fill="#e0e0e0" stroke="#999999" points="2072.5,-19 2026.5,-19 2026.5,0 2072.5,0 2072.5,-19"/>
<text text-anchor="middle" x="2049.5" y="-7" font-family="Helvetica,sans-Serif" font-size="10.00">cstdio</text>
</a>
</g>
</g>
<!-- Node2&#45;&gt;Node18 -->
<g id="edge17_Node000002_Node000018" class="edge">
<title>Node2&#45;&gt;Node18</title>
<g id="a_edge17_Node000002_Node000018"><a xlink:title=" ">
<path fill="none" stroke="#63b8ff" d="M1730.18,-58.47C1796.59,-52.05 1910.07,-39.51 2016.24,-19.02"/>
<polygon fill="#63b8ff" stroke="#63b8ff" points="2017.02,-22.43 2026.16,-17.08 2015.68,-15.56 2017.02,-22.43"/>
</a>
</g>
</g>
<!-- Node19 -->
<g id="Node000019" class="node">
<title>Node19</title>
<g id="a_Node000019"><a xlink:title=" ">
<polygon fill="#e0e0e0" stroke="#999999" points="2142.5,-19 2090.5,-19 2090.5,0 2142.5,0 2142.5,-19"/>
<text text-anchor="middle" x="2116.5" y="-7" font-family="Helvetica,sans-Serif" font-size="10.00">cassert</text>
</a>
</g>
</g>
<!-- Node2&#45;&gt;Node19 -->
<g id="edge18_Node000002_Node000019" class="edge">
<title>Node2&#45;&gt;Node19</title>
<g id="a_edge18_Node000002_Node000019"><a xlink:title=" ">
<path fill="none" stroke="#63b8ff" d="M1730.26,-59.65C1807.36,-53.89 1949.64,-41.45 2080.04,-19.04"/>
<polygon fill="#63b8ff" stroke="#63b8ff" points="2080.95,-22.44 2090.2,-17.27 2079.75,-15.54 2080.95,-22.44"/>
</a>
</g>
</g>
<!-- Node20 -->
<g id="Node000020" class="node">
<title>Node20</title>
<g id="a_Node000020"><a xlink:title=" ">
<polygon fill="#e0e0e0" stroke="#999999" points="2226,-19 2161,-19 2161,0 2226,0 2226,-19"/>
<text text-anchor="middle" x="2193.5" y="-7" font-family="Helvetica,sans-Serif" font-size="10.00">typeindex</text>
</a>
</g>
</g>
<!-- Node2&#45;&gt;Node20 -->
<g id="edge19_Node000002_Node000020" class="edge">
<title>Node2&#45;&gt;Node20</title>
<g id="a_edge19_Node000002_Node000020"><a xlink:title=" ">
<path fill="none" stroke="#63b8ff" d="M1730.03,-60.2C1817.87,-54.64 1992.63,-41.86 2150.64,-18.97"/>
<polygon fill="#63b8ff" stroke="#63b8ff" points="2151.16,-22.43 2160.54,-17.52 2150.14,-15.5 2151.16,-22.43"/>
</a>
</g>
</g>
<!-- Node21 -->
<g id="Node000021" class="node">
<title>Node21</title>
<g id="a_Node000021"><a xlink:title=" ">
<polygon fill="#e0e0e0" stroke="#999999" points="2312.5,-19 2244.5,-19 2244.5,0 2312.5,0 2312.5,-19"/>
<text text-anchor="middle" x="2278.5" y="-7" font-family="Helvetica,sans-Serif" font-size="10.00">filesystem</text>
</a>
</g>
</g>
<!-- Node2&#45;&gt;Node21 -->
<g id="edge20_Node000002_Node000021" class="edge">
<title>Node2&#45;&gt;Node21</title>
<g id="a_edge20_Node000002_Node000021"><a xlink:title=" ">
<path fill="none" stroke="#63b8ff" d="M1730.37,-61.18C1830.31,-56.63 2044.08,-44.77 2234.12,-19.03"/>
<polygon fill="#63b8ff" stroke="#63b8ff" points="2234.86,-22.46 2244.29,-17.63 2233.91,-15.52 2234.86,-22.46"/>
</a>
</g>
</g>
<!-- Node22 -->
<g id="Node000022" class="node">
<title>Node22</title>
<g id="a_Node000022"><a xlink:title=" ">
<polygon fill="#e0e0e0" stroke="#999999" points="2362.5,-19 2330.5,-19 2330.5,0 2362.5,0 2362.5,-19"/>
<text text-anchor="middle" x="2346.5" y="-7" font-family="Helvetica,sans-Serif" font-size="10.00">set</text>
</a>
</g>
</g>
<!-- Node2&#45;&gt;Node22 -->
<g id="edge21_Node000002_Node000022" class="edge">
<title>Node2&#45;&gt;Node22</title>
<g id="a_edge21_Node000002_Node000022"><a xlink:title=" ">
<path fill="none" stroke="#63b8ff" d="M1730.14,-61.49C1862.72,-56.5 2191.14,-42.35 2320.22,-18.64"/>
<polygon fill="#63b8ff" stroke="#63b8ff" points="2321.11,-22.04 2330.26,-16.7 2319.78,-15.16 2321.11,-22.04"/>
</a>
</g>
</g>
<!-- Node23 -->
<g id="Node000023" class="node">
<title>Node23</title>
<g id="a_Node000023"><a xlink:title=" ">
<polygon fill="#e0e0e0" stroke="#999999" points="2436,-19 2381,-19 2381,0 2436,0 2436,-19"/>
<text text-anchor="middle" x="2408.5" y="-7" font-family="Helvetica,sans-Serif" font-size="10.00">fstream</text>
</a>
</g>
</g>
<!-- Node2&#45;&gt;Node23 -->
<g id="edge22_Node000002_Node000023" class="edge">
<title>Node2&#45;&gt;Node23</title>
<g id="a_edge22_Node000002_Node000023"><a xlink:title=" ">
<path fill="none" stroke="#63b8ff" d="M1730.37,-62.99C1848.14,-61.26 2127.32,-53.67 2370.62,-18.86"/>
<polygon fill="#63b8ff" stroke="#63b8ff" points="2371.32,-22.29 2380.71,-17.39 2370.31,-15.36 2371.32,-22.29"/>
</a>
</g>
</g>
<!-- Node24 -->
<g id="Node000024" class="node">
<title>Node24</title>
<g id="a_Node000024"><a xlink:title=" ">
<polygon fill="#e0e0e0" stroke="#999999" points="2510.5,-19 2454.5,-19 2454.5,0 2510.5,0 2510.5,-19"/>
<text text-anchor="middle" x="2482.5" y="-7" font-family="Helvetica,sans-Serif" font-size="10.00">sstream</text>
</a>
</g>
</g>
<!-- Node2&#45;&gt;Node24 -->
<g id="edge23_Node000002_Node000024" class="edge">
<title>Node2&#45;&gt;Node24</title>
<g id="a_edge23_Node000002_Node000024"><a xlink:title=" ">
<path fill="none" stroke="#63b8ff" d="M1730,-63.49C1856.45,-62.76 2171.87,-57.06 2444.23,-18.92"/>
<polygon fill="#63b8ff" stroke="#63b8ff" points="2444.9,-22.36 2454.31,-17.49 2443.92,-15.43 2444.9,-22.36"/>
</a>
</g>
</g>
<!-- Node25 -->
<g id="Node000025" class="node">
<title>Node25</title>
<g id="a_Node000025"><a xlink:title=" ">
<polygon fill="#e0e0e0" stroke="#999999" points="2576.5,-19 2528.5,-19 2528.5,0 2576.5,0 2576.5,-19"/>
<text text-anchor="middle" x="2552.5" y="-7" font-family="Helvetica,sans-Serif" font-size="10.00">mutex</text>
</a>
</g>
</g>
<!-- Node2&#45;&gt;Node25 -->
<g id="edge24_Node000002_Node000025" class="edge">
<title>Node2&#45;&gt;Node25</title>
<g id="a_edge24_Node000002_Node000025"><a xlink:title=" ">
<path fill="none" stroke="#63b8ff" d="M1730.26,-61.99C1890.95,-57.49 2347.88,-43.05 2518.38,-18.78"/>
<polygon fill="#63b8ff" stroke="#63b8ff" points="2519.09,-22.22 2528.46,-17.28 2518.06,-15.29 2519.09,-22.22"/>
</a>
</g>
</g>
<!-- Node26 -->
<g id="Node000026" class="node">
<title>Node26</title>
<g id="a_Node000026"><a xlink:title=" ">
<polygon fill="#e0e0e0" stroke="#999999" points="2648.5,-19 2594.5,-19 2594.5,0 2648.5,0 2648.5,-19"/>
<text text-anchor="middle" x="2621.5" y="-7" font-family="Helvetica,sans-Serif" font-size="10.00">random</text>
</a>
</g>
</g>
<!-- Node2&#45;&gt;Node26 -->
<g id="edge25_Node000002_Node000026" class="edge">
<title>Node2&#45;&gt;Node26</title>
<g id="a_edge25_Node000002_Node000026"><a xlink:title=" ">
<path fill="none" stroke="#63b8ff" d="M1730.01,-62.1C1899.06,-57.7 2399.96,-43.07 2584.36,-18.83"/>
<polygon fill="#63b8ff" stroke="#63b8ff" points="2585.04,-22.27 2594.47,-17.44 2584.09,-15.33 2585.04,-22.27"/>
</a>
</g>
</g>
<!-- Node27 -->
<g id="Node000027" class="node">
<title>Node27</title>
<g id="a_Node000027"><a xlink:title=" ">
<polygon fill="#e0e0e0" stroke="#999999" points="395.5,-19 347.5,-19 347.5,0 395.5,0 395.5,-19"/>
<text text-anchor="middle" x="371.5" y="-7" font-family="Helvetica,sans-Serif" font-size="10.00">thread</text>
</a>
</g>
</g>
<!-- Node2&#45;&gt;Node27 -->
<g id="edge26_Node000002_Node000027" class="edge">
<title>Node2&#45;&gt;Node27</title>
<g id="a_edge26_Node000002_Node000027"><a xlink:title=" ">
<path fill="none" stroke="#63b8ff" d="M1616.98,-63.15C1405.93,-61.58 663.48,-53.77 405.6,-18.75"/>
<polygon fill="#63b8ff" stroke="#63b8ff" points="405.92,-15.26 395.53,-17.33 404.94,-22.19 405.92,-15.26"/>
</a>
</g>
</g>
<!-- Node28 -->
<g id="Node000028" class="node">
<title>Node28</title>
<g id="a_Node000028"><a xlink:title=" ">
<polygon fill="#e0e0e0" stroke="#999999" points="463.5,-19 413.5,-19 413.5,0 463.5,0 463.5,-19"/>
<text text-anchor="middle" x="438.5" y="-7" font-family="Helvetica,sans-Serif" font-size="10.00">atomic</text>
</a>
</g>
</g>
<!-- Node2&#45;&gt;Node28 -->
<g id="edge27_Node000002_Node000028" class="edge">
<title>Node2&#45;&gt;Node28</title>
<g id="a_edge27_Node000002_Node000028"><a xlink:title=" ">
<path fill="none" stroke="#63b8ff" d="M1616.85,-62.96C1413.19,-60.79 717.75,-51.24 473.86,-18.81"/>
<polygon fill="#63b8ff" stroke="#63b8ff" points="474.02,-15.3 463.64,-17.4 473.06,-22.24 474.02,-15.3"/>
</a>
</g>
</g>
<!-- Node29 -->
<g id="Node000029" class="node">
<title>Node29</title>
<g id="a_Node000029"><a xlink:title=" ">
<polygon fill="#e0e0e0" stroke="#999999" points="531,-19 482,-19 482,0 531,0 531,-19"/>
<text text-anchor="middle" x="506.5" y="-7" font-family="Helvetica,sans-Serif" font-size="10.00">cctype</text>
</a>
</g>
</g>
<!-- Node2&#45;&gt;Node29 -->
<g id="edge28_Node000002_Node000029" class="edge">
<title>Node2&#45;&gt;Node29</title>
<g id="a_edge28_Node000002_Node000029"><a xlink:title=" ">
<path fill="none" stroke="#63b8ff" d="M1616.66,-62.81C1420.39,-60.21 771.09,-49.54 541.24,-18.71"/>
<polygon fill="#63b8ff" stroke="#63b8ff" points="541.65,-15.23 531.27,-17.32 540.69,-22.16 541.65,-15.23"/>
</a>
</g>
</g>
<!-- Node30 -->
<g id="Node000030" class="node">
<title>Node30</title>
<g id="a_Node000030"><a xlink:title=" ">
<polygon fill="#e0e0e0" stroke="#999999" points="605.5,-19 549.5,-19 549.5,0 605.5,0 605.5,-19"/>
<text text-anchor="middle" x="577.5" y="-7" font-family="Helvetica,sans-Serif" font-size="10.00">d3d12.h</text>
</a>
</g>
</g>
<!-- Node2&#45;&gt;Node30 -->
<g id="edge29_Node000002_Node000030" class="edge">
<title>Node2&#45;&gt;Node30</title>
<g id="a_edge29_Node000002_Node000030"><a xlink:title=" ">
<path fill="none" stroke="#63b8ff" d="M1616.79,-62.49C1429.37,-58.95 830.02,-45.87 615.6,-18.83"/>
<polygon fill="#63b8ff" stroke="#63b8ff" points="616.05,-15.36 605.68,-17.54 615.14,-22.3 616.05,-15.36"/>
</a>
</g>
</g>
<!-- Node31 -->
<g id="Node000031" class="node">
<title>Node31</title>
<g id="a_Node000031"><a xlink:title=" ">
<polygon fill="#e0e0e0" stroke="#999999" points="687.5,-19 623.5,-19 623.5,0 687.5,0 687.5,-19"/>
<text text-anchor="middle" x="655.5" y="-7" font-family="Helvetica,sans-Serif" font-size="10.00">dxgi1_6.h</text>
</a>
</g>
</g>
<!-- Node2&#45;&gt;Node31 -->
<g id="edge30_Node000002_Node000031" class="edge">
<title>Node2&#45;&gt;Node31</title>
<g id="a_edge30_Node000002_Node000031"><a xlink:title=" ">
<path fill="none" stroke="#63b8ff" d="M1616.79,-64.06C1467.62,-64.85 1051.99,-62.72 697.59,-18.91"/>
<polygon fill="#63b8ff" stroke="#63b8ff" points="698,-15.43 687.65,-17.67 697.14,-22.38 698,-15.43"/>
</a>
</g>
</g>
<!-- Node32 -->
<g id="Node000032" class="node">
<title>Node32</title>
<g id="a_Node000032"><a xlink:title=" ">
<polygon fill="#e0e0e0" stroke="#999999" points="791.5,-19 705.5,-19 705.5,0 791.5,0 791.5,-19"/>
<text text-anchor="middle" x="748.5" y="-7" font-family="Helvetica,sans-Serif" font-size="10.00">d3dcompiler.h</text>
</a>
</g>
</g>
<!-- Node2&#45;&gt;Node32 -->
<g id="edge31_Node000002_Node000032" class="edge">
<title>Node2&#45;&gt;Node32</title>
<g id="a_edge31_Node000002_Node000032"><a xlink:title=" ">
<path fill="none" stroke="#63b8ff" d="M1616.9,-62.79C1479.14,-60.59 1115.32,-51.99 801.78,-19"/>
<polygon fill="#63b8ff" stroke="#63b8ff" points="801.89,-15.5 791.58,-17.92 801.15,-22.46 801.89,-15.5"/>
</a>
</g>
</g>
<!-- Node33 -->
<g id="Node000033" class="node">
<title>Node33</title>
<g id="a_Node000033"><a xlink:title=" ">
<polygon fill="#e0e0e0" stroke="#999999" points="233.5,-19 147.5,-19 147.5,0 233.5,0 233.5,-19"/>
<text text-anchor="middle" x="190.5" y="-7" font-family="Helvetica,sans-Serif" font-size="10.00">DirectXMath.h</text>
</a>
</g>
</g>
<!-- Node2&#45;&gt;Node33 -->
<g id="edge32_Node000002_Node000033" class="edge">
<title>Node2&#45;&gt;Node33</title>
<g id="a_edge32_Node000002_Node000033"><a xlink:title=" ">
<path fill="none" stroke="#63b8ff" d="M1616.68,-62.73C1388.38,-59.47 536.48,-45.83 243.75,-18.95"/>
<polygon fill="#63b8ff" stroke="#63b8ff" points="243.86,-15.44 233.57,-17.99 243.2,-22.41 243.86,-15.44"/>
</a>
</g>
</g>
<!-- Node34 -->
<g id="Node000034" class="node">
<title>Node34</title>
<g id="a_Node000034"><a xlink:title=" ">
<polygon fill="#e0e0e0" stroke="#999999" points="927,-19 810,-19 810,0 927,0 927,-19"/>
<text text-anchor="middle" x="868.5" y="-7" font-family="Helvetica,sans-Serif" font-size="10.00">assimp/Importer.hpp</text>
</a>
</g>
</g>
<!-- Node2&#45;&gt;Node34 -->
<g id="edge33_Node000002_Node000034" class="edge">
<title>Node2&#45;&gt;Node34</title>
<g id="a_edge33_Node000002_Node000034"><a xlink:title=" ">
<path fill="none" stroke="#63b8ff" d="M1616.54,-61.31C1494.23,-56.32 1197.21,-42.78 937.09,-18.99"/>
<polygon fill="#63b8ff" stroke="#63b8ff" points="937.36,-15.5 927.08,-18.06 936.72,-22.47 937.36,-15.5"/>
</a>
</g>
</g>
<!-- Node35 -->
<g id="Node000035" class="node">
<title>Node35</title>
<g id="a_Node000035"><a xlink:title=" ">
<polygon fill="#e0e0e0" stroke="#999999" points="1037.5,-19 945.5,-19 945.5,0 1037.5,0 1037.5,-19"/>
<text text-anchor="middle" x="991.5" y="-7" font-family="Helvetica,sans-Serif" font-size="10.00">assimp/scene.h</text>
</a>
</g>
</g>
<!-- Node2&#45;&gt;Node35 -->
<g id="edge34_Node000002_Node000035" class="edge">
<title>Node2&#45;&gt;Node35</title>
<g id="a_edge34_Node000002_Node000035"><a xlink:title=" ">
<path fill="none" stroke="#63b8ff" d="M1616.73,-61.04C1508.2,-56 1263.62,-42.99 1047.62,-19.03"/>
<polygon fill="#63b8ff" stroke="#63b8ff" points="1048,-15.55 1037.68,-17.92 1047.23,-22.51 1048,-15.55"/>
</a>
</g>
</g>
<!-- Node36 -->
<g id="Node000036" class="node">
<title>Node36</title>
<g id="a_Node000036"><a xlink:title=" ">
<polygon fill="#e0e0e0" stroke="#999999" points="1177.5,-19 1055.5,-19 1055.5,0 1177.5,0 1177.5,-19"/>
<text text-anchor="middle" x="1116.5" y="-7" font-family="Helvetica,sans-Serif" font-size="10.00">assimp/postprocess.h</text>
</a>
</g>
</g>
<!-- Node2&#45;&gt;Node36 -->
<g id="edge35_Node000002_Node000036" class="edge">
<title>Node2&#45;&gt;Node36</title>
<g id="a_edge35_Node000002_Node000036"><a xlink:title=" ">
<path fill="none" stroke="#63b8ff" d="M1616.84,-58.87C1527.83,-51.48 1349.56,-36.19 1187.71,-19.1"/>
<polygon fill="#63b8ff" stroke="#63b8ff" points="1187.88,-15.6 1177.57,-18.02 1187.15,-22.56 1187.88,-15.6"/>
</a>
</g>
</g>
<!-- Node37 -->
<g id="Node000037" class="node">
<title>Node37</title>
<g id="a_Node000037"><a xlink:href="Logger_8h.html" target="_top" xlink:title="デバッグログ出力システム">
<polygon fill="white" stroke="#666666" points="329.5,-19 251.5,-19 251.5,0 329.5,0 329.5,-19"/>
<text text-anchor="middle" x="290.5" y="-7" font-family="Helvetica,sans-Serif" font-size="10.00">Log/Logger.h</text>
</a>
</g>
</g>
<!-- Node2&#45;&gt;Node37 -->
<g id="edge36_Node000002_Node000037" class="edge">
<title>Node2&#45;&gt;Node37</title>
<g id="a_edge36_Node000002_Node000037"><a xlink:title=" ">
<path fill="none" stroke="#63b8ff" d="M1616.92,-62.73C1397.94,-59.52 605.76,-46.05 339.87,-20.05"/>
<polygon fill="#63b8ff" stroke="#63b8ff" points="340.18,-16.56 329.87,-19.04 339.47,-23.53 340.18,-16.56"/>
</a>
</g>
</g>
<!-- Node37&#45;&gt;Node2 -->
<g id="edge37_Node000037_Node000002" class="edge">
<title>Node37&#45;&gt;Node2</title>
<g id="a_edge37_Node000037_Node000002"><a xlink:title=" ">
<path fill="none" stroke="#63b8ff" d="M329.71,-16.55C335.71,-17.52 341.78,-18.4 347.5,-19 596.21,-45.03 1373.36,-58.79 1606.67,-62.47"/>
<polygon fill="#63b8ff" stroke="#63b8ff" points="1606.66,-65.97 1616.72,-62.63 1606.77,-58.97 1606.66,-65.97"/>
</a>
</g>
</g>
<!-- Node38&#45;&gt;Node2 -->
<g id="edge39_Node000038_Node000002" class="edge">
<title>Node38&#45;&gt;Node2</title>
<g id="a_edge39_Node000038_Node000002"><a xlink:title=" ">
<path fill="none" stroke="#63b8ff" d="M1631.06,-109.84C1639.18,-101.35 1649.55,-90.52 1658,-81.69"/>
<polygon fill="#63b8ff" stroke="#63b8ff" points="1660.72,-83.91 1665.11,-74.27 1655.67,-79.07 1660.72,-83.91"/>
</a>
</g>
</g>
<!-- Node39 -->
<g id="Node000039" class="node">
<title>Node39</title>
<g id="a_Node000039"><a xlink:href="SpanMath_8h.html" target="_top" xlink:title="算術ライブラリ (Vector, Matrix, Quaternion)。">
<polygon fill="white" stroke="#666666" points="254.5,-74 126.5,-74 126.5,-55 254.5,-55 254.5,-74"/>
<text text-anchor="middle" x="190.5" y="-62" font-family="Helvetica,sans-Serif" font-size="10.00">Core/Math/SpanMath.h</text>
</a>
</g>
</g>
<!-- Node38&#45;&gt;Node39 -->
<g id="edge40_Node000038_Node000039" class="edge">
<title>Node38&#45;&gt;Node39</title>
<g id="a_edge40_Node000038_Node000039"><a xlink:title=" ">
<path fill="none" stroke="#63b8ff" d="M1560.68,-121.67C1336.99,-112.5 517.08,-78.89 264.84,-68.55"/>
<polygon fill="#63b8ff" stroke="#63b8ff" points="264.82,-65.04 254.68,-68.13 264.53,-72.04 264.82,-65.04"/>
</a>
</g>
</g>
<!-- Node39&#45;&gt;Node15 -->
<g id="edge43_Node000039_Node000015" class="edge">
<title>Node39&#45;&gt;Node15</title>
<g id="a_edge43_Node000039_Node000015"><a xlink:title=" ">
<path fill="none" stroke="#63b8ff" d="M175.56,-54.98C161,-46.69 138.63,-33.94 121.57,-24.22"/>
<polygon fill="#63b8ff" stroke="#63b8ff" points="123.14,-21.08 112.71,-19.17 119.67,-27.16 123.14,-21.08"/>
</a>
</g>
</g>
<!-- Node39&#45;&gt;Node33 -->
<g id="edge41_Node000039_Node000033" class="edge">
<title>Node39&#45;&gt;Node33</title>
<g id="a_edge41_Node000039_Node000033"><a xlink:title=" ">
<path fill="none" stroke="#63b8ff" d="M190.5,-54.75C190.5,-47.8 190.5,-37.85 190.5,-29.13"/>
<polygon fill="#63b8ff" stroke="#63b8ff" points="194,-29.09 190.5,-19.09 187,-29.09 194,-29.09"/>
</a>
</g>
</g>
<!-- Node40 -->
<g id="Node000040" class="node">
<title>Node40</title>
<g id="a_Node000040"><a xlink:title=" ">
<polygon fill="#e0e0e0" stroke="#999999" points="47,-19 0,-19 0,0 47,0 47,-19"/>
<text text-anchor="middle" x="23.5" y="-7" font-family="Helvetica,sans-Serif" font-size="10.00">cmath</text>
</a>
</g>
</g>
<!-- Node39&#45;&gt;Node40 -->
<g id="edge42_Node000039_Node000040" class="edge">
<title>Node39&#45;&gt;Node40</title>
<g id="a_edge42_Node000039_Node000040"><a xlink:title=" ">
<path fill="none" stroke="#63b8ff" d="M163.67,-54.98C134.55,-45.74 88.02,-30.98 56.64,-21.02"/>
<polygon fill="#63b8ff" stroke="#63b8ff" points="57.62,-17.66 47.03,-17.97 55.5,-24.33 57.62,-17.66"/>
</a>
</g>
</g>
<!-- Node41&#45;&gt;Node9 -->
<g id="edge60_Node000041_Node000009" class="edge">
<title>Node41&#45;&gt;Node9</title>
<g id="a_edge60_Node000041_Node000009"><a xlink:title=" ">
<path fill="none" stroke="#63b8ff" d="M2545.56,-240.12C2611.64,-233.28 2717.42,-218.94 2748.5,-195 2803.65,-152.52 2826.5,-67.13 2834.2,-29.29"/>
<polygon fill="#63b8ff" stroke="#63b8ff" points="2837.69,-29.65 2836.12,-19.17 2830.81,-28.34 2837.69,-29.65"/>
</a>
</g>
</g>
<!-- Node41&#45;&gt;Node10 -->
<g id="edge59_Node000041_Node000010" class="edge">
<title>Node41&#45;&gt;Node10</title>
<g id="a_edge59_Node000041_Node000010"><a xlink:title=" ">
<path fill="none" stroke="#63b8ff" d="M2545.7,-240.09C2607.39,-233.47 2702,-219.59 2727.5,-195 2773.8,-150.35 2776.27,-66.79 2774.81,-29.41"/>
<polygon fill="#63b8ff" stroke="#63b8ff" points="2778.3,-29.19 2774.27,-19.39 2771.31,-29.56 2778.3,-29.19"/>
</a>
</g>
</g>
<!-- Node42 -->
<g id="Node000042" class="node">
<title>Node42</title>
<g id="a_Node000042"><a xlink:href="SpanAttributes_8h.html" target="_top" xlink:title="インスペクタ表示用の属性 (Attribute) 定義。">
<polygon fill="white" stroke="#666666" points="2578.5,-195 2480.5,-195 2480.5,-176 2578.5,-176 2578.5,-195"/>
<text text-anchor="middle" x="2529.5" y="-183" font-family="Helvetica,sans-Serif" font-size="10.00">SpanAttributes.h</text>
</a>
</g>
</g>
<!-- Node41&#45;&gt;Node42 -->
<g id="edge45_Node000041_Node000042" class="edge">
<title>Node41&#45;&gt;Node42</title>
<g id="a_edge45_Node000041_Node000042"><a xlink:title=" ">
<path fill="none" stroke="#63b8ff" d="M2499.94,-230.84C2505.37,-222.69 2512.23,-212.4 2517.98,-203.78"/>
<polygon fill="#63b8ff" stroke="#63b8ff" points="2521.02,-205.53 2523.66,-195.27 2515.2,-201.65 2521.02,-205.53"/>
</a>
</g>
</g>
<!-- Node43 -->
<g id="Node000043" class="node">
<title>Node43</title>
<g id="a_Node000043"><a xlink:href="ComponentRegistry_8h.html" target="_top" xlink:title="コンポーネントのメタデータ管理 (リフレクション)。">
<polygon fill="white" stroke="#666666" points="2718,-195 2597,-195 2597,-176 2718,-176 2718,-195"/>
<text text-anchor="middle" x="2657.5" y="-183" font-family="Helvetica,sans-Serif" font-size="10.00">ComponentRegistry.h</text>
</a>
</g>
</g>
<!-- Node41&#45;&gt;Node43 -->
<g id="edge46_Node000041_Node000043" class="edge">
<title>Node41&#45;&gt;Node43</title>
<g id="a_edge46_Node000041_Node000043"><a xlink:title=" ">
<path fill="none" stroke="#63b8ff" d="M2530.5,-230.99C2558.74,-221.1 2596.18,-207.98 2623.08,-198.56"/>
<polygon fill="#63b8ff" stroke="#63b8ff" points="2624.56,-201.75 2632.84,-195.14 2622.24,-195.14 2624.56,-201.75"/>
</a>
</g>
</g>
<!-- Node53 -->
<g id="Node000053" class="node">
<title>Node53</title>
<g id="a_Node000053"><a xlink:href="ImGuiUI_8h.html" target="_top" xlink:title="ImGui用のカスタムウィジェットヘルパー。">
<polygon fill="#fff0f0" stroke="red" points="355,-134.5 226,-134.5 226,-115.5 355,-115.5 355,-134.5"/>
<text text-anchor="middle" x="290.5" y="-122.5" font-family="Helvetica,sans-Serif" font-size="10.00">Editor/ImGui/ImGuiUI.h</text>
</a>
</g>
</g>
<!-- Node41&#45;&gt;Node53 -->
<g id="edge54_Node000041_Node000053" class="edge">
<title>Node41&#45;&gt;Node53</title>
<g id="a_edge54_Node000041_Node000053"><a xlink:title=" ">
<path fill="none" stroke="#63b8ff" d="M2435.29,-242.01C2136.06,-225.83 709.39,-148.66 365.3,-130.05"/>
<polygon fill="#63b8ff" stroke="#63b8ff" points="365.37,-126.54 355.2,-129.5 364.99,-133.53 365.37,-126.54"/>
</a>
</g>
</g>
<!-- Node56 -->
<g id="Node000056" class="node">
<title>Node56</title>
<g id="a_Node000056"><a xlink:href="FixedString_8h.html" target="_top" xlink:title="固定長文字列ラッパー (POD)">
<polygon fill="#fff0f0" stroke="red" points="1907,-134.5 1746,-134.5 1746,-115.5 1907,-115.5 1907,-134.5"/>
<text text-anchor="middle" x="1826.5" y="-122.5" font-family="Helvetica,sans-Serif" font-size="10.00">Core/Containers/FixedString.h</text>
</a>
</g>
</g>
<!-- Node41&#45;&gt;Node56 -->
<g id="edge57_Node000041_Node000056" class="edge">
<title>Node41&#45;&gt;Node56</title>
<g id="a_edge57_Node000041_Node000056"><a xlink:title=" ">
<path fill="none" stroke="#63b8ff" d="M2483.29,-230.72C2474.16,-214.33 2456.78,-188.16 2433.5,-176 2388.93,-152.73 2075.53,-136.44 1917.36,-129.6"/>
<polygon fill="#63b8ff" stroke="#63b8ff" points="1917.31,-126.09 1907.17,-129.16 1917.01,-133.09 1917.31,-126.09"/>
</a>
</g>
</g>
<!-- Node57 -->
<g id="Node000057" class="node">
<title>Node57</title>
<g id="a_Node000057"><a xlink:title=" ">
<polygon fill="#e0e0e0" stroke="#999999" points="2920,-195 2851,-195 2851,-176 2920,-176 2920,-195"/>
<text text-anchor="middle" x="2885.5" y="-183" font-family="Helvetica,sans-Serif" font-size="10.00">type_traits</text>
</a>
</g>
</g>
<!-- Node41&#45;&gt;Node57 -->
<g id="edge61_Node000041_Node000057" class="edge">
<title>Node41&#45;&gt;Node57</title>
<g id="a_edge61_Node000041_Node000057"><a xlink:title=" ">
<path fill="none" stroke="#63b8ff" d="M2545.7,-237.51C2614.06,-228.13 2734,-211.29 2836.5,-195 2837.97,-194.77 2839.46,-194.53 2840.96,-194.28"/>
<polygon fill="#63b8ff" stroke="#63b8ff" points="2841.7,-197.71 2850.99,-192.61 2840.55,-190.8 2841.7,-197.71"/>
</a>
</g>
</g>
<!-- Node58 -->
<g id="Node000058" class="node">
<title>Node58</title>
<g id="a_Node000058"><a xlink:title=" ">
<polygon fill="#e0e0e0" stroke="#999999" points="2304.5,-195 2260.5,-195 2260.5,-176 2304.5,-176 2304.5,-195"/>
<text text-anchor="middle" x="2282.5" y="-183" font-family="Helvetica,sans-Serif" font-size="10.00">cfloat</text>
</a>
</g>
</g>
<!-- Node41&#45;&gt;Node58 -->
<g id="edge62_Node000041_Node000058" class="edge">
<title>Node41&#45;&gt;Node58</title>
<g id="a_edge62_Node000041_Node000058"><a xlink:title=" ">
<path fill="none" stroke="#63b8ff" d="M2440.68,-230.99C2401.47,-219.96 2348,-204.92 2314.37,-195.46"/>
<polygon fill="#63b8ff" stroke="#63b8ff" points="2315.18,-192.06 2304.61,-192.72 2313.28,-198.79 2315.18,-192.06"/>
</a>
</g>
</g>
<!-- Node59 -->
<g id="Node000059" class="node">
<title>Node59</title>
<g id="a_Node000059"><a xlink:title=" ">
<polygon fill="#e0e0e0" stroke="#999999" points="2424,-195 2323,-195 2323,-176 2424,-176 2424,-195"/>
<text text-anchor="middle" x="2373.5" y="-183" font-family="Helvetica,sans-Serif" font-size="10.00">magic_enum.hpp</text>
</a>
</g>
</g>
<!-- Node41&#45;&gt;Node59 -->
<g id="edge63_Node000041_Node000059" class="edge">
<title>Node41&#45;&gt;Node59</title>
<g id="a_edge63_Node000041_Node000059"><a xlink:title=" ">
<path fill="none" stroke="#63b8ff" d="M2462.48,-230.99C2443.48,-221.49 2418.53,-209.02 2399.89,-199.69"/>
<polygon fill="#63b8ff" stroke="#63b8ff" points="2401.29,-196.48 2390.78,-195.14 2398.16,-202.74 2401.29,-196.48"/>
</a>
</g>
</g>
<!-- Node43&#45;&gt;Node9 -->
<g id="edge51_Node000043_Node000009" class="edge">
<title>Node43&#45;&gt;Node9</title>
<g id="a_edge51_Node000043_Node000009"><a xlink:title=" ">
<path fill="none" stroke="#63b8ff" d="M2667.37,-175.76C2677.35,-166.87 2693.15,-152.65 2706.5,-140 2748.84,-99.88 2797.34,-51.2 2821.73,-26.52"/>
<polygon fill="#63b8ff" stroke="#63b8ff" points="2824.51,-28.69 2829.04,-19.11 2819.52,-23.77 2824.51,-28.69"/>
</a>
</g>
</g>
<!-- Node43&#45;&gt;Node10 -->
<g id="edge50_Node000043_Node000010" class="edge">
<title>Node43&#45;&gt;Node10</title>
<g id="a_edge50_Node000043_Node000010"><a xlink:title=" ">
<path fill="none" stroke="#63b8ff" d="M2663.23,-175.73C2668.99,-166.81 2678.07,-152.58 2685.5,-140 2707.45,-102.83 2707.25,-90.01 2732.5,-55 2739.78,-44.9 2749.11,-34.62 2757.02,-26.48"/>
<polygon fill="#63b8ff" stroke="#63b8ff" points="2759.76,-28.7 2764.34,-19.15 2754.8,-23.76 2759.76,-28.7"/>
</a>
</g>
</g>
<!-- Node43&#45;&gt;Node16 -->
<g id="edge49_Node000043_Node000016" class="edge">
<title>Node43&#45;&gt;Node16</title>
<g id="a_edge49_Node000043_Node000016"><a xlink:title=" ">
<path fill="none" stroke="#63b8ff" d="M2659.64,-175.63C2666.18,-148.52 2686.03,-66.32 2695,-29.13"/>
<polygon fill="#63b8ff" stroke="#63b8ff" points="2698.47,-29.69 2697.41,-19.14 2691.66,-28.04 2698.47,-29.69"/>
</a>
</g>
</g>
<!-- Node44 -->
<g id="Node000044" class="node">
<title>Node44</title>
<g id="a_Node000044"><a xlink:href="Entity_8h.html" target="_top" xlink:title="ECSにおけるオブジェクトの識別子 (ID) を定義します。">
<polygon fill="white" stroke="#666666" points="2565.5,-134.5 2457.5,-134.5 2457.5,-115.5 2565.5,-115.5 2565.5,-134.5"/>
<text text-anchor="middle" x="2511.5" y="-122.5" font-family="Helvetica,sans-Serif" font-size="10.00">ECS/Kernel/Entity.h</text>
</a>
</g>
</g>
<!-- Node43&#45;&gt;Node44 -->
<g id="edge47_Node000043_Node000044" class="edge">
<title>Node43&#45;&gt;Node44</title>
<g id="a_edge47_Node000043_Node000044"><a xlink:title=" ">
<path fill="none" stroke="#63b8ff" d="M2636.27,-175.99C2611.51,-166.07 2570.38,-149.59 2542.15,-138.28"/>
<polygon fill="#63b8ff" stroke="#63b8ff" points="2543.34,-134.99 2532.76,-134.52 2540.74,-141.49 2543.34,-134.99"/>
</a>
</g>
</g>
<!-- Node45 -->
<g id="Node000045" class="node">
<title>Node45</title>
<g id="a_Node000045"><a xlink:href="World_8h.html" target="_top" xlink:title="ECSワールド (シーン) の管理クラス。">
<polygon fill="#fff0f0" stroke="red" points="2304,-134.5 2195,-134.5 2195,-115.5 2304,-115.5 2304,-134.5"/>
<text text-anchor="middle" x="2249.5" y="-122.5" font-family="Helvetica,sans-Serif" font-size="10.00">ECS/Kernel/World.h</text>
</a>
</g>
</g>
<!-- Node43&#45;&gt;Node45 -->
<g id="edge52_Node000043_Node000045" class="edge">
<title>Node43&#45;&gt;Node45</title>
<g id="a_edge52_Node000043_Node000045"><a xlink:title=" ">
<path fill="none" stroke="#63b8ff" d="M2598.17,-175.99C2522.56,-165.15 2392.3,-146.48 2314.2,-135.28"/>
<polygon fill="#63b8ff" stroke="#63b8ff" points="2314.4,-131.77 2304,-133.81 2313.41,-138.7 2314.4,-131.77"/>
</a>
</g>
</g>
<!-- Node44&#45;&gt;Node2 -->
<g id="edge48_Node000044_Node000002" class="edge">
<title>Node44&#45;&gt;Node2</title>
<g id="a_edge48_Node000044_Node000002"><a xlink:title=" ">
<path fill="none" stroke="#63b8ff" d="M2457.3,-120.15C2417.5,-117.33 2362.14,-113.41 2313.5,-110 2104.27,-95.33 1856.54,-78.16 1740.18,-70.11"/>
<polygon fill="#63b8ff" stroke="#63b8ff" points="1740.22,-66.61 1730.01,-69.41 1739.74,-73.59 1740.22,-66.61"/>
</a>
</g>
</g>
<!-- Node45&#45;&gt;Node2 -->
<g id="edge53_Node000045_Node000002" class="edge">
<title>Node45&#45;&gt;Node2</title>
<g id="a_edge53_Node000045_Node000002"><a xlink:title=" ">
<path fill="none" stroke="#63b8ff" d="M2194.79,-118.44C2088.75,-107.67 1855.58,-83.99 1740.48,-72.3"/>
<polygon fill="#63b8ff" stroke="#63b8ff" points="1740.69,-68.81 1730.39,-71.28 1739.98,-75.77 1740.69,-68.81"/>
</a>
</g>
</g>
<!-- Node53&#45;&gt;Node37 -->
<g id="edge56_Node000053_Node000037" class="edge">
<title>Node53&#45;&gt;Node37</title>
<g id="a_edge56_Node000053_Node000037"><a xlink:title=" ">
<path fill="none" stroke="#63b8ff" d="M290.5,-115.47C290.5,-97.23 290.5,-54.07 290.5,-29.14"/>
<polygon fill="#63b8ff" stroke="#63b8ff" points="294,-29.13 290.5,-19.13 287,-29.13 294,-29.13"/>
</a>
</g>
</g>
<!-- Node53&#45;&gt;Node39 -->
<g id="edge55_Node000053_Node000039" class="edge">
<title>Node53&#45;&gt;Node39</title>
<g id="a_edge55_Node000053_Node000039"><a xlink:title=" ">
<path fill="none" stroke="#63b8ff" d="M275.74,-115.37C259.5,-105.86 233.15,-90.45 214.04,-79.27"/>
<polygon fill="#63b8ff" stroke="#63b8ff" points="215.71,-76.2 205.32,-74.17 212.18,-82.24 215.71,-76.2"/>
</a>
</g>
</g>
<!-- Node56&#45;&gt;Node2 -->
<g id="edge58_Node000056_Node000002" class="edge">
<title>Node56&#45;&gt;Node2</title>
<g id="a_edge58_Node000056_Node000002"><a xlink:title=" ">
<path fill="none" stroke="#63b8ff" d="M1804.25,-115.49C1778.19,-105.53 1734.82,-88.95 1705.23,-77.63"/>
<polygon fill="#63b8ff" stroke="#63b8ff" points="1706.36,-74.32 1695.77,-74.02 1703.86,-80.86 1706.36,-74.32"/>
</a>
</g>
</g>
</g>
</svg>

<g id="navigator" transform="translate(0 0)" fill="#404254">
  <rect fill="#f2f5e9" fill-opacity="0.5" stroke="#606060" stroke-width=".5" x="0" y="0" width="60" height="60"/>
  <use id="zoomplus" xlink:href="#zoomPlus" x="17" y="9" onmousedown="handleZoom(evt,'in')"/>
  <use id="zoomminus" xlink:href="#zoomMin" x="42" y="9" onmousedown="handleZoom(evt,'out')"/>
  <use id="reset" xlink:href="#resetDef" x="30" y="36" onmousedown="handleReset()"/>
   <use id="arrowup" xlink:href="#arrowUp" x="0" y="0" onmousedown="handlePan(0,-1)"/>
  <use id="arrowright" xlink:href="#arrowRight" x="0" y="0" onmousedown="handlePan(1,0)"/>
  <use id="arrowdown" xlink:href="#arrowDown" x="0" y="0" onmousedown="handlePan(0,1)"/>
  <use id="arrowleft" xlink:href="#arrowLeft" x="0" y="0" onmousedown="handlePan(-1,0)"/>
</g>
<svg viewBox="0 0 15 15" width="100%" height="30px" preserveAspectRatio="xMaxYMin meet">
 <g id="arrow_out" transform="scale(0.3 0.3)">
  <a xlink:href="MeshFilter_8h__incl_org.svg" target="_base">
   <rect id="button" ry="5" rx="5" y="6" x="6" height="38" width="38"
        fill="#f2f5e9" fill-opacity="0.5" stroke="#606060" stroke-width="1.0"/>
   <path id="arrow"
     d="M 11.500037,31.436501 C 11.940474,20.09759 22.043105,11.32322 32.158766,21.979434 L 37.068811,17.246167 C 37.068811,17.246167 37.088388,32 37.088388,32 L 22.160133,31.978069 C 22.160133,31.978069 26.997745,27.140456 26.997745,27.140456 C 18.528582,18.264221 13.291696,25.230495 11.500037,31.436501 z"
     style="fill:#404040;"/>
  </a>
 </g>
</svg>

<style type='text/css'>
<![CDATA[
[data-mouse-over-selected='false'] { opacity: 0.7; }
[data-mouse-over-selected='true']  { opacity: 1.0; }
]]>
</style>
<script type="application/ecmascript"><![CDATA[
document.addEventListener('DOMContentLoaded', (event) => {
  highlightEdges();
  highlightAdjacentNodes();
});
]]></script>
</svg>
