<?xml version="1.0" encoding="UTF-8" standalone="no"?>
<!DOCTYPE svg PUBLIC "-//W3C//DTD SVG 1.1//EN"
 "http://www.w3.org/Graphics/SVG/1.1/DTD/svg11.dtd">
<!-- Generated by graphviz version 2.43.0 (0)
 -->
<!-- Title: Engine/Source/Runtime/Graphics/Resources/Mesh.h Pages: 1 -->
<svg width="3207pt" height="148pt"
 viewBox="0.00 0.00 3207.00 148.00" xmlns="http://www.w3.org/2000/svg" xmlns:xlink="http://www.w3.org/1999/xlink">
<g id="graph0" class="graph" transform="scale(1 1) rotate(0) translate(4 144)">
<title>Engine/Source/Runtime/Graphics/Resources/Mesh.h</title>
<!-- Node1 -->
<g id="Node000001" class="node">
<title>Node1</title>
<g id="a_Node000001"><a xlink:title="3Dモデルの形状データ (頂点バッファ) 管理。">
<polygon fill="#999999" stroke="#666666" points="881.5,-140 727.5,-140 727.5,-110 881.5,-110 881.5,-140"/>
<text text-anchor="start" x="735.5" y="-128" font-family="Helvetica,sans-Serif" font-size="10.00">Engine/Source/Runtime</text>
<text text-anchor="middle" x="804.5" y="-117" font-family="Helvetica,sans-Serif" font-size="10.00">/Graphics/Resources/Mesh.h</text>
</a>
</g>
</g>
<!-- Node2 -->
<g id="Node000002" class="node">
<title>Node2</title>
<g id="a_Node000002"><a xlink:href="CoreMinimal_8h.html" target="_top" xlink:title="エンジンの標準インクルードファイル。">
<polygon fill="white" stroke="#666666" points="1567,-74 1454,-74 1454,-55 1567,-55 1567,-74"/>
<text text-anchor="middle" x="1510.5" y="-62" font-family="Helvetica,sans-Serif" font-size="10.00">Core/CoreMinimal.h</text>
</a>
</g>
</g>
<!-- Node1&#45;&gt;Node2 -->
<g id="edge1_Node000001_Node000002" class="edge">
<title>Node1&#45;&gt;Node2</title>
<g id="a_edge1_Node000001_Node000002"><a xlink:title=" ">
<path fill="none" stroke="#63b8ff" d="M881.74,-117.6C1021.08,-106.05 1312.24,-81.93 1443.63,-71.04"/>
<polygon fill="#63b8ff" stroke="#63b8ff" points="1444.27,-74.5 1453.95,-70.19 1443.69,-67.52 1444.27,-74.5"/>
</a>
</g>
</g>
<!-- Node42 -->
<g id="Node000042" class="node">
<title>Node42</title>
<g id="a_Node000042"><a xlink:href="SpanMath_8h.html" target="_top" xlink:title="算術ライブラリ (Vector, Matrix, Quaternion)。">
<polygon fill="white" stroke="#666666" points="208.5,-74 80.5,-74 80.5,-55 208.5,-55 208.5,-74"/>
<text text-anchor="middle" x="144.5" y="-62" font-family="Helvetica,sans-Serif" font-size="10.00">Core/Math/SpanMath.h</text>
</a>
</g>
</g>
<!-- Node1&#45;&gt;Node42 -->
<g id="edge42_Node000001_Node000042" class="edge">
<title>Node1&#45;&gt;Node42</title>
<g id="a_edge42_Node000001_Node000042"><a xlink:title=" ">
<path fill="none" stroke="#63b8ff" d="M727.5,-117.17C599.67,-105.84 345.25,-83.29 219.06,-72.11"/>
<polygon fill="#63b8ff" stroke="#63b8ff" points="218.99,-68.59 208.72,-71.19 218.37,-75.56 218.99,-68.59"/>
</a>
</g>
</g>
<!-- Node3 -->
<g id="Node000003" class="node">
<title>Node3</title>
<g id="a_Node000003"><a xlink:title=" ">
<polygon fill="#e0e0e0" stroke="#999999" points="2639.5,-19 2569.5,-19 2569.5,0 2639.5,0 2639.5,-19"/>
<text text-anchor="middle" x="2604.5" y="-7" font-family="Helvetica,sans-Serif" font-size="10.00">Windows.h</text>
</a>
</g>
</g>
<!-- Node2&#45;&gt;Node3 -->
<g id="edge2_Node000002_Node000003" class="edge">
<title>Node2&#45;&gt;Node3</title>
<g id="a_edge2_Node000002_Node000003"><a xlink:title=" ">
<path fill="none" stroke="#63b8ff" d="M1567.08,-64.05C1723.5,-64.93 2175.08,-63.23 2558.84,-19.01"/>
<polygon fill="#63b8ff" stroke="#63b8ff" points="2559.5,-22.45 2569.03,-17.82 2558.69,-15.5 2559.5,-22.45"/>
</a>
</g>
</g>
<!-- Node4 -->
<g id="Node000004" class="node">
<title>Node4</title>
<g id="a_Node000004"><a xlink:title=" ">
<polygon fill="#e0e0e0" stroke="#999999" points="2699,-19 2658,-19 2658,0 2699,0 2699,-19"/>
<text text-anchor="middle" x="2678.5" y="-7" font-family="Helvetica,sans-Serif" font-size="10.00">wrl.h</text>
</a>
</g>
</g>
<!-- Node2&#45;&gt;Node4 -->
<g id="edge3_Node000002_Node000004" class="edge">
<title>Node2&#45;&gt;Node4</title>
<g id="a_edge3_Node000002_Node000004"><a xlink:title=" ">
<path fill="none" stroke="#63b8ff" d="M1567.28,-63.06C1764.12,-61.25 2417.23,-52.9 2647.98,-18.55"/>
<polygon fill="#63b8ff" stroke="#63b8ff" points="2648.64,-21.99 2657.99,-17 2647.57,-15.08 2648.64,-21.99"/>
</a>
</g>
</g>
<!-- Node5 -->
<g id="Node000005" class="node">
<title>Node5</title>
<g id="a_Node000005"><a xlink:title=" ">
<polygon fill="#e0e0e0" stroke="#999999" points="2788,-19 2717,-19 2717,0 2788,0 2788,-19"/>
<text text-anchor="middle" x="2752.5" y="-7" font-family="Helvetica,sans-Serif" font-size="10.00">wrl/client.h</text>
</a>
</g>
</g>
<!-- Node2&#45;&gt;Node5 -->
<g id="edge4_Node000002_Node000005" class="edge">
<title>Node2&#45;&gt;Node5</title>
<g id="a_edge4_Node000002_Node000005"><a xlink:title=" ">
<path fill="none" stroke="#63b8ff" d="M1567.31,-62.55C1770.74,-58.96 2463.25,-45.18 2706.36,-19.05"/>
<polygon fill="#63b8ff" stroke="#63b8ff" points="2707,-22.5 2716.55,-17.91 2706.23,-15.54 2707,-22.5"/>
</a>
</g>
</g>
<!-- Node6 -->
<g id="Node000006" class="node">
<title>Node6</title>
<g id="a_Node000006"><a xlink:title=" ">
<polygon fill="#e0e0e0" stroke="#999999" points="2856.5,-19 2806.5,-19 2806.5,0 2856.5,0 2856.5,-19"/>
<text text-anchor="middle" x="2831.5" y="-7" font-family="Helvetica,sans-Serif" font-size="10.00">cstdint</text>
</a>
</g>
</g>
<!-- Node2&#45;&gt;Node6 -->
<g id="edge5_Node000002_Node000006" class="edge">
<title>Node2&#45;&gt;Node6</title>
<g id="a_edge5_Node000002_Node000006"><a xlink:title=" ">
<path fill="none" stroke="#63b8ff" d="M1567.08,-63.13C1780.08,-61.48 2534.41,-53.38 2796.14,-18.81"/>
<polygon fill="#63b8ff" stroke="#63b8ff" points="2796.93,-22.23 2806.37,-17.41 2795.98,-15.3 2796.93,-22.23"/>
</a>
</g>
</g>
<!-- Node7 -->
<g id="Node000007" class="node">
<title>Node7</title>
<g id="a_Node000007"><a xlink:title=" ">
<polygon fill="#e0e0e0" stroke="#999999" points="2934.5,-19 2874.5,-19 2874.5,0 2934.5,0 2934.5,-19"/>
<text text-anchor="middle" x="2904.5" y="-7" font-family="Helvetica,sans-Serif" font-size="10.00">iostream</text>
</a>
</g>
</g>
<!-- Node2&#45;&gt;Node7 -->
<g id="edge6_Node000002_Node000007" class="edge">
<title>Node2&#45;&gt;Node7</title>
<g id="a_edge6_Node000002_Node000007"><a xlink:title=" ">
<path fill="none" stroke="#63b8ff" d="M1567.35,-63.01C1787.96,-60.9 2588.41,-51.22 2864.37,-18.85"/>
<polygon fill="#63b8ff" stroke="#63b8ff" points="2864.85,-22.31 2874.36,-17.64 2864.01,-15.36 2864.85,-22.31"/>
</a>
</g>
</g>
<!-- Node8 -->
<g id="Node000008" class="node">
<title>Node8</title>
<g id="a_Node000008"><a xlink:title=" ">
<polygon fill="#e0e0e0" stroke="#999999" points="3006,-19 2953,-19 2953,0 3006,0 3006,-19"/>
<text text-anchor="middle" x="2979.5" y="-7" font-family="Helvetica,sans-Serif" font-size="10.00">string.h</text>
</a>
</g>
</g>
<!-- Node2&#45;&gt;Node8 -->
<g id="edge7_Node000002_Node000008" class="edge">
<title>Node2&#45;&gt;Node8</title>
<g id="a_edge7_Node000002_Node000008"><a xlink:title=" ">
<path fill="none" stroke="#63b8ff" d="M1567.06,-63.26C1795.33,-62.06 2650.01,-55.27 2942.7,-18.73"/>
<polygon fill="#63b8ff" stroke="#63b8ff" points="2943.4,-22.17 2952.87,-17.42 2942.51,-15.22 2943.4,-22.17"/>
</a>
</g>
</g>
<!-- Node9 -->
<g id="Node000009" class="node">
<title>Node9</title>
<g id="a_Node000009"><a xlink:title=" ">
<polygon fill="#e0e0e0" stroke="#999999" points="3068.5,-19 3024.5,-19 3024.5,0 3068.5,0 3068.5,-19"/>
<text text-anchor="middle" x="3046.5" y="-7" font-family="Helvetica,sans-Serif" font-size="10.00">string</text>
</a>
</g>
</g>
<!-- Node2&#45;&gt;Node9 -->
<g id="edge8_Node000002_Node000009" class="edge">
<title>Node2&#45;&gt;Node9</title>
<g id="a_edge8_Node000002_Node000009"><a xlink:title=" ">
<path fill="none" stroke="#63b8ff" d="M1567.1,-63.63C1802.74,-63.88 2707.58,-62.04 3014.07,-18.76"/>
<polygon fill="#63b8ff" stroke="#63b8ff" points="3014.9,-22.18 3024.28,-17.27 3013.88,-15.25 3014.9,-22.18"/>
</a>
</g>
</g>
<!-- Node10 -->
<g id="Node000010" class="node">
<title>Node10</title>
<g id="a_Node000010"><a xlink:title=" ">
<polygon fill="#e0e0e0" stroke="#999999" points="3134,-19 3087,-19 3087,0 3134,0 3134,-19"/>
<text text-anchor="middle" x="3110.5" y="-7" font-family="Helvetica,sans-Serif" font-size="10.00">vector</text>
</a>
</g>
</g>
<!-- Node2&#45;&gt;Node10 -->
<g id="edge9_Node000002_Node000010" class="edge">
<title>Node2&#45;&gt;Node10</title>
<g id="a_edge9_Node000002_Node000010"><a xlink:title=" ">
<path fill="none" stroke="#63b8ff" d="M1567.33,-63.59C1809.44,-63.7 2756.54,-61.44 3076.63,-18.68"/>
<polygon fill="#63b8ff" stroke="#63b8ff" points="3077.41,-22.1 3086.83,-17.27 3076.45,-15.17 3077.41,-22.1"/>
</a>
</g>
</g>
<!-- Node11 -->
<g id="Node000011" class="node">
<title>Node11</title>
<g id="a_Node000011"><a xlink:title=" ">
<polygon fill="#e0e0e0" stroke="#999999" points="3199,-19 3152,-19 3152,0 3199,0 3199,-19"/>
<text text-anchor="middle" x="3175.5" y="-7" font-family="Helvetica,sans-Serif" font-size="10.00">deque</text>
</a>
</g>
</g>
<!-- Node2&#45;&gt;Node11 -->
<g id="edge10_Node000002_Node000011" class="edge">
<title>Node2&#45;&gt;Node11</title>
<g id="a_edge10_Node000002_Node000011"><a xlink:title=" ">
<path fill="none" stroke="#63b8ff" d="M1567.19,-63.72C1815.46,-64.41 2808.98,-64.33 3141.73,-18.86"/>
<polygon fill="#63b8ff" stroke="#63b8ff" points="3142.45,-22.3 3151.86,-17.43 3141.47,-15.36 3142.45,-22.3"/>
</a>
</g>
</g>
<!-- Node12 -->
<g id="Node000012" class="node">
<title>Node12</title>
<g id="a_Node000012"><a xlink:title=" ">
<polygon fill="#e0e0e0" stroke="#999999" points="345,-19 252,-19 252,0 345,0 345,-19"/>
<text text-anchor="middle" x="298.5" y="-7" font-family="Helvetica,sans-Serif" font-size="10.00">unordered_map</text>
</a>
</g>
</g>
<!-- Node2&#45;&gt;Node12 -->
<g id="edge11_Node000002_Node000012" class="edge">
<title>Node2&#45;&gt;Node12</title>
<g id="a_edge11_Node000002_Node000012"><a xlink:title=" ">
<path fill="none" stroke="#63b8ff" d="M1453.82,-63.57C1287.02,-63.28 783.34,-58.98 355.3,-18.94"/>
<polygon fill="#63b8ff" stroke="#63b8ff" points="355.49,-15.44 345.2,-17.99 354.83,-22.41 355.49,-15.44"/>
</a>
</g>
</g>
<!-- Node13 -->
<g id="Node000013" class="node">
<title>Node13</title>
<g id="a_Node000013"><a xlink:title=" ">
<polygon fill="#e0e0e0" stroke="#999999" points="401.5,-19 363.5,-19 363.5,0 401.5,0 401.5,-19"/>
<text text-anchor="middle" x="382.5" y="-7" font-family="Helvetica,sans-Serif" font-size="10.00">map</text>
</a>
</g>
</g>
<!-- Node2&#45;&gt;Node13 -->
<g id="edge12_Node000002_Node000013" class="edge">
<title>Node2&#45;&gt;Node13</title>
<g id="a_edge12_Node000002_Node000013"><a xlink:title=" ">
<path fill="none" stroke="#63b8ff" d="M1453.91,-63.11C1261.65,-61.48 633.67,-53.71 411.58,-18.64"/>
<polygon fill="#63b8ff" stroke="#63b8ff" points="412.06,-15.18 401.63,-17.01 410.93,-22.08 412.06,-15.18"/>
</a>
</g>
</g>
<!-- Node14 -->
<g id="Node000014" class="node">
<title>Node14</title>
<g id="a_Node000014"><a xlink:title=" ">
<polygon fill="#e0e0e0" stroke="#999999" points="477.5,-19 419.5,-19 419.5,0 477.5,0 477.5,-19"/>
<text text-anchor="middle" x="448.5" y="-7" font-family="Helvetica,sans-Serif" font-size="10.00">memory</text>
</a>
</g>
</g>
<!-- Node2&#45;&gt;Node14 -->
<g id="edge13_Node000002_Node000014" class="edge">
<title>Node2&#45;&gt;Node14</title>
<g id="a_edge13_Node000002_Node000014"><a xlink:title=" ">
<path fill="none" stroke="#63b8ff" d="M1453.8,-62.31C1270.79,-58.28 696.2,-44.03 488.02,-18.74"/>
<polygon fill="#63b8ff" stroke="#63b8ff" points="488.15,-15.23 477.79,-17.45 487.28,-22.17 488.15,-15.23"/>
</a>
</g>
</g>
<!-- Node15 -->
<g id="Node000015" class="node">
<title>Node15</title>
<g id="a_Node000015"><a xlink:title=" ">
<polygon fill="#e0e0e0" stroke="#999999" points="129.5,-19 65.5,-19 65.5,0 129.5,0 129.5,-19"/>
<text text-anchor="middle" x="97.5" y="-7" font-family="Helvetica,sans-Serif" font-size="10.00">algorithm</text>
</a>
</g>
</g>
<!-- Node2&#45;&gt;Node15 -->
<g id="edge14_Node000002_Node000015" class="edge">
<title>Node2&#45;&gt;Node15</title>
<g id="a_edge14_Node000002_Node000015"><a xlink:title=" ">
<path fill="none" stroke="#63b8ff" d="M1453.72,-62.96C1231.48,-60.65 419.56,-50.3 139.77,-18.88"/>
<polygon fill="#63b8ff" stroke="#63b8ff" points="139.98,-15.38 129.64,-17.71 139.17,-22.34 139.98,-15.38"/>
</a>
</g>
</g>
<!-- Node16 -->
<g id="Node000016" class="node">
<title>Node16</title>
<g id="a_Node000016"><a xlink:title=" ">
<polygon fill="#e0e0e0" stroke="#999999" points="561,-19 496,-19 496,0 561,0 561,-19"/>
<text text-anchor="middle" x="528.5" y="-7" font-family="Helvetica,sans-Serif" font-size="10.00">functional</text>
</a>
</g>
</g>
<!-- Node2&#45;&gt;Node16 -->
<g id="edge15_Node000002_Node000016" class="edge">
<title>Node2&#45;&gt;Node16</title>
<g id="a_edge15_Node000002_Node000016"><a xlink:title=" ">
<path fill="none" stroke="#63b8ff" d="M1453.82,-63.82C1308.61,-63.99 911.34,-60.4 571.48,-18.9"/>
<polygon fill="#63b8ff" stroke="#63b8ff" points="571.79,-15.41 561.44,-17.66 570.93,-22.36 571.79,-15.41"/>
</a>
</g>
</g>
<!-- Node17 -->
<g id="Node000017" class="node">
<title>Node17</title>
<g id="a_Node000017"><a xlink:title=" ">
<polygon fill="#e0e0e0" stroke="#999999" points="629.5,-19 579.5,-19 579.5,0 629.5,0 629.5,-19"/>
<text text-anchor="middle" x="604.5" y="-7" font-family="Helvetica,sans-Serif" font-size="10.00">chrono</text>
</a>
</g>
</g>
<!-- Node2&#45;&gt;Node17 -->
<g id="edge16_Node000002_Node000017" class="edge">
<title>Node2&#45;&gt;Node17</title>
<g id="a_edge16_Node000002_Node000017"><a xlink:title=" ">
<path fill="none" stroke="#63b8ff" d="M1453.8,-62.04C1289.76,-57.61 815.69,-43.16 639.79,-18.83"/>
<polygon fill="#63b8ff" stroke="#63b8ff" points="640.04,-15.33 629.64,-17.36 639.04,-22.26 640.04,-15.33"/>
</a>
</g>
</g>
<!-- Node18 -->
<g id="Node000018" class="node">
<title>Node18</title>
<g id="a_Node000018"><a xlink:title=" ">
<polygon fill="#e0e0e0" stroke="#999999" points="693.5,-19 647.5,-19 647.5,0 693.5,0 693.5,-19"/>
<text text-anchor="middle" x="670.5" y="-7" font-family="Helvetica,sans-Serif" font-size="10.00">cstdio</text>
</a>
</g>
</g>
<!-- Node2&#45;&gt;Node18 -->
<g id="edge17_Node000002_Node000018" class="edge">
<title>Node2&#45;&gt;Node18</title>
<g id="a_edge17_Node000002_Node000018"><a xlink:title=" ">
<path fill="none" stroke="#63b8ff" d="M1453.74,-61.89C1298.24,-57.23 866.67,-42.66 704.11,-18.86"/>
<polygon fill="#63b8ff" stroke="#63b8ff" points="704.22,-15.34 693.8,-17.28 703.15,-22.25 704.22,-15.34"/>
</a>
</g>
</g>
<!-- Node19 -->
<g id="Node000019" class="node">
<title>Node19</title>
<g id="a_Node000019"><a xlink:title=" ">
<polygon fill="#e0e0e0" stroke="#999999" points="763.5,-19 711.5,-19 711.5,0 763.5,0 763.5,-19"/>
<text text-anchor="middle" x="737.5" y="-7" font-family="Helvetica,sans-Serif" font-size="10.00">cassert</text>
</a>
</g>
</g>
<!-- Node2&#45;&gt;Node19 -->
<g id="edge18_Node000002_Node000019" class="edge">
<title>Node2&#45;&gt;Node19</title>
<g id="a_edge18_Node000002_Node000019"><a xlink:title=" ">
<path fill="none" stroke="#63b8ff" d="M1453.76,-63.38C1331.27,-62.41 1032.94,-56.2 773.72,-18.71"/>
<polygon fill="#63b8ff" stroke="#63b8ff" points="774.15,-15.23 763.75,-17.25 773.13,-22.16 774.15,-15.23"/>
</a>
</g>
</g>
<!-- Node20 -->
<g id="Node000020" class="node">
<title>Node20</title>
<g id="a_Node000020"><a xlink:title=" ">
<polygon fill="#e0e0e0" stroke="#999999" points="847,-19 782,-19 782,0 847,0 847,-19"/>
<text text-anchor="middle" x="814.5" y="-7" font-family="Helvetica,sans-Serif" font-size="10.00">typeindex</text>
</a>
</g>
</g>
<!-- Node2&#45;&gt;Node20 -->
<g id="edge19_Node000002_Node000020" class="edge">
<title>Node2&#45;&gt;Node20</title>
<g id="a_edge19_Node000002_Node000020"><a xlink:title=" ">
<path fill="none" stroke="#63b8ff" d="M1453.82,-62.15C1341.76,-58.95 1083.85,-48.87 857.52,-18.94"/>
<polygon fill="#63b8ff" stroke="#63b8ff" points="857.82,-15.45 847.45,-17.59 856.89,-22.39 857.82,-15.45"/>
</a>
</g>
</g>
<!-- Node21 -->
<g id="Node000021" class="node">
<title>Node21</title>
<g id="a_Node000021"><a xlink:title=" ">
<polygon fill="#e0e0e0" stroke="#999999" points="933.5,-19 865.5,-19 865.5,0 933.5,0 933.5,-19"/>
<text text-anchor="middle" x="899.5" y="-7" font-family="Helvetica,sans-Serif" font-size="10.00">filesystem</text>
</a>
</g>
</g>
<!-- Node2&#45;&gt;Node21 -->
<g id="edge20_Node000002_Node000021" class="edge">
<title>Node2&#45;&gt;Node21</title>
<g id="a_edge20_Node000002_Node000021"><a xlink:title=" ">
<path fill="none" stroke="#63b8ff" d="M1453.83,-61.26C1353.13,-56.79 1136.26,-45.02 943.73,-19.01"/>
<polygon fill="#63b8ff" stroke="#63b8ff" points="944.09,-15.52 933.71,-17.64 943.14,-22.46 944.09,-15.52"/>
</a>
</g>
</g>
<!-- Node22 -->
<g id="Node000022" class="node">
<title>Node22</title>
<g id="a_Node000022"><a xlink:title=" ">
<polygon fill="#e0e0e0" stroke="#999999" points="983.5,-19 951.5,-19 951.5,0 983.5,0 983.5,-19"/>
<text text-anchor="middle" x="967.5" y="-7" font-family="Helvetica,sans-Serif" font-size="10.00">set</text>
</a>
</g>
</g>
<!-- Node2&#45;&gt;Node22 -->
<g id="edge21_Node000002_Node000022" class="edge">
<title>Node2&#45;&gt;Node22</title>
<g id="a_edge21_Node000002_Node000022"><a xlink:title=" ">
<path fill="none" stroke="#63b8ff" d="M1453.66,-62.86C1357.82,-60.85 1158.36,-52.58 993.5,-19 993.4,-18.98 993.3,-18.96 993.19,-18.94"/>
<polygon fill="#63b8ff" stroke="#63b8ff" points="994.14,-15.57 983.57,-16.39 992.34,-22.33 994.14,-15.57"/>
</a>
</g>
</g>
<!-- Node23 -->
<g id="Node000023" class="node">
<title>Node23</title>
<g id="a_Node000023"><a xlink:title=" ">
<polygon fill="#e0e0e0" stroke="#999999" points="1057,-19 1002,-19 1002,0 1057,0 1057,-19"/>
<text text-anchor="middle" x="1029.5" y="-7" font-family="Helvetica,sans-Serif" font-size="10.00">fstream</text>
</a>
</g>
</g>
<!-- Node2&#45;&gt;Node23 -->
<g id="edge22_Node000002_Node000023" class="edge">
<title>Node2&#45;&gt;Node23</title>
<g id="a_edge22_Node000002_Node000023"><a xlink:title=" ">
<path fill="none" stroke="#63b8ff" d="M1453.78,-60.11C1370.97,-54.66 1212.02,-42.28 1067.26,-18.91"/>
<polygon fill="#63b8ff" stroke="#63b8ff" points="1067.74,-15.44 1057.31,-17.28 1066.61,-22.35 1067.74,-15.44"/>
</a>
</g>
</g>
<!-- Node24 -->
<g id="Node000024" class="node">
<title>Node24</title>
<g id="a_Node000024"><a xlink:title=" ">
<polygon fill="#e0e0e0" stroke="#999999" points="1131.5,-19 1075.5,-19 1075.5,0 1131.5,0 1131.5,-19"/>
<text text-anchor="middle" x="1103.5" y="-7" font-family="Helvetica,sans-Serif" font-size="10.00">sstream</text>
</a>
</g>
</g>
<!-- Node2&#45;&gt;Node24 -->
<g id="edge23_Node000002_Node000024" class="edge">
<title>Node2&#45;&gt;Node24</title>
<g id="a_edge23_Node000002_Node000024"><a xlink:title=" ">
<path fill="none" stroke="#63b8ff" d="M1453.81,-58.57C1383.03,-51.99 1258.09,-39 1141.86,-19.07"/>
<polygon fill="#63b8ff" stroke="#63b8ff" points="1142.17,-15.57 1131.72,-17.31 1140.97,-22.47 1142.17,-15.57"/>
</a>
</g>
</g>
<!-- Node25 -->
<g id="Node000025" class="node">
<title>Node25</title>
<g id="a_Node000025"><a xlink:title=" ">
<polygon fill="#e0e0e0" stroke="#999999" points="1197.5,-19 1149.5,-19 1149.5,0 1197.5,0 1197.5,-19"/>
<text text-anchor="middle" x="1173.5" y="-7" font-family="Helvetica,sans-Serif" font-size="10.00">mutex</text>
</a>
</g>
</g>
<!-- Node2&#45;&gt;Node25 -->
<g id="edge24_Node000002_Node000025" class="edge">
<title>Node2&#45;&gt;Node25</title>
<g id="a_edge24_Node000002_Node000025"><a xlink:title=" ">
<path fill="none" stroke="#63b8ff" d="M1453.88,-57.05C1394.75,-49.9 1299.14,-37.18 1207.57,-19.03"/>
<polygon fill="#63b8ff" stroke="#63b8ff" points="1208.08,-15.56 1197.58,-17.02 1206.7,-22.42 1208.08,-15.56"/>
</a>
</g>
</g>
<!-- Node26 -->
<g id="Node000026" class="node">
<title>Node26</title>
<g id="a_Node000026"><a xlink:title=" ">
<polygon fill="#e0e0e0" stroke="#999999" points="1269.5,-19 1215.5,-19 1215.5,0 1269.5,0 1269.5,-19"/>
<text text-anchor="middle" x="1242.5" y="-7" font-family="Helvetica,sans-Serif" font-size="10.00">random</text>
</a>
</g>
</g>
<!-- Node2&#45;&gt;Node26 -->
<g id="edge25_Node000002_Node000026" class="edge">
<title>Node2&#45;&gt;Node26</title>
<g id="a_edge25_Node000002_Node000026"><a xlink:title=" ">
<path fill="none" stroke="#63b8ff" d="M1462.84,-54.97C1418.06,-46.81 1348.93,-33.88 1279.8,-19.21"/>
<polygon fill="#63b8ff" stroke="#63b8ff" points="1280.11,-15.69 1269.6,-17.03 1278.65,-22.54 1280.11,-15.69"/>
</a>
</g>
</g>
<!-- Node27 -->
<g id="Node000027" class="node">
<title>Node27</title>
<g id="a_Node000027"><a xlink:title=" ">
<polygon fill="#e0e0e0" stroke="#999999" points="1335.5,-19 1287.5,-19 1287.5,0 1335.5,0 1335.5,-19"/>
<text text-anchor="middle" x="1311.5" y="-7" font-family="Helvetica,sans-Serif" font-size="10.00">thread</text>
</a>
</g>
</g>
<!-- Node2&#45;&gt;Node27 -->
<g id="edge26_Node000002_Node000027" class="edge">
<title>Node2&#45;&gt;Node27</title>
<g id="a_edge26_Node000002_Node000027"><a xlink:title=" ">
<path fill="none" stroke="#63b8ff" d="M1478.53,-54.98C1442.07,-45.28 1382.72,-29.47 1345.46,-19.54"/>
<polygon fill="#63b8ff" stroke="#63b8ff" points="1346.13,-16.1 1335.57,-16.91 1344.33,-22.87 1346.13,-16.1"/>
</a>
</g>
</g>
<!-- Node28 -->
<g id="Node000028" class="node">
<title>Node28</title>
<g id="a_Node000028"><a xlink:title=" ">
<polygon fill="#e0e0e0" stroke="#999999" points="1403.5,-19 1353.5,-19 1353.5,0 1403.5,0 1403.5,-19"/>
<text text-anchor="middle" x="1378.5" y="-7" font-family="Helvetica,sans-Serif" font-size="10.00">atomic</text>
</a>
</g>
</g>
<!-- Node2&#45;&gt;Node28 -->
<g id="edge27_Node000002_Node000028" class="edge">
<title>Node2&#45;&gt;Node28</title>
<g id="a_edge27_Node000002_Node000028"><a xlink:title=" ">
<path fill="none" stroke="#63b8ff" d="M1489.29,-54.98C1467.77,-46.34 1434.22,-32.87 1409.67,-23.02"/>
<polygon fill="#63b8ff" stroke="#63b8ff" points="1410.68,-19.65 1400.09,-19.17 1408.07,-26.14 1410.68,-19.65"/>
</a>
</g>
</g>
<!-- Node29 -->
<g id="Node000029" class="node">
<title>Node29</title>
<g id="a_Node000029"><a xlink:title=" ">
<polygon fill="#e0e0e0" stroke="#999999" points="1471,-19 1422,-19 1422,0 1471,0 1471,-19"/>
<text text-anchor="middle" x="1446.5" y="-7" font-family="Helvetica,sans-Serif" font-size="10.00">cctype</text>
</a>
</g>
</g>
<!-- Node2&#45;&gt;Node29 -->
<g id="edge28_Node000002_Node000029" class="edge">
<title>Node2&#45;&gt;Node29</title>
<g id="a_edge28_Node000002_Node000029"><a xlink:title=" ">
<path fill="none" stroke="#63b8ff" d="M1500.22,-54.98C1490.66,-47.07 1476.22,-35.11 1464.72,-25.58"/>
<polygon fill="#63b8ff" stroke="#63b8ff" points="1466.9,-22.85 1456.97,-19.17 1462.44,-28.24 1466.9,-22.85"/>
</a>
</g>
</g>
<!-- Node30 -->
<g id="Node000030" class="node">
<title>Node30</title>
<g id="a_Node000030"><a xlink:title=" ">
<polygon fill="#e0e0e0" stroke="#999999" points="1531.5,-19 1489.5,-19 1489.5,0 1531.5,0 1531.5,-19"/>
<text text-anchor="middle" x="1510.5" y="-7" font-family="Helvetica,sans-Serif" font-size="10.00">array</text>
</a>
</g>
</g>
<!-- Node2&#45;&gt;Node30 -->
<g id="edge29_Node000002_Node000030" class="edge">
<title>Node2&#45;&gt;Node30</title>
<g id="a_edge29_Node000002_Node000030"><a xlink:title=" ">
<path fill="none" stroke="#63b8ff" d="M1510.5,-54.75C1510.5,-47.8 1510.5,-37.85 1510.5,-29.13"/>
<polygon fill="#63b8ff" stroke="#63b8ff" points="1514,-29.09 1510.5,-19.09 1507,-29.09 1514,-29.09"/>
</a>
</g>
</g>
<!-- Node31 -->
<g id="Node000031" class="node">
<title>Node31</title>
<g id="a_Node000031"><a xlink:title=" ">
<polygon fill="#e0e0e0" stroke="#999999" points="1619,-19 1550,-19 1550,0 1619,0 1619,-19"/>
<text text-anchor="middle" x="1584.5" y="-7" font-family="Helvetica,sans-Serif" font-size="10.00">type_traits</text>
</a>
</g>
</g>
<!-- Node2&#45;&gt;Node31 -->
<g id="edge30_Node000002_Node000031" class="edge">
<title>Node2&#45;&gt;Node31</title>
<g id="a_edge30_Node000002_Node000031"><a xlink:title=" ">
<path fill="none" stroke="#63b8ff" d="M1522.39,-54.98C1533.65,-46.92 1550.79,-34.65 1564.21,-25.03"/>
<polygon fill="#63b8ff" stroke="#63b8ff" points="1566.3,-27.84 1572.39,-19.17 1562.23,-22.15 1566.3,-27.84"/>
</a>
</g>
</g>
<!-- Node32 -->
<g id="Node000032" class="node">
<title>Node32</title>
<g id="a_Node000032"><a xlink:title=" ">
<polygon fill="#e0e0e0" stroke="#999999" points="1681.5,-19 1637.5,-19 1637.5,0 1681.5,0 1681.5,-19"/>
<text text-anchor="middle" x="1659.5" y="-7" font-family="Helvetica,sans-Serif" font-size="10.00">cfloat</text>
</a>
</g>
</g>
<!-- Node2&#45;&gt;Node32 -->
<g id="edge31_Node000002_Node000032" class="edge">
<title>Node2&#45;&gt;Node32</title>
<g id="a_edge31_Node000002_Node000032"><a xlink:title=" ">
<path fill="none" stroke="#63b8ff" d="M1534.44,-54.98C1559.64,-46.02 1599.46,-31.86 1627.38,-21.92"/>
<polygon fill="#63b8ff" stroke="#63b8ff" points="1628.83,-25.12 1637.08,-18.47 1626.49,-18.53 1628.83,-25.12"/>
</a>
</g>
</g>
<!-- Node33 -->
<g id="Node000033" class="node">
<title>Node33</title>
<g id="a_Node000033"><a xlink:title=" ">
<polygon fill="#e0e0e0" stroke="#999999" points="1809.5,-19 1699.5,-19 1699.5,0 1809.5,0 1809.5,-19"/>
<text text-anchor="middle" x="1754.5" y="-7" font-family="Helvetica,sans-Serif" font-size="10.00">nlohmann/json.hpp</text>
</a>
</g>
</g>
<!-- Node2&#45;&gt;Node33 -->
<g id="edge32_Node000002_Node000033" class="edge">
<title>Node2&#45;&gt;Node33</title>
<g id="a_edge32_Node000002_Node000033"><a xlink:title=" ">
<path fill="none" stroke="#63b8ff" d="M1549.7,-54.98C1591.91,-45.82 1659.15,-31.21 1704.98,-21.26"/>
<polygon fill="#63b8ff" stroke="#63b8ff" points="1705.96,-24.63 1714.99,-19.08 1704.47,-17.78 1705.96,-24.63"/>
</a>
</g>
</g>
<!-- Node34 -->
<g id="Node000034" class="node">
<title>Node34</title>
<g id="a_Node000034"><a xlink:title=" ">
<polygon fill="#e0e0e0" stroke="#999999" points="1883.5,-19 1827.5,-19 1827.5,0 1883.5,0 1883.5,-19"/>
<text text-anchor="middle" x="1855.5" y="-7" font-family="Helvetica,sans-Serif" font-size="10.00">d3d12.h</text>
</a>
</g>
</g>
<!-- Node2&#45;&gt;Node34 -->
<g id="edge33_Node000002_Node000034" class="edge">
<title>Node2&#45;&gt;Node34</title>
<g id="a_edge33_Node000002_Node000034"><a xlink:title=" ">
<path fill="none" stroke="#63b8ff" d="M1567.21,-56.73C1627.07,-49.26 1724.34,-36.22 1817.41,-19.07"/>
<polygon fill="#63b8ff" stroke="#63b8ff" points="1818.08,-22.51 1827.27,-17.24 1816.8,-15.63 1818.08,-22.51"/>
</a>
</g>
</g>
<!-- Node35 -->
<g id="Node000035" class="node">
<title>Node35</title>
<g id="a_Node000035"><a xlink:title=" ">
<polygon fill="#e0e0e0" stroke="#999999" points="1965.5,-19 1901.5,-19 1901.5,0 1965.5,0 1965.5,-19"/>
<text text-anchor="middle" x="1933.5" y="-7" font-family="Helvetica,sans-Serif" font-size="10.00">dxgi1_6.h</text>
</a>
</g>
</g>
<!-- Node2&#45;&gt;Node35 -->
<g id="edge34_Node000002_Node000035" class="edge">
<title>Node2&#45;&gt;Node35</title>
<g id="a_edge34_Node000002_Node000035"><a xlink:title=" ">
<path fill="none" stroke="#63b8ff" d="M1567.03,-58.49C1639.73,-51.7 1770.11,-38.34 1891.14,-19.09"/>
<polygon fill="#63b8ff" stroke="#63b8ff" points="1892,-22.5 1901.32,-17.45 1890.89,-15.58 1892,-22.5"/>
</a>
</g>
</g>
<!-- Node36 -->
<g id="Node000036" class="node">
<title>Node36</title>
<g id="a_Node000036"><a xlink:title=" ">
<polygon fill="#e0e0e0" stroke="#999999" points="2069.5,-19 1983.5,-19 1983.5,0 2069.5,0 2069.5,-19"/>
<text text-anchor="middle" x="2026.5" y="-7" font-family="Helvetica,sans-Serif" font-size="10.00">d3dcompiler.h</text>
</a>
</g>
</g>
<!-- Node2&#45;&gt;Node36 -->
<g id="edge35_Node000002_Node000036" class="edge">
<title>Node2&#45;&gt;Node36</title>
<g id="a_edge35_Node000002_Node000036"><a xlink:title=" ">
<path fill="none" stroke="#63b8ff" d="M1567.06,-59.29C1652.71,-52.66 1820.62,-38.59 1973.36,-19.07"/>
<polygon fill="#63b8ff" stroke="#63b8ff" points="1973.93,-22.52 1983.4,-17.77 1973.04,-15.58 1973.93,-22.52"/>
</a>
</g>
</g>
<!-- Node37 -->
<g id="Node000037" class="node">
<title>Node37</title>
<g id="a_Node000037"><a xlink:title=" ">
<polygon fill="#e0e0e0" stroke="#999999" points="233.5,-19 147.5,-19 147.5,0 233.5,0 233.5,-19"/>
<text text-anchor="middle" x="190.5" y="-7" font-family="Helvetica,sans-Serif" font-size="10.00">DirectXMath.h</text>
</a>
</g>
</g>
<!-- Node2&#45;&gt;Node37 -->
<g id="edge36_Node000002_Node000037" class="edge">
<title>Node2&#45;&gt;Node37</title>
<g id="a_edge36_Node000002_Node000037"><a xlink:title=" ">
<path fill="none" stroke="#63b8ff" d="M1453.82,-64.01C1275.37,-65.07 709.29,-64.35 243.5,-19 243.4,-18.99 243.3,-18.98 243.2,-18.97"/>
<polygon fill="#63b8ff" stroke="#63b8ff" points="243.88,-15.53 233.54,-17.86 243.08,-22.48 243.88,-15.53"/>
</a>
</g>
</g>
<!-- Node38 -->
<g id="Node000038" class="node">
<title>Node38</title>
<g id="a_Node000038"><a xlink:title=" ">
<polygon fill="#e0e0e0" stroke="#999999" points="2205,-19 2088,-19 2088,0 2205,0 2205,-19"/>
<text text-anchor="middle" x="2146.5" y="-7" font-family="Helvetica,sans-Serif" font-size="10.00">assimp/Importer.hpp</text>
</a>
</g>
</g>
<!-- Node2&#45;&gt;Node38 -->
<g id="edge37_Node000002_Node000038" class="edge">
<title>Node2&#45;&gt;Node38</title>
<g id="a_edge37_Node000002_Node000038"><a xlink:title=" ">
<path fill="none" stroke="#63b8ff" d="M1567.01,-59.94C1667.47,-53.42 1883.96,-38.52 2077.82,-19.02"/>
<polygon fill="#63b8ff" stroke="#63b8ff" points="2078.32,-22.49 2087.91,-18 2077.61,-15.52 2078.32,-22.49"/>
</a>
</g>
</g>
<!-- Node39 -->
<g id="Node000039" class="node">
<title>Node39</title>
<g id="a_Node000039"><a xlink:title=" ">
<polygon fill="#e0e0e0" stroke="#999999" points="2315.5,-19 2223.5,-19 2223.5,0 2315.5,0 2315.5,-19"/>
<text text-anchor="middle" x="2269.5" y="-7" font-family="Helvetica,sans-Serif" font-size="10.00">assimp/scene.h</text>
</a>
</g>
</g>
<!-- Node2&#45;&gt;Node39 -->
<g id="edge38_Node000002_Node000039" class="edge">
<title>Node2&#45;&gt;Node39</title>
<g id="a_edge38_Node000002_Node000039"><a xlink:title=" ">
<path fill="none" stroke="#63b8ff" d="M1567.23,-61.65C1685.41,-57.42 1966.82,-45.4 2213.11,-19.05"/>
<polygon fill="#63b8ff" stroke="#63b8ff" points="2213.76,-22.5 2223.33,-17.95 2213.01,-15.54 2213.76,-22.5"/>
</a>
</g>
</g>
<!-- Node40 -->
<g id="Node000040" class="node">
<title>Node40</title>
<g id="a_Node000040"><a xlink:title=" ">
<polygon fill="#e0e0e0" stroke="#999999" points="2455.5,-19 2333.5,-19 2333.5,0 2455.5,0 2455.5,-19"/>
<text text-anchor="middle" x="2394.5" y="-7" font-family="Helvetica,sans-Serif" font-size="10.00">assimp/postprocess.h</text>
</a>
</g>
</g>
<!-- Node2&#45;&gt;Node40 -->
<g id="edge39_Node000002_Node000040" class="edge">
<title>Node2&#45;&gt;Node40</title>
<g id="a_edge39_Node000002_Node000040"><a xlink:title=" ">
<path fill="none" stroke="#63b8ff" d="M1567.34,-61.69C1698.53,-57.23 2032.81,-44.26 2323.13,-19.06"/>
<polygon fill="#63b8ff" stroke="#63b8ff" points="2323.78,-22.51 2333.44,-18.16 2323.17,-15.54 2323.78,-22.51"/>
</a>
</g>
</g>
<!-- Node41 -->
<g id="Node000041" class="node">
<title>Node41</title>
<g id="a_Node000041"><a xlink:href="Logger_8h.html" target="_top" xlink:title="デバッグログ出力システム">
<polygon fill="white" stroke="#666666" points="2551.5,-19 2473.5,-19 2473.5,0 2551.5,0 2551.5,-19"/>
<text text-anchor="middle" x="2512.5" y="-7" font-family="Helvetica,sans-Serif" font-size="10.00">Log/Logger.h</text>
</a>
</g>
</g>
<!-- Node2&#45;&gt;Node41 -->
<g id="edge40_Node000002_Node000041" class="edge">
<title>Node2&#45;&gt;Node41</title>
<g id="a_edge40_Node000002_Node000041"><a xlink:title=" ">
<path fill="none" stroke="#63b8ff" d="M1567.08,-63.37C1714.13,-62.46 2119.75,-56.4 2455.5,-19 2458,-18.72 2460.57,-18.39 2463.17,-18.03"/>
<polygon fill="#63b8ff" stroke="#63b8ff" points="2463.92,-21.45 2473.28,-16.49 2462.87,-14.53 2463.92,-21.45"/>
</a>
</g>
</g>
<!-- Node41&#45;&gt;Node2 -->
<g id="edge41_Node000041_Node000002" class="edge">
<title>Node41&#45;&gt;Node2</title>
<g id="a_edge41_Node000041_Node000002"><a xlink:title=" ">
<path fill="none" stroke="#63b8ff" d="M2473.25,-19.03C2138.64,-56.28 1734.74,-62.42 1577.54,-63.36"/>
<polygon fill="#63b8ff" stroke="#63b8ff" points="1577.08,-59.86 1567.1,-63.42 1577.12,-66.86 1577.08,-59.86"/>
</a>
</g>
</g>
<!-- Node42&#45;&gt;Node15 -->
<g id="edge45_Node000042_Node000015" class="edge">
<title>Node42&#45;&gt;Node15</title>
<g id="a_edge45_Node000042_Node000015"><a xlink:title=" ">
<path fill="none" stroke="#63b8ff" d="M136.74,-54.75C130.03,-47.18 120.16,-36.05 111.99,-26.84"/>
<polygon fill="#63b8ff" stroke="#63b8ff" points="114.37,-24.25 105.12,-19.09 109.13,-28.89 114.37,-24.25"/>
</a>
</g>
</g>
<!-- Node42&#45;&gt;Node37 -->
<g id="edge43_Node000042_Node000037" class="edge">
<title>Node42&#45;&gt;Node37</title>
<g id="a_edge43_Node000042_Node000037"><a xlink:title=" ">
<path fill="none" stroke="#63b8ff" d="M152.1,-54.75C158.66,-47.18 168.32,-36.05 176.31,-26.84"/>
<polygon fill="#63b8ff" stroke="#63b8ff" points="179.13,-28.94 183.05,-19.09 173.85,-24.35 179.13,-28.94"/>
</a>
</g>
</g>
<!-- Node43 -->
<g id="Node000043" class="node">
<title>Node43</title>
<g id="a_Node000043"><a xlink:title=" ">
<polygon fill="#e0e0e0" stroke="#999999" points="47,-19 0,-19 0,0 47,0 47,-19"/>
<text text-anchor="middle" x="23.5" y="-7" font-family="Helvetica,sans-Serif" font-size="10.00">cmath</text>
</a>
</g>
</g>
<!-- Node42&#45;&gt;Node43 -->
<g id="edge44_Node000042_Node000043" class="edge">
<title>Node42&#45;&gt;Node43</title>
<g id="a_edge44_Node000042_Node000043"><a xlink:title=" ">
<path fill="none" stroke="#63b8ff" d="M125.06,-54.98C105.51,-46.42 75.12,-33.11 52.68,-23.28"/>
<polygon fill="#63b8ff" stroke="#63b8ff" points="53.86,-19.98 43.29,-19.17 51.05,-26.39 53.86,-19.98"/>
</a>
</g>
</g>
</g>
</svg>
