<?xml version="1.0" encoding="UTF-8" standalone="no"?>
<!DOCTYPE svg PUBLIC "-//W3C//DTD SVG 1.1//EN"
 "http://www.w3.org/Graphics/SVG/1.1/DTD/svg11.dtd">
<!-- Generated by graphviz version 2.43.0 (0)
 -->
<!-- Title: Engine/Source/Runtime/Components/Graphics/MeshRenderer.h Pages: 1 -->
<!--zoomable 280 -->

<svg id="main" version="1.1" xmlns="http://www.w3.org/2000/svg" xmlns:xlink="http://www.w3.org/1999/xlink" xml:space="preserve" onload="init(evt)">

<style type="text/css"><![CDATA[
.node, .edge {opacity: 0.7;}
.node.selected, .edge.selected {opacity: 1;}
.edge:hover path { stroke: red; }
.edge:hover polygon { stroke: red; fill: red; }
]]></style>

<defs>
  <circle id="rim" cx="0" cy="0" r="7"/>
  <circle id="rim2" cx="0" cy="0" r="3.5"/>
  <g id="zoomPlus">
    <use xlink:href="#rim" fill="#404040"><set attributeName="fill" to="#808080" begin="zoomplus.mouseover" end="zoomplus.mouseout"/></use>
    <path d="M-4,0h8M0,-4v8" fill="none" stroke="white" stroke-width="1.5" pointer-events="none"/>
  </g>
  <g id="zoomMin">
    <use xlink:href="#rim" fill="#404040"><set attributeName="fill" to="#808080" begin="zoomminus.mouseover" end="zoomminus.mouseout"/></use>
    <path d="M-4,0h8" fill="none" stroke="white" stroke-width="1.5" pointer-events="none"/>
  </g>
  <g id="arrowUp" transform="translate(30 24)">
    <use xlink:href="#rim"/>
    <path pointer-events="none" fill="none" stroke="white" stroke-width="1.5" d="M0,-3.0v7 M-2.5,-0.5L0,-3.0L2.5,-0.5"/>
  </g>
  <g id="arrowRight" transform="rotate(90) translate(36 -43)">
    <use xlink:href="#rim"/>
    <path pointer-events="none" fill="none" stroke="white" stroke-width="1.5" d="M0,-3.0v7 M-2.5,-0.5L0,-3.0L2.5,-0.5"/>
  </g>
  <g id="arrowDown" transform="rotate(180) translate(-30 -48)">
    <use xlink:href="#rim"/>
    <path pointer-events="none" fill="none" stroke="white" stroke-width="1.5" d="M0,-3.0v7 M-2.5,-0.5L0,-3.0L2.5,-0.5"/>
  </g>
  <g id="arrowLeft" transform="rotate(270) translate(-36 17)">
    <use xlink:href="#rim"/>
    <path pointer-events="none" fill="none" stroke="white" stroke-width="1.5" d="M0,-3.0v7 M-2.5,-0.5L0,-3.0L2.5,-0.5"/>
  </g>
  <g id="resetDef">
    <use xlink:href="#rim2" fill="#404040"><set attributeName="fill" to="#808080" begin="reset.mouseover" end="reset.mouseout"/></use>
  </g>
</defs>
<script type="application/ecmascript">
var viewWidth = 3142;
var viewHeight = 280;
var sectionId = 'dynsection-0';
</script>
<script type="application/ecmascript" xlink:href="svg.min.js"/>
<svg id="graph" class="graph">
<g id="viewport">
<title>Engine/Source/Runtime/Components/Graphics/MeshRenderer.h</title>
<!-- Node1 -->
<g id="Node000001" class="node">
<title>Node1</title>
<g id="a_Node000001"><a xlink:title="メッシュの描画設定とマテリアル参照。">
<polygon fill="#999999" stroke="#666666" points="1776.5,-272 1646.5,-272 1646.5,-231 1776.5,-231 1776.5,-272"/>
<text text-anchor="start" x="1654.5" y="-260" font-family="Helvetica,sans-Serif" font-size="10.00">Engine/Source/Runtime</text>
<text text-anchor="start" x="1654.5" y="-249" font-family="Helvetica,sans-Serif" font-size="10.00">/Components/Graphics</text>
<text text-anchor="middle" x="1711.5" y="-238" font-family="Helvetica,sans-Serif" font-size="10.00">/MeshRenderer.h</text>
</a>
</g>
</g>
<!-- Node2 -->
<g id="Node000002" class="node">
<title>Node2</title>
<g id="a_Node000002"><a xlink:href="CoreMinimal_8h.html" target="_top" xlink:title="エンジンの標準インクルードファイル。">
<polygon fill="white" stroke="#666666" points="1563,-74 1450,-74 1450,-55 1563,-55 1563,-74"/>
<text text-anchor="middle" x="1506.5" y="-62" font-family="Helvetica,sans-Serif" font-size="10.00">Core/CoreMinimal.h</text>
</a>
</g>
</g>
<!-- Node1&#45;&gt;Node2 -->
<g id="edge1_Node000001_Node000002" class="edge">
<title>Node1&#45;&gt;Node2</title>
<g id="a_edge1_Node000001_Node000002"><a xlink:title=" ">
<path fill="none" stroke="#63b8ff" d="M1646.48,-242.56C1579.9,-230.59 1479.7,-201.03 1432.5,-129 1418.51,-107.65 1446.66,-89.43 1472.16,-78.05"/>
<polygon fill="#63b8ff" stroke="#63b8ff" points="1473.86,-81.14 1481.72,-74.03 1471.14,-74.68 1473.86,-81.14"/>
</a>
</g>
</g>
<!-- Node42 -->
<g id="Node000042" class="node">
<title>Node42</title>
<g id="a_Node000042"><a xlink:href="Material_8h.html" target="_top" xlink:title="PBRマテリアルのパラメータ管理。">
<polygon fill="white" stroke="#666666" points="1768,-195 1655,-195 1655,-165 1768,-165 1768,-195"/>
<text text-anchor="start" x="1663" y="-183" font-family="Helvetica,sans-Serif" font-size="10.00">Graphics/Resources</text>
<text text-anchor="middle" x="1711.5" y="-172" font-family="Helvetica,sans-Serif" font-size="10.00">/Material.h</text>
</a>
</g>
</g>
<!-- Node1&#45;&gt;Node42 -->
<g id="edge42_Node000001_Node000042" class="edge">
<title>Node1&#45;&gt;Node42</title>
<g id="a_edge42_Node000001_Node000042"><a xlink:title=" ">
<path fill="none" stroke="#63b8ff" d="M1711.5,-230.77C1711.5,-222.85 1711.5,-213.63 1711.5,-205.3"/>
<polygon fill="#63b8ff" stroke="#63b8ff" points="1715,-205.04 1711.5,-195.04 1708,-205.04 1715,-205.04"/>
</a>
</g>
</g>
<!-- Node48 -->
<g id="Node000048" class="node">
<title>Node48</title>
<g id="a_Node000048"><a xlink:href="SpanReflection_8h.html" target="_top" xlink:title="コンポーネント定義用のリフレクションマクロ。">
<polygon fill="#fff0f0" stroke="red" points="2767.5,-195 2657.5,-195 2657.5,-165 2767.5,-165 2767.5,-195"/>
<text text-anchor="start" x="2665.5" y="-183" font-family="Helvetica,sans-Serif" font-size="10.00">Runtime/Reflection</text>
<text text-anchor="middle" x="2712.5" y="-172" font-family="Helvetica,sans-Serif" font-size="10.00">/SpanReflection.h</text>
</a>
</g>
</g>
<!-- Node1&#45;&gt;Node48 -->
<g id="edge53_Node000001_Node000048" class="edge">
<title>Node1&#45;&gt;Node48</title>
<g id="a_edge53_Node000001_Node000048"><a xlink:title=" ">
<path fill="none" stroke="#63b8ff" d="M1776.79,-245.97C1957.98,-233.39 2465.62,-198.14 2647.03,-185.55"/>
<polygon fill="#63b8ff" stroke="#63b8ff" points="2647.48,-189.02 2657.22,-184.84 2647,-182.04 2647.48,-189.02"/>
</a>
</g>
</g>
<!-- Node3 -->
<g id="Node000003" class="node">
<title>Node3</title>
<g id="a_Node000003"><a xlink:title=" ">
<polygon fill="#e0e0e0" stroke="#999999" points="2228.5,-19 2158.5,-19 2158.5,0 2228.5,0 2228.5,-19"/>
<text text-anchor="middle" x="2193.5" y="-7" font-family="Helvetica,sans-Serif" font-size="10.00">Windows.h</text>
</a>
</g>
</g>
<!-- Node2&#45;&gt;Node3 -->
<g id="edge2_Node000002_Node000003" class="edge">
<title>Node2&#45;&gt;Node3</title>
<g id="a_edge2_Node000002_Node000003"><a xlink:title=" ">
<path fill="none" stroke="#63b8ff" d="M1563.07,-61.9C1673.61,-58.27 1926.17,-47.5 2148.28,-18.99"/>
<polygon fill="#63b8ff" stroke="#63b8ff" points="2149.03,-22.42 2158.5,-17.66 2148.13,-15.48 2149.03,-22.42"/>
</a>
</g>
</g>
<!-- Node4 -->
<g id="Node000004" class="node">
<title>Node4</title>
<g id="a_Node000004"><a xlink:title=" ">
<polygon fill="#e0e0e0" stroke="#999999" points="2288,-19 2247,-19 2247,0 2288,0 2288,-19"/>
<text text-anchor="middle" x="2267.5" y="-7" font-family="Helvetica,sans-Serif" font-size="10.00">wrl.h</text>
</a>
</g>
</g>
<!-- Node2&#45;&gt;Node4 -->
<g id="edge3_Node000002_Node000004" class="edge">
<title>Node2&#45;&gt;Node4</title>
<g id="a_edge3_Node000002_Node000004"><a xlink:title=" ">
<path fill="none" stroke="#63b8ff" d="M1563.38,-64.18C1685.36,-64.75 1981.07,-61.35 2236.75,-18.68"/>
<polygon fill="#63b8ff" stroke="#63b8ff" points="2237.7,-22.06 2246.98,-16.94 2236.53,-15.16 2237.7,-22.06"/>
</a>
</g>
</g>
<!-- Node5 -->
<g id="Node000005" class="node">
<title>Node5</title>
<g id="a_Node000005"><a xlink:title=" ">
<polygon fill="#e0e0e0" stroke="#999999" points="2377,-19 2306,-19 2306,0 2377,0 2377,-19"/>
<text text-anchor="middle" x="2341.5" y="-7" font-family="Helvetica,sans-Serif" font-size="10.00">wrl/client.h</text>
</a>
</g>
</g>
<!-- Node2&#45;&gt;Node5 -->
<g id="edge4_Node000002_Node000005" class="edge">
<title>Node2&#45;&gt;Node5</title>
<g id="a_edge4_Node000002_Node000005"><a xlink:title=" ">
<path fill="none" stroke="#63b8ff" d="M1563.24,-62.84C1691.84,-60.79 2015.4,-52.57 2295.75,-18.91"/>
<polygon fill="#63b8ff" stroke="#63b8ff" points="2296.2,-22.38 2305.7,-17.7 2295.36,-15.43 2296.2,-22.38"/>
</a>
</g>
</g>
<!-- Node6 -->
<g id="Node000006" class="node">
<title>Node6</title>
<g id="a_Node000006"><a xlink:title=" ">
<polygon fill="#e0e0e0" stroke="#999999" points="2445.5,-19 2395.5,-19 2395.5,0 2445.5,0 2445.5,-19"/>
<text text-anchor="middle" x="2420.5" y="-7" font-family="Helvetica,sans-Serif" font-size="10.00">cstdint</text>
</a>
</g>
</g>
<!-- Node2&#45;&gt;Node6 -->
<g id="edge5_Node000002_Node000006" class="edge">
<title>Node2&#45;&gt;Node6</title>
<g id="a_edge5_Node000002_Node000006"><a xlink:title=" ">
<path fill="none" stroke="#63b8ff" d="M1563.05,-62.03C1731.11,-57.42 2225.79,-42.23 2385.5,-19 2385.6,-18.99 2385.7,-18.97 2385.8,-18.96"/>
<polygon fill="#63b8ff" stroke="#63b8ff" points="2386.17,-22.45 2395.38,-17.2 2384.91,-15.56 2386.17,-22.45"/>
</a>
</g>
</g>
<!-- Node7 -->
<g id="Node000007" class="node">
<title>Node7</title>
<g id="a_Node000007"><a xlink:title=" ">
<polygon fill="#e0e0e0" stroke="#999999" points="2523.5,-19 2463.5,-19 2463.5,0 2523.5,0 2523.5,-19"/>
<text text-anchor="middle" x="2493.5" y="-7" font-family="Helvetica,sans-Serif" font-size="10.00">iostream</text>
</a>
</g>
</g>
<!-- Node2&#45;&gt;Node7 -->
<g id="edge6_Node000002_Node000007" class="edge">
<title>Node2&#45;&gt;Node7</title>
<g id="a_edge6_Node000002_Node000007"><a xlink:title=" ">
<path fill="none" stroke="#63b8ff" d="M1563.16,-64.14C1709.24,-65.08 2110.65,-63.21 2453.24,-18.92"/>
<polygon fill="#63b8ff" stroke="#63b8ff" points="2453.89,-22.36 2463.35,-17.59 2452.98,-15.42 2453.89,-22.36"/>
</a>
</g>
</g>
<!-- Node8 -->
<g id="Node000008" class="node">
<title>Node8</title>
<g id="a_Node000008"><a xlink:title=" ">
<polygon fill="#e0e0e0" stroke="#999999" points="2595,-19 2542,-19 2542,0 2595,0 2595,-19"/>
<text text-anchor="middle" x="2568.5" y="-7" font-family="Helvetica,sans-Serif" font-size="10.00">string.h</text>
</a>
</g>
</g>
<!-- Node2&#45;&gt;Node8 -->
<g id="edge7_Node000002_Node000008" class="edge">
<title>Node2&#45;&gt;Node8</title>
<g id="a_edge7_Node000002_Node000008"><a xlink:title=" ">
<path fill="none" stroke="#63b8ff" d="M1563.06,-62.45C1746.39,-58.84 2323.85,-45.69 2531.95,-18.71"/>
<polygon fill="#63b8ff" stroke="#63b8ff" points="2532.43,-22.18 2541.87,-17.38 2531.49,-15.24 2532.43,-22.18"/>
</a>
</g>
</g>
<!-- Node9 -->
<g id="Node000009" class="node">
<title>Node9</title>
<g id="a_Node000009"><a xlink:title=" ">
<polygon fill="#e0e0e0" stroke="#999999" points="2657.5,-19 2613.5,-19 2613.5,0 2657.5,0 2657.5,-19"/>
<text text-anchor="middle" x="2635.5" y="-7" font-family="Helvetica,sans-Serif" font-size="10.00">string</text>
</a>
</g>
</g>
<!-- Node2&#45;&gt;Node9 -->
<g id="edge8_Node000002_Node000009" class="edge">
<title>Node2&#45;&gt;Node9</title>
<g id="a_edge8_Node000002_Node000009"><a xlink:title=" ">
<path fill="none" stroke="#63b8ff" d="M1563.23,-62.84C1755.23,-60.35 2380.52,-50.11 2603.27,-18.55"/>
<polygon fill="#63b8ff" stroke="#63b8ff" points="2603.87,-22 2613.25,-17.08 2602.85,-15.07 2603.87,-22"/>
</a>
</g>
</g>
<!-- Node10 -->
<g id="Node000010" class="node">
<title>Node10</title>
<g id="a_Node000010"><a xlink:title=" ">
<polygon fill="#e0e0e0" stroke="#999999" points="2723,-19 2676,-19 2676,0 2723,0 2723,-19"/>
<text text-anchor="middle" x="2699.5" y="-7" font-family="Helvetica,sans-Serif" font-size="10.00">vector</text>
</a>
</g>
</g>
<!-- Node2&#45;&gt;Node10 -->
<g id="edge9_Node000002_Node000010" class="edge">
<title>Node2&#45;&gt;Node10</title>
<g id="a_edge9_Node000002_Node000010"><a xlink:title=" ">
<path fill="none" stroke="#63b8ff" d="M1563.3,-62.93C1762.55,-60.67 2429.94,-50.97 2665.61,-18.7"/>
<polygon fill="#63b8ff" stroke="#63b8ff" points="2666.42,-22.12 2675.83,-17.24 2665.44,-15.19 2666.42,-22.12"/>
</a>
</g>
</g>
<!-- Node11 -->
<g id="Node000011" class="node">
<title>Node11</title>
<g id="a_Node000011"><a xlink:title=" ">
<polygon fill="#e0e0e0" stroke="#999999" points="47,-19 0,-19 0,0 47,0 47,-19"/>
<text text-anchor="middle" x="23.5" y="-7" font-family="Helvetica,sans-Serif" font-size="10.00">deque</text>
</a>
</g>
</g>
<!-- Node2&#45;&gt;Node11 -->
<g id="edge10_Node000002_Node000011" class="edge">
<title>Node2&#45;&gt;Node11</title>
<g id="a_edge10_Node000002_Node000011"><a xlink:title=" ">
<path fill="none" stroke="#63b8ff" d="M1449.99,-63.49C1219.93,-63.2 352.5,-59.48 57.39,-18.89"/>
<polygon fill="#63b8ff" stroke="#63b8ff" points="57.53,-15.37 47.14,-17.43 56.55,-22.3 57.53,-15.37"/>
</a>
</g>
</g>
<!-- Node12 -->
<g id="Node000012" class="node">
<title>Node12</title>
<g id="a_Node000012"><a xlink:title=" ">
<polygon fill="#e0e0e0" stroke="#999999" points="158,-19 65,-19 65,0 158,0 158,-19"/>
<text text-anchor="middle" x="111.5" y="-7" font-family="Helvetica,sans-Serif" font-size="10.00">unordered_map</text>
</a>
</g>
</g>
<!-- Node2&#45;&gt;Node12 -->
<g id="edge11_Node000002_Node000012" class="edge">
<title>Node2&#45;&gt;Node12</title>
<g id="a_edge11_Node000002_Node000012"><a xlink:title=" ">
<path fill="none" stroke="#63b8ff" d="M1449.9,-63.99C1266.33,-65.08 670.78,-64.67 168.19,-18.92"/>
<polygon fill="#63b8ff" stroke="#63b8ff" points="168.48,-15.44 158.2,-18.01 167.84,-22.41 168.48,-15.44"/>
</a>
</g>
</g>
<!-- Node13 -->
<g id="Node000013" class="node">
<title>Node13</title>
<g id="a_Node000013"><a xlink:title=" ">
<polygon fill="#e0e0e0" stroke="#999999" points="214.5,-19 176.5,-19 176.5,0 214.5,0 214.5,-19"/>
<text text-anchor="middle" x="195.5" y="-7" font-family="Helvetica,sans-Serif" font-size="10.00">map</text>
</a>
</g>
</g>
<!-- Node2&#45;&gt;Node13 -->
<g id="edge12_Node000002_Node000013" class="edge">
<title>Node2&#45;&gt;Node13</title>
<g id="a_edge12_Node000002_Node000013"><a xlink:title=" ">
<path fill="none" stroke="#63b8ff" d="M1449.67,-63.49C1236.62,-63.15 484.71,-59.17 224.78,-18.66"/>
<polygon fill="#63b8ff" stroke="#63b8ff" points="225.05,-15.16 214.62,-17.02 223.94,-22.07 225.05,-15.16"/>
</a>
</g>
</g>
<!-- Node14 -->
<g id="Node000014" class="node">
<title>Node14</title>
<g id="a_Node000014"><a xlink:title=" ">
<polygon fill="#e0e0e0" stroke="#999999" points="290.5,-19 232.5,-19 232.5,0 290.5,0 290.5,-19"/>
<text text-anchor="middle" x="261.5" y="-7" font-family="Helvetica,sans-Serif" font-size="10.00">memory</text>
</a>
</g>
</g>
<!-- Node2&#45;&gt;Node14 -->
<g id="edge13_Node000002_Node000014" class="edge">
<title>Node2&#45;&gt;Node14</title>
<g id="a_edge13_Node000002_Node000014"><a xlink:title=" ">
<path fill="none" stroke="#63b8ff" d="M1449.95,-62.79C1245.71,-60.01 545.81,-48.61 300.79,-18.87"/>
<polygon fill="#63b8ff" stroke="#63b8ff" points="301.22,-15.4 290.86,-17.63 300.35,-22.35 301.22,-15.4"/>
</a>
</g>
</g>
<!-- Node15 -->
<g id="Node000015" class="node">
<title>Node15</title>
<g id="a_Node000015"><a xlink:title=" ">
<polygon fill="#e0e0e0" stroke="#999999" points="3005.5,-19 2941.5,-19 2941.5,0 3005.5,0 3005.5,-19"/>
<text text-anchor="middle" x="2973.5" y="-7" font-family="Helvetica,sans-Serif" font-size="10.00">algorithm</text>
</a>
</g>
</g>
<!-- Node2&#45;&gt;Node15 -->
<g id="edge14_Node000002_Node000015" class="edge">
<title>Node2&#45;&gt;Node15</title>
<g id="a_edge14_Node000002_Node000015"><a xlink:title=" ">
<path fill="none" stroke="#63b8ff" d="M1563.15,-63.04C1790.79,-61.01 2640.16,-51.43 2931.24,-18.88"/>
<polygon fill="#63b8ff" stroke="#63b8ff" points="2931.82,-22.34 2941.36,-17.71 2931.02,-15.38 2931.82,-22.34"/>
</a>
</g>
</g>
<!-- Node16 -->
<g id="Node000016" class="node">
<title>Node16</title>
<g id="a_Node000016"><a xlink:title=" ">
<polygon fill="#e0e0e0" stroke="#999999" points="374,-19 309,-19 309,0 374,0 374,-19"/>
<text text-anchor="middle" x="341.5" y="-7" font-family="Helvetica,sans-Serif" font-size="10.00">functional</text>
</a>
</g>
</g>
<!-- Node2&#45;&gt;Node16 -->
<g id="edge15_Node000002_Node000016" class="edge">
<title>Node2&#45;&gt;Node16</title>
<g id="a_edge15_Node000002_Node000016"><a xlink:title=" ">
<path fill="none" stroke="#63b8ff" d="M1449.86,-62.46C1255.15,-58.68 613.17,-44.66 384.67,-18.88"/>
<polygon fill="#63b8ff" stroke="#63b8ff" points="384.77,-15.37 374.43,-17.68 383.96,-22.32 384.77,-15.37"/>
</a>
</g>
</g>
<!-- Node17 -->
<g id="Node000017" class="node">
<title>Node17</title>
<g id="a_Node000017"><a xlink:title=" ">
<polygon fill="#e0e0e0" stroke="#999999" points="442.5,-19 392.5,-19 392.5,0 442.5,0 442.5,-19"/>
<text text-anchor="middle" x="417.5" y="-7" font-family="Helvetica,sans-Serif" font-size="10.00">chrono</text>
</a>
</g>
</g>
<!-- Node2&#45;&gt;Node17 -->
<g id="edge16_Node000002_Node000017" class="edge">
<title>Node2&#45;&gt;Node17</title>
<g id="a_edge16_Node000002_Node000017"><a xlink:title=" ">
<path fill="none" stroke="#63b8ff" d="M1449.99,-62.63C1263.3,-59.51 666.54,-47.64 452.83,-18.82"/>
<polygon fill="#63b8ff" stroke="#63b8ff" points="453.03,-15.31 442.64,-17.39 452.05,-22.24 453.03,-15.31"/>
</a>
</g>
</g>
<!-- Node18 -->
<g id="Node000018" class="node">
<title>Node18</title>
<g id="a_Node000018"><a xlink:title=" ">
<polygon fill="#e0e0e0" stroke="#999999" points="506.5,-19 460.5,-19 460.5,0 506.5,0 506.5,-19"/>
<text text-anchor="middle" x="483.5" y="-7" font-family="Helvetica,sans-Serif" font-size="10.00">cstdio</text>
</a>
</g>
</g>
<!-- Node2&#45;&gt;Node18 -->
<g id="edge17_Node000002_Node000018" class="edge">
<title>Node2&#45;&gt;Node18</title>
<g id="a_edge17_Node000002_Node000018"><a xlink:title=" ">
<path fill="none" stroke="#63b8ff" d="M1449.94,-62.56C1270.88,-59.32 717.02,-47.37 516.91,-18.81"/>
<polygon fill="#63b8ff" stroke="#63b8ff" points="517.2,-15.32 506.8,-17.31 516.17,-22.24 517.2,-15.32"/>
</a>
</g>
</g>
<!-- Node19 -->
<g id="Node000019" class="node">
<title>Node19</title>
<g id="a_Node000019"><a xlink:title=" ">
<polygon fill="#e0e0e0" stroke="#999999" points="576.5,-19 524.5,-19 524.5,0 576.5,0 576.5,-19"/>
<text text-anchor="middle" x="550.5" y="-7" font-family="Helvetica,sans-Serif" font-size="10.00">cassert</text>
</a>
</g>
</g>
<!-- Node2&#45;&gt;Node19 -->
<g id="edge18_Node000002_Node000019" class="edge">
<title>Node2&#45;&gt;Node19</title>
<g id="a_edge18_Node000002_Node000019"><a xlink:title=" ">
<path fill="none" stroke="#63b8ff" d="M1449.73,-62.17C1279.21,-57.96 772.41,-43.78 586.69,-18.83"/>
<polygon fill="#63b8ff" stroke="#63b8ff" points="587.16,-15.37 576.77,-17.45 586.19,-22.3 587.16,-15.37"/>
</a>
</g>
</g>
<!-- Node20 -->
<g id="Node000020" class="node">
<title>Node20</title>
<g id="a_Node000020"><a xlink:title=" ">
<polygon fill="#e0e0e0" stroke="#999999" points="660,-19 595,-19 595,0 660,0 660,-19"/>
<text text-anchor="middle" x="627.5" y="-7" font-family="Helvetica,sans-Serif" font-size="10.00">typeindex</text>
</a>
</g>
</g>
<!-- Node2&#45;&gt;Node20 -->
<g id="edge19_Node000002_Node000020" class="edge">
<title>Node2&#45;&gt;Node20</title>
<g id="a_edge19_Node000002_Node000020"><a xlink:title=" ">
<path fill="none" stroke="#63b8ff" d="M1449.91,-63.35C1316.04,-62.37 969.36,-56.24 670.6,-18.92"/>
<polygon fill="#63b8ff" stroke="#63b8ff" points="670.8,-15.42 660.44,-17.64 669.92,-22.37 670.8,-15.42"/>
</a>
</g>
</g>
<!-- Node21 -->
<g id="Node000021" class="node">
<title>Node21</title>
<g id="a_Node000021"><a xlink:title=" ">
<polygon fill="#e0e0e0" stroke="#999999" points="746.5,-19 678.5,-19 678.5,0 746.5,0 746.5,-19"/>
<text text-anchor="middle" x="712.5" y="-7" font-family="Helvetica,sans-Serif" font-size="10.00">filesystem</text>
</a>
</g>
</g>
<!-- Node2&#45;&gt;Node21 -->
<g id="edge20_Node000002_Node000021" class="edge">
<title>Node2&#45;&gt;Node21</title>
<g id="a_edge20_Node000002_Node000021"><a xlink:title=" ">
<path fill="none" stroke="#63b8ff" d="M1449.73,-62.77C1325.71,-60.6 1021.18,-52.18 756.87,-18.99"/>
<polygon fill="#63b8ff" stroke="#63b8ff" points="757.06,-15.48 746.7,-17.7 756.18,-22.43 757.06,-15.48"/>
</a>
</g>
</g>
<!-- Node22 -->
<g id="Node000022" class="node">
<title>Node22</title>
<g id="a_Node000022"><a xlink:title=" ">
<polygon fill="#e0e0e0" stroke="#999999" points="796.5,-19 764.5,-19 764.5,0 796.5,0 796.5,-19"/>
<text text-anchor="middle" x="780.5" y="-7" font-family="Helvetica,sans-Serif" font-size="10.00">set</text>
</a>
</g>
</g>
<!-- Node2&#45;&gt;Node22 -->
<g id="edge21_Node000002_Node000022" class="edge">
<title>Node2&#45;&gt;Node22</title>
<g id="a_edge21_Node000002_Node000022"><a xlink:title=" ">
<path fill="none" stroke="#63b8ff" d="M1449.78,-61.83C1309.22,-57.39 946.69,-44.02 806.81,-18.64"/>
<polygon fill="#63b8ff" stroke="#63b8ff" points="807.22,-15.15 796.74,-16.71 805.9,-22.03 807.22,-15.15"/>
</a>
</g>
</g>
<!-- Node23 -->
<g id="Node000023" class="node">
<title>Node23</title>
<g id="a_Node000023"><a xlink:title=" ">
<polygon fill="#e0e0e0" stroke="#999999" points="870,-19 815,-19 815,0 870,0 870,-19"/>
<text text-anchor="middle" x="842.5" y="-7" font-family="Helvetica,sans-Serif" font-size="10.00">fstream</text>
</a>
</g>
</g>
<!-- Node2&#45;&gt;Node23 -->
<g id="edge22_Node000002_Node000023" class="edge">
<title>Node2&#45;&gt;Node23</title>
<g id="a_edge22_Node000002_Node000023"><a xlink:title=" ">
<path fill="none" stroke="#63b8ff" d="M1449.98,-62.42C1341.36,-59.7 1095.92,-50.49 880.22,-18.85"/>
<polygon fill="#63b8ff" stroke="#63b8ff" points="880.7,-15.38 870.29,-17.37 879.67,-22.3 880.7,-15.38"/>
</a>
</g>
</g>
<!-- Node24 -->
<g id="Node000024" class="node">
<title>Node24</title>
<g id="a_Node000024"><a xlink:title=" ">
<polygon fill="#e0e0e0" stroke="#999999" points="944.5,-19 888.5,-19 888.5,0 944.5,0 944.5,-19"/>
<text text-anchor="middle" x="916.5" y="-7" font-family="Helvetica,sans-Serif" font-size="10.00">sstream</text>
</a>
</g>
</g>
<!-- Node2&#45;&gt;Node24 -->
<g id="edge23_Node000002_Node000024" class="edge">
<title>Node2&#45;&gt;Node24</title>
<g id="a_edge23_Node000002_Node000024"><a xlink:title=" ">
<path fill="none" stroke="#63b8ff" d="M1449.66,-61.65C1350.86,-57.85 1140.96,-47.14 954.68,-18.95"/>
<polygon fill="#63b8ff" stroke="#63b8ff" points="955.12,-15.48 944.7,-17.42 954.05,-22.4 955.12,-15.48"/>
</a>
</g>
</g>
<!-- Node25 -->
<g id="Node000025" class="node">
<title>Node25</title>
<g id="a_Node000025"><a xlink:title=" ">
<polygon fill="#e0e0e0" stroke="#999999" points="1010.5,-19 962.5,-19 962.5,0 1010.5,0 1010.5,-19"/>
<text text-anchor="middle" x="986.5" y="-7" font-family="Helvetica,sans-Serif" font-size="10.00">mutex</text>
</a>
</g>
</g>
<!-- Node2&#45;&gt;Node25 -->
<g id="edge24_Node000002_Node000025" class="edge">
<title>Node2&#45;&gt;Node25</title>
<g id="a_edge24_Node000002_Node000025"><a xlink:title=" ">
<path fill="none" stroke="#63b8ff" d="M1449.87,-61.29C1360.54,-57.14 1181.38,-46.21 1020.63,-18.91"/>
<polygon fill="#63b8ff" stroke="#63b8ff" points="1021,-15.42 1010.55,-17.17 1019.81,-22.32 1021,-15.42"/>
</a>
</g>
</g>
<!-- Node26 -->
<g id="Node000026" class="node">
<title>Node26</title>
<g id="a_Node000026"><a xlink:title=" ">
<polygon fill="#e0e0e0" stroke="#999999" points="1082.5,-19 1028.5,-19 1028.5,0 1082.5,0 1082.5,-19"/>
<text text-anchor="middle" x="1055.5" y="-7" font-family="Helvetica,sans-Serif" font-size="10.00">random</text>
</a>
</g>
</g>
<!-- Node2&#45;&gt;Node26 -->
<g id="edge25_Node000002_Node000026" class="edge">
<title>Node2&#45;&gt;Node26</title>
<g id="a_edge25_Node000002_Node000026"><a xlink:title=" ">
<path fill="none" stroke="#63b8ff" d="M1449.81,-59.68C1371.57,-53.9 1225.97,-41.37 1092.54,-18.97"/>
<polygon fill="#63b8ff" stroke="#63b8ff" points="1093,-15.5 1082.55,-17.27 1091.82,-22.4 1093,-15.5"/>
</a>
</g>
</g>
<!-- Node27 -->
<g id="Node000027" class="node">
<title>Node27</title>
<g id="a_Node000027"><a xlink:title=" ">
<polygon fill="#e0e0e0" stroke="#999999" points="1148.5,-19 1100.5,-19 1100.5,0 1148.5,0 1148.5,-19"/>
<text text-anchor="middle" x="1124.5" y="-7" font-family="Helvetica,sans-Serif" font-size="10.00">thread</text>
</a>
</g>
</g>
<!-- Node2&#45;&gt;Node27 -->
<g id="edge26_Node000002_Node000027" class="edge">
<title>Node2&#45;&gt;Node27</title>
<g id="a_edge26_Node000002_Node000027"><a xlink:title=" ">
<path fill="none" stroke="#63b8ff" d="M1449.94,-58.49C1382.73,-52.04 1267.05,-39.41 1158.7,-19.01"/>
<polygon fill="#63b8ff" stroke="#63b8ff" points="1159.05,-15.51 1148.57,-17.07 1157.74,-22.39 1159.05,-15.51"/>
</a>
</g>
</g>
<!-- Node28 -->
<g id="Node000028" class="node">
<title>Node28</title>
<g id="a_Node000028"><a xlink:title=" ">
<polygon fill="#e0e0e0" stroke="#999999" points="1216.5,-19 1166.5,-19 1166.5,0 1216.5,0 1216.5,-19"/>
<text text-anchor="middle" x="1191.5" y="-7" font-family="Helvetica,sans-Serif" font-size="10.00">atomic</text>
</a>
</g>
</g>
<!-- Node2&#45;&gt;Node28 -->
<g id="edge27_Node000002_Node000028" class="edge">
<title>Node2&#45;&gt;Node28</title>
<g id="a_edge27_Node000002_Node000028"><a xlink:title=" ">
<path fill="none" stroke="#63b8ff" d="M1449.99,-56.04C1395.23,-48.47 1309.64,-35.77 1226.55,-19.06"/>
<polygon fill="#63b8ff" stroke="#63b8ff" points="1227.19,-15.62 1216.69,-17.06 1225.8,-22.48 1227.19,-15.62"/>
</a>
</g>
</g>
<!-- Node29 -->
<g id="Node000029" class="node">
<title>Node29</title>
<g id="a_Node000029"><a xlink:title=" ">
<polygon fill="#e0e0e0" stroke="#999999" points="1284,-19 1235,-19 1235,0 1284,0 1284,-19"/>
<text text-anchor="middle" x="1259.5" y="-7" font-family="Helvetica,sans-Serif" font-size="10.00">cctype</text>
</a>
</g>
</g>
<!-- Node2&#45;&gt;Node29 -->
<g id="edge28_Node000002_Node000029" class="edge">
<title>Node2&#45;&gt;Node29</title>
<g id="a_edge28_Node000002_Node000029"><a xlink:title=" ">
<path fill="none" stroke="#63b8ff" d="M1463.15,-54.96C1422.14,-46.76 1358.63,-33.77 1294.27,-19.1"/>
<polygon fill="#63b8ff" stroke="#63b8ff" points="1294.88,-15.65 1284.36,-16.83 1293.32,-22.48 1294.88,-15.65"/>
</a>
</g>
</g>
<!-- Node30 -->
<g id="Node000030" class="node">
<title>Node30</title>
<g id="a_Node000030"><a xlink:title=" ">
<polygon fill="#e0e0e0" stroke="#999999" points="1344.5,-19 1302.5,-19 1302.5,0 1344.5,0 1344.5,-19"/>
<text text-anchor="middle" x="1323.5" y="-7" font-family="Helvetica,sans-Serif" font-size="10.00">array</text>
</a>
</g>
</g>
<!-- Node2&#45;&gt;Node30 -->
<g id="edge29_Node000002_Node000030" class="edge">
<title>Node2&#45;&gt;Node30</title>
<g id="a_edge29_Node000002_Node000030"><a xlink:title=" ">
<path fill="none" stroke="#63b8ff" d="M1477.1,-54.98C1443.49,-45.25 1388.73,-29.39 1354.48,-19.47"/>
<polygon fill="#63b8ff" stroke="#63b8ff" points="1355.14,-16.02 1344.56,-16.6 1353.19,-22.74 1355.14,-16.02"/>
</a>
</g>
</g>
<!-- Node31 -->
<g id="Node000031" class="node">
<title>Node31</title>
<g id="a_Node000031"><a xlink:title=" ">
<polygon fill="#e0e0e0" stroke="#999999" points="1432,-19 1363,-19 1363,0 1432,0 1432,-19"/>
<text text-anchor="middle" x="1397.5" y="-7" font-family="Helvetica,sans-Serif" font-size="10.00">type_traits</text>
</a>
</g>
</g>
<!-- Node2&#45;&gt;Node31 -->
<g id="edge30_Node000002_Node000031" class="edge">
<title>Node2&#45;&gt;Node31</title>
<g id="a_edge30_Node000002_Node000031"><a xlink:title=" ">
<path fill="none" stroke="#63b8ff" d="M1488.99,-54.98C1471.53,-46.5 1444.49,-33.35 1424.33,-23.54"/>
<polygon fill="#63b8ff" stroke="#63b8ff" points="1425.86,-20.4 1415.33,-19.17 1422.79,-26.69 1425.86,-20.4"/>
</a>
</g>
</g>
<!-- Node32 -->
<g id="Node000032" class="node">
<title>Node32</title>
<g id="a_Node000032"><a xlink:title=" ">
<polygon fill="#e0e0e0" stroke="#999999" points="1494.5,-19 1450.5,-19 1450.5,0 1494.5,0 1494.5,-19"/>
<text text-anchor="middle" x="1472.5" y="-7" font-family="Helvetica,sans-Serif" font-size="10.00">cfloat</text>
</a>
</g>
</g>
<!-- Node2&#45;&gt;Node32 -->
<g id="edge31_Node000002_Node000032" class="edge">
<title>Node2&#45;&gt;Node32</title>
<g id="a_edge31_Node000002_Node000032"><a xlink:title=" ">
<path fill="none" stroke="#63b8ff" d="M1500.89,-54.75C1496.18,-47.42 1489.33,-36.73 1483.53,-27.7"/>
<polygon fill="#63b8ff" stroke="#63b8ff" points="1486.36,-25.62 1478.01,-19.09 1480.46,-29.4 1486.36,-25.62"/>
</a>
</g>
</g>
<!-- Node33 -->
<g id="Node000033" class="node">
<title>Node33</title>
<g id="a_Node000033"><a xlink:title=" ">
<polygon fill="#e0e0e0" stroke="#999999" points="3133.5,-19 3023.5,-19 3023.5,0 3133.5,0 3133.5,-19"/>
<text text-anchor="middle" x="3078.5" y="-7" font-family="Helvetica,sans-Serif" font-size="10.00">nlohmann/json.hpp</text>
</a>
</g>
</g>
<!-- Node2&#45;&gt;Node33 -->
<g id="edge32_Node000002_Node000033" class="edge">
<title>Node2&#45;&gt;Node33</title>
<g id="a_edge32_Node000002_Node000033"><a xlink:title=" ">
<path fill="none" stroke="#63b8ff" d="M1563.1,-63.92C1761.17,-64.94 2441.58,-64.73 3013.28,-19"/>
<polygon fill="#63b8ff" stroke="#63b8ff" points="3013.69,-22.48 3023.38,-18.19 3013.13,-15.5 3013.69,-22.48"/>
</a>
</g>
</g>
<!-- Node34 -->
<g id="Node000034" class="node">
<title>Node34</title>
<g id="a_Node000034"><a xlink:title=" ">
<polygon fill="#e0e0e0" stroke="#999999" points="1568.5,-19 1512.5,-19 1512.5,0 1568.5,0 1568.5,-19"/>
<text text-anchor="middle" x="1540.5" y="-7" font-family="Helvetica,sans-Serif" font-size="10.00">d3d12.h</text>
</a>
</g>
</g>
<!-- Node2&#45;&gt;Node34 -->
<g id="edge33_Node000002_Node000034" class="edge">
<title>Node2&#45;&gt;Node34</title>
<g id="a_edge33_Node000002_Node000034"><a xlink:title=" ">
<path fill="none" stroke="#63b8ff" d="M1512.11,-54.75C1516.82,-47.42 1523.67,-36.73 1529.47,-27.7"/>
<polygon fill="#63b8ff" stroke="#63b8ff" points="1532.54,-29.4 1534.99,-19.09 1526.64,-25.62 1532.54,-29.4"/>
</a>
</g>
</g>
<!-- Node35 -->
<g id="Node000035" class="node">
<title>Node35</title>
<g id="a_Node000035"><a xlink:title=" ">
<polygon fill="#e0e0e0" stroke="#999999" points="1650.5,-19 1586.5,-19 1586.5,0 1650.5,0 1650.5,-19"/>
<text text-anchor="middle" x="1618.5" y="-7" font-family="Helvetica,sans-Serif" font-size="10.00">dxgi1_6.h</text>
</a>
</g>
</g>
<!-- Node2&#45;&gt;Node35 -->
<g id="edge34_Node000002_Node000035" class="edge">
<title>Node2&#45;&gt;Node35</title>
<g id="a_edge34_Node000002_Node000035"><a xlink:title=" ">
<path fill="none" stroke="#63b8ff" d="M1524.49,-54.98C1542.43,-46.5 1570.22,-33.35 1590.93,-23.54"/>
<polygon fill="#63b8ff" stroke="#63b8ff" points="1592.64,-26.61 1600.18,-19.17 1589.64,-20.28 1592.64,-26.61"/>
</a>
</g>
</g>
<!-- Node36 -->
<g id="Node000036" class="node">
<title>Node36</title>
<g id="a_Node000036"><a xlink:title=" ">
<polygon fill="#e0e0e0" stroke="#999999" points="1754.5,-19 1668.5,-19 1668.5,0 1754.5,0 1754.5,-19"/>
<text text-anchor="middle" x="1711.5" y="-7" font-family="Helvetica,sans-Serif" font-size="10.00">d3dcompiler.h</text>
</a>
</g>
</g>
<!-- Node2&#45;&gt;Node36 -->
<g id="edge35_Node000002_Node000036" class="edge">
<title>Node2&#45;&gt;Node36</title>
<g id="a_edge35_Node000002_Node000036"><a xlink:title=" ">
<path fill="none" stroke="#63b8ff" d="M1539.44,-54.98C1574.45,-45.93 1629.97,-31.58 1668.43,-21.64"/>
<polygon fill="#63b8ff" stroke="#63b8ff" points="1669.5,-24.97 1678.31,-19.08 1667.75,-18.2 1669.5,-24.97"/>
</a>
</g>
</g>
<!-- Node37 -->
<g id="Node000037" class="node">
<title>Node37</title>
<g id="a_Node000037"><a xlink:title=" ">
<polygon fill="#e0e0e0" stroke="#999999" points="2923.5,-19 2837.5,-19 2837.5,0 2923.5,0 2923.5,-19"/>
<text text-anchor="middle" x="2880.5" y="-7" font-family="Helvetica,sans-Serif" font-size="10.00">DirectXMath.h</text>
</a>
</g>
</g>
<!-- Node2&#45;&gt;Node37 -->
<g id="edge36_Node000002_Node000037" class="edge">
<title>Node2&#45;&gt;Node37</title>
<g id="a_edge36_Node000002_Node000037"><a xlink:title=" ">
<path fill="none" stroke="#63b8ff" d="M1563.04,-62.56C1779.58,-58.84 2557.15,-44.04 2827.26,-18.95"/>
<polygon fill="#63b8ff" stroke="#63b8ff" points="2827.8,-22.42 2837.43,-17.98 2827.14,-15.45 2827.8,-22.42"/>
</a>
</g>
</g>
<!-- Node38 -->
<g id="Node000038" class="node">
<title>Node38</title>
<g id="a_Node000038"><a xlink:title=" ">
<polygon fill="#e0e0e0" stroke="#999999" points="1890,-19 1773,-19 1773,0 1890,0 1890,-19"/>
<text text-anchor="middle" x="1831.5" y="-7" font-family="Helvetica,sans-Serif" font-size="10.00">assimp/Importer.hpp</text>
</a>
</g>
</g>
<!-- Node2&#45;&gt;Node38 -->
<g id="edge37_Node000002_Node000038" class="edge">
<title>Node2&#45;&gt;Node38</title>
<g id="a_edge37_Node000002_Node000038"><a xlink:title=" ">
<path fill="none" stroke="#63b8ff" d="M1558.72,-54.98C1616.08,-45.63 1708.17,-30.61 1769.24,-20.65"/>
<polygon fill="#63b8ff" stroke="#63b8ff" points="1769.84,-24.1 1779.14,-19.04 1768.71,-17.19 1769.84,-24.1"/>
</a>
</g>
</g>
<!-- Node39 -->
<g id="Node000039" class="node">
<title>Node39</title>
<g id="a_Node000039"><a xlink:title=" ">
<polygon fill="#e0e0e0" stroke="#999999" points="2000.5,-19 1908.5,-19 1908.5,0 2000.5,0 2000.5,-19"/>
<text text-anchor="middle" x="1954.5" y="-7" font-family="Helvetica,sans-Serif" font-size="10.00">assimp/scene.h</text>
</a>
</g>
</g>
<!-- Node2&#45;&gt;Node39 -->
<g id="edge38_Node000002_Node000039" class="edge">
<title>Node2&#45;&gt;Node39</title>
<g id="a_edge38_Node000002_Node000039"><a xlink:title=" ">
<path fill="none" stroke="#63b8ff" d="M1563.06,-57.75C1637.32,-50.06 1772,-35.59 1898.15,-18.99"/>
<polygon fill="#63b8ff" stroke="#63b8ff" points="1898.92,-22.42 1908.37,-17.64 1898,-15.48 1898.92,-22.42"/>
</a>
</g>
</g>
<!-- Node40 -->
<g id="Node000040" class="node">
<title>Node40</title>
<g id="a_Node000040"><a xlink:title=" ">
<polygon fill="#e0e0e0" stroke="#999999" points="2140.5,-19 2018.5,-19 2018.5,0 2140.5,0 2140.5,-19"/>
<text text-anchor="middle" x="2079.5" y="-7" font-family="Helvetica,sans-Serif" font-size="10.00">assimp/postprocess.h</text>
</a>
</g>
</g>
<!-- Node2&#45;&gt;Node40 -->
<g id="edge39_Node000002_Node000040" class="edge">
<title>Node2&#45;&gt;Node40</title>
<g id="a_edge39_Node000002_Node000040"><a xlink:title=" ">
<path fill="none" stroke="#63b8ff" d="M1563.13,-59.1C1654.49,-51.86 1840.32,-36.58 2008.41,-19.08"/>
<polygon fill="#63b8ff" stroke="#63b8ff" points="2008.85,-22.56 2018.43,-18.03 2008.12,-15.59 2008.85,-22.56"/>
</a>
</g>
</g>
<!-- Node41 -->
<g id="Node000041" class="node">
<title>Node41</title>
<g id="a_Node000041"><a xlink:href="Logger_8h.html" target="_top" xlink:title="デバッグログ出力システム">
<polygon fill="white" stroke="#666666" points="2819.5,-19 2741.5,-19 2741.5,0 2819.5,0 2819.5,-19"/>
<text text-anchor="middle" x="2780.5" y="-7" font-family="Helvetica,sans-Serif" font-size="10.00">Log/Logger.h</text>
</a>
</g>
</g>
<!-- Node2&#45;&gt;Node41 -->
<g id="edge40_Node000002_Node000041" class="edge">
<title>Node2&#45;&gt;Node41</title>
<g id="a_edge40_Node000002_Node000041"><a xlink:title=" ">
<path fill="none" stroke="#63b8ff" d="M1563.26,-62.39C1771.51,-58.3 2492.71,-42.99 2722.5,-19 2725.36,-18.7 2728.3,-18.34 2731.28,-17.93"/>
<polygon fill="#63b8ff" stroke="#63b8ff" points="2732.09,-21.35 2741.46,-16.4 2731.05,-14.42 2732.09,-21.35"/>
</a>
</g>
</g>
<!-- Node41&#45;&gt;Node2 -->
<g id="edge41_Node000041_Node000002" class="edge">
<title>Node41&#45;&gt;Node2</title>
<g id="a_edge41_Node000041_Node000002"><a xlink:title=" ">
<path fill="none" stroke="#63b8ff" d="M2741.27,-18.92C2741.02,-18.95 2740.76,-18.97 2740.5,-19 2511.83,-42.88 1796.5,-58.15 1573.51,-62.33"/>
<polygon fill="#63b8ff" stroke="#63b8ff" points="1573.2,-58.84 1563.27,-62.52 1573.33,-65.84 1573.2,-58.84"/>
</a>
</g>
</g>
<!-- Node42&#45;&gt;Node2 -->
<g id="edge43_Node000042_Node000002" class="edge">
<title>Node42&#45;&gt;Node2</title>
<g id="a_edge43_Node000042_Node000002"><a xlink:title=" ">
<path fill="none" stroke="#63b8ff" d="M1684.64,-164.99C1665.78,-155.09 1640,-141.41 1617.5,-129 1587.05,-112.2 1552.31,-92.19 1529.93,-79.18"/>
<polygon fill="#63b8ff" stroke="#63b8ff" points="1531.55,-76.07 1521.14,-74.07 1528.02,-82.12 1531.55,-76.07"/>
</a>
</g>
</g>
<!-- Node43 -->
<g id="Node000043" class="node">
<title>Node43</title>
<g id="a_Node000043"><a xlink:href="SpanMath_8h.html" target="_top" xlink:title="算術ライブラリ (Vector, Matrix, Quaternion)。">
<polygon fill="#fff0f0" stroke="red" points="2942.5,-74 2814.5,-74 2814.5,-55 2942.5,-55 2942.5,-74"/>
<text text-anchor="middle" x="2878.5" y="-62" font-family="Helvetica,sans-Serif" font-size="10.00">Core/Math/SpanMath.h</text>
</a>
</g>
</g>
<!-- Node42&#45;&gt;Node43 -->
<g id="edge44_Node000042_Node000043" class="edge">
<title>Node42&#45;&gt;Node43</title>
<g id="a_edge44_Node000042_Node000043"><a xlink:title=" ">
<path fill="none" stroke="#63b8ff" d="M1768.18,-173.49C1960.49,-154.78 2588.13,-93.74 2804.44,-72.7"/>
<polygon fill="#63b8ff" stroke="#63b8ff" points="2804.81,-76.18 2814.42,-71.73 2804.13,-69.22 2804.81,-76.18"/>
</a>
</g>
</g>
<!-- Node45 -->
<g id="Node000045" class="node">
<title>Node45</title>
<g id="a_Node000045"><a xlink:href="ConstantBuffer_8h.html" target="_top" xlink:title="DirectX 12 定数バッファ (CBV) のラッパークラス">
<polygon fill="white" stroke="#666666" points="1796,-129 1627,-129 1627,-110 1796,-110 1796,-129"/>
<text text-anchor="middle" x="1711.5" y="-117" font-family="Helvetica,sans-Serif" font-size="10.00">Graphics/Core/ConstantBuffer.h</text>
</a>
</g>
</g>
<!-- Node42&#45;&gt;Node45 -->
<g id="edge47_Node000042_Node000045" class="edge">
<title>Node42&#45;&gt;Node45</title>
<g id="a_edge47_Node000042_Node000045"><a xlink:title=" ">
<path fill="none" stroke="#63b8ff" d="M1711.5,-164.84C1711.5,-157.21 1711.5,-147.7 1711.5,-139.45"/>
<polygon fill="#63b8ff" stroke="#63b8ff" points="1715,-139.27 1711.5,-129.27 1708,-139.27 1715,-139.27"/>
</a>
</g>
</g>
<!-- Node46 -->
<g id="Node000046" class="node">
<title>Node46</title>
<g id="a_Node000046"><a xlink:href="Texture_8h.html" target="_top" xlink:title="画像読み込みとテクスチャリソース管理。">
<polygon fill="white" stroke="#666666" points="1875.5,-129 1813.5,-129 1813.5,-110 1875.5,-110 1875.5,-129"/>
<text text-anchor="middle" x="1844.5" y="-117" font-family="Helvetica,sans-Serif" font-size="10.00">Texture.h</text>
</a>
</g>
</g>
<!-- Node42&#45;&gt;Node46 -->
<g id="edge49_Node000042_Node000046" class="edge">
<title>Node42&#45;&gt;Node46</title>
<g id="a_edge49_Node000042_Node000046"><a xlink:title=" ">
<path fill="none" stroke="#63b8ff" d="M1743.36,-164.99C1765.35,-155.31 1794.35,-142.56 1815.66,-133.18"/>
<polygon fill="#63b8ff" stroke="#63b8ff" points="1817.11,-136.37 1824.86,-129.14 1814.3,-129.96 1817.11,-136.37"/>
</a>
</g>
</g>
<!-- Node47 -->
<g id="Node000047" class="node">
<title>Node47</title>
<g id="a_Node000047"><a xlink:href="Shader_8h.html" target="_top" xlink:title="HLSLシェーダーのロードとコンパイル管理。">
<polygon fill="white" stroke="#666666" points="1571.5,-129 1441.5,-129 1441.5,-110 1571.5,-110 1571.5,-129"/>
<text text-anchor="middle" x="1506.5" y="-117" font-family="Helvetica,sans-Serif" font-size="10.00">Graphics/Core/Shader.h</text>
</a>
</g>
</g>
<!-- Node42&#45;&gt;Node47 -->
<g id="edge51_Node000042_Node000047" class="edge">
<title>Node42&#45;&gt;Node47</title>
<g id="a_edge51_Node000042_Node000047"><a xlink:title=" ">
<path fill="none" stroke="#63b8ff" d="M1662.4,-164.99C1626.87,-154.85 1579.46,-141.32 1546.28,-131.85"/>
<polygon fill="#63b8ff" stroke="#63b8ff" points="1547.05,-128.43 1536.47,-129.05 1545.13,-135.16 1547.05,-128.43"/>
</a>
</g>
</g>
<!-- Node43&#45;&gt;Node15 -->
<g id="edge46_Node000043_Node000015" class="edge">
<title>Node43&#45;&gt;Node15</title>
<g id="a_edge46_Node000043_Node000015"><a xlink:title=" ">
<path fill="none" stroke="#63b8ff" d="M2893.76,-54.98C2908.63,-46.69 2931.48,-33.94 2948.92,-24.22"/>
<polygon fill="#63b8ff" stroke="#63b8ff" points="2950.93,-27.1 2957.96,-19.17 2947.52,-20.99 2950.93,-27.1"/>
</a>
</g>
</g>
<!-- Node43&#45;&gt;Node37 -->
<g id="edge45_Node000043_Node000037" class="edge">
<title>Node43&#45;&gt;Node37</title>
<g id="a_edge45_Node000043_Node000037"><a xlink:title=" ">
<path fill="none" stroke="#63b8ff" d="M2878.83,-54.75C2879.09,-47.8 2879.47,-37.85 2879.8,-29.13"/>
<polygon fill="#63b8ff" stroke="#63b8ff" points="2883.3,-29.21 2880.18,-19.09 2876.3,-28.95 2883.3,-29.21"/>
</a>
</g>
</g>
<!-- Node45&#45;&gt;Node2 -->
<g id="edge48_Node000045_Node000002" class="edge">
<title>Node45&#45;&gt;Node2</title>
<g id="a_edge48_Node000045_Node000002"><a xlink:title=" ">
<path fill="none" stroke="#63b8ff" d="M1678.56,-109.98C1643.55,-100.93 1588.03,-86.58 1549.57,-76.64"/>
<polygon fill="#63b8ff" stroke="#63b8ff" points="1550.25,-73.2 1539.69,-74.08 1548.5,-79.97 1550.25,-73.2"/>
</a>
</g>
</g>
<!-- Node46&#45;&gt;Node2 -->
<g id="edge50_Node000046_Node000002" class="edge">
<title>Node46&#45;&gt;Node2</title>
<g id="a_edge50_Node000046_Node000002"><a xlink:title=" ">
<path fill="none" stroke="#63b8ff" d="M1813.09,-111.64C1810.19,-111.06 1807.29,-110.51 1804.5,-110 1725.43,-95.71 1633.95,-82.55 1573.43,-74.3"/>
<polygon fill="#63b8ff" stroke="#63b8ff" points="1573.62,-70.8 1563.24,-72.92 1572.68,-77.73 1573.62,-70.8"/>
</a>
</g>
</g>
<!-- Node47&#45;&gt;Node2 -->
<g id="edge52_Node000047_Node000002" class="edge">
<title>Node47&#45;&gt;Node2</title>
<g id="a_edge52_Node000047_Node000002"><a xlink:title=" ">
<path fill="none" stroke="#63b8ff" d="M1506.5,-109.75C1506.5,-102.8 1506.5,-92.85 1506.5,-84.13"/>
<polygon fill="#63b8ff" stroke="#63b8ff" points="1510,-84.09 1506.5,-74.09 1503,-84.09 1510,-84.09"/>
</a>
</g>
</g>
<!-- Node48&#45;&gt;Node33 -->
<g id="edge59_Node000048_Node000033" class="edge">
<title>Node48&#45;&gt;Node33</title>
<g id="a_edge59_Node000048_Node000033"><a xlink:title=" ">
<path fill="none" stroke="#63b8ff" d="M2767.52,-173.05C2812.55,-166.62 2876.98,-153.76 2928.5,-129 2983.83,-102.41 3037.52,-52.37 3063.05,-26.66"/>
<polygon fill="#63b8ff" stroke="#63b8ff" points="3065.83,-28.82 3070.31,-19.23 3060.82,-23.93 3065.83,-28.82"/>
</a>
</g>
</g>
<!-- Node49 -->
<g id="Node000049" class="node">
<title>Node49</title>
<g id="a_Node000049"><a xlink:href="SpanAttributes_8h.html" target="_top" xlink:title="インスペクタ表示用の属性 (Attribute) 定義。">
<polygon fill="white" stroke="#666666" points="2633.5,-129 2535.5,-129 2535.5,-110 2633.5,-110 2633.5,-129"/>
<text text-anchor="middle" x="2584.5" y="-117" font-family="Helvetica,sans-Serif" font-size="10.00">SpanAttributes.h</text>
</a>
</g>
</g>
<!-- Node48&#45;&gt;Node49 -->
<g id="edge54_Node000048_Node000049" class="edge">
<title>Node48&#45;&gt;Node49</title>
<g id="a_edge54_Node000048_Node000049"><a xlink:title=" ">
<path fill="none" stroke="#63b8ff" d="M2681.84,-164.99C2660.77,-155.36 2633.01,-142.67 2612.53,-133.31"/>
<polygon fill="#63b8ff" stroke="#63b8ff" points="2613.95,-130.11 2603.4,-129.14 2611.04,-136.48 2613.95,-130.11"/>
</a>
</g>
</g>
<!-- Node50 -->
<g id="Node000050" class="node">
<title>Node50</title>
<g id="a_Node000050"><a xlink:href="ComponentRegistry_8h.html" target="_top" xlink:title="コンポーネントのメタデータ管理 (リフレクション)。">
<polygon fill="#fff0f0" stroke="red" points="2773,-129 2652,-129 2652,-110 2773,-110 2773,-129"/>
<text text-anchor="middle" x="2712.5" y="-117" font-family="Helvetica,sans-Serif" font-size="10.00">ComponentRegistry.h</text>
</a>
</g>
</g>
<!-- Node48&#45;&gt;Node50 -->
<g id="edge55_Node000048_Node000050" class="edge">
<title>Node48&#45;&gt;Node50</title>
<g id="a_edge55_Node000048_Node000050"><a xlink:title=" ">
<path fill="none" stroke="#63b8ff" d="M2712.5,-164.84C2712.5,-157.21 2712.5,-147.7 2712.5,-139.45"/>
<polygon fill="#63b8ff" stroke="#63b8ff" points="2716,-139.27 2712.5,-129.27 2709,-139.27 2716,-139.27"/>
</a>
</g>
</g>
<!-- Node60 -->
<g id="Node000060" class="node">
<title>Node60</title>
<g id="a_Node000060"><a xlink:href="ImGuiUI_8h.html" target="_top" xlink:title="ImGui用のカスタムウィジェットヘルパー。">
<polygon fill="#fff0f0" stroke="red" points="2920,-129 2791,-129 2791,-110 2920,-110 2920,-129"/>
<text text-anchor="middle" x="2855.5" y="-117" font-family="Helvetica,sans-Serif" font-size="10.00">Editor/ImGui/ImGuiUI.h</text>
</a>
</g>
</g>
<!-- Node48&#45;&gt;Node60 -->
<g id="edge56_Node000048_Node000060" class="edge">
<title>Node48&#45;&gt;Node60</title>
<g id="a_edge56_Node000048_Node000060"><a xlink:title=" ">
<path fill="none" stroke="#63b8ff" d="M2746.75,-164.99C2770.61,-155.23 2802.15,-142.33 2825.11,-132.93"/>
<polygon fill="#63b8ff" stroke="#63b8ff" points="2826.45,-136.17 2834.38,-129.14 2823.8,-129.69 2826.45,-136.17"/>
</a>
</g>
</g>
<!-- Node60&#45;&gt;Node41 -->
<g id="edge58_Node000060_Node000041" class="edge">
<title>Node60&#45;&gt;Node41</title>
<g id="a_edge58_Node000060_Node000041"><a xlink:title=" ">
<path fill="none" stroke="#63b8ff" d="M2842.89,-109.93C2831.76,-101.8 2815.74,-88.68 2805.5,-74 2795.96,-60.34 2789.36,-42.52 2785.35,-29.24"/>
<polygon fill="#63b8ff" stroke="#63b8ff" points="2788.64,-28.03 2782.57,-19.34 2781.9,-29.92 2788.64,-28.03"/>
</a>
</g>
</g>
<!-- Node60&#45;&gt;Node43 -->
<g id="edge57_Node000060_Node000043" class="edge">
<title>Node60&#45;&gt;Node43</title>
<g id="a_edge57_Node000060_Node000043"><a xlink:title=" ">
<path fill="none" stroke="#63b8ff" d="M2859.3,-109.75C2862.41,-102.57 2866.92,-92.18 2870.79,-83.27"/>
<polygon fill="#63b8ff" stroke="#63b8ff" points="2874,-84.66 2874.77,-74.09 2867.58,-81.87 2874,-84.66"/>
</a>
</g>
</g>
</g>
</svg>

<g id="navigator" transform="translate(0 0)" fill="#404254">
  <rect fill="#f2f5e9" fill-opacity="0.5" stroke="#606060" stroke-width=".5" x="0" y="0" width="60" height="60"/>
  <use id="zoomplus" xlink:href="#zoomPlus" x="17" y="9" onmousedown="handleZoom(evt,'in')"/>
  <use id="zoomminus" xlink:href="#zoomMin" x="42" y="9" onmousedown="handleZoom(evt,'out')"/>
  <use id="reset" xlink:href="#resetDef" x="30" y="36" onmousedown="handleReset()"/>
   <use id="arrowup" xlink:href="#arrowUp" x="0" y="0" onmousedown="handlePan(0,-1)"/>
  <use id="arrowright" xlink:href="#arrowRight" x="0" y="0" onmousedown="handlePan(1,0)"/>
  <use id="arrowdown" xlink:href="#arrowDown" x="0" y="0" onmousedown="handlePan(0,1)"/>
  <use id="arrowleft" xlink:href="#arrowLeft" x="0" y="0" onmousedown="handlePan(-1,0)"/>
</g>
<svg viewBox="0 0 15 15" width="100%" height="30px" preserveAspectRatio="xMaxYMin meet">
 <g id="arrow_out" transform="scale(0.3 0.3)">
  <a xlink:href="MeshRenderer_8h__incl_org.svg" target="_base">
   <rect id="button" ry="5" rx="5" y="6" x="6" height="38" width="38"
        fill="#f2f5e9" fill-opacity="0.5" stroke="#606060" stroke-width="1.0"/>
   <path id="arrow"
     d="M 11.500037,31.436501 C 11.940474,20.09759 22.043105,11.32322 32.158766,21.979434 L 37.068811,17.246167 C 37.068811,17.246167 37.088388,32 37.088388,32 L 22.160133,31.978069 C 22.160133,31.978069 26.997745,27.140456 26.997745,27.140456 C 18.528582,18.264221 13.291696,25.230495 11.500037,31.436501 z"
     style="fill:#404040;"/>
  </a>
 </g>
</svg>

<style type='text/css'>
<![CDATA[
[data-mouse-over-selected='false'] { opacity: 0.7; }
[data-mouse-over-selected='true']  { opacity: 1.0; }
]]>
</style>
<script type="application/ecmascript"><![CDATA[
document.addEventListener('DOMContentLoaded', (event) => {
  highlightEdges();
  highlightAdjacentNodes();
});
]]></script>
</svg>
