<?xml version="1.0" encoding="UTF-8" standalone="no"?>
<!DOCTYPE svg PUBLIC "-//W3C//DTD SVG 1.1//EN"
 "http://www.w3.org/Graphics/SVG/1.1/DTD/svg11.dtd">
<!-- Generated by graphviz version 2.43.0 (0)
 -->
<!-- Title: Engine/Source/Runtime/Graphics/Resources/Mesh.h Pages: 1 -->
<svg width="1602pt" height="390pt"
 viewBox="0.00 0.00 1601.50 390.00" xmlns="http://www.w3.org/2000/svg" xmlns:xlink="http://www.w3.org/1999/xlink">
<g id="graph0" class="graph" transform="scale(1 1) rotate(0) translate(4 386)">
<title>Engine/Source/Runtime/Graphics/Resources/Mesh.h</title>
<!-- Node1 -->
<g id="Node000001" class="node">
<title>Node1</title>
<g id="a_Node000001"><a xlink:title="3Dモデルの形状データ (頂点バッファ) 管理。">
<polygon fill="#999999" stroke="#666666" points="849,-382 695,-382 695,-352 849,-352 849,-382"/>
<text text-anchor="start" x="703" y="-370" font-family="Helvetica,sans-Serif" font-size="10.00">Engine/Source/Runtime</text>
<text text-anchor="middle" x="772" y="-359" font-family="Helvetica,sans-Serif" font-size="10.00">/Graphics/Resources/Mesh.h</text>
</a>
</g>
</g>
<!-- Node2 -->
<g id="Node000002" class="node">
<title>Node2</title>
<g id="a_Node000002"><a xlink:href="MeshFilter_8h.html" target="_top" xlink:title="描画する形状 (メッシュ) への参照。">
<polygon fill="white" stroke="#666666" points="876,-250 746,-250 746,-209 876,-209 876,-250"/>
<text text-anchor="start" x="754" y="-238" font-family="Helvetica,sans-Serif" font-size="10.00">Engine/Source/Runtime</text>
<text text-anchor="start" x="754" y="-227" font-family="Helvetica,sans-Serif" font-size="10.00">/Components/Graphics</text>
<text text-anchor="middle" x="811" y="-216" font-family="Helvetica,sans-Serif" font-size="10.00">/MeshFilter.h</text>
</a>
</g>
</g>
<!-- Node1&#45;&gt;Node2 -->
<g id="edge1_Node000001_Node000002" class="edge">
<title>Node1&#45;&gt;Node2</title>
<g id="a_edge1_Node000001_Node000002"><a xlink:title=" ">
<path fill="none" stroke="#63b8ff" d="M778.94,-341.89C786.47,-315.74 798.34,-274.49 805.33,-250.21"/>
<polygon fill="#63b8ff" stroke="#63b8ff" points="775.5,-341.18 776.1,-351.76 782.23,-343.11 775.5,-341.18"/>
</a>
</g>
</g>
<!-- Node4 -->
<g id="Node000004" class="node">
<title>Node4</title>
<g id="a_Node000004"><a xlink:href="SpanEngine_8h.html" target="_top" xlink:title=" ">
<polygon fill="white" stroke="#666666" points="840.5,-96 685.5,-96 685.5,-77 840.5,-77 840.5,-96"/>
<text text-anchor="middle" x="763" y="-84" font-family="Helvetica,sans-Serif" font-size="10.00">Engine/Source/SpanEngine.h</text>
</a>
</g>
</g>
<!-- Node1&#45;&gt;Node4 -->
<g id="edge42_Node000001_Node000004" class="edge">
<title>Node1&#45;&gt;Node4</title>
<g id="a_edge42_Node000001_Node000004"><a xlink:title=" ">
<path fill="none" stroke="#63b8ff" d="M684.62,-361.24C626.39,-355.57 549.25,-343.16 486,-316 440.75,-296.57 419.14,-293.99 397,-250 372.72,-201.76 383.7,-165.58 426,-132 464.94,-101.09 598.62,-91.59 685.45,-88.71"/>
<polygon fill="#63b8ff" stroke="#63b8ff" points="684.61,-364.75 694.89,-362.19 685.26,-357.78 684.61,-364.75"/>
</a>
</g>
</g>
<!-- Node15 -->
<g id="Node000015" class="node">
<title>Node15</title>
<g id="a_Node000015"><a xlink:href="ModelLoader_8h.html" target="_top" xlink:title="3Dモデルファイル(.fbx, .obj)のインポート処理。">
<polygon fill="white" stroke="#666666" points="631.5,-316 494.5,-316 494.5,-286 631.5,-286 631.5,-316"/>
<text text-anchor="start" x="502.5" y="-304" font-family="Helvetica,sans-Serif" font-size="10.00">Engine/Source/Runtime</text>
<text text-anchor="middle" x="563" y="-293" font-family="Helvetica,sans-Serif" font-size="10.00">/Graphics/ModelLoader.h</text>
</a>
</g>
</g>
<!-- Node1&#45;&gt;Node15 -->
<g id="edge15_Node000001_Node000015" class="edge">
<title>Node1&#45;&gt;Node15</title>
<g id="a_edge15_Node000001_Node000015"><a xlink:title=" ">
<path fill="none" stroke="#63b8ff" d="M716.45,-348.99C682.82,-338.69 640.45,-325.72 608.76,-316.01"/>
<polygon fill="#63b8ff" stroke="#63b8ff" points="715.55,-352.37 726.13,-351.95 717.6,-345.68 715.55,-352.37"/>
</a>
</g>
</g>
<!-- Node17 -->
<g id="Node000017" class="node">
<title>Node17</title>
<g id="a_Node000017"><a xlink:href="AssetManager_8h.html" target="_top" xlink:title="エンジン全域のアセットライフサイクルを管理するシングルトン。">
<polygon fill="white" stroke="#666666" points="728,-244.5 582,-244.5 582,-214.5 728,-214.5 728,-244.5"/>
<text text-anchor="start" x="590" y="-232.5" font-family="Helvetica,sans-Serif" font-size="10.00">Engine/Source/Runtime</text>
<text text-anchor="middle" x="655" y="-221.5" font-family="Helvetica,sans-Serif" font-size="10.00">/Resource/AssetManager.h</text>
</a>
</g>
</g>
<!-- Node1&#45;&gt;Node17 -->
<g id="edge41_Node000001_Node000017" class="edge">
<title>Node1&#45;&gt;Node17</title>
<g id="a_edge41_Node000001_Node000017"><a xlink:title=" ">
<path fill="none" stroke="#63b8ff" d="M753.06,-344.06C728.82,-315.99 687.53,-268.17 667.14,-244.55"/>
<polygon fill="#63b8ff" stroke="#63b8ff" points="750.52,-346.47 759.7,-351.76 755.81,-341.9 750.52,-346.47"/>
</a>
</g>
</g>
<!-- Node19 -->
<g id="Node000019" class="node">
<title>Node19</title>
<g id="a_Node000019"><a xlink:href="Renderer_8h.html" target="_top" xlink:title="描画パイプラインの構築と実行。">
<polygon fill="white" stroke="#666666" points="1007,-316 877,-316 877,-286 1007,-286 1007,-316"/>
<text text-anchor="start" x="885" y="-304" font-family="Helvetica,sans-Serif" font-size="10.00">Engine/Source/Runtime</text>
<text text-anchor="middle" x="942" y="-293" font-family="Helvetica,sans-Serif" font-size="10.00">/Graphics/Renderer.h</text>
</a>
</g>
</g>
<!-- Node1&#45;&gt;Node19 -->
<g id="edge21_Node000001_Node000019" class="edge">
<title>Node1&#45;&gt;Node19</title>
<g id="a_edge21_Node000001_Node000019"><a xlink:title=" ">
<path fill="none" stroke="#63b8ff" d="M818.96,-348.32C846.01,-338.14 879.55,-325.51 904.78,-316.01"/>
<polygon fill="#63b8ff" stroke="#63b8ff" points="817.43,-345.16 809.31,-351.95 819.9,-351.71 817.43,-345.16"/>
</a>
</g>
</g>
<!-- Node26 -->
<g id="Node000026" class="node">
<title>Node26</title>
<g id="a_Node000026"><a xlink:href="Mesh_8cpp.html" target="_top" xlink:title=" ">
<polygon fill="white" stroke="#666666" points="1190.5,-316 1025.5,-316 1025.5,-286 1190.5,-286 1190.5,-316"/>
<text text-anchor="start" x="1033.5" y="-304" font-family="Helvetica,sans-Serif" font-size="10.00">Engine/Source/Runtime</text>
<text text-anchor="middle" x="1108" y="-293" font-family="Helvetica,sans-Serif" font-size="10.00">/Graphics/Resources/Mesh.cpp</text>
</a>
</g>
</g>
<!-- Node1&#45;&gt;Node26 -->
<g id="edge40_Node000001_Node000026" class="edge">
<title>Node1&#45;&gt;Node26</title>
<g id="a_edge40_Node000001_Node000026"><a xlink:title=" ">
<path fill="none" stroke="#63b8ff" d="M855.79,-350.04C910.68,-339.59 981.74,-326.05 1034.44,-316.01"/>
<polygon fill="#63b8ff" stroke="#63b8ff" points="854.91,-346.65 845.74,-351.95 856.21,-353.52 854.91,-346.65"/>
</a>
</g>
</g>
<!-- Node3 -->
<g id="Node000003" class="node">
<title>Node3</title>
<g id="a_Node000003"><a xlink:href="RenderingSystem_8h.html" target="_top" xlink:title="描画コマンド発行システム。">
<polygon fill="white" stroke="#666666" points="914,-173 754,-173 754,-132 914,-132 914,-173"/>
<text text-anchor="start" x="762" y="-161" font-family="Helvetica,sans-Serif" font-size="10.00">Engine/Source/Runtime</text>
<text text-anchor="start" x="762" y="-150" font-family="Helvetica,sans-Serif" font-size="10.00">/Systems/Graphics/Rendering</text>
<text text-anchor="middle" x="834" y="-139" font-family="Helvetica,sans-Serif" font-size="10.00">System.h</text>
</a>
</g>
</g>
<!-- Node2&#45;&gt;Node3 -->
<g id="edge2_Node000002_Node000003" class="edge">
<title>Node2&#45;&gt;Node3</title>
<g id="a_edge2_Node000002_Node000003"><a xlink:title=" ">
<path fill="none" stroke="#63b8ff" d="M820.05,-198.98C822.72,-190.28 825.57,-180.98 828,-173.07"/>
<polygon fill="#63b8ff" stroke="#63b8ff" points="816.63,-198.21 817.04,-208.79 823.32,-200.26 816.63,-198.21"/>
</a>
</g>
</g>
<!-- Node2&#45;&gt;Node4 -->
<g id="edge14_Node000002_Node000004" class="edge">
<title>Node2&#45;&gt;Node4</title>
<g id="a_edge14_Node000002_Node000004"><a xlink:title=" ">
<path fill="none" stroke="#63b8ff" d="M769.26,-202.8C759.5,-194.58 750.39,-184.57 745,-173 732.77,-146.74 748.81,-112.07 757.74,-96.16"/>
<polygon fill="#63b8ff" stroke="#63b8ff" points="767.14,-205.58 777.17,-209 771.46,-200.07 767.14,-205.58"/>
</a>
</g>
</g>
<!-- Node3&#45;&gt;Node4 -->
<g id="edge3_Node000003_Node000004" class="edge">
<title>Node3&#45;&gt;Node4</title>
<g id="a_edge3_Node000003_Node000004"><a xlink:title=" ">
<path fill="none" stroke="#63b8ff" d="M804.62,-125.02C793.22,-114.74 780.96,-103.69 772.72,-96.26"/>
<polygon fill="#63b8ff" stroke="#63b8ff" points="802.54,-127.85 812.31,-131.95 807.23,-122.65 802.54,-127.85"/>
</a>
</g>
</g>
<!-- Node5 -->
<g id="Node000005" class="node">
<title>Node5</title>
<g id="a_Node000005"><a xlink:href="GuiManager_8cpp.html" target="_top" xlink:title=" ">
<polygon fill="white" stroke="#666666" points="1593.5,-35.5 1476.5,-35.5 1476.5,-5.5 1593.5,-5.5 1593.5,-35.5"/>
<text text-anchor="start" x="1484.5" y="-23.5" font-family="Helvetica,sans-Serif" font-size="10.00">Engine/Source/Editor</text>
<text text-anchor="middle" x="1535" y="-12.5" font-family="Helvetica,sans-Serif" font-size="10.00">/GuiManager.cpp</text>
</a>
</g>
</g>
<!-- Node4&#45;&gt;Node5 -->
<g id="edge4_Node000004_Node000005" class="edge">
<title>Node4&#45;&gt;Node5</title>
<g id="a_edge4_Node000004_Node000005"><a xlink:title=" ">
<path fill="none" stroke="#63b8ff" d="M850.89,-81.01C1026.25,-71.9 1407.84,-51.23 1467,-41 1474.87,-39.64 1483.12,-37.71 1491.06,-35.6"/>
<polygon fill="#63b8ff" stroke="#63b8ff" points="850.47,-77.53 840.66,-81.54 850.83,-84.52 850.47,-77.53"/>
</a>
</g>
</g>
<!-- Node6 -->
<g id="Node000006" class="node">
<title>Node6</title>
<g id="a_Node000006"><a xlink:href="ImGuiUI_8cpp.html" target="_top" xlink:title=" ">
<polygon fill="white" stroke="#666666" points="295.5,-35.5 178.5,-35.5 178.5,-5.5 295.5,-5.5 295.5,-35.5"/>
<text text-anchor="start" x="186.5" y="-23.5" font-family="Helvetica,sans-Serif" font-size="10.00">Engine/Source/Editor</text>
<text text-anchor="middle" x="237" y="-12.5" font-family="Helvetica,sans-Serif" font-size="10.00">/ImGui/ImGuiUI.cpp</text>
</a>
</g>
</g>
<!-- Node4&#45;&gt;Node6 -->
<g id="edge5_Node000004_Node000006" class="edge">
<title>Node4&#45;&gt;Node6</title>
<g id="a_edge5_Node000004_Node000006"><a xlink:title=" ">
<path fill="none" stroke="#63b8ff" d="M675.23,-81.73C582.53,-76.65 432.46,-65.26 305,-41 297.4,-39.55 289.42,-37.64 281.71,-35.57"/>
<polygon fill="#63b8ff" stroke="#63b8ff" points="675.23,-85.24 685.4,-82.28 675.61,-78.25 675.23,-85.24"/>
</a>
</g>
</g>
<!-- Node7 -->
<g id="Node000007" class="node">
<title>Node7</title>
<g id="a_Node000007"><a xlink:href="HierarchyPanel_8cpp.html" target="_top" xlink:title=" ">
<polygon fill="white" stroke="#666666" points="1310,-41 1158,-41 1158,0 1310,0 1310,-41"/>
<text text-anchor="start" x="1166" y="-29" font-family="Helvetica,sans-Serif" font-size="10.00">Engine/Source/Editor</text>
<text text-anchor="start" x="1166" y="-18" font-family="Helvetica,sans-Serif" font-size="10.00">/Panels/Hierarchy/Hierarchy</text>
<text text-anchor="middle" x="1234" y="-7" font-family="Helvetica,sans-Serif" font-size="10.00">Panel.cpp</text>
</a>
</g>
</g>
<!-- Node4&#45;&gt;Node7 -->
<g id="edge6_Node000004_Node000007" class="edge">
<title>Node4&#45;&gt;Node7</title>
<g id="a_edge6_Node000004_Node000007"><a xlink:title=" ">
<path fill="none" stroke="#63b8ff" d="M850.95,-78.16C929.45,-70.94 1047.36,-58.46 1149,-41 1151.84,-40.51 1154.72,-39.99 1157.62,-39.44"/>
<polygon fill="#63b8ff" stroke="#63b8ff" points="850.26,-74.7 840.62,-79.1 850.9,-81.68 850.26,-74.7"/>
</a>
</g>
</g>
<!-- Node8 -->
<g id="Node000008" class="node">
<title>Node8</title>
<g id="a_Node000008"><a xlink:href="InspectorPanel_8cpp.html" target="_top" xlink:title=" ">
<polygon fill="white" stroke="#666666" points="799.5,-41 652.5,-41 652.5,0 799.5,0 799.5,-41"/>
<text text-anchor="start" x="660.5" y="-29" font-family="Helvetica,sans-Serif" font-size="10.00">Engine/Source/Editor</text>
<text text-anchor="start" x="660.5" y="-18" font-family="Helvetica,sans-Serif" font-size="10.00">/Panels/Inspector/Inspector</text>
<text text-anchor="middle" x="726" y="-7" font-family="Helvetica,sans-Serif" font-size="10.00">Panel.cpp</text>
</a>
</g>
</g>
<!-- Node4&#45;&gt;Node8 -->
<g id="edge7_Node000004_Node000008" class="edge">
<title>Node4&#45;&gt;Node8</title>
<g id="a_edge7_Node000004_Node000008"><a xlink:title=" ">
<path fill="none" stroke="#63b8ff" d="M752.89,-68.01C748.06,-59.65 742.25,-49.62 737.28,-41.01"/>
<polygon fill="#63b8ff" stroke="#63b8ff" points="749.97,-69.96 758.01,-76.87 756.04,-66.46 749.97,-69.96"/>
</a>
</g>
</g>
<!-- Node9 -->
<g id="Node000009" class="node">
<title>Node9</title>
<g id="a_Node000009"><a xlink:href="ProjectBrowserPanel_8cpp.html" target="_top" xlink:title="ProjectBrowserPanelの実装。">
<polygon fill="white" stroke="#666666" points="958,-41 818,-41 818,0 958,0 958,-41"/>
<text text-anchor="start" x="826" y="-29" font-family="Helvetica,sans-Serif" font-size="10.00">Engine/Source/Editor</text>
<text text-anchor="start" x="826" y="-18" font-family="Helvetica,sans-Serif" font-size="10.00">/Panels/ProjectBrowser</text>
<text text-anchor="middle" x="888" y="-7" font-family="Helvetica,sans-Serif" font-size="10.00">/ProjectBrowserPanel.cpp</text>
</a>
</g>
</g>
<!-- Node4&#45;&gt;Node9 -->
<g id="edge8_Node000004_Node000009" class="edge">
<title>Node4&#45;&gt;Node9</title>
<g id="a_edge8_Node000004_Node000009"><a xlink:title=" ">
<path fill="none" stroke="#63b8ff" d="M788.97,-72.2C806.58,-63.19 830.16,-51.11 849.9,-41.01"/>
<polygon fill="#63b8ff" stroke="#63b8ff" points="787.16,-69.2 779.86,-76.87 790.35,-75.43 787.16,-69.2"/>
</a>
</g>
</g>
<!-- Node10 -->
<g id="Node000010" class="node">
<title>Node10</title>
<g id="a_Node000010"><a xlink:href="SceneViewPanel_8cpp.html" target="_top" xlink:title=" ">
<polygon fill="white" stroke="#666666" points="1140,-41 976,-41 976,0 1140,0 1140,-41"/>
<text text-anchor="start" x="984" y="-29" font-family="Helvetica,sans-Serif" font-size="10.00">Engine/Source/Editor</text>
<text text-anchor="start" x="984" y="-18" font-family="Helvetica,sans-Serif" font-size="10.00">/Panels/SceneView/SceneView</text>
<text text-anchor="middle" x="1058" y="-7" font-family="Helvetica,sans-Serif" font-size="10.00">Panel.cpp</text>
</a>
</g>
</g>
<!-- Node4&#45;&gt;Node10 -->
<g id="edge9_Node000004_Node000010" class="edge">
<title>Node4&#45;&gt;Node10</title>
<g id="a_edge9_Node000004_Node000010"><a xlink:title=" ">
<path fill="none" stroke="#63b8ff" d="M812.47,-74.77C857.01,-65.1 923.34,-50.71 975.84,-39.33"/>
<polygon fill="#63b8ff" stroke="#63b8ff" points="811.51,-71.39 802.48,-76.94 812.99,-78.24 811.51,-71.39"/>
</a>
</g>
</g>
<!-- Node11 -->
<g id="Node000011" class="node">
<title>Node11</title>
<g id="a_Node000011"><a xlink:href="EditorFileSystem_8cpp.html" target="_top" xlink:title="EditorFileSystemの実装。">
<polygon fill="white" stroke="#666666" points="462,-35.5 314,-35.5 314,-5.5 462,-5.5 462,-35.5"/>
<text text-anchor="start" x="322" y="-23.5" font-family="Helvetica,sans-Serif" font-size="10.00">Engine/Source/Editor</text>
<text text-anchor="middle" x="388" y="-12.5" font-family="Helvetica,sans-Serif" font-size="10.00">/Utils/EditorFileSystem.cpp</text>
</a>
</g>
</g>
<!-- Node4&#45;&gt;Node11 -->
<g id="edge10_Node000004_Node000011" class="edge">
<title>Node4&#45;&gt;Node11</title>
<g id="a_edge10_Node000004_Node000011"><a xlink:title=" ">
<path fill="none" stroke="#63b8ff" d="M687.22,-75.64C628.11,-67.53 544.06,-55.13 471,-41 462.57,-39.37 453.7,-37.48 445.02,-35.53"/>
<polygon fill="#63b8ff" stroke="#63b8ff" points="686.84,-79.12 697.22,-77 687.78,-72.18 686.84,-79.12"/>
</a>
</g>
</g>
<!-- Node12 -->
<g id="Node000012" class="node">
<title>Node12</title>
<g id="a_Node000012"><a xlink:href="Application_8cpp.html" target="_top" xlink:title=" ">
<polygon fill="white" stroke="#666666" points="1458,-35.5 1328,-35.5 1328,-5.5 1458,-5.5 1458,-35.5"/>
<text text-anchor="start" x="1336" y="-23.5" font-family="Helvetica,sans-Serif" font-size="10.00">Engine/Source/Runtime</text>
<text text-anchor="middle" x="1393" y="-12.5" font-family="Helvetica,sans-Serif" font-size="10.00">/Application.cpp</text>
</a>
</g>
</g>
<!-- Node4&#45;&gt;Node12 -->
<g id="edge11_Node000004_Node000012" class="edge">
<title>Node4&#45;&gt;Node12</title>
<g id="a_edge11_Node000004_Node000012"><a xlink:title=" ">
<path fill="none" stroke="#63b8ff" d="M850.78,-80.38C984.13,-72.29 1231.49,-55.91 1319,-41 1327.38,-39.57 1336.2,-37.64 1344.71,-35.54"/>
<polygon fill="#63b8ff" stroke="#63b8ff" points="850.36,-76.9 840.59,-81 850.79,-83.89 850.36,-76.9"/>
</a>
</g>
</g>
<!-- Node13 -->
<g id="Node000013" class="node">
<title>Node13</title>
<g id="a_Node000013"><a xlink:href="AssetRegistry_8cpp.html" target="_top" xlink:title="AssetRegistryの実装。">
<polygon fill="white" stroke="#666666" points="634,-35.5 480,-35.5 480,-5.5 634,-5.5 634,-35.5"/>
<text text-anchor="start" x="488" y="-23.5" font-family="Helvetica,sans-Serif" font-size="10.00">Engine/Source/Runtime</text>
<text text-anchor="middle" x="557" y="-12.5" font-family="Helvetica,sans-Serif" font-size="10.00">/Resource/AssetRegistry.cpp</text>
</a>
</g>
</g>
<!-- Node4&#45;&gt;Node13 -->
<g id="edge12_Node000004_Node000013" class="edge">
<title>Node4&#45;&gt;Node13</title>
<g id="a_edge12_Node000004_Node000013"><a xlink:title=" ">
<path fill="none" stroke="#63b8ff" d="M725.49,-73.85C690.87,-63.09 639.37,-47.09 602.43,-35.62"/>
<polygon fill="#63b8ff" stroke="#63b8ff" points="724.63,-77.24 735.22,-76.87 726.71,-70.56 724.63,-77.24"/>
</a>
</g>
</g>
<!-- Node14 -->
<g id="Node000014" class="node">
<title>Node14</title>
<g id="a_Node000014"><a xlink:href="AssetSerializer_8cpp.html" target="_top" xlink:title="AssetSerializerの実装。">
<polygon fill="white" stroke="#666666" points="160,-35.5 0,-35.5 0,-5.5 160,-5.5 160,-35.5"/>
<text text-anchor="start" x="8" y="-23.5" font-family="Helvetica,sans-Serif" font-size="10.00">Engine/Source/Runtime</text>
<text text-anchor="middle" x="80" y="-12.5" font-family="Helvetica,sans-Serif" font-size="10.00">/Resource/AssetSerializer.cpp</text>
</a>
</g>
</g>
<!-- Node4&#45;&gt;Node14 -->
<g id="edge13_Node000004_Node000014" class="edge">
<title>Node4&#45;&gt;Node14</title>
<g id="a_edge13_Node000004_Node000014"><a xlink:title=" ">
<path fill="none" stroke="#63b8ff" d="M674.98,-82.78C558.64,-78.3 347.54,-67.11 169,-41 159.14,-39.56 148.74,-37.64 138.67,-35.58"/>
<polygon fill="#63b8ff" stroke="#63b8ff" points="675.13,-86.29 685.25,-83.17 675.39,-79.29 675.13,-86.29"/>
</a>
</g>
</g>
<!-- Node15&#45;&gt;Node4 -->
<g id="edge20_Node000015_Node000004" class="edge">
<title>Node15&#45;&gt;Node4</title>
<g id="a_edge20_Node000015_Node000004"><a xlink:title=" ">
<path fill="none" stroke="#63b8ff" d="M484.5,-293.95C455.34,-287.44 425,-274.67 407,-250 396.26,-235.28 399.52,-225.62 407,-209 428.2,-161.92 447.38,-154.19 494,-132 554.27,-103.32 629.75,-92.73 685.4,-89.01"/>
<polygon fill="#63b8ff" stroke="#63b8ff" points="483.83,-297.39 494.33,-295.93 485.21,-290.53 483.83,-297.39"/>
</a>
</g>
</g>
<!-- Node16 -->
<g id="Node000016" class="node">
<title>Node16</title>
<g id="a_Node000016"><a xlink:href="ModelLoader_8cpp.html" target="_top" xlink:title=" ">
<polygon fill="white" stroke="#666666" points="564,-244.5 416,-244.5 416,-214.5 564,-214.5 564,-244.5"/>
<text text-anchor="start" x="424" y="-232.5" font-family="Helvetica,sans-Serif" font-size="10.00">Engine/Source/Runtime</text>
<text text-anchor="middle" x="490" y="-221.5" font-family="Helvetica,sans-Serif" font-size="10.00">/Graphics/ModelLoader.cpp</text>
</a>
</g>
</g>
<!-- Node15&#45;&gt;Node16 -->
<g id="edge16_Node000015_Node000016" class="edge">
<title>Node15&#45;&gt;Node16</title>
<g id="a_edge16_Node000015_Node000016"><a xlink:title=" ">
<path fill="none" stroke="#63b8ff" d="M540.93,-278.99C529.22,-267.84 515.13,-254.43 504.75,-244.54"/>
<polygon fill="#63b8ff" stroke="#63b8ff" points="538.57,-281.58 548.23,-285.94 543.4,-276.51 538.57,-281.58"/>
</a>
</g>
</g>
<!-- Node15&#45;&gt;Node17 -->
<g id="edge17_Node000015_Node000017" class="edge">
<title>Node15&#45;&gt;Node17</title>
<g id="a_edge17_Node000015_Node000017"><a xlink:title=" ">
<path fill="none" stroke="#63b8ff" d="M589.97,-279.63C604.9,-268.35 623.07,-254.62 636.41,-244.54"/>
<polygon fill="#63b8ff" stroke="#63b8ff" points="587.49,-277.12 581.62,-285.94 591.71,-282.7 587.49,-277.12"/>
</a>
</g>
</g>
<!-- Node17&#45;&gt;Node4 -->
<g id="edge19_Node000017_Node000004" class="edge">
<title>Node17&#45;&gt;Node4</title>
<g id="a_edge19_Node000017_Node000004"><a xlink:title=" ">
<path fill="none" stroke="#63b8ff" d="M672.06,-206.23C696.36,-174.51 739.83,-117.75 756.37,-96.16"/>
<polygon fill="#63b8ff" stroke="#63b8ff" points="669.05,-204.4 665.75,-214.46 674.61,-208.65 669.05,-204.4"/>
</a>
</g>
</g>
<!-- Node18 -->
<g id="Node000018" class="node">
<title>Node18</title>
<g id="a_Node000018"><a xlink:href="AssetManager_8cpp.html" target="_top" xlink:title="AssetManagerの実装。">
<polygon fill="white" stroke="#666666" points="659.5,-167.5 502.5,-167.5 502.5,-137.5 659.5,-137.5 659.5,-167.5"/>
<text text-anchor="start" x="510.5" y="-155.5" font-family="Helvetica,sans-Serif" font-size="10.00">Engine/Source/Runtime</text>
<text text-anchor="middle" x="581" y="-144.5" font-family="Helvetica,sans-Serif" font-size="10.00">/Resource/AssetManager.cpp</text>
</a>
</g>
</g>
<!-- Node17&#45;&gt;Node18 -->
<g id="edge18_Node000017_Node000018" class="edge">
<title>Node17&#45;&gt;Node18</title>
<g id="a_edge18_Node000017_Node000018"><a xlink:title=" ">
<path fill="none" stroke="#63b8ff" d="M633.75,-206.96C621.24,-194.29 605.8,-178.63 594.86,-167.54"/>
<polygon fill="#63b8ff" stroke="#63b8ff" points="631.57,-209.73 641.08,-214.39 636.55,-204.82 631.57,-209.73"/>
</a>
</g>
</g>
<!-- Node19&#45;&gt;Node3 -->
<g id="edge38_Node000019_Node000003" class="edge">
<title>Node19&#45;&gt;Node3</title>
<g id="a_edge38_Node000019_Node000003"><a xlink:title=" ">
<path fill="none" stroke="#63b8ff" d="M929.24,-277.12C918.35,-258.24 901.82,-231.07 885,-209 875.4,-196.41 863.48,-183.32 853.58,-173.02"/>
<polygon fill="#63b8ff" stroke="#63b8ff" points="926.26,-278.96 934.26,-285.91 932.35,-275.49 926.26,-278.96"/>
</a>
</g>
</g>
<!-- Node19&#45;&gt;Node4 -->
<g id="edge39_Node000019_Node000004" class="edge">
<title>Node19&#45;&gt;Node4</title>
<g id="a_edge39_Node000019_Node000004"><a xlink:title=" ">
<path fill="none" stroke="#63b8ff" d="M946.92,-275.75C952.68,-239.86 957.52,-172.48 923,-132 909.25,-115.87 858.53,-103.6 817.84,-96.06"/>
<polygon fill="#63b8ff" stroke="#63b8ff" points="943.43,-275.36 945.14,-285.81 950.32,-276.57 943.43,-275.36"/>
</a>
</g>
</g>
<!-- Node20 -->
<g id="Node000020" class="node">
<title>Node20</title>
<g id="a_Node000020"><a xlink:href="GuiManager_8h.html" target="_top" xlink:title="ImGuiのライフサイクルとレンダリング管理。">
<polygon fill="white" stroke="#666666" points="1523.5,-167.5 1406.5,-167.5 1406.5,-137.5 1523.5,-137.5 1523.5,-167.5"/>
<text text-anchor="start" x="1414.5" y="-155.5" font-family="Helvetica,sans-Serif" font-size="10.00">Engine/Source/Editor</text>
<text text-anchor="middle" x="1465" y="-144.5" font-family="Helvetica,sans-Serif" font-size="10.00">/GuiManager.h</text>
</a>
</g>
</g>
<!-- Node19&#45;&gt;Node20 -->
<g id="edge22_Node000019_Node000020" class="edge">
<title>Node19&#45;&gt;Node20</title>
<g id="a_edge22_Node000019_Node000020"><a xlink:title=" ">
<path fill="none" stroke="#63b8ff" d="M1010.7,-283.33C1048.96,-273.29 1092.2,-260.47 1109,-250 1130.09,-236.86 1125,-220.54 1147,-209 1246.41,-156.85 1287.24,-196.53 1397,-173 1404.21,-171.46 1411.77,-169.56 1419.13,-167.57"/>
<polygon fill="#63b8ff" stroke="#63b8ff" points="1009.38,-280.06 1000.58,-285.95 1011.14,-286.83 1009.38,-280.06"/>
</a>
</g>
</g>
<!-- Node22 -->
<g id="Node000022" class="node">
<title>Node22</title>
<g id="a_Node000022"><a xlink:href="Application_8h.html" target="_top" xlink:title="エンジンのメインループとライフサイクル管理。">
<polygon fill="white" stroke="#666666" points="1100,-244.5 970,-244.5 970,-214.5 1100,-214.5 1100,-244.5"/>
<text text-anchor="start" x="978" y="-232.5" font-family="Helvetica,sans-Serif" font-size="10.00">Engine/Source/Runtime</text>
<text text-anchor="middle" x="1035" y="-221.5" font-family="Helvetica,sans-Serif" font-size="10.00">/Application.h</text>
</a>
</g>
</g>
<!-- Node19&#45;&gt;Node22 -->
<g id="edge30_Node000019_Node000022" class="edge">
<title>Node19&#45;&gt;Node22</title>
<g id="a_edge30_Node000019_Node000022"><a xlink:title=" ">
<path fill="none" stroke="#63b8ff" d="M968.84,-279.94C984.01,-268.6 1002.6,-254.71 1016.21,-244.54"/>
<polygon fill="#63b8ff" stroke="#63b8ff" points="966.74,-277.15 960.82,-285.94 970.93,-282.75 966.74,-277.15"/>
</a>
</g>
</g>
<!-- Node25 -->
<g id="Node000025" class="node">
<title>Node25</title>
<g id="a_Node000025"><a xlink:href="Renderer_8cpp.html" target="_top" xlink:title=" ">
<polygon fill="white" stroke="#666666" points="1286,-244.5 1156,-244.5 1156,-214.5 1286,-214.5 1286,-244.5"/>
<text text-anchor="start" x="1164" y="-232.5" font-family="Helvetica,sans-Serif" font-size="10.00">Engine/Source/Runtime</text>
<text text-anchor="middle" x="1221" y="-221.5" font-family="Helvetica,sans-Serif" font-size="10.00">/Graphics/Renderer.cpp</text>
</a>
</g>
</g>
<!-- Node19&#45;&gt;Node25 -->
<g id="edge37_Node000019_Node000025" class="edge">
<title>Node19&#45;&gt;Node25</title>
<g id="a_edge37_Node000019_Node000025"><a xlink:title=" ">
<path fill="none" stroke="#63b8ff" d="M1008.37,-283.47C1055.99,-271.61 1119.46,-255.8 1164.62,-244.54"/>
<polygon fill="#63b8ff" stroke="#63b8ff" points="1007.32,-280.12 998.46,-285.94 1009.01,-286.91 1007.32,-280.12"/>
</a>
</g>
</g>
<!-- Node20&#45;&gt;Node5 -->
<g id="edge23_Node000020_Node000005" class="edge">
<title>Node20&#45;&gt;Node5</title>
<g id="a_edge23_Node000020_Node000005"><a xlink:title=" ">
<path fill="none" stroke="#63b8ff" d="M1477.52,-128.25C1492.01,-101.34 1515.4,-57.9 1527.38,-35.64"/>
<polygon fill="#63b8ff" stroke="#63b8ff" points="1474.28,-126.88 1472.62,-137.34 1480.45,-130.19 1474.28,-126.88"/>
</a>
</g>
</g>
<!-- Node20&#45;&gt;Node12 -->
<g id="edge24_Node000020_Node000012" class="edge">
<title>Node20&#45;&gt;Node12</title>
<g id="a_edge24_Node000020_Node000012"><a xlink:title=" ">
<path fill="none" stroke="#63b8ff" d="M1452.12,-128.25C1437.22,-101.34 1413.16,-57.9 1400.83,-35.64"/>
<polygon fill="#63b8ff" stroke="#63b8ff" points="1449.25,-130.29 1457.16,-137.34 1455.37,-126.9 1449.25,-130.29"/>
</a>
</g>
</g>
<!-- Node21 -->
<g id="Node000021" class="node">
<title>Node21</title>
<g id="a_Node000021"><a xlink:href="SpanEditor_8h.html" target="_top" xlink:title=" ">
<polygon fill="white" stroke="#666666" points="1132.5,-96 983.5,-96 983.5,-77 1132.5,-77 1132.5,-96"/>
<text text-anchor="middle" x="1058" y="-84" font-family="Helvetica,sans-Serif" font-size="10.00">Engine/Source/SpanEditor.h</text>
</a>
</g>
</g>
<!-- Node20&#45;&gt;Node21 -->
<g id="edge25_Node000020_Node000021" class="edge">
<title>Node20&#45;&gt;Node21</title>
<g id="a_edge25_Node000020_Node000021"><a xlink:title=" ">
<path fill="none" stroke="#63b8ff" d="M1409.62,-134.89C1405.37,-133.84 1401.13,-132.86 1397,-132 1306.92,-113.28 1201.64,-100.92 1132.6,-94.07"/>
<polygon fill="#63b8ff" stroke="#63b8ff" points="1408.95,-138.33 1419.51,-137.45 1410.71,-131.55 1408.95,-138.33"/>
</a>
</g>
</g>
<!-- Node21&#45;&gt;Node7 -->
<g id="edge26_Node000021_Node000007" class="edge">
<title>Node21&#45;&gt;Node7</title>
<g id="a_edge26_Node000021_Node000007"><a xlink:title=" ">
<path fill="none" stroke="#63b8ff" d="M1091.17,-73.44C1116.28,-64.31 1151.28,-51.58 1180.35,-41.01"/>
<polygon fill="#63b8ff" stroke="#63b8ff" points="1089.94,-70.16 1081.74,-76.87 1092.33,-76.74 1089.94,-70.16"/>
</a>
</g>
</g>
<!-- Node21&#45;&gt;Node8 -->
<g id="edge27_Node000021_Node000008" class="edge">
<title>Node21&#45;&gt;Node8</title>
<g id="a_edge27_Node000021_Node000008"><a xlink:title=" ">
<path fill="none" stroke="#63b8ff" d="M995.28,-75.25C944.82,-66.78 872.17,-54.05 809,-41 805.96,-40.37 802.85,-39.71 799.72,-39.04"/>
<polygon fill="#63b8ff" stroke="#63b8ff" points="994.94,-78.74 1005.38,-76.94 996.09,-71.84 994.94,-78.74"/>
</a>
</g>
</g>
<!-- Node21&#45;&gt;Node9 -->
<g id="edge28_Node000021_Node000009" class="edge">
<title>Node21&#45;&gt;Node9</title>
<g id="a_edge28_Node000021_Node000009"><a xlink:title=" ">
<path fill="none" stroke="#63b8ff" d="M1025.63,-73.32C1001.41,-64.19 967.78,-51.53 939.82,-41.01"/>
<polygon fill="#63b8ff" stroke="#63b8ff" points="1024.48,-76.62 1035.07,-76.87 1026.95,-70.07 1024.48,-76.62"/>
</a>
</g>
</g>
<!-- Node21&#45;&gt;Node10 -->
<g id="edge29_Node000021_Node000010" class="edge">
<title>Node21&#45;&gt;Node10</title>
<g id="a_edge29_Node000021_Node000010"><a xlink:title=" ">
<path fill="none" stroke="#63b8ff" d="M1058,-66.63C1058,-58.56 1058,-49.15 1058,-41.01"/>
<polygon fill="#63b8ff" stroke="#63b8ff" points="1054.5,-66.87 1058,-76.87 1061.5,-66.87 1054.5,-66.87"/>
</a>
</g>
</g>
<!-- Node22&#45;&gt;Node3 -->
<g id="edge35_Node000022_Node000003" class="edge">
<title>Node22&#45;&gt;Node3</title>
<g id="a_edge35_Node000022_Node000003"><a xlink:title=" ">
<path fill="none" stroke="#63b8ff" d="M987.67,-210.84C957.27,-199.5 917.77,-184.76 886.43,-173.06"/>
<polygon fill="#63b8ff" stroke="#63b8ff" points="986.6,-214.18 997.19,-214.39 989.05,-207.62 986.6,-214.18"/>
</a>
</g>
</g>
<!-- Node22&#45;&gt;Node4 -->
<g id="edge36_Node000022_Node000004" class="edge">
<title>Node22&#45;&gt;Node4</title>
<g id="a_edge36_Node000022_Node000004"><a xlink:title=" ">
<path fill="none" stroke="#63b8ff" d="M1019.24,-206.01C1001.02,-180.65 971.55,-141.66 956,-132 921.53,-110.59 877.83,-99.47 840.74,-93.69"/>
<polygon fill="#63b8ff" stroke="#63b8ff" points="1016.52,-208.23 1025.17,-214.35 1022.22,-204.17 1016.52,-208.23"/>
</a>
</g>
</g>
<!-- Node22&#45;&gt;Node12 -->
<g id="edge31_Node000022_Node000012" class="edge">
<title>Node22&#45;&gt;Node12</title>
<g id="a_edge31_Node000022_Node000012"><a xlink:title=" ">
<path fill="none" stroke="#63b8ff" d="M1093.72,-211.61C1140.83,-197.79 1200.73,-179.5 1211,-173 1231.99,-159.71 1230.63,-148.73 1249,-132 1290.46,-94.22 1343.88,-55.56 1372.59,-35.5"/>
<polygon fill="#63b8ff" stroke="#63b8ff" points="1092.5,-208.32 1083.88,-214.48 1094.46,-215.04 1092.5,-208.32"/>
</a>
</g>
</g>
<!-- Node23 -->
<g id="Node000023" class="node">
<title>Node23</title>
<g id="a_Node000023"><a xlink:href="EntryPoint_8h.html" target="_top" xlink:title="アプリケーションのエントリーポイント (main関数)。">
<polygon fill="white" stroke="#666666" points="1388,-167.5 1258,-167.5 1258,-137.5 1388,-137.5 1388,-167.5"/>
<text text-anchor="start" x="1266" y="-155.5" font-family="Helvetica,sans-Serif" font-size="10.00">Engine/Source/Runtime</text>
<text text-anchor="middle" x="1323" y="-144.5" font-family="Helvetica,sans-Serif" font-size="10.00">/EntryPoint.h</text>
</a>
</g>
</g>
<!-- Node22&#45;&gt;Node23 -->
<g id="edge32_Node000022_Node000023" class="edge">
<title>Node22&#45;&gt;Node23</title>
<g id="a_edge32_Node000022_Node000023"><a xlink:title=" ">
<path fill="none" stroke="#63b8ff" d="M1098.77,-211.89C1149.82,-198.6 1220.64,-180.16 1268.94,-167.58"/>
<polygon fill="#63b8ff" stroke="#63b8ff" points="1097.63,-208.57 1088.83,-214.48 1099.39,-215.35 1097.63,-208.57"/>
</a>
</g>
</g>
<!-- Node24 -->
<g id="Node000024" class="node">
<title>Node24</title>
<g id="a_Node000024"><a xlink:href="CameraSystem_8h.html" target="_top" xlink:title="カメラ行列の更新とレンダラーへの適用。">
<polygon fill="white" stroke="#666666" points="1202,-167.5 1008,-167.5 1008,-137.5 1202,-137.5 1202,-167.5"/>
<text text-anchor="start" x="1016" y="-155.5" font-family="Helvetica,sans-Serif" font-size="10.00">Engine/Source/Runtime</text>
<text text-anchor="middle" x="1105" y="-144.5" font-family="Helvetica,sans-Serif" font-size="10.00">/Systems/Graphics/CameraSystem.h</text>
</a>
</g>
</g>
<!-- Node22&#45;&gt;Node24 -->
<g id="edge33_Node000022_Node000024" class="edge">
<title>Node22&#45;&gt;Node24</title>
<g id="a_edge33_Node000022_Node000024"><a xlink:title=" ">
<path fill="none" stroke="#63b8ff" d="M1055.11,-206.96C1066.93,-194.29 1081.54,-178.63 1091.89,-167.54"/>
<polygon fill="#63b8ff" stroke="#63b8ff" points="1052.43,-204.69 1048.17,-214.39 1057.55,-209.47 1052.43,-204.69"/>
</a>
</g>
</g>
<!-- Node24&#45;&gt;Node4 -->
<g id="edge34_Node000024_Node000004" class="edge">
<title>Node24&#45;&gt;Node4</title>
<g id="a_edge34_Node000024_Node000004"><a xlink:title=" ">
<path fill="none" stroke="#63b8ff" d="M1019.83,-135.56C952.91,-123.04 862.29,-106.08 808.51,-96.02"/>
<polygon fill="#63b8ff" stroke="#63b8ff" points="1019.47,-139.06 1029.95,-137.45 1020.76,-132.18 1019.47,-139.06"/>
</a>
</g>
</g>
</g>
</svg>
