<?xml version="1.0" encoding="UTF-8" standalone="no"?>
<!DOCTYPE svg PUBLIC "-//W3C//DTD SVG 1.1//EN"
 "http://www.w3.org/Graphics/SVG/1.1/DTD/svg11.dtd">
<!-- Generated by graphviz version 2.43.0 (0)
 -->
<!-- Title: Engine/Source/Runtime/Components/Graphics/MeshFilter.h Pages: 1 -->
<svg width="3207pt" height="291pt"
 viewBox="0.00 0.00 3207.00 291.00" xmlns="http://www.w3.org/2000/svg" xmlns:xlink="http://www.w3.org/1999/xlink">
<g id="graph0" class="graph" transform="scale(1 1) rotate(0) translate(4 287)">
<title>Engine/Source/Runtime/Components/Graphics/MeshFilter.h</title>
<!-- Node1 -->
<g id="Node000001" class="node">
<title>Node1</title>
<g id="a_Node000001"><a xlink:title="描画する形状 (メッシュ) への参照。">
<polygon fill="#999999" stroke="#666666" points="2137,-283 2007,-283 2007,-242 2137,-242 2137,-283"/>
<text text-anchor="start" x="2015" y="-271" font-family="Helvetica,sans-Serif" font-size="10.00">Engine/Source/Runtime</text>
<text text-anchor="start" x="2015" y="-260" font-family="Helvetica,sans-Serif" font-size="10.00">/Components/Graphics</text>
<text text-anchor="middle" x="2072" y="-249" font-family="Helvetica,sans-Serif" font-size="10.00">/MeshFilter.h</text>
</a>
</g>
</g>
<!-- Node2 -->
<g id="Node000002" class="node">
<title>Node2</title>
<g id="a_Node000002"><a xlink:href="CoreMinimal_8h.html" target="_top" xlink:title="エンジンの標準インクルードファイル。">
<polygon fill="white" stroke="#666666" points="1591.5,-74 1478.5,-74 1478.5,-55 1591.5,-55 1591.5,-74"/>
<text text-anchor="middle" x="1535" y="-62" font-family="Helvetica,sans-Serif" font-size="10.00">Core/CoreMinimal.h</text>
</a>
</g>
</g>
<!-- Node1&#45;&gt;Node2 -->
<g id="edge1_Node000001_Node000002" class="edge">
<title>Node1&#45;&gt;Node2</title>
<g id="a_edge1_Node000001_Node000002"><a xlink:title=" ">
<path fill="none" stroke="#63b8ff" d="M2018.55,-241.99C1908.08,-201.67 1657.48,-110.2 1567.73,-77.45"/>
<polygon fill="#63b8ff" stroke="#63b8ff" points="1568.93,-74.16 1558.33,-74.02 1566.53,-80.73 1568.93,-74.16"/>
</a>
</g>
</g>
<!-- Node42 -->
<g id="Node000042" class="node">
<title>Node42</title>
<g id="a_Node000042"><a xlink:href="Mesh_8h.html" target="_top" xlink:title="3Dモデルの形状データ (頂点バッファ) 管理。">
<polygon fill="white" stroke="#666666" points="2128.5,-140 2015.5,-140 2015.5,-110 2128.5,-110 2128.5,-140"/>
<text text-anchor="start" x="2023.5" y="-128" font-family="Helvetica,sans-Serif" font-size="10.00">Graphics/Resources</text>
<text text-anchor="middle" x="2072" y="-117" font-family="Helvetica,sans-Serif" font-size="10.00">/Mesh.h</text>
</a>
</g>
</g>
<!-- Node1&#45;&gt;Node42 -->
<g id="edge42_Node000001_Node000042" class="edge">
<title>Node1&#45;&gt;Node42</title>
<g id="a_edge42_Node000001_Node000042"><a xlink:title=" ">
<path fill="none" stroke="#63b8ff" d="M2072,-241.8C2072,-217.65 2072,-176.72 2072,-150.55"/>
<polygon fill="#63b8ff" stroke="#63b8ff" points="2075.5,-150.33 2072,-140.33 2068.5,-150.33 2075.5,-150.33"/>
</a>
</g>
</g>
<!-- Node45 -->
<g id="Node000045" class="node">
<title>Node45</title>
<g id="a_Node000045"><a xlink:href="SpanReflection_8h.html" target="_top" xlink:title="コンポーネント定義用のリフレクションマクロ。">
<polygon fill="white" stroke="#666666" points="2835,-206 2725,-206 2725,-176 2835,-176 2835,-206"/>
<text text-anchor="start" x="2733" y="-194" font-family="Helvetica,sans-Serif" font-size="10.00">Runtime/Reflection</text>
<text text-anchor="middle" x="2780" y="-183" font-family="Helvetica,sans-Serif" font-size="10.00">/SpanReflection.h</text>
</a>
</g>
</g>
<!-- Node1&#45;&gt;Node45 -->
<g id="edge48_Node000001_Node000045" class="edge">
<title>Node1&#45;&gt;Node45</title>
<g id="a_edge48_Node000001_Node000045"><a xlink:title=" ">
<path fill="none" stroke="#63b8ff" d="M2137.02,-255.12C2271.62,-241.9 2579.46,-211.69 2714.48,-198.43"/>
<polygon fill="#63b8ff" stroke="#63b8ff" points="2715.07,-201.89 2724.68,-197.43 2714.38,-194.92 2715.07,-201.89"/>
</a>
</g>
</g>
<!-- Node3 -->
<g id="Node000003" class="node">
<title>Node3</title>
<g id="a_Node000003"><a xlink:title=" ">
<polygon fill="#e0e0e0" stroke="#999999" points="2052,-19 1982,-19 1982,0 2052,0 2052,-19"/>
<text text-anchor="middle" x="2017" y="-7" font-family="Helvetica,sans-Serif" font-size="10.00">Windows.h</text>
</a>
</g>
</g>
<!-- Node2&#45;&gt;Node3 -->
<g id="edge2_Node000002_Node000003" class="edge">
<title>Node2&#45;&gt;Node3</title>
<g id="a_edge2_Node000002_Node000003"><a xlink:title=" ">
<path fill="none" stroke="#63b8ff" d="M1591.55,-59.38C1673.23,-53.08 1829.17,-39.7 1971.74,-19.06"/>
<polygon fill="#63b8ff" stroke="#63b8ff" points="1972.6,-22.47 1981.98,-17.56 1971.58,-15.54 1972.6,-22.47"/>
</a>
</g>
</g>
<!-- Node4 -->
<g id="Node000004" class="node">
<title>Node4</title>
<g id="a_Node000004"><a xlink:title=" ">
<polygon fill="#e0e0e0" stroke="#999999" points="2111.5,-19 2070.5,-19 2070.5,0 2111.5,0 2111.5,-19"/>
<text text-anchor="middle" x="2091" y="-7" font-family="Helvetica,sans-Serif" font-size="10.00">wrl.h</text>
</a>
</g>
</g>
<!-- Node2&#45;&gt;Node4 -->
<g id="edge3_Node000002_Node000004" class="edge">
<title>Node2&#45;&gt;Node4</title>
<g id="a_edge3_Node000002_Node000004"><a xlink:title=" ">
<path fill="none" stroke="#63b8ff" d="M1591.52,-62.26C1686.57,-59.41 1884.43,-50.16 2060.5,-18.69"/>
<polygon fill="#63b8ff" stroke="#63b8ff" points="2061.25,-22.11 2070.47,-16.88 2060,-15.22 2061.25,-22.11"/>
</a>
</g>
</g>
<!-- Node5 -->
<g id="Node000005" class="node">
<title>Node5</title>
<g id="a_Node000005"><a xlink:title=" ">
<polygon fill="#e0e0e0" stroke="#999999" points="2200.5,-19 2129.5,-19 2129.5,0 2200.5,0 2200.5,-19"/>
<text text-anchor="middle" x="2165" y="-7" font-family="Helvetica,sans-Serif" font-size="10.00">wrl/client.h</text>
</a>
</g>
</g>
<!-- Node2&#45;&gt;Node5 -->
<g id="edge4_Node000002_Node000005" class="edge">
<title>Node2&#45;&gt;Node5</title>
<g id="a_edge4_Node000002_Node000005"><a xlink:title=" ">
<path fill="none" stroke="#63b8ff" d="M1591.8,-61.36C1694.98,-57 1920.21,-45.3 2118.99,-19.13"/>
<polygon fill="#63b8ff" stroke="#63b8ff" points="2119.59,-22.59 2129.04,-17.8 2118.66,-15.65 2119.59,-22.59"/>
</a>
</g>
</g>
<!-- Node6 -->
<g id="Node000006" class="node">
<title>Node6</title>
<g id="a_Node000006"><a xlink:title=" ">
<polygon fill="#e0e0e0" stroke="#999999" points="2269,-19 2219,-19 2219,0 2269,0 2269,-19"/>
<text text-anchor="middle" x="2244" y="-7" font-family="Helvetica,sans-Serif" font-size="10.00">cstdint</text>
</a>
</g>
</g>
<!-- Node2&#45;&gt;Node6 -->
<g id="edge5_Node000002_Node000006" class="edge">
<title>Node2&#45;&gt;Node6</title>
<g id="a_edge5_Node000002_Node000006"><a xlink:title=" ">
<path fill="none" stroke="#63b8ff" d="M1591.83,-63.18C1706.78,-61.79 1975.14,-54.79 2208.81,-18.89"/>
<polygon fill="#63b8ff" stroke="#63b8ff" points="2209.51,-22.32 2218.85,-17.32 2208.43,-15.4 2209.51,-22.32"/>
</a>
</g>
</g>
<!-- Node7 -->
<g id="Node000007" class="node">
<title>Node7</title>
<g id="a_Node000007"><a xlink:title=" ">
<polygon fill="#e0e0e0" stroke="#999999" points="2347,-19 2287,-19 2287,0 2347,0 2347,-19"/>
<text text-anchor="middle" x="2317" y="-7" font-family="Helvetica,sans-Serif" font-size="10.00">iostream</text>
</a>
</g>
</g>
<!-- Node2&#45;&gt;Node7 -->
<g id="edge6_Node000002_Node000007" class="edge">
<title>Node2&#45;&gt;Node7</title>
<g id="a_edge6_Node000002_Node000007"><a xlink:title=" ">
<path fill="none" stroke="#63b8ff" d="M1591.68,-63.09C1714.78,-61.55 2015.81,-54.32 2276.8,-18.93"/>
<polygon fill="#63b8ff" stroke="#63b8ff" points="2277.42,-22.38 2286.85,-17.55 2276.47,-15.45 2277.42,-22.38"/>
</a>
</g>
</g>
<!-- Node8 -->
<g id="Node000008" class="node">
<title>Node8</title>
<g id="a_Node000008"><a xlink:title=" ">
<polygon fill="#e0e0e0" stroke="#999999" points="2418.5,-19 2365.5,-19 2365.5,0 2418.5,0 2418.5,-19"/>
<text text-anchor="middle" x="2392" y="-7" font-family="Helvetica,sans-Serif" font-size="10.00">string.h</text>
</a>
</g>
</g>
<!-- Node2&#45;&gt;Node8 -->
<g id="edge7_Node000002_Node000008" class="edge">
<title>Node2&#45;&gt;Node8</title>
<g id="a_edge7_Node000002_Node000008"><a xlink:title=" ">
<path fill="none" stroke="#63b8ff" d="M1591.58,-63.88C1723.78,-64.03 2063.22,-60.13 2355.43,-18.77"/>
<polygon fill="#63b8ff" stroke="#63b8ff" points="2355.96,-22.23 2365.36,-17.35 2354.97,-15.3 2355.96,-22.23"/>
</a>
</g>
</g>
<!-- Node9 -->
<g id="Node000009" class="node">
<title>Node9</title>
<g id="a_Node000009"><a xlink:title=" ">
<polygon fill="#e0e0e0" stroke="#999999" points="2481,-19 2437,-19 2437,0 2481,0 2481,-19"/>
<text text-anchor="middle" x="2459" y="-7" font-family="Helvetica,sans-Serif" font-size="10.00">string</text>
</a>
</g>
</g>
<!-- Node2&#45;&gt;Node9 -->
<g id="edge8_Node000002_Node000009" class="edge">
<title>Node2&#45;&gt;Node9</title>
<g id="a_edge8_Node000002_Node000009"><a xlink:title=" ">
<path fill="none" stroke="#63b8ff" d="M1591.57,-62.29C1758.29,-58.48 2246.73,-45.47 2426.65,-18.79"/>
<polygon fill="#63b8ff" stroke="#63b8ff" points="2427.43,-22.21 2436.78,-17.22 2426.36,-15.29 2427.43,-22.21"/>
</a>
</g>
</g>
<!-- Node10 -->
<g id="Node000010" class="node">
<title>Node10</title>
<g id="a_Node000010"><a xlink:title=" ">
<polygon fill="#e0e0e0" stroke="#999999" points="2546.5,-19 2499.5,-19 2499.5,0 2546.5,0 2546.5,-19"/>
<text text-anchor="middle" x="2523" y="-7" font-family="Helvetica,sans-Serif" font-size="10.00">vector</text>
</a>
</g>
</g>
<!-- Node2&#45;&gt;Node10 -->
<g id="edge9_Node000002_Node000010" class="edge">
<title>Node2&#45;&gt;Node10</title>
<g id="a_edge9_Node000002_Node000010"><a xlink:title=" ">
<path fill="none" stroke="#63b8ff" d="M1591.67,-62.39C1766.39,-58.72 2296.03,-45.78 2489.28,-18.69"/>
<polygon fill="#63b8ff" stroke="#63b8ff" points="2489.94,-22.13 2499.33,-17.22 2488.93,-15.2 2489.94,-22.13"/>
</a>
</g>
</g>
<!-- Node11 -->
<g id="Node000011" class="node">
<title>Node11</title>
<g id="a_Node000011"><a xlink:title=" ">
<polygon fill="#e0e0e0" stroke="#999999" points="2611.5,-19 2564.5,-19 2564.5,0 2611.5,0 2611.5,-19"/>
<text text-anchor="middle" x="2588" y="-7" font-family="Helvetica,sans-Serif" font-size="10.00">deque</text>
</a>
</g>
</g>
<!-- Node2&#45;&gt;Node11 -->
<g id="edge10_Node000002_Node000011" class="edge">
<title>Node2&#45;&gt;Node11</title>
<g id="a_edge10_Node000002_Node000011"><a xlink:title=" ">
<path fill="none" stroke="#63b8ff" d="M1591.64,-62.64C1774.44,-59.62 2348.3,-48.14 2554.24,-18.89"/>
<polygon fill="#63b8ff" stroke="#63b8ff" points="2554.98,-22.32 2564.35,-17.39 2553.95,-15.39 2554.98,-22.32"/>
</a>
</g>
</g>
<!-- Node12 -->
<g id="Node000012" class="node">
<title>Node12</title>
<g id="a_Node000012"><a xlink:title=" ">
<polygon fill="#e0e0e0" stroke="#999999" points="2722.5,-19 2629.5,-19 2629.5,0 2722.5,0 2722.5,-19"/>
<text text-anchor="middle" x="2676" y="-7" font-family="Helvetica,sans-Serif" font-size="10.00">unordered_map</text>
</a>
</g>
</g>
<!-- Node2&#45;&gt;Node12 -->
<g id="edge11_Node000002_Node000012" class="edge">
<title>Node2&#45;&gt;Node12</title>
<g id="a_edge11_Node000002_Node000012"><a xlink:title=" ">
<path fill="none" stroke="#63b8ff" d="M1591.68,-63.42C1751.69,-62.71 2220.61,-57.34 2619.24,-19.06"/>
<polygon fill="#63b8ff" stroke="#63b8ff" points="2619.62,-22.54 2629.24,-18.09 2618.95,-15.57 2619.62,-22.54"/>
</a>
</g>
</g>
<!-- Node13 -->
<g id="Node000013" class="node">
<title>Node13</title>
<g id="a_Node000013"><a xlink:title=" ">
<polygon fill="#e0e0e0" stroke="#999999" points="38,-19 0,-19 0,0 38,0 38,-19"/>
<text text-anchor="middle" x="19" y="-7" font-family="Helvetica,sans-Serif" font-size="10.00">map</text>
</a>
</g>
</g>
<!-- Node2&#45;&gt;Node13 -->
<g id="edge12_Node000002_Node000013" class="edge">
<title>Node2&#45;&gt;Node13</title>
<g id="a_edge12_Node000002_Node000013"><a xlink:title=" ">
<path fill="none" stroke="#63b8ff" d="M1478.21,-63.81C1243.86,-64.77 350.49,-65.35 48.19,-18.64"/>
<polygon fill="#63b8ff" stroke="#63b8ff" points="48.55,-15.16 38.12,-17.03 47.44,-22.07 48.55,-15.16"/>
</a>
</g>
</g>
<!-- Node14 -->
<g id="Node000014" class="node">
<title>Node14</title>
<g id="a_Node000014"><a xlink:title=" ">
<polygon fill="#e0e0e0" stroke="#999999" points="114,-19 56,-19 56,0 114,0 114,-19"/>
<text text-anchor="middle" x="85" y="-7" font-family="Helvetica,sans-Serif" font-size="10.00">memory</text>
</a>
</g>
</g>
<!-- Node2&#45;&gt;Node14 -->
<g id="edge13_Node000002_Node000014" class="edge">
<title>Node2&#45;&gt;Node14</title>
<g id="a_edge13_Node000002_Node000014"><a xlink:title=" ">
<path fill="none" stroke="#63b8ff" d="M1478.11,-63.14C1251.51,-61.48 411.87,-53.2 124.35,-18.87"/>
<polygon fill="#63b8ff" stroke="#63b8ff" points="124.72,-15.39 114.36,-17.64 123.86,-22.34 124.72,-15.39"/>
</a>
</g>
</g>
<!-- Node15 -->
<g id="Node000015" class="node">
<title>Node15</title>
<g id="a_Node000015"><a xlink:title=" ">
<polygon fill="#e0e0e0" stroke="#999999" points="3005,-19 2941,-19 2941,0 3005,0 3005,-19"/>
<text text-anchor="middle" x="2973" y="-7" font-family="Helvetica,sans-Serif" font-size="10.00">algorithm</text>
</a>
</g>
</g>
<!-- Node2&#45;&gt;Node15 -->
<g id="edge14_Node000002_Node000015" class="edge">
<title>Node2&#45;&gt;Node15</title>
<g id="a_edge14_Node000002_Node000015"><a xlink:title=" ">
<path fill="none" stroke="#63b8ff" d="M1591.65,-63C1816.25,-60.82 2645.3,-50.83 2930.53,-18.9"/>
<polygon fill="#63b8ff" stroke="#63b8ff" points="2931.33,-22.34 2940.86,-17.71 2930.52,-15.38 2931.33,-22.34"/>
</a>
</g>
</g>
<!-- Node16 -->
<g id="Node000016" class="node">
<title>Node16</title>
<g id="a_Node000016"><a xlink:title=" ">
<polygon fill="#e0e0e0" stroke="#999999" points="197.5,-19 132.5,-19 132.5,0 197.5,0 197.5,-19"/>
<text text-anchor="middle" x="165" y="-7" font-family="Helvetica,sans-Serif" font-size="10.00">functional</text>
</a>
</g>
</g>
<!-- Node2&#45;&gt;Node16 -->
<g id="edge15_Node000002_Node000016" class="edge">
<title>Node2&#45;&gt;Node16</title>
<g id="a_edge15_Node000002_Node000016"><a xlink:title=" ">
<path fill="none" stroke="#63b8ff" d="M1478.18,-62.85C1260.54,-60.19 479.08,-48.8 208.13,-18.87"/>
<polygon fill="#63b8ff" stroke="#63b8ff" points="208.26,-15.36 197.93,-17.7 207.47,-22.31 208.26,-15.36"/>
</a>
</g>
</g>
<!-- Node17 -->
<g id="Node000017" class="node">
<title>Node17</title>
<g id="a_Node000017"><a xlink:title=" ">
<polygon fill="#e0e0e0" stroke="#999999" points="266,-19 216,-19 216,0 266,0 266,-19"/>
<text text-anchor="middle" x="241" y="-7" font-family="Helvetica,sans-Serif" font-size="10.00">chrono</text>
</a>
</g>
</g>
<!-- Node2&#45;&gt;Node17 -->
<g id="edge16_Node000002_Node000017" class="edge">
<title>Node2&#45;&gt;Node17</title>
<g id="a_edge16_Node000002_Node000017"><a xlink:title=" ">
<path fill="none" stroke="#63b8ff" d="M1478.15,-63.07C1267.66,-61.26 531.95,-52.69 276.13,-18.78"/>
<polygon fill="#63b8ff" stroke="#63b8ff" points="276.52,-15.3 266.13,-17.41 275.57,-22.24 276.52,-15.3"/>
</a>
</g>
</g>
<!-- Node18 -->
<g id="Node000018" class="node">
<title>Node18</title>
<g id="a_Node000018"><a xlink:title=" ">
<polygon fill="#e0e0e0" stroke="#999999" points="330,-19 284,-19 284,0 330,0 330,-19"/>
<text text-anchor="middle" x="307" y="-7" font-family="Helvetica,sans-Serif" font-size="10.00">cstdio</text>
</a>
</g>
</g>
<!-- Node2&#45;&gt;Node18 -->
<g id="edge17_Node000002_Node000018" class="edge">
<title>Node2&#45;&gt;Node18</title>
<g id="a_edge17_Node000002_Node000018"><a xlink:title=" ">
<path fill="none" stroke="#63b8ff" d="M1478.22,-63.06C1274.89,-61.23 582.85,-52.72 340.46,-18.81"/>
<polygon fill="#63b8ff" stroke="#63b8ff" points="340.69,-15.3 330.29,-17.33 339.69,-22.23 340.69,-15.3"/>
</a>
</g>
</g>
<!-- Node19 -->
<g id="Node000019" class="node">
<title>Node19</title>
<g id="a_Node000019"><a xlink:title=" ">
<polygon fill="#e0e0e0" stroke="#999999" points="400,-19 348,-19 348,0 400,0 400,-19"/>
<text text-anchor="middle" x="374" y="-7" font-family="Helvetica,sans-Serif" font-size="10.00">cassert</text>
</a>
</g>
</g>
<!-- Node2&#45;&gt;Node19 -->
<g id="edge18_Node000002_Node000019" class="edge">
<title>Node2&#45;&gt;Node19</title>
<g id="a_edge18_Node000002_Node000019"><a xlink:title=" ">
<path fill="none" stroke="#63b8ff" d="M1478.17,-62.75C1282.82,-59.93 638.76,-48.68 410.49,-18.86"/>
<polygon fill="#63b8ff" stroke="#63b8ff" points="410.65,-15.35 400.27,-17.47 409.7,-22.28 410.65,-15.35"/>
</a>
</g>
</g>
<!-- Node20 -->
<g id="Node000020" class="node">
<title>Node20</title>
<g id="a_Node000020"><a xlink:title=" ">
<polygon fill="#e0e0e0" stroke="#999999" points="483.5,-19 418.5,-19 418.5,0 483.5,0 483.5,-19"/>
<text text-anchor="middle" x="451" y="-7" font-family="Helvetica,sans-Serif" font-size="10.00">typeindex</text>
</a>
</g>
</g>
<!-- Node2&#45;&gt;Node20 -->
<g id="edge19_Node000002_Node000020" class="edge">
<title>Node2&#45;&gt;Node20</title>
<g id="a_edge19_Node000002_Node000020"><a xlink:title=" ">
<path fill="none" stroke="#63b8ff" d="M1478.27,-64.2C1322.46,-65.44 874.82,-64.54 494.05,-18.9"/>
<polygon fill="#63b8ff" stroke="#63b8ff" points="494.28,-15.4 483.94,-17.67 493.44,-22.35 494.28,-15.4"/>
</a>
</g>
</g>
<!-- Node21 -->
<g id="Node000021" class="node">
<title>Node21</title>
<g id="a_Node000021"><a xlink:title=" ">
<polygon fill="#e0e0e0" stroke="#999999" points="570,-19 502,-19 502,0 570,0 570,-19"/>
<text text-anchor="middle" x="536" y="-7" font-family="Helvetica,sans-Serif" font-size="10.00">filesystem</text>
</a>
</g>
</g>
<!-- Node2&#45;&gt;Node21 -->
<g id="edge20_Node000002_Node000021" class="edge">
<title>Node2&#45;&gt;Node21</title>
<g id="a_edge20_Node000002_Node000021"><a xlink:title=" ">
<path fill="none" stroke="#63b8ff" d="M1478.45,-63.79C1331.67,-63.93 926.39,-60.3 580.16,-18.94"/>
<polygon fill="#63b8ff" stroke="#63b8ff" points="580.54,-15.46 570.19,-17.74 579.7,-22.41 580.54,-15.46"/>
</a>
</g>
</g>
<!-- Node22 -->
<g id="Node000022" class="node">
<title>Node22</title>
<g id="a_Node000022"><a xlink:title=" ">
<polygon fill="#e0e0e0" stroke="#999999" points="620,-19 588,-19 588,0 620,0 620,-19"/>
<text text-anchor="middle" x="604" y="-7" font-family="Helvetica,sans-Serif" font-size="10.00">set</text>
</a>
</g>
</g>
<!-- Node2&#45;&gt;Node22 -->
<g id="edge21_Node000002_Node000022" class="edge">
<title>Node2&#45;&gt;Node22</title>
<g id="a_edge21_Node000002_Node000022"><a xlink:title=" ">
<path fill="none" stroke="#63b8ff" d="M1478.44,-62.78C1309.88,-60.31 811.92,-50.63 630.19,-18.59"/>
<polygon fill="#63b8ff" stroke="#63b8ff" points="630.7,-15.12 620.23,-16.74 629.43,-22 630.7,-15.12"/>
</a>
</g>
</g>
<!-- Node23 -->
<g id="Node000023" class="node">
<title>Node23</title>
<g id="a_Node000023"><a xlink:title=" ">
<polygon fill="#e0e0e0" stroke="#999999" points="693.5,-19 638.5,-19 638.5,0 693.5,0 693.5,-19"/>
<text text-anchor="middle" x="666" y="-7" font-family="Helvetica,sans-Serif" font-size="10.00">fstream</text>
</a>
</g>
</g>
<!-- Node2&#45;&gt;Node23 -->
<g id="edge22_Node000002_Node000023" class="edge">
<title>Node2&#45;&gt;Node23</title>
<g id="a_edge22_Node000002_Node000023"><a xlink:title=" ">
<path fill="none" stroke="#63b8ff" d="M1478.18,-63.82C1344.61,-63.86 1000.2,-59.76 703.86,-18.83"/>
<polygon fill="#63b8ff" stroke="#63b8ff" points="704.17,-15.34 693.78,-17.42 703.2,-22.27 704.17,-15.34"/>
</a>
</g>
</g>
<!-- Node24 -->
<g id="Node000024" class="node">
<title>Node24</title>
<g id="a_Node000024"><a xlink:title=" ">
<polygon fill="#e0e0e0" stroke="#999999" points="768,-19 712,-19 712,0 768,0 768,-19"/>
<text text-anchor="middle" x="740" y="-7" font-family="Helvetica,sans-Serif" font-size="10.00">sstream</text>
</a>
</g>
</g>
<!-- Node2&#45;&gt;Node24 -->
<g id="edge23_Node000002_Node000024" class="edge">
<title>Node2&#45;&gt;Node24</title>
<g id="a_edge23_Node000002_Node000024"><a xlink:title=" ">
<path fill="none" stroke="#63b8ff" d="M1478.1,-63.4C1353.07,-62.48 1044.96,-56.39 778.45,-18.95"/>
<polygon fill="#63b8ff" stroke="#63b8ff" points="778.58,-15.43 768.19,-17.49 777.6,-22.36 778.58,-15.43"/>
</a>
</g>
</g>
<!-- Node25 -->
<g id="Node000025" class="node">
<title>Node25</title>
<g id="a_Node000025"><a xlink:title=" ">
<polygon fill="#e0e0e0" stroke="#999999" points="834,-19 786,-19 786,0 834,0 834,-19"/>
<text text-anchor="middle" x="810" y="-7" font-family="Helvetica,sans-Serif" font-size="10.00">mutex</text>
</a>
</g>
</g>
<!-- Node2&#45;&gt;Node25 -->
<g id="edge24_Node000002_Node000025" class="edge">
<title>Node2&#45;&gt;Node25</title>
<g id="a_edge24_Node000002_Node000025"><a xlink:title=" ">
<path fill="none" stroke="#63b8ff" d="M1478.09,-63.44C1360.93,-62.55 1084.31,-56.43 844.01,-18.83"/>
<polygon fill="#63b8ff" stroke="#63b8ff" points="844.47,-15.36 834.04,-17.25 843.37,-22.27 844.47,-15.36"/>
</a>
</g>
</g>
<!-- Node26 -->
<g id="Node000026" class="node">
<title>Node26</title>
<g id="a_Node000026"><a xlink:title=" ">
<polygon fill="#e0e0e0" stroke="#999999" points="906,-19 852,-19 852,0 906,0 906,-19"/>
<text text-anchor="middle" x="879" y="-7" font-family="Helvetica,sans-Serif" font-size="10.00">random</text>
</a>
</g>
</g>
<!-- Node2&#45;&gt;Node26 -->
<g id="edge25_Node000002_Node000026" class="edge">
<title>Node2&#45;&gt;Node26</title>
<g id="a_edge25_Node000002_Node000026"><a xlink:title=" ">
<path fill="none" stroke="#63b8ff" d="M1478.24,-62.46C1370.44,-59.83 1128.59,-50.78 916.13,-18.91"/>
<polygon fill="#63b8ff" stroke="#63b8ff" points="916.45,-15.42 906.04,-17.37 915.4,-22.34 916.45,-15.42"/>
</a>
</g>
</g>
<!-- Node27 -->
<g id="Node000027" class="node">
<title>Node27</title>
<g id="a_Node000027"><a xlink:title=" ">
<polygon fill="#e0e0e0" stroke="#999999" points="972,-19 924,-19 924,0 972,0 972,-19"/>
<text text-anchor="middle" x="948" y="-7" font-family="Helvetica,sans-Serif" font-size="10.00">thread</text>
</a>
</g>
</g>
<!-- Node2&#45;&gt;Node27 -->
<g id="edge26_Node000002_Node000027" class="edge">
<title>Node2&#45;&gt;Node27</title>
<g id="a_edge26_Node000002_Node000027"><a xlink:title=" ">
<path fill="none" stroke="#63b8ff" d="M1478.38,-62.16C1379.45,-59.12 1168.67,-49.54 982.04,-18.87"/>
<polygon fill="#63b8ff" stroke="#63b8ff" points="982.49,-15.4 972.05,-17.2 981.34,-22.3 982.49,-15.4"/>
</a>
</g>
</g>
<!-- Node28 -->
<g id="Node000028" class="node">
<title>Node28</title>
<g id="a_Node000028"><a xlink:title=" ">
<polygon fill="#e0e0e0" stroke="#999999" points="1040,-19 990,-19 990,0 1040,0 1040,-19"/>
<text text-anchor="middle" x="1015" y="-7" font-family="Helvetica,sans-Serif" font-size="10.00">atomic</text>
</a>
</g>
</g>
<!-- Node2&#45;&gt;Node28 -->
<g id="edge27_Node000002_Node000028" class="edge">
<title>Node2&#45;&gt;Node28</title>
<g id="a_edge27_Node000002_Node000028"><a xlink:title=" ">
<path fill="none" stroke="#63b8ff" d="M1478.14,-61.13C1388.89,-56.79 1210.42,-45.6 1050.2,-18.94"/>
<polygon fill="#63b8ff" stroke="#63b8ff" points="1050.6,-15.46 1040.16,-17.25 1049.44,-22.36 1050.6,-15.46"/>
</a>
</g>
</g>
<!-- Node29 -->
<g id="Node000029" class="node">
<title>Node29</title>
<g id="a_Node000029"><a xlink:title=" ">
<polygon fill="#e0e0e0" stroke="#999999" points="1107.5,-19 1058.5,-19 1058.5,0 1107.5,0 1107.5,-19"/>
<text text-anchor="middle" x="1083" y="-7" font-family="Helvetica,sans-Serif" font-size="10.00">cctype</text>
</a>
</g>
</g>
<!-- Node2&#45;&gt;Node29 -->
<g id="edge28_Node000002_Node000029" class="edge">
<title>Node2&#45;&gt;Node29</title>
<g id="a_edge28_Node000002_Node000029"><a xlink:title=" ">
<path fill="none" stroke="#63b8ff" d="M1478.2,-59.97C1399.43,-54.51 1252.48,-42.33 1117.88,-18.9"/>
<polygon fill="#63b8ff" stroke="#63b8ff" points="1118.25,-15.41 1107.8,-17.12 1117.04,-22.31 1118.25,-15.41"/>
</a>
</g>
</g>
<!-- Node30 -->
<g id="Node000030" class="node">
<title>Node30</title>
<g id="a_Node000030"><a xlink:title=" ">
<polygon fill="#e0e0e0" stroke="#999999" points="1168,-19 1126,-19 1126,0 1168,0 1168,-19"/>
<text text-anchor="middle" x="1147" y="-7" font-family="Helvetica,sans-Serif" font-size="10.00">array</text>
</a>
</g>
</g>
<!-- Node2&#45;&gt;Node30 -->
<g id="edge29_Node000002_Node000030" class="edge">
<title>Node2&#45;&gt;Node30</title>
<g id="a_edge29_Node000002_Node000030"><a xlink:title=" ">
<path fill="none" stroke="#63b8ff" d="M1478.45,-59.15C1409.61,-53.27 1289.71,-41.1 1178.27,-18.97"/>
<polygon fill="#63b8ff" stroke="#63b8ff" points="1178.7,-15.49 1168.21,-16.94 1177.32,-22.35 1178.7,-15.49"/>
</a>
</g>
</g>
<!-- Node31 -->
<g id="Node000031" class="node">
<title>Node31</title>
<g id="a_Node000031"><a xlink:title=" ">
<polygon fill="#e0e0e0" stroke="#999999" points="1255.5,-19 1186.5,-19 1186.5,0 1255.5,0 1255.5,-19"/>
<text text-anchor="middle" x="1221" y="-7" font-family="Helvetica,sans-Serif" font-size="10.00">type_traits</text>
</a>
</g>
</g>
<!-- Node2&#45;&gt;Node31 -->
<g id="edge30_Node000002_Node000031" class="edge">
<title>Node2&#45;&gt;Node31</title>
<g id="a_edge30_Node000002_Node000031"><a xlink:title=" ">
<path fill="none" stroke="#63b8ff" d="M1480.62,-54.99C1428.18,-46.68 1346.29,-33.43 1265.43,-19.03"/>
<polygon fill="#63b8ff" stroke="#63b8ff" points="1266.03,-15.59 1255.57,-17.27 1264.8,-22.48 1266.03,-15.59"/>
</a>
</g>
</g>
<!-- Node32 -->
<g id="Node000032" class="node">
<title>Node32</title>
<g id="a_Node000032"><a xlink:title=" ">
<polygon fill="#e0e0e0" stroke="#999999" points="1318,-19 1274,-19 1274,0 1318,0 1318,-19"/>
<text text-anchor="middle" x="1296" y="-7" font-family="Helvetica,sans-Serif" font-size="10.00">cfloat</text>
</a>
</g>
</g>
<!-- Node2&#45;&gt;Node32 -->
<g id="edge31_Node000002_Node000032" class="edge">
<title>Node2&#45;&gt;Node32</title>
<g id="a_edge31_Node000002_Node000032"><a xlink:title=" ">
<path fill="none" stroke="#63b8ff" d="M1491.41,-54.93C1451.36,-46.88 1390.12,-34.15 1328.24,-19.2"/>
<polygon fill="#63b8ff" stroke="#63b8ff" points="1328.86,-15.75 1318.31,-16.78 1327.2,-22.55 1328.86,-15.75"/>
</a>
</g>
</g>
<!-- Node33 -->
<g id="Node000033" class="node">
<title>Node33</title>
<g id="a_Node000033"><a xlink:title=" ">
<polygon fill="#e0e0e0" stroke="#999999" points="3199,-19 3089,-19 3089,0 3199,0 3199,-19"/>
<text text-anchor="middle" x="3144" y="-7" font-family="Helvetica,sans-Serif" font-size="10.00">nlohmann/json.hpp</text>
</a>
</g>
</g>
<!-- Node2&#45;&gt;Node33 -->
<g id="edge32_Node000002_Node000033" class="edge">
<title>Node2&#45;&gt;Node33</title>
<g id="a_edge32_Node000002_Node000033"><a xlink:title=" ">
<path fill="none" stroke="#63b8ff" d="M1591.58,-63.98C1792.67,-65.22 2491.66,-65.74 3078.52,-19.02"/>
<polygon fill="#63b8ff" stroke="#63b8ff" points="3079.19,-22.48 3088.88,-18.19 3078.63,-15.5 3079.19,-22.48"/>
</a>
</g>
</g>
<!-- Node34 -->
<g id="Node000034" class="node">
<title>Node34</title>
<g id="a_Node000034"><a xlink:title=" ">
<polygon fill="#e0e0e0" stroke="#999999" points="1392,-19 1336,-19 1336,0 1392,0 1392,-19"/>
<text text-anchor="middle" x="1364" y="-7" font-family="Helvetica,sans-Serif" font-size="10.00">d3d12.h</text>
</a>
</g>
</g>
<!-- Node2&#45;&gt;Node34 -->
<g id="edge33_Node000002_Node000034" class="edge">
<title>Node2&#45;&gt;Node34</title>
<g id="a_edge33_Node000002_Node000034"><a xlink:title=" ">
<path fill="none" stroke="#63b8ff" d="M1507.53,-54.98C1478.82,-46.09 1433.58,-32.07 1401.58,-22.15"/>
<polygon fill="#63b8ff" stroke="#63b8ff" points="1402.28,-18.7 1391.69,-19.08 1400.2,-25.39 1402.28,-18.7"/>
</a>
</g>
</g>
<!-- Node35 -->
<g id="Node000035" class="node">
<title>Node35</title>
<g id="a_Node000035"><a xlink:title=" ">
<polygon fill="#e0e0e0" stroke="#999999" points="1474,-19 1410,-19 1410,0 1474,0 1474,-19"/>
<text text-anchor="middle" x="1442" y="-7" font-family="Helvetica,sans-Serif" font-size="10.00">dxgi1_6.h</text>
</a>
</g>
</g>
<!-- Node2&#45;&gt;Node35 -->
<g id="edge34_Node000002_Node000035" class="edge">
<title>Node2&#45;&gt;Node35</title>
<g id="a_edge34_Node000002_Node000035"><a xlink:title=" ">
<path fill="none" stroke="#63b8ff" d="M1520.06,-54.98C1505.5,-46.69 1483.13,-33.94 1466.07,-24.22"/>
<polygon fill="#63b8ff" stroke="#63b8ff" points="1467.64,-21.08 1457.21,-19.17 1464.17,-27.16 1467.64,-21.08"/>
</a>
</g>
</g>
<!-- Node36 -->
<g id="Node000036" class="node">
<title>Node36</title>
<g id="a_Node000036"><a xlink:title=" ">
<polygon fill="#e0e0e0" stroke="#999999" points="1578,-19 1492,-19 1492,0 1578,0 1578,-19"/>
<text text-anchor="middle" x="1535" y="-7" font-family="Helvetica,sans-Serif" font-size="10.00">d3dcompiler.h</text>
</a>
</g>
</g>
<!-- Node2&#45;&gt;Node36 -->
<g id="edge35_Node000002_Node000036" class="edge">
<title>Node2&#45;&gt;Node36</title>
<g id="a_edge35_Node000002_Node000036"><a xlink:title=" ">
<path fill="none" stroke="#63b8ff" d="M1535,-54.75C1535,-47.8 1535,-37.85 1535,-29.13"/>
<polygon fill="#63b8ff" stroke="#63b8ff" points="1538.5,-29.09 1535,-19.09 1531.5,-29.09 1538.5,-29.09"/>
</a>
</g>
</g>
<!-- Node37 -->
<g id="Node000037" class="node">
<title>Node37</title>
<g id="a_Node000037"><a xlink:title=" ">
<polygon fill="#e0e0e0" stroke="#999999" points="2923,-19 2837,-19 2837,0 2923,0 2923,-19"/>
<text text-anchor="middle" x="2880" y="-7" font-family="Helvetica,sans-Serif" font-size="10.00">DirectXMath.h</text>
</a>
</g>
</g>
<!-- Node2&#45;&gt;Node37 -->
<g id="edge36_Node000002_Node000037" class="edge">
<title>Node2&#45;&gt;Node37</title>
<g id="a_edge36_Node000002_Node000037"><a xlink:title=" ">
<path fill="none" stroke="#63b8ff" d="M1591.77,-62.51C1805.49,-58.64 2562.49,-43.56 2826.61,-18.97"/>
<polygon fill="#63b8ff" stroke="#63b8ff" points="2827.31,-22.42 2836.93,-17.98 2826.64,-15.45 2827.31,-22.42"/>
</a>
</g>
</g>
<!-- Node38 -->
<g id="Node000038" class="node">
<title>Node38</title>
<g id="a_Node000038"><a xlink:title=" ">
<polygon fill="#e0e0e0" stroke="#999999" points="1713.5,-19 1596.5,-19 1596.5,0 1713.5,0 1713.5,-19"/>
<text text-anchor="middle" x="1655" y="-7" font-family="Helvetica,sans-Serif" font-size="10.00">assimp/Importer.hpp</text>
</a>
</g>
</g>
<!-- Node2&#45;&gt;Node38 -->
<g id="edge37_Node000002_Node000038" class="edge">
<title>Node2&#45;&gt;Node38</title>
<g id="a_edge37_Node000002_Node000038"><a xlink:title=" ">
<path fill="none" stroke="#63b8ff" d="M1554.28,-54.98C1573.67,-46.42 1603.81,-33.11 1626.07,-23.28"/>
<polygon fill="#63b8ff" stroke="#63b8ff" points="1627.64,-26.41 1635.37,-19.17 1624.81,-20.01 1627.64,-26.41"/>
</a>
</g>
</g>
<!-- Node39 -->
<g id="Node000039" class="node">
<title>Node39</title>
<g id="a_Node000039"><a xlink:title=" ">
<polygon fill="#e0e0e0" stroke="#999999" points="1824,-19 1732,-19 1732,0 1824,0 1824,-19"/>
<text text-anchor="middle" x="1778" y="-7" font-family="Helvetica,sans-Serif" font-size="10.00">assimp/scene.h</text>
</a>
</g>
</g>
<!-- Node2&#45;&gt;Node39 -->
<g id="edge38_Node000002_Node000039" class="edge">
<title>Node2&#45;&gt;Node39</title>
<g id="a_edge38_Node000002_Node000039"><a xlink:title=" ">
<path fill="none" stroke="#63b8ff" d="M1574.04,-54.98C1616.08,-45.82 1683.04,-31.21 1728.68,-21.26"/>
<polygon fill="#63b8ff" stroke="#63b8ff" points="1729.63,-24.63 1738.65,-19.08 1728.14,-17.79 1729.63,-24.63"/>
</a>
</g>
</g>
<!-- Node40 -->
<g id="Node000040" class="node">
<title>Node40</title>
<g id="a_Node000040"><a xlink:title=" ">
<polygon fill="#e0e0e0" stroke="#999999" points="1964,-19 1842,-19 1842,0 1964,0 1964,-19"/>
<text text-anchor="middle" x="1903" y="-7" font-family="Helvetica,sans-Serif" font-size="10.00">assimp/postprocess.h</text>
</a>
</g>
</g>
<!-- Node2&#45;&gt;Node40 -->
<g id="edge39_Node000002_Node000040" class="edge">
<title>Node2&#45;&gt;Node40</title>
<g id="a_edge39_Node000002_Node000040"><a xlink:title=" ">
<path fill="none" stroke="#63b8ff" d="M1591.69,-55.33C1656.84,-45.95 1763.74,-30.56 1833.75,-20.47"/>
<polygon fill="#63b8ff" stroke="#63b8ff" points="1834.4,-23.92 1843.8,-19.03 1833.41,-16.99 1834.4,-23.92"/>
</a>
</g>
</g>
<!-- Node41 -->
<g id="Node000041" class="node">
<title>Node41</title>
<g id="a_Node000041"><a xlink:href="Logger_8h.html" target="_top" xlink:title="デバッグログ出力システム">
<polygon fill="white" stroke="#666666" points="2819,-19 2741,-19 2741,0 2819,0 2819,-19"/>
<text text-anchor="middle" x="2780" y="-7" font-family="Helvetica,sans-Serif" font-size="10.00">Log/Logger.h</text>
</a>
</g>
</g>
<!-- Node2&#45;&gt;Node41 -->
<g id="edge40_Node000002_Node000041" class="edge">
<title>Node2&#45;&gt;Node41</title>
<g id="a_edge40_Node000002_Node000041"><a xlink:title=" ">
<path fill="none" stroke="#63b8ff" d="M1591.8,-62.36C1797,-58.21 2499.03,-42.88 2723,-19 2725.5,-18.73 2728.07,-18.41 2730.67,-18.06"/>
<polygon fill="#63b8ff" stroke="#63b8ff" points="2731.42,-21.48 2740.79,-16.53 2730.38,-14.56 2731.42,-21.48"/>
</a>
</g>
</g>
<!-- Node41&#45;&gt;Node2 -->
<g id="edge41_Node000041_Node000002" class="edge">
<title>Node41&#45;&gt;Node2</title>
<g id="a_edge41_Node000041_Node000002"><a xlink:title=" ">
<path fill="none" stroke="#63b8ff" d="M2740.67,-19.04C2517.29,-42.79 1820.86,-58.08 1601.68,-62.31"/>
<polygon fill="#63b8ff" stroke="#63b8ff" points="1601.54,-58.81 1591.61,-62.5 1601.67,-65.81 1601.54,-58.81"/>
</a>
</g>
</g>
<!-- Node42&#45;&gt;Node2 -->
<g id="edge43_Node000042_Node000002" class="edge">
<title>Node42&#45;&gt;Node2</title>
<g id="a_edge43_Node000042_Node000002"><a xlink:title=" ">
<path fill="none" stroke="#63b8ff" d="M2015.29,-117.82C1915.39,-106.94 1708.53,-84.4 1601.85,-72.78"/>
<polygon fill="#63b8ff" stroke="#63b8ff" points="1602.16,-69.3 1591.84,-71.69 1601.41,-76.25 1602.16,-69.3"/>
</a>
</g>
</g>
<!-- Node43 -->
<g id="Node000043" class="node">
<title>Node43</title>
<g id="a_Node000043"><a xlink:href="SpanMath_8h.html" target="_top" xlink:title="算術ライブラリ (Vector, Matrix, Quaternion)。">
<polygon fill="white" stroke="#666666" points="2944,-74 2816,-74 2816,-55 2944,-55 2944,-74"/>
<text text-anchor="middle" x="2880" y="-62" font-family="Helvetica,sans-Serif" font-size="10.00">Core/Math/SpanMath.h</text>
</a>
</g>
</g>
<!-- Node42&#45;&gt;Node43 -->
<g id="edge44_Node000042_Node000043" class="edge">
<title>Node42&#45;&gt;Node43</title>
<g id="a_edge44_Node000042_Node000043"><a xlink:title=" ">
<path fill="none" stroke="#63b8ff" d="M2128.82,-119.89C2271.61,-109.55 2645.49,-82.48 2805.55,-70.89"/>
<polygon fill="#63b8ff" stroke="#63b8ff" points="2806.06,-74.36 2815.78,-70.15 2805.55,-67.38 2806.06,-74.36"/>
</a>
</g>
</g>
<!-- Node43&#45;&gt;Node15 -->
<g id="edge47_Node000043_Node000015" class="edge">
<title>Node43&#45;&gt;Node15</title>
<g id="a_edge47_Node000043_Node000015"><a xlink:title=" ">
<path fill="none" stroke="#63b8ff" d="M2894.94,-54.98C2909.5,-46.69 2931.87,-33.94 2948.93,-24.22"/>
<polygon fill="#63b8ff" stroke="#63b8ff" points="2950.83,-27.16 2957.79,-19.17 2947.36,-21.08 2950.83,-27.16"/>
</a>
</g>
</g>
<!-- Node43&#45;&gt;Node37 -->
<g id="edge45_Node000043_Node000037" class="edge">
<title>Node43&#45;&gt;Node37</title>
<g id="a_edge45_Node000043_Node000037"><a xlink:title=" ">
<path fill="none" stroke="#63b8ff" d="M2880,-54.75C2880,-47.8 2880,-37.85 2880,-29.13"/>
<polygon fill="#63b8ff" stroke="#63b8ff" points="2883.5,-29.09 2880,-19.09 2876.5,-29.09 2883.5,-29.09"/>
</a>
</g>
</g>
<!-- Node44 -->
<g id="Node000044" class="node">
<title>Node44</title>
<g id="a_Node000044"><a xlink:title=" ">
<polygon fill="#e0e0e0" stroke="#999999" points="3070.5,-19 3023.5,-19 3023.5,0 3070.5,0 3070.5,-19"/>
<text text-anchor="middle" x="3047" y="-7" font-family="Helvetica,sans-Serif" font-size="10.00">cmath</text>
</a>
</g>
</g>
<!-- Node43&#45;&gt;Node44 -->
<g id="edge46_Node000043_Node000044" class="edge">
<title>Node43&#45;&gt;Node44</title>
<g id="a_edge46_Node000043_Node000044"><a xlink:title=" ">
<path fill="none" stroke="#63b8ff" d="M2906.83,-54.98C2935.95,-45.74 2982.48,-30.98 3013.86,-21.02"/>
<polygon fill="#63b8ff" stroke="#63b8ff" points="3015,-24.33 3023.47,-17.97 3012.88,-17.66 3015,-24.33"/>
</a>
</g>
</g>
<!-- Node45&#45;&gt;Node33 -->
<g id="edge57_Node000045_Node000033" class="edge">
<title>Node45&#45;&gt;Node33</title>
<g id="a_edge57_Node000045_Node000033"><a xlink:title=" ">
<path fill="none" stroke="#63b8ff" d="M2835.28,-181.47C2874.33,-174.03 2927.14,-161.05 2970,-140 2989.63,-130.36 2991.53,-123.15 3009,-110 3049.54,-79.47 3097.46,-44.39 3123.91,-25.11"/>
<polygon fill="#63b8ff" stroke="#63b8ff" points="3126,-27.92 3132.02,-19.2 3121.88,-22.26 3126,-27.92"/>
</a>
</g>
</g>
<!-- Node46 -->
<g id="Node000046" class="node">
<title>Node46</title>
<g id="a_Node000046"><a xlink:href="SpanAttributes_8h.html" target="_top" xlink:title="インスペクタ表示用の属性 (Attribute) 定義。">
<polygon fill="white" stroke="#666666" points="2961,-134.5 2863,-134.5 2863,-115.5 2961,-115.5 2961,-134.5"/>
<text text-anchor="middle" x="2912" y="-122.5" font-family="Helvetica,sans-Serif" font-size="10.00">SpanAttributes.h</text>
</a>
</g>
</g>
<!-- Node45&#45;&gt;Node46 -->
<g id="edge49_Node000045_Node000046" class="edge">
<title>Node45&#45;&gt;Node46</title>
<g id="a_edge49_Node000045_Node000046"><a xlink:title=" ">
<path fill="none" stroke="#63b8ff" d="M2808.97,-175.95C2831.71,-164.93 2863.12,-149.7 2885.27,-138.96"/>
<polygon fill="#63b8ff" stroke="#63b8ff" points="2886.96,-142.03 2894.43,-134.52 2883.91,-135.73 2886.96,-142.03"/>
</a>
</g>
</g>
<!-- Node47 -->
<g id="Node000047" class="node">
<title>Node47</title>
<g id="a_Node000047"><a xlink:href="ComponentRegistry_8h.html" target="_top" xlink:title="コンポーネントのメタデータ管理 (リフレクション)。">
<polygon fill="#fff0f0" stroke="red" points="3138.5,-134.5 3017.5,-134.5 3017.5,-115.5 3138.5,-115.5 3138.5,-134.5"/>
<text text-anchor="middle" x="3078" y="-122.5" font-family="Helvetica,sans-Serif" font-size="10.00">ComponentRegistry.h</text>
</a>
</g>
</g>
<!-- Node45&#45;&gt;Node47 -->
<g id="edge50_Node000045_Node000047" class="edge">
<title>Node45&#45;&gt;Node47</title>
<g id="a_edge50_Node000045_Node000047"><a xlink:title=" ">
<path fill="none" stroke="#63b8ff" d="M2835.01,-178.19C2890.3,-166.31 2974.79,-148.17 3028.17,-136.7"/>
<polygon fill="#63b8ff" stroke="#63b8ff" points="3029.05,-140.09 3038.09,-134.57 3027.58,-133.25 3029.05,-140.09"/>
</a>
</g>
</g>
<!-- Node57 -->
<g id="Node000057" class="node">
<title>Node57</title>
<g id="a_Node000057"><a xlink:href="ImGuiUI_8h.html" target="_top" xlink:title="ImGui用のカスタムウィジェットヘルパー。">
<polygon fill="#fff0f0" stroke="red" points="2844.5,-134.5 2715.5,-134.5 2715.5,-115.5 2844.5,-115.5 2844.5,-134.5"/>
<text text-anchor="middle" x="2780" y="-122.5" font-family="Helvetica,sans-Serif" font-size="10.00">Editor/ImGui/ImGuiUI.h</text>
</a>
</g>
</g>
<!-- Node45&#45;&gt;Node57 -->
<g id="edge51_Node000045_Node000057" class="edge">
<title>Node45&#45;&gt;Node57</title>
<g id="a_edge51_Node000045_Node000057"><a xlink:title=" ">
<path fill="none" stroke="#63b8ff" d="M2780,-175.8C2780,-166.7 2780,-154.79 2780,-144.9"/>
<polygon fill="#63b8ff" stroke="#63b8ff" points="2783.5,-144.84 2780,-134.84 2776.5,-144.84 2783.5,-144.84"/>
</a>
</g>
</g>
<!-- Node60 -->
<g id="Node000060" class="node">
<title>Node60</title>
<g id="a_Node000060"><a xlink:href="FixedString_8h.html" target="_top" xlink:title="固定長文字列ラッパー (POD)">
<polygon fill="#fff0f0" stroke="red" points="2488.5,-134.5 2327.5,-134.5 2327.5,-115.5 2488.5,-115.5 2488.5,-134.5"/>
<text text-anchor="middle" x="2408" y="-122.5" font-family="Helvetica,sans-Serif" font-size="10.00">Core/Containers/FixedString.h</text>
</a>
</g>
</g>
<!-- Node45&#45;&gt;Node60 -->
<g id="edge54_Node000045_Node000060" class="edge">
<title>Node45&#45;&gt;Node60</title>
<g id="a_edge54_Node000045_Node000060"><a xlink:title=" ">
<path fill="none" stroke="#63b8ff" d="M2724.71,-180.49C2655.84,-168.64 2538.63,-148.47 2467.75,-136.28"/>
<polygon fill="#63b8ff" stroke="#63b8ff" points="2468.09,-132.79 2457.64,-134.54 2466.9,-139.68 2468.09,-132.79"/>
</a>
</g>
</g>
<!-- Node61 -->
<g id="Node000061" class="node">
<title>Node61</title>
<g id="a_Node000061"><a xlink:title=" ">
<polygon fill="#e0e0e0" stroke="#999999" points="2697.5,-134.5 2596.5,-134.5 2596.5,-115.5 2697.5,-115.5 2697.5,-134.5"/>
<text text-anchor="middle" x="2647" y="-122.5" font-family="Helvetica,sans-Serif" font-size="10.00">magic_enum.hpp</text>
</a>
</g>
</g>
<!-- Node45&#45;&gt;Node61 -->
<g id="edge56_Node000045_Node000061" class="edge">
<title>Node45&#45;&gt;Node61</title>
<g id="a_edge56_Node000045_Node000061"><a xlink:title=" ">
<path fill="none" stroke="#63b8ff" d="M2750.81,-175.95C2727.9,-164.93 2696.25,-149.7 2673.93,-138.96"/>
<polygon fill="#63b8ff" stroke="#63b8ff" points="2675.23,-135.7 2664.7,-134.52 2672.19,-142.01 2675.23,-135.7"/>
</a>
</g>
</g>
<!-- Node57&#45;&gt;Node41 -->
<g id="edge53_Node000057_Node000041" class="edge">
<title>Node57&#45;&gt;Node41</title>
<g id="a_edge53_Node000057_Node000041"><a xlink:title=" ">
<path fill="none" stroke="#63b8ff" d="M2780,-115.47C2780,-97.23 2780,-54.07 2780,-29.14"/>
<polygon fill="#63b8ff" stroke="#63b8ff" points="2783.5,-29.13 2780,-19.13 2776.5,-29.13 2783.5,-29.13"/>
</a>
</g>
</g>
<!-- Node57&#45;&gt;Node43 -->
<g id="edge52_Node000057_Node000043" class="edge">
<title>Node57&#45;&gt;Node43</title>
<g id="a_edge52_Node000057_Node000043"><a xlink:title=" ">
<path fill="none" stroke="#63b8ff" d="M2794.76,-115.37C2811,-105.86 2837.35,-90.45 2856.46,-79.27"/>
<polygon fill="#63b8ff" stroke="#63b8ff" points="2858.32,-82.24 2865.18,-74.17 2854.79,-76.2 2858.32,-82.24"/>
</a>
</g>
</g>
<!-- Node60&#45;&gt;Node2 -->
<g id="edge55_Node000060_Node000002" class="edge">
<title>Node60&#45;&gt;Node2</title>
<g id="a_edge55_Node000060_Node000002"><a xlink:title=" ">
<path fill="none" stroke="#63b8ff" d="M2327.44,-118.6C2156.33,-107.14 1759.47,-80.54 1601.55,-69.96"/>
<polygon fill="#63b8ff" stroke="#63b8ff" points="1601.71,-66.46 1591.5,-69.29 1601.25,-73.45 1601.71,-66.46"/>
</a>
</g>
</g>
</g>
</svg>
