<?xml version="1.0" encoding="UTF-8" standalone="no"?>
<!DOCTYPE svg PUBLIC "-//W3C//DTD SVG 1.1//EN"
 "http://www.w3.org/Graphics/SVG/1.1/DTD/svg11.dtd">
<!-- Generated by graphviz version 2.43.0 (0)
 -->
<!-- Title: Engine/Source/Runtime/Graphics/ModelLoader.h Pages: 1 -->
<svg width="1292pt" height="247pt"
 viewBox="0.00 0.00 1291.50 247.00" xmlns="http://www.w3.org/2000/svg" xmlns:xlink="http://www.w3.org/1999/xlink">
<g id="graph0" class="graph" transform="scale(1 1) rotate(0) translate(4 243)">
<title>Engine/Source/Runtime/Graphics/ModelLoader.h</title>
<!-- Node1 -->
<g id="Node000001" class="node">
<title>Node1</title>
<g id="a_Node000001"><a xlink:title="3Dモデルファイル(.fbx, .obj)のインポート処理。">
<polygon fill="#999999" stroke="#666666" points="695,-239 558,-239 558,-209 695,-209 695,-239"/>
<text text-anchor="start" x="566" y="-227" font-family="Helvetica,sans-Serif" font-size="10.00">Engine/Source/Runtime</text>
<text text-anchor="middle" x="626.5" y="-216" font-family="Helvetica,sans-Serif" font-size="10.00">/Graphics/ModelLoader.h</text>
</a>
</g>
</g>
<!-- Node2 -->
<g id="Node000002" class="node">
<title>Node2</title>
<g id="a_Node000002"><a xlink:href="ModelLoader_8cpp.html" target="_top" xlink:title=" ">
<polygon fill="white" stroke="#666666" points="615.5,-173 467.5,-173 467.5,-143 615.5,-143 615.5,-173"/>
<text text-anchor="start" x="475.5" y="-161" font-family="Helvetica,sans-Serif" font-size="10.00">Engine/Source/Runtime</text>
<text text-anchor="middle" x="541.5" y="-150" font-family="Helvetica,sans-Serif" font-size="10.00">/Graphics/ModelLoader.cpp</text>
</a>
</g>
</g>
<!-- Node1&#45;&gt;Node2 -->
<g id="edge1_Node000001_Node000002" class="edge">
<title>Node1&#45;&gt;Node2</title>
<g id="a_edge1_Node000001_Node000002"><a xlink:title=" ">
<path fill="none" stroke="#63b8ff" d="M599.61,-202.75C586.83,-193.13 571.86,-181.86 560.31,-173.16"/>
<polygon fill="#63b8ff" stroke="#63b8ff" points="597.54,-205.58 607.64,-208.8 601.75,-199.99 597.54,-205.58"/>
</a>
</g>
</g>
<!-- Node3 -->
<g id="Node000003" class="node">
<title>Node3</title>
<g id="a_Node000003"><a xlink:href="SpanEngine_8h.html" target="_top" xlink:title=" ">
<polygon fill="white" stroke="#666666" points="789,-167.5 634,-167.5 634,-148.5 789,-148.5 789,-167.5"/>
<text text-anchor="middle" x="711.5" y="-155.5" font-family="Helvetica,sans-Serif" font-size="10.00">Engine/Source/SpanEngine.h</text>
</a>
</g>
</g>
<!-- Node1&#45;&gt;Node3 -->
<g id="edge2_Node000001_Node000003" class="edge">
<title>Node1&#45;&gt;Node3</title>
<g id="a_edge2_Node000001_Node000003"><a xlink:title=" ">
<path fill="none" stroke="#63b8ff" d="M653.61,-202.58C669.17,-190.87 687.9,-176.77 699.75,-167.84"/>
<polygon fill="#63b8ff" stroke="#63b8ff" points="651.25,-199.99 645.36,-208.8 655.46,-205.58 651.25,-199.99"/>
</a>
</g>
</g>
<!-- Node4 -->
<g id="Node000004" class="node">
<title>Node4</title>
<g id="a_Node000004"><a xlink:href="GuiManager_8cpp.html" target="_top" xlink:title=" ">
<polygon fill="white" stroke="#666666" points="117,-101.5 0,-101.5 0,-71.5 117,-71.5 117,-101.5"/>
<text text-anchor="start" x="8" y="-89.5" font-family="Helvetica,sans-Serif" font-size="10.00">Engine/Source/Editor</text>
<text text-anchor="middle" x="58.5" y="-78.5" font-family="Helvetica,sans-Serif" font-size="10.00">/GuiManager.cpp</text>
</a>
</g>
</g>
<!-- Node3&#45;&gt;Node4 -->
<g id="edge3_Node000003_Node000004" class="edge">
<title>Node3&#45;&gt;Node4</title>
<g id="a_edge3_Node000003_Node000004"><a xlink:title=" ">
<path fill="none" stroke="#63b8ff" d="M653.38,-146.93C643.75,-145.47 633.86,-144.09 624.5,-143 404.08,-117.35 344.99,-145.79 126.5,-107 118.64,-105.6 110.39,-103.66 102.45,-101.54"/>
<polygon fill="#63b8ff" stroke="#63b8ff" points="652.87,-150.39 663.29,-148.47 653.94,-143.47 652.87,-150.39"/>
</a>
</g>
</g>
<!-- Node5 -->
<g id="Node000005" class="node">
<title>Node5</title>
<g id="a_Node000005"><a xlink:href="HierarchyPanel_8cpp.html" target="_top" xlink:title=" ">
<polygon fill="white" stroke="#666666" points="287.5,-107 135.5,-107 135.5,-66 287.5,-66 287.5,-107"/>
<text text-anchor="start" x="143.5" y="-95" font-family="Helvetica,sans-Serif" font-size="10.00">Engine/Source/Editor</text>
<text text-anchor="start" x="143.5" y="-84" font-family="Helvetica,sans-Serif" font-size="10.00">/Panels/Hierarchy/Hierarchy</text>
<text text-anchor="middle" x="211.5" y="-73" font-family="Helvetica,sans-Serif" font-size="10.00">Panel.cpp</text>
</a>
</g>
</g>
<!-- Node3&#45;&gt;Node5 -->
<g id="edge4_Node000003_Node000005" class="edge">
<title>Node3&#45;&gt;Node5</title>
<g id="a_edge4_Node000003_Node000005"><a xlink:title=" ">
<path fill="none" stroke="#63b8ff" d="M651.03,-146.87C642.14,-145.5 633.09,-144.16 624.5,-143 479.61,-123.38 441.69,-131.2 297.5,-107 294.33,-106.47 291.1,-105.89 287.84,-105.28"/>
<polygon fill="#63b8ff" stroke="#63b8ff" points="650.54,-150.34 660.96,-148.43 651.62,-143.42 650.54,-150.34"/>
</a>
</g>
</g>
<!-- Node6 -->
<g id="Node000006" class="node">
<title>Node6</title>
<g id="a_Node000006"><a xlink:href="InspectorPanel_8cpp.html" target="_top" xlink:title=" ">
<polygon fill="white" stroke="#666666" points="453,-107 306,-107 306,-66 453,-66 453,-107"/>
<text text-anchor="start" x="314" y="-95" font-family="Helvetica,sans-Serif" font-size="10.00">Engine/Source/Editor</text>
<text text-anchor="start" x="314" y="-84" font-family="Helvetica,sans-Serif" font-size="10.00">/Panels/Inspector/Inspector</text>
<text text-anchor="middle" x="379.5" y="-73" font-family="Helvetica,sans-Serif" font-size="10.00">Panel.cpp</text>
</a>
</g>
</g>
<!-- Node3&#45;&gt;Node6 -->
<g id="edge5_Node000003_Node000006" class="edge">
<title>Node3&#45;&gt;Node6</title>
<g id="a_edge5_Node000003_Node000006"><a xlink:title=" ">
<path fill="none" stroke="#63b8ff" d="M656.83,-146.55C606.31,-136.77 529.21,-121.53 462.5,-107 459.46,-106.34 456.37,-105.65 453.24,-104.96"/>
<polygon fill="#63b8ff" stroke="#63b8ff" points="656.4,-150.03 666.88,-148.49 657.72,-143.16 656.4,-150.03"/>
</a>
</g>
</g>
<!-- Node7 -->
<g id="Node000007" class="node">
<title>Node7</title>
<g id="a_Node000007"><a xlink:href="ProjectBrowserPanel_8cpp.html" target="_top" xlink:title="ProjectBrowserPanelの実装。">
<polygon fill="white" stroke="#666666" points="611.5,-107 471.5,-107 471.5,-66 611.5,-66 611.5,-107"/>
<text text-anchor="start" x="479.5" y="-95" font-family="Helvetica,sans-Serif" font-size="10.00">Engine/Source/Editor</text>
<text text-anchor="start" x="479.5" y="-84" font-family="Helvetica,sans-Serif" font-size="10.00">/Panels/ProjectBrowser</text>
<text text-anchor="middle" x="541.5" y="-73" font-family="Helvetica,sans-Serif" font-size="10.00">/ProjectBrowserPanel.cpp</text>
</a>
</g>
</g>
<!-- Node3&#45;&gt;Node7 -->
<g id="edge6_Node000003_Node000007" class="edge">
<title>Node3&#45;&gt;Node7</title>
<g id="a_edge6_Node000003_Node000007"><a xlink:title=" ">
<path fill="none" stroke="#63b8ff" d="M681.14,-144.59C655.63,-134.16 618.73,-119.07 589.26,-107.03"/>
<polygon fill="#63b8ff" stroke="#63b8ff" points="680.07,-147.93 690.65,-148.48 682.72,-141.45 680.07,-147.93"/>
</a>
</g>
</g>
<!-- Node8 -->
<g id="Node000008" class="node">
<title>Node8</title>
<g id="a_Node000008"><a xlink:href="SceneViewPanel_8cpp.html" target="_top" xlink:title=" ">
<polygon fill="white" stroke="#666666" points="793.5,-107 629.5,-107 629.5,-66 793.5,-66 793.5,-107"/>
<text text-anchor="start" x="637.5" y="-95" font-family="Helvetica,sans-Serif" font-size="10.00">Engine/Source/Editor</text>
<text text-anchor="start" x="637.5" y="-84" font-family="Helvetica,sans-Serif" font-size="10.00">/Panels/SceneView/SceneView</text>
<text text-anchor="middle" x="711.5" y="-73" font-family="Helvetica,sans-Serif" font-size="10.00">Panel.cpp</text>
</a>
</g>
</g>
<!-- Node3&#45;&gt;Node8 -->
<g id="edge7_Node000003_Node000008" class="edge">
<title>Node3&#45;&gt;Node8</title>
<g id="a_edge7_Node000003_Node000008"><a xlink:title=" ">
<path fill="none" stroke="#63b8ff" d="M711.5,-138.38C711.5,-128.74 711.5,-116.96 711.5,-107.17"/>
<polygon fill="#63b8ff" stroke="#63b8ff" points="708,-138.48 711.5,-148.48 715,-138.48 708,-138.48"/>
</a>
</g>
</g>
<!-- Node9 -->
<g id="Node000009" class="node">
<title>Node9</title>
<g id="a_Node000009"><a xlink:href="Application_8cpp.html" target="_top" xlink:title=" ">
<polygon fill="white" stroke="#666666" points="941.5,-101.5 811.5,-101.5 811.5,-71.5 941.5,-71.5 941.5,-101.5"/>
<text text-anchor="start" x="819.5" y="-89.5" font-family="Helvetica,sans-Serif" font-size="10.00">Engine/Source/Runtime</text>
<text text-anchor="middle" x="876.5" y="-78.5" font-family="Helvetica,sans-Serif" font-size="10.00">/Application.cpp</text>
</a>
</g>
</g>
<!-- Node3&#45;&gt;Node9 -->
<g id="edge8_Node000003_Node000009" class="edge">
<title>Node3&#45;&gt;Node9</title>
<g id="a_edge8_Node000003_Node000009"><a xlink:title=" ">
<path fill="none" stroke="#63b8ff" d="M741.23,-144.48C769.96,-132.38 813.39,-114.08 843.25,-101.51"/>
<polygon fill="#63b8ff" stroke="#63b8ff" points="739.59,-141.37 731.73,-148.48 742.31,-147.82 739.59,-141.37"/>
</a>
</g>
</g>
<!-- Node10 -->
<g id="Node000010" class="node">
<title>Node10</title>
<g id="a_Node000010"><a xlink:href="AssetManager_8h.html" target="_top" xlink:title="エンジン全域のアセットライフサイクルを管理するシングルトン。">
<polygon fill="white" stroke="#666666" points="1105.5,-101.5 959.5,-101.5 959.5,-71.5 1105.5,-71.5 1105.5,-101.5"/>
<text text-anchor="start" x="967.5" y="-89.5" font-family="Helvetica,sans-Serif" font-size="10.00">Engine/Source/Runtime</text>
<text text-anchor="middle" x="1032.5" y="-78.5" font-family="Helvetica,sans-Serif" font-size="10.00">/Resource/AssetManager.h</text>
</a>
</g>
</g>
<!-- Node3&#45;&gt;Node10 -->
<g id="edge9_Node000003_Node000010" class="edge">
<title>Node3&#45;&gt;Node10</title>
<g id="a_edge9_Node000003_Node000010"><a xlink:title=" ">
<path fill="none" stroke="#63b8ff" d="M757.41,-146.36C803.93,-136.5 877.65,-121.27 941.5,-107 949.21,-105.28 957.32,-103.41 965.4,-101.54"/>
<polygon fill="#63b8ff" stroke="#63b8ff" points="756.39,-142.99 747.34,-148.5 757.85,-149.84 756.39,-142.99"/>
</a>
</g>
</g>
<!-- Node12 -->
<g id="Node000012" class="node">
<title>Node12</title>
<g id="a_Node000012"><a xlink:href="AssetSerializer_8cpp.html" target="_top" xlink:title="AssetSerializerの実装。">
<polygon fill="white" stroke="#666666" points="1283.5,-101.5 1123.5,-101.5 1123.5,-71.5 1283.5,-71.5 1283.5,-101.5"/>
<text text-anchor="start" x="1131.5" y="-89.5" font-family="Helvetica,sans-Serif" font-size="10.00">Engine/Source/Runtime</text>
<text text-anchor="middle" x="1203.5" y="-78.5" font-family="Helvetica,sans-Serif" font-size="10.00">/Resource/AssetSerializer.cpp</text>
</a>
</g>
</g>
<!-- Node3&#45;&gt;Node12 -->
<g id="edge12_Node000003_Node000012" class="edge">
<title>Node3&#45;&gt;Node12</title>
<g id="a_edge12_Node000003_Node000012"><a xlink:title=" ">
<path fill="none" stroke="#63b8ff" d="M799.08,-148.49C880.94,-139.98 1006.43,-125.5 1114.5,-107 1123.7,-105.43 1133.38,-103.54 1142.84,-101.57"/>
<polygon fill="#63b8ff" stroke="#63b8ff" points="798.66,-145.01 789.07,-149.52 799.38,-151.98 798.66,-145.01"/>
</a>
</g>
</g>
<!-- Node10&#45;&gt;Node3 -->
<g id="edge11_Node000010_Node000003" class="edge">
<title>Node10&#45;&gt;Node3</title>
<g id="a_edge11_Node000010_Node000003"><a xlink:title=" ">
<path fill="none" stroke="#63b8ff" d="M973.16,-103.9C968.55,-104.96 963.96,-106 959.5,-107 890.82,-122.35 810.72,-138.81 760.43,-148.5"/>
<polygon fill="#63b8ff" stroke="#63b8ff" points="974.28,-107.23 983.23,-101.54 972.69,-100.41 974.28,-107.23"/>
</a>
</g>
</g>
<!-- Node11 -->
<g id="Node000011" class="node">
<title>Node11</title>
<g id="a_Node000011"><a xlink:href="AssetManager_8cpp.html" target="_top" xlink:title="AssetManagerの実装。">
<polygon fill="white" stroke="#666666" points="1111,-30 954,-30 954,0 1111,0 1111,-30"/>
<text text-anchor="start" x="962" y="-18" font-family="Helvetica,sans-Serif" font-size="10.00">Engine/Source/Runtime</text>
<text text-anchor="middle" x="1032.5" y="-7" font-family="Helvetica,sans-Serif" font-size="10.00">/Resource/AssetManager.cpp</text>
</a>
</g>
</g>
<!-- Node10&#45;&gt;Node11 -->
<g id="edge10_Node000010_Node000011" class="edge">
<title>Node10&#45;&gt;Node11</title>
<g id="a_edge10_Node000010_Node000011"><a xlink:title=" ">
<path fill="none" stroke="#63b8ff" d="M1032.5,-61.25C1032.5,-50.81 1032.5,-38.99 1032.5,-30.04"/>
<polygon fill="#63b8ff" stroke="#63b8ff" points="1029,-61.44 1032.5,-71.44 1036,-61.44 1029,-61.44"/>
</a>
</g>
</g>
</g>
</svg>
