<?xml version="1.0" encoding="UTF-8" standalone="no"?>
<!DOCTYPE svg PUBLIC "-//W3C//DTD SVG 1.1//EN"
 "http://www.w3.org/Graphics/SVG/1.1/DTD/svg11.dtd">
<!-- Generated by graphviz version 2.43.0 (0)
 -->
<!-- Title: Span::ConsoleCtrlHandler Pages: 1 -->
<!--zoomable 774 -->

<svg id="main" version="1.1" xmlns="http://www.w3.org/2000/svg" xmlns:xlink="http://www.w3.org/1999/xlink" xml:space="preserve" onload="init(evt)">

<style type="text/css"><![CDATA[
.node, .edge {opacity: 0.7;}
.node.selected, .edge.selected {opacity: 1;}
.edge:hover path { stroke: red; }
.edge:hover polygon { stroke: red; fill: red; }
]]></style>

<defs>
  <circle id="rim" cx="0" cy="0" r="7"/>
  <circle id="rim2" cx="0" cy="0" r="3.5"/>
  <g id="zoomPlus">
    <use xlink:href="#rim" fill="#404040"><set attributeName="fill" to="#808080" begin="zoomplus.mouseover" end="zoomplus.mouseout"/></use>
    <path d="M-4,0h8M0,-4v8" fill="none" stroke="white" stroke-width="1.5" pointer-events="none"/>
  </g>
  <g id="zoomMin">
    <use xlink:href="#rim" fill="#404040"><set attributeName="fill" to="#808080" begin="zoomminus.mouseover" end="zoomminus.mouseout"/></use>
    <path d="M-4,0h8" fill="none" stroke="white" stroke-width="1.5" pointer-events="none"/>
  </g>
  <g id="arrowUp" transform="translate(30 24)">
    <use xlink:href="#rim"/>
    <path pointer-events="none" fill="none" stroke="white" stroke-width="1.5" d="M0,-3.0v7 M-2.5,-0.5L0,-3.0L2.5,-0.5"/>
  </g>
  <g id="arrowRight" transform="rotate(90) translate(36 -43)">
    <use xlink:href="#rim"/>
    <path pointer-events="none" fill="none" stroke="white" stroke-width="1.5" d="M0,-3.0v7 M-2.5,-0.5L0,-3.0L2.5,-0.5"/>
  </g>
  <g id="arrowDown" transform="rotate(180) translate(-30 -48)">
    <use xlink:href="#rim"/>
    <path pointer-events="none" fill="none" stroke="white" stroke-width="1.5" d="M0,-3.0v7 M-2.5,-0.5L0,-3.0L2.5,-0.5"/>
  </g>
  <g id="arrowLeft" transform="rotate(270) translate(-36 17)">
    <use xlink:href="#rim"/>
    <path pointer-events="none" fill="none" stroke="white" stroke-width="1.5" d="M0,-3.0v7 M-2.5,-0.5L0,-3.0L2.5,-0.5"/>
  </g>
  <g id="resetDef">
    <use xlink:href="#rim2" fill="#404040"><set attributeName="fill" to="#808080" begin="reset.mouseover" end="reset.mouseout"/></use>
  </g>
</defs>
<script type="application/ecmascript">
var viewWidth = 1011;
var viewHeight = 774;
var sectionId = 'dynsection-3';
</script>
<script type="application/ecmascript" xlink:href="svg.min.js"/>
<svg id="graph" class="graph">
<g id="viewport">
<title>Span::ConsoleCtrlHandler</title>
<!-- Node1 -->
<g id="Node000001" class="node">
<title>Node1</title>
<g id="a_Node000001"><a xlink:title=" ">
<polygon fill="#999999" stroke="#666666" points="1003,-372 862,-372 862,-353 1003,-353 1003,-372"/>
<text text-anchor="middle" x="932.5" y="-360" font-family="Helvetica,sans-Serif" font-size="10.00">Span::ConsoleCtrlHandler</text>
</a>
</g>
</g>
<!-- Node2 -->
<g id="Node000002" class="node">
<title>Node2</title>
<g id="a_Node000002"><a xlink:href="classSpan_1_1Application.html#a0c44e973ca5db1d23a02a2cee66f5c11" target="_top" xlink:title=" ">
<polygon fill="white" stroke="#666666" points="826,-399.5 719,-399.5 719,-369.5 826,-369.5 826,-399.5"/>
<text text-anchor="start" x="727" y="-387.5" font-family="Helvetica,sans-Serif" font-size="10.00">Span::Application::</text>
<text text-anchor="middle" x="772.5" y="-376.5" font-family="Helvetica,sans-Serif" font-size="10.00">Application</text>
</a>
</g>
</g>
<!-- Node1&#45;&gt;Node2 -->
<g id="edge1_Node000001_Node000002" class="edge">
<title>Node1&#45;&gt;Node2</title>
<g id="a_edge1_Node000001_Node000002"><a xlink:title=" ">
<path fill="none" stroke="#63b8ff" d="M852.94,-373.44C843.9,-374.7 834.85,-375.96 826.27,-377.15"/>
<polygon fill="#63b8ff" stroke="#63b8ff" points="853.7,-376.87 863.12,-372.02 852.73,-369.93 853.7,-376.87"/>
</a>
</g>
</g>
<!-- Node3 -->
<g id="Node000003" class="node">
<title>Node3</title>
<g id="a_Node000003"><a xlink:href="classSpan_1_1Application.html#ae2e9eaebe90ffdf55cfef9d74ccbce3e" target="_top" xlink:title="シングルトンインスタンスの取得">
<polygon fill="white" stroke="#666666" points="683,-394 558,-394 558,-375 683,-375 683,-394"/>
<text text-anchor="middle" x="620.5" y="-382" font-family="Helvetica,sans-Serif" font-size="10.00">Span::Application::Get</text>
</a>
</g>
</g>
<!-- Node2&#45;&gt;Node3 -->
<g id="edge2_Node000002_Node000003" class="edge">
<title>Node2&#45;&gt;Node3</title>
<g id="a_edge2_Node000002_Node000003"><a xlink:title=" ">
<path fill="none" stroke="#63b8ff" d="M708.51,-384.5C700.11,-384.5 691.51,-384.5 683.14,-384.5"/>
<polygon fill="#63b8ff" stroke="#63b8ff" points="708.62,-388 718.62,-384.5 708.62,-381 708.62,-388"/>
</a>
</g>
</g>
<!-- Node24 -->
<g id="Node000024" class="node">
<title>Node24</title>
<g id="a_Node000024"><a xlink:href="classSpan_1_1Application.html#a095598d0c2e753bfb8d00acee435980f" target="_top" xlink:title="シングルトンインスタンスのポインタ取得 (存在チェック用)">
<polygon fill="white" stroke="#666666" points="681,-354 560,-354 560,-335 681,-335 681,-354"/>
<text text-anchor="middle" x="620.5" y="-342" font-family="Helvetica,sans-Serif" font-size="10.00">Span::Application::Ptr</text>
</a>
</g>
</g>
<!-- Node2&#45;&gt;Node24 -->
<g id="edge33_Node000002_Node000024" class="edge">
<title>Node2&#45;&gt;Node24</title>
<g id="a_edge33_Node000002_Node000024"><a xlink:title=" ">
<path fill="none" stroke="#63b8ff" d="M708.49,-367.7C691.07,-363.05 672.77,-358.17 657.46,-354.09"/>
<polygon fill="#63b8ff" stroke="#63b8ff" points="708.05,-371.2 718.62,-370.4 709.86,-364.44 708.05,-371.2"/>
</a>
</g>
</g>
<!-- Node4 -->
<g id="Node000004" class="node">
<title>Node4</title>
<g id="a_Node000004"><a xlink:href="classSpan_1_1HierarchyPanel.html#a331d846c46df5f3346cfc7bb8c7a8e76" target="_top" xlink:title="エンティティ上での右クリックメニューを描画します。">
<polygon fill="white" stroke="#666666" points="507,-765.5 387,-765.5 387,-735.5 507,-735.5 507,-765.5"/>
<text text-anchor="start" x="395" y="-753.5" font-family="Helvetica,sans-Serif" font-size="10.00">Span::HierarchyPanel</text>
<text text-anchor="middle" x="447" y="-742.5" font-family="Helvetica,sans-Serif" font-size="10.00">::DrawContextMenu</text>
</a>
</g>
</g>
<!-- Node3&#45;&gt;Node4 -->
<g id="edge3_Node000003_Node000004" class="edge">
<title>Node3&#45;&gt;Node4</title>
<g id="a_edge3_Node000003_Node000004"><a xlink:title=" ">
<path fill="none" stroke="#63b8ff" d="M619.53,-404.43C618.54,-461.46 608.01,-627.2 522,-721.5 516.89,-727.11 510.55,-731.64 503.76,-735.31"/>
<polygon fill="#63b8ff" stroke="#63b8ff" points="623.03,-404.29 619.62,-394.26 616.03,-404.22 623.03,-404.29"/>
</a>
</g>
</g>
<!-- Node5 -->
<g id="Node000005" class="node">
<title>Node5</title>
<g id="a_Node000005"><a xlink:href="classSpan_1_1HierarchyPanel.html#a2c08f8c6e0cafaed96f7846d76ff2b09" target="_top" xlink:title="1つのエンティティとその子孫を再帰的に描画します。">
<polygon fill="white" stroke="#666666" points="309,-700.5 189,-700.5 189,-670.5 309,-670.5 309,-700.5"/>
<text text-anchor="start" x="197" y="-688.5" font-family="Helvetica,sans-Serif" font-size="10.00">Span::HierarchyPanel</text>
<text text-anchor="middle" x="249" y="-677.5" font-family="Helvetica,sans-Serif" font-size="10.00">::DrawEntityNode</text>
</a>
</g>
</g>
<!-- Node3&#45;&gt;Node5 -->
<g id="edge9_Node000003_Node000005" class="edge">
<title>Node3&#45;&gt;Node5</title>
<g id="a_edge9_Node000003_Node000005"><a xlink:title=" ">
<path fill="none" stroke="#63b8ff" d="M620.31,-404.47C621.36,-460.62 615.64,-620.19 522,-688.5 454.85,-737.48 351.47,-717.7 293.41,-700.55"/>
<polygon fill="#63b8ff" stroke="#63b8ff" points="623.8,-404.03 620.01,-394.13 616.8,-404.23 623.8,-404.03"/>
</a>
</g>
</g>
<!-- Node6 -->
<g id="Node000006" class="node">
<title>Node6</title>
<g id="a_Node000006"><a xlink:href="classSpan_1_1HierarchyPanel.html#a6481eb57cd9f45cb3a094a26f35bbaa0" target="_top" xlink:title="毎フレーム呼ばれる描画関数。">
<polygon fill="white" stroke="#666666" points="123,-636.5 3,-636.5 3,-606.5 123,-606.5 123,-636.5"/>
<text text-anchor="start" x="11" y="-624.5" font-family="Helvetica,sans-Serif" font-size="10.00">Span::HierarchyPanel</text>
<text text-anchor="middle" x="63" y="-613.5" font-family="Helvetica,sans-Serif" font-size="10.00">::OnImGuiRender</text>
</a>
</g>
</g>
<!-- Node3&#45;&gt;Node6 -->
<g id="edge22_Node000003_Node000006" class="edge">
<title>Node3&#45;&gt;Node6</title>
<g id="a_edge22_Node000003_Node000006"><a xlink:title=" ">
<path fill="none" stroke="#63b8ff" d="M617.01,-404.27C610.41,-447.36 588.2,-549.45 522,-594.5 458.7,-637.57 232.18,-631.18 123.28,-625.32"/>
<polygon fill="#63b8ff" stroke="#63b8ff" points="620.49,-404.61 618.42,-394.22 613.56,-403.63 620.49,-404.61"/>
</a>
</g>
</g>
<!-- Node7 -->
<g id="Node000007" class="node">
<title>Node7</title>
<g id="a_Node000007"><a xlink:href="classSpan_1_1HierarchyPanel.html#a04888145be2266ef8385e234b79ec53a" target="_top" xlink:title="何もない場所での右クリックメニュー (新規作成など) を描画します。">
<polygon fill="white" stroke="#666666" points="336,-593.5 162,-593.5 162,-563.5 336,-563.5 336,-593.5"/>
<text text-anchor="start" x="170" y="-581.5" font-family="Helvetica,sans-Serif" font-size="10.00">Span::HierarchyPanel</text>
<text text-anchor="middle" x="249" y="-570.5" font-family="Helvetica,sans-Serif" font-size="10.00">::DrawEmptySpaceContextMenu</text>
</a>
</g>
</g>
<!-- Node3&#45;&gt;Node7 -->
<g id="edge7_Node000003_Node000007" class="edge">
<title>Node3&#45;&gt;Node7</title>
<g id="a_edge7_Node000003_Node000007"><a xlink:title=" ">
<path fill="none" stroke="#63b8ff" d="M615.48,-404.12C606.44,-442.63 580.54,-527.56 522,-564.5 464.02,-601.09 384.45,-600.72 326.36,-593.52"/>
<polygon fill="#63b8ff" stroke="#63b8ff" points="618.94,-404.69 617.68,-394.17 612.11,-403.18 618.94,-404.69"/>
</a>
</g>
</g>
<!-- Node8 -->
<g id="Node000008" class="node">
<title>Node8</title>
<g id="a_Node000008"><a xlink:href="classSpan_1_1SceneViewPanel.html#ad83a4a55f083c75371d0873322808796" target="_top" xlink:title="選択中のオブジェクトに対してマニピュレータ (矢印など) を描画します。">
<polygon fill="white" stroke="#666666" points="510,-555.5 384,-555.5 384,-525.5 510,-525.5 510,-555.5"/>
<text text-anchor="start" x="392" y="-543.5" font-family="Helvetica,sans-Serif" font-size="10.00">Span::SceneViewPanel</text>
<text text-anchor="middle" x="447" y="-532.5" font-family="Helvetica,sans-Serif" font-size="10.00">::DrawGizmo</text>
</a>
</g>
</g>
<!-- Node3&#45;&gt;Node8 -->
<g id="edge10_Node000003_Node000008" class="edge">
<title>Node3&#45;&gt;Node8</title>
<g id="a_edge10_Node000003_Node000008"><a xlink:title=" ">
<path fill="none" stroke="#63b8ff" d="M609.6,-403.12C594.23,-430.41 562.17,-481.3 522,-511.5 514.72,-516.97 506.28,-521.55 497.75,-525.33"/>
<polygon fill="#63b8ff" stroke="#63b8ff" points="612.74,-404.67 614.49,-394.22 606.61,-401.29 612.74,-404.67"/>
</a>
</g>
</g>
<!-- Node9 -->
<g id="Node000009" class="node">
<title>Node9</title>
<g id="a_Node000009"><a xlink:href="classSpan_1_1SceneViewPanel.html#aab2935de58bd68267a680cabd3656c9f" target="_top" xlink:title="毎フレームの描画処理。 画像の表示、ツールバーのオーバーレイ、ギズモの描画を行います。">
<polygon fill="white" stroke="#666666" points="312,-512.5 186,-512.5 186,-482.5 312,-482.5 312,-512.5"/>
<text text-anchor="start" x="194" y="-500.5" font-family="Helvetica,sans-Serif" font-size="10.00">Span::SceneViewPanel</text>
<text text-anchor="middle" x="249" y="-489.5" font-family="Helvetica,sans-Serif" font-size="10.00">::OnImGuiRender</text>
</a>
</g>
</g>
<!-- Node3&#45;&gt;Node9 -->
<g id="edge24_Node000003_Node000009" class="edge">
<title>Node3&#45;&gt;Node9</title>
<g id="a_edge24_Node000003_Node000009"><a xlink:title=" ">
<path fill="none" stroke="#63b8ff" d="M607.16,-402.47C590.68,-424.79 559.2,-461.96 522,-478.5 454.85,-508.36 369.11,-508.99 312.02,-504.86"/>
<polygon fill="#63b8ff" stroke="#63b8ff" points="610.12,-404.35 613.09,-394.18 604.43,-400.27 610.12,-404.35"/>
</a>
</g>
</g>
<!-- Node10 -->
<g id="Node000010" class="node">
<title>Node10</title>
<g id="a_Node000010"><a xlink:href="classSpan_1_1InspectorPanel.html#acbecd010da050d28a48148287775259a" target="_top" xlink:title="マテリアルアセット用のプロパティエディタを描画します。">
<polygon fill="white" stroke="#666666" points="506,-421.5 388,-421.5 388,-391.5 506,-391.5 506,-421.5"/>
<text text-anchor="start" x="396" y="-409.5" font-family="Helvetica,sans-Serif" font-size="10.00">Span::InspectorPanel</text>
<text text-anchor="middle" x="447" y="-398.5" font-family="Helvetica,sans-Serif" font-size="10.00">::DrawMaterialEditor</text>
</a>
</g>
</g>
<!-- Node3&#45;&gt;Node10 -->
<g id="edge12_Node000003_Node000010" class="edge">
<title>Node3&#45;&gt;Node10</title>
<g id="a_edge12_Node000003_Node000010"><a xlink:title=" ">
<path fill="none" stroke="#63b8ff" d="M547.62,-393.72C533.78,-395.5 519.44,-397.34 506.11,-399.05"/>
<polygon fill="#63b8ff" stroke="#63b8ff" points="548.11,-397.19 557.58,-392.44 547.22,-390.24 548.11,-397.19"/>
</a>
</g>
</g>
<!-- Node12 -->
<g id="Node000012" class="node">
<title>Node12</title>
<g id="a_Node000012"><a xlink:href="classSpan_1_1InspectorPanel.html#ae32fda6018a2e54f880e6708ac5b89fe" target="_top" xlink:title="毎フレーム呼ばれる描画関数。">
<polygon fill="white" stroke="#666666" points="122,-400.5 4,-400.5 4,-370.5 122,-370.5 122,-400.5"/>
<text text-anchor="start" x="12" y="-388.5" font-family="Helvetica,sans-Serif" font-size="10.00">Span::InspectorPanel</text>
<text text-anchor="middle" x="63" y="-377.5" font-family="Helvetica,sans-Serif" font-size="10.00">::OnImGuiRender</text>
</a>
</g>
</g>
<!-- Node3&#45;&gt;Node12 -->
<g id="edge23_Node000003_Node000012" class="edge">
<title>Node3&#45;&gt;Node12</title>
<g id="a_edge23_Node000003_Node000012"><a xlink:title=" ">
<path fill="none" stroke="#63b8ff" d="M547.74,-382.86C539.07,-382.71 530.34,-382.59 522,-382.5 362.01,-380.86 321.98,-380.05 162,-382.5 149.06,-382.7 135.17,-383.04 122.03,-383.43"/>
<polygon fill="#63b8ff" stroke="#63b8ff" points="547.81,-386.36 557.87,-383.04 547.93,-379.36 547.81,-386.36"/>
</a>
</g>
</g>
<!-- Node13 -->
<g id="Node000013" class="node">
<title>Node13</title>
<g id="a_Node000013"><a xlink:href="classSpan_1_1GuiManager.html#a66e894c749b02f869c0851b41fd23fec" target="_top" xlink:title="ImGuiの描画コマンドを発行し、フレームを終了します。">
<polygon fill="white" stroke="#666666" points="329.5,-105 168.5,-105 168.5,-86 329.5,-86 329.5,-105"/>
<text text-anchor="middle" x="249" y="-93" font-family="Helvetica,sans-Serif" font-size="10.00">Span::GuiManager::EndFrame</text>
</a>
</g>
</g>
<!-- Node3&#45;&gt;Node13 -->
<g id="edge15_Node000003_Node000013" class="edge">
<title>Node3&#45;&gt;Node13</title>
<g id="a_edge15_Node000003_Node000013"><a xlink:title=" ">
<path fill="none" stroke="#63b8ff" d="M581.13,-371.68C573.45,-369.03 565.45,-366.22 558,-363.5 541.87,-357.61 538.27,-354.98 522,-349.5 456.28,-327.35 426.67,-349.18 372,-306.5 299.96,-250.25 262.63,-138.71 252.73,-105.22"/>
<polygon fill="#63b8ff" stroke="#63b8ff" points="580.03,-375 590.63,-374.92 582.3,-368.37 580.03,-375"/>
</a>
</g>
</g>
<!-- Node15 -->
<g id="Node000015" class="node">
<title>Node15</title>
<g id="a_Node000015"><a xlink:href="classSpan_1_1HierarchyPanel.html#af958ff25d0ba0576ae4848bbd01b2031" target="_top" xlink:title="ドラッグ&amp;ドロップの受け入れ処理 (親子付け替え・並び替え)。">
<polygon fill="white" stroke="#666666" points="507,-679.5 387,-679.5 387,-649.5 507,-649.5 507,-679.5"/>
<text text-anchor="start" x="395" y="-667.5" font-family="Helvetica,sans-Serif" font-size="10.00">Span::HierarchyPanel</text>
<text text-anchor="middle" x="447" y="-656.5" font-family="Helvetica,sans-Serif" font-size="10.00">::HandleDragDrop</text>
</a>
</g>
</g>
<!-- Node3&#45;&gt;Node15 -->
<g id="edge17_Node000003_Node000015" class="edge">
<title>Node3&#45;&gt;Node15</title>
<g id="a_edge17_Node000003_Node000015"><a xlink:title=" ">
<path fill="none" stroke="#63b8ff" d="M617.25,-404.15C610.9,-450.64 588.78,-568.52 522,-635.5 516.35,-641.17 509.46,-645.76 502.19,-649.46"/>
<polygon fill="#63b8ff" stroke="#63b8ff" points="620.72,-404.53 618.51,-394.17 613.78,-403.65 620.72,-404.53"/>
</a>
</g>
</g>
<!-- Node16 -->
<g id="Node000016" class="node">
<title>Node16</title>
<g id="a_Node000016"><a xlink:href="classSpan_1_1SceneViewPanel.html#afebf890816b85f92e9ed73de887b2354" target="_top" xlink:title="外部またはブラウザからドロップされたファイルを処理します。">
<polygon fill="white" stroke="#666666" points="510,-469.5 384,-469.5 384,-439.5 510,-439.5 510,-469.5"/>
<text text-anchor="start" x="392" y="-457.5" font-family="Helvetica,sans-Serif" font-size="10.00">Span::SceneViewPanel</text>
<text text-anchor="middle" x="447" y="-446.5" font-family="Helvetica,sans-Serif" font-size="10.00">::OnAssetDropped</text>
</a>
</g>
</g>
<!-- Node3&#45;&gt;Node16 -->
<g id="edge19_Node000003_Node000016" class="edge">
<title>Node3&#45;&gt;Node16</title>
<g id="a_edge19_Node000003_Node000016"><a xlink:title=" ">
<path fill="none" stroke="#63b8ff" d="M592,-398.62C572.69,-408.26 546.11,-420.95 522,-430.5 514.09,-433.63 505.59,-436.68 497.27,-439.49"/>
<polygon fill="#63b8ff" stroke="#63b8ff" points="593.76,-401.66 601.12,-394.03 590.61,-395.4 593.76,-401.66"/>
</a>
</g>
</g>
<!-- Node17 -->
<g id="Node000017" class="node">
<title>Node17</title>
<g id="a_Node000017"><a xlink:href="classSpan_1_1EnvironmentPanel.html#ac56f4aa5c10de85d9dc9bf2d7a497a54" target="_top" xlink:title="毎フレーム呼ばれる描画関数。">
<polygon fill="white" stroke="#666666" points="514.5,-297.5 379.5,-297.5 379.5,-267.5 514.5,-267.5 514.5,-297.5"/>
<text text-anchor="start" x="387.5" y="-285.5" font-family="Helvetica,sans-Serif" font-size="10.00">Span::EnvironmentPanel</text>
<text text-anchor="middle" x="447" y="-274.5" font-family="Helvetica,sans-Serif" font-size="10.00">::OnImGuiRender</text>
</a>
</g>
</g>
<!-- Node3&#45;&gt;Node17 -->
<g id="edge21_Node000003_Node000017" class="edge">
<title>Node3&#45;&gt;Node17</title>
<g id="a_edge21_Node000003_Node000017"><a xlink:title=" ">
<path fill="none" stroke="#63b8ff" d="M569.87,-370.76C565.67,-368.66 561.64,-366.25 558,-363.5 535.57,-346.55 544.04,-328.94 522,-311.5 514.97,-305.93 506.73,-301.33 498.36,-297.55"/>
<polygon fill="#63b8ff" stroke="#63b8ff" points="568.7,-374.07 579.26,-374.89 571.51,-367.66 568.7,-374.07"/>
</a>
</g>
</g>
<!-- Node18 -->
<g id="Node000018" class="node">
<title>Node18</title>
<g id="a_Node000018"><a xlink:href="classSpan_1_1CameraSystem.html#a7f4bf0245dedd7a6245ef352246f7391" target="_top" xlink:title="毎フレーム呼び出されます。ここにゲームロジックを記述します。">
<polygon fill="white" stroke="#666666" points="508,-249.5 386,-249.5 386,-219.5 508,-219.5 508,-249.5"/>
<text text-anchor="start" x="394" y="-237.5" font-family="Helvetica,sans-Serif" font-size="10.00">Span::CameraSystem</text>
<text text-anchor="middle" x="447" y="-226.5" font-family="Helvetica,sans-Serif" font-size="10.00">::OnUpdate</text>
</a>
</g>
</g>
<!-- Node3&#45;&gt;Node18 -->
<g id="edge25_Node000003_Node000018" class="edge">
<title>Node3&#45;&gt;Node18</title>
<g id="a_edge25_Node000003_Node000018"><a xlink:title=" ">
<path fill="none" stroke="#63b8ff" d="M566.35,-370.16C563.33,-368.22 560.51,-366.01 558,-363.5 523.09,-328.64 557.17,-293.09 522,-258.5 517.96,-254.52 513.25,-251.2 508.2,-248.44"/>
<polygon fill="#63b8ff" stroke="#63b8ff" points="564.82,-373.31 575.29,-374.97 568.14,-367.15 564.82,-373.31"/>
</a>
</g>
</g>
<!-- Node19 -->
<g id="Node000019" class="node">
<title>Node19</title>
<g id="a_Node000019"><a xlink:href="classSpan_1_1EditorCameraSystem.html#ae933964fa5d0f299954c926cf63e091a" target="_top" xlink:title="毎フレーム呼び出されます。ここにゲームロジックを記述します。">
<polygon fill="white" stroke="#666666" points="522,-201.5 372,-201.5 372,-171.5 522,-171.5 522,-201.5"/>
<text text-anchor="start" x="380" y="-189.5" font-family="Helvetica,sans-Serif" font-size="10.00">Span::EditorCameraSystem</text>
<text text-anchor="middle" x="447" y="-178.5" font-family="Helvetica,sans-Serif" font-size="10.00">::OnUpdate</text>
</a>
</g>
</g>
<!-- Node3&#45;&gt;Node19 -->
<g id="edge26_Node000003_Node000019" class="edge">
<title>Node3&#45;&gt;Node19</title>
<g id="a_edge26_Node000003_Node000019"><a xlink:title=" ">
<path fill="none" stroke="#63b8ff" d="M564.87,-369.61C562.38,-367.8 560.06,-365.77 558,-363.5 511.08,-311.74 569.32,-261.89 522,-210.5 518.8,-207.02 515.09,-204.05 511.07,-201.5"/>
<polygon fill="#63b8ff" stroke="#63b8ff" points="563.54,-372.88 573.93,-374.95 567.09,-366.85 563.54,-372.88"/>
</a>
</g>
</g>
<!-- Node20 -->
<g id="Node000020" class="node">
<title>Node20</title>
<g id="a_Node000020"><a xlink:href="classSpan_1_1RenderingSystem.html#aa0113a8f2b55129115c4da2c6ba449c4" target="_top" xlink:title="毎フレーム呼び出されます。ここにゲームロジックを記述します。">
<polygon fill="white" stroke="#666666" points="513.5,-153.5 380.5,-153.5 380.5,-123.5 513.5,-123.5 513.5,-153.5"/>
<text text-anchor="start" x="388.5" y="-141.5" font-family="Helvetica,sans-Serif" font-size="10.00">Span::RenderingSystem</text>
<text text-anchor="middle" x="447" y="-130.5" font-family="Helvetica,sans-Serif" font-size="10.00">::OnUpdate</text>
</a>
</g>
</g>
<!-- Node3&#45;&gt;Node20 -->
<g id="edge27_Node000003_Node000020" class="edge">
<title>Node3&#45;&gt;Node20</title>
<g id="a_edge27_Node000003_Node000020"><a xlink:title=" ">
<path fill="none" stroke="#63b8ff" d="M564.47,-369.55C562.11,-367.75 559.93,-365.75 558,-363.5 498.88,-294.64 581.65,-230.9 522,-162.5 518.98,-159.04 515.46,-156.07 511.62,-153.53"/>
<polygon fill="#63b8ff" stroke="#63b8ff" points="562.73,-372.58 573.08,-374.85 566.4,-366.63 562.73,-372.58"/>
</a>
</g>
</g>
<!-- Node21 -->
<g id="Node000021" class="node">
<title>Node21</title>
<g id="a_Node000021"><a xlink:href="classSpan_1_1FileDialog.html#aad45925d2e59cc65f1025f18104770e8" target="_top" xlink:title="ファイルを開くダイアログを表示します。">
<polygon fill="white" stroke="#666666" points="519,-105 375,-105 375,-86 519,-86 519,-105"/>
<text text-anchor="middle" x="447" y="-93" font-family="Helvetica,sans-Serif" font-size="10.00">Span::FileDialog::OpenFile</text>
</a>
</g>
</g>
<!-- Node3&#45;&gt;Node21 -->
<g id="edge28_Node000003_Node000021" class="edge">
<title>Node3&#45;&gt;Node21</title>
<g id="a_edge28_Node000003_Node000021"><a xlink:title=" ">
<path fill="none" stroke="#63b8ff" d="M564.38,-369.62C562.04,-367.81 559.89,-365.78 558,-363.5 486.59,-277.45 596.69,-197.71 522,-114.5 518.54,-110.65 514.42,-107.53 509.92,-105.01"/>
<polygon fill="#63b8ff" stroke="#63b8ff" points="562.6,-372.64 572.93,-374.98 566.31,-366.7 562.6,-372.64"/>
</a>
</g>
</g>
<!-- Node22 -->
<g id="Node000022" class="node">
<title>Node22</title>
<g id="a_Node000022"><a xlink:href="classSpan_1_1MaterialPreviewer.html#a7af64e04a1aae97d04d3a2bbe15f50a8" target="_top" xlink:title="オフスクリーンターゲットに球体を描画します。">
<polygon fill="white" stroke="#666666" points="515,-67.5 379,-67.5 379,-37.5 515,-37.5 515,-67.5"/>
<text text-anchor="start" x="387" y="-55.5" font-family="Helvetica,sans-Serif" font-size="10.00">Span::MaterialPreviewer</text>
<text text-anchor="middle" x="447" y="-44.5" font-family="Helvetica,sans-Serif" font-size="10.00">::Render</text>
</a>
</g>
</g>
<!-- Node3&#45;&gt;Node22 -->
<g id="edge30_Node000003_Node000022" class="edge">
<title>Node3&#45;&gt;Node22</title>
<g id="a_edge30_Node000003_Node000022"><a xlink:title=" ">
<path fill="none" stroke="#63b8ff" d="M563.75,-369.21C561.65,-367.5 559.71,-365.61 558,-363.5 476.84,-263.8 603.93,-175.57 522,-76.5 519.16,-73.07 515.82,-70.12 512.16,-67.59"/>
<polygon fill="#63b8ff" stroke="#63b8ff" points="562.24,-372.4 572.54,-374.89 566.04,-366.52 562.24,-372.4"/>
</a>
</g>
</g>
<!-- Node23 -->
<g id="Node000023" class="node">
<title>Node23</title>
<g id="a_Node000023"><a xlink:href="classSpan_1_1FileDialog.html#a22c6ec8ccc13ed89cc79447ce8ff2468" target="_top" xlink:title="ファイルを保存するダイアログを表示します。">
<polygon fill="white" stroke="#666666" points="518.5,-19 375.5,-19 375.5,0 518.5,0 518.5,-19"/>
<text text-anchor="middle" x="447" y="-7" font-family="Helvetica,sans-Serif" font-size="10.00">Span::FileDialog::SaveFile</text>
</a>
</g>
</g>
<!-- Node3&#45;&gt;Node23 -->
<g id="edge31_Node000003_Node000023" class="edge">
<title>Node3&#45;&gt;Node23</title>
<g id="a_edge31_Node000003_Node000023"><a xlink:title=" ">
<path fill="none" stroke="#63b8ff" d="M563.7,-369.24C561.62,-367.53 559.7,-365.62 558,-363.5 464.49,-246.54 619.98,-141.74 522,-28.5 518.7,-24.69 514.75,-21.59 510.42,-19.08"/>
<polygon fill="#63b8ff" stroke="#63b8ff" points="562.17,-372.43 572.46,-374.96 566,-366.56 562.17,-372.43"/>
</a>
</g>
</g>
<!-- Node4&#45;&gt;Node5 -->
<g id="edge4_Node000004_Node000005" class="edge">
<title>Node4&#45;&gt;Node5</title>
<g id="a_edge4_Node000004_Node000005"><a xlink:title=" ">
<path fill="none" stroke="#63b8ff" d="M391.02,-732.27C360.91,-722.28 324.04,-710.05 295.55,-700.61"/>
<polygon fill="#63b8ff" stroke="#63b8ff" points="389.95,-735.6 400.54,-735.42 392.15,-728.95 389.95,-735.6"/>
</a>
</g>
</g>
<!-- Node5&#45;&gt;Node5 -->
<g id="edge5_Node000005_Node000005" class="edge">
<title>Node5&#45;&gt;Node5</title>
<g id="a_edge5_Node000005_Node000005"><a xlink:title=" ">
<path fill="none" stroke="#63b8ff" d="M281.56,-711.1C277.11,-715.47 266.26,-718.5 249,-718.5 219.94,-718.5 209.04,-709.91 216.3,-700.78"/>
<polygon fill="#63b8ff" stroke="#63b8ff" points="285.06,-710.82 281.7,-700.78 278.06,-710.73 285.06,-710.82"/>
</a>
</g>
</g>
<!-- Node5&#45;&gt;Node6 -->
<g id="edge6_Node000005_Node000006" class="edge">
<title>Node5&#45;&gt;Node6</title>
<g id="a_edge6_Node000005_Node000006"><a xlink:title=" ">
<path fill="none" stroke="#63b8ff" d="M195.26,-667.16C167.35,-657.45 133.52,-645.68 107.19,-636.52"/>
<polygon fill="#63b8ff" stroke="#63b8ff" points="194.27,-670.52 204.86,-670.49 196.57,-663.9 194.27,-670.52"/>
</a>
</g>
</g>
<!-- Node7&#45;&gt;Node6 -->
<g id="edge8_Node000007_Node000006" class="edge">
<title>Node7&#45;&gt;Node6</title>
<g id="a_edge8_Node000007_Node000006"><a xlink:title=" ">
<path fill="none" stroke="#63b8ff" d="M173.82,-595.84C156.94,-599.78 139.23,-603.92 123.08,-607.69"/>
<polygon fill="#63b8ff" stroke="#63b8ff" points="174.7,-599.22 183.65,-593.54 173.11,-592.41 174.7,-599.22"/>
</a>
</g>
</g>
<!-- Node8&#45;&gt;Node9 -->
<g id="edge11_Node000008_Node000009" class="edge">
<title>Node8&#45;&gt;Node9</title>
<g id="a_edge11_Node000008_Node000009"><a xlink:title=" ">
<path fill="none" stroke="#63b8ff" d="M374.17,-524.74C353.88,-520.29 331.97,-515.48 312.28,-511.16"/>
<polygon fill="#63b8ff" stroke="#63b8ff" points="373.47,-528.17 383.98,-526.89 374.97,-521.33 373.47,-528.17"/>
</a>
</g>
</g>
<!-- Node11 -->
<g id="Node000011" class="node">
<title>Node11</title>
<g id="a_Node000011"><a xlink:href="classSpan_1_1InspectorPanel.html#aa24fb5f7f8d1de98906fe4b644cb4a86" target="_top" xlink:title="アセット用のインスペクターを描画します。">
<polygon fill="white" stroke="#666666" points="309,-421.5 189,-421.5 189,-391.5 309,-391.5 309,-421.5"/>
<text text-anchor="start" x="197" y="-409.5" font-family="Helvetica,sans-Serif" font-size="10.00">Span::InspectorPanel</text>
<text text-anchor="middle" x="249" y="-398.5" font-family="Helvetica,sans-Serif" font-size="10.00">::DrawAssetInspector</text>
</a>
</g>
</g>
<!-- Node10&#45;&gt;Node11 -->
<g id="edge13_Node000010_Node000011" class="edge">
<title>Node10&#45;&gt;Node11</title>
<g id="a_edge13_Node000010_Node000011"><a xlink:title=" ">
<path fill="none" stroke="#63b8ff" d="M377.89,-406.5C355.53,-406.5 330.87,-406.5 309.22,-406.5"/>
<polygon fill="#63b8ff" stroke="#63b8ff" points="377.99,-410 387.99,-406.5 377.99,-403 377.99,-410"/>
</a>
</g>
</g>
<!-- Node11&#45;&gt;Node12 -->
<g id="edge14_Node000011_Node000012" class="edge">
<title>Node11&#45;&gt;Node12</title>
<g id="a_edge14_Node000011_Node000012"><a xlink:title=" ">
<path fill="none" stroke="#63b8ff" d="M178.59,-398.58C160,-396.46 140.09,-394.18 122.18,-392.14"/>
<polygon fill="#63b8ff" stroke="#63b8ff" points="178.44,-402.08 188.77,-399.74 179.23,-395.13 178.44,-402.08"/>
</a>
</g>
</g>
<!-- Node14 -->
<g id="Node000014" class="node">
<title>Node14</title>
<g id="a_Node000014"><a xlink:href="classSpan_1_1Application.html#a9dc7321cf43512eac3757a83fbefbaa9" target="_top" xlink:title="アプリケーションを実行します (ブロック関数)。">
<polygon fill="white" stroke="#666666" points="126,-105 0,-105 0,-86 126,-86 126,-105"/>
<text text-anchor="middle" x="63" y="-93" font-family="Helvetica,sans-Serif" font-size="10.00">Span::Application::Run</text>
</a>
</g>
</g>
<!-- Node13&#45;&gt;Node14 -->
<g id="edge16_Node000013_Node000014" class="edge">
<title>Node13&#45;&gt;Node14</title>
<g id="a_edge16_Node000013_Node000014"><a xlink:title=" ">
<path fill="none" stroke="#63b8ff" d="M158.35,-95.5C147.4,-95.5 136.42,-95.5 126.01,-95.5"/>
<polygon fill="#63b8ff" stroke="#63b8ff" points="158.37,-99 168.37,-95.5 158.37,-92 158.37,-99"/>
</a>
</g>
</g>
<!-- Node15&#45;&gt;Node5 -->
<g id="edge18_Node000015_Node000005" class="edge">
<title>Node15&#45;&gt;Node5</title>
<g id="a_edge18_Node000015_Node000005"><a xlink:title=" ">
<path fill="none" stroke="#63b8ff" d="M376.95,-671.9C354.86,-674.26 330.62,-676.86 309.29,-679.15"/>
<polygon fill="#63b8ff" stroke="#63b8ff" points="377.36,-675.37 386.93,-670.83 376.61,-668.41 377.36,-675.37"/>
</a>
</g>
</g>
<!-- Node16&#45;&gt;Node9 -->
<g id="edge20_Node000016_Node000009" class="edge">
<title>Node16&#45;&gt;Node9</title>
<g id="a_edge20_Node000016_Node000009"><a xlink:title=" ">
<path fill="none" stroke="#63b8ff" d="M374.17,-470.26C353.88,-474.71 331.97,-479.52 312.28,-483.84"/>
<polygon fill="#63b8ff" stroke="#63b8ff" points="374.97,-473.67 383.98,-468.11 373.47,-466.83 374.97,-473.67"/>
</a>
</g>
</g>
<!-- Node21&#45;&gt;Node13 -->
<g id="edge29_Node000021_Node000013" class="edge">
<title>Node21&#45;&gt;Node13</title>
<g id="a_edge29_Node000021_Node000013"><a xlink:title=" ">
<path fill="none" stroke="#63b8ff" d="M364.87,-95.5C353.26,-95.5 341.34,-95.5 329.76,-95.5"/>
<polygon fill="#63b8ff" stroke="#63b8ff" points="364.96,-99 374.96,-95.5 364.96,-92 364.96,-99"/>
</a>
</g>
</g>
<!-- Node23&#45;&gt;Node13 -->
<g id="edge32_Node000023_Node000013" class="edge">
<title>Node23&#45;&gt;Node13</title>
<g id="a_edge32_Node000023_Node000013"><a xlink:title=" ">
<path fill="none" stroke="#63b8ff" d="M391.5,-21.82C384.85,-23.81 378.21,-26.04 372,-28.5 331.11,-44.68 286.7,-71.72 264.44,-86"/>
<polygon fill="#63b8ff" stroke="#63b8ff" points="392.54,-25.17 401.21,-19.07 390.63,-18.43 392.54,-25.17"/>
</a>
</g>
</g>
<!-- Node24&#45;&gt;Node1 -->
<g id="edge34_Node000024_Node000001" class="edge">
<title>Node24&#45;&gt;Node1</title>
<g id="a_edge34_Node000024_Node000001"><a xlink:title=" ">
<path fill="none" stroke="#63b8ff" d="M691.44,-348.56C742.38,-351.52 811.08,-355.51 861.93,-358.46"/>
<polygon fill="#63b8ff" stroke="#63b8ff" points="691.36,-345.05 681.18,-347.97 690.96,-352.04 691.36,-345.05"/>
</a>
</g>
</g>
</g>
</svg>

<g id="navigator" transform="translate(0 0)" fill="#404254">
  <rect fill="#f2f5e9" fill-opacity="0.5" stroke="#606060" stroke-width=".5" x="0" y="0" width="60" height="60"/>
  <use id="zoomplus" xlink:href="#zoomPlus" x="17" y="9" onmousedown="handleZoom(evt,'in')"/>
  <use id="zoomminus" xlink:href="#zoomMin" x="42" y="9" onmousedown="handleZoom(evt,'out')"/>
  <use id="reset" xlink:href="#resetDef" x="30" y="36" onmousedown="handleReset()"/>
   <use id="arrowup" xlink:href="#arrowUp" x="0" y="0" onmousedown="handlePan(0,-1)"/>
  <use id="arrowright" xlink:href="#arrowRight" x="0" y="0" onmousedown="handlePan(1,0)"/>
  <use id="arrowdown" xlink:href="#arrowDown" x="0" y="0" onmousedown="handlePan(0,1)"/>
  <use id="arrowleft" xlink:href="#arrowLeft" x="0" y="0" onmousedown="handlePan(-1,0)"/>
</g>
<svg viewBox="0 0 15 15" width="100%" height="30px" preserveAspectRatio="xMaxYMin meet">
 <g id="arrow_out" transform="scale(0.3 0.3)">
  <a xlink:href="namespaceSpan_a3f4b8561d46e69596ba6a7c3177a92e7_icgraph_org.svg" target="_base">
   <rect id="button" ry="5" rx="5" y="6" x="6" height="38" width="38"
        fill="#f2f5e9" fill-opacity="0.5" stroke="#606060" stroke-width="1.0"/>
   <path id="arrow"
     d="M 11.500037,31.436501 C 11.940474,20.09759 22.043105,11.32322 32.158766,21.979434 L 37.068811,17.246167 C 37.068811,17.246167 37.088388,32 37.088388,32 L 22.160133,31.978069 C 22.160133,31.978069 26.997745,27.140456 26.997745,27.140456 C 18.528582,18.264221 13.291696,25.230495 11.500037,31.436501 z"
     style="fill:#404040;"/>
  </a>
 </g>
</svg>

<style type='text/css'>
<![CDATA[
[data-mouse-over-selected='false'] { opacity: 0.7; }
[data-mouse-over-selected='true']  { opacity: 1.0; }
]]>
</style>
<script type="application/ecmascript"><![CDATA[
document.addEventListener('DOMContentLoaded', (event) => {
  highlightEdges();
  highlightAdjacentNodes();
});
]]></script>
</svg>
