<?xml version="1.0" encoding="UTF-8" standalone="no"?>
<!DOCTYPE svg PUBLIC "-//W3C//DTD SVG 1.1//EN"
 "http://www.w3.org/Graphics/SVG/1.1/DTD/svg11.dtd">
<!-- Generated by graphviz version 2.43.0 (0)
 -->
<!-- Title: Span::Range Pages: 1 -->
<!--zoomable 136 -->

<svg id="main" version="1.1" xmlns="http://www.w3.org/2000/svg" xmlns:xlink="http://www.w3.org/1999/xlink" xml:space="preserve" onload="init(evt)">

<style type="text/css"><![CDATA[
.node, .edge {opacity: 0.7;}
.node.selected, .edge.selected {opacity: 1;}
.edge:hover path { stroke: red; }
.edge:hover polygon { stroke: red; fill: red; }
]]></style>

<defs>
  <circle id="rim" cx="0" cy="0" r="7"/>
  <circle id="rim2" cx="0" cy="0" r="3.5"/>
  <g id="zoomPlus">
    <use xlink:href="#rim" fill="#404040"><set attributeName="fill" to="#808080" begin="zoomplus.mouseover" end="zoomplus.mouseout"/></use>
    <path d="M-4,0h8M0,-4v8" fill="none" stroke="white" stroke-width="1.5" pointer-events="none"/>
  </g>
  <g id="zoomMin">
    <use xlink:href="#rim" fill="#404040"><set attributeName="fill" to="#808080" begin="zoomminus.mouseover" end="zoomminus.mouseout"/></use>
    <path d="M-4,0h8" fill="none" stroke="white" stroke-width="1.5" pointer-events="none"/>
  </g>
  <g id="arrowUp" transform="translate(30 24)">
    <use xlink:href="#rim"/>
    <path pointer-events="none" fill="none" stroke="white" stroke-width="1.5" d="M0,-3.0v7 M-2.5,-0.5L0,-3.0L2.5,-0.5"/>
  </g>
  <g id="arrowRight" transform="rotate(90) translate(36 -43)">
    <use xlink:href="#rim"/>
    <path pointer-events="none" fill="none" stroke="white" stroke-width="1.5" d="M0,-3.0v7 M-2.5,-0.5L0,-3.0L2.5,-0.5"/>
  </g>
  <g id="arrowDown" transform="rotate(180) translate(-30 -48)">
    <use xlink:href="#rim"/>
    <path pointer-events="none" fill="none" stroke="white" stroke-width="1.5" d="M0,-3.0v7 M-2.5,-0.5L0,-3.0L2.5,-0.5"/>
  </g>
  <g id="arrowLeft" transform="rotate(270) translate(-36 17)">
    <use xlink:href="#rim"/>
    <path pointer-events="none" fill="none" stroke="white" stroke-width="1.5" d="M0,-3.0v7 M-2.5,-0.5L0,-3.0L2.5,-0.5"/>
  </g>
  <g id="resetDef">
    <use xlink:href="#rim2" fill="#404040"><set attributeName="fill" to="#808080" begin="reset.mouseover" end="reset.mouseout"/></use>
  </g>
</defs>
<script type="application/ecmascript">
var viewWidth = 552;
var viewHeight = 136;
var sectionId = 'dynsection-11';
</script>
<script type="application/ecmascript" xlink:href="svg.min.js"/>
<svg id="graph" class="graph">
<g id="viewport">
<title>Span::Range</title>
<!-- Node1 -->
<g id="Node000001" class="node">
<title>Node1</title>
<g id="a_Node000001"><a xlink:title="変数をスライダーで編集できるようにします。">
<polygon fill="#999999" stroke="#666666" points="544,-71 467,-71 467,-52 544,-52 544,-71"/>
<text text-anchor="middle" x="505.5" y="-59" font-family="Helvetica,sans-Serif" font-size="10.00">Span::Range</text>
</a>
</g>
</g>
<!-- Node2 -->
<g id="Node000002" class="node">
<title>Node2</title>
<g id="a_Node000002"><a xlink:href="structSpan_1_1DirectionalLight.html#aee0b8bd7f0be9be82285c528f54475c7" target="_top" xlink:title=" ">
<polygon fill="white" stroke="#666666" points="431,-109.5 307,-109.5 307,-79.5 431,-79.5 431,-109.5"/>
<text text-anchor="start" x="315" y="-97.5" font-family="Helvetica,sans-Serif" font-size="10.00">Span::DirectionalLight</text>
<text text-anchor="middle" x="369" y="-86.5" font-family="Helvetica,sans-Serif" font-size="10.00">::DirectionalLight</text>
</a>
</g>
</g>
<!-- Node1&#45;&gt;Node2 -->
<g id="edge1_Node000001_Node000002" class="edge">
<title>Node1&#45;&gt;Node2</title>
<g id="a_edge1_Node000001_Node000002"><a xlink:title=" ">
<path fill="none" stroke="#63b8ff" d="M456.82,-73.2C448.53,-75.23 439.8,-77.37 431.21,-79.48"/>
<polygon fill="#63b8ff" stroke="#63b8ff" points="457.8,-76.56 466.68,-70.78 456.13,-69.76 457.8,-76.56"/>
</a>
</g>
</g>
<!-- Node3 -->
<g id="Node000003" class="node">
<title>Node3</title>
<g id="a_Node000003"><a xlink:href="structSpan_1_1Camera.html#a3a5c903ea1474553e923ceebe57651f2" target="_top" xlink:title=" ">
<polygon fill="white" stroke="#666666" points="427,-43.5 311,-43.5 311,-13.5 427,-13.5 427,-43.5"/>
<text text-anchor="start" x="319" y="-31.5" font-family="Helvetica,sans-Serif" font-size="10.00">Span::Camera::SPAN</text>
<text text-anchor="middle" x="369" y="-20.5" font-family="Helvetica,sans-Serif" font-size="10.00">_FIELD</text>
</a>
</g>
</g>
<!-- Node1&#45;&gt;Node3 -->
<g id="edge3_Node000001_Node000003" class="edge">
<title>Node1&#45;&gt;Node3</title>
<g id="a_edge3_Node000001_Node000003"><a xlink:title=" ">
<path fill="none" stroke="#63b8ff" d="M456.89,-49.82C447.27,-47.46 437.05,-44.95 427.13,-42.52"/>
<polygon fill="#63b8ff" stroke="#63b8ff" points="456.13,-53.24 466.68,-52.22 457.8,-46.44 456.13,-53.24"/>
</a>
</g>
</g>
<!-- Node2&#45;&gt;Node2 -->
<g id="edge2_Node000002_Node000002" class="edge">
<title>Node2&#45;&gt;Node2</title>
<g id="a_edge2_Node000002_Node000002"><a xlink:title=" ">
<path fill="none" stroke="#63b8ff" d="M392.81,-120.1C389.55,-124.47 381.62,-127.5 369,-127.5 347.75,-127.5 339.78,-118.91 345.09,-109.78"/>
<polygon fill="#63b8ff" stroke="#63b8ff" points="396.31,-119.81 392.91,-109.78 389.31,-119.74 396.31,-119.81"/>
</a>
</g>
</g>
<!-- Node3&#45;&gt;Node3 -->
<g id="edge11_Node000003_Node000003" class="edge">
<title>Node3&#45;&gt;Node3</title>
<g id="a_edge11_Node000003_Node000003"><a xlink:title=" ">
<path fill="none" stroke="#63b8ff" d="M392.81,-54.1C389.55,-58.47 381.62,-61.5 369,-61.5 347.75,-61.5 339.78,-52.91 345.09,-43.78"/>
<polygon fill="#63b8ff" stroke="#63b8ff" points="396.31,-53.81 392.91,-43.78 389.31,-53.74 396.31,-53.81"/>
</a>
</g>
</g>
<!-- Node4 -->
<g id="Node000004" class="node">
<title>Node4</title>
<g id="a_Node000004"><a xlink:href="structSpan_1_1Camera.html#a0c6923a4e86c576bb77222ca974ae4d0" target="_top" xlink:title=" ">
<polygon fill="white" stroke="#666666" points="126,-56 0,-56 0,-37 126,-37 126,-56"/>
<text text-anchor="middle" x="63" y="-44" font-family="Helvetica,sans-Serif" font-size="10.00">Span::Camera::Header</text>
</a>
</g>
</g>
<!-- Node3&#45;&gt;Node4 -->
<g id="edge4_Node000003_Node000004" class="edge">
<title>Node3&#45;&gt;Node4</title>
<g id="a_edge4_Node000003_Node000004"><a xlink:title=" ">
<path fill="none" stroke="#63b8ff" d="M327.34,-47.8C310.34,-54.86 290.11,-61.98 271,-65.5 212.26,-76.32 142.96,-65.21 101.3,-56"/>
<polygon fill="#63b8ff" stroke="#63b8ff" points="329.14,-50.83 336.95,-43.67 326.38,-44.4 329.14,-50.83"/>
</a>
</g>
</g>
<!-- Node5 -->
<g id="Node000005" class="node">
<title>Node5</title>
<g id="a_Node000005"><a xlink:href="structSpan_1_1Camera.html#a014e8eba964d808c5573ec1bc310ff57" target="_top" xlink:title=" ">
<polygon fill="white" stroke="#666666" points="117.5,-19 8.5,-19 8.5,0 117.5,0 117.5,-19"/>
<text text-anchor="middle" x="63" y="-7" font-family="Helvetica,sans-Serif" font-size="10.00">Span::Camera::Min</text>
</a>
</g>
</g>
<!-- Node3&#45;&gt;Node5 -->
<g id="edge6_Node000003_Node000005" class="edge">
<title>Node3&#45;&gt;Node5</title>
<g id="a_edge6_Node000003_Node000005"><a xlink:title=" ">
<path fill="none" stroke="#63b8ff" d="M300.93,-13.62C290.94,-11.91 280.74,-10.44 271,-9.5 219.13,-4.47 159.61,-5.14 117.75,-6.66"/>
<polygon fill="#63b8ff" stroke="#63b8ff" points="300.36,-17.07 310.82,-15.4 301.6,-10.18 300.36,-17.07"/>
</a>
</g>
</g>
<!-- Node6 -->
<g id="Node000006" class="node">
<title>Node6</title>
<g id="a_Node000006"><a xlink:href="structSpan_1_1Camera.html#a7d7398de74ff9dd2dfa791c508251062" target="_top" xlink:title=" ">
<polygon fill="white" stroke="#666666" points="271,-38 162,-38 162,-19 271,-19 271,-38"/>
<text text-anchor="middle" x="216.5" y="-26" font-family="Helvetica,sans-Serif" font-size="10.00">Span::Camera::Min</text>
</a>
</g>
</g>
<!-- Node3&#45;&gt;Node6 -->
<g id="edge7_Node000003_Node000006" class="edge">
<title>Node3&#45;&gt;Node6</title>
<g id="a_edge7_Node000003_Node000006"><a xlink:title=" ">
<path fill="none" stroke="#63b8ff" d="M300.53,-28.5C290.7,-28.5 280.7,-28.5 271.2,-28.5"/>
<polygon fill="#63b8ff" stroke="#63b8ff" points="300.67,-32 310.67,-28.5 300.67,-25 300.67,-32"/>
</a>
</g>
</g>
<!-- Node4&#45;&gt;Node4 -->
<g id="edge5_Node000004_Node000004" class="edge">
<title>Node4&#45;&gt;Node4</title>
<g id="a_edge5_Node000004_Node000004"><a xlink:title=" ">
<path fill="none" stroke="#63b8ff" d="M91.37,-64.82C90.19,-70.01 80.73,-74 63,-74 35.98,-74 28.18,-64.73 39.57,-56.08"/>
<polygon fill="#63b8ff" stroke="#63b8ff" points="94.4,-63.06 86.43,-56.08 88.31,-66.51 94.4,-63.06"/>
</a>
</g>
</g>
<!-- Node6&#45;&gt;Node4 -->
<g id="edge8_Node000006_Node000004" class="edge">
<title>Node6&#45;&gt;Node4</title>
<g id="a_edge8_Node000006_Node000004"><a xlink:title=" ">
<path fill="none" stroke="#63b8ff" d="M151.55,-36.1C143.15,-37.1 134.56,-38.12 126.2,-39.11"/>
<polygon fill="#63b8ff" stroke="#63b8ff" points="152.14,-39.55 161.66,-34.9 151.32,-32.6 152.14,-39.55"/>
</a>
</g>
</g>
<!-- Node6&#45;&gt;Node5 -->
<g id="edge9_Node000006_Node000005" class="edge">
<title>Node6&#45;&gt;Node5</title>
<g id="a_edge9_Node000006_Node000005"><a xlink:title=" ">
<path fill="none" stroke="#63b8ff" d="M151.46,-20.47C140.2,-19.06 128.6,-17.6 117.67,-16.23"/>
<polygon fill="#63b8ff" stroke="#63b8ff" points="151.3,-23.98 161.66,-21.75 152.17,-17.03 151.3,-23.98"/>
</a>
</g>
</g>
<!-- Node6&#45;&gt;Node6 -->
<g id="edge10_Node000006_Node000006" class="edge">
<title>Node6&#45;&gt;Node6</title>
<g id="a_edge10_Node000006_Node000006"><a xlink:title=" ">
<path fill="none" stroke="#63b8ff" d="M244.87,-46.82C243.69,-52.01 234.23,-56 216.5,-56 189.48,-56 181.68,-46.73 193.07,-38.08"/>
<polygon fill="#63b8ff" stroke="#63b8ff" points="247.9,-45.06 239.93,-38.08 241.81,-48.51 247.9,-45.06"/>
</a>
</g>
</g>
</g>
</svg>

<g id="navigator" transform="translate(0 0)" fill="#404254">
  <rect fill="#f2f5e9" fill-opacity="0.5" stroke="#606060" stroke-width=".5" x="0" y="0" width="60" height="60"/>
  <use id="zoomplus" xlink:href="#zoomPlus" x="17" y="9" onmousedown="handleZoom(evt,'in')"/>
  <use id="zoomminus" xlink:href="#zoomMin" x="42" y="9" onmousedown="handleZoom(evt,'out')"/>
  <use id="reset" xlink:href="#resetDef" x="30" y="36" onmousedown="handleReset()"/>
   <use id="arrowup" xlink:href="#arrowUp" x="0" y="0" onmousedown="handlePan(0,-1)"/>
  <use id="arrowright" xlink:href="#arrowRight" x="0" y="0" onmousedown="handlePan(1,0)"/>
  <use id="arrowdown" xlink:href="#arrowDown" x="0" y="0" onmousedown="handlePan(0,1)"/>
  <use id="arrowleft" xlink:href="#arrowLeft" x="0" y="0" onmousedown="handlePan(-1,0)"/>
</g>
<svg viewBox="0 0 15 15" width="100%" height="30px" preserveAspectRatio="xMaxYMin meet">
 <g id="arrow_out" transform="scale(0.3 0.3)">
  <a xlink:href="namespaceSpan_a32a1ef503ab803ad2c45c621d77445a0_icgraph_org.svg" target="_base">
   <rect id="button" ry="5" rx="5" y="6" x="6" height="38" width="38"
        fill="#f2f5e9" fill-opacity="0.5" stroke="#606060" stroke-width="1.0"/>
   <path id="arrow"
     d="M 11.500037,31.436501 C 11.940474,20.09759 22.043105,11.32322 32.158766,21.979434 L 37.068811,17.246167 C 37.068811,17.246167 37.088388,32 37.088388,32 L 22.160133,31.978069 C 22.160133,31.978069 26.997745,27.140456 26.997745,27.140456 C 18.528582,18.264221 13.291696,25.230495 11.500037,31.436501 z"
     style="fill:#404040;"/>
  </a>
 </g>
</svg>

<style type='text/css'>
<![CDATA[
[data-mouse-over-selected='false'] { opacity: 0.7; }
[data-mouse-over-selected='true']  { opacity: 1.0; }
]]>
</style>
<script type="application/ecmascript"><![CDATA[
document.addEventListener('DOMContentLoaded', (event) => {
  highlightEdges();
  highlightAdjacentNodes();
});
]]></script>
</svg>
