<?xml version="1.0" encoding="UTF-8" standalone="no"?>
<!DOCTYPE svg PUBLIC "-//W3C//DTD SVG 1.1//EN"
 "http://www.w3.org/Graphics/SVG/1.1/DTD/svg11.dtd">
<!-- Generated by graphviz version 2.43.0 (0)
 -->
<!-- Title: Engine/Source/Runtime/Components/Core/Name.h Pages: 1 -->
<svg width="2944pt" height="324pt"
 viewBox="0.00 0.00 2943.50 324.00" xmlns="http://www.w3.org/2000/svg" xmlns:xlink="http://www.w3.org/1999/xlink">
<g id="graph0" class="graph" transform="scale(1 1) rotate(0) translate(4 320)">
<title>Engine/Source/Runtime/Components/Core/Name.h</title>
<!-- Node1 -->
<g id="Node000001" class="node">
<title>Node1</title>
<g id="a_Node000001"><a xlink:title="エンティティの名前">
<polygon fill="#999999" stroke="#666666" points="330.5,-316 182.5,-316 182.5,-286 330.5,-286 330.5,-316"/>
<text text-anchor="start" x="190.5" y="-304" font-family="Helvetica,sans-Serif" font-size="10.00">Engine/Source/Runtime</text>
<text text-anchor="middle" x="256.5" y="-293" font-family="Helvetica,sans-Serif" font-size="10.00">/Components/Core/Name.h</text>
</a>
</g>
</g>
<!-- Node2 -->
<g id="Node000002" class="node">
<title>Node2</title>
<g id="a_Node000002"><a xlink:href="FixedString_8h.html" target="_top" xlink:title="固定長文字列ラッパー (POD)">
<polygon fill="white" stroke="#666666" points="161,-184 0,-184 0,-165 161,-165 161,-184"/>
<text text-anchor="middle" x="80.5" y="-172" font-family="Helvetica,sans-Serif" font-size="10.00">Core/Containers/FixedString.h</text>
</a>
</g>
</g>
<!-- Node1&#45;&gt;Node2 -->
<g id="edge1_Node000001_Node000002" class="edge">
<title>Node1&#45;&gt;Node2</title>
<g id="a_edge1_Node000001_Node000002"><a xlink:title=" ">
<path fill="none" stroke="#63b8ff" d="M236.65,-285.96C202.98,-262.14 135.01,-214.06 100.94,-189.96"/>
<polygon fill="#63b8ff" stroke="#63b8ff" points="102.86,-187.03 92.67,-184.11 98.81,-192.74 102.86,-187.03"/>
</a>
</g>
</g>
<!-- Node40 -->
<g id="Node000040" class="node">
<title>Node40</title>
<g id="a_Node000040"><a xlink:href="SpanReflection_8h.html" target="_top" xlink:title="コンポーネント定義用のリフレクションマクロ。">
<polygon fill="white" stroke="#666666" points="423.5,-250 313.5,-250 313.5,-220 423.5,-220 423.5,-250"/>
<text text-anchor="start" x="321.5" y="-238" font-family="Helvetica,sans-Serif" font-size="10.00">Runtime/Reflection</text>
<text text-anchor="middle" x="368.5" y="-227" font-family="Helvetica,sans-Serif" font-size="10.00">/SpanReflection.h</text>
</a>
</g>
</g>
<!-- Node1&#45;&gt;Node40 -->
<g id="edge40_Node000001_Node000040" class="edge">
<title>Node1&#45;&gt;Node40</title>
<g id="a_edge40_Node000001_Node000040"><a xlink:title=" ">
<path fill="none" stroke="#63b8ff" d="M281.08,-285.95C296.98,-276.87 317.88,-264.93 335.26,-255"/>
<polygon fill="#63b8ff" stroke="#63b8ff" points="337.03,-258.01 343.98,-250.01 333.56,-251.93 337.03,-258.01"/>
</a>
</g>
</g>
<!-- Node3 -->
<g id="Node000003" class="node">
<title>Node3</title>
<g id="a_Node000003"><a xlink:href="CoreMinimal_8h.html" target="_top" xlink:title="エンジンの標準インクルードファイル。">
<polygon fill="white" stroke="#666666" points="1407,-74 1294,-74 1294,-55 1407,-55 1407,-74"/>
<text text-anchor="middle" x="1350.5" y="-62" font-family="Helvetica,sans-Serif" font-size="10.00">Core/CoreMinimal.h</text>
</a>
</g>
</g>
<!-- Node2&#45;&gt;Node3 -->
<g id="edge2_Node000002_Node000003" class="edge">
<title>Node2&#45;&gt;Node3</title>
<g id="a_edge2_Node000002_Node000003"><a xlink:title=" ">
<path fill="none" stroke="#63b8ff" d="M76.77,-164.72C71.6,-151.02 64.4,-124.6 78.5,-110 120.65,-66.35 1027.34,-64.85 1283.59,-65.3"/>
<polygon fill="#63b8ff" stroke="#63b8ff" points="1283.86,-68.8 1293.86,-65.32 1283.87,-61.8 1283.86,-68.8"/>
</a>
</g>
</g>
<!-- Node39 -->
<g id="Node000039" class="node">
<title>Node39</title>
<g id="a_Node000039"><a xlink:title=" ">
<polygon fill="#e0e0e0" stroke="#999999" points="161,-129 88,-129 88,-110 161,-110 161,-129"/>
<text text-anchor="middle" x="124.5" y="-117" font-family="Helvetica,sans-Serif" font-size="10.00">string_view</text>
</a>
</g>
</g>
<!-- Node2&#45;&gt;Node39 -->
<g id="edge39_Node000002_Node000039" class="edge">
<title>Node2&#45;&gt;Node39</title>
<g id="a_edge39_Node000002_Node000039"><a xlink:title=" ">
<path fill="none" stroke="#63b8ff" d="M87.77,-164.75C94.04,-157.18 103.29,-146.05 110.93,-136.84"/>
<polygon fill="#63b8ff" stroke="#63b8ff" points="113.67,-139.02 117.37,-129.09 108.29,-134.55 113.67,-139.02"/>
</a>
</g>
</g>
<!-- Node4 -->
<g id="Node000004" class="node">
<title>Node4</title>
<g id="a_Node000004"><a xlink:title=" ">
<polygon fill="#e0e0e0" stroke="#999999" points="422.5,-19 352.5,-19 352.5,0 422.5,0 422.5,-19"/>
<text text-anchor="middle" x="387.5" y="-7" font-family="Helvetica,sans-Serif" font-size="10.00">Windows.h</text>
</a>
</g>
</g>
<!-- Node3&#45;&gt;Node4 -->
<g id="edge3_Node000003_Node000004" class="edge">
<title>Node3&#45;&gt;Node4</title>
<g id="a_edge3_Node000003_Node000004"><a xlink:title=" ">
<path fill="none" stroke="#63b8ff" d="M1293.79,-63.56C1150.87,-63.1 764.26,-58.13 433.24,-19.03"/>
<polygon fill="#63b8ff" stroke="#63b8ff" points="433.32,-15.51 422.97,-17.8 432.49,-22.46 433.32,-15.51"/>
</a>
</g>
</g>
<!-- Node5 -->
<g id="Node000005" class="node">
<title>Node5</title>
<g id="a_Node000005"><a xlink:title=" ">
<polygon fill="#e0e0e0" stroke="#999999" points="482,-19 441,-19 441,0 482,0 482,-19"/>
<text text-anchor="middle" x="461.5" y="-7" font-family="Helvetica,sans-Serif" font-size="10.00">wrl.h</text>
</a>
</g>
</g>
<!-- Node3&#45;&gt;Node5 -->
<g id="edge4_Node000003_Node000005" class="edge">
<title>Node3&#45;&gt;Node5</title>
<g id="a_edge4_Node000003_Node000005"><a xlink:title=" ">
<path fill="none" stroke="#63b8ff" d="M1293.95,-62.3C1131.49,-58.57 664.54,-45.91 492.22,-18.85"/>
<polygon fill="#63b8ff" stroke="#63b8ff" points="492.71,-15.39 482.27,-17.22 491.57,-22.29 492.71,-15.39"/>
</a>
</g>
</g>
<!-- Node6 -->
<g id="Node000006" class="node">
<title>Node6</title>
<g id="a_Node000006"><a xlink:title=" ">
<polygon fill="#e0e0e0" stroke="#999999" points="571,-19 500,-19 500,0 571,0 571,-19"/>
<text text-anchor="middle" x="535.5" y="-7" font-family="Helvetica,sans-Serif" font-size="10.00">wrl/client.h</text>
</a>
</g>
</g>
<!-- Node3&#45;&gt;Node6 -->
<g id="edge5_Node000003_Node000006" class="edge">
<title>Node3&#45;&gt;Node6</title>
<g id="a_edge5_Node000003_Node000006"><a xlink:title=" ">
<path fill="none" stroke="#63b8ff" d="M1293.76,-62.72C1167.52,-60.45 853.76,-51.82 581.38,-18.92"/>
<polygon fill="#63b8ff" stroke="#63b8ff" points="581.65,-15.43 571.3,-17.69 580.8,-22.38 581.65,-15.43"/>
</a>
</g>
</g>
<!-- Node7 -->
<g id="Node000007" class="node">
<title>Node7</title>
<g id="a_Node000007"><a xlink:title=" ">
<polygon fill="#e0e0e0" stroke="#999999" points="639.5,-19 589.5,-19 589.5,0 639.5,0 639.5,-19"/>
<text text-anchor="middle" x="614.5" y="-7" font-family="Helvetica,sans-Serif" font-size="10.00">cstdint</text>
</a>
</g>
</g>
<!-- Node3&#45;&gt;Node7 -->
<g id="edge6_Node000003_Node000007" class="edge">
<title>Node3&#45;&gt;Node7</title>
<g id="a_edge6_Node000003_Node000007"><a xlink:title=" ">
<path fill="none" stroke="#63b8ff" d="M1293.71,-63.38C1175.42,-62.39 894.05,-56.11 649.78,-18.89"/>
<polygon fill="#63b8ff" stroke="#63b8ff" points="650.06,-15.4 639.65,-17.33 649,-22.31 650.06,-15.4"/>
</a>
</g>
</g>
<!-- Node8 -->
<g id="Node000008" class="node">
<title>Node8</title>
<g id="a_Node000008"><a xlink:title=" ">
<polygon fill="#e0e0e0" stroke="#999999" points="717.5,-19 657.5,-19 657.5,0 717.5,0 717.5,-19"/>
<text text-anchor="middle" x="687.5" y="-7" font-family="Helvetica,sans-Serif" font-size="10.00">iostream</text>
</a>
</g>
</g>
<!-- Node3&#45;&gt;Node8 -->
<g id="edge7_Node000003_Node000008" class="edge">
<title>Node3&#45;&gt;Node8</title>
<g id="a_edge7_Node000003_Node000008"><a xlink:title=" ">
<path fill="none" stroke="#63b8ff" d="M1293.85,-62.18C1185.65,-59.06 942.02,-49.2 727.83,-18.97"/>
<polygon fill="#63b8ff" stroke="#63b8ff" points="728.05,-15.47 717.66,-17.52 727.06,-22.4 728.05,-15.47"/>
</a>
</g>
</g>
<!-- Node9 -->
<g id="Node000009" class="node">
<title>Node9</title>
<g id="a_Node000009"><a xlink:title=" ">
<polygon fill="#e0e0e0" stroke="#999999" points="789,-19 736,-19 736,0 789,0 789,-19"/>
<text text-anchor="middle" x="762.5" y="-7" font-family="Helvetica,sans-Serif" font-size="10.00">string.h</text>
</a>
</g>
</g>
<!-- Node3&#45;&gt;Node9 -->
<g id="edge8_Node000003_Node000009" class="edge">
<title>Node3&#45;&gt;Node9</title>
<g id="a_edge8_Node000003_Node000009"><a xlink:title=" ">
<path fill="none" stroke="#63b8ff" d="M1293.62,-61.88C1194.77,-58.43 984.79,-48.24 799.11,-19.02"/>
<polygon fill="#63b8ff" stroke="#63b8ff" points="799.59,-15.55 789.16,-17.44 798.49,-22.47 799.59,-15.55"/>
</a>
</g>
</g>
<!-- Node10 -->
<g id="Node000010" class="node">
<title>Node10</title>
<g id="a_Node000010"><a xlink:title=" ">
<polygon fill="#e0e0e0" stroke="#999999" points="185.5,-19 141.5,-19 141.5,0 185.5,0 185.5,-19"/>
<text text-anchor="middle" x="163.5" y="-7" font-family="Helvetica,sans-Serif" font-size="10.00">string</text>
</a>
</g>
</g>
<!-- Node3&#45;&gt;Node10 -->
<g id="edge9_Node000003_Node000010" class="edge">
<title>Node3&#45;&gt;Node10</title>
<g id="a_edge9_Node000003_Node000010"><a xlink:title=" ">
<path fill="none" stroke="#63b8ff" d="M1293.88,-63.04C1095.25,-61.14 430,-52.52 195.87,-18.77"/>
<polygon fill="#63b8ff" stroke="#63b8ff" points="196.13,-15.27 185.72,-17.25 195.09,-22.19 196.13,-15.27"/>
</a>
</g>
</g>
<!-- Node11 -->
<g id="Node000011" class="node">
<title>Node11</title>
<g id="a_Node000011"><a xlink:title=" ">
<polygon fill="#e0e0e0" stroke="#999999" points="251,-19 204,-19 204,0 251,0 251,-19"/>
<text text-anchor="middle" x="227.5" y="-7" font-family="Helvetica,sans-Serif" font-size="10.00">vector</text>
</a>
</g>
</g>
<!-- Node3&#45;&gt;Node11 -->
<g id="edge10_Node000003_Node000011" class="edge">
<title>Node3&#45;&gt;Node11</title>
<g id="a_edge10_Node000003_Node000011"><a xlink:title=" ">
<path fill="none" stroke="#63b8ff" d="M1293.74,-62.82C1102.49,-60.29 481.74,-49.96 261.33,-18.89"/>
<polygon fill="#63b8ff" stroke="#63b8ff" points="261.55,-15.39 251.14,-17.4 260.53,-22.31 261.55,-15.39"/>
</a>
</g>
</g>
<!-- Node12 -->
<g id="Node000012" class="node">
<title>Node12</title>
<g id="a_Node000012"><a xlink:title=" ">
<polygon fill="#e0e0e0" stroke="#999999" points="854,-19 807,-19 807,0 854,0 854,-19"/>
<text text-anchor="middle" x="830.5" y="-7" font-family="Helvetica,sans-Serif" font-size="10.00">deque</text>
</a>
</g>
</g>
<!-- Node3&#45;&gt;Node12 -->
<g id="edge11_Node000003_Node000012" class="edge">
<title>Node3&#45;&gt;Node12</title>
<g id="a_edge11_Node000003_Node000012"><a xlink:title=" ">
<path fill="none" stroke="#63b8ff" d="M1293.73,-61.43C1204.18,-57.49 1024.61,-46.82 864.21,-19.03"/>
<polygon fill="#63b8ff" stroke="#63b8ff" points="864.62,-15.55 854.17,-17.26 863.41,-22.44 864.62,-15.55"/>
</a>
</g>
</g>
<!-- Node13 -->
<g id="Node000013" class="node">
<title>Node13</title>
<g id="a_Node000013"><a xlink:title=" ">
<polygon fill="#e0e0e0" stroke="#999999" points="965,-19 872,-19 872,0 965,0 965,-19"/>
<text text-anchor="middle" x="918.5" y="-7" font-family="Helvetica,sans-Serif" font-size="10.00">unordered_map</text>
</a>
</g>
</g>
<!-- Node3&#45;&gt;Node13 -->
<g id="edge12_Node000003_Node000013" class="edge">
<title>Node3&#45;&gt;Node13</title>
<g id="a_edge12_Node000003_Node000013"><a xlink:title=" ">
<path fill="none" stroke="#63b8ff" d="M1293.73,-57.37C1222.07,-49.5 1094.73,-35.08 975.29,-19.07"/>
<polygon fill="#63b8ff" stroke="#63b8ff" points="975.61,-15.58 965.23,-17.71 974.68,-22.51 975.61,-15.58"/>
</a>
</g>
</g>
<!-- Node14 -->
<g id="Node000014" class="node">
<title>Node14</title>
<g id="a_Node000014"><a xlink:title=" ">
<polygon fill="#e0e0e0" stroke="#999999" points="1021.5,-19 983.5,-19 983.5,0 1021.5,0 1021.5,-19"/>
<text text-anchor="middle" x="1002.5" y="-7" font-family="Helvetica,sans-Serif" font-size="10.00">map</text>
</a>
</g>
</g>
<!-- Node3&#45;&gt;Node14 -->
<g id="edge13_Node000003_Node000014" class="edge">
<title>Node3&#45;&gt;Node14</title>
<g id="a_edge13_Node000003_Node000014"><a xlink:title=" ">
<path fill="none" stroke="#63b8ff" d="M1293.96,-58.34C1231.77,-52.06 1128.83,-39.9 1031.66,-18.94"/>
<polygon fill="#63b8ff" stroke="#63b8ff" points="1032.19,-15.48 1021.68,-16.75 1030.69,-22.31 1032.19,-15.48"/>
</a>
</g>
</g>
<!-- Node15 -->
<g id="Node000015" class="node">
<title>Node15</title>
<g id="a_Node000015"><a xlink:title=" ">
<polygon fill="#e0e0e0" stroke="#999999" points="1097.5,-19 1039.5,-19 1039.5,0 1097.5,0 1097.5,-19"/>
<text text-anchor="middle" x="1068.5" y="-7" font-family="Helvetica,sans-Serif" font-size="10.00">memory</text>
</a>
</g>
</g>
<!-- Node3&#45;&gt;Node15 -->
<g id="edge14_Node000003_Node000015" class="edge">
<title>Node3&#45;&gt;Node15</title>
<g id="a_edge14_Node000003_Node000015"><a xlink:title=" ">
<path fill="none" stroke="#63b8ff" d="M1300.39,-54.96C1253.2,-46.78 1180.3,-33.81 1107.75,-19.19"/>
<polygon fill="#63b8ff" stroke="#63b8ff" points="1108.02,-15.67 1097.52,-17.12 1106.63,-22.53 1108.02,-15.67"/>
</a>
</g>
</g>
<!-- Node16 -->
<g id="Node000016" class="node">
<title>Node16</title>
<g id="a_Node000016"><a xlink:title=" ">
<polygon fill="#e0e0e0" stroke="#999999" points="2735.5,-19 2671.5,-19 2671.5,0 2735.5,0 2735.5,-19"/>
<text text-anchor="middle" x="2703.5" y="-7" font-family="Helvetica,sans-Serif" font-size="10.00">algorithm</text>
</a>
</g>
</g>
<!-- Node3&#45;&gt;Node16 -->
<g id="edge15_Node000003_Node000016" class="edge">
<title>Node3&#45;&gt;Node16</title>
<g id="a_edge15_Node000003_Node000016"><a xlink:title=" ">
<path fill="none" stroke="#63b8ff" d="M1407.01,-62.87C1622.57,-60.25 2393.93,-49.06 2661.29,-18.88"/>
<polygon fill="#63b8ff" stroke="#63b8ff" points="2661.83,-22.34 2671.36,-17.7 2661.02,-15.39 2661.83,-22.34"/>
</a>
</g>
</g>
<!-- Node17 -->
<g id="Node000017" class="node">
<title>Node17</title>
<g id="a_Node000017"><a xlink:title=" ">
<polygon fill="#e0e0e0" stroke="#999999" points="334,-19 269,-19 269,0 334,0 334,-19"/>
<text text-anchor="middle" x="301.5" y="-7" font-family="Helvetica,sans-Serif" font-size="10.00">functional</text>
</a>
</g>
</g>
<!-- Node3&#45;&gt;Node17 -->
<g id="edge16_Node000003_Node000017" class="edge">
<title>Node3&#45;&gt;Node17</title>
<g id="a_edge16_Node000003_Node000017"><a xlink:title=" ">
<path fill="none" stroke="#63b8ff" d="M1293.74,-64.07C1141.46,-64.95 711.14,-63.12 344.45,-18.89"/>
<polygon fill="#63b8ff" stroke="#63b8ff" points="344.79,-15.4 334.44,-17.67 343.94,-22.35 344.79,-15.4"/>
</a>
</g>
</g>
<!-- Node18 -->
<g id="Node000018" class="node">
<title>Node18</title>
<g id="a_Node000018"><a xlink:title=" ">
<polygon fill="#e0e0e0" stroke="#999999" points="1165.5,-19 1115.5,-19 1115.5,0 1165.5,0 1165.5,-19"/>
<text text-anchor="middle" x="1140.5" y="-7" font-family="Helvetica,sans-Serif" font-size="10.00">chrono</text>
</a>
</g>
</g>
<!-- Node3&#45;&gt;Node18 -->
<g id="edge17_Node000003_Node000018" class="edge">
<title>Node3&#45;&gt;Node18</title>
<g id="a_edge17_Node000003_Node000018"><a xlink:title=" ">
<path fill="none" stroke="#63b8ff" d="M1316.76,-54.98C1278.02,-45.21 1214.77,-29.25 1175.51,-19.34"/>
<polygon fill="#63b8ff" stroke="#63b8ff" points="1176.14,-15.89 1165.59,-16.83 1174.43,-22.67 1176.14,-15.89"/>
</a>
</g>
</g>
<!-- Node19 -->
<g id="Node000019" class="node">
<title>Node19</title>
<g id="a_Node000019"><a xlink:title=" ">
<polygon fill="#e0e0e0" stroke="#999999" points="1229.5,-19 1183.5,-19 1183.5,0 1229.5,0 1229.5,-19"/>
<text text-anchor="middle" x="1206.5" y="-7" font-family="Helvetica,sans-Serif" font-size="10.00">cstdio</text>
</a>
</g>
</g>
<!-- Node3&#45;&gt;Node19 -->
<g id="edge18_Node000003_Node000019" class="edge">
<title>Node3&#45;&gt;Node19</title>
<g id="a_edge18_Node000003_Node000019"><a xlink:title=" ">
<path fill="none" stroke="#63b8ff" d="M1327.36,-54.98C1303.54,-46.21 1266.19,-32.47 1239.32,-22.58"/>
<polygon fill="#63b8ff" stroke="#63b8ff" points="1240.17,-19.16 1229.58,-18.99 1237.75,-25.73 1240.17,-19.16"/>
</a>
</g>
</g>
<!-- Node20 -->
<g id="Node000020" class="node">
<title>Node20</title>
<g id="a_Node000020"><a xlink:title=" ">
<polygon fill="#e0e0e0" stroke="#999999" points="1299.5,-19 1247.5,-19 1247.5,0 1299.5,0 1299.5,-19"/>
<text text-anchor="middle" x="1273.5" y="-7" font-family="Helvetica,sans-Serif" font-size="10.00">cassert</text>
</a>
</g>
</g>
<!-- Node3&#45;&gt;Node20 -->
<g id="edge19_Node000003_Node000020" class="edge">
<title>Node3&#45;&gt;Node20</title>
<g id="a_edge19_Node000003_Node000020"><a xlink:title=" ">
<path fill="none" stroke="#63b8ff" d="M1338.13,-54.98C1326.41,-46.92 1308.58,-34.65 1294.61,-25.03"/>
<polygon fill="#63b8ff" stroke="#63b8ff" points="1296.32,-21.96 1286.1,-19.17 1292.35,-27.72 1296.32,-21.96"/>
</a>
</g>
</g>
<!-- Node21 -->
<g id="Node000021" class="node">
<title>Node21</title>
<g id="a_Node000021"><a xlink:title=" ">
<polygon fill="#e0e0e0" stroke="#999999" points="1383,-19 1318,-19 1318,0 1383,0 1383,-19"/>
<text text-anchor="middle" x="1350.5" y="-7" font-family="Helvetica,sans-Serif" font-size="10.00">typeindex</text>
</a>
</g>
</g>
<!-- Node3&#45;&gt;Node21 -->
<g id="edge20_Node000003_Node000021" class="edge">
<title>Node3&#45;&gt;Node21</title>
<g id="a_edge20_Node000003_Node000021"><a xlink:title=" ">
<path fill="none" stroke="#63b8ff" d="M1350.5,-54.75C1350.5,-47.8 1350.5,-37.85 1350.5,-29.13"/>
<polygon fill="#63b8ff" stroke="#63b8ff" points="1354,-29.09 1350.5,-19.09 1347,-29.09 1354,-29.09"/>
</a>
</g>
</g>
<!-- Node22 -->
<g id="Node000022" class="node">
<title>Node22</title>
<g id="a_Node000022"><a xlink:title=" ">
<polygon fill="#e0e0e0" stroke="#999999" points="1469.5,-19 1401.5,-19 1401.5,0 1469.5,0 1469.5,-19"/>
<text text-anchor="middle" x="1435.5" y="-7" font-family="Helvetica,sans-Serif" font-size="10.00">filesystem</text>
</a>
</g>
</g>
<!-- Node3&#45;&gt;Node22 -->
<g id="edge21_Node000003_Node000022" class="edge">
<title>Node3&#45;&gt;Node22</title>
<g id="a_edge21_Node000003_Node000022"><a xlink:title=" ">
<path fill="none" stroke="#63b8ff" d="M1364.16,-54.98C1377.34,-46.77 1397.53,-34.18 1413.07,-24.49"/>
<polygon fill="#63b8ff" stroke="#63b8ff" points="1414.96,-27.43 1421.59,-19.17 1411.26,-21.49 1414.96,-27.43"/>
</a>
</g>
</g>
<!-- Node23 -->
<g id="Node000023" class="node">
<title>Node23</title>
<g id="a_Node000023"><a xlink:title=" ">
<polygon fill="#e0e0e0" stroke="#999999" points="1519.5,-19 1487.5,-19 1487.5,0 1519.5,0 1519.5,-19"/>
<text text-anchor="middle" x="1503.5" y="-7" font-family="Helvetica,sans-Serif" font-size="10.00">set</text>
</a>
</g>
</g>
<!-- Node3&#45;&gt;Node23 -->
<g id="edge22_Node000003_Node000023" class="edge">
<title>Node3&#45;&gt;Node23</title>
<g id="a_edge22_Node000003_Node000023"><a xlink:title=" ">
<path fill="none" stroke="#63b8ff" d="M1375.08,-54.98C1403.22,-45.24 1449.1,-29.35 1477.73,-19.43"/>
<polygon fill="#63b8ff" stroke="#63b8ff" points="1479.12,-22.65 1487.43,-16.07 1476.83,-16.03 1479.12,-22.65"/>
</a>
</g>
</g>
<!-- Node24 -->
<g id="Node000024" class="node">
<title>Node24</title>
<g id="a_Node000024"><a xlink:title=" ">
<polygon fill="#e0e0e0" stroke="#999999" points="1593,-19 1538,-19 1538,0 1593,0 1593,-19"/>
<text text-anchor="middle" x="1565.5" y="-7" font-family="Helvetica,sans-Serif" font-size="10.00">fstream</text>
</a>
</g>
</g>
<!-- Node3&#45;&gt;Node24 -->
<g id="edge23_Node000003_Node000024" class="edge">
<title>Node3&#45;&gt;Node24</title>
<g id="a_edge23_Node000003_Node000024"><a xlink:title=" ">
<path fill="none" stroke="#63b8ff" d="M1385.04,-54.98C1424.22,-45.33 1487.87,-29.64 1528.16,-19.7"/>
<polygon fill="#63b8ff" stroke="#63b8ff" points="1529.01,-23.1 1537.88,-17.31 1527.33,-16.3 1529.01,-23.1"/>
</a>
</g>
</g>
<!-- Node25 -->
<g id="Node000025" class="node">
<title>Node25</title>
<g id="a_Node000025"><a xlink:title=" ">
<polygon fill="#e0e0e0" stroke="#999999" points="1667.5,-19 1611.5,-19 1611.5,0 1667.5,0 1667.5,-19"/>
<text text-anchor="middle" x="1639.5" y="-7" font-family="Helvetica,sans-Serif" font-size="10.00">sstream</text>
</a>
</g>
</g>
<!-- Node3&#45;&gt;Node25 -->
<g id="edge24_Node000003_Node000025" class="edge">
<title>Node3&#45;&gt;Node25</title>
<g id="a_edge24_Node000003_Node000025"><a xlink:title=" ">
<path fill="none" stroke="#63b8ff" d="M1402.54,-54.97C1453.4,-46.47 1532.94,-32.74 1601.5,-19 1601.6,-18.98 1601.7,-18.96 1601.8,-18.94"/>
<polygon fill="#63b8ff" stroke="#63b8ff" points="1602.24,-22.42 1611.31,-16.95 1600.8,-15.57 1602.24,-22.42"/>
</a>
</g>
</g>
<!-- Node26 -->
<g id="Node000026" class="node">
<title>Node26</title>
<g id="a_Node000026"><a xlink:title=" ">
<polygon fill="#e0e0e0" stroke="#999999" points="1733.5,-19 1685.5,-19 1685.5,0 1733.5,0 1733.5,-19"/>
<text text-anchor="middle" x="1709.5" y="-7" font-family="Helvetica,sans-Serif" font-size="10.00">mutex</text>
</a>
</g>
</g>
<!-- Node3&#45;&gt;Node26 -->
<g id="edge25_Node000003_Node000026" class="edge">
<title>Node3&#45;&gt;Node26</title>
<g id="a_edge25_Node000003_Node000026"><a xlink:title=" ">
<path fill="none" stroke="#63b8ff" d="M1407.07,-57.8C1470.25,-50.98 1575.68,-38.26 1675.47,-18.99"/>
<polygon fill="#63b8ff" stroke="#63b8ff" points="1676.28,-22.4 1685.42,-17.05 1674.94,-15.53 1676.28,-22.4"/>
</a>
</g>
</g>
<!-- Node27 -->
<g id="Node000027" class="node">
<title>Node27</title>
<g id="a_Node000027"><a xlink:title=" ">
<polygon fill="#e0e0e0" stroke="#999999" points="1805.5,-19 1751.5,-19 1751.5,0 1805.5,0 1805.5,-19"/>
<text text-anchor="middle" x="1778.5" y="-7" font-family="Helvetica,sans-Serif" font-size="10.00">random</text>
</a>
</g>
</g>
<!-- Node3&#45;&gt;Node27 -->
<g id="edge26_Node000003_Node000027" class="edge">
<title>Node3&#45;&gt;Node27</title>
<g id="a_edge26_Node000003_Node000027"><a xlink:title=" ">
<path fill="none" stroke="#63b8ff" d="M1407.28,-59.19C1481.78,-53.05 1616.72,-40.32 1741.34,-19"/>
<polygon fill="#63b8ff" stroke="#63b8ff" points="1742.19,-22.41 1751.44,-17.25 1740.99,-15.51 1742.19,-22.41"/>
</a>
</g>
</g>
<!-- Node28 -->
<g id="Node000028" class="node">
<title>Node28</title>
<g id="a_Node000028"><a xlink:title=" ">
<polygon fill="#e0e0e0" stroke="#999999" points="1871.5,-19 1823.5,-19 1823.5,0 1871.5,0 1871.5,-19"/>
<text text-anchor="middle" x="1847.5" y="-7" font-family="Helvetica,sans-Serif" font-size="10.00">thread</text>
</a>
</g>
</g>
<!-- Node3&#45;&gt;Node28 -->
<g id="edge27_Node000003_Node000028" class="edge">
<title>Node3&#45;&gt;Node28</title>
<g id="a_edge27_Node000003_Node000028"><a xlink:title=" ">
<path fill="none" stroke="#63b8ff" d="M1407.31,-60.92C1493.27,-56.38 1661.61,-45.05 1813.47,-18.9"/>
<polygon fill="#63b8ff" stroke="#63b8ff" points="1814.2,-22.33 1823.44,-17.16 1812.99,-15.43 1814.2,-22.33"/>
</a>
</g>
</g>
<!-- Node29 -->
<g id="Node000029" class="node">
<title>Node29</title>
<g id="a_Node000029"><a xlink:title=" ">
<polygon fill="#e0e0e0" stroke="#999999" points="1939.5,-19 1889.5,-19 1889.5,0 1939.5,0 1939.5,-19"/>
<text text-anchor="middle" x="1914.5" y="-7" font-family="Helvetica,sans-Serif" font-size="10.00">atomic</text>
</a>
</g>
</g>
<!-- Node3&#45;&gt;Node29 -->
<g id="edge28_Node000003_Node000029" class="edge">
<title>Node3&#45;&gt;Node29</title>
<g id="a_edge28_Node000003_Node000029"><a xlink:title=" ">
<path fill="none" stroke="#63b8ff" d="M1407.35,-61.73C1502.97,-58.1 1702.13,-47.73 1879.32,-18.92"/>
<polygon fill="#63b8ff" stroke="#63b8ff" points="1880.05,-22.35 1889.34,-17.27 1878.91,-15.44 1880.05,-22.35"/>
</a>
</g>
</g>
<!-- Node30 -->
<g id="Node000030" class="node">
<title>Node30</title>
<g id="a_Node000030"><a xlink:title=" ">
<polygon fill="#e0e0e0" stroke="#999999" points="2007,-19 1958,-19 1958,0 2007,0 2007,-19"/>
<text text-anchor="middle" x="1982.5" y="-7" font-family="Helvetica,sans-Serif" font-size="10.00">cctype</text>
</a>
</g>
</g>
<!-- Node3&#45;&gt;Node30 -->
<g id="edge29_Node000003_Node000030" class="edge">
<title>Node3&#45;&gt;Node30</title>
<g id="a_edge29_Node000003_Node000030"><a xlink:title=" ">
<path fill="none" stroke="#63b8ff" d="M1407.35,-62.49C1512.35,-59.94 1743.8,-51.02 1947.72,-18.82"/>
<polygon fill="#63b8ff" stroke="#63b8ff" points="1948.4,-22.25 1957.72,-17.21 1947.29,-15.34 1948.4,-22.25"/>
</a>
</g>
</g>
<!-- Node31 -->
<g id="Node000031" class="node">
<title>Node31</title>
<g id="a_Node000031"><a xlink:title=" ">
<polygon fill="#e0e0e0" stroke="#999999" points="2081.5,-19 2025.5,-19 2025.5,0 2081.5,0 2081.5,-19"/>
<text text-anchor="middle" x="2053.5" y="-7" font-family="Helvetica,sans-Serif" font-size="10.00">d3d12.h</text>
</a>
</g>
</g>
<!-- Node3&#45;&gt;Node31 -->
<g id="edge30_Node000003_Node000031" class="edge">
<title>Node3&#45;&gt;Node31</title>
<g id="a_edge30_Node000003_Node000031"><a xlink:title=" ">
<path fill="none" stroke="#63b8ff" d="M1407.3,-62.63C1522.54,-60.21 1791.9,-51.3 2015.5,-19 2015.6,-18.99 2015.7,-18.97 2015.8,-18.96"/>
<polygon fill="#63b8ff" stroke="#63b8ff" points="2016.11,-22.45 2025.37,-17.3 2014.92,-15.56 2016.11,-22.45"/>
</a>
</g>
</g>
<!-- Node32 -->
<g id="Node000032" class="node">
<title>Node32</title>
<g id="a_Node000032"><a xlink:title=" ">
<polygon fill="#e0e0e0" stroke="#999999" points="2163.5,-19 2099.5,-19 2099.5,0 2163.5,0 2163.5,-19"/>
<text text-anchor="middle" x="2131.5" y="-7" font-family="Helvetica,sans-Serif" font-size="10.00">dxgi1_6.h</text>
</a>
</g>
</g>
<!-- Node3&#45;&gt;Node32 -->
<g id="edge31_Node000003_Node000032" class="edge">
<title>Node3&#45;&gt;Node32</title>
<g id="a_edge31_Node000003_Node000032"><a xlink:title=" ">
<path fill="none" stroke="#63b8ff" d="M1407.4,-62.87C1530.25,-60.91 1829.53,-52.89 2089.34,-18.95"/>
<polygon fill="#63b8ff" stroke="#63b8ff" points="2089.89,-22.4 2099.35,-17.62 2088.97,-15.46 2089.89,-22.4"/>
</a>
</g>
</g>
<!-- Node33 -->
<g id="Node000033" class="node">
<title>Node33</title>
<g id="a_Node000033"><a xlink:title=" ">
<polygon fill="#e0e0e0" stroke="#999999" points="2267.5,-19 2181.5,-19 2181.5,0 2267.5,0 2267.5,-19"/>
<text text-anchor="middle" x="2224.5" y="-7" font-family="Helvetica,sans-Serif" font-size="10.00">d3dcompiler.h</text>
</a>
</g>
</g>
<!-- Node3&#45;&gt;Node33 -->
<g id="edge32_Node000003_Node000033" class="edge">
<title>Node3&#45;&gt;Node33</title>
<g id="a_edge32_Node000003_Node000033"><a xlink:title=" ">
<path fill="none" stroke="#63b8ff" d="M1407.48,-62.53C1539.83,-59.82 1878.48,-50.28 2171.45,-18.98"/>
<polygon fill="#63b8ff" stroke="#63b8ff" points="2171.85,-22.46 2181.42,-17.91 2171.1,-15.5 2171.85,-22.46"/>
</a>
</g>
</g>
<!-- Node34 -->
<g id="Node000034" class="node">
<title>Node34</title>
<g id="a_Node000034"><a xlink:title=" ">
<polygon fill="#e0e0e0" stroke="#999999" points="2839.5,-19 2753.5,-19 2753.5,0 2839.5,0 2839.5,-19"/>
<text text-anchor="middle" x="2796.5" y="-7" font-family="Helvetica,sans-Serif" font-size="10.00">DirectXMath.h</text>
</a>
</g>
</g>
<!-- Node3&#45;&gt;Node34 -->
<g id="edge33_Node000003_Node000034" class="edge">
<title>Node3&#45;&gt;Node34</title>
<g id="a_edge33_Node000003_Node000034"><a xlink:title=" ">
<path fill="none" stroke="#63b8ff" d="M1407.38,-62.67C1631.93,-59.26 2457.99,-45.22 2743.11,-18.96"/>
<polygon fill="#63b8ff" stroke="#63b8ff" points="2743.8,-22.41 2753.43,-17.98 2743.14,-15.44 2743.8,-22.41"/>
</a>
</g>
</g>
<!-- Node35 -->
<g id="Node000035" class="node">
<title>Node35</title>
<g id="a_Node000035"><a xlink:title=" ">
<polygon fill="#e0e0e0" stroke="#999999" points="2403,-19 2286,-19 2286,0 2403,0 2403,-19"/>
<text text-anchor="middle" x="2344.5" y="-7" font-family="Helvetica,sans-Serif" font-size="10.00">assimp/Importer.hpp</text>
</a>
</g>
</g>
<!-- Node3&#45;&gt;Node35 -->
<g id="edge34_Node000003_Node000035" class="edge">
<title>Node3&#45;&gt;Node35</title>
<g id="a_edge34_Node000003_Node000035"><a xlink:title=" ">
<path fill="none" stroke="#63b8ff" d="M1407.24,-62.28C1550.72,-58.87 1939.89,-47.62 2275.51,-19"/>
<polygon fill="#63b8ff" stroke="#63b8ff" points="2276.26,-22.45 2285.92,-18.11 2275.66,-15.48 2276.26,-22.45"/>
</a>
</g>
</g>
<!-- Node36 -->
<g id="Node000036" class="node">
<title>Node36</title>
<g id="a_Node000036"><a xlink:title=" ">
<polygon fill="#e0e0e0" stroke="#999999" points="2513.5,-19 2421.5,-19 2421.5,0 2513.5,0 2513.5,-19"/>
<text text-anchor="middle" x="2467.5" y="-7" font-family="Helvetica,sans-Serif" font-size="10.00">assimp/scene.h</text>
</a>
</g>
</g>
<!-- Node3&#45;&gt;Node36 -->
<g id="edge35_Node000003_Node000036" class="edge">
<title>Node3&#45;&gt;Node36</title>
<g id="a_edge35_Node000003_Node000036"><a xlink:title=" ">
<path fill="none" stroke="#63b8ff" d="M1407.01,-63.29C1564.36,-62.24 2020.99,-56.06 2411.33,-18.87"/>
<polygon fill="#63b8ff" stroke="#63b8ff" points="2411.79,-22.34 2421.4,-17.9 2411.12,-15.38 2411.79,-22.34"/>
</a>
</g>
</g>
<!-- Node37 -->
<g id="Node000037" class="node">
<title>Node37</title>
<g id="a_Node000037"><a xlink:title=" ">
<polygon fill="#e0e0e0" stroke="#999999" points="2653.5,-19 2531.5,-19 2531.5,0 2653.5,0 2653.5,-19"/>
<text text-anchor="middle" x="2592.5" y="-7" font-family="Helvetica,sans-Serif" font-size="10.00">assimp/postprocess.h</text>
</a>
</g>
</g>
<!-- Node3&#45;&gt;Node37 -->
<g id="edge36_Node000003_Node000037" class="edge">
<title>Node3&#45;&gt;Node37</title>
<g id="a_edge36_Node000003_Node000037"><a xlink:title=" ">
<path fill="none" stroke="#63b8ff" d="M1407.01,-63.01C1575.04,-61.21 2086.4,-53.18 2521.19,-19.03"/>
<polygon fill="#63b8ff" stroke="#63b8ff" points="2521.75,-22.49 2531.45,-18.22 2521.2,-15.52 2521.75,-22.49"/>
</a>
</g>
</g>
<!-- Node38 -->
<g id="Node000038" class="node">
<title>Node38</title>
<g id="a_Node000038"><a xlink:href="Logger_8h.html" target="_top" xlink:title="デバッグログ出力システム">
<polygon fill="white" stroke="#666666" points="2935.5,-19 2857.5,-19 2857.5,0 2935.5,0 2935.5,-19"/>
<text text-anchor="middle" x="2896.5" y="-7" font-family="Helvetica,sans-Serif" font-size="10.00">Log/Logger.h</text>
</a>
</g>
</g>
<!-- Node3&#45;&gt;Node38 -->
<g id="edge37_Node000003_Node000038" class="edge">
<title>Node3&#45;&gt;Node38</title>
<g id="a_edge37_Node000003_Node000038"><a xlink:title=" ">
<path fill="none" stroke="#63b8ff" d="M1407.2,-62.89C1643.88,-60.22 2553.34,-48.43 2839.5,-19 2842,-18.74 2844.58,-18.43 2847.18,-18.08"/>
<polygon fill="#63b8ff" stroke="#63b8ff" points="2847.92,-21.51 2857.29,-16.57 2846.88,-14.58 2847.92,-21.51"/>
</a>
</g>
</g>
<!-- Node38&#45;&gt;Node3 -->
<g id="edge38_Node000038_Node000003" class="edge">
<title>Node38&#45;&gt;Node3</title>
<g id="a_edge38_Node000038_Node000003"><a xlink:title=" ">
<path fill="none" stroke="#63b8ff" d="M2857.08,-19.04C2571.81,-48.3 1670.37,-60.11 1417.17,-62.85"/>
<polygon fill="#63b8ff" stroke="#63b8ff" points="1416.98,-59.35 1407.02,-62.96 1417.06,-66.35 1416.98,-59.35"/>
</a>
</g>
</g>
<!-- Node40&#45;&gt;Node2 -->
<g id="edge56_Node000040_Node000002" class="edge">
<title>Node40&#45;&gt;Node2</title>
<g id="a_edge56_Node000040_Node000002"><a xlink:title=" ">
<path fill="none" stroke="#63b8ff" d="M313.31,-222.79C261.1,-212.18 183.32,-196.39 132.26,-186.01"/>
<polygon fill="#63b8ff" stroke="#63b8ff" points="132.92,-182.58 122.42,-184.02 131.53,-189.44 132.92,-182.58"/>
</a>
</g>
</g>
<!-- Node40&#45;&gt;Node10 -->
<g id="edge58_Node000040_Node000010" class="edge">
<title>Node40&#45;&gt;Node10</title>
<g id="a_edge58_Node000040_Node000010"><a xlink:title=" ">
<path fill="none" stroke="#63b8ff" d="M313.46,-224.76C286.14,-217.67 254.39,-205.33 232.5,-184 187.86,-140.51 171.35,-64.48 165.9,-29.32"/>
<polygon fill="#63b8ff" stroke="#63b8ff" points="169.32,-28.48 164.45,-19.07 162.38,-29.46 169.32,-28.48"/>
</a>
</g>
</g>
<!-- Node40&#45;&gt;Node11 -->
<g id="edge57_Node000040_Node000011" class="edge">
<title>Node40&#45;&gt;Node11</title>
<g id="a_edge57_Node000040_Node000011"><a xlink:title=" ">
<path fill="none" stroke="#63b8ff" d="M313.28,-224.53C289.02,-217.47 262.47,-205.21 246.5,-184 211.62,-137.68 218.27,-63.66 223.85,-29.24"/>
<polygon fill="#63b8ff" stroke="#63b8ff" points="227.33,-29.64 225.64,-19.18 220.44,-28.41 227.33,-29.64"/>
</a>
</g>
</g>
<!-- Node41 -->
<g id="Node000041" class="node">
<title>Node41</title>
<g id="a_Node000041"><a xlink:href="SpanAttributes_8h.html" target="_top" xlink:title="インスペクタ表示用の属性 (Attribute) 定義。">
<polygon fill="white" stroke="#666666" points="353.5,-184 255.5,-184 255.5,-165 353.5,-165 353.5,-184"/>
<text text-anchor="middle" x="304.5" y="-172" font-family="Helvetica,sans-Serif" font-size="10.00">SpanAttributes.h</text>
</a>
</g>
</g>
<!-- Node40&#45;&gt;Node41 -->
<g id="edge41_Node000040_Node000041" class="edge">
<title>Node40&#45;&gt;Node41</title>
<g id="a_edge41_Node000040_Node000041"><a xlink:title=" ">
<path fill="none" stroke="#63b8ff" d="M353.01,-219.84C343.53,-211.17 331.39,-200.08 321.62,-191.15"/>
<polygon fill="#63b8ff" stroke="#63b8ff" points="323.83,-188.43 314.09,-184.27 319.11,-193.6 323.83,-188.43"/>
</a>
</g>
</g>
<!-- Node42 -->
<g id="Node000042" class="node">
<title>Node42</title>
<g id="a_Node000042"><a xlink:href="ComponentRegistry_8h.html" target="_top" xlink:title="コンポーネントのメタデータ管理 (リフレクション)。">
<polygon fill="white" stroke="#666666" points="493,-184 372,-184 372,-165 493,-165 493,-184"/>
<text text-anchor="middle" x="432.5" y="-172" font-family="Helvetica,sans-Serif" font-size="10.00">ComponentRegistry.h</text>
</a>
</g>
</g>
<!-- Node40&#45;&gt;Node42 -->
<g id="edge42_Node000040_Node000042" class="edge">
<title>Node40&#45;&gt;Node42</title>
<g id="a_edge42_Node000040_Node000042"><a xlink:title=" ">
<path fill="none" stroke="#63b8ff" d="M383.99,-219.84C393.47,-211.17 405.61,-200.08 415.38,-191.15"/>
<polygon fill="#63b8ff" stroke="#63b8ff" points="417.89,-193.6 422.91,-184.27 413.17,-188.43 417.89,-193.6"/>
</a>
</g>
</g>
<!-- Node51 -->
<g id="Node000051" class="node">
<title>Node51</title>
<g id="a_Node000051"><a xlink:href="ImGuiUI_8h.html" target="_top" xlink:title="ImGui用のカスタムウィジェットヘルパー。">
<polygon fill="#fff0f0" stroke="red" points="2860,-129 2731,-129 2731,-110 2860,-110 2860,-129"/>
<text text-anchor="middle" x="2795.5" y="-117" font-family="Helvetica,sans-Serif" font-size="10.00">Editor/ImGui/ImGuiUI.h</text>
</a>
</g>
</g>
<!-- Node40&#45;&gt;Node51 -->
<g id="edge50_Node000040_Node000051" class="edge">
<title>Node40&#45;&gt;Node51</title>
<g id="a_edge50_Node000040_Node000051"><a xlink:title=" ">
<path fill="none" stroke="#63b8ff" d="M408.75,-219.98C435.34,-210.45 470.8,-197.22 501.5,-184 519.21,-176.38 521.76,-169.52 540.5,-165 648.66,-138.93 2342.52,-124.07 2720.92,-121.07"/>
<polygon fill="#63b8ff" stroke="#63b8ff" points="2720.97,-124.57 2730.94,-120.99 2720.91,-117.57 2720.97,-124.57"/>
</a>
</g>
</g>
<!-- Node56 -->
<g id="Node000056" class="node">
<title>Node56</title>
<g id="a_Node000056"><a xlink:title=" ">
<polygon fill="#e0e0e0" stroke="#999999" points="619,-184 550,-184 550,-165 619,-165 619,-184"/>
<text text-anchor="middle" x="584.5" y="-172" font-family="Helvetica,sans-Serif" font-size="10.00">type_traits</text>
</a>
</g>
</g>
<!-- Node40&#45;&gt;Node56 -->
<g id="edge59_Node000040_Node000056" class="edge">
<title>Node40&#45;&gt;Node56</title>
<g id="a_edge59_Node000040_Node000056"><a xlink:title=" ">
<path fill="none" stroke="#63b8ff" d="M420.24,-219.99C457.84,-209.8 508.06,-196.2 543.03,-186.73"/>
<polygon fill="#63b8ff" stroke="#63b8ff" points="544.18,-190.05 552.92,-184.05 542.35,-183.29 544.18,-190.05"/>
</a>
</g>
</g>
<!-- Node57 -->
<g id="Node000057" class="node">
<title>Node57</title>
<g id="a_Node000057"><a xlink:title=" ">
<polygon fill="#e0e0e0" stroke="#999999" points="681.5,-184 637.5,-184 637.5,-165 681.5,-165 681.5,-184"/>
<text text-anchor="middle" x="659.5" y="-172" font-family="Helvetica,sans-Serif" font-size="10.00">cfloat</text>
</a>
</g>
</g>
<!-- Node40&#45;&gt;Node57 -->
<g id="edge60_Node000040_Node000057" class="edge">
<title>Node40&#45;&gt;Node57</title>
<g id="a_edge60_Node000040_Node000057"><a xlink:title=" ">
<path fill="none" stroke="#63b8ff" d="M423.55,-224.51C473.98,-215.56 550.9,-201.26 627.36,-183.89"/>
<polygon fill="#63b8ff" stroke="#63b8ff" points="628.2,-187.29 637.17,-181.64 626.64,-180.46 628.2,-187.29"/>
</a>
</g>
</g>
<!-- Node58 -->
<g id="Node000058" class="node">
<title>Node58</title>
<g id="a_Node000058"><a xlink:title=" ">
<polygon fill="#e0e0e0" stroke="#999999" points="801,-184 700,-184 700,-165 801,-165 801,-184"/>
<text text-anchor="middle" x="750.5" y="-172" font-family="Helvetica,sans-Serif" font-size="10.00">magic_enum.hpp</text>
</a>
</g>
</g>
<!-- Node40&#45;&gt;Node58 -->
<g id="edge61_Node000040_Node000058" class="edge">
<title>Node40&#45;&gt;Node58</title>
<g id="a_edge61_Node000040_Node000058"><a xlink:title=" ">
<path fill="none" stroke="#63b8ff" d="M423.64,-225.56C494.38,-214.72 616.69,-195.99 689.95,-184.77"/>
<polygon fill="#63b8ff" stroke="#63b8ff" points="690.6,-188.21 699.95,-183.24 689.54,-181.3 690.6,-188.21"/>
</a>
</g>
</g>
<!-- Node42&#45;&gt;Node10 -->
<g id="edge47_Node000042_Node000010" class="edge">
<title>Node42&#45;&gt;Node10</title>
<g id="a_edge47_Node000042_Node000010"><a xlink:title=" ">
<path fill="none" stroke="#63b8ff" d="M417.81,-164.86C402.66,-155.93 378.38,-141.57 357.5,-129 295.42,-91.63 222.61,-46.91 186.38,-24.61"/>
<polygon fill="#63b8ff" stroke="#63b8ff" points="187.93,-21.45 177.58,-19.19 184.26,-27.41 187.93,-21.45"/>
</a>
</g>
</g>
<!-- Node42&#45;&gt;Node11 -->
<g id="edge46_Node000042_Node000011" class="edge">
<title>Node42&#45;&gt;Node11</title>
<g id="a_edge46_Node000042_Node000011"><a xlink:title=" ">
<path fill="none" stroke="#63b8ff" d="M422.84,-164.85C400.35,-144.84 342.54,-94.06 291.5,-55 277.66,-44.41 261.56,-33.22 248.96,-24.71"/>
<polygon fill="#63b8ff" stroke="#63b8ff" points="250.75,-21.69 240.5,-19.03 246.85,-27.5 250.75,-21.69"/>
</a>
</g>
</g>
<!-- Node42&#45;&gt;Node17 -->
<g id="edge45_Node000042_Node000017" class="edge">
<title>Node42&#45;&gt;Node17</title>
<g id="a_edge45_Node000042_Node000017"><a xlink:title=" ">
<path fill="none" stroke="#63b8ff" d="M430.1,-164.78C423.94,-143.74 405.83,-89.36 374.5,-55 362.44,-41.77 345.55,-31.13 331.05,-23.58"/>
<polygon fill="#63b8ff" stroke="#63b8ff" points="332.45,-20.37 321.94,-19.06 329.34,-26.64 332.45,-20.37"/>
</a>
</g>
</g>
<!-- Node43 -->
<g id="Node000043" class="node">
<title>Node43</title>
<g id="a_Node000043"><a xlink:href="Entity_8h.html" target="_top" xlink:title="ECSにおけるオブジェクトの識別子 (ID) を定義します。">
<polygon fill="white" stroke="#666666" points="740.5,-129 632.5,-129 632.5,-110 740.5,-110 740.5,-129"/>
<text text-anchor="middle" x="686.5" y="-117" font-family="Helvetica,sans-Serif" font-size="10.00">ECS/Kernel/Entity.h</text>
</a>
</g>
</g>
<!-- Node42&#45;&gt;Node43 -->
<g id="edge43_Node000042_Node000043" class="edge">
<title>Node42&#45;&gt;Node43</title>
<g id="a_edge43_Node000042_Node000043"><a xlink:title=" ">
<path fill="none" stroke="#63b8ff" d="M473.31,-164.98C517.43,-155.78 587.83,-141.09 635.55,-131.13"/>
<polygon fill="#63b8ff" stroke="#63b8ff" points="636.3,-134.55 645.37,-129.08 634.87,-127.7 636.3,-134.55"/>
</a>
</g>
</g>
<!-- Node44 -->
<g id="Node000044" class="node">
<title>Node44</title>
<g id="a_Node000044"><a xlink:href="World_8h.html" target="_top" xlink:title="ECSワールド (シーン) の管理クラス。">
<polygon fill="#fff0f0" stroke="red" points="1222,-129 1113,-129 1113,-110 1222,-110 1222,-129"/>
<text text-anchor="middle" x="1167.5" y="-117" font-family="Helvetica,sans-Serif" font-size="10.00">ECS/Kernel/World.h</text>
</a>
</g>
</g>
<!-- Node42&#45;&gt;Node44 -->
<g id="edge48_Node000042_Node000044" class="edge">
<title>Node42&#45;&gt;Node44</title>
<g id="a_edge48_Node000042_Node000044"><a xlink:title=" ">
<path fill="none" stroke="#63b8ff" d="M493.06,-166.4C497.94,-165.9 502.8,-165.42 507.5,-165 725.33,-145.32 984.33,-130.29 1102.69,-123.89"/>
<polygon fill="#63b8ff" stroke="#63b8ff" points="1102.88,-127.38 1112.67,-123.35 1102.5,-120.39 1102.88,-127.38"/>
</a>
</g>
</g>
<!-- Node43&#45;&gt;Node3 -->
<g id="edge44_Node000043_Node000003" class="edge">
<title>Node43&#45;&gt;Node3</title>
<g id="a_edge44_Node000043_Node000003"><a xlink:title=" ">
<path fill="none" stroke="#63b8ff" d="M740.56,-114.19C861.14,-104.56 1151.84,-81.36 1283.59,-70.84"/>
<polygon fill="#63b8ff" stroke="#63b8ff" points="1284.25,-74.3 1293.94,-70.01 1283.69,-67.32 1284.25,-74.3"/>
</a>
</g>
</g>
<!-- Node44&#45;&gt;Node3 -->
<g id="edge49_Node000044_Node000003" class="edge">
<title>Node44&#45;&gt;Node3</title>
<g id="a_edge49_Node000044_Node000003"><a xlink:title=" ">
<path fill="none" stroke="#63b8ff" d="M1196.9,-109.98C1227.89,-101.01 1276.88,-86.82 1311.17,-76.89"/>
<polygon fill="#63b8ff" stroke="#63b8ff" points="1312.24,-80.23 1320.87,-74.08 1310.29,-73.5 1312.24,-80.23"/>
</a>
</g>
</g>
<!-- Node51&#45;&gt;Node38 -->
<g id="edge54_Node000051_Node000038" class="edge">
<title>Node51&#45;&gt;Node38</title>
<g id="a_edge54_Node000051_Node000038"><a xlink:title=" ">
<path fill="none" stroke="#63b8ff" d="M2803.77,-109.66C2820.79,-91.46 2859.98,-49.55 2881.57,-26.47"/>
<polygon fill="#63b8ff" stroke="#63b8ff" points="2884.13,-28.85 2888.4,-19.16 2879.02,-24.07 2884.13,-28.85"/>
</a>
</g>
</g>
<!-- Node52 -->
<g id="Node000052" class="node">
<title>Node52</title>
<g id="a_Node000052"><a xlink:href="SpanMath_8h.html" target="_top" xlink:title="算術ライブラリ (Vector, Matrix, Quaternion)。">
<polygon fill="#fff0f0" stroke="red" points="2813.5,-74 2685.5,-74 2685.5,-55 2813.5,-55 2813.5,-74"/>
<text text-anchor="middle" x="2749.5" y="-62" font-family="Helvetica,sans-Serif" font-size="10.00">Core/Math/SpanMath.h</text>
</a>
</g>
</g>
<!-- Node51&#45;&gt;Node52 -->
<g id="edge51_Node000051_Node000052" class="edge">
<title>Node51&#45;&gt;Node52</title>
<g id="a_edge51_Node000051_Node000052"><a xlink:title=" ">
<path fill="none" stroke="#63b8ff" d="M2787.9,-109.75C2781.34,-102.18 2771.68,-91.05 2763.69,-81.84"/>
<polygon fill="#63b8ff" stroke="#63b8ff" points="2766.15,-79.35 2756.95,-74.09 2760.87,-83.94 2766.15,-79.35"/>
</a>
</g>
</g>
<!-- Node54 -->
<g id="Node000054" class="node">
<title>Node54</title>
<g id="a_Node000054"><a xlink:title=" ">
<polygon fill="#e0e0e0" stroke="#999999" points="2923,-74 2870,-74 2870,-55 2923,-55 2923,-74"/>
<text text-anchor="middle" x="2896.5" y="-62" font-family="Helvetica,sans-Serif" font-size="10.00">imgui.h</text>
</a>
</g>
</g>
<!-- Node51&#45;&gt;Node54 -->
<g id="edge55_Node000051_Node000054" class="edge">
<title>Node51&#45;&gt;Node54</title>
<g id="a_edge55_Node000051_Node000054"><a xlink:title=" ">
<path fill="none" stroke="#63b8ff" d="M2811.73,-109.98C2827.68,-101.61 2852.28,-88.7 2870.88,-78.95"/>
<polygon fill="#63b8ff" stroke="#63b8ff" points="2872.75,-81.92 2879.98,-74.17 2869.5,-75.72 2872.75,-81.92"/>
</a>
</g>
</g>
<!-- Node52&#45;&gt;Node16 -->
<g id="edge53_Node000052_Node000016" class="edge">
<title>Node52&#45;&gt;Node16</title>
<g id="a_edge53_Node000052_Node000016"><a xlink:title=" ">
<path fill="none" stroke="#63b8ff" d="M2741.9,-54.75C2735.34,-47.18 2725.68,-36.05 2717.69,-26.84"/>
<polygon fill="#63b8ff" stroke="#63b8ff" points="2720.15,-24.35 2710.95,-19.09 2714.87,-28.94 2720.15,-24.35"/>
</a>
</g>
</g>
<!-- Node52&#45;&gt;Node34 -->
<g id="edge52_Node000052_Node000034" class="edge">
<title>Node52&#45;&gt;Node34</title>
<g id="a_edge52_Node000052_Node000034"><a xlink:title=" ">
<path fill="none" stroke="#63b8ff" d="M2757.26,-54.75C2763.97,-47.18 2773.84,-36.05 2782.01,-26.84"/>
<polygon fill="#63b8ff" stroke="#63b8ff" points="2784.87,-28.89 2788.88,-19.09 2779.63,-24.25 2784.87,-28.89"/>
</a>
</g>
</g>
</g>
</svg>
