<?xml version="1.0" encoding="UTF-8" standalone="no"?>
<!DOCTYPE svg PUBLIC "-//W3C//DTD SVG 1.1//EN"
 "http://www.w3.org/Graphics/SVG/1.1/DTD/svg11.dtd">
<!-- Generated by graphviz version 2.43.0 (0)
 -->
<!-- Title: Span::ConsoleCtrlHandler Pages: 1 -->
<!--zoomable 230 -->

<svg id="main" version="1.1" xmlns="http://www.w3.org/2000/svg" xmlns:xlink="http://www.w3.org/1999/xlink" xml:space="preserve" onload="init(evt)">

<style type="text/css"><![CDATA[
.node, .edge {opacity: 0.7;}
.node.selected, .edge.selected {opacity: 1;}
.edge:hover path { stroke: red; }
.edge:hover polygon { stroke: red; fill: red; }
]]></style>

<defs>
  <circle id="rim" cx="0" cy="0" r="7"/>
  <circle id="rim2" cx="0" cy="0" r="3.5"/>
  <g id="zoomPlus">
    <use xlink:href="#rim" fill="#404040"><set attributeName="fill" to="#808080" begin="zoomplus.mouseover" end="zoomplus.mouseout"/></use>
    <path d="M-4,0h8M0,-4v8" fill="none" stroke="white" stroke-width="1.5" pointer-events="none"/>
  </g>
  <g id="zoomMin">
    <use xlink:href="#rim" fill="#404040"><set attributeName="fill" to="#808080" begin="zoomminus.mouseover" end="zoomminus.mouseout"/></use>
    <path d="M-4,0h8" fill="none" stroke="white" stroke-width="1.5" pointer-events="none"/>
  </g>
  <g id="arrowUp" transform="translate(30 24)">
    <use xlink:href="#rim"/>
    <path pointer-events="none" fill="none" stroke="white" stroke-width="1.5" d="M0,-3.0v7 M-2.5,-0.5L0,-3.0L2.5,-0.5"/>
  </g>
  <g id="arrowRight" transform="rotate(90) translate(36 -43)">
    <use xlink:href="#rim"/>
    <path pointer-events="none" fill="none" stroke="white" stroke-width="1.5" d="M0,-3.0v7 M-2.5,-0.5L0,-3.0L2.5,-0.5"/>
  </g>
  <g id="arrowDown" transform="rotate(180) translate(-30 -48)">
    <use xlink:href="#rim"/>
    <path pointer-events="none" fill="none" stroke="white" stroke-width="1.5" d="M0,-3.0v7 M-2.5,-0.5L0,-3.0L2.5,-0.5"/>
  </g>
  <g id="arrowLeft" transform="rotate(270) translate(-36 17)">
    <use xlink:href="#rim"/>
    <path pointer-events="none" fill="none" stroke="white" stroke-width="1.5" d="M0,-3.0v7 M-2.5,-0.5L0,-3.0L2.5,-0.5"/>
  </g>
  <g id="resetDef">
    <use xlink:href="#rim2" fill="#404040"><set attributeName="fill" to="#808080" begin="reset.mouseover" end="reset.mouseout"/></use>
  </g>
</defs>
<script type="application/ecmascript">
var viewWidth = 839;
var viewHeight = 230;
var sectionId = 'dynsection-2';
</script>
<script type="application/ecmascript" xlink:href="svg.min.js"/>
<svg id="graph" class="graph">
<g id="viewport">
<title>Span::ConsoleCtrlHandler</title>
<!-- Node1 -->
<g id="Node000001" class="node">
<title>Node1</title>
<g id="a_Node000001"><a xlink:title=" ">
<polygon fill="#999999" stroke="#666666" points="141,-111 0,-111 0,-92 141,-92 141,-111"/>
<text text-anchor="middle" x="70.5" y="-99" font-family="Helvetica,sans-Serif" font-size="10.00">Span::ConsoleCtrlHandler</text>
</a>
</g>
</g>
<!-- Node2 -->
<g id="Node000002" class="node">
<title>Node2</title>
<g id="a_Node000002"><a xlink:href="classSpan_1_1Application.html#a095598d0c2e753bfb8d00acee435980f" target="_top" xlink:title="シングルトンインスタンスのポインタ取得 (存在チェック用)">
<polygon fill="white" stroke="#666666" points="298,-130 177,-130 177,-111 298,-111 298,-130"/>
<text text-anchor="middle" x="237.5" y="-118" font-family="Helvetica,sans-Serif" font-size="10.00">Span::Application::Ptr</text>
</a>
</g>
</g>
<!-- Node1&#45;&gt;Node2 -->
<g id="edge1_Node000001_Node000002" class="edge">
<title>Node1&#45;&gt;Node2</title>
<g id="a_edge1_Node000001_Node000002"><a xlink:title=" ">
<path fill="none" stroke="#63b8ff" d="M141.47,-109.56C149.84,-110.52 158.39,-111.51 166.75,-112.47"/>
<polygon fill="#63b8ff" stroke="#63b8ff" points="166.51,-115.96 176.84,-113.63 167.31,-109.01 166.51,-115.96"/>
</a>
</g>
</g>
<!-- Node3 -->
<g id="Node000003" class="node">
<title>Node3</title>
<g id="a_Node000003"><a xlink:href="classSpan_1_1Application.html#a0c44e973ca5db1d23a02a2cee66f5c11" target="_top" xlink:title=" ">
<polygon fill="white" stroke="#666666" points="441,-116.5 334,-116.5 334,-86.5 441,-86.5 441,-116.5"/>
<text text-anchor="start" x="342" y="-104.5" font-family="Helvetica,sans-Serif" font-size="10.00">Span::Application::</text>
<text text-anchor="middle" x="387.5" y="-93.5" font-family="Helvetica,sans-Serif" font-size="10.00">Application</text>
</a>
</g>
</g>
<!-- Node2&#45;&gt;Node3 -->
<g id="edge2_Node000002_Node000003" class="edge">
<title>Node2&#45;&gt;Node3</title>
<g id="a_edge2_Node000002_Node000003"><a xlink:title=" ">
<path fill="none" stroke="#63b8ff" d="M298.27,-112.83C306.6,-111.76 315.17,-110.66 323.56,-109.58"/>
<polygon fill="#63b8ff" stroke="#63b8ff" points="324.19,-113.03 333.66,-108.28 323.29,-106.09 324.19,-113.03"/>
</a>
</g>
</g>
<!-- Node3&#45;&gt;Node1 -->
<g id="edge3_Node000003_Node000001" class="edge">
<title>Node3&#45;&gt;Node1</title>
<g id="a_edge3_Node000003_Node000001"><a xlink:title=" ">
<path fill="none" stroke="#63b8ff" d="M333.78,-101.5C283.9,-101.5 208.34,-101.5 151.12,-101.5"/>
<polygon fill="#63b8ff" stroke="#63b8ff" points="151.02,-98 141.02,-101.5 151.02,-105 151.02,-98"/>
</a>
</g>
</g>
<!-- Node4 -->
<g id="Node000004" class="node">
<title>Node4</title>
<g id="a_Node000004"><a xlink:href="classSpan_1_1AssetManager.html#a8b80e59ea529e23c8c8f5280d136fbf0" target="_top" xlink:title="シングルトンインスタンスを取得します。">
<polygon fill="white" stroke="#666666" points="624,-216 484,-216 484,-197 624,-197 624,-216"/>
<text text-anchor="middle" x="554" y="-204" font-family="Helvetica,sans-Serif" font-size="10.00">Span::AssetManager::Get</text>
</a>
</g>
</g>
<!-- Node3&#45;&gt;Node4 -->
<g id="edge4_Node000003_Node000004" class="edge">
<title>Node3&#45;&gt;Node4</title>
<g id="a_edge4_Node000003_Node000004"><a xlink:title=" ">
<path fill="none" stroke="#63b8ff" d="M399.9,-116.74C415.25,-136.15 444.43,-169.37 477,-187.5 481.16,-189.82 485.61,-191.86 490.18,-193.65"/>
<polygon fill="#63b8ff" stroke="#63b8ff" points="489.11,-196.98 499.7,-197 491.43,-190.38 489.11,-196.98"/>
</a>
</g>
</g>
<!-- Node6 -->
<g id="Node000006" class="node">
<title>Node6</title>
<g id="a_Node000006"><a xlink:href="classSpan_1_1AssetManager.html#a69ad0e84f0e86f10a14693275d0872f2" target="_top" xlink:title="マネージャーを初期化します。">
<polygon fill="white" stroke="#666666" points="612,-178.5 496,-178.5 496,-148.5 612,-148.5 612,-178.5"/>
<text text-anchor="start" x="504" y="-166.5" font-family="Helvetica,sans-Serif" font-size="10.00">Span::AssetManager</text>
<text text-anchor="middle" x="554" y="-155.5" font-family="Helvetica,sans-Serif" font-size="10.00">::Initialize</text>
</a>
</g>
</g>
<!-- Node3&#45;&gt;Node6 -->
<g id="edge6_Node000003_Node000006" class="edge">
<title>Node3&#45;&gt;Node6</title>
<g id="a_edge6_Node000003_Node000006"><a xlink:title=" ">
<path fill="none" stroke="#63b8ff" d="M422.71,-116.54C439.03,-123.52 458.9,-131.75 477,-138.5 482.98,-140.73 489.26,-142.96 495.54,-145.13"/>
<polygon fill="#63b8ff" stroke="#63b8ff" points="494.77,-148.56 505.37,-148.46 497.02,-141.94 494.77,-148.56"/>
</a>
</g>
</g>
<!-- Node7 -->
<g id="Node000007" class="node">
<title>Node7</title>
<g id="a_Node000007"><a xlink:href="classSpan_1_1GuiManager.html#ab78e1a284f6d5aced7912c00ab43c559" target="_top" xlink:title="ImGuiコンテキストとバックエンドを初期化します。">
<polygon fill="white" stroke="#666666" points="631,-130 477,-130 477,-111 631,-111 631,-130"/>
<text text-anchor="middle" x="554" y="-118" font-family="Helvetica,sans-Serif" font-size="10.00">Span::GuiManager::Initialize</text>
</a>
</g>
</g>
<!-- Node3&#45;&gt;Node7 -->
<g id="edge7_Node000003_Node000007" class="edge">
<title>Node3&#45;&gt;Node7</title>
<g id="a_edge7_Node000003_Node000007"><a xlink:title=" ">
<path fill="none" stroke="#63b8ff" d="M441,-107.56C449.18,-108.51 457.81,-109.51 466.5,-110.51"/>
<polygon fill="#63b8ff" stroke="#63b8ff" points="466.38,-114.02 476.72,-111.69 467.18,-107.06 466.38,-114.02"/>
</a>
</g>
</g>
<!-- Node10 -->
<g id="Node000010" class="node">
<title>Node10</title>
<g id="a_Node000010"><a xlink:href="classSpan_1_1Input.html#aac6e8f1cf694b484ed01742f2d16d63c" target="_top" xlink:title=" ">
<polygon fill="white" stroke="#666666" points="613.5,-93 494.5,-93 494.5,-74 613.5,-74 613.5,-93"/>
<text text-anchor="middle" x="554" y="-81" font-family="Helvetica,sans-Serif" font-size="10.00">Span::Input::Initialize</text>
</a>
</g>
</g>
<!-- Node3&#45;&gt;Node10 -->
<g id="edge10_Node000003_Node000010" class="edge">
<title>Node3&#45;&gt;Node10</title>
<g id="a_edge10_Node000003_Node000010"><a xlink:title=" ">
<path fill="none" stroke="#63b8ff" d="M441,-95.76C454.83,-94.24 469.95,-92.59 484.49,-91"/>
<polygon fill="#63b8ff" stroke="#63b8ff" points="484.87,-94.48 494.43,-89.91 484.11,-87.52 484.87,-94.48"/>
</a>
</g>
</g>
<!-- Node11 -->
<g id="Node000011" class="node">
<title>Node11</title>
<g id="a_Node000011"><a xlink:href="classSpan_1_1Logger.html#a557d77ccfa31551817d7b28d985866c8" target="_top" xlink:title="ロガーを初期化し、ログファイルを開きます。">
<polygon fill="white" stroke="#666666" points="618,-56 490,-56 490,-37 618,-37 618,-56"/>
<text text-anchor="middle" x="554" y="-44" font-family="Helvetica,sans-Serif" font-size="10.00">Span::Logger::Initialize</text>
</a>
</g>
</g>
<!-- Node3&#45;&gt;Node11 -->
<g id="edge11_Node000003_Node000011" class="edge">
<title>Node3&#45;&gt;Node11</title>
<g id="a_edge11_Node000003_Node000011"><a xlink:title=" ">
<path fill="none" stroke="#63b8ff" d="M420.8,-86.5C437.36,-79.19 457.99,-70.68 477,-64.5 483.5,-62.39 490.38,-60.41 497.25,-58.59"/>
<polygon fill="#63b8ff" stroke="#63b8ff" points="498.42,-61.91 507.25,-56.06 496.7,-55.12 498.42,-61.91"/>
</a>
</g>
</g>
<!-- Node12 -->
<g id="Node000012" class="node">
<title>Node12</title>
<g id="a_Node000012"><a xlink:href="classSpan_1_1Time.html#ae9e018cd0d5a3b34b773e80c750860e7" target="_top" xlink:title="初期化（エンジン起動時）">
<polygon fill="white" stroke="#666666" points="613.5,-19 494.5,-19 494.5,0 613.5,0 613.5,-19"/>
<text text-anchor="middle" x="554" y="-7" font-family="Helvetica,sans-Serif" font-size="10.00">Span::Time::Initialize</text>
</a>
</g>
</g>
<!-- Node3&#45;&gt;Node12 -->
<g id="edge12_Node000003_Node000012" class="edge">
<title>Node3&#45;&gt;Node12</title>
<g id="a_edge12_Node000003_Node000012"><a xlink:title=" ">
<path fill="none" stroke="#63b8ff" d="M402.31,-86.32C418.55,-69.41 447.1,-42.48 477,-27.5 480.82,-25.59 484.85,-23.87 488.98,-22.34"/>
<polygon fill="#63b8ff" stroke="#63b8ff" points="490.38,-25.56 498.75,-19.06 488.16,-18.92 490.38,-25.56"/>
</a>
</g>
</g>
<!-- Node5 -->
<g id="Node000005" class="node">
<title>Node5</title>
<g id="a_Node000005"><a xlink:href="classSpan_1_1AssetManager.html#a9d65496b728f9a4fef2a5334d5a8ad56" target="_top" xlink:title=" ">
<polygon fill="white" stroke="#666666" points="807,-221.5 691,-221.5 691,-191.5 807,-191.5 807,-221.5"/>
<text text-anchor="start" x="699" y="-209.5" font-family="Helvetica,sans-Serif" font-size="10.00">Span::AssetManager</text>
<text text-anchor="middle" x="749" y="-198.5" font-family="Helvetica,sans-Serif" font-size="10.00">::AssetManager</text>
</a>
</g>
</g>
<!-- Node4&#45;&gt;Node5 -->
<g id="edge5_Node000004_Node000005" class="edge">
<title>Node4&#45;&gt;Node5</title>
<g id="a_edge5_Node000004_Node000005"><a xlink:title=" ">
<path fill="none" stroke="#63b8ff" d="M624.13,-206.5C642.57,-206.5 662.45,-206.5 680.79,-206.5"/>
<polygon fill="#63b8ff" stroke="#63b8ff" points="680.79,-210 690.79,-206.5 680.79,-203 680.79,-210"/>
</a>
</g>
</g>
<!-- Node8 -->
<g id="Node000008" class="node">
<title>Node8</title>
<g id="a_Node000008"><a xlink:href="classSpan_1_1GuiManager.html#a79fd10d93a58b741c10bd8c8477afc0a" target="_top" xlink:title="管理対象のエディタパネルを追加します。">
<polygon fill="white" stroke="#666666" points="827.5,-148 670.5,-148 670.5,-129 827.5,-129 827.5,-148"/>
<text text-anchor="middle" x="749" y="-136" font-family="Helvetica,sans-Serif" font-size="10.00">Span::GuiManager::AddPanel</text>
</a>
</g>
</g>
<!-- Node7&#45;&gt;Node8 -->
<g id="edge8_Node000007_Node000008" class="edge">
<title>Node7&#45;&gt;Node8</title>
<g id="a_edge8_Node000007_Node000008"><a xlink:title=" ">
<path fill="none" stroke="#63b8ff" d="M631,-127.59C640.63,-128.49 650.55,-129.41 660.34,-130.32"/>
<polygon fill="#63b8ff" stroke="#63b8ff" points="660.2,-133.83 670.48,-131.27 660.85,-126.86 660.2,-133.83"/>
</a>
</g>
</g>
<!-- Node9 -->
<g id="Node000009" class="node">
<title>Node9</title>
<g id="a_Node000009"><a xlink:href="classSpan_1_1GuiManager.html#ad8ff21c11b12bff5ee5b454a4dae33d0" target="_top" xlink:title="フォントや配色などのスタイル設定を適用します。">
<polygon fill="white" stroke="#666666" points="831,-111 667,-111 667,-92 831,-92 831,-111"/>
<text text-anchor="middle" x="749" y="-99" font-family="Helvetica,sans-Serif" font-size="10.00">Span::GuiManager::ApplyStyle</text>
</a>
</g>
</g>
<!-- Node7&#45;&gt;Node9 -->
<g id="edge9_Node000007_Node000009" class="edge">
<title>Node7&#45;&gt;Node9</title>
<g id="a_edge9_Node000007_Node000009"><a xlink:title=" ">
<path fill="none" stroke="#63b8ff" d="M631,-113.02C639.49,-112.18 648.21,-111.32 656.86,-110.47"/>
<polygon fill="#63b8ff" stroke="#63b8ff" points="657.37,-113.94 666.98,-109.48 656.69,-106.97 657.37,-113.94"/>
</a>
</g>
</g>
</g>
</svg>

<g id="navigator" transform="translate(0 0)" fill="#404254">
  <rect fill="#f2f5e9" fill-opacity="0.5" stroke="#606060" stroke-width=".5" x="0" y="0" width="60" height="60"/>
  <use id="zoomplus" xlink:href="#zoomPlus" x="17" y="9" onmousedown="handleZoom(evt,'in')"/>
  <use id="zoomminus" xlink:href="#zoomMin" x="42" y="9" onmousedown="handleZoom(evt,'out')"/>
  <use id="reset" xlink:href="#resetDef" x="30" y="36" onmousedown="handleReset()"/>
   <use id="arrowup" xlink:href="#arrowUp" x="0" y="0" onmousedown="handlePan(0,-1)"/>
  <use id="arrowright" xlink:href="#arrowRight" x="0" y="0" onmousedown="handlePan(1,0)"/>
  <use id="arrowdown" xlink:href="#arrowDown" x="0" y="0" onmousedown="handlePan(0,1)"/>
  <use id="arrowleft" xlink:href="#arrowLeft" x="0" y="0" onmousedown="handlePan(-1,0)"/>
</g>
<svg viewBox="0 0 15 15" width="100%" height="30px" preserveAspectRatio="xMaxYMin meet">
 <g id="arrow_out" transform="scale(0.3 0.3)">
  <a xlink:href="namespaceSpan_a3f4b8561d46e69596ba6a7c3177a92e7_cgraph_org.svg" target="_base">
   <rect id="button" ry="5" rx="5" y="6" x="6" height="38" width="38"
        fill="#f2f5e9" fill-opacity="0.5" stroke="#606060" stroke-width="1.0"/>
   <path id="arrow"
     d="M 11.500037,31.436501 C 11.940474,20.09759 22.043105,11.32322 32.158766,21.979434 L 37.068811,17.246167 C 37.068811,17.246167 37.088388,32 37.088388,32 L 22.160133,31.978069 C 22.160133,31.978069 26.997745,27.140456 26.997745,27.140456 C 18.528582,18.264221 13.291696,25.230495 11.500037,31.436501 z"
     style="fill:#404040;"/>
  </a>
 </g>
</svg>

<style type='text/css'>
<![CDATA[
[data-mouse-over-selected='false'] { opacity: 0.7; }
[data-mouse-over-selected='true']  { opacity: 1.0; }
]]>
</style>
<script type="application/ecmascript"><![CDATA[
document.addEventListener('DOMContentLoaded', (event) => {
  highlightEdges();
  highlightAdjacentNodes();
});
]]></script>
</svg>
