<?xml version="1.0" encoding="UTF-8" standalone="no"?>
<!DOCTYPE svg PUBLIC "-//W3C//DTD SVG 1.1//EN"
 "http://www.w3.org/Graphics/SVG/1.1/DTD/svg11.dtd">
<!-- Generated by graphviz version 2.43.0 (0)
 -->
<!-- Title: Engine/Source/Runtime/Components/Core/Name.h Pages: 1 -->
<!--zoomable 434 -->

<svg id="main" version="1.1" xmlns="http://www.w3.org/2000/svg" xmlns:xlink="http://www.w3.org/1999/xlink" xml:space="preserve" onload="init(evt)">

<style type="text/css"><![CDATA[
.node, .edge {opacity: 0.7;}
.node.selected, .edge.selected {opacity: 1;}
.edge:hover path { stroke: red; }
.edge:hover polygon { stroke: red; fill: red; }
]]></style>

<defs>
  <circle id="rim" cx="0" cy="0" r="7"/>
  <circle id="rim2" cx="0" cy="0" r="3.5"/>
  <g id="zoomPlus">
    <use xlink:href="#rim" fill="#404040"><set attributeName="fill" to="#808080" begin="zoomplus.mouseover" end="zoomplus.mouseout"/></use>
    <path d="M-4,0h8M0,-4v8" fill="none" stroke="white" stroke-width="1.5" pointer-events="none"/>
  </g>
  <g id="zoomMin">
    <use xlink:href="#rim" fill="#404040"><set attributeName="fill" to="#808080" begin="zoomminus.mouseover" end="zoomminus.mouseout"/></use>
    <path d="M-4,0h8" fill="none" stroke="white" stroke-width="1.5" pointer-events="none"/>
  </g>
  <g id="arrowUp" transform="translate(30 24)">
    <use xlink:href="#rim"/>
    <path pointer-events="none" fill="none" stroke="white" stroke-width="1.5" d="M0,-3.0v7 M-2.5,-0.5L0,-3.0L2.5,-0.5"/>
  </g>
  <g id="arrowRight" transform="rotate(90) translate(36 -43)">
    <use xlink:href="#rim"/>
    <path pointer-events="none" fill="none" stroke="white" stroke-width="1.5" d="M0,-3.0v7 M-2.5,-0.5L0,-3.0L2.5,-0.5"/>
  </g>
  <g id="arrowDown" transform="rotate(180) translate(-30 -48)">
    <use xlink:href="#rim"/>
    <path pointer-events="none" fill="none" stroke="white" stroke-width="1.5" d="M0,-3.0v7 M-2.5,-0.5L0,-3.0L2.5,-0.5"/>
  </g>
  <g id="arrowLeft" transform="rotate(270) translate(-36 17)">
    <use xlink:href="#rim"/>
    <path pointer-events="none" fill="none" stroke="white" stroke-width="1.5" d="M0,-3.0v7 M-2.5,-0.5L0,-3.0L2.5,-0.5"/>
  </g>
  <g id="resetDef">
    <use xlink:href="#rim2" fill="#404040"><set attributeName="fill" to="#808080" begin="reset.mouseover" end="reset.mouseout"/></use>
  </g>
</defs>
<script type="application/ecmascript">
var viewWidth = 2600;
var viewHeight = 434;
var sectionId = 'dynsection-0';
</script>
<script type="application/ecmascript" xlink:href="svg.min.js"/>
<svg id="graph" class="graph">
<g id="viewport">
<title>Engine/Source/Runtime/Components/Core/Name.h</title>
<!-- Node1 -->
<g id="Node000001" class="node">
<title>Node1</title>
<g id="a_Node000001"><a xlink:title="エンティティの名前">
<polygon fill="#999999" stroke="#666666" points="1327,-426 1179,-426 1179,-396 1327,-396 1327,-426"/>
<text text-anchor="start" x="1187" y="-414" font-family="Helvetica,sans-Serif" font-size="10.00">Engine/Source/Runtime</text>
<text text-anchor="middle" x="1253" y="-403" font-family="Helvetica,sans-Serif" font-size="10.00">/Components/Core/Name.h</text>
</a>
</g>
</g>
<!-- Node2 -->
<g id="Node000002" class="node">
<title>Node2</title>
<g id="a_Node000002"><a xlink:href="FixedString_8h.html" target="_top" xlink:title="固定長文字列ラッパー (POD)">
<polygon fill="white" stroke="#666666" points="1189.5,-294 1028.5,-294 1028.5,-275 1189.5,-275 1189.5,-294"/>
<text text-anchor="middle" x="1109" y="-282" font-family="Helvetica,sans-Serif" font-size="10.00">Core/Containers/FixedString.h</text>
</a>
</g>
</g>
<!-- Node1&#45;&gt;Node2 -->
<g id="edge1_Node000001_Node000002" class="edge">
<title>Node1&#45;&gt;Node2</title>
<g id="a_edge1_Node000001_Node000002"><a xlink:title=" ">
<path fill="none" stroke="#63b8ff" d="M1236.76,-395.96C1209.56,-372.45 1155.02,-325.29 1126.81,-300.9"/>
<polygon fill="#63b8ff" stroke="#63b8ff" points="1128.81,-298 1118.96,-294.11 1124.23,-303.3 1128.81,-298"/>
</a>
</g>
</g>
<!-- Node37 -->
<g id="Node000037" class="node">
<title>Node37</title>
<g id="a_Node000037"><a xlink:href="SpanReflection_8h.html" target="_top" xlink:title="コンポーネント定義用のリフレクションマクロ。">
<polygon fill="white" stroke="#666666" points="1452,-360 1342,-360 1342,-330 1452,-330 1452,-360"/>
<text text-anchor="start" x="1350" y="-348" font-family="Helvetica,sans-Serif" font-size="10.00">Runtime/Reflection</text>
<text text-anchor="middle" x="1397" y="-337" font-family="Helvetica,sans-Serif" font-size="10.00">/SpanReflection.h</text>
</a>
</g>
</g>
<!-- Node1&#45;&gt;Node37 -->
<g id="edge37_Node000001_Node000037" class="edge">
<title>Node1&#45;&gt;Node37</title>
<g id="a_edge37_Node000001_Node000037"><a xlink:title=" ">
<path fill="none" stroke="#63b8ff" d="M1284.6,-395.95C1305.61,-386.62 1333.4,-374.27 1356.09,-364.18"/>
<polygon fill="#63b8ff" stroke="#63b8ff" points="1357.76,-367.27 1365.47,-360.01 1354.91,-360.88 1357.76,-367.27"/>
</a>
</g>
</g>
<!-- Node3 -->
<g id="Node000003" class="node">
<title>Node3</title>
<g id="a_Node000003"><a xlink:href="CoreMinimal_8h.html" target="_top" xlink:title="エンジンの標準インクルードファイル。">
<polygon fill="white" stroke="#666666" points="1368.5,-74 1255.5,-74 1255.5,-55 1368.5,-55 1368.5,-74"/>
<text text-anchor="middle" x="1312" y="-62" font-family="Helvetica,sans-Serif" font-size="10.00">Core/CoreMinimal.h</text>
</a>
</g>
</g>
<!-- Node2&#45;&gt;Node3 -->
<g id="edge2_Node000002_Node000003" class="edge">
<title>Node2&#45;&gt;Node3</title>
<g id="a_edge2_Node000002_Node000003"><a xlink:title=" ">
<path fill="none" stroke="#63b8ff" d="M1119,-274.75C1128.66,-266.09 1143.48,-252.25 1155,-239 1201.55,-185.47 1198.47,-159.79 1249,-110 1260.9,-98.28 1276.16,-87.41 1288.68,-79.36"/>
<polygon fill="#63b8ff" stroke="#63b8ff" points="1290.6,-82.28 1297.22,-74.01 1286.89,-76.35 1290.6,-82.28"/>
</a>
</g>
</g>
<!-- Node36 -->
<g id="Node000036" class="node">
<title>Node36</title>
<g id="a_Node000036"><a xlink:title=" ">
<polygon fill="#e0e0e0" stroke="#999999" points="1145.5,-239 1072.5,-239 1072.5,-220 1145.5,-220 1145.5,-239"/>
<text text-anchor="middle" x="1109" y="-227" font-family="Helvetica,sans-Serif" font-size="10.00">string_view</text>
</a>
</g>
</g>
<!-- Node2&#45;&gt;Node36 -->
<g id="edge36_Node000002_Node000036" class="edge">
<title>Node2&#45;&gt;Node36</title>
<g id="a_edge36_Node000002_Node000036"><a xlink:title=" ">
<path fill="none" stroke="#63b8ff" d="M1109,-274.75C1109,-267.8 1109,-257.85 1109,-249.13"/>
<polygon fill="#63b8ff" stroke="#63b8ff" points="1112.5,-249.09 1109,-239.09 1105.5,-249.09 1112.5,-249.09"/>
</a>
</g>
</g>
<!-- Node4 -->
<g id="Node000004" class="node">
<title>Node4</title>
<g id="a_Node000004"><a xlink:title=" ">
<polygon fill="#e0e0e0" stroke="#999999" points="2169,-19 2099,-19 2099,0 2169,0 2169,-19"/>
<text text-anchor="middle" x="2134" y="-7" font-family="Helvetica,sans-Serif" font-size="10.00">Windows.h</text>
</a>
</g>
</g>
<!-- Node3&#45;&gt;Node4 -->
<g id="edge3_Node000003_Node000004" class="edge">
<title>Node3&#45;&gt;Node4</title>
<g id="a_edge3_Node000003_Node000004"><a xlink:title=" ">
<path fill="none" stroke="#63b8ff" d="M1368.85,-62.85C1496.1,-60.83 1813.62,-52.66 2088.36,-19.03"/>
<polygon fill="#63b8ff" stroke="#63b8ff" points="2089.03,-22.48 2098.52,-17.78 2088.17,-15.53 2089.03,-22.48"/>
</a>
</g>
</g>
<!-- Node5 -->
<g id="Node000005" class="node">
<title>Node5</title>
<g id="a_Node000005"><a xlink:title=" ">
<polygon fill="#e0e0e0" stroke="#999999" points="2228.5,-19 2187.5,-19 2187.5,0 2228.5,0 2228.5,-19"/>
<text text-anchor="middle" x="2208" y="-7" font-family="Helvetica,sans-Serif" font-size="10.00">wrl.h</text>
</a>
</g>
</g>
<!-- Node3&#45;&gt;Node5 -->
<g id="edge4_Node000003_Node000005" class="edge">
<title>Node3&#45;&gt;Node5</title>
<g id="a_edge4_Node000003_Node000005"><a xlink:title=" ">
<path fill="none" stroke="#63b8ff" d="M1368.64,-62.25C1531.93,-58.39 2002.52,-45.39 2177.39,-18.59"/>
<polygon fill="#63b8ff" stroke="#63b8ff" points="2178.16,-22.01 2187.48,-16.97 2177.05,-15.1 2178.16,-22.01"/>
</a>
</g>
</g>
<!-- Node6 -->
<g id="Node000006" class="node">
<title>Node6</title>
<g id="a_Node000006"><a xlink:title=" ">
<polygon fill="#e0e0e0" stroke="#999999" points="2317.5,-19 2246.5,-19 2246.5,0 2317.5,0 2317.5,-19"/>
<text text-anchor="middle" x="2282" y="-7" font-family="Helvetica,sans-Serif" font-size="10.00">wrl/client.h</text>
</a>
</g>
</g>
<!-- Node3&#45;&gt;Node6 -->
<g id="edge5_Node000003_Node000006" class="edge">
<title>Node3&#45;&gt;Node6</title>
<g id="a_edge5_Node000003_Node000006"><a xlink:title=" ">
<path fill="none" stroke="#63b8ff" d="M1368.72,-61.84C1539.73,-56.66 2049.44,-39.98 2236.08,-19.04"/>
<polygon fill="#63b8ff" stroke="#63b8ff" points="2236.52,-22.51 2246.05,-17.88 2235.71,-15.56 2236.52,-22.51"/>
</a>
</g>
</g>
<!-- Node7 -->
<g id="Node000007" class="node">
<title>Node7</title>
<g id="a_Node000007"><a xlink:title=" ">
<polygon fill="#e0e0e0" stroke="#999999" points="2386,-19 2336,-19 2336,0 2386,0 2386,-19"/>
<text text-anchor="middle" x="2361" y="-7" font-family="Helvetica,sans-Serif" font-size="10.00">cstdint</text>
</a>
</g>
</g>
<!-- Node3&#45;&gt;Node7 -->
<g id="edge6_Node000003_Node000007" class="edge">
<title>Node3&#45;&gt;Node7</title>
<g id="a_edge6_Node000003_Node000007"><a xlink:title=" ">
<path fill="none" stroke="#63b8ff" d="M1368.55,-61.69C1562.43,-55.38 2195.01,-34.03 2325.73,-18.71"/>
<polygon fill="#63b8ff" stroke="#63b8ff" points="2326.4,-22.15 2335.86,-17.38 2325.49,-15.21 2326.4,-22.15"/>
</a>
</g>
</g>
<!-- Node8 -->
<g id="Node000008" class="node">
<title>Node8</title>
<g id="a_Node000008"><a xlink:title=" ">
<polygon fill="#e0e0e0" stroke="#999999" points="2464,-19 2404,-19 2404,0 2464,0 2464,-19"/>
<text text-anchor="middle" x="2434" y="-7" font-family="Helvetica,sans-Serif" font-size="10.00">iostream</text>
</a>
</g>
</g>
<!-- Node3&#45;&gt;Node8 -->
<g id="edge7_Node000003_Node000008" class="edge">
<title>Node3&#45;&gt;Node8</title>
<g id="a_edge7_Node000003_Node000008"><a xlink:title=" ">
<path fill="none" stroke="#63b8ff" d="M1368.7,-61.75C1571.5,-55.4 2255.69,-33.31 2393.85,-18.77"/>
<polygon fill="#63b8ff" stroke="#63b8ff" points="2394.33,-22.24 2403.86,-17.61 2393.52,-15.29 2394.33,-22.24"/>
</a>
</g>
</g>
<!-- Node9 -->
<g id="Node000009" class="node">
<title>Node9</title>
<g id="a_Node000009"><a xlink:title=" ">
<polygon fill="#e0e0e0" stroke="#999999" points="322.5,-19 269.5,-19 269.5,0 322.5,0 322.5,-19"/>
<text text-anchor="middle" x="296" y="-7" font-family="Helvetica,sans-Serif" font-size="10.00">string.h</text>
</a>
</g>
</g>
<!-- Node3&#45;&gt;Node9 -->
<g id="edge8_Node000003_Node000009" class="edge">
<title>Node3&#45;&gt;Node9</title>
<g id="a_edge8_Node000003_Node000009"><a xlink:title=" ">
<path fill="none" stroke="#63b8ff" d="M1255.21,-59.79C1230.03,-58.21 1200.04,-56.41 1173,-55 802.67,-35.75 704.32,-69.61 332.58,-18.75"/>
<polygon fill="#63b8ff" stroke="#63b8ff" points="333.01,-15.28 322.63,-17.38 332.06,-22.21 333.01,-15.28"/>
</a>
</g>
</g>
<!-- Node10 -->
<g id="Node000010" class="node">
<title>Node10</title>
<g id="a_Node000010"><a xlink:title=" ">
<polygon fill="#e0e0e0" stroke="#999999" points="2526,-19 2482,-19 2482,0 2526,0 2526,-19"/>
<text text-anchor="middle" x="2504" y="-7" font-family="Helvetica,sans-Serif" font-size="10.00">string</text>
</a>
</g>
</g>
<!-- Node3&#45;&gt;Node10 -->
<g id="edge9_Node000003_Node000010" class="edge">
<title>Node3&#45;&gt;Node10</title>
<g id="a_edge9_Node000003_Node000010"><a xlink:title=" ">
<path fill="none" stroke="#63b8ff" d="M1368.66,-62.09C1580.97,-56.71 2324.38,-36.93 2471.52,-18.67"/>
<polygon fill="#63b8ff" stroke="#63b8ff" points="2472.36,-22.09 2481.78,-17.25 2471.4,-15.15 2472.36,-22.09"/>
</a>
</g>
</g>
<!-- Node11 -->
<g id="Node000011" class="node">
<title>Node11</title>
<g id="a_Node000011"><a xlink:title=" ">
<polygon fill="#e0e0e0" stroke="#999999" points="2591.5,-19 2544.5,-19 2544.5,0 2591.5,0 2591.5,-19"/>
<text text-anchor="middle" x="2568" y="-7" font-family="Helvetica,sans-Serif" font-size="10.00">vector</text>
</a>
</g>
</g>
<!-- Node3&#45;&gt;Node11 -->
<g id="edge10_Node000003_Node000011" class="edge">
<title>Node3&#45;&gt;Node11</title>
<g id="a_edge10_Node000003_Node000011"><a xlink:title=" ">
<path fill="none" stroke="#63b8ff" d="M1368.61,-63.06C1574.74,-61.21 2285.62,-52.58 2534.26,-18.67"/>
<polygon fill="#63b8ff" stroke="#63b8ff" points="2534.92,-22.11 2544.33,-17.25 2533.94,-15.18 2534.92,-22.11"/>
</a>
</g>
</g>
<!-- Node12 -->
<g id="Node000012" class="node">
<title>Node12</title>
<g id="a_Node000012"><a xlink:title=" ">
<polygon fill="#e0e0e0" stroke="#999999" points="387.5,-19 340.5,-19 340.5,0 387.5,0 387.5,-19"/>
<text text-anchor="middle" x="364" y="-7" font-family="Helvetica,sans-Serif" font-size="10.00">deque</text>
</a>
</g>
</g>
<!-- Node3&#45;&gt;Node12 -->
<g id="edge11_Node000003_Node000012" class="edge">
<title>Node3&#45;&gt;Node12</title>
<g id="a_edge11_Node000003_Node000012"><a xlink:title=" ">
<path fill="none" stroke="#63b8ff" d="M1255.2,-59.84C1230.02,-58.26 1200.04,-56.45 1173,-55 831.52,-36.64 740.16,-69.69 397.62,-18.71"/>
<polygon fill="#63b8ff" stroke="#63b8ff" points="398.08,-15.24 387.67,-17.22 397.04,-22.17 398.08,-15.24"/>
</a>
</g>
</g>
<!-- Node13 -->
<g id="Node000013" class="node">
<title>Node13</title>
<g id="a_Node000013"><a xlink:title=" ">
<polygon fill="#e0e0e0" stroke="#999999" points="498.5,-19 405.5,-19 405.5,0 498.5,0 498.5,-19"/>
<text text-anchor="middle" x="452" y="-7" font-family="Helvetica,sans-Serif" font-size="10.00">unordered_map</text>
</a>
</g>
</g>
<!-- Node3&#45;&gt;Node13 -->
<g id="edge12_Node000003_Node000013" class="edge">
<title>Node3&#45;&gt;Node13</title>
<g id="a_edge12_Node000003_Node000013"><a xlink:title=" ">
<path fill="none" stroke="#63b8ff" d="M1255.2,-59.94C1230.02,-58.38 1200.03,-56.56 1173,-55 880.82,-38.16 804.15,-48.99 508.86,-18.97"/>
<polygon fill="#63b8ff" stroke="#63b8ff" points="509.01,-15.47 498.71,-17.93 508.3,-22.43 509.01,-15.47"/>
</a>
</g>
</g>
<!-- Node14 -->
<g id="Node000014" class="node">
<title>Node14</title>
<g id="a_Node000014"><a xlink:title=" ">
<polygon fill="#e0e0e0" stroke="#999999" points="555,-19 517,-19 517,0 555,0 555,-19"/>
<text text-anchor="middle" x="536" y="-7" font-family="Helvetica,sans-Serif" font-size="10.00">map</text>
</a>
</g>
</g>
<!-- Node3&#45;&gt;Node14 -->
<g id="edge13_Node000003_Node000014" class="edge">
<title>Node3&#45;&gt;Node14</title>
<g id="a_edge13_Node000003_Node000014"><a xlink:title=" ">
<path fill="none" stroke="#63b8ff" d="M1255.19,-60C1230.01,-58.46 1200.03,-56.63 1173,-55 905.65,-38.92 832.68,-66.03 565.14,-18.75"/>
<polygon fill="#63b8ff" stroke="#63b8ff" points="565.59,-15.27 555.13,-16.96 564.36,-22.16 565.59,-15.27"/>
</a>
</g>
</g>
<!-- Node15 -->
<g id="Node000015" class="node">
<title>Node15</title>
<g id="a_Node000015"><a xlink:title=" ">
<polygon fill="#e0e0e0" stroke="#999999" points="631,-19 573,-19 573,0 631,0 631,-19"/>
<text text-anchor="middle" x="602" y="-7" font-family="Helvetica,sans-Serif" font-size="10.00">memory</text>
</a>
</g>
</g>
<!-- Node3&#45;&gt;Node15 -->
<g id="edge14_Node000003_Node000015" class="edge">
<title>Node3&#45;&gt;Node15</title>
<g id="a_edge14_Node000003_Node000015"><a xlink:title=" ">
<path fill="none" stroke="#63b8ff" d="M1255.42,-59.99C1107.86,-50.81 717.93,-26.35 641.61,-18.72"/>
<polygon fill="#63b8ff" stroke="#63b8ff" points="641.71,-15.21 631.38,-17.54 640.91,-22.17 641.71,-15.21"/>
</a>
</g>
</g>
<!-- Node16 -->
<g id="Node000016" class="node">
<title>Node16</title>
<g id="a_Node000016"><a xlink:title=" ">
<polygon fill="#e0e0e0" stroke="#999999" points="64,-19 0,-19 0,0 64,0 64,-19"/>
<text text-anchor="middle" x="32" y="-7" font-family="Helvetica,sans-Serif" font-size="10.00">algorithm</text>
</a>
</g>
</g>
<!-- Node3&#45;&gt;Node16 -->
<g id="edge15_Node000003_Node000016" class="edge">
<title>Node3&#45;&gt;Node16</title>
<g id="a_edge15_Node000003_Node000016"><a xlink:title=" ">
<path fill="none" stroke="#63b8ff" d="M1255.29,-61.03C1214.35,-59.28 1157.77,-56.9 1108,-55 651.43,-37.55 531.74,-73.38 74.32,-18.92"/>
<polygon fill="#63b8ff" stroke="#63b8ff" points="74.49,-15.42 64.14,-17.7 73.66,-22.37 74.49,-15.42"/>
</a>
</g>
</g>
<!-- Node17 -->
<g id="Node000017" class="node">
<title>Node17</title>
<g id="a_Node000017"><a xlink:title=" ">
<polygon fill="#e0e0e0" stroke="#999999" points="251.5,-19 186.5,-19 186.5,0 251.5,0 251.5,-19"/>
<text text-anchor="middle" x="219" y="-7" font-family="Helvetica,sans-Serif" font-size="10.00">functional</text>
</a>
</g>
</g>
<!-- Node3&#45;&gt;Node17 -->
<g id="edge16_Node000003_Node000017" class="edge">
<title>Node3&#45;&gt;Node17</title>
<g id="a_edge16_Node000003_Node000017"><a xlink:title=" ">
<path fill="none" stroke="#63b8ff" d="M1255.21,-59.75C1230.03,-58.16 1200.04,-56.36 1173,-55 771.23,-34.79 665.5,-66.85 262.13,-18.9"/>
<polygon fill="#63b8ff" stroke="#63b8ff" points="262.28,-15.4 251.93,-17.68 261.45,-22.35 262.28,-15.4"/>
</a>
</g>
</g>
<!-- Node18 -->
<g id="Node000018" class="node">
<title>Node18</title>
<g id="a_Node000018"><a xlink:title=" ">
<polygon fill="#e0e0e0" stroke="#999999" points="699,-19 649,-19 649,0 699,0 699,-19"/>
<text text-anchor="middle" x="674" y="-7" font-family="Helvetica,sans-Serif" font-size="10.00">chrono</text>
</a>
</g>
</g>
<!-- Node3&#45;&gt;Node18 -->
<g id="edge17_Node000003_Node000018" class="edge">
<title>Node3&#45;&gt;Node18</title>
<g id="a_edge17_Node000003_Node000018"><a xlink:title=" ">
<path fill="none" stroke="#63b8ff" d="M1255.46,-59.89C1121.93,-51.29 792.56,-29.6 709.23,-18.75"/>
<polygon fill="#63b8ff" stroke="#63b8ff" points="709.55,-15.26 699.15,-17.3 708.55,-22.19 709.55,-15.26"/>
</a>
</g>
</g>
<!-- Node19 -->
<g id="Node000019" class="node">
<title>Node19</title>
<g id="a_Node000019"><a xlink:title=" ">
<polygon fill="#e0e0e0" stroke="#999999" points="763,-19 717,-19 717,0 763,0 763,-19"/>
<text text-anchor="middle" x="740" y="-7" font-family="Helvetica,sans-Serif" font-size="10.00">cstdio</text>
</a>
</g>
</g>
<!-- Node3&#45;&gt;Node19 -->
<g id="edge18_Node000003_Node000019" class="edge">
<title>Node3&#45;&gt;Node19</title>
<g id="a_edge18_Node000003_Node000019"><a xlink:title=" ">
<path fill="none" stroke="#63b8ff" d="M1255.09,-60.09C1139.65,-52.98 880.52,-35.93 773.21,-18.86"/>
<polygon fill="#63b8ff" stroke="#63b8ff" points="773.75,-15.4 763.31,-17.2 772.6,-22.3 773.75,-15.4"/>
</a>
</g>
</g>
<!-- Node20 -->
<g id="Node000020" class="node">
<title>Node20</title>
<g id="a_Node000020"><a xlink:title=" ">
<polygon fill="#e0e0e0" stroke="#999999" points="833,-19 781,-19 781,0 833,0 833,-19"/>
<text text-anchor="middle" x="807" y="-7" font-family="Helvetica,sans-Serif" font-size="10.00">cassert</text>
</a>
</g>
</g>
<!-- Node3&#45;&gt;Node20 -->
<g id="edge19_Node000003_Node000020" class="edge">
<title>Node3&#45;&gt;Node20</title>
<g id="a_edge19_Node000003_Node000020"><a xlink:title=" ">
<path fill="none" stroke="#63b8ff" d="M1255.33,-59.1C1152.35,-50.96 937.26,-33.19 843.31,-18.75"/>
<polygon fill="#63b8ff" stroke="#63b8ff" points="843.69,-15.27 833.26,-17.14 842.58,-22.18 843.69,-15.27"/>
</a>
</g>
</g>
<!-- Node21 -->
<g id="Node000021" class="node">
<title>Node21</title>
<g id="a_Node000021"><a xlink:title=" ">
<polygon fill="#e0e0e0" stroke="#999999" points="916.5,-19 851.5,-19 851.5,0 916.5,0 916.5,-19"/>
<text text-anchor="middle" x="884" y="-7" font-family="Helvetica,sans-Serif" font-size="10.00">typeindex</text>
</a>
</g>
</g>
<!-- Node3&#45;&gt;Node21 -->
<g id="edge20_Node000003_Node000021" class="edge">
<title>Node3&#45;&gt;Node21</title>
<g id="a_edge20_Node000003_Node000021"><a xlink:title=" ">
<path fill="none" stroke="#63b8ff" d="M1255.22,-58.48C1181.76,-51.64 1049.63,-38.19 926.49,-18.94"/>
<polygon fill="#63b8ff" stroke="#63b8ff" points="926.93,-15.47 916.51,-17.36 925.84,-22.38 926.93,-15.47"/>
</a>
</g>
</g>
<!-- Node22 -->
<g id="Node000022" class="node">
<title>Node22</title>
<g id="a_Node000022"><a xlink:title=" ">
<polygon fill="#e0e0e0" stroke="#999999" points="1003,-19 935,-19 935,0 1003,0 1003,-19"/>
<text text-anchor="middle" x="969" y="-7" font-family="Helvetica,sans-Serif" font-size="10.00">filesystem</text>
</a>
</g>
</g>
<!-- Node3&#45;&gt;Node22 -->
<g id="edge21_Node000003_Node000022" class="edge">
<title>Node3&#45;&gt;Node22</title>
<g id="a_edge21_Node000003_Node000022"><a xlink:title=" ">
<path fill="none" stroke="#63b8ff" d="M1255.47,-55.94C1197.19,-47.96 1103.45,-34.6 1013.1,-19.12"/>
<polygon fill="#63b8ff" stroke="#63b8ff" points="1013.69,-15.67 1003.24,-17.42 1012.5,-22.57 1013.69,-15.67"/>
</a>
</g>
</g>
<!-- Node23 -->
<g id="Node000023" class="node">
<title>Node23</title>
<g id="a_Node000023"><a xlink:title=" ">
<polygon fill="#e0e0e0" stroke="#999999" points="1053,-19 1021,-19 1021,0 1053,0 1053,-19"/>
<text text-anchor="middle" x="1037" y="-7" font-family="Helvetica,sans-Serif" font-size="10.00">set</text>
</a>
</g>
</g>
<!-- Node3&#45;&gt;Node23 -->
<g id="edge22_Node000003_Node000023" class="edge">
<title>Node3&#45;&gt;Node23</title>
<g id="a_edge22_Node000003_Node000023"><a xlink:title=" ">
<path fill="none" stroke="#63b8ff" d="M1255.15,-55.64C1204.37,-48.08 1128.16,-35.39 1063,-19 1062.9,-18.97 1062.8,-18.95 1062.7,-18.92"/>
<polygon fill="#63b8ff" stroke="#63b8ff" points="1063.7,-15.57 1053.13,-16.16 1061.76,-22.3 1063.7,-15.57"/>
</a>
</g>
</g>
<!-- Node24 -->
<g id="Node000024" class="node">
<title>Node24</title>
<g id="a_Node000024"><a xlink:title=" ">
<polygon fill="#e0e0e0" stroke="#999999" points="1126.5,-19 1071.5,-19 1071.5,0 1126.5,0 1126.5,-19"/>
<text text-anchor="middle" x="1099" y="-7" font-family="Helvetica,sans-Serif" font-size="10.00">fstream</text>
</a>
</g>
</g>
<!-- Node3&#45;&gt;Node24 -->
<g id="edge23_Node000003_Node000024" class="edge">
<title>Node3&#45;&gt;Node24</title>
<g id="a_edge23_Node000003_Node000024"><a xlink:title=" ">
<path fill="none" stroke="#63b8ff" d="M1277.78,-54.98C1239.16,-45.37 1176.53,-29.79 1136.58,-19.85"/>
<polygon fill="#63b8ff" stroke="#63b8ff" points="1137.24,-16.41 1126.69,-17.39 1135.55,-23.2 1137.24,-16.41"/>
</a>
</g>
</g>
<!-- Node25 -->
<g id="Node000025" class="node">
<title>Node25</title>
<g id="a_Node000025"><a xlink:title=" ">
<polygon fill="#e0e0e0" stroke="#999999" points="1201,-19 1145,-19 1145,0 1201,0 1201,-19"/>
<text text-anchor="middle" x="1173" y="-7" font-family="Helvetica,sans-Serif" font-size="10.00">sstream</text>
</a>
</g>
</g>
<!-- Node3&#45;&gt;Node25 -->
<g id="edge24_Node000003_Node000025" class="edge">
<title>Node3&#45;&gt;Node25</title>
<g id="a_edge24_Node000003_Node000025"><a xlink:title=" ">
<path fill="none" stroke="#63b8ff" d="M1289.67,-54.98C1266.8,-46.27 1231.04,-32.63 1205.14,-22.75"/>
<polygon fill="#63b8ff" stroke="#63b8ff" points="1206.33,-19.46 1195.74,-19.17 1203.84,-26 1206.33,-19.46"/>
</a>
</g>
</g>
<!-- Node26 -->
<g id="Node000026" class="node">
<title>Node26</title>
<g id="a_Node000026"><a xlink:title=" ">
<polygon fill="#e0e0e0" stroke="#999999" points="1267,-19 1219,-19 1219,0 1267,0 1267,-19"/>
<text text-anchor="middle" x="1243" y="-7" font-family="Helvetica,sans-Serif" font-size="10.00">mutex</text>
</a>
</g>
</g>
<!-- Node3&#45;&gt;Node26 -->
<g id="edge25_Node000003_Node000026" class="edge">
<title>Node3&#45;&gt;Node26</title>
<g id="a_edge25_Node000003_Node000026"><a xlink:title=" ">
<path fill="none" stroke="#63b8ff" d="M1300.91,-54.98C1290.51,-47 1274.74,-34.88 1262.28,-25.31"/>
<polygon fill="#63b8ff" stroke="#63b8ff" points="1264.35,-22.49 1254.29,-19.17 1260.09,-28.04 1264.35,-22.49"/>
</a>
</g>
</g>
<!-- Node27 -->
<g id="Node000027" class="node">
<title>Node27</title>
<g id="a_Node000027"><a xlink:title=" ">
<polygon fill="#e0e0e0" stroke="#999999" points="1339,-19 1285,-19 1285,0 1339,0 1339,-19"/>
<text text-anchor="middle" x="1312" y="-7" font-family="Helvetica,sans-Serif" font-size="10.00">random</text>
</a>
</g>
</g>
<!-- Node3&#45;&gt;Node27 -->
<g id="edge26_Node000003_Node000027" class="edge">
<title>Node3&#45;&gt;Node27</title>
<g id="a_edge26_Node000003_Node000027"><a xlink:title=" ">
<path fill="none" stroke="#63b8ff" d="M1312,-54.75C1312,-47.8 1312,-37.85 1312,-29.13"/>
<polygon fill="#63b8ff" stroke="#63b8ff" points="1315.5,-29.09 1312,-19.09 1308.5,-29.09 1315.5,-29.09"/>
</a>
</g>
</g>
<!-- Node28 -->
<g id="Node000028" class="node">
<title>Node28</title>
<g id="a_Node000028"><a xlink:title=" ">
<polygon fill="#e0e0e0" stroke="#999999" points="1413,-19 1357,-19 1357,0 1413,0 1413,-19"/>
<text text-anchor="middle" x="1385" y="-7" font-family="Helvetica,sans-Serif" font-size="10.00">d3d12.h</text>
</a>
</g>
</g>
<!-- Node3&#45;&gt;Node28 -->
<g id="edge27_Node000003_Node000028" class="edge">
<title>Node3&#45;&gt;Node28</title>
<g id="a_edge27_Node000003_Node000028"><a xlink:title=" ">
<path fill="none" stroke="#63b8ff" d="M1323.73,-54.98C1334.73,-47 1351.42,-34.88 1364.6,-25.31"/>
<polygon fill="#63b8ff" stroke="#63b8ff" points="1367.02,-27.88 1373.06,-19.17 1362.91,-22.21 1367.02,-27.88"/>
</a>
</g>
</g>
<!-- Node29 -->
<g id="Node000029" class="node">
<title>Node29</title>
<g id="a_Node000029"><a xlink:title=" ">
<polygon fill="#e0e0e0" stroke="#999999" points="1495,-19 1431,-19 1431,0 1495,0 1495,-19"/>
<text text-anchor="middle" x="1463" y="-7" font-family="Helvetica,sans-Serif" font-size="10.00">dxgi1_6.h</text>
</a>
</g>
</g>
<!-- Node3&#45;&gt;Node29 -->
<g id="edge28_Node000003_Node000029" class="edge">
<title>Node3&#45;&gt;Node29</title>
<g id="a_edge28_Node000003_Node000029"><a xlink:title=" ">
<path fill="none" stroke="#63b8ff" d="M1336.26,-54.98C1361.32,-46.19 1400.63,-32.39 1428.83,-22.49"/>
<polygon fill="#63b8ff" stroke="#63b8ff" points="1430.02,-25.78 1438.3,-19.17 1427.7,-19.18 1430.02,-25.78"/>
</a>
</g>
</g>
<!-- Node30 -->
<g id="Node000030" class="node">
<title>Node30</title>
<g id="a_Node000030"><a xlink:title=" ">
<polygon fill="#e0e0e0" stroke="#999999" points="1599,-19 1513,-19 1513,0 1599,0 1599,-19"/>
<text text-anchor="middle" x="1556" y="-7" font-family="Helvetica,sans-Serif" font-size="10.00">d3dcompiler.h</text>
</a>
</g>
</g>
<!-- Node3&#45;&gt;Node30 -->
<g id="edge29_Node000003_Node000030" class="edge">
<title>Node3&#45;&gt;Node30</title>
<g id="a_edge29_Node000003_Node000030"><a xlink:title=" ">
<path fill="none" stroke="#63b8ff" d="M1351.2,-54.98C1393.41,-45.82 1460.65,-31.21 1506.48,-21.26"/>
<polygon fill="#63b8ff" stroke="#63b8ff" points="1507.46,-24.63 1516.49,-19.08 1505.97,-17.78 1507.46,-24.63"/>
</a>
</g>
</g>
<!-- Node31 -->
<g id="Node000031" class="node">
<title>Node31</title>
<g id="a_Node000031"><a xlink:title=" ">
<polygon fill="#e0e0e0" stroke="#999999" points="168,-19 82,-19 82,0 168,0 168,-19"/>
<text text-anchor="middle" x="125" y="-7" font-family="Helvetica,sans-Serif" font-size="10.00">DirectXMath.h</text>
</a>
</g>
</g>
<!-- Node3&#45;&gt;Node31 -->
<g id="edge30_Node000003_Node000031" class="edge">
<title>Node3&#45;&gt;Node31</title>
<g id="a_edge30_Node000003_Node000031"><a xlink:title=" ">
<path fill="none" stroke="#63b8ff" d="M1255.28,-61.09C1214.35,-59.36 1157.76,-57 1108,-55 694.69,-38.39 589.62,-59.82 178,-19 177.9,-18.99 177.8,-18.98 177.7,-18.97"/>
<polygon fill="#63b8ff" stroke="#63b8ff" points="178.38,-15.53 168.04,-17.85 177.57,-22.48 178.38,-15.53"/>
</a>
</g>
</g>
<!-- Node32 -->
<g id="Node000032" class="node">
<title>Node32</title>
<g id="a_Node000032"><a xlink:title=" ">
<polygon fill="#e0e0e0" stroke="#999999" points="1734.5,-19 1617.5,-19 1617.5,0 1734.5,0 1734.5,-19"/>
<text text-anchor="middle" x="1676" y="-7" font-family="Helvetica,sans-Serif" font-size="10.00">assimp/Importer.hpp</text>
</a>
</g>
</g>
<!-- Node3&#45;&gt;Node32 -->
<g id="edge31_Node000003_Node000032" class="edge">
<title>Node3&#45;&gt;Node32</title>
<g id="a_edge31_Node000003_Node000032"><a xlink:title=" ">
<path fill="none" stroke="#63b8ff" d="M1368.88,-55.22C1433.39,-45.83 1538.55,-30.51 1607.51,-20.47"/>
<polygon fill="#63b8ff" stroke="#63b8ff" points="1608.02,-23.93 1617.42,-19.03 1607.02,-17.01 1608.02,-23.93"/>
</a>
</g>
</g>
<!-- Node33 -->
<g id="Node000033" class="node">
<title>Node33</title>
<g id="a_Node000033"><a xlink:title=" ">
<polygon fill="#e0e0e0" stroke="#999999" points="1845,-19 1753,-19 1753,0 1845,0 1845,-19"/>
<text text-anchor="middle" x="1799" y="-7" font-family="Helvetica,sans-Serif" font-size="10.00">assimp/scene.h</text>
</a>
</g>
</g>
<!-- Node3&#45;&gt;Node33 -->
<g id="edge32_Node000003_Node000033" class="edge">
<title>Node3&#45;&gt;Node33</title>
<g id="a_edge32_Node000003_Node000033"><a xlink:title=" ">
<path fill="none" stroke="#63b8ff" d="M1368.72,-58.58C1449.45,-51.38 1602.39,-36.97 1742.73,-19.1"/>
<polygon fill="#63b8ff" stroke="#63b8ff" points="1743.34,-22.56 1752.81,-17.81 1742.45,-15.61 1743.34,-22.56"/>
</a>
</g>
</g>
<!-- Node34 -->
<g id="Node000034" class="node">
<title>Node34</title>
<g id="a_Node000034"><a xlink:title=" ">
<polygon fill="#e0e0e0" stroke="#999999" points="1985,-19 1863,-19 1863,0 1985,0 1985,-19"/>
<text text-anchor="middle" x="1924" y="-7" font-family="Helvetica,sans-Serif" font-size="10.00">assimp/postprocess.h</text>
</a>
</g>
</g>
<!-- Node3&#45;&gt;Node34 -->
<g id="edge33_Node000003_Node000034" class="edge">
<title>Node3&#45;&gt;Node34</title>
<g id="a_edge33_Node000003_Node000034"><a xlink:title=" ">
<path fill="none" stroke="#63b8ff" d="M1368.64,-59.58C1465.54,-52.71 1669.63,-37.55 1852.84,-19.08"/>
<polygon fill="#63b8ff" stroke="#63b8ff" points="1853.34,-22.55 1862.93,-18.06 1852.63,-15.58 1853.34,-22.55"/>
</a>
</g>
</g>
<!-- Node35 -->
<g id="Node000035" class="node">
<title>Node35</title>
<g id="a_Node000035"><a xlink:href="Logger_8h.html" target="_top" xlink:title="デバッグログ出力システム">
<polygon fill="white" stroke="#666666" points="2081,-19 2003,-19 2003,0 2081,0 2081,-19"/>
<text text-anchor="middle" x="2042" y="-7" font-family="Helvetica,sans-Serif" font-size="10.00">Log/Logger.h</text>
</a>
</g>
</g>
<!-- Node3&#45;&gt;Node35 -->
<g id="edge34_Node000003_Node000035" class="edge">
<title>Node3&#45;&gt;Node35</title>
<g id="a_edge34_Node000003_Node000035"><a xlink:title=" ">
<path fill="none" stroke="#63b8ff" d="M1368.68,-61.75C1484.76,-57.84 1757.35,-46.5 1985,-19 1987.5,-18.7 1990.07,-18.35 1992.67,-17.97"/>
<polygon fill="#63b8ff" stroke="#63b8ff" points="1993.43,-21.4 2002.77,-16.4 1992.35,-14.48 1993.43,-21.4"/>
</a>
</g>
</g>
<!-- Node35&#45;&gt;Node3 -->
<g id="edge35_Node000035_Node000003" class="edge">
<title>Node35&#45;&gt;Node3</title>
<g id="a_edge35_Node000035_Node000003"><a xlink:title=" ">
<path fill="none" stroke="#63b8ff" d="M2002.66,-19.04C1775,-46.52 1502.51,-57.85 1378.81,-61.75"/>
<polygon fill="#63b8ff" stroke="#63b8ff" points="1378.62,-58.25 1368.73,-62.06 1378.83,-65.25 1378.62,-58.25"/>
</a>
</g>
</g>
<!-- Node37&#45;&gt;Node2 -->
<g id="edge59_Node000037_Node000002" class="edge">
<title>Node37&#45;&gt;Node2</title>
<g id="a_edge59_Node000037_Node000002"><a xlink:title=" ">
<path fill="none" stroke="#63b8ff" d="M1341.81,-332.79C1289.6,-322.18 1211.82,-306.39 1160.76,-296.01"/>
<polygon fill="#63b8ff" stroke="#63b8ff" points="1161.42,-292.58 1150.92,-294.02 1160.03,-299.44 1161.42,-292.58"/>
</a>
</g>
</g>
<!-- Node37&#45;&gt;Node10 -->
<g id="edge61_Node000037_Node000010" class="edge">
<title>Node37&#45;&gt;Node10</title>
<g id="a_edge61_Node000037_Node000010"><a xlink:title=" ">
<path fill="none" stroke="#63b8ff" d="M1452.28,-341.01C1619.56,-331.22 2109,-296.92 2109,-230.5 2109,-230.5 2109,-230.5 2109,-118.5 2109,46.02 2303.61,-59.1 2472.2,-19.04"/>
<polygon fill="#63b8ff" stroke="#63b8ff" points="2473.16,-22.41 2481.99,-16.54 2471.43,-15.62 2473.16,-22.41"/>
</a>
</g>
</g>
<!-- Node37&#45;&gt;Node11 -->
<g id="edge60_Node000037_Node000011" class="edge">
<title>Node37&#45;&gt;Node11</title>
<g id="a_edge60_Node000037_Node000011"><a xlink:title=" ">
<path fill="none" stroke="#63b8ff" d="M1452.09,-343.45C1658.72,-340.66 2376,-324.23 2376,-230.5 2376,-230.5 2376,-230.5 2376,-118.5 2376,-82.5 2479.86,-41.03 2534.8,-21.62"/>
<polygon fill="#63b8ff" stroke="#63b8ff" points="2536.16,-24.85 2544.46,-18.25 2533.86,-18.24 2536.16,-24.85"/>
</a>
</g>
</g>
<!-- Node38 -->
<g id="Node000038" class="node">
<title>Node38</title>
<g id="a_Node000038"><a xlink:href="SpanAttributes_8h.html" target="_top" xlink:title="インスペクタ表示用の属性 (Attribute) 定義。">
<polygon fill="white" stroke="#666666" points="1344,-294 1246,-294 1246,-275 1344,-275 1344,-294"/>
<text text-anchor="middle" x="1295" y="-282" font-family="Helvetica,sans-Serif" font-size="10.00">SpanAttributes.h</text>
</a>
</g>
</g>
<!-- Node37&#45;&gt;Node38 -->
<g id="edge38_Node000037_Node000038" class="edge">
<title>Node37&#45;&gt;Node38</title>
<g id="a_edge38_Node000037_Node000038"><a xlink:title=" ">
<path fill="none" stroke="#63b8ff" d="M1372.57,-329.99C1356.31,-320.66 1335.05,-308.47 1318.9,-299.21"/>
<polygon fill="#63b8ff" stroke="#63b8ff" points="1320.48,-296.08 1310.06,-294.14 1317,-302.15 1320.48,-296.08"/>
</a>
</g>
</g>
<!-- Node39 -->
<g id="Node000039" class="node">
<title>Node39</title>
<g id="a_Node000039"><a xlink:href="ComponentRegistry_8h.html" target="_top" xlink:title="コンポーネントのメタデータ管理 (リフレクション)。">
<polygon fill="white" stroke="#666666" points="1633.5,-294 1512.5,-294 1512.5,-275 1633.5,-275 1633.5,-294"/>
<text text-anchor="middle" x="1573" y="-282" font-family="Helvetica,sans-Serif" font-size="10.00">ComponentRegistry.h</text>
</a>
</g>
</g>
<!-- Node37&#45;&gt;Node39 -->
<g id="edge39_Node000037_Node000039" class="edge">
<title>Node37&#45;&gt;Node39</title>
<g id="a_edge39_Node000037_Node000039"><a xlink:title=" ">
<path fill="none" stroke="#63b8ff" d="M1439.16,-329.99C1469.27,-319.98 1509.31,-306.67 1537.73,-297.22"/>
<polygon fill="#63b8ff" stroke="#63b8ff" points="1538.88,-300.53 1547.27,-294.05 1536.67,-293.89 1538.88,-300.53"/>
</a>
</g>
</g>
<!-- Node48 -->
<g id="Node000048" class="node">
<title>Node48</title>
<g id="a_Node000048"><a xlink:href="ImGuiUI_8h.html" target="_top" xlink:title="ImGui用のカスタムウィジェットヘルパー。">
<polygon fill="white" stroke="#666666" points="1103.5,-129 974.5,-129 974.5,-110 1103.5,-110 1103.5,-129"/>
<text text-anchor="middle" x="1039" y="-117" font-family="Helvetica,sans-Serif" font-size="10.00">Editor/ImGui/ImGuiUI.h</text>
</a>
</g>
</g>
<!-- Node37&#45;&gt;Node48 -->
<g id="edge53_Node000037_Node000048" class="edge">
<title>Node37&#45;&gt;Node48</title>
<g id="a_edge53_Node000037_Node000048"><a xlink:title=" ">
<path fill="none" stroke="#63b8ff" d="M1341.64,-332.94C1309.67,-325.06 1269.48,-312.53 1237,-294 1194.36,-269.67 1191.86,-252.43 1155,-220 1120.73,-189.85 1080.14,-155.29 1057.2,-135.86"/>
<polygon fill="#63b8ff" stroke="#63b8ff" points="1059.21,-132.98 1049.32,-129.2 1054.69,-138.33 1059.21,-132.98"/>
</a>
</g>
</g>
<!-- Node53 -->
<g id="Node000053" class="node">
<title>Node53</title>
<g id="a_Node000053"><a xlink:title=" ">
<polygon fill="#e0e0e0" stroke="#999999" points="1431.5,-294 1362.5,-294 1362.5,-275 1431.5,-275 1431.5,-294"/>
<text text-anchor="middle" x="1397" y="-282" font-family="Helvetica,sans-Serif" font-size="10.00">type_traits</text>
</a>
</g>
</g>
<!-- Node37&#45;&gt;Node53 -->
<g id="edge62_Node000037_Node000053" class="edge">
<title>Node37&#45;&gt;Node53</title>
<g id="a_edge62_Node000037_Node000053"><a xlink:title=" ">
<path fill="none" stroke="#63b8ff" d="M1397,-329.84C1397,-322.21 1397,-312.7 1397,-304.45"/>
<polygon fill="#63b8ff" stroke="#63b8ff" points="1400.5,-304.27 1397,-294.27 1393.5,-304.27 1400.5,-304.27"/>
</a>
</g>
</g>
<!-- Node54 -->
<g id="Node000054" class="node">
<title>Node54</title>
<g id="a_Node000054"><a xlink:title=" ">
<polygon fill="#e0e0e0" stroke="#999999" points="1494,-294 1450,-294 1450,-275 1494,-275 1494,-294"/>
<text text-anchor="middle" x="1472" y="-282" font-family="Helvetica,sans-Serif" font-size="10.00">cfloat</text>
</a>
</g>
</g>
<!-- Node37&#45;&gt;Node54 -->
<g id="edge63_Node000037_Node000054" class="edge">
<title>Node37&#45;&gt;Node54</title>
<g id="a_edge63_Node000037_Node000054"><a xlink:title=" ">
<path fill="none" stroke="#63b8ff" d="M1415.16,-329.84C1426.49,-321 1441.06,-309.63 1452.62,-300.62"/>
<polygon fill="#63b8ff" stroke="#63b8ff" points="1455.03,-303.18 1460.76,-294.27 1450.72,-297.66 1455.03,-303.18"/>
</a>
</g>
</g>
<!-- Node39&#45;&gt;Node10 -->
<g id="edge44_Node000039_Node000010" class="edge">
<title>Node39&#45;&gt;Node10</title>
<g id="a_edge44_Node000039_Node000010"><a xlink:title=" ">
<path fill="none" stroke="#63b8ff" d="M1585.19,-274.95C1607.12,-258.45 1651,-219.91 1651,-175.5 1651,-175.5 1651,-175.5 1651,-118.5 1651,-18.83 1996.03,-66.78 2095,-55 2259.3,-35.44 2305.22,-48.88 2471.66,-18.94"/>
<polygon fill="#63b8ff" stroke="#63b8ff" points="2472.55,-22.33 2481.76,-17.09 2471.29,-15.45 2472.55,-22.33"/>
</a>
</g>
</g>
<!-- Node39&#45;&gt;Node11 -->
<g id="edge43_Node000039_Node000011" class="edge">
<title>Node39&#45;&gt;Node11</title>
<g id="a_edge43_Node000039_Node000011"><a xlink:title=" ">
<path fill="none" stroke="#63b8ff" d="M1599.71,-274.96C1699.45,-243.21 2059.94,-130.05 2362,-55 2435.24,-36.8 2456.84,-36.77 2534.49,-19.02"/>
<polygon fill="#63b8ff" stroke="#63b8ff" points="2535.29,-22.43 2544.24,-16.76 2533.71,-15.6 2535.29,-22.43"/>
</a>
</g>
</g>
<!-- Node39&#45;&gt;Node17 -->
<g id="edge42_Node000039_Node000017" class="edge">
<title>Node39&#45;&gt;Node17</title>
<g id="a_edge42_Node000039_Node000017"><a xlink:title=" ">
<path fill="none" stroke="#63b8ff" d="M1521.74,-274.94C1469.83,-265.83 1393.41,-251.1 1366,-239 1237.15,-182.13 1241.2,-100.77 1108,-55 932.79,5.21 463.93,-40.19 261.93,-18.82"/>
<polygon fill="#63b8ff" stroke="#63b8ff" points="262.27,-15.33 251.94,-17.67 261.47,-22.29 262.27,-15.33"/>
</a>
</g>
</g>
<!-- Node40 -->
<g id="Node000040" class="node">
<title>Node40</title>
<g id="a_Node000040"><a xlink:href="Entity_8h.html" target="_top" xlink:title="ECSにおけるオブジェクトの識別子 (ID) を定義します。">
<polygon fill="white" stroke="#666666" points="1366,-129 1258,-129 1258,-110 1366,-110 1366,-129"/>
<text text-anchor="middle" x="1312" y="-117" font-family="Helvetica,sans-Serif" font-size="10.00">ECS/Kernel/Entity.h</text>
</a>
</g>
</g>
<!-- Node39&#45;&gt;Node40 -->
<g id="edge40_Node000039_Node000040" class="edge">
<title>Node39&#45;&gt;Node40</title>
<g id="a_edge40_Node000039_Node000040"><a xlink:title=" ">
<path fill="none" stroke="#63b8ff" d="M1536.82,-274.98C1471.77,-258.84 1339.36,-222.03 1313,-184 1304.07,-171.12 1304.75,-152.95 1307.12,-139.35"/>
<polygon fill="#63b8ff" stroke="#63b8ff" points="1310.62,-139.73 1309.34,-129.22 1303.78,-138.24 1310.62,-139.73"/>
</a>
</g>
</g>
<!-- Node41 -->
<g id="Node000041" class="node">
<title>Node41</title>
<g id="a_Node000041"><a xlink:href="World_8h.html" target="_top" xlink:title="ECSワールド (シーン) の管理クラス。">
<polygon fill="white" stroke="#666666" points="1570.5,-239 1461.5,-239 1461.5,-220 1570.5,-220 1570.5,-239"/>
<text text-anchor="middle" x="1516" y="-227" font-family="Helvetica,sans-Serif" font-size="10.00">ECS/Kernel/World.h</text>
</a>
</g>
</g>
<!-- Node39&#45;&gt;Node41 -->
<g id="edge45_Node000039_Node000041" class="edge">
<title>Node39&#45;&gt;Node41</title>
<g id="a_edge45_Node000039_Node000041"><a xlink:title=" ">
<path fill="none" stroke="#63b8ff" d="M1563.84,-274.98C1555.5,-267.23 1542.97,-255.58 1532.82,-246.14"/>
<polygon fill="#63b8ff" stroke="#63b8ff" points="1535.03,-243.42 1525.32,-239.17 1530.26,-248.54 1535.03,-243.42"/>
</a>
</g>
</g>
<!-- Node40&#45;&gt;Node3 -->
<g id="edge41_Node000040_Node000003" class="edge">
<title>Node40&#45;&gt;Node3</title>
<g id="a_edge41_Node000040_Node000003"><a xlink:title=" ">
<path fill="none" stroke="#63b8ff" d="M1312,-109.75C1312,-102.8 1312,-92.85 1312,-84.13"/>
<polygon fill="#63b8ff" stroke="#63b8ff" points="1315.5,-84.09 1312,-74.09 1308.5,-84.09 1315.5,-84.09"/>
</a>
</g>
</g>
<!-- Node41&#45;&gt;Node3 -->
<g id="edge46_Node000041_Node000003" class="edge">
<title>Node41&#45;&gt;Node3</title>
<g id="a_edge46_Node000041_Node000003"><a xlink:title=" ">
<path fill="none" stroke="#63b8ff" d="M1506.32,-219.88C1483.79,-199.92 1425.89,-149.25 1375,-110 1361.35,-99.47 1345.49,-88.28 1333.1,-79.75"/>
<polygon fill="#63b8ff" stroke="#63b8ff" points="1335.01,-76.81 1324.78,-74.06 1331.06,-82.59 1335.01,-76.81"/>
</a>
</g>
</g>
<!-- Node42 -->
<g id="Node000042" class="node">
<title>Node42</title>
<g id="a_Node000042"><a xlink:href="EntityManager_8h.html" target="_top" xlink:title="エンティティIDのライフサイクル管理クラス">
<polygon fill="white" stroke="#666666" points="1418,-184 1322,-184 1322,-165 1418,-165 1418,-184"/>
<text text-anchor="middle" x="1370" y="-172" font-family="Helvetica,sans-Serif" font-size="10.00">EntityManager.h</text>
</a>
</g>
</g>
<!-- Node41&#45;&gt;Node42 -->
<g id="edge47_Node000041_Node000042" class="edge">
<title>Node41&#45;&gt;Node42</title>
<g id="a_edge47_Node000041_Node000042"><a xlink:title=" ">
<path fill="none" stroke="#63b8ff" d="M1492.54,-219.98C1468.42,-211.23 1430.63,-197.51 1403.4,-187.62"/>
<polygon fill="#63b8ff" stroke="#63b8ff" points="1404.48,-184.29 1393.88,-184.17 1402.09,-190.87 1404.48,-184.29"/>
</a>
</g>
</g>
<!-- Node43 -->
<g id="Node000043" class="node">
<title>Node43</title>
<g id="a_Node000043"><a xlink:href="ArchetypeManager_8h.html" target="_top" xlink:title="アーキタイプの生成と管理を行うクラス">
<polygon fill="#fff0f0" stroke="red" points="1574.5,-129 1457.5,-129 1457.5,-110 1574.5,-110 1574.5,-129"/>
<text text-anchor="middle" x="1516" y="-117" font-family="Helvetica,sans-Serif" font-size="10.00">ArchetypeManager.h</text>
</a>
</g>
</g>
<!-- Node41&#45;&gt;Node43 -->
<g id="edge49_Node000041_Node000043" class="edge">
<title>Node41&#45;&gt;Node43</title>
<g id="a_edge49_Node000041_Node000043"><a xlink:title=" ">
<path fill="none" stroke="#63b8ff" d="M1516,-219.66C1516,-202.17 1516,-162.8 1516,-139.27"/>
<polygon fill="#63b8ff" stroke="#63b8ff" points="1519.5,-139.16 1516,-129.16 1512.5,-139.16 1519.5,-139.16"/>
</a>
</g>
</g>
<!-- Node47 -->
<g id="Node000047" class="node">
<title>Node47</title>
<g id="a_Node000047"><a xlink:href="System_8h.html" target="_top" xlink:title="ECSシステム (ロジック) の基底クラス。">
<polygon fill="white" stroke="#666666" points="1615,-184 1553,-184 1553,-165 1615,-165 1615,-184"/>
<text text-anchor="middle" x="1584" y="-172" font-family="Helvetica,sans-Serif" font-size="10.00">System.h</text>
</a>
</g>
</g>
<!-- Node41&#45;&gt;Node47 -->
<g id="edge51_Node000041_Node000047" class="edge">
<title>Node41&#45;&gt;Node47</title>
<g id="a_edge51_Node000041_Node000047"><a xlink:title=" ">
<path fill="none" stroke="#63b8ff" d="M1526.93,-219.98C1537.08,-212.07 1552.42,-200.11 1564.65,-190.58"/>
<polygon fill="#63b8ff" stroke="#63b8ff" points="1567.14,-193.08 1572.88,-184.17 1562.84,-187.56 1567.14,-193.08"/>
</a>
</g>
</g>
<!-- Node42&#45;&gt;Node40 -->
<g id="edge48_Node000042_Node000040" class="edge">
<title>Node42&#45;&gt;Node40</title>
<g id="a_edge48_Node000042_Node000040"><a xlink:title=" ">
<path fill="none" stroke="#63b8ff" d="M1360.68,-164.98C1352.19,-157.23 1339.44,-145.58 1329.12,-136.14"/>
<polygon fill="#63b8ff" stroke="#63b8ff" points="1331.23,-133.33 1321.49,-129.17 1326.51,-138.5 1331.23,-133.33"/>
</a>
</g>
</g>
<!-- Node43&#45;&gt;Node3 -->
<g id="edge50_Node000043_Node000003" class="edge">
<title>Node43&#45;&gt;Node3</title>
<g id="a_edge50_Node000043_Node000003"><a xlink:title=" ">
<path fill="none" stroke="#63b8ff" d="M1483.22,-109.98C1448.38,-100.93 1393.13,-86.58 1354.86,-76.64"/>
<polygon fill="#63b8ff" stroke="#63b8ff" points="1355.59,-73.21 1345.03,-74.08 1353.83,-79.98 1355.59,-73.21"/>
</a>
</g>
</g>
<!-- Node47&#45;&gt;Node3 -->
<g id="edge52_Node000047_Node000003" class="edge">
<title>Node47&#45;&gt;Node3</title>
<g id="a_edge52_Node000047_Node000003"><a xlink:title=" ">
<path fill="none" stroke="#63b8ff" d="M1587.12,-164.92C1591.39,-151.5 1597.13,-125.46 1584,-110 1558.2,-79.63 1450.83,-69.94 1378.96,-66.88"/>
<polygon fill="#63b8ff" stroke="#63b8ff" points="1378.75,-63.37 1368.62,-66.47 1378.48,-70.36 1378.75,-63.37"/>
</a>
</g>
</g>
<!-- Node49 -->
<g id="Node000049" class="node">
<title>Node49</title>
<g id="a_Node000049"><a xlink:href="SpanMath_8h.html" target="_top" xlink:title="算術ライブラリ (Vector, Matrix, Quaternion)。">
<polygon fill="#fff0f0" stroke="red" points="189,-74 61,-74 61,-55 189,-55 189,-74"/>
<text text-anchor="middle" x="125" y="-62" font-family="Helvetica,sans-Serif" font-size="10.00">Core/Math/SpanMath.h</text>
</a>
</g>
</g>
<!-- Node48&#45;&gt;Node49 -->
<g id="edge54_Node000048_Node000049" class="edge">
<title>Node48&#45;&gt;Node49</title>
<g id="a_edge54_Node000048_Node000049"><a xlink:title=" ">
<path fill="none" stroke="#63b8ff" d="M974.37,-114.75C809.52,-105.19 374.14,-79.95 199.27,-69.81"/>
<polygon fill="#63b8ff" stroke="#63b8ff" points="199.32,-66.3 189.13,-69.22 198.91,-73.29 199.32,-66.3"/>
</a>
</g>
</g>
<!-- Node51 -->
<g id="Node000051" class="node">
<title>Node51</title>
<g id="a_Node000051"><a xlink:title=" ">
<polygon fill="#e0e0e0" stroke="#999999" points="1098.5,-74 1045.5,-74 1045.5,-55 1098.5,-55 1098.5,-74"/>
<text text-anchor="middle" x="1072" y="-62" font-family="Helvetica,sans-Serif" font-size="10.00">imgui.h</text>
</a>
</g>
</g>
<!-- Node48&#45;&gt;Node51 -->
<g id="edge57_Node000048_Node000051" class="edge">
<title>Node48&#45;&gt;Node51</title>
<g id="a_edge57_Node000048_Node000051"><a xlink:title=" ">
<path fill="none" stroke="#63b8ff" d="M1044.45,-109.75C1049.01,-102.42 1055.67,-91.73 1061.29,-82.7"/>
<polygon fill="#63b8ff" stroke="#63b8ff" points="1064.34,-84.43 1066.65,-74.09 1058.4,-80.73 1064.34,-84.43"/>
</a>
</g>
</g>
<!-- Node52 -->
<g id="Node000052" class="node">
<title>Node52</title>
<g id="a_Node000052"><a xlink:title=" ">
<polygon fill="#e0e0e0" stroke="#999999" points="1027,-74 931,-74 931,-55 1027,-55 1027,-74"/>
<text text-anchor="middle" x="979" y="-62" font-family="Helvetica,sans-Serif" font-size="10.00">imgui_internal.h</text>
</a>
</g>
</g>
<!-- Node48&#45;&gt;Node52 -->
<g id="edge58_Node000048_Node000052" class="edge">
<title>Node48&#45;&gt;Node52</title>
<g id="a_edge58_Node000048_Node000052"><a xlink:title=" ">
<path fill="none" stroke="#63b8ff" d="M1029.36,-109.98C1020.49,-102.15 1007.13,-90.34 996.39,-80.86"/>
<polygon fill="#63b8ff" stroke="#63b8ff" points="998.63,-78.17 988.82,-74.17 993.99,-83.41 998.63,-78.17"/>
</a>
</g>
</g>
<!-- Node49&#45;&gt;Node16 -->
<g id="edge56_Node000049_Node000016" class="edge">
<title>Node49&#45;&gt;Node16</title>
<g id="a_edge56_Node000049_Node000016"><a xlink:title=" ">
<path fill="none" stroke="#63b8ff" d="M110.06,-54.98C95.5,-46.69 73.13,-33.94 56.07,-24.22"/>
<polygon fill="#63b8ff" stroke="#63b8ff" points="57.64,-21.08 47.21,-19.17 54.17,-27.16 57.64,-21.08"/>
</a>
</g>
</g>
<!-- Node49&#45;&gt;Node31 -->
<g id="edge55_Node000049_Node000031" class="edge">
<title>Node49&#45;&gt;Node31</title>
<g id="a_edge55_Node000049_Node000031"><a xlink:title=" ">
<path fill="none" stroke="#63b8ff" d="M125,-54.75C125,-47.8 125,-37.85 125,-29.13"/>
<polygon fill="#63b8ff" stroke="#63b8ff" points="128.5,-29.09 125,-19.09 121.5,-29.09 128.5,-29.09"/>
</a>
</g>
</g>
</g>
</svg>

<g id="navigator" transform="translate(0 0)" fill="#404254">
  <rect fill="#f2f5e9" fill-opacity="0.5" stroke="#606060" stroke-width=".5" x="0" y="0" width="60" height="60"/>
  <use id="zoomplus" xlink:href="#zoomPlus" x="17" y="9" onmousedown="handleZoom(evt,'in')"/>
  <use id="zoomminus" xlink:href="#zoomMin" x="42" y="9" onmousedown="handleZoom(evt,'out')"/>
  <use id="reset" xlink:href="#resetDef" x="30" y="36" onmousedown="handleReset()"/>
   <use id="arrowup" xlink:href="#arrowUp" x="0" y="0" onmousedown="handlePan(0,-1)"/>
  <use id="arrowright" xlink:href="#arrowRight" x="0" y="0" onmousedown="handlePan(1,0)"/>
  <use id="arrowdown" xlink:href="#arrowDown" x="0" y="0" onmousedown="handlePan(0,1)"/>
  <use id="arrowleft" xlink:href="#arrowLeft" x="0" y="0" onmousedown="handlePan(-1,0)"/>
</g>
<svg viewBox="0 0 15 15" width="100%" height="30px" preserveAspectRatio="xMaxYMin meet">
 <g id="arrow_out" transform="scale(0.3 0.3)">
  <a xlink:href="Name_8h__incl_org.svg" target="_base">
   <rect id="button" ry="5" rx="5" y="6" x="6" height="38" width="38"
        fill="#f2f5e9" fill-opacity="0.5" stroke="#606060" stroke-width="1.0"/>
   <path id="arrow"
     d="M 11.500037,31.436501 C 11.940474,20.09759 22.043105,11.32322 32.158766,21.979434 L 37.068811,17.246167 C 37.068811,17.246167 37.088388,32 37.088388,32 L 22.160133,31.978069 C 22.160133,31.978069 26.997745,27.140456 26.997745,27.140456 C 18.528582,18.264221 13.291696,25.230495 11.500037,31.436501 z"
     style="fill:#404040;"/>
  </a>
 </g>
</svg>

<style type='text/css'>
<![CDATA[
[data-mouse-over-selected='false'] { opacity: 0.7; }
[data-mouse-over-selected='true']  { opacity: 1.0; }
]]>
</style>
<script type="application/ecmascript"><![CDATA[
document.addEventListener('DOMContentLoaded', (event) => {
  highlightEdges();
  highlightAdjacentNodes();
});
]]></script>
</svg>
