<?xml version="1.0" encoding="UTF-8" standalone="no"?>
<!DOCTYPE svg PUBLIC "-//W3C//DTD SVG 1.1//EN"
 "http://www.w3.org/Graphics/SVG/1.1/DTD/svg11.dtd">
<!-- Generated by graphviz version 2.43.0 (0)
 -->
<!-- Title: Engine/Source/Runtime/Systems/Core/RelationshipSystem.h Pages: 1 -->
<svg width="2666pt" height="434pt"
 viewBox="0.00 0.00 2666.00 434.00" xmlns="http://www.w3.org/2000/svg" xmlns:xlink="http://www.w3.org/1999/xlink">
<g id="graph0" class="graph" transform="scale(1 1) rotate(0) translate(4 430)">
<title>Engine/Source/Runtime/Systems/Core/RelationshipSystem.h</title>
<!-- Node1 -->
<g id="Node000001" class="node">
<title>Node1</title>
<g id="a_Node000001"><a xlink:title="エンティティ間の親子・兄弟関係 (階層構造) を操作するシステム。">
<polygon fill="#999999" stroke="#666666" points="1386,-426 1189,-426 1189,-396 1386,-396 1386,-426"/>
<text text-anchor="start" x="1197" y="-414" font-family="Helvetica,sans-Serif" font-size="10.00">Engine/Source/Runtime</text>
<text text-anchor="middle" x="1287.5" y="-403" font-family="Helvetica,sans-Serif" font-size="10.00">/Systems/Core/RelationshipSystem.h</text>
</a>
</g>
</g>
<!-- Node2 -->
<g id="Node000002" class="node">
<title>Node2</title>
<g id="a_Node000002"><a xlink:href="System_8h.html" target="_top" xlink:title="ECSシステム (ロジック) の基底クラス。">
<polygon fill="white" stroke="#666666" points="1398.5,-129 1280.5,-129 1280.5,-110 1398.5,-110 1398.5,-129"/>
<text text-anchor="middle" x="1339.5" y="-117" font-family="Helvetica,sans-Serif" font-size="10.00">ECS/Kernel/System.h</text>
</a>
</g>
</g>
<!-- Node1&#45;&gt;Node2 -->
<g id="edge1_Node000001_Node000002" class="edge">
<title>Node1&#45;&gt;Node2</title>
<g id="a_edge1_Node000001_Node000002"><a xlink:title=" ">
<path fill="none" stroke="#63b8ff" d="M1299.1,-395.98C1315.51,-374.7 1343.5,-332.33 1343.5,-291 1343.5,-291 1343.5,-291 1343.5,-228.5 1343.5,-197.17 1341.8,-160.76 1340.61,-139.23"/>
<polygon fill="#63b8ff" stroke="#63b8ff" points="1344.1,-138.96 1340.04,-129.18 1337.12,-139.36 1344.1,-138.96"/>
</a>
</g>
</g>
<!-- Node36 -->
<g id="Node000036" class="node">
<title>Node36</title>
<g id="a_Node000036"><a xlink:href="Relationship_8h.html" target="_top" xlink:title="ECSにおける階層構造 (親子関係) データ。">
<polygon fill="white" stroke="#666666" points="1559.5,-299.5 1383.5,-299.5 1383.5,-280.5 1559.5,-280.5 1559.5,-299.5"/>
<text text-anchor="middle" x="1471.5" y="-287.5" font-family="Helvetica,sans-Serif" font-size="10.00">Components/Core/Relationship.h</text>
</a>
</g>
</g>
<!-- Node1&#45;&gt;Node36 -->
<g id="edge36_Node000001_Node000036" class="edge">
<title>Node1&#45;&gt;Node36</title>
<g id="a_edge36_Node000001_Node000036"><a xlink:title=" ">
<path fill="none" stroke="#63b8ff" d="M1309.33,-395.88C1344.63,-373.05 1413.88,-328.27 1449.37,-305.31"/>
<polygon fill="#63b8ff" stroke="#63b8ff" points="1451.53,-308.08 1458.03,-299.71 1447.73,-302.2 1451.53,-308.08"/>
</a>
</g>
</g>
<!-- Node38 -->
<g id="Node000038" class="node">
<title>Node38</title>
<g id="a_Node000038"><a xlink:href="Transform_8h.html" target="_top" xlink:title="位置、回転、拡大縮小を管理するコンポーネント。">
<polygon fill="white" stroke="#666666" points="1307.5,-360 1143.5,-360 1143.5,-341 1307.5,-341 1307.5,-360"/>
<text text-anchor="middle" x="1225.5" y="-348" font-family="Helvetica,sans-Serif" font-size="10.00">Components/Core/Transform.h</text>
</a>
</g>
</g>
<!-- Node1&#45;&gt;Node38 -->
<g id="edge39_Node000001_Node000038" class="edge">
<title>Node1&#45;&gt;Node38</title>
<g id="a_edge39_Node000001_Node000038"><a xlink:title=" ">
<path fill="none" stroke="#63b8ff" d="M1272.49,-395.84C1263.31,-387.17 1251.55,-376.08 1242.09,-367.15"/>
<polygon fill="#63b8ff" stroke="#63b8ff" points="1244.47,-364.58 1234.79,-360.27 1239.66,-369.67 1244.47,-364.58"/>
</a>
</g>
</g>
<!-- Node57 -->
<g id="Node000057" class="node">
<title>Node57</title>
<g id="a_Node000057"><a xlink:href="LocalToWorld_8h.html" target="_top" xlink:title="計算済みのワールド変換行列">
<polygon fill="white" stroke="#666666" points="604,-129 425,-129 425,-110 604,-110 604,-129"/>
<text text-anchor="middle" x="514.5" y="-117" font-family="Helvetica,sans-Serif" font-size="10.00">Components/Core/LocalToWorld.h</text>
</a>
</g>
</g>
<!-- Node1&#45;&gt;Node57 -->
<g id="edge64_Node000001_Node000057" class="edge">
<title>Node1&#45;&gt;Node57</title>
<g id="a_edge64_Node000001_Node000057"><a xlink:title=" ">
<path fill="none" stroke="#63b8ff" d="M1188.96,-407.56C949.87,-400.32 358.5,-374.03 358.5,-291 358.5,-291 358.5,-291 358.5,-228.5 358.5,-175.1 421.05,-146.02 466.94,-131.88"/>
<polygon fill="#63b8ff" stroke="#63b8ff" points="468.13,-135.18 476.74,-129 466.16,-128.46 468.13,-135.18"/>
</a>
</g>
</g>
<!-- Node3 -->
<g id="Node000003" class="node">
<title>Node3</title>
<g id="a_Node000003"><a xlink:href="CoreMinimal_8h.html" target="_top" xlink:title="エンジンの標準インクルードファイル。">
<polygon fill="white" stroke="#666666" points="1340,-74 1227,-74 1227,-55 1340,-55 1340,-74"/>
<text text-anchor="middle" x="1283.5" y="-62" font-family="Helvetica,sans-Serif" font-size="10.00">Core/CoreMinimal.h</text>
</a>
</g>
</g>
<!-- Node2&#45;&gt;Node3 -->
<g id="edge2_Node000002_Node000003" class="edge">
<title>Node2&#45;&gt;Node3</title>
<g id="a_edge2_Node000002_Node000003"><a xlink:title=" ">
<path fill="none" stroke="#63b8ff" d="M1330.5,-109.98C1322.31,-102.23 1309.99,-90.58 1300.03,-81.14"/>
<polygon fill="#63b8ff" stroke="#63b8ff" points="1302.33,-78.5 1292.66,-74.17 1297.52,-83.59 1302.33,-78.5"/>
</a>
</g>
</g>
<!-- Node4 -->
<g id="Node000004" class="node">
<title>Node4</title>
<g id="a_Node000004"><a xlink:title=" ">
<polygon fill="#e0e0e0" stroke="#999999" points="2229.5,-19 2159.5,-19 2159.5,0 2229.5,0 2229.5,-19"/>
<text text-anchor="middle" x="2194.5" y="-7" font-family="Helvetica,sans-Serif" font-size="10.00">Windows.h</text>
</a>
</g>
</g>
<!-- Node3&#45;&gt;Node4 -->
<g id="edge3_Node000003_Node000004" class="edge">
<title>Node3&#45;&gt;Node4</title>
<g id="a_edge3_Node000003_Node000004"><a xlink:title=" ">
<path fill="none" stroke="#63b8ff" d="M1340.11,-61.63C1503.35,-56.07 1973.88,-38.88 2148.92,-18.99"/>
<polygon fill="#63b8ff" stroke="#63b8ff" points="2149.5,-22.44 2159.03,-17.79 2148.68,-15.49 2149.5,-22.44"/>
</a>
</g>
</g>
<!-- Node5 -->
<g id="Node000005" class="node">
<title>Node5</title>
<g id="a_Node000005"><a xlink:title=" ">
<polygon fill="#e0e0e0" stroke="#999999" points="2289,-19 2248,-19 2248,0 2289,0 2289,-19"/>
<text text-anchor="middle" x="2268.5" y="-7" font-family="Helvetica,sans-Serif" font-size="10.00">wrl.h</text>
</a>
</g>
</g>
<!-- Node3&#45;&gt;Node5 -->
<g id="edge4_Node000003_Node000005" class="edge">
<title>Node3&#45;&gt;Node5</title>
<g id="a_edge4_Node000003_Node000005"><a xlink:title=" ">
<path fill="none" stroke="#63b8ff" d="M1340.01,-61.62C1526.08,-55.34 2114.22,-34.65 2238.06,-18.44"/>
<polygon fill="#63b8ff" stroke="#63b8ff" points="2238.6,-21.9 2247.98,-16.98 2237.58,-14.97 2238.6,-21.9"/>
</a>
</g>
</g>
<!-- Node6 -->
<g id="Node000006" class="node">
<title>Node6</title>
<g id="a_Node000006"><a xlink:title=" ">
<polygon fill="#e0e0e0" stroke="#999999" points="2378,-19 2307,-19 2307,0 2378,0 2378,-19"/>
<text text-anchor="middle" x="2342.5" y="-7" font-family="Helvetica,sans-Serif" font-size="10.00">wrl/client.h</text>
</a>
</g>
</g>
<!-- Node3&#45;&gt;Node6 -->
<g id="edge5_Node000003_Node000006" class="edge">
<title>Node3&#45;&gt;Node6</title>
<g id="a_edge5_Node000003_Node000006"><a xlink:title=" ">
<path fill="none" stroke="#63b8ff" d="M1340.06,-62.12C1521.93,-57.5 2091.29,-41.68 2296.47,-19.04"/>
<polygon fill="#63b8ff" stroke="#63b8ff" points="2297.01,-22.51 2306.55,-17.89 2296.22,-15.55 2297.01,-22.51"/>
</a>
</g>
</g>
<!-- Node7 -->
<g id="Node000007" class="node">
<title>Node7</title>
<g id="a_Node000007"><a xlink:title=" ">
<polygon fill="#e0e0e0" stroke="#999999" points="2446.5,-19 2396.5,-19 2396.5,0 2446.5,0 2446.5,-19"/>
<text text-anchor="middle" x="2421.5" y="-7" font-family="Helvetica,sans-Serif" font-size="10.00">cstdint</text>
</a>
</g>
</g>
<!-- Node3&#45;&gt;Node7 -->
<g id="edge6_Node000003_Node000007" class="edge">
<title>Node3&#45;&gt;Node7</title>
<g id="a_edge6_Node000003_Node000007"><a xlink:title=" ">
<path fill="none" stroke="#63b8ff" d="M1340.23,-61.89C1545.63,-55.99 2245.4,-35.06 2386.18,-18.71"/>
<polygon fill="#63b8ff" stroke="#63b8ff" points="2386.89,-22.15 2396.36,-17.39 2386,-15.21 2386.89,-22.15"/>
</a>
</g>
</g>
<!-- Node8 -->
<g id="Node000008" class="node">
<title>Node8</title>
<g id="a_Node000008"><a xlink:title=" ">
<polygon fill="#e0e0e0" stroke="#999999" points="407.5,-19 347.5,-19 347.5,0 407.5,0 407.5,-19"/>
<text text-anchor="middle" x="377.5" y="-7" font-family="Helvetica,sans-Serif" font-size="10.00">iostream</text>
</a>
</g>
</g>
<!-- Node3&#45;&gt;Node8 -->
<g id="edge7_Node000003_Node000008" class="edge">
<title>Node3&#45;&gt;Node8</title>
<g id="a_edge7_Node000003_Node000008"><a xlink:title=" ">
<path fill="none" stroke="#63b8ff" d="M1226.91,-63.78C1089.63,-63.78 728.01,-59.69 417.74,-18.92"/>
<polygon fill="#63b8ff" stroke="#63b8ff" points="418.02,-15.43 407.65,-17.58 417.1,-22.37 418.02,-15.43"/>
</a>
</g>
</g>
<!-- Node9 -->
<g id="Node000009" class="node">
<title>Node9</title>
<g id="a_Node000009"><a xlink:title=" ">
<polygon fill="#e0e0e0" stroke="#999999" points="479,-19 426,-19 426,0 479,0 479,-19"/>
<text text-anchor="middle" x="452.5" y="-7" font-family="Helvetica,sans-Serif" font-size="10.00">string.h</text>
</a>
</g>
</g>
<!-- Node3&#45;&gt;Node9 -->
<g id="edge8_Node000003_Node000009" class="edge">
<title>Node3&#45;&gt;Node9</title>
<g id="a_edge8_Node000003_Node000009"><a xlink:title=" ">
<path fill="none" stroke="#63b8ff" d="M1226.68,-63.87C1097.17,-63.94 770.14,-59.81 489.13,-18.97"/>
<polygon fill="#63b8ff" stroke="#63b8ff" points="489.56,-15.5 479.15,-17.5 488.54,-22.42 489.56,-15.5"/>
</a>
</g>
</g>
<!-- Node10 -->
<g id="Node000010" class="node">
<title>Node10</title>
<g id="a_Node000010"><a xlink:title=" ">
<polygon fill="#e0e0e0" stroke="#999999" points="2592.5,-19 2548.5,-19 2548.5,0 2592.5,0 2592.5,-19"/>
<text text-anchor="middle" x="2570.5" y="-7" font-family="Helvetica,sans-Serif" font-size="10.00">string</text>
</a>
</g>
</g>
<!-- Node3&#45;&gt;Node10 -->
<g id="edge9_Node000003_Node000010" class="edge">
<title>Node3&#45;&gt;Node10</title>
<g id="a_edge9_Node000003_Node000010"><a xlink:title=" ">
<path fill="none" stroke="#63b8ff" d="M1340.19,-63.24C1550.11,-62 2283.76,-55.22 2538.34,-18.73"/>
<polygon fill="#63b8ff" stroke="#63b8ff" points="2538.91,-22.19 2548.28,-17.26 2537.88,-15.26 2538.91,-22.19"/>
</a>
</g>
</g>
<!-- Node11 -->
<g id="Node000011" class="node">
<title>Node11</title>
<g id="a_Node000011"><a xlink:title=" ">
<polygon fill="#e0e0e0" stroke="#999999" points="2658,-19 2611,-19 2611,0 2658,0 2658,-19"/>
<text text-anchor="middle" x="2634.5" y="-7" font-family="Helvetica,sans-Serif" font-size="10.00">vector</text>
</a>
</g>
</g>
<!-- Node3&#45;&gt;Node11 -->
<g id="edge10_Node000003_Node000011" class="edge">
<title>Node3&#45;&gt;Node11</title>
<g id="a_edge10_Node000003_Node000011"><a xlink:title=" ">
<path fill="none" stroke="#63b8ff" d="M1340.32,-63.23C1557.03,-61.95 2332.47,-55.01 2600.74,-18.67"/>
<polygon fill="#63b8ff" stroke="#63b8ff" points="2601.42,-22.11 2610.83,-17.26 2600.44,-15.18 2601.42,-22.11"/>
</a>
</g>
</g>
<!-- Node12 -->
<g id="Node000012" class="node">
<title>Node12</title>
<g id="a_Node000012"><a xlink:title=" ">
<polygon fill="#e0e0e0" stroke="#999999" points="544,-19 497,-19 497,0 544,0 544,-19"/>
<text text-anchor="middle" x="520.5" y="-7" font-family="Helvetica,sans-Serif" font-size="10.00">deque</text>
</a>
</g>
</g>
<!-- Node3&#45;&gt;Node12 -->
<g id="edge11_Node000003_Node000012" class="edge">
<title>Node3&#45;&gt;Node12</title>
<g id="a_edge11_Node000003_Node000012"><a xlink:title=" ">
<path fill="none" stroke="#63b8ff" d="M1226.67,-63.87C1104.79,-63.83 809.26,-59.33 554.35,-18.98"/>
<polygon fill="#63b8ff" stroke="#63b8ff" points="554.58,-15.47 544.15,-17.34 553.47,-22.38 554.58,-15.47"/>
</a>
</g>
</g>
<!-- Node13 -->
<g id="Node000013" class="node">
<title>Node13</title>
<g id="a_Node000013"><a xlink:title=" ">
<polygon fill="#e0e0e0" stroke="#999999" points="655,-19 562,-19 562,0 655,0 655,-19"/>
<text text-anchor="middle" x="608.5" y="-7" font-family="Helvetica,sans-Serif" font-size="10.00">unordered_map</text>
</a>
</g>
</g>
<!-- Node3&#45;&gt;Node13 -->
<g id="edge12_Node000003_Node000013" class="edge">
<title>Node3&#45;&gt;Node13</title>
<g id="a_edge12_Node000003_Node000013"><a xlink:title=" ">
<path fill="none" stroke="#63b8ff" d="M1226.61,-60.91C1119.11,-55.7 878.56,-42.47 665.35,-19"/>
<polygon fill="#63b8ff" stroke="#63b8ff" points="665.54,-15.5 655.21,-17.87 664.77,-22.45 665.54,-15.5"/>
</a>
</g>
</g>
<!-- Node14 -->
<g id="Node000014" class="node">
<title>Node14</title>
<g id="a_Node000014"><a xlink:title=" ">
<polygon fill="#e0e0e0" stroke="#999999" points="711.5,-19 673.5,-19 673.5,0 711.5,0 711.5,-19"/>
<text text-anchor="middle" x="692.5" y="-7" font-family="Helvetica,sans-Serif" font-size="10.00">map</text>
</a>
</g>
</g>
<!-- Node3&#45;&gt;Node14 -->
<g id="edge13_Node000003_Node000014" class="edge">
<title>Node3&#45;&gt;Node14</title>
<g id="a_edge13_Node000003_Node000014"><a xlink:title=" ">
<path fill="none" stroke="#63b8ff" d="M1226.63,-63.04C1126.17,-61.36 910.83,-53.82 721.5,-18.76"/>
<polygon fill="#63b8ff" stroke="#63b8ff" points="722.12,-15.32 711.64,-16.91 720.82,-22.2 722.12,-15.32"/>
</a>
</g>
</g>
<!-- Node15 -->
<g id="Node000015" class="node">
<title>Node15</title>
<g id="a_Node000015"><a xlink:title=" ">
<polygon fill="#e0e0e0" stroke="#999999" points="787.5,-19 729.5,-19 729.5,0 787.5,0 787.5,-19"/>
<text text-anchor="middle" x="758.5" y="-7" font-family="Helvetica,sans-Serif" font-size="10.00">memory</text>
</a>
</g>
</g>
<!-- Node3&#45;&gt;Node15 -->
<g id="edge14_Node000003_Node000015" class="edge">
<title>Node3&#45;&gt;Node15</title>
<g id="a_edge14_Node000003_Node000015"><a xlink:title=" ">
<path fill="none" stroke="#63b8ff" d="M1226.97,-60.71C1137.76,-55.78 958.78,-43.78 797.96,-19.04"/>
<polygon fill="#63b8ff" stroke="#63b8ff" points="798.31,-15.55 787.89,-17.47 797.23,-22.47 798.31,-15.55"/>
</a>
</g>
</g>
<!-- Node16 -->
<g id="Node000016" class="node">
<title>Node16</title>
<g id="a_Node000016"><a xlink:title=" ">
<polygon fill="#e0e0e0" stroke="#999999" points="129.5,-19 65.5,-19 65.5,0 129.5,0 129.5,-19"/>
<text text-anchor="middle" x="97.5" y="-7" font-family="Helvetica,sans-Serif" font-size="10.00">algorithm</text>
</a>
</g>
</g>
<!-- Node3&#45;&gt;Node16 -->
<g id="edge15_Node000003_Node000016" class="edge">
<title>Node3&#45;&gt;Node16</title>
<g id="a_edge15_Node000003_Node000016"><a xlink:title=" ">
<path fill="none" stroke="#63b8ff" d="M1226.79,-62.54C1029.42,-59.01 372.39,-45.59 139.74,-18.89"/>
<polygon fill="#63b8ff" stroke="#63b8ff" points="139.99,-15.39 129.65,-17.69 139.16,-22.34 139.99,-15.39"/>
</a>
</g>
</g>
<!-- Node17 -->
<g id="Node000017" class="node">
<title>Node17</title>
<g id="a_Node000017"><a xlink:title=" ">
<polygon fill="#e0e0e0" stroke="#999999" points="2530,-19 2465,-19 2465,0 2530,0 2530,-19"/>
<text text-anchor="middle" x="2497.5" y="-7" font-family="Helvetica,sans-Serif" font-size="10.00">functional</text>
</a>
</g>
</g>
<!-- Node3&#45;&gt;Node17 -->
<g id="edge16_Node000003_Node000017" class="edge">
<title>Node3&#45;&gt;Node17</title>
<g id="a_edge16_Node000003_Node000017"><a xlink:title=" ">
<path fill="none" stroke="#63b8ff" d="M1340.29,-61.88C1554.21,-55.73 2306.38,-33.4 2454.59,-18.77"/>
<polygon fill="#63b8ff" stroke="#63b8ff" points="2455,-22.25 2464.57,-17.69 2454.25,-15.29 2455,-22.25"/>
</a>
</g>
</g>
<!-- Node18 -->
<g id="Node000018" class="node">
<title>Node18</title>
<g id="a_Node000018"><a xlink:title=" ">
<polygon fill="#e0e0e0" stroke="#999999" points="855.5,-19 805.5,-19 805.5,0 855.5,0 855.5,-19"/>
<text text-anchor="middle" x="830.5" y="-7" font-family="Helvetica,sans-Serif" font-size="10.00">chrono</text>
</a>
</g>
</g>
<!-- Node3&#45;&gt;Node18 -->
<g id="edge17_Node000003_Node000018" class="edge">
<title>Node3&#45;&gt;Node18</title>
<g id="a_edge17_Node000003_Node000018"><a xlink:title=" ">
<path fill="none" stroke="#63b8ff" d="M1226.9,-60C1148.03,-54.57 1000.5,-42.4 865.76,-18.99"/>
<polygon fill="#63b8ff" stroke="#63b8ff" points="866.12,-15.5 855.67,-17.21 864.91,-22.39 866.12,-15.5"/>
</a>
</g>
</g>
<!-- Node19 -->
<g id="Node000019" class="node">
<title>Node19</title>
<g id="a_Node000019"><a xlink:title=" ">
<polygon fill="#e0e0e0" stroke="#999999" points="919.5,-19 873.5,-19 873.5,0 919.5,0 919.5,-19"/>
<text text-anchor="middle" x="896.5" y="-7" font-family="Helvetica,sans-Serif" font-size="10.00">cstdio</text>
</a>
</g>
</g>
<!-- Node3&#45;&gt;Node19 -->
<g id="edge18_Node000003_Node000019" class="edge">
<title>Node3&#45;&gt;Node19</title>
<g id="a_edge18_Node000003_Node000019"><a xlink:title=" ">
<path fill="none" stroke="#63b8ff" d="M1226.87,-58.78C1158.55,-52.55 1040.11,-40.07 929.8,-19.02"/>
<polygon fill="#63b8ff" stroke="#63b8ff" points="930.32,-15.55 919.83,-17.09 928.99,-22.43 930.32,-15.55"/>
</a>
</g>
</g>
<!-- Node20 -->
<g id="Node000020" class="node">
<title>Node20</title>
<g id="a_Node000020"><a xlink:title=" ">
<polygon fill="#e0e0e0" stroke="#999999" points="989.5,-19 937.5,-19 937.5,0 989.5,0 989.5,-19"/>
<text text-anchor="middle" x="963.5" y="-7" font-family="Helvetica,sans-Serif" font-size="10.00">cassert</text>
</a>
</g>
</g>
<!-- Node3&#45;&gt;Node20 -->
<g id="edge19_Node000003_Node000020" class="edge">
<title>Node3&#45;&gt;Node20</title>
<g id="a_edge19_Node000003_Node000020"><a xlink:title=" ">
<path fill="none" stroke="#63b8ff" d="M1226.75,-56.06C1171.25,-48.46 1084.15,-35.69 999.82,-19.13"/>
<polygon fill="#63b8ff" stroke="#63b8ff" points="1000.31,-15.66 989.82,-17.14 998.95,-22.52 1000.31,-15.66"/>
</a>
</g>
</g>
<!-- Node21 -->
<g id="Node000021" class="node">
<title>Node21</title>
<g id="a_Node000021"><a xlink:title=" ">
<polygon fill="#e0e0e0" stroke="#999999" points="1073,-19 1008,-19 1008,0 1073,0 1073,-19"/>
<text text-anchor="middle" x="1040.5" y="-7" font-family="Helvetica,sans-Serif" font-size="10.00">typeindex</text>
</a>
</g>
</g>
<!-- Node3&#45;&gt;Node21 -->
<g id="edge20_Node000003_Node000021" class="edge">
<title>Node3&#45;&gt;Node21</title>
<g id="a_edge20_Node000003_Node000021"><a xlink:title=" ">
<path fill="none" stroke="#63b8ff" d="M1244.46,-54.98C1200.3,-45.35 1128.64,-29.72 1083.08,-19.79"/>
<polygon fill="#63b8ff" stroke="#63b8ff" points="1083.73,-16.35 1073.21,-17.63 1082.24,-23.19 1083.73,-16.35"/>
</a>
</g>
</g>
<!-- Node22 -->
<g id="Node000022" class="node">
<title>Node22</title>
<g id="a_Node000022"><a xlink:title=" ">
<polygon fill="#e0e0e0" stroke="#999999" points="1159.5,-19 1091.5,-19 1091.5,0 1159.5,0 1159.5,-19"/>
<text text-anchor="middle" x="1125.5" y="-7" font-family="Helvetica,sans-Serif" font-size="10.00">filesystem</text>
</a>
</g>
</g>
<!-- Node3&#45;&gt;Node22 -->
<g id="edge21_Node000003_Node000022" class="edge">
<title>Node3&#45;&gt;Node22</title>
<g id="a_edge21_Node000003_Node000022"><a xlink:title=" ">
<path fill="none" stroke="#63b8ff" d="M1258.11,-54.98C1231.7,-46.13 1190.15,-32.19 1160.61,-22.28"/>
<polygon fill="#63b8ff" stroke="#63b8ff" points="1161.68,-18.94 1151.08,-19.08 1159.45,-25.58 1161.68,-18.94"/>
</a>
</g>
</g>
<!-- Node23 -->
<g id="Node000023" class="node">
<title>Node23</title>
<g id="a_Node000023"><a xlink:title=" ">
<polygon fill="#e0e0e0" stroke="#999999" points="1209.5,-19 1177.5,-19 1177.5,0 1209.5,0 1209.5,-19"/>
<text text-anchor="middle" x="1193.5" y="-7" font-family="Helvetica,sans-Serif" font-size="10.00">set</text>
</a>
</g>
</g>
<!-- Node3&#45;&gt;Node23 -->
<g id="edge22_Node000003_Node000023" class="edge">
<title>Node3&#45;&gt;Node23</title>
<g id="a_edge22_Node000003_Node000023"><a xlink:title=" ">
<path fill="none" stroke="#63b8ff" d="M1269.04,-54.98C1255.08,-46.77 1233.71,-34.18 1217.25,-24.49"/>
<polygon fill="#63b8ff" stroke="#63b8ff" points="1218.62,-21.23 1208.22,-19.17 1215.06,-27.26 1218.62,-21.23"/>
</a>
</g>
</g>
<!-- Node24 -->
<g id="Node000024" class="node">
<title>Node24</title>
<g id="a_Node000024"><a xlink:title=" ">
<polygon fill="#e0e0e0" stroke="#999999" points="1283,-19 1228,-19 1228,0 1283,0 1283,-19"/>
<text text-anchor="middle" x="1255.5" y="-7" font-family="Helvetica,sans-Serif" font-size="10.00">fstream</text>
</a>
</g>
</g>
<!-- Node3&#45;&gt;Node24 -->
<g id="edge23_Node000003_Node000024" class="edge">
<title>Node3&#45;&gt;Node24</title>
<g id="a_edge23_Node000003_Node000024"><a xlink:title=" ">
<path fill="none" stroke="#63b8ff" d="M1278.88,-54.75C1275.04,-47.49 1269.48,-36.95 1264.74,-27.98"/>
<polygon fill="#63b8ff" stroke="#63b8ff" points="1267.8,-26.3 1260.04,-19.09 1261.61,-29.57 1267.8,-26.3"/>
</a>
</g>
</g>
<!-- Node25 -->
<g id="Node000025" class="node">
<title>Node25</title>
<g id="a_Node000025"><a xlink:title=" ">
<polygon fill="#e0e0e0" stroke="#999999" points="1357.5,-19 1301.5,-19 1301.5,0 1357.5,0 1357.5,-19"/>
<text text-anchor="middle" x="1329.5" y="-7" font-family="Helvetica,sans-Serif" font-size="10.00">sstream</text>
</a>
</g>
</g>
<!-- Node3&#45;&gt;Node25 -->
<g id="edge24_Node000003_Node000025" class="edge">
<title>Node3&#45;&gt;Node25</title>
<g id="a_edge24_Node000003_Node000025"><a xlink:title=" ">
<path fill="none" stroke="#63b8ff" d="M1291.1,-54.75C1297.66,-47.18 1307.32,-36.05 1315.31,-26.84"/>
<polygon fill="#63b8ff" stroke="#63b8ff" points="1318.13,-28.94 1322.05,-19.09 1312.85,-24.35 1318.13,-28.94"/>
</a>
</g>
</g>
<!-- Node26 -->
<g id="Node000026" class="node">
<title>Node26</title>
<g id="a_Node000026"><a xlink:title=" ">
<polygon fill="#e0e0e0" stroke="#999999" points="1423.5,-19 1375.5,-19 1375.5,0 1423.5,0 1423.5,-19"/>
<text text-anchor="middle" x="1399.5" y="-7" font-family="Helvetica,sans-Serif" font-size="10.00">mutex</text>
</a>
</g>
</g>
<!-- Node3&#45;&gt;Node26 -->
<g id="edge25_Node000003_Node000026" class="edge">
<title>Node3&#45;&gt;Node26</title>
<g id="a_edge25_Node000003_Node000026"><a xlink:title=" ">
<path fill="none" stroke="#63b8ff" d="M1302.14,-54.98C1320.8,-46.46 1349.75,-33.23 1371.24,-23.41"/>
<polygon fill="#63b8ff" stroke="#63b8ff" points="1372.88,-26.51 1380.52,-19.17 1369.97,-20.14 1372.88,-26.51"/>
</a>
</g>
</g>
<!-- Node27 -->
<g id="Node000027" class="node">
<title>Node27</title>
<g id="a_Node000027"><a xlink:title=" ">
<polygon fill="#e0e0e0" stroke="#999999" points="1495.5,-19 1441.5,-19 1441.5,0 1495.5,0 1495.5,-19"/>
<text text-anchor="middle" x="1468.5" y="-7" font-family="Helvetica,sans-Serif" font-size="10.00">random</text>
</a>
</g>
</g>
<!-- Node3&#45;&gt;Node27 -->
<g id="edge26_Node000003_Node000027" class="edge">
<title>Node3&#45;&gt;Node27</title>
<g id="a_edge26_Node000003_Node000027"><a xlink:title=" ">
<path fill="none" stroke="#63b8ff" d="M1313.22,-54.98C1345.39,-45.77 1396.73,-31.06 1431.49,-21.1"/>
<polygon fill="#63b8ff" stroke="#63b8ff" points="1432.61,-24.42 1441.26,-18.3 1430.68,-17.69 1432.61,-24.42"/>
</a>
</g>
</g>
<!-- Node28 -->
<g id="Node000028" class="node">
<title>Node28</title>
<g id="a_Node000028"><a xlink:title=" ">
<polygon fill="#e0e0e0" stroke="#999999" points="1569.5,-19 1513.5,-19 1513.5,0 1569.5,0 1569.5,-19"/>
<text text-anchor="middle" x="1541.5" y="-7" font-family="Helvetica,sans-Serif" font-size="10.00">d3d12.h</text>
</a>
</g>
</g>
<!-- Node3&#45;&gt;Node28 -->
<g id="edge27_Node000003_Node000028" class="edge">
<title>Node3&#45;&gt;Node28</title>
<g id="a_edge27_Node000003_Node000028"><a xlink:title=" ">
<path fill="none" stroke="#63b8ff" d="M1327.6,-54.99C1370.17,-46.69 1436.68,-33.5 1503.39,-19.19"/>
<polygon fill="#63b8ff" stroke="#63b8ff" points="1504.2,-22.6 1513.24,-17.08 1502.72,-15.76 1504.2,-22.6"/>
</a>
</g>
</g>
<!-- Node29 -->
<g id="Node000029" class="node">
<title>Node29</title>
<g id="a_Node000029"><a xlink:title=" ">
<polygon fill="#e0e0e0" stroke="#999999" points="1651.5,-19 1587.5,-19 1587.5,0 1651.5,0 1651.5,-19"/>
<text text-anchor="middle" x="1619.5" y="-7" font-family="Helvetica,sans-Serif" font-size="10.00">dxgi1_6.h</text>
</a>
</g>
</g>
<!-- Node3&#45;&gt;Node29 -->
<g id="edge28_Node000003_Node000029" class="edge">
<title>Node3&#45;&gt;Node29</title>
<g id="a_edge28_Node000003_Node000029"><a xlink:title=" ">
<path fill="none" stroke="#63b8ff" d="M1340.2,-55.88C1397.56,-47.97 1489,-34.78 1577.38,-19.12"/>
<polygon fill="#63b8ff" stroke="#63b8ff" points="1578.07,-22.55 1587.3,-17.35 1576.84,-15.66 1578.07,-22.55"/>
</a>
</g>
</g>
<!-- Node30 -->
<g id="Node000030" class="node">
<title>Node30</title>
<g id="a_Node000030"><a xlink:title=" ">
<polygon fill="#e0e0e0" stroke="#999999" points="1755.5,-19 1669.5,-19 1669.5,0 1755.5,0 1755.5,-19"/>
<text text-anchor="middle" x="1712.5" y="-7" font-family="Helvetica,sans-Serif" font-size="10.00">d3dcompiler.h</text>
</a>
</g>
</g>
<!-- Node3&#45;&gt;Node30 -->
<g id="edge29_Node000003_Node000030" class="edge">
<title>Node3&#45;&gt;Node30</title>
<g id="a_edge29_Node000003_Node000030"><a xlink:title=" ">
<path fill="none" stroke="#63b8ff" d="M1340.13,-57.61C1411.95,-49.96 1539.87,-35.76 1659.34,-19.11"/>
<polygon fill="#63b8ff" stroke="#63b8ff" points="1659.98,-22.55 1669.39,-17.7 1659,-15.62 1659.98,-22.55"/>
</a>
</g>
</g>
<!-- Node31 -->
<g id="Node000031" class="node">
<title>Node31</title>
<g id="a_Node000031"><a xlink:title=" ">
<polygon fill="#e0e0e0" stroke="#999999" points="233.5,-19 147.5,-19 147.5,0 233.5,0 233.5,-19"/>
<text text-anchor="middle" x="190.5" y="-7" font-family="Helvetica,sans-Serif" font-size="10.00">DirectXMath.h</text>
</a>
</g>
</g>
<!-- Node3&#45;&gt;Node31 -->
<g id="edge30_Node000003_Node000031" class="edge">
<title>Node3&#45;&gt;Node31</title>
<g id="a_edge30_Node000003_Node000031"><a xlink:title=" ">
<path fill="none" stroke="#63b8ff" d="M1226.91,-63.45C1071.46,-62.8 624.74,-57.55 243.7,-18.98"/>
<polygon fill="#63b8ff" stroke="#63b8ff" points="243.88,-15.48 233.58,-17.95 243.17,-22.45 243.88,-15.48"/>
</a>
</g>
</g>
<!-- Node32 -->
<g id="Node000032" class="node">
<title>Node32</title>
<g id="a_Node000032"><a xlink:title=" ">
<polygon fill="#e0e0e0" stroke="#999999" points="1891,-19 1774,-19 1774,0 1891,0 1891,-19"/>
<text text-anchor="middle" x="1832.5" y="-7" font-family="Helvetica,sans-Serif" font-size="10.00">assimp/Importer.hpp</text>
</a>
</g>
</g>
<!-- Node3&#45;&gt;Node32 -->
<g id="edge31_Node000003_Node000032" class="edge">
<title>Node3&#45;&gt;Node32</title>
<g id="a_edge31_Node000003_Node000032"><a xlink:title=" ">
<path fill="none" stroke="#63b8ff" d="M1340.2,-58.85C1428.37,-51.48 1603.91,-36.3 1763.88,-19.03"/>
<polygon fill="#63b8ff" stroke="#63b8ff" points="1764.34,-22.5 1773.91,-17.95 1763.59,-15.54 1764.34,-22.5"/>
</a>
</g>
</g>
<!-- Node33 -->
<g id="Node000033" class="node">
<title>Node33</title>
<g id="a_Node000033"><a xlink:title=" ">
<polygon fill="#e0e0e0" stroke="#999999" points="2001.5,-19 1909.5,-19 1909.5,0 2001.5,0 2001.5,-19"/>
<text text-anchor="middle" x="1955.5" y="-7" font-family="Helvetica,sans-Serif" font-size="10.00">assimp/scene.h</text>
</a>
</g>
</g>
<!-- Node3&#45;&gt;Node33 -->
<g id="edge32_Node000003_Node000033" class="edge">
<title>Node3&#45;&gt;Node33</title>
<g id="a_edge32_Node000003_Node000033"><a xlink:title=" ">
<path fill="none" stroke="#63b8ff" d="M1340.21,-60.96C1447.38,-55.81 1687.16,-42.69 1899.25,-19.05"/>
<polygon fill="#63b8ff" stroke="#63b8ff" points="1899.78,-22.51 1909.32,-17.92 1898.99,-15.56 1899.78,-22.51"/>
</a>
</g>
</g>
<!-- Node34 -->
<g id="Node000034" class="node">
<title>Node34</title>
<g id="a_Node000034"><a xlink:title=" ">
<polygon fill="#e0e0e0" stroke="#999999" points="2141.5,-19 2019.5,-19 2019.5,0 2141.5,0 2141.5,-19"/>
<text text-anchor="middle" x="2080.5" y="-7" font-family="Helvetica,sans-Serif" font-size="10.00">assimp/postprocess.h</text>
</a>
</g>
</g>
<!-- Node3&#45;&gt;Node34 -->
<g id="edge33_Node000003_Node000034" class="edge">
<title>Node3&#45;&gt;Node34</title>
<g id="a_edge33_Node000003_Node000034"><a xlink:title=" ">
<path fill="none" stroke="#63b8ff" d="M1340.15,-61.19C1461.01,-56 1753.32,-42.12 2009.2,-19.06"/>
<polygon fill="#63b8ff" stroke="#63b8ff" points="2009.8,-22.52 2019.44,-18.13 2009.16,-15.55 2009.8,-22.52"/>
</a>
</g>
</g>
<!-- Node35 -->
<g id="Node000035" class="node">
<title>Node35</title>
<g id="a_Node000035"><a xlink:href="Logger_8h.html" target="_top" xlink:title="デバッグログ出力システム">
<polygon fill="white" stroke="#666666" points="329.5,-19 251.5,-19 251.5,0 329.5,0 329.5,-19"/>
<text text-anchor="middle" x="290.5" y="-7" font-family="Helvetica,sans-Serif" font-size="10.00">Log/Logger.h</text>
</a>
</g>
</g>
<!-- Node3&#45;&gt;Node35 -->
<g id="edge34_Node000003_Node000035" class="edge">
<title>Node3&#45;&gt;Node35</title>
<g id="a_edge34_Node000003_Node000035"><a xlink:title=" ">
<path fill="none" stroke="#63b8ff" d="M1226.86,-63.38C1080.21,-62.57 676.59,-56.92 339.94,-20.15"/>
<polygon fill="#63b8ff" stroke="#63b8ff" points="340.32,-16.67 330,-19.06 339.55,-23.63 340.32,-16.67"/>
</a>
</g>
</g>
<!-- Node35&#45;&gt;Node3 -->
<g id="edge35_Node000035_Node000003" class="edge">
<title>Node35&#45;&gt;Node3</title>
<g id="a_edge35_Node000035_Node000003"><a xlink:title=" ">
<path fill="none" stroke="#63b8ff" d="M329.72,-16.49C335.71,-17.46 341.78,-18.36 347.5,-19 672.21,-55.24 1062.9,-62.03 1216.73,-63.26"/>
<polygon fill="#63b8ff" stroke="#63b8ff" points="1216.93,-66.76 1226.96,-63.33 1216.99,-59.76 1216.93,-66.76"/>
</a>
</g>
</g>
<!-- Node37 -->
<g id="Node000037" class="node">
<title>Node37</title>
<g id="a_Node000037"><a xlink:href="Entity_8h.html" target="_top" xlink:title="ECSにおけるオブジェクトの識別子 (ID) を定義します。">
<polygon fill="white" stroke="#666666" points="1607.5,-184 1499.5,-184 1499.5,-165 1607.5,-165 1607.5,-184"/>
<text text-anchor="middle" x="1553.5" y="-172" font-family="Helvetica,sans-Serif" font-size="10.00">ECS/Kernel/Entity.h</text>
</a>
</g>
</g>
<!-- Node36&#45;&gt;Node37 -->
<g id="edge37_Node000036_Node000037" class="edge">
<title>Node36&#45;&gt;Node37</title>
<g id="a_edge37_Node000036_Node000037"><a xlink:title=" ">
<path fill="none" stroke="#63b8ff" d="M1477.66,-280.47C1491.14,-261.82 1523.43,-217.11 1541.23,-192.49"/>
<polygon fill="#63b8ff" stroke="#63b8ff" points="1544.25,-194.29 1547.27,-184.13 1538.57,-190.19 1544.25,-194.29"/>
</a>
</g>
</g>
<!-- Node37&#45;&gt;Node3 -->
<g id="edge38_Node000037_Node000003" class="edge">
<title>Node37&#45;&gt;Node3</title>
<g id="a_edge38_Node000037_Node000003"><a xlink:title=" ">
<path fill="none" stroke="#63b8ff" d="M1538.23,-164.85C1514.75,-151.78 1468.12,-126.75 1426.5,-110 1393.38,-96.67 1354.65,-84.84 1325.86,-76.73"/>
<polygon fill="#63b8ff" stroke="#63b8ff" points="1326.68,-73.33 1316.11,-74.02 1324.81,-80.07 1326.68,-73.33"/>
</a>
</g>
</g>
<!-- Node39 -->
<g id="Node000039" class="node">
<title>Node39</title>
<g id="a_Node000039"><a xlink:href="SpanMath_8h.html" target="_top" xlink:title="算術ライブラリ (Vector, Matrix, Quaternion)。">
<polygon fill="white" stroke="#666666" points="351.5,-74 223.5,-74 223.5,-55 351.5,-55 351.5,-74"/>
<text text-anchor="middle" x="287.5" y="-62" font-family="Helvetica,sans-Serif" font-size="10.00">Core/Math/SpanMath.h</text>
</a>
</g>
</g>
<!-- Node38&#45;&gt;Node39 -->
<g id="edge40_Node000038_Node000039" class="edge">
<title>Node38&#45;&gt;Node39</title>
<g id="a_edge40_Node000038_Node000039"><a xlink:title=" ">
<path fill="none" stroke="#63b8ff" d="M1143.36,-346.24C933.95,-336.84 396.5,-305.43 396.5,-230.5 396.5,-230.5 396.5,-230.5 396.5,-173.5 396.5,-128.28 348.58,-95.55 316.28,-78.62"/>
<polygon fill="#63b8ff" stroke="#63b8ff" points="317.75,-75.44 307.24,-74.07 314.6,-81.69 317.75,-75.44"/>
</a>
</g>
</g>
<!-- Node41 -->
<g id="Node000041" class="node">
<title>Node41</title>
<g id="a_Node000041"><a xlink:href="SpanReflection_8h.html" target="_top" xlink:title="コンポーネント定義用のリフレクションマクロ。">
<polygon fill="white" stroke="#666666" points="1280.5,-305 1170.5,-305 1170.5,-275 1280.5,-275 1280.5,-305"/>
<text text-anchor="start" x="1178.5" y="-293" font-family="Helvetica,sans-Serif" font-size="10.00">Runtime/Reflection</text>
<text text-anchor="middle" x="1225.5" y="-282" font-family="Helvetica,sans-Serif" font-size="10.00">/SpanReflection.h</text>
</a>
</g>
</g>
<!-- Node38&#45;&gt;Node41 -->
<g id="edge44_Node000038_Node000041" class="edge">
<title>Node38&#45;&gt;Node41</title>
<g id="a_edge44_Node000038_Node000041"><a xlink:title=" ">
<path fill="none" stroke="#63b8ff" d="M1225.5,-340.87C1225.5,-334.11 1225.5,-324.35 1225.5,-315.26"/>
<polygon fill="#63b8ff" stroke="#63b8ff" points="1229,-315.11 1225.5,-305.11 1222,-315.11 1229,-315.11"/>
</a>
</g>
</g>
<!-- Node39&#45;&gt;Node16 -->
<g id="edge43_Node000039_Node000016" class="edge">
<title>Node39&#45;&gt;Node16</title>
<g id="a_edge43_Node000039_Node000016"><a xlink:title=" ">
<path fill="none" stroke="#63b8ff" d="M256.97,-54.98C224.8,-46.01 173.94,-31.82 138.33,-21.89"/>
<polygon fill="#63b8ff" stroke="#63b8ff" points="138.84,-18.4 128.27,-19.08 136.96,-25.14 138.84,-18.4"/>
</a>
</g>
</g>
<!-- Node39&#45;&gt;Node31 -->
<g id="edge41_Node000039_Node000031" class="edge">
<title>Node39&#45;&gt;Node31</title>
<g id="a_edge41_Node000039_Node000031"><a xlink:title=" ">
<path fill="none" stroke="#63b8ff" d="M271.92,-54.98C256.73,-46.69 233.4,-33.94 215.6,-24.22"/>
<polygon fill="#63b8ff" stroke="#63b8ff" points="216.82,-20.89 206.37,-19.17 213.47,-27.04 216.82,-20.89"/>
</a>
</g>
</g>
<!-- Node40 -->
<g id="Node000040" class="node">
<title>Node40</title>
<g id="a_Node000040"><a xlink:title=" ">
<polygon fill="#e0e0e0" stroke="#999999" points="47,-19 0,-19 0,0 47,0 47,-19"/>
<text text-anchor="middle" x="23.5" y="-7" font-family="Helvetica,sans-Serif" font-size="10.00">cmath</text>
</a>
</g>
</g>
<!-- Node39&#45;&gt;Node40 -->
<g id="edge42_Node000039_Node000040" class="edge">
<title>Node39&#45;&gt;Node40</title>
<g id="a_edge42_Node000039_Node000040"><a xlink:title=" ">
<path fill="none" stroke="#63b8ff" d="M238.65,-54.99C193.97,-47.01 125.82,-34.33 57.35,-19.07"/>
<polygon fill="#63b8ff" stroke="#63b8ff" points="57.77,-15.58 47.25,-16.8 56.24,-22.41 57.77,-15.58"/>
</a>
</g>
</g>
<!-- Node41&#45;&gt;Node10 -->
<g id="edge61_Node000041_Node000010" class="edge">
<title>Node41&#45;&gt;Node10</title>
<g id="a_edge61_Node000041_Node000010"><a xlink:title=" ">
<path fill="none" stroke="#63b8ff" d="M1280.69,-283.8C1515.52,-261.67 2419.5,-176.41 2419.5,-175.5 2419.5,-175.5 2419.5,-175.5 2419.5,-118.5 2419.5,-88.54 2499.16,-45.12 2542.76,-23.61"/>
<polygon fill="#63b8ff" stroke="#63b8ff" points="2544.53,-26.64 2551.98,-19.12 2541.46,-20.35 2544.53,-26.64"/>
</a>
</g>
</g>
<!-- Node41&#45;&gt;Node11 -->
<g id="edge60_Node000041_Node000011" class="edge">
<title>Node41&#45;&gt;Node11</title>
<g id="a_edge60_Node000041_Node000011"><a xlink:title=" ">
<path fill="none" stroke="#63b8ff" d="M1280.67,-283.53C1308.75,-280.82 1343.43,-277.58 1374.5,-275 1511.36,-263.61 2606.5,-312.83 2606.5,-175.5 2606.5,-175.5 2606.5,-175.5 2606.5,-118.5 2606.5,-86.02 2618.51,-49.76 2626.8,-28.6"/>
<polygon fill="#63b8ff" stroke="#63b8ff" points="2630.07,-29.84 2630.61,-19.26 2623.59,-27.2 2630.07,-29.84"/>
</a>
</g>
</g>
<!-- Node42 -->
<g id="Node000042" class="node">
<title>Node42</title>
<g id="a_Node000042"><a xlink:href="SpanAttributes_8h.html" target="_top" xlink:title="インスペクタ表示用の属性 (Attribute) 定義。">
<polygon fill="white" stroke="#666666" points="1127.5,-239 1029.5,-239 1029.5,-220 1127.5,-220 1127.5,-239"/>
<text text-anchor="middle" x="1078.5" y="-227" font-family="Helvetica,sans-Serif" font-size="10.00">SpanAttributes.h</text>
</a>
</g>
</g>
<!-- Node41&#45;&gt;Node42 -->
<g id="edge45_Node000041_Node000042" class="edge">
<title>Node41&#45;&gt;Node42</title>
<g id="a_edge45_Node000041_Node000042"><a xlink:title=" ">
<path fill="none" stroke="#63b8ff" d="M1190.29,-274.99C1165.76,-265.23 1133.35,-252.33 1109.74,-242.93"/>
<polygon fill="#63b8ff" stroke="#63b8ff" points="1110.79,-239.58 1100.21,-239.14 1108.21,-246.09 1110.79,-239.58"/>
</a>
</g>
</g>
<!-- Node43 -->
<g id="Node000043" class="node">
<title>Node43</title>
<g id="a_Node000043"><a xlink:href="ComponentRegistry_8h.html" target="_top" xlink:title="コンポーネントのメタデータ管理 (リフレクション)。">
<polygon fill="white" stroke="#666666" points="1657,-239 1536,-239 1536,-220 1657,-220 1657,-239"/>
<text text-anchor="middle" x="1596.5" y="-227" font-family="Helvetica,sans-Serif" font-size="10.00">ComponentRegistry.h</text>
</a>
</g>
</g>
<!-- Node41&#45;&gt;Node43 -->
<g id="edge46_Node000041_Node000043" class="edge">
<title>Node41&#45;&gt;Node43</title>
<g id="a_edge46_Node000041_Node000043"><a xlink:title=" ">
<path fill="none" stroke="#63b8ff" d="M1280.64,-280.31C1347.88,-269.7 1461.33,-251.81 1532.4,-240.61"/>
<polygon fill="#63b8ff" stroke="#63b8ff" points="1533.23,-244.02 1542.56,-239 1532.14,-237.11 1533.23,-244.02"/>
</a>
</g>
</g>
<!-- Node51 -->
<g id="Node000051" class="node">
<title>Node51</title>
<g id="a_Node000051"><a xlink:href="ImGuiUI_8h.html" target="_top" xlink:title="ImGui用のカスタムウィジェットヘルパー。">
<polygon fill="#fff0f0" stroke="red" points="751,-129 622,-129 622,-110 751,-110 751,-129"/>
<text text-anchor="middle" x="686.5" y="-117" font-family="Helvetica,sans-Serif" font-size="10.00">Editor/ImGui/ImGuiUI.h</text>
</a>
</g>
</g>
<!-- Node41&#45;&gt;Node51 -->
<g id="edge54_Node000041_Node000051" class="edge">
<title>Node41&#45;&gt;Node51</title>
<g id="a_edge54_Node000041_Node000051"><a xlink:title=" ">
<path fill="none" stroke="#63b8ff" d="M1170.28,-277.13C1128.78,-267.83 1070.7,-253.98 1020.5,-239 907.36,-205.23 776.17,-155.5 717.56,-132.72"/>
<polygon fill="#63b8ff" stroke="#63b8ff" points="718.72,-129.41 708.13,-129.04 716.18,-135.93 718.72,-129.41"/>
</a>
</g>
</g>
<!-- Node54 -->
<g id="Node000054" class="node">
<title>Node54</title>
<g id="a_Node000054"><a xlink:href="FixedString_8h.html" target="_top" xlink:title="固定長文字列ラッパー (POD)">
<polygon fill="#fff0f0" stroke="red" points="1276,-184 1115,-184 1115,-165 1276,-165 1276,-184"/>
<text text-anchor="middle" x="1195.5" y="-172" font-family="Helvetica,sans-Serif" font-size="10.00">Core/Containers/FixedString.h</text>
</a>
</g>
</g>
<!-- Node41&#45;&gt;Node54 -->
<g id="edge58_Node000041_Node000054" class="edge">
<title>Node41&#45;&gt;Node54</title>
<g id="a_edge58_Node000041_Node000054"><a xlink:title=" ">
<path fill="none" stroke="#63b8ff" d="M1205.01,-274.89C1194.01,-266.02 1181.51,-253.52 1175.5,-239 1169.23,-223.85 1176.04,-206 1183.37,-193.08"/>
<polygon fill="#63b8ff" stroke="#63b8ff" points="1186.53,-194.63 1188.87,-184.3 1180.6,-190.92 1186.53,-194.63"/>
</a>
</g>
</g>
<!-- Node55 -->
<g id="Node000055" class="node">
<title>Node55</title>
<g id="a_Node000055"><a xlink:title=" ">
<polygon fill="#e0e0e0" stroke="#999999" points="1253,-239 1184,-239 1184,-220 1253,-220 1253,-239"/>
<text text-anchor="middle" x="1218.5" y="-227" font-family="Helvetica,sans-Serif" font-size="10.00">type_traits</text>
</a>
</g>
</g>
<!-- Node41&#45;&gt;Node55 -->
<g id="edge62_Node000041_Node000055" class="edge">
<title>Node41&#45;&gt;Node55</title>
<g id="a_edge62_Node000041_Node000055"><a xlink:title=" ">
<path fill="none" stroke="#63b8ff" d="M1223.81,-274.84C1222.89,-267.21 1221.76,-257.7 1220.77,-249.45"/>
<polygon fill="#63b8ff" stroke="#63b8ff" points="1224.21,-248.78 1219.55,-239.27 1217.26,-249.61 1224.21,-248.78"/>
</a>
</g>
</g>
<!-- Node56 -->
<g id="Node000056" class="node">
<title>Node56</title>
<g id="a_Node000056"><a xlink:title=" ">
<polygon fill="#e0e0e0" stroke="#999999" points="1315.5,-239 1271.5,-239 1271.5,-220 1315.5,-220 1315.5,-239"/>
<text text-anchor="middle" x="1293.5" y="-227" font-family="Helvetica,sans-Serif" font-size="10.00">cfloat</text>
</a>
</g>
</g>
<!-- Node41&#45;&gt;Node56 -->
<g id="edge63_Node000041_Node000056" class="edge">
<title>Node41&#45;&gt;Node56</title>
<g id="a_edge63_Node000041_Node000056"><a xlink:title=" ">
<path fill="none" stroke="#63b8ff" d="M1241.96,-274.84C1252.13,-266.09 1265.19,-254.85 1275.62,-245.88"/>
<polygon fill="#63b8ff" stroke="#63b8ff" points="1278.01,-248.44 1283.31,-239.27 1273.45,-243.13 1278.01,-248.44"/>
</a>
</g>
</g>
<!-- Node43&#45;&gt;Node10 -->
<g id="edge50_Node000043_Node000010" class="edge">
<title>Node43&#45;&gt;Node10</title>
<g id="a_edge50_Node000043_Node000010"><a xlink:title=" ">
<path fill="none" stroke="#63b8ff" d="M1638.5,-219.94C1769.97,-192.97 2185.39,-106.51 2538.29,-19.21"/>
<polygon fill="#63b8ff" stroke="#63b8ff" points="2539.32,-22.56 2548.18,-16.76 2537.63,-15.77 2539.32,-22.56"/>
</a>
</g>
</g>
<!-- Node43&#45;&gt;Node11 -->
<g id="edge49_Node000043_Node000011" class="edge">
<title>Node43&#45;&gt;Node11</title>
<g id="a_edge49_Node000043_Node000011"><a xlink:title=" ">
<path fill="none" stroke="#63b8ff" d="M1656.18,-219.97C1712.21,-211.7 1798.28,-198.33 1872.5,-184 2090.8,-141.84 2143.68,-123.18 2360.5,-74 2464.5,-50.41 2493.08,-45.22 2600.76,-19.13"/>
<polygon fill="#63b8ff" stroke="#63b8ff" points="2601.84,-22.47 2610.73,-16.71 2600.18,-15.67 2601.84,-22.47"/>
</a>
</g>
</g>
<!-- Node43&#45;&gt;Node17 -->
<g id="edge48_Node000043_Node000017" class="edge">
<title>Node43&#45;&gt;Node17</title>
<g id="a_edge48_Node000043_Node000017"><a xlink:title=" ">
<path fill="none" stroke="#63b8ff" d="M1616.48,-219.88C1684.04,-191.15 1910.71,-98.01 2107.5,-55 2256.29,-22.48 2300,-41.62 2455.11,-18.89"/>
<polygon fill="#63b8ff" stroke="#63b8ff" points="2455.63,-22.35 2465,-17.4 2454.59,-15.42 2455.63,-22.35"/>
</a>
</g>
</g>
<!-- Node43&#45;&gt;Node37 -->
<g id="edge47_Node000043_Node000037" class="edge">
<title>Node43&#45;&gt;Node37</title>
<g id="a_edge47_Node000043_Node000037"><a xlink:title=" ">
<path fill="none" stroke="#63b8ff" d="M1589.4,-219.75C1583.33,-212.26 1574.41,-201.28 1566.99,-192.13"/>
<polygon fill="#63b8ff" stroke="#63b8ff" points="1569.49,-189.65 1560.47,-184.09 1564.05,-194.06 1569.49,-189.65"/>
</a>
</g>
</g>
<!-- Node44 -->
<g id="Node000044" class="node">
<title>Node44</title>
<g id="a_Node000044"><a xlink:href="World_8h.html" target="_top" xlink:title="ECSワールド (シーン) の管理クラス。">
<polygon fill="#fff0f0" stroke="red" points="1481,-184 1372,-184 1372,-165 1481,-165 1481,-184"/>
<text text-anchor="middle" x="1426.5" y="-172" font-family="Helvetica,sans-Serif" font-size="10.00">ECS/Kernel/World.h</text>
</a>
</g>
</g>
<!-- Node43&#45;&gt;Node44 -->
<g id="edge51_Node000043_Node000044" class="edge">
<title>Node43&#45;&gt;Node44</title>
<g id="a_edge51_Node000043_Node000044"><a xlink:title=" ">
<path fill="none" stroke="#63b8ff" d="M1569.19,-219.98C1540.65,-211.09 1495.67,-197.07 1463.86,-187.15"/>
<polygon fill="#63b8ff" stroke="#63b8ff" points="1464.62,-183.72 1454.03,-184.08 1462.53,-190.4 1464.62,-183.72"/>
</a>
</g>
</g>
<!-- Node44&#45;&gt;Node2 -->
<g id="edge53_Node000044_Node000002" class="edge">
<title>Node44&#45;&gt;Node2</title>
<g id="a_edge53_Node000044_Node000002"><a xlink:title=" ">
<path fill="none" stroke="#63b8ff" d="M1412.52,-164.98C1399.03,-156.77 1378.37,-144.18 1362.46,-134.49"/>
<polygon fill="#63b8ff" stroke="#63b8ff" points="1364.09,-131.38 1353.73,-129.17 1360.45,-137.36 1364.09,-131.38"/>
</a>
</g>
</g>
<!-- Node44&#45;&gt;Node3 -->
<g id="edge52_Node000044_Node000003" class="edge">
<title>Node44&#45;&gt;Node3</title>
<g id="a_edge52_Node000044_Node000003"><a xlink:title=" ">
<path fill="none" stroke="#63b8ff" d="M1426.29,-164.9C1425.51,-151.45 1422.06,-125.37 1407.5,-110 1392.15,-93.8 1370.5,-83.49 1349.57,-76.93"/>
<polygon fill="#63b8ff" stroke="#63b8ff" points="1350.29,-73.49 1339.71,-74.08 1348.35,-80.22 1350.29,-73.49"/>
</a>
</g>
</g>
<!-- Node51&#45;&gt;Node35 -->
<g id="edge56_Node000051_Node000035" class="edge">
<title>Node51&#45;&gt;Node35</title>
<g id="a_edge56_Node000051_Node000035"><a xlink:title=" ">
<path fill="none" stroke="#63b8ff" d="M686.56,-109.91C686.14,-95.98 683.11,-68.64 666.5,-55 612.04,-10.28 426.4,-27.87 339.81,-18.9"/>
<polygon fill="#63b8ff" stroke="#63b8ff" points="340.11,-15.41 329.76,-17.67 339.26,-22.36 340.11,-15.41"/>
</a>
</g>
</g>
<!-- Node51&#45;&gt;Node39 -->
<g id="edge55_Node000051_Node000039" class="edge">
<title>Node51&#45;&gt;Node39</title>
<g id="a_edge55_Node000051_Node000039"><a xlink:title=" ">
<path fill="none" stroke="#63b8ff" d="M622.39,-109.98C551.39,-100.55 437.05,-85.36 362.09,-75.41"/>
<polygon fill="#63b8ff" stroke="#63b8ff" points="362.15,-71.89 351.78,-74.04 361.23,-78.82 362.15,-71.89"/>
</a>
</g>
</g>
<!-- Node52 -->
<g id="Node000052" class="node">
<title>Node52</title>
<g id="a_Node000052"><a xlink:title=" ">
<polygon fill="#e0e0e0" stroke="#999999" points="658,-74 605,-74 605,-55 658,-55 658,-74"/>
<text text-anchor="middle" x="631.5" y="-62" font-family="Helvetica,sans-Serif" font-size="10.00">imgui.h</text>
</a>
</g>
</g>
<!-- Node51&#45;&gt;Node52 -->
<g id="edge57_Node000051_Node000052" class="edge">
<title>Node51&#45;&gt;Node52</title>
<g id="a_edge57_Node000051_Node000052"><a xlink:title=" ">
<path fill="none" stroke="#63b8ff" d="M677.42,-109.75C669.41,-102.03 657.54,-90.6 647.88,-81.28"/>
<polygon fill="#63b8ff" stroke="#63b8ff" points="650.04,-78.51 640.41,-74.09 645.19,-83.55 650.04,-78.51"/>
</a>
</g>
</g>
<!-- Node54&#45;&gt;Node3 -->
<g id="edge59_Node000054_Node000003" class="edge">
<title>Node54&#45;&gt;Node3</title>
<g id="a_edge59_Node000054_Node000003"><a xlink:title=" ">
<path fill="none" stroke="#63b8ff" d="M1202.7,-164.66C1217.41,-146.61 1251.09,-105.28 1269.99,-82.08"/>
<polygon fill="#63b8ff" stroke="#63b8ff" points="1272.84,-84.12 1276.45,-74.16 1267.41,-79.7 1272.84,-84.12"/>
</a>
</g>
</g>
<!-- Node57&#45;&gt;Node3 -->
<g id="edge65_Node000057_Node000003" class="edge">
<title>Node57&#45;&gt;Node3</title>
<g id="a_edge65_Node000057_Node000003"><a xlink:title=" ">
<path fill="none" stroke="#63b8ff" d="M604.22,-110.65C607.01,-110.42 609.78,-110.21 612.5,-110 833.63,-93.08 1096.06,-76.77 1216.73,-69.48"/>
<polygon fill="#63b8ff" stroke="#63b8ff" points="1217.15,-72.96 1226.92,-68.86 1216.72,-65.97 1217.15,-72.96"/>
</a>
</g>
</g>
<!-- Node57&#45;&gt;Node39 -->
<g id="edge66_Node000057_Node000039" class="edge">
<title>Node57&#45;&gt;Node39</title>
<g id="a_edge66_Node000057_Node000039"><a xlink:title=" ">
<path fill="none" stroke="#63b8ff" d="M478.03,-109.98C438.93,-100.86 376.73,-86.33 334.11,-76.38"/>
<polygon fill="#63b8ff" stroke="#63b8ff" points="334.79,-72.95 324.26,-74.08 333.2,-79.76 334.79,-72.95"/>
</a>
</g>
</g>
</g>
</svg>
