<?xml version="1.0" encoding="UTF-8" standalone="no"?>
<!DOCTYPE svg PUBLIC "-//W3C//DTD SVG 1.1//EN"
 "http://www.w3.org/Graphics/SVG/1.1/DTD/svg11.dtd">
<!-- Generated by graphviz version 2.43.0 (0)
 -->
<!-- Title: Engine/Source/Runtime/Graphics/Renderer.h Pages: 1 -->
<!--zoomable 258 -->

<svg id="main" version="1.1" xmlns="http://www.w3.org/2000/svg" xmlns:xlink="http://www.w3.org/1999/xlink" xml:space="preserve" onload="init(evt)">

<style type="text/css"><![CDATA[
.node, .edge {opacity: 0.7;}
.node.selected, .edge.selected {opacity: 1;}
.edge:hover path { stroke: red; }
.edge:hover polygon { stroke: red; fill: red; }
]]></style>

<defs>
  <circle id="rim" cx="0" cy="0" r="7"/>
  <circle id="rim2" cx="0" cy="0" r="3.5"/>
  <g id="zoomPlus">
    <use xlink:href="#rim" fill="#404040"><set attributeName="fill" to="#808080" begin="zoomplus.mouseover" end="zoomplus.mouseout"/></use>
    <path d="M-4,0h8M0,-4v8" fill="none" stroke="white" stroke-width="1.5" pointer-events="none"/>
  </g>
  <g id="zoomMin">
    <use xlink:href="#rim" fill="#404040"><set attributeName="fill" to="#808080" begin="zoomminus.mouseover" end="zoomminus.mouseout"/></use>
    <path d="M-4,0h8" fill="none" stroke="white" stroke-width="1.5" pointer-events="none"/>
  </g>
  <g id="arrowUp" transform="translate(30 24)">
    <use xlink:href="#rim"/>
    <path pointer-events="none" fill="none" stroke="white" stroke-width="1.5" d="M0,-3.0v7 M-2.5,-0.5L0,-3.0L2.5,-0.5"/>
  </g>
  <g id="arrowRight" transform="rotate(90) translate(36 -43)">
    <use xlink:href="#rim"/>
    <path pointer-events="none" fill="none" stroke="white" stroke-width="1.5" d="M0,-3.0v7 M-2.5,-0.5L0,-3.0L2.5,-0.5"/>
  </g>
  <g id="arrowDown" transform="rotate(180) translate(-30 -48)">
    <use xlink:href="#rim"/>
    <path pointer-events="none" fill="none" stroke="white" stroke-width="1.5" d="M0,-3.0v7 M-2.5,-0.5L0,-3.0L2.5,-0.5"/>
  </g>
  <g id="arrowLeft" transform="rotate(270) translate(-36 17)">
    <use xlink:href="#rim"/>
    <path pointer-events="none" fill="none" stroke="white" stroke-width="1.5" d="M0,-3.0v7 M-2.5,-0.5L0,-3.0L2.5,-0.5"/>
  </g>
  <g id="resetDef">
    <use xlink:href="#rim2" fill="#404040"><set attributeName="fill" to="#808080" begin="reset.mouseover" end="reset.mouseout"/></use>
  </g>
</defs>
<script type="application/ecmascript">
var viewWidth = 2803;
var viewHeight = 258;
var sectionId = 'dynsection-0';
</script>
<script type="application/ecmascript" xlink:href="svg.min.js"/>
<svg id="graph" class="graph">
<g id="viewport">
<title>Engine/Source/Runtime/Graphics/Renderer.h</title>
<!-- Node1 -->
<g id="Node000001" class="node">
<title>Node1</title>
<g id="a_Node000001"><a xlink:title="描画パイプラインの構築と実行。">
<polygon fill="#999999" stroke="#666666" points="1627,-250 1497,-250 1497,-220 1627,-220 1627,-250"/>
<text text-anchor="start" x="1505" y="-238" font-family="Helvetica,sans-Serif" font-size="10.00">Engine/Source/Runtime</text>
<text text-anchor="middle" x="1562" y="-227" font-family="Helvetica,sans-Serif" font-size="10.00">/Graphics/Renderer.h</text>
</a>
</g>
</g>
<!-- Node2 -->
<g id="Node000002" class="node">
<title>Node2</title>
<g id="a_Node000002"><a xlink:href="CoreMinimal_8h.html" target="_top" xlink:title="エンジンの標準インクルードファイル。">
<polygon fill="white" stroke="#666666" points="1423.5,-74 1310.5,-74 1310.5,-55 1423.5,-55 1423.5,-74"/>
<text text-anchor="middle" x="1367" y="-62" font-family="Helvetica,sans-Serif" font-size="10.00">Core/CoreMinimal.h</text>
</a>
</g>
</g>
<!-- Node1&#45;&gt;Node2 -->
<g id="edge1_Node000001_Node000002" class="edge">
<title>Node1&#45;&gt;Node2</title>
<g id="a_edge1_Node000001_Node000002"><a xlink:title=" ">
<path fill="none" stroke="#63b8ff" d="M1580.75,-219.94C1610.72,-195.78 1663.13,-145.59 1633,-110 1607.95,-80.41 1503.99,-70.48 1433.7,-67.16"/>
<polygon fill="#63b8ff" stroke="#63b8ff" points="1433.74,-63.66 1423.59,-66.71 1433.43,-70.65 1433.74,-63.66"/>
</a>
</g>
</g>
<!-- Node38 -->
<g id="Node000038" class="node">
<title>Node38</title>
<g id="a_Node000038"><a xlink:href="GraphicsContext_8h.html" target="_top" xlink:title="DirectX 12 デヴァイスとスワップチェーンの管理クラス。">
<polygon fill="white" stroke="#666666" points="1318,-184 1186,-184 1186,-165 1318,-165 1318,-184"/>
<text text-anchor="middle" x="1252" y="-172" font-family="Helvetica,sans-Serif" font-size="10.00">Core/GraphicsContext.h</text>
</a>
</g>
</g>
<!-- Node1&#45;&gt;Node38 -->
<g id="edge38_Node000001_Node000038" class="edge">
<title>Node1&#45;&gt;Node38</title>
<g id="a_edge38_Node000001_Node000038"><a xlink:title=" ">
<path fill="none" stroke="#63b8ff" d="M1496.64,-221.67C1440.4,-211.05 1360.17,-195.91 1307.12,-185.9"/>
<polygon fill="#63b8ff" stroke="#63b8ff" points="1307.7,-182.45 1297.22,-184.03 1306.4,-189.33 1307.7,-182.45"/>
</a>
</g>
</g>
<!-- Node41 -->
<g id="Node000041" class="node">
<title>Node41</title>
<g id="a_Node000041"><a xlink:href="Shader_8h.html" target="_top" xlink:title="HLSLシェーダーのロードとコンパイル管理。">
<polygon fill="white" stroke="#666666" points="1364,-129 1280,-129 1280,-110 1364,-110 1364,-129"/>
<text text-anchor="middle" x="1322" y="-117" font-family="Helvetica,sans-Serif" font-size="10.00">Core/Shader.h</text>
</a>
</g>
</g>
<!-- Node1&#45;&gt;Node41 -->
<g id="edge43_Node000001_Node000041" class="edge">
<title>Node1&#45;&gt;Node41</title>
<g id="a_edge43_Node000001_Node000041"><a xlink:title=" ">
<path fill="none" stroke="#63b8ff" d="M1501.54,-220C1471.53,-211.75 1435.31,-199.81 1405,-184 1379.79,-170.86 1354.35,-150.01 1338.4,-135.82"/>
<polygon fill="#63b8ff" stroke="#63b8ff" points="1340.74,-133.21 1330.98,-129.08 1336.03,-138.39 1340.74,-133.21"/>
</a>
</g>
</g>
<!-- Node42 -->
<g id="Node000042" class="node">
<title>Node42</title>
<g id="a_Node000042"><a xlink:href="ConstantBuffer_8h.html" target="_top" xlink:title="DirectX 12 定数バッファ (CBV) のラッパークラス">
<polygon fill="white" stroke="#666666" points="1623.5,-129 1500.5,-129 1500.5,-110 1623.5,-110 1623.5,-129"/>
<text text-anchor="middle" x="1562" y="-117" font-family="Helvetica,sans-Serif" font-size="10.00">Core/ConstantBuffer.h</text>
</a>
</g>
</g>
<!-- Node1&#45;&gt;Node42 -->
<g id="edge45_Node000001_Node000042" class="edge">
<title>Node1&#45;&gt;Node42</title>
<g id="a_edge45_Node000001_Node000042"><a xlink:title=" ">
<path fill="none" stroke="#63b8ff" d="M1562,-219.63C1562,-199.21 1562,-161.81 1562,-139.24"/>
<polygon fill="#63b8ff" stroke="#63b8ff" points="1565.5,-139.23 1562,-129.23 1558.5,-139.23 1565.5,-139.23"/>
</a>
</g>
</g>
<!-- Node43 -->
<g id="Node000043" class="node">
<title>Node43</title>
<g id="a_Node000043"><a xlink:href="Mesh_8h.html" target="_top" xlink:title="3Dモデルの形状データ (頂点バッファ) 管理。">
<polygon fill="white" stroke="#666666" points="1785.5,-184 1680.5,-184 1680.5,-165 1785.5,-165 1785.5,-184"/>
<text text-anchor="middle" x="1733" y="-172" font-family="Helvetica,sans-Serif" font-size="10.00">Resources/Mesh.h</text>
</a>
</g>
</g>
<!-- Node1&#45;&gt;Node43 -->
<g id="edge47_Node000001_Node000043" class="edge">
<title>Node1&#45;&gt;Node43</title>
<g id="a_edge47_Node000001_Node000043"><a xlink:title=" ">
<path fill="none" stroke="#63b8ff" d="M1602.96,-219.99C1632,-210.05 1670.55,-196.86 1698.12,-187.43"/>
<polygon fill="#63b8ff" stroke="#63b8ff" points="1699.42,-190.69 1707.75,-184.14 1697.15,-184.06 1699.42,-190.69"/>
</a>
</g>
</g>
<!-- Node44 -->
<g id="Node000044" class="node">
<title>Node44</title>
<g id="a_Node000044"><a xlink:href="SpanMath_8h.html" target="_top" xlink:title="算術ライブラリ (Vector, Matrix, Quaternion)。">
<polygon fill="white" stroke="#666666" points="1878,-129 1750,-129 1750,-110 1878,-110 1878,-129"/>
<text text-anchor="middle" x="1814" y="-117" font-family="Helvetica,sans-Serif" font-size="10.00">Core/Math/SpanMath.h</text>
</a>
</g>
</g>
<!-- Node1&#45;&gt;Node44 -->
<g id="edge60_Node000001_Node000044" class="edge">
<title>Node1&#45;&gt;Node44</title>
<g id="a_edge60_Node000001_Node000044"><a xlink:title=" ">
<path fill="none" stroke="#63b8ff" d="M1627.17,-227.45C1687.34,-220.11 1770.91,-206.25 1795,-184 1807.27,-172.66 1811.74,-153.76 1813.3,-139.52"/>
<polygon fill="#63b8ff" stroke="#63b8ff" points="1816.81,-139.56 1814.03,-129.33 1809.82,-139.06 1816.81,-139.56"/>
</a>
</g>
</g>
<!-- Node46 -->
<g id="Node000046" class="node">
<title>Node46</title>
<g id="a_Node000046"><a xlink:href="Material_8h.html" target="_top" xlink:title="PBRマテリアルのパラメータ管理。">
<polygon fill="white" stroke="#666666" points="1532.5,-184 1413.5,-184 1413.5,-165 1532.5,-165 1532.5,-184"/>
<text text-anchor="middle" x="1473" y="-172" font-family="Helvetica,sans-Serif" font-size="10.00">Resources/Material.h</text>
</a>
</g>
</g>
<!-- Node1&#45;&gt;Node46 -->
<g id="edge53_Node000001_Node000046" class="edge">
<title>Node1&#45;&gt;Node46</title>
<g id="a_edge53_Node000001_Node000046"><a xlink:title=" ">
<path fill="none" stroke="#63b8ff" d="M1540.46,-219.84C1526.53,-210.68 1508.47,-198.82 1494.55,-189.66"/>
<polygon fill="#63b8ff" stroke="#63b8ff" points="1496.35,-186.66 1486.08,-184.09 1492.51,-192.51 1496.35,-186.66"/>
</a>
</g>
</g>
<!-- Node3 -->
<g id="Node000003" class="node">
<title>Node3</title>
<g id="a_Node000003"><a xlink:title=" ">
<polygon fill="#e0e0e0" stroke="#999999" points="2392,-19 2322,-19 2322,0 2392,0 2392,-19"/>
<text text-anchor="middle" x="2357" y="-7" font-family="Helvetica,sans-Serif" font-size="10.00">Windows.h</text>
</a>
</g>
</g>
<!-- Node2&#45;&gt;Node3 -->
<g id="edge2_Node000002_Node000003" class="edge">
<title>Node2&#45;&gt;Node3</title>
<g id="a_edge2_Node000002_Node000003"><a xlink:title=" ">
<path fill="none" stroke="#63b8ff" d="M1423.7,-61.9C1597.23,-56.86 2120.4,-40.36 2311.59,-18.96"/>
<polygon fill="#63b8ff" stroke="#63b8ff" points="2312,-22.44 2321.53,-17.81 2311.19,-15.48 2312,-22.44"/>
</a>
</g>
</g>
<!-- Node4 -->
<g id="Node000004" class="node">
<title>Node4</title>
<g id="a_Node000004"><a xlink:title=" ">
<polygon fill="#e0e0e0" stroke="#999999" points="2451.5,-19 2410.5,-19 2410.5,0 2451.5,0 2451.5,-19"/>
<text text-anchor="middle" x="2431" y="-7" font-family="Helvetica,sans-Serif" font-size="10.00">wrl.h</text>
</a>
</g>
</g>
<!-- Node2&#45;&gt;Node4 -->
<g id="edge3_Node000002_Node000004" class="edge">
<title>Node2&#45;&gt;Node4</title>
<g id="a_edge3_Node000002_Node000004"><a xlink:title=" ">
<path fill="none" stroke="#63b8ff" d="M1423.72,-62.8C1608.27,-60.25 2191.21,-50.01 2400.51,-18.56"/>
<polygon fill="#63b8ff" stroke="#63b8ff" points="2401.15,-22 2410.49,-16.99 2400.06,-15.08 2401.15,-22"/>
</a>
</g>
</g>
<!-- Node5 -->
<g id="Node000005" class="node">
<title>Node5</title>
<g id="a_Node000005"><a xlink:title=" ">
<polygon fill="#e0e0e0" stroke="#999999" points="2540.5,-19 2469.5,-19 2469.5,0 2540.5,0 2540.5,-19"/>
<text text-anchor="middle" x="2505" y="-7" font-family="Helvetica,sans-Serif" font-size="10.00">wrl/client.h</text>
</a>
</g>
</g>
<!-- Node2&#45;&gt;Node5 -->
<g id="edge4_Node000002_Node000005" class="edge">
<title>Node2&#45;&gt;Node5</title>
<g id="a_edge4_Node000002_Node000005"><a xlink:title=" ">
<path fill="none" stroke="#63b8ff" d="M1423.51,-62.32C1614.67,-58.17 2237.09,-43.2 2458.8,-19.06"/>
<polygon fill="#63b8ff" stroke="#63b8ff" points="2459.51,-22.5 2469.05,-17.9 2458.72,-15.54 2459.51,-22.5"/>
</a>
</g>
</g>
<!-- Node6 -->
<g id="Node000006" class="node">
<title>Node6</title>
<g id="a_Node000006"><a xlink:title=" ">
<polygon fill="#e0e0e0" stroke="#999999" points="2609,-19 2559,-19 2559,0 2609,0 2609,-19"/>
<text text-anchor="middle" x="2584" y="-7" font-family="Helvetica,sans-Serif" font-size="10.00">cstdint</text>
</a>
</g>
</g>
<!-- Node2&#45;&gt;Node6 -->
<g id="edge5_Node000002_Node000006" class="edge">
<title>Node2&#45;&gt;Node6</title>
<g id="a_edge5_Node000002_Node000006"><a xlink:title=" ">
<path fill="none" stroke="#63b8ff" d="M1423.59,-62.06C1638.57,-56.5 2399.59,-35.96 2548.83,-18.69"/>
<polygon fill="#63b8ff" stroke="#63b8ff" points="2549.39,-22.15 2558.86,-17.4 2548.5,-15.2 2549.39,-22.15"/>
</a>
</g>
</g>
<!-- Node7 -->
<g id="Node000007" class="node">
<title>Node7</title>
<g id="a_Node000007"><a xlink:title=" ">
<polygon fill="#e0e0e0" stroke="#999999" points="60,-19 0,-19 0,0 60,0 60,-19"/>
<text text-anchor="middle" x="30" y="-7" font-family="Helvetica,sans-Serif" font-size="10.00">iostream</text>
</a>
</g>
</g>
<!-- Node2&#45;&gt;Node7 -->
<g id="edge6_Node000002_Node000007" class="edge">
<title>Node2&#45;&gt;Node7</title>
<g id="a_edge6_Node000002_Node000007"><a xlink:title=" ">
<path fill="none" stroke="#63b8ff" d="M1310.18,-60.58C1274.99,-58.83 1228.88,-56.63 1188,-55 694.2,-35.33 564.58,-79.62 70.4,-18.91"/>
<polygon fill="#63b8ff" stroke="#63b8ff" points="70.49,-15.39 60.14,-17.64 69.63,-22.34 70.49,-15.39"/>
</a>
</g>
</g>
<!-- Node8 -->
<g id="Node000008" class="node">
<title>Node8</title>
<g id="a_Node000008"><a xlink:title=" ">
<polygon fill="#e0e0e0" stroke="#999999" points="131.5,-19 78.5,-19 78.5,0 131.5,0 131.5,-19"/>
<text text-anchor="middle" x="105" y="-7" font-family="Helvetica,sans-Serif" font-size="10.00">string.h</text>
</a>
</g>
</g>
<!-- Node2&#45;&gt;Node8 -->
<g id="edge7_Node000002_Node000008" class="edge">
<title>Node2&#45;&gt;Node8</title>
<g id="a_edge7_Node000002_Node000008"><a xlink:title=" ">
<path fill="none" stroke="#63b8ff" d="M1310.17,-60.61C1274.99,-58.87 1228.88,-56.67 1188,-55 726.08,-36.09 604.21,-80.17 141.58,-18.74"/>
<polygon fill="#63b8ff" stroke="#63b8ff" points="142,-15.26 131.63,-17.41 141.07,-22.2 142,-15.26"/>
</a>
</g>
</g>
<!-- Node9 -->
<g id="Node000009" class="node">
<title>Node9</title>
<g id="a_Node000009"><a xlink:title=" ">
<polygon fill="#e0e0e0" stroke="#999999" points="194,-19 150,-19 150,0 194,0 194,-19"/>
<text text-anchor="middle" x="172" y="-7" font-family="Helvetica,sans-Serif" font-size="10.00">string</text>
</a>
</g>
</g>
<!-- Node2&#45;&gt;Node9 -->
<g id="edge8_Node000002_Node000009" class="edge">
<title>Node2&#45;&gt;Node9</title>
<g id="a_edge8_Node000002_Node000009"><a xlink:title=" ">
<path fill="none" stroke="#63b8ff" d="M1310.17,-60.64C1274.99,-58.91 1228.88,-56.72 1188,-55 972.36,-45.94 435.54,-52 204.33,-18.76"/>
<polygon fill="#63b8ff" stroke="#63b8ff" points="204.63,-15.27 194.22,-17.25 203.59,-22.19 204.63,-15.27"/>
</a>
</g>
</g>
<!-- Node10 -->
<g id="Node000010" class="node">
<title>Node10</title>
<g id="a_Node000010"><a xlink:title=" ">
<polygon fill="#e0e0e0" stroke="#999999" points="259.5,-19 212.5,-19 212.5,0 259.5,0 259.5,-19"/>
<text text-anchor="middle" x="236" y="-7" font-family="Helvetica,sans-Serif" font-size="10.00">vector</text>
</a>
</g>
</g>
<!-- Node2&#45;&gt;Node10 -->
<g id="edge9_Node000002_Node000010" class="edge">
<title>Node2&#45;&gt;Node10</title>
<g id="a_edge9_Node000002_Node000010"><a xlink:title=" ">
<path fill="none" stroke="#63b8ff" d="M1310.17,-60.68C1274.99,-58.96 1228.87,-56.77 1188,-55 782.48,-37.44 674.38,-79.21 269.57,-18.89"/>
<polygon fill="#63b8ff" stroke="#63b8ff" points="270.05,-15.43 259.64,-17.4 269.01,-22.35 270.05,-15.43"/>
</a>
</g>
</g>
<!-- Node11 -->
<g id="Node000011" class="node">
<title>Node11</title>
<g id="a_Node000011"><a xlink:title=" ">
<polygon fill="#e0e0e0" stroke="#999999" points="324.5,-19 277.5,-19 277.5,0 324.5,0 324.5,-19"/>
<text text-anchor="middle" x="301" y="-7" font-family="Helvetica,sans-Serif" font-size="10.00">deque</text>
</a>
</g>
</g>
<!-- Node2&#45;&gt;Node11 -->
<g id="edge10_Node000002_Node000011" class="edge">
<title>Node2&#45;&gt;Node11</title>
<g id="a_edge10_Node000002_Node000011"><a xlink:title=" ">
<path fill="none" stroke="#63b8ff" d="M1310.17,-60.72C1274.98,-59.02 1228.87,-56.83 1188,-55 811.38,-38.13 710.78,-75.49 334.71,-18.92"/>
<polygon fill="#63b8ff" stroke="#63b8ff" points="335.06,-15.43 324.64,-17.39 334.01,-22.35 335.06,-15.43"/>
</a>
</g>
</g>
<!-- Node12 -->
<g id="Node000012" class="node">
<title>Node12</title>
<g id="a_Node000012"><a xlink:title=" ">
<polygon fill="#e0e0e0" stroke="#999999" points="435.5,-19 342.5,-19 342.5,0 435.5,0 435.5,-19"/>
<text text-anchor="middle" x="389" y="-7" font-family="Helvetica,sans-Serif" font-size="10.00">unordered_map</text>
</a>
</g>
</g>
<!-- Node2&#45;&gt;Node12 -->
<g id="edge11_Node000002_Node000012" class="edge">
<title>Node2&#45;&gt;Node12</title>
<g id="a_edge11_Node000002_Node000012"><a xlink:title=" ">
<path fill="none" stroke="#63b8ff" d="M1310.42,-60.81C1123.37,-51.9 532.32,-23.73 445.84,-18.63"/>
<polygon fill="#63b8ff" stroke="#63b8ff" points="445.92,-15.13 435.71,-17.95 445.45,-22.12 445.92,-15.13"/>
</a>
</g>
</g>
<!-- Node13 -->
<g id="Node000013" class="node">
<title>Node13</title>
<g id="a_Node000013"><a xlink:title=" ">
<polygon fill="#e0e0e0" stroke="#999999" points="492,-19 454,-19 454,0 492,0 492,-19"/>
<text text-anchor="middle" x="473" y="-7" font-family="Helvetica,sans-Serif" font-size="10.00">map</text>
</a>
</g>
</g>
<!-- Node2&#45;&gt;Node13 -->
<g id="edge12_Node000002_Node000013" class="edge">
<title>Node2&#45;&gt;Node13</title>
<g id="a_edge12_Node000002_Node000013"><a xlink:title=" ">
<path fill="none" stroke="#63b8ff" d="M1310.33,-60.77C1131.53,-52.15 586.5,-25.67 502.09,-18.11"/>
<polygon fill="#63b8ff" stroke="#63b8ff" points="502.46,-14.63 492.13,-16.98 501.67,-21.59 502.46,-14.63"/>
</a>
</g>
</g>
<!-- Node14 -->
<g id="Node000014" class="node">
<title>Node14</title>
<g id="a_Node000014"><a xlink:title=" ">
<polygon fill="#e0e0e0" stroke="#999999" points="568,-19 510,-19 510,0 568,0 568,-19"/>
<text text-anchor="middle" x="539" y="-7" font-family="Helvetica,sans-Serif" font-size="10.00">memory</text>
</a>
</g>
</g>
<!-- Node2&#45;&gt;Node14 -->
<g id="edge13_Node000002_Node000014" class="edge">
<title>Node2&#45;&gt;Node14</title>
<g id="a_edge13_Node000002_Node000014"><a xlink:title=" ">
<path fill="none" stroke="#63b8ff" d="M1310.21,-60.84C1147.17,-53.13 683.16,-30.66 578.36,-18.82"/>
<polygon fill="#63b8ff" stroke="#63b8ff" points="578.73,-15.34 568.37,-17.57 577.86,-22.28 578.73,-15.34"/>
</a>
</g>
</g>
<!-- Node15 -->
<g id="Node000015" class="node">
<title>Node15</title>
<g id="a_Node000015"><a xlink:title=" ">
<polygon fill="#e0e0e0" stroke="#999999" points="2691,-19 2627,-19 2627,0 2691,0 2691,-19"/>
<text text-anchor="middle" x="2659" y="-7" font-family="Helvetica,sans-Serif" font-size="10.00">algorithm</text>
</a>
</g>
</g>
<!-- Node2&#45;&gt;Node15 -->
<g id="edge14_Node000002_Node000015" class="edge">
<title>Node2&#45;&gt;Node15</title>
<g id="a_edge14_Node000002_Node000015"><a xlink:title=" ">
<path fill="none" stroke="#63b8ff" d="M1423.68,-62.05C1646.78,-56.26 2459.38,-34.44 2616.68,-18.81"/>
<polygon fill="#63b8ff" stroke="#63b8ff" points="2617.3,-22.27 2626.86,-17.7 2616.53,-15.31 2617.3,-22.27"/>
</a>
</g>
</g>
<!-- Node16 -->
<g id="Node000016" class="node">
<title>Node16</title>
<g id="a_Node000016"><a xlink:title=" ">
<polygon fill="#e0e0e0" stroke="#999999" points="651.5,-19 586.5,-19 586.5,0 651.5,0 651.5,-19"/>
<text text-anchor="middle" x="619" y="-7" font-family="Helvetica,sans-Serif" font-size="10.00">functional</text>
</a>
</g>
</g>
<!-- Node2&#45;&gt;Node16 -->
<g id="edge15_Node000002_Node000016" class="edge">
<title>Node2&#45;&gt;Node16</title>
<g id="a_edge15_Node000002_Node000016"><a xlink:title=" ">
<path fill="none" stroke="#63b8ff" d="M1310.22,-60.37C1160,-52.03 757.67,-29.27 662.05,-18.82"/>
<polygon fill="#63b8ff" stroke="#63b8ff" points="662.29,-15.33 651.94,-17.61 661.46,-22.28 662.29,-15.33"/>
</a>
</g>
</g>
<!-- Node17 -->
<g id="Node000017" class="node">
<title>Node17</title>
<g id="a_Node000017"><a xlink:title=" ">
<polygon fill="#e0e0e0" stroke="#999999" points="720,-19 670,-19 670,0 720,0 720,-19"/>
<text text-anchor="middle" x="695" y="-7" font-family="Helvetica,sans-Serif" font-size="10.00">chrono</text>
</a>
</g>
</g>
<!-- Node2&#45;&gt;Node17 -->
<g id="edge16_Node000002_Node000017" class="edge">
<title>Node2&#45;&gt;Node17</title>
<g id="a_edge16_Node000002_Node000017"><a xlink:title=" ">
<path fill="none" stroke="#63b8ff" d="M1310.1,-60.81C1178.99,-54.42 857.71,-37.55 730.08,-18.83"/>
<polygon fill="#63b8ff" stroke="#63b8ff" points="730.56,-15.37 720.15,-17.31 729.5,-22.29 730.56,-15.37"/>
</a>
</g>
</g>
<!-- Node18 -->
<g id="Node000018" class="node">
<title>Node18</title>
<g id="a_Node000018"><a xlink:title=" ">
<polygon fill="#e0e0e0" stroke="#999999" points="784,-19 738,-19 738,0 784,0 784,-19"/>
<text text-anchor="middle" x="761" y="-7" font-family="Helvetica,sans-Serif" font-size="10.00">cstdio</text>
</a>
</g>
</g>
<!-- Node2&#45;&gt;Node18 -->
<g id="edge17_Node000002_Node000018" class="edge">
<title>Node2&#45;&gt;Node18</title>
<g id="a_edge17_Node000002_Node000018"><a xlink:title=" ">
<path fill="none" stroke="#63b8ff" d="M1310.29,-60.42C1189.36,-53.65 908.51,-36.77 794.2,-18.84"/>
<polygon fill="#63b8ff" stroke="#63b8ff" points="794.75,-15.39 784.31,-17.22 793.61,-22.29 794.75,-15.39"/>
</a>
</g>
</g>
<!-- Node19 -->
<g id="Node000019" class="node">
<title>Node19</title>
<g id="a_Node000019"><a xlink:title=" ">
<polygon fill="#e0e0e0" stroke="#999999" points="854,-19 802,-19 802,0 854,0 854,-19"/>
<text text-anchor="middle" x="828" y="-7" font-family="Helvetica,sans-Serif" font-size="10.00">cassert</text>
</a>
</g>
</g>
<!-- Node2&#45;&gt;Node19 -->
<g id="edge18_Node000002_Node000019" class="edge">
<title>Node2&#45;&gt;Node19</title>
<g id="a_edge18_Node000002_Node000019"><a xlink:title=" ">
<path fill="none" stroke="#63b8ff" d="M1310.34,-61.27C1218.53,-57.06 1031.49,-45.95 864.26,-18.96"/>
<polygon fill="#63b8ff" stroke="#63b8ff" points="864.72,-15.49 854.29,-17.33 863.59,-22.4 864.72,-15.49"/>
</a>
</g>
</g>
<!-- Node20 -->
<g id="Node000020" class="node">
<title>Node20</title>
<g id="a_Node000020"><a xlink:title=" ">
<polygon fill="#e0e0e0" stroke="#999999" points="937.5,-19 872.5,-19 872.5,0 937.5,0 937.5,-19"/>
<text text-anchor="middle" x="905" y="-7" font-family="Helvetica,sans-Serif" font-size="10.00">typeindex</text>
</a>
</g>
</g>
<!-- Node2&#45;&gt;Node20 -->
<g id="edge19_Node000002_Node000020" class="edge">
<title>Node2&#45;&gt;Node20</title>
<g id="a_edge19_Node000002_Node000020"><a xlink:title=" ">
<path fill="none" stroke="#63b8ff" d="M1310.4,-59.21C1231.5,-52.84 1083.8,-39.57 947.7,-18.95"/>
<polygon fill="#63b8ff" stroke="#63b8ff" points="947.92,-15.45 937.51,-17.39 946.86,-22.37 947.92,-15.45"/>
</a>
</g>
</g>
<!-- Node21 -->
<g id="Node000021" class="node">
<title>Node21</title>
<g id="a_Node000021"><a xlink:title=" ">
<polygon fill="#e0e0e0" stroke="#999999" points="1024,-19 956,-19 956,0 1024,0 1024,-19"/>
<text text-anchor="middle" x="990" y="-7" font-family="Helvetica,sans-Serif" font-size="10.00">filesystem</text>
</a>
</g>
</g>
<!-- Node2&#45;&gt;Node21 -->
<g id="edge20_Node000002_Node000021" class="edge">
<title>Node2&#45;&gt;Node21</title>
<g id="a_edge20_Node000002_Node000021"><a xlink:title=" ">
<path fill="none" stroke="#63b8ff" d="M1310.4,-57.06C1245.92,-49.47 1137.17,-35.93 1034.18,-19.11"/>
<polygon fill="#63b8ff" stroke="#63b8ff" points="1034.67,-15.64 1024.23,-17.47 1033.53,-22.55 1034.67,-15.64"/>
</a>
</g>
</g>
<!-- Node22 -->
<g id="Node000022" class="node">
<title>Node22</title>
<g id="a_Node000022"><a xlink:title=" ">
<polygon fill="#e0e0e0" stroke="#999999" points="1074,-19 1042,-19 1042,0 1074,0 1074,-19"/>
<text text-anchor="middle" x="1058" y="-7" font-family="Helvetica,sans-Serif" font-size="10.00">set</text>
</a>
</g>
</g>
<!-- Node2&#45;&gt;Node22 -->
<g id="edge21_Node000002_Node000022" class="edge">
<title>Node2&#45;&gt;Node22</title>
<g id="a_edge21_Node000002_Node000022"><a xlink:title=" ">
<path fill="none" stroke="#63b8ff" d="M1310.39,-57.54C1254.86,-51.05 1167.72,-39.12 1083.95,-18.85"/>
<polygon fill="#63b8ff" stroke="#63b8ff" points="1084.56,-15.39 1074.02,-16.4 1082.89,-22.19 1084.56,-15.39"/>
</a>
</g>
</g>
<!-- Node23 -->
<g id="Node000023" class="node">
<title>Node23</title>
<g id="a_Node000023"><a xlink:title=" ">
<polygon fill="#e0e0e0" stroke="#999999" points="1147.5,-19 1092.5,-19 1092.5,0 1147.5,0 1147.5,-19"/>
<text text-anchor="middle" x="1120" y="-7" font-family="Helvetica,sans-Serif" font-size="10.00">fstream</text>
</a>
</g>
</g>
<!-- Node2&#45;&gt;Node23 -->
<g id="edge22_Node000002_Node000023" class="edge">
<title>Node2&#45;&gt;Node23</title>
<g id="a_edge22_Node000002_Node000023"><a xlink:title=" ">
<path fill="none" stroke="#63b8ff" d="M1325.52,-54.93C1285.19,-46.54 1221.96,-33.27 1157.76,-19.14"/>
<polygon fill="#63b8ff" stroke="#63b8ff" points="1158.39,-15.69 1147.87,-16.96 1156.88,-22.53 1158.39,-15.69"/>
</a>
</g>
</g>
<!-- Node24 -->
<g id="Node000024" class="node">
<title>Node24</title>
<g id="a_Node000024"><a xlink:title=" ">
<polygon fill="#e0e0e0" stroke="#999999" points="1222,-19 1166,-19 1166,0 1222,0 1222,-19"/>
<text text-anchor="middle" x="1194" y="-7" font-family="Helvetica,sans-Serif" font-size="10.00">sstream</text>
</a>
</g>
</g>
<!-- Node2&#45;&gt;Node24 -->
<g id="edge23_Node000002_Node000024" class="edge">
<title>Node2&#45;&gt;Node24</title>
<g id="a_edge23_Node000002_Node000024"><a xlink:title=" ">
<path fill="none" stroke="#63b8ff" d="M1339.2,-54.98C1310.03,-46.05 1264,-31.94 1231.6,-22.02"/>
<polygon fill="#63b8ff" stroke="#63b8ff" points="1232.6,-18.66 1222.01,-19.08 1230.55,-25.36 1232.6,-18.66"/>
</a>
</g>
</g>
<!-- Node25 -->
<g id="Node000025" class="node">
<title>Node25</title>
<g id="a_Node000025"><a xlink:title=" ">
<polygon fill="#e0e0e0" stroke="#999999" points="1288,-19 1240,-19 1240,0 1288,0 1288,-19"/>
<text text-anchor="middle" x="1264" y="-7" font-family="Helvetica,sans-Serif" font-size="10.00">mutex</text>
</a>
</g>
</g>
<!-- Node2&#45;&gt;Node25 -->
<g id="edge24_Node000002_Node000025" class="edge">
<title>Node2&#45;&gt;Node25</title>
<g id="a_edge24_Node000002_Node000025"><a xlink:title=" ">
<path fill="none" stroke="#63b8ff" d="M1350.45,-54.98C1334.11,-46.57 1308.87,-33.59 1289.87,-23.81"/>
<polygon fill="#63b8ff" stroke="#63b8ff" points="1291.34,-20.63 1280.85,-19.17 1288.14,-26.86 1291.34,-20.63"/>
</a>
</g>
</g>
<!-- Node26 -->
<g id="Node000026" class="node">
<title>Node26</title>
<g id="a_Node000026"><a xlink:title=" ">
<polygon fill="#e0e0e0" stroke="#999999" points="1360,-19 1306,-19 1306,0 1360,0 1360,-19"/>
<text text-anchor="middle" x="1333" y="-7" font-family="Helvetica,sans-Serif" font-size="10.00">random</text>
</a>
</g>
</g>
<!-- Node2&#45;&gt;Node26 -->
<g id="edge25_Node000002_Node000026" class="edge">
<title>Node2&#45;&gt;Node26</title>
<g id="a_edge25_Node000002_Node000026"><a xlink:title=" ">
<path fill="none" stroke="#63b8ff" d="M1361.39,-54.75C1356.68,-47.42 1349.83,-36.73 1344.03,-27.7"/>
<polygon fill="#63b8ff" stroke="#63b8ff" points="1346.86,-25.62 1338.51,-19.09 1340.96,-29.4 1346.86,-25.62"/>
</a>
</g>
</g>
<!-- Node27 -->
<g id="Node000027" class="node">
<title>Node27</title>
<g id="a_Node000027"><a xlink:title=" ">
<polygon fill="#e0e0e0" stroke="#999999" points="1426,-19 1378,-19 1378,0 1426,0 1426,-19"/>
<text text-anchor="middle" x="1402" y="-7" font-family="Helvetica,sans-Serif" font-size="10.00">thread</text>
</a>
</g>
</g>
<!-- Node2&#45;&gt;Node27 -->
<g id="edge26_Node000002_Node000027" class="edge">
<title>Node2&#45;&gt;Node27</title>
<g id="a_edge26_Node000002_Node000027"><a xlink:title=" ">
<path fill="none" stroke="#63b8ff" d="M1372.78,-54.75C1377.62,-47.42 1384.68,-36.73 1390.64,-27.7"/>
<polygon fill="#63b8ff" stroke="#63b8ff" points="1393.74,-29.36 1396.33,-19.09 1387.9,-25.5 1393.74,-29.36"/>
</a>
</g>
</g>
<!-- Node28 -->
<g id="Node000028" class="node">
<title>Node28</title>
<g id="a_Node000028"><a xlink:title=" ">
<polygon fill="#e0e0e0" stroke="#999999" points="1494,-19 1444,-19 1444,0 1494,0 1494,-19"/>
<text text-anchor="middle" x="1469" y="-7" font-family="Helvetica,sans-Serif" font-size="10.00">atomic</text>
</a>
</g>
</g>
<!-- Node2&#45;&gt;Node28 -->
<g id="edge27_Node000002_Node000028" class="edge">
<title>Node2&#45;&gt;Node28</title>
<g id="a_edge27_Node000002_Node000028"><a xlink:title=" ">
<path fill="none" stroke="#63b8ff" d="M1383.39,-54.98C1399.57,-46.57 1424.57,-33.59 1443.38,-23.81"/>
<polygon fill="#63b8ff" stroke="#63b8ff" points="1445.05,-26.89 1452.31,-19.17 1441.83,-20.68 1445.05,-26.89"/>
</a>
</g>
</g>
<!-- Node29 -->
<g id="Node000029" class="node">
<title>Node29</title>
<g id="a_Node000029"><a xlink:title=" ">
<polygon fill="#e0e0e0" stroke="#999999" points="1561.5,-19 1512.5,-19 1512.5,0 1561.5,0 1561.5,-19"/>
<text text-anchor="middle" x="1537" y="-7" font-family="Helvetica,sans-Serif" font-size="10.00">cctype</text>
</a>
</g>
</g>
<!-- Node2&#45;&gt;Node29 -->
<g id="edge28_Node000002_Node000029" class="edge">
<title>Node2&#45;&gt;Node29</title>
<g id="a_edge28_Node000002_Node000029"><a xlink:title=" ">
<path fill="none" stroke="#63b8ff" d="M1394.31,-54.98C1423.7,-45.82 1470.51,-31.23 1502.44,-21.27"/>
<polygon fill="#63b8ff" stroke="#63b8ff" points="1503.74,-24.54 1512.24,-18.22 1501.65,-17.85 1503.74,-24.54"/>
</a>
</g>
</g>
<!-- Node30 -->
<g id="Node000030" class="node">
<title>Node30</title>
<g id="a_Node000030"><a xlink:title=" ">
<polygon fill="#e0e0e0" stroke="#999999" points="1636,-19 1580,-19 1580,0 1636,0 1636,-19"/>
<text text-anchor="middle" x="1608" y="-7" font-family="Helvetica,sans-Serif" font-size="10.00">d3d12.h</text>
</a>
</g>
</g>
<!-- Node2&#45;&gt;Node30 -->
<g id="edge29_Node000002_Node000030" class="edge">
<title>Node2&#45;&gt;Node30</title>
<g id="a_edge29_Node000002_Node000030"><a xlink:title=" ">
<path fill="none" stroke="#63b8ff" d="M1406.9,-54.93C1445.96,-46.52 1507.41,-33.19 1569.72,-19.27"/>
<polygon fill="#63b8ff" stroke="#63b8ff" points="1570.73,-22.63 1579.73,-17.03 1569.2,-15.8 1570.73,-22.63"/>
</a>
</g>
</g>
<!-- Node31 -->
<g id="Node000031" class="node">
<title>Node31</title>
<g id="a_Node000031"><a xlink:title=" ">
<polygon fill="#e0e0e0" stroke="#999999" points="1718,-19 1654,-19 1654,0 1718,0 1718,-19"/>
<text text-anchor="middle" x="1686" y="-7" font-family="Helvetica,sans-Serif" font-size="10.00">dxgi1_6.h</text>
</a>
</g>
</g>
<!-- Node2&#45;&gt;Node31 -->
<g id="edge30_Node000002_Node000031" class="edge">
<title>Node2&#45;&gt;Node31</title>
<g id="a_edge30_Node000002_Node000031"><a xlink:title=" ">
<path fill="none" stroke="#63b8ff" d="M1423.57,-55.22C1477.64,-47.13 1561.68,-34.1 1643.8,-19.15"/>
<polygon fill="#63b8ff" stroke="#63b8ff" points="1644.59,-22.57 1653.8,-17.32 1643.33,-15.68 1644.59,-22.57"/>
</a>
</g>
</g>
<!-- Node32 -->
<g id="Node000032" class="node">
<title>Node32</title>
<g id="a_Node000032"><a xlink:title=" ">
<polygon fill="#e0e0e0" stroke="#999999" points="1822,-19 1736,-19 1736,0 1822,0 1822,-19"/>
<text text-anchor="middle" x="1779" y="-7" font-family="Helvetica,sans-Serif" font-size="10.00">d3dcompiler.h</text>
</a>
</g>
</g>
<!-- Node2&#45;&gt;Node32 -->
<g id="edge31_Node000002_Node000032" class="edge">
<title>Node2&#45;&gt;Node32</title>
<g id="a_edge31_Node000002_Node000032"><a xlink:title=" ">
<path fill="none" stroke="#63b8ff" d="M1423.52,-57.2C1492.41,-49.38 1612.63,-35.22 1725.68,-19.14"/>
<polygon fill="#63b8ff" stroke="#63b8ff" points="1726.49,-22.56 1735.89,-17.68 1725.49,-15.63 1726.49,-22.56"/>
</a>
</g>
</g>
<!-- Node33 -->
<g id="Node000033" class="node">
<title>Node33</title>
<g id="a_Node000033"><a xlink:title=" ">
<polygon fill="#e0e0e0" stroke="#999999" points="2795,-19 2709,-19 2709,0 2795,0 2795,-19"/>
<text text-anchor="middle" x="2752" y="-7" font-family="Helvetica,sans-Serif" font-size="10.00">DirectXMath.h</text>
</a>
</g>
</g>
<!-- Node2&#45;&gt;Node33 -->
<g id="edge32_Node000002_Node000033" class="edge">
<title>Node2&#45;&gt;Node33</title>
<g id="a_edge32_Node000002_Node000033"><a xlink:title=" ">
<path fill="none" stroke="#63b8ff" d="M1423.63,-62.58C1641.45,-58.9 2426.23,-44.22 2698.67,-18.96"/>
<polygon fill="#63b8ff" stroke="#63b8ff" points="2699.3,-22.41 2708.93,-17.98 2698.64,-15.45 2699.3,-22.41"/>
</a>
</g>
</g>
<!-- Node34 -->
<g id="Node000034" class="node">
<title>Node34</title>
<g id="a_Node000034"><a xlink:title=" ">
<polygon fill="#e0e0e0" stroke="#999999" points="1957.5,-19 1840.5,-19 1840.5,0 1957.5,0 1957.5,-19"/>
<text text-anchor="middle" x="1899" y="-7" font-family="Helvetica,sans-Serif" font-size="10.00">assimp/Importer.hpp</text>
</a>
</g>
</g>
<!-- Node2&#45;&gt;Node34 -->
<g id="edge33_Node000002_Node000034" class="edge">
<title>Node2&#45;&gt;Node34</title>
<g id="a_edge33_Node000002_Node000034"><a xlink:title=" ">
<path fill="none" stroke="#63b8ff" d="M1423.84,-58.58C1509.49,-51.05 1677.01,-35.86 1830.33,-19.04"/>
<polygon fill="#63b8ff" stroke="#63b8ff" points="1830.85,-22.51 1840.41,-17.93 1830.08,-15.55 1830.85,-22.51"/>
</a>
</g>
</g>
<!-- Node35 -->
<g id="Node000035" class="node">
<title>Node35</title>
<g id="a_Node000035"><a xlink:title=" ">
<polygon fill="#e0e0e0" stroke="#999999" points="2068,-19 1976,-19 1976,0 2068,0 2068,-19"/>
<text text-anchor="middle" x="2022" y="-7" font-family="Helvetica,sans-Serif" font-size="10.00">assimp/scene.h</text>
</a>
</g>
</g>
<!-- Node2&#45;&gt;Node35 -->
<g id="edge34_Node000002_Node000035" class="edge">
<title>Node2&#45;&gt;Node35</title>
<g id="a_edge34_Node000002_Node000035"><a xlink:title=" ">
<path fill="none" stroke="#63b8ff" d="M1423.81,-60.79C1528.77,-55.46 1760.38,-42.16 1965.75,-19.05"/>
<polygon fill="#63b8ff" stroke="#63b8ff" points="1966.28,-22.51 1975.82,-17.91 1965.49,-15.56 1966.28,-22.51"/>
</a>
</g>
</g>
<!-- Node36 -->
<g id="Node000036" class="node">
<title>Node36</title>
<g id="a_Node000036"><a xlink:title=" ">
<polygon fill="#e0e0e0" stroke="#999999" points="2208,-19 2086,-19 2086,0 2208,0 2208,-19"/>
<text text-anchor="middle" x="2147" y="-7" font-family="Helvetica,sans-Serif" font-size="10.00">assimp/postprocess.h</text>
</a>
</g>
</g>
<!-- Node2&#45;&gt;Node36 -->
<g id="edge35_Node000002_Node000036" class="edge">
<title>Node2&#45;&gt;Node36</title>
<g id="a_edge35_Node000002_Node000036"><a xlink:title=" ">
<path fill="none" stroke="#63b8ff" d="M1423.69,-61.07C1542.55,-55.73 1826.78,-41.69 2075.97,-19.04"/>
<polygon fill="#63b8ff" stroke="#63b8ff" points="2076.3,-22.52 2085.94,-18.13 2075.66,-15.55 2076.3,-22.52"/>
</a>
</g>
</g>
<!-- Node37 -->
<g id="Node000037" class="node">
<title>Node37</title>
<g id="a_Node000037"><a xlink:href="Logger_8h.html" target="_top" xlink:title="デバッグログ出力システム">
<polygon fill="white" stroke="#666666" points="2304,-19 2226,-19 2226,0 2304,0 2304,-19"/>
<text text-anchor="middle" x="2265" y="-7" font-family="Helvetica,sans-Serif" font-size="10.00">Log/Logger.h</text>
</a>
</g>
</g>
<!-- Node2&#45;&gt;Node37 -->
<g id="edge36_Node000002_Node000037" class="edge">
<title>Node2&#45;&gt;Node37</title>
<g id="a_edge36_Node000002_Node000037"><a xlink:title=" ">
<path fill="none" stroke="#63b8ff" d="M1423.6,-62.87C1559.41,-60.87 1913.82,-52.62 2208,-19 2210.5,-18.71 2213.07,-18.38 2215.67,-18.01"/>
<polygon fill="#63b8ff" stroke="#63b8ff" points="2216.43,-21.44 2225.78,-16.46 2215.37,-14.52 2216.43,-21.44"/>
</a>
</g>
</g>
<!-- Node37&#45;&gt;Node2 -->
<g id="edge37_Node000037_Node000002" class="edge">
<title>Node37&#45;&gt;Node2</title>
<g id="a_edge37_Node000037_Node000002"><a xlink:title=" ">
<path fill="none" stroke="#63b8ff" d="M2225.56,-19.05C1931.9,-52.58 1578.4,-60.85 1433.62,-62.86"/>
<polygon fill="#63b8ff" stroke="#63b8ff" points="1433.51,-59.36 1423.56,-63 1433.6,-66.36 1433.51,-59.36"/>
</a>
</g>
</g>
<!-- Node38&#45;&gt;Node2 -->
<g id="edge39_Node000038_Node000002" class="edge">
<title>Node38&#45;&gt;Node2</title>
<g id="a_edge39_Node000038_Node000002"><a xlink:title=" ">
<path fill="none" stroke="#63b8ff" d="M1252.41,-164.62C1253.47,-151.25 1257.29,-125.83 1271,-110 1284.19,-94.77 1303.7,-84.42 1321.7,-77.57"/>
<polygon fill="#63b8ff" stroke="#63b8ff" points="1323.22,-80.74 1331.49,-74.11 1320.89,-74.14 1323.22,-80.74"/>
</a>
</g>
</g>
<!-- Node39 -->
<g id="Node000039" class="node">
<title>Node39</title>
<g id="a_Node000039"><a xlink:href="Window_8h.html" target="_top" xlink:title="Windows OSS ウィンドウのラッパー。">
<polygon fill="white" stroke="#666666" points="1223.5,-129 1070.5,-129 1070.5,-110 1223.5,-110 1223.5,-129"/>
<text text-anchor="middle" x="1147" y="-117" font-family="Helvetica,sans-Serif" font-size="10.00">Runtime/Platform/Window.h</text>
</a>
</g>
</g>
<!-- Node38&#45;&gt;Node39 -->
<g id="edge40_Node000038_Node000039" class="edge">
<title>Node38&#45;&gt;Node39</title>
<g id="a_edge40_Node000038_Node000039"><a xlink:title=" ">
<path fill="none" stroke="#63b8ff" d="M1235.13,-164.98C1218.39,-156.54 1192.5,-143.47 1173.11,-133.68"/>
<polygon fill="#63b8ff" stroke="#63b8ff" points="1174.68,-130.55 1164.18,-129.17 1171.53,-136.8 1174.68,-130.55"/>
</a>
</g>
</g>
<!-- Node39&#45;&gt;Node2 -->
<g id="edge41_Node000039_Node000002" class="edge">
<title>Node39&#45;&gt;Node2</title>
<g id="a_edge41_Node000039_Node000002"><a xlink:title=" ">
<path fill="none" stroke="#63b8ff" d="M1182.35,-109.98C1220.16,-100.87 1280.26,-86.4 1321.57,-76.45"/>
<polygon fill="#63b8ff" stroke="#63b8ff" points="1322.47,-79.83 1331.38,-74.08 1320.83,-73.02 1322.47,-79.83"/>
</a>
</g>
</g>
<!-- Node40 -->
<g id="Node000040" class="node">
<title>Node40</title>
<g id="a_Node000040"><a xlink:title=" ">
<polygon fill="#e0e0e0" stroke="#999999" points="1179,-74 1115,-74 1115,-55 1179,-55 1179,-74"/>
<text text-anchor="middle" x="1147" y="-62" font-family="Helvetica,sans-Serif" font-size="10.00">shellapi.h</text>
</a>
</g>
</g>
<!-- Node39&#45;&gt;Node40 -->
<g id="edge42_Node000039_Node000040" class="edge">
<title>Node39&#45;&gt;Node40</title>
<g id="a_edge42_Node000039_Node000040"><a xlink:title=" ">
<path fill="none" stroke="#63b8ff" d="M1147,-109.75C1147,-102.8 1147,-92.85 1147,-84.13"/>
<polygon fill="#63b8ff" stroke="#63b8ff" points="1150.5,-84.09 1147,-74.09 1143.5,-84.09 1150.5,-84.09"/>
</a>
</g>
</g>
<!-- Node41&#45;&gt;Node2 -->
<g id="edge44_Node000041_Node000002" class="edge">
<title>Node41&#45;&gt;Node2</title>
<g id="a_edge44_Node000041_Node000002"><a xlink:title=" ">
<path fill="none" stroke="#63b8ff" d="M1329.43,-109.75C1335.85,-102.18 1345.31,-91.05 1353.12,-81.84"/>
<polygon fill="#63b8ff" stroke="#63b8ff" points="1355.9,-83.98 1359.71,-74.09 1350.57,-79.45 1355.9,-83.98"/>
</a>
</g>
</g>
<!-- Node42&#45;&gt;Node2 -->
<g id="edge46_Node000042_Node000002" class="edge">
<title>Node42&#45;&gt;Node2</title>
<g id="a_edge46_Node000042_Node000002"><a xlink:title=" ">
<path fill="none" stroke="#63b8ff" d="M1530.67,-109.98C1497.51,-100.97 1445,-86.7 1408.44,-76.76"/>
<polygon fill="#63b8ff" stroke="#63b8ff" points="1409.14,-73.33 1398.58,-74.08 1407.31,-80.08 1409.14,-73.33"/>
</a>
</g>
</g>
<!-- Node43&#45;&gt;Node2 -->
<g id="edge48_Node000043_Node000002" class="edge">
<title>Node43&#45;&gt;Node2</title>
<g id="a_edge48_Node000043_Node000002"><a xlink:title=" ">
<path fill="none" stroke="#63b8ff" d="M1726.72,-164.78C1716.03,-150.66 1692.8,-123.05 1666,-110 1626.23,-90.63 1509.19,-77.48 1433.89,-70.75"/>
<polygon fill="#63b8ff" stroke="#63b8ff" points="1433.82,-67.23 1423.55,-69.84 1433.21,-74.2 1433.82,-67.23"/>
</a>
</g>
</g>
<!-- Node43&#45;&gt;Node44 -->
<g id="edge49_Node000043_Node000044" class="edge">
<title>Node43&#45;&gt;Node44</title>
<g id="a_edge49_Node000043_Node000044"><a xlink:title=" ">
<path fill="none" stroke="#63b8ff" d="M1746.01,-164.98C1758.46,-156.84 1777.46,-144.41 1792.21,-134.76"/>
<polygon fill="#63b8ff" stroke="#63b8ff" points="1794.3,-137.57 1800.75,-129.17 1790.46,-131.72 1794.3,-137.57"/>
</a>
</g>
</g>
<!-- Node44&#45;&gt;Node15 -->
<g id="edge52_Node000044_Node000015" class="edge">
<title>Node44&#45;&gt;Node15</title>
<g id="a_edge52_Node000044_Node000015"><a xlink:title=" ">
<path fill="none" stroke="#63b8ff" d="M1814.42,-109.74C1815.63,-95.56 1820.26,-67.88 1838,-55 1906.09,-5.58 2494.66,-28.35 2616.81,-18.67"/>
<polygon fill="#63b8ff" stroke="#63b8ff" points="2617.25,-22.14 2626.85,-17.67 2616.55,-15.18 2617.25,-22.14"/>
</a>
</g>
</g>
<!-- Node44&#45;&gt;Node33 -->
<g id="edge50_Node000044_Node000033" class="edge">
<title>Node44&#45;&gt;Node33</title>
<g id="a_edge50_Node000044_Node000033"><a xlink:title=" ">
<path fill="none" stroke="#63b8ff" d="M1818.72,-109.95C1827.21,-95.56 1846.57,-66.88 1872,-55 1952.99,-17.16 2570.63,-27.76 2698.69,-18.81"/>
<polygon fill="#63b8ff" stroke="#63b8ff" points="2699.25,-22.28 2708.92,-17.95 2698.66,-15.3 2699.25,-22.28"/>
</a>
</g>
</g>
<!-- Node45 -->
<g id="Node000045" class="node">
<title>Node45</title>
<g id="a_Node000045"><a xlink:title=" ">
<polygon fill="#e0e0e0" stroke="#999999" points="1927.5,-74 1880.5,-74 1880.5,-55 1927.5,-55 1927.5,-74"/>
<text text-anchor="middle" x="1904" y="-62" font-family="Helvetica,sans-Serif" font-size="10.00">cmath</text>
</a>
</g>
</g>
<!-- Node44&#45;&gt;Node45 -->
<g id="edge51_Node000044_Node000045" class="edge">
<title>Node44&#45;&gt;Node45</title>
<g id="a_edge51_Node000044_Node000045"><a xlink:title=" ">
<path fill="none" stroke="#63b8ff" d="M1828.46,-109.98C1842.42,-101.77 1863.79,-89.18 1880.25,-79.49"/>
<polygon fill="#63b8ff" stroke="#63b8ff" points="1882.44,-82.26 1889.28,-74.17 1878.88,-76.23 1882.44,-82.26"/>
</a>
</g>
</g>
<!-- Node46&#45;&gt;Node2 -->
<g id="edge54_Node000046_Node000002" class="edge">
<title>Node46&#45;&gt;Node2</title>
<g id="a_edge54_Node000046_Node000002"><a xlink:title=" ">
<path fill="none" stroke="#63b8ff" d="M1472.35,-164.69C1470.94,-151.4 1466.54,-126.1 1453,-110 1440.7,-95.37 1422.36,-84.96 1405.78,-77.91"/>
<polygon fill="#63b8ff" stroke="#63b8ff" points="1406.86,-74.57 1396.27,-74.13 1404.28,-81.08 1406.86,-74.57"/>
</a>
</g>
</g>
<!-- Node46&#45;&gt;Node41 -->
<g id="edge59_Node000046_Node000041" class="edge">
<title>Node46&#45;&gt;Node41</title>
<g id="a_edge59_Node000046_Node000041"><a xlink:title=" ">
<path fill="none" stroke="#63b8ff" d="M1448.74,-164.98C1423.68,-156.19 1384.37,-142.39 1356.17,-132.49"/>
<polygon fill="#63b8ff" stroke="#63b8ff" points="1357.3,-129.18 1346.7,-129.17 1354.98,-135.78 1357.3,-129.18"/>
</a>
</g>
</g>
<!-- Node46&#45;&gt;Node42 -->
<g id="edge56_Node000046_Node000042" class="edge">
<title>Node46&#45;&gt;Node42</title>
<g id="a_edge56_Node000046_Node000042"><a xlink:title=" ">
<path fill="none" stroke="#63b8ff" d="M1487.3,-164.98C1501.1,-156.77 1522.24,-144.18 1538.51,-134.49"/>
<polygon fill="#63b8ff" stroke="#63b8ff" points="1540.64,-137.29 1547.44,-129.17 1537.06,-131.28 1540.64,-137.29"/>
</a>
</g>
</g>
<!-- Node46&#45;&gt;Node44 -->
<g id="edge55_Node000046_Node000044" class="edge">
<title>Node46&#45;&gt;Node44</title>
<g id="a_edge55_Node000046_Node000044"><a xlink:title=" ">
<path fill="none" stroke="#63b8ff" d="M1527.79,-164.98C1588.1,-155.61 1684.99,-140.55 1749.07,-130.59"/>
<polygon fill="#63b8ff" stroke="#63b8ff" points="1749.72,-134.03 1759.07,-129.04 1748.65,-127.12 1749.72,-134.03"/>
</a>
</g>
</g>
<!-- Node47 -->
<g id="Node000047" class="node">
<title>Node47</title>
<g id="a_Node000047"><a xlink:href="Texture_8h.html" target="_top" xlink:title="画像読み込みとテクスチャリソース管理。">
<polygon fill="white" stroke="#666666" points="1444,-129 1382,-129 1382,-110 1444,-110 1444,-129"/>
<text text-anchor="middle" x="1413" y="-117" font-family="Helvetica,sans-Serif" font-size="10.00">Texture.h</text>
</a>
</g>
</g>
<!-- Node46&#45;&gt;Node47 -->
<g id="edge57_Node000046_Node000047" class="edge">
<title>Node46&#45;&gt;Node47</title>
<g id="a_edge57_Node000046_Node000047"><a xlink:title=" ">
<path fill="none" stroke="#63b8ff" d="M1463.36,-164.98C1454.49,-157.15 1441.13,-145.34 1430.39,-135.86"/>
<polygon fill="#63b8ff" stroke="#63b8ff" points="1432.63,-133.17 1422.82,-129.17 1427.99,-138.41 1432.63,-133.17"/>
</a>
</g>
</g>
<!-- Node47&#45;&gt;Node2 -->
<g id="edge58_Node000047_Node000002" class="edge">
<title>Node47&#45;&gt;Node2</title>
<g id="a_edge58_Node000047_Node000002"><a xlink:title=" ">
<path fill="none" stroke="#63b8ff" d="M1405.4,-109.75C1398.84,-102.18 1389.18,-91.05 1381.19,-81.84"/>
<polygon fill="#63b8ff" stroke="#63b8ff" points="1383.65,-79.35 1374.45,-74.09 1378.37,-83.94 1383.65,-79.35"/>
</a>
</g>
</g>
</g>
</svg>

<g id="navigator" transform="translate(0 0)" fill="#404254">
  <rect fill="#f2f5e9" fill-opacity="0.5" stroke="#606060" stroke-width=".5" x="0" y="0" width="60" height="60"/>
  <use id="zoomplus" xlink:href="#zoomPlus" x="17" y="9" onmousedown="handleZoom(evt,'in')"/>
  <use id="zoomminus" xlink:href="#zoomMin" x="42" y="9" onmousedown="handleZoom(evt,'out')"/>
  <use id="reset" xlink:href="#resetDef" x="30" y="36" onmousedown="handleReset()"/>
   <use id="arrowup" xlink:href="#arrowUp" x="0" y="0" onmousedown="handlePan(0,-1)"/>
  <use id="arrowright" xlink:href="#arrowRight" x="0" y="0" onmousedown="handlePan(1,0)"/>
  <use id="arrowdown" xlink:href="#arrowDown" x="0" y="0" onmousedown="handlePan(0,1)"/>
  <use id="arrowleft" xlink:href="#arrowLeft" x="0" y="0" onmousedown="handlePan(-1,0)"/>
</g>
<svg viewBox="0 0 15 15" width="100%" height="30px" preserveAspectRatio="xMaxYMin meet">
 <g id="arrow_out" transform="scale(0.3 0.3)">
  <a xlink:href="Renderer_8h__incl_org.svg" target="_base">
   <rect id="button" ry="5" rx="5" y="6" x="6" height="38" width="38"
        fill="#f2f5e9" fill-opacity="0.5" stroke="#606060" stroke-width="1.0"/>
   <path id="arrow"
     d="M 11.500037,31.436501 C 11.940474,20.09759 22.043105,11.32322 32.158766,21.979434 L 37.068811,17.246167 C 37.068811,17.246167 37.088388,32 37.088388,32 L 22.160133,31.978069 C 22.160133,31.978069 26.997745,27.140456 26.997745,27.140456 C 18.528582,18.264221 13.291696,25.230495 11.500037,31.436501 z"
     style="fill:#404040;"/>
  </a>
 </g>
</svg>

<style type='text/css'>
<![CDATA[
[data-mouse-over-selected='false'] { opacity: 0.7; }
[data-mouse-over-selected='true']  { opacity: 1.0; }
]]>
</style>
<script type="application/ecmascript"><![CDATA[
document.addEventListener('DOMContentLoaded', (event) => {
  highlightEdges();
  highlightAdjacentNodes();
});
]]></script>
</svg>
