<?xml version="1.0" encoding="UTF-8" standalone="no"?>
<!DOCTYPE svg PUBLIC "-//W3C//DTD SVG 1.1//EN"
 "http://www.w3.org/Graphics/SVG/1.1/DTD/svg11.dtd">
<!-- Generated by graphviz version 2.43.0 (0)
 -->
<!-- Title: Engine/Source/Runtime/Graphics/Renderer.cpp Pages: 1 -->
<svg width="2803pt" height="313pt"
 viewBox="0.00 0.00 2803.00 313.00" xmlns="http://www.w3.org/2000/svg" xmlns:xlink="http://www.w3.org/1999/xlink">
<g id="graph0" class="graph" transform="scale(1 1) rotate(0) translate(4 309)">
<title>Engine/Source/Runtime/Graphics/Renderer.cpp</title>
<!-- Node1 -->
<g id="Node000001" class="node">
<title>Node1</title>
<g id="a_Node000001"><a xlink:title=" ">
<polygon fill="#999999" stroke="#666666" points="1357,-305 1227,-305 1227,-275 1357,-275 1357,-305"/>
<text text-anchor="start" x="1235" y="-293" font-family="Helvetica,sans-Serif" font-size="10.00">Engine/Source/Runtime</text>
<text text-anchor="middle" x="1292" y="-282" font-family="Helvetica,sans-Serif" font-size="10.00">/Graphics/Renderer.cpp</text>
</a>
</g>
</g>
<!-- Node2 -->
<g id="Node000002" class="node">
<title>Node2</title>
<g id="a_Node000002"><a xlink:href="Renderer_8h.html" target="_top" xlink:title="描画パイプラインの構築と実行。">
<polygon fill="white" stroke="#666666" points="1326.5,-239 1257.5,-239 1257.5,-220 1326.5,-220 1326.5,-239"/>
<text text-anchor="middle" x="1292" y="-227" font-family="Helvetica,sans-Serif" font-size="10.00">Renderer.h</text>
</a>
</g>
</g>
<!-- Node1&#45;&gt;Node2 -->
<g id="edge1_Node000001_Node000002" class="edge">
<title>Node1&#45;&gt;Node2</title>
<g id="a_edge1_Node000001_Node000002"><a xlink:title=" ">
<path fill="none" stroke="#63b8ff" d="M1292,-274.84C1292,-267.21 1292,-257.7 1292,-249.45"/>
<polygon fill="#63b8ff" stroke="#63b8ff" points="1295.5,-249.27 1292,-239.27 1288.5,-249.27 1295.5,-249.27"/>
</a>
</g>
</g>
<!-- Node38 -->
<g id="Node000038" class="node">
<title>Node38</title>
<g id="a_Node000038"><a xlink:href="Logger_8h.html" target="_top" xlink:title="デバッグログ出力システム">
<polygon fill="white" stroke="#666666" points="2795,-19 2717,-19 2717,0 2795,0 2795,-19"/>
<text text-anchor="middle" x="2756" y="-7" font-family="Helvetica,sans-Serif" font-size="10.00">Log/Logger.h</text>
</a>
</g>
</g>
<!-- Node1&#45;&gt;Node38 -->
<g id="edge63_Node000001_Node000038" class="edge">
<title>Node1&#45;&gt;Node38</title>
<g id="a_edge63_Node000001_Node000038"><a xlink:title=" ">
<path fill="none" stroke="#63b8ff" d="M1357.13,-288.1C1572.03,-284.26 2245,-265.11 2245,-175.5 2245,-175.5 2245,-175.5 2245,-118.5 2245,-106.77 2578.77,-43.46 2706.81,-19.6"/>
<polygon fill="#63b8ff" stroke="#63b8ff" points="2707.56,-23.02 2716.75,-17.75 2706.28,-16.14 2707.56,-23.02"/>
</a>
</g>
</g>
<!-- Node48 -->
<g id="Node000048" class="node">
<title>Node48</title>
<g id="a_Node000048"><a xlink:href="Texture_8h.html" target="_top" xlink:title="画像読み込みとテクスチャリソース管理。">
<polygon fill="white" stroke="#666666" points="1176,-129 1114,-129 1114,-110 1176,-110 1176,-129"/>
<text text-anchor="middle" x="1145" y="-117" font-family="Helvetica,sans-Serif" font-size="10.00">Texture.h</text>
</a>
</g>
</g>
<!-- Node1&#45;&gt;Node48 -->
<g id="edge62_Node000001_Node000048" class="edge">
<title>Node1&#45;&gt;Node48</title>
<g id="a_edge62_Node000001_Node000048"><a xlink:title=" ">
<path fill="none" stroke="#63b8ff" d="M1279.27,-274.58C1270.47,-264.6 1258.5,-251.01 1248,-239 1216.18,-202.61 1179.01,-159.77 1159.18,-136.88"/>
<polygon fill="#63b8ff" stroke="#63b8ff" points="1161.67,-134.41 1152.48,-129.14 1156.38,-138.99 1161.67,-134.41"/>
</a>
</g>
</g>
<!-- Node3 -->
<g id="Node000003" class="node">
<title>Node3</title>
<g id="a_Node000003"><a xlink:href="CoreMinimal_8h.html" target="_top" xlink:title="エンジンの標準インクルードファイル。">
<polygon fill="white" stroke="#666666" points="1368.5,-74 1255.5,-74 1255.5,-55 1368.5,-55 1368.5,-74"/>
<text text-anchor="middle" x="1312" y="-62" font-family="Helvetica,sans-Serif" font-size="10.00">Core/CoreMinimal.h</text>
</a>
</g>
</g>
<!-- Node2&#45;&gt;Node3 -->
<g id="edge2_Node000002_Node000003" class="edge">
<title>Node2&#45;&gt;Node3</title>
<g id="a_edge2_Node000002_Node000003"><a xlink:title=" ">
<path fill="none" stroke="#63b8ff" d="M1267.53,-219.86C1251.73,-212.85 1232.41,-201.27 1223,-184 1218.96,-176.59 1220.8,-173.15 1223,-165 1230.37,-137.7 1236.41,-131.31 1255,-110 1265.03,-98.51 1278.38,-87.9 1289.64,-79.92"/>
<polygon fill="#63b8ff" stroke="#63b8ff" points="1291.84,-82.66 1298.12,-74.13 1287.89,-76.88 1291.84,-82.66"/>
</a>
</g>
</g>
<!-- Node39 -->
<g id="Node000039" class="node">
<title>Node39</title>
<g id="a_Node000039"><a xlink:href="GraphicsContext_8h.html" target="_top" xlink:title="DirectX 12 デヴァイスとスワップチェーンの管理クラス。">
<polygon fill="white" stroke="#666666" points="1590,-184 1458,-184 1458,-165 1590,-165 1590,-184"/>
<text text-anchor="middle" x="1524" y="-172" font-family="Helvetica,sans-Serif" font-size="10.00">Core/GraphicsContext.h</text>
</a>
</g>
</g>
<!-- Node2&#45;&gt;Node39 -->
<g id="edge39_Node000002_Node000039" class="edge">
<title>Node2&#45;&gt;Node39</title>
<g id="a_edge39_Node000002_Node000039"><a xlink:title=" ">
<path fill="none" stroke="#63b8ff" d="M1326.73,-220.57C1366.61,-211.46 1432.22,-196.47 1476.73,-186.3"/>
<polygon fill="#63b8ff" stroke="#63b8ff" points="1477.75,-189.66 1486.72,-184.02 1476.19,-182.83 1477.75,-189.66"/>
</a>
</g>
</g>
<!-- Node42 -->
<g id="Node000042" class="node">
<title>Node42</title>
<g id="a_Node000042"><a xlink:href="Shader_8h.html" target="_top" xlink:title="HLSLシェーダーのロードとコンパイル管理。">
<polygon fill="white" stroke="#666666" points="1354,-129 1270,-129 1270,-110 1354,-110 1354,-129"/>
<text text-anchor="middle" x="1312" y="-117" font-family="Helvetica,sans-Serif" font-size="10.00">Core/Shader.h</text>
</a>
</g>
</g>
<!-- Node2&#45;&gt;Node42 -->
<g id="edge44_Node000002_Node000042" class="edge">
<title>Node2&#45;&gt;Node42</title>
<g id="a_edge44_Node000002_Node000042"><a xlink:title=" ">
<path fill="none" stroke="#63b8ff" d="M1315.78,-219.92C1331.43,-212.89 1350.67,-201.25 1360,-184 1369.79,-165.88 1351.92,-147.34 1335.27,-135.01"/>
<polygon fill="#63b8ff" stroke="#63b8ff" points="1337.04,-131.98 1326.83,-129.16 1333.06,-137.73 1337.04,-131.98"/>
</a>
</g>
</g>
<!-- Node43 -->
<g id="Node000043" class="node">
<title>Node43</title>
<g id="a_Node000043"><a xlink:href="ConstantBuffer_8h.html" target="_top" xlink:title="DirectX 12 定数バッファ (CBV) のラッパークラス">
<polygon fill="white" stroke="#666666" points="1495.5,-129 1372.5,-129 1372.5,-110 1495.5,-110 1495.5,-129"/>
<text text-anchor="middle" x="1434" y="-117" font-family="Helvetica,sans-Serif" font-size="10.00">Core/ConstantBuffer.h</text>
</a>
</g>
</g>
<!-- Node2&#45;&gt;Node43 -->
<g id="edge46_Node000002_Node000043" class="edge">
<title>Node2&#45;&gt;Node43</title>
<g id="a_edge46_Node000002_Node000043"><a xlink:title=" ">
<path fill="none" stroke="#63b8ff" d="M1312.86,-219.88C1330.61,-212 1356.3,-199.26 1376,-184 1393.62,-170.35 1410.42,-151.03 1421.36,-137.29"/>
<polygon fill="#63b8ff" stroke="#63b8ff" points="1424.28,-139.23 1427.65,-129.18 1418.75,-134.93 1424.28,-139.23"/>
</a>
</g>
</g>
<!-- Node44 -->
<g id="Node000044" class="node">
<title>Node44</title>
<g id="a_Node000044"><a xlink:href="Mesh_8h.html" target="_top" xlink:title="3Dモデルの形状データ (頂点バッファ) 管理。">
<polygon fill="white" stroke="#666666" points="1137.5,-184 1032.5,-184 1032.5,-165 1137.5,-165 1137.5,-184"/>
<text text-anchor="middle" x="1085" y="-172" font-family="Helvetica,sans-Serif" font-size="10.00">Resources/Mesh.h</text>
</a>
</g>
</g>
<!-- Node2&#45;&gt;Node44 -->
<g id="edge48_Node000002_Node000044" class="edge">
<title>Node2&#45;&gt;Node44</title>
<g id="a_edge48_Node000002_Node000044"><a xlink:title=" ">
<path fill="none" stroke="#63b8ff" d="M1258.74,-219.98C1223.39,-210.93 1167.33,-196.58 1128.49,-186.64"/>
<polygon fill="#63b8ff" stroke="#63b8ff" points="1129.07,-183.17 1118.52,-184.08 1127.34,-189.95 1129.07,-183.17"/>
</a>
</g>
</g>
<!-- Node45 -->
<g id="Node000045" class="node">
<title>Node45</title>
<g id="a_Node000045"><a xlink:href="SpanMath_8h.html" target="_top" xlink:title="算術ライブラリ (Vector, Matrix, Quaternion)。">
<polygon fill="white" stroke="#666666" points="1058,-129 930,-129 930,-110 1058,-110 1058,-129"/>
<text text-anchor="middle" x="994" y="-117" font-family="Helvetica,sans-Serif" font-size="10.00">Core/Math/SpanMath.h</text>
</a>
</g>
</g>
<!-- Node2&#45;&gt;Node45 -->
<g id="edge61_Node000002_Node000045" class="edge">
<title>Node2&#45;&gt;Node45</title>
<g id="a_edge61_Node000002_Node000045"><a xlink:title=" ">
<path fill="none" stroke="#63b8ff" d="M1257.24,-226.76C1193.05,-222.9 1059.18,-211.69 1023,-184 1008.73,-173.08 1001.27,-153.52 997.51,-138.98"/>
<polygon fill="#63b8ff" stroke="#63b8ff" points="1000.89,-138.08 995.3,-129.07 994.06,-139.6 1000.89,-138.08"/>
</a>
</g>
</g>
<!-- Node47 -->
<g id="Node000047" class="node">
<title>Node47</title>
<g id="a_Node000047"><a xlink:href="Material_8h.html" target="_top" xlink:title="PBRマテリアルのパラメータ管理。">
<polygon fill="white" stroke="#666666" points="1351.5,-184 1232.5,-184 1232.5,-165 1351.5,-165 1351.5,-184"/>
<text text-anchor="middle" x="1292" y="-172" font-family="Helvetica,sans-Serif" font-size="10.00">Resources/Material.h</text>
</a>
</g>
</g>
<!-- Node2&#45;&gt;Node47 -->
<g id="edge54_Node000002_Node000047" class="edge">
<title>Node2&#45;&gt;Node47</title>
<g id="a_edge54_Node000002_Node000047"><a xlink:title=" ">
<path fill="none" stroke="#63b8ff" d="M1292,-219.75C1292,-212.8 1292,-202.85 1292,-194.13"/>
<polygon fill="#63b8ff" stroke="#63b8ff" points="1295.5,-194.09 1292,-184.09 1288.5,-194.09 1295.5,-194.09"/>
</a>
</g>
</g>
<!-- Node4 -->
<g id="Node000004" class="node">
<title>Node4</title>
<g id="a_Node000004"><a xlink:title=" ">
<polygon fill="#e0e0e0" stroke="#999999" points="2550,-19 2480,-19 2480,0 2550,0 2550,-19"/>
<text text-anchor="middle" x="2515" y="-7" font-family="Helvetica,sans-Serif" font-size="10.00">Windows.h</text>
</a>
</g>
</g>
<!-- Node3&#45;&gt;Node4 -->
<g id="edge3_Node000003_Node000004" class="edge">
<title>Node3&#45;&gt;Node4</title>
<g id="a_edge3_Node000003_Node000004"><a xlink:title=" ">
<path fill="none" stroke="#63b8ff" d="M1368.73,-61.56C1585.64,-54.13 2355.63,-27.44 2469.37,-18.76"/>
<polygon fill="#63b8ff" stroke="#63b8ff" points="2469.89,-22.22 2479.53,-17.83 2469.25,-15.25 2469.89,-22.22"/>
</a>
</g>
</g>
<!-- Node5 -->
<g id="Node000005" class="node">
<title>Node5</title>
<g id="a_Node000005"><a xlink:title=" ">
<polygon fill="#e0e0e0" stroke="#999999" points="2609.5,-19 2568.5,-19 2568.5,0 2609.5,0 2609.5,-19"/>
<text text-anchor="middle" x="2589" y="-7" font-family="Helvetica,sans-Serif" font-size="10.00">wrl.h</text>
</a>
</g>
</g>
<!-- Node3&#45;&gt;Node5 -->
<g id="edge4_Node000003_Node000005" class="edge">
<title>Node3&#45;&gt;Node5</title>
<g id="a_edge4_Node000003_Node000005"><a xlink:title=" ">
<path fill="none" stroke="#63b8ff" d="M1368.54,-61.67C1597.66,-54.22 2449.59,-26.29 2558.34,-18.03"/>
<polygon fill="#63b8ff" stroke="#63b8ff" points="2558.88,-21.49 2568.49,-17.01 2558.19,-14.52 2558.88,-21.49"/>
</a>
</g>
</g>
<!-- Node6 -->
<g id="Node000006" class="node">
<title>Node6</title>
<g id="a_Node000006"><a xlink:title=" ">
<polygon fill="#e0e0e0" stroke="#999999" points="2698.5,-19 2627.5,-19 2627.5,0 2698.5,0 2698.5,-19"/>
<text text-anchor="middle" x="2663" y="-7" font-family="Helvetica,sans-Serif" font-size="10.00">wrl/client.h</text>
</a>
</g>
</g>
<!-- Node3&#45;&gt;Node6 -->
<g id="edge5_Node000003_Node000006" class="edge">
<title>Node3&#45;&gt;Node6</title>
<g id="a_edge5_Node000003_Node000006"><a xlink:title=" ">
<path fill="none" stroke="#63b8ff" d="M1368.74,-61.69C1605.26,-54.13 2505.34,-25.2 2616.92,-18.66"/>
<polygon fill="#63b8ff" stroke="#63b8ff" points="2617.33,-22.14 2627.05,-17.92 2616.82,-15.16 2617.33,-22.14"/>
</a>
</g>
</g>
<!-- Node7 -->
<g id="Node000007" class="node">
<title>Node7</title>
<g id="a_Node000007"><a xlink:title=" ">
<polygon fill="#e0e0e0" stroke="#999999" points="236,-19 186,-19 186,0 236,0 236,-19"/>
<text text-anchor="middle" x="211" y="-7" font-family="Helvetica,sans-Serif" font-size="10.00">cstdint</text>
</a>
</g>
</g>
<!-- Node3&#45;&gt;Node7 -->
<g id="edge6_Node000003_Node000007" class="edge">
<title>Node3&#45;&gt;Node7</title>
<g id="a_edge6_Node000003_Node000007"><a xlink:title=" ">
<path fill="none" stroke="#63b8ff" d="M1255.42,-61.81C1054.88,-55.75 383.2,-34.64 246.39,-18.72"/>
<polygon fill="#63b8ff" stroke="#63b8ff" points="246.5,-15.21 236.14,-17.39 245.6,-22.15 246.5,-15.21"/>
</a>
</g>
</g>
<!-- Node8 -->
<g id="Node000008" class="node">
<title>Node8</title>
<g id="a_Node000008"><a xlink:title=" ">
<polygon fill="#e0e0e0" stroke="#999999" points="314,-19 254,-19 254,0 314,0 314,-19"/>
<text text-anchor="middle" x="284" y="-7" font-family="Helvetica,sans-Serif" font-size="10.00">iostream</text>
</a>
</g>
</g>
<!-- Node3&#45;&gt;Node8 -->
<g id="edge7_Node000003_Node000008" class="edge">
<title>Node3&#45;&gt;Node8</title>
<g id="a_edge7_Node000003_Node000008"><a xlink:title=" ">
<path fill="none" stroke="#63b8ff" d="M1255.22,-61.51C1064.57,-54.75 452.57,-32.4 324.4,-18.81"/>
<polygon fill="#63b8ff" stroke="#63b8ff" points="324.49,-15.29 314.15,-17.6 323.67,-22.24 324.49,-15.29"/>
</a>
</g>
</g>
<!-- Node9 -->
<g id="Node000009" class="node">
<title>Node9</title>
<g id="a_Node000009"><a xlink:title=" ">
<polygon fill="#e0e0e0" stroke="#999999" points="385.5,-19 332.5,-19 332.5,0 385.5,0 385.5,-19"/>
<text text-anchor="middle" x="359" y="-7" font-family="Helvetica,sans-Serif" font-size="10.00">string.h</text>
</a>
</g>
</g>
<!-- Node3&#45;&gt;Node9 -->
<g id="edge8_Node000003_Node000009" class="edge">
<title>Node3&#45;&gt;Node9</title>
<g id="a_edge8_Node000003_Node000009"><a xlink:title=" ">
<path fill="none" stroke="#63b8ff" d="M1255.48,-62.12C1085.73,-57.75 581.17,-43.17 395.55,-18.72"/>
<polygon fill="#63b8ff" stroke="#63b8ff" points="396.02,-15.25 385.63,-17.36 395.06,-22.19 396.02,-15.25"/>
</a>
</g>
</g>
<!-- Node10 -->
<g id="Node000010" class="node">
<title>Node10</title>
<g id="a_Node000010"><a xlink:title=" ">
<polygon fill="#e0e0e0" stroke="#999999" points="448,-19 404,-19 404,0 448,0 448,-19"/>
<text text-anchor="middle" x="426" y="-7" font-family="Helvetica,sans-Serif" font-size="10.00">string</text>
</a>
</g>
</g>
<!-- Node3&#45;&gt;Node10 -->
<g id="edge9_Node000003_Node000010" class="edge">
<title>Node3&#45;&gt;Node10</title>
<g id="a_edge9_Node000003_Node000010"><a xlink:title=" ">
<path fill="none" stroke="#63b8ff" d="M1255.21,-62.14C1093.21,-58.02 630.02,-44.44 458.14,-18.76"/>
<polygon fill="#63b8ff" stroke="#63b8ff" points="458.64,-15.3 448.22,-17.21 457.56,-22.21 458.64,-15.3"/>
</a>
</g>
</g>
<!-- Node11 -->
<g id="Node000011" class="node">
<title>Node11</title>
<g id="a_Node000011"><a xlink:title=" ">
<polygon fill="#e0e0e0" stroke="#999999" points="513.5,-19 466.5,-19 466.5,0 513.5,0 513.5,-19"/>
<text text-anchor="middle" x="490" y="-7" font-family="Helvetica,sans-Serif" font-size="10.00">vector</text>
</a>
</g>
</g>
<!-- Node3&#45;&gt;Node11 -->
<g id="edge10_Node000003_Node000011" class="edge">
<title>Node3&#45;&gt;Node11</title>
<g id="a_edge10_Node000003_Node000011"><a xlink:title=" ">
<path fill="none" stroke="#63b8ff" d="M1255.39,-61.81C1102.4,-57 682.1,-42.19 523.7,-18.9"/>
<polygon fill="#63b8ff" stroke="#63b8ff" points="524.07,-15.42 513.65,-17.36 523,-22.34 524.07,-15.42"/>
</a>
</g>
</g>
<!-- Node12 -->
<g id="Node000012" class="node">
<title>Node12</title>
<g id="a_Node000012"><a xlink:title=" ">
<polygon fill="#e0e0e0" stroke="#999999" points="578.5,-19 531.5,-19 531.5,0 578.5,0 578.5,-19"/>
<text text-anchor="middle" x="555" y="-7" font-family="Helvetica,sans-Serif" font-size="10.00">deque</text>
</a>
</g>
</g>
<!-- Node3&#45;&gt;Node12 -->
<g id="edge11_Node000003_Node000012" class="edge">
<title>Node3&#45;&gt;Node12</title>
<g id="a_edge11_Node000003_Node000012"><a xlink:title=" ">
<path fill="none" stroke="#63b8ff" d="M1255.31,-61.48C1111.42,-56.11 733.72,-40.54 588.69,-18.91"/>
<polygon fill="#63b8ff" stroke="#63b8ff" points="589.07,-15.43 578.65,-17.34 587.99,-22.34 589.07,-15.43"/>
</a>
</g>
</g>
<!-- Node13 -->
<g id="Node000013" class="node">
<title>Node13</title>
<g id="a_Node000013"><a xlink:title=" ">
<polygon fill="#e0e0e0" stroke="#999999" points="689.5,-19 596.5,-19 596.5,0 689.5,0 689.5,-19"/>
<text text-anchor="middle" x="643" y="-7" font-family="Helvetica,sans-Serif" font-size="10.00">unordered_map</text>
</a>
</g>
</g>
<!-- Node3&#45;&gt;Node13 -->
<g id="edge12_Node000003_Node000013" class="edge">
<title>Node3&#45;&gt;Node13</title>
<g id="a_edge12_Node000003_Node000013"><a xlink:title=" ">
<path fill="none" stroke="#63b8ff" d="M1255.24,-60.86C1148.57,-55.59 910.71,-42.29 699.74,-18.99"/>
<polygon fill="#63b8ff" stroke="#63b8ff" points="700.04,-15.5 689.71,-17.87 699.27,-22.46 700.04,-15.5"/>
</a>
</g>
</g>
<!-- Node14 -->
<g id="Node000014" class="node">
<title>Node14</title>
<g id="a_Node000014"><a xlink:title=" ">
<polygon fill="#e0e0e0" stroke="#999999" points="746,-19 708,-19 708,0 746,0 746,-19"/>
<text text-anchor="middle" x="727" y="-7" font-family="Helvetica,sans-Serif" font-size="10.00">map</text>
</a>
</g>
</g>
<!-- Node3&#45;&gt;Node14 -->
<g id="edge13_Node000003_Node000014" class="edge">
<title>Node3&#45;&gt;Node14</title>
<g id="a_edge13_Node000003_Node000014"><a xlink:title=" ">
<path fill="none" stroke="#63b8ff" d="M1255.33,-62.98C1155.82,-61.19 943.26,-53.5 756.16,-18.79"/>
<polygon fill="#63b8ff" stroke="#63b8ff" points="756.62,-15.32 746.14,-16.9 755.32,-22.2 756.62,-15.32"/>
</a>
</g>
</g>
<!-- Node15 -->
<g id="Node000015" class="node">
<title>Node15</title>
<g id="a_Node000015"><a xlink:title=" ">
<polygon fill="#e0e0e0" stroke="#999999" points="822,-19 764,-19 764,0 822,0 822,-19"/>
<text text-anchor="middle" x="793" y="-7" font-family="Helvetica,sans-Serif" font-size="10.00">memory</text>
</a>
</g>
</g>
<!-- Node3&#45;&gt;Node15 -->
<g id="edge14_Node000003_Node000015" class="edge">
<title>Node3&#45;&gt;Node15</title>
<g id="a_edge14_Node000003_Node000015"><a xlink:title=" ">
<path fill="none" stroke="#63b8ff" d="M1255.43,-60.61C1167.08,-55.59 990.85,-43.51 832.32,-19.02"/>
<polygon fill="#63b8ff" stroke="#63b8ff" points="832.81,-15.55 822.39,-17.46 831.73,-22.47 832.81,-15.55"/>
</a>
</g>
</g>
<!-- Node16 -->
<g id="Node000016" class="node">
<title>Node16</title>
<g id="a_Node000016"><a xlink:title=" ">
<polygon fill="#e0e0e0" stroke="#999999" points="168,-19 104,-19 104,0 168,0 168,-19"/>
<text text-anchor="middle" x="136" y="-7" font-family="Helvetica,sans-Serif" font-size="10.00">algorithm</text>
</a>
</g>
</g>
<!-- Node3&#45;&gt;Node16 -->
<g id="edge15_Node000003_Node000016" class="edge">
<title>Node3&#45;&gt;Node16</title>
<g id="a_edge15_Node000003_Node000016"><a xlink:title=" ">
<path fill="none" stroke="#63b8ff" d="M1255.18,-61.82C1045.78,-55.57 322.33,-33.3 178.21,-18.8"/>
<polygon fill="#63b8ff" stroke="#63b8ff" points="178.47,-15.31 168.15,-17.69 177.7,-22.27 178.47,-15.31"/>
</a>
</g>
</g>
<!-- Node17 -->
<g id="Node000017" class="node">
<title>Node17</title>
<g id="a_Node000017"><a xlink:title=" ">
<polygon fill="#e0e0e0" stroke="#999999" points="905.5,-19 840.5,-19 840.5,0 905.5,0 905.5,-19"/>
<text text-anchor="middle" x="873" y="-7" font-family="Helvetica,sans-Serif" font-size="10.00">functional</text>
</a>
</g>
</g>
<!-- Node3&#45;&gt;Node17 -->
<g id="edge16_Node000003_Node000017" class="edge">
<title>Node3&#45;&gt;Node17</title>
<g id="a_edge16_Node000003_Node000017"><a xlink:title=" ">
<path fill="none" stroke="#63b8ff" d="M1255.25,-58.72C1179.97,-52.03 1042.78,-38.63 915.44,-18.93"/>
<polygon fill="#63b8ff" stroke="#63b8ff" points="915.93,-15.46 905.51,-17.37 914.85,-22.38 915.93,-15.46"/>
</a>
</g>
</g>
<!-- Node18 -->
<g id="Node000018" class="node">
<title>Node18</title>
<g id="a_Node000018"><a xlink:title=" ">
<polygon fill="#e0e0e0" stroke="#999999" points="974,-19 924,-19 924,0 974,0 974,-19"/>
<text text-anchor="middle" x="949" y="-7" font-family="Helvetica,sans-Serif" font-size="10.00">chrono</text>
</a>
</g>
</g>
<!-- Node3&#45;&gt;Node18 -->
<g id="edge17_Node000003_Node000018" class="edge">
<title>Node3&#45;&gt;Node18</title>
<g id="a_edge17_Node000003_Node000018"><a xlink:title=" ">
<path fill="none" stroke="#63b8ff" d="M1255.22,-57.75C1191.52,-50.87 1084.96,-38.06 984.22,-19.05"/>
<polygon fill="#63b8ff" stroke="#63b8ff" points="984.66,-15.57 974.18,-17.12 983.35,-22.44 984.66,-15.57"/>
</a>
</g>
</g>
<!-- Node19 -->
<g id="Node000019" class="node">
<title>Node19</title>
<g id="a_Node000019"><a xlink:title=" ">
<polygon fill="#e0e0e0" stroke="#999999" points="1038,-19 992,-19 992,0 1038,0 1038,-19"/>
<text text-anchor="middle" x="1015" y="-7" font-family="Helvetica,sans-Serif" font-size="10.00">cstdio</text>
</a>
</g>
</g>
<!-- Node3&#45;&gt;Node19 -->
<g id="edge18_Node000003_Node000019" class="edge">
<title>Node3&#45;&gt;Node19</title>
<g id="a_edge18_Node000003_Node000019"><a xlink:title=" ">
<path fill="none" stroke="#63b8ff" d="M1255.36,-55.55C1203.72,-47.95 1125.13,-35.51 1047.91,-19.02"/>
<polygon fill="#63b8ff" stroke="#63b8ff" points="1048.52,-15.58 1038.01,-16.89 1047.05,-22.42 1048.52,-15.58"/>
</a>
</g>
</g>
<!-- Node20 -->
<g id="Node000020" class="node">
<title>Node20</title>
<g id="a_Node000020"><a xlink:title=" ">
<polygon fill="#e0e0e0" stroke="#999999" points="1108,-19 1056,-19 1056,0 1108,0 1108,-19"/>
<text text-anchor="middle" x="1082" y="-7" font-family="Helvetica,sans-Serif" font-size="10.00">cassert</text>
</a>
</g>
</g>
<!-- Node3&#45;&gt;Node20 -->
<g id="edge19_Node000003_Node000020" class="edge">
<title>Node3&#45;&gt;Node20</title>
<g id="a_edge19_Node000003_Node000020"><a xlink:title=" ">
<path fill="none" stroke="#63b8ff" d="M1273.85,-54.96C1236.59,-46.58 1178.01,-33.31 1118.34,-19.29"/>
<polygon fill="#63b8ff" stroke="#63b8ff" points="1118.9,-15.83 1108.36,-16.94 1117.3,-22.64 1118.9,-15.83"/>
</a>
</g>
</g>
<!-- Node21 -->
<g id="Node000021" class="node">
<title>Node21</title>
<g id="a_Node000021"><a xlink:title=" ">
<polygon fill="#e0e0e0" stroke="#999999" points="1191.5,-19 1126.5,-19 1126.5,0 1191.5,0 1191.5,-19"/>
<text text-anchor="middle" x="1159" y="-7" font-family="Helvetica,sans-Serif" font-size="10.00">typeindex</text>
</a>
</g>
</g>
<!-- Node3&#45;&gt;Node21 -->
<g id="edge20_Node000003_Node000021" class="edge">
<title>Node3&#45;&gt;Node21</title>
<g id="a_edge20_Node000003_Node000021"><a xlink:title=" ">
<path fill="none" stroke="#63b8ff" d="M1287.42,-54.98C1261.95,-46.16 1221.96,-32.31 1193.37,-22.41"/>
<polygon fill="#63b8ff" stroke="#63b8ff" points="1194.37,-19.05 1183.77,-19.08 1192.08,-25.66 1194.37,-19.05"/>
</a>
</g>
</g>
<!-- Node22 -->
<g id="Node000022" class="node">
<title>Node22</title>
<g id="a_Node000022"><a xlink:title=" ">
<polygon fill="#e0e0e0" stroke="#999999" points="1278,-19 1210,-19 1210,0 1278,0 1278,-19"/>
<text text-anchor="middle" x="1244" y="-7" font-family="Helvetica,sans-Serif" font-size="10.00">filesystem</text>
</a>
</g>
</g>
<!-- Node3&#45;&gt;Node22 -->
<g id="edge21_Node000003_Node000022" class="edge">
<title>Node3&#45;&gt;Node22</title>
<g id="a_edge21_Node000003_Node000022"><a xlink:title=" ">
<path fill="none" stroke="#63b8ff" d="M1301.07,-54.98C1290.92,-47.07 1275.58,-35.11 1263.35,-25.58"/>
<polygon fill="#63b8ff" stroke="#63b8ff" points="1265.16,-22.56 1255.12,-19.17 1260.86,-28.08 1265.16,-22.56"/>
</a>
</g>
</g>
<!-- Node23 -->
<g id="Node000023" class="node">
<title>Node23</title>
<g id="a_Node000023"><a xlink:title=" ">
<polygon fill="#e0e0e0" stroke="#999999" points="1328,-19 1296,-19 1296,0 1328,0 1328,-19"/>
<text text-anchor="middle" x="1312" y="-7" font-family="Helvetica,sans-Serif" font-size="10.00">set</text>
</a>
</g>
</g>
<!-- Node3&#45;&gt;Node23 -->
<g id="edge22_Node000003_Node000023" class="edge">
<title>Node3&#45;&gt;Node23</title>
<g id="a_edge22_Node000003_Node000023"><a xlink:title=" ">
<path fill="none" stroke="#63b8ff" d="M1312,-54.75C1312,-47.8 1312,-37.85 1312,-29.13"/>
<polygon fill="#63b8ff" stroke="#63b8ff" points="1315.5,-29.09 1312,-19.09 1308.5,-29.09 1315.5,-29.09"/>
</a>
</g>
</g>
<!-- Node24 -->
<g id="Node000024" class="node">
<title>Node24</title>
<g id="a_Node000024"><a xlink:title=" ">
<polygon fill="#e0e0e0" stroke="#999999" points="1401.5,-19 1346.5,-19 1346.5,0 1401.5,0 1401.5,-19"/>
<text text-anchor="middle" x="1374" y="-7" font-family="Helvetica,sans-Serif" font-size="10.00">fstream</text>
</a>
</g>
</g>
<!-- Node3&#45;&gt;Node24 -->
<g id="edge23_Node000003_Node000024" class="edge">
<title>Node3&#45;&gt;Node24</title>
<g id="a_edge23_Node000003_Node000024"><a xlink:title=" ">
<path fill="none" stroke="#63b8ff" d="M1321.96,-54.98C1331.13,-47.15 1344.94,-35.34 1356.03,-25.86"/>
<polygon fill="#63b8ff" stroke="#63b8ff" points="1358.53,-28.33 1363.86,-19.17 1353.98,-23.01 1358.53,-28.33"/>
</a>
</g>
</g>
<!-- Node25 -->
<g id="Node000025" class="node">
<title>Node25</title>
<g id="a_Node000025"><a xlink:title=" ">
<polygon fill="#e0e0e0" stroke="#999999" points="1476,-19 1420,-19 1420,0 1476,0 1476,-19"/>
<text text-anchor="middle" x="1448" y="-7" font-family="Helvetica,sans-Serif" font-size="10.00">sstream</text>
</a>
</g>
</g>
<!-- Node3&#45;&gt;Node25 -->
<g id="edge24_Node000003_Node000025" class="edge">
<title>Node3&#45;&gt;Node25</title>
<g id="a_edge24_Node000003_Node000025"><a xlink:title=" ">
<path fill="none" stroke="#63b8ff" d="M1333.85,-54.98C1356.12,-46.3 1390.9,-32.75 1416.22,-22.88"/>
<polygon fill="#63b8ff" stroke="#63b8ff" points="1417.71,-26.06 1425.75,-19.17 1415.16,-19.54 1417.71,-26.06"/>
</a>
</g>
</g>
<!-- Node26 -->
<g id="Node000026" class="node">
<title>Node26</title>
<g id="a_Node000026"><a xlink:title=" ">
<polygon fill="#e0e0e0" stroke="#999999" points="1542,-19 1494,-19 1494,0 1542,0 1542,-19"/>
<text text-anchor="middle" x="1518" y="-7" font-family="Helvetica,sans-Serif" font-size="10.00">mutex</text>
</a>
</g>
</g>
<!-- Node3&#45;&gt;Node26 -->
<g id="edge25_Node000003_Node000026" class="edge">
<title>Node3&#45;&gt;Node26</title>
<g id="a_edge25_Node000003_Node000026"><a xlink:title=" ">
<path fill="none" stroke="#63b8ff" d="M1345.17,-54.97C1378.02,-46.52 1430.03,-33.15 1484.09,-19.23"/>
<polygon fill="#63b8ff" stroke="#63b8ff" points="1485.04,-22.6 1493.85,-16.72 1483.29,-15.82 1485.04,-22.6"/>
</a>
</g>
</g>
<!-- Node27 -->
<g id="Node000027" class="node">
<title>Node27</title>
<g id="a_Node000027"><a xlink:title=" ">
<polygon fill="#e0e0e0" stroke="#999999" points="1614,-19 1560,-19 1560,0 1614,0 1614,-19"/>
<text text-anchor="middle" x="1587" y="-7" font-family="Helvetica,sans-Serif" font-size="10.00">random</text>
</a>
</g>
</g>
<!-- Node3&#45;&gt;Node27 -->
<g id="edge26_Node000003_Node000027" class="edge">
<title>Node3&#45;&gt;Node27</title>
<g id="a_edge26_Node000003_Node000027"><a xlink:title=" ">
<path fill="none" stroke="#63b8ff" d="M1361.57,-54.98C1407.83,-46.87 1479,-33.99 1549.9,-19.15"/>
<polygon fill="#63b8ff" stroke="#63b8ff" points="1550.84,-22.53 1559.9,-17.04 1549.4,-15.68 1550.84,-22.53"/>
</a>
</g>
</g>
<!-- Node28 -->
<g id="Node000028" class="node">
<title>Node28</title>
<g id="a_Node000028"><a xlink:title=" ">
<polygon fill="#e0e0e0" stroke="#999999" points="1680,-19 1632,-19 1632,0 1680,0 1680,-19"/>
<text text-anchor="middle" x="1656" y="-7" font-family="Helvetica,sans-Serif" font-size="10.00">thread</text>
</a>
</g>
</g>
<!-- Node3&#45;&gt;Node28 -->
<g id="edge27_Node000003_Node000028" class="edge">
<title>Node3&#45;&gt;Node28</title>
<g id="a_edge27_Node000003_Node000028"><a xlink:title=" ">
<path fill="none" stroke="#63b8ff" d="M1368.78,-57.28C1429.24,-50.22 1527.85,-37.51 1621.95,-19.01"/>
<polygon fill="#63b8ff" stroke="#63b8ff" points="1622.8,-22.41 1631.92,-17.03 1621.43,-15.55 1622.8,-22.41"/>
</a>
</g>
</g>
<!-- Node29 -->
<g id="Node000029" class="node">
<title>Node29</title>
<g id="a_Node000029"><a xlink:title=" ">
<polygon fill="#e0e0e0" stroke="#999999" points="1748,-19 1698,-19 1698,0 1748,0 1748,-19"/>
<text text-anchor="middle" x="1723" y="-7" font-family="Helvetica,sans-Serif" font-size="10.00">atomic</text>
</a>
</g>
</g>
<!-- Node3&#45;&gt;Node29 -->
<g id="edge28_Node000003_Node000029" class="edge">
<title>Node3&#45;&gt;Node29</title>
<g id="a_edge28_Node000003_Node000029"><a xlink:title=" ">
<path fill="none" stroke="#63b8ff" d="M1368.54,-59.09C1440.55,-52.97 1568.94,-40.38 1687.82,-19"/>
<polygon fill="#63b8ff" stroke="#63b8ff" points="1688.62,-22.41 1697.83,-17.17 1687.36,-15.52 1688.62,-22.41"/>
</a>
</g>
</g>
<!-- Node30 -->
<g id="Node000030" class="node">
<title>Node30</title>
<g id="a_Node000030"><a xlink:title=" ">
<polygon fill="#e0e0e0" stroke="#999999" points="1815.5,-19 1766.5,-19 1766.5,0 1815.5,0 1815.5,-19"/>
<text text-anchor="middle" x="1791" y="-7" font-family="Helvetica,sans-Serif" font-size="10.00">cctype</text>
</a>
</g>
</g>
<!-- Node3&#45;&gt;Node30 -->
<g id="edge29_Node000003_Node000030" class="edge">
<title>Node3&#45;&gt;Node30</title>
<g id="a_edge29_Node000003_Node000030"><a xlink:title=" ">
<path fill="none" stroke="#63b8ff" d="M1368.55,-60.48C1451.52,-55.48 1611.17,-43.64 1756.23,-18.87"/>
<polygon fill="#63b8ff" stroke="#63b8ff" points="1756.95,-22.3 1766.21,-17.14 1755.76,-15.4 1756.95,-22.3"/>
</a>
</g>
</g>
<!-- Node31 -->
<g id="Node000031" class="node">
<title>Node31</title>
<g id="a_Node000031"><a xlink:title=" ">
<polygon fill="#e0e0e0" stroke="#999999" points="1890,-19 1834,-19 1834,0 1890,0 1890,-19"/>
<text text-anchor="middle" x="1862" y="-7" font-family="Helvetica,sans-Serif" font-size="10.00">d3d12.h</text>
</a>
</g>
</g>
<!-- Node3&#45;&gt;Node31 -->
<g id="edge30_Node000003_Node000031" class="edge">
<title>Node3&#45;&gt;Node31</title>
<g id="a_edge30_Node000003_Node000031"><a xlink:title=" ">
<path fill="none" stroke="#63b8ff" d="M1368.87,-61.16C1462.03,-56.75 1653.07,-45.34 1823.87,-18.96"/>
<polygon fill="#63b8ff" stroke="#63b8ff" points="1824.46,-22.41 1833.8,-17.41 1823.38,-15.49 1824.46,-22.41"/>
</a>
</g>
</g>
<!-- Node32 -->
<g id="Node000032" class="node">
<title>Node32</title>
<g id="a_Node000032"><a xlink:title=" ">
<polygon fill="#e0e0e0" stroke="#999999" points="1972,-19 1908,-19 1908,0 1972,0 1972,-19"/>
<text text-anchor="middle" x="1940" y="-7" font-family="Helvetica,sans-Serif" font-size="10.00">dxgi1_6.h</text>
</a>
</g>
</g>
<!-- Node3&#45;&gt;Node32 -->
<g id="edge31_Node000003_Node000032" class="edge">
<title>Node3&#45;&gt;Node32</title>
<g id="a_edge31_Node000003_Node000032"><a xlink:title=" ">
<path fill="none" stroke="#63b8ff" d="M1368.52,-61.64C1471.74,-57.7 1697.78,-46.66 1897.74,-18.99"/>
<polygon fill="#63b8ff" stroke="#63b8ff" points="1898.42,-22.43 1907.84,-17.58 1897.45,-15.5 1898.42,-22.43"/>
</a>
</g>
</g>
<!-- Node33 -->
<g id="Node000033" class="node">
<title>Node33</title>
<g id="a_Node000033"><a xlink:title=" ">
<polygon fill="#e0e0e0" stroke="#999999" points="2076,-19 1990,-19 1990,0 2076,0 2076,-19"/>
<text text-anchor="middle" x="2033" y="-7" font-family="Helvetica,sans-Serif" font-size="10.00">d3dcompiler.h</text>
</a>
</g>
</g>
<!-- Node3&#45;&gt;Node33 -->
<g id="edge32_Node000003_Node000033" class="edge">
<title>Node3&#45;&gt;Node33</title>
<g id="a_edge32_Node000003_Node000033"><a xlink:title=" ">
<path fill="none" stroke="#63b8ff" d="M1368.55,-61.56C1482.35,-57.27 1747.27,-45.28 1979.91,-19.01"/>
<polygon fill="#63b8ff" stroke="#63b8ff" points="1980.38,-22.48 1989.91,-17.87 1979.58,-15.52 1980.38,-22.48"/>
</a>
</g>
</g>
<!-- Node34 -->
<g id="Node000034" class="node">
<title>Node34</title>
<g id="a_Node000034"><a xlink:title=" ">
<polygon fill="#e0e0e0" stroke="#999999" points="86,-19 0,-19 0,0 86,0 86,-19"/>
<text text-anchor="middle" x="43" y="-7" font-family="Helvetica,sans-Serif" font-size="10.00">DirectXMath.h</text>
</a>
</g>
</g>
<!-- Node3&#45;&gt;Node34 -->
<g id="edge33_Node000003_Node000034" class="edge">
<title>Node3&#45;&gt;Node34</title>
<g id="a_edge33_Node000003_Node000034"><a xlink:title=" ">
<path fill="none" stroke="#63b8ff" d="M1255.35,-61.85C1036.45,-55.41 250.72,-31.75 96.45,-18.91"/>
<polygon fill="#63b8ff" stroke="#63b8ff" points="96.35,-15.39 86.08,-17.97 95.72,-22.36 96.35,-15.39"/>
</a>
</g>
</g>
<!-- Node35 -->
<g id="Node000035" class="node">
<title>Node35</title>
<g id="a_Node000035"><a xlink:title=" ">
<polygon fill="#e0e0e0" stroke="#999999" points="2211.5,-19 2094.5,-19 2094.5,0 2211.5,0 2211.5,-19"/>
<text text-anchor="middle" x="2153" y="-7" font-family="Helvetica,sans-Serif" font-size="10.00">assimp/Importer.hpp</text>
</a>
</g>
</g>
<!-- Node3&#45;&gt;Node35 -->
<g id="edge34_Node000003_Node000035" class="edge">
<title>Node3&#45;&gt;Node35</title>
<g id="a_edge34_Node000003_Node000035"><a xlink:title=" ">
<path fill="none" stroke="#63b8ff" d="M1368.83,-61.53C1495.3,-56.87 1809.8,-43.71 2084.26,-19"/>
<polygon fill="#63b8ff" stroke="#63b8ff" points="2084.78,-22.46 2094.42,-18.07 2084.15,-15.49 2084.78,-22.46"/>
</a>
</g>
</g>
<!-- Node36 -->
<g id="Node000036" class="node">
<title>Node36</title>
<g id="a_Node000036"><a xlink:title=" ">
<polygon fill="#e0e0e0" stroke="#999999" points="2322,-19 2230,-19 2230,0 2322,0 2322,-19"/>
<text text-anchor="middle" x="2276" y="-7" font-family="Helvetica,sans-Serif" font-size="10.00">assimp/scene.h</text>
</a>
</g>
</g>
<!-- Node3&#45;&gt;Node36 -->
<g id="edge35_Node000003_Node000036" class="edge">
<title>Node3&#45;&gt;Node36</title>
<g id="a_edge35_Node000003_Node000036"><a xlink:title=" ">
<path fill="none" stroke="#63b8ff" d="M1368.56,-61.51C1537.15,-55.44 2035.42,-36.62 2219.72,-18.99"/>
<polygon fill="#63b8ff" stroke="#63b8ff" points="2220.22,-22.46 2229.83,-17.99 2219.54,-15.49 2220.22,-22.46"/>
</a>
</g>
</g>
<!-- Node37 -->
<g id="Node000037" class="node">
<title>Node37</title>
<g id="a_Node000037"><a xlink:title=" ">
<polygon fill="#e0e0e0" stroke="#999999" points="2462,-19 2340,-19 2340,0 2462,0 2462,-19"/>
<text text-anchor="middle" x="2401" y="-7" font-family="Helvetica,sans-Serif" font-size="10.00">assimp/postprocess.h</text>
</a>
</g>
</g>
<!-- Node3&#45;&gt;Node37 -->
<g id="edge36_Node000003_Node000037" class="edge">
<title>Node3&#45;&gt;Node37</title>
<g id="a_edge36_Node000003_Node000037"><a xlink:title=" ">
<path fill="none" stroke="#63b8ff" d="M1368.73,-61.6C1551.15,-55.4 2122.33,-35.28 2329.75,-19.02"/>
<polygon fill="#63b8ff" stroke="#63b8ff" points="2330.26,-22.49 2339.94,-18.2 2329.7,-15.51 2330.26,-22.49"/>
</a>
</g>
</g>
<!-- Node3&#45;&gt;Node38 -->
<g id="edge37_Node000003_Node000038" class="edge">
<title>Node3&#45;&gt;Node38</title>
<g id="a_edge37_Node000003_Node000038"><a xlink:title=" ">
<path fill="none" stroke="#63b8ff" d="M1368.65,-61.66C1627.15,-53.47 2682.13,-20.75 2699,-19 2701.5,-18.74 2704.07,-18.43 2706.68,-18.07"/>
<polygon fill="#63b8ff" stroke="#63b8ff" points="2707.42,-21.5 2716.79,-16.56 2706.38,-14.58 2707.42,-21.5"/>
</a>
</g>
</g>
<!-- Node38&#45;&gt;Node3 -->
<g id="edge38_Node000038_Node000003" class="edge">
<title>Node38&#45;&gt;Node3</title>
<g id="a_edge38_Node000038_Node000003"><a xlink:title=" ">
<path fill="none" stroke="#63b8ff" d="M2716.75,-19.02C2691.97,-21 1655.58,-53.15 1379.13,-61.52"/>
<polygon fill="#63b8ff" stroke="#63b8ff" points="1378.74,-58.03 1368.85,-61.83 1378.95,-65.03 1378.74,-58.03"/>
</a>
</g>
</g>
<!-- Node39&#45;&gt;Node3 -->
<g id="edge40_Node000039_Node000003" class="edge">
<title>Node39&#45;&gt;Node3</title>
<g id="a_edge40_Node000039_Node000003"><a xlink:title=" ">
<path fill="none" stroke="#63b8ff" d="M1523.85,-164.68C1523.11,-150.93 1519.61,-124.45 1504,-110 1485.77,-93.13 1426.47,-81.08 1378.55,-73.81"/>
<polygon fill="#63b8ff" stroke="#63b8ff" points="1378.91,-70.33 1368.51,-72.34 1377.89,-77.26 1378.91,-70.33"/>
</a>
</g>
</g>
<!-- Node40 -->
<g id="Node000040" class="node">
<title>Node40</title>
<g id="a_Node000040"><a xlink:href="Window_8h.html" target="_top" xlink:title="Windows OSS ウィンドウのラッパー。">
<polygon fill="white" stroke="#666666" points="1705.5,-129 1552.5,-129 1552.5,-110 1705.5,-110 1705.5,-129"/>
<text text-anchor="middle" x="1629" y="-117" font-family="Helvetica,sans-Serif" font-size="10.00">Runtime/Platform/Window.h</text>
</a>
</g>
</g>
<!-- Node39&#45;&gt;Node40 -->
<g id="edge41_Node000039_Node000040" class="edge">
<title>Node39&#45;&gt;Node40</title>
<g id="a_edge41_Node000039_Node000040"><a xlink:title=" ">
<path fill="none" stroke="#63b8ff" d="M1540.87,-164.98C1557.61,-156.54 1583.5,-143.47 1602.89,-133.68"/>
<polygon fill="#63b8ff" stroke="#63b8ff" points="1604.47,-136.8 1611.82,-129.17 1601.32,-130.55 1604.47,-136.8"/>
</a>
</g>
</g>
<!-- Node40&#45;&gt;Node3 -->
<g id="edge42_Node000040_Node000003" class="edge">
<title>Node40&#45;&gt;Node3</title>
<g id="a_edge42_Node000040_Node000003"><a xlink:title=" ">
<path fill="none" stroke="#63b8ff" d="M1578.07,-109.98C1522.23,-100.65 1432.67,-85.67 1373.09,-75.71"/>
<polygon fill="#63b8ff" stroke="#63b8ff" points="1373.51,-72.24 1363.07,-74.04 1372.35,-79.14 1373.51,-72.24"/>
</a>
</g>
</g>
<!-- Node41 -->
<g id="Node000041" class="node">
<title>Node41</title>
<g id="a_Node000041"><a xlink:title=" ">
<polygon fill="#e0e0e0" stroke="#999999" points="1661,-74 1597,-74 1597,-55 1661,-55 1661,-74"/>
<text text-anchor="middle" x="1629" y="-62" font-family="Helvetica,sans-Serif" font-size="10.00">shellapi.h</text>
</a>
</g>
</g>
<!-- Node40&#45;&gt;Node41 -->
<g id="edge43_Node000040_Node000041" class="edge">
<title>Node40&#45;&gt;Node41</title>
<g id="a_edge43_Node000040_Node000041"><a xlink:title=" ">
<path fill="none" stroke="#63b8ff" d="M1629,-109.75C1629,-102.8 1629,-92.85 1629,-84.13"/>
<polygon fill="#63b8ff" stroke="#63b8ff" points="1632.5,-84.09 1629,-74.09 1625.5,-84.09 1632.5,-84.09"/>
</a>
</g>
</g>
<!-- Node42&#45;&gt;Node3 -->
<g id="edge45_Node000042_Node000003" class="edge">
<title>Node42&#45;&gt;Node3</title>
<g id="a_edge45_Node000042_Node000003"><a xlink:title=" ">
<path fill="none" stroke="#63b8ff" d="M1312,-109.75C1312,-102.8 1312,-92.85 1312,-84.13"/>
<polygon fill="#63b8ff" stroke="#63b8ff" points="1315.5,-84.09 1312,-74.09 1308.5,-84.09 1315.5,-84.09"/>
</a>
</g>
</g>
<!-- Node43&#45;&gt;Node3 -->
<g id="edge47_Node000043_Node000003" class="edge">
<title>Node43&#45;&gt;Node3</title>
<g id="a_edge47_Node000043_Node000003"><a xlink:title=" ">
<path fill="none" stroke="#63b8ff" d="M1414.4,-109.98C1394.68,-101.42 1364.05,-88.11 1341.42,-78.28"/>
<polygon fill="#63b8ff" stroke="#63b8ff" points="1342.52,-74.94 1331.96,-74.17 1339.74,-81.37 1342.52,-74.94"/>
</a>
</g>
</g>
<!-- Node44&#45;&gt;Node3 -->
<g id="edge49_Node000044_Node000003" class="edge">
<title>Node44&#45;&gt;Node3</title>
<g id="a_edge49_Node000044_Node000003"><a xlink:title=" ">
<path fill="none" stroke="#63b8ff" d="M1085.12,-164.65C1085.82,-150.86 1089.28,-124.32 1105,-110 1125.39,-91.43 1193.02,-79.34 1245.49,-72.51"/>
<polygon fill="#63b8ff" stroke="#63b8ff" points="1245.94,-75.98 1255.43,-71.26 1245.07,-69.04 1245.94,-75.98"/>
</a>
</g>
</g>
<!-- Node44&#45;&gt;Node45 -->
<g id="edge50_Node000044_Node000045" class="edge">
<title>Node44&#45;&gt;Node45</title>
<g id="a_edge50_Node000044_Node000045"><a xlink:title=" ">
<path fill="none" stroke="#63b8ff" d="M1070.38,-164.98C1056.14,-156.69 1034.25,-143.94 1017.55,-134.22"/>
<polygon fill="#63b8ff" stroke="#63b8ff" points="1019.29,-131.18 1008.89,-129.17 1015.77,-137.23 1019.29,-131.18"/>
</a>
</g>
</g>
<!-- Node45&#45;&gt;Node16 -->
<g id="edge53_Node000045_Node000016" class="edge">
<title>Node45&#45;&gt;Node16</title>
<g id="a_edge53_Node000045_Node000016"><a xlink:title=" ">
<path fill="none" stroke="#63b8ff" d="M994.15,-109.79C993.88,-95.69 991.04,-68.1 974,-55 905.85,-2.61 303.11,-28.35 178.4,-18.68"/>
<polygon fill="#63b8ff" stroke="#63b8ff" points="178.44,-15.17 168.15,-17.67 177.76,-22.14 178.44,-15.17"/>
</a>
</g>
</g>
<!-- Node45&#45;&gt;Node34 -->
<g id="edge51_Node000045_Node000034" class="edge">
<title>Node45&#45;&gt;Node34</title>
<g id="a_edge51_Node000045_Node000034"><a xlink:title=" ">
<path fill="none" stroke="#63b8ff" d="M929.82,-112.55C783.76,-98.76 415.16,-62.54 96.47,-19.14"/>
<polygon fill="#63b8ff" stroke="#63b8ff" points="96.49,-15.61 86.1,-17.72 95.54,-22.54 96.49,-15.61"/>
</a>
</g>
</g>
<!-- Node46 -->
<g id="Node000046" class="node">
<title>Node46</title>
<g id="a_Node000046"><a xlink:title=" ">
<polygon fill="#e0e0e0" stroke="#999999" points="965.5,-74 918.5,-74 918.5,-55 965.5,-55 965.5,-74"/>
<text text-anchor="middle" x="942" y="-62" font-family="Helvetica,sans-Serif" font-size="10.00">cmath</text>
</a>
</g>
</g>
<!-- Node45&#45;&gt;Node46 -->
<g id="edge52_Node000045_Node000046" class="edge">
<title>Node45&#45;&gt;Node46</title>
<g id="a_edge52_Node000045_Node000046"><a xlink:title=" ">
<path fill="none" stroke="#63b8ff" d="M985.41,-109.75C977.84,-102.03 966.62,-90.6 957.49,-81.28"/>
<polygon fill="#63b8ff" stroke="#63b8ff" points="959.93,-78.78 950.43,-74.09 954.93,-83.68 959.93,-78.78"/>
</a>
</g>
</g>
<!-- Node47&#45;&gt;Node3 -->
<g id="edge55_Node000047_Node000003" class="edge">
<title>Node47&#45;&gt;Node3</title>
<g id="a_edge55_Node000047_Node000003"><a xlink:title=" ">
<path fill="none" stroke="#63b8ff" d="M1282.6,-164.94C1270.48,-152.81 1251.96,-129.88 1261,-110 1266.62,-97.63 1277.57,-87.36 1287.89,-79.81"/>
<polygon fill="#63b8ff" stroke="#63b8ff" points="1289.96,-82.63 1296.27,-74.12 1286.03,-76.84 1289.96,-82.63"/>
</a>
</g>
</g>
<!-- Node47&#45;&gt;Node42 -->
<g id="edge60_Node000047_Node000042" class="edge">
<title>Node47&#45;&gt;Node42</title>
<g id="a_edge60_Node000047_Node000042"><a xlink:title=" ">
<path fill="none" stroke="#63b8ff" d="M1295.3,-164.75C1297.98,-157.65 1301.85,-147.4 1305.19,-138.56"/>
<polygon fill="#63b8ff" stroke="#63b8ff" points="1308.5,-139.68 1308.76,-129.09 1301.95,-137.21 1308.5,-139.68"/>
</a>
</g>
</g>
<!-- Node47&#45;&gt;Node43 -->
<g id="edge57_Node000047_Node000043" class="edge">
<title>Node47&#45;&gt;Node43</title>
<g id="a_edge57_Node000047_Node000043"><a xlink:title=" ">
<path fill="none" stroke="#63b8ff" d="M1314.81,-164.98C1338.17,-156.27 1374.7,-142.63 1401.17,-132.75"/>
<polygon fill="#63b8ff" stroke="#63b8ff" points="1402.63,-135.95 1410.77,-129.17 1400.18,-129.39 1402.63,-135.95"/>
</a>
</g>
</g>
<!-- Node47&#45;&gt;Node45 -->
<g id="edge56_Node000047_Node000045" class="edge">
<title>Node47&#45;&gt;Node45</title>
<g id="a_edge56_Node000047_Node000045"><a xlink:title=" ">
<path fill="none" stroke="#63b8ff" d="M1244.12,-164.98C1191.92,-155.7 1108.38,-140.84 1052.38,-130.88"/>
<polygon fill="#63b8ff" stroke="#63b8ff" points="1052.71,-127.39 1042.25,-129.08 1051.49,-134.28 1052.71,-127.39"/>
</a>
</g>
</g>
<!-- Node47&#45;&gt;Node48 -->
<g id="edge58_Node000047_Node000048" class="edge">
<title>Node47&#45;&gt;Node48</title>
<g id="a_edge58_Node000047_Node000048"><a xlink:title=" ">
<path fill="none" stroke="#63b8ff" d="M1268.38,-164.98C1244.1,-156.23 1206.05,-142.51 1178.63,-132.62"/>
<polygon fill="#63b8ff" stroke="#63b8ff" points="1179.64,-129.27 1169.05,-129.17 1177.27,-135.85 1179.64,-129.27"/>
</a>
</g>
</g>
<!-- Node48&#45;&gt;Node3 -->
<g id="edge59_Node000048_Node000003" class="edge">
<title>Node48&#45;&gt;Node3</title>
<g id="a_edge59_Node000048_Node000003"><a xlink:title=" ">
<path fill="none" stroke="#63b8ff" d="M1171.83,-109.98C1199.87,-101.09 1244.05,-87.07 1275.3,-77.15"/>
<polygon fill="#63b8ff" stroke="#63b8ff" points="1276.49,-80.44 1284.96,-74.08 1274.37,-73.77 1276.49,-80.44"/>
</a>
</g>
</g>
</g>
</svg>
