<?xml version="1.0" encoding="UTF-8" standalone="no"?>
<!DOCTYPE svg PUBLIC "-//W3C//DTD SVG 1.1//EN"
 "http://www.w3.org/Graphics/SVG/1.1/DTD/svg11.dtd">
<!-- Generated by graphviz version 2.43.0 (0)
 -->
<!-- Title: Engine/Source/Runtime/Systems/Graphics/RenderingSystem.h Pages: 1 -->
<svg width="950pt" height="181pt"
 viewBox="0.00 0.00 949.50 181.00" xmlns="http://www.w3.org/2000/svg" xmlns:xlink="http://www.w3.org/1999/xlink">
<g id="graph0" class="graph" transform="scale(1 1) rotate(0) translate(4 177)">
<title>Engine/Source/Runtime/Systems/Graphics/RenderingSystem.h</title>
<!-- Node1 -->
<g id="Node000001" class="node">
<title>Node1</title>
<g id="a_Node000001"><a xlink:title="描画コマンド発行システム。">
<polygon fill="#999999" stroke="#666666" points="540.5,-173 380.5,-173 380.5,-132 540.5,-132 540.5,-173"/>
<text text-anchor="start" x="388.5" y="-161" font-family="Helvetica,sans-Serif" font-size="10.00">Engine/Source/Runtime</text>
<text text-anchor="start" x="388.5" y="-150" font-family="Helvetica,sans-Serif" font-size="10.00">/Systems/Graphics/Rendering</text>
<text text-anchor="middle" x="460.5" y="-139" font-family="Helvetica,sans-Serif" font-size="10.00">System.h</text>
</a>
</g>
</g>
<!-- Node2 -->
<g id="Node000002" class="node">
<title>Node2</title>
<g id="a_Node000002"><a xlink:href="SpanEngine_8h.html" target="_top" xlink:title=" ">
<polygon fill="white" stroke="#666666" points="538,-96 383,-96 383,-77 538,-77 538,-96"/>
<text text-anchor="middle" x="460.5" y="-84" font-family="Helvetica,sans-Serif" font-size="10.00">Engine/Source/SpanEngine.h</text>
</a>
</g>
</g>
<!-- Node1&#45;&gt;Node2 -->
<g id="edge1_Node000001_Node000002" class="edge">
<title>Node1&#45;&gt;Node2</title>
<g id="a_edge1_Node000001_Node000002"><a xlink:title=" ">
<path fill="none" stroke="#63b8ff" d="M460.5,-121.74C460.5,-112.45 460.5,-102.9 460.5,-96.26"/>
<polygon fill="#63b8ff" stroke="#63b8ff" points="457,-121.95 460.5,-131.95 464,-121.95 457,-121.95"/>
</a>
</g>
</g>
<!-- Node3 -->
<g id="Node000003" class="node">
<title>Node3</title>
<g id="a_Node000003"><a xlink:href="GuiManager_8cpp.html" target="_top" xlink:title=" ">
<polygon fill="white" stroke="#666666" points="117,-35.5 0,-35.5 0,-5.5 117,-5.5 117,-35.5"/>
<text text-anchor="start" x="8" y="-23.5" font-family="Helvetica,sans-Serif" font-size="10.00">Engine/Source/Editor</text>
<text text-anchor="middle" x="58.5" y="-12.5" font-family="Helvetica,sans-Serif" font-size="10.00">/GuiManager.cpp</text>
</a>
</g>
</g>
<!-- Node2&#45;&gt;Node3 -->
<g id="edge2_Node000002_Node000003" class="edge">
<title>Node2&#45;&gt;Node3</title>
<g id="a_edge2_Node000002_Node000003"><a xlink:title=" ">
<path fill="none" stroke="#63b8ff" d="M372.48,-77.34C304.78,-70.2 209.15,-58.26 126.5,-41 119.17,-39.47 111.47,-37.56 103.99,-35.54"/>
<polygon fill="#63b8ff" stroke="#63b8ff" points="372.37,-80.85 382.68,-78.4 373.09,-73.88 372.37,-80.85"/>
</a>
</g>
</g>
<!-- Node4 -->
<g id="Node000004" class="node">
<title>Node4</title>
<g id="a_Node000004"><a xlink:href="HierarchyPanel_8cpp.html" target="_top" xlink:title=" ">
<polygon fill="white" stroke="#666666" points="287.5,-41 135.5,-41 135.5,0 287.5,0 287.5,-41"/>
<text text-anchor="start" x="143.5" y="-29" font-family="Helvetica,sans-Serif" font-size="10.00">Engine/Source/Editor</text>
<text text-anchor="start" x="143.5" y="-18" font-family="Helvetica,sans-Serif" font-size="10.00">/Panels/Hierarchy/Hierarchy</text>
<text text-anchor="middle" x="211.5" y="-7" font-family="Helvetica,sans-Serif" font-size="10.00">Panel.cpp</text>
</a>
</g>
</g>
<!-- Node2&#45;&gt;Node4 -->
<g id="edge3_Node000002_Node000004" class="edge">
<title>Node2&#45;&gt;Node4</title>
<g id="a_edge3_Node000002_Node000004"><a xlink:title=" ">
<path fill="none" stroke="#63b8ff" d="M417.1,-74.34C381.43,-65.18 330.04,-51.97 287.56,-41.05"/>
<polygon fill="#63b8ff" stroke="#63b8ff" points="416.62,-77.84 427.18,-76.94 418.36,-71.06 416.62,-77.84"/>
</a>
</g>
</g>
<!-- Node5 -->
<g id="Node000005" class="node">
<title>Node5</title>
<g id="a_Node000005"><a xlink:href="InspectorPanel_8cpp.html" target="_top" xlink:title=" ">
<polygon fill="white" stroke="#666666" points="453,-41 306,-41 306,0 453,0 453,-41"/>
<text text-anchor="start" x="314" y="-29" font-family="Helvetica,sans-Serif" font-size="10.00">Engine/Source/Editor</text>
<text text-anchor="start" x="314" y="-18" font-family="Helvetica,sans-Serif" font-size="10.00">/Panels/Inspector/Inspector</text>
<text text-anchor="middle" x="379.5" y="-7" font-family="Helvetica,sans-Serif" font-size="10.00">Panel.cpp</text>
</a>
</g>
</g>
<!-- Node2&#45;&gt;Node5 -->
<g id="edge4_Node000002_Node000005" class="edge">
<title>Node2&#45;&gt;Node5</title>
<g id="a_edge4_Node000002_Node000005"><a xlink:title=" ">
<path fill="none" stroke="#63b8ff" d="M441.41,-70.41C430.29,-61.63 416.15,-50.46 404.19,-41.01"/>
<polygon fill="#63b8ff" stroke="#63b8ff" points="439.56,-73.42 449.58,-76.87 443.9,-67.92 439.56,-73.42"/>
</a>
</g>
</g>
<!-- Node6 -->
<g id="Node000006" class="node">
<title>Node6</title>
<g id="a_Node000006"><a xlink:href="ProjectBrowserPanel_8cpp.html" target="_top" xlink:title="ProjectBrowserPanelの実装。">
<polygon fill="white" stroke="#666666" points="611.5,-41 471.5,-41 471.5,0 611.5,0 611.5,-41"/>
<text text-anchor="start" x="479.5" y="-29" font-family="Helvetica,sans-Serif" font-size="10.00">Engine/Source/Editor</text>
<text text-anchor="start" x="479.5" y="-18" font-family="Helvetica,sans-Serif" font-size="10.00">/Panels/ProjectBrowser</text>
<text text-anchor="middle" x="541.5" y="-7" font-family="Helvetica,sans-Serif" font-size="10.00">/ProjectBrowserPanel.cpp</text>
</a>
</g>
</g>
<!-- Node2&#45;&gt;Node6 -->
<g id="edge5_Node000002_Node000006" class="edge">
<title>Node2&#45;&gt;Node6</title>
<g id="a_edge5_Node000002_Node000006"><a xlink:title=" ">
<path fill="none" stroke="#63b8ff" d="M479.59,-70.41C490.71,-61.63 504.85,-50.46 516.81,-41.01"/>
<polygon fill="#63b8ff" stroke="#63b8ff" points="477.1,-67.92 471.42,-76.87 481.44,-73.42 477.1,-67.92"/>
</a>
</g>
</g>
<!-- Node7 -->
<g id="Node000007" class="node">
<title>Node7</title>
<g id="a_Node000007"><a xlink:href="SceneViewPanel_8cpp.html" target="_top" xlink:title=" ">
<polygon fill="white" stroke="#666666" points="793.5,-41 629.5,-41 629.5,0 793.5,0 793.5,-41"/>
<text text-anchor="start" x="637.5" y="-29" font-family="Helvetica,sans-Serif" font-size="10.00">Engine/Source/Editor</text>
<text text-anchor="start" x="637.5" y="-18" font-family="Helvetica,sans-Serif" font-size="10.00">/Panels/SceneView/SceneView</text>
<text text-anchor="middle" x="711.5" y="-7" font-family="Helvetica,sans-Serif" font-size="10.00">Panel.cpp</text>
</a>
</g>
</g>
<!-- Node2&#45;&gt;Node7 -->
<g id="edge6_Node000002_Node000007" class="edge">
<title>Node2&#45;&gt;Node7</title>
<g id="a_edge6_Node000002_Node000007"><a xlink:title=" ">
<path fill="none" stroke="#63b8ff" d="M503.79,-74.46C539.76,-65.29 591.82,-52.02 634.83,-41.05"/>
<polygon fill="#63b8ff" stroke="#63b8ff" points="502.92,-71.07 494.09,-76.94 504.65,-77.86 502.92,-71.07"/>
</a>
</g>
</g>
<!-- Node8 -->
<g id="Node000008" class="node">
<title>Node8</title>
<g id="a_Node000008"><a xlink:href="Application_8cpp.html" target="_top" xlink:title=" ">
<polygon fill="white" stroke="#666666" points="941.5,-35.5 811.5,-35.5 811.5,-5.5 941.5,-5.5 941.5,-35.5"/>
<text text-anchor="start" x="819.5" y="-23.5" font-family="Helvetica,sans-Serif" font-size="10.00">Engine/Source/Runtime</text>
<text text-anchor="middle" x="876.5" y="-12.5" font-family="Helvetica,sans-Serif" font-size="10.00">/Application.cpp</text>
</a>
</g>
</g>
<!-- Node2&#45;&gt;Node8 -->
<g id="edge7_Node000002_Node000008" class="edge">
<title>Node2&#45;&gt;Node8</title>
<g id="a_edge7_Node000002_Node000008"><a xlink:title=" ">
<path fill="none" stroke="#63b8ff" d="M548.06,-77.23C617.45,-69.93 716.67,-57.82 802.5,-41 810.32,-39.47 818.54,-37.58 826.55,-35.59"/>
<polygon fill="#63b8ff" stroke="#63b8ff" points="547.62,-73.76 538.04,-78.28 548.35,-80.72 547.62,-73.76"/>
</a>
</g>
</g>
</g>
</svg>
