<?xml version="1.0" encoding="UTF-8" standalone="no"?>
<!DOCTYPE svg PUBLIC "-//W3C//DTD SVG 1.1//EN"
 "http://www.w3.org/Graphics/SVG/1.1/DTD/svg11.dtd">
<!-- Generated by graphviz version 2.43.0 (0)
 -->
<!-- Title: Engine/Source/Runtime/Graphics/Renderer.h Pages: 1 -->
<!--zoomable 335 -->

<svg id="main" version="1.1" xmlns="http://www.w3.org/2000/svg" xmlns:xlink="http://www.w3.org/1999/xlink" xml:space="preserve" onload="init(evt)">

<style type="text/css"><![CDATA[
.node, .edge {opacity: 0.7;}
.node.selected, .edge.selected {opacity: 1;}
.edge:hover path { stroke: red; }
.edge:hover polygon { stroke: red; fill: red; }
]]></style>

<defs>
  <circle id="rim" cx="0" cy="0" r="7"/>
  <circle id="rim2" cx="0" cy="0" r="3.5"/>
  <g id="zoomPlus">
    <use xlink:href="#rim" fill="#404040"><set attributeName="fill" to="#808080" begin="zoomplus.mouseover" end="zoomplus.mouseout"/></use>
    <path d="M-4,0h8M0,-4v8" fill="none" stroke="white" stroke-width="1.5" pointer-events="none"/>
  </g>
  <g id="zoomMin">
    <use xlink:href="#rim" fill="#404040"><set attributeName="fill" to="#808080" begin="zoomminus.mouseover" end="zoomminus.mouseout"/></use>
    <path d="M-4,0h8" fill="none" stroke="white" stroke-width="1.5" pointer-events="none"/>
  </g>
  <g id="arrowUp" transform="translate(30 24)">
    <use xlink:href="#rim"/>
    <path pointer-events="none" fill="none" stroke="white" stroke-width="1.5" d="M0,-3.0v7 M-2.5,-0.5L0,-3.0L2.5,-0.5"/>
  </g>
  <g id="arrowRight" transform="rotate(90) translate(36 -43)">
    <use xlink:href="#rim"/>
    <path pointer-events="none" fill="none" stroke="white" stroke-width="1.5" d="M0,-3.0v7 M-2.5,-0.5L0,-3.0L2.5,-0.5"/>
  </g>
  <g id="arrowDown" transform="rotate(180) translate(-30 -48)">
    <use xlink:href="#rim"/>
    <path pointer-events="none" fill="none" stroke="white" stroke-width="1.5" d="M0,-3.0v7 M-2.5,-0.5L0,-3.0L2.5,-0.5"/>
  </g>
  <g id="arrowLeft" transform="rotate(270) translate(-36 17)">
    <use xlink:href="#rim"/>
    <path pointer-events="none" fill="none" stroke="white" stroke-width="1.5" d="M0,-3.0v7 M-2.5,-0.5L0,-3.0L2.5,-0.5"/>
  </g>
  <g id="resetDef">
    <use xlink:href="#rim2" fill="#404040"><set attributeName="fill" to="#808080" begin="reset.mouseover" end="reset.mouseout"/></use>
  </g>
</defs>
<script type="application/ecmascript">
var viewWidth = 1925;
var viewHeight = 335;
var sectionId = 'dynsection-1';
</script>
<script type="application/ecmascript" xlink:href="svg.min.js"/>
<svg id="graph" class="graph">
<g id="viewport">
<title>Engine/Source/Runtime/Graphics/Renderer.h</title>
<!-- Node1 -->
<g id="Node000001" class="node">
<title>Node1</title>
<g id="a_Node000001"><a xlink:title="描画パイプラインの構築と実行。">
<polygon fill="#999999" stroke="#666666" points="1399.5,-327 1269.5,-327 1269.5,-297 1399.5,-297 1399.5,-327"/>
<text text-anchor="start" x="1277.5" y="-315" font-family="Helvetica,sans-Serif" font-size="10.00">Engine/Source/Runtime</text>
<text text-anchor="middle" x="1334.5" y="-304" font-family="Helvetica,sans-Serif" font-size="10.00">/Graphics/Renderer.h</text>
</a>
</g>
</g>
<!-- Node2 -->
<g id="Node000002" class="node">
<title>Node2</title>
<g id="a_Node000002"><a xlink:href="GuiManager_8h.html" target="_top" xlink:title="ImGuiのライフサイクルとレンダリング管理。">
<polygon fill="white" stroke="#666666" points="354,-189.5 237,-189.5 237,-159.5 354,-159.5 354,-189.5"/>
<text text-anchor="start" x="245" y="-177.5" font-family="Helvetica,sans-Serif" font-size="10.00">Engine/Source/Editor</text>
<text text-anchor="middle" x="295.5" y="-166.5" font-family="Helvetica,sans-Serif" font-size="10.00">/GuiManager.h</text>
</a>
</g>
</g>
<!-- Node1&#45;&gt;Node2 -->
<g id="edge1_Node000001_Node000002" class="edge">
<title>Node1&#45;&gt;Node2</title>
<g id="a_edge1_Node000001_Node000002"><a xlink:title=" ">
<path fill="none" stroke="#63b8ff" d="M1259.23,-310.51C1045.89,-308.64 447.51,-299.94 368.5,-261 336.99,-245.47 313.7,-209.51 302.65,-189.53"/>
<polygon fill="#63b8ff" stroke="#63b8ff" points="1259.37,-314.01 1269.4,-310.59 1259.43,-307.01 1259.37,-314.01"/>
</a>
</g>
</g>
<!-- Node10 -->
<g id="Node000010" class="node">
<title>Node10</title>
<g id="a_Node000010"><a xlink:href="MaterialPreviewer_8h.html" target="_top" xlink:title="マテリアルプレビュー用のオフスクリーンレンダリング管理。">
<polygon fill="white" stroke="#666666" points="577.5,-261 377.5,-261 377.5,-231 577.5,-231 577.5,-261"/>
<text text-anchor="start" x="385.5" y="-249" font-family="Helvetica,sans-Serif" font-size="10.00">Engine/Source/Editor</text>
<text text-anchor="middle" x="477.5" y="-238" font-family="Helvetica,sans-Serif" font-size="10.00">/Panels/Inspector/MaterialPreviewer.h</text>
</a>
</g>
</g>
<!-- Node1&#45;&gt;Node10 -->
<g id="edge9_Node000001_Node000010" class="edge">
<title>Node1&#45;&gt;Node10</title>
<g id="a_edge9_Node000001_Node000010"><a xlink:title=" ">
<path fill="none" stroke="#63b8ff" d="M1259.04,-305.36C1104.33,-293.81 751.22,-267.44 577.61,-254.48"/>
<polygon fill="#63b8ff" stroke="#63b8ff" points="1259.15,-308.88 1269.38,-306.14 1259.67,-301.9 1259.15,-308.88"/>
</a>
</g>
</g>
<!-- Node13 -->
<g id="Node000013" class="node">
<title>Node13</title>
<g id="a_Node000013"><a xlink:href="Application_8h.html" target="_top" xlink:title="エンジンのメインループとライフサイクル管理。">
<polygon fill="white" stroke="#666666" points="906.5,-261 776.5,-261 776.5,-231 906.5,-231 906.5,-261"/>
<text text-anchor="start" x="784.5" y="-249" font-family="Helvetica,sans-Serif" font-size="10.00">Engine/Source/Runtime</text>
<text text-anchor="middle" x="841.5" y="-238" font-family="Helvetica,sans-Serif" font-size="10.00">/Application.h</text>
</a>
</g>
</g>
<!-- Node1&#45;&gt;Node13 -->
<g id="edge13_Node000001_Node000013" class="edge">
<title>Node1&#45;&gt;Node13</title>
<g id="a_edge13_Node000001_Node000013"><a xlink:title=" ">
<path fill="none" stroke="#63b8ff" d="M1259.33,-301.24C1163.02,-288.74 997.67,-267.27 906.53,-255.44"/>
<polygon fill="#63b8ff" stroke="#63b8ff" points="1258.92,-304.72 1269.29,-302.53 1259.82,-297.78 1258.92,-304.72"/>
</a>
</g>
</g>
<!-- Node17 -->
<g id="Node000017" class="node">
<title>Node17</title>
<g id="a_Node000017"><a xlink:href="SpanEngine_8h.html" target="_top" xlink:title=" ">
<polygon fill="white" stroke="#666666" points="1113,-107 958,-107 958,-88 1113,-88 1113,-107"/>
<text text-anchor="middle" x="1035.5" y="-95" font-family="Helvetica,sans-Serif" font-size="10.00">Engine/Source/SpanEngine.h</text>
</a>
</g>
</g>
<!-- Node1&#45;&gt;Node17 -->
<g id="edge44_Node000001_Node000017" class="edge">
<title>Node1&#45;&gt;Node17</title>
<g id="a_edge44_Node000001_Node000017"><a xlink:title=" ">
<path fill="none" stroke="#63b8ff" d="M1344.64,-287.36C1357.35,-253.61 1373.9,-191.58 1342.5,-154 1313.81,-119.66 1194.24,-106.52 1113.07,-101.53"/>
<polygon fill="#63b8ff" stroke="#63b8ff" points="1341.31,-286.27 1340.88,-296.86 1347.82,-288.85 1341.31,-286.27"/>
</a>
</g>
</g>
<!-- Node23 -->
<g id="Node000023" class="node">
<title>Node23</title>
<g id="a_Node000023"><a xlink:href="RenderingSystem_8h.html" target="_top" xlink:title="描画コマンド発行システム。">
<polygon fill="white" stroke="#666666" points="1333.5,-195 1173.5,-195 1173.5,-154 1333.5,-154 1333.5,-195"/>
<text text-anchor="start" x="1181.5" y="-183" font-family="Helvetica,sans-Serif" font-size="10.00">Engine/Source/Runtime</text>
<text text-anchor="start" x="1181.5" y="-172" font-family="Helvetica,sans-Serif" font-size="10.00">/Systems/Graphics/Rendering</text>
<text text-anchor="middle" x="1253.5" y="-161" font-family="Helvetica,sans-Serif" font-size="10.00">System.h</text>
</a>
</g>
</g>
<!-- Node1&#45;&gt;Node23 -->
<g id="edge43_Node000001_Node000023" class="edge">
<title>Node1&#45;&gt;Node23</title>
<g id="a_edge43_Node000001_Node000023"><a xlink:title=" ">
<path fill="none" stroke="#63b8ff" d="M1320.71,-287.93C1305.12,-261.84 1279.99,-219.82 1265.28,-195.21"/>
<polygon fill="#63b8ff" stroke="#63b8ff" points="1317.85,-289.97 1325.98,-296.76 1323.86,-286.38 1317.85,-289.97"/>
</a>
</g>
</g>
<!-- Node24 -->
<g id="Node000024" class="node">
<title>Node24</title>
<g id="a_Node000024"><a xlink:href="ShadowPass_8h.html" target="_top" xlink:title="Directional Light からのシャドウマップ生成パス。">
<polygon fill="white" stroke="#666666" points="1559.5,-261 1389.5,-261 1389.5,-231 1559.5,-231 1559.5,-261"/>
<text text-anchor="start" x="1397.5" y="-249" font-family="Helvetica,sans-Serif" font-size="10.00">Engine/Source/Runtime</text>
<text text-anchor="middle" x="1474.5" y="-238" font-family="Helvetica,sans-Serif" font-size="10.00">/Graphics/Passes/ShadowPass.h</text>
</a>
</g>
</g>
<!-- Node1&#45;&gt;Node24 -->
<g id="edge34_Node000001_Node000024" class="edge">
<title>Node1&#45;&gt;Node24</title>
<g id="a_edge34_Node000001_Node000024"><a xlink:title=" ">
<path fill="none" stroke="#63b8ff" d="M1374.35,-292.78C1396.42,-282.69 1423.44,-270.34 1443.85,-261.01"/>
<polygon fill="#63b8ff" stroke="#63b8ff" points="1372.86,-289.61 1365.22,-296.95 1375.77,-295.98 1372.86,-289.61"/>
</a>
</g>
</g>
<!-- Node26 -->
<g id="Node000026" class="node">
<title>Node26</title>
<g id="a_Node000026"><a xlink:href="Renderer_8cpp.html" target="_top" xlink:title=" ">
<polygon fill="white" stroke="#666666" points="1719.5,-189.5 1589.5,-189.5 1589.5,-159.5 1719.5,-159.5 1719.5,-189.5"/>
<text text-anchor="start" x="1597.5" y="-177.5" font-family="Helvetica,sans-Serif" font-size="10.00">Engine/Source/Runtime</text>
<text text-anchor="middle" x="1654.5" y="-166.5" font-family="Helvetica,sans-Serif" font-size="10.00">/Graphics/Renderer.cpp</text>
</a>
</g>
</g>
<!-- Node1&#45;&gt;Node26 -->
<g id="edge42_Node000001_Node000026" class="edge">
<title>Node1&#45;&gt;Node26</title>
<g id="a_edge42_Node000001_Node000026"><a xlink:title=" ">
<path fill="none" stroke="#63b8ff" d="M1409.71,-305.85C1457.55,-300.01 1519.48,-287.56 1568.5,-261 1585.53,-251.77 1622.51,-211.64 1641.96,-189.8"/>
<polygon fill="#63b8ff" stroke="#63b8ff" points="1409.26,-302.38 1399.73,-307 1410.06,-309.33 1409.26,-302.38"/>
</a>
</g>
</g>
<!-- Node27 -->
<g id="Node000027" class="node">
<title>Node27</title>
<g id="a_Node000027"><a xlink:href="SkyboxPass_8h.html" target="_top" xlink:title="プロシージャルスカイボックス描画パス。">
<polygon fill="white" stroke="#666666" points="1782,-261 1615,-261 1615,-231 1782,-231 1782,-261"/>
<text text-anchor="start" x="1623" y="-249" font-family="Helvetica,sans-Serif" font-size="10.00">Engine/Source/Runtime</text>
<text text-anchor="middle" x="1698.5" y="-238" font-family="Helvetica,sans-Serif" font-size="10.00">/Graphics/Passes/SkyboxPass.h</text>
</a>
</g>
</g>
<!-- Node1&#45;&gt;Node27 -->
<g id="edge38_Node000001_Node000027" class="edge">
<title>Node1&#45;&gt;Node27</title>
<g id="a_edge38_Node000001_Node000027"><a xlink:title=" ">
<path fill="none" stroke="#63b8ff" d="M1409.53,-297.81C1470.56,-287.08 1556.47,-271.97 1618.75,-261.02"/>
<polygon fill="#63b8ff" stroke="#63b8ff" points="1408.82,-294.38 1399.58,-299.56 1410.03,-301.27 1408.82,-294.38"/>
</a>
</g>
</g>
<!-- Node3 -->
<g id="Node000003" class="node">
<title>Node3</title>
<g id="a_Node000003"><a xlink:href="GuiManager_8cpp.html" target="_top" xlink:title=" ">
<polygon fill="white" stroke="#666666" points="117,-35.5 0,-35.5 0,-5.5 117,-5.5 117,-35.5"/>
<text text-anchor="start" x="8" y="-23.5" font-family="Helvetica,sans-Serif" font-size="10.00">Engine/Source/Editor</text>
<text text-anchor="middle" x="58.5" y="-12.5" font-family="Helvetica,sans-Serif" font-size="10.00">/GuiManager.cpp</text>
</a>
</g>
</g>
<!-- Node2&#45;&gt;Node3 -->
<g id="edge2_Node000002_Node000003" class="edge">
<title>Node2&#45;&gt;Node3</title>
<g id="a_edge2_Node000002_Node000003"><a xlink:title=" ">
<path fill="none" stroke="#63b8ff" d="M226.78,-161.72C193.77,-153.54 155.07,-140 125.5,-118 95.88,-95.96 74.65,-56.85 64.76,-35.82"/>
<polygon fill="#63b8ff" stroke="#63b8ff" points="226.29,-165.2 236.83,-164.09 227.9,-158.39 226.29,-165.2"/>
</a>
</g>
</g>
<!-- Node4 -->
<g id="Node000004" class="node">
<title>Node4</title>
<g id="a_Node000004"><a xlink:href="Application_8cpp.html" target="_top" xlink:title=" ">
<polygon fill="white" stroke="#666666" points="940.5,-35.5 810.5,-35.5 810.5,-5.5 940.5,-5.5 940.5,-35.5"/>
<text text-anchor="start" x="818.5" y="-23.5" font-family="Helvetica,sans-Serif" font-size="10.00">Engine/Source/Runtime</text>
<text text-anchor="middle" x="875.5" y="-12.5" font-family="Helvetica,sans-Serif" font-size="10.00">/Application.cpp</text>
</a>
</g>
</g>
<!-- Node2&#45;&gt;Node4 -->
<g id="edge3_Node000002_Node000004" class="edge">
<title>Node2&#45;&gt;Node4</title>
<g id="a_edge3_Node000002_Node000004"><a xlink:title=" ">
<path fill="none" stroke="#63b8ff" d="M352.85,-156.68C356.11,-155.76 359.35,-154.86 362.5,-154 556.8,-100.73 606.53,-91.78 801.5,-41 808.19,-39.26 815.21,-37.42 822.16,-35.6"/>
<polygon fill="#63b8ff" stroke="#63b8ff" points="351.69,-153.37 343.03,-159.47 353.61,-160.1 351.69,-153.37"/>
</a>
</g>
</g>
<!-- Node5 -->
<g id="Node000005" class="node">
<title>Node5</title>
<g id="a_Node000005"><a xlink:href="SpanEditor_8h.html" target="_top" xlink:title=" ">
<polygon fill="white" stroke="#666666" points="451,-107 302,-107 302,-88 451,-88 451,-107"/>
<text text-anchor="middle" x="376.5" y="-95" font-family="Helvetica,sans-Serif" font-size="10.00">Engine/Source/SpanEditor.h</text>
</a>
</g>
</g>
<!-- Node2&#45;&gt;Node5 -->
<g id="edge4_Node000002_Node000005" class="edge">
<title>Node2&#45;&gt;Node5</title>
<g id="a_edge4_Node000002_Node000005"><a xlink:title=" ">
<path fill="none" stroke="#63b8ff" d="M318.19,-152.49C334.26,-137.61 354.99,-118.41 366.92,-107.37"/>
<polygon fill="#63b8ff" stroke="#63b8ff" points="315.7,-150.03 310.74,-159.39 320.45,-155.17 315.7,-150.03"/>
</a>
</g>
</g>
<!-- Node6 -->
<g id="Node000006" class="node">
<title>Node6</title>
<g id="a_Node000006"><a xlink:href="HierarchyPanel_8cpp.html" target="_top" xlink:title=" ">
<polygon fill="white" stroke="#666666" points="452.5,-41 300.5,-41 300.5,0 452.5,0 452.5,-41"/>
<text text-anchor="start" x="308.5" y="-29" font-family="Helvetica,sans-Serif" font-size="10.00">Engine/Source/Editor</text>
<text text-anchor="start" x="308.5" y="-18" font-family="Helvetica,sans-Serif" font-size="10.00">/Panels/Hierarchy/Hierarchy</text>
<text text-anchor="middle" x="376.5" y="-7" font-family="Helvetica,sans-Serif" font-size="10.00">Panel.cpp</text>
</a>
</g>
</g>
<!-- Node5&#45;&gt;Node6 -->
<g id="edge5_Node000005_Node000006" class="edge">
<title>Node5&#45;&gt;Node6</title>
<g id="a_edge5_Node000005_Node000006"><a xlink:title=" ">
<path fill="none" stroke="#63b8ff" d="M376.5,-77.61C376.5,-66.5 376.5,-52.46 376.5,-41.21"/>
<polygon fill="#63b8ff" stroke="#63b8ff" points="373,-77.9 376.5,-87.9 380,-77.9 373,-77.9"/>
</a>
</g>
</g>
<!-- Node7 -->
<g id="Node000007" class="node">
<title>Node7</title>
<g id="a_Node000007"><a xlink:href="InspectorPanel_8cpp.html" target="_top" xlink:title=" ">
<polygon fill="white" stroke="#666666" points="282,-41 135,-41 135,0 282,0 282,-41"/>
<text text-anchor="start" x="143" y="-29" font-family="Helvetica,sans-Serif" font-size="10.00">Engine/Source/Editor</text>
<text text-anchor="start" x="143" y="-18" font-family="Helvetica,sans-Serif" font-size="10.00">/Panels/Inspector/Inspector</text>
<text text-anchor="middle" x="208.5" y="-7" font-family="Helvetica,sans-Serif" font-size="10.00">Panel.cpp</text>
</a>
</g>
</g>
<!-- Node5&#45;&gt;Node7 -->
<g id="edge6_Node000005_Node000007" class="edge">
<title>Node5&#45;&gt;Node7</title>
<g id="a_edge6_Node000005_Node000007"><a xlink:title=" ">
<path fill="none" stroke="#63b8ff" d="M347.86,-83.71C321.64,-72.01 282.45,-54.51 252.3,-41.05"/>
<polygon fill="#63b8ff" stroke="#63b8ff" points="346.67,-87.02 357.23,-87.9 349.52,-80.62 346.67,-87.02"/>
</a>
</g>
</g>
<!-- Node8 -->
<g id="Node000008" class="node">
<title>Node8</title>
<g id="a_Node000008"><a xlink:href="ProjectBrowserPanel_8cpp.html" target="_top" xlink:title="ProjectBrowserPanelの実装。">
<polygon fill="white" stroke="#666666" points="610.5,-41 470.5,-41 470.5,0 610.5,0 610.5,-41"/>
<text text-anchor="start" x="478.5" y="-29" font-family="Helvetica,sans-Serif" font-size="10.00">Engine/Source/Editor</text>
<text text-anchor="start" x="478.5" y="-18" font-family="Helvetica,sans-Serif" font-size="10.00">/Panels/ProjectBrowser</text>
<text text-anchor="middle" x="540.5" y="-7" font-family="Helvetica,sans-Serif" font-size="10.00">/ProjectBrowserPanel.cpp</text>
</a>
</g>
</g>
<!-- Node5&#45;&gt;Node8 -->
<g id="edge7_Node000005_Node000008" class="edge">
<title>Node5&#45;&gt;Node8</title>
<g id="a_edge7_Node000005_Node000008"><a xlink:title=" ">
<path fill="none" stroke="#63b8ff" d="M404.46,-83.71C430.05,-72.01 468.31,-54.51 497.74,-41.05"/>
<polygon fill="#63b8ff" stroke="#63b8ff" points="402.95,-80.55 395.31,-87.9 405.86,-86.92 402.95,-80.55"/>
</a>
</g>
</g>
<!-- Node9 -->
<g id="Node000009" class="node">
<title>Node9</title>
<g id="a_Node000009"><a xlink:href="SceneViewPanel_8cpp.html" target="_top" xlink:title=" ">
<polygon fill="white" stroke="#666666" points="792.5,-41 628.5,-41 628.5,0 792.5,0 792.5,-41"/>
<text text-anchor="start" x="636.5" y="-29" font-family="Helvetica,sans-Serif" font-size="10.00">Engine/Source/Editor</text>
<text text-anchor="start" x="636.5" y="-18" font-family="Helvetica,sans-Serif" font-size="10.00">/Panels/SceneView/SceneView</text>
<text text-anchor="middle" x="710.5" y="-7" font-family="Helvetica,sans-Serif" font-size="10.00">Panel.cpp</text>
</a>
</g>
</g>
<!-- Node5&#45;&gt;Node9 -->
<g id="edge8_Node000005_Node000009" class="edge">
<title>Node5&#45;&gt;Node9</title>
<g id="a_edge8_Node000005_Node000009"><a xlink:title=" ">
<path fill="none" stroke="#63b8ff" d="M424.33,-85.76C477.49,-73.82 564.27,-54.34 628.36,-39.95"/>
<polygon fill="#63b8ff" stroke="#63b8ff" points="423.48,-82.36 414.49,-87.97 425.01,-89.19 423.48,-82.36"/>
</a>
</g>
</g>
<!-- Node11 -->
<g id="Node000011" class="node">
<title>Node11</title>
<g id="a_Node000011"><a xlink:href="InspectorPanel_8h.html" target="_top" xlink:title="エンティティの詳細情報表示パネル。">
<polygon fill="white" stroke="#666666" points="282,-118 135,-118 135,-77 282,-77 282,-118"/>
<text text-anchor="start" x="143" y="-106" font-family="Helvetica,sans-Serif" font-size="10.00">Engine/Source/Editor</text>
<text text-anchor="start" x="143" y="-95" font-family="Helvetica,sans-Serif" font-size="10.00">/Panels/Inspector/Inspector</text>
<text text-anchor="middle" x="208.5" y="-84" font-family="Helvetica,sans-Serif" font-size="10.00">Panel.h</text>
</a>
</g>
</g>
<!-- Node10&#45;&gt;Node11 -->
<g id="edge10_Node000010_Node000011" class="edge">
<title>Node10&#45;&gt;Node11</title>
<g id="a_edge10_Node000010_Node000011"><a xlink:title=" ">
<path fill="none" stroke="#63b8ff" d="M366.95,-234.97C309.6,-227.48 247.44,-215 227.5,-195 207.37,-174.81 205.42,-139.89 206.49,-118.06"/>
<polygon fill="#63b8ff" stroke="#63b8ff" points="366.85,-238.49 377.21,-236.27 367.73,-231.54 366.85,-238.49"/>
</a>
</g>
</g>
<!-- Node12 -->
<g id="Node000012" class="node">
<title>Node12</title>
<g id="a_Node000012"><a xlink:href="MaterialPreviewer_8cpp.html" target="_top" xlink:title="MaterialPreviewerの実装。">
<polygon fill="white" stroke="#666666" points="583,-189.5 372,-189.5 372,-159.5 583,-159.5 583,-189.5"/>
<text text-anchor="start" x="380" y="-177.5" font-family="Helvetica,sans-Serif" font-size="10.00">Engine/Source/Editor</text>
<text text-anchor="middle" x="477.5" y="-166.5" font-family="Helvetica,sans-Serif" font-size="10.00">/Panels/Inspector/MaterialPreviewer.cpp</text>
</a>
</g>
</g>
<!-- Node10&#45;&gt;Node12 -->
<g id="edge12_Node000010_Node000012" class="edge">
<title>Node10&#45;&gt;Node12</title>
<g id="a_edge12_Node000010_Node000012"><a xlink:title=" ">
<path fill="none" stroke="#63b8ff" d="M477.5,-220.75C477.5,-210.31 477.5,-198.49 477.5,-189.54"/>
<polygon fill="#63b8ff" stroke="#63b8ff" points="474,-220.94 477.5,-230.94 481,-220.94 474,-220.94"/>
</a>
</g>
</g>
<!-- Node11&#45;&gt;Node7 -->
<g id="edge11_Node000011_Node000007" class="edge">
<title>Node11&#45;&gt;Node7</title>
<g id="a_edge11_Node000011_Node000007"><a xlink:title=" ">
<path fill="none" stroke="#63b8ff" d="M208.5,-66.69C208.5,-58.08 208.5,-48.9 208.5,-41.07"/>
<polygon fill="#63b8ff" stroke="#63b8ff" points="205,-66.79 208.5,-76.79 212,-66.79 205,-66.79"/>
</a>
</g>
</g>
<!-- Node13&#45;&gt;Node4 -->
<g id="edge16_Node000013_Node000004" class="edge">
<title>Node13&#45;&gt;Node4</title>
<g id="a_edge16_Node000013_Node000004"><a xlink:title=" ">
<path fill="none" stroke="#63b8ff" d="M820.96,-222.76C814.74,-214.64 808.72,-204.97 805.5,-195 799.91,-177.66 801.12,-171.69 805.5,-154 817.08,-107.28 848.48,-58.89 865.01,-35.64"/>
<polygon fill="#63b8ff" stroke="#63b8ff" points="818.35,-225.11 827.39,-230.63 823.77,-220.67 818.35,-225.11"/>
</a>
</g>
</g>
<!-- Node13&#45;&gt;Node12 -->
<g id="edge14_Node000013_Node000012" class="edge">
<title>Node13&#45;&gt;Node12</title>
<g id="a_edge14_Node000013_Node000012"><a xlink:title=" ">
<path fill="none" stroke="#63b8ff" d="M766.54,-230.69C703.46,-218.64 613.78,-201.52 551.09,-189.55"/>
<polygon fill="#63b8ff" stroke="#63b8ff" points="765.95,-234.14 776.42,-232.57 767.26,-227.26 765.95,-234.14"/>
</a>
</g>
</g>
<!-- Node14 -->
<g id="Node000014" class="node">
<title>Node14</title>
<g id="a_Node000014"><a xlink:href="FileDialog_8cpp.html" target="_top" xlink:title="FileDialogの実装">
<polygon fill="white" stroke="#666666" points="943,-189.5 826,-189.5 826,-159.5 943,-159.5 943,-189.5"/>
<text text-anchor="start" x="834" y="-177.5" font-family="Helvetica,sans-Serif" font-size="10.00">Engine/Source/Editor</text>
<text text-anchor="middle" x="884.5" y="-166.5" font-family="Helvetica,sans-Serif" font-size="10.00">/Utils/FileDialog.cpp</text>
</a>
</g>
</g>
<!-- Node13&#45;&gt;Node14 -->
<g id="edge15_Node000013_Node000014" class="edge">
<title>Node13&#45;&gt;Node14</title>
<g id="a_edge15_Node000013_Node000014"><a xlink:title=" ">
<path fill="none" stroke="#63b8ff" d="M855.49,-222.38C862.19,-211.57 869.99,-198.96 875.81,-189.54"/>
<polygon fill="#63b8ff" stroke="#63b8ff" points="852.49,-220.59 850.2,-230.94 858.44,-224.27 852.49,-220.59"/>
</a>
</g>
</g>
<!-- Node15 -->
<g id="Node000015" class="node">
<title>Node15</title>
<g id="a_Node000015"><a xlink:href="EntryPoint_8h.html" target="_top" xlink:title="アプリケーションのエントリーポイント (main関数)。">
<polygon fill="white" stroke="#666666" points="731.5,-189.5 601.5,-189.5 601.5,-159.5 731.5,-159.5 731.5,-189.5"/>
<text text-anchor="start" x="609.5" y="-177.5" font-family="Helvetica,sans-Serif" font-size="10.00">Engine/Source/Runtime</text>
<text text-anchor="middle" x="666.5" y="-166.5" font-family="Helvetica,sans-Serif" font-size="10.00">/EntryPoint.h</text>
</a>
</g>
</g>
<!-- Node13&#45;&gt;Node15 -->
<g id="edge17_Node000013_Node000015" class="edge">
<title>Node13&#45;&gt;Node15</title>
<g id="a_edge17_Node000013_Node000015"><a xlink:title=" ">
<path fill="none" stroke="#63b8ff" d="M796.46,-227.11C767.02,-215.42 729.13,-200.37 701.86,-189.54"/>
<polygon fill="#63b8ff" stroke="#63b8ff" points="795.5,-230.5 806.09,-230.94 798.08,-223.99 795.5,-230.5"/>
</a>
</g>
</g>
<!-- Node16 -->
<g id="Node000016" class="node">
<title>Node16</title>
<g id="a_Node000016"><a xlink:href="CameraSystem_8h.html" target="_top" xlink:title="カメラ行列の更新とレンダラーへの適用。">
<polygon fill="white" stroke="#666666" points="1155.5,-189.5 961.5,-189.5 961.5,-159.5 1155.5,-159.5 1155.5,-189.5"/>
<text text-anchor="start" x="969.5" y="-177.5" font-family="Helvetica,sans-Serif" font-size="10.00">Engine/Source/Runtime</text>
<text text-anchor="middle" x="1058.5" y="-166.5" font-family="Helvetica,sans-Serif" font-size="10.00">/Systems/Graphics/CameraSystem.h</text>
</a>
</g>
</g>
<!-- Node13&#45;&gt;Node16 -->
<g id="edge18_Node000013_Node000016" class="edge">
<title>Node13&#45;&gt;Node16</title>
<g id="a_edge18_Node000013_Node000016"><a xlink:title=" ">
<path fill="none" stroke="#63b8ff" d="M894.99,-227.87C931.8,-216.08 980.11,-200.61 1014.65,-189.54"/>
<polygon fill="#63b8ff" stroke="#63b8ff" points="893.87,-224.55 885.41,-230.94 896,-231.22 893.87,-224.55"/>
</a>
</g>
</g>
<!-- Node13&#45;&gt;Node17 -->
<g id="edge33_Node000013_Node000017" class="edge">
<title>Node13&#45;&gt;Node17</title>
<g id="a_edge33_Node000013_Node000017"><a xlink:title=" ">
<path fill="none" stroke="#63b8ff" d="M825.26,-222.46C813.12,-202.61 801.06,-173.85 816.5,-154 834.72,-130.59 907.85,-115.47 964.66,-107.01"/>
<polygon fill="#63b8ff" stroke="#63b8ff" points="822.35,-224.41 830.74,-230.89 828.22,-220.6 822.35,-224.41"/>
</a>
</g>
</g>
<!-- Node13&#45;&gt;Node23 -->
<g id="edge31_Node000013_Node000023" class="edge">
<title>Node13&#45;&gt;Node23</title>
<g id="a_edge31_Node000013_Node000023"><a xlink:title=" ">
<path fill="none" stroke="#63b8ff" d="M916.91,-234.68C982.51,-225.38 1080.05,-210.77 1164.5,-195 1167.45,-194.45 1170.46,-193.87 1173.49,-193.28"/>
<polygon fill="#63b8ff" stroke="#63b8ff" points="916.07,-231.26 906.66,-236.13 917.05,-238.19 916.07,-231.26"/>
</a>
</g>
</g>
<!-- Node16&#45;&gt;Node17 -->
<g id="edge19_Node000016_Node000017" class="edge">
<title>Node16&#45;&gt;Node17</title>
<g id="a_edge19_Node000016_Node000017"><a xlink:title=" ">
<path fill="none" stroke="#63b8ff" d="M1051.17,-149.6C1046.76,-135.2 1041.39,-117.71 1038.22,-107.37"/>
<polygon fill="#63b8ff" stroke="#63b8ff" points="1047.9,-150.86 1054.17,-159.39 1054.59,-148.81 1047.9,-150.86"/>
</a>
</g>
</g>
<!-- Node17&#45;&gt;Node3 -->
<g id="edge20_Node000017_Node000003" class="edge">
<title>Node17&#45;&gt;Node3</title>
<g id="a_edge20_Node000017_Node000003"><a xlink:title=" ">
<path fill="none" stroke="#63b8ff" d="M947.52,-93.63C751.08,-86.81 281.77,-68.16 125.5,-41 117.62,-39.63 109.35,-37.67 101.42,-35.52"/>
<polygon fill="#63b8ff" stroke="#63b8ff" points="947.69,-97.14 957.8,-93.98 947.93,-90.14 947.69,-97.14"/>
</a>
</g>
</g>
<!-- Node17&#45;&gt;Node4 -->
<g id="edge27_Node000017_Node000004" class="edge">
<title>Node17&#45;&gt;Node4</title>
<g id="a_edge27_Node000017_Node000004"><a xlink:title=" ">
<path fill="none" stroke="#63b8ff" d="M1007.77,-83.5C979.25,-70.13 934.97,-49.37 905.61,-35.61"/>
<polygon fill="#63b8ff" stroke="#63b8ff" points="1006.61,-86.82 1017.15,-87.9 1009.58,-80.48 1006.61,-86.82"/>
</a>
</g>
</g>
<!-- Node17&#45;&gt;Node6 -->
<g id="edge22_Node000017_Node000006" class="edge">
<title>Node17&#45;&gt;Node6</title>
<g id="a_edge22_Node000017_Node000006"><a xlink:title=" ">
<path fill="none" stroke="#63b8ff" d="M947.58,-91.54C834.56,-84.35 632.49,-68.76 461.5,-41 458.66,-40.54 455.77,-40.04 452.86,-39.51"/>
<polygon fill="#63b8ff" stroke="#63b8ff" points="947.37,-95.03 957.57,-92.17 947.81,-88.04 947.37,-95.03"/>
</a>
</g>
</g>
<!-- Node17&#45;&gt;Node7 -->
<g id="edge23_Node000017_Node000007" class="edge">
<title>Node17&#45;&gt;Node7</title>
<g id="a_edge23_Node000017_Node000007"><a xlink:title=" ">
<path fill="none" stroke="#63b8ff" d="M947.72,-94.39C808.04,-90.04 526.93,-77.21 291.5,-41 288.43,-40.53 285.3,-40 282.15,-39.43"/>
<polygon fill="#63b8ff" stroke="#63b8ff" points="947.83,-97.89 957.93,-94.7 948.04,-90.9 947.83,-97.89"/>
</a>
</g>
</g>
<!-- Node17&#45;&gt;Node8 -->
<g id="edge24_Node000017_Node000008" class="edge">
<title>Node17&#45;&gt;Node8</title>
<g id="a_edge24_Node000017_Node000008"><a xlink:title=" ">
<path fill="none" stroke="#63b8ff" d="M947.59,-87.6C863.08,-78.37 731.97,-62.32 619.5,-41 616.59,-40.45 613.62,-39.85 610.62,-39.23"/>
<polygon fill="#63b8ff" stroke="#63b8ff" points="947.34,-91.09 957.66,-88.69 948.09,-84.13 947.34,-91.09"/>
</a>
</g>
</g>
<!-- Node17&#45;&gt;Node9 -->
<g id="edge25_Node000017_Node000009" class="edge">
<title>Node17&#45;&gt;Node9</title>
<g id="a_edge25_Node000017_Node000009"><a xlink:title=" ">
<path fill="none" stroke="#63b8ff" d="M988.75,-85.71C937.65,-73.92 854.78,-54.8 792.75,-40.48"/>
<polygon fill="#63b8ff" stroke="#63b8ff" points="988,-89.13 998.53,-87.97 989.58,-82.31 988,-89.13"/>
</a>
</g>
</g>
<!-- Node18 -->
<g id="Node000018" class="node">
<title>Node18</title>
<g id="a_Node000018"><a xlink:href="ImGuiUI_8cpp.html" target="_top" xlink:title=" ">
<polygon fill="white" stroke="#666666" points="1590,-35.5 1473,-35.5 1473,-5.5 1590,-5.5 1590,-35.5"/>
<text text-anchor="start" x="1481" y="-23.5" font-family="Helvetica,sans-Serif" font-size="10.00">Engine/Source/Editor</text>
<text text-anchor="middle" x="1531.5" y="-12.5" font-family="Helvetica,sans-Serif" font-size="10.00">/ImGui/ImGuiUI.cpp</text>
</a>
</g>
</g>
<!-- Node17&#45;&gt;Node18 -->
<g id="edge21_Node000017_Node000018" class="edge">
<title>Node17&#45;&gt;Node18</title>
<g id="a_edge21_Node000017_Node000018"><a xlink:title=" ">
<path fill="none" stroke="#63b8ff" d="M1123.1,-89.03C1210.06,-80.7 1346.87,-65.14 1463.5,-41 1470.84,-39.48 1478.54,-37.58 1486.01,-35.56"/>
<polygon fill="#63b8ff" stroke="#63b8ff" points="1122.64,-85.56 1113.01,-89.98 1123.3,-92.53 1122.64,-85.56"/>
</a>
</g>
</g>
<!-- Node19 -->
<g id="Node000019" class="node">
<title>Node19</title>
<g id="a_Node000019"><a xlink:href="EditorFileSystem_8cpp.html" target="_top" xlink:title="EditorFileSystemの実装。">
<polygon fill="white" stroke="#666666" points="1756.5,-35.5 1608.5,-35.5 1608.5,-5.5 1756.5,-5.5 1756.5,-35.5"/>
<text text-anchor="start" x="1616.5" y="-23.5" font-family="Helvetica,sans-Serif" font-size="10.00">Engine/Source/Editor</text>
<text text-anchor="middle" x="1682.5" y="-12.5" font-family="Helvetica,sans-Serif" font-size="10.00">/Utils/EditorFileSystem.cpp</text>
</a>
</g>
</g>
<!-- Node17&#45;&gt;Node19 -->
<g id="edge26_Node000017_Node000019" class="edge">
<title>Node17&#45;&gt;Node19</title>
<g id="a_edge26_Node000017_Node000019"><a xlink:title=" ">
<path fill="none" stroke="#63b8ff" d="M1123.18,-91.49C1234.5,-84.3 1432.19,-68.76 1599.5,-41 1608.55,-39.5 1618.09,-37.58 1627.34,-35.53"/>
<polygon fill="#63b8ff" stroke="#63b8ff" points="1122.77,-88.01 1113.01,-92.14 1123.21,-94.99 1122.77,-88.01"/>
</a>
</g>
</g>
<!-- Node20 -->
<g id="Node000020" class="node">
<title>Node20</title>
<g id="a_Node000020"><a xlink:href="AssetRegistry_8cpp.html" target="_top" xlink:title="AssetRegistryの実装。">
<polygon fill="white" stroke="#666666" points="1112.5,-35.5 958.5,-35.5 958.5,-5.5 1112.5,-5.5 1112.5,-35.5"/>
<text text-anchor="start" x="966.5" y="-23.5" font-family="Helvetica,sans-Serif" font-size="10.00">Engine/Source/Runtime</text>
<text text-anchor="middle" x="1035.5" y="-12.5" font-family="Helvetica,sans-Serif" font-size="10.00">/Resource/AssetRegistry.cpp</text>
</a>
</g>
</g>
<!-- Node17&#45;&gt;Node20 -->
<g id="edge28_Node000017_Node000020" class="edge">
<title>Node17&#45;&gt;Node20</title>
<g id="a_edge28_Node000017_Node000020"><a xlink:title=" ">
<path fill="none" stroke="#63b8ff" d="M1035.5,-77.7C1035.5,-64.64 1035.5,-47.51 1035.5,-35.61"/>
<polygon fill="#63b8ff" stroke="#63b8ff" points="1032,-77.9 1035.5,-87.9 1039,-77.9 1032,-77.9"/>
</a>
</g>
</g>
<!-- Node21 -->
<g id="Node000021" class="node">
<title>Node21</title>
<g id="a_Node000021"><a xlink:href="AssetSerializer_8cpp.html" target="_top" xlink:title="AssetSerializerの実装。">
<polygon fill="white" stroke="#666666" points="1290.5,-35.5 1130.5,-35.5 1130.5,-5.5 1290.5,-5.5 1290.5,-35.5"/>
<text text-anchor="start" x="1138.5" y="-23.5" font-family="Helvetica,sans-Serif" font-size="10.00">Engine/Source/Runtime</text>
<text text-anchor="middle" x="1210.5" y="-12.5" font-family="Helvetica,sans-Serif" font-size="10.00">/Resource/AssetSerializer.cpp</text>
</a>
</g>
</g>
<!-- Node17&#45;&gt;Node21 -->
<g id="edge29_Node000017_Node000021" class="edge">
<title>Node17&#45;&gt;Node21</title>
<g id="a_edge29_Node000017_Node000021"><a xlink:title=" ">
<path fill="none" stroke="#63b8ff" d="M1065.02,-83.85C1096.18,-70.49 1145.18,-49.49 1177.57,-35.61"/>
<polygon fill="#63b8ff" stroke="#63b8ff" points="1063.39,-80.74 1055.57,-87.9 1066.14,-87.17 1063.39,-80.74"/>
</a>
</g>
</g>
<!-- Node22 -->
<g id="Node000022" class="node">
<title>Node22</title>
<g id="a_Node000022"><a xlink:href="SceneSerializer_8cpp.html" target="_top" xlink:title="SceneSerializerの実装。">
<polygon fill="white" stroke="#666666" points="1454.5,-35.5 1308.5,-35.5 1308.5,-5.5 1454.5,-5.5 1454.5,-35.5"/>
<text text-anchor="start" x="1316.5" y="-23.5" font-family="Helvetica,sans-Serif" font-size="10.00">Engine/Source/Runtime</text>
<text text-anchor="middle" x="1381.5" y="-12.5" font-family="Helvetica,sans-Serif" font-size="10.00">/Scene/SceneSerializer.cpp</text>
</a>
</g>
</g>
<!-- Node17&#45;&gt;Node22 -->
<g id="edge30_Node000017_Node000022" class="edge">
<title>Node17&#45;&gt;Node22</title>
<g id="a_edge30_Node000017_Node000022"><a xlink:title=" ">
<path fill="none" stroke="#63b8ff" d="M1087.54,-85.98C1140.85,-75.11 1226.08,-57.44 1299.5,-41 1307.21,-39.27 1315.32,-37.41 1323.31,-35.54"/>
<polygon fill="#63b8ff" stroke="#63b8ff" points="1086.74,-82.57 1077.64,-88 1088.14,-89.43 1086.74,-82.57"/>
</a>
</g>
</g>
<!-- Node23&#45;&gt;Node17 -->
<g id="edge32_Node000023_Node000017" class="edge">
<title>Node23&#45;&gt;Node17</title>
<g id="a_edge32_Node000023_Node000017"><a xlink:title=" ">
<path fill="none" stroke="#63b8ff" d="M1187.27,-150.71C1144.45,-135.98 1091.16,-117.65 1060.46,-107.09"/>
<polygon fill="#63b8ff" stroke="#63b8ff" points="1186.2,-154.05 1196.79,-153.99 1188.47,-147.43 1186.2,-154.05"/>
</a>
</g>
</g>
<!-- Node24&#45;&gt;Node23 -->
<g id="edge37_Node000024_Node000023" class="edge">
<title>Node24&#45;&gt;Node23</title>
<g id="a_edge37_Node000024_Node000023"><a xlink:title=" ">
<path fill="none" stroke="#63b8ff" d="M1419.84,-227.81C1388.29,-217.89 1348.49,-205.37 1315.74,-195.07"/>
<polygon fill="#63b8ff" stroke="#63b8ff" points="1419.19,-231.27 1429.78,-230.94 1421.29,-224.6 1419.19,-231.27"/>
</a>
</g>
</g>
<!-- Node25 -->
<g id="Node000025" class="node">
<title>Node25</title>
<g id="a_Node000025"><a xlink:href="ShadowPass_8cpp.html" target="_top" xlink:title="ShadowPassの実装。">
<polygon fill="white" stroke="#666666" points="1571.5,-189.5 1389.5,-189.5 1389.5,-159.5 1571.5,-159.5 1571.5,-189.5"/>
<text text-anchor="start" x="1397.5" y="-177.5" font-family="Helvetica,sans-Serif" font-size="10.00">Engine/Source/Runtime</text>
<text text-anchor="middle" x="1480.5" y="-166.5" font-family="Helvetica,sans-Serif" font-size="10.00">/Graphics/Passes/ShadowPass.cpp</text>
</a>
</g>
</g>
<!-- Node24&#45;&gt;Node25 -->
<g id="edge35_Node000024_Node000025" class="edge">
<title>Node24&#45;&gt;Node25</title>
<g id="a_edge35_Node000024_Node000025"><a xlink:title=" ">
<path fill="none" stroke="#63b8ff" d="M1476.59,-220.75C1477.49,-210.31 1478.52,-198.49 1479.29,-189.54"/>
<polygon fill="#63b8ff" stroke="#63b8ff" points="1473.09,-220.67 1475.71,-230.94 1480.06,-221.27 1473.09,-220.67"/>
</a>
</g>
</g>
<!-- Node24&#45;&gt;Node26 -->
<g id="edge36_Node000024_Node000026" class="edge">
<title>Node24&#45;&gt;Node26</title>
<g id="a_edge36_Node000024_Node000026"><a xlink:title=" ">
<path fill="none" stroke="#63b8ff" d="M1520.44,-227.26C1550.77,-215.55 1589.96,-200.42 1618.13,-189.54"/>
<polygon fill="#63b8ff" stroke="#63b8ff" points="1518.99,-224.07 1510.93,-230.94 1521.52,-230.6 1518.99,-224.07"/>
</a>
</g>
</g>
<!-- Node27&#45;&gt;Node23 -->
<g id="edge41_Node000027_Node000023" class="edge">
<title>Node27&#45;&gt;Node23</title>
<g id="a_edge41_Node000027_Node000023"><a xlink:title=" ">
<path fill="none" stroke="#63b8ff" d="M1604.69,-230.35C1524.38,-217.81 1409.98,-199.94 1333.83,-188.05"/>
<polygon fill="#63b8ff" stroke="#63b8ff" points="1604.38,-233.84 1614.8,-231.93 1605.46,-226.93 1604.38,-233.84"/>
</a>
</g>
</g>
<!-- Node27&#45;&gt;Node26 -->
<g id="edge40_Node000027_Node000026" class="edge">
<title>Node27&#45;&gt;Node26</title>
<g id="a_edge40_Node000027_Node000026"><a xlink:title=" ">
<path fill="none" stroke="#63b8ff" d="M1684.18,-222.38C1677.33,-211.57 1669.35,-198.96 1663.39,-189.54"/>
<polygon fill="#63b8ff" stroke="#63b8ff" points="1681.29,-224.36 1689.6,-230.94 1687.2,-220.61 1681.29,-224.36"/>
</a>
</g>
</g>
<!-- Node28 -->
<g id="Node000028" class="node">
<title>Node28</title>
<g id="a_Node000028"><a xlink:href="SkyboxPass_8cpp.html" target="_top" xlink:title="SkyboxPassの実装。">
<polygon fill="white" stroke="#666666" points="1917,-189.5 1738,-189.5 1738,-159.5 1917,-159.5 1917,-189.5"/>
<text text-anchor="start" x="1746" y="-177.5" font-family="Helvetica,sans-Serif" font-size="10.00">Engine/Source/Runtime</text>
<text text-anchor="middle" x="1827.5" y="-166.5" font-family="Helvetica,sans-Serif" font-size="10.00">/Graphics/Passes/SkyboxPass.cpp</text>
</a>
</g>
</g>
<!-- Node27&#45;&gt;Node28 -->
<g id="edge39_Node000027_Node000028" class="edge">
<title>Node27&#45;&gt;Node28</title>
<g id="a_edge39_Node000027_Node000028"><a xlink:title=" ">
<path fill="none" stroke="#63b8ff" d="M1733.41,-226.19C1754.85,-214.64 1781.86,-200.09 1801.43,-189.54"/>
<polygon fill="#63b8ff" stroke="#63b8ff" points="1731.75,-223.11 1724.61,-230.94 1735.07,-229.27 1731.75,-223.11"/>
</a>
</g>
</g>
</g>
</svg>

<g id="navigator" transform="translate(0 0)" fill="#404254">
  <rect fill="#f2f5e9" fill-opacity="0.5" stroke="#606060" stroke-width=".5" x="0" y="0" width="60" height="60"/>
  <use id="zoomplus" xlink:href="#zoomPlus" x="17" y="9" onmousedown="handleZoom(evt,'in')"/>
  <use id="zoomminus" xlink:href="#zoomMin" x="42" y="9" onmousedown="handleZoom(evt,'out')"/>
  <use id="reset" xlink:href="#resetDef" x="30" y="36" onmousedown="handleReset()"/>
   <use id="arrowup" xlink:href="#arrowUp" x="0" y="0" onmousedown="handlePan(0,-1)"/>
  <use id="arrowright" xlink:href="#arrowRight" x="0" y="0" onmousedown="handlePan(1,0)"/>
  <use id="arrowdown" xlink:href="#arrowDown" x="0" y="0" onmousedown="handlePan(0,1)"/>
  <use id="arrowleft" xlink:href="#arrowLeft" x="0" y="0" onmousedown="handlePan(-1,0)"/>
</g>
<svg viewBox="0 0 15 15" width="100%" height="30px" preserveAspectRatio="xMaxYMin meet">
 <g id="arrow_out" transform="scale(0.3 0.3)">
  <a xlink:href="Renderer_8h__dep__incl_org.svg" target="_base">
   <rect id="button" ry="5" rx="5" y="6" x="6" height="38" width="38"
        fill="#f2f5e9" fill-opacity="0.5" stroke="#606060" stroke-width="1.0"/>
   <path id="arrow"
     d="M 11.500037,31.436501 C 11.940474,20.09759 22.043105,11.32322 32.158766,21.979434 L 37.068811,17.246167 C 37.068811,17.246167 37.088388,32 37.088388,32 L 22.160133,31.978069 C 22.160133,31.978069 26.997745,27.140456 26.997745,27.140456 C 18.528582,18.264221 13.291696,25.230495 11.500037,31.436501 z"
     style="fill:#404040;"/>
  </a>
 </g>
</svg>

<style type='text/css'>
<![CDATA[
[data-mouse-over-selected='false'] { opacity: 0.7; }
[data-mouse-over-selected='true']  { opacity: 1.0; }
]]>
</style>
<script type="application/ecmascript"><![CDATA[
document.addEventListener('DOMContentLoaded', (event) => {
  highlightEdges();
  highlightAdjacentNodes();
});
]]></script>
</svg>
