<?xml version="1.0" encoding="UTF-8" standalone="no"?>
<!DOCTYPE svg PUBLIC "-//W3C//DTD SVG 1.1//EN"
 "http://www.w3.org/Graphics/SVG/1.1/DTD/svg11.dtd">
<!-- Generated by graphviz version 2.43.0 (0)
 -->
<!-- Title: Engine/Source/Editor/Panels/SceneView/SceneViewPanel.h Pages: 1 -->
<svg width="2381pt" height="214pt"
 viewBox="0.00 0.00 2381.00 214.00" xmlns="http://www.w3.org/2000/svg" xmlns:xlink="http://www.w3.org/1999/xlink">
<g id="graph0" class="graph" transform="scale(1 1) rotate(0) translate(4 210)">
<title>Engine/Source/Editor/Panels/SceneView/SceneViewPanel.h</title>
<!-- Node1 -->
<g id="Node000001" class="node">
<title>Node1</title>
<g id="a_Node000001"><a xlink:title="レンダリング結果と操作ギズモを表示するパネル">
<polygon fill="#999999" stroke="#666666" points="633.5,-206 469.5,-206 469.5,-165 633.5,-165 633.5,-206"/>
<text text-anchor="start" x="477.5" y="-194" font-family="Helvetica,sans-Serif" font-size="10.00">Engine/Source/Editor</text>
<text text-anchor="start" x="477.5" y="-183" font-family="Helvetica,sans-Serif" font-size="10.00">/Panels/SceneView/SceneView</text>
<text text-anchor="middle" x="551.5" y="-172" font-family="Helvetica,sans-Serif" font-size="10.00">Panel.h</text>
</a>
</g>
</g>
<!-- Node2 -->
<g id="Node000002" class="node">
<title>Node2</title>
<g id="a_Node000002"><a xlink:href="SpanMath_8h.html" target="_top" xlink:title="算術ライブラリ (Vector, Matrix, Quaternion)。">
<polygon fill="white" stroke="#666666" points="208.5,-74 80.5,-74 80.5,-55 208.5,-55 208.5,-74"/>
<text text-anchor="middle" x="144.5" y="-62" font-family="Helvetica,sans-Serif" font-size="10.00">Core/Math/SpanMath.h</text>
</a>
</g>
</g>
<!-- Node1&#45;&gt;Node2 -->
<g id="edge1_Node000001_Node000002" class="edge">
<title>Node1&#45;&gt;Node2</title>
<g id="a_edge1_Node000001_Node000002"><a xlink:title=" ">
<path fill="none" stroke="#63b8ff" d="M484.75,-164.98C398.98,-139.91 252.91,-97.2 183.43,-76.88"/>
<polygon fill="#63b8ff" stroke="#63b8ff" points="184.34,-73.5 173.76,-74.05 182.37,-80.22 184.34,-73.5"/>
</a>
</g>
</g>
<!-- Node6 -->
<g id="Node000006" class="node">
<title>Node6</title>
<g id="a_Node000006"><a xlink:href="EditorPanel_8h.html" target="_top" xlink:title="エディタ上のウィンドウ (パネル) の基底クラス。">
<polygon fill="white" stroke="#666666" points="679.5,-129 533.5,-129 533.5,-110 679.5,-110 679.5,-129"/>
<text text-anchor="middle" x="606.5" y="-117" font-family="Helvetica,sans-Serif" font-size="10.00">Editor/Panels/EditorPanel.h</text>
</a>
</g>
</g>
<!-- Node1&#45;&gt;Node6 -->
<g id="edge5_Node000001_Node000006" class="edge">
<title>Node1&#45;&gt;Node6</title>
<g id="a_edge5_Node000001_Node000006"><a xlink:title=" ">
<path fill="none" stroke="#63b8ff" d="M568.3,-164.95C575.98,-156.02 584.97,-145.55 592.3,-137.02"/>
<polygon fill="#63b8ff" stroke="#63b8ff" points="595.11,-139.13 598.97,-129.26 589.8,-134.56 595.11,-139.13"/>
</a>
</g>
</g>
<!-- Node3 -->
<g id="Node000003" class="node">
<title>Node3</title>
<g id="a_Node000003"><a xlink:title=" ">
<polygon fill="#e0e0e0" stroke="#999999" points="233.5,-19 147.5,-19 147.5,0 233.5,0 233.5,-19"/>
<text text-anchor="middle" x="190.5" y="-7" font-family="Helvetica,sans-Serif" font-size="10.00">DirectXMath.h</text>
</a>
</g>
</g>
<!-- Node2&#45;&gt;Node3 -->
<g id="edge2_Node000002_Node000003" class="edge">
<title>Node2&#45;&gt;Node3</title>
<g id="a_edge2_Node000002_Node000003"><a xlink:title=" ">
<path fill="none" stroke="#63b8ff" d="M152.1,-54.75C158.66,-47.18 168.32,-36.05 176.31,-26.84"/>
<polygon fill="#63b8ff" stroke="#63b8ff" points="179.13,-28.94 183.05,-19.09 173.85,-24.35 179.13,-28.94"/>
</a>
</g>
</g>
<!-- Node4 -->
<g id="Node000004" class="node">
<title>Node4</title>
<g id="a_Node000004"><a xlink:title=" ">
<polygon fill="#e0e0e0" stroke="#999999" points="47,-19 0,-19 0,0 47,0 47,-19"/>
<text text-anchor="middle" x="23.5" y="-7" font-family="Helvetica,sans-Serif" font-size="10.00">cmath</text>
</a>
</g>
</g>
<!-- Node2&#45;&gt;Node4 -->
<g id="edge3_Node000002_Node000004" class="edge">
<title>Node2&#45;&gt;Node4</title>
<g id="a_edge3_Node000002_Node000004"><a xlink:title=" ">
<path fill="none" stroke="#63b8ff" d="M125.06,-54.98C105.51,-46.42 75.12,-33.11 52.68,-23.28"/>
<polygon fill="#63b8ff" stroke="#63b8ff" points="53.86,-19.98 43.29,-19.17 51.05,-26.39 53.86,-19.98"/>
</a>
</g>
</g>
<!-- Node5 -->
<g id="Node000005" class="node">
<title>Node5</title>
<g id="a_Node000005"><a xlink:title=" ">
<polygon fill="#e0e0e0" stroke="#999999" points="129.5,-19 65.5,-19 65.5,0 129.5,0 129.5,-19"/>
<text text-anchor="middle" x="97.5" y="-7" font-family="Helvetica,sans-Serif" font-size="10.00">algorithm</text>
</a>
</g>
</g>
<!-- Node2&#45;&gt;Node5 -->
<g id="edge4_Node000002_Node000005" class="edge">
<title>Node2&#45;&gt;Node5</title>
<g id="a_edge4_Node000002_Node000005"><a xlink:title=" ">
<path fill="none" stroke="#63b8ff" d="M136.74,-54.75C130.03,-47.18 120.16,-36.05 111.99,-26.84"/>
<polygon fill="#63b8ff" stroke="#63b8ff" points="114.37,-24.25 105.12,-19.09 109.13,-28.89 114.37,-24.25"/>
</a>
</g>
</g>
<!-- Node7 -->
<g id="Node000007" class="node">
<title>Node7</title>
<g id="a_Node000007"><a xlink:href="CoreMinimal_8h.html" target="_top" xlink:title="エンジンの標準インクルードファイル。">
<polygon fill="white" stroke="#666666" points="1210,-74 1097,-74 1097,-55 1210,-55 1210,-74"/>
<text text-anchor="middle" x="1153.5" y="-62" font-family="Helvetica,sans-Serif" font-size="10.00">Core/CoreMinimal.h</text>
</a>
</g>
</g>
<!-- Node6&#45;&gt;Node7 -->
<g id="edge6_Node000006_Node000007" class="edge">
<title>Node6&#45;&gt;Node7</title>
<g id="a_edge6_Node000006_Node000007"><a xlink:title=" ">
<path fill="none" stroke="#63b8ff" d="M679.7,-111.41C786.62,-101.05 983.94,-81.93 1086.96,-71.95"/>
<polygon fill="#63b8ff" stroke="#63b8ff" points="1087.31,-75.43 1096.93,-70.98 1086.64,-68.46 1087.31,-75.43"/>
</a>
</g>
</g>
<!-- Node34 -->
<g id="Node000034" class="node">
<title>Node34</title>
<g id="a_Node000034"><a xlink:title=" ">
<polygon fill="#e0e0e0" stroke="#999999" points="633,-74 580,-74 580,-55 633,-55 633,-74"/>
<text text-anchor="middle" x="606.5" y="-62" font-family="Helvetica,sans-Serif" font-size="10.00">imgui.h</text>
</a>
</g>
</g>
<!-- Node6&#45;&gt;Node34 -->
<g id="edge36_Node000006_Node000034" class="edge">
<title>Node6&#45;&gt;Node34</title>
<g id="a_edge36_Node000006_Node000034"><a xlink:title=" ">
<path fill="none" stroke="#63b8ff" d="M606.5,-109.75C606.5,-102.8 606.5,-92.85 606.5,-84.13"/>
<polygon fill="#63b8ff" stroke="#63b8ff" points="610,-84.09 606.5,-74.09 603,-84.09 610,-84.09"/>
</a>
</g>
</g>
<!-- Node7&#45;&gt;Node3 -->
<g id="edge30_Node000007_Node000003" class="edge">
<title>Node7&#45;&gt;Node3</title>
<g id="a_edge30_Node000007_Node000003"><a xlink:title=" ">
<path fill="none" stroke="#63b8ff" d="M1096.83,-62.96C954.87,-61.12 572.47,-53.24 243.78,-19"/>
<polygon fill="#63b8ff" stroke="#63b8ff" points="243.89,-15.49 233.58,-17.93 243.16,-22.45 243.89,-15.49"/>
</a>
</g>
</g>
<!-- Node7&#45;&gt;Node5 -->
<g id="edge19_Node000007_Node000005" class="edge">
<title>Node7&#45;&gt;Node5</title>
<g id="a_edge19_Node000007_Node000005"><a xlink:title=" ">
<path fill="none" stroke="#63b8ff" d="M1096.93,-62.22C915.02,-57.91 345.55,-42.93 139.76,-18.9"/>
<polygon fill="#63b8ff" stroke="#63b8ff" points="140,-15.4 129.65,-17.67 139.15,-22.35 140,-15.4"/>
</a>
</g>
</g>
<!-- Node8 -->
<g id="Node000008" class="node">
<title>Node8</title>
<g id="a_Node000008"><a xlink:title=" ">
<polygon fill="#e0e0e0" stroke="#999999" points="1813.5,-19 1743.5,-19 1743.5,0 1813.5,0 1813.5,-19"/>
<text text-anchor="middle" x="1778.5" y="-7" font-family="Helvetica,sans-Serif" font-size="10.00">Windows.h</text>
</a>
</g>
</g>
<!-- Node7&#45;&gt;Node8 -->
<g id="edge7_Node000007_Node000008" class="edge">
<title>Node7&#45;&gt;Node8</title>
<g id="a_edge7_Node000007_Node000008"><a xlink:title=" ">
<path fill="none" stroke="#63b8ff" d="M1210.22,-61.31C1312.71,-56.89 1535.69,-45.11 1733.5,-18.97"/>
<polygon fill="#63b8ff" stroke="#63b8ff" points="1734.05,-22.43 1743.49,-17.64 1733.12,-15.49 1734.05,-22.43"/>
</a>
</g>
</g>
<!-- Node9 -->
<g id="Node000009" class="node">
<title>Node9</title>
<g id="a_Node000009"><a xlink:title=" ">
<polygon fill="#e0e0e0" stroke="#999999" points="1873,-19 1832,-19 1832,0 1873,0 1873,-19"/>
<text text-anchor="middle" x="1852.5" y="-7" font-family="Helvetica,sans-Serif" font-size="10.00">wrl.h</text>
</a>
</g>
</g>
<!-- Node7&#45;&gt;Node9 -->
<g id="edge8_Node000007_Node000009" class="edge">
<title>Node7&#45;&gt;Node9</title>
<g id="a_edge8_Node000007_Node000009"><a xlink:title=" ">
<path fill="none" stroke="#63b8ff" d="M1210.36,-63.72C1324.71,-63.29 1590.59,-57.94 1822.02,-18.64"/>
<polygon fill="#63b8ff" stroke="#63b8ff" points="1822.71,-22.08 1831.97,-16.93 1821.53,-15.18 1822.71,-22.08"/>
</a>
</g>
</g>
<!-- Node10 -->
<g id="Node000010" class="node">
<title>Node10</title>
<g id="a_Node000010"><a xlink:title=" ">
<polygon fill="#e0e0e0" stroke="#999999" points="1962,-19 1891,-19 1891,0 1962,0 1962,-19"/>
<text text-anchor="middle" x="1926.5" y="-7" font-family="Helvetica,sans-Serif" font-size="10.00">wrl/client.h</text>
</a>
</g>
</g>
<!-- Node7&#45;&gt;Node10 -->
<g id="edge9_Node000007_Node000010" class="edge">
<title>Node7&#45;&gt;Node10</title>
<g id="a_edge9_Node000007_Node000010"><a xlink:title=" ">
<path fill="none" stroke="#63b8ff" d="M1210.45,-62.54C1331.92,-59.94 1625.55,-50.77 1880.35,-19.12"/>
<polygon fill="#63b8ff" stroke="#63b8ff" points="1881.06,-22.56 1890.54,-17.84 1880.18,-15.61 1881.06,-22.56"/>
</a>
</g>
</g>
<!-- Node11 -->
<g id="Node000011" class="node">
<title>Node11</title>
<g id="a_Node000011"><a xlink:title=" ">
<polygon fill="#e0e0e0" stroke="#999999" points="2030.5,-19 1980.5,-19 1980.5,0 2030.5,0 2030.5,-19"/>
<text text-anchor="middle" x="2005.5" y="-7" font-family="Helvetica,sans-Serif" font-size="10.00">cstdint</text>
</a>
</g>
</g>
<!-- Node7&#45;&gt;Node11 -->
<g id="edge10_Node000007_Node000011" class="edge">
<title>Node7&#45;&gt;Node11</title>
<g id="a_edge10_Node000007_Node000011"><a xlink:title=" ">
<path fill="none" stroke="#63b8ff" d="M1210.41,-64.12C1342.49,-64.76 1680.09,-61.8 1970.06,-18.9"/>
<polygon fill="#63b8ff" stroke="#63b8ff" points="1970.99,-22.3 1980.36,-17.35 1969.95,-15.37 1970.99,-22.3"/>
</a>
</g>
</g>
<!-- Node12 -->
<g id="Node000012" class="node">
<title>Node12</title>
<g id="a_Node000012"><a xlink:title=" ">
<polygon fill="#e0e0e0" stroke="#999999" points="2108.5,-19 2048.5,-19 2048.5,0 2108.5,0 2108.5,-19"/>
<text text-anchor="middle" x="2078.5" y="-7" font-family="Helvetica,sans-Serif" font-size="10.00">iostream</text>
</a>
</g>
</g>
<!-- Node7&#45;&gt;Node12 -->
<g id="edge11_Node000007_Node000012" class="edge">
<title>Node7&#45;&gt;Node12</title>
<g id="a_edge11_Node000007_Node000012"><a xlink:title=" ">
<path fill="none" stroke="#63b8ff" d="M1210.03,-63.87C1349.31,-64.1 1720.17,-60.53 2038.02,-18.95"/>
<polygon fill="#63b8ff" stroke="#63b8ff" points="2038.9,-22.37 2048.35,-17.58 2037.98,-15.43 2038.9,-22.37"/>
</a>
</g>
</g>
<!-- Node13 -->
<g id="Node000013" class="node">
<title>Node13</title>
<g id="a_Node000013"><a xlink:title=" ">
<polygon fill="#e0e0e0" stroke="#999999" points="2180,-19 2127,-19 2127,0 2180,0 2180,-19"/>
<text text-anchor="middle" x="2153.5" y="-7" font-family="Helvetica,sans-Serif" font-size="10.00">string.h</text>
</a>
</g>
</g>
<!-- Node7&#45;&gt;Node13 -->
<g id="edge12_Node000007_Node000013" class="edge">
<title>Node7&#45;&gt;Node13</title>
<g id="a_edge12_Node000007_Node000013"><a xlink:title=" ">
<path fill="none" stroke="#63b8ff" d="M1210.05,-62.27C1385.7,-58.23 1921.2,-44.27 2116.7,-18.75"/>
<polygon fill="#63b8ff" stroke="#63b8ff" points="2117.43,-22.18 2126.87,-17.37 2116.49,-15.25 2117.43,-22.18"/>
</a>
</g>
</g>
<!-- Node14 -->
<g id="Node000014" class="node">
<title>Node14</title>
<g id="a_Node000014"><a xlink:title=" ">
<polygon fill="#e0e0e0" stroke="#999999" points="2242.5,-19 2198.5,-19 2198.5,0 2242.5,0 2242.5,-19"/>
<text text-anchor="middle" x="2220.5" y="-7" font-family="Helvetica,sans-Serif" font-size="10.00">string</text>
</a>
</g>
</g>
<!-- Node7&#45;&gt;Node14 -->
<g id="edge13_Node000007_Node000014" class="edge">
<title>Node7&#45;&gt;Node14</title>
<g id="a_edge13_Node000007_Node000014"><a xlink:title=" ">
<path fill="none" stroke="#63b8ff" d="M1210.32,-62.74C1395.2,-60.01 1979.18,-49.27 2188.31,-18.75"/>
<polygon fill="#63b8ff" stroke="#63b8ff" points="2188.92,-22.2 2198.28,-17.24 2187.87,-15.28 2188.92,-22.2"/>
</a>
</g>
</g>
<!-- Node15 -->
<g id="Node000015" class="node">
<title>Node15</title>
<g id="a_Node000015"><a xlink:title=" ">
<polygon fill="#e0e0e0" stroke="#999999" points="2308,-19 2261,-19 2261,0 2308,0 2308,-19"/>
<text text-anchor="middle" x="2284.5" y="-7" font-family="Helvetica,sans-Serif" font-size="10.00">vector</text>
</a>
</g>
</g>
<!-- Node7&#45;&gt;Node15 -->
<g id="edge14_Node000007_Node000015" class="edge">
<title>Node7&#45;&gt;Node15</title>
<g id="a_edge14_Node000007_Node000015"><a xlink:title=" ">
<path fill="none" stroke="#63b8ff" d="M1210.27,-62.78C1402.42,-60.12 2028.2,-49.39 2250.85,-18.67"/>
<polygon fill="#63b8ff" stroke="#63b8ff" points="2251.43,-22.12 2260.83,-17.24 2250.43,-15.19 2251.43,-22.12"/>
</a>
</g>
</g>
<!-- Node16 -->
<g id="Node000016" class="node">
<title>Node16</title>
<g id="a_Node000016"><a xlink:title=" ">
<polygon fill="#e0e0e0" stroke="#999999" points="2373,-19 2326,-19 2326,0 2373,0 2373,-19"/>
<text text-anchor="middle" x="2349.5" y="-7" font-family="Helvetica,sans-Serif" font-size="10.00">deque</text>
</a>
</g>
</g>
<!-- Node7&#45;&gt;Node16 -->
<g id="edge15_Node000007_Node000016" class="edge">
<title>Node7&#45;&gt;Node16</title>
<g id="a_edge15_Node000007_Node000016"><a xlink:title=" ">
<path fill="none" stroke="#63b8ff" d="M1210.15,-62.99C1409.69,-60.96 2080.1,-51.88 2315.64,-18.89"/>
<polygon fill="#63b8ff" stroke="#63b8ff" points="2316.47,-22.31 2325.86,-17.4 2315.46,-15.38 2316.47,-22.31"/>
</a>
</g>
</g>
<!-- Node17 -->
<g id="Node000017" class="node">
<title>Node17</title>
<g id="a_Node000017"><a xlink:title=" ">
<polygon fill="#e0e0e0" stroke="#999999" points="345,-19 252,-19 252,0 345,0 345,-19"/>
<text text-anchor="middle" x="298.5" y="-7" font-family="Helvetica,sans-Serif" font-size="10.00">unordered_map</text>
</a>
</g>
</g>
<!-- Node7&#45;&gt;Node17 -->
<g id="edge16_Node000007_Node000017" class="edge">
<title>Node7&#45;&gt;Node17</title>
<g id="a_edge16_Node000007_Node000017"><a xlink:title=" ">
<path fill="none" stroke="#63b8ff" d="M1096.68,-62.19C967.12,-58.8 639.71,-47.97 355.31,-18.97"/>
<polygon fill="#63b8ff" stroke="#63b8ff" points="355.51,-15.47 345.21,-17.93 354.8,-22.43 355.51,-15.47"/>
</a>
</g>
</g>
<!-- Node18 -->
<g id="Node000018" class="node">
<title>Node18</title>
<g id="a_Node000018"><a xlink:title=" ">
<polygon fill="#e0e0e0" stroke="#999999" points="401.5,-19 363.5,-19 363.5,0 401.5,0 401.5,-19"/>
<text text-anchor="middle" x="382.5" y="-7" font-family="Helvetica,sans-Serif" font-size="10.00">map</text>
</a>
</g>
</g>
<!-- Node7&#45;&gt;Node18 -->
<g id="edge17_Node000007_Node000018" class="edge">
<title>Node7&#45;&gt;Node18</title>
<g id="a_edge17_Node000007_Node000018"><a xlink:title=" ">
<path fill="none" stroke="#63b8ff" d="M1097,-61.83C950.54,-57.25 560.29,-43.25 411.5,-18.67"/>
<polygon fill="#63b8ff" stroke="#63b8ff" points="412.09,-15.22 401.63,-16.96 410.89,-22.11 412.09,-15.22"/>
</a>
</g>
</g>
<!-- Node19 -->
<g id="Node000019" class="node">
<title>Node19</title>
<g id="a_Node000019"><a xlink:title=" ">
<polygon fill="#e0e0e0" stroke="#999999" points="477.5,-19 419.5,-19 419.5,0 477.5,0 477.5,-19"/>
<text text-anchor="middle" x="448.5" y="-7" font-family="Helvetica,sans-Serif" font-size="10.00">memory</text>
</a>
</g>
</g>
<!-- Node7&#45;&gt;Node19 -->
<g id="edge18_Node000007_Node000019" class="edge">
<title>Node7&#45;&gt;Node19</title>
<g id="a_edge18_Node000007_Node000019"><a xlink:title=" ">
<path fill="none" stroke="#63b8ff" d="M1096.98,-62.65C983.27,-60.31 718.69,-51.66 487.8,-18.96"/>
<polygon fill="#63b8ff" stroke="#63b8ff" points="488.27,-15.49 477.88,-17.54 487.28,-22.42 488.27,-15.49"/>
</a>
</g>
</g>
<!-- Node20 -->
<g id="Node000020" class="node">
<title>Node20</title>
<g id="a_Node000020"><a xlink:title=" ">
<polygon fill="#e0e0e0" stroke="#999999" points="561,-19 496,-19 496,0 561,0 561,-19"/>
<text text-anchor="middle" x="528.5" y="-7" font-family="Helvetica,sans-Serif" font-size="10.00">functional</text>
</a>
</g>
</g>
<!-- Node7&#45;&gt;Node20 -->
<g id="edge20_Node000007_Node000020" class="edge">
<title>Node7&#45;&gt;Node20</title>
<g id="a_edge20_Node000007_Node000020"><a xlink:title=" ">
<path fill="none" stroke="#63b8ff" d="M1096.97,-61.51C994.29,-57.38 770.14,-46.04 571.49,-18.95"/>
<polygon fill="#63b8ff" stroke="#63b8ff" points="571.83,-15.47 561.45,-17.57 570.88,-22.4 571.83,-15.47"/>
</a>
</g>
</g>
<!-- Node21 -->
<g id="Node000021" class="node">
<title>Node21</title>
<g id="a_Node000021"><a xlink:title=" ">
<polygon fill="#e0e0e0" stroke="#999999" points="629.5,-19 579.5,-19 579.5,0 629.5,0 629.5,-19"/>
<text text-anchor="middle" x="604.5" y="-7" font-family="Helvetica,sans-Serif" font-size="10.00">chrono</text>
</a>
</g>
</g>
<!-- Node7&#45;&gt;Node21 -->
<g id="edge21_Node000007_Node000021" class="edge">
<title>Node7&#45;&gt;Node21</title>
<g id="a_edge21_Node000007_Node000021"><a xlink:title=" ">
<path fill="none" stroke="#63b8ff" d="M1096.74,-61.54C1003.28,-57.67 811.08,-47 639.62,-18.92"/>
<polygon fill="#63b8ff" stroke="#63b8ff" points="640.1,-15.45 629.66,-17.26 638.95,-22.35 640.1,-15.45"/>
</a>
</g>
</g>
<!-- Node22 -->
<g id="Node000022" class="node">
<title>Node22</title>
<g id="a_Node000022"><a xlink:title=" ">
<polygon fill="#e0e0e0" stroke="#999999" points="693.5,-19 647.5,-19 647.5,0 693.5,0 693.5,-19"/>
<text text-anchor="middle" x="670.5" y="-7" font-family="Helvetica,sans-Serif" font-size="10.00">cstdio</text>
</a>
</g>
</g>
<!-- Node7&#45;&gt;Node22 -->
<g id="edge22_Node000007_Node000022" class="edge">
<title>Node7&#45;&gt;Node22</title>
<g id="a_edge22_Node000007_Node000022"><a xlink:title=" ">
<path fill="none" stroke="#63b8ff" d="M1096.85,-60.85C1012.92,-56.27 850.52,-44.95 703.9,-18.97"/>
<polygon fill="#63b8ff" stroke="#63b8ff" points="704.28,-15.49 693.82,-17.16 703.04,-22.38 704.28,-15.49"/>
</a>
</g>
</g>
<!-- Node23 -->
<g id="Node000023" class="node">
<title>Node23</title>
<g id="a_Node000023"><a xlink:title=" ">
<polygon fill="#e0e0e0" stroke="#999999" points="763.5,-19 711.5,-19 711.5,0 763.5,0 763.5,-19"/>
<text text-anchor="middle" x="737.5" y="-7" font-family="Helvetica,sans-Serif" font-size="10.00">cassert</text>
</a>
</g>
</g>
<!-- Node7&#45;&gt;Node23 -->
<g id="edge23_Node000007_Node000023" class="edge">
<title>Node7&#45;&gt;Node23</title>
<g id="a_edge23_Node000007_Node000023"><a xlink:title=" ">
<path fill="none" stroke="#63b8ff" d="M1096.87,-58.92C1024.4,-52.61 894.82,-39.79 773.95,-18.86"/>
<polygon fill="#63b8ff" stroke="#63b8ff" points="774.23,-15.35 763.77,-17.07 773.02,-22.25 774.23,-15.35"/>
</a>
</g>
</g>
<!-- Node24 -->
<g id="Node000024" class="node">
<title>Node24</title>
<g id="a_Node000024"><a xlink:title=" ">
<polygon fill="#e0e0e0" stroke="#999999" points="847,-19 782,-19 782,0 847,0 847,-19"/>
<text text-anchor="middle" x="814.5" y="-7" font-family="Helvetica,sans-Serif" font-size="10.00">typeindex</text>
</a>
</g>
</g>
<!-- Node7&#45;&gt;Node24 -->
<g id="edge24_Node000007_Node000024" class="edge">
<title>Node7&#45;&gt;Node24</title>
<g id="a_edge24_Node000007_Node000024"><a xlink:title=" ">
<path fill="none" stroke="#63b8ff" d="M1096.98,-55.9C1039.28,-47.96 946.92,-34.69 857.11,-19.02"/>
<polygon fill="#63b8ff" stroke="#63b8ff" points="857.48,-15.54 847.03,-17.25 856.27,-22.43 857.48,-15.54"/>
</a>
</g>
</g>
<!-- Node25 -->
<g id="Node000025" class="node">
<title>Node25</title>
<g id="a_Node000025"><a xlink:title=" ">
<polygon fill="#e0e0e0" stroke="#999999" points="933.5,-19 865.5,-19 865.5,0 933.5,0 933.5,-19"/>
<text text-anchor="middle" x="899.5" y="-7" font-family="Helvetica,sans-Serif" font-size="10.00">filesystem</text>
</a>
</g>
</g>
<!-- Node7&#45;&gt;Node25 -->
<g id="edge25_Node000007_Node000025" class="edge">
<title>Node7&#45;&gt;Node25</title>
<g id="a_edge25_Node000007_Node000025"><a xlink:title=" ">
<path fill="none" stroke="#63b8ff" d="M1112.69,-54.98C1066.44,-45.33 991.32,-29.66 943.71,-19.72"/>
<polygon fill="#63b8ff" stroke="#63b8ff" points="944.2,-16.25 933.69,-17.63 942.77,-23.1 944.2,-16.25"/>
</a>
</g>
</g>
<!-- Node26 -->
<g id="Node000026" class="node">
<title>Node26</title>
<g id="a_Node000026"><a xlink:title=" ">
<polygon fill="#e0e0e0" stroke="#999999" points="983.5,-19 951.5,-19 951.5,0 983.5,0 983.5,-19"/>
<text text-anchor="middle" x="967.5" y="-7" font-family="Helvetica,sans-Serif" font-size="10.00">set</text>
</a>
</g>
</g>
<!-- Node7&#45;&gt;Node26 -->
<g id="edge26_Node000007_Node000026" class="edge">
<title>Node7&#45;&gt;Node26</title>
<g id="a_edge26_Node000007_Node000026"><a xlink:title=" ">
<path fill="none" stroke="#63b8ff" d="M1120.34,-54.94C1089.66,-46.88 1042.57,-34.18 993.17,-19.08"/>
<polygon fill="#63b8ff" stroke="#63b8ff" points="994.18,-15.72 983.59,-16.13 992.12,-22.41 994.18,-15.72"/>
</a>
</g>
</g>
<!-- Node27 -->
<g id="Node000027" class="node">
<title>Node27</title>
<g id="a_Node000027"><a xlink:title=" ">
<polygon fill="#e0e0e0" stroke="#999999" points="1057.5,-19 1001.5,-19 1001.5,0 1057.5,0 1057.5,-19"/>
<text text-anchor="middle" x="1029.5" y="-7" font-family="Helvetica,sans-Serif" font-size="10.00">d3d12.h</text>
</a>
</g>
</g>
<!-- Node7&#45;&gt;Node27 -->
<g id="edge27_Node000007_Node000027" class="edge">
<title>Node7&#45;&gt;Node27</title>
<g id="a_edge27_Node000007_Node000027"><a xlink:title=" ">
<path fill="none" stroke="#63b8ff" d="M1133.58,-54.98C1113.45,-46.38 1082.12,-32.99 1059.09,-23.15"/>
<polygon fill="#63b8ff" stroke="#63b8ff" points="1060.36,-19.88 1049.79,-19.17 1057.6,-26.32 1060.36,-19.88"/>
</a>
</g>
</g>
<!-- Node28 -->
<g id="Node000028" class="node">
<title>Node28</title>
<g id="a_Node000028"><a xlink:title=" ">
<polygon fill="#e0e0e0" stroke="#999999" points="1139.5,-19 1075.5,-19 1075.5,0 1139.5,0 1139.5,-19"/>
<text text-anchor="middle" x="1107.5" y="-7" font-family="Helvetica,sans-Serif" font-size="10.00">dxgi1_6.h</text>
</a>
</g>
</g>
<!-- Node7&#45;&gt;Node28 -->
<g id="edge28_Node000007_Node000028" class="edge">
<title>Node7&#45;&gt;Node28</title>
<g id="a_edge28_Node000007_Node000028"><a xlink:title=" ">
<path fill="none" stroke="#63b8ff" d="M1145.9,-54.75C1139.34,-47.18 1129.68,-36.05 1121.69,-26.84"/>
<polygon fill="#63b8ff" stroke="#63b8ff" points="1124.15,-24.35 1114.95,-19.09 1118.87,-28.94 1124.15,-24.35"/>
</a>
</g>
</g>
<!-- Node29 -->
<g id="Node000029" class="node">
<title>Node29</title>
<g id="a_Node000029"><a xlink:title=" ">
<polygon fill="#e0e0e0" stroke="#999999" points="1243.5,-19 1157.5,-19 1157.5,0 1243.5,0 1243.5,-19"/>
<text text-anchor="middle" x="1200.5" y="-7" font-family="Helvetica,sans-Serif" font-size="10.00">d3dcompiler.h</text>
</a>
</g>
</g>
<!-- Node7&#45;&gt;Node29 -->
<g id="edge29_Node000007_Node000029" class="edge">
<title>Node7&#45;&gt;Node29</title>
<g id="a_edge29_Node000007_Node000029"><a xlink:title=" ">
<path fill="none" stroke="#63b8ff" d="M1161.26,-54.75C1167.97,-47.18 1177.84,-36.05 1186.01,-26.84"/>
<polygon fill="#63b8ff" stroke="#63b8ff" points="1188.87,-28.89 1192.88,-19.09 1183.63,-24.25 1188.87,-28.89"/>
</a>
</g>
</g>
<!-- Node30 -->
<g id="Node000030" class="node">
<title>Node30</title>
<g id="a_Node000030"><a xlink:title=" ">
<polygon fill="#e0e0e0" stroke="#999999" points="1379,-19 1262,-19 1262,0 1379,0 1379,-19"/>
<text text-anchor="middle" x="1320.5" y="-7" font-family="Helvetica,sans-Serif" font-size="10.00">assimp/Importer.hpp</text>
</a>
</g>
</g>
<!-- Node7&#45;&gt;Node30 -->
<g id="edge31_Node000007_Node000030" class="edge">
<title>Node7&#45;&gt;Node30</title>
<g id="a_edge31_Node000007_Node000030"><a xlink:title=" ">
<path fill="none" stroke="#63b8ff" d="M1180.33,-54.98C1208.37,-46.09 1252.55,-32.07 1283.8,-22.15"/>
<polygon fill="#63b8ff" stroke="#63b8ff" points="1284.99,-25.44 1293.46,-19.08 1282.87,-18.77 1284.99,-25.44"/>
</a>
</g>
</g>
<!-- Node31 -->
<g id="Node000031" class="node">
<title>Node31</title>
<g id="a_Node000031"><a xlink:title=" ">
<polygon fill="#e0e0e0" stroke="#999999" points="1489.5,-19 1397.5,-19 1397.5,0 1489.5,0 1489.5,-19"/>
<text text-anchor="middle" x="1443.5" y="-7" font-family="Helvetica,sans-Serif" font-size="10.00">assimp/scene.h</text>
</a>
</g>
</g>
<!-- Node7&#45;&gt;Node31 -->
<g id="edge32_Node000007_Node000031" class="edge">
<title>Node7&#45;&gt;Node31</title>
<g id="a_edge32_Node000007_Node000031"><a xlink:title=" ">
<path fill="none" stroke="#63b8ff" d="M1200.09,-54.98C1251.04,-45.67 1332.67,-30.75 1387.17,-20.79"/>
<polygon fill="#63b8ff" stroke="#63b8ff" points="1387.81,-24.24 1397.02,-18.99 1386.56,-17.35 1387.81,-24.24"/>
</a>
</g>
</g>
<!-- Node32 -->
<g id="Node000032" class="node">
<title>Node32</title>
<g id="a_Node000032"><a xlink:title=" ">
<polygon fill="#e0e0e0" stroke="#999999" points="1629.5,-19 1507.5,-19 1507.5,0 1629.5,0 1629.5,-19"/>
<text text-anchor="middle" x="1568.5" y="-7" font-family="Helvetica,sans-Serif" font-size="10.00">assimp/postprocess.h</text>
</a>
</g>
</g>
<!-- Node7&#45;&gt;Node32 -->
<g id="edge33_Node000007_Node000032" class="edge">
<title>Node7&#45;&gt;Node32</title>
<g id="a_edge33_Node000007_Node000032"><a xlink:title=" ">
<path fill="none" stroke="#63b8ff" d="M1210.33,-56.24C1284.95,-46.71 1415.96,-29.98 1497.16,-19.61"/>
<polygon fill="#63b8ff" stroke="#63b8ff" points="1497.82,-23.05 1507.3,-18.32 1496.93,-16.11 1497.82,-23.05"/>
</a>
</g>
</g>
<!-- Node33 -->
<g id="Node000033" class="node">
<title>Node33</title>
<g id="a_Node000033"><a xlink:href="Logger_8h.html" target="_top" xlink:title="デバッグログ出力システム">
<polygon fill="white" stroke="#666666" points="1725.5,-19 1647.5,-19 1647.5,0 1725.5,0 1725.5,-19"/>
<text text-anchor="middle" x="1686.5" y="-7" font-family="Helvetica,sans-Serif" font-size="10.00">Log/Logger.h</text>
</a>
</g>
</g>
<!-- Node7&#45;&gt;Node33 -->
<g id="edge34_Node000007_Node000033" class="edge">
<title>Node7&#45;&gt;Node33</title>
<g id="a_edge34_Node000007_Node000033"><a xlink:title=" ">
<path fill="none" stroke="#63b8ff" d="M1210.23,-59.44C1299.66,-53.06 1478.44,-39.27 1629.5,-19 1632,-18.67 1634.56,-18.29 1637.16,-17.9"/>
<polygon fill="#63b8ff" stroke="#63b8ff" points="1637.94,-21.32 1647.26,-16.28 1636.83,-14.41 1637.94,-21.32"/>
</a>
</g>
</g>
<!-- Node33&#45;&gt;Node7 -->
<g id="edge35_Node000033_Node000007" class="edge">
<title>Node33&#45;&gt;Node7</title>
<g id="a_edge35_Node000033_Node000007"><a xlink:title=" ">
<path fill="none" stroke="#63b8ff" d="M1647.04,-19.06C1495.12,-39.43 1315.29,-53.24 1220.13,-59.56"/>
<polygon fill="#63b8ff" stroke="#63b8ff" points="1219.82,-56.07 1210.07,-60.22 1220.28,-63.06 1219.82,-56.07"/>
</a>
</g>
</g>
</g>
</svg>
