<?xml version="1.0" encoding="UTF-8" standalone="no"?>
<!DOCTYPE svg PUBLIC "-//W3C//DTD SVG 1.1//EN"
 "http://www.w3.org/Graphics/SVG/1.1/DTD/svg11.dtd">
<!-- Generated by graphviz version 2.43.0 (0)
 -->
<!-- Title: Engine/Source/Runtime/Scene/SceneSerializer.h Pages: 1 -->
<svg width="1765pt" height="170pt"
 viewBox="0.00 0.00 1765.00 170.00" xmlns="http://www.w3.org/2000/svg" xmlns:xlink="http://www.w3.org/1999/xlink">
<g id="graph0" class="graph" transform="scale(1 1) rotate(0) translate(4 166)">
<title>Engine/Source/Runtime/Scene/SceneSerializer.h</title>
<!-- Node1 -->
<g id="Node000001" class="node">
<title>Node1</title>
<g id="a_Node000001"><a xlink:title="ECSワールド(シーン)のデータをJSON形式で保存・読み込みするクラス。">
<polygon fill="#999999" stroke="#666666" points="524.5,-162 389.5,-162 389.5,-132 524.5,-132 524.5,-162"/>
<text text-anchor="start" x="397.5" y="-150" font-family="Helvetica,sans-Serif" font-size="10.00">Engine/Source/Runtime</text>
<text text-anchor="middle" x="457" y="-139" font-family="Helvetica,sans-Serif" font-size="10.00">/Scene/SceneSerializer.h</text>
</a>
</g>
</g>
<!-- Node2 -->
<g id="Node000002" class="node">
<title>Node2</title>
<g id="a_Node000002"><a xlink:href="SceneSerializer_8cpp.html" target="_top" xlink:title="SceneSerializerの実装。">
<polygon fill="white" stroke="#666666" points="146,-35.5 0,-35.5 0,-5.5 146,-5.5 146,-35.5"/>
<text text-anchor="start" x="8" y="-23.5" font-family="Helvetica,sans-Serif" font-size="10.00">Engine/Source/Runtime</text>
<text text-anchor="middle" x="73" y="-12.5" font-family="Helvetica,sans-Serif" font-size="10.00">/Scene/SceneSerializer.cpp</text>
</a>
</g>
</g>
<!-- Node1&#45;&gt;Node2 -->
<g id="edge1_Node000001_Node000002" class="edge">
<title>Node1&#45;&gt;Node2</title>
<g id="a_edge1_Node000001_Node000002"><a xlink:title=" ">
<path fill="none" stroke="#63b8ff" d="M403.77,-128.74C327.14,-103.9 187.2,-58.53 116.44,-35.58"/>
<polygon fill="#63b8ff" stroke="#63b8ff" points="403.1,-132.21 413.7,-131.96 405.26,-125.55 403.1,-132.21"/>
</a>
</g>
</g>
<!-- Node3 -->
<g id="Node000003" class="node">
<title>Node3</title>
<g id="a_Node000003"><a xlink:href="SpanEngine_8h.html" target="_top" xlink:title=" ">
<polygon fill="white" stroke="#666666" points="837.5,-96 682.5,-96 682.5,-77 837.5,-77 837.5,-96"/>
<text text-anchor="middle" x="760" y="-84" font-family="Helvetica,sans-Serif" font-size="10.00">Engine/Source/SpanEngine.h</text>
</a>
</g>
</g>
<!-- Node1&#45;&gt;Node3 -->
<g id="edge2_Node000001_Node000003" class="edge">
<title>Node1&#45;&gt;Node3</title>
<g id="a_edge2_Node000001_Node000003"><a xlink:title=" ">
<path fill="none" stroke="#63b8ff" d="M534.74,-130.99C592.11,-119.91 668.14,-105.24 715.56,-96.08"/>
<polygon fill="#63b8ff" stroke="#63b8ff" points="533.78,-127.61 524.62,-132.94 535.1,-134.49 533.78,-127.61"/>
</a>
</g>
</g>
<!-- Node3&#45;&gt;Node2 -->
<g id="edge13_Node000003_Node000002" class="edge">
<title>Node3&#45;&gt;Node2</title>
<g id="a_edge13_Node000003_Node000002"><a xlink:title=" ">
<path fill="none" stroke="#63b8ff" d="M672.11,-83.44C553.94,-79.67 337.55,-69.23 155,-41 145.74,-39.57 135.99,-37.63 126.57,-35.54"/>
<polygon fill="#63b8ff" stroke="#63b8ff" points="672.09,-86.94 682.19,-83.75 672.31,-79.94 672.09,-86.94"/>
</a>
</g>
</g>
<!-- Node4 -->
<g id="Node000004" class="node">
<title>Node4</title>
<g id="a_Node000004"><a xlink:href="GuiManager_8cpp.html" target="_top" xlink:title=" ">
<polygon fill="white" stroke="#666666" points="281.5,-35.5 164.5,-35.5 164.5,-5.5 281.5,-5.5 281.5,-35.5"/>
<text text-anchor="start" x="172.5" y="-23.5" font-family="Helvetica,sans-Serif" font-size="10.00">Engine/Source/Editor</text>
<text text-anchor="middle" x="223" y="-12.5" font-family="Helvetica,sans-Serif" font-size="10.00">/GuiManager.cpp</text>
</a>
</g>
</g>
<!-- Node3&#45;&gt;Node4 -->
<g id="edge3_Node000003_Node000004" class="edge">
<title>Node3&#45;&gt;Node4</title>
<g id="a_edge3_Node000003_Node000004"><a xlink:title=" ">
<path fill="none" stroke="#63b8ff" d="M672.3,-82.15C577.37,-77.37 421.85,-66.2 290,-41 282.5,-39.57 274.64,-37.66 267.04,-35.6"/>
<polygon fill="#63b8ff" stroke="#63b8ff" points="672.28,-85.65 682.43,-82.64 672.62,-78.66 672.28,-85.65"/>
</a>
</g>
</g>
<!-- Node5 -->
<g id="Node000005" class="node">
<title>Node5</title>
<g id="a_Node000005"><a xlink:href="ImGuiUI_8cpp.html" target="_top" xlink:title=" ">
<polygon fill="white" stroke="#666666" points="416.5,-35.5 299.5,-35.5 299.5,-5.5 416.5,-5.5 416.5,-35.5"/>
<text text-anchor="start" x="307.5" y="-23.5" font-family="Helvetica,sans-Serif" font-size="10.00">Engine/Source/Editor</text>
<text text-anchor="middle" x="358" y="-12.5" font-family="Helvetica,sans-Serif" font-size="10.00">/ImGui/ImGuiUI.cpp</text>
</a>
</g>
</g>
<!-- Node3&#45;&gt;Node5 -->
<g id="edge4_Node000003_Node000005" class="edge">
<title>Node3&#45;&gt;Node5</title>
<g id="a_edge4_Node000003_Node000005"><a xlink:title=" ">
<path fill="none" stroke="#63b8ff" d="M671.98,-77.34C604.28,-70.2 508.65,-58.26 426,-41 418.67,-39.47 410.97,-37.56 403.49,-35.54"/>
<polygon fill="#63b8ff" stroke="#63b8ff" points="671.87,-80.85 682.18,-78.4 672.59,-73.88 671.87,-80.85"/>
</a>
</g>
</g>
<!-- Node6 -->
<g id="Node000006" class="node">
<title>Node6</title>
<g id="a_Node000006"><a xlink:href="HierarchyPanel_8cpp.html" target="_top" xlink:title=" ">
<polygon fill="white" stroke="#666666" points="587,-41 435,-41 435,0 587,0 587,-41"/>
<text text-anchor="start" x="443" y="-29" font-family="Helvetica,sans-Serif" font-size="10.00">Engine/Source/Editor</text>
<text text-anchor="start" x="443" y="-18" font-family="Helvetica,sans-Serif" font-size="10.00">/Panels/Hierarchy/Hierarchy</text>
<text text-anchor="middle" x="511" y="-7" font-family="Helvetica,sans-Serif" font-size="10.00">Panel.cpp</text>
</a>
</g>
</g>
<!-- Node3&#45;&gt;Node6 -->
<g id="edge5_Node000003_Node000006" class="edge">
<title>Node3&#45;&gt;Node6</title>
<g id="a_edge5_Node000003_Node000006"><a xlink:title=" ">
<path fill="none" stroke="#63b8ff" d="M716.6,-74.34C680.93,-65.18 629.54,-51.97 587.06,-41.05"/>
<polygon fill="#63b8ff" stroke="#63b8ff" points="716.12,-77.84 726.68,-76.94 717.86,-71.06 716.12,-77.84"/>
</a>
</g>
</g>
<!-- Node7 -->
<g id="Node000007" class="node">
<title>Node7</title>
<g id="a_Node000007"><a xlink:href="InspectorPanel_8cpp.html" target="_top" xlink:title=" ">
<polygon fill="white" stroke="#666666" points="752.5,-41 605.5,-41 605.5,0 752.5,0 752.5,-41"/>
<text text-anchor="start" x="613.5" y="-29" font-family="Helvetica,sans-Serif" font-size="10.00">Engine/Source/Editor</text>
<text text-anchor="start" x="613.5" y="-18" font-family="Helvetica,sans-Serif" font-size="10.00">/Panels/Inspector/Inspector</text>
<text text-anchor="middle" x="679" y="-7" font-family="Helvetica,sans-Serif" font-size="10.00">Panel.cpp</text>
</a>
</g>
</g>
<!-- Node3&#45;&gt;Node7 -->
<g id="edge6_Node000003_Node000007" class="edge">
<title>Node3&#45;&gt;Node7</title>
<g id="a_edge6_Node000003_Node000007"><a xlink:title=" ">
<path fill="none" stroke="#63b8ff" d="M740.91,-70.41C729.79,-61.63 715.65,-50.46 703.69,-41.01"/>
<polygon fill="#63b8ff" stroke="#63b8ff" points="739.06,-73.42 749.08,-76.87 743.4,-67.92 739.06,-73.42"/>
</a>
</g>
</g>
<!-- Node8 -->
<g id="Node000008" class="node">
<title>Node8</title>
<g id="a_Node000008"><a xlink:href="ProjectBrowserPanel_8cpp.html" target="_top" xlink:title="ProjectBrowserPanelの実装。">
<polygon fill="white" stroke="#666666" points="911,-41 771,-41 771,0 911,0 911,-41"/>
<text text-anchor="start" x="779" y="-29" font-family="Helvetica,sans-Serif" font-size="10.00">Engine/Source/Editor</text>
<text text-anchor="start" x="779" y="-18" font-family="Helvetica,sans-Serif" font-size="10.00">/Panels/ProjectBrowser</text>
<text text-anchor="middle" x="841" y="-7" font-family="Helvetica,sans-Serif" font-size="10.00">/ProjectBrowserPanel.cpp</text>
</a>
</g>
</g>
<!-- Node3&#45;&gt;Node8 -->
<g id="edge7_Node000003_Node000008" class="edge">
<title>Node3&#45;&gt;Node8</title>
<g id="a_edge7_Node000003_Node000008"><a xlink:title=" ">
<path fill="none" stroke="#63b8ff" d="M779.09,-70.41C790.21,-61.63 804.35,-50.46 816.31,-41.01"/>
<polygon fill="#63b8ff" stroke="#63b8ff" points="776.6,-67.92 770.92,-76.87 780.94,-73.42 776.6,-67.92"/>
</a>
</g>
</g>
<!-- Node9 -->
<g id="Node000009" class="node">
<title>Node9</title>
<g id="a_Node000009"><a xlink:href="SceneViewPanel_8cpp.html" target="_top" xlink:title=" ">
<polygon fill="white" stroke="#666666" points="1093,-41 929,-41 929,0 1093,0 1093,-41"/>
<text text-anchor="start" x="937" y="-29" font-family="Helvetica,sans-Serif" font-size="10.00">Engine/Source/Editor</text>
<text text-anchor="start" x="937" y="-18" font-family="Helvetica,sans-Serif" font-size="10.00">/Panels/SceneView/SceneView</text>
<text text-anchor="middle" x="1011" y="-7" font-family="Helvetica,sans-Serif" font-size="10.00">Panel.cpp</text>
</a>
</g>
</g>
<!-- Node3&#45;&gt;Node9 -->
<g id="edge8_Node000003_Node000009" class="edge">
<title>Node3&#45;&gt;Node9</title>
<g id="a_edge8_Node000003_Node000009"><a xlink:title=" ">
<path fill="none" stroke="#63b8ff" d="M803.29,-74.46C839.26,-65.29 891.32,-52.02 934.33,-41.05"/>
<polygon fill="#63b8ff" stroke="#63b8ff" points="802.42,-71.07 793.59,-76.94 804.15,-77.86 802.42,-71.07"/>
</a>
</g>
</g>
<!-- Node10 -->
<g id="Node000010" class="node">
<title>Node10</title>
<g id="a_Node000010"><a xlink:href="EditorFileSystem_8cpp.html" target="_top" xlink:title="EditorFileSystemの実装。">
<polygon fill="white" stroke="#666666" points="1259,-35.5 1111,-35.5 1111,-5.5 1259,-5.5 1259,-35.5"/>
<text text-anchor="start" x="1119" y="-23.5" font-family="Helvetica,sans-Serif" font-size="10.00">Engine/Source/Editor</text>
<text text-anchor="middle" x="1185" y="-12.5" font-family="Helvetica,sans-Serif" font-size="10.00">/Utils/EditorFileSystem.cpp</text>
</a>
</g>
</g>
<!-- Node3&#45;&gt;Node10 -->
<g id="edge9_Node000003_Node000010" class="edge">
<title>Node3&#45;&gt;Node10</title>
<g id="a_edge9_Node000003_Node000010"><a xlink:title=" ">
<path fill="none" stroke="#63b8ff" d="M847.77,-76.56C917.09,-68.9 1016.1,-56.64 1102,-41 1110.59,-39.44 1119.63,-37.56 1128.46,-35.59"/>
<polygon fill="#63b8ff" stroke="#63b8ff" points="847.33,-73.09 837.77,-77.65 848.09,-80.04 847.33,-73.09"/>
</a>
</g>
</g>
<!-- Node11 -->
<g id="Node000011" class="node">
<title>Node11</title>
<g id="a_Node000011"><a xlink:href="Application_8cpp.html" target="_top" xlink:title=" ">
<polygon fill="white" stroke="#666666" points="1407,-35.5 1277,-35.5 1277,-5.5 1407,-5.5 1407,-35.5"/>
<text text-anchor="start" x="1285" y="-23.5" font-family="Helvetica,sans-Serif" font-size="10.00">Engine/Source/Runtime</text>
<text text-anchor="middle" x="1342" y="-12.5" font-family="Helvetica,sans-Serif" font-size="10.00">/Application.cpp</text>
</a>
</g>
</g>
<!-- Node3&#45;&gt;Node11 -->
<g id="edge10_Node000003_Node000011" class="edge">
<title>Node3&#45;&gt;Node11</title>
<g id="a_edge10_Node000003_Node000011"><a xlink:title=" ">
<path fill="none" stroke="#63b8ff" d="M847.78,-82.35C949.52,-77.65 1121.91,-66.46 1268,-41 1276.25,-39.56 1284.91,-37.65 1293.3,-35.59"/>
<polygon fill="#63b8ff" stroke="#63b8ff" points="847.39,-78.86 837.56,-82.81 847.7,-85.86 847.39,-78.86"/>
</a>
</g>
</g>
<!-- Node12 -->
<g id="Node000012" class="node">
<title>Node12</title>
<g id="a_Node000012"><a xlink:href="AssetRegistry_8cpp.html" target="_top" xlink:title="AssetRegistryの実装。">
<polygon fill="white" stroke="#666666" points="1579,-35.5 1425,-35.5 1425,-5.5 1579,-5.5 1579,-35.5"/>
<text text-anchor="start" x="1433" y="-23.5" font-family="Helvetica,sans-Serif" font-size="10.00">Engine/Source/Runtime</text>
<text text-anchor="middle" x="1502" y="-12.5" font-family="Helvetica,sans-Serif" font-size="10.00">/Resource/AssetRegistry.cpp</text>
</a>
</g>
</g>
<!-- Node3&#45;&gt;Node12 -->
<g id="edge11_Node000003_Node000012" class="edge">
<title>Node3&#45;&gt;Node12</title>
<g id="a_edge11_Node000003_Node000012"><a xlink:title=" ">
<path fill="none" stroke="#63b8ff" d="M847.67,-83.87C973.91,-80.55 1213.93,-70.58 1416,-41 1425.69,-39.58 1435.92,-37.65 1445.8,-35.56"/>
<polygon fill="#63b8ff" stroke="#63b8ff" points="847.58,-80.37 837.67,-84.13 847.75,-87.37 847.58,-80.37"/>
</a>
</g>
</g>
<!-- Node13 -->
<g id="Node000013" class="node">
<title>Node13</title>
<g id="a_Node000013"><a xlink:href="AssetSerializer_8cpp.html" target="_top" xlink:title="AssetSerializerの実装。">
<polygon fill="white" stroke="#666666" points="1757,-35.5 1597,-35.5 1597,-5.5 1757,-5.5 1757,-35.5"/>
<text text-anchor="start" x="1605" y="-23.5" font-family="Helvetica,sans-Serif" font-size="10.00">Engine/Source/Runtime</text>
<text text-anchor="middle" x="1677" y="-12.5" font-family="Helvetica,sans-Serif" font-size="10.00">/Resource/AssetSerializer.cpp</text>
</a>
</g>
</g>
<!-- Node3&#45;&gt;Node13 -->
<g id="edge12_Node000003_Node000013" class="edge">
<title>Node3&#45;&gt;Node13</title>
<g id="a_edge12_Node000003_Node000013"><a xlink:title=" ">
<path fill="none" stroke="#63b8ff" d="M847.92,-85.44C999.63,-84.29 1320.08,-77.31 1588,-41 1598.19,-39.62 1608.94,-37.68 1619.31,-35.56"/>
<polygon fill="#63b8ff" stroke="#63b8ff" points="847.71,-81.94 837.73,-85.51 847.76,-88.94 847.71,-81.94"/>
</a>
</g>
</g>
</g>
</svg>
