<?xml version="1.0" encoding="UTF-8" standalone="no"?>
<!DOCTYPE svg PUBLIC "-//W3C//DTD SVG 1.1//EN"
 "http://www.w3.org/Graphics/SVG/1.1/DTD/svg11.dtd">
<!-- Generated by graphviz version 2.43.0 (0)
 -->
<!-- Title: Engine/Source/Runtime/Scene/Scene.h Pages: 1 -->
<svg width="1767pt" height="313pt"
 viewBox="0.00 0.00 1766.50 313.00" xmlns="http://www.w3.org/2000/svg" xmlns:xlink="http://www.w3.org/1999/xlink">
<g id="graph0" class="graph" transform="scale(1 1) rotate(0) translate(4 309)">
<title>Engine/Source/Runtime/Scene/Scene.h</title>
<!-- Node1 -->
<g id="Node000001" class="node">
<title>Node1</title>
<g id="a_Node000001"><a xlink:title="ゲームシーン全体を管理するコンテナクラス。">
<polygon fill="#999999" stroke="#666666" points="945.5,-305 815.5,-305 815.5,-275 945.5,-275 945.5,-305"/>
<text text-anchor="start" x="823.5" y="-293" font-family="Helvetica,sans-Serif" font-size="10.00">Engine/Source/Runtime</text>
<text text-anchor="middle" x="880.5" y="-282" font-family="Helvetica,sans-Serif" font-size="10.00">/Scene/Scene.h</text>
</a>
</g>
</g>
<!-- Node2 -->
<g id="Node000002" class="node">
<title>Node2</title>
<g id="a_Node000002"><a xlink:href="Application_8h.html" target="_top" xlink:title="エンジンのメインループとライフサイクル管理。">
<polygon fill="white" stroke="#666666" points="622.5,-239 492.5,-239 492.5,-209 622.5,-209 622.5,-239"/>
<text text-anchor="start" x="500.5" y="-227" font-family="Helvetica,sans-Serif" font-size="10.00">Engine/Source/Runtime</text>
<text text-anchor="middle" x="557.5" y="-216" font-family="Helvetica,sans-Serif" font-size="10.00">/Application.h</text>
</a>
</g>
</g>
<!-- Node1&#45;&gt;Node2 -->
<g id="edge1_Node000001_Node000002" class="edge">
<title>Node1&#45;&gt;Node2</title>
<g id="a_edge1_Node000001_Node000002"><a xlink:title=" ">
<path fill="none" stroke="#63b8ff" d="M805.05,-274.05C749.77,-263.1 675.5,-248.38 622.77,-237.93"/>
<polygon fill="#63b8ff" stroke="#63b8ff" points="804.65,-277.54 815.14,-276.05 806.01,-270.67 804.65,-277.54"/>
</a>
</g>
</g>
<!-- Node19 -->
<g id="Node000019" class="node">
<title>Node19</title>
<g id="a_Node000019"><a xlink:href="RenderingSystem_8h.html" target="_top" xlink:title="描画コマンド発行システム。">
<polygon fill="white" stroke="#666666" points="960.5,-173 800.5,-173 800.5,-132 960.5,-132 960.5,-173"/>
<text text-anchor="start" x="808.5" y="-161" font-family="Helvetica,sans-Serif" font-size="10.00">Engine/Source/Runtime</text>
<text text-anchor="start" x="808.5" y="-150" font-family="Helvetica,sans-Serif" font-size="10.00">/Systems/Graphics/Rendering</text>
<text text-anchor="middle" x="880.5" y="-139" font-family="Helvetica,sans-Serif" font-size="10.00">System.h</text>
</a>
</g>
</g>
<!-- Node1&#45;&gt;Node19 -->
<g id="edge25_Node000001_Node000019" class="edge">
<title>Node1&#45;&gt;Node19</title>
<g id="a_edge25_Node000001_Node000019"><a xlink:title=" ">
<path fill="none" stroke="#63b8ff" d="M880.5,-264.54C880.5,-238.38 880.5,-197.39 880.5,-173.21"/>
<polygon fill="#63b8ff" stroke="#63b8ff" points="877,-264.76 880.5,-274.76 884,-264.76 877,-264.76"/>
</a>
</g>
</g>
<!-- Node20 -->
<g id="Node000020" class="node">
<title>Node20</title>
<g id="a_Node000020"><a xlink:href="SceneSerializer_8h.html" target="_top" xlink:title="ECSワールド(シーン)のデータをJSON形式で保存・読み込みするクラス。">
<polygon fill="white" stroke="#666666" points="1114,-167.5 979,-167.5 979,-137.5 1114,-137.5 1114,-167.5"/>
<text text-anchor="start" x="987" y="-155.5" font-family="Helvetica,sans-Serif" font-size="10.00">Engine/Source/Runtime</text>
<text text-anchor="middle" x="1046.5" y="-144.5" font-family="Helvetica,sans-Serif" font-size="10.00">/Scene/SceneSerializer.h</text>
</a>
</g>
</g>
<!-- Node1&#45;&gt;Node20 -->
<g id="edge22_Node000001_Node000020" class="edge">
<title>Node1&#45;&gt;Node20</title>
<g id="a_edge22_Node000001_Node000020"><a xlink:title=" ">
<path fill="none" stroke="#63b8ff" d="M906.06,-268.14C940.26,-240.22 999.98,-191.48 1029.28,-167.55"/>
<polygon fill="#63b8ff" stroke="#63b8ff" points="903.48,-265.72 897.95,-274.76 907.91,-271.14 903.48,-265.72"/>
</a>
</g>
</g>
<!-- Node3 -->
<g id="Node000003" class="node">
<title>Node3</title>
<g id="a_Node000003"><a xlink:href="MaterialPreviewer_8cpp.html" target="_top" xlink:title="MaterialPreviewerの実装。">
<polygon fill="white" stroke="#666666" points="211,-167.5 0,-167.5 0,-137.5 211,-137.5 211,-167.5"/>
<text text-anchor="start" x="8" y="-155.5" font-family="Helvetica,sans-Serif" font-size="10.00">Engine/Source/Editor</text>
<text text-anchor="middle" x="105.5" y="-144.5" font-family="Helvetica,sans-Serif" font-size="10.00">/Panels/Inspector/MaterialPreviewer.cpp</text>
</a>
</g>
</g>
<!-- Node2&#45;&gt;Node3 -->
<g id="edge2_Node000002_Node000003" class="edge">
<title>Node2&#45;&gt;Node3</title>
<g id="a_edge2_Node000002_Node000003"><a xlink:title=" ">
<path fill="none" stroke="#63b8ff" d="M482.05,-212.34C413.5,-202.53 309.62,-187.37 219.5,-173 208.69,-171.28 197.32,-169.4 186.11,-167.52"/>
<polygon fill="#63b8ff" stroke="#63b8ff" points="481.93,-215.85 492.32,-213.8 482.92,-208.92 481.93,-215.85"/>
</a>
</g>
</g>
<!-- Node4 -->
<g id="Node000004" class="node">
<title>Node4</title>
<g id="a_Node000004"><a xlink:href="FileDialog_8cpp.html" target="_top" xlink:title="FileDialogの実装">
<polygon fill="white" stroke="#666666" points="346,-167.5 229,-167.5 229,-137.5 346,-137.5 346,-167.5"/>
<text text-anchor="start" x="237" y="-155.5" font-family="Helvetica,sans-Serif" font-size="10.00">Engine/Source/Editor</text>
<text text-anchor="middle" x="287.5" y="-144.5" font-family="Helvetica,sans-Serif" font-size="10.00">/Utils/FileDialog.cpp</text>
</a>
</g>
</g>
<!-- Node2&#45;&gt;Node4 -->
<g id="edge3_Node000002_Node000004" class="edge">
<title>Node2&#45;&gt;Node4</title>
<g id="a_edge3_Node000002_Node000004"><a xlink:title=" ">
<path fill="none" stroke="#63b8ff" d="M491.42,-206.45C453.15,-196.81 404.07,-184.35 360.5,-173 353.77,-171.25 346.7,-169.39 339.72,-167.53"/>
<polygon fill="#63b8ff" stroke="#63b8ff" points="490.86,-209.91 501.41,-208.96 492.57,-203.13 490.86,-209.91"/>
</a>
</g>
</g>
<!-- Node5 -->
<g id="Node000005" class="node">
<title>Node5</title>
<g id="a_Node000005"><a xlink:href="Application_8cpp.html" target="_top" xlink:title=" ">
<polygon fill="white" stroke="#666666" points="131.5,-35.5 1.5,-35.5 1.5,-5.5 131.5,-5.5 131.5,-35.5"/>
<text text-anchor="start" x="9.5" y="-23.5" font-family="Helvetica,sans-Serif" font-size="10.00">Engine/Source/Runtime</text>
<text text-anchor="middle" x="66.5" y="-12.5" font-family="Helvetica,sans-Serif" font-size="10.00">/Application.cpp</text>
</a>
</g>
</g>
<!-- Node2&#45;&gt;Node5 -->
<g id="edge4_Node000002_Node000005" class="edge">
<title>Node2&#45;&gt;Node5</title>
<g id="a_edge4_Node000002_Node000005"><a xlink:title=" ">
<path fill="none" stroke="#63b8ff" d="M482.6,-208.79C453.37,-201.1 420.46,-189.65 393.5,-173 372.1,-159.79 375.42,-145.96 354.5,-132 313.07,-104.36 179.81,-58.55 110.03,-35.57"/>
<polygon fill="#63b8ff" stroke="#63b8ff" points="481.81,-212.2 492.36,-211.26 483.53,-205.42 481.81,-212.2"/>
</a>
</g>
</g>
<!-- Node6 -->
<g id="Node000006" class="node">
<title>Node6</title>
<g id="a_Node000006"><a xlink:href="EntryPoint_8h.html" target="_top" xlink:title="アプリケーションのエントリーポイント (main関数)。">
<polygon fill="white" stroke="#666666" points="532.5,-167.5 402.5,-167.5 402.5,-137.5 532.5,-137.5 532.5,-167.5"/>
<text text-anchor="start" x="410.5" y="-155.5" font-family="Helvetica,sans-Serif" font-size="10.00">Engine/Source/Runtime</text>
<text text-anchor="middle" x="467.5" y="-144.5" font-family="Helvetica,sans-Serif" font-size="10.00">/EntryPoint.h</text>
</a>
</g>
</g>
<!-- Node2&#45;&gt;Node6 -->
<g id="edge5_Node000002_Node000006" class="edge">
<title>Node2&#45;&gt;Node6</title>
<g id="a_edge5_Node000002_Node000006"><a xlink:title=" ">
<path fill="none" stroke="#63b8ff" d="M531.12,-202.63C516.51,-191.35 498.73,-177.62 485.69,-167.54"/>
<polygon fill="#63b8ff" stroke="#63b8ff" points="529.23,-205.59 539.29,-208.94 533.51,-200.05 529.23,-205.59"/>
</a>
</g>
</g>
<!-- Node7 -->
<g id="Node000007" class="node">
<title>Node7</title>
<g id="a_Node000007"><a xlink:href="CameraSystem_8h.html" target="_top" xlink:title="カメラ行列の更新とレンダラーへの適用。">
<polygon fill="white" stroke="#666666" points="744.5,-167.5 550.5,-167.5 550.5,-137.5 744.5,-137.5 744.5,-167.5"/>
<text text-anchor="start" x="558.5" y="-155.5" font-family="Helvetica,sans-Serif" font-size="10.00">Engine/Source/Runtime</text>
<text text-anchor="middle" x="647.5" y="-144.5" font-family="Helvetica,sans-Serif" font-size="10.00">/Systems/Graphics/CameraSystem.h</text>
</a>
</g>
</g>
<!-- Node2&#45;&gt;Node7 -->
<g id="edge6_Node000002_Node000007" class="edge">
<title>Node2&#45;&gt;Node7</title>
<g id="a_edge6_Node000002_Node000007"><a xlink:title=" ">
<path fill="none" stroke="#63b8ff" d="M583.88,-202.63C598.49,-191.35 616.27,-177.62 629.31,-167.54"/>
<polygon fill="#63b8ff" stroke="#63b8ff" points="581.49,-200.05 575.71,-208.94 585.77,-205.59 581.49,-200.05"/>
</a>
</g>
</g>
<!-- Node8 -->
<g id="Node000008" class="node">
<title>Node8</title>
<g id="a_Node000008"><a xlink:href="SpanEngine_8h.html" target="_top" xlink:title=" ">
<polygon fill="white" stroke="#666666" points="904,-96 749,-96 749,-77 904,-77 904,-96"/>
<text text-anchor="middle" x="826.5" y="-84" font-family="Helvetica,sans-Serif" font-size="10.00">Engine/Source/SpanEngine.h</text>
</a>
</g>
</g>
<!-- Node2&#45;&gt;Node8 -->
<g id="edge21_Node000002_Node000008" class="edge">
<title>Node2&#45;&gt;Node8</title>
<g id="a_edge21_Node000002_Node000008"><a xlink:title=" ">
<path fill="none" stroke="#63b8ff" d="M632.84,-214.8C671.19,-207.99 717.24,-195.58 753.5,-173 761.91,-167.76 802.88,-117.07 819.49,-96.3"/>
<polygon fill="#63b8ff" stroke="#63b8ff" points="632.04,-211.38 622.76,-216.49 633.2,-218.29 632.04,-211.38"/>
</a>
</g>
</g>
<!-- Node2&#45;&gt;Node19 -->
<g id="edge19_Node000002_Node000019" class="edge">
<title>Node2&#45;&gt;Node19</title>
<g id="a_edge19_Node000002_Node000019"><a xlink:title=" ">
<path fill="none" stroke="#63b8ff" d="M632.7,-206.82C682.99,-196 749.08,-181.78 800.36,-170.74"/>
<polygon fill="#63b8ff" stroke="#63b8ff" points="631.9,-203.41 622.86,-208.94 633.38,-210.25 631.9,-203.41"/>
</a>
</g>
</g>
<!-- Node7&#45;&gt;Node8 -->
<g id="edge7_Node000007_Node000008" class="edge">
<title>Node7&#45;&gt;Node8</title>
<g id="a_edge7_Node000007_Node000008"><a xlink:title=" ">
<path fill="none" stroke="#63b8ff" d="M696.23,-134.08C730.78,-121.73 775.63,-105.69 802.68,-96.02"/>
<polygon fill="#63b8ff" stroke="#63b8ff" points="695.02,-130.79 686.78,-137.45 697.38,-137.38 695.02,-130.79"/>
</a>
</g>
</g>
<!-- Node8&#45;&gt;Node5 -->
<g id="edge15_Node000008_Node000005" class="edge">
<title>Node8&#45;&gt;Node5</title>
<g id="a_edge15_Node000008_Node000005"><a xlink:title=" ">
<path fill="none" stroke="#63b8ff" d="M738.41,-85.2C607.26,-83.53 353.26,-75.6 140.5,-41 131.98,-39.61 123.01,-37.67 114.38,-35.55"/>
<polygon fill="#63b8ff" stroke="#63b8ff" points="738.75,-88.7 748.79,-85.32 738.84,-81.7 738.75,-88.7"/>
</a>
</g>
</g>
<!-- Node9 -->
<g id="Node000009" class="node">
<title>Node9</title>
<g id="a_Node000009"><a xlink:href="GuiManager_8cpp.html" target="_top" xlink:title=" ">
<polygon fill="white" stroke="#666666" points="267,-35.5 150,-35.5 150,-5.5 267,-5.5 267,-35.5"/>
<text text-anchor="start" x="158" y="-23.5" font-family="Helvetica,sans-Serif" font-size="10.00">Engine/Source/Editor</text>
<text text-anchor="middle" x="208.5" y="-12.5" font-family="Helvetica,sans-Serif" font-size="10.00">/GuiManager.cpp</text>
</a>
</g>
</g>
<!-- Node8&#45;&gt;Node9 -->
<g id="edge8_Node000008_Node000009" class="edge">
<title>Node8&#45;&gt;Node9</title>
<g id="a_edge8_Node000008_Node000009"><a xlink:title=" ">
<path fill="none" stroke="#63b8ff" d="M738.42,-83.87C629.04,-80.6 437.12,-70.73 275.5,-41 267.87,-39.6 259.87,-37.68 252.16,-35.59"/>
<polygon fill="#63b8ff" stroke="#63b8ff" points="738.65,-87.38 748.74,-84.17 738.85,-80.38 738.65,-87.38"/>
</a>
</g>
</g>
<!-- Node10 -->
<g id="Node000010" class="node">
<title>Node10</title>
<g id="a_Node000010"><a xlink:href="ImGuiUI_8cpp.html" target="_top" xlink:title=" ">
<polygon fill="white" stroke="#666666" points="402,-35.5 285,-35.5 285,-5.5 402,-5.5 402,-35.5"/>
<text text-anchor="start" x="293" y="-23.5" font-family="Helvetica,sans-Serif" font-size="10.00">Engine/Source/Editor</text>
<text text-anchor="middle" x="343.5" y="-12.5" font-family="Helvetica,sans-Serif" font-size="10.00">/ImGui/ImGuiUI.cpp</text>
</a>
</g>
</g>
<!-- Node8&#45;&gt;Node10 -->
<g id="edge9_Node000008_Node000010" class="edge">
<title>Node8&#45;&gt;Node10</title>
<g id="a_edge9_Node000008_Node000010"><a xlink:title=" ">
<path fill="none" stroke="#63b8ff" d="M738.59,-80.49C654.13,-74.63 523.23,-62.84 411.5,-41 403.91,-39.52 395.93,-37.58 388.22,-35.51"/>
<polygon fill="#63b8ff" stroke="#63b8ff" points="738.44,-83.98 748.65,-81.17 738.91,-77 738.44,-83.98"/>
</a>
</g>
</g>
<!-- Node11 -->
<g id="Node000011" class="node">
<title>Node11</title>
<g id="a_Node000011"><a xlink:href="HierarchyPanel_8cpp.html" target="_top" xlink:title=" ">
<polygon fill="white" stroke="#666666" points="572.5,-41 420.5,-41 420.5,0 572.5,0 572.5,-41"/>
<text text-anchor="start" x="428.5" y="-29" font-family="Helvetica,sans-Serif" font-size="10.00">Engine/Source/Editor</text>
<text text-anchor="start" x="428.5" y="-18" font-family="Helvetica,sans-Serif" font-size="10.00">/Panels/Hierarchy/Hierarchy</text>
<text text-anchor="middle" x="496.5" y="-7" font-family="Helvetica,sans-Serif" font-size="10.00">Panel.cpp</text>
</a>
</g>
</g>
<!-- Node8&#45;&gt;Node11 -->
<g id="edge10_Node000008_Node000011" class="edge">
<title>Node8&#45;&gt;Node11</title>
<g id="a_edge10_Node000008_Node000011"><a xlink:title=" ">
<path fill="none" stroke="#63b8ff" d="M765.76,-75.26C716.09,-66.7 644.1,-53.86 581.5,-41 578.68,-40.42 575.81,-39.82 572.92,-39.21"/>
<polygon fill="#63b8ff" stroke="#63b8ff" points="765.24,-78.73 775.69,-76.97 766.43,-71.83 765.24,-78.73"/>
</a>
</g>
</g>
<!-- Node12 -->
<g id="Node000012" class="node">
<title>Node12</title>
<g id="a_Node000012"><a xlink:href="InspectorPanel_8cpp.html" target="_top" xlink:title=" ">
<polygon fill="white" stroke="#666666" points="738,-41 591,-41 591,0 738,0 738,-41"/>
<text text-anchor="start" x="599" y="-29" font-family="Helvetica,sans-Serif" font-size="10.00">Engine/Source/Editor</text>
<text text-anchor="start" x="599" y="-18" font-family="Helvetica,sans-Serif" font-size="10.00">/Panels/Inspector/Inspector</text>
<text text-anchor="middle" x="664.5" y="-7" font-family="Helvetica,sans-Serif" font-size="10.00">Panel.cpp</text>
</a>
</g>
</g>
<!-- Node8&#45;&gt;Node12 -->
<g id="edge11_Node000008_Node000012" class="edge">
<title>Node8&#45;&gt;Node12</title>
<g id="a_edge11_Node000008_Node000012"><a xlink:title=" ">
<path fill="none" stroke="#63b8ff" d="M795.35,-73.19C772.29,-64.08 740.4,-51.49 713.88,-41.01"/>
<polygon fill="#63b8ff" stroke="#63b8ff" points="794.07,-76.45 804.65,-76.87 796.64,-69.94 794.07,-76.45"/>
</a>
</g>
</g>
<!-- Node13 -->
<g id="Node000013" class="node">
<title>Node13</title>
<g id="a_Node000013"><a xlink:href="ProjectBrowserPanel_8cpp.html" target="_top" xlink:title="ProjectBrowserPanelの実装。">
<polygon fill="white" stroke="#666666" points="896.5,-41 756.5,-41 756.5,0 896.5,0 896.5,-41"/>
<text text-anchor="start" x="764.5" y="-29" font-family="Helvetica,sans-Serif" font-size="10.00">Engine/Source/Editor</text>
<text text-anchor="start" x="764.5" y="-18" font-family="Helvetica,sans-Serif" font-size="10.00">/Panels/ProjectBrowser</text>
<text text-anchor="middle" x="826.5" y="-7" font-family="Helvetica,sans-Serif" font-size="10.00">/ProjectBrowserPanel.cpp</text>
</a>
</g>
</g>
<!-- Node8&#45;&gt;Node13 -->
<g id="edge12_Node000008_Node000013" class="edge">
<title>Node8&#45;&gt;Node13</title>
<g id="a_edge12_Node000008_Node000013"><a xlink:title=" ">
<path fill="none" stroke="#63b8ff" d="M826.5,-66.63C826.5,-58.56 826.5,-49.15 826.5,-41.01"/>
<polygon fill="#63b8ff" stroke="#63b8ff" points="823,-66.87 826.5,-76.87 830,-66.87 823,-66.87"/>
</a>
</g>
</g>
<!-- Node14 -->
<g id="Node000014" class="node">
<title>Node14</title>
<g id="a_Node000014"><a xlink:href="SceneViewPanel_8cpp.html" target="_top" xlink:title=" ">
<polygon fill="white" stroke="#666666" points="1078.5,-41 914.5,-41 914.5,0 1078.5,0 1078.5,-41"/>
<text text-anchor="start" x="922.5" y="-29" font-family="Helvetica,sans-Serif" font-size="10.00">Engine/Source/Editor</text>
<text text-anchor="start" x="922.5" y="-18" font-family="Helvetica,sans-Serif" font-size="10.00">/Panels/SceneView/SceneView</text>
<text text-anchor="middle" x="996.5" y="-7" font-family="Helvetica,sans-Serif" font-size="10.00">Panel.cpp</text>
</a>
</g>
</g>
<!-- Node8&#45;&gt;Node14 -->
<g id="edge13_Node000008_Node000014" class="edge">
<title>Node8&#45;&gt;Node14</title>
<g id="a_edge13_Node000008_Node000014"><a xlink:title=" ">
<path fill="none" stroke="#63b8ff" d="M858.87,-73.32C883.09,-64.19 916.72,-51.53 944.68,-41.01"/>
<polygon fill="#63b8ff" stroke="#63b8ff" points="857.55,-70.07 849.43,-76.87 860.02,-76.62 857.55,-70.07"/>
</a>
</g>
</g>
<!-- Node15 -->
<g id="Node000015" class="node">
<title>Node15</title>
<g id="a_Node000015"><a xlink:href="EditorFileSystem_8cpp.html" target="_top" xlink:title="EditorFileSystemの実装。">
<polygon fill="white" stroke="#666666" points="1244.5,-35.5 1096.5,-35.5 1096.5,-5.5 1244.5,-5.5 1244.5,-35.5"/>
<text text-anchor="start" x="1104.5" y="-23.5" font-family="Helvetica,sans-Serif" font-size="10.00">Engine/Source/Editor</text>
<text text-anchor="middle" x="1170.5" y="-12.5" font-family="Helvetica,sans-Serif" font-size="10.00">/Utils/EditorFileSystem.cpp</text>
</a>
</g>
</g>
<!-- Node8&#45;&gt;Node15 -->
<g id="edge14_Node000008_Node000015" class="edge">
<title>Node8&#45;&gt;Node15</title>
<g id="a_edge14_Node000008_Node000015"><a xlink:title=" ">
<path fill="none" stroke="#63b8ff" d="M892.37,-75.43C945.26,-67.06 1021.37,-54.39 1087.5,-41 1095.62,-39.35 1104.17,-37.5 1112.55,-35.6"/>
<polygon fill="#63b8ff" stroke="#63b8ff" points="891.77,-71.98 882.44,-76.99 892.86,-78.89 891.77,-71.98"/>
</a>
</g>
</g>
<!-- Node16 -->
<g id="Node000016" class="node">
<title>Node16</title>
<g id="a_Node000016"><a xlink:href="AssetRegistry_8cpp.html" target="_top" xlink:title="AssetRegistryの実装。">
<polygon fill="white" stroke="#666666" points="1416.5,-35.5 1262.5,-35.5 1262.5,-5.5 1416.5,-5.5 1416.5,-35.5"/>
<text text-anchor="start" x="1270.5" y="-23.5" font-family="Helvetica,sans-Serif" font-size="10.00">Engine/Source/Runtime</text>
<text text-anchor="middle" x="1339.5" y="-12.5" font-family="Helvetica,sans-Serif" font-size="10.00">/Resource/AssetRegistry.cpp</text>
</a>
</g>
</g>
<!-- Node8&#45;&gt;Node16 -->
<g id="edge16_Node000008_Node000016" class="edge">
<title>Node8&#45;&gt;Node16</title>
<g id="a_edge16_Node000008_Node000016"><a xlink:title=" ">
<path fill="none" stroke="#63b8ff" d="M914.06,-79.44C1000.66,-72.73 1136.78,-60.24 1253.5,-41 1262.71,-39.48 1272.42,-37.58 1281.86,-35.56"/>
<polygon fill="#63b8ff" stroke="#63b8ff" points="913.71,-75.96 904.01,-80.21 914.25,-82.94 913.71,-75.96"/>
</a>
</g>
</g>
<!-- Node17 -->
<g id="Node000017" class="node">
<title>Node17</title>
<g id="a_Node000017"><a xlink:href="AssetSerializer_8cpp.html" target="_top" xlink:title="AssetSerializerの実装。">
<polygon fill="white" stroke="#666666" points="1594.5,-35.5 1434.5,-35.5 1434.5,-5.5 1594.5,-5.5 1594.5,-35.5"/>
<text text-anchor="start" x="1442.5" y="-23.5" font-family="Helvetica,sans-Serif" font-size="10.00">Engine/Source/Runtime</text>
<text text-anchor="middle" x="1514.5" y="-12.5" font-family="Helvetica,sans-Serif" font-size="10.00">/Resource/AssetSerializer.cpp</text>
</a>
</g>
</g>
<!-- Node8&#45;&gt;Node17 -->
<g id="edge17_Node000008_Node000017" class="edge">
<title>Node8&#45;&gt;Node17</title>
<g id="a_edge17_Node000008_Node000017"><a xlink:title=" ">
<path fill="none" stroke="#63b8ff" d="M914.42,-82.86C1031.55,-78.46 1245.02,-67.34 1425.5,-41 1435.36,-39.56 1445.76,-37.65 1455.83,-35.58"/>
<polygon fill="#63b8ff" stroke="#63b8ff" points="914.29,-79.36 904.42,-83.23 914.55,-86.36 914.29,-79.36"/>
</a>
</g>
</g>
<!-- Node18 -->
<g id="Node000018" class="node">
<title>Node18</title>
<g id="a_Node000018"><a xlink:href="SceneSerializer_8cpp.html" target="_top" xlink:title="SceneSerializerの実装。">
<polygon fill="white" stroke="#666666" points="1758.5,-35.5 1612.5,-35.5 1612.5,-5.5 1758.5,-5.5 1758.5,-35.5"/>
<text text-anchor="start" x="1620.5" y="-23.5" font-family="Helvetica,sans-Serif" font-size="10.00">Engine/Source/Runtime</text>
<text text-anchor="middle" x="1685.5" y="-12.5" font-family="Helvetica,sans-Serif" font-size="10.00">/Scene/SceneSerializer.cpp</text>
</a>
</g>
</g>
<!-- Node8&#45;&gt;Node18 -->
<g id="edge18_Node000008_Node000018" class="edge">
<title>Node8&#45;&gt;Node18</title>
<g id="a_edge18_Node000008_Node000018"><a xlink:title=" ">
<path fill="none" stroke="#63b8ff" d="M914.29,-85.49C1058.79,-84.36 1355.44,-77.31 1603.5,-41 1612.91,-39.62 1622.83,-37.69 1632.39,-35.57"/>
<polygon fill="#63b8ff" stroke="#63b8ff" points="914.13,-81.99 904.15,-85.57 914.18,-88.99 914.13,-81.99"/>
</a>
</g>
</g>
<!-- Node19&#45;&gt;Node8 -->
<g id="edge20_Node000019_Node000008" class="edge">
<title>Node19&#45;&gt;Node8</title>
<g id="a_edge20_Node000019_Node000008"><a xlink:title=" ">
<path fill="none" stroke="#63b8ff" d="M857.4,-124.13C848.95,-114.11 839.98,-103.47 833.89,-96.26"/>
<polygon fill="#63b8ff" stroke="#63b8ff" points="854.88,-126.56 864,-131.95 860.23,-122.05 854.88,-126.56"/>
</a>
</g>
</g>
<!-- Node20&#45;&gt;Node8 -->
<g id="edge24_Node000020_Node000008" class="edge">
<title>Node20&#45;&gt;Node8</title>
<g id="a_edge24_Node000020_Node000008"><a xlink:title=" ">
<path fill="none" stroke="#63b8ff" d="M988.51,-134.63C945.8,-122.21 889.52,-105.83 855.78,-96.02"/>
<polygon fill="#63b8ff" stroke="#63b8ff" points="987.64,-138.02 998.22,-137.45 989.6,-131.3 987.64,-138.02"/>
</a>
</g>
</g>
<!-- Node20&#45;&gt;Node18 -->
<g id="edge23_Node000020_Node000018" class="edge">
<title>Node20&#45;&gt;Node18</title>
<g id="a_edge23_Node000020_Node000018"><a xlink:title=" ">
<path fill="none" stroke="#63b8ff" d="M1124.56,-136.97C1232.47,-116.68 1433.2,-78.13 1603.5,-41 1611.36,-39.29 1619.63,-37.41 1627.77,-35.52"/>
<polygon fill="#63b8ff" stroke="#63b8ff" points="1123.59,-133.6 1114.41,-138.88 1124.88,-140.48 1123.59,-133.6"/>
</a>
</g>
</g>
</g>
</svg>
