<?xml version="1.0" encoding="UTF-8" standalone="no"?>
<!DOCTYPE svg PUBLIC "-//W3C//DTD SVG 1.1//EN"
 "http://www.w3.org/Graphics/SVG/1.1/DTD/svg11.dtd">
<!-- Generated by graphviz version 2.43.0 (0)
 -->
<!-- Title: Engine/Source/Runtime/Graphics/Passes/ShadowPass.h Pages: 1 -->
<!--zoomable 324 -->

<svg id="main" version="1.1" xmlns="http://www.w3.org/2000/svg" xmlns:xlink="http://www.w3.org/1999/xlink" xml:space="preserve" onload="init(evt)">

<style type="text/css"><![CDATA[
.node, .edge {opacity: 0.7;}
.node.selected, .edge.selected {opacity: 1;}
.edge:hover path { stroke: red; }
.edge:hover polygon { stroke: red; fill: red; }
]]></style>

<defs>
  <circle id="rim" cx="0" cy="0" r="7"/>
  <circle id="rim2" cx="0" cy="0" r="3.5"/>
  <g id="zoomPlus">
    <use xlink:href="#rim" fill="#404040"><set attributeName="fill" to="#808080" begin="zoomplus.mouseover" end="zoomplus.mouseout"/></use>
    <path d="M-4,0h8M0,-4v8" fill="none" stroke="white" stroke-width="1.5" pointer-events="none"/>
  </g>
  <g id="zoomMin">
    <use xlink:href="#rim" fill="#404040"><set attributeName="fill" to="#808080" begin="zoomminus.mouseover" end="zoomminus.mouseout"/></use>
    <path d="M-4,0h8" fill="none" stroke="white" stroke-width="1.5" pointer-events="none"/>
  </g>
  <g id="arrowUp" transform="translate(30 24)">
    <use xlink:href="#rim"/>
    <path pointer-events="none" fill="none" stroke="white" stroke-width="1.5" d="M0,-3.0v7 M-2.5,-0.5L0,-3.0L2.5,-0.5"/>
  </g>
  <g id="arrowRight" transform="rotate(90) translate(36 -43)">
    <use xlink:href="#rim"/>
    <path pointer-events="none" fill="none" stroke="white" stroke-width="1.5" d="M0,-3.0v7 M-2.5,-0.5L0,-3.0L2.5,-0.5"/>
  </g>
  <g id="arrowDown" transform="rotate(180) translate(-30 -48)">
    <use xlink:href="#rim"/>
    <path pointer-events="none" fill="none" stroke="white" stroke-width="1.5" d="M0,-3.0v7 M-2.5,-0.5L0,-3.0L2.5,-0.5"/>
  </g>
  <g id="arrowLeft" transform="rotate(270) translate(-36 17)">
    <use xlink:href="#rim"/>
    <path pointer-events="none" fill="none" stroke="white" stroke-width="1.5" d="M0,-3.0v7 M-2.5,-0.5L0,-3.0L2.5,-0.5"/>
  </g>
  <g id="resetDef">
    <use xlink:href="#rim2" fill="#404040"><set attributeName="fill" to="#808080" begin="reset.mouseover" end="reset.mouseout"/></use>
  </g>
</defs>
<script type="application/ecmascript">
var viewWidth = 3141;
var viewHeight = 324;
var sectionId = 'dynsection-0';
</script>
<script type="application/ecmascript" xlink:href="svg.min.js"/>
<svg id="graph" class="graph">
<g id="viewport">
<title>Engine/Source/Runtime/Graphics/Passes/ShadowPass.h</title>
<!-- Node1 -->
<g id="Node000001" class="node">
<title>Node1</title>
<g id="a_Node000001"><a xlink:title="Directional Light からのシャドウマップ生成パス。">
<polygon fill="#999999" stroke="#666666" points="1636,-316 1466,-316 1466,-286 1636,-286 1636,-316"/>
<text text-anchor="start" x="1474" y="-304" font-family="Helvetica,sans-Serif" font-size="10.00">Engine/Source/Runtime</text>
<text text-anchor="middle" x="1551" y="-293" font-family="Helvetica,sans-Serif" font-size="10.00">/Graphics/Passes/ShadowPass.h</text>
</a>
</g>
</g>
<!-- Node2 -->
<g id="Node000002" class="node">
<title>Node2</title>
<g id="a_Node000002"><a xlink:href="CoreMinimal_8h.html" target="_top" xlink:title="エンジンの標準インクルードファイル。">
<polygon fill="white" stroke="#666666" points="1462.5,-74 1349.5,-74 1349.5,-55 1462.5,-55 1462.5,-74"/>
<text text-anchor="middle" x="1406" y="-62" font-family="Helvetica,sans-Serif" font-size="10.00">Core/CoreMinimal.h</text>
</a>
</g>
</g>
<!-- Node1&#45;&gt;Node2 -->
<g id="edge1_Node000001_Node000002" class="edge">
<title>Node1&#45;&gt;Node2</title>
<g id="a_edge1_Node000001_Node000002"><a xlink:title=" ">
<path fill="none" stroke="#63b8ff" d="M1565.29,-285.85C1597.66,-252.08 1670.36,-165.51 1625,-110 1606.01,-86.76 1529.99,-75.36 1472.8,-69.97"/>
<polygon fill="#63b8ff" stroke="#63b8ff" points="1473,-66.48 1462.72,-69.07 1472.37,-73.45 1473,-66.48"/>
</a>
</g>
</g>
<!-- Node42 -->
<g id="Node000042" class="node">
<title>Node42</title>
<g id="a_Node000042"><a xlink:href="Shader_8h.html" target="_top" xlink:title="HLSLシェーダーのロードとコンパイル管理。">
<polygon fill="white" stroke="#666666" points="1616,-129 1486,-129 1486,-110 1616,-110 1616,-129"/>
<text text-anchor="middle" x="1551" y="-117" font-family="Helvetica,sans-Serif" font-size="10.00">Graphics/Core/Shader.h</text>
</a>
</g>
</g>
<!-- Node1&#45;&gt;Node42 -->
<g id="edge42_Node000001_Node000042" class="edge">
<title>Node1&#45;&gt;Node42</title>
<g id="a_edge42_Node000001_Node000042"><a xlink:title=" ">
<path fill="none" stroke="#63b8ff" d="M1551,-285.91C1551,-253.85 1551,-175.38 1551,-139.26"/>
<polygon fill="#63b8ff" stroke="#63b8ff" points="1554.5,-139.13 1551,-129.13 1547.5,-139.13 1554.5,-139.13"/>
</a>
</g>
</g>
<!-- Node43 -->
<g id="Node000043" class="node">
<title>Node43</title>
<g id="a_Node000043"><a xlink:href="ShadowMap_8h.html" target="_top" xlink:title="シャドウマッピング用の深度テクスチャ管理。">
<polygon fill="white" stroke="#666666" points="1828,-250 1672,-250 1672,-231 1828,-231 1828,-250"/>
<text text-anchor="middle" x="1750" y="-238" font-family="Helvetica,sans-Serif" font-size="10.00">Graphics/Core/ShadowMap.h</text>
</a>
</g>
</g>
<!-- Node1&#45;&gt;Node43 -->
<g id="edge44_Node000001_Node000043" class="edge">
<title>Node1&#45;&gt;Node43</title>
<g id="a_edge44_Node000001_Node000043"><a xlink:title=" ">
<path fill="none" stroke="#63b8ff" d="M1598.67,-285.99C1633.01,-275.89 1678.78,-262.44 1710.96,-252.98"/>
<polygon fill="#63b8ff" stroke="#63b8ff" points="1712.3,-256.23 1720.9,-250.05 1710.32,-249.52 1712.3,-256.23"/>
</a>
</g>
</g>
<!-- Node44 -->
<g id="Node000044" class="node">
<title>Node44</title>
<g id="a_Node000044"><a xlink:href="Mesh_8h.html" target="_top" xlink:title="3Dモデルの形状データ (頂点バッファ) 管理。">
<polygon fill="white" stroke="#666666" points="950.5,-195 837.5,-195 837.5,-165 950.5,-165 950.5,-195"/>
<text text-anchor="start" x="845.5" y="-183" font-family="Helvetica,sans-Serif" font-size="10.00">Graphics/Resources</text>
<text text-anchor="middle" x="894" y="-172" font-family="Helvetica,sans-Serif" font-size="10.00">/Mesh.h</text>
</a>
</g>
</g>
<!-- Node1&#45;&gt;Node44 -->
<g id="edge46_Node000001_Node000044" class="edge">
<title>Node1&#45;&gt;Node44</title>
<g id="a_edge46_Node000001_Node000044"><a xlink:title=" ">
<path fill="none" stroke="#63b8ff" d="M1465.91,-292.14C1386.77,-284.1 1265.81,-269.96 1162,-250 1088.27,-235.83 1004.69,-213.25 950.76,-197.8"/>
<polygon fill="#63b8ff" stroke="#63b8ff" points="951.62,-194.41 941.04,-195.01 949.68,-201.14 951.62,-194.41"/>
</a>
</g>
</g>
<!-- Node47 -->
<g id="Node000047" class="node">
<title>Node47</title>
<g id="a_Node000047"><a xlink:href="Renderer_8h.html" target="_top" xlink:title="描画パイプラインの構築と実行。">
<polygon fill="white" stroke="#666666" points="1286.5,-250 1171.5,-250 1171.5,-231 1286.5,-231 1286.5,-250"/>
<text text-anchor="middle" x="1229" y="-238" font-family="Helvetica,sans-Serif" font-size="10.00">Graphics/Renderer.h</text>
</a>
</g>
</g>
<!-- Node1&#45;&gt;Node47 -->
<g id="edge51_Node000001_Node000047" class="edge">
<title>Node1&#45;&gt;Node47</title>
<g id="a_edge51_Node000001_Node000047"><a xlink:title=" ">
<path fill="none" stroke="#63b8ff" d="M1473.87,-285.99C1416.14,-275.5 1338.44,-261.38 1286.18,-251.89"/>
<polygon fill="#63b8ff" stroke="#63b8ff" points="1286.55,-248.4 1276.08,-250.05 1285.29,-255.28 1286.55,-248.4"/>
</a>
</g>
</g>
<!-- Node3 -->
<g id="Node000003" class="node">
<title>Node3</title>
<g id="a_Node000003"><a xlink:title=" ">
<polygon fill="#e0e0e0" stroke="#999999" points="2838,-19 2768,-19 2768,0 2838,0 2838,-19"/>
<text text-anchor="middle" x="2803" y="-7" font-family="Helvetica,sans-Serif" font-size="10.00">Windows.h</text>
</a>
</g>
</g>
<!-- Node2&#45;&gt;Node3 -->
<g id="edge2_Node000002_Node000003" class="edge">
<title>Node2&#45;&gt;Node3</title>
<g id="a_edge2_Node000002_Node000003"><a xlink:title=" ">
<path fill="none" stroke="#63b8ff" d="M1462.74,-62.83C1682.95,-60.04 2481.96,-48.18 2757.56,-18.94"/>
<polygon fill="#63b8ff" stroke="#63b8ff" points="2757.97,-22.42 2767.53,-17.85 2757.21,-15.46 2757.97,-22.42"/>
</a>
</g>
</g>
<!-- Node4 -->
<g id="Node000004" class="node">
<title>Node4</title>
<g id="a_Node000004"><a xlink:title=" ">
<polygon fill="#e0e0e0" stroke="#999999" points="2897.5,-19 2856.5,-19 2856.5,0 2897.5,0 2897.5,-19"/>
<text text-anchor="middle" x="2877" y="-7" font-family="Helvetica,sans-Serif" font-size="10.00">wrl.h</text>
</a>
</g>
</g>
<!-- Node2&#45;&gt;Node4 -->
<g id="edge3_Node000002_Node000004" class="edge">
<title>Node2&#45;&gt;Node4</title>
<g id="a_edge3_Node000002_Node000004"><a xlink:title=" ">
<path fill="none" stroke="#63b8ff" d="M1462.53,-63.6C1691.67,-63.73 2552.55,-61.43 2846.28,-18.57"/>
<polygon fill="#63b8ff" stroke="#63b8ff" points="2847.13,-21.98 2856.49,-17.03 2846.08,-15.06 2847.13,-21.98"/>
</a>
</g>
</g>
<!-- Node5 -->
<g id="Node000005" class="node">
<title>Node5</title>
<g id="a_Node000005"><a xlink:title=" ">
<polygon fill="#e0e0e0" stroke="#999999" points="2986.5,-19 2915.5,-19 2915.5,0 2986.5,0 2986.5,-19"/>
<text text-anchor="middle" x="2951" y="-7" font-family="Helvetica,sans-Serif" font-size="10.00">wrl/client.h</text>
</a>
</g>
</g>
<!-- Node2&#45;&gt;Node5 -->
<g id="edge4_Node000002_Node000005" class="edge">
<title>Node2&#45;&gt;Node5</title>
<g id="a_edge4_Node000002_Node000005"><a xlink:title=" ">
<path fill="none" stroke="#63b8ff" d="M1462.77,-63.04C1698.12,-60.96 2598.67,-51.08 2904.85,-19.03"/>
<polygon fill="#63b8ff" stroke="#63b8ff" points="2905.49,-22.49 2915.05,-17.93 2904.74,-15.53 2905.49,-22.49"/>
</a>
</g>
</g>
<!-- Node6 -->
<g id="Node000006" class="node">
<title>Node6</title>
<g id="a_Node000006"><a xlink:title=" ">
<polygon fill="#e0e0e0" stroke="#999999" points="3055,-19 3005,-19 3005,0 3055,0 3055,-19"/>
<text text-anchor="middle" x="3030" y="-7" font-family="Helvetica,sans-Serif" font-size="10.00">cstdint</text>
</a>
</g>
</g>
<!-- Node2&#45;&gt;Node6 -->
<g id="edge5_Node000002_Node000006" class="edge">
<title>Node2&#45;&gt;Node6</title>
<g id="a_edge5_Node000002_Node000006"><a xlink:title=" ">
<path fill="none" stroke="#63b8ff" d="M1462.83,-63.56C1707.11,-63.57 2669.79,-60.97 2994.52,-18.82"/>
<polygon fill="#63b8ff" stroke="#63b8ff" points="2995.42,-22.23 3004.87,-17.43 2994.49,-15.29 2995.42,-22.23"/>
</a>
</g>
</g>
<!-- Node7 -->
<g id="Node000007" class="node">
<title>Node7</title>
<g id="a_Node000007"><a xlink:title=" ">
<polygon fill="#e0e0e0" stroke="#999999" points="3133,-19 3073,-19 3073,0 3133,0 3133,-19"/>
<text text-anchor="middle" x="3103" y="-7" font-family="Helvetica,sans-Serif" font-size="10.00">iostream</text>
</a>
</g>
</g>
<!-- Node2&#45;&gt;Node7 -->
<g id="edge6_Node000002_Node000007" class="edge">
<title>Node2&#45;&gt;Node7</title>
<g id="a_edge6_Node000002_Node000007"><a xlink:title=" ">
<path fill="none" stroke="#63b8ff" d="M1462.66,-63.41C1713.17,-62.78 2723.51,-57.91 3062.78,-18.85"/>
<polygon fill="#63b8ff" stroke="#63b8ff" points="3063.34,-22.31 3072.86,-17.65 3062.52,-15.36 3063.34,-22.31"/>
</a>
</g>
</g>
<!-- Node8 -->
<g id="Node000008" class="node">
<title>Node8</title>
<g id="a_Node000008"><a xlink:title=" ">
<polygon fill="#e0e0e0" stroke="#999999" points="239.5,-19 186.5,-19 186.5,0 239.5,0 239.5,-19"/>
<text text-anchor="middle" x="213" y="-7" font-family="Helvetica,sans-Serif" font-size="10.00">string.h</text>
</a>
</g>
</g>
<!-- Node2&#45;&gt;Node8 -->
<g id="edge7_Node000002_Node000008" class="edge">
<title>Node2&#45;&gt;Node8</title>
<g id="a_edge7_Node000002_Node000008"><a xlink:title=" ">
<path fill="none" stroke="#63b8ff" d="M1349.37,-62.77C1150.7,-60 485.25,-48.76 249.84,-18.74"/>
<polygon fill="#63b8ff" stroke="#63b8ff" points="250,-15.24 239.63,-17.39 249.08,-22.17 250,-15.24"/>
</a>
</g>
</g>
<!-- Node9 -->
<g id="Node000009" class="node">
<title>Node9</title>
<g id="a_Node000009"><a xlink:title=" ">
<polygon fill="#e0e0e0" stroke="#999999" points="302,-19 258,-19 258,0 302,0 302,-19"/>
<text text-anchor="middle" x="280" y="-7" font-family="Helvetica,sans-Serif" font-size="10.00">string</text>
</a>
</g>
</g>
<!-- Node2&#45;&gt;Node9 -->
<g id="edge8_Node000002_Node000009" class="edge">
<title>Node2&#45;&gt;Node9</title>
<g id="a_edge8_Node000002_Node000009"><a xlink:title=" ">
<path fill="none" stroke="#63b8ff" d="M1349.36,-62.89C1157.68,-60.58 533.45,-50.86 312.14,-18.74"/>
<polygon fill="#63b8ff" stroke="#63b8ff" points="312.63,-15.27 302.22,-17.24 311.59,-22.2 312.63,-15.27"/>
</a>
</g>
</g>
<!-- Node10 -->
<g id="Node000010" class="node">
<title>Node10</title>
<g id="a_Node000010"><a xlink:title=" ">
<polygon fill="#e0e0e0" stroke="#999999" points="367.5,-19 320.5,-19 320.5,0 367.5,0 367.5,-19"/>
<text text-anchor="middle" x="344" y="-7" font-family="Helvetica,sans-Serif" font-size="10.00">vector</text>
</a>
</g>
</g>
<!-- Node2&#45;&gt;Node10 -->
<g id="edge9_Node000002_Node000010" class="edge">
<title>Node2&#45;&gt;Node10</title>
<g id="a_edge9_Node000002_Node000010"><a xlink:title=" ">
<path fill="none" stroke="#63b8ff" d="M1349.19,-62.66C1165.05,-59.7 585.09,-48.36 377.54,-18.86"/>
<polygon fill="#63b8ff" stroke="#63b8ff" points="378.05,-15.39 367.64,-17.39 377.02,-22.32 378.05,-15.39"/>
</a>
</g>
</g>
<!-- Node11 -->
<g id="Node000011" class="node">
<title>Node11</title>
<g id="a_Node000011"><a xlink:title=" ">
<polygon fill="#e0e0e0" stroke="#999999" points="432.5,-19 385.5,-19 385.5,0 432.5,0 432.5,-19"/>
<text text-anchor="middle" x="409" y="-7" font-family="Helvetica,sans-Serif" font-size="10.00">deque</text>
</a>
</g>
</g>
<!-- Node2&#45;&gt;Node11 -->
<g id="edge10_Node000002_Node000011" class="edge">
<title>Node2&#45;&gt;Node11</title>
<g id="a_edge10_Node000002_Node000011"><a xlink:title=" ">
<path fill="none" stroke="#63b8ff" d="M1349.36,-62.48C1173.44,-59.05 637.15,-46.69 442.75,-18.89"/>
<polygon fill="#63b8ff" stroke="#63b8ff" points="443.05,-15.4 432.65,-17.38 442.02,-22.32 443.05,-15.4"/>
</a>
</g>
</g>
<!-- Node12 -->
<g id="Node000012" class="node">
<title>Node12</title>
<g id="a_Node000012"><a xlink:title=" ">
<polygon fill="#e0e0e0" stroke="#999999" points="543.5,-19 450.5,-19 450.5,0 543.5,0 543.5,-19"/>
<text text-anchor="middle" x="497" y="-7" font-family="Helvetica,sans-Serif" font-size="10.00">unordered_map</text>
</a>
</g>
</g>
<!-- Node2&#45;&gt;Node12 -->
<g id="edge11_Node000002_Node000012" class="edge">
<title>Node2&#45;&gt;Node12</title>
<g id="a_edge11_Node000002_Node000012"><a xlink:title=" ">
<path fill="none" stroke="#63b8ff" d="M1349.46,-62.47C1213.95,-59.6 859.83,-49.65 553.66,-18.95"/>
<polygon fill="#63b8ff" stroke="#63b8ff" points="554.01,-15.47 543.71,-17.94 553.3,-22.43 554.01,-15.47"/>
</a>
</g>
</g>
<!-- Node13 -->
<g id="Node000013" class="node">
<title>Node13</title>
<g id="a_Node000013"><a xlink:title=" ">
<polygon fill="#e0e0e0" stroke="#999999" points="600,-19 562,-19 562,0 600,0 600,-19"/>
<text text-anchor="middle" x="581" y="-7" font-family="Helvetica,sans-Serif" font-size="10.00">map</text>
</a>
</g>
</g>
<!-- Node2&#45;&gt;Node13 -->
<g id="edge12_Node000002_Node000013" class="edge">
<title>Node2&#45;&gt;Node13</title>
<g id="a_edge12_Node000002_Node000013"><a xlink:title=" ">
<path fill="none" stroke="#63b8ff" d="M1349.41,-62.1C1195.43,-58.01 770.31,-44.82 610.28,-18.71"/>
<polygon fill="#63b8ff" stroke="#63b8ff" points="610.58,-15.21 600.13,-16.97 609.4,-22.1 610.58,-15.21"/>
</a>
</g>
</g>
<!-- Node14 -->
<g id="Node000014" class="node">
<title>Node14</title>
<g id="a_Node000014"><a xlink:title=" ">
<polygon fill="#e0e0e0" stroke="#999999" points="676,-19 618,-19 618,0 676,0 676,-19"/>
<text text-anchor="middle" x="647" y="-7" font-family="Helvetica,sans-Serif" font-size="10.00">memory</text>
</a>
</g>
</g>
<!-- Node2&#45;&gt;Node14 -->
<g id="edge13_Node000002_Node000014" class="edge">
<title>Node2&#45;&gt;Node14</title>
<g id="a_edge13_Node000002_Node000014"><a xlink:title=" ">
<path fill="none" stroke="#63b8ff" d="M1349.14,-63.04C1228.57,-61.42 938.33,-54.01 686.45,-18.97"/>
<polygon fill="#63b8ff" stroke="#63b8ff" points="686.76,-15.48 676.37,-17.55 685.79,-22.41 686.76,-15.48"/>
</a>
</g>
</g>
<!-- Node15 -->
<g id="Node000015" class="node">
<title>Node15</title>
<g id="a_Node000015"><a xlink:title=" ">
<polygon fill="#e0e0e0" stroke="#999999" points="168,-19 104,-19 104,0 168,0 168,-19"/>
<text text-anchor="middle" x="136" y="-7" font-family="Helvetica,sans-Serif" font-size="10.00">algorithm</text>
</a>
</g>
</g>
<!-- Node2&#45;&gt;Node15 -->
<g id="edge14_Node000002_Node000015" class="edge">
<title>Node2&#45;&gt;Node15</title>
<g id="a_edge14_Node000002_Node000015"><a xlink:title=" ">
<path fill="none" stroke="#63b8ff" d="M1349.16,-62.71C1142.19,-59.65 428.33,-47.32 178.27,-18.89"/>
<polygon fill="#63b8ff" stroke="#63b8ff" points="178.49,-15.39 168.14,-17.7 177.67,-22.34 178.49,-15.39"/>
</a>
</g>
</g>
<!-- Node16 -->
<g id="Node000016" class="node">
<title>Node16</title>
<g id="a_Node000016"><a xlink:title=" ">
<polygon fill="#e0e0e0" stroke="#999999" points="759.5,-19 694.5,-19 694.5,0 759.5,0 759.5,-19"/>
<text text-anchor="middle" x="727" y="-7" font-family="Helvetica,sans-Serif" font-size="10.00">functional</text>
</a>
</g>
</g>
<!-- Node2&#45;&gt;Node16 -->
<g id="edge15_Node000002_Node000016" class="edge">
<title>Node2&#45;&gt;Node16</title>
<g id="a_edge15_Node000002_Node000016"><a xlink:title=" ">
<path fill="none" stroke="#63b8ff" d="M1349.08,-62C1239.08,-58.57 989.55,-48.17 770.05,-18.95"/>
<polygon fill="#63b8ff" stroke="#63b8ff" points="770.32,-15.46 759.95,-17.59 769.39,-22.39 770.32,-15.46"/>
</a>
</g>
</g>
<!-- Node17 -->
<g id="Node000017" class="node">
<title>Node17</title>
<g id="a_Node000017"><a xlink:title=" ">
<polygon fill="#e0e0e0" stroke="#999999" points="828,-19 778,-19 778,0 828,0 828,-19"/>
<text text-anchor="middle" x="803" y="-7" font-family="Helvetica,sans-Serif" font-size="10.00">chrono</text>
</a>
</g>
</g>
<!-- Node2&#45;&gt;Node17 -->
<g id="edge16_Node000002_Node000017" class="edge">
<title>Node2&#45;&gt;Node17</title>
<g id="a_edge16_Node000002_Node000017"><a xlink:title=" ">
<path fill="none" stroke="#63b8ff" d="M1349.5,-62.2C1248.58,-59.2 1030.67,-49.65 838.17,-18.91"/>
<polygon fill="#63b8ff" stroke="#63b8ff" points="838.58,-15.43 828.15,-17.29 837.47,-22.34 838.58,-15.43"/>
</a>
</g>
</g>
<!-- Node18 -->
<g id="Node000018" class="node">
<title>Node18</title>
<g id="a_Node000018"><a xlink:title=" ">
<polygon fill="#e0e0e0" stroke="#999999" points="892,-19 846,-19 846,0 892,0 892,-19"/>
<text text-anchor="middle" x="869" y="-7" font-family="Helvetica,sans-Serif" font-size="10.00">cstdio</text>
</a>
</g>
</g>
<!-- Node2&#45;&gt;Node18 -->
<g id="edge17_Node000002_Node000018" class="edge">
<title>Node2&#45;&gt;Node18</title>
<g id="a_edge17_Node000002_Node000018"><a xlink:title=" ">
<path fill="none" stroke="#63b8ff" d="M1349.16,-61.67C1257.08,-58.01 1069.53,-47.68 902.29,-18.93"/>
<polygon fill="#63b8ff" stroke="#63b8ff" points="902.77,-15.46 892.32,-17.19 901.56,-22.36 902.77,-15.46"/>
</a>
</g>
</g>
<!-- Node19 -->
<g id="Node000019" class="node">
<title>Node19</title>
<g id="a_Node000019"><a xlink:title=" ">
<polygon fill="#e0e0e0" stroke="#999999" points="962,-19 910,-19 910,0 962,0 962,-19"/>
<text text-anchor="middle" x="936" y="-7" font-family="Helvetica,sans-Serif" font-size="10.00">cassert</text>
</a>
</g>
</g>
<!-- Node2&#45;&gt;Node19 -->
<g id="edge18_Node000002_Node000019" class="edge">
<title>Node2&#45;&gt;Node19</title>
<g id="a_edge18_Node000002_Node000019"><a xlink:title=" ">
<path fill="none" stroke="#63b8ff" d="M1349.36,-60.18C1267.97,-54.86 1113.15,-42.72 972.4,-19.02"/>
<polygon fill="#63b8ff" stroke="#63b8ff" points="972.74,-15.53 962.29,-17.29 971.56,-22.43 972.74,-15.53"/>
</a>
</g>
</g>
<!-- Node20 -->
<g id="Node000020" class="node">
<title>Node20</title>
<g id="a_Node000020"><a xlink:title=" ">
<polygon fill="#e0e0e0" stroke="#999999" points="1045.5,-19 980.5,-19 980.5,0 1045.5,0 1045.5,-19"/>
<text text-anchor="middle" x="1013" y="-7" font-family="Helvetica,sans-Serif" font-size="10.00">typeindex</text>
</a>
</g>
</g>
<!-- Node2&#45;&gt;Node20 -->
<g id="edge19_Node000002_Node000020" class="edge">
<title>Node2&#45;&gt;Node20</title>
<g id="a_edge19_Node000002_Node000020"><a xlink:title=" ">
<path fill="none" stroke="#63b8ff" d="M1349.28,-57.61C1281.76,-50.3 1165.41,-36.81 1055.45,-18.95"/>
<polygon fill="#63b8ff" stroke="#63b8ff" points="1055.95,-15.49 1045.52,-17.33 1054.82,-22.4 1055.95,-15.49"/>
</a>
</g>
</g>
<!-- Node21 -->
<g id="Node000021" class="node">
<title>Node21</title>
<g id="a_Node000021"><a xlink:title=" ">
<polygon fill="#e0e0e0" stroke="#999999" points="1132,-19 1064,-19 1064,0 1132,0 1132,-19"/>
<text text-anchor="middle" x="1098" y="-7" font-family="Helvetica,sans-Serif" font-size="10.00">filesystem</text>
</a>
</g>
</g>
<!-- Node2&#45;&gt;Node21 -->
<g id="edge20_Node000002_Node000021" class="edge">
<title>Node2&#45;&gt;Node21</title>
<g id="a_edge20_Node000002_Node000021"><a xlink:title=" ">
<path fill="none" stroke="#63b8ff" d="M1352.37,-54.96C1300.98,-46.67 1220.98,-33.49 1142.33,-19.2"/>
<polygon fill="#63b8ff" stroke="#63b8ff" points="1142.72,-15.71 1132.25,-17.36 1141.46,-22.6 1142.72,-15.71"/>
</a>
</g>
</g>
<!-- Node22 -->
<g id="Node000022" class="node">
<title>Node22</title>
<g id="a_Node000022"><a xlink:title=" ">
<polygon fill="#e0e0e0" stroke="#999999" points="1182,-19 1150,-19 1150,0 1182,0 1182,-19"/>
<text text-anchor="middle" x="1166" y="-7" font-family="Helvetica,sans-Serif" font-size="10.00">set</text>
</a>
</g>
</g>
<!-- Node2&#45;&gt;Node22 -->
<g id="edge21_Node000002_Node000022" class="edge">
<title>Node2&#45;&gt;Node22</title>
<g id="a_edge21_Node000002_Node000022"><a xlink:title=" ">
<path fill="none" stroke="#63b8ff" d="M1356.06,-54.97C1314.44,-47.46 1253.48,-35.52 1191.93,-18.98"/>
<polygon fill="#63b8ff" stroke="#63b8ff" points="1192.62,-15.54 1182.05,-16.28 1190.77,-22.29 1192.62,-15.54"/>
</a>
</g>
</g>
<!-- Node23 -->
<g id="Node000023" class="node">
<title>Node23</title>
<g id="a_Node000023"><a xlink:title=" ">
<polygon fill="#e0e0e0" stroke="#999999" points="1255.5,-19 1200.5,-19 1200.5,0 1255.5,0 1255.5,-19"/>
<text text-anchor="middle" x="1228" y="-7" font-family="Helvetica,sans-Serif" font-size="10.00">fstream</text>
</a>
</g>
</g>
<!-- Node2&#45;&gt;Node23 -->
<g id="edge22_Node000002_Node000023" class="edge">
<title>Node2&#45;&gt;Node23</title>
<g id="a_edge22_Node000002_Node000023"><a xlink:title=" ">
<path fill="none" stroke="#63b8ff" d="M1377.4,-54.98C1347.03,-45.94 1298.9,-31.61 1265.5,-21.67"/>
<polygon fill="#63b8ff" stroke="#63b8ff" points="1266.23,-18.23 1255.65,-18.73 1264.23,-24.94 1266.23,-18.23"/>
</a>
</g>
</g>
<!-- Node24 -->
<g id="Node000024" class="node">
<title>Node24</title>
<g id="a_Node000024"><a xlink:title=" ">
<polygon fill="#e0e0e0" stroke="#999999" points="1330,-19 1274,-19 1274,0 1330,0 1330,-19"/>
<text text-anchor="middle" x="1302" y="-7" font-family="Helvetica,sans-Serif" font-size="10.00">sstream</text>
</a>
</g>
</g>
<!-- Node2&#45;&gt;Node24 -->
<g id="edge23_Node000002_Node000024" class="edge">
<title>Node2&#45;&gt;Node24</title>
<g id="a_edge23_Node000002_Node000024"><a xlink:title=" ">
<path fill="none" stroke="#63b8ff" d="M1389.29,-54.98C1372.79,-46.57 1347.3,-33.59 1328.12,-23.81"/>
<polygon fill="#63b8ff" stroke="#63b8ff" points="1329.51,-20.59 1319.01,-19.17 1326.33,-26.83 1329.51,-20.59"/>
</a>
</g>
</g>
<!-- Node25 -->
<g id="Node000025" class="node">
<title>Node25</title>
<g id="a_Node000025"><a xlink:title=" ">
<polygon fill="#e0e0e0" stroke="#999999" points="1396,-19 1348,-19 1348,0 1396,0 1396,-19"/>
<text text-anchor="middle" x="1372" y="-7" font-family="Helvetica,sans-Serif" font-size="10.00">mutex</text>
</a>
</g>
</g>
<!-- Node2&#45;&gt;Node25 -->
<g id="edge24_Node000002_Node000025" class="edge">
<title>Node2&#45;&gt;Node25</title>
<g id="a_edge24_Node000002_Node000025"><a xlink:title=" ">
<path fill="none" stroke="#63b8ff" d="M1400.39,-54.75C1395.68,-47.42 1388.83,-36.73 1383.03,-27.7"/>
<polygon fill="#63b8ff" stroke="#63b8ff" points="1385.86,-25.62 1377.51,-19.09 1379.96,-29.4 1385.86,-25.62"/>
</a>
</g>
</g>
<!-- Node26 -->
<g id="Node000026" class="node">
<title>Node26</title>
<g id="a_Node000026"><a xlink:title=" ">
<polygon fill="#e0e0e0" stroke="#999999" points="1468,-19 1414,-19 1414,0 1468,0 1468,-19"/>
<text text-anchor="middle" x="1441" y="-7" font-family="Helvetica,sans-Serif" font-size="10.00">random</text>
</a>
</g>
</g>
<!-- Node2&#45;&gt;Node26 -->
<g id="edge25_Node000002_Node000026" class="edge">
<title>Node2&#45;&gt;Node26</title>
<g id="a_edge25_Node000002_Node000026"><a xlink:title=" ">
<path fill="none" stroke="#63b8ff" d="M1411.78,-54.75C1416.62,-47.42 1423.68,-36.73 1429.64,-27.7"/>
<polygon fill="#63b8ff" stroke="#63b8ff" points="1432.74,-29.36 1435.33,-19.09 1426.9,-25.5 1432.74,-29.36"/>
</a>
</g>
</g>
<!-- Node27 -->
<g id="Node000027" class="node">
<title>Node27</title>
<g id="a_Node000027"><a xlink:title=" ">
<polygon fill="#e0e0e0" stroke="#999999" points="1534,-19 1486,-19 1486,0 1534,0 1534,-19"/>
<text text-anchor="middle" x="1510" y="-7" font-family="Helvetica,sans-Serif" font-size="10.00">thread</text>
</a>
</g>
</g>
<!-- Node2&#45;&gt;Node27 -->
<g id="edge26_Node000002_Node000027" class="edge">
<title>Node2&#45;&gt;Node27</title>
<g id="a_edge26_Node000002_Node000027"><a xlink:title=" ">
<path fill="none" stroke="#63b8ff" d="M1422.71,-54.98C1439.21,-46.57 1464.7,-33.59 1483.88,-23.81"/>
<polygon fill="#63b8ff" stroke="#63b8ff" points="1485.67,-26.83 1492.99,-19.17 1482.49,-20.59 1485.67,-26.83"/>
</a>
</g>
</g>
<!-- Node28 -->
<g id="Node000028" class="node">
<title>Node28</title>
<g id="a_Node000028"><a xlink:title=" ">
<polygon fill="#e0e0e0" stroke="#999999" points="1602,-19 1552,-19 1552,0 1602,0 1602,-19"/>
<text text-anchor="middle" x="1577" y="-7" font-family="Helvetica,sans-Serif" font-size="10.00">atomic</text>
</a>
</g>
</g>
<!-- Node2&#45;&gt;Node28 -->
<g id="edge27_Node000002_Node000028" class="edge">
<title>Node2&#45;&gt;Node28</title>
<g id="a_edge27_Node000002_Node000028"><a xlink:title=" ">
<path fill="none" stroke="#63b8ff" d="M1433.47,-54.98C1462.95,-45.85 1509.85,-31.31 1541.96,-21.36"/>
<polygon fill="#63b8ff" stroke="#63b8ff" points="1543.31,-24.61 1551.82,-18.3 1541.24,-17.92 1543.31,-24.61"/>
</a>
</g>
</g>
<!-- Node29 -->
<g id="Node000029" class="node">
<title>Node29</title>
<g id="a_Node000029"><a xlink:title=" ">
<polygon fill="#e0e0e0" stroke="#999999" points="1669.5,-19 1620.5,-19 1620.5,0 1669.5,0 1669.5,-19"/>
<text text-anchor="middle" x="1645" y="-7" font-family="Helvetica,sans-Serif" font-size="10.00">cctype</text>
</a>
</g>
</g>
<!-- Node2&#45;&gt;Node29 -->
<g id="edge28_Node000002_Node000029" class="edge">
<title>Node2&#45;&gt;Node29</title>
<g id="a_edge28_Node000002_Node000029"><a xlink:title=" ">
<path fill="none" stroke="#63b8ff" d="M1447.31,-54.93C1486.67,-46.67 1547.83,-33.62 1610.13,-19.14"/>
<polygon fill="#63b8ff" stroke="#63b8ff" points="1611.2,-22.49 1620.14,-16.81 1609.61,-15.67 1611.2,-22.49"/>
</a>
</g>
</g>
<!-- Node30 -->
<g id="Node000030" class="node">
<title>Node30</title>
<g id="a_Node000030"><a xlink:title=" ">
<polygon fill="#e0e0e0" stroke="#999999" points="1730,-19 1688,-19 1688,0 1730,0 1730,-19"/>
<text text-anchor="middle" x="1709" y="-7" font-family="Helvetica,sans-Serif" font-size="10.00">array</text>
</a>
</g>
</g>
<!-- Node2&#45;&gt;Node30 -->
<g id="edge29_Node000002_Node000030" class="edge">
<title>Node2&#45;&gt;Node30</title>
<g id="a_edge29_Node000002_Node000030"><a xlink:title=" ">
<path fill="none" stroke="#63b8ff" d="M1462.59,-56.02C1517.84,-48.29 1604.14,-35.12 1678,-19 1678.1,-18.98 1678.2,-18.96 1678.3,-18.93"/>
<polygon fill="#63b8ff" stroke="#63b8ff" points="1678.83,-22.41 1687.73,-16.65 1677.18,-15.6 1678.83,-22.41"/>
</a>
</g>
</g>
<!-- Node31 -->
<g id="Node000031" class="node">
<title>Node31</title>
<g id="a_Node000031"><a xlink:title=" ">
<polygon fill="#e0e0e0" stroke="#999999" points="1817.5,-19 1748.5,-19 1748.5,0 1817.5,0 1817.5,-19"/>
<text text-anchor="middle" x="1783" y="-7" font-family="Helvetica,sans-Serif" font-size="10.00">type_traits</text>
</a>
</g>
</g>
<!-- Node2&#45;&gt;Node31 -->
<g id="edge30_Node000002_Node000031" class="edge">
<title>Node2&#45;&gt;Node31</title>
<g id="a_edge30_Node000002_Node000031"><a xlink:title=" ">
<path fill="none" stroke="#63b8ff" d="M1462.71,-56.94C1527.03,-49.27 1635.26,-35.67 1738.48,-18.99"/>
<polygon fill="#63b8ff" stroke="#63b8ff" points="1739.14,-22.43 1748.45,-17.37 1738.01,-15.52 1739.14,-22.43"/>
</a>
</g>
</g>
<!-- Node32 -->
<g id="Node000032" class="node">
<title>Node32</title>
<g id="a_Node000032"><a xlink:title=" ">
<polygon fill="#e0e0e0" stroke="#999999" points="1880,-19 1836,-19 1836,0 1880,0 1880,-19"/>
<text text-anchor="middle" x="1858" y="-7" font-family="Helvetica,sans-Serif" font-size="10.00">cfloat</text>
</a>
</g>
</g>
<!-- Node2&#45;&gt;Node32 -->
<g id="edge31_Node000002_Node000032" class="edge">
<title>Node2&#45;&gt;Node32</title>
<g id="a_edge31_Node000002_Node000032"><a xlink:title=" ">
<path fill="none" stroke="#63b8ff" d="M1462.78,-60.27C1541.9,-55.15 1689.84,-43.36 1825.56,-18.76"/>
<polygon fill="#63b8ff" stroke="#63b8ff" points="1826.52,-22.14 1835.72,-16.89 1825.25,-15.26 1826.52,-22.14"/>
</a>
</g>
</g>
<!-- Node33 -->
<g id="Node000033" class="node">
<title>Node33</title>
<g id="a_Node000033"><a xlink:title=" ">
<polygon fill="#e0e0e0" stroke="#999999" points="2008,-19 1898,-19 1898,0 2008,0 2008,-19"/>
<text text-anchor="middle" x="1953" y="-7" font-family="Helvetica,sans-Serif" font-size="10.00">nlohmann/json.hpp</text>
</a>
</g>
</g>
<!-- Node2&#45;&gt;Node33 -->
<g id="edge32_Node000002_Node000033" class="edge">
<title>Node2&#45;&gt;Node33</title>
<g id="a_edge32_Node000002_Node000033"><a xlink:title=" ">
<path fill="none" stroke="#63b8ff" d="M1462.59,-59.03C1551.02,-51.88 1727.59,-36.94 1887.82,-19.09"/>
<polygon fill="#63b8ff" stroke="#63b8ff" points="1888.31,-22.56 1897.86,-17.97 1887.53,-15.6 1888.31,-22.56"/>
</a>
</g>
</g>
<!-- Node34 -->
<g id="Node000034" class="node">
<title>Node34</title>
<g id="a_Node000034"><a xlink:title=" ">
<polygon fill="#e0e0e0" stroke="#999999" points="2082,-19 2026,-19 2026,0 2082,0 2082,-19"/>
<text text-anchor="middle" x="2054" y="-7" font-family="Helvetica,sans-Serif" font-size="10.00">d3d12.h</text>
</a>
</g>
</g>
<!-- Node2&#45;&gt;Node34 -->
<g id="edge33_Node000002_Node000034" class="edge">
<title>Node2&#45;&gt;Node34</title>
<g id="a_edge33_Node000002_Node000034"><a xlink:title=" ">
<path fill="none" stroke="#63b8ff" d="M1462.76,-62.26C1569.39,-59.31 1806.96,-49.75 2015.88,-18.93"/>
<polygon fill="#63b8ff" stroke="#63b8ff" points="2016.43,-22.39 2025.8,-17.45 2015.4,-15.46 2016.43,-22.39"/>
</a>
</g>
</g>
<!-- Node35 -->
<g id="Node000035" class="node">
<title>Node35</title>
<g id="a_Node000035"><a xlink:title=" ">
<polygon fill="#e0e0e0" stroke="#999999" points="2164,-19 2100,-19 2100,0 2164,0 2164,-19"/>
<text text-anchor="middle" x="2132" y="-7" font-family="Helvetica,sans-Serif" font-size="10.00">dxgi1_6.h</text>
</a>
</g>
</g>
<!-- Node2&#45;&gt;Node35 -->
<g id="edge34_Node000002_Node000035" class="edge">
<title>Node2&#45;&gt;Node35</title>
<g id="a_edge34_Node000002_Node000035"><a xlink:title=" ">
<path fill="none" stroke="#63b8ff" d="M1462.65,-62.49C1578.59,-59.85 1851.37,-50.66 2089.6,-18.99"/>
<polygon fill="#63b8ff" stroke="#63b8ff" points="2090.4,-22.41 2099.84,-17.61 2089.47,-15.47 2090.4,-22.41"/>
</a>
</g>
</g>
<!-- Node36 -->
<g id="Node000036" class="node">
<title>Node36</title>
<g id="a_Node000036"><a xlink:title=" ">
<polygon fill="#e0e0e0" stroke="#999999" points="2268,-19 2182,-19 2182,0 2268,0 2268,-19"/>
<text text-anchor="middle" x="2225" y="-7" font-family="Helvetica,sans-Serif" font-size="10.00">d3dcompiler.h</text>
</a>
</g>
</g>
<!-- Node2&#45;&gt;Node36 -->
<g id="edge35_Node000002_Node000036" class="edge">
<title>Node2&#45;&gt;Node36</title>
<g id="a_edge35_Node000002_Node000036"><a xlink:title=" ">
<path fill="none" stroke="#63b8ff" d="M1462.94,-62.22C1588.89,-58.96 1900.77,-48.47 2171.89,-19"/>
<polygon fill="#63b8ff" stroke="#63b8ff" points="2172.36,-22.47 2181.92,-17.9 2171.59,-15.51 2172.36,-22.47"/>
</a>
</g>
</g>
<!-- Node37 -->
<g id="Node000037" class="node">
<title>Node37</title>
<g id="a_Node000037"><a xlink:title=" ">
<polygon fill="#e0e0e0" stroke="#999999" points="86,-19 0,-19 0,0 86,0 86,-19"/>
<text text-anchor="middle" x="43" y="-7" font-family="Helvetica,sans-Serif" font-size="10.00">DirectXMath.h</text>
</a>
</g>
</g>
<!-- Node2&#45;&gt;Node37 -->
<g id="edge36_Node000002_Node000037" class="edge">
<title>Node2&#45;&gt;Node37</title>
<g id="a_edge36_Node000002_Node000037"><a xlink:title=" ">
<path fill="none" stroke="#63b8ff" d="M1349.19,-62.54C1133.41,-58.75 363.77,-43.85 96.15,-18.94"/>
<polygon fill="#63b8ff" stroke="#63b8ff" points="96.36,-15.45 86.07,-17.98 95.69,-22.42 96.36,-15.45"/>
</a>
</g>
</g>
<!-- Node38 -->
<g id="Node000038" class="node">
<title>Node38</title>
<g id="a_Node000038"><a xlink:title=" ">
<polygon fill="#e0e0e0" stroke="#999999" points="2403.5,-19 2286.5,-19 2286.5,0 2403.5,0 2403.5,-19"/>
<text text-anchor="middle" x="2345" y="-7" font-family="Helvetica,sans-Serif" font-size="10.00">assimp/Importer.hpp</text>
</a>
</g>
</g>
<!-- Node2&#45;&gt;Node38 -->
<g id="edge37_Node000002_Node000038" class="edge">
<title>Node2&#45;&gt;Node38</title>
<g id="a_edge37_Node000002_Node000038"><a xlink:title=" ">
<path fill="none" stroke="#63b8ff" d="M1462.66,-62.04C1600.14,-58.2 1962.54,-46.22 2276.22,-18.99"/>
<polygon fill="#63b8ff" stroke="#63b8ff" points="2276.77,-22.46 2286.42,-18.1 2276.16,-15.48 2276.77,-22.46"/>
</a>
</g>
</g>
<!-- Node39 -->
<g id="Node000039" class="node">
<title>Node39</title>
<g id="a_Node000039"><a xlink:title=" ">
<polygon fill="#e0e0e0" stroke="#999999" points="2514,-19 2422,-19 2422,0 2514,0 2514,-19"/>
<text text-anchor="middle" x="2468" y="-7" font-family="Helvetica,sans-Serif" font-size="10.00">assimp/scene.h</text>
</a>
</g>
</g>
<!-- Node2&#45;&gt;Node39 -->
<g id="edge38_Node000002_Node000039" class="edge">
<title>Node2&#45;&gt;Node39</title>
<g id="a_edge38_Node000002_Node000039"><a xlink:title=" ">
<path fill="none" stroke="#63b8ff" d="M1462.66,-63.16C1614.69,-61.79 2044.45,-54.86 2411.8,-19"/>
<polygon fill="#63b8ff" stroke="#63b8ff" points="2412.22,-22.47 2421.83,-18.01 2411.54,-15.51 2412.22,-22.47"/>
</a>
</g>
</g>
<!-- Node40 -->
<g id="Node000040" class="node">
<title>Node40</title>
<g id="a_Node000040"><a xlink:title=" ">
<polygon fill="#e0e0e0" stroke="#999999" points="2654,-19 2532,-19 2532,0 2654,0 2654,-19"/>
<text text-anchor="middle" x="2593" y="-7" font-family="Helvetica,sans-Serif" font-size="10.00">assimp/postprocess.h</text>
</a>
</g>
</g>
<!-- Node2&#45;&gt;Node40 -->
<g id="edge39_Node000002_Node000040" class="edge">
<title>Node2&#45;&gt;Node40</title>
<g id="a_edge39_Node000002_Node000040"><a xlink:title=" ">
<path fill="none" stroke="#63b8ff" d="M1462.76,-62.86C1625.79,-60.68 2109.6,-51.79 2521.91,-19.01"/>
<polygon fill="#63b8ff" stroke="#63b8ff" points="2522.26,-22.5 2531.95,-18.21 2521.7,-15.52 2522.26,-22.5"/>
</a>
</g>
</g>
<!-- Node41 -->
<g id="Node000041" class="node">
<title>Node41</title>
<g id="a_Node000041"><a xlink:href="Logger_8h.html" target="_top" xlink:title="デバッグログ出力システム">
<polygon fill="white" stroke="#666666" points="2750,-19 2672,-19 2672,0 2750,0 2750,-19"/>
<text text-anchor="middle" x="2711" y="-7" font-family="Helvetica,sans-Serif" font-size="10.00">Log/Logger.h</text>
</a>
</g>
</g>
<!-- Node2&#45;&gt;Node41 -->
<g id="edge40_Node000002_Node000041" class="edge">
<title>Node2&#45;&gt;Node41</title>
<g id="a_edge40_Node000002_Node000041"><a xlink:title=" ">
<path fill="none" stroke="#63b8ff" d="M1462.5,-62.49C1673.91,-58.66 2417.57,-43.99 2654,-19 2656.5,-18.74 2659.07,-18.42 2661.68,-18.06"/>
<polygon fill="#63b8ff" stroke="#63b8ff" points="2662.42,-21.49 2671.79,-16.54 2661.38,-14.57 2662.42,-21.49"/>
</a>
</g>
</g>
<!-- Node41&#45;&gt;Node2 -->
<g id="edge41_Node000041_Node000002" class="edge">
<title>Node41&#45;&gt;Node2</title>
<g id="a_edge41_Node000041_Node000002"><a xlink:title=" ">
<path fill="none" stroke="#63b8ff" d="M2671.65,-19.04C2436.01,-43.89 1699.16,-58.52 1472.77,-62.43"/>
<polygon fill="#63b8ff" stroke="#63b8ff" points="1472.64,-58.93 1462.7,-62.61 1472.76,-65.93 1472.64,-58.93"/>
</a>
</g>
</g>
<!-- Node42&#45;&gt;Node2 -->
<g id="edge43_Node000042_Node000002" class="edge">
<title>Node42&#45;&gt;Node2</title>
<g id="a_edge43_Node000042_Node000002"><a xlink:title=" ">
<path fill="none" stroke="#63b8ff" d="M1527.7,-109.98C1503.75,-101.23 1466.22,-87.51 1439.17,-77.62"/>
<polygon fill="#63b8ff" stroke="#63b8ff" points="1440.31,-74.32 1429.72,-74.17 1437.91,-80.89 1440.31,-74.32"/>
</a>
</g>
</g>
<!-- Node43&#45;&gt;Node2 -->
<g id="edge45_Node000043_Node000002" class="edge">
<title>Node43&#45;&gt;Node2</title>
<g id="a_edge45_Node000043_Node000002"><a xlink:title=" ">
<path fill="none" stroke="#63b8ff" d="M1746.62,-230.78C1736.91,-206.99 1706.48,-140.66 1658,-110 1627.88,-90.95 1536.56,-78.3 1472.56,-71.51"/>
<polygon fill="#63b8ff" stroke="#63b8ff" points="1472.85,-68.02 1462.54,-70.47 1472.12,-74.99 1472.85,-68.02"/>
</a>
</g>
</g>
<!-- Node44&#45;&gt;Node2 -->
<g id="edge47_Node000044_Node000002" class="edge">
<title>Node44&#45;&gt;Node2</title>
<g id="a_edge47_Node000044_Node000002"><a xlink:title=" ">
<path fill="none" stroke="#63b8ff" d="M891.92,-164.76C890.5,-148.92 891.06,-123.75 906,-110 937.22,-81.28 1210.24,-70.5 1339.15,-66.99"/>
<polygon fill="#63b8ff" stroke="#63b8ff" points="1339.39,-70.49 1349.29,-66.72 1339.2,-63.49 1339.39,-70.49"/>
</a>
</g>
</g>
<!-- Node45 -->
<g id="Node000045" class="node">
<title>Node45</title>
<g id="a_Node000045"><a xlink:href="SpanMath_8h.html" target="_top" xlink:title="算術ライブラリ (Vector, Matrix, Quaternion)。">
<polygon fill="#fff0f0" stroke="red" points="1043,-129 915,-129 915,-110 1043,-110 1043,-129"/>
<text text-anchor="middle" x="979" y="-117" font-family="Helvetica,sans-Serif" font-size="10.00">Core/Math/SpanMath.h</text>
</a>
</g>
</g>
<!-- Node44&#45;&gt;Node45 -->
<g id="edge48_Node000044_Node000045" class="edge">
<title>Node44&#45;&gt;Node45</title>
<g id="a_edge48_Node000044_Node000045"><a xlink:title=" ">
<path fill="none" stroke="#63b8ff" d="M914.58,-164.84C927.67,-155.83 944.59,-144.18 957.8,-135.09"/>
<polygon fill="#63b8ff" stroke="#63b8ff" points="960.01,-137.82 966.26,-129.27 956.04,-132.05 960.01,-137.82"/>
</a>
</g>
</g>
<!-- Node45&#45;&gt;Node15 -->
<g id="edge50_Node000045_Node000015" class="edge">
<title>Node45&#45;&gt;Node15</title>
<g id="a_edge50_Node000045_Node000015"><a xlink:title=" ">
<path fill="none" stroke="#63b8ff" d="M914.81,-112.32C780.05,-98.96 457.71,-64.97 178.11,-19.07"/>
<polygon fill="#63b8ff" stroke="#63b8ff" points="178.62,-15.6 168.18,-17.43 177.48,-22.51 178.62,-15.6"/>
</a>
</g>
</g>
<!-- Node45&#45;&gt;Node37 -->
<g id="edge49_Node000045_Node000037" class="edge">
<title>Node45&#45;&gt;Node37</title>
<g id="a_edge49_Node000045_Node000037"><a xlink:title=" ">
<path fill="none" stroke="#63b8ff" d="M914.59,-114.83C812.89,-108.68 608.99,-94.86 437,-74 287.45,-55.86 248.62,-44.15 96.33,-19.22"/>
<polygon fill="#63b8ff" stroke="#63b8ff" points="96.56,-15.71 86.13,-17.56 95.44,-22.62 96.56,-15.71"/>
</a>
</g>
</g>
<!-- Node47&#45;&gt;Node2 -->
<g id="edge52_Node000047_Node000002" class="edge">
<title>Node47&#45;&gt;Node2</title>
<g id="a_edge52_Node000047_Node000002"><a xlink:title=" ">
<path fill="none" stroke="#63b8ff" d="M1222.12,-230.89C1203.09,-207 1150.92,-140.85 1147,-129 1144.35,-120.98 1141.56,-116.46 1147,-110 1171.12,-81.38 1270.72,-71.17 1339.13,-67.52"/>
<polygon fill="#63b8ff" stroke="#63b8ff" points="1339.59,-71 1349.41,-67.01 1339.24,-64.01 1339.59,-71"/>
</a>
</g>
</g>
<!-- Node47&#45;&gt;Node42 -->
<g id="edge56_Node000047_Node000042" class="edge">
<title>Node47&#45;&gt;Node42</title>
<g id="a_edge56_Node000047_Node000042"><a xlink:title=" ">
<path fill="none" stroke="#63b8ff" d="M1275.63,-230.94C1312.07,-223.51 1363.64,-211.38 1407,-195 1451.75,-178.09 1500.55,-150.8 1528.3,-134.36"/>
<polygon fill="#63b8ff" stroke="#63b8ff" points="1530.42,-137.17 1537.2,-129.03 1526.82,-131.17 1530.42,-137.17"/>
</a>
</g>
</g>
<!-- Node47&#45;&gt;Node44 -->
<g id="edge59_Node000047_Node000044" class="edge">
<title>Node47&#45;&gt;Node44</title>
<g id="a_edge59_Node000047_Node000044"><a xlink:title=" ">
<path fill="none" stroke="#63b8ff" d="M1175.83,-230.98C1122.46,-222.33 1037.93,-208.33 965,-195 963.53,-194.73 962.05,-194.46 960.55,-194.18"/>
<polygon fill="#63b8ff" stroke="#63b8ff" points="961.03,-190.71 950.55,-192.3 959.73,-197.59 961.03,-190.71"/>
</a>
</g>
</g>
<!-- Node47&#45;&gt;Node45 -->
<g id="edge53_Node000047_Node000045" class="edge">
<title>Node47&#45;&gt;Node45</title>
<g id="a_edge53_Node000047_Node000045"><a xlink:title=" ">
<path fill="none" stroke="#63b8ff" d="M1171.48,-235.39C1111.4,-229.91 1022.52,-218.11 998,-195 982.92,-180.79 979.14,-156.43 978.51,-139.45"/>
<polygon fill="#63b8ff" stroke="#63b8ff" points="982,-139.07 978.46,-129.09 975,-139.1 982,-139.07"/>
</a>
</g>
</g>
<!-- Node48 -->
<g id="Node000048" class="node">
<title>Node48</title>
<g id="a_Node000048"><a xlink:href="GraphicsContext_8h.html" target="_top" xlink:title="DirectX 12 デヴァイスとスワップチェーンの管理クラス。">
<polygon fill="#fff0f0" stroke="red" points="1288,-129 1156,-129 1156,-110 1288,-110 1288,-129"/>
<text text-anchor="middle" x="1222" y="-117" font-family="Helvetica,sans-Serif" font-size="10.00">Core/GraphicsContext.h</text>
</a>
</g>
</g>
<!-- Node47&#45;&gt;Node48 -->
<g id="edge54_Node000047_Node000048" class="edge">
<title>Node47&#45;&gt;Node48</title>
<g id="a_edge54_Node000047_Node000048"><a xlink:title=" ">
<path fill="none" stroke="#63b8ff" d="M1228.5,-230.94C1227.38,-211.91 1224.66,-165.69 1223.12,-139.47"/>
<polygon fill="#63b8ff" stroke="#63b8ff" points="1226.6,-139.08 1222.52,-129.3 1219.61,-139.49 1226.6,-139.08"/>
</a>
</g>
</g>
<!-- Node51 -->
<g id="Node000051" class="node">
<title>Node51</title>
<g id="a_Node000051"><a xlink:href="ConstantBuffer_8h.html" target="_top" xlink:title="DirectX 12 定数バッファ (CBV) のラッパークラス">
<polygon fill="white" stroke="#666666" points="1467.5,-129 1344.5,-129 1344.5,-110 1467.5,-110 1467.5,-129"/>
<text text-anchor="middle" x="1406" y="-117" font-family="Helvetica,sans-Serif" font-size="10.00">Core/ConstantBuffer.h</text>
</a>
</g>
</g>
<!-- Node47&#45;&gt;Node51 -->
<g id="edge57_Node000047_Node000051" class="edge">
<title>Node47&#45;&gt;Node51</title>
<g id="a_edge57_Node000047_Node000051"><a xlink:title=" ">
<path fill="none" stroke="#63b8ff" d="M1286.77,-236.56C1319.63,-231.91 1359.25,-220.83 1385,-195 1399.65,-180.31 1404.26,-156.24 1405.62,-139.45"/>
<polygon fill="#63b8ff" stroke="#63b8ff" points="1409.13,-139.36 1406.13,-129.2 1402.14,-139.01 1409.13,-139.36"/>
</a>
</g>
</g>
<!-- Node52 -->
<g id="Node000052" class="node">
<title>Node52</title>
<g id="a_Node000052"><a xlink:href="Material_8h.html" target="_top" xlink:title="PBRマテリアルのパラメータ管理。">
<polygon fill="#fff0f0" stroke="red" points="1376.5,-189.5 1257.5,-189.5 1257.5,-170.5 1376.5,-170.5 1376.5,-189.5"/>
<text text-anchor="middle" x="1317" y="-177.5" font-family="Helvetica,sans-Serif" font-size="10.00">Resources/Material.h</text>
</a>
</g>
</g>
<!-- Node47&#45;&gt;Node52 -->
<g id="edge60_Node000047_Node000052" class="edge">
<title>Node47&#45;&gt;Node52</title>
<g id="a_edge60_Node000047_Node000052"><a xlink:title=" ">
<path fill="none" stroke="#63b8ff" d="M1241.98,-230.87C1256.02,-221.54 1278.63,-206.51 1295.36,-195.38"/>
<polygon fill="#63b8ff" stroke="#63b8ff" points="1297.57,-198.12 1303.96,-189.67 1293.7,-192.29 1297.57,-198.12"/>
</a>
</g>
</g>
<!-- Node55 -->
<g id="Node000055" class="node">
<title>Node55</title>
<g id="a_Node000055"><a xlink:href="EnvironmentSettings_8h.html" target="_top" xlink:title="シーンの環境光、スカイボックス、フォグなどの設定データ">
<polygon fill="white" stroke="#666666" points="1162.5,-195 1007.5,-195 1007.5,-165 1162.5,-165 1162.5,-195"/>
<text text-anchor="start" x="1015.5" y="-183" font-family="Helvetica,sans-Serif" font-size="10.00">Runtime/Scene/Environment</text>
<text text-anchor="middle" x="1085" y="-172" font-family="Helvetica,sans-Serif" font-size="10.00">Settings.h</text>
</a>
</g>
</g>
<!-- Node47&#45;&gt;Node55 -->
<g id="edge65_Node000047_Node000055" class="edge">
<title>Node47&#45;&gt;Node55</title>
<g id="a_edge65_Node000047_Node000055"><a xlink:title=" ">
<path fill="none" stroke="#63b8ff" d="M1208.06,-230.99C1187.43,-222.61 1155.27,-209.55 1129,-198.87"/>
<polygon fill="#63b8ff" stroke="#63b8ff" points="1130.2,-195.59 1119.62,-195.06 1127.57,-202.07 1130.2,-195.59"/>
</a>
</g>
</g>
<!-- Node48&#45;&gt;Node2 -->
<g id="edge55_Node000048_Node000002" class="edge">
<title>Node48&#45;&gt;Node2</title>
<g id="a_edge55_Node000048_Node000002"><a xlink:title=" ">
<path fill="none" stroke="#63b8ff" d="M1251.56,-109.98C1282.72,-101.01 1331.97,-86.82 1366.46,-76.89"/>
<polygon fill="#63b8ff" stroke="#63b8ff" points="1367.57,-80.21 1376.21,-74.08 1365.63,-73.49 1367.57,-80.21"/>
</a>
</g>
</g>
<!-- Node51&#45;&gt;Node2 -->
<g id="edge58_Node000051_Node000002" class="edge">
<title>Node51&#45;&gt;Node2</title>
<g id="a_edge58_Node000051_Node000002"><a xlink:title=" ">
<path fill="none" stroke="#63b8ff" d="M1406,-109.75C1406,-102.8 1406,-92.85 1406,-84.13"/>
<polygon fill="#63b8ff" stroke="#63b8ff" points="1409.5,-84.09 1406,-74.09 1402.5,-84.09 1409.5,-84.09"/>
</a>
</g>
</g>
<!-- Node52&#45;&gt;Node2 -->
<g id="edge61_Node000052_Node000002" class="edge">
<title>Node52&#45;&gt;Node2</title>
<g id="a_edge61_Node000052_Node000002"><a xlink:title=" ">
<path fill="none" stroke="#63b8ff" d="M1317.27,-170.05C1318.12,-155.98 1321.52,-128.37 1335,-110 1345,-96.37 1360.55,-85.95 1374.55,-78.63"/>
<polygon fill="#63b8ff" stroke="#63b8ff" points="1376.46,-81.59 1383.91,-74.05 1373.38,-75.3 1376.46,-81.59"/>
</a>
</g>
</g>
<!-- Node52&#45;&gt;Node42 -->
<g id="edge64_Node000052_Node000042" class="edge">
<title>Node52&#45;&gt;Node42</title>
<g id="a_edge64_Node000052_Node000042"><a xlink:title=" ">
<path fill="none" stroke="#63b8ff" d="M1351.03,-170.49C1392.27,-160.18 1461.86,-142.78 1507.11,-131.47"/>
<polygon fill="#63b8ff" stroke="#63b8ff" points="1508.08,-134.84 1516.93,-129.02 1506.38,-128.05 1508.08,-134.84"/>
</a>
</g>
</g>
<!-- Node52&#45;&gt;Node45 -->
<g id="edge62_Node000052_Node000045" class="edge">
<title>Node52&#45;&gt;Node45</title>
<g id="a_edge62_Node000052_Node000045"><a xlink:title=" ">
<path fill="none" stroke="#63b8ff" d="M1267.85,-170.49C1207.02,-159.97 1103.52,-142.05 1038.33,-130.77"/>
<polygon fill="#63b8ff" stroke="#63b8ff" points="1038.66,-127.27 1028.21,-129.02 1037.46,-134.17 1038.66,-127.27"/>
</a>
</g>
</g>
<!-- Node52&#45;&gt;Node51 -->
<g id="edge63_Node000052_Node000051" class="edge">
<title>Node52&#45;&gt;Node51</title>
<g id="a_edge63_Node000052_Node000051"><a xlink:title=" ">
<path fill="none" stroke="#63b8ff" d="M1330.13,-170.37C1344.33,-161.04 1367.2,-146.01 1384.12,-134.88"/>
<polygon fill="#63b8ff" stroke="#63b8ff" points="1386.38,-137.58 1392.81,-129.17 1382.53,-131.74 1386.38,-137.58"/>
</a>
</g>
</g>
<!-- Node55&#45;&gt;Node2 -->
<g id="edge66_Node000055_Node000002" class="edge">
<title>Node55&#45;&gt;Node2</title>
<g id="a_edge66_Node000055_Node000002"><a xlink:title=" ">
<path fill="none" stroke="#63b8ff" d="M1086.82,-164.9C1089.67,-148.94 1096.78,-123.42 1114,-110 1148.09,-83.43 1263.89,-72.56 1339.02,-68.23"/>
<polygon fill="#63b8ff" stroke="#63b8ff" points="1339.54,-71.7 1349.34,-67.66 1339.16,-64.72 1339.54,-71.7"/>
</a>
</g>
</g>
</g>
</svg>

<g id="navigator" transform="translate(0 0)" fill="#404254">
  <rect fill="#f2f5e9" fill-opacity="0.5" stroke="#606060" stroke-width=".5" x="0" y="0" width="60" height="60"/>
  <use id="zoomplus" xlink:href="#zoomPlus" x="17" y="9" onmousedown="handleZoom(evt,'in')"/>
  <use id="zoomminus" xlink:href="#zoomMin" x="42" y="9" onmousedown="handleZoom(evt,'out')"/>
  <use id="reset" xlink:href="#resetDef" x="30" y="36" onmousedown="handleReset()"/>
   <use id="arrowup" xlink:href="#arrowUp" x="0" y="0" onmousedown="handlePan(0,-1)"/>
  <use id="arrowright" xlink:href="#arrowRight" x="0" y="0" onmousedown="handlePan(1,0)"/>
  <use id="arrowdown" xlink:href="#arrowDown" x="0" y="0" onmousedown="handlePan(0,1)"/>
  <use id="arrowleft" xlink:href="#arrowLeft" x="0" y="0" onmousedown="handlePan(-1,0)"/>
</g>
<svg viewBox="0 0 15 15" width="100%" height="30px" preserveAspectRatio="xMaxYMin meet">
 <g id="arrow_out" transform="scale(0.3 0.3)">
  <a xlink:href="ShadowPass_8h__incl_org.svg" target="_base">
   <rect id="button" ry="5" rx="5" y="6" x="6" height="38" width="38"
        fill="#f2f5e9" fill-opacity="0.5" stroke="#606060" stroke-width="1.0"/>
   <path id="arrow"
     d="M 11.500037,31.436501 C 11.940474,20.09759 22.043105,11.32322 32.158766,21.979434 L 37.068811,17.246167 C 37.068811,17.246167 37.088388,32 37.088388,32 L 22.160133,31.978069 C 22.160133,31.978069 26.997745,27.140456 26.997745,27.140456 C 18.528582,18.264221 13.291696,25.230495 11.500037,31.436501 z"
     style="fill:#404040;"/>
  </a>
 </g>
</svg>

<style type='text/css'>
<![CDATA[
[data-mouse-over-selected='false'] { opacity: 0.7; }
[data-mouse-over-selected='true']  { opacity: 1.0; }
]]>
</style>
<script type="application/ecmascript"><![CDATA[
document.addEventListener('DOMContentLoaded', (event) => {
  highlightEdges();
  highlightAdjacentNodes();
});
]]></script>
</svg>
