<?xml version="1.0" encoding="UTF-8" standalone="no"?>
<!DOCTYPE svg PUBLIC "-//W3C//DTD SVG 1.1//EN"
 "http://www.w3.org/Graphics/SVG/1.1/DTD/svg11.dtd">
<!-- Generated by graphviz version 2.43.0 (0)
 -->
<!-- Title: Engine/Source/Runtime/Graphics/Passes/SkyboxPass.h Pages: 1 -->
<svg width="3142pt" height="324pt"
 viewBox="0.00 0.00 3141.50 324.00" xmlns="http://www.w3.org/2000/svg" xmlns:xlink="http://www.w3.org/1999/xlink">
<g id="graph0" class="graph" transform="scale(1 1) rotate(0) translate(4 320)">
<title>Engine/Source/Runtime/Graphics/Passes/SkyboxPass.h</title>
<!-- Node1 -->
<g id="Node000001" class="node">
<title>Node1</title>
<g id="a_Node000001"><a xlink:title="プロシージャルスカイボックス描画パス。">
<polygon fill="#999999" stroke="#666666" points="1478.5,-316 1311.5,-316 1311.5,-286 1478.5,-286 1478.5,-316"/>
<text text-anchor="start" x="1319.5" y="-304" font-family="Helvetica,sans-Serif" font-size="10.00">Engine/Source/Runtime</text>
<text text-anchor="middle" x="1395" y="-293" font-family="Helvetica,sans-Serif" font-size="10.00">/Graphics/Passes/SkyboxPass.h</text>
</a>
</g>
</g>
<!-- Node2 -->
<g id="Node000002" class="node">
<title>Node2</title>
<g id="a_Node000002"><a xlink:href="CoreMinimal_8h.html" target="_top" xlink:title="エンジンの標準インクルードファイル。">
<polygon fill="white" stroke="#666666" points="1468.5,-74 1355.5,-74 1355.5,-55 1468.5,-55 1468.5,-74"/>
<text text-anchor="middle" x="1412" y="-62" font-family="Helvetica,sans-Serif" font-size="10.00">Core/CoreMinimal.h</text>
</a>
</g>
</g>
<!-- Node1&#45;&gt;Node2 -->
<g id="edge1_Node000001_Node000002" class="edge">
<title>Node1&#45;&gt;Node2</title>
<g id="a_edge1_Node000001_Node000002"><a xlink:title=" ">
<path fill="none" stroke="#63b8ff" d="M1445.58,-286C1488.52,-271.13 1547.43,-243 1575,-195 1594.61,-160.85 1579.39,-136.2 1550,-110 1530.18,-92.33 1503.26,-81.66 1478.45,-75.23"/>
<polygon fill="#63b8ff" stroke="#63b8ff" points="1479.25,-71.83 1468.71,-72.89 1477.61,-78.63 1479.25,-71.83"/>
</a>
</g>
</g>
<!-- Node42 -->
<g id="Node000042" class="node">
<title>Node42</title>
<g id="a_Node000042"><a xlink:href="Shader_8h.html" target="_top" xlink:title="HLSLシェーダーのロードとコンパイル管理。">
<polygon fill="white" stroke="#666666" points="1157,-129 1027,-129 1027,-110 1157,-110 1157,-129"/>
<text text-anchor="middle" x="1092" y="-117" font-family="Helvetica,sans-Serif" font-size="10.00">Graphics/Core/Shader.h</text>
</a>
</g>
</g>
<!-- Node1&#45;&gt;Node42 -->
<g id="edge42_Node000001_Node000042" class="edge">
<title>Node1&#45;&gt;Node42</title>
<g id="a_edge42_Node000001_Node000042"><a xlink:title=" ">
<path fill="none" stroke="#63b8ff" d="M1311.3,-290.18C1248.06,-278.31 1163.89,-252.21 1114,-195 1100.46,-179.47 1095.25,-155.95 1093.24,-139.5"/>
<polygon fill="#63b8ff" stroke="#63b8ff" points="1096.72,-139.07 1092.3,-129.43 1089.75,-139.71 1096.72,-139.07"/>
</a>
</g>
</g>
<!-- Node43 -->
<g id="Node000043" class="node">
<title>Node43</title>
<g id="a_Node000043"><a xlink:href="EnvironmentSettings_8h.html" target="_top" xlink:title="シーンの環境光、スカイボックス、フォグなどの設定データ">
<polygon fill="white" stroke="#666666" points="1565.5,-195 1410.5,-195 1410.5,-165 1565.5,-165 1565.5,-195"/>
<text text-anchor="start" x="1418.5" y="-183" font-family="Helvetica,sans-Serif" font-size="10.00">Runtime/Scene/Environment</text>
<text text-anchor="middle" x="1488" y="-172" font-family="Helvetica,sans-Serif" font-size="10.00">Settings.h</text>
</a>
</g>
</g>
<!-- Node1&#45;&gt;Node43 -->
<g id="edge44_Node000001_Node000043" class="edge">
<title>Node1&#45;&gt;Node43</title>
<g id="a_edge44_Node000001_Node000043"><a xlink:title=" ">
<path fill="none" stroke="#63b8ff" d="M1406.03,-285.88C1422.04,-265.39 1451.87,-227.23 1470.78,-203.03"/>
<polygon fill="#63b8ff" stroke="#63b8ff" points="1473.58,-205.13 1476.98,-195.1 1468.07,-200.82 1473.58,-205.13"/>
</a>
</g>
</g>
<!-- Node44 -->
<g id="Node000044" class="node">
<title>Node44</title>
<g id="a_Node000044"><a xlink:href="Renderer_8h.html" target="_top" xlink:title="描画パイプラインの構築と実行。">
<polygon fill="white" stroke="#666666" points="1359.5,-250 1244.5,-250 1244.5,-231 1359.5,-231 1359.5,-250"/>
<text text-anchor="middle" x="1302" y="-238" font-family="Helvetica,sans-Serif" font-size="10.00">Graphics/Renderer.h</text>
</a>
</g>
</g>
<!-- Node1&#45;&gt;Node44 -->
<g id="edge46_Node000001_Node000044" class="edge">
<title>Node1&#45;&gt;Node44</title>
<g id="a_edge46_Node000001_Node000044"><a xlink:title=" ">
<path fill="none" stroke="#63b8ff" d="M1372.49,-285.84C1357.94,-276.68 1339.07,-264.82 1324.51,-255.66"/>
<polygon fill="#63b8ff" stroke="#63b8ff" points="1325.99,-252.46 1315.66,-250.09 1322.26,-258.38 1325.99,-252.46"/>
</a>
</g>
</g>
<!-- Node3 -->
<g id="Node000003" class="node">
<title>Node3</title>
<g id="a_Node000003"><a xlink:title=" ">
<polygon fill="#e0e0e0" stroke="#999999" points="2639,-19 2569,-19 2569,0 2639,0 2639,-19"/>
<text text-anchor="middle" x="2604" y="-7" font-family="Helvetica,sans-Serif" font-size="10.00">Windows.h</text>
</a>
</g>
</g>
<!-- Node2&#45;&gt;Node3 -->
<g id="edge2_Node000002_Node000003" class="edge">
<title>Node2&#45;&gt;Node3</title>
<g id="a_edge2_Node000002_Node000003"><a xlink:title=" ">
<path fill="none" stroke="#63b8ff" d="M1468.84,-62.44C1666.69,-58.58 2325.33,-44.22 2558.42,-18.97"/>
<polygon fill="#63b8ff" stroke="#63b8ff" points="2558.98,-22.42 2568.53,-17.83 2558.2,-15.47 2558.98,-22.42"/>
</a>
</g>
</g>
<!-- Node4 -->
<g id="Node000004" class="node">
<title>Node4</title>
<g id="a_Node000004"><a xlink:title=" ">
<polygon fill="#e0e0e0" stroke="#999999" points="2698.5,-19 2657.5,-19 2657.5,0 2698.5,0 2698.5,-19"/>
<text text-anchor="middle" x="2678" y="-7" font-family="Helvetica,sans-Serif" font-size="10.00">wrl.h</text>
</a>
</g>
</g>
<!-- Node2&#45;&gt;Node4 -->
<g id="edge3_Node000002_Node000004" class="edge">
<title>Node2&#45;&gt;Node4</title>
<g id="a_edge3_Node000002_Node000004"><a xlink:title=" ">
<path fill="none" stroke="#63b8ff" d="M1468.52,-63.26C1675.98,-62.12 2396.07,-55.66 2647.31,-18.57"/>
<polygon fill="#63b8ff" stroke="#63b8ff" points="2648.13,-21.99 2657.49,-17.01 2647.07,-15.07 2648.13,-21.99"/>
</a>
</g>
</g>
<!-- Node5 -->
<g id="Node000005" class="node">
<title>Node5</title>
<g id="a_Node000005"><a xlink:title=" ">
<polygon fill="#e0e0e0" stroke="#999999" points="2787.5,-19 2716.5,-19 2716.5,0 2787.5,0 2787.5,-19"/>
<text text-anchor="middle" x="2752" y="-7" font-family="Helvetica,sans-Serif" font-size="10.00">wrl/client.h</text>
</a>
</g>
</g>
<!-- Node2&#45;&gt;Node5 -->
<g id="edge4_Node000002_Node000005" class="edge">
<title>Node2&#45;&gt;Node5</title>
<g id="a_edge4_Node000002_Node000005"><a xlink:title=" ">
<path fill="none" stroke="#63b8ff" d="M1468.55,-62.74C1682.35,-59.67 2442.08,-47.09 2705.75,-19.05"/>
<polygon fill="#63b8ff" stroke="#63b8ff" points="2706.49,-22.49 2716.05,-17.92 2705.73,-15.53 2706.49,-22.49"/>
</a>
</g>
</g>
<!-- Node6 -->
<g id="Node000006" class="node">
<title>Node6</title>
<g id="a_Node000006"><a xlink:title=" ">
<polygon fill="#e0e0e0" stroke="#999999" points="2856,-19 2806,-19 2806,0 2856,0 2856,-19"/>
<text text-anchor="middle" x="2831" y="-7" font-family="Helvetica,sans-Serif" font-size="10.00">cstdint</text>
</a>
</g>
</g>
<!-- Node2&#45;&gt;Node6 -->
<g id="edge5_Node000002_Node000006" class="edge">
<title>Node2&#45;&gt;Node6</title>
<g id="a_edge5_Node000002_Node000006"><a xlink:title=" ">
<path fill="none" stroke="#63b8ff" d="M1468.59,-63.29C1691.97,-62.2 2513.61,-55.83 2795.66,-18.8"/>
<polygon fill="#63b8ff" stroke="#63b8ff" points="2796.43,-22.23 2805.87,-17.42 2795.49,-15.3 2796.43,-22.23"/>
</a>
</g>
</g>
<!-- Node7 -->
<g id="Node000007" class="node">
<title>Node7</title>
<g id="a_Node000007"><a xlink:title=" ">
<polygon fill="#e0e0e0" stroke="#999999" points="2934,-19 2874,-19 2874,0 2934,0 2934,-19"/>
<text text-anchor="middle" x="2904" y="-7" font-family="Helvetica,sans-Serif" font-size="10.00">iostream</text>
</a>
</g>
</g>
<!-- Node2&#45;&gt;Node7 -->
<g id="edge6_Node000002_Node000007" class="edge">
<title>Node2&#45;&gt;Node7</title>
<g id="a_edge6_Node000002_Node000007"><a xlink:title=" ">
<path fill="none" stroke="#63b8ff" d="M1468.55,-63.16C1698.74,-61.56 2566.76,-53.4 2863.55,-18.88"/>
<polygon fill="#63b8ff" stroke="#63b8ff" points="2864.35,-22.31 2873.86,-17.64 2863.51,-15.36 2864.35,-22.31"/>
</a>
</g>
</g>
<!-- Node8 -->
<g id="Node000008" class="node">
<title>Node8</title>
<g id="a_Node000008"><a xlink:title=" ">
<polygon fill="#e0e0e0" stroke="#999999" points="3005.5,-19 2952.5,-19 2952.5,0 3005.5,0 3005.5,-19"/>
<text text-anchor="middle" x="2979" y="-7" font-family="Helvetica,sans-Serif" font-size="10.00">string.h</text>
</a>
</g>
</g>
<!-- Node2&#45;&gt;Node8 -->
<g id="edge7_Node000002_Node000008" class="edge">
<title>Node2&#45;&gt;Node8</title>
<g id="a_edge7_Node000002_Node000008"><a xlink:title=" ">
<path fill="none" stroke="#63b8ff" d="M1468.72,-63.39C1707.12,-62.7 2629.57,-57.6 2942.4,-18.7"/>
<polygon fill="#63b8ff" stroke="#63b8ff" points="2942.9,-22.17 2952.38,-17.42 2942.01,-15.22 2942.9,-22.17"/>
</a>
</g>
</g>
<!-- Node9 -->
<g id="Node000009" class="node">
<title>Node9</title>
<g id="a_Node000009"><a xlink:title=" ">
<polygon fill="#e0e0e0" stroke="#999999" points="3068,-19 3024,-19 3024,0 3068,0 3068,-19"/>
<text text-anchor="middle" x="3046" y="-7" font-family="Helvetica,sans-Serif" font-size="10.00">string</text>
</a>
</g>
</g>
<!-- Node2&#45;&gt;Node9 -->
<g id="edge8_Node000002_Node000009" class="edge">
<title>Node2&#45;&gt;Node9</title>
<g id="a_edge8_Node000002_Node000009"><a xlink:title=" ">
<path fill="none" stroke="#63b8ff" d="M1468.9,-63.75C1714.71,-64.53 2687.38,-64.73 3013.85,-18.72"/>
<polygon fill="#63b8ff" stroke="#63b8ff" points="3014.39,-22.18 3023.79,-17.28 3013.39,-15.25 3014.39,-22.18"/>
</a>
</g>
</g>
<!-- Node10 -->
<g id="Node000010" class="node">
<title>Node10</title>
<g id="a_Node000010"><a xlink:title=" ">
<polygon fill="#e0e0e0" stroke="#999999" points="3133.5,-19 3086.5,-19 3086.5,0 3133.5,0 3133.5,-19"/>
<text text-anchor="middle" x="3110" y="-7" font-family="Helvetica,sans-Serif" font-size="10.00">vector</text>
</a>
</g>
</g>
<!-- Node2&#45;&gt;Node10 -->
<g id="edge9_Node000002_Node000010" class="edge">
<title>Node2&#45;&gt;Node10</title>
<g id="a_edge9_Node000002_Node000010"><a xlink:title=" ">
<path fill="none" stroke="#63b8ff" d="M1468.51,-63.7C1719.52,-64.31 2735.65,-64.01 3076.21,-18.67"/>
<polygon fill="#63b8ff" stroke="#63b8ff" points="3076.9,-22.1 3086.34,-17.28 3075.95,-15.17 3076.9,-22.1"/>
</a>
</g>
</g>
<!-- Node11 -->
<g id="Node000011" class="node">
<title>Node11</title>
<g id="a_Node000011"><a xlink:title=" ">
<polygon fill="#e0e0e0" stroke="#999999" points="233.5,-19 186.5,-19 186.5,0 233.5,0 233.5,-19"/>
<text text-anchor="middle" x="210" y="-7" font-family="Helvetica,sans-Serif" font-size="10.00">deque</text>
</a>
</g>
</g>
<!-- Node2&#45;&gt;Node11 -->
<g id="edge10_Node000002_Node000011" class="edge">
<title>Node2&#45;&gt;Node11</title>
<g id="a_edge10_Node000002_Node000011"><a xlink:title=" ">
<path fill="none" stroke="#63b8ff" d="M1355.28,-62.08C1141.84,-56.64 391.94,-36.62 243.96,-18.79"/>
<polygon fill="#63b8ff" stroke="#63b8ff" points="244.02,-15.27 233.64,-17.41 243.09,-22.21 244.02,-15.27"/>
</a>
</g>
</g>
<!-- Node12 -->
<g id="Node000012" class="node">
<title>Node12</title>
<g id="a_Node000012"><a xlink:title=" ">
<polygon fill="#e0e0e0" stroke="#999999" points="344.5,-19 251.5,-19 251.5,0 344.5,0 344.5,-19"/>
<text text-anchor="middle" x="298" y="-7" font-family="Helvetica,sans-Serif" font-size="10.00">unordered_map</text>
</a>
</g>
</g>
<!-- Node2&#45;&gt;Node12 -->
<g id="edge11_Node000002_Node000012" class="edge">
<title>Node2&#45;&gt;Node12</title>
<g id="a_edge11_Node000002_Node000012"><a xlink:title=" ">
<path fill="none" stroke="#63b8ff" d="M1355.36,-63.28C1198.19,-62.2 743.17,-55.96 354.73,-18.94"/>
<polygon fill="#63b8ff" stroke="#63b8ff" points="354.99,-15.45 344.7,-17.98 354.32,-22.42 354.99,-15.45"/>
</a>
</g>
</g>
<!-- Node13 -->
<g id="Node000013" class="node">
<title>Node13</title>
<g id="a_Node000013"><a xlink:title=" ">
<polygon fill="#e0e0e0" stroke="#999999" points="401,-19 363,-19 363,0 401,0 401,-19"/>
<text text-anchor="middle" x="382" y="-7" font-family="Helvetica,sans-Serif" font-size="10.00">map</text>
</a>
</g>
</g>
<!-- Node2&#45;&gt;Node13 -->
<g id="edge12_Node000002_Node000013" class="edge">
<title>Node2&#45;&gt;Node13</title>
<g id="a_edge12_Node000002_Node000013"><a xlink:title=" ">
<path fill="none" stroke="#63b8ff" d="M1355.41,-62.85C1174.84,-60.48 612.94,-50.81 411.04,-18.64"/>
<polygon fill="#63b8ff" stroke="#63b8ff" points="411.57,-15.18 401.13,-17 410.42,-22.09 411.57,-15.18"/>
</a>
</g>
</g>
<!-- Node14 -->
<g id="Node000014" class="node">
<title>Node14</title>
<g id="a_Node000014"><a xlink:title=" ">
<polygon fill="#e0e0e0" stroke="#999999" points="477,-19 419,-19 419,0 477,0 477,-19"/>
<text text-anchor="middle" x="448" y="-7" font-family="Helvetica,sans-Serif" font-size="10.00">memory</text>
</a>
</g>
</g>
<!-- Node2&#45;&gt;Node14 -->
<g id="edge13_Node000002_Node000014" class="edge">
<title>Node2&#45;&gt;Node14</title>
<g id="a_edge13_Node000002_Node000014"><a xlink:title=" ">
<path fill="none" stroke="#63b8ff" d="M1355.25,-62.05C1184.17,-57.49 674.25,-42.4 487.35,-18.9"/>
<polygon fill="#63b8ff" stroke="#63b8ff" points="487.74,-15.42 477.37,-17.59 486.83,-22.36 487.74,-15.42"/>
</a>
</g>
</g>
<!-- Node15 -->
<g id="Node000015" class="node">
<title>Node15</title>
<g id="a_Node000015"><a xlink:title=" ">
<polygon fill="#e0e0e0" stroke="#999999" points="168,-19 104,-19 104,0 168,0 168,-19"/>
<text text-anchor="middle" x="136" y="-7" font-family="Helvetica,sans-Serif" font-size="10.00">algorithm</text>
</a>
</g>
</g>
<!-- Node2&#45;&gt;Node15 -->
<g id="edge14_Node000002_Node000015" class="edge">
<title>Node2&#45;&gt;Node15</title>
<g id="a_edge14_Node000002_Node000015"><a xlink:title=" ">
<path fill="none" stroke="#63b8ff" d="M1355.24,-62.72C1147.73,-59.7 429.71,-47.45 178.33,-18.89"/>
<polygon fill="#63b8ff" stroke="#63b8ff" points="178.48,-15.39 168.14,-17.7 177.67,-22.34 178.48,-15.39"/>
</a>
</g>
</g>
<!-- Node16 -->
<g id="Node000016" class="node">
<title>Node16</title>
<g id="a_Node000016"><a xlink:title=" ">
<polygon fill="#e0e0e0" stroke="#999999" points="560.5,-19 495.5,-19 495.5,0 560.5,0 560.5,-19"/>
<text text-anchor="middle" x="528" y="-7" font-family="Helvetica,sans-Serif" font-size="10.00">functional</text>
</a>
</g>
</g>
<!-- Node2&#45;&gt;Node16 -->
<g id="edge15_Node000002_Node000016" class="edge">
<title>Node2&#45;&gt;Node16</title>
<g id="a_edge15_Node000002_Node000016"><a xlink:title=" ">
<path fill="none" stroke="#63b8ff" d="M1355.33,-63.37C1220.84,-62.45 871.84,-56.44 571.17,-18.93"/>
<polygon fill="#63b8ff" stroke="#63b8ff" points="571.3,-15.42 560.94,-17.64 570.42,-22.37 571.3,-15.42"/>
</a>
</g>
</g>
<!-- Node17 -->
<g id="Node000017" class="node">
<title>Node17</title>
<g id="a_Node000017"><a xlink:title=" ">
<polygon fill="#e0e0e0" stroke="#999999" points="629,-19 579,-19 579,0 629,0 629,-19"/>
<text text-anchor="middle" x="604" y="-7" font-family="Helvetica,sans-Serif" font-size="10.00">chrono</text>
</a>
</g>
</g>
<!-- Node2&#45;&gt;Node17 -->
<g id="edge16_Node000002_Node000017" class="edge">
<title>Node2&#45;&gt;Node17</title>
<g id="a_edge16_Node000002_Node000017"><a xlink:title=" ">
<path fill="none" stroke="#63b8ff" d="M1355.3,-63.86C1228.41,-63.9 911.97,-59.65 639.24,-18.87"/>
<polygon fill="#63b8ff" stroke="#63b8ff" points="639.56,-15.38 629.14,-17.34 638.51,-22.3 639.56,-15.38"/>
</a>
</g>
</g>
<!-- Node18 -->
<g id="Node000018" class="node">
<title>Node18</title>
<g id="a_Node000018"><a xlink:title=" ">
<polygon fill="#e0e0e0" stroke="#999999" points="693,-19 647,-19 647,0 693,0 693,-19"/>
<text text-anchor="middle" x="670" y="-7" font-family="Helvetica,sans-Serif" font-size="10.00">cstdio</text>
</a>
</g>
</g>
<!-- Node2&#45;&gt;Node18 -->
<g id="edge17_Node000002_Node000018" class="edge">
<title>Node2&#45;&gt;Node18</title>
<g id="a_edge17_Node000002_Node000018"><a xlink:title=" ">
<path fill="none" stroke="#63b8ff" d="M1355.44,-63.72C1236.21,-63.37 950.43,-58.27 703.19,-18.86"/>
<polygon fill="#63b8ff" stroke="#63b8ff" points="703.73,-15.4 693.3,-17.26 702.62,-22.31 703.73,-15.4"/>
</a>
</g>
</g>
<!-- Node19 -->
<g id="Node000019" class="node">
<title>Node19</title>
<g id="a_Node000019"><a xlink:title=" ">
<polygon fill="#e0e0e0" stroke="#999999" points="763,-19 711,-19 711,0 763,0 763,-19"/>
<text text-anchor="middle" x="737" y="-7" font-family="Helvetica,sans-Serif" font-size="10.00">cassert</text>
</a>
</g>
</g>
<!-- Node2&#45;&gt;Node19 -->
<g id="edge18_Node000002_Node000019" class="edge">
<title>Node2&#45;&gt;Node19</title>
<g id="a_edge18_Node000002_Node000019"><a xlink:title=" ">
<path fill="none" stroke="#63b8ff" d="M1355.14,-62.76C1244.66,-60.63 993.28,-52.36 773.39,-18.94"/>
<polygon fill="#63b8ff" stroke="#63b8ff" points="773.69,-15.45 763.28,-17.39 772.63,-22.37 773.69,-15.45"/>
</a>
</g>
</g>
<!-- Node20 -->
<g id="Node000020" class="node">
<title>Node20</title>
<g id="a_Node000020"><a xlink:title=" ">
<polygon fill="#e0e0e0" stroke="#999999" points="846.5,-19 781.5,-19 781.5,0 846.5,0 846.5,-19"/>
<text text-anchor="middle" x="814" y="-7" font-family="Helvetica,sans-Serif" font-size="10.00">typeindex</text>
</a>
</g>
</g>
<!-- Node2&#45;&gt;Node20 -->
<g id="edge19_Node000002_Node000020" class="edge">
<title>Node2&#45;&gt;Node20</title>
<g id="a_edge19_Node000002_Node000020"><a xlink:title=" ">
<path fill="none" stroke="#63b8ff" d="M1355.32,-61.21C1256.26,-56.71 1045.07,-44.96 857.02,-18.97"/>
<polygon fill="#63b8ff" stroke="#63b8ff" points="857.34,-15.48 846.95,-17.56 856.37,-22.41 857.34,-15.48"/>
</a>
</g>
</g>
<!-- Node21 -->
<g id="Node000021" class="node">
<title>Node21</title>
<g id="a_Node000021"><a xlink:title=" ">
<polygon fill="#e0e0e0" stroke="#999999" points="933,-19 865,-19 865,0 933,0 933,-19"/>
<text text-anchor="middle" x="899" y="-7" font-family="Helvetica,sans-Serif" font-size="10.00">filesystem</text>
</a>
</g>
</g>
<!-- Node2&#45;&gt;Node21 -->
<g id="edge20_Node000002_Node000021" class="edge">
<title>Node2&#45;&gt;Node21</title>
<g id="a_edge20_Node000002_Node000021"><a xlink:title=" ">
<path fill="none" stroke="#63b8ff" d="M1355.35,-59.99C1268.72,-54.21 1097.96,-41.21 943.37,-19.06"/>
<polygon fill="#63b8ff" stroke="#63b8ff" points="943.61,-15.56 933.21,-17.59 942.61,-22.48 943.61,-15.56"/>
</a>
</g>
</g>
<!-- Node22 -->
<g id="Node000022" class="node">
<title>Node22</title>
<g id="a_Node000022"><a xlink:title=" ">
<polygon fill="#e0e0e0" stroke="#999999" points="983,-19 951,-19 951,0 983,0 983,-19"/>
<text text-anchor="middle" x="967" y="-7" font-family="Helvetica,sans-Serif" font-size="10.00">set</text>
</a>
</g>
</g>
<!-- Node2&#45;&gt;Node22 -->
<g id="edge21_Node000002_Node000022" class="edge">
<title>Node2&#45;&gt;Node22</title>
<g id="a_edge21_Node000002_Node000022"><a xlink:title=" ">
<path fill="none" stroke="#63b8ff" d="M1355.5,-61.27C1274.45,-57.21 1120.86,-46.37 993,-19 992.9,-18.98 992.8,-18.96 992.69,-18.93"/>
<polygon fill="#63b8ff" stroke="#63b8ff" points="993.65,-15.57 983.08,-16.34 991.83,-22.32 993.65,-15.57"/>
</a>
</g>
</g>
<!-- Node23 -->
<g id="Node000023" class="node">
<title>Node23</title>
<g id="a_Node000023"><a xlink:title=" ">
<polygon fill="#e0e0e0" stroke="#999999" points="1056.5,-19 1001.5,-19 1001.5,0 1056.5,0 1056.5,-19"/>
<text text-anchor="middle" x="1029" y="-7" font-family="Helvetica,sans-Serif" font-size="10.00">fstream</text>
</a>
</g>
</g>
<!-- Node2&#45;&gt;Node23 -->
<g id="edge22_Node000002_Node000023" class="edge">
<title>Node2&#45;&gt;Node23</title>
<g id="a_edge22_Node000002_Node000023"><a xlink:title=" ">
<path fill="none" stroke="#63b8ff" d="M1355.41,-57.94C1288.76,-51.01 1174.53,-37.94 1066.88,-18.99"/>
<polygon fill="#63b8ff" stroke="#63b8ff" points="1067.28,-15.51 1056.82,-17.2 1066.05,-22.4 1067.28,-15.51"/>
</a>
</g>
</g>
<!-- Node24 -->
<g id="Node000024" class="node">
<title>Node24</title>
<g id="a_Node000024"><a xlink:title=" ">
<polygon fill="#e0e0e0" stroke="#999999" points="1131,-19 1075,-19 1075,0 1131,0 1131,-19"/>
<text text-anchor="middle" x="1103" y="-7" font-family="Helvetica,sans-Serif" font-size="10.00">sstream</text>
</a>
</g>
</g>
<!-- Node2&#45;&gt;Node24 -->
<g id="edge23_Node000002_Node000024" class="edge">
<title>Node2&#45;&gt;Node24</title>
<g id="a_edge23_Node000002_Node000024"><a xlink:title=" ">
<path fill="none" stroke="#63b8ff" d="M1355.29,-55.3C1302.4,-47.4 1221.08,-34.65 1141.45,-19.18"/>
<polygon fill="#63b8ff" stroke="#63b8ff" points="1141.73,-15.67 1131.24,-17.18 1140.38,-22.54 1141.73,-15.67"/>
</a>
</g>
</g>
<!-- Node25 -->
<g id="Node000025" class="node">
<title>Node25</title>
<g id="a_Node000025"><a xlink:title=" ">
<polygon fill="#e0e0e0" stroke="#999999" points="1197,-19 1149,-19 1149,0 1197,0 1197,-19"/>
<text text-anchor="middle" x="1173" y="-7" font-family="Helvetica,sans-Serif" font-size="10.00">mutex</text>
</a>
</g>
</g>
<!-- Node2&#45;&gt;Node25 -->
<g id="edge24_Node000002_Node000025" class="edge">
<title>Node2&#45;&gt;Node25</title>
<g id="a_edge24_Node000002_Node000025"><a xlink:title=" ">
<path fill="none" stroke="#63b8ff" d="M1370.07,-54.95C1330.48,-46.76 1269.23,-33.8 1207.1,-19.19"/>
<polygon fill="#63b8ff" stroke="#63b8ff" points="1207.66,-15.73 1197.12,-16.83 1206.05,-22.54 1207.66,-15.73"/>
</a>
</g>
</g>
<!-- Node26 -->
<g id="Node000026" class="node">
<title>Node26</title>
<g id="a_Node000026"><a xlink:title=" ">
<polygon fill="#e0e0e0" stroke="#999999" points="1269,-19 1215,-19 1215,0 1269,0 1269,-19"/>
<text text-anchor="middle" x="1242" y="-7" font-family="Helvetica,sans-Serif" font-size="10.00">random</text>
</a>
</g>
</g>
<!-- Node2&#45;&gt;Node26 -->
<g id="edge25_Node000002_Node000026" class="edge">
<title>Node2&#45;&gt;Node26</title>
<g id="a_edge25_Node000002_Node000026"><a xlink:title=" ">
<path fill="none" stroke="#63b8ff" d="M1384.69,-54.98C1356.06,-46.06 1310.91,-31.98 1279.08,-22.06"/>
<polygon fill="#63b8ff" stroke="#63b8ff" points="1279.83,-18.63 1269.25,-18.99 1277.75,-25.31 1279.83,-18.63"/>
</a>
</g>
</g>
<!-- Node27 -->
<g id="Node000027" class="node">
<title>Node27</title>
<g id="a_Node000027"><a xlink:title=" ">
<polygon fill="#e0e0e0" stroke="#999999" points="1335,-19 1287,-19 1287,0 1335,0 1335,-19"/>
<text text-anchor="middle" x="1311" y="-7" font-family="Helvetica,sans-Serif" font-size="10.00">thread</text>
</a>
</g>
</g>
<!-- Node2&#45;&gt;Node27 -->
<g id="edge26_Node000002_Node000027" class="edge">
<title>Node2&#45;&gt;Node27</title>
<g id="a_edge26_Node000002_Node000027"><a xlink:title=" ">
<path fill="none" stroke="#63b8ff" d="M1395.77,-54.98C1379.82,-46.61 1355.22,-33.7 1336.62,-23.95"/>
<polygon fill="#63b8ff" stroke="#63b8ff" points="1338,-20.72 1327.52,-19.17 1334.75,-26.92 1338,-20.72"/>
</a>
</g>
</g>
<!-- Node28 -->
<g id="Node000028" class="node">
<title>Node28</title>
<g id="a_Node000028"><a xlink:title=" ">
<polygon fill="#e0e0e0" stroke="#999999" points="1403,-19 1353,-19 1353,0 1403,0 1403,-19"/>
<text text-anchor="middle" x="1378" y="-7" font-family="Helvetica,sans-Serif" font-size="10.00">atomic</text>
</a>
</g>
</g>
<!-- Node2&#45;&gt;Node28 -->
<g id="edge27_Node000002_Node000028" class="edge">
<title>Node2&#45;&gt;Node28</title>
<g id="a_edge27_Node000002_Node000028"><a xlink:title=" ">
<path fill="none" stroke="#63b8ff" d="M1406.39,-54.75C1401.68,-47.42 1394.83,-36.73 1389.03,-27.7"/>
<polygon fill="#63b8ff" stroke="#63b8ff" points="1391.86,-25.62 1383.51,-19.09 1385.96,-29.4 1391.86,-25.62"/>
</a>
</g>
</g>
<!-- Node29 -->
<g id="Node000029" class="node">
<title>Node29</title>
<g id="a_Node000029"><a xlink:title=" ">
<polygon fill="#e0e0e0" stroke="#999999" points="1470.5,-19 1421.5,-19 1421.5,0 1470.5,0 1470.5,-19"/>
<text text-anchor="middle" x="1446" y="-7" font-family="Helvetica,sans-Serif" font-size="10.00">cctype</text>
</a>
</g>
</g>
<!-- Node2&#45;&gt;Node29 -->
<g id="edge28_Node000002_Node000029" class="edge">
<title>Node2&#45;&gt;Node29</title>
<g id="a_edge28_Node000002_Node000029"><a xlink:title=" ">
<path fill="none" stroke="#63b8ff" d="M1417.61,-54.75C1422.32,-47.42 1429.17,-36.73 1434.97,-27.7"/>
<polygon fill="#63b8ff" stroke="#63b8ff" points="1438.04,-29.4 1440.49,-19.09 1432.14,-25.62 1438.04,-29.4"/>
</a>
</g>
</g>
<!-- Node30 -->
<g id="Node000030" class="node">
<title>Node30</title>
<g id="a_Node000030"><a xlink:title=" ">
<polygon fill="#e0e0e0" stroke="#999999" points="1531,-19 1489,-19 1489,0 1531,0 1531,-19"/>
<text text-anchor="middle" x="1510" y="-7" font-family="Helvetica,sans-Serif" font-size="10.00">array</text>
</a>
</g>
</g>
<!-- Node2&#45;&gt;Node30 -->
<g id="edge29_Node000002_Node000030" class="edge">
<title>Node2&#45;&gt;Node30</title>
<g id="a_edge29_Node000002_Node000030"><a xlink:title=" ">
<path fill="none" stroke="#63b8ff" d="M1427.75,-54.98C1443.23,-46.61 1467.09,-33.7 1485.14,-23.95"/>
<polygon fill="#63b8ff" stroke="#63b8ff" points="1486.84,-27.01 1493.97,-19.17 1483.51,-20.85 1486.84,-27.01"/>
</a>
</g>
</g>
<!-- Node31 -->
<g id="Node000031" class="node">
<title>Node31</title>
<g id="a_Node000031"><a xlink:title=" ">
<polygon fill="#e0e0e0" stroke="#999999" points="1618.5,-19 1549.5,-19 1549.5,0 1618.5,0 1618.5,-19"/>
<text text-anchor="middle" x="1584" y="-7" font-family="Helvetica,sans-Serif" font-size="10.00">type_traits</text>
</a>
</g>
</g>
<!-- Node2&#45;&gt;Node31 -->
<g id="edge30_Node000002_Node000031" class="edge">
<title>Node2&#45;&gt;Node31</title>
<g id="a_edge30_Node000002_Node000031"><a xlink:title=" ">
<path fill="none" stroke="#63b8ff" d="M1439.63,-54.98C1468.51,-46.09 1514.01,-32.07 1546.2,-22.15"/>
<polygon fill="#63b8ff" stroke="#63b8ff" points="1547.62,-25.37 1556.15,-19.08 1545.56,-18.68 1547.62,-25.37"/>
</a>
</g>
</g>
<!-- Node32 -->
<g id="Node000032" class="node">
<title>Node32</title>
<g id="a_Node000032"><a xlink:title=" ">
<polygon fill="#e0e0e0" stroke="#999999" points="1681,-19 1637,-19 1637,0 1681,0 1681,-19"/>
<text text-anchor="middle" x="1659" y="-7" font-family="Helvetica,sans-Serif" font-size="10.00">cfloat</text>
</a>
</g>
</g>
<!-- Node2&#45;&gt;Node32 -->
<g id="edge31_Node000002_Node000032" class="edge">
<title>Node2&#45;&gt;Node32</title>
<g id="a_edge31_Node000002_Node000032"><a xlink:title=" ">
<path fill="none" stroke="#63b8ff" d="M1457.7,-54.97C1499.41,-46.99 1562.96,-34.33 1626.85,-19.16"/>
<polygon fill="#63b8ff" stroke="#63b8ff" points="1627.78,-22.53 1636.69,-16.8 1626.15,-15.73 1627.78,-22.53"/>
</a>
</g>
</g>
<!-- Node33 -->
<g id="Node000033" class="node">
<title>Node33</title>
<g id="a_Node000033"><a xlink:title=" ">
<polygon fill="#e0e0e0" stroke="#999999" points="1809,-19 1699,-19 1699,0 1809,0 1809,-19"/>
<text text-anchor="middle" x="1754" y="-7" font-family="Helvetica,sans-Serif" font-size="10.00">nlohmann/json.hpp</text>
</a>
</g>
</g>
<!-- Node2&#45;&gt;Node33 -->
<g id="edge32_Node000002_Node000033" class="edge">
<title>Node2&#45;&gt;Node33</title>
<g id="a_edge32_Node000002_Node000033"><a xlink:title=" ">
<path fill="none" stroke="#63b8ff" d="M1466.95,-54.98C1527.44,-45.61 1624.61,-30.55 1688.88,-20.59"/>
<polygon fill="#63b8ff" stroke="#63b8ff" points="1689.56,-24.03 1698.9,-19.04 1688.49,-17.11 1689.56,-24.03"/>
</a>
</g>
</g>
<!-- Node34 -->
<g id="Node000034" class="node">
<title>Node34</title>
<g id="a_Node000034"><a xlink:title=" ">
<polygon fill="#e0e0e0" stroke="#999999" points="1883,-19 1827,-19 1827,0 1883,0 1883,-19"/>
<text text-anchor="middle" x="1855" y="-7" font-family="Helvetica,sans-Serif" font-size="10.00">d3d12.h</text>
</a>
</g>
</g>
<!-- Node2&#45;&gt;Node34 -->
<g id="edge33_Node000002_Node000034" class="edge">
<title>Node2&#45;&gt;Node34</title>
<g id="a_edge33_Node000002_Node000034"><a xlink:title=" ">
<path fill="none" stroke="#63b8ff" d="M1468.77,-59.38C1545.54,-53.34 1686.84,-40.59 1816.66,-19.04"/>
<polygon fill="#63b8ff" stroke="#63b8ff" points="1817.51,-22.45 1826.79,-17.34 1816.34,-15.55 1817.51,-22.45"/>
</a>
</g>
</g>
<!-- Node35 -->
<g id="Node000035" class="node">
<title>Node35</title>
<g id="a_Node000035"><a xlink:title=" ">
<polygon fill="#e0e0e0" stroke="#999999" points="1965,-19 1901,-19 1901,0 1965,0 1965,-19"/>
<text text-anchor="middle" x="1933" y="-7" font-family="Helvetica,sans-Serif" font-size="10.00">dxgi1_6.h</text>
</a>
</g>
</g>
<!-- Node2&#45;&gt;Node35 -->
<g id="edge34_Node000002_Node000035" class="edge">
<title>Node2&#45;&gt;Node35</title>
<g id="a_edge34_Node000002_Node000035"><a xlink:title=" ">
<path fill="none" stroke="#63b8ff" d="M1468.78,-60.3C1557.01,-54.88 1732.52,-42.27 1890.91,-19"/>
<polygon fill="#63b8ff" stroke="#63b8ff" points="1891.46,-22.46 1900.83,-17.52 1890.43,-15.53 1891.46,-22.46"/>
</a>
</g>
</g>
<!-- Node36 -->
<g id="Node000036" class="node">
<title>Node36</title>
<g id="a_Node000036"><a xlink:title=" ">
<polygon fill="#e0e0e0" stroke="#999999" points="2069,-19 1983,-19 1983,0 2069,0 2069,-19"/>
<text text-anchor="middle" x="2026" y="-7" font-family="Helvetica,sans-Serif" font-size="10.00">d3dcompiler.h</text>
</a>
</g>
</g>
<!-- Node2&#45;&gt;Node36 -->
<g id="edge35_Node000002_Node000036" class="edge">
<title>Node2&#45;&gt;Node36</title>
<g id="a_edge35_Node000002_Node000036"><a xlink:title=" ">
<path fill="none" stroke="#63b8ff" d="M1468.79,-60.57C1568.61,-55.07 1782.19,-41.78 1972.71,-19.06"/>
<polygon fill="#63b8ff" stroke="#63b8ff" points="1973.4,-22.5 1982.91,-17.83 1972.56,-15.55 1973.4,-22.5"/>
</a>
</g>
</g>
<!-- Node37 -->
<g id="Node000037" class="node">
<title>Node37</title>
<g id="a_Node000037"><a xlink:title=" ">
<polygon fill="#e0e0e0" stroke="#999999" points="86,-19 0,-19 0,0 86,0 86,-19"/>
<text text-anchor="middle" x="43" y="-7" font-family="Helvetica,sans-Serif" font-size="10.00">DirectXMath.h</text>
</a>
</g>
</g>
<!-- Node2&#45;&gt;Node37 -->
<g id="edge36_Node000002_Node000037" class="edge">
<title>Node2&#45;&gt;Node37</title>
<g id="a_edge36_Node000002_Node000037"><a xlink:title=" ">
<path fill="none" stroke="#63b8ff" d="M1355.31,-62.55C1139.06,-58.8 365.16,-43.95 96.2,-18.95"/>
<polygon fill="#63b8ff" stroke="#63b8ff" points="96.36,-15.45 86.07,-17.98 95.69,-22.42 96.36,-15.45"/>
</a>
</g>
</g>
<!-- Node38 -->
<g id="Node000038" class="node">
<title>Node38</title>
<g id="a_Node000038"><a xlink:title=" ">
<polygon fill="#e0e0e0" stroke="#999999" points="2204.5,-19 2087.5,-19 2087.5,0 2204.5,0 2204.5,-19"/>
<text text-anchor="middle" x="2146" y="-7" font-family="Helvetica,sans-Serif" font-size="10.00">assimp/Importer.hpp</text>
</a>
</g>
</g>
<!-- Node2&#45;&gt;Node38 -->
<g id="edge37_Node000002_Node000038" class="edge">
<title>Node2&#45;&gt;Node38</title>
<g id="a_edge37_Node000002_Node000038"><a xlink:title=" ">
<path fill="none" stroke="#63b8ff" d="M1468.66,-60.82C1582.06,-55.21 1845.18,-40.99 2077.43,-18.99"/>
<polygon fill="#63b8ff" stroke="#63b8ff" points="2077.8,-22.47 2087.42,-18.04 2077.13,-15.51 2077.8,-22.47"/>
</a>
</g>
</g>
<!-- Node39 -->
<g id="Node000039" class="node">
<title>Node39</title>
<g id="a_Node000039"><a xlink:title=" ">
<polygon fill="#e0e0e0" stroke="#999999" points="2315,-19 2223,-19 2223,0 2315,0 2315,-19"/>
<text text-anchor="middle" x="2269" y="-7" font-family="Helvetica,sans-Serif" font-size="10.00">assimp/scene.h</text>
</a>
</g>
</g>
<!-- Node2&#45;&gt;Node39 -->
<g id="edge38_Node000002_Node000039" class="edge">
<title>Node2&#45;&gt;Node39</title>
<g id="a_edge38_Node000002_Node000039"><a xlink:title=" ">
<path fill="none" stroke="#63b8ff" d="M1468.55,-62.26C1598.27,-59.02 1927.4,-48.46 2212.7,-19.03"/>
<polygon fill="#63b8ff" stroke="#63b8ff" points="2213.25,-22.49 2222.83,-17.97 2212.52,-15.53 2213.25,-22.49"/>
</a>
</g>
</g>
<!-- Node40 -->
<g id="Node000040" class="node">
<title>Node40</title>
<g id="a_Node000040"><a xlink:title=" ">
<polygon fill="#e0e0e0" stroke="#999999" points="2455,-19 2333,-19 2333,0 2455,0 2455,-19"/>
<text text-anchor="middle" x="2394" y="-7" font-family="Helvetica,sans-Serif" font-size="10.00">assimp/postprocess.h</text>
</a>
</g>
</g>
<!-- Node2&#45;&gt;Node40 -->
<g id="edge39_Node000002_Node000040" class="edge">
<title>Node2&#45;&gt;Node40</title>
<g id="a_edge39_Node000002_Node000040"><a xlink:title=" ">
<path fill="none" stroke="#63b8ff" d="M1468.66,-62.16C1610.6,-58.48 1993.04,-46.7 2322.71,-19.04"/>
<polygon fill="#63b8ff" stroke="#63b8ff" points="2323.27,-22.51 2332.94,-18.18 2322.68,-15.53 2323.27,-22.51"/>
</a>
</g>
</g>
<!-- Node41 -->
<g id="Node000041" class="node">
<title>Node41</title>
<g id="a_Node000041"><a xlink:href="Logger_8h.html" target="_top" xlink:title="デバッグログ出力システム">
<polygon fill="white" stroke="#666666" points="2551,-19 2473,-19 2473,0 2551,0 2551,-19"/>
<text text-anchor="middle" x="2512" y="-7" font-family="Helvetica,sans-Serif" font-size="10.00">Log/Logger.h</text>
</a>
</g>
</g>
<!-- Node2&#45;&gt;Node41 -->
<g id="edge40_Node000002_Node000041" class="edge">
<title>Node2&#45;&gt;Node41</title>
<g id="a_edge40_Node000002_Node000041"><a xlink:title=" ">
<path fill="none" stroke="#63b8ff" d="M1468.7,-63.75C1625.93,-63.8 2079.97,-59.95 2455,-19 2457.5,-18.73 2460.07,-18.4 2462.67,-18.04"/>
<polygon fill="#63b8ff" stroke="#63b8ff" points="2463.42,-21.47 2472.79,-16.51 2462.37,-14.55 2463.42,-21.47"/>
</a>
</g>
</g>
<!-- Node41&#45;&gt;Node2 -->
<g id="edge41_Node000041_Node000002" class="edge">
<title>Node41&#45;&gt;Node2</title>
<g id="a_edge41_Node000041_Node000002"><a xlink:title=" ">
<path fill="none" stroke="#63b8ff" d="M2472.72,-19.03C2098.98,-59.82 1646.88,-63.77 1478.93,-63.75"/>
<polygon fill="#63b8ff" stroke="#63b8ff" points="1478.76,-60.25 1468.76,-63.74 1478.76,-67.25 1478.76,-60.25"/>
</a>
</g>
</g>
<!-- Node42&#45;&gt;Node2 -->
<g id="edge43_Node000042_Node000002" class="edge">
<title>Node42&#45;&gt;Node2</title>
<g id="a_edge43_Node000042_Node000002"><a xlink:title=" ">
<path fill="none" stroke="#63b8ff" d="M1143.41,-109.98C1199.78,-100.65 1290.19,-85.67 1350.33,-75.71"/>
<polygon fill="#63b8ff" stroke="#63b8ff" points="1351.16,-79.13 1360.45,-74.04 1350.01,-72.22 1351.16,-79.13"/>
</a>
</g>
</g>
<!-- Node43&#45;&gt;Node2 -->
<g id="edge45_Node000043_Node000002" class="edge">
<title>Node43&#45;&gt;Node2</title>
<g id="a_edge45_Node000043_Node000002"><a xlink:title=" ">
<path fill="none" stroke="#63b8ff" d="M1508.46,-164.87C1526.2,-150.83 1547.12,-128.76 1534,-110 1521.11,-91.58 1499.75,-80.76 1478.47,-74.41"/>
<polygon fill="#63b8ff" stroke="#63b8ff" points="1479.3,-71.01 1468.73,-71.79 1477.48,-77.77 1479.3,-71.01"/>
</a>
</g>
</g>
<!-- Node44&#45;&gt;Node2 -->
<g id="edge47_Node000044_Node000002" class="edge">
<title>Node44&#45;&gt;Node2</title>
<g id="a_edge47_Node000044_Node000002"><a xlink:title=" ">
<path fill="none" stroke="#63b8ff" d="M1307.61,-230.63C1324.97,-203.17 1378.06,-119.18 1401.12,-82.71"/>
<polygon fill="#63b8ff" stroke="#63b8ff" points="1404.15,-84.47 1406.54,-74.14 1398.23,-80.73 1404.15,-84.47"/>
</a>
</g>
</g>
<!-- Node44&#45;&gt;Node42 -->
<g id="edge54_Node000044_Node000042" class="edge">
<title>Node44&#45;&gt;Node42</title>
<g id="a_edge54_Node000044_Node000042"><a xlink:title=" ">
<path fill="none" stroke="#63b8ff" d="M1244.29,-232.4C1213.01,-226.36 1174.96,-215.27 1146,-195 1125.41,-180.59 1109.73,-155.75 1100.7,-138.74"/>
<polygon fill="#63b8ff" stroke="#63b8ff" points="1103.59,-136.69 1095.96,-129.33 1097.34,-139.84 1103.59,-136.69"/>
</a>
</g>
</g>
<!-- Node44&#45;&gt;Node43 -->
<g id="edge65_Node000044_Node000043" class="edge">
<title>Node44&#45;&gt;Node43</title>
<g id="a_edge65_Node000044_Node000043"><a xlink:title=" ">
<path fill="none" stroke="#63b8ff" d="M1329.05,-230.99C1356.28,-222.43 1399.07,-208.97 1433.39,-198.18"/>
<polygon fill="#63b8ff" stroke="#63b8ff" points="1434.79,-201.4 1443.28,-195.06 1432.69,-194.73 1434.79,-201.4"/>
</a>
</g>
</g>
<!-- Node45 -->
<g id="Node000045" class="node">
<title>Node45</title>
<g id="a_Node000045"><a xlink:href="SpanMath_8h.html" target="_top" xlink:title="算術ライブラリ (Vector, Matrix, Quaternion)。">
<polygon fill="white" stroke="#666666" points="971,-129 843,-129 843,-110 971,-110 971,-129"/>
<text text-anchor="middle" x="907" y="-117" font-family="Helvetica,sans-Serif" font-size="10.00">Core/Math/SpanMath.h</text>
</a>
</g>
</g>
<!-- Node44&#45;&gt;Node45 -->
<g id="edge48_Node000044_Node000045" class="edge">
<title>Node44&#45;&gt;Node45</title>
<g id="a_edge48_Node000044_Node000045"><a xlink:title=" ">
<path fill="none" stroke="#63b8ff" d="M1244.36,-239.34C1154.12,-237.98 984.91,-230.6 938,-195 920.42,-181.66 912.74,-156.54 909.43,-139.18"/>
<polygon fill="#63b8ff" stroke="#63b8ff" points="912.85,-138.42 907.83,-129.09 905.94,-139.52 912.85,-138.42"/>
</a>
</g>
</g>
<!-- Node47 -->
<g id="Node000047" class="node">
<title>Node47</title>
<g id="a_Node000047"><a xlink:href="GraphicsContext_8h.html" target="_top" xlink:title="DirectX 12 デヴァイスとスワップチェーンの管理クラス。">
<polygon fill="#fff0f0" stroke="red" points="1525,-129 1393,-129 1393,-110 1525,-110 1525,-129"/>
<text text-anchor="middle" x="1459" y="-117" font-family="Helvetica,sans-Serif" font-size="10.00">Core/GraphicsContext.h</text>
</a>
</g>
</g>
<!-- Node44&#45;&gt;Node47 -->
<g id="edge52_Node000044_Node000047" class="edge">
<title>Node44&#45;&gt;Node47</title>
<g id="a_edge52_Node000044_Node000047"><a xlink:title=" ">
<path fill="none" stroke="#63b8ff" d="M1313.29,-230.94C1339.75,-210.88 1406.05,-160.64 1439.31,-135.42"/>
<polygon fill="#63b8ff" stroke="#63b8ff" points="1441.53,-138.13 1447.39,-129.3 1437.3,-132.55 1441.53,-138.13"/>
</a>
</g>
</g>
<!-- Node50 -->
<g id="Node000050" class="node">
<title>Node50</title>
<g id="a_Node000050"><a xlink:href="ConstantBuffer_8h.html" target="_top" xlink:title="DirectX 12 定数バッファ (CBV) のラッパークラス">
<polygon fill="white" stroke="#666666" points="1336.5,-129 1213.5,-129 1213.5,-110 1336.5,-110 1336.5,-129"/>
<text text-anchor="middle" x="1275" y="-117" font-family="Helvetica,sans-Serif" font-size="10.00">Core/ConstantBuffer.h</text>
</a>
</g>
</g>
<!-- Node44&#45;&gt;Node50 -->
<g id="edge55_Node000044_Node000050" class="edge">
<title>Node44&#45;&gt;Node50</title>
<g id="a_edge55_Node000044_Node000050"><a xlink:title=" ">
<path fill="none" stroke="#63b8ff" d="M1300.06,-230.94C1295.72,-211.82 1285.16,-165.27 1279.23,-139.12"/>
<polygon fill="#63b8ff" stroke="#63b8ff" points="1282.62,-138.28 1277,-129.3 1275.8,-139.83 1282.62,-138.28"/>
</a>
</g>
</g>
<!-- Node51 -->
<g id="Node000051" class="node">
<title>Node51</title>
<g id="a_Node000051"><a xlink:href="Mesh_8h.html" target="_top" xlink:title="3Dモデルの形状データ (頂点バッファ) 管理。">
<polygon fill="white" stroke="#666666" points="1051.5,-189.5 946.5,-189.5 946.5,-170.5 1051.5,-170.5 1051.5,-189.5"/>
<text text-anchor="middle" x="999" y="-177.5" font-family="Helvetica,sans-Serif" font-size="10.00">Resources/Mesh.h</text>
</a>
</g>
</g>
<!-- Node44&#45;&gt;Node51 -->
<g id="edge57_Node000044_Node000051" class="edge">
<title>Node44&#45;&gt;Node51</title>
<g id="a_edge57_Node000044_Node000051"><a xlink:title=" ">
<path fill="none" stroke="#63b8ff" d="M1257.94,-230.99C1203.75,-220.53 1111.77,-202.77 1053.27,-191.48"/>
<polygon fill="#63b8ff" stroke="#63b8ff" points="1053.59,-187.98 1043.11,-189.52 1052.27,-194.85 1053.59,-187.98"/>
</a>
</g>
</g>
<!-- Node52 -->
<g id="Node000052" class="node">
<title>Node52</title>
<g id="a_Node000052"><a xlink:href="Material_8h.html" target="_top" xlink:title="PBRマテリアルのパラメータ管理。">
<polygon fill="#fff0f0" stroke="red" points="1273.5,-189.5 1154.5,-189.5 1154.5,-170.5 1273.5,-170.5 1273.5,-189.5"/>
<text text-anchor="middle" x="1214" y="-177.5" font-family="Helvetica,sans-Serif" font-size="10.00">Resources/Material.h</text>
</a>
</g>
</g>
<!-- Node44&#45;&gt;Node52 -->
<g id="edge60_Node000044_Node000052" class="edge">
<title>Node44&#45;&gt;Node52</title>
<g id="a_edge60_Node000044_Node000052"><a xlink:title=" ">
<path fill="none" stroke="#63b8ff" d="M1289.02,-230.87C1274.98,-221.54 1252.37,-206.51 1235.64,-195.38"/>
<polygon fill="#63b8ff" stroke="#63b8ff" points="1237.3,-192.29 1227.04,-189.67 1233.43,-198.12 1237.3,-192.29"/>
</a>
</g>
</g>
<!-- Node45&#45;&gt;Node15 -->
<g id="edge51_Node000045_Node000015" class="edge">
<title>Node45&#45;&gt;Node15</title>
<g id="a_edge51_Node000045_Node000015"><a xlink:title=" ">
<path fill="none" stroke="#63b8ff" d="M907.15,-109.8C906.86,-95.71 904.01,-68.15 887,-55 826.58,-8.29 292.59,-27.64 178.39,-18.68"/>
<polygon fill="#63b8ff" stroke="#63b8ff" points="178.45,-15.17 168.15,-17.65 177.75,-22.13 178.45,-15.17"/>
</a>
</g>
</g>
<!-- Node45&#45;&gt;Node37 -->
<g id="edge49_Node000045_Node000037" class="edge">
<title>Node45&#45;&gt;Node37</title>
<g id="a_edge49_Node000045_Node000037"><a xlink:title=" ">
<path fill="none" stroke="#63b8ff" d="M842.93,-111.53C707.23,-96.59 380.63,-59.6 96.21,-19.12"/>
<polygon fill="#63b8ff" stroke="#63b8ff" points="96.5,-15.63 86.11,-17.68 95.52,-22.56 96.5,-15.63"/>
</a>
</g>
</g>
<!-- Node46 -->
<g id="Node000046" class="node">
<title>Node46</title>
<g id="a_Node000046"><a xlink:title=" ">
<polygon fill="#e0e0e0" stroke="#999999" points="878.5,-74 831.5,-74 831.5,-55 878.5,-55 878.5,-74"/>
<text text-anchor="middle" x="855" y="-62" font-family="Helvetica,sans-Serif" font-size="10.00">cmath</text>
</a>
</g>
</g>
<!-- Node45&#45;&gt;Node46 -->
<g id="edge50_Node000045_Node000046" class="edge">
<title>Node45&#45;&gt;Node46</title>
<g id="a_edge50_Node000045_Node000046"><a xlink:title=" ">
<path fill="none" stroke="#63b8ff" d="M898.41,-109.75C890.84,-102.03 879.62,-90.6 870.49,-81.28"/>
<polygon fill="#63b8ff" stroke="#63b8ff" points="872.93,-78.78 863.43,-74.09 867.93,-83.68 872.93,-78.78"/>
</a>
</g>
</g>
<!-- Node47&#45;&gt;Node2 -->
<g id="edge53_Node000047_Node000002" class="edge">
<title>Node47&#45;&gt;Node2</title>
<g id="a_edge53_Node000047_Node000002"><a xlink:title=" ">
<path fill="none" stroke="#63b8ff" d="M1451.24,-109.75C1444.53,-102.18 1434.66,-91.05 1426.49,-81.84"/>
<polygon fill="#63b8ff" stroke="#63b8ff" points="1428.87,-79.25 1419.62,-74.09 1423.63,-83.89 1428.87,-79.25"/>
</a>
</g>
</g>
<!-- Node50&#45;&gt;Node2 -->
<g id="edge56_Node000050_Node000002" class="edge">
<title>Node50&#45;&gt;Node2</title>
<g id="a_edge56_Node000050_Node000002"><a xlink:title=" ">
<path fill="none" stroke="#63b8ff" d="M1297.01,-109.98C1319.45,-101.3 1354.48,-87.75 1379.99,-77.88"/>
<polygon fill="#63b8ff" stroke="#63b8ff" points="1381.52,-81.04 1389.59,-74.17 1379,-74.51 1381.52,-81.04"/>
</a>
</g>
</g>
<!-- Node51&#45;&gt;Node2 -->
<g id="edge58_Node000051_Node000002" class="edge">
<title>Node51&#45;&gt;Node2</title>
<g id="a_edge58_Node000051_Node000002"><a xlink:title=" ">
<path fill="none" stroke="#63b8ff" d="M998.55,-170.19C998.32,-155.28 1000.24,-125.18 1018,-110 1042.31,-89.22 1238.9,-75.16 1344.87,-69.02"/>
<polygon fill="#63b8ff" stroke="#63b8ff" points="1345.36,-72.49 1355.15,-68.43 1344.96,-65.5 1345.36,-72.49"/>
</a>
</g>
</g>
<!-- Node51&#45;&gt;Node45 -->
<g id="edge59_Node000051_Node000045" class="edge">
<title>Node51&#45;&gt;Node45</title>
<g id="a_edge59_Node000051_Node000045"><a xlink:title=" ">
<path fill="none" stroke="#63b8ff" d="M985.43,-170.37C970.61,-160.95 946.67,-145.73 929.14,-134.58"/>
<polygon fill="#63b8ff" stroke="#63b8ff" points="930.95,-131.58 920.63,-129.17 927.19,-137.49 930.95,-131.58"/>
</a>
</g>
</g>
<!-- Node52&#45;&gt;Node2 -->
<g id="edge61_Node000052_Node000002" class="edge">
<title>Node52&#45;&gt;Node2</title>
<g id="a_edge61_Node000052_Node000002"><a xlink:title=" ">
<path fill="none" stroke="#63b8ff" d="M1209.18,-170.26C1202.03,-155.98 1190.88,-127.48 1205,-110 1222.47,-88.38 1291.56,-76.77 1345.17,-70.89"/>
<polygon fill="#63b8ff" stroke="#63b8ff" points="1345.74,-74.35 1355.32,-69.83 1345.01,-67.39 1345.74,-74.35"/>
</a>
</g>
</g>
<!-- Node52&#45;&gt;Node42 -->
<g id="edge64_Node000052_Node000042" class="edge">
<title>Node52&#45;&gt;Node42</title>
<g id="a_edge64_Node000052_Node000042"><a xlink:title=" ">
<path fill="none" stroke="#63b8ff" d="M1196.26,-170.49C1175.93,-160.75 1142.39,-144.66 1118.86,-133.38"/>
<polygon fill="#63b8ff" stroke="#63b8ff" points="1120.29,-130.18 1109.76,-129.02 1117.26,-136.5 1120.29,-130.18"/>
</a>
</g>
</g>
<!-- Node52&#45;&gt;Node45 -->
<g id="edge62_Node000052_Node000045" class="edge">
<title>Node52&#45;&gt;Node45</title>
<g id="a_edge62_Node000052_Node000045"><a xlink:title=" ">
<path fill="none" stroke="#63b8ff" d="M1169.36,-170.49C1114.34,-160.01 1020.87,-142.2 961.62,-130.91"/>
<polygon fill="#63b8ff" stroke="#63b8ff" points="962.17,-127.45 951.69,-129.02 960.86,-134.33 962.17,-127.45"/>
</a>
</g>
</g>
<!-- Node52&#45;&gt;Node50 -->
<g id="edge63_Node000052_Node000050" class="edge">
<title>Node52&#45;&gt;Node50</title>
<g id="a_edge63_Node000052_Node000050"><a xlink:title=" ">
<path fill="none" stroke="#63b8ff" d="M1223,-170.37C1232.37,-161.38 1247.25,-147.11 1258.7,-136.14"/>
<polygon fill="#63b8ff" stroke="#63b8ff" points="1261.17,-138.62 1265.96,-129.17 1256.32,-133.56 1261.17,-138.62"/>
</a>
</g>
</g>
</g>
</svg>
