<?xml version="1.0" encoding="UTF-8" standalone="no"?>
<!DOCTYPE svg PUBLIC "-//W3C//DTD SVG 1.1//EN"
 "http://www.w3.org/Graphics/SVG/1.1/DTD/svg11.dtd">
<!-- Generated by graphviz version 2.43.0 (0)
 -->
<!-- Title: Engine/Source/SpanEditor.h Pages: 1 -->
<svg width="2905pt" height="313pt"
 viewBox="0.00 0.00 2905.00 313.00" xmlns="http://www.w3.org/2000/svg" xmlns:xlink="http://www.w3.org/1999/xlink">
<g id="graph0" class="graph" transform="scale(1 1) rotate(0) translate(4 309)">
<title>Engine/Source/SpanEditor.h</title>
<!-- Node1 -->
<g id="Node000001" class="node">
<title>Node1</title>
<g id="a_Node000001"><a xlink:title=" ">
<polygon fill="#999999" stroke="#666666" points="1519.5,-305 1370.5,-305 1370.5,-286 1519.5,-286 1519.5,-305"/>
<text text-anchor="middle" x="1445" y="-293" font-family="Helvetica,sans-Serif" font-size="10.00">Engine/Source/SpanEditor.h</text>
</a>
</g>
</g>
<!-- Node2 -->
<g id="Node000002" class="node">
<title>Node2</title>
<g id="a_Node000002"><a xlink:href="GuiManager_8h.html" target="_top" xlink:title="ImGuiのライフサイクルとレンダリング管理。">
<polygon fill="white" stroke="#666666" points="1503,-250 1387,-250 1387,-231 1503,-231 1503,-250"/>
<text text-anchor="middle" x="1445" y="-238" font-family="Helvetica,sans-Serif" font-size="10.00">Editor/GuiManager.h</text>
</a>
</g>
</g>
<!-- Node1&#45;&gt;Node2 -->
<g id="edge1_Node000001_Node000002" class="edge">
<title>Node1&#45;&gt;Node2</title>
<g id="a_edge1_Node000001_Node000002"><a xlink:title=" ">
<path fill="none" stroke="#63b8ff" d="M1445,-285.75C1445,-278.8 1445,-268.85 1445,-260.13"/>
<polygon fill="#63b8ff" stroke="#63b8ff" points="1448.5,-260.09 1445,-250.09 1441.5,-260.09 1448.5,-260.09"/>
</a>
</g>
</g>
<!-- Node59 -->
<g id="Node000059" class="node">
<title>Node59</title>
<g id="a_Node000059"><a xlink:href="PanelManager_8h.html" target="_top" xlink:title="エディタパネルのファクトリーと自動登録システム。">
<polygon fill="white" stroke="#666666" points="1317.5,-250 1192.5,-250 1192.5,-231 1317.5,-231 1317.5,-250"/>
<text text-anchor="middle" x="1255" y="-238" font-family="Helvetica,sans-Serif" font-size="10.00">Editor/PanelManager.h</text>
</a>
</g>
</g>
<!-- Node1&#45;&gt;Node59 -->
<g id="edge54_Node000001_Node000059" class="edge">
<title>Node1&#45;&gt;Node59</title>
<g id="a_edge54_Node000001_Node000059"><a xlink:title=" ">
<path fill="none" stroke="#63b8ff" d="M1414.47,-285.98C1382.3,-277.01 1331.44,-262.82 1295.83,-252.89"/>
<polygon fill="#63b8ff" stroke="#63b8ff" points="1296.34,-249.4 1285.77,-250.08 1294.46,-256.14 1296.34,-249.4"/>
</a>
</g>
</g>
<!-- Node60 -->
<g id="Node000060" class="node">
<title>Node60</title>
<g id="a_Node000060"><a xlink:href="SelectionManager_8h.html" target="_top" xlink:title="エディタ内でのオブジェクト選択状態の管理">
<polygon fill="white" stroke="#666666" points="1785,-250 1641,-250 1641,-231 1785,-231 1785,-250"/>
<text text-anchor="middle" x="1713" y="-238" font-family="Helvetica,sans-Serif" font-size="10.00">Editor/SelectionManager.h</text>
</a>
</g>
</g>
<!-- Node1&#45;&gt;Node60 -->
<g id="edge56_Node000001_Node000060" class="edge">
<title>Node1&#45;&gt;Node60</title>
<g id="a_edge56_Node000001_Node000060"><a xlink:title=" ">
<path fill="none" stroke="#63b8ff" d="M1488.06,-285.98C1534.71,-276.76 1609.2,-262.03 1659.56,-252.07"/>
<polygon fill="#63b8ff" stroke="#63b8ff" points="1660.47,-255.46 1669.6,-250.08 1659.11,-248.59 1660.47,-255.46"/>
</a>
</g>
</g>
<!-- Node3 -->
<g id="Node000003" class="node">
<title>Node3</title>
<g id="a_Node000003"><a xlink:href="EditorPanel_8h.html" target="_top" xlink:title="エディタ上のウィンドウ (パネル) の基底クラス。">
<polygon fill="white" stroke="#666666" points="1416.5,-129 1301.5,-129 1301.5,-110 1416.5,-110 1416.5,-129"/>
<text text-anchor="middle" x="1359" y="-117" font-family="Helvetica,sans-Serif" font-size="10.00">Panels/EditorPanel.h</text>
</a>
</g>
</g>
<!-- Node2&#45;&gt;Node3 -->
<g id="edge2_Node000002_Node000003" class="edge">
<title>Node2&#45;&gt;Node3</title>
<g id="a_edge2_Node000002_Node000003"><a xlink:title=" ">
<path fill="none" stroke="#63b8ff" d="M1438.82,-230.94C1424.75,-211.48 1390.15,-163.6 1371.46,-137.74"/>
<polygon fill="#63b8ff" stroke="#63b8ff" points="1374.06,-135.36 1365.36,-129.3 1368.38,-139.46 1374.06,-135.36"/>
</a>
</g>
</g>
<!-- Node4 -->
<g id="Node000004" class="node">
<title>Node4</title>
<g id="a_Node000004"><a xlink:href="CoreMinimal_8h.html" target="_top" xlink:title="エンジンの標準インクルードファイル。">
<polygon fill="#fff0f0" stroke="red" points="1458.5,-74 1345.5,-74 1345.5,-55 1458.5,-55 1458.5,-74"/>
<text text-anchor="middle" x="1402" y="-62" font-family="Helvetica,sans-Serif" font-size="10.00">Core/CoreMinimal.h</text>
</a>
</g>
</g>
<!-- Node2&#45;&gt;Node4 -->
<g id="edge47_Node000002_Node000004" class="edge">
<title>Node2&#45;&gt;Node4</title>
<g id="a_edge47_Node000002_Node000004"><a xlink:title=" ">
<path fill="none" stroke="#63b8ff" d="M1444.76,-230.78C1443.96,-209.56 1440.52,-153.78 1426,-110 1422.9,-100.64 1417.9,-90.93 1413.26,-82.97"/>
<polygon fill="#63b8ff" stroke="#63b8ff" points="1416.15,-80.98 1407.94,-74.28 1410.18,-84.64 1416.15,-80.98"/>
</a>
</g>
</g>
<!-- Node44 -->
<g id="Node000044" class="node">
<title>Node44</title>
<g id="a_Node000044"><a xlink:title=" ">
<polygon fill="#e0e0e0" stroke="#999999" points="1319.5,-74 1266.5,-74 1266.5,-55 1319.5,-55 1319.5,-74"/>
<text text-anchor="middle" x="1293" y="-62" font-family="Helvetica,sans-Serif" font-size="10.00">imgui.h</text>
</a>
</g>
</g>
<!-- Node2&#45;&gt;Node44 -->
<g id="edge51_Node000002_Node000044" class="edge">
<title>Node2&#45;&gt;Node44</title>
<g id="a_edge51_Node000002_Node000044"><a xlink:title=" ">
<path fill="none" stroke="#63b8ff" d="M1386.85,-233.33C1338.67,-226.87 1275.64,-214.85 1260,-195 1233.54,-161.42 1262.27,-109.08 1280.45,-82.39"/>
<polygon fill="#63b8ff" stroke="#63b8ff" points="1283.4,-84.28 1286.33,-74.09 1277.69,-80.23 1283.4,-84.28"/>
</a>
</g>
</g>
<!-- Node45 -->
<g id="Node000045" class="node">
<title>Node45</title>
<g id="a_Node000045"><a xlink:href="SceneViewPanel_8h.html" target="_top" xlink:title="レンダリング結果と操作ギズモを表示するパネル">
<polygon fill="white" stroke="#666666" points="1634.5,-195 1473.5,-195 1473.5,-165 1634.5,-165 1634.5,-195"/>
<text text-anchor="start" x="1481.5" y="-183" font-family="Helvetica,sans-Serif" font-size="10.00">Panels/SceneView/SceneView</text>
<text text-anchor="middle" x="1554" y="-172" font-family="Helvetica,sans-Serif" font-size="10.00">Panel.h</text>
</a>
</g>
</g>
<!-- Node2&#45;&gt;Node45 -->
<g id="edge42_Node000002_Node000045" class="edge">
<title>Node2&#45;&gt;Node45</title>
<g id="a_edge42_Node000002_Node000045"><a xlink:title=" ">
<path fill="none" stroke="#63b8ff" d="M1461.08,-230.87C1476.22,-222.75 1499.39,-210.31 1518.8,-199.89"/>
<polygon fill="#63b8ff" stroke="#63b8ff" points="1520.54,-202.93 1527.7,-195.11 1517.23,-196.76 1520.54,-202.93"/>
</a>
</g>
</g>
<!-- Node48 -->
<g id="Node000048" class="node">
<title>Node48</title>
<g id="a_Node000048"><a xlink:href="Renderer_8h.html" target="_top" xlink:title="描画パイプラインの構築と実行。">
<polygon fill="#fff0f0" stroke="red" points="1853.5,-129 1738.5,-129 1738.5,-110 1853.5,-110 1853.5,-129"/>
<text text-anchor="middle" x="1796" y="-117" font-family="Helvetica,sans-Serif" font-size="10.00">Graphics/Renderer.h</text>
</a>
</g>
</g>
<!-- Node2&#45;&gt;Node48 -->
<g id="edge48_Node000002_Node000048" class="edge">
<title>Node2&#45;&gt;Node48</title>
<g id="a_edge48_Node000002_Node000048"><a xlink:title=" ">
<path fill="none" stroke="#63b8ff" d="M1503.17,-235.23C1592.92,-228.12 1756.93,-212.86 1777,-195 1792.48,-181.23 1796.17,-156.78 1796.68,-139.65"/>
<polygon fill="#63b8ff" stroke="#63b8ff" points="1800.18,-139.18 1796.63,-129.19 1793.18,-139.21 1800.18,-139.18"/>
</a>
</g>
</g>
<!-- Node57 -->
<g id="Node000057" class="node">
<title>Node57</title>
<g id="a_Node000057"><a xlink:title=" ">
<polygon fill="#e0e0e0" stroke="#999999" points="1767.5,-189.5 1652.5,-189.5 1652.5,-170.5 1767.5,-170.5 1767.5,-189.5"/>
<text text-anchor="middle" x="1710" y="-177.5" font-family="Helvetica,sans-Serif" font-size="10.00">imgui_impl_win32.h</text>
</a>
</g>
</g>
<!-- Node2&#45;&gt;Node57 -->
<g id="edge52_Node000002_Node000057" class="edge">
<title>Node2&#45;&gt;Node57</title>
<g id="a_edge52_Node000002_Node000057"><a xlink:title=" ">
<path fill="none" stroke="#63b8ff" d="M1483.53,-230.99C1530.64,-220.6 1610.38,-202.99 1661.58,-191.69"/>
<polygon fill="#63b8ff" stroke="#63b8ff" points="1662.41,-195.09 1671.42,-189.52 1660.9,-188.25 1662.41,-195.09"/>
</a>
</g>
</g>
<!-- Node58 -->
<g id="Node000058" class="node">
<title>Node58</title>
<g id="a_Node000058"><a xlink:title=" ">
<polygon fill="#e0e0e0" stroke="#999999" points="1379,-189.5 1269,-189.5 1269,-170.5 1379,-170.5 1379,-189.5"/>
<text text-anchor="middle" x="1324" y="-177.5" font-family="Helvetica,sans-Serif" font-size="10.00">imgui_impl_dx12.h</text>
</a>
</g>
</g>
<!-- Node2&#45;&gt;Node58 -->
<g id="edge53_Node000002_Node000058" class="edge">
<title>Node2&#45;&gt;Node58</title>
<g id="a_edge53_Node000002_Node000058"><a xlink:title=" ">
<path fill="none" stroke="#63b8ff" d="M1427.41,-230.99C1407.24,-221.25 1373.98,-205.16 1350.64,-193.88"/>
<polygon fill="#63b8ff" stroke="#63b8ff" points="1352.14,-190.72 1341.62,-189.52 1349.1,-197.02 1352.14,-190.72"/>
</a>
</g>
</g>
<!-- Node3&#45;&gt;Node4 -->
<g id="edge3_Node000003_Node000004" class="edge">
<title>Node3&#45;&gt;Node4</title>
<g id="a_edge3_Node000003_Node000004"><a xlink:title=" ">
<path fill="none" stroke="#63b8ff" d="M1366.1,-109.75C1372.17,-102.26 1381.09,-91.28 1388.51,-82.13"/>
<polygon fill="#63b8ff" stroke="#63b8ff" points="1391.45,-84.06 1395.03,-74.09 1386.01,-79.65 1391.45,-84.06"/>
</a>
</g>
</g>
<!-- Node3&#45;&gt;Node44 -->
<g id="edge41_Node000003_Node000044" class="edge">
<title>Node3&#45;&gt;Node44</title>
<g id="a_edge41_Node000003_Node000044"><a xlink:title=" ">
<path fill="none" stroke="#63b8ff" d="M1348.4,-109.98C1338.54,-102.07 1323.65,-90.11 1311.78,-80.58"/>
<polygon fill="#63b8ff" stroke="#63b8ff" points="1313.79,-77.7 1303.8,-74.17 1309.4,-83.16 1313.79,-77.7"/>
</a>
</g>
</g>
<!-- Node5 -->
<g id="Node000005" class="node">
<title>Node5</title>
<g id="a_Node000005"><a xlink:title=" ">
<polygon fill="#e0e0e0" stroke="#999999" points="2494,-19 2424,-19 2424,0 2494,0 2494,-19"/>
<text text-anchor="middle" x="2459" y="-7" font-family="Helvetica,sans-Serif" font-size="10.00">Windows.h</text>
</a>
</g>
</g>
<!-- Node4&#45;&gt;Node5 -->
<g id="edge4_Node000004_Node000005" class="edge">
<title>Node4&#45;&gt;Node5</title>
<g id="a_edge4_Node000004_Node000005"><a xlink:title=" ">
<path fill="none" stroke="#63b8ff" d="M1458.52,-63.92C1611.16,-64.43 2044.53,-61.8 2413.46,-19"/>
<polygon fill="#63b8ff" stroke="#63b8ff" points="2414,-22.46 2423.53,-17.82 2413.19,-15.5 2414,-22.46"/>
</a>
</g>
</g>
<!-- Node6 -->
<g id="Node000006" class="node">
<title>Node6</title>
<g id="a_Node000006"><a xlink:title=" ">
<polygon fill="#e0e0e0" stroke="#999999" points="2553.5,-19 2512.5,-19 2512.5,0 2553.5,0 2553.5,-19"/>
<text text-anchor="middle" x="2533" y="-7" font-family="Helvetica,sans-Serif" font-size="10.00">wrl.h</text>
</a>
</g>
</g>
<!-- Node4&#45;&gt;Node6 -->
<g id="edge5_Node000004_Node000006" class="edge">
<title>Node4&#45;&gt;Node6</title>
<g id="a_edge5_Node000004_Node000006"><a xlink:title=" ">
<path fill="none" stroke="#63b8ff" d="M1458.62,-62.97C1650.98,-60.91 2279.32,-51.88 2502.49,-18.55"/>
<polygon fill="#63b8ff" stroke="#63b8ff" points="2503.14,-21.99 2512.49,-17 2502.07,-15.08 2503.14,-21.99"/>
</a>
</g>
</g>
<!-- Node7 -->
<g id="Node000007" class="node">
<title>Node7</title>
<g id="a_Node000007"><a xlink:title=" ">
<polygon fill="#e0e0e0" stroke="#999999" points="2642.5,-19 2571.5,-19 2571.5,0 2642.5,0 2642.5,-19"/>
<text text-anchor="middle" x="2607" y="-7" font-family="Helvetica,sans-Serif" font-size="10.00">wrl/client.h</text>
</a>
</g>
</g>
<!-- Node4&#45;&gt;Node7 -->
<g id="edge6_Node000004_Node000007" class="edge">
<title>Node4&#45;&gt;Node7</title>
<g id="a_edge6_Node000004_Node000007"><a xlink:title=" ">
<path fill="none" stroke="#63b8ff" d="M1458.79,-62.47C1658.02,-58.69 2325.38,-44.47 2560.84,-19.05"/>
<polygon fill="#63b8ff" stroke="#63b8ff" points="2561.5,-22.5 2571.05,-17.91 2560.72,-15.54 2561.5,-22.5"/>
</a>
</g>
</g>
<!-- Node8 -->
<g id="Node000008" class="node">
<title>Node8</title>
<g id="a_Node000008"><a xlink:title=" ">
<polygon fill="#e0e0e0" stroke="#999999" points="2711,-19 2661,-19 2661,0 2711,0 2711,-19"/>
<text text-anchor="middle" x="2686" y="-7" font-family="Helvetica,sans-Serif" font-size="10.00">cstdint</text>
</a>
</g>
</g>
<!-- Node4&#45;&gt;Node8 -->
<g id="edge7_Node000004_Node000008" class="edge">
<title>Node4&#45;&gt;Node8</title>
<g id="a_edge7_Node000004_Node000008"><a xlink:title=" ">
<path fill="none" stroke="#63b8ff" d="M1458.76,-63.06C1668.07,-61.18 2397.25,-52.44 2650.95,-18.77"/>
<polygon fill="#63b8ff" stroke="#63b8ff" points="2651.44,-22.24 2660.86,-17.41 2650.48,-15.3 2651.44,-22.24"/>
</a>
</g>
</g>
<!-- Node9 -->
<g id="Node000009" class="node">
<title>Node9</title>
<g id="a_Node000009"><a xlink:title=" ">
<polygon fill="#e0e0e0" stroke="#999999" points="60,-19 0,-19 0,0 60,0 60,-19"/>
<text text-anchor="middle" x="30" y="-7" font-family="Helvetica,sans-Serif" font-size="10.00">iostream</text>
</a>
</g>
</g>
<!-- Node4&#45;&gt;Node9 -->
<g id="edge8_Node000004_Node000009" class="edge">
<title>Node4&#45;&gt;Node9</title>
<g id="a_edge8_Node000004_Node000009"><a xlink:title=" ">
<path fill="none" stroke="#63b8ff" d="M1345.45,-56.42C1339.9,-55.88 1334.34,-55.39 1329,-55 773.64,-14.81 626.88,-86.06 70.44,-18.9"/>
<polygon fill="#63b8ff" stroke="#63b8ff" points="70.49,-15.38 60.14,-17.65 69.64,-22.33 70.49,-15.38"/>
</a>
</g>
</g>
<!-- Node10 -->
<g id="Node000010" class="node">
<title>Node10</title>
<g id="a_Node000010"><a xlink:title=" ">
<polygon fill="#e0e0e0" stroke="#999999" points="131.5,-19 78.5,-19 78.5,0 131.5,0 131.5,-19"/>
<text text-anchor="middle" x="105" y="-7" font-family="Helvetica,sans-Serif" font-size="10.00">string.h</text>
</a>
</g>
</g>
<!-- Node4&#45;&gt;Node10 -->
<g id="edge9_Node000004_Node000010" class="edge">
<title>Node4&#45;&gt;Node10</title>
<g id="a_edge9_Node000004_Node000010"><a xlink:title=" ">
<path fill="none" stroke="#63b8ff" d="M1345.45,-56.43C1339.9,-55.88 1334.34,-55.39 1329,-55 805.51,-16.66 666.47,-87.14 141.73,-18.75"/>
<polygon fill="#63b8ff" stroke="#63b8ff" points="142,-15.25 131.63,-17.42 141.08,-22.19 142,-15.25"/>
</a>
</g>
</g>
<!-- Node11 -->
<g id="Node000011" class="node">
<title>Node11</title>
<g id="a_Node000011"><a xlink:title=" ">
<polygon fill="#e0e0e0" stroke="#999999" points="194,-19 150,-19 150,0 194,0 194,-19"/>
<text text-anchor="middle" x="172" y="-7" font-family="Helvetica,sans-Serif" font-size="10.00">string</text>
</a>
</g>
</g>
<!-- Node4&#45;&gt;Node11 -->
<g id="edge10_Node000004_Node000011" class="edge">
<title>Node4&#45;&gt;Node11</title>
<g id="a_edge10_Node000004_Node000011"><a xlink:title=" ">
<path fill="none" stroke="#63b8ff" d="M1345.45,-56.44C1339.9,-55.89 1334.34,-55.4 1329,-55 832.96,-18.26 699.84,-92.73 204.13,-18.76"/>
<polygon fill="#63b8ff" stroke="#63b8ff" points="204.63,-15.29 194.22,-17.27 203.58,-22.21 204.63,-15.29"/>
</a>
</g>
</g>
<!-- Node12 -->
<g id="Node000012" class="node">
<title>Node12</title>
<g id="a_Node000012"><a xlink:title=" ">
<polygon fill="#e0e0e0" stroke="#999999" points="259.5,-19 212.5,-19 212.5,0 259.5,0 259.5,-19"/>
<text text-anchor="middle" x="236" y="-7" font-family="Helvetica,sans-Serif" font-size="10.00">vector</text>
</a>
</g>
</g>
<!-- Node4&#45;&gt;Node12 -->
<g id="edge11_Node000004_Node000012" class="edge">
<title>Node4&#45;&gt;Node12</title>
<g id="a_edge11_Node000004_Node000012"><a xlink:title=" ">
<path fill="none" stroke="#63b8ff" d="M1345.45,-56.45C1339.9,-55.9 1334.34,-55.4 1329,-55 861.83,-19.94 736.52,-87.04 269.68,-18.89"/>
<polygon fill="#63b8ff" stroke="#63b8ff" points="270.04,-15.41 259.64,-17.42 269.02,-22.34 270.04,-15.41"/>
</a>
</g>
</g>
<!-- Node13 -->
<g id="Node000013" class="node">
<title>Node13</title>
<g id="a_Node000013"><a xlink:title=" ">
<polygon fill="#e0e0e0" stroke="#999999" points="324.5,-19 277.5,-19 277.5,0 324.5,0 324.5,-19"/>
<text text-anchor="middle" x="301" y="-7" font-family="Helvetica,sans-Serif" font-size="10.00">deque</text>
</a>
</g>
</g>
<!-- Node4&#45;&gt;Node13 -->
<g id="edge12_Node000004_Node000013" class="edge">
<title>Node4&#45;&gt;Node13</title>
<g id="a_edge12_Node000004_Node000013"><a xlink:title=" ">
<path fill="none" stroke="#63b8ff" d="M1345.45,-56.46C1339.9,-55.91 1334.34,-55.41 1329,-55 890.67,-21.61 772.9,-83.32 334.72,-18.91"/>
<polygon fill="#63b8ff" stroke="#63b8ff" points="335.05,-15.42 324.64,-17.41 334.02,-22.34 335.05,-15.42"/>
</a>
</g>
</g>
<!-- Node14 -->
<g id="Node000014" class="node">
<title>Node14</title>
<g id="a_Node000014"><a xlink:title=" ">
<polygon fill="#e0e0e0" stroke="#999999" points="435.5,-19 342.5,-19 342.5,0 435.5,0 435.5,-19"/>
<text text-anchor="middle" x="389" y="-7" font-family="Helvetica,sans-Serif" font-size="10.00">unordered_map</text>
</a>
</g>
</g>
<!-- Node4&#45;&gt;Node14 -->
<g id="edge13_Node000004_Node000014" class="edge">
<title>Node4&#45;&gt;Node14</title>
<g id="a_edge13_Node000004_Node000014"><a xlink:title=" ">
<path fill="none" stroke="#63b8ff" d="M1345.45,-56.49C1339.9,-55.93 1334.34,-55.42 1329,-55 940.34,-24.5 838.16,-56.01 445.91,-18.95"/>
<polygon fill="#63b8ff" stroke="#63b8ff" points="445.99,-15.45 435.7,-17.98 445.33,-22.42 445.99,-15.45"/>
</a>
</g>
</g>
<!-- Node15 -->
<g id="Node000015" class="node">
<title>Node15</title>
<g id="a_Node000015"><a xlink:title=" ">
<polygon fill="#e0e0e0" stroke="#999999" points="492,-19 454,-19 454,0 492,0 492,-19"/>
<text text-anchor="middle" x="473" y="-7" font-family="Helvetica,sans-Serif" font-size="10.00">map</text>
</a>
</g>
</g>
<!-- Node4&#45;&gt;Node15 -->
<g id="edge14_Node000004_Node000015" class="edge">
<title>Node4&#45;&gt;Node15</title>
<g id="a_edge14_Node000004_Node000015"><a xlink:title=" ">
<path fill="none" stroke="#63b8ff" d="M1345.45,-56.51C1339.9,-55.94 1334.34,-55.43 1329,-55 965.14,-25.94 865.88,-80 502.14,-18.7"/>
<polygon fill="#63b8ff" stroke="#63b8ff" points="502.57,-15.23 492.13,-17 501.4,-22.13 502.57,-15.23"/>
</a>
</g>
</g>
<!-- Node16 -->
<g id="Node000016" class="node">
<title>Node16</title>
<g id="a_Node000016"><a xlink:title=" ">
<polygon fill="#e0e0e0" stroke="#999999" points="568,-19 510,-19 510,0 568,0 568,-19"/>
<text text-anchor="middle" x="539" y="-7" font-family="Helvetica,sans-Serif" font-size="10.00">memory</text>
</a>
</g>
</g>
<!-- Node4&#45;&gt;Node16 -->
<g id="edge15_Node000004_Node000016" class="edge">
<title>Node4&#45;&gt;Node16</title>
<g id="a_edge15_Node000004_Node000016"><a xlink:title=" ">
<path fill="none" stroke="#63b8ff" d="M1345.45,-56.53C1339.89,-55.96 1334.34,-55.44 1329,-55 998.94,-27.92 910.42,-62.95 578.76,-18.99"/>
<polygon fill="#63b8ff" stroke="#63b8ff" points="578.74,-15.45 568.37,-17.59 577.81,-22.39 578.74,-15.45"/>
</a>
</g>
</g>
<!-- Node17 -->
<g id="Node000017" class="node">
<title>Node17</title>
<g id="a_Node000017"><a xlink:title=" ">
<polygon fill="#e0e0e0" stroke="#999999" points="2793,-19 2729,-19 2729,0 2793,0 2793,-19"/>
<text text-anchor="middle" x="2761" y="-7" font-family="Helvetica,sans-Serif" font-size="10.00">algorithm</text>
</a>
</g>
</g>
<!-- Node4&#45;&gt;Node17 -->
<g id="edge16_Node000004_Node000017" class="edge">
<title>Node4&#45;&gt;Node17</title>
<g id="a_edge16_Node000004_Node000017"><a xlink:title=" ">
<path fill="none" stroke="#63b8ff" d="M1458.77,-62.87C1675.31,-60.29 2450.2,-49.17 2718.75,-18.88"/>
<polygon fill="#63b8ff" stroke="#63b8ff" points="2719.33,-22.34 2728.86,-17.7 2718.52,-15.39 2719.33,-22.34"/>
</a>
</g>
</g>
<!-- Node18 -->
<g id="Node000018" class="node">
<title>Node18</title>
<g id="a_Node000018"><a xlink:title=" ">
<polygon fill="#e0e0e0" stroke="#999999" points="651.5,-19 586.5,-19 586.5,0 651.5,0 651.5,-19"/>
<text text-anchor="middle" x="619" y="-7" font-family="Helvetica,sans-Serif" font-size="10.00">functional</text>
</a>
</g>
</g>
<!-- Node4&#45;&gt;Node18 -->
<g id="edge17_Node000004_Node000018" class="edge">
<title>Node4&#45;&gt;Node18</title>
<g id="a_edge17_Node000004_Node000018"><a xlink:title=" ">
<path fill="none" stroke="#63b8ff" d="M1345.44,-56.56C1339.89,-55.99 1334.34,-55.45 1329,-55 1036.08,-30.08 957.69,-55.99 662.1,-18.93"/>
<polygon fill="#63b8ff" stroke="#63b8ff" points="662.3,-15.42 651.94,-17.64 661.42,-22.37 662.3,-15.42"/>
</a>
</g>
</g>
<!-- Node19 -->
<g id="Node000019" class="node">
<title>Node19</title>
<g id="a_Node000019"><a xlink:title=" ">
<polygon fill="#e0e0e0" stroke="#999999" points="720,-19 670,-19 670,0 720,0 720,-19"/>
<text text-anchor="middle" x="695" y="-7" font-family="Helvetica,sans-Serif" font-size="10.00">chrono</text>
</a>
</g>
</g>
<!-- Node4&#45;&gt;Node19 -->
<g id="edge18_Node000004_Node000019" class="edge">
<title>Node4&#45;&gt;Node19</title>
<g id="a_edge18_Node000004_Node000019"><a xlink:title=" ">
<path fill="none" stroke="#63b8ff" d="M1345.44,-56.6C1339.89,-56.02 1334.34,-55.47 1329,-55 1066.13,-31.83 994.78,-58.89 730.05,-18.85"/>
<polygon fill="#63b8ff" stroke="#63b8ff" points="730.56,-15.39 720.15,-17.34 729.5,-22.31 730.56,-15.39"/>
</a>
</g>
</g>
<!-- Node20 -->
<g id="Node000020" class="node">
<title>Node20</title>
<g id="a_Node000020"><a xlink:title=" ">
<polygon fill="#e0e0e0" stroke="#999999" points="784,-19 738,-19 738,0 784,0 784,-19"/>
<text text-anchor="middle" x="761" y="-7" font-family="Helvetica,sans-Serif" font-size="10.00">cstdio</text>
</a>
</g>
</g>
<!-- Node4&#45;&gt;Node20 -->
<g id="edge19_Node000004_Node000020" class="edge">
<title>Node4&#45;&gt;Node20</title>
<g id="a_edge19_Node000004_Node000020"><a xlink:title=" ">
<path fill="none" stroke="#63b8ff" d="M1345.44,-56.64C1339.89,-56.05 1334.34,-55.49 1329,-55 1094.49,-33.48 1030.33,-57.16 794.22,-18.87"/>
<polygon fill="#63b8ff" stroke="#63b8ff" points="794.74,-15.41 784.31,-17.25 793.61,-22.32 794.74,-15.41"/>
</a>
</g>
</g>
<!-- Node21 -->
<g id="Node000021" class="node">
<title>Node21</title>
<g id="a_Node000021"><a xlink:title=" ">
<polygon fill="#e0e0e0" stroke="#999999" points="854,-19 802,-19 802,0 854,0 854,-19"/>
<text text-anchor="middle" x="828" y="-7" font-family="Helvetica,sans-Serif" font-size="10.00">cassert</text>
</a>
</g>
</g>
<!-- Node4&#45;&gt;Node21 -->
<g id="edge20_Node000004_Node000021" class="edge">
<title>Node4&#45;&gt;Node21</title>
<g id="a_edge20_Node000004_Node000021"><a xlink:title=" ">
<path fill="none" stroke="#63b8ff" d="M1345.43,-56.69C1339.88,-56.09 1334.33,-55.52 1329,-55 1125.47,-35.3 1069.88,-51.11 864.19,-18.93"/>
<polygon fill="#63b8ff" stroke="#63b8ff" points="864.71,-15.47 854.28,-17.36 863.61,-22.38 864.71,-15.47"/>
</a>
</g>
</g>
<!-- Node22 -->
<g id="Node000022" class="node">
<title>Node22</title>
<g id="a_Node000022"><a xlink:title=" ">
<polygon fill="#e0e0e0" stroke="#999999" points="937.5,-19 872.5,-19 872.5,0 937.5,0 937.5,-19"/>
<text text-anchor="middle" x="905" y="-7" font-family="Helvetica,sans-Serif" font-size="10.00">typeindex</text>
</a>
</g>
</g>
<!-- Node4&#45;&gt;Node22 -->
<g id="edge21_Node000004_Node000022" class="edge">
<title>Node4&#45;&gt;Node22</title>
<g id="a_edge21_Node000004_Node000022"><a xlink:title=" ">
<path fill="none" stroke="#63b8ff" d="M1345.42,-56.79C1339.87,-56.17 1334.33,-55.56 1329,-55 1162.64,-37.48 1117.41,-43.7 947.97,-18.99"/>
<polygon fill="#63b8ff" stroke="#63b8ff" points="948.36,-15.51 937.96,-17.51 947.34,-22.43 948.36,-15.51"/>
</a>
</g>
</g>
<!-- Node23 -->
<g id="Node000023" class="node">
<title>Node23</title>
<g id="a_Node000023"><a xlink:title=" ">
<polygon fill="#e0e0e0" stroke="#999999" points="1024,-19 956,-19 956,0 1024,0 1024,-19"/>
<text text-anchor="middle" x="990" y="-7" font-family="Helvetica,sans-Serif" font-size="10.00">filesystem</text>
</a>
</g>
</g>
<!-- Node4&#45;&gt;Node23 -->
<g id="edge22_Node000004_Node000023" class="edge">
<title>Node4&#45;&gt;Node23</title>
<g id="a_edge22_Node000004_Node000023"><a xlink:title=" ">
<path fill="none" stroke="#63b8ff" d="M1345.21,-56.89C1255.94,-46.47 1088.12,-26.73 1034.18,-19"/>
<polygon fill="#63b8ff" stroke="#63b8ff" points="1034.64,-15.53 1024.23,-17.51 1033.59,-22.45 1034.64,-15.53"/>
</a>
</g>
</g>
<!-- Node24 -->
<g id="Node000024" class="node">
<title>Node24</title>
<g id="a_Node000024"><a xlink:title=" ">
<polygon fill="#e0e0e0" stroke="#999999" points="1074,-19 1042,-19 1042,0 1074,0 1074,-19"/>
<text text-anchor="middle" x="1058" y="-7" font-family="Helvetica,sans-Serif" font-size="10.00">set</text>
</a>
</g>
</g>
<!-- Node4&#45;&gt;Node24 -->
<g id="edge23_Node000004_Node000024" class="edge">
<title>Node4&#45;&gt;Node24</title>
<g id="a_edge23_Node000004_Node000024"><a xlink:title=" ">
<path fill="none" stroke="#63b8ff" d="M1345.34,-56.9C1271.75,-48.13 1146.25,-32.38 1084.13,-18.78"/>
<polygon fill="#63b8ff" stroke="#63b8ff" points="1084.54,-15.28 1074.01,-16.44 1082.96,-22.1 1084.54,-15.28"/>
</a>
</g>
</g>
<!-- Node25 -->
<g id="Node000025" class="node">
<title>Node25</title>
<g id="a_Node000025"><a xlink:title=" ">
<polygon fill="#e0e0e0" stroke="#999999" points="1147.5,-19 1092.5,-19 1092.5,0 1147.5,0 1147.5,-19"/>
<text text-anchor="middle" x="1120" y="-7" font-family="Helvetica,sans-Serif" font-size="10.00">fstream</text>
</a>
</g>
</g>
<!-- Node4&#45;&gt;Node25 -->
<g id="edge24_Node000004_Node000025" class="edge">
<title>Node4&#45;&gt;Node25</title>
<g id="a_edge24_Node000004_Node000025"><a xlink:title=" ">
<path fill="none" stroke="#63b8ff" d="M1351.19,-54.98C1303.68,-46.85 1230.53,-33.92 1157.66,-19.06"/>
<polygon fill="#63b8ff" stroke="#63b8ff" points="1158.35,-15.63 1147.85,-17.04 1156.94,-22.48 1158.35,-15.63"/>
</a>
</g>
</g>
<!-- Node26 -->
<g id="Node000026" class="node">
<title>Node26</title>
<g id="a_Node000026"><a xlink:title=" ">
<polygon fill="#e0e0e0" stroke="#999999" points="1222,-19 1166,-19 1166,0 1222,0 1222,-19"/>
<text text-anchor="middle" x="1194" y="-7" font-family="Helvetica,sans-Serif" font-size="10.00">sstream</text>
</a>
</g>
</g>
<!-- Node4&#45;&gt;Node26 -->
<g id="edge25_Node000004_Node000026" class="edge">
<title>Node4&#45;&gt;Node26</title>
<g id="a_edge25_Node000004_Node000026"><a xlink:title=" ">
<path fill="none" stroke="#63b8ff" d="M1368.58,-54.98C1331.26,-45.48 1270.99,-30.12 1231.93,-20.17"/>
<polygon fill="#63b8ff" stroke="#63b8ff" points="1232.56,-16.71 1222,-17.63 1230.83,-23.5 1232.56,-16.71"/>
</a>
</g>
</g>
<!-- Node27 -->
<g id="Node000027" class="node">
<title>Node27</title>
<g id="a_Node000027"><a xlink:title=" ">
<polygon fill="#e0e0e0" stroke="#999999" points="1288,-19 1240,-19 1240,0 1288,0 1288,-19"/>
<text text-anchor="middle" x="1264" y="-7" font-family="Helvetica,sans-Serif" font-size="10.00">mutex</text>
</a>
</g>
</g>
<!-- Node4&#45;&gt;Node27 -->
<g id="edge26_Node000004_Node000027" class="edge">
<title>Node4&#45;&gt;Node27</title>
<g id="a_edge26_Node000004_Node000027"><a xlink:title=" ">
<path fill="none" stroke="#63b8ff" d="M1379.83,-54.98C1357.23,-46.3 1321.94,-32.75 1296.25,-22.88"/>
<polygon fill="#63b8ff" stroke="#63b8ff" points="1297.17,-19.49 1286.58,-19.17 1294.66,-26.02 1297.17,-19.49"/>
</a>
</g>
</g>
<!-- Node28 -->
<g id="Node000028" class="node">
<title>Node28</title>
<g id="a_Node000028"><a xlink:title=" ">
<polygon fill="#e0e0e0" stroke="#999999" points="1360,-19 1306,-19 1306,0 1360,0 1360,-19"/>
<text text-anchor="middle" x="1333" y="-7" font-family="Helvetica,sans-Serif" font-size="10.00">random</text>
</a>
</g>
</g>
<!-- Node4&#45;&gt;Node28 -->
<g id="edge27_Node000004_Node000028" class="edge">
<title>Node4&#45;&gt;Node28</title>
<g id="a_edge27_Node000004_Node000028"><a xlink:title=" ">
<path fill="none" stroke="#63b8ff" d="M1390.91,-54.98C1380.51,-47 1364.74,-34.88 1352.28,-25.31"/>
<polygon fill="#63b8ff" stroke="#63b8ff" points="1354.35,-22.49 1344.29,-19.17 1350.09,-28.04 1354.35,-22.49"/>
</a>
</g>
</g>
<!-- Node29 -->
<g id="Node000029" class="node">
<title>Node29</title>
<g id="a_Node000029"><a xlink:title=" ">
<polygon fill="#e0e0e0" stroke="#999999" points="1426,-19 1378,-19 1378,0 1426,0 1426,-19"/>
<text text-anchor="middle" x="1402" y="-7" font-family="Helvetica,sans-Serif" font-size="10.00">thread</text>
</a>
</g>
</g>
<!-- Node4&#45;&gt;Node29 -->
<g id="edge28_Node000004_Node000029" class="edge">
<title>Node4&#45;&gt;Node29</title>
<g id="a_edge28_Node000004_Node000029"><a xlink:title=" ">
<path fill="none" stroke="#63b8ff" d="M1402,-54.75C1402,-47.8 1402,-37.85 1402,-29.13"/>
<polygon fill="#63b8ff" stroke="#63b8ff" points="1405.5,-29.09 1402,-19.09 1398.5,-29.09 1405.5,-29.09"/>
</a>
</g>
</g>
<!-- Node30 -->
<g id="Node000030" class="node">
<title>Node30</title>
<g id="a_Node000030"><a xlink:title=" ">
<polygon fill="#e0e0e0" stroke="#999999" points="1494,-19 1444,-19 1444,0 1494,0 1494,-19"/>
<text text-anchor="middle" x="1469" y="-7" font-family="Helvetica,sans-Serif" font-size="10.00">atomic</text>
</a>
</g>
</g>
<!-- Node4&#45;&gt;Node30 -->
<g id="edge29_Node000004_Node000030" class="edge">
<title>Node4&#45;&gt;Node30</title>
<g id="a_edge29_Node000004_Node000030"><a xlink:title=" ">
<path fill="none" stroke="#63b8ff" d="M1412.76,-54.98C1422.77,-47.07 1437.89,-35.11 1449.93,-25.58"/>
<polygon fill="#63b8ff" stroke="#63b8ff" points="1452.37,-28.12 1458.04,-19.17 1448.03,-22.63 1452.37,-28.12"/>
</a>
</g>
</g>
<!-- Node31 -->
<g id="Node000031" class="node">
<title>Node31</title>
<g id="a_Node000031"><a xlink:title=" ">
<polygon fill="#e0e0e0" stroke="#999999" points="1561.5,-19 1512.5,-19 1512.5,0 1561.5,0 1561.5,-19"/>
<text text-anchor="middle" x="1537" y="-7" font-family="Helvetica,sans-Serif" font-size="10.00">cctype</text>
</a>
</g>
</g>
<!-- Node4&#45;&gt;Node31 -->
<g id="edge30_Node000004_Node000031" class="edge">
<title>Node4&#45;&gt;Node31</title>
<g id="a_edge30_Node000004_Node000031"><a xlink:title=" ">
<path fill="none" stroke="#63b8ff" d="M1423.69,-54.98C1445.8,-46.3 1480.32,-32.75 1505.45,-22.88"/>
<polygon fill="#63b8ff" stroke="#63b8ff" points="1506.89,-26.08 1514.92,-19.17 1504.33,-19.57 1506.89,-26.08"/>
</a>
</g>
</g>
<!-- Node32 -->
<g id="Node000032" class="node">
<title>Node32</title>
<g id="a_Node000032"><a xlink:title=" ">
<polygon fill="#e0e0e0" stroke="#999999" points="1622,-19 1580,-19 1580,0 1622,0 1622,-19"/>
<text text-anchor="middle" x="1601" y="-7" font-family="Helvetica,sans-Serif" font-size="10.00">array</text>
</a>
</g>
</g>
<!-- Node4&#45;&gt;Node32 -->
<g id="edge31_Node000004_Node000032" class="edge">
<title>Node4&#45;&gt;Node32</title>
<g id="a_edge31_Node000004_Node000032"><a xlink:title=" ">
<path fill="none" stroke="#63b8ff" d="M1435.08,-54.98C1467.19,-46.68 1517.54,-33.53 1569.91,-19.26"/>
<polygon fill="#63b8ff" stroke="#63b8ff" points="1570.98,-22.6 1579.71,-16.59 1569.14,-15.84 1570.98,-22.6"/>
</a>
</g>
</g>
<!-- Node33 -->
<g id="Node000033" class="node">
<title>Node33</title>
<g id="a_Node000033"><a xlink:title=" ">
<polygon fill="#e0e0e0" stroke="#999999" points="1709.5,-19 1640.5,-19 1640.5,0 1709.5,0 1709.5,-19"/>
<text text-anchor="middle" x="1675" y="-7" font-family="Helvetica,sans-Serif" font-size="10.00">type_traits</text>
</a>
</g>
</g>
<!-- Node4&#45;&gt;Node33 -->
<g id="edge32_Node000004_Node000033" class="edge">
<title>Node4&#45;&gt;Node33</title>
<g id="a_edge32_Node000004_Node000033"><a xlink:title=" ">
<path fill="none" stroke="#63b8ff" d="M1445.86,-54.98C1496.48,-45.16 1579.29,-29.08 1630.28,-19.18"/>
<polygon fill="#63b8ff" stroke="#63b8ff" points="1631.19,-22.57 1640.34,-17.23 1629.86,-15.7 1631.19,-22.57"/>
</a>
</g>
</g>
<!-- Node34 -->
<g id="Node000034" class="node">
<title>Node34</title>
<g id="a_Node000034"><a xlink:title=" ">
<polygon fill="#e0e0e0" stroke="#999999" points="1772,-19 1728,-19 1728,0 1772,0 1772,-19"/>
<text text-anchor="middle" x="1750" y="-7" font-family="Helvetica,sans-Serif" font-size="10.00">cfloat</text>
</a>
</g>
</g>
<!-- Node4&#45;&gt;Node34 -->
<g id="edge33_Node000004_Node000034" class="edge">
<title>Node4&#45;&gt;Node34</title>
<g id="a_edge33_Node000004_Node000034"><a xlink:title=" ">
<path fill="none" stroke="#63b8ff" d="M1458.78,-57.75C1520.39,-51.01 1621.78,-38.49 1717.85,-19"/>
<polygon fill="#63b8ff" stroke="#63b8ff" points="1718.64,-22.42 1727.73,-16.97 1717.23,-15.56 1718.64,-22.42"/>
</a>
</g>
</g>
<!-- Node35 -->
<g id="Node000035" class="node">
<title>Node35</title>
<g id="a_Node000035"><a xlink:title=" ">
<polygon fill="#e0e0e0" stroke="#999999" points="1900,-19 1790,-19 1790,0 1900,0 1900,-19"/>
<text text-anchor="middle" x="1845" y="-7" font-family="Helvetica,sans-Serif" font-size="10.00">nlohmann/json.hpp</text>
</a>
</g>
</g>
<!-- Node4&#45;&gt;Node35 -->
<g id="edge34_Node000004_Node000035" class="edge">
<title>Node4&#45;&gt;Node35</title>
<g id="a_edge34_Node000004_Node000035"><a xlink:title=" ">
<path fill="none" stroke="#63b8ff" d="M1458.54,-57.13C1530.61,-48.96 1659.33,-34.15 1779.72,-19.14"/>
<polygon fill="#63b8ff" stroke="#63b8ff" points="1780.36,-22.59 1789.85,-17.88 1779.49,-15.65 1780.36,-22.59"/>
</a>
</g>
</g>
<!-- Node36 -->
<g id="Node000036" class="node">
<title>Node36</title>
<g id="a_Node000036"><a xlink:title=" ">
<polygon fill="#e0e0e0" stroke="#999999" points="1974,-19 1918,-19 1918,0 1974,0 1974,-19"/>
<text text-anchor="middle" x="1946" y="-7" font-family="Helvetica,sans-Serif" font-size="10.00">d3d12.h</text>
</a>
</g>
</g>
<!-- Node4&#45;&gt;Node36 -->
<g id="edge35_Node000004_Node000036" class="edge">
<title>Node4&#45;&gt;Node36</title>
<g id="a_edge35_Node000004_Node000036"><a xlink:title=" ">
<path fill="none" stroke="#63b8ff" d="M1458.58,-61.09C1550.75,-56.61 1739.12,-45.11 1907.74,-18.98"/>
<polygon fill="#63b8ff" stroke="#63b8ff" points="1908.46,-22.41 1917.8,-17.4 1907.37,-15.5 1908.46,-22.41"/>
</a>
</g>
</g>
<!-- Node37 -->
<g id="Node000037" class="node">
<title>Node37</title>
<g id="a_Node000037"><a xlink:title=" ">
<polygon fill="#e0e0e0" stroke="#999999" points="2056,-19 1992,-19 1992,0 2056,0 2056,-19"/>
<text text-anchor="middle" x="2024" y="-7" font-family="Helvetica,sans-Serif" font-size="10.00">dxgi1_6.h</text>
</a>
</g>
</g>
<!-- Node4&#45;&gt;Node37 -->
<g id="edge36_Node000004_Node000037" class="edge">
<title>Node4&#45;&gt;Node37</title>
<g id="a_edge36_Node000004_Node000037"><a xlink:title=" ">
<path fill="none" stroke="#63b8ff" d="M1458.75,-61.57C1561.3,-57.54 1784.36,-46.39 1981.86,-18.98"/>
<polygon fill="#63b8ff" stroke="#63b8ff" points="1982.42,-22.43 1991.84,-17.57 1981.45,-15.5 1982.42,-22.43"/>
</a>
</g>
</g>
<!-- Node38 -->
<g id="Node000038" class="node">
<title>Node38</title>
<g id="a_Node000038"><a xlink:title=" ">
<polygon fill="#e0e0e0" stroke="#999999" points="2160,-19 2074,-19 2074,0 2160,0 2160,-19"/>
<text text-anchor="middle" x="2117" y="-7" font-family="Helvetica,sans-Serif" font-size="10.00">d3dcompiler.h</text>
</a>
</g>
</g>
<!-- Node4&#45;&gt;Node38 -->
<g id="edge37_Node000004_Node000038" class="edge">
<title>Node4&#45;&gt;Node38</title>
<g id="a_edge37_Node000004_Node000038"><a xlink:title=" ">
<path fill="none" stroke="#63b8ff" d="M1458.92,-61.5C1572.13,-57.14 1833.71,-45.07 2063.68,-19.04"/>
<polygon fill="#63b8ff" stroke="#63b8ff" points="2064.38,-22.48 2073.91,-17.87 2063.58,-15.53 2064.38,-22.48"/>
</a>
</g>
</g>
<!-- Node39 -->
<g id="Node000039" class="node">
<title>Node39</title>
<g id="a_Node000039"><a xlink:title=" ">
<polygon fill="#e0e0e0" stroke="#999999" points="2897,-19 2811,-19 2811,0 2897,0 2897,-19"/>
<text text-anchor="middle" x="2854" y="-7" font-family="Helvetica,sans-Serif" font-size="10.00">DirectXMath.h</text>
</a>
</g>
</g>
<!-- Node4&#45;&gt;Node39 -->
<g id="edge38_Node000004_Node000039" class="edge">
<title>Node4&#45;&gt;Node39</title>
<g id="a_edge38_Node000004_Node000039"><a xlink:title=" ">
<path fill="none" stroke="#63b8ff" d="M1458.74,-62.68C1683.69,-59.3 2514.08,-45.33 2800.56,-18.97"/>
<polygon fill="#63b8ff" stroke="#63b8ff" points="2801.3,-22.41 2810.93,-17.98 2800.64,-15.44 2801.3,-22.41"/>
</a>
</g>
</g>
<!-- Node40 -->
<g id="Node000040" class="node">
<title>Node40</title>
<g id="a_Node000040"><a xlink:title=" ">
<polygon fill="#e0e0e0" stroke="#999999" points="2295.5,-19 2178.5,-19 2178.5,0 2295.5,0 2295.5,-19"/>
<text text-anchor="middle" x="2237" y="-7" font-family="Helvetica,sans-Serif" font-size="10.00">assimp/Importer.hpp</text>
</a>
</g>
</g>
<!-- Node4&#45;&gt;Node40 -->
<g id="edge39_Node000004_Node000040" class="edge">
<title>Node4&#45;&gt;Node40</title>
<g id="a_edge39_Node000004_Node000040"><a xlink:title=" ">
<path fill="none" stroke="#63b8ff" d="M1458.87,-61.49C1584.67,-56.78 1896.27,-43.55 2168.35,-18.99"/>
<polygon fill="#63b8ff" stroke="#63b8ff" points="2168.78,-22.46 2178.42,-18.07 2168.15,-15.49 2168.78,-22.46"/>
</a>
</g>
</g>
<!-- Node41 -->
<g id="Node000041" class="node">
<title>Node41</title>
<g id="a_Node000041"><a xlink:title=" ">
<polygon fill="#e0e0e0" stroke="#999999" points="2406,-19 2314,-19 2314,0 2406,0 2406,-19"/>
<text text-anchor="middle" x="2360" y="-7" font-family="Helvetica,sans-Serif" font-size="10.00">assimp/scene.h</text>
</a>
</g>
</g>
<!-- Node4&#45;&gt;Node41 -->
<g id="edge40_Node000004_Node000041" class="edge">
<title>Node4&#45;&gt;Node41</title>
<g id="a_edge40_Node000004_Node000041"><a xlink:title=" ">
<path fill="none" stroke="#63b8ff" d="M1458.68,-62.75C1599.77,-60.46 1978.18,-51.6 2303.73,-19.01"/>
<polygon fill="#63b8ff" stroke="#63b8ff" points="2304.23,-22.48 2313.83,-17.99 2303.53,-15.51 2304.23,-22.48"/>
</a>
</g>
</g>
<!-- Node45&#45;&gt;Node3 -->
<g id="edge46_Node000045_Node000003" class="edge">
<title>Node45&#45;&gt;Node3</title>
<g id="a_edge46_Node000045_Node000003"><a xlink:title=" ">
<path fill="none" stroke="#63b8ff" d="M1507.29,-164.99C1473.64,-154.89 1428.79,-141.44 1397.25,-131.98"/>
<polygon fill="#63b8ff" stroke="#63b8ff" points="1398.1,-128.57 1387.51,-129.05 1396.08,-135.28 1398.1,-128.57"/>
</a>
</g>
</g>
<!-- Node46 -->
<g id="Node000046" class="node">
<title>Node46</title>
<g id="a_Node000046"><a xlink:href="SpanMath_8h.html" target="_top" xlink:title="算術ライブラリ (Vector, Matrix, Quaternion)。">
<polygon fill="#fff0f0" stroke="red" points="2342,-74 2214,-74 2214,-55 2342,-55 2342,-74"/>
<text text-anchor="middle" x="2278" y="-62" font-family="Helvetica,sans-Serif" font-size="10.00">Core/Math/SpanMath.h</text>
</a>
</g>
</g>
<!-- Node45&#45;&gt;Node46 -->
<g id="edge43_Node000045_Node000046" class="edge">
<title>Node45&#45;&gt;Node46</title>
<g id="a_edge43_Node000045_Node000046"><a xlink:title=" ">
<path fill="none" stroke="#63b8ff" d="M1556.61,-164.85C1560.42,-148.59 1569.23,-122.53 1588,-110 1638.21,-76.48 2035.57,-68.16 2203.49,-66.14"/>
<polygon fill="#63b8ff" stroke="#63b8ff" points="2203.78,-69.63 2213.74,-66.02 2203.7,-62.63 2203.78,-69.63"/>
</a>
</g>
</g>
<!-- Node46&#45;&gt;Node17 -->
<g id="edge45_Node000046_Node000017" class="edge">
<title>Node46&#45;&gt;Node17</title>
<g id="a_edge45_Node000046_Node000017"><a xlink:title=" ">
<path fill="none" stroke="#63b8ff" d="M2342.31,-59.13C2426.56,-52.95 2579.05,-40.13 2718.79,-19.03"/>
<polygon fill="#63b8ff" stroke="#63b8ff" points="2719.47,-22.47 2728.83,-17.5 2718.41,-15.55 2719.47,-22.47"/>
</a>
</g>
</g>
<!-- Node46&#45;&gt;Node39 -->
<g id="edge44_Node000046_Node000039" class="edge">
<title>Node46&#45;&gt;Node39</title>
<g id="a_edge44_Node000046_Node000039"><a xlink:title=" ">
<path fill="none" stroke="#63b8ff" d="M2342.3,-59.65C2439.4,-53.47 2629.46,-40 2800.94,-19.04"/>
<polygon fill="#63b8ff" stroke="#63b8ff" points="2801.41,-22.51 2810.91,-17.81 2800.55,-15.56 2801.41,-22.51"/>
</a>
</g>
</g>
<!-- Node48&#45;&gt;Node4 -->
<g id="edge49_Node000048_Node000004" class="edge">
<title>Node48&#45;&gt;Node4</title>
<g id="a_edge49_Node000048_Node000004"><a xlink:title=" ">
<path fill="none" stroke="#63b8ff" d="M1738.29,-110.74C1666.63,-101.1 1544.64,-84.69 1468.95,-74.51"/>
<polygon fill="#63b8ff" stroke="#63b8ff" points="1468.97,-70.98 1458.59,-73.11 1468.03,-77.91 1468.97,-70.98"/>
</a>
</g>
</g>
<!-- Node48&#45;&gt;Node46 -->
<g id="edge50_Node000048_Node000046" class="edge">
<title>Node48&#45;&gt;Node46</title>
<g id="a_edge50_Node000048_Node000046"><a xlink:title=" ">
<path fill="none" stroke="#63b8ff" d="M1853.66,-112.16C1941.15,-102.54 2107.4,-84.26 2203.8,-73.66"/>
<polygon fill="#63b8ff" stroke="#63b8ff" points="2204.2,-77.14 2213.76,-72.56 2203.44,-70.18 2204.2,-77.14"/>
</a>
</g>
</g>
<!-- Node59&#45;&gt;Node3 -->
<g id="edge55_Node000059_Node000003" class="edge">
<title>Node59&#45;&gt;Node3</title>
<g id="a_edge55_Node000059_Node000003"><a xlink:title=" ">
<path fill="none" stroke="#63b8ff" d="M1252.93,-230.76C1249.91,-215.81 1246.09,-185.01 1260,-165 1270.94,-149.27 1288.8,-139.02 1306.37,-132.37"/>
<polygon fill="#63b8ff" stroke="#63b8ff" points="1307.74,-135.6 1316.05,-129.04 1305.46,-128.98 1307.74,-135.6"/>
</a>
</g>
</g>
<!-- Node61 -->
<g id="Node000061" class="node">
<title>Node61</title>
<g id="a_Node000061"><a xlink:href="Entity_8h.html" target="_top" xlink:title="ECSにおけるオブジェクトの識別子 (ID) を定義します。">
<polygon fill="white" stroke="#666666" points="1705,-129 1597,-129 1597,-110 1705,-110 1705,-129"/>
<text text-anchor="middle" x="1651" y="-117" font-family="Helvetica,sans-Serif" font-size="10.00">ECS/Kernel/Entity.h</text>
</a>
</g>
</g>
<!-- Node60&#45;&gt;Node61 -->
<g id="edge57_Node000060_Node000061" class="edge">
<title>Node60&#45;&gt;Node61</title>
<g id="a_edge57_Node000060_Node000061"><a xlink:title=" ">
<path fill="none" stroke="#63b8ff" d="M1734.79,-230.87C1749.64,-223.69 1768.16,-211.91 1777,-195 1783.18,-183.18 1784.7,-175.89 1777,-165 1762.76,-144.86 1738.61,-133.78 1715.25,-127.7"/>
<polygon fill="#63b8ff" stroke="#63b8ff" points="1715.85,-124.24 1705.32,-125.39 1714.26,-131.06 1715.85,-124.24"/>
</a>
</g>
</g>
<!-- Node61&#45;&gt;Node4 -->
<g id="edge58_Node000061_Node000004" class="edge">
<title>Node61&#45;&gt;Node4</title>
<g id="a_edge58_Node000061_Node000004"><a xlink:title=" ">
<path fill="none" stroke="#63b8ff" d="M1610.99,-109.98C1567.83,-100.8 1499.02,-86.15 1452.24,-76.19"/>
<polygon fill="#63b8ff" stroke="#63b8ff" points="1452.83,-72.74 1442.32,-74.08 1451.37,-79.59 1452.83,-72.74"/>
</a>
</g>
</g>
</g>
</svg>
