<?xml version="1.0" encoding="UTF-8" standalone="no"?>
<!DOCTYPE svg PUBLIC "-//W3C//DTD SVG 1.1//EN"
 "http://www.w3.org/Graphics/SVG/1.1/DTD/svg11.dtd">
<!-- Generated by graphviz version 2.43.0 (0)
 -->
<!-- Title: Engine/Source/SpanEditor.h Pages: 1 -->
<svg width="2316pt" height="368pt"
 viewBox="0.00 0.00 2315.50 368.00" xmlns="http://www.w3.org/2000/svg" xmlns:xlink="http://www.w3.org/1999/xlink">
<g id="graph0" class="graph" transform="scale(1 1) rotate(0) translate(4 364)">
<title>Engine/Source/SpanEditor.h</title>
<!-- Node1 -->
<g id="Node000001" class="node">
<title>Node1</title>
<g id="a_Node000001"><a xlink:title=" ">
<polygon fill="#999999" stroke="#666666" points="695.5,-360 546.5,-360 546.5,-341 695.5,-341 695.5,-360"/>
<text text-anchor="middle" x="621" y="-348" font-family="Helvetica,sans-Serif" font-size="10.00">Engine/Source/SpanEditor.h</text>
</a>
</g>
</g>
<!-- Node2 -->
<g id="Node000002" class="node">
<title>Node2</title>
<g id="a_Node000002"><a xlink:href="GuiManager_8h.html" target="_top" xlink:title="ImGuiのライフサイクルとレンダリング管理。">
<polygon fill="white" stroke="#666666" points="679,-305 563,-305 563,-286 679,-286 679,-305"/>
<text text-anchor="middle" x="621" y="-293" font-family="Helvetica,sans-Serif" font-size="10.00">Editor/GuiManager.h</text>
</a>
</g>
</g>
<!-- Node1&#45;&gt;Node2 -->
<g id="edge1_Node000001_Node000002" class="edge">
<title>Node1&#45;&gt;Node2</title>
<g id="a_edge1_Node000001_Node000002"><a xlink:title=" ">
<path fill="none" stroke="#63b8ff" d="M621,-340.75C621,-333.8 621,-323.85 621,-315.13"/>
<polygon fill="#63b8ff" stroke="#63b8ff" points="624.5,-315.09 621,-305.09 617.5,-315.09 624.5,-315.09"/>
</a>
</g>
</g>
<!-- Node47 -->
<g id="Node000047" class="node">
<title>Node47</title>
<g id="a_Node000047"><a xlink:href="PanelManager_8h.html" target="_top" xlink:title="エディタパネルのファクトリーと自動登録システム。">
<polygon fill="white" stroke="#666666" points="467.5,-305 342.5,-305 342.5,-286 467.5,-286 467.5,-305"/>
<text text-anchor="middle" x="405" y="-293" font-family="Helvetica,sans-Serif" font-size="10.00">Editor/PanelManager.h</text>
</a>
</g>
</g>
<!-- Node1&#45;&gt;Node47 -->
<g id="edge64_Node000001_Node000047" class="edge">
<title>Node1&#45;&gt;Node47</title>
<g id="a_edge64_Node000001_Node000047"><a xlink:title=" ">
<path fill="none" stroke="#63b8ff" d="M586.3,-340.98C549.25,-331.89 490.41,-317.46 449.87,-307.51"/>
<polygon fill="#63b8ff" stroke="#63b8ff" points="450.52,-304.07 439.98,-305.08 448.85,-310.86 450.52,-304.07"/>
</a>
</g>
</g>
<!-- Node48 -->
<g id="Node000048" class="node">
<title>Node48</title>
<g id="a_Node000048"><a xlink:href="SelectionManager_8h.html" target="_top" xlink:title="エディタ内でのオブジェクト選択状態の管理">
<polygon fill="white" stroke="#666666" points="1108,-305 964,-305 964,-286 1108,-286 1108,-305"/>
<text text-anchor="middle" x="1036" y="-293" font-family="Helvetica,sans-Serif" font-size="10.00">Editor/SelectionManager.h</text>
</a>
</g>
</g>
<!-- Node1&#45;&gt;Node48 -->
<g id="edge66_Node000001_Node000048" class="edge">
<title>Node1&#45;&gt;Node48</title>
<g id="a_edge66_Node000001_Node000048"><a xlink:title=" ">
<path fill="none" stroke="#63b8ff" d="M687.68,-340.98C761.68,-331.53 880.94,-316.3 958.9,-306.35"/>
<polygon fill="#63b8ff" stroke="#63b8ff" points="959.67,-309.78 969.14,-305.04 958.78,-302.83 959.67,-309.78"/>
</a>
</g>
</g>
<!-- Node3 -->
<g id="Node000003" class="node">
<title>Node3</title>
<g id="a_Node000003"><a xlink:href="EditorPanel_8h.html" target="_top" xlink:title="エディタ上のウィンドウ (パネル) の基底クラス。">
<polygon fill="white" stroke="#666666" points="509.5,-184 394.5,-184 394.5,-165 509.5,-165 509.5,-184"/>
<text text-anchor="middle" x="452" y="-172" font-family="Helvetica,sans-Serif" font-size="10.00">Panels/EditorPanel.h</text>
</a>
</g>
</g>
<!-- Node2&#45;&gt;Node3 -->
<g id="edge2_Node000002_Node000003" class="edge">
<title>Node2&#45;&gt;Node3</title>
<g id="a_edge2_Node000002_Node000003"><a xlink:title=" ">
<path fill="none" stroke="#63b8ff" d="M562.62,-289.27C510.94,-283.29 441.13,-271.43 424,-250 410.32,-232.88 424.34,-208.37 436.99,-192.21"/>
<polygon fill="#63b8ff" stroke="#63b8ff" points="439.97,-194.1 443.69,-184.18 434.59,-189.61 439.97,-194.1"/>
</a>
</g>
</g>
<!-- Node4 -->
<g id="Node000004" class="node">
<title>Node4</title>
<g id="a_Node000004"><a xlink:href="CoreMinimal_8h.html" target="_top" xlink:title="エンジンの標準インクルードファイル。">
<polygon fill="white" stroke="#666666" points="1095.5,-74 982.5,-74 982.5,-55 1095.5,-55 1095.5,-74"/>
<text text-anchor="middle" x="1039" y="-62" font-family="Helvetica,sans-Serif" font-size="10.00">Core/CoreMinimal.h</text>
</a>
</g>
</g>
<!-- Node2&#45;&gt;Node4 -->
<g id="edge40_Node000002_Node000004" class="edge">
<title>Node2&#45;&gt;Node4</title>
<g id="a_edge40_Node000002_Node000004"><a xlink:title=" ">
<path fill="none" stroke="#63b8ff" d="M679.1,-293.05C814.02,-288.27 1141.76,-268.06 1203,-184 1240.43,-132.63 1143.03,-94.68 1082.69,-76.84"/>
<polygon fill="#63b8ff" stroke="#63b8ff" points="1083.57,-73.45 1072.99,-74.05 1081.63,-80.18 1083.57,-73.45"/>
</a>
</g>
</g>
<!-- Node33 -->
<g id="Node000033" class="node">
<title>Node33</title>
<g id="a_Node000033"><a xlink:title=" ">
<polygon fill="#e0e0e0" stroke="#999999" points="408.5,-129 355.5,-129 355.5,-110 408.5,-110 408.5,-129"/>
<text text-anchor="middle" x="382" y="-117" font-family="Helvetica,sans-Serif" font-size="10.00">imgui.h</text>
</a>
</g>
</g>
<!-- Node2&#45;&gt;Node33 -->
<g id="edge61_Node000002_Node000033" class="edge">
<title>Node2&#45;&gt;Node33</title>
<g id="a_edge61_Node000002_Node000033"><a xlink:title=" ">
<path fill="none" stroke="#63b8ff" d="M562.81,-288.03C509.76,-281.07 436.35,-268.47 414,-250 381.22,-222.91 379,-168.05 380.37,-139.2"/>
<polygon fill="#63b8ff" stroke="#63b8ff" points="383.86,-139.43 381.04,-129.21 376.88,-138.96 383.86,-139.43"/>
</a>
</g>
</g>
<!-- Node34 -->
<g id="Node000034" class="node">
<title>Node34</title>
<g id="a_Node000034"><a xlink:href="SceneViewPanel_8h.html" target="_top" xlink:title="レンダリング結果と操作ギズモを表示するパネル">
<polygon fill="white" stroke="#666666" points="855.5,-250 694.5,-250 694.5,-220 855.5,-220 855.5,-250"/>
<text text-anchor="start" x="702.5" y="-238" font-family="Helvetica,sans-Serif" font-size="10.00">Panels/SceneView/SceneView</text>
<text text-anchor="middle" x="775" y="-227" font-family="Helvetica,sans-Serif" font-size="10.00">Panel.h</text>
</a>
</g>
</g>
<!-- Node2&#45;&gt;Node34 -->
<g id="edge34_Node000002_Node000034" class="edge">
<title>Node2&#45;&gt;Node34</title>
<g id="a_edge34_Node000002_Node000034"><a xlink:title=" ">
<path fill="none" stroke="#63b8ff" d="M643.39,-285.99C665.56,-277.57 700.15,-264.43 728.31,-253.73"/>
<polygon fill="#63b8ff" stroke="#63b8ff" points="729.87,-256.89 737.98,-250.06 727.39,-250.34 729.87,-256.89"/>
</a>
</g>
</g>
<!-- Node37 -->
<g id="Node000037" class="node">
<title>Node37</title>
<g id="a_Node000037"><a xlink:href="Renderer_8h.html" target="_top" xlink:title="描画パイプラインの構築と実行。">
<polygon fill="white" stroke="#666666" points="988.5,-244.5 873.5,-244.5 873.5,-225.5 988.5,-225.5 988.5,-244.5"/>
<text text-anchor="middle" x="931" y="-232.5" font-family="Helvetica,sans-Serif" font-size="10.00">Graphics/Renderer.h</text>
</a>
</g>
</g>
<!-- Node2&#45;&gt;Node37 -->
<g id="edge41_Node000002_Node000037" class="edge">
<title>Node2&#45;&gt;Node37</title>
<g id="a_edge41_Node000002_Node000037"><a xlink:title=" ">
<path fill="none" stroke="#63b8ff" d="M670.15,-285.96C719.48,-277.29 797.62,-263.29 865,-250 870.39,-248.94 876.01,-247.79 881.61,-246.64"/>
<polygon fill="#63b8ff" stroke="#63b8ff" points="882.53,-250.02 891.6,-244.55 881.1,-243.17 882.53,-250.02"/>
</a>
</g>
</g>
<!-- Node45 -->
<g id="Node000045" class="node">
<title>Node45</title>
<g id="a_Node000045"><a xlink:title=" ">
<polygon fill="#e0e0e0" stroke="#999999" points="547.5,-244.5 432.5,-244.5 432.5,-225.5 547.5,-225.5 547.5,-244.5"/>
<text text-anchor="middle" x="490" y="-232.5" font-family="Helvetica,sans-Serif" font-size="10.00">imgui_impl_win32.h</text>
</a>
</g>
</g>
<!-- Node2&#45;&gt;Node45 -->
<g id="edge62_Node000002_Node000045" class="edge">
<title>Node2&#45;&gt;Node45</title>
<g id="a_edge62_Node000002_Node000045"><a xlink:title=" ">
<path fill="none" stroke="#63b8ff" d="M601.95,-285.99C580.03,-276.2 543.79,-260.02 518.5,-248.73"/>
<polygon fill="#63b8ff" stroke="#63b8ff" points="519.63,-245.4 509.07,-244.52 516.78,-251.79 519.63,-245.4"/>
</a>
</g>
</g>
<!-- Node46 -->
<g id="Node000046" class="node">
<title>Node46</title>
<g id="a_Node000046"><a xlink:title=" ">
<polygon fill="#e0e0e0" stroke="#999999" points="676,-244.5 566,-244.5 566,-225.5 676,-225.5 676,-244.5"/>
<text text-anchor="middle" x="621" y="-232.5" font-family="Helvetica,sans-Serif" font-size="10.00">imgui_impl_dx12.h</text>
</a>
</g>
</g>
<!-- Node2&#45;&gt;Node46 -->
<g id="edge63_Node000002_Node000046" class="edge">
<title>Node2&#45;&gt;Node46</title>
<g id="a_edge63_Node000002_Node000046"><a xlink:title=" ">
<path fill="none" stroke="#63b8ff" d="M621,-285.87C621,-277.75 621,-265.31 621,-254.89"/>
<polygon fill="#63b8ff" stroke="#63b8ff" points="624.5,-254.67 621,-244.67 617.5,-254.67 624.5,-254.67"/>
</a>
</g>
</g>
<!-- Node3&#45;&gt;Node4 -->
<g id="edge3_Node000003_Node000004" class="edge">
<title>Node3&#45;&gt;Node4</title>
<g id="a_edge3_Node000003_Node000004"><a xlink:title=" ">
<path fill="none" stroke="#63b8ff" d="M451.75,-164.87C451.86,-150.87 454.35,-123.44 471,-110 509.22,-79.14 830.15,-69.38 972.02,-66.55"/>
<polygon fill="#63b8ff" stroke="#63b8ff" points="972.39,-70.05 982.32,-66.35 972.26,-63.05 972.39,-70.05"/>
</a>
</g>
</g>
<!-- Node3&#45;&gt;Node33 -->
<g id="edge33_Node000003_Node000033" class="edge">
<title>Node3&#45;&gt;Node33</title>
<g id="a_edge33_Node000003_Node000033"><a xlink:title=" ">
<path fill="none" stroke="#63b8ff" d="M440.75,-164.98C430.2,-157 414.2,-144.88 401.56,-135.31"/>
<polygon fill="#63b8ff" stroke="#63b8ff" points="403.54,-132.42 393.45,-129.17 399.31,-138 403.54,-132.42"/>
</a>
</g>
</g>
<!-- Node5 -->
<g id="Node000005" class="node">
<title>Node5</title>
<g id="a_Node000005"><a xlink:title=" ">
<polygon fill="#e0e0e0" stroke="#999999" points="2248,-19 2178,-19 2178,0 2248,0 2248,-19"/>
<text text-anchor="middle" x="2213" y="-7" font-family="Helvetica,sans-Serif" font-size="10.00">Windows.h</text>
</a>
</g>
</g>
<!-- Node4&#45;&gt;Node5 -->
<g id="edge4_Node000004_Node000005" class="edge">
<title>Node4&#45;&gt;Node5</title>
<g id="a_edge4_Node000004_Node000005"><a xlink:title=" ">
<path fill="none" stroke="#63b8ff" d="M1095.64,-62.41C1291.22,-58.45 1938.29,-43.87 2167.58,-18.95"/>
<polygon fill="#63b8ff" stroke="#63b8ff" points="2167.98,-22.43 2177.53,-17.83 2167.2,-15.47 2167.98,-22.43"/>
</a>
</g>
</g>
<!-- Node6 -->
<g id="Node000006" class="node">
<title>Node6</title>
<g id="a_Node000006"><a xlink:title=" ">
<polygon fill="#e0e0e0" stroke="#999999" points="2307.5,-19 2266.5,-19 2266.5,0 2307.5,0 2307.5,-19"/>
<text text-anchor="middle" x="2287" y="-7" font-family="Helvetica,sans-Serif" font-size="10.00">wrl.h</text>
</a>
</g>
</g>
<!-- Node4&#45;&gt;Node6 -->
<g id="edge5_Node000004_Node000006" class="edge">
<title>Node4&#45;&gt;Node6</title>
<g id="a_edge5_Node000004_Node000006"><a xlink:title=" ">
<path fill="none" stroke="#63b8ff" d="M1095.76,-63.23C1301.61,-61.96 2009.19,-55.14 2256.47,-18.55"/>
<polygon fill="#63b8ff" stroke="#63b8ff" points="2257.14,-21.99 2266.49,-17.01 2256.07,-15.07 2257.14,-21.99"/>
</a>
</g>
</g>
<!-- Node7 -->
<g id="Node000007" class="node">
<title>Node7</title>
<g id="a_Node000007"><a xlink:title=" ">
<polygon fill="#e0e0e0" stroke="#999999" points="257.5,-19 186.5,-19 186.5,0 257.5,0 257.5,-19"/>
<text text-anchor="middle" x="222" y="-7" font-family="Helvetica,sans-Serif" font-size="10.00">wrl/client.h</text>
</a>
</g>
</g>
<!-- Node4&#45;&gt;Node7 -->
<g id="edge6_Node000004_Node000007" class="edge">
<title>Node4&#45;&gt;Node7</title>
<g id="a_edge6_Node000004_Node000007"><a xlink:title=" ">
<path fill="none" stroke="#63b8ff" d="M982.11,-62.73C855.55,-60.48 540.97,-51.88 267.9,-18.93"/>
<polygon fill="#63b8ff" stroke="#63b8ff" points="268.15,-15.43 257.8,-17.69 267.3,-22.38 268.15,-15.43"/>
</a>
</g>
</g>
<!-- Node8 -->
<g id="Node000008" class="node">
<title>Node8</title>
<g id="a_Node000008"><a xlink:title=" ">
<polygon fill="#e0e0e0" stroke="#999999" points="326,-19 276,-19 276,0 326,0 326,-19"/>
<text text-anchor="middle" x="301" y="-7" font-family="Helvetica,sans-Serif" font-size="10.00">cstdint</text>
</a>
</g>
</g>
<!-- Node4&#45;&gt;Node8 -->
<g id="edge7_Node000004_Node000008" class="edge">
<title>Node4&#45;&gt;Node8</title>
<g id="a_edge7_Node000004_Node000008"><a xlink:title=" ">
<path fill="none" stroke="#63b8ff" d="M982.04,-63.4C863.43,-62.43 581.26,-56.19 336.31,-18.9"/>
<polygon fill="#63b8ff" stroke="#63b8ff" points="336.56,-15.39 326.15,-17.33 335.5,-22.31 336.56,-15.39"/>
</a>
</g>
</g>
<!-- Node9 -->
<g id="Node000009" class="node">
<title>Node9</title>
<g id="a_Node000009"><a xlink:title=" ">
<polygon fill="#e0e0e0" stroke="#999999" points="404,-19 344,-19 344,0 404,0 404,-19"/>
<text text-anchor="middle" x="374" y="-7" font-family="Helvetica,sans-Serif" font-size="10.00">iostream</text>
</a>
</g>
</g>
<!-- Node4&#45;&gt;Node9 -->
<g id="edge8_Node000004_Node000009" class="edge">
<title>Node4&#45;&gt;Node9</title>
<g id="a_edge8_Node000004_Node000009"><a xlink:title=" ">
<path fill="none" stroke="#63b8ff" d="M982.27,-62.09C872.2,-58.76 622.16,-48.38 414,-19 413.9,-18.99 413.8,-18.97 413.7,-18.96"/>
<polygon fill="#63b8ff" stroke="#63b8ff" points="414.5,-15.54 404.06,-17.35 413.35,-22.45 414.5,-15.54"/>
</a>
</g>
</g>
<!-- Node10 -->
<g id="Node000010" class="node">
<title>Node10</title>
<g id="a_Node000010"><a xlink:title=" ">
<polygon fill="#e0e0e0" stroke="#999999" points="475.5,-19 422.5,-19 422.5,0 475.5,0 475.5,-19"/>
<text text-anchor="middle" x="449" y="-7" font-family="Helvetica,sans-Serif" font-size="10.00">string.h</text>
</a>
</g>
</g>
<!-- Node4&#45;&gt;Node10 -->
<g id="edge9_Node000004_Node000010" class="edge">
<title>Node4&#45;&gt;Node10</title>
<g id="a_edge9_Node000004_Node000010"><a xlink:title=" ">
<path fill="none" stroke="#63b8ff" d="M982.44,-61.79C883.6,-58.18 672.96,-47.75 485.68,-18.84"/>
<polygon fill="#63b8ff" stroke="#63b8ff" points="486.07,-15.36 475.65,-17.27 484.99,-22.27 486.07,-15.36"/>
</a>
</g>
</g>
<!-- Node11 -->
<g id="Node000011" class="node">
<title>Node11</title>
<g id="a_Node000011"><a xlink:title=" ">
<polygon fill="#e0e0e0" stroke="#999999" points="538,-19 494,-19 494,0 538,0 538,-19"/>
<text text-anchor="middle" x="516" y="-7" font-family="Helvetica,sans-Serif" font-size="10.00">string</text>
</a>
</g>
</g>
<!-- Node4&#45;&gt;Node11 -->
<g id="edge10_Node000004_Node000011" class="edge">
<title>Node4&#45;&gt;Node11</title>
<g id="a_edge10_Node000004_Node000011"><a xlink:title=" ">
<path fill="none" stroke="#63b8ff" d="M982.26,-61.48C892.29,-57.58 711.33,-46.98 548.48,-18.73"/>
<polygon fill="#63b8ff" stroke="#63b8ff" points="548.73,-15.22 538.27,-16.93 547.51,-22.11 548.73,-15.22"/>
</a>
</g>
</g>
<!-- Node12 -->
<g id="Node000012" class="node">
<title>Node12</title>
<g id="a_Node000012"><a xlink:title=" ">
<polygon fill="#e0e0e0" stroke="#999999" points="603.5,-19 556.5,-19 556.5,0 603.5,0 603.5,-19"/>
<text text-anchor="middle" x="580" y="-7" font-family="Helvetica,sans-Serif" font-size="10.00">vector</text>
</a>
</g>
</g>
<!-- Node4&#45;&gt;Node12 -->
<g id="edge11_Node000004_Node000012" class="edge">
<title>Node4&#45;&gt;Node12</title>
<g id="a_edge11_Node000004_Node000012"><a xlink:title=" ">
<path fill="none" stroke="#63b8ff" d="M982.46,-60.27C902.44,-55.1 751.47,-43.19 613.6,-18.83"/>
<polygon fill="#63b8ff" stroke="#63b8ff" points="614.16,-15.37 603.7,-17.05 612.93,-22.26 614.16,-15.37"/>
</a>
</g>
</g>
<!-- Node13 -->
<g id="Node000013" class="node">
<title>Node13</title>
<g id="a_Node000013"><a xlink:title=" ">
<polygon fill="#e0e0e0" stroke="#999999" points="668.5,-19 621.5,-19 621.5,0 668.5,0 668.5,-19"/>
<text text-anchor="middle" x="645" y="-7" font-family="Helvetica,sans-Serif" font-size="10.00">deque</text>
</a>
</g>
</g>
<!-- Node4&#45;&gt;Node13 -->
<g id="edge12_Node000004_Node000013" class="edge">
<title>Node4&#45;&gt;Node13</title>
<g id="a_edge12_Node000004_Node000013"><a xlink:title=" ">
<path fill="none" stroke="#63b8ff" d="M982.37,-58.81C913.01,-52.55 791.82,-39.97 678.59,-18.87"/>
<polygon fill="#63b8ff" stroke="#63b8ff" points="679.19,-15.42 668.71,-17 677.89,-22.29 679.19,-15.42"/>
</a>
</g>
</g>
<!-- Node14 -->
<g id="Node000014" class="node">
<title>Node14</title>
<g id="a_Node000014"><a xlink:title=" ">
<polygon fill="#e0e0e0" stroke="#999999" points="779.5,-19 686.5,-19 686.5,0 779.5,0 779.5,-19"/>
<text text-anchor="middle" x="733" y="-7" font-family="Helvetica,sans-Serif" font-size="10.00">unordered_map</text>
</a>
</g>
</g>
<!-- Node4&#45;&gt;Node14 -->
<g id="edge13_Node000004_Node000014" class="edge">
<title>Node4&#45;&gt;Node14</title>
<g id="a_edge13_Node000004_Node000014"><a xlink:title=" ">
<path fill="none" stroke="#63b8ff" d="M989.84,-54.98C935.17,-45.52 847.02,-30.25 789.54,-20.29"/>
<polygon fill="#63b8ff" stroke="#63b8ff" points="789.99,-16.82 779.53,-18.56 788.79,-23.72 789.99,-16.82"/>
</a>
</g>
</g>
<!-- Node15 -->
<g id="Node000015" class="node">
<title>Node15</title>
<g id="a_Node000015"><a xlink:title=" ">
<polygon fill="#e0e0e0" stroke="#999999" points="836,-19 798,-19 798,0 836,0 836,-19"/>
<text text-anchor="middle" x="817" y="-7" font-family="Helvetica,sans-Serif" font-size="10.00">map</text>
</a>
</g>
</g>
<!-- Node4&#45;&gt;Node15 -->
<g id="edge14_Node000004_Node000015" class="edge">
<title>Node4&#45;&gt;Node15</title>
<g id="a_edge14_Node000004_Node000015"><a xlink:title=" ">
<path fill="none" stroke="#63b8ff" d="M997.92,-54.94C960.59,-46.97 903.81,-34.37 845.91,-19.1"/>
<polygon fill="#63b8ff" stroke="#63b8ff" points="846.79,-15.72 836.23,-16.53 844.99,-22.48 846.79,-15.72"/>
</a>
</g>
</g>
<!-- Node16 -->
<g id="Node000016" class="node">
<title>Node16</title>
<g id="a_Node000016"><a xlink:title=" ">
<polygon fill="#e0e0e0" stroke="#999999" points="912,-19 854,-19 854,0 912,0 912,-19"/>
<text text-anchor="middle" x="883" y="-7" font-family="Helvetica,sans-Serif" font-size="10.00">memory</text>
</a>
</g>
</g>
<!-- Node4&#45;&gt;Node16 -->
<g id="edge15_Node000004_Node000016" class="edge">
<title>Node4&#45;&gt;Node16</title>
<g id="a_edge15_Node000004_Node000016"><a xlink:title=" ">
<path fill="none" stroke="#63b8ff" d="M1013.94,-54.98C987.97,-46.16 947.19,-32.31 918.04,-22.41"/>
<polygon fill="#63b8ff" stroke="#63b8ff" points="918.85,-18.99 908.26,-19.08 916.6,-25.61 918.85,-18.99"/>
</a>
</g>
</g>
<!-- Node17 -->
<g id="Node000017" class="node">
<title>Node17</title>
<g id="a_Node000017"><a xlink:title=" ">
<polygon fill="#e0e0e0" stroke="#999999" points="64,-19 0,-19 0,0 64,0 64,-19"/>
<text text-anchor="middle" x="32" y="-7" font-family="Helvetica,sans-Serif" font-size="10.00">algorithm</text>
</a>
</g>
</g>
<!-- Node4&#45;&gt;Node17 -->
<g id="edge16_Node000004_Node000017" class="edge">
<title>Node4&#45;&gt;Node17</title>
<g id="a_edge16_Node000004_Node000017"><a xlink:title=" ">
<path fill="none" stroke="#63b8ff" d="M982.36,-62.07C806.42,-57.45 270.02,-41.93 74.32,-18.91"/>
<polygon fill="#63b8ff" stroke="#63b8ff" points="74.5,-15.41 64.15,-17.67 73.65,-22.35 74.5,-15.41"/>
</a>
</g>
</g>
<!-- Node18 -->
<g id="Node000018" class="node">
<title>Node18</title>
<g id="a_Node000018"><a xlink:title=" ">
<polygon fill="#e0e0e0" stroke="#999999" points="995.5,-19 930.5,-19 930.5,0 995.5,0 995.5,-19"/>
<text text-anchor="middle" x="963" y="-7" font-family="Helvetica,sans-Serif" font-size="10.00">functional</text>
</a>
</g>
</g>
<!-- Node4&#45;&gt;Node18 -->
<g id="edge17_Node000004_Node000018" class="edge">
<title>Node4&#45;&gt;Node18</title>
<g id="a_edge17_Node000004_Node000018"><a xlink:title=" ">
<path fill="none" stroke="#63b8ff" d="M1026.79,-54.98C1015.22,-46.92 997.62,-34.65 983.84,-25.03"/>
<polygon fill="#63b8ff" stroke="#63b8ff" points="985.64,-22.02 975.43,-19.17 981.63,-27.76 985.64,-22.02"/>
</a>
</g>
</g>
<!-- Node19 -->
<g id="Node000019" class="node">
<title>Node19</title>
<g id="a_Node000019"><a xlink:title=" ">
<polygon fill="#e0e0e0" stroke="#999999" points="1064,-19 1014,-19 1014,0 1064,0 1064,-19"/>
<text text-anchor="middle" x="1039" y="-7" font-family="Helvetica,sans-Serif" font-size="10.00">chrono</text>
</a>
</g>
</g>
<!-- Node4&#45;&gt;Node19 -->
<g id="edge18_Node000004_Node000019" class="edge">
<title>Node4&#45;&gt;Node19</title>
<g id="a_edge18_Node000004_Node000019"><a xlink:title=" ">
<path fill="none" stroke="#63b8ff" d="M1039,-54.75C1039,-47.8 1039,-37.85 1039,-29.13"/>
<polygon fill="#63b8ff" stroke="#63b8ff" points="1042.5,-29.09 1039,-19.09 1035.5,-29.09 1042.5,-29.09"/>
</a>
</g>
</g>
<!-- Node20 -->
<g id="Node000020" class="node">
<title>Node20</title>
<g id="a_Node000020"><a xlink:title=" ">
<polygon fill="#e0e0e0" stroke="#999999" points="1128,-19 1082,-19 1082,0 1128,0 1128,-19"/>
<text text-anchor="middle" x="1105" y="-7" font-family="Helvetica,sans-Serif" font-size="10.00">cstdio</text>
</a>
</g>
</g>
<!-- Node4&#45;&gt;Node20 -->
<g id="edge19_Node000004_Node000020" class="edge">
<title>Node4&#45;&gt;Node20</title>
<g id="a_edge19_Node000004_Node000020"><a xlink:title=" ">
<path fill="none" stroke="#63b8ff" d="M1049.6,-54.98C1059.46,-47.07 1074.35,-35.11 1086.22,-25.58"/>
<polygon fill="#63b8ff" stroke="#63b8ff" points="1088.6,-28.16 1094.2,-19.17 1084.21,-22.7 1088.6,-28.16"/>
</a>
</g>
</g>
<!-- Node21 -->
<g id="Node000021" class="node">
<title>Node21</title>
<g id="a_Node000021"><a xlink:title=" ">
<polygon fill="#e0e0e0" stroke="#999999" points="1198,-19 1146,-19 1146,0 1198,0 1198,-19"/>
<text text-anchor="middle" x="1172" y="-7" font-family="Helvetica,sans-Serif" font-size="10.00">cassert</text>
</a>
</g>
</g>
<!-- Node4&#45;&gt;Node21 -->
<g id="edge20_Node000004_Node000021" class="edge">
<title>Node4&#45;&gt;Node21</title>
<g id="a_edge20_Node000004_Node000021"><a xlink:title=" ">
<path fill="none" stroke="#63b8ff" d="M1060.37,-54.98C1082.15,-46.3 1116.16,-32.75 1140.92,-22.88"/>
<polygon fill="#63b8ff" stroke="#63b8ff" points="1142.25,-26.12 1150.24,-19.17 1139.66,-19.62 1142.25,-26.12"/>
</a>
</g>
</g>
<!-- Node22 -->
<g id="Node000022" class="node">
<title>Node22</title>
<g id="a_Node000022"><a xlink:title=" ">
<polygon fill="#e0e0e0" stroke="#999999" points="1281.5,-19 1216.5,-19 1216.5,0 1281.5,0 1281.5,-19"/>
<text text-anchor="middle" x="1249" y="-7" font-family="Helvetica,sans-Serif" font-size="10.00">typeindex</text>
</a>
</g>
</g>
<!-- Node4&#45;&gt;Node22 -->
<g id="edge21_Node000004_Node000022" class="edge">
<title>Node4&#45;&gt;Node22</title>
<g id="a_edge21_Node000004_Node000022"><a xlink:title=" ">
<path fill="none" stroke="#63b8ff" d="M1072.74,-54.98C1109.11,-45.81 1167.08,-31.18 1206.53,-21.22"/>
<polygon fill="#63b8ff" stroke="#63b8ff" points="1207.54,-24.57 1216.38,-18.73 1205.83,-17.79 1207.54,-24.57"/>
</a>
</g>
</g>
<!-- Node23 -->
<g id="Node000023" class="node">
<title>Node23</title>
<g id="a_Node000023"><a xlink:title=" ">
<polygon fill="#e0e0e0" stroke="#999999" points="1368,-19 1300,-19 1300,0 1368,0 1368,-19"/>
<text text-anchor="middle" x="1334" y="-7" font-family="Helvetica,sans-Serif" font-size="10.00">filesystem</text>
</a>
</g>
</g>
<!-- Node4&#45;&gt;Node23 -->
<g id="edge22_Node000004_Node000023" class="edge">
<title>Node4&#45;&gt;Node23</title>
<g id="a_edge22_Node000004_Node000023"><a xlink:title=" ">
<path fill="none" stroke="#63b8ff" d="M1089.26,-54.94C1137.97,-46.56 1214.23,-33.28 1289.6,-19.23"/>
<polygon fill="#63b8ff" stroke="#63b8ff" points="1290.56,-22.61 1299.74,-17.34 1289.27,-15.73 1290.56,-22.61"/>
</a>
</g>
</g>
<!-- Node24 -->
<g id="Node000024" class="node">
<title>Node24</title>
<g id="a_Node000024"><a xlink:title=" ">
<polygon fill="#e0e0e0" stroke="#999999" points="1418,-19 1386,-19 1386,0 1418,0 1418,-19"/>
<text text-anchor="middle" x="1402" y="-7" font-family="Helvetica,sans-Serif" font-size="10.00">set</text>
</a>
</g>
</g>
<!-- Node4&#45;&gt;Node24 -->
<g id="edge23_Node000004_Node000024" class="edge">
<title>Node4&#45;&gt;Node24</title>
<g id="a_edge23_Node000004_Node000024"><a xlink:title=" ">
<path fill="none" stroke="#63b8ff" d="M1095.53,-59.48C1161.03,-54.06 1272.23,-42.52 1375.98,-18.79"/>
<polygon fill="#63b8ff" stroke="#63b8ff" points="1377.05,-22.14 1386,-16.46 1375.46,-15.32 1377.05,-22.14"/>
</a>
</g>
</g>
<!-- Node25 -->
<g id="Node000025" class="node">
<title>Node25</title>
<g id="a_Node000025"><a xlink:title=" ">
<polygon fill="#e0e0e0" stroke="#999999" points="1492,-19 1436,-19 1436,0 1492,0 1492,-19"/>
<text text-anchor="middle" x="1464" y="-7" font-family="Helvetica,sans-Serif" font-size="10.00">d3d12.h</text>
</a>
</g>
</g>
<!-- Node4&#45;&gt;Node25 -->
<g id="edge24_Node000004_Node000025" class="edge">
<title>Node4&#45;&gt;Node25</title>
<g id="a_edge24_Node000004_Node000025"><a xlink:title=" ">
<path fill="none" stroke="#63b8ff" d="M1095.5,-59.01C1169.29,-52.71 1302.62,-39.81 1425.8,-19.03"/>
<polygon fill="#63b8ff" stroke="#63b8ff" points="1426.52,-22.46 1435.78,-17.32 1425.34,-15.56 1426.52,-22.46"/>
</a>
</g>
</g>
<!-- Node26 -->
<g id="Node000026" class="node">
<title>Node26</title>
<g id="a_Node000026"><a xlink:title=" ">
<polygon fill="#e0e0e0" stroke="#999999" points="1574,-19 1510,-19 1510,0 1574,0 1574,-19"/>
<text text-anchor="middle" x="1542" y="-7" font-family="Helvetica,sans-Serif" font-size="10.00">dxgi1_6.h</text>
</a>
</g>
</g>
<!-- Node4&#45;&gt;Node26 -->
<g id="edge25_Node000004_Node000026" class="edge">
<title>Node4&#45;&gt;Node26</title>
<g id="a_edge25_Node000004_Node000026"><a xlink:title=" ">
<path fill="none" stroke="#63b8ff" d="M1095.78,-60.02C1181.31,-54.34 1348.42,-41.54 1499.88,-19.01"/>
<polygon fill="#63b8ff" stroke="#63b8ff" points="1500.46,-22.46 1509.83,-17.51 1499.42,-15.54 1500.46,-22.46"/>
</a>
</g>
</g>
<!-- Node27 -->
<g id="Node000027" class="node">
<title>Node27</title>
<g id="a_Node000027"><a xlink:title=" ">
<polygon fill="#e0e0e0" stroke="#999999" points="1678,-19 1592,-19 1592,0 1678,0 1678,-19"/>
<text text-anchor="middle" x="1635" y="-7" font-family="Helvetica,sans-Serif" font-size="10.00">d3dcompiler.h</text>
</a>
</g>
</g>
<!-- Node4&#45;&gt;Node27 -->
<g id="edge26_Node000004_Node000027" class="edge">
<title>Node4&#45;&gt;Node27</title>
<g id="a_edge26_Node000004_Node000027"><a xlink:title=" ">
<path fill="none" stroke="#63b8ff" d="M1095.54,-60.38C1192.77,-54.68 1398.11,-41.21 1581.79,-19.05"/>
<polygon fill="#63b8ff" stroke="#63b8ff" points="1582.4,-22.5 1591.91,-17.82 1581.56,-15.55 1582.4,-22.5"/>
</a>
</g>
</g>
<!-- Node28 -->
<g id="Node000028" class="node">
<title>Node28</title>
<g id="a_Node000028"><a xlink:title=" ">
<polygon fill="#e0e0e0" stroke="#999999" points="168,-19 82,-19 82,0 168,0 168,-19"/>
<text text-anchor="middle" x="125" y="-7" font-family="Helvetica,sans-Serif" font-size="10.00">DirectXMath.h</text>
</a>
</g>
</g>
<!-- Node4&#45;&gt;Node28 -->
<g id="edge27_Node000004_Node000028" class="edge">
<title>Node4&#45;&gt;Node28</title>
<g id="a_edge27_Node000004_Node000028"><a xlink:title=" ">
<path fill="none" stroke="#63b8ff" d="M982.35,-62.74C845.75,-60.43 487.28,-51.62 178.13,-18.99"/>
<polygon fill="#63b8ff" stroke="#63b8ff" points="178.4,-15.5 168.08,-17.92 177.65,-22.46 178.4,-15.5"/>
</a>
</g>
</g>
<!-- Node29 -->
<g id="Node000029" class="node">
<title>Node29</title>
<g id="a_Node000029"><a xlink:title=" ">
<polygon fill="#e0e0e0" stroke="#999999" points="1813.5,-19 1696.5,-19 1696.5,0 1813.5,0 1813.5,-19"/>
<text text-anchor="middle" x="1755" y="-7" font-family="Helvetica,sans-Serif" font-size="10.00">assimp/Importer.hpp</text>
</a>
</g>
</g>
<!-- Node4&#45;&gt;Node29 -->
<g id="edge28_Node000004_Node000029" class="edge">
<title>Node4&#45;&gt;Node29</title>
<g id="a_edge28_Node000004_Node000029"><a xlink:title=" ">
<path fill="none" stroke="#63b8ff" d="M1095.86,-60.66C1207.07,-54.88 1461.38,-40.53 1686.4,-19"/>
<polygon fill="#63b8ff" stroke="#63b8ff" points="1686.8,-22.48 1696.42,-18.03 1686.13,-15.51 1686.8,-22.48"/>
</a>
</g>
</g>
<!-- Node30 -->
<g id="Node000030" class="node">
<title>Node30</title>
<g id="a_Node000030"><a xlink:title=" ">
<polygon fill="#e0e0e0" stroke="#999999" points="1924,-19 1832,-19 1832,0 1924,0 1924,-19"/>
<text text-anchor="middle" x="1878" y="-7" font-family="Helvetica,sans-Serif" font-size="10.00">assimp/scene.h</text>
</a>
</g>
</g>
<!-- Node4&#45;&gt;Node30 -->
<g id="edge29_Node000004_Node000030" class="edge">
<title>Node4&#45;&gt;Node30</title>
<g id="a_edge29_Node000004_Node000030"><a xlink:title=" ">
<path fill="none" stroke="#63b8ff" d="M1095.72,-62.16C1223.46,-58.73 1543.56,-47.89 1821.54,-19.04"/>
<polygon fill="#63b8ff" stroke="#63b8ff" points="1822.25,-22.49 1831.83,-17.97 1821.52,-15.53 1822.25,-22.49"/>
</a>
</g>
</g>
<!-- Node31 -->
<g id="Node000031" class="node">
<title>Node31</title>
<g id="a_Node000031"><a xlink:title=" ">
<polygon fill="#e0e0e0" stroke="#999999" points="2064,-19 1942,-19 1942,0 2064,0 2064,-19"/>
<text text-anchor="middle" x="2003" y="-7" font-family="Helvetica,sans-Serif" font-size="10.00">assimp/postprocess.h</text>
</a>
</g>
</g>
<!-- Node4&#45;&gt;Node31 -->
<g id="edge30_Node000004_Node000031" class="edge">
<title>Node4&#45;&gt;Node31</title>
<g id="a_edge30_Node000004_Node000031"><a xlink:title=" ">
<path fill="none" stroke="#63b8ff" d="M1095.58,-62.08C1235.53,-58.27 1609.36,-46.25 1931.93,-19.02"/>
<polygon fill="#63b8ff" stroke="#63b8ff" points="1932.28,-22.51 1941.94,-18.17 1931.68,-15.53 1932.28,-22.51"/>
</a>
</g>
</g>
<!-- Node32 -->
<g id="Node000032" class="node">
<title>Node32</title>
<g id="a_Node000032"><a xlink:href="Logger_8h.html" target="_top" xlink:title="デバッグログ出力システム">
<polygon fill="white" stroke="#666666" points="2160,-19 2082,-19 2082,0 2160,0 2160,-19"/>
<text text-anchor="middle" x="2121" y="-7" font-family="Helvetica,sans-Serif" font-size="10.00">Log/Logger.h</text>
</a>
</g>
</g>
<!-- Node4&#45;&gt;Node32 -->
<g id="edge31_Node000004_Node000032" class="edge">
<title>Node4&#45;&gt;Node32</title>
<g id="a_edge31_Node000004_Node000032"><a xlink:title=" ">
<path fill="none" stroke="#63b8ff" d="M1095.51,-63.68C1250.74,-63.56 1696.06,-59.32 2064,-19 2066.5,-18.73 2069.07,-18.4 2071.67,-18.04"/>
<polygon fill="#63b8ff" stroke="#63b8ff" points="2072.42,-21.47 2081.79,-16.51 2071.37,-14.55 2072.42,-21.47"/>
</a>
</g>
</g>
<!-- Node32&#45;&gt;Node4 -->
<g id="edge32_Node000032_Node000004" class="edge">
<title>Node32&#45;&gt;Node4</title>
<g id="a_edge32_Node000032_Node000004"><a xlink:title=" ">
<path fill="none" stroke="#63b8ff" d="M2081.73,-19.03C1715.04,-59.19 1271.6,-63.54 1105.75,-63.68"/>
<polygon fill="#63b8ff" stroke="#63b8ff" points="1105.7,-60.18 1095.7,-63.69 1105.7,-67.18 1105.7,-60.18"/>
</a>
</g>
</g>
<!-- Node34&#45;&gt;Node3 -->
<g id="edge39_Node000034_Node000003" class="edge">
<title>Node34&#45;&gt;Node3</title>
<g id="a_edge39_Node000034_Node000003"><a xlink:title=" ">
<path fill="none" stroke="#63b8ff" d="M697.63,-219.99C639.72,-209.5 561.78,-195.38 509.36,-185.89"/>
<polygon fill="#63b8ff" stroke="#63b8ff" points="509.69,-182.39 499.23,-184.05 508.44,-189.28 509.69,-182.39"/>
</a>
</g>
</g>
<!-- Node35 -->
<g id="Node000035" class="node">
<title>Node35</title>
<g id="a_Node000035"><a xlink:href="SpanMath_8h.html" target="_top" xlink:title="算術ライブラリ (Vector, Matrix, Quaternion)。">
<polygon fill="white" stroke="#666666" points="608,-129 480,-129 480,-110 608,-110 608,-129"/>
<text text-anchor="middle" x="544" y="-117" font-family="Helvetica,sans-Serif" font-size="10.00">Core/Math/SpanMath.h</text>
</a>
</g>
</g>
<!-- Node34&#45;&gt;Node35 -->
<g id="edge35_Node000034_Node000035" class="edge">
<title>Node34&#45;&gt;Node35</title>
<g id="a_edge35_Node000034_Node000035"><a xlink:title=" ">
<path fill="none" stroke="#63b8ff" d="M700.72,-219.99C644.5,-208.78 575.27,-193.42 565,-184 552.58,-172.6 547.49,-153.71 545.42,-139.49"/>
<polygon fill="#63b8ff" stroke="#63b8ff" points="548.87,-138.88 544.31,-129.32 541.91,-139.63 548.87,-138.88"/>
</a>
</g>
</g>
<!-- Node35&#45;&gt;Node17 -->
<g id="edge38_Node000035_Node000017" class="edge">
<title>Node35&#45;&gt;Node17</title>
<g id="a_edge38_Node000035_Node000017"><a xlink:title=" ">
<path fill="none" stroke="#63b8ff" d="M495.11,-109.99C446.91,-101.45 371.21,-87.65 306,-74 223.61,-56.76 127.93,-33.94 74.22,-20.88"/>
<polygon fill="#63b8ff" stroke="#63b8ff" points="74.92,-17.45 64.38,-18.48 73.26,-24.25 74.92,-17.45"/>
</a>
</g>
</g>
<!-- Node35&#45;&gt;Node28 -->
<g id="edge36_Node000035_Node000028" class="edge">
<title>Node35&#45;&gt;Node28</title>
<g id="a_edge36_Node000035_Node000028"><a xlink:title=" ">
<path fill="none" stroke="#63b8ff" d="M510.77,-109.94C435.44,-90.52 251.74,-43.17 167.94,-21.57"/>
<polygon fill="#63b8ff" stroke="#63b8ff" points="168.79,-18.17 158.23,-19.07 167.04,-24.95 168.79,-18.17"/>
</a>
</g>
</g>
<!-- Node36 -->
<g id="Node000036" class="node">
<title>Node36</title>
<g id="a_Node000036"><a xlink:title=" ">
<polygon fill="#e0e0e0" stroke="#999999" points="567.5,-74 520.5,-74 520.5,-55 567.5,-55 567.5,-74"/>
<text text-anchor="middle" x="544" y="-62" font-family="Helvetica,sans-Serif" font-size="10.00">cmath</text>
</a>
</g>
</g>
<!-- Node35&#45;&gt;Node36 -->
<g id="edge37_Node000035_Node000036" class="edge">
<title>Node35&#45;&gt;Node36</title>
<g id="a_edge37_Node000035_Node000036"><a xlink:title=" ">
<path fill="none" stroke="#63b8ff" d="M544,-109.75C544,-102.8 544,-92.85 544,-84.13"/>
<polygon fill="#63b8ff" stroke="#63b8ff" points="547.5,-84.09 544,-74.09 540.5,-84.09 547.5,-84.09"/>
</a>
</g>
</g>
<!-- Node37&#45;&gt;Node4 -->
<g id="edge42_Node000037_Node000004" class="edge">
<title>Node37&#45;&gt;Node4</title>
<g id="a_edge42_Node000037_Node000004"><a xlink:title=" ">
<path fill="none" stroke="#63b8ff" d="M930.2,-225.5C928.63,-203.9 927.34,-146.11 954,-110 965,-95.1 982.48,-84.75 998.73,-77.81"/>
<polygon fill="#63b8ff" stroke="#63b8ff" points="1000.09,-81.03 1008.1,-74.1 997.52,-74.52 1000.09,-81.03"/>
</a>
</g>
</g>
<!-- Node37&#45;&gt;Node35 -->
<g id="edge60_Node000037_Node000035" class="edge">
<title>Node37&#45;&gt;Node35</title>
<g id="a_edge60_Node000037_Node000035"><a xlink:title=" ">
<path fill="none" stroke="#63b8ff" d="M893.05,-225.45C883.89,-223.52 874.12,-221.58 865,-220 747.46,-199.61 703.94,-240.75 599,-184 579.43,-173.41 563.65,-152.89 554.09,-138.03"/>
<polygon fill="#63b8ff" stroke="#63b8ff" points="556.93,-135.97 548.74,-129.25 550.96,-139.61 556.93,-135.97"/>
</a>
</g>
</g>
<!-- Node38 -->
<g id="Node000038" class="node">
<title>Node38</title>
<g id="a_Node000038"><a xlink:href="GraphicsContext_8h.html" target="_top" xlink:title="DirectX 12 デヴァイスとスワップチェーンの管理クラス。">
<polygon fill="white" stroke="#666666" points="1092,-184 960,-184 960,-165 1092,-165 1092,-184"/>
<text text-anchor="middle" x="1026" y="-172" font-family="Helvetica,sans-Serif" font-size="10.00">Core/GraphicsContext.h</text>
</a>
</g>
</g>
<!-- Node37&#45;&gt;Node38 -->
<g id="edge43_Node000037_Node000038" class="edge">
<title>Node37&#45;&gt;Node38</title>
<g id="a_edge43_Node000037_Node000038"><a xlink:title=" ">
<path fill="none" stroke="#63b8ff" d="M945.02,-225.37C960.31,-215.95 985.03,-200.73 1003.14,-189.58"/>
<polygon fill="#63b8ff" stroke="#63b8ff" points="1005.25,-192.39 1011.92,-184.17 1001.57,-186.43 1005.25,-192.39"/>
</a>
</g>
</g>
<!-- Node40 -->
<g id="Node000040" class="node">
<title>Node40</title>
<g id="a_Node000040"><a xlink:href="Shader_8h.html" target="_top" xlink:title="HLSLシェーダーのロードとコンパイル管理。">
<polygon fill="white" stroke="#666666" points="1194,-184 1110,-184 1110,-165 1194,-165 1194,-184"/>
<text text-anchor="middle" x="1152" y="-172" font-family="Helvetica,sans-Serif" font-size="10.00">Core/Shader.h</text>
</a>
</g>
</g>
<!-- Node37&#45;&gt;Node40 -->
<g id="edge47_Node000037_Node000040" class="edge">
<title>Node37&#45;&gt;Node40</title>
<g id="a_edge47_Node000037_Node000040"><a xlink:title=" ">
<path fill="none" stroke="#63b8ff" d="M963.14,-225.49C1001.93,-215.23 1067.26,-197.93 1110.01,-186.62"/>
<polygon fill="#63b8ff" stroke="#63b8ff" points="1111.05,-189.96 1119.83,-184.02 1109.26,-183.19 1111.05,-189.96"/>
</a>
</g>
</g>
<!-- Node41 -->
<g id="Node000041" class="node">
<title>Node41</title>
<g id="a_Node000041"><a xlink:href="ConstantBuffer_8h.html" target="_top" xlink:title="DirectX 12 定数バッファ (CBV) のラッパークラス">
<polygon fill="white" stroke="#666666" points="905.5,-129 782.5,-129 782.5,-110 905.5,-110 905.5,-129"/>
<text text-anchor="middle" x="844" y="-117" font-family="Helvetica,sans-Serif" font-size="10.00">Core/ConstantBuffer.h</text>
</a>
</g>
</g>
<!-- Node37&#45;&gt;Node41 -->
<g id="edge49_Node000037_Node000041" class="edge">
<title>Node37&#45;&gt;Node41</title>
<g id="a_edge49_Node000037_Node000041"><a xlink:title=" ">
<path fill="none" stroke="#63b8ff" d="M924.46,-225.47C910.1,-206.74 875.6,-161.72 856.77,-137.16"/>
<polygon fill="#63b8ff" stroke="#63b8ff" points="859.48,-134.94 850.62,-129.13 853.92,-139.2 859.48,-134.94"/>
</a>
</g>
</g>
<!-- Node42 -->
<g id="Node000042" class="node">
<title>Node42</title>
<g id="a_Node000042"><a xlink:href="Mesh_8h.html" target="_top" xlink:title="3Dモデルの形状データ (頂点バッファ) 管理。">
<polygon fill="white" stroke="#666666" points="712.5,-184 607.5,-184 607.5,-165 712.5,-165 712.5,-184"/>
<text text-anchor="middle" x="660" y="-172" font-family="Helvetica,sans-Serif" font-size="10.00">Resources/Mesh.h</text>
</a>
</g>
</g>
<!-- Node37&#45;&gt;Node42 -->
<g id="edge51_Node000037_Node000042" class="edge">
<title>Node37&#45;&gt;Node42</title>
<g id="a_edge51_Node000037_Node000042"><a xlink:title=" ">
<path fill="none" stroke="#63b8ff" d="M891.59,-225.49C843.43,-215.1 761.88,-197.49 709.52,-186.19"/>
<polygon fill="#63b8ff" stroke="#63b8ff" points="709.97,-182.71 699.45,-184.02 708.49,-189.55 709.97,-182.71"/>
</a>
</g>
</g>
<!-- Node43 -->
<g id="Node000043" class="node">
<title>Node43</title>
<g id="a_Node000043"><a xlink:href="Material_8h.html" target="_top" xlink:title="PBRマテリアルのパラメータ管理。">
<polygon fill="white" stroke="#666666" points="849.5,-184 730.5,-184 730.5,-165 849.5,-165 849.5,-184"/>
<text text-anchor="middle" x="790" y="-172" font-family="Helvetica,sans-Serif" font-size="10.00">Resources/Material.h</text>
</a>
</g>
</g>
<!-- Node37&#45;&gt;Node43 -->
<g id="edge54_Node000037_Node000043" class="edge">
<title>Node37&#45;&gt;Node43</title>
<g id="a_edge54_Node000037_Node000043"><a xlink:title=" ">
<path fill="none" stroke="#63b8ff" d="M910.5,-225.49C886.69,-215.62 847.21,-199.23 819.96,-187.93"/>
<polygon fill="#63b8ff" stroke="#63b8ff" points="821.11,-184.62 810.53,-184.02 818.42,-191.08 821.11,-184.62"/>
</a>
</g>
</g>
<!-- Node38&#45;&gt;Node4 -->
<g id="edge44_Node000038_Node000004" class="edge">
<title>Node38&#45;&gt;Node4</title>
<g id="a_edge44_Node000038_Node000004"><a xlink:title=" ">
<path fill="none" stroke="#63b8ff" d="M1070.76,-164.92C1090.95,-158.58 1112.92,-147.67 1125,-129 1139.99,-105.83 1108.55,-88.15 1079.57,-77.4"/>
<polygon fill="#63b8ff" stroke="#63b8ff" points="1080.49,-74.02 1069.9,-74.03 1078.19,-80.63 1080.49,-74.02"/>
</a>
</g>
</g>
<!-- Node39 -->
<g id="Node000039" class="node">
<title>Node39</title>
<g id="a_Node000039"><a xlink:href="Window_8h.html" target="_top" xlink:title="Windows OSS ウィンドウのラッパー。">
<polygon fill="white" stroke="#666666" points="1115.5,-129 962.5,-129 962.5,-110 1115.5,-110 1115.5,-129"/>
<text text-anchor="middle" x="1039" y="-117" font-family="Helvetica,sans-Serif" font-size="10.00">Runtime/Platform/Window.h</text>
</a>
</g>
</g>
<!-- Node38&#45;&gt;Node39 -->
<g id="edge45_Node000038_Node000039" class="edge">
<title>Node38&#45;&gt;Node39</title>
<g id="a_edge45_Node000038_Node000039"><a xlink:title=" ">
<path fill="none" stroke="#63b8ff" d="M1028.15,-164.75C1029.87,-157.72 1032.35,-147.62 1034.5,-138.84"/>
<polygon fill="#63b8ff" stroke="#63b8ff" points="1037.91,-139.63 1036.89,-129.09 1031.11,-137.97 1037.91,-139.63"/>
</a>
</g>
</g>
<!-- Node39&#45;&gt;Node4 -->
<g id="edge46_Node000039_Node000004" class="edge">
<title>Node39&#45;&gt;Node4</title>
<g id="a_edge46_Node000039_Node000004"><a xlink:title=" ">
<path fill="none" stroke="#63b8ff" d="M1039,-109.75C1039,-102.8 1039,-92.85 1039,-84.13"/>
<polygon fill="#63b8ff" stroke="#63b8ff" points="1042.5,-84.09 1039,-74.09 1035.5,-84.09 1042.5,-84.09"/>
</a>
</g>
</g>
<!-- Node40&#45;&gt;Node4 -->
<g id="edge48_Node000040_Node000004" class="edge">
<title>Node40&#45;&gt;Node4</title>
<g id="a_edge48_Node000040_Node000004"><a xlink:title=" ">
<path fill="none" stroke="#63b8ff" d="M1152.76,-164.66C1153.41,-151.34 1152.7,-125.99 1140,-110 1127.47,-94.22 1108.18,-83.9 1089.82,-77.21"/>
<polygon fill="#63b8ff" stroke="#63b8ff" points="1090.93,-73.89 1080.33,-74.03 1088.7,-80.53 1090.93,-73.89"/>
</a>
</g>
</g>
<!-- Node41&#45;&gt;Node4 -->
<g id="edge50_Node000041_Node000004" class="edge">
<title>Node41&#45;&gt;Node4</title>
<g id="a_edge50_Node000041_Node000004"><a xlink:title=" ">
<path fill="none" stroke="#63b8ff" d="M875.33,-109.98C908.49,-100.97 961,-86.7 997.56,-76.76"/>
<polygon fill="#63b8ff" stroke="#63b8ff" points="998.69,-80.08 1007.42,-74.08 996.86,-73.33 998.69,-80.08"/>
</a>
</g>
</g>
<!-- Node42&#45;&gt;Node4 -->
<g id="edge52_Node000042_Node000004" class="edge">
<title>Node42&#45;&gt;Node4</title>
<g id="a_edge52_Node000042_Node000004"><a xlink:title=" ">
<path fill="none" stroke="#63b8ff" d="M655.82,-164.86C649.97,-151.35 641.47,-125.19 655,-110 675.68,-86.78 867.67,-73.86 972.09,-68.49"/>
<polygon fill="#63b8ff" stroke="#63b8ff" points="972.41,-71.98 982.22,-67.98 972.06,-64.99 972.41,-71.98"/>
</a>
</g>
</g>
<!-- Node42&#45;&gt;Node35 -->
<g id="edge53_Node000042_Node000035" class="edge">
<title>Node42&#45;&gt;Node35</title>
<g id="a_edge53_Node000042_Node000035"><a xlink:title=" ">
<path fill="none" stroke="#63b8ff" d="M641.36,-164.98C622.7,-156.46 593.75,-143.23 572.26,-133.41"/>
<polygon fill="#63b8ff" stroke="#63b8ff" points="573.53,-130.14 562.98,-129.17 570.62,-136.51 573.53,-130.14"/>
</a>
</g>
</g>
<!-- Node43&#45;&gt;Node4 -->
<g id="edge55_Node000043_Node000004" class="edge">
<title>Node43&#45;&gt;Node4</title>
<g id="a_edge55_Node000043_Node000004"><a xlink:title=" ">
<path fill="none" stroke="#63b8ff" d="M783.41,-164.61C774.36,-151.23 760.64,-125.8 774,-110 798.91,-80.55 902.22,-70.58 972.24,-67.21"/>
<polygon fill="#63b8ff" stroke="#63b8ff" points="972.48,-70.7 982.32,-66.76 972.17,-63.71 972.48,-70.7"/>
</a>
</g>
</g>
<!-- Node43&#45;&gt;Node35 -->
<g id="edge56_Node000043_Node000035" class="edge">
<title>Node43&#45;&gt;Node35</title>
<g id="a_edge56_Node000043_Node000035"><a xlink:title=" ">
<path fill="none" stroke="#63b8ff" d="M750.48,-164.98C707.83,-155.8 639.85,-141.15 593.64,-131.19"/>
<polygon fill="#63b8ff" stroke="#63b8ff" points="594.35,-127.77 583.83,-129.08 592.87,-134.61 594.35,-127.77"/>
</a>
</g>
</g>
<!-- Node43&#45;&gt;Node41 -->
<g id="edge57_Node000043_Node000041" class="edge">
<title>Node43&#45;&gt;Node41</title>
<g id="a_edge57_Node000043_Node000041"><a xlink:title=" ">
<path fill="none" stroke="#63b8ff" d="M798.92,-164.75C806.78,-157.03 818.43,-145.6 827.92,-136.28"/>
<polygon fill="#63b8ff" stroke="#63b8ff" points="830.56,-138.59 835.25,-129.09 825.66,-133.6 830.56,-138.59"/>
</a>
</g>
</g>
<!-- Node44 -->
<g id="Node000044" class="node">
<title>Node44</title>
<g id="a_Node000044"><a xlink:href="Texture_8h.html" target="_top" xlink:title="画像読み込みとテクスチャリソース管理。">
<polygon fill="white" stroke="#666666" points="726,-129 664,-129 664,-110 726,-110 726,-129"/>
<text text-anchor="middle" x="695" y="-117" font-family="Helvetica,sans-Serif" font-size="10.00">Texture.h</text>
</a>
</g>
</g>
<!-- Node43&#45;&gt;Node44 -->
<g id="edge58_Node000043_Node000044" class="edge">
<title>Node43&#45;&gt;Node44</title>
<g id="a_edge58_Node000043_Node000044"><a xlink:title=" ">
<path fill="none" stroke="#63b8ff" d="M774.74,-164.98C759.87,-156.69 737.02,-143.94 719.58,-134.22"/>
<polygon fill="#63b8ff" stroke="#63b8ff" points="720.98,-130.99 710.54,-129.17 717.57,-137.1 720.98,-130.99"/>
</a>
</g>
</g>
<!-- Node44&#45;&gt;Node4 -->
<g id="edge59_Node000044_Node000004" class="edge">
<title>Node44&#45;&gt;Node4</title>
<g id="a_edge59_Node000044_Node000004"><a xlink:title=" ">
<path fill="none" stroke="#63b8ff" d="M726.44,-112.4C730.99,-111.56 735.61,-110.74 740,-110 819.62,-96.56 911.53,-83.2 972.2,-74.68"/>
<polygon fill="#63b8ff" stroke="#63b8ff" points="972.99,-78.11 982.41,-73.25 972.02,-71.17 972.99,-78.11"/>
</a>
</g>
</g>
<!-- Node47&#45;&gt;Node3 -->
<g id="edge65_Node000047_Node000003" class="edge">
<title>Node47&#45;&gt;Node3</title>
<g id="a_edge65_Node000047_Node000003"><a xlink:title=" ">
<path fill="none" stroke="#63b8ff" d="M399.74,-285.73C391.79,-271.27 378.8,-241.83 390,-220 396.96,-206.44 410.19,-196.07 422.65,-188.78"/>
<polygon fill="#63b8ff" stroke="#63b8ff" points="424.35,-191.84 431.48,-184 421.02,-185.68 424.35,-191.84"/>
</a>
</g>
</g>
<!-- Node49 -->
<g id="Node000049" class="node">
<title>Node49</title>
<g id="a_Node000049"><a xlink:href="Entity_8h.html" target="_top" xlink:title="ECSにおけるオブジェクトの識別子 (ID) を定義します。">
<polygon fill="white" stroke="#666666" points="1358,-244.5 1250,-244.5 1250,-225.5 1358,-225.5 1358,-244.5"/>
<text text-anchor="middle" x="1304" y="-232.5" font-family="Helvetica,sans-Serif" font-size="10.00">ECS/Kernel/Entity.h</text>
</a>
</g>
</g>
<!-- Node48&#45;&gt;Node49 -->
<g id="edge67_Node000048_Node000049" class="edge">
<title>Node48&#45;&gt;Node49</title>
<g id="a_edge67_Node000048_Node000049"><a xlink:title=" ">
<path fill="none" stroke="#63b8ff" d="M1074.97,-285.99C1122.6,-275.6 1203.25,-257.99 1255.03,-246.69"/>
<polygon fill="#63b8ff" stroke="#63b8ff" points="1255.96,-250.07 1264.98,-244.52 1254.47,-243.23 1255.96,-250.07"/>
</a>
</g>
</g>
<!-- Node49&#45;&gt;Node4 -->
<g id="edge68_Node000049_Node000004" class="edge">
<title>Node49&#45;&gt;Node4</title>
<g id="a_edge68_Node000049_Node000004"><a xlink:title=" ">
<path fill="none" stroke="#63b8ff" d="M1301.94,-225.47C1296,-202.78 1276.59,-140.58 1236,-110 1198.69,-81.89 1146.87,-70.99 1105.74,-66.99"/>
<polygon fill="#63b8ff" stroke="#63b8ff" points="1105.79,-63.49 1095.53,-66.12 1105.2,-70.46 1105.79,-63.49"/>
</a>
</g>
</g>
</g>
</svg>
