<?xml version="1.0" encoding="UTF-8" standalone="no"?>
<!DOCTYPE svg PUBLIC "-//W3C//DTD SVG 1.1//EN"
 "http://www.w3.org/Graphics/SVG/1.1/DTD/svg11.dtd">
<!-- Generated by graphviz version 2.43.0 (0)
 -->
<!-- Title: Engine/Source/Runtime/Reflection/SpanAttributes.h Pages: 1 -->
<!--zoomable 390 -->

<svg id="main" version="1.1" xmlns="http://www.w3.org/2000/svg" xmlns:xlink="http://www.w3.org/1999/xlink" xml:space="preserve" onload="init(evt)">

<style type="text/css"><![CDATA[
.node, .edge {opacity: 0.7;}
.node.selected, .edge.selected {opacity: 1;}
.edge:hover path { stroke: red; }
.edge:hover polygon { stroke: red; fill: red; }
]]></style>

<defs>
  <circle id="rim" cx="0" cy="0" r="7"/>
  <circle id="rim2" cx="0" cy="0" r="3.5"/>
  <g id="zoomPlus">
    <use xlink:href="#rim" fill="#404040"><set attributeName="fill" to="#808080" begin="zoomplus.mouseover" end="zoomplus.mouseout"/></use>
    <path d="M-4,0h8M0,-4v8" fill="none" stroke="white" stroke-width="1.5" pointer-events="none"/>
  </g>
  <g id="zoomMin">
    <use xlink:href="#rim" fill="#404040"><set attributeName="fill" to="#808080" begin="zoomminus.mouseover" end="zoomminus.mouseout"/></use>
    <path d="M-4,0h8" fill="none" stroke="white" stroke-width="1.5" pointer-events="none"/>
  </g>
  <g id="arrowUp" transform="translate(30 24)">
    <use xlink:href="#rim"/>
    <path pointer-events="none" fill="none" stroke="white" stroke-width="1.5" d="M0,-3.0v7 M-2.5,-0.5L0,-3.0L2.5,-0.5"/>
  </g>
  <g id="arrowRight" transform="rotate(90) translate(36 -43)">
    <use xlink:href="#rim"/>
    <path pointer-events="none" fill="none" stroke="white" stroke-width="1.5" d="M0,-3.0v7 M-2.5,-0.5L0,-3.0L2.5,-0.5"/>
  </g>
  <g id="arrowDown" transform="rotate(180) translate(-30 -48)">
    <use xlink:href="#rim"/>
    <path pointer-events="none" fill="none" stroke="white" stroke-width="1.5" d="M0,-3.0v7 M-2.5,-0.5L0,-3.0L2.5,-0.5"/>
  </g>
  <g id="arrowLeft" transform="rotate(270) translate(-36 17)">
    <use xlink:href="#rim"/>
    <path pointer-events="none" fill="none" stroke="white" stroke-width="1.5" d="M0,-3.0v7 M-2.5,-0.5L0,-3.0L2.5,-0.5"/>
  </g>
  <g id="resetDef">
    <use xlink:href="#rim2" fill="#404040"><set attributeName="fill" to="#808080" begin="reset.mouseover" end="reset.mouseout"/></use>
  </g>
</defs>
<script type="application/ecmascript">
var viewWidth = 1918;
var viewHeight = 390;
var sectionId = 'dynsection-0';
</script>
<script type="application/ecmascript" xlink:href="svg.min.js"/>
<svg id="graph" class="graph">
<g id="viewport">
<title>Engine/Source/Runtime/Reflection/SpanAttributes.h</title>
<!-- Node1 -->
<g id="Node000001" class="node">
<title>Node1</title>
<g id="a_Node000001"><a xlink:title="インスペクタ表示用の属性 (Attribute) 定義。">
<polygon fill="#999999" stroke="#666666" points="1527.5,-382 1375.5,-382 1375.5,-352 1527.5,-352 1527.5,-382"/>
<text text-anchor="start" x="1383.5" y="-370" font-family="Helvetica,sans-Serif" font-size="10.00">Engine/Source/Runtime</text>
<text text-anchor="middle" x="1451.5" y="-359" font-family="Helvetica,sans-Serif" font-size="10.00">/Reflection/SpanAttributes.h</text>
</a>
</g>
</g>
<!-- Node2 -->
<g id="Node000002" class="node">
<title>Node2</title>
<g id="a_Node000002"><a xlink:href="SpanReflection_8h.html" target="_top" xlink:title="コンポーネント定義用のリフレクションマクロ。">
<polygon fill="white" stroke="#666666" points="1156,-316 1003,-316 1003,-286 1156,-286 1156,-316"/>
<text text-anchor="start" x="1011" y="-304" font-family="Helvetica,sans-Serif" font-size="10.00">Engine/Source/Runtime</text>
<text text-anchor="middle" x="1079.5" y="-293" font-family="Helvetica,sans-Serif" font-size="10.00">/Reflection/SpanReflection.h</text>
</a>
</g>
</g>
<!-- Node1&#45;&gt;Node2 -->
<g id="edge1_Node000001_Node000002" class="edge">
<title>Node1&#45;&gt;Node2</title>
<g id="a_edge1_Node000001_Node000002"><a xlink:title=" ">
<path fill="none" stroke="#63b8ff" d="M1365.37,-351.18C1302.17,-340.31 1217.09,-325.67 1156.21,-315.2"/>
<polygon fill="#63b8ff" stroke="#63b8ff" points="1364.87,-354.65 1375.32,-352.89 1366.06,-347.75 1364.87,-354.65"/>
</a>
</g>
</g>
<!-- Node5 -->
<g id="Node000005" class="node">
<title>Node5</title>
<g id="a_Node000005"><a xlink:href="SpanEngine_8h.html" target="_top" xlink:title=" ">
<polygon fill="white" stroke="#666666" points="1077,-96 922,-96 922,-77 1077,-77 1077,-96"/>
<text text-anchor="middle" x="999.5" y="-84" font-family="Helvetica,sans-Serif" font-size="10.00">Engine/Source/SpanEngine.h</text>
</a>
</g>
</g>
<!-- Node1&#45;&gt;Node5 -->
<g id="edge56_Node000001_Node000005" class="edge">
<title>Node1&#45;&gt;Node5</title>
<g id="a_edge56_Node000001_Node000005"><a xlink:title=" ">
<path fill="none" stroke="#63b8ff" d="M1522.96,-349.41C1652.89,-316.21 1905.73,-235.79 1807.5,-132 1782.63,-105.73 1274.59,-92.92 1077.08,-88.92"/>
<polygon fill="#63b8ff" stroke="#63b8ff" points="1521.9,-346.07 1513.06,-351.91 1523.62,-352.85 1521.9,-346.07"/>
</a>
</g>
</g>
<!-- Node3 -->
<g id="Node000003" class="node">
<title>Node3</title>
<g id="a_Node000003"><a xlink:href="Active_8h.html" target="_top" xlink:title="エンティティの有効/無効フラグ。">
<polygon fill="white" stroke="#666666" points="632,-244.5 483,-244.5 483,-214.5 632,-214.5 632,-244.5"/>
<text text-anchor="start" x="491" y="-232.5" font-family="Helvetica,sans-Serif" font-size="10.00">Engine/Source/Runtime</text>
<text text-anchor="middle" x="557.5" y="-221.5" font-family="Helvetica,sans-Serif" font-size="10.00">/Components/Core/Active.h</text>
</a>
</g>
</g>
<!-- Node2&#45;&gt;Node3 -->
<g id="edge2_Node000002_Node000003" class="edge">
<title>Node2&#45;&gt;Node3</title>
<g id="a_edge2_Node000002_Node000003"><a xlink:title=" ">
<path fill="none" stroke="#63b8ff" d="M992.95,-293.16C904.09,-285.44 762.03,-271.12 640.5,-250 631.6,-248.45 622.24,-246.54 613.12,-244.51"/>
<polygon fill="#63b8ff" stroke="#63b8ff" points="992.71,-296.65 1002.98,-294.03 993.31,-289.68 992.71,-296.65"/>
</a>
</g>
</g>
<!-- Node2&#45;&gt;Node5 -->
<g id="edge55_Node000002_Node000005" class="edge">
<title>Node2&#45;&gt;Node5</title>
<g id="a_edge55_Node000002_Node000005"><a xlink:title=" ">
<path fill="none" stroke="#63b8ff" d="M1166.45,-298.38C1313.41,-294.73 1598.01,-283.39 1628.5,-250 1640.79,-236.54 1635.31,-225.9 1628.5,-209 1619.64,-186.99 1575.94,-142.16 1554.5,-132 1472.07,-92.93 1209.48,-87.28 1077.21,-87.01"/>
<polygon fill="#63b8ff" stroke="#63b8ff" points="1166.02,-294.89 1156.11,-298.63 1166.19,-301.89 1166.02,-294.89"/>
</a>
</g>
</g>
<!-- Node17 -->
<g id="Node000017" class="node">
<title>Node17</title>
<g id="a_Node000017"><a xlink:href="IDComponent_8h.html" target="_top" xlink:title="エンティティの一意な識別子 (UUID) を保持するコンポーネント。">
<polygon fill="white" stroke="#666666" points="1799,-167.5 1614,-167.5 1614,-137.5 1799,-137.5 1799,-167.5"/>
<text text-anchor="start" x="1622" y="-155.5" font-family="Helvetica,sans-Serif" font-size="10.00">Engine/Source/Runtime</text>
<text text-anchor="middle" x="1706.5" y="-144.5" font-family="Helvetica,sans-Serif" font-size="10.00">/Components/Core/IDComponent.h</text>
</a>
</g>
</g>
<!-- Node2&#45;&gt;Node17 -->
<g id="edge17_Node000002_Node000017" class="edge">
<title>Node2&#45;&gt;Node17</title>
<g id="a_edge17_Node000002_Node000017"><a xlink:title=" ">
<path fill="none" stroke="#63b8ff" d="M1166.53,-297.29C1318.97,-291.85 1621.91,-277.67 1661.5,-250 1689.23,-230.62 1700.31,-189.63 1704.37,-167.84"/>
<polygon fill="#63b8ff" stroke="#63b8ff" points="1166.14,-293.8 1156.27,-297.65 1166.39,-300.8 1166.14,-293.8"/>
</a>
</g>
</g>
<!-- Node18 -->
<g id="Node000018" class="node">
<title>Node18</title>
<g id="a_Node000018"><a xlink:href="Layer_8h.html" target="_top" xlink:title="物理演算やレンダリングのレイヤー分け。">
<polygon fill="white" stroke="#666666" points="145,-244.5 0,-244.5 0,-214.5 145,-214.5 145,-244.5"/>
<text text-anchor="start" x="8" y="-232.5" font-family="Helvetica,sans-Serif" font-size="10.00">Engine/Source/Runtime</text>
<text text-anchor="middle" x="72.5" y="-221.5" font-family="Helvetica,sans-Serif" font-size="10.00">/Components/Core/Layer.h</text>
</a>
</g>
</g>
<!-- Node2&#45;&gt;Node18 -->
<g id="edge19_Node000002_Node000018" class="edge">
<title>Node2&#45;&gt;Node18</title>
<g id="a_edge19_Node000002_Node000018"><a xlink:title=" ">
<path fill="none" stroke="#63b8ff" d="M992.85,-300.48C828.47,-300.25 460.46,-294.28 154.5,-250 145.09,-248.64 135.17,-246.71 125.61,-244.59"/>
<polygon fill="#63b8ff" stroke="#63b8ff" points="992.9,-303.98 1002.9,-300.49 992.9,-296.98 992.9,-303.98"/>
</a>
</g>
</g>
<!-- Node19 -->
<g id="Node000019" class="node">
<title>Node19</title>
<g id="a_Node000019"><a xlink:href="Name_8h.html" target="_top" xlink:title="エンティティの名前">
<polygon fill="white" stroke="#666666" points="311.5,-244.5 163.5,-244.5 163.5,-214.5 311.5,-214.5 311.5,-244.5"/>
<text text-anchor="start" x="171.5" y="-232.5" font-family="Helvetica,sans-Serif" font-size="10.00">Engine/Source/Runtime</text>
<text text-anchor="middle" x="237.5" y="-221.5" font-family="Helvetica,sans-Serif" font-size="10.00">/Components/Core/Name.h</text>
</a>
</g>
</g>
<!-- Node2&#45;&gt;Node19 -->
<g id="edge22_Node000002_Node000019" class="edge">
<title>Node2&#45;&gt;Node19</title>
<g id="a_edge22_Node000002_Node000019"><a xlink:title=" ">
<path fill="none" stroke="#63b8ff" d="M992.48,-298.92C850.89,-296.13 562.12,-286.09 320.5,-250 311.13,-248.6 301.26,-246.68 291.72,-244.59"/>
<polygon fill="#63b8ff" stroke="#63b8ff" points="992.77,-302.43 1002.84,-299.12 992.9,-295.43 992.77,-302.43"/>
</a>
</g>
</g>
<!-- Node20 -->
<g id="Node000020" class="node">
<title>Node20</title>
<g id="a_Node000020"><a xlink:href="Tag_8h.html" target="_top" xlink:title="エンティティのタグ分類">
<polygon fill="white" stroke="#666666" points="465,-244.5 330,-244.5 330,-214.5 465,-214.5 465,-244.5"/>
<text text-anchor="start" x="338" y="-232.5" font-family="Helvetica,sans-Serif" font-size="10.00">Engine/Source/Runtime</text>
<text text-anchor="middle" x="397.5" y="-221.5" font-family="Helvetica,sans-Serif" font-size="10.00">/Components/Core/Tag.h</text>
</a>
</g>
</g>
<!-- Node2&#45;&gt;Node20 -->
<g id="edge25_Node000002_Node000020" class="edge">
<title>Node2&#45;&gt;Node20</title>
<g id="a_edge25_Node000002_Node000020"><a xlink:title=" ">
<path fill="none" stroke="#63b8ff" d="M992.86,-297.45C874.73,-292.92 656.84,-280.86 473.5,-250 464.9,-248.55 455.85,-246.61 447.12,-244.51"/>
<polygon fill="#63b8ff" stroke="#63b8ff" points="992.81,-300.95 1002.93,-297.82 993.07,-293.95 992.81,-300.95"/>
</a>
</g>
</g>
<!-- Node21 -->
<g id="Node000021" class="node">
<title>Node21</title>
<g id="a_Node000021"><a xlink:href="Transform_8h.html" target="_top" xlink:title="位置、回転、拡大縮小を管理するコンポーネント。">
<polygon fill="white" stroke="#666666" points="817,-244.5 650,-244.5 650,-214.5 817,-214.5 817,-244.5"/>
<text text-anchor="start" x="658" y="-232.5" font-family="Helvetica,sans-Serif" font-size="10.00">Engine/Source/Runtime</text>
<text text-anchor="middle" x="733.5" y="-221.5" font-family="Helvetica,sans-Serif" font-size="10.00">/Components/Core/Transform.h</text>
</a>
</g>
</g>
<!-- Node2&#45;&gt;Node21 -->
<g id="edge28_Node000002_Node000021" class="edge">
<title>Node2&#45;&gt;Node21</title>
<g id="a_edge28_Node000002_Node000021"><a xlink:title=" ">
<path fill="none" stroke="#63b8ff" d="M997.46,-284.04C947.93,-274.34 883.55,-261.62 826.5,-250 817.93,-248.26 808.93,-246.4 800.03,-244.55"/>
<polygon fill="#63b8ff" stroke="#63b8ff" points="996.99,-287.51 1007.48,-286 998.34,-280.64 996.99,-287.51"/>
</a>
</g>
</g>
<!-- Node26 -->
<g id="Node000026" class="node">
<title>Node26</title>
<g id="a_Node000026"><a xlink:href="EditorCamera_8h.html" target="_top" xlink:title="エディタビューポート用の制御カメラタグ。">
<polygon fill="white" stroke="#666666" points="1175,-244.5 984,-244.5 984,-214.5 1175,-214.5 1175,-244.5"/>
<text text-anchor="start" x="992" y="-232.5" font-family="Helvetica,sans-Serif" font-size="10.00">Engine/Source/Runtime</text>
<text text-anchor="middle" x="1079.5" y="-221.5" font-family="Helvetica,sans-Serif" font-size="10.00">/Components/Editor/EditorCamera.h</text>
</a>
</g>
</g>
<!-- Node2&#45;&gt;Node26 -->
<g id="edge39_Node000002_Node000026" class="edge">
<title>Node2&#45;&gt;Node26</title>
<g id="a_edge39_Node000002_Node000026"><a xlink:title=" ">
<path fill="none" stroke="#63b8ff" d="M1079.5,-275.75C1079.5,-265.31 1079.5,-253.49 1079.5,-244.54"/>
<polygon fill="#63b8ff" stroke="#63b8ff" points="1076,-275.94 1079.5,-285.94 1083,-275.94 1076,-275.94"/>
</a>
</g>
</g>
<!-- Node27 -->
<g id="Node000027" class="node">
<title>Node27</title>
<g id="a_Node000027"><a xlink:href="Camera_8h.html" target="_top" xlink:title="レンダリング視点を定義するカメラコンポーネント。">
<polygon fill="white" stroke="#666666" points="965.5,-250 835.5,-250 835.5,-209 965.5,-209 965.5,-250"/>
<text text-anchor="start" x="843.5" y="-238" font-family="Helvetica,sans-Serif" font-size="10.00">Engine/Source/Runtime</text>
<text text-anchor="start" x="843.5" y="-227" font-family="Helvetica,sans-Serif" font-size="10.00">/Components/Graphics</text>
<text text-anchor="middle" x="900.5" y="-216" font-family="Helvetica,sans-Serif" font-size="10.00">/Camera.h</text>
</a>
</g>
</g>
<!-- Node2&#45;&gt;Node27 -->
<g id="edge42_Node000002_Node000027" class="edge">
<title>Node2&#45;&gt;Node27</title>
<g id="a_edge42_Node000002_Node000027"><a xlink:title=" ">
<path fill="none" stroke="#63b8ff" d="M1033.9,-282.29C1008.56,-272.46 976.98,-260.2 950.91,-250.07"/>
<polygon fill="#63b8ff" stroke="#63b8ff" points="1032.69,-285.58 1043.28,-285.94 1035.22,-279.05 1032.69,-285.58"/>
</a>
</g>
</g>
<!-- Node28 -->
<g id="Node000028" class="node">
<title>Node28</title>
<g id="a_Node000028"><a xlink:href="DirectionalLight_8h.html" target="_top" xlink:title="シーン全体に降り注ぐ平行光源 (太陽光) のコンポーネント。">
<polygon fill="white" stroke="#666666" points="1471.5,-250 1341.5,-250 1341.5,-209 1471.5,-209 1471.5,-250"/>
<text text-anchor="start" x="1349.5" y="-238" font-family="Helvetica,sans-Serif" font-size="10.00">Engine/Source/Runtime</text>
<text text-anchor="start" x="1349.5" y="-227" font-family="Helvetica,sans-Serif" font-size="10.00">/Components/Graphics</text>
<text text-anchor="middle" x="1406.5" y="-216" font-family="Helvetica,sans-Serif" font-size="10.00">/DirectionalLight.h</text>
</a>
</g>
</g>
<!-- Node2&#45;&gt;Node28 -->
<g id="edge46_Node000002_Node000028" class="edge">
<title>Node2&#45;&gt;Node28</title>
<g id="a_edge46_Node000002_Node000028"><a xlink:title=" ">
<path fill="none" stroke="#63b8ff" d="M1166.09,-284.28C1215.08,-275.03 1277.39,-262.69 1332.5,-250 1335.35,-249.34 1338.25,-248.66 1341.18,-247.95"/>
<polygon fill="#63b8ff" stroke="#63b8ff" points="1165.34,-280.86 1156.16,-286.14 1166.63,-287.73 1165.34,-280.86"/>
</a>
</g>
</g>
<!-- Node30 -->
<g id="Node000030" class="node">
<title>Node30</title>
<g id="a_Node000030"><a xlink:href="MeshFilter_8h.html" target="_top" xlink:title="描画する形状 (メッシュ) への参照。">
<polygon fill="white" stroke="#666666" points="1323.5,-250 1193.5,-250 1193.5,-209 1323.5,-209 1323.5,-250"/>
<text text-anchor="start" x="1201.5" y="-238" font-family="Helvetica,sans-Serif" font-size="10.00">Engine/Source/Runtime</text>
<text text-anchor="start" x="1201.5" y="-227" font-family="Helvetica,sans-Serif" font-size="10.00">/Components/Graphics</text>
<text text-anchor="middle" x="1258.5" y="-216" font-family="Helvetica,sans-Serif" font-size="10.00">/MeshFilter.h</text>
</a>
</g>
</g>
<!-- Node2&#45;&gt;Node30 -->
<g id="edge49_Node000002_Node000030" class="edge">
<title>Node2&#45;&gt;Node30</title>
<g id="a_edge49_Node000002_Node000030"><a xlink:title=" ">
<path fill="none" stroke="#63b8ff" d="M1125.1,-282.29C1150.44,-272.46 1182.02,-260.2 1208.09,-250.07"/>
<polygon fill="#63b8ff" stroke="#63b8ff" points="1123.78,-279.05 1115.72,-285.94 1126.31,-285.58 1123.78,-279.05"/>
</a>
</g>
</g>
<!-- Node31 -->
<g id="Node000031" class="node">
<title>Node31</title>
<g id="a_Node000031"><a xlink:href="MeshRenderer_8h.html" target="_top" xlink:title="メッシュの描画設定とマテリアル参照。">
<polygon fill="white" stroke="#666666" points="1619.5,-250 1489.5,-250 1489.5,-209 1619.5,-209 1619.5,-250"/>
<text text-anchor="start" x="1497.5" y="-238" font-family="Helvetica,sans-Serif" font-size="10.00">Engine/Source/Runtime</text>
<text text-anchor="start" x="1497.5" y="-227" font-family="Helvetica,sans-Serif" font-size="10.00">/Components/Graphics</text>
<text text-anchor="middle" x="1554.5" y="-216" font-family="Helvetica,sans-Serif" font-size="10.00">/MeshRenderer.h</text>
</a>
</g>
</g>
<!-- Node2&#45;&gt;Node31 -->
<g id="edge52_Node000002_Node000031" class="edge">
<title>Node2&#45;&gt;Node31</title>
<g id="a_edge52_Node000002_Node000031"><a xlink:title=" ">
<path fill="none" stroke="#63b8ff" d="M1166.33,-292.55C1247.91,-284.76 1373.16,-270.74 1480.5,-250 1483.37,-249.45 1486.29,-248.84 1489.24,-248.2"/>
<polygon fill="#63b8ff" stroke="#63b8ff" points="1165.73,-289.09 1156.11,-293.52 1166.39,-296.06 1165.73,-289.09"/>
</a>
</g>
</g>
<!-- Node4 -->
<g id="Node000004" class="node">
<title>Node4</title>
<g id="a_Node000004"><a xlink:href="EntityBuilder_8h.html" target="_top" xlink:title="エンティティ生成を簡略化するヘルパークラス。">
<polygon fill="white" stroke="#666666" points="328.5,-167.5 182.5,-167.5 182.5,-137.5 328.5,-137.5 328.5,-167.5"/>
<text text-anchor="start" x="190.5" y="-155.5" font-family="Helvetica,sans-Serif" font-size="10.00">Engine/Source/Runtime</text>
<text text-anchor="middle" x="255.5" y="-144.5" font-family="Helvetica,sans-Serif" font-size="10.00">/ECS/Kernel/EntityBuilder.h</text>
</a>
</g>
</g>
<!-- Node3&#45;&gt;Node4 -->
<g id="edge3_Node000003_Node000004" class="edge">
<title>Node3&#45;&gt;Node4</title>
<g id="a_edge3_Node000003_Node000004"><a xlink:title=" ">
<path fill="none" stroke="#63b8ff" d="M491.28,-212.06C437.61,-198.73 362.79,-180.14 311.93,-167.51"/>
<polygon fill="#63b8ff" stroke="#63b8ff" points="490.5,-215.47 501.05,-214.48 492.19,-208.67 490.5,-215.47"/>
</a>
</g>
</g>
<!-- Node3&#45;&gt;Node5 -->
<g id="edge16_Node000003_Node000005" class="edge">
<title>Node3&#45;&gt;Node5</title>
<g id="a_edge16_Node000003_Node000005"><a xlink:title=" ">
<path fill="none" stroke="#63b8ff" d="M496.98,-211.59C453.28,-198.77 400.87,-181.9 394.5,-173 383.89,-158.18 382.1,-145.35 394.5,-132 429.67,-94.15 766.46,-88.18 921.76,-87.45"/>
<polygon fill="#63b8ff" stroke="#63b8ff" points="496.14,-214.99 506.72,-214.42 498.09,-208.27 496.14,-214.99"/>
</a>
</g>
</g>
<!-- Node4&#45;&gt;Node5 -->
<g id="edge4_Node000004_Node000005" class="edge">
<title>Node4&#45;&gt;Node5</title>
<g id="a_edge4_Node000004_Node000005"><a xlink:title=" ">
<path fill="none" stroke="#63b8ff" d="M322.28,-135.45C329.08,-134.14 335.91,-132.96 342.5,-132 550.54,-101.82 798.67,-92.04 921.97,-88.92"/>
<polygon fill="#63b8ff" stroke="#63b8ff" points="321.47,-132.04 312.36,-137.45 322.86,-138.9 321.47,-132.04"/>
</a>
</g>
</g>
<!-- Node6 -->
<g id="Node000006" class="node">
<title>Node6</title>
<g id="a_Node000006"><a xlink:href="GuiManager_8cpp.html" target="_top" xlink:title=" ">
<polygon fill="white" stroke="#666666" points="270,-35.5 153,-35.5 153,-5.5 270,-5.5 270,-35.5"/>
<text text-anchor="start" x="161" y="-23.5" font-family="Helvetica,sans-Serif" font-size="10.00">Engine/Source/Editor</text>
<text text-anchor="middle" x="211.5" y="-12.5" font-family="Helvetica,sans-Serif" font-size="10.00">/GuiManager.cpp</text>
</a>
</g>
</g>
<!-- Node5&#45;&gt;Node6 -->
<g id="edge5_Node000005_Node000006" class="edge">
<title>Node5&#45;&gt;Node6</title>
<g id="a_edge5_Node000005_Node000006"><a xlink:title=" ">
<path fill="none" stroke="#63b8ff" d="M911.35,-86.31C774.75,-86.17 504.13,-80.3 278.5,-41 270.62,-39.63 262.35,-37.67 254.42,-35.51"/>
<polygon fill="#63b8ff" stroke="#63b8ff" points="911.75,-89.81 921.75,-86.31 911.75,-82.81 911.75,-89.81"/>
</a>
</g>
</g>
<!-- Node7 -->
<g id="Node000007" class="node">
<title>Node7</title>
<g id="a_Node000007"><a xlink:href="ImGuiUI_8cpp.html" target="_top" xlink:title=" ">
<polygon fill="white" stroke="#666666" points="405,-35.5 288,-35.5 288,-5.5 405,-5.5 405,-35.5"/>
<text text-anchor="start" x="296" y="-23.5" font-family="Helvetica,sans-Serif" font-size="10.00">Engine/Source/Editor</text>
<text text-anchor="middle" x="346.5" y="-12.5" font-family="Helvetica,sans-Serif" font-size="10.00">/ImGui/ImGuiUI.cpp</text>
</a>
</g>
</g>
<!-- Node5&#45;&gt;Node7 -->
<g id="edge6_Node000005_Node000007" class="edge">
<title>Node5&#45;&gt;Node7</title>
<g id="a_edge6_Node000005_Node000007"><a xlink:title=" ">
<path fill="none" stroke="#63b8ff" d="M911.58,-84.36C796.5,-81.62 588.94,-72.31 414.5,-41 406.64,-39.59 398.39,-37.64 390.45,-35.51"/>
<polygon fill="#63b8ff" stroke="#63b8ff" points="911.66,-87.87 921.74,-84.6 911.82,-80.87 911.66,-87.87"/>
</a>
</g>
</g>
<!-- Node8 -->
<g id="Node000008" class="node">
<title>Node8</title>
<g id="a_Node000008"><a xlink:href="HierarchyPanel_8cpp.html" target="_top" xlink:title=" ">
<polygon fill="white" stroke="#666666" points="575.5,-41 423.5,-41 423.5,0 575.5,0 575.5,-41"/>
<text text-anchor="start" x="431.5" y="-29" font-family="Helvetica,sans-Serif" font-size="10.00">Engine/Source/Editor</text>
<text text-anchor="start" x="431.5" y="-18" font-family="Helvetica,sans-Serif" font-size="10.00">/Panels/Hierarchy/Hierarchy</text>
<text text-anchor="middle" x="499.5" y="-7" font-family="Helvetica,sans-Serif" font-size="10.00">Panel.cpp</text>
</a>
</g>
</g>
<!-- Node5&#45;&gt;Node8 -->
<g id="edge7_Node000005_Node000008" class="edge">
<title>Node5&#45;&gt;Node8</title>
<g id="a_edge7_Node000005_Node000008"><a xlink:title=" ">
<path fill="none" stroke="#63b8ff" d="M911.83,-79.14C827.55,-72.31 696.78,-59.83 584.5,-41 581.66,-40.52 578.78,-40.01 575.87,-39.47"/>
<polygon fill="#63b8ff" stroke="#63b8ff" points="911.63,-82.63 921.87,-79.94 912.19,-75.66 911.63,-82.63"/>
</a>
</g>
</g>
<!-- Node9 -->
<g id="Node000009" class="node">
<title>Node9</title>
<g id="a_Node000009"><a xlink:href="InspectorPanel_8cpp.html" target="_top" xlink:title=" ">
<polygon fill="white" stroke="#666666" points="741,-41 594,-41 594,0 741,0 741,-41"/>
<text text-anchor="start" x="602" y="-29" font-family="Helvetica,sans-Serif" font-size="10.00">Engine/Source/Editor</text>
<text text-anchor="start" x="602" y="-18" font-family="Helvetica,sans-Serif" font-size="10.00">/Panels/Inspector/Inspector</text>
<text text-anchor="middle" x="667.5" y="-7" font-family="Helvetica,sans-Serif" font-size="10.00">Panel.cpp</text>
</a>
</g>
</g>
<!-- Node5&#45;&gt;Node9 -->
<g id="edge8_Node000005_Node000009" class="edge">
<title>Node5&#45;&gt;Node9</title>
<g id="a_edge8_Node000005_Node000009"><a xlink:title=" ">
<path fill="none" stroke="#63b8ff" d="M936.78,-75.25C886.32,-66.78 813.67,-54.05 750.5,-41 747.46,-40.37 744.35,-39.71 741.22,-39.04"/>
<polygon fill="#63b8ff" stroke="#63b8ff" points="936.44,-78.74 946.88,-76.94 937.59,-71.84 936.44,-78.74"/>
</a>
</g>
</g>
<!-- Node10 -->
<g id="Node000010" class="node">
<title>Node10</title>
<g id="a_Node000010"><a xlink:href="ProjectBrowserPanel_8cpp.html" target="_top" xlink:title="ProjectBrowserPanelの実装。">
<polygon fill="white" stroke="#666666" points="899.5,-41 759.5,-41 759.5,0 899.5,0 899.5,-41"/>
<text text-anchor="start" x="767.5" y="-29" font-family="Helvetica,sans-Serif" font-size="10.00">Engine/Source/Editor</text>
<text text-anchor="start" x="767.5" y="-18" font-family="Helvetica,sans-Serif" font-size="10.00">/Panels/ProjectBrowser</text>
<text text-anchor="middle" x="829.5" y="-7" font-family="Helvetica,sans-Serif" font-size="10.00">/ProjectBrowserPanel.cpp</text>
</a>
</g>
</g>
<!-- Node5&#45;&gt;Node10 -->
<g id="edge9_Node000005_Node000010" class="edge">
<title>Node5&#45;&gt;Node10</title>
<g id="a_edge9_Node000005_Node000010"><a xlink:title=" ">
<path fill="none" stroke="#63b8ff" d="M967.13,-73.32C942.91,-64.19 909.28,-51.53 881.32,-41.01"/>
<polygon fill="#63b8ff" stroke="#63b8ff" points="965.98,-76.62 976.57,-76.87 968.45,-70.07 965.98,-76.62"/>
</a>
</g>
</g>
<!-- Node11 -->
<g id="Node000011" class="node">
<title>Node11</title>
<g id="a_Node000011"><a xlink:href="SceneViewPanel_8cpp.html" target="_top" xlink:title=" ">
<polygon fill="white" stroke="#666666" points="1081.5,-41 917.5,-41 917.5,0 1081.5,0 1081.5,-41"/>
<text text-anchor="start" x="925.5" y="-29" font-family="Helvetica,sans-Serif" font-size="10.00">Engine/Source/Editor</text>
<text text-anchor="start" x="925.5" y="-18" font-family="Helvetica,sans-Serif" font-size="10.00">/Panels/SceneView/SceneView</text>
<text text-anchor="middle" x="999.5" y="-7" font-family="Helvetica,sans-Serif" font-size="10.00">Panel.cpp</text>
</a>
</g>
</g>
<!-- Node5&#45;&gt;Node11 -->
<g id="edge10_Node000005_Node000011" class="edge">
<title>Node5&#45;&gt;Node11</title>
<g id="a_edge10_Node000005_Node000011"><a xlink:title=" ">
<path fill="none" stroke="#63b8ff" d="M999.5,-66.63C999.5,-58.56 999.5,-49.15 999.5,-41.01"/>
<polygon fill="#63b8ff" stroke="#63b8ff" points="996,-66.87 999.5,-76.87 1003,-66.87 996,-66.87"/>
</a>
</g>
</g>
<!-- Node12 -->
<g id="Node000012" class="node">
<title>Node12</title>
<g id="a_Node000012"><a xlink:href="EditorFileSystem_8cpp.html" target="_top" xlink:title="EditorFileSystemの実装。">
<polygon fill="white" stroke="#666666" points="1247.5,-35.5 1099.5,-35.5 1099.5,-5.5 1247.5,-5.5 1247.5,-35.5"/>
<text text-anchor="start" x="1107.5" y="-23.5" font-family="Helvetica,sans-Serif" font-size="10.00">Engine/Source/Editor</text>
<text text-anchor="middle" x="1173.5" y="-12.5" font-family="Helvetica,sans-Serif" font-size="10.00">/Utils/EditorFileSystem.cpp</text>
</a>
</g>
</g>
<!-- Node5&#45;&gt;Node12 -->
<g id="edge11_Node000005_Node000012" class="edge">
<title>Node5&#45;&gt;Node12</title>
<g id="a_edge11_Node000005_Node000012"><a xlink:title=" ">
<path fill="none" stroke="#63b8ff" d="M1032.7,-73.29C1061.92,-62.54 1104.46,-46.9 1135.12,-35.62"/>
<polygon fill="#63b8ff" stroke="#63b8ff" points="1031.14,-70.13 1022.97,-76.87 1033.56,-76.7 1031.14,-70.13"/>
</a>
</g>
</g>
<!-- Node13 -->
<g id="Node000013" class="node">
<title>Node13</title>
<g id="a_Node000013"><a xlink:href="Application_8cpp.html" target="_top" xlink:title=" ">
<polygon fill="white" stroke="#666666" points="1395.5,-35.5 1265.5,-35.5 1265.5,-5.5 1395.5,-5.5 1395.5,-35.5"/>
<text text-anchor="start" x="1273.5" y="-23.5" font-family="Helvetica,sans-Serif" font-size="10.00">Engine/Source/Runtime</text>
<text text-anchor="middle" x="1330.5" y="-12.5" font-family="Helvetica,sans-Serif" font-size="10.00">/Application.cpp</text>
</a>
</g>
</g>
<!-- Node5&#45;&gt;Node13 -->
<g id="edge12_Node000005_Node000013" class="edge">
<title>Node5&#45;&gt;Node13</title>
<g id="a_edge12_Node000005_Node000013"><a xlink:title=" ">
<path fill="none" stroke="#63b8ff" d="M1067.3,-75.4C1119.29,-67.25 1192.73,-54.9 1256.5,-41 1264.03,-39.36 1271.95,-37.46 1279.69,-35.51"/>
<polygon fill="#63b8ff" stroke="#63b8ff" points="1066.53,-71.97 1057.19,-76.97 1067.61,-78.89 1066.53,-71.97"/>
</a>
</g>
</g>
<!-- Node14 -->
<g id="Node000014" class="node">
<title>Node14</title>
<g id="a_Node000014"><a xlink:href="AssetRegistry_8cpp.html" target="_top" xlink:title="AssetRegistryの実装。">
<polygon fill="white" stroke="#666666" points="1567.5,-35.5 1413.5,-35.5 1413.5,-5.5 1567.5,-5.5 1567.5,-35.5"/>
<text text-anchor="start" x="1421.5" y="-23.5" font-family="Helvetica,sans-Serif" font-size="10.00">Engine/Source/Runtime</text>
<text text-anchor="middle" x="1490.5" y="-12.5" font-family="Helvetica,sans-Serif" font-size="10.00">/Resource/AssetRegistry.cpp</text>
</a>
</g>
</g>
<!-- Node5&#45;&gt;Node14 -->
<g id="edge13_Node000005_Node000014" class="edge">
<title>Node5&#45;&gt;Node14</title>
<g id="a_edge13_Node000005_Node000014"><a xlink:title=" ">
<path fill="none" stroke="#63b8ff" d="M1087.19,-78.76C1169.49,-71.75 1295.84,-59.23 1404.5,-41 1413.71,-39.45 1423.41,-37.54 1432.85,-35.52"/>
<polygon fill="#63b8ff" stroke="#63b8ff" points="1086.79,-75.28 1077.12,-79.61 1087.38,-82.25 1086.79,-75.28"/>
</a>
</g>
</g>
<!-- Node15 -->
<g id="Node000015" class="node">
<title>Node15</title>
<g id="a_Node000015"><a xlink:href="AssetSerializer_8cpp.html" target="_top" xlink:title="AssetSerializerの実装。">
<polygon fill="white" stroke="#666666" points="1745.5,-35.5 1585.5,-35.5 1585.5,-5.5 1745.5,-5.5 1745.5,-35.5"/>
<text text-anchor="start" x="1593.5" y="-23.5" font-family="Helvetica,sans-Serif" font-size="10.00">Engine/Source/Runtime</text>
<text text-anchor="middle" x="1665.5" y="-12.5" font-family="Helvetica,sans-Serif" font-size="10.00">/Resource/AssetSerializer.cpp</text>
</a>
</g>
</g>
<!-- Node5&#45;&gt;Node15 -->
<g id="edge14_Node000005_Node000015" class="edge">
<title>Node5&#45;&gt;Node15</title>
<g id="a_edge14_Node000005_Node000015"><a xlink:title=" ">
<path fill="none" stroke="#63b8ff" d="M1087.37,-82.51C1200.86,-77.79 1404.27,-66.38 1576.5,-41 1586.36,-39.55 1596.76,-37.63 1606.83,-35.56"/>
<polygon fill="#63b8ff" stroke="#63b8ff" points="1087.19,-79.02 1077.34,-82.92 1087.48,-86.01 1087.19,-79.02"/>
</a>
</g>
</g>
<!-- Node16 -->
<g id="Node000016" class="node">
<title>Node16</title>
<g id="a_Node000016"><a xlink:href="SceneSerializer_8cpp.html" target="_top" xlink:title="SceneSerializerの実装。">
<polygon fill="white" stroke="#666666" points="1909.5,-35.5 1763.5,-35.5 1763.5,-5.5 1909.5,-5.5 1909.5,-35.5"/>
<text text-anchor="start" x="1771.5" y="-23.5" font-family="Helvetica,sans-Serif" font-size="10.00">Engine/Source/Runtime</text>
<text text-anchor="middle" x="1836.5" y="-12.5" font-family="Helvetica,sans-Serif" font-size="10.00">/Scene/SceneSerializer.cpp</text>
</a>
</g>
</g>
<!-- Node5&#45;&gt;Node16 -->
<g id="edge15_Node000005_Node000016" class="edge">
<title>Node5&#45;&gt;Node16</title>
<g id="a_edge15_Node000005_Node000016"><a xlink:title=" ">
<path fill="none" stroke="#63b8ff" d="M1087.46,-85.28C1228.82,-83.81 1514.98,-76.26 1754.5,-41 1763.91,-39.61 1773.83,-37.68 1783.39,-35.55"/>
<polygon fill="#63b8ff" stroke="#63b8ff" points="1087.09,-81.78 1077.12,-85.38 1087.16,-88.78 1087.09,-81.78"/>
</a>
</g>
</g>
<!-- Node17&#45;&gt;Node5 -->
<g id="edge18_Node000017_Node000005" class="edge">
<title>Node17&#45;&gt;Node5</title>
<g id="a_edge18_Node000017_Node000005"><a xlink:title=" ">
<path fill="none" stroke="#63b8ff" d="M1626.15,-135.78C1617.51,-134.37 1608.84,-133.07 1600.5,-132 1413.45,-107.94 1191.85,-95.7 1077.09,-90.56"/>
<polygon fill="#63b8ff" stroke="#63b8ff" points="1625.81,-139.27 1636.25,-137.48 1626.97,-132.37 1625.81,-139.27"/>
</a>
</g>
</g>
<!-- Node18&#45;&gt;Node4 -->
<g id="edge20_Node000018_Node000004" class="edge">
<title>Node18&#45;&gt;Node4</title>
<g id="a_edge20_Node000018_Node000004"><a xlink:title=" ">
<path fill="none" stroke="#63b8ff" d="M116.52,-210.46C148.67,-197.28 191.63,-179.68 221.23,-167.54"/>
<polygon fill="#63b8ff" stroke="#63b8ff" points="114.85,-207.36 106.92,-214.39 117.5,-213.84 114.85,-207.36"/>
</a>
</g>
</g>
<!-- Node18&#45;&gt;Node5 -->
<g id="edge21_Node000018_Node000005" class="edge">
<title>Node18&#45;&gt;Node5</title>
<g id="a_edge21_Node000018_Node000005"><a xlink:title=" ">
<path fill="none" stroke="#63b8ff" d="M83.82,-205.32C96.51,-182.17 119.47,-147.83 150.5,-132 218.09,-97.52 724.85,-89.72 921.67,-87.99"/>
<polygon fill="#63b8ff" stroke="#63b8ff" points="80.72,-203.69 79.16,-214.17 86.91,-206.95 80.72,-203.69"/>
</a>
</g>
</g>
<!-- Node19&#45;&gt;Node4 -->
<g id="edge23_Node000019_Node000004" class="edge">
<title>Node19&#45;&gt;Node4</title>
<g id="a_edge23_Node000019_Node000004"><a xlink:title=" ">
<path fill="none" stroke="#63b8ff" d="M243.28,-204.41C246.2,-192.24 249.64,-177.9 252.13,-167.54"/>
<polygon fill="#63b8ff" stroke="#63b8ff" points="239.82,-203.85 240.89,-214.39 246.62,-205.49 239.82,-203.85"/>
</a>
</g>
</g>
<!-- Node19&#45;&gt;Node5 -->
<g id="edge24_Node000019_Node000005" class="edge">
<title>Node19&#45;&gt;Node5</title>
<g id="a_edge24_Node000019_Node000005"><a xlink:title=" ">
<path fill="none" stroke="#63b8ff" d="M197.21,-209.15C183.27,-200.23 169.22,-188.2 161.5,-173 153.25,-156.75 148.96,-145.22 161.5,-132 187.42,-104.66 718.69,-92.45 921.63,-88.77"/>
<polygon fill="#63b8ff" stroke="#63b8ff" points="195.44,-212.17 205.82,-214.3 199.04,-206.16 195.44,-212.17"/>
</a>
</g>
</g>
<!-- Node20&#45;&gt;Node4 -->
<g id="edge26_Node000020_Node000004" class="edge">
<title>Node20&#45;&gt;Node4</title>
<g id="a_edge26_Node000020_Node000004"><a xlink:title=" ">
<path fill="none" stroke="#63b8ff" d="M361.72,-209.6C336.96,-196.53 304.57,-179.41 282.09,-167.54"/>
<polygon fill="#63b8ff" stroke="#63b8ff" points="360.31,-212.82 370.79,-214.39 363.58,-206.63 360.31,-212.82"/>
</a>
</g>
</g>
<!-- Node20&#45;&gt;Node5 -->
<g id="edge27_Node000020_Node000005" class="edge">
<title>Node20&#45;&gt;Node5</title>
<g id="a_edge27_Node000020_Node000005"><a xlink:title=" ">
<path fill="none" stroke="#63b8ff" d="M332.39,-211.97C328.37,-210.96 324.38,-209.97 320.5,-209 255.23,-192.74 215.02,-225.92 173.5,-173 162.25,-158.66 160.97,-145.23 173.5,-132 199,-105.09 720.81,-92.64 921.66,-88.83"/>
<polygon fill="#63b8ff" stroke="#63b8ff" points="331.86,-215.45 342.41,-214.49 333.57,-208.66 331.86,-215.45"/>
</a>
</g>
</g>
<!-- Node21&#45;&gt;Node4 -->
<g id="edge29_Node000021_Node000004" class="edge">
<title>Node21&#45;&gt;Node4</title>
<g id="a_edge29_Node000021_Node000004"><a xlink:title=" ">
<path fill="none" stroke="#63b8ff" d="M659.51,-212.5C653.09,-211.26 646.69,-210.08 640.5,-209 525.57,-189.02 495.91,-189.99 380.5,-173 363.66,-170.52 345.56,-167.76 328.51,-165.1"/>
<polygon fill="#63b8ff" stroke="#63b8ff" points="659.09,-215.99 669.58,-214.49 660.44,-209.12 659.09,-215.99"/>
</a>
</g>
</g>
<!-- Node21&#45;&gt;Node5 -->
<g id="edge38_Node000021_Node000005" class="edge">
<title>Node21&#45;&gt;Node5</title>
<g id="a_edge38_Node000021_Node000005"><a xlink:title=" ">
<path fill="none" stroke="#63b8ff" d="M658.38,-212.42C652.34,-211.22 646.32,-210.07 640.5,-209 535.72,-189.72 341.08,-210.13 413.5,-132 447.36,-95.48 770.45,-88.78 921.88,-87.66"/>
<polygon fill="#63b8ff" stroke="#63b8ff" points="658.05,-215.92 668.54,-214.45 659.42,-209.06 658.05,-215.92"/>
</a>
</g>
</g>
<!-- Node22 -->
<g id="Node000022" class="node">
<title>Node22</title>
<g id="a_Node000022"><a xlink:href="RelationshipSystem_8h.html" target="_top" xlink:title="エンティティ間の親子・兄弟関係 (階層構造) を操作するシステム。">
<polygon fill="white" stroke="#666666" points="620,-167.5 423,-167.5 423,-137.5 620,-137.5 620,-167.5"/>
<text text-anchor="start" x="431" y="-155.5" font-family="Helvetica,sans-Serif" font-size="10.00">Engine/Source/Runtime</text>
<text text-anchor="middle" x="521.5" y="-144.5" font-family="Helvetica,sans-Serif" font-size="10.00">/Systems/Core/RelationshipSystem.h</text>
</a>
</g>
</g>
<!-- Node21&#45;&gt;Node22 -->
<g id="edge30_Node000021_Node000022" class="edge">
<title>Node21&#45;&gt;Node22</title>
<g id="a_edge30_Node000021_Node000022"><a xlink:title=" ">
<path fill="none" stroke="#63b8ff" d="M683.94,-210.97C646.55,-197.74 595.94,-179.83 561.2,-167.54"/>
<polygon fill="#63b8ff" stroke="#63b8ff" points="683.03,-214.36 693.62,-214.39 685.36,-207.76 683.03,-214.36"/>
</a>
</g>
</g>
<!-- Node23 -->
<g id="Node000023" class="node">
<title>Node23</title>
<g id="a_Node000023"><a xlink:href="TransformSystem_8h.html" target="_top" xlink:title="ローカル座標からワールド座標への変換行列計算">
<polygon fill="white" stroke="#666666" points="823,-167.5 638,-167.5 638,-137.5 823,-137.5 823,-167.5"/>
<text text-anchor="start" x="646" y="-155.5" font-family="Helvetica,sans-Serif" font-size="10.00">Engine/Source/Runtime</text>
<text text-anchor="middle" x="730.5" y="-144.5" font-family="Helvetica,sans-Serif" font-size="10.00">/Systems/Core/TransformSystem.h</text>
</a>
</g>
</g>
<!-- Node21&#45;&gt;Node23 -->
<g id="edge32_Node000021_Node000023" class="edge">
<title>Node21&#45;&gt;Node23</title>
<g id="a_edge32_Node000021_Node000023"><a xlink:title=" ">
<path fill="none" stroke="#63b8ff" d="M732.52,-204.04C732.04,-191.95 731.47,-177.79 731.06,-167.54"/>
<polygon fill="#63b8ff" stroke="#63b8ff" points="729.04,-204.54 732.94,-214.39 736.03,-204.26 729.04,-204.54"/>
</a>
</g>
</g>
<!-- Node24 -->
<g id="Node000024" class="node">
<title>Node24</title>
<g id="a_Node000024"><a xlink:href="CameraSystem_8h.html" target="_top" xlink:title="カメラ行列の更新とレンダラーへの適用。">
<polygon fill="white" stroke="#666666" points="1034.5,-167.5 840.5,-167.5 840.5,-137.5 1034.5,-137.5 1034.5,-167.5"/>
<text text-anchor="start" x="848.5" y="-155.5" font-family="Helvetica,sans-Serif" font-size="10.00">Engine/Source/Runtime</text>
<text text-anchor="middle" x="937.5" y="-144.5" font-family="Helvetica,sans-Serif" font-size="10.00">/Systems/Graphics/CameraSystem.h</text>
</a>
</g>
</g>
<!-- Node21&#45;&gt;Node24 -->
<g id="edge34_Node000021_Node000024" class="edge">
<title>Node21&#45;&gt;Node24</title>
<g id="a_edge34_Node000021_Node000024"><a xlink:title=" ">
<path fill="none" stroke="#63b8ff" d="M781.65,-210.8C817.58,-197.59 866.02,-179.78 899.3,-167.54"/>
<polygon fill="#63b8ff" stroke="#63b8ff" points="780.05,-207.66 771.87,-214.39 782.46,-214.23 780.05,-207.66"/>
</a>
</g>
</g>
<!-- Node25 -->
<g id="Node000025" class="node">
<title>Node25</title>
<g id="a_Node000025"><a xlink:href="EditorCameraSystem_8h.html" target="_top" xlink:title="エディタ用フリーカメラの操作システム">
<polygon fill="white" stroke="#666666" points="1267,-173 1090,-173 1090,-132 1267,-132 1267,-173"/>
<text text-anchor="start" x="1098" y="-161" font-family="Helvetica,sans-Serif" font-size="10.00">Engine/Source/Runtime</text>
<text text-anchor="start" x="1098" y="-150" font-family="Helvetica,sans-Serif" font-size="10.00">/Systems/Graphics/EditorCamera</text>
<text text-anchor="middle" x="1178.5" y="-139" font-family="Helvetica,sans-Serif" font-size="10.00">System.h</text>
</a>
</g>
</g>
<!-- Node21&#45;&gt;Node25 -->
<g id="edge36_Node000021_Node000025" class="edge">
<title>Node21&#45;&gt;Node25</title>
<g id="a_edge36_Node000021_Node000025"><a xlink:title=" ">
<path fill="none" stroke="#63b8ff" d="M808.01,-212.53C814.26,-211.3 820.48,-210.1 826.5,-209 915.8,-192.61 1018.39,-176.77 1089.68,-166.24"/>
<polygon fill="#63b8ff" stroke="#63b8ff" points="807.32,-209.1 798.21,-214.5 808.7,-215.96 807.32,-209.1"/>
</a>
</g>
</g>
<!-- Node22&#45;&gt;Node5 -->
<g id="edge31_Node000022_Node000005" class="edge">
<title>Node22&#45;&gt;Node5</title>
<g id="a_edge31_Node000022_Node000005"><a xlink:title=" ">
<path fill="none" stroke="#63b8ff" d="M605.07,-135.76C612.98,-134.43 620.89,-133.15 628.5,-132 729.53,-116.75 846.67,-103.42 921.86,-95.42"/>
<polygon fill="#63b8ff" stroke="#63b8ff" points="604.34,-132.34 595.08,-137.48 605.53,-139.24 604.34,-132.34"/>
</a>
</g>
</g>
<!-- Node23&#45;&gt;Node5 -->
<g id="edge33_Node000023_Node000005" class="edge">
<title>Node23&#45;&gt;Node5</title>
<g id="a_edge33_Node000023_Node000005"><a xlink:title=" ">
<path fill="none" stroke="#63b8ff" d="M799.44,-135.1C851.88,-122.62 921.92,-105.96 963.7,-96.02"/>
<polygon fill="#63b8ff" stroke="#63b8ff" points="798.45,-131.74 789.53,-137.45 800.07,-138.55 798.45,-131.74"/>
</a>
</g>
</g>
<!-- Node24&#45;&gt;Node5 -->
<g id="edge35_Node000024_Node000005" class="edge">
<title>Node24&#45;&gt;Node5</title>
<g id="a_edge35_Node000024_Node000005"><a xlink:title=" ">
<path fill="none" stroke="#63b8ff" d="M958.23,-130.1C969.38,-118.6 982.52,-105.02 990.93,-96.34"/>
<polygon fill="#63b8ff" stroke="#63b8ff" points="955.7,-127.68 951.26,-137.3 960.73,-132.55 955.7,-127.68"/>
</a>
</g>
</g>
<!-- Node25&#45;&gt;Node5 -->
<g id="edge37_Node000025_Node000005" class="edge">
<title>Node25&#45;&gt;Node5</title>
<g id="a_edge37_Node000025_Node000005"><a xlink:title=" ">
<path fill="none" stroke="#63b8ff" d="M1114.21,-128.51C1082.71,-117.25 1046.67,-104.37 1023.53,-96.09"/>
<polygon fill="#63b8ff" stroke="#63b8ff" points="1113.23,-131.88 1123.82,-131.95 1115.58,-125.29 1113.23,-131.88"/>
</a>
</g>
</g>
<!-- Node26&#45;&gt;Node5 -->
<g id="edge41_Node000026_Node000005" class="edge">
<title>Node26&#45;&gt;Node5</title>
<g id="a_edge41_Node000026_Node000005"><a xlink:title=" ">
<path fill="none" stroke="#63b8ff" d="M1153.32,-212.11C1205.59,-199.76 1267.75,-183.25 1275.5,-173 1286.49,-158.47 1287.32,-145.87 1275.5,-132 1250.44,-102.58 1149.76,-92.54 1077.23,-89.16"/>
<polygon fill="#63b8ff" stroke="#63b8ff" points="1152.29,-208.76 1143.35,-214.44 1153.89,-215.57 1152.29,-208.76"/>
</a>
</g>
</g>
<!-- Node26&#45;&gt;Node25 -->
<g id="edge40_Node000026_Node000025" class="edge">
<title>Node26&#45;&gt;Node25</title>
<g id="a_edge40_Node000026_Node000025"><a xlink:title=" ">
<path fill="none" stroke="#63b8ff" d="M1106.16,-208.31C1120.54,-197.41 1138.21,-184.02 1152.49,-173.2"/>
<polygon fill="#63b8ff" stroke="#63b8ff" points="1103.98,-205.56 1098.12,-214.39 1108.21,-211.14 1103.98,-205.56"/>
</a>
</g>
</g>
<!-- Node27&#45;&gt;Node5 -->
<g id="edge45_Node000027_Node000005" class="edge">
<title>Node27&#45;&gt;Node5</title>
<g id="a_edge45_Node000027_Node000005"><a xlink:title=" ">
<path fill="none" stroke="#63b8ff" d="M975.3,-207.93C1005.32,-198.03 1034.88,-185.59 1043.5,-173 1053.79,-157.96 1050.43,-148.85 1043.5,-132 1037.22,-116.73 1022.89,-103.9 1012.28,-96"/>
<polygon fill="#63b8ff" stroke="#63b8ff" points="974.02,-204.67 965.56,-211.05 976.15,-211.33 974.02,-204.67"/>
</a>
</g>
</g>
<!-- Node27&#45;&gt;Node24 -->
<g id="edge43_Node000027_Node000024" class="edge">
<title>Node27&#45;&gt;Node24</title>
<g id="a_edge43_Node000027_Node000024"><a xlink:title=" ">
<path fill="none" stroke="#63b8ff" d="M914.76,-199.6C920.12,-188.73 925.98,-176.84 930.42,-167.86"/>
<polygon fill="#63b8ff" stroke="#63b8ff" points="911.51,-198.28 910.22,-208.79 917.78,-201.38 911.51,-198.28"/>
</a>
</g>
</g>
<!-- Node27&#45;&gt;Node25 -->
<g id="edge44_Node000027_Node000025" class="edge">
<title>Node27&#45;&gt;Node25</title>
<g id="a_edge44_Node000027_Node000025"><a xlink:title=" ">
<path fill="none" stroke="#63b8ff" d="M975.5,-208.27C1016,-197.34 1065.78,-183.91 1105.9,-173.09"/>
<polygon fill="#63b8ff" stroke="#63b8ff" points="974.42,-204.93 965.68,-210.92 976.25,-211.69 974.42,-204.93"/>
</a>
</g>
</g>
<!-- Node29 -->
<g id="Node000029" class="node">
<title>Node29</title>
<g id="a_Node000029"><a xlink:href="RenderingSystem_8h.html" target="_top" xlink:title="描画コマンド発行システム。">
<polygon fill="white" stroke="#666666" points="1520.5,-173 1360.5,-173 1360.5,-132 1520.5,-132 1520.5,-173"/>
<text text-anchor="start" x="1368.5" y="-161" font-family="Helvetica,sans-Serif" font-size="10.00">Engine/Source/Runtime</text>
<text text-anchor="start" x="1368.5" y="-150" font-family="Helvetica,sans-Serif" font-size="10.00">/Systems/Graphics/Rendering</text>
<text text-anchor="middle" x="1440.5" y="-139" font-family="Helvetica,sans-Serif" font-size="10.00">System.h</text>
</a>
</g>
</g>
<!-- Node28&#45;&gt;Node29 -->
<g id="edge47_Node000028_Node000029" class="edge">
<title>Node28&#45;&gt;Node29</title>
<g id="a_edge47_Node000028_Node000029"><a xlink:title=" ">
<path fill="none" stroke="#63b8ff" d="M1419.63,-199.55C1423.64,-190.69 1427.96,-181.15 1431.63,-173.07"/>
<polygon fill="#63b8ff" stroke="#63b8ff" points="1416.37,-198.24 1415.43,-208.79 1422.75,-201.13 1416.37,-198.24"/>
</a>
</g>
</g>
<!-- Node29&#45;&gt;Node5 -->
<g id="edge48_Node000029_Node000005" class="edge">
<title>Node29&#45;&gt;Node5</title>
<g id="a_edge48_Node000029_Node000005"><a xlink:title=" ">
<path fill="none" stroke="#63b8ff" d="M1350.34,-132.65C1349.05,-132.43 1347.77,-132.21 1346.5,-132 1254.4,-116.57 1147.77,-103.62 1077.27,-95.74"/>
<polygon fill="#63b8ff" stroke="#63b8ff" points="1349.87,-136.12 1360.33,-134.44 1351.1,-129.23 1349.87,-136.12"/>
</a>
</g>
</g>
<!-- Node30&#45;&gt;Node5 -->
<g id="edge51_Node000030_Node000005" class="edge">
<title>Node30&#45;&gt;Node5</title>
<g id="a_edge51_Node000030_Node000005"><a xlink:title=" ">
<path fill="none" stroke="#63b8ff" d="M1282.74,-200.52C1297.78,-179.67 1311.31,-151.54 1294.5,-132 1266.97,-100 1154.9,-90.71 1077.11,-88.18"/>
<polygon fill="#63b8ff" stroke="#63b8ff" points="1279.8,-198.61 1276.52,-208.68 1285.36,-202.85 1279.8,-198.61"/>
</a>
</g>
</g>
<!-- Node30&#45;&gt;Node29 -->
<g id="edge50_Node000030_Node000029" class="edge">
<title>Node30&#45;&gt;Node29</title>
<g id="a_edge50_Node000030_Node000029"><a xlink:title=" ">
<path fill="none" stroke="#63b8ff" d="M1315.21,-205.13C1340.21,-194.83 1369.25,-182.86 1393.08,-173.04"/>
<polygon fill="#63b8ff" stroke="#63b8ff" points="1313.76,-201.94 1305.84,-208.99 1316.42,-208.42 1313.76,-201.94"/>
</a>
</g>
</g>
<!-- Node31&#45;&gt;Node5 -->
<g id="edge54_Node000031_Node000005" class="edge">
<title>Node31&#45;&gt;Node5</title>
<g id="a_edge54_Node000031_Node000005"><a xlink:title=" ">
<path fill="none" stroke="#63b8ff" d="M1555.28,-198.65C1554.11,-176.74 1548.6,-148.11 1529.5,-132 1495.7,-103.5 1215.9,-92.74 1077.04,-89.12"/>
<polygon fill="#63b8ff" stroke="#63b8ff" points="1551.79,-198.87 1555.55,-208.78 1558.78,-198.69 1551.79,-198.87"/>
</a>
</g>
</g>
<!-- Node31&#45;&gt;Node29 -->
<g id="edge53_Node000031_Node000029" class="edge">
<title>Node31&#45;&gt;Node29</title>
<g id="a_edge53_Node000031_Node000029"><a xlink:title=" ">
<path fill="none" stroke="#63b8ff" d="M1516.3,-203.37C1501.34,-193.53 1484.44,-182.41 1470.4,-173.17"/>
<polygon fill="#63b8ff" stroke="#63b8ff" points="1514.57,-206.42 1524.85,-208.99 1518.41,-200.57 1514.57,-206.42"/>
</a>
</g>
</g>
</g>
</svg>

<g id="navigator" transform="translate(0 0)" fill="#404254">
  <rect fill="#f2f5e9" fill-opacity="0.5" stroke="#606060" stroke-width=".5" x="0" y="0" width="60" height="60"/>
  <use id="zoomplus" xlink:href="#zoomPlus" x="17" y="9" onmousedown="handleZoom(evt,'in')"/>
  <use id="zoomminus" xlink:href="#zoomMin" x="42" y="9" onmousedown="handleZoom(evt,'out')"/>
  <use id="reset" xlink:href="#resetDef" x="30" y="36" onmousedown="handleReset()"/>
   <use id="arrowup" xlink:href="#arrowUp" x="0" y="0" onmousedown="handlePan(0,-1)"/>
  <use id="arrowright" xlink:href="#arrowRight" x="0" y="0" onmousedown="handlePan(1,0)"/>
  <use id="arrowdown" xlink:href="#arrowDown" x="0" y="0" onmousedown="handlePan(0,1)"/>
  <use id="arrowleft" xlink:href="#arrowLeft" x="0" y="0" onmousedown="handlePan(-1,0)"/>
</g>
<svg viewBox="0 0 15 15" width="100%" height="30px" preserveAspectRatio="xMaxYMin meet">
 <g id="arrow_out" transform="scale(0.3 0.3)">
  <a xlink:href="SpanAttributes_8h__dep__incl_org.svg" target="_base">
   <rect id="button" ry="5" rx="5" y="6" x="6" height="38" width="38"
        fill="#f2f5e9" fill-opacity="0.5" stroke="#606060" stroke-width="1.0"/>
   <path id="arrow"
     d="M 11.500037,31.436501 C 11.940474,20.09759 22.043105,11.32322 32.158766,21.979434 L 37.068811,17.246167 C 37.068811,17.246167 37.088388,32 37.088388,32 L 22.160133,31.978069 C 22.160133,31.978069 26.997745,27.140456 26.997745,27.140456 C 18.528582,18.264221 13.291696,25.230495 11.500037,31.436501 z"
     style="fill:#404040;"/>
  </a>
 </g>
</svg>

<style type='text/css'>
<![CDATA[
[data-mouse-over-selected='false'] { opacity: 0.7; }
[data-mouse-over-selected='true']  { opacity: 1.0; }
]]>
</style>
<script type="application/ecmascript"><![CDATA[
document.addEventListener('DOMContentLoaded', (event) => {
  highlightEdges();
  highlightAdjacentNodes();
});
]]></script>
</svg>
