<?xml version="1.0" encoding="UTF-8" standalone="no"?>
<!DOCTYPE svg PUBLIC "-//W3C//DTD SVG 1.1//EN"
 "http://www.w3.org/Graphics/SVG/1.1/DTD/svg11.dtd">
<!-- Generated by graphviz version 2.43.0 (0)
 -->
<!-- Title: Span::Matrix4x4::Matrix4x4 Pages: 1 -->
<!--zoomable 591 -->

<svg id="main" version="1.1" xmlns="http://www.w3.org/2000/svg" xmlns:xlink="http://www.w3.org/1999/xlink" xml:space="preserve" onload="init(evt)">

<style type="text/css"><![CDATA[
.node, .edge {opacity: 0.7;}
.node.selected, .edge.selected {opacity: 1;}
.edge:hover path { stroke: red; }
.edge:hover polygon { stroke: red; fill: red; }
]]></style>

<defs>
  <circle id="rim" cx="0" cy="0" r="7"/>
  <circle id="rim2" cx="0" cy="0" r="3.5"/>
  <g id="zoomPlus">
    <use xlink:href="#rim" fill="#404040"><set attributeName="fill" to="#808080" begin="zoomplus.mouseover" end="zoomplus.mouseout"/></use>
    <path d="M-4,0h8M0,-4v8" fill="none" stroke="white" stroke-width="1.5" pointer-events="none"/>
  </g>
  <g id="zoomMin">
    <use xlink:href="#rim" fill="#404040"><set attributeName="fill" to="#808080" begin="zoomminus.mouseover" end="zoomminus.mouseout"/></use>
    <path d="M-4,0h8" fill="none" stroke="white" stroke-width="1.5" pointer-events="none"/>
  </g>
  <g id="arrowUp" transform="translate(30 24)">
    <use xlink:href="#rim"/>
    <path pointer-events="none" fill="none" stroke="white" stroke-width="1.5" d="M0,-3.0v7 M-2.5,-0.5L0,-3.0L2.5,-0.5"/>
  </g>
  <g id="arrowRight" transform="rotate(90) translate(36 -43)">
    <use xlink:href="#rim"/>
    <path pointer-events="none" fill="none" stroke="white" stroke-width="1.5" d="M0,-3.0v7 M-2.5,-0.5L0,-3.0L2.5,-0.5"/>
  </g>
  <g id="arrowDown" transform="rotate(180) translate(-30 -48)">
    <use xlink:href="#rim"/>
    <path pointer-events="none" fill="none" stroke="white" stroke-width="1.5" d="M0,-3.0v7 M-2.5,-0.5L0,-3.0L2.5,-0.5"/>
  </g>
  <g id="arrowLeft" transform="rotate(270) translate(-36 17)">
    <use xlink:href="#rim"/>
    <path pointer-events="none" fill="none" stroke="white" stroke-width="1.5" d="M0,-3.0v7 M-2.5,-0.5L0,-3.0L2.5,-0.5"/>
  </g>
  <g id="resetDef">
    <use xlink:href="#rim2" fill="#404040"><set attributeName="fill" to="#808080" begin="reset.mouseover" end="reset.mouseout"/></use>
  </g>
</defs>
<script type="application/ecmascript">
var viewWidth = 881;
var viewHeight = 591;
var sectionId = 'dynsection-2';
</script>
<script type="application/ecmascript" xlink:href="svg.min.js"/>
<svg id="graph" class="graph">
<g id="viewport">
<title>Span::Matrix4x4::Matrix4x4</title>
<!-- Node1 -->
<g id="Node000001" class="node">
<title>Node1</title>
<g id="a_Node000001"><a xlink:title=" ">
<polygon fill="#999999" stroke="#666666" points="873,-249 721,-249 721,-230 873,-230 873,-249"/>
<text text-anchor="middle" x="797" y="-237" font-family="Helvetica,sans-Serif" font-size="10.00">Span::Matrix4x4::Matrix4x4</text>
</a>
</g>
</g>
<!-- Node2 -->
<g id="Node000002" class="node">
<title>Node2</title>
<g id="a_Node000002"><a xlink:href="structSpan_1_1Matrix4x4.html#aea4a95a235a15e6ad3366fd07649d253" target="_top" xlink:title="行列を 移動・回転・スケール に分解する">
<polygon fill="white" stroke="#666666" points="490,-432 330,-432 330,-413 490,-413 490,-432"/>
<text text-anchor="middle" x="410" y="-420" font-family="Helvetica,sans-Serif" font-size="10.00">Span::Matrix4x4::Decompose</text>
</a>
</g>
</g>
<!-- Node1&#45;&gt;Node2 -->
<g id="edge1_Node000001_Node000002" class="edge">
<title>Node1&#45;&gt;Node2</title>
<g id="a_edge1_Node000001_Node000002"><a xlink:title=" ">
<path fill="none" stroke="#63b8ff" d="M781.01,-256.58C761.07,-278.37 723.78,-315.92 685,-338.5 615.88,-378.75 525.53,-401.57 467.86,-412.98"/>
<polygon fill="#63b8ff" stroke="#63b8ff" points="783.69,-258.84 787.77,-249.07 778.48,-254.16 783.69,-258.84"/>
</a>
</g>
</g>
<!-- Node5 -->
<g id="Node000005" class="node">
<title>Node5</title>
<g id="a_Node000005"><a xlink:href="structSpan_1_1Matrix4x4.html#a9c4e6a6d01ebda4b0b5818a910afa557" target="_top" xlink:title="単位行列">
<polygon fill="white" stroke="#666666" points="675.5,-329 535.5,-329 535.5,-310 675.5,-310 675.5,-329"/>
<text text-anchor="middle" x="605.5" y="-317" font-family="Helvetica,sans-Serif" font-size="10.00">Span::Matrix4x4::Identity</text>
</a>
</g>
</g>
<!-- Node1&#45;&gt;Node5 -->
<g id="edge4_Node000001_Node000005" class="edge">
<title>Node1&#45;&gt;Node5</title>
<g id="a_edge4_Node000001_Node000005"><a xlink:title=" ">
<path fill="none" stroke="#63b8ff" d="M763.49,-253.22C725.19,-269.39 662.55,-295.84 629.14,-309.94"/>
<polygon fill="#63b8ff" stroke="#63b8ff" points="765.29,-256.26 773.14,-249.15 762.57,-249.81 765.29,-256.26"/>
</a>
</g>
</g>
<!-- Node10 -->
<g id="Node000010" class="node">
<title>Node10</title>
<g id="a_Node000010"><a xlink:href="structSpan_1_1Matrix4x4.html#a3544a5d56ec62c035d6e1aa0b20bba2e" target="_top" xlink:title="転置行列">
<polygon fill="white" stroke="#666666" points="671,-507 540,-507 540,-488 671,-488 671,-507"/>
<text text-anchor="middle" x="605.5" y="-495" font-family="Helvetica,sans-Serif" font-size="10.00">Span::Matrix4x4::Invert</text>
</a>
</g>
</g>
<!-- Node1&#45;&gt;Node10 -->
<g id="edge12_Node000001_Node000010" class="edge">
<title>Node1&#45;&gt;Node10</title>
<g id="a_edge12_Node000001_Node000010"><a xlink:title=" ">
<path fill="none" stroke="#63b8ff" d="M790.38,-258.97C777.7,-299.94 743.35,-396.17 685,-455.5 670.58,-470.16 649.96,-480.92 633.47,-487.88"/>
<polygon fill="#63b8ff" stroke="#63b8ff" points="793.74,-259.96 793.26,-249.37 787.03,-257.94 793.74,-259.96"/>
</a>
</g>
</g>
<!-- Node12 -->
<g id="Node000012" class="node">
<title>Node12</title>
<g id="a_Node000012"><a xlink:href="structSpan_1_1Matrix4x4.html#a89c2ef7e5d64bc5015019811d0c88dfa" target="_top" xlink:title="ビュー行列作成 (左手系: Z+が奥)">
<polygon fill="white" stroke="#666666" points="680,-231 531,-231 531,-212 680,-212 680,-231"/>
<text text-anchor="middle" x="605.5" y="-219" font-family="Helvetica,sans-Serif" font-size="10.00">Span::Matrix4x4::LookAtLH</text>
</a>
</g>
</g>
<!-- Node1&#45;&gt;Node12 -->
<g id="edge15_Node000001_Node000012" class="edge">
<title>Node1&#45;&gt;Node12</title>
<g id="a_edge15_Node000001_Node000012"><a xlink:title=" ">
<path fill="none" stroke="#63b8ff" d="M710.67,-231.39C700.44,-230.42 690.07,-229.44 680.03,-228.48"/>
<polygon fill="#63b8ff" stroke="#63b8ff" points="710.55,-234.9 720.83,-232.36 711.21,-227.93 710.55,-234.9"/>
</a>
</g>
</g>
<!-- Node13 -->
<g id="Node000013" class="node">
<title>Node13</title>
<g id="a_Node000013"><a xlink:href="structSpan_1_1Matrix4x4.html#a060b4f7603dd0c3b5b8c37d11b1d93e1" target="_top" xlink:title=" ">
<polygon fill="white" stroke="#666666" points="681.5,-194 529.5,-194 529.5,-175 681.5,-175 681.5,-194"/>
<text text-anchor="middle" x="605.5" y="-182" font-family="Helvetica,sans-Serif" font-size="10.00">Span::Matrix4x4::Matrix4x4</text>
</a>
</g>
</g>
<!-- Node1&#45;&gt;Node13 -->
<g id="edge16_Node000001_Node000013" class="edge">
<title>Node1&#45;&gt;Node13</title>
<g id="a_edge16_Node000001_Node000013"><a xlink:title=" ">
<path fill="none" stroke="#63b8ff" d="M758.66,-226.6C737.23,-219.4 709.74,-210.49 685,-203.5 673.26,-200.18 660.43,-196.92 648.62,-194.07"/>
<polygon fill="#63b8ff" stroke="#63b8ff" points="757.76,-229.99 768.35,-229.89 760,-223.36 757.76,-229.99"/>
</a>
</g>
</g>
<!-- Node14 -->
<g id="Node000014" class="node">
<title>Node14</title>
<g id="a_Node000014"><a xlink:href="structSpan_1_1Matrix4x4.html#a59c1e5b5dede7d7aa342e8938676e3cb" target="_top" xlink:title="行列同士の掛け算">
<polygon fill="white" stroke="#666666" points="680,-157 531,-157 531,-138 680,-138 680,-157"/>
<text text-anchor="middle" x="605.5" y="-145" font-family="Helvetica,sans-Serif" font-size="10.00">Span::Matrix4x4::operator*</text>
</a>
</g>
</g>
<!-- Node1&#45;&gt;Node14 -->
<g id="edge17_Node000001_Node000014" class="edge">
<title>Node1&#45;&gt;Node14</title>
<g id="a_edge17_Node000001_Node000014"><a xlink:title=" ">
<path fill="none" stroke="#63b8ff" d="M776.54,-223.67C755.26,-207.12 719.59,-181.52 685,-166.5 676.25,-162.7 666.62,-159.58 657.18,-157.05"/>
<polygon fill="#63b8ff" stroke="#63b8ff" points="774.45,-226.49 784.47,-229.94 778.8,-220.99 774.45,-226.49"/>
</a>
</g>
</g>
<!-- Node15 -->
<g id="Node000015" class="node">
<title>Node15</title>
<g id="a_Node000015"><a xlink:href="structSpan_1_1Matrix4x4.html#afe0101ccded226fc963d79f61111a6ed" target="_top" xlink:title="透視投影行列作成 (左手系)">
<polygon fill="white" stroke="#666666" points="685,-555.5 526,-555.5 526,-525.5 685,-525.5 685,-555.5"/>
<text text-anchor="start" x="534" y="-543.5" font-family="Helvetica,sans-Serif" font-size="10.00">Span::Matrix4x4::Perspective</text>
<text text-anchor="middle" x="605.5" y="-532.5" font-family="Helvetica,sans-Serif" font-size="10.00">FovLH</text>
</a>
</g>
</g>
<!-- Node1&#45;&gt;Node15 -->
<g id="edge18_Node000001_Node000015" class="edge">
<title>Node1&#45;&gt;Node15</title>
<g id="a_edge18_Node000001_Node000015"><a xlink:title=" ">
<path fill="none" stroke="#63b8ff" d="M793.9,-259.18C787.45,-309.59 763.39,-444.46 685,-516.5 681.22,-519.97 676.95,-522.94 672.41,-525.48"/>
<polygon fill="#63b8ff" stroke="#63b8ff" points="797.4,-259.35 795.1,-249.01 790.45,-258.53 797.4,-259.35"/>
</a>
</g>
</g>
<!-- Node16 -->
<g id="Node000016" class="node">
<title>Node16</title>
<g id="a_Node000016"><a xlink:href="structSpan_1_1Matrix4x4.html#a14547be89d9d77aba82522e5180c80df" target="_top" xlink:title="回転行列">
<polygon fill="white" stroke="#666666" points="677,-120 534,-120 534,-101 677,-101 677,-120"/>
<text text-anchor="middle" x="605.5" y="-108" font-family="Helvetica,sans-Serif" font-size="10.00">Span::Matrix4x4::Rotation</text>
</a>
</g>
</g>
<!-- Node1&#45;&gt;Node16 -->
<g id="edge21_Node000001_Node000016" class="edge">
<title>Node1&#45;&gt;Node16</title>
<g id="a_edge21_Node000001_Node000016"><a xlink:title=" ">
<path fill="none" stroke="#63b8ff" d="M783.15,-221.7C764.41,-197.09 727.2,-153.06 685,-129.5 678.02,-125.6 670.26,-122.5 662.41,-120.03"/>
<polygon fill="#63b8ff" stroke="#63b8ff" points="780.41,-223.88 789.19,-229.81 786.02,-219.7 780.41,-223.88"/>
</a>
</g>
</g>
<!-- Node21 -->
<g id="Node000021" class="node">
<title>Node21</title>
<g id="a_Node000021"><a xlink:href="structSpan_1_1Matrix4x4.html#ad408a695ef393eb21447241f44ff4d50" target="_top" xlink:title="拡大縮小行列">
<polygon fill="white" stroke="#666666" points="669.5,-83 541.5,-83 541.5,-64 669.5,-64 669.5,-83"/>
<text text-anchor="middle" x="605.5" y="-71" font-family="Helvetica,sans-Serif" font-size="10.00">Span::Matrix4x4::Scale</text>
</a>
</g>
</g>
<!-- Node1&#45;&gt;Node21 -->
<g id="edge26_Node000001_Node000021" class="edge">
<title>Node1&#45;&gt;Node21</title>
<g id="a_edge26_Node000001_Node000021"><a xlink:title=" ">
<path fill="none" stroke="#63b8ff" d="M787.23,-220.72C771.45,-189.09 735.18,-125.43 685,-92.5 679.14,-88.65 672.57,-85.58 665.8,-83.14"/>
<polygon fill="#63b8ff" stroke="#63b8ff" points="784.11,-222.31 791.62,-229.78 790.41,-219.26 784.11,-222.31"/>
</a>
</g>
</g>
<!-- Node22 -->
<g id="Node000022" class="node">
<title>Node22</title>
<g id="a_Node000022"><a xlink:href="structSpan_1_1Matrix4x4.html#ab7d064c16269a9201463b603c35793e6" target="_top" xlink:title="移動行列">
<polygon fill="white" stroke="#666666" points="683,-46 528,-46 528,-27 683,-27 683,-46"/>
<text text-anchor="middle" x="605.5" y="-34" font-family="Helvetica,sans-Serif" font-size="10.00">Span::Matrix4x4::Translation</text>
</a>
</g>
</g>
<!-- Node1&#45;&gt;Node22 -->
<g id="edge27_Node000001_Node000022" class="edge">
<title>Node1&#45;&gt;Node22</title>
<g id="a_edge27_Node000001_Node000022"><a xlink:title=" ">
<path fill="none" stroke="#63b8ff" d="M789.86,-219.8C776.97,-181.78 743.32,-98.27 685,-55.5 679.69,-51.6 673.68,-48.5 667.41,-46.02"/>
<polygon fill="#63b8ff" stroke="#63b8ff" points="786.65,-221.23 793.08,-229.65 793.3,-219.05 786.65,-221.23"/>
</a>
</g>
</g>
<!-- Node23 -->
<g id="Node000023" class="node">
<title>Node23</title>
<g id="a_Node000023"><a xlink:href="structSpan_1_1Matrix4x4.html#aa675a51f0f67753f22127641ca6da7d6" target="_top" xlink:title="転置行列">
<polygon fill="white" stroke="#666666" points="485.5,-469 334.5,-469 334.5,-450 485.5,-450 485.5,-469"/>
<text text-anchor="middle" x="410" y="-457" font-family="Helvetica,sans-Serif" font-size="10.00">Span::Matrix4x4::Transpose</text>
</a>
</g>
</g>
<!-- Node1&#45;&gt;Node23 -->
<g id="edge28_Node000001_Node000023" class="edge">
<title>Node1&#45;&gt;Node23</title>
<g id="a_edge28_Node000001_Node000023"><a xlink:title=" ">
<path fill="none" stroke="#63b8ff" d="M786.44,-258.31C769.93,-288.92 733.16,-349.39 685,-382.5 625.35,-423.51 544.24,-442.8 485.76,-451.8"/>
<polygon fill="#63b8ff" stroke="#63b8ff" points="789.69,-259.64 791.25,-249.16 783.5,-256.38 789.69,-259.64"/>
</a>
</g>
</g>
<!-- Node24 -->
<g id="Node000024" class="node">
<title>Node24</title>
<g id="a_Node000024"><a xlink:href="structSpan_1_1Matrix4x4.html#a26c91de102eab3c6d4d45b5f7bf107fc" target="_top" xlink:title="TRS行列 (Translation * Rotation * Scale) を作成">
<polygon fill="white" stroke="#666666" points="666,-268 545,-268 545,-249 666,-249 666,-268"/>
<text text-anchor="middle" x="605.5" y="-256" font-family="Helvetica,sans-Serif" font-size="10.00">Span::Matrix4x4::TRS</text>
</a>
</g>
</g>
<!-- Node1&#45;&gt;Node24 -->
<g id="edge30_Node000001_Node000024" class="edge">
<title>Node1&#45;&gt;Node24</title>
<g id="a_edge30_Node000001_Node000024"><a xlink:title=" ">
<path fill="none" stroke="#63b8ff" d="M710.51,-248.07C695.51,-249.58 680.2,-251.11 666.09,-252.52"/>
<polygon fill="#63b8ff" stroke="#63b8ff" points="711.23,-251.52 720.83,-247.04 710.53,-244.55 711.23,-251.52"/>
</a>
</g>
</g>
<!-- Node3 -->
<g id="Node000003" class="node">
<title>Node3</title>
<g id="a_Node000003"><a xlink:href="classSpan_1_1SceneViewPanel.html#ad83a4a55f083c75371d0873322808796" target="_top" xlink:title="選択中のオブジェクトに対してマニピュレータ (矢印など) を描画します。">
<polygon fill="white" stroke="#666666" points="291,-455.5 165,-455.5 165,-425.5 291,-425.5 291,-455.5"/>
<text text-anchor="start" x="173" y="-443.5" font-family="Helvetica,sans-Serif" font-size="10.00">Span::SceneViewPanel</text>
<text text-anchor="middle" x="228" y="-432.5" font-family="Helvetica,sans-Serif" font-size="10.00">::DrawGizmo</text>
</a>
</g>
</g>
<!-- Node2&#45;&gt;Node3 -->
<g id="edge2_Node000002_Node000003" class="edge">
<title>Node2&#45;&gt;Node3</title>
<g id="a_edge2_Node000002_Node000003"><a xlink:title=" ">
<path fill="none" stroke="#63b8ff" d="M319.75,-431.42C310.1,-432.39 300.44,-433.36 291.21,-434.28"/>
<polygon fill="#63b8ff" stroke="#63b8ff" points="320.19,-434.9 329.79,-430.42 319.49,-427.93 320.19,-434.9"/>
</a>
</g>
</g>
<!-- Node4 -->
<g id="Node000004" class="node">
<title>Node4</title>
<g id="a_Node000004"><a xlink:href="classSpan_1_1SceneViewPanel.html#aab2935de58bd68267a680cabd3656c9f" target="_top" xlink:title="毎フレームの描画処理。 画像の表示、ツールバーのオーバーレイ、ギズモの描画を行います。">
<polygon fill="white" stroke="#666666" points="126,-455.5 0,-455.5 0,-425.5 126,-425.5 126,-455.5"/>
<text text-anchor="start" x="8" y="-443.5" font-family="Helvetica,sans-Serif" font-size="10.00">Span::SceneViewPanel</text>
<text text-anchor="middle" x="63" y="-432.5" font-family="Helvetica,sans-Serif" font-size="10.00">::OnImGuiRender</text>
</a>
</g>
</g>
<!-- Node3&#45;&gt;Node4 -->
<g id="edge3_Node000003_Node000004" class="edge">
<title>Node3&#45;&gt;Node4</title>
<g id="a_edge3_Node000003_Node000004"><a xlink:title=" ">
<path fill="none" stroke="#63b8ff" d="M154.69,-440.5C145.18,-440.5 135.5,-440.5 126.19,-440.5"/>
<polygon fill="#63b8ff" stroke="#63b8ff" points="154.91,-444 164.91,-440.5 154.91,-437 154.91,-444"/>
</a>
</g>
</g>
<!-- Node5&#45;&gt;Node2 -->
<g id="edge8_Node000005_Node000002" class="edge">
<title>Node5&#45;&gt;Node2</title>
<g id="a_edge8_Node000005_Node000002"><a xlink:title=" ">
<path fill="none" stroke="#63b8ff" d="M562.36,-332.8C549.85,-338 536.65,-344.84 526,-353.5 504.47,-371 513.05,-389.06 490,-404.5 484.86,-407.94 479.15,-410.74 473.22,-413"/>
<polygon fill="#63b8ff" stroke="#63b8ff" points="563.7,-336.03 571.74,-329.13 561.15,-329.51 563.7,-336.03"/>
</a>
</g>
</g>
<!-- Node5&#45;&gt;Node3 -->
<g id="edge9_Node000005_Node000003" class="edge">
<title>Node5&#45;&gt;Node3</title>
<g id="a_edge9_Node000005_Node000003"><a xlink:title=" ">
<path fill="none" stroke="#63b8ff" d="M541.03,-308.73C483.23,-301.93 396.95,-299.47 330,-330.5 286.01,-350.89 252.4,-400.19 237.47,-425.28"/>
<polygon fill="#63b8ff" stroke="#63b8ff" points="540.76,-312.22 551.12,-310 541.63,-305.28 540.76,-312.22"/>
</a>
</g>
</g>
<!-- Node6 -->
<g id="Node000006" class="node">
<title>Node6</title>
<g id="a_Node000006"><a xlink:href="classSpan_1_1TransformSystem.html#aa2cf376ecd2d44d89515eca90aea04e1" target="_top" xlink:title="再帰的に親のワールド行列を取得し、自信のローカル行列と合成します。">
<polygon fill="white" stroke="#666666" points="476,-264.5 344,-264.5 344,-234.5 476,-234.5 476,-264.5"/>
<text text-anchor="start" x="352" y="-252.5" font-family="Helvetica,sans-Serif" font-size="10.00">Span::TransformSystem</text>
<text text-anchor="middle" x="410" y="-241.5" font-family="Helvetica,sans-Serif" font-size="10.00">::ComputeWorldMatrix</text>
</a>
</g>
</g>
<!-- Node5&#45;&gt;Node6 -->
<g id="edge5_Node000005_Node000006" class="edge">
<title>Node5&#45;&gt;Node6</title>
<g id="a_edge5_Node000005_Node000006"><a xlink:title=" ">
<path fill="none" stroke="#63b8ff" d="M568.35,-306.42C535.55,-294.56 487.19,-277.06 452.76,-264.61"/>
<polygon fill="#63b8ff" stroke="#63b8ff" points="567.41,-309.8 578,-309.91 569.79,-303.22 567.41,-309.8"/>
</a>
</g>
</g>
<!-- Node8 -->
<g id="Node000008" class="node">
<title>Node8</title>
<g id="a_Node000008"><a xlink:href="structSpan_1_1Transform.html#a22e91c428e57737b16a5e9281a28a610" target="_top" xlink:title="指定したターゲット座標を向くように回転を設定します。">
<polygon fill="white" stroke="#666666" points="477.5,-395 342.5,-395 342.5,-376 477.5,-376 477.5,-395"/>
<text text-anchor="middle" x="410" y="-383" font-family="Helvetica,sans-Serif" font-size="10.00">Span::Transform::LookAt</text>
</a>
</g>
</g>
<!-- Node5&#45;&gt;Node8 -->
<g id="edge10_Node000005_Node000008" class="edge">
<title>Node5&#45;&gt;Node8</title>
<g id="a_edge10_Node000005_Node000008"><a xlink:title=" ">
<path fill="none" stroke="#63b8ff" d="M572.87,-333.09C541.94,-346.33 498.31,-364.83 490,-367.5 480.09,-370.68 469.31,-373.53 458.98,-375.96"/>
<polygon fill="#63b8ff" stroke="#63b8ff" points="574.59,-336.16 582.4,-329.01 571.83,-329.73 574.59,-336.16"/>
</a>
</g>
</g>
<!-- Node9 -->
<g id="Node000009" class="node">
<title>Node9</title>
<g id="a_Node000009"><a xlink:href="classSpan_1_1Renderer.html#ad9b8a2800b6e801528fc3507162ef123" target="_top" xlink:title=" ">
<polygon fill="white" stroke="#666666" points="480.5,-358 339.5,-358 339.5,-339 480.5,-339 480.5,-358"/>
<text text-anchor="middle" x="410" y="-346" font-family="Helvetica,sans-Serif" font-size="10.00">Span::Renderer::Renderer</text>
</a>
</g>
</g>
<!-- Node5&#45;&gt;Node9 -->
<g id="edge11_Node000005_Node000009" class="edge">
<title>Node5&#45;&gt;Node9</title>
<g id="a_edge11_Node000005_Node000009"><a xlink:title=" ">
<path fill="none" stroke="#63b8ff" d="M530.75,-330.55C512.27,-333.32 492.61,-336.27 474.67,-338.96"/>
<polygon fill="#63b8ff" stroke="#63b8ff" points="531.5,-333.98 540.87,-329.04 530.46,-327.06 531.5,-333.98"/>
</a>
</g>
</g>
<!-- Node6&#45;&gt;Node6 -->
<g id="edge6_Node000006_Node000006" class="edge">
<title>Node6&#45;&gt;Node6</title>
<g id="a_edge6_Node000006_Node000006"><a xlink:title=" ">
<path fill="none" stroke="#63b8ff" d="M441.86,-275.1C437.5,-279.47 426.88,-282.5 410,-282.5 381.56,-282.5 370.9,-273.91 378.01,-264.78"/>
<polygon fill="#63b8ff" stroke="#63b8ff" points="445.36,-274.82 441.99,-264.78 438.36,-274.73 445.36,-274.82"/>
</a>
</g>
</g>
<!-- Node7 -->
<g id="Node000007" class="node">
<title>Node7</title>
<g id="a_Node000007"><a xlink:href="classSpan_1_1TransformSystem.html#abeba491503870f332716f4ca75444ca4" target="_top" xlink:title="毎フレーム呼び出されます。ここにゲームロジックを記述します。">
<polygon fill="white" stroke="#666666" points="294,-264.5 162,-264.5 162,-234.5 294,-234.5 294,-264.5"/>
<text text-anchor="start" x="170" y="-252.5" font-family="Helvetica,sans-Serif" font-size="10.00">Span::TransformSystem</text>
<text text-anchor="middle" x="228" y="-241.5" font-family="Helvetica,sans-Serif" font-size="10.00">::OnUpdate</text>
</a>
</g>
</g>
<!-- Node6&#45;&gt;Node7 -->
<g id="edge7_Node000006_Node000007" class="edge">
<title>Node6&#45;&gt;Node7</title>
<g id="a_edge7_Node000006_Node000007"><a xlink:title=" ">
<path fill="none" stroke="#63b8ff" d="M333.38,-249.5C320.29,-249.5 306.79,-249.5 294.02,-249.5"/>
<polygon fill="#63b8ff" stroke="#63b8ff" points="333.76,-253 343.76,-249.5 333.76,-246 333.76,-253"/>
</a>
</g>
</g>
<!-- Node10&#45;&gt;Node3 -->
<g id="edge13_Node000010_Node000003" class="edge">
<title>Node10&#45;&gt;Node3</title>
<g id="a_edge13_Node000010_Node000003"><a xlink:title=" ">
<path fill="none" stroke="#63b8ff" d="M529.84,-498.15C474.17,-497.24 396.57,-493 330,-478.5 306.57,-473.4 281.32,-463.9 261.93,-455.67"/>
<polygon fill="#63b8ff" stroke="#63b8ff" points="529.93,-501.66 539.97,-498.29 530.02,-494.66 529.93,-501.66"/>
</a>
</g>
</g>
<!-- Node11 -->
<g id="Node000011" class="node">
<title>Node11</title>
<g id="a_Node000011"><a xlink:href="classSpan_1_1CameraSystem.html#a7f4bf0245dedd7a6245ef352246f7391" target="_top" xlink:title="毎フレーム呼び出されます。ここにゲームロジックを記述します。">
<polygon fill="white" stroke="#666666" points="471,-555.5 349,-555.5 349,-525.5 471,-525.5 471,-555.5"/>
<text text-anchor="start" x="357" y="-543.5" font-family="Helvetica,sans-Serif" font-size="10.00">Span::CameraSystem</text>
<text text-anchor="middle" x="410" y="-532.5" font-family="Helvetica,sans-Serif" font-size="10.00">::OnUpdate</text>
</a>
</g>
</g>
<!-- Node10&#45;&gt;Node11 -->
<g id="edge14_Node000010_Node000011" class="edge">
<title>Node10&#45;&gt;Node11</title>
<g id="a_edge14_Node000010_Node000011"><a xlink:title=" ">
<path fill="none" stroke="#63b8ff" d="M551.56,-509.26C526.65,-514.8 496.82,-521.43 471.07,-527.15"/>
<polygon fill="#63b8ff" stroke="#63b8ff" points="552.55,-512.63 561.56,-507.04 551.03,-505.8 552.55,-512.63"/>
</a>
</g>
</g>
<!-- Node15&#45;&gt;Node3 -->
<g id="edge19_Node000015_Node000003" class="edge">
<title>Node15&#45;&gt;Node3</title>
<g id="a_edge19_Node000015_Node000003"><a xlink:title=" ">
<path fill="none" stroke="#63b8ff" d="M556.58,-558.84C499.64,-577.54 403.16,-599.27 330,-564.5 281.85,-541.62 249.11,-483.31 235.75,-455.58"/>
<polygon fill="#63b8ff" stroke="#63b8ff" points="558.04,-562.04 566.39,-555.52 555.8,-555.41 558.04,-562.04"/>
</a>
</g>
</g>
<!-- Node15&#45;&gt;Node11 -->
<g id="edge20_Node000015_Node000011" class="edge">
<title>Node15&#45;&gt;Node11</title>
<g id="a_edge20_Node000015_Node000011"><a xlink:title=" ">
<path fill="none" stroke="#63b8ff" d="M515.48,-540.5C500.5,-540.5 485.26,-540.5 471.23,-540.5"/>
<polygon fill="#63b8ff" stroke="#63b8ff" points="515.8,-544 525.8,-540.5 515.8,-537 515.8,-544"/>
</a>
</g>
</g>
<!-- Node17 -->
<g id="Node000017" class="node">
<title>Node17</title>
<g id="a_Node000017"><a xlink:href="structSpan_1_1Transform.html#a132f40241af247849e79067db6ad62b4" target="_top" xlink:title="前方ベクトル (Local Forward / Z+) を取得します。">
<polygon fill="white" stroke="#666666" points="489,-93 331,-93 331,-74 489,-74 489,-93"/>
<text text-anchor="middle" x="410" y="-81" font-family="Helvetica,sans-Serif" font-size="10.00">Span::Transform::GetForward</text>
</a>
</g>
</g>
<!-- Node16&#45;&gt;Node17 -->
<g id="edge22_Node000016_Node000017" class="edge">
<title>Node16&#45;&gt;Node17</title>
<g id="a_edge22_Node000016_Node000017"><a xlink:title=" ">
<path fill="none" stroke="#63b8ff" d="M526.18,-99.57C510.63,-97.4 494.43,-95.14 479.26,-93.02"/>
<polygon fill="#63b8ff" stroke="#63b8ff" points="525.89,-103.07 536.28,-100.98 526.86,-96.13 525.89,-103.07"/>
</a>
</g>
</g>
<!-- Node18 -->
<g id="Node000018" class="node">
<title>Node18</title>
<g id="a_Node000018"><a xlink:href="structSpan_1_1Transform.html#a201045237f4cff825ff023848c5967fa" target="_top" xlink:title="右方向ベクトル (Local Right / X+) を取得します。">
<polygon fill="white" stroke="#666666" points="482,-56 338,-56 338,-37 482,-37 482,-56"/>
<text text-anchor="middle" x="410" y="-44" font-family="Helvetica,sans-Serif" font-size="10.00">Span::Transform::GetRight</text>
</a>
</g>
</g>
<!-- Node16&#45;&gt;Node18 -->
<g id="edge23_Node000016_Node000018" class="edge">
<title>Node16&#45;&gt;Node18</title>
<g id="a_edge23_Node000016_Node000018"><a xlink:title=" ">
<path fill="none" stroke="#63b8ff" d="M539.69,-97.94C534.98,-96.33 530.37,-94.53 526,-92.5 507.86,-84.08 508.1,-74.01 490,-65.5 481.83,-61.66 472.81,-58.55 463.87,-56.05"/>
<polygon fill="#63b8ff" stroke="#63b8ff" points="538.88,-101.35 549.46,-100.98 540.95,-94.67 538.88,-101.35"/>
</a>
</g>
</g>
<!-- Node19 -->
<g id="Node000019" class="node">
<title>Node19</title>
<g id="a_Node000019"><a xlink:href="structSpan_1_1Transform.html#a4251fb155ba185e11247bd5b8044a003" target="_top" xlink:title="上方向ベクトル (Local Up / Y+) を取得します。">
<polygon fill="white" stroke="#666666" points="476,-19 344,-19 344,0 476,0 476,-19"/>
<text text-anchor="middle" x="410" y="-7" font-family="Helvetica,sans-Serif" font-size="10.00">Span::Transform::GetUp</text>
</a>
</g>
</g>
<!-- Node16&#45;&gt;Node19 -->
<g id="edge24_Node000016_Node000019" class="edge">
<title>Node16&#45;&gt;Node19</title>
<g id="a_edge24_Node000016_Node000019"><a xlink:title=" ">
<path fill="none" stroke="#63b8ff" d="M531.69,-96.3C529.72,-95.13 527.82,-93.87 526,-92.5 499.61,-72.64 516.4,-47.34 490,-27.5 485.5,-24.12 480.48,-21.36 475.21,-19.1"/>
<polygon fill="#63b8ff" stroke="#63b8ff" points="530.19,-99.47 540.69,-100.86 533.35,-93.22 530.19,-99.47"/>
</a>
</g>
</g>
<!-- Node20 -->
<g id="Node000020" class="node">
<title>Node20</title>
<g id="a_Node000020"><a xlink:href="structSpan_1_1Quaternion.html#acfa147daa060ee83c95998431ea60e92" target="_top" xlink:title="オイラー角 (Pitch, Yaw, Roll) に変換して返します">
<polygon fill="white" stroke="#666666" points="481,-130 339,-130 339,-111 481,-111 481,-130"/>
<text text-anchor="middle" x="410" y="-118" font-family="Helvetica,sans-Serif" font-size="10.00">Span::Quaternion::ToEuler</text>
</a>
</g>
</g>
<!-- Node16&#45;&gt;Node20 -->
<g id="edge25_Node000016_Node000020" class="edge">
<title>Node16&#45;&gt;Node20</title>
<g id="a_edge25_Node000016_Node000020"><a xlink:title=" ">
<path fill="none" stroke="#63b8ff" d="M523.65,-114.68C509.53,-115.41 494.96,-116.16 481.16,-116.87"/>
<polygon fill="#63b8ff" stroke="#63b8ff" points="524.01,-118.16 533.82,-114.15 523.65,-111.17 524.01,-118.16"/>
</a>
</g>
</g>
<!-- Node23&#45;&gt;Node3 -->
<g id="edge29_Node000023_Node000003" class="edge">
<title>Node23&#45;&gt;Node3</title>
<g id="a_edge29_Node000023_Node000003"><a xlink:title=" ">
<path fill="none" stroke="#63b8ff" d="M324.28,-450.56C313.12,-449.38 301.85,-448.19 291.15,-447.06"/>
<polygon fill="#63b8ff" stroke="#63b8ff" points="324.18,-454.07 334.49,-451.63 324.91,-447.1 324.18,-454.07"/>
</a>
</g>
</g>
<!-- Node24&#45;&gt;Node3 -->
<g id="edge32_Node000024_Node000003" class="edge">
<title>Node24&#45;&gt;Node3</title>
<g id="a_edge32_Node000024_Node000003"><a xlink:title=" ">
<path fill="none" stroke="#63b8ff" d="M547.12,-246.53C539.96,-244.69 532.77,-242.67 526,-240.5 509.49,-235.21 507,-228.9 490,-225.5 420.27,-211.55 390.03,-187.38 330,-225.5 293.19,-248.88 248.26,-380.38 233.76,-425.39"/>
<polygon fill="#63b8ff" stroke="#63b8ff" points="546.28,-249.93 556.83,-248.93 547.96,-243.13 546.28,-249.93"/>
</a>
</g>
</g>
<!-- Node24&#45;&gt;Node6 -->
<g id="edge31_Node000024_Node000006" class="edge">
<title>Node24&#45;&gt;Node6</title>
<g id="a_edge31_Node000024_Node000006"><a xlink:title=" ">
<path fill="none" stroke="#63b8ff" d="M534.73,-255.25C515.63,-254.37 495,-253.41 476.16,-252.53"/>
<polygon fill="#63b8ff" stroke="#63b8ff" points="534.71,-258.76 544.86,-255.73 535.04,-251.77 534.71,-258.76"/>
</a>
</g>
</g>
<!-- Node25 -->
<g id="Node000025" class="node">
<title>Node25</title>
<g id="a_Node000025"><a xlink:href="structSpan_1_1Transform.html#a8c473eec3b8f9c655db1804b88947e93" target="_top" xlink:title="ローカル変換行列 (T * R * S) を計算して取得します。">
<polygon fill="white" stroke="#666666" points="482,-178.5 338,-178.5 338,-148.5 482,-148.5 482,-178.5"/>
<text text-anchor="start" x="346" y="-166.5" font-family="Helvetica,sans-Serif" font-size="10.00">Span::Transform::GetLocal</text>
<text text-anchor="middle" x="410" y="-155.5" font-family="Helvetica,sans-Serif" font-size="10.00">Matrix</text>
</a>
</g>
</g>
<!-- Node24&#45;&gt;Node25 -->
<g id="edge33_Node000024_Node000025" class="edge">
<title>Node24&#45;&gt;Node25</title>
<g id="a_edge33_Node000024_Node000025"><a xlink:title=" ">
<path fill="none" stroke="#63b8ff" d="M535.36,-245.68C532.1,-244.15 528.96,-242.43 526,-240.5 503.64,-225.97 511.4,-208.42 490,-192.5 482.5,-186.92 473.81,-182.32 465,-178.55"/>
<polygon fill="#63b8ff" stroke="#63b8ff" points="534.21,-249 544.79,-249.55 536.87,-242.52 534.21,-249"/>
</a>
</g>
</g>
</g>
</svg>

<g id="navigator" transform="translate(0 0)" fill="#404254">
  <rect fill="#f2f5e9" fill-opacity="0.5" stroke="#606060" stroke-width=".5" x="0" y="0" width="60" height="60"/>
  <use id="zoomplus" xlink:href="#zoomPlus" x="17" y="9" onmousedown="handleZoom(evt,'in')"/>
  <use id="zoomminus" xlink:href="#zoomMin" x="42" y="9" onmousedown="handleZoom(evt,'out')"/>
  <use id="reset" xlink:href="#resetDef" x="30" y="36" onmousedown="handleReset()"/>
   <use id="arrowup" xlink:href="#arrowUp" x="0" y="0" onmousedown="handlePan(0,-1)"/>
  <use id="arrowright" xlink:href="#arrowRight" x="0" y="0" onmousedown="handlePan(1,0)"/>
  <use id="arrowdown" xlink:href="#arrowDown" x="0" y="0" onmousedown="handlePan(0,1)"/>
  <use id="arrowleft" xlink:href="#arrowLeft" x="0" y="0" onmousedown="handlePan(-1,0)"/>
</g>
<svg viewBox="0 0 15 15" width="100%" height="30px" preserveAspectRatio="xMaxYMin meet">
 <g id="arrow_out" transform="scale(0.3 0.3)">
  <a xlink:href="structSpan_1_1Matrix4x4_a431bf3af613c1029e6de25d64cfda6b7_icgraph_org.svg" target="_base">
   <rect id="button" ry="5" rx="5" y="6" x="6" height="38" width="38"
        fill="#f2f5e9" fill-opacity="0.5" stroke="#606060" stroke-width="1.0"/>
   <path id="arrow"
     d="M 11.500037,31.436501 C 11.940474,20.09759 22.043105,11.32322 32.158766,21.979434 L 37.068811,17.246167 C 37.068811,17.246167 37.088388,32 37.088388,32 L 22.160133,31.978069 C 22.160133,31.978069 26.997745,27.140456 26.997745,27.140456 C 18.528582,18.264221 13.291696,25.230495 11.500037,31.436501 z"
     style="fill:#404040;"/>
  </a>
 </g>
</svg>

<style type='text/css'>
<![CDATA[
[data-mouse-over-selected='false'] { opacity: 0.7; }
[data-mouse-over-selected='true']  { opacity: 1.0; }
]]>
</style>
<script type="application/ecmascript"><![CDATA[
document.addEventListener('DOMContentLoaded', (event) => {
  highlightEdges();
  highlightAdjacentNodes();
});
]]></script>
</svg>
