<?xml version="1.0" encoding="UTF-8" standalone="no"?>
<!DOCTYPE svg PUBLIC "-//W3C//DTD SVG 1.1//EN"
 "http://www.w3.org/Graphics/SVG/1.1/DTD/svg11.dtd">
<!-- Generated by graphviz version 2.43.0 (0)
 -->
<!-- Title: Span::Matrix4x4::ToXM Pages: 1 -->
<!--zoomable 240 -->

<svg id="main" version="1.1" xmlns="http://www.w3.org/2000/svg" xmlns:xlink="http://www.w3.org/1999/xlink" xml:space="preserve" onload="init(evt)">

<style type="text/css"><![CDATA[
.node, .edge {opacity: 0.7;}
.node.selected, .edge.selected {opacity: 1;}
.edge:hover path { stroke: red; }
.edge:hover polygon { stroke: red; fill: red; }
]]></style>

<defs>
  <circle id="rim" cx="0" cy="0" r="7"/>
  <circle id="rim2" cx="0" cy="0" r="3.5"/>
  <g id="zoomPlus">
    <use xlink:href="#rim" fill="#404040"><set attributeName="fill" to="#808080" begin="zoomplus.mouseover" end="zoomplus.mouseout"/></use>
    <path d="M-4,0h8M0,-4v8" fill="none" stroke="white" stroke-width="1.5" pointer-events="none"/>
  </g>
  <g id="zoomMin">
    <use xlink:href="#rim" fill="#404040"><set attributeName="fill" to="#808080" begin="zoomminus.mouseover" end="zoomminus.mouseout"/></use>
    <path d="M-4,0h8" fill="none" stroke="white" stroke-width="1.5" pointer-events="none"/>
  </g>
  <g id="arrowUp" transform="translate(30 24)">
    <use xlink:href="#rim"/>
    <path pointer-events="none" fill="none" stroke="white" stroke-width="1.5" d="M0,-3.0v7 M-2.5,-0.5L0,-3.0L2.5,-0.5"/>
  </g>
  <g id="arrowRight" transform="rotate(90) translate(36 -43)">
    <use xlink:href="#rim"/>
    <path pointer-events="none" fill="none" stroke="white" stroke-width="1.5" d="M0,-3.0v7 M-2.5,-0.5L0,-3.0L2.5,-0.5"/>
  </g>
  <g id="arrowDown" transform="rotate(180) translate(-30 -48)">
    <use xlink:href="#rim"/>
    <path pointer-events="none" fill="none" stroke="white" stroke-width="1.5" d="M0,-3.0v7 M-2.5,-0.5L0,-3.0L2.5,-0.5"/>
  </g>
  <g id="arrowLeft" transform="rotate(270) translate(-36 17)">
    <use xlink:href="#rim"/>
    <path pointer-events="none" fill="none" stroke="white" stroke-width="1.5" d="M0,-3.0v7 M-2.5,-0.5L0,-3.0L2.5,-0.5"/>
  </g>
  <g id="resetDef">
    <use xlink:href="#rim2" fill="#404040"><set attributeName="fill" to="#808080" begin="reset.mouseover" end="reset.mouseout"/></use>
  </g>
</defs>
<script type="application/ecmascript">
var viewWidth = 865;
var viewHeight = 240;
var sectionId = 'dynsection-19';
</script>
<script type="application/ecmascript" xlink:href="svg.min.js"/>
<svg id="graph" class="graph">
<g id="viewport">
<title>Span::Matrix4x4::ToXM</title>
<!-- Node1 -->
<g id="Node000001" class="node">
<title>Node1</title>
<g id="a_Node000001"><a xlink:title=" ">
<polygon fill="#999999" stroke="#666666" points="857,-130.5 729,-130.5 729,-111.5 857,-111.5 857,-130.5"/>
<text text-anchor="middle" x="793" y="-118.5" font-family="Helvetica,sans-Serif" font-size="10.00">Span::Matrix4x4::ToXM</text>
</a>
</g>
</g>
<!-- Node2 -->
<g id="Node000002" class="node">
<title>Node2</title>
<g id="a_Node000002"><a xlink:href="classSpan_1_1SceneViewPanel.html#ad83a4a55f083c75371d0873322808796" target="_top" xlink:title="選択中のオブジェクトに対してマニピュレータ (矢印など) を描画します。">
<polygon fill="white" stroke="#666666" points="288,-148 162,-148 162,-118 288,-118 288,-148"/>
<text text-anchor="start" x="170" y="-136" font-family="Helvetica,sans-Serif" font-size="10.00">Span::SceneViewPanel</text>
<text text-anchor="middle" x="225" y="-125" font-family="Helvetica,sans-Serif" font-size="10.00">::DrawGizmo</text>
</a>
</g>
</g>
<!-- Node1&#45;&gt;Node2 -->
<g id="edge1_Node000001_Node000002" class="edge">
<title>Node1&#45;&gt;Node2</title>
<g id="a_edge1_Node000001_Node000002"><a xlink:title=" ">
<path fill="none" stroke="#63b8ff" d="M774.04,-137.3C755.33,-153.18 724.4,-176.42 693,-187 537.49,-239.41 480.78,-248.47 324,-200 291.31,-189.89 259.81,-164.72 241.7,-148.27"/>
<polygon fill="#63b8ff" stroke="#63b8ff" points="776.49,-139.81 781.74,-130.6 771.9,-134.53 776.49,-139.81"/>
</a>
</g>
</g>
<!-- Node4 -->
<g id="Node000004" class="node">
<title>Node4</title>
<g id="a_Node000004"><a xlink:href="classSpan_1_1Renderer.html#ade1cd95fe5d2e6aa78493393ce39c767" target="_top" xlink:title="メッシュ描画コマンドの発行。">
<polygon fill="white" stroke="#666666" points="681,-177.5 532,-177.5 532,-158.5 681,-158.5 681,-177.5"/>
<text text-anchor="middle" x="606.5" y="-165.5" font-family="Helvetica,sans-Serif" font-size="10.00">Span::Renderer::DrawMesh</text>
</a>
</g>
</g>
<!-- Node1&#45;&gt;Node4 -->
<g id="edge3_Node000001_Node000004" class="edge">
<title>Node1&#45;&gt;Node4</title>
<g id="a_edge3_Node000001_Node000004"><a xlink:title=" ">
<path fill="none" stroke="#63b8ff" d="M744.95,-132.99C713.97,-140.88 673.95,-151.07 645.1,-158.42"/>
<polygon fill="#63b8ff" stroke="#63b8ff" points="745.84,-136.37 754.66,-130.51 744.11,-129.59 745.84,-136.37"/>
</a>
</g>
</g>
<!-- Node6 -->
<g id="Node000006" class="node">
<title>Node6</title>
<g id="a_Node000006"><a xlink:href="structSpan_1_1Quaternion.html#af2a0a1def4d845d030a45c5a26d32a80" target="_top" xlink:title="回転行列から変換 (実装は後述)">
<polygon fill="white" stroke="#666666" points="693,-136 520,-136 520,-106 693,-106 693,-136"/>
<text text-anchor="start" x="528" y="-124" font-family="Helvetica,sans-Serif" font-size="10.00">Span::Quaternion::FromRotation</text>
<text text-anchor="middle" x="606.5" y="-113" font-family="Helvetica,sans-Serif" font-size="10.00">Matrix</text>
</a>
</g>
</g>
<!-- Node1&#45;&gt;Node6 -->
<g id="edge5_Node000001_Node000006" class="edge">
<title>Node1&#45;&gt;Node6</title>
<g id="a_edge5_Node000001_Node000006"><a xlink:title=" ">
<path fill="none" stroke="#63b8ff" d="M718.67,-121C710.28,-121 701.68,-121 693.16,-121"/>
<polygon fill="#63b8ff" stroke="#63b8ff" points="718.76,-124.5 728.76,-121 718.76,-117.5 718.76,-124.5"/>
</a>
</g>
</g>
<!-- Node9 -->
<g id="Node000009" class="node">
<title>Node9</title>
<g id="a_Node000009"><a xlink:href="structSpan_1_1Matrix4x4.html#a3544a5d56ec62c035d6e1aa0b20bba2e" target="_top" xlink:title="転置行列">
<polygon fill="white" stroke="#666666" points="672,-71.5 541,-71.5 541,-52.5 672,-52.5 672,-71.5"/>
<text text-anchor="middle" x="606.5" y="-59.5" font-family="Helvetica,sans-Serif" font-size="10.00">Span::Matrix4x4::Invert</text>
</a>
</g>
</g>
<!-- Node1&#45;&gt;Node9 -->
<g id="edge9_Node000001_Node000009" class="edge">
<title>Node1&#45;&gt;Node9</title>
<g id="a_edge9_Node000001_Node000009"><a xlink:title=" ">
<path fill="none" stroke="#63b8ff" d="M752.18,-108.27C717.64,-97.22 668.43,-81.49 637.24,-71.51"/>
<polygon fill="#63b8ff" stroke="#63b8ff" points="751.36,-111.68 761.95,-111.39 753.49,-105.01 751.36,-111.68"/>
</a>
</g>
</g>
<!-- Node11 -->
<g id="Node000011" class="node">
<title>Node11</title>
<g id="a_Node000011"><a xlink:href="structSpan_1_1Matrix4x4.html#a59c1e5b5dede7d7aa342e8938676e3cb" target="_top" xlink:title="行列同士の掛け算">
<polygon fill="white" stroke="#666666" points="681,-34.5 532,-34.5 532,-15.5 681,-15.5 681,-34.5"/>
<text text-anchor="middle" x="606.5" y="-22.5" font-family="Helvetica,sans-Serif" font-size="10.00">Span::Matrix4x4::operator*</text>
</a>
</g>
</g>
<!-- Node1&#45;&gt;Node11 -->
<g id="edge12_Node000001_Node000011" class="edge">
<title>Node1&#45;&gt;Node11</title>
<g id="a_edge12_Node000001_Node000011"><a xlink:title=" ">
<path fill="none" stroke="#63b8ff" d="M775.64,-104.12C757.24,-86.15 725.63,-58.26 693,-43 685.72,-39.59 677.79,-36.83 669.79,-34.58"/>
<polygon fill="#63b8ff" stroke="#63b8ff" points="773.35,-106.78 782.9,-111.37 778.3,-101.83 773.35,-106.78"/>
</a>
</g>
</g>
<!-- Node3 -->
<g id="Node000003" class="node">
<title>Node3</title>
<g id="a_Node000003"><a xlink:href="classSpan_1_1SceneViewPanel.html#aab2935de58bd68267a680cabd3656c9f" target="_top" xlink:title="毎フレームの描画処理。 画像の表示、ツールバーのオーバーレイ、ギズモの描画を行います。">
<polygon fill="white" stroke="#666666" points="126,-148 0,-148 0,-118 126,-118 126,-148"/>
<text text-anchor="start" x="8" y="-136" font-family="Helvetica,sans-Serif" font-size="10.00">Span::SceneViewPanel</text>
<text text-anchor="middle" x="63" y="-125" font-family="Helvetica,sans-Serif" font-size="10.00">::OnImGuiRender</text>
</a>
</g>
</g>
<!-- Node2&#45;&gt;Node3 -->
<g id="edge2_Node000002_Node000003" class="edge">
<title>Node2&#45;&gt;Node3</title>
<g id="a_edge2_Node000002_Node000003"><a xlink:title=" ">
<path fill="none" stroke="#63b8ff" d="M151.45,-133C143,-133 134.44,-133 126.15,-133"/>
<polygon fill="#63b8ff" stroke="#63b8ff" points="151.68,-136.5 161.68,-133 151.68,-129.5 151.68,-136.5"/>
</a>
</g>
</g>
<!-- Node5 -->
<g id="Node000005" class="node">
<title>Node5</title>
<g id="a_Node000005"><a xlink:href="classSpan_1_1RenderingSystem.html#aa0113a8f2b55129115c4da2c6ba449c4" target="_top" xlink:title="毎フレーム呼び出されます。ここにゲームロジックを記述します。">
<polygon fill="white" stroke="#666666" points="470.5,-191 337.5,-191 337.5,-161 470.5,-161 470.5,-191"/>
<text text-anchor="start" x="345.5" y="-179" font-family="Helvetica,sans-Serif" font-size="10.00">Span::RenderingSystem</text>
<text text-anchor="middle" x="404" y="-168" font-family="Helvetica,sans-Serif" font-size="10.00">::OnUpdate</text>
</a>
</g>
</g>
<!-- Node4&#45;&gt;Node5 -->
<g id="edge4_Node000004_Node000005" class="edge">
<title>Node4&#45;&gt;Node5</title>
<g id="a_edge4_Node000004_Node000005"><a xlink:title=" ">
<path fill="none" stroke="#63b8ff" d="M521.97,-171.33C504.81,-172.02 486.97,-172.73 470.56,-173.38"/>
<polygon fill="#63b8ff" stroke="#63b8ff" points="522.13,-174.83 531.98,-170.93 521.85,-167.84 522.13,-174.83"/>
</a>
</g>
</g>
<!-- Node7 -->
<g id="Node000007" class="node">
<title>Node7</title>
<g id="a_Node000007"><a xlink:href="structSpan_1_1Matrix4x4.html#aea4a95a235a15e6ad3366fd07649d253" target="_top" xlink:title="行列を 移動・回転・スケール に分解する">
<polygon fill="white" stroke="#666666" points="484,-142.5 324,-142.5 324,-123.5 484,-123.5 484,-142.5"/>
<text text-anchor="middle" x="404" y="-130.5" font-family="Helvetica,sans-Serif" font-size="10.00">Span::Matrix4x4::Decompose</text>
</a>
</g>
</g>
<!-- Node6&#45;&gt;Node7 -->
<g id="edge6_Node000006_Node000007" class="edge">
<title>Node6&#45;&gt;Node7</title>
<g id="a_edge6_Node000006_Node000007"><a xlink:title=" ">
<path fill="none" stroke="#63b8ff" d="M509.87,-126.72C501.3,-127.24 492.69,-127.75 484.29,-128.25"/>
<polygon fill="#63b8ff" stroke="#63b8ff" points="510.12,-130.22 519.89,-126.12 509.7,-123.23 510.12,-130.22"/>
</a>
</g>
</g>
<!-- Node8 -->
<g id="Node000008" class="node">
<title>Node8</title>
<g id="a_Node000008"><a xlink:href="structSpan_1_1Transform.html#a22e91c428e57737b16a5e9281a28a610" target="_top" xlink:title="指定したターゲット座標を向くように回転を設定します。">
<polygon fill="white" stroke="#666666" points="471.5,-105.5 336.5,-105.5 336.5,-86.5 471.5,-86.5 471.5,-105.5"/>
<text text-anchor="middle" x="404" y="-93.5" font-family="Helvetica,sans-Serif" font-size="10.00">Span::Transform::LookAt</text>
</a>
</g>
</g>
<!-- Node6&#45;&gt;Node8 -->
<g id="edge8_Node000006_Node000008" class="edge">
<title>Node6&#45;&gt;Node8</title>
<g id="a_edge8_Node000006_Node000008"><a xlink:title=" ">
<path fill="none" stroke="#63b8ff" d="M509.6,-109.04C496.72,-107.44 483.75,-105.82 471.53,-104.3"/>
<polygon fill="#63b8ff" stroke="#63b8ff" points="509.53,-112.56 519.89,-110.33 510.4,-105.61 509.53,-112.56"/>
</a>
</g>
</g>
<!-- Node7&#45;&gt;Node2 -->
<g id="edge7_Node000007_Node000002" class="edge">
<title>Node7&#45;&gt;Node2</title>
<g id="a_edge7_Node000007_Node000002"><a xlink:title=" ">
<path fill="none" stroke="#63b8ff" d="M313.69,-133C305.04,-133 296.41,-133 288.12,-133"/>
<polygon fill="#63b8ff" stroke="#63b8ff" points="313.82,-136.5 323.82,-133 313.82,-129.5 313.82,-136.5"/>
</a>
</g>
</g>
<!-- Node9&#45;&gt;Node2 -->
<g id="edge10_Node000009_Node000002" class="edge">
<title>Node9&#45;&gt;Node2</title>
<g id="a_edge10_Node000009_Node000002"><a xlink:title=" ">
<path fill="none" stroke="#63b8ff" d="M530.79,-56.71C473.13,-54.82 391.99,-56.99 324,-77 294.67,-85.63 264.7,-104.54 245.75,-117.99"/>
<polygon fill="#63b8ff" stroke="#63b8ff" points="530.79,-60.21 540.91,-57.09 531.05,-53.22 530.79,-60.21"/>
</a>
</g>
</g>
<!-- Node10 -->
<g id="Node000010" class="node">
<title>Node10</title>
<g id="a_Node000010"><a xlink:href="classSpan_1_1CameraSystem.html#a7f4bf0245dedd7a6245ef352246f7391" target="_top" xlink:title="毎フレーム呼び出されます。ここにゲームロジックを記述します。">
<polygon fill="white" stroke="#666666" points="465,-30 343,-30 343,0 465,0 465,-30"/>
<text text-anchor="start" x="351" y="-18" font-family="Helvetica,sans-Serif" font-size="10.00">Span::CameraSystem</text>
<text text-anchor="middle" x="404" y="-7" font-family="Helvetica,sans-Serif" font-size="10.00">::OnUpdate</text>
</a>
</g>
</g>
<!-- Node9&#45;&gt;Node10 -->
<g id="edge11_Node000009_Node000010" class="edge">
<title>Node9&#45;&gt;Node10</title>
<g id="a_edge11_Node000009_Node000010"><a xlink:title=" ">
<path fill="none" stroke="#63b8ff" d="M551.63,-50.2C541.13,-47.85 530.21,-45.38 520,-43 502.19,-38.85 482.86,-34.21 465.23,-29.91"/>
<polygon fill="#63b8ff" stroke="#63b8ff" points="551,-53.65 561.53,-52.41 552.53,-46.82 551,-53.65"/>
</a>
</g>
</g>
</g>
</svg>

<g id="navigator" transform="translate(0 0)" fill="#404254">
  <rect fill="#f2f5e9" fill-opacity="0.5" stroke="#606060" stroke-width=".5" x="0" y="0" width="60" height="60"/>
  <use id="zoomplus" xlink:href="#zoomPlus" x="17" y="9" onmousedown="handleZoom(evt,'in')"/>
  <use id="zoomminus" xlink:href="#zoomMin" x="42" y="9" onmousedown="handleZoom(evt,'out')"/>
  <use id="reset" xlink:href="#resetDef" x="30" y="36" onmousedown="handleReset()"/>
   <use id="arrowup" xlink:href="#arrowUp" x="0" y="0" onmousedown="handlePan(0,-1)"/>
  <use id="arrowright" xlink:href="#arrowRight" x="0" y="0" onmousedown="handlePan(1,0)"/>
  <use id="arrowdown" xlink:href="#arrowDown" x="0" y="0" onmousedown="handlePan(0,1)"/>
  <use id="arrowleft" xlink:href="#arrowLeft" x="0" y="0" onmousedown="handlePan(-1,0)"/>
</g>
<svg viewBox="0 0 15 15" width="100%" height="30px" preserveAspectRatio="xMaxYMin meet">
 <g id="arrow_out" transform="scale(0.3 0.3)">
  <a xlink:href="structSpan_1_1Matrix4x4_afc3f3a8aeeaac6aa4302a64b7568fbf3_icgraph_org.svg" target="_base">
   <rect id="button" ry="5" rx="5" y="6" x="6" height="38" width="38"
        fill="#f2f5e9" fill-opacity="0.5" stroke="#606060" stroke-width="1.0"/>
   <path id="arrow"
     d="M 11.500037,31.436501 C 11.940474,20.09759 22.043105,11.32322 32.158766,21.979434 L 37.068811,17.246167 C 37.068811,17.246167 37.088388,32 37.088388,32 L 22.160133,31.978069 C 22.160133,31.978069 26.997745,27.140456 26.997745,27.140456 C 18.528582,18.264221 13.291696,25.230495 11.500037,31.436501 z"
     style="fill:#404040;"/>
  </a>
 </g>
</svg>

<style type='text/css'>
<![CDATA[
[data-mouse-over-selected='false'] { opacity: 0.7; }
[data-mouse-over-selected='true']  { opacity: 1.0; }
]]>
</style>
<script type="application/ecmascript"><![CDATA[
document.addEventListener('DOMContentLoaded', (event) => {
  highlightEdges();
  highlightAdjacentNodes();
});
]]></script>
</svg>
