<?xml version="1.0" encoding="UTF-8" standalone="no"?>
<!DOCTYPE svg PUBLIC "-//W3C//DTD SVG 1.1//EN"
 "http://www.w3.org/Graphics/SVG/1.1/DTD/svg11.dtd">
<!-- Generated by graphviz version 2.43.0 (0)
 -->
<!-- Title: Span::Vector3::FromXM Pages: 1 -->
<svg width="514pt" height="138pt"
 viewBox="0.00 0.00 514.00 138.00" xmlns="http://www.w3.org/2000/svg" xmlns:xlink="http://www.w3.org/1999/xlink">
<g id="graph0" class="graph" transform="scale(1 1) rotate(0) translate(4 134)">
<title>Span::Vector3::FromXM</title>
<!-- Node1 -->
<g id="Node000001" class="node">
<title>Node1</title>
<g id="a_Node000001"><a xlink:title=" ">
<polygon fill="#999999" stroke="#666666" points="506,-93 376,-93 376,-74 506,-74 506,-93"/>
<text text-anchor="middle" x="441" y="-81" font-family="Helvetica,sans-Serif" font-size="10.00">Span::Vector3::FromXM</text>
</a>
</g>
</g>
<!-- Node2 -->
<g id="Node000002" class="node">
<title>Node2</title>
<g id="a_Node000002"><a xlink:href="structSpan_1_1Vector3.html#af88324745a94c795f6b1190d5a7e7247" target="_top" xlink:title=" ">
<polygon fill="white" stroke="#666666" points="325,-130 209,-130 209,-111 325,-111 325,-130"/>
<text text-anchor="middle" x="267" y="-118" font-family="Helvetica,sans-Serif" font-size="10.00">Span::Vector3::Cross</text>
</a>
</g>
</g>
<!-- Node1&#45;&gt;Node2 -->
<g id="edge1_Node000001_Node000002" class="edge">
<title>Node1&#45;&gt;Node2</title>
<g id="a_edge1_Node000001_Node000002"><a xlink:title=" ">
<path fill="none" stroke="#63b8ff" d="M385.83,-95.15C362.21,-100.23 334.85,-106.12 312.44,-110.94"/>
<polygon fill="#63b8ff" stroke="#63b8ff" points="386.67,-98.55 395.71,-93.03 385.19,-91.71 386.67,-98.55"/>
</a>
</g>
</g>
<!-- Node4 -->
<g id="Node000004" class="node">
<title>Node4</title>
<g id="a_Node000004"><a xlink:href="structSpan_1_1Vector3.html#a636702ff63ba665c96251f818180e173" target="_top" xlink:title=" ">
<polygon fill="white" stroke="#666666" points="322,-93 212,-93 212,-74 322,-74 322,-93"/>
<text text-anchor="middle" x="267" y="-81" font-family="Helvetica,sans-Serif" font-size="10.00">Span::Vector3::Lerp</text>
</a>
</g>
</g>
<!-- Node1&#45;&gt;Node4 -->
<g id="edge3_Node000001_Node000004" class="edge">
<title>Node1&#45;&gt;Node4</title>
<g id="a_edge3_Node000001_Node000004"><a xlink:title=" ">
<path fill="none" stroke="#63b8ff" d="M365.9,-83.5C351.23,-83.5 336.09,-83.5 322.23,-83.5"/>
<polygon fill="#63b8ff" stroke="#63b8ff" points="365.95,-87 375.95,-83.5 365.95,-80 365.95,-87"/>
</a>
</g>
</g>
<!-- Node5 -->
<g id="Node000005" class="node">
<title>Node5</title>
<g id="a_Node000005"><a xlink:href="structSpan_1_1Vector3.html#aabe270fd26b1d874df94a455faef13c5" target="_top" xlink:title=" ">
<polygon fill="white" stroke="#666666" points="340,-56 194,-56 194,-37 340,-37 340,-56"/>
<text text-anchor="middle" x="267" y="-44" font-family="Helvetica,sans-Serif" font-size="10.00">Span::Vector3::Normalized</text>
</a>
</g>
</g>
<!-- Node1&#45;&gt;Node5 -->
<g id="edge4_Node000001_Node000005" class="edge">
<title>Node1&#45;&gt;Node5</title>
<g id="a_edge4_Node000001_Node000005"><a xlink:title=" ">
<path fill="none" stroke="#63b8ff" d="M385.83,-71.85C362.21,-66.77 334.85,-60.88 312.44,-56.06"/>
<polygon fill="#63b8ff" stroke="#63b8ff" points="385.19,-75.29 395.71,-73.97 386.67,-68.45 385.19,-75.29"/>
</a>
</g>
</g>
<!-- Node3 -->
<g id="Node000003" class="node">
<title>Node3</title>
<g id="a_Node000003"><a xlink:href="structSpan_1_1Transform.html#a22e91c428e57737b16a5e9281a28a610" target="_top" xlink:title=" ">
<polygon fill="white" stroke="#666666" points="146.5,-130 11.5,-130 11.5,-111 146.5,-111 146.5,-130"/>
<text text-anchor="middle" x="79" y="-118" font-family="Helvetica,sans-Serif" font-size="10.00">Span::Transform::LookAt</text>
</a>
</g>
</g>
<!-- Node2&#45;&gt;Node3 -->
<g id="edge2_Node000002_Node000003" class="edge">
<title>Node2&#45;&gt;Node3</title>
<g id="a_edge2_Node000002_Node000003"><a xlink:title=" ">
<path fill="none" stroke="#63b8ff" d="M198.6,-120.5C181.71,-120.5 163.61,-120.5 146.75,-120.5"/>
<polygon fill="#63b8ff" stroke="#63b8ff" points="198.93,-124 208.93,-120.5 198.93,-117 198.93,-124"/>
</a>
</g>
</g>
<!-- Node5&#45;&gt;Node3 -->
<g id="edge8_Node000005_Node000003" class="edge">
<title>Node5&#45;&gt;Node3</title>
<g id="a_edge8_Node000005_Node000003"><a xlink:title=" ">
<path fill="none" stroke="#63b8ff" d="M205.74,-59.71C201.66,-61.41 197.7,-63.34 194,-65.5 174.19,-77.07 177.99,-91.24 158,-102.5 151.95,-105.91 145.28,-108.67 138.47,-110.92"/>
<polygon fill="#63b8ff" stroke="#63b8ff" points="207.26,-62.87 215.41,-56.1 204.82,-56.31 207.26,-62.87"/>
</a>
</g>
</g>
<!-- Node6 -->
<g id="Node000006" class="node">
<title>Node6</title>
<g id="a_Node000006"><a xlink:href="structSpan_1_1Transform.html#a132f40241af247849e79067db6ad62b4" target="_top" xlink:title=" ">
<polygon fill="white" stroke="#666666" points="158,-93 0,-93 0,-74 158,-74 158,-93"/>
<text text-anchor="middle" x="79" y="-81" font-family="Helvetica,sans-Serif" font-size="10.00">Span::Transform::GetForward</text>
</a>
</g>
</g>
<!-- Node5&#45;&gt;Node6 -->
<g id="edge5_Node000005_Node000006" class="edge">
<title>Node5&#45;&gt;Node6</title>
<g id="a_edge5_Node000005_Node000006"><a xlink:title=" ">
<path fill="none" stroke="#63b8ff" d="M208.11,-58.02C182.4,-63.13 152.51,-69.08 128.06,-73.94"/>
<polygon fill="#63b8ff" stroke="#63b8ff" points="208.98,-61.41 218.1,-56.03 207.61,-54.55 208.98,-61.41"/>
</a>
</g>
</g>
<!-- Node7 -->
<g id="Node000007" class="node">
<title>Node7</title>
<g id="a_Node000007"><a xlink:href="structSpan_1_1Transform.html#a201045237f4cff825ff023848c5967fa" target="_top" xlink:title=" ">
<polygon fill="white" stroke="#666666" points="151,-56 7,-56 7,-37 151,-37 151,-56"/>
<text text-anchor="middle" x="79" y="-44" font-family="Helvetica,sans-Serif" font-size="10.00">Span::Transform::GetRight</text>
</a>
</g>
</g>
<!-- Node5&#45;&gt;Node7 -->
<g id="edge6_Node000005_Node000007" class="edge">
<title>Node5&#45;&gt;Node7</title>
<g id="a_edge6_Node000005_Node000007"><a xlink:title=" ">
<path fill="none" stroke="#63b8ff" d="M183.56,-46.5C172.77,-46.5 161.8,-46.5 151.22,-46.5"/>
<polygon fill="#63b8ff" stroke="#63b8ff" points="183.82,-50 193.82,-46.5 183.82,-43 183.82,-50"/>
</a>
</g>
</g>
<!-- Node8 -->
<g id="Node000008" class="node">
<title>Node8</title>
<g id="a_Node000008"><a xlink:href="structSpan_1_1Transform.html#a4251fb155ba185e11247bd5b8044a003" target="_top" xlink:title=" ">
<polygon fill="white" stroke="#666666" points="145,-19 13,-19 13,0 145,0 145,-19"/>
<text text-anchor="middle" x="79" y="-7" font-family="Helvetica,sans-Serif" font-size="10.00">Span::Transform::GetUp</text>
</a>
</g>
</g>
<!-- Node5&#45;&gt;Node8 -->
<g id="edge7_Node000005_Node000008" class="edge">
<title>Node5&#45;&gt;Node8</title>
<g id="a_edge7_Node000005_Node000008"><a xlink:title=" ">
<path fill="none" stroke="#63b8ff" d="M208.11,-34.98C182.4,-29.87 152.51,-23.92 128.06,-19.06"/>
<polygon fill="#63b8ff" stroke="#63b8ff" points="207.61,-38.45 218.1,-36.97 208.98,-31.59 207.61,-38.45"/>
</a>
</g>
</g>
</g>
</svg>
