<?xml version="1.0" encoding="UTF-8" standalone="no"?>
<!DOCTYPE svg PUBLIC "-//W3C//DTD SVG 1.1//EN"
 "http://www.w3.org/Graphics/SVG/1.1/DTD/svg11.dtd">
<!-- Generated by graphviz version 2.43.0 (0)
 -->
<!-- Title: Span::AssetMetadata::IsValid Pages: 1 -->
<!--zoomable 874 -->

<svg id="main" version="1.1" xmlns="http://www.w3.org/2000/svg" xmlns:xlink="http://www.w3.org/1999/xlink" xml:space="preserve" onload="init(evt)">

<style type="text/css"><![CDATA[
.node, .edge {opacity: 0.7;}
.node.selected, .edge.selected {opacity: 1;}
.edge:hover path { stroke: red; }
.edge:hover polygon { stroke: red; fill: red; }
]]></style>

<defs>
  <circle id="rim" cx="0" cy="0" r="7"/>
  <circle id="rim2" cx="0" cy="0" r="3.5"/>
  <g id="zoomPlus">
    <use xlink:href="#rim" fill="#404040"><set attributeName="fill" to="#808080" begin="zoomplus.mouseover" end="zoomplus.mouseout"/></use>
    <path d="M-4,0h8M0,-4v8" fill="none" stroke="white" stroke-width="1.5" pointer-events="none"/>
  </g>
  <g id="zoomMin">
    <use xlink:href="#rim" fill="#404040"><set attributeName="fill" to="#808080" begin="zoomminus.mouseover" end="zoomminus.mouseout"/></use>
    <path d="M-4,0h8" fill="none" stroke="white" stroke-width="1.5" pointer-events="none"/>
  </g>
  <g id="arrowUp" transform="translate(30 24)">
    <use xlink:href="#rim"/>
    <path pointer-events="none" fill="none" stroke="white" stroke-width="1.5" d="M0,-3.0v7 M-2.5,-0.5L0,-3.0L2.5,-0.5"/>
  </g>
  <g id="arrowRight" transform="rotate(90) translate(36 -43)">
    <use xlink:href="#rim"/>
    <path pointer-events="none" fill="none" stroke="white" stroke-width="1.5" d="M0,-3.0v7 M-2.5,-0.5L0,-3.0L2.5,-0.5"/>
  </g>
  <g id="arrowDown" transform="rotate(180) translate(-30 -48)">
    <use xlink:href="#rim"/>
    <path pointer-events="none" fill="none" stroke="white" stroke-width="1.5" d="M0,-3.0v7 M-2.5,-0.5L0,-3.0L2.5,-0.5"/>
  </g>
  <g id="arrowLeft" transform="rotate(270) translate(-36 17)">
    <use xlink:href="#rim"/>
    <path pointer-events="none" fill="none" stroke="white" stroke-width="1.5" d="M0,-3.0v7 M-2.5,-0.5L0,-3.0L2.5,-0.5"/>
  </g>
  <g id="resetDef">
    <use xlink:href="#rim2" fill="#404040"><set attributeName="fill" to="#808080" begin="reset.mouseover" end="reset.mouseout"/></use>
  </g>
</defs>
<script type="application/ecmascript">
var viewWidth = 1616;
var viewHeight = 874;
var sectionId = 'dynsection-1';
</script>
<script type="application/ecmascript" xlink:href="svg.min.js"/>
<svg id="graph" class="graph">
<g id="viewport">
<title>Span::AssetMetadata::IsValid</title>
<!-- Node1 -->
<g id="Node000001" class="node">
<title>Node1</title>
<g id="a_Node000001"><a xlink:title=" ">
<polygon fill="#999999" stroke="#666666" points="1608,-81 1488,-81 1488,-51 1608,-51 1608,-81"/>
<text text-anchor="start" x="1496" y="-69" font-family="Helvetica,sans-Serif" font-size="10.00">Span::AssetMetadata</text>
<text text-anchor="middle" x="1548" y="-58" font-family="Helvetica,sans-Serif" font-size="10.00">::IsValid</text>
</a>
</g>
</g>
<!-- Node2 -->
<g id="Node000002" class="node">
<title>Node2</title>
<g id="a_Node000002"><a xlink:href="classSpan_1_1AssetManager.html#a6d21e48b9d53035bbd83c5ae91ec083b" target="_top" xlink:title="パスでマテリアルを取得 (キャッシュ対応)。">
<polygon fill="white" stroke="#666666" points="1130,-174 1014,-174 1014,-144 1130,-144 1130,-174"/>
<text text-anchor="start" x="1022" y="-162" font-family="Helvetica,sans-Serif" font-size="10.00">Span::AssetManager</text>
<text text-anchor="middle" x="1072" y="-151" font-family="Helvetica,sans-Serif" font-size="10.00">::GetMaterial</text>
</a>
</g>
</g>
<!-- Node1&#45;&gt;Node2 -->
<g id="edge1_Node000001_Node000002" class="edge">
<title>Node1&#45;&gt;Node2</title>
<g id="a_edge1_Node000001_Node000002"><a xlink:title=" ">
<path fill="none" stroke="#63b8ff" d="M1509.32,-85.72C1492.14,-94.22 1471.35,-103.84 1452,-111 1377.68,-138.51 1358.52,-147.27 1280,-158 1229.79,-164.86 1172.1,-164.47 1130.39,-162.73"/>
<polygon fill="#63b8ff" stroke="#63b8ff" points="1511.09,-88.75 1518.46,-81.13 1507.96,-82.49 1511.09,-88.75"/>
</a>
</g>
</g>
<!-- Node3 -->
<g id="Node000003" class="node">
<title>Node3</title>
<g id="a_Node000003"><a xlink:href="classSpan_1_1AssetManager.html#ade6d0e8b7b3467e28cfd5af72896c89b" target="_top" xlink:title="メッシュデータを取得します (キャッシュ対応)。">
<polygon fill="white" stroke="#666666" points="1130,-30 1014,-30 1014,0 1130,0 1130,-30"/>
<text text-anchor="start" x="1022" y="-18" font-family="Helvetica,sans-Serif" font-size="10.00">Span::AssetManager</text>
<text text-anchor="middle" x="1072" y="-7" font-family="Helvetica,sans-Serif" font-size="10.00">::GetMesh</text>
</a>
</g>
</g>
<!-- Node1&#45;&gt;Node3 -->
<g id="edge2_Node000001_Node000003" class="edge">
<title>Node1&#45;&gt;Node3</title>
<g id="a_edge2_Node000001_Node000003"><a xlink:title=" ">
<path fill="none" stroke="#63b8ff" d="M1502.17,-47.47C1486.56,-41.81 1468.75,-36.24 1452,-33 1339.46,-11.25 1204.82,-10.75 1130.11,-12.66"/>
<polygon fill="#63b8ff" stroke="#63b8ff" points="1500.99,-50.76 1511.58,-50.98 1503.43,-44.2 1500.99,-50.76"/>
</a>
</g>
</g>
<!-- Node4 -->
<g id="Node000004" class="node">
<title>Node4</title>
<g id="a_Node000004"><a xlink:href="classSpan_1_1AssetManager.html#a93b56de9af3fadbc0ff27f1e21e44291" target="_top" xlink:title="テクスチャを取得します (キャッシュにあればそれを返し、無ければロードします)。">
<polygon fill="white" stroke="#666666" points="1130,-78 1014,-78 1014,-48 1130,-48 1130,-78"/>
<text text-anchor="start" x="1022" y="-66" font-family="Helvetica,sans-Serif" font-size="10.00">Span::AssetManager</text>
<text text-anchor="middle" x="1072" y="-55" font-family="Helvetica,sans-Serif" font-size="10.00">::GetTexture</text>
</a>
</g>
</g>
<!-- Node1&#45;&gt;Node4 -->
<g id="edge3_Node000001_Node000004" class="edge">
<title>Node1&#45;&gt;Node4</title>
<g id="a_edge3_Node000001_Node000004"><a xlink:title=" ">
<path fill="none" stroke="#63b8ff" d="M1487.15,-48.5C1475.59,-45.79 1463.49,-43.43 1452,-42 1338.37,-27.87 1204.4,-42.59 1130.04,-53.51"/>
<polygon fill="#63b8ff" stroke="#63b8ff" points="1486.61,-51.97 1497.15,-50.95 1488.27,-45.17 1486.61,-51.97"/>
</a>
</g>
</g>
<!-- Node5 -->
<g id="Node000005" class="node">
<title>Node5</title>
<g id="a_Node000005"><a xlink:href="classSpan_1_1AssetSerializer.html#adea72d3eb1434b36473f6e0d38396451" target="_top" xlink:title="指定したアセットのメタデータを取得します。 .metaファイルが存在しない場合は、新規にGUIDを生成して作成します。">
<polygon fill="white" stroke="#666666" points="1452,-81 1316,-81 1316,-51 1452,-51 1452,-81"/>
<text text-anchor="start" x="1324" y="-69" font-family="Helvetica,sans-Serif" font-size="10.00">Span::AssetSerializer</text>
<text text-anchor="middle" x="1384" y="-58" font-family="Helvetica,sans-Serif" font-size="10.00">::LoadOrCreateMetadata</text>
</a>
</g>
</g>
<!-- Node1&#45;&gt;Node5 -->
<g id="edge4_Node000001_Node000005" class="edge">
<title>Node1&#45;&gt;Node5</title>
<g id="a_edge4_Node000001_Node000005"><a xlink:title=" ">
<path fill="none" stroke="#63b8ff" d="M1477.44,-66C1469.02,-66 1460.44,-66 1452.06,-66"/>
<polygon fill="#63b8ff" stroke="#63b8ff" points="1477.6,-69.5 1487.6,-66 1477.6,-62.5 1477.6,-69.5"/>
</a>
</g>
</g>
<!-- Node6 -->
<g id="Node000006" class="node">
<title>Node6</title>
<g id="a_Node000006"><a xlink:href="classSpan_1_1AssetRegistry.html#a432dbe6ae1b0ab930bd903d93ad5a734" target="_top" xlink:title="パスからアセット情報を登録・更新します (ファイル移動/作成時用)。">
<polygon fill="white" stroke="#666666" points="1280,-124 1166,-124 1166,-94 1280,-94 1280,-124"/>
<text text-anchor="start" x="1174" y="-112" font-family="Helvetica,sans-Serif" font-size="10.00">Span::AssetRegistry</text>
<text text-anchor="middle" x="1223" y="-101" font-family="Helvetica,sans-Serif" font-size="10.00">::RegisterAsset</text>
</a>
</g>
</g>
<!-- Node1&#45;&gt;Node6 -->
<g id="edge49_Node000001_Node000006" class="edge">
<title>Node1&#45;&gt;Node6</title>
<g id="a_edge49_Node000001_Node000006"><a xlink:title=" ">
<path fill="none" stroke="#63b8ff" d="M1484.34,-83.37C1473.62,-85.9 1462.53,-88.24 1452,-90 1393.82,-99.71 1326.42,-104.54 1280.07,-106.9"/>
<polygon fill="#63b8ff" stroke="#63b8ff" points="1485.18,-86.77 1494.07,-81.01 1483.52,-79.97 1485.18,-86.77"/>
</a>
</g>
</g>
<!-- Node5&#45;&gt;Node2 -->
<g id="edge5_Node000005_Node000002" class="edge">
<title>Node5&#45;&gt;Node2</title>
<g id="a_edge5_Node000005_Node000002"><a xlink:title=" ">
<path fill="none" stroke="#63b8ff" d="M1357.46,-87.35C1337.63,-102.7 1308.75,-122.48 1280,-133 1231.53,-150.74 1172.88,-156.79 1130.41,-158.66"/>
<polygon fill="#63b8ff" stroke="#63b8ff" points="1359.71,-90.03 1365.38,-81.08 1355.37,-84.54 1359.71,-90.03"/>
</a>
</g>
</g>
<!-- Node5&#45;&gt;Node3 -->
<g id="edge6_Node000005_Node000003" class="edge">
<title>Node5&#45;&gt;Node3</title>
<g id="a_edge6_Node000005_Node000003"><a xlink:title=" ">
<path fill="none" stroke="#63b8ff" d="M1305.78,-53.3C1251.34,-44.34 1179.62,-32.54 1130.25,-24.42"/>
<polygon fill="#63b8ff" stroke="#63b8ff" points="1305.3,-56.76 1315.73,-54.93 1306.44,-49.86 1305.3,-56.76"/>
</a>
</g>
</g>
<!-- Node5&#45;&gt;Node4 -->
<g id="edge7_Node000005_Node000004" class="edge">
<title>Node5&#45;&gt;Node4</title>
<g id="a_edge7_Node000005_Node000004"><a xlink:title=" ">
<path fill="none" stroke="#63b8ff" d="M1305.44,-65.25C1251.04,-64.72 1179.52,-64.03 1130.25,-63.55"/>
<polygon fill="#63b8ff" stroke="#63b8ff" points="1305.7,-68.75 1315.73,-65.35 1305.77,-61.75 1305.7,-68.75"/>
</a>
</g>
</g>
<!-- Node5&#45;&gt;Node6 -->
<g id="edge8_Node000005_Node000006" class="edge">
<title>Node5&#45;&gt;Node6</title>
<g id="a_edge8_Node000005_Node000006"><a xlink:title=" ">
<path fill="none" stroke="#63b8ff" d="M1317.43,-83.73C1304.86,-87.13 1291.8,-90.66 1279.58,-93.97"/>
<polygon fill="#63b8ff" stroke="#63b8ff" points="1318.65,-87.03 1327.39,-81.04 1316.82,-80.27 1318.65,-87.03"/>
</a>
</g>
</g>
<!-- Node6&#45;&gt;Node2 -->
<g id="edge9_Node000006_Node000002" class="edge">
<title>Node6&#45;&gt;Node2</title>
<g id="a_edge9_Node000006_Node000002"><a xlink:title=" ">
<path fill="none" stroke="#63b8ff" d="M1167.38,-127.33C1151.12,-132.79 1133.5,-138.7 1117.93,-143.92"/>
<polygon fill="#63b8ff" stroke="#63b8ff" points="1168.93,-130.5 1177.3,-124 1166.7,-123.86 1168.93,-130.5"/>
</a>
</g>
</g>
<!-- Node6&#45;&gt;Node3 -->
<g id="edge10_Node000006_Node000003" class="edge">
<title>Node6&#45;&gt;Node3</title>
<g id="a_edge10_Node000006_Node000003"><a xlink:title=" ">
<path fill="none" stroke="#63b8ff" d="M1197.28,-87.45C1179.42,-72.58 1154.25,-53.03 1130,-39 1124.52,-35.83 1118.53,-32.84 1112.57,-30.13"/>
<polygon fill="#63b8ff" stroke="#63b8ff" points="1195.05,-90.15 1204.95,-93.92 1199.56,-84.8 1195.05,-90.15"/>
</a>
</g>
</g>
<!-- Node6&#45;&gt;Node4 -->
<g id="edge11_Node000006_Node000004" class="edge">
<title>Node6&#45;&gt;Node4</title>
<g id="a_edge11_Node000006_Node000004"><a xlink:title=" ">
<path fill="none" stroke="#63b8ff" d="M1163.32,-90.88C1149.52,-86.62 1134.95,-82.13 1121.64,-78.02"/>
<polygon fill="#63b8ff" stroke="#63b8ff" points="1162.62,-94.33 1173.21,-93.94 1164.69,-87.64 1162.62,-94.33"/>
</a>
</g>
</g>
<!-- Node7 -->
<g id="Node000007" class="node">
<title>Node7</title>
<g id="a_Node000007"><a xlink:href="classSpan_1_1AssetRegistry.html#a71c0e006b41117cb0b296adaf0de1c56" target="_top" xlink:title="指定ディレクトリ以下の全アセットをスキャンし、レジストリを構築します。">
<polygon fill="white" stroke="#666666" points="1129,-126 1015,-126 1015,-96 1129,-96 1129,-126"/>
<text text-anchor="start" x="1023" y="-114" font-family="Helvetica,sans-Serif" font-size="10.00">Span::AssetRegistry</text>
<text text-anchor="middle" x="1072" y="-103" font-family="Helvetica,sans-Serif" font-size="10.00">::Refresh</text>
</a>
</g>
</g>
<!-- Node6&#45;&gt;Node7 -->
<g id="edge12_Node000006_Node000007" class="edge">
<title>Node6&#45;&gt;Node7</title>
<g id="a_edge12_Node000006_Node000007"><a xlink:title=" ">
<path fill="none" stroke="#63b8ff" d="M1155.53,-109.89C1146.81,-110.01 1137.94,-110.13 1129.41,-110.24"/>
<polygon fill="#63b8ff" stroke="#63b8ff" points="1155.72,-113.39 1165.67,-109.76 1155.62,-106.39 1155.72,-113.39"/>
</a>
</g>
</g>
<!-- Node8 -->
<g id="Node000008" class="node">
<title>Node8</title>
<g id="a_Node000008"><a xlink:href="classSpan_1_1AssetManager.html#a69ad0e84f0e86f10a14693275d0872f2" target="_top" xlink:title="マネージャーを初期化します。">
<polygon fill="white" stroke="#666666" points="978,-126 862,-126 862,-96 978,-96 978,-126"/>
<text text-anchor="start" x="870" y="-114" font-family="Helvetica,sans-Serif" font-size="10.00">Span::AssetManager</text>
<text text-anchor="middle" x="920" y="-103" font-family="Helvetica,sans-Serif" font-size="10.00">::Initialize</text>
</a>
</g>
</g>
<!-- Node7&#45;&gt;Node8 -->
<g id="edge13_Node000007_Node000008" class="edge">
<title>Node7&#45;&gt;Node8</title>
<g id="a_edge13_Node000007_Node000008"><a xlink:title=" ">
<path fill="none" stroke="#63b8ff" d="M1004.49,-111C995.68,-111 986.72,-111 978.1,-111"/>
<polygon fill="#63b8ff" stroke="#63b8ff" points="1004.72,-114.5 1014.72,-111 1004.72,-107.5 1004.72,-114.5"/>
</a>
</g>
</g>
<!-- Node9 -->
<g id="Node000009" class="node">
<title>Node9</title>
<g id="a_Node000009"><a xlink:href="classSpan_1_1Application.html#a0c44e973ca5db1d23a02a2cee66f5c11" target="_top" xlink:title=" ">
<polygon fill="white" stroke="#666666" points="826,-126 719,-126 719,-96 826,-96 826,-126"/>
<text text-anchor="start" x="727" y="-114" font-family="Helvetica,sans-Serif" font-size="10.00">Span::Application::</text>
<text text-anchor="middle" x="772.5" y="-103" font-family="Helvetica,sans-Serif" font-size="10.00">Application</text>
</a>
</g>
</g>
<!-- Node8&#45;&gt;Node9 -->
<g id="edge14_Node000008_Node000009" class="edge">
<title>Node8&#45;&gt;Node9</title>
<g id="a_edge14_Node000008_Node000009"><a xlink:title=" ">
<path fill="none" stroke="#63b8ff" d="M851.86,-111C843.24,-111 834.5,-111 826.15,-111"/>
<polygon fill="#63b8ff" stroke="#63b8ff" points="851.91,-114.5 861.91,-111 851.91,-107.5 851.91,-114.5"/>
</a>
</g>
</g>
<!-- Node10 -->
<g id="Node000010" class="node">
<title>Node10</title>
<g id="a_Node000010"><a xlink:href="classSpan_1_1Application.html#ae2e9eaebe90ffdf55cfef9d74ccbce3e" target="_top" xlink:title="シングルトンインスタンスの取得">
<polygon fill="white" stroke="#666666" points="683,-468.5 558,-468.5 558,-449.5 683,-449.5 683,-468.5"/>
<text text-anchor="middle" x="620.5" y="-456.5" font-family="Helvetica,sans-Serif" font-size="10.00">Span::Application::Get</text>
</a>
</g>
</g>
<!-- Node9&#45;&gt;Node10 -->
<g id="edge15_Node000009_Node000010" class="edge">
<title>Node9&#45;&gt;Node10</title>
<g id="a_edge15_Node000009_Node000010"><a xlink:title=" ">
<path fill="none" stroke="#63b8ff" d="M760.81,-135.79C730.58,-205.94 645.34,-403.69 625.61,-449.46"/>
<polygon fill="#63b8ff" stroke="#63b8ff" points="764.12,-136.97 764.86,-126.4 757.69,-134.2 764.12,-136.97"/>
</a>
</g>
</g>
<!-- Node31 -->
<g id="Node000031" class="node">
<title>Node31</title>
<g id="a_Node000031"><a xlink:href="classSpan_1_1Application.html#a095598d0c2e753bfb8d00acee435980f" target="_top" xlink:title="シングルトンインスタンスのポインタ取得 (存在チェック用)">
<polygon fill="white" stroke="#666666" points="681,-82.5 560,-82.5 560,-63.5 681,-63.5 681,-82.5"/>
<text text-anchor="middle" x="620.5" y="-70.5" font-family="Helvetica,sans-Serif" font-size="10.00">Span::Application::Ptr</text>
</a>
</g>
</g>
<!-- Node9&#45;&gt;Node31 -->
<g id="edge46_Node000009_Node000031" class="edge">
<title>Node9&#45;&gt;Node31</title>
<g id="a_edge46_Node000009_Node000031"><a xlink:title=" ">
<path fill="none" stroke="#63b8ff" d="M708.83,-95.12C692,-90.86 674.33,-86.38 659.31,-82.58"/>
<polygon fill="#63b8ff" stroke="#63b8ff" points="708.06,-98.54 718.62,-97.6 709.78,-91.75 708.06,-98.54"/>
</a>
</g>
</g>
<!-- Node11 -->
<g id="Node000011" class="node">
<title>Node11</title>
<g id="a_Node000011"><a xlink:href="classSpan_1_1HierarchyPanel.html#a331d846c46df5f3346cfc7bb8c7a8e76" target="_top" xlink:title="エンティティ上での右クリックメニューを描画します。">
<polygon fill="white" stroke="#666666" points="507,-598 387,-598 387,-568 507,-568 507,-598"/>
<text text-anchor="start" x="395" y="-586" font-family="Helvetica,sans-Serif" font-size="10.00">Span::HierarchyPanel</text>
<text text-anchor="middle" x="447" y="-575" font-family="Helvetica,sans-Serif" font-size="10.00">::DrawContextMenu</text>
</a>
</g>
</g>
<!-- Node10&#45;&gt;Node11 -->
<g id="edge16_Node000010_Node000011" class="edge">
<title>Node10&#45;&gt;Node11</title>
<g id="a_edge16_Node000010_Node000011"><a xlink:title=" ">
<path fill="none" stroke="#63b8ff" d="M605.47,-476.4C587.87,-497.27 555.86,-532.15 522,-554 513.65,-559.39 504.15,-564.04 494.79,-567.94"/>
<polygon fill="#63b8ff" stroke="#63b8ff" points="608.21,-478.58 611.89,-468.64 602.82,-474.11 608.21,-478.58"/>
</a>
</g>
</g>
<!-- Node12 -->
<g id="Node000012" class="node">
<title>Node12</title>
<g id="a_Node000012"><a xlink:href="classSpan_1_1HierarchyPanel.html#a2c08f8c6e0cafaed96f7846d76ff2b09" target="_top" xlink:title="1つのエンティティとその子孫を再帰的に描画します。">
<polygon fill="white" stroke="#666666" points="309,-641 189,-641 189,-611 309,-611 309,-641"/>
<text text-anchor="start" x="197" y="-629" font-family="Helvetica,sans-Serif" font-size="10.00">Span::HierarchyPanel</text>
<text text-anchor="middle" x="249" y="-618" font-family="Helvetica,sans-Serif" font-size="10.00">::DrawEntityNode</text>
</a>
</g>
</g>
<!-- Node10&#45;&gt;Node12 -->
<g id="edge22_Node000010_Node000012" class="edge">
<title>Node10&#45;&gt;Node12</title>
<g id="a_edge22_Node000010_Node000012"><a xlink:title=" ">
<path fill="none" stroke="#63b8ff" d="M613.04,-478.72C601.04,-511.83 571.88,-577.84 522,-607 456.82,-645.1 367.27,-643.1 309.02,-636.18"/>
<polygon fill="#63b8ff" stroke="#63b8ff" points="616.5,-479.45 616.46,-468.85 609.88,-477.16 616.5,-479.45"/>
</a>
</g>
</g>
<!-- Node13 -->
<g id="Node000013" class="node">
<title>Node13</title>
<g id="a_Node000013"><a xlink:href="classSpan_1_1HierarchyPanel.html#a6481eb57cd9f45cb3a094a26f35bbaa0" target="_top" xlink:title="毎フレーム呼ばれる描画関数。">
<polygon fill="white" stroke="#666666" points="123,-641 3,-641 3,-611 123,-611 123,-641"/>
<text text-anchor="start" x="11" y="-629" font-family="Helvetica,sans-Serif" font-size="10.00">Span::HierarchyPanel</text>
<text text-anchor="middle" x="63" y="-618" font-family="Helvetica,sans-Serif" font-size="10.00">::OnImGuiRender</text>
</a>
</g>
</g>
<!-- Node10&#45;&gt;Node13 -->
<g id="edge35_Node000010_Node000013" class="edge">
<title>Node10&#45;&gt;Node13</title>
<g id="a_edge35_Node000010_Node000013"><a xlink:title=" ">
<path fill="none" stroke="#63b8ff" d="M618.24,-478.72C614.05,-525.6 596.26,-643.5 522,-693 381.92,-786.39 164.38,-682.05 89.98,-641.07"/>
<polygon fill="#63b8ff" stroke="#63b8ff" points="621.74,-478.89 619.02,-468.65 614.76,-478.34 621.74,-478.89"/>
</a>
</g>
</g>
<!-- Node14 -->
<g id="Node000014" class="node">
<title>Node14</title>
<g id="a_Node000014"><a xlink:href="classSpan_1_1HierarchyPanel.html#a04888145be2266ef8385e234b79ec53a" target="_top" xlink:title="何もない場所での右クリックメニュー (新規作成など) を描画します。">
<polygon fill="white" stroke="#666666" points="336,-574 162,-574 162,-544 336,-544 336,-574"/>
<text text-anchor="start" x="170" y="-562" font-family="Helvetica,sans-Serif" font-size="10.00">Span::HierarchyPanel</text>
<text text-anchor="middle" x="249" y="-551" font-family="Helvetica,sans-Serif" font-size="10.00">::DrawEmptySpaceContextMenu</text>
</a>
</g>
</g>
<!-- Node10&#45;&gt;Node14 -->
<g id="edge20_Node000010_Node000014" class="edge">
<title>Node10&#45;&gt;Node14</title>
<g id="a_edge20_Node000010_Node000014"><a xlink:title=" ">
<path fill="none" stroke="#63b8ff" d="M589.62,-472.83C570.57,-481.25 545.2,-491.74 522,-499 460.73,-518.17 389.87,-533.59 335.83,-544"/>
<polygon fill="#63b8ff" stroke="#63b8ff" points="591.27,-475.92 598.96,-468.64 588.4,-469.54 591.27,-475.92"/>
</a>
</g>
</g>
<!-- Node15 -->
<g id="Node000015" class="node">
<title>Node15</title>
<g id="a_Node000015"><a xlink:href="classSpan_1_1SceneViewPanel.html#ad83a4a55f083c75371d0873322808796" target="_top" xlink:title="選択中のオブジェクトに対してマニピュレータ (矢印など) を描画します。">
<polygon fill="white" stroke="#666666" points="510,-474 384,-474 384,-444 510,-444 510,-474"/>
<text text-anchor="start" x="392" y="-462" font-family="Helvetica,sans-Serif" font-size="10.00">Span::SceneViewPanel</text>
<text text-anchor="middle" x="447" y="-451" font-family="Helvetica,sans-Serif" font-size="10.00">::DrawGizmo</text>
</a>
</g>
</g>
<!-- Node10&#45;&gt;Node15 -->
<g id="edge23_Node000010_Node000015" class="edge">
<title>Node10&#45;&gt;Node15</title>
<g id="a_edge23_Node000010_Node000015"><a xlink:title=" ">
<path fill="none" stroke="#63b8ff" d="M547.31,-459C534.94,-459 522.19,-459 510.11,-459"/>
<polygon fill="#63b8ff" stroke="#63b8ff" points="547.58,-462.5 557.58,-459 547.58,-455.5 547.58,-462.5"/>
</a>
</g>
</g>
<!-- Node16 -->
<g id="Node000016" class="node">
<title>Node16</title>
<g id="a_Node000016"><a xlink:href="classSpan_1_1SceneViewPanel.html#aab2935de58bd68267a680cabd3656c9f" target="_top" xlink:title="毎フレームの描画処理。 画像の表示、ツールバーのオーバーレイ、ギズモの描画を行います。">
<polygon fill="white" stroke="#666666" points="312,-474 186,-474 186,-444 312,-444 312,-474"/>
<text text-anchor="start" x="194" y="-462" font-family="Helvetica,sans-Serif" font-size="10.00">Span::SceneViewPanel</text>
<text text-anchor="middle" x="249" y="-451" font-family="Helvetica,sans-Serif" font-size="10.00">::OnImGuiRender</text>
</a>
</g>
</g>
<!-- Node10&#45;&gt;Node16 -->
<g id="edge37_Node000010_Node000016" class="edge">
<title>Node10&#45;&gt;Node16</title>
<g id="a_edge37_Node000010_Node000016"><a xlink:title=" ">
<path fill="none" stroke="#63b8ff" d="M578.88,-471.32C561.53,-475.98 540.95,-480.7 522,-483 455.82,-491.03 438.35,-489.46 372,-483 352.34,-481.08 331.15,-477.47 312.03,-473.62"/>
<polygon fill="#63b8ff" stroke="#63b8ff" points="579.97,-474.65 588.68,-468.61 578.11,-467.91 579.97,-474.65"/>
</a>
</g>
</g>
<!-- Node17 -->
<g id="Node000017" class="node">
<title>Node17</title>
<g id="a_Node000017"><a xlink:href="classSpan_1_1InspectorPanel.html#acbecd010da050d28a48148287775259a" target="_top" xlink:title="マテリアルアセット用のプロパティエディタを描画します。">
<polygon fill="white" stroke="#666666" points="506,-378 388,-378 388,-348 506,-348 506,-378"/>
<text text-anchor="start" x="396" y="-366" font-family="Helvetica,sans-Serif" font-size="10.00">Span::InspectorPanel</text>
<text text-anchor="middle" x="447" y="-355" font-family="Helvetica,sans-Serif" font-size="10.00">::DrawMaterialEditor</text>
</a>
</g>
</g>
<!-- Node10&#45;&gt;Node17 -->
<g id="edge25_Node000010_Node000017" class="edge">
<title>Node10&#45;&gt;Node17</title>
<g id="a_edge25_Node000010_Node000017"><a xlink:title=" ">
<path fill="none" stroke="#63b8ff" d="M601.13,-442.58C582.38,-426.54 551.86,-402.35 522,-387 515.51,-383.67 508.47,-380.67 501.4,-378.02"/>
<polygon fill="#63b8ff" stroke="#63b8ff" points="599.03,-445.4 608.87,-449.32 603.63,-440.11 599.03,-445.4"/>
</a>
</g>
</g>
<!-- Node19 -->
<g id="Node000019" class="node">
<title>Node19</title>
<g id="a_Node000019"><a xlink:href="classSpan_1_1InspectorPanel.html#ae32fda6018a2e54f880e6708ac5b89fe" target="_top" xlink:title="毎フレーム呼ばれる描画関数。">
<polygon fill="white" stroke="#666666" points="122,-357 4,-357 4,-327 122,-327 122,-357"/>
<text text-anchor="start" x="12" y="-345" font-family="Helvetica,sans-Serif" font-size="10.00">Span::InspectorPanel</text>
<text text-anchor="middle" x="63" y="-334" font-family="Helvetica,sans-Serif" font-size="10.00">::OnImGuiRender</text>
</a>
</g>
</g>
<!-- Node10&#45;&gt;Node19 -->
<g id="edge36_Node000010_Node000019" class="edge">
<title>Node10&#45;&gt;Node19</title>
<g id="a_edge36_Node000010_Node000019"><a xlink:title=" ">
<path fill="none" stroke="#63b8ff" d="M610.96,-440.25C596.98,-412.12 566.25,-360.06 522,-339 388.99,-275.69 208.65,-305.58 119.13,-326.93"/>
<polygon fill="#63b8ff" stroke="#63b8ff" points="607.88,-441.91 615.35,-449.43 614.19,-438.89 607.88,-441.91"/>
</a>
</g>
</g>
<!-- Node20 -->
<g id="Node000020" class="node">
<title>Node20</title>
<g id="a_Node000020"><a xlink:href="classSpan_1_1GuiManager.html#a66e894c749b02f869c0851b41fd23fec" target="_top" xlink:title="ImGuiの描画コマンドを発行し、フレームを終了します。">
<polygon fill="white" stroke="#666666" points="329.5,-253.5 168.5,-253.5 168.5,-234.5 329.5,-234.5 329.5,-253.5"/>
<text text-anchor="middle" x="249" y="-241.5" font-family="Helvetica,sans-Serif" font-size="10.00">Span::GuiManager::EndFrame</text>
</a>
</g>
</g>
<!-- Node10&#45;&gt;Node20 -->
<g id="edge28_Node000010_Node000020" class="edge">
<title>Node10&#45;&gt;Node20</title>
<g id="a_edge28_Node000010_Node000020"><a xlink:title=" ">
<path fill="none" stroke="#63b8ff" d="M612.72,-439.45C600.23,-406.47 570.35,-340.06 522,-306 504.06,-293.36 375.18,-267.54 301.44,-253.54"/>
<polygon fill="#63b8ff" stroke="#63b8ff" points="609.58,-441.06 616.29,-449.26 616.16,-438.66 609.58,-441.06"/>
</a>
</g>
</g>
<!-- Node22 -->
<g id="Node000022" class="node">
<title>Node22</title>
<g id="a_Node000022"><a xlink:href="classSpan_1_1HierarchyPanel.html#af958ff25d0ba0576ae4848bbd01b2031" target="_top" xlink:title="ドラッグ&amp;ドロップの受け入れ処理 (親子付け替え・並び替え)。">
<polygon fill="white" stroke="#666666" points="507,-684 387,-684 387,-654 507,-654 507,-684"/>
<text text-anchor="start" x="395" y="-672" font-family="Helvetica,sans-Serif" font-size="10.00">Span::HierarchyPanel</text>
<text text-anchor="middle" x="447" y="-661" font-family="Helvetica,sans-Serif" font-size="10.00">::HandleDragDrop</text>
</a>
</g>
</g>
<!-- Node10&#45;&gt;Node22 -->
<g id="edge30_Node000010_Node000022" class="edge">
<title>Node10&#45;&gt;Node22</title>
<g id="a_edge30_Node000010_Node000022"><a xlink:title=" ">
<path fill="none" stroke="#63b8ff" d="M613.9,-478.69C602.53,-515.36 573.32,-594.52 522,-640 515.7,-645.58 508.2,-650.15 500.43,-653.87"/>
<polygon fill="#63b8ff" stroke="#63b8ff" points="617.36,-479.34 616.87,-468.76 610.66,-477.34 617.36,-479.34"/>
</a>
</g>
</g>
<!-- Node23 -->
<g id="Node000023" class="node">
<title>Node23</title>
<g id="a_Node000023"><a xlink:href="classSpan_1_1SceneViewPanel.html#afebf890816b85f92e9ed73de887b2354" target="_top" xlink:title="外部またはブラウザからドロップされたファイルを処理します。">
<polygon fill="white" stroke="#666666" points="510,-426 384,-426 384,-396 510,-396 510,-426"/>
<text text-anchor="start" x="392" y="-414" font-family="Helvetica,sans-Serif" font-size="10.00">Span::SceneViewPanel</text>
<text text-anchor="middle" x="447" y="-403" font-family="Helvetica,sans-Serif" font-size="10.00">::OnAssetDropped</text>
</a>
</g>
</g>
<!-- Node10&#45;&gt;Node23 -->
<g id="edge32_Node000010_Node000023" class="edge">
<title>Node10&#45;&gt;Node23</title>
<g id="a_edge32_Node000010_Node000023"><a xlink:title=" ">
<path fill="none" stroke="#63b8ff" d="M575.29,-446.63C552.87,-440.35 525.46,-432.68 501.82,-426.06"/>
<polygon fill="#63b8ff" stroke="#63b8ff" points="574.63,-450.08 585.21,-449.4 576.52,-443.34 574.63,-450.08"/>
</a>
</g>
</g>
<!-- Node24 -->
<g id="Node000024" class="node">
<title>Node24</title>
<g id="a_Node000024"><a xlink:href="classSpan_1_1EnvironmentPanel.html#ac56f4aa5c10de85d9dc9bf2d7a497a54" target="_top" xlink:title="毎フレーム呼ばれる描画関数。">
<polygon fill="white" stroke="#666666" points="514.5,-179 379.5,-179 379.5,-149 514.5,-149 514.5,-179"/>
<text text-anchor="start" x="387.5" y="-167" font-family="Helvetica,sans-Serif" font-size="10.00">Span::EnvironmentPanel</text>
<text text-anchor="middle" x="447" y="-156" font-family="Helvetica,sans-Serif" font-size="10.00">::OnImGuiRender</text>
</a>
</g>
</g>
<!-- Node10&#45;&gt;Node24 -->
<g id="edge34_Node000010_Node000024" class="edge">
<title>Node10&#45;&gt;Node24</title>
<g id="a_edge34_Node000010_Node000024"><a xlink:title=" ">
<path fill="none" stroke="#63b8ff" d="M618.09,-439.32C613.52,-390.07 594.83,-260.34 522,-189 518.03,-185.11 513.43,-181.82 508.51,-179.05"/>
<polygon fill="#63b8ff" stroke="#63b8ff" points="614.61,-439.62 618.92,-449.3 621.58,-439.04 614.61,-439.62"/>
</a>
</g>
</g>
<!-- Node25 -->
<g id="Node000025" class="node">
<title>Node25</title>
<g id="a_Node000025"><a xlink:href="classSpan_1_1CameraSystem.html#a7f4bf0245dedd7a6245ef352246f7391" target="_top" xlink:title="毎フレーム呼び出されます。ここにゲームロジックを記述します。">
<polygon fill="white" stroke="#666666" points="508,-131 386,-131 386,-101 508,-101 508,-131"/>
<text text-anchor="start" x="394" y="-119" font-family="Helvetica,sans-Serif" font-size="10.00">Span::CameraSystem</text>
<text text-anchor="middle" x="447" y="-108" font-family="Helvetica,sans-Serif" font-size="10.00">::OnUpdate</text>
</a>
</g>
</g>
<!-- Node10&#45;&gt;Node25 -->
<g id="edge38_Node000010_Node000025" class="edge">
<title>Node10&#45;&gt;Node25</title>
<g id="a_edge38_Node000010_Node000025"><a xlink:title=" ">
<path fill="none" stroke="#63b8ff" d="M619.42,-439.15C618.11,-383.79 606.71,-226.17 522,-140 518.02,-135.95 513.36,-132.59 508.34,-129.79"/>
<polygon fill="#63b8ff" stroke="#63b8ff" points="615.92,-439.4 619.57,-449.34 622.92,-439.29 615.92,-439.4"/>
</a>
</g>
</g>
<!-- Node26 -->
<g id="Node000026" class="node">
<title>Node26</title>
<g id="a_Node000026"><a xlink:href="classSpan_1_1EditorCameraSystem.html#ae933964fa5d0f299954c926cf63e091a" target="_top" xlink:title="毎フレーム呼び出されます。ここにゲームロジックを記述します。">
<polygon fill="white" stroke="#666666" points="522,-866 372,-866 372,-836 522,-836 522,-866"/>
<text text-anchor="start" x="380" y="-854" font-family="Helvetica,sans-Serif" font-size="10.00">Span::EditorCameraSystem</text>
<text text-anchor="middle" x="447" y="-843" font-family="Helvetica,sans-Serif" font-size="10.00">::OnUpdate</text>
</a>
</g>
</g>
<!-- Node10&#45;&gt;Node26 -->
<g id="edge39_Node000010_Node000026" class="edge">
<title>Node10&#45;&gt;Node26</title>
<g id="a_edge39_Node000010_Node000026"><a xlink:title=" ">
<path fill="none" stroke="#63b8ff" d="M616.76,-478.89C606.91,-547.82 571.18,-775.05 522,-827 518.75,-830.43 515.01,-833.38 510.96,-835.9"/>
<polygon fill="#63b8ff" stroke="#63b8ff" points="620.29,-478.97 618.21,-468.58 613.35,-478 620.29,-478.97"/>
</a>
</g>
</g>
<!-- Node27 -->
<g id="Node000027" class="node">
<title>Node27</title>
<g id="a_Node000027"><a xlink:href="classSpan_1_1RenderingSystem.html#aa0113a8f2b55129115c4da2c6ba449c4" target="_top" xlink:title="毎フレーム呼び出されます。ここにゲームロジックを記述します。">
<polygon fill="white" stroke="#666666" points="513.5,-818 380.5,-818 380.5,-788 513.5,-788 513.5,-818"/>
<text text-anchor="start" x="388.5" y="-806" font-family="Helvetica,sans-Serif" font-size="10.00">Span::RenderingSystem</text>
<text text-anchor="middle" x="447" y="-795" font-family="Helvetica,sans-Serif" font-size="10.00">::OnUpdate</text>
</a>
</g>
</g>
<!-- Node10&#45;&gt;Node27 -->
<g id="edge40_Node000010_Node000027" class="edge">
<title>Node10&#45;&gt;Node27</title>
<g id="a_edge40_Node000010_Node000027"><a xlink:title=" ">
<path fill="none" stroke="#63b8ff" d="M619.44,-478.91C618.18,-534.44 606.92,-692.55 522,-779 518.59,-782.47 514.68,-785.44 510.47,-787.98"/>
<polygon fill="#63b8ff" stroke="#63b8ff" points="622.95,-478.73 619.58,-468.69 615.95,-478.64 622.95,-478.73"/>
</a>
</g>
</g>
<!-- Node28 -->
<g id="Node000028" class="node">
<title>Node28</title>
<g id="a_Node000028"><a xlink:href="classSpan_1_1FileDialog.html#aad45925d2e59cc65f1025f18104770e8" target="_top" xlink:title="ファイルを開くダイアログを表示します。">
<polygon fill="white" stroke="#666666" points="519,-253.5 375,-253.5 375,-234.5 519,-234.5 519,-253.5"/>
<text text-anchor="middle" x="447" y="-241.5" font-family="Helvetica,sans-Serif" font-size="10.00">Span::FileDialog::OpenFile</text>
</a>
</g>
</g>
<!-- Node10&#45;&gt;Node28 -->
<g id="edge41_Node000010_Node000028" class="edge">
<title>Node10&#45;&gt;Node28</title>
<g id="a_edge41_Node000010_Node000028"><a xlink:title=" ">
<path fill="none" stroke="#63b8ff" d="M614.9,-439.53C604.83,-401.07 577.17,-315.06 522,-268 514.6,-261.69 505.51,-257.03 496.27,-253.59"/>
<polygon fill="#63b8ff" stroke="#63b8ff" points="611.56,-440.59 617.38,-449.44 618.35,-438.89 611.56,-440.59"/>
</a>
</g>
</g>
<!-- Node29 -->
<g id="Node000029" class="node">
<title>Node29</title>
<g id="a_Node000029"><a xlink:href="classSpan_1_1MaterialPreviewer.html#a7af64e04a1aae97d04d3a2bbe15f50a8" target="_top" xlink:title="オフスクリーンターゲットに球体を描画します。">
<polygon fill="white" stroke="#666666" points="515,-770 379,-770 379,-740 515,-740 515,-770"/>
<text text-anchor="start" x="387" y="-758" font-family="Helvetica,sans-Serif" font-size="10.00">Span::MaterialPreviewer</text>
<text text-anchor="middle" x="447" y="-747" font-family="Helvetica,sans-Serif" font-size="10.00">::Render</text>
</a>
</g>
</g>
<!-- Node10&#45;&gt;Node29 -->
<g id="edge43_Node000010_Node000029" class="edge">
<title>Node10&#45;&gt;Node29</title>
<g id="a_edge43_Node000010_Node000029"><a xlink:title=" ">
<path fill="none" stroke="#63b8ff" d="M617.75,-478.89C612.43,-527.61 592.23,-654.1 522,-726 516.5,-731.63 509.79,-736.18 502.66,-739.87"/>
<polygon fill="#63b8ff" stroke="#63b8ff" points="621.25,-479.05 618.76,-468.75 614.28,-478.35 621.25,-479.05"/>
</a>
</g>
</g>
<!-- Node30 -->
<g id="Node000030" class="node">
<title>Node30</title>
<g id="a_Node000030"><a xlink:href="classSpan_1_1FileDialog.html#a22c6ec8ccc13ed89cc79447ce8ff2468" target="_top" xlink:title="ファイルを保存するダイアログを表示します。">
<polygon fill="white" stroke="#666666" points="518.5,-216.5 375.5,-216.5 375.5,-197.5 518.5,-197.5 518.5,-216.5"/>
<text text-anchor="middle" x="447" y="-204.5" font-family="Helvetica,sans-Serif" font-size="10.00">Span::FileDialog::SaveFile</text>
</a>
</g>
</g>
<!-- Node10&#45;&gt;Node30 -->
<g id="edge44_Node000010_Node000030" class="edge">
<title>Node10&#45;&gt;Node30</title>
<g id="a_edge44_Node000010_Node000030"><a xlink:title=" ">
<path fill="none" stroke="#63b8ff" d="M617.16,-439.32C610.75,-394.37 588.66,-283.64 522,-226 517.59,-222.18 512.5,-219.12 507.11,-216.66"/>
<polygon fill="#63b8ff" stroke="#63b8ff" points="613.7,-439.8 618.47,-449.26 620.64,-438.88 613.7,-439.8"/>
</a>
</g>
</g>
<!-- Node11&#45;&gt;Node12 -->
<g id="edge17_Node000011_Node000012" class="edge">
<title>Node11&#45;&gt;Node12</title>
<g id="a_edge17_Node000011_Node000012"><a xlink:title=" ">
<path fill="none" stroke="#63b8ff" d="M376.95,-598.15C354.86,-602.99 330.62,-608.31 309.29,-612.99"/>
<polygon fill="#63b8ff" stroke="#63b8ff" points="377.91,-601.52 386.93,-595.96 376.41,-594.68 377.91,-601.52"/>
</a>
</g>
</g>
<!-- Node12&#45;&gt;Node12 -->
<g id="edge18_Node000012_Node000012" class="edge">
<title>Node12&#45;&gt;Node12</title>
<g id="a_edge18_Node000012_Node000012"><a xlink:title=" ">
<path fill="none" stroke="#63b8ff" d="M281.56,-651.6C277.11,-655.97 266.26,-659 249,-659 219.94,-659 209.04,-650.41 216.3,-641.28"/>
<polygon fill="#63b8ff" stroke="#63b8ff" points="285.06,-651.32 281.7,-641.28 278.06,-651.23 285.06,-651.32"/>
</a>
</g>
</g>
<!-- Node12&#45;&gt;Node13 -->
<g id="edge19_Node000012_Node000013" class="edge">
<title>Node12&#45;&gt;Node13</title>
<g id="a_edge19_Node000012_Node000013"><a xlink:title=" ">
<path fill="none" stroke="#63b8ff" d="M178.75,-626C160.44,-626 140.84,-626 123.12,-626"/>
<polygon fill="#63b8ff" stroke="#63b8ff" points="178.77,-629.5 188.77,-626 178.77,-622.5 178.77,-629.5"/>
</a>
</g>
</g>
<!-- Node14&#45;&gt;Node13 -->
<g id="edge21_Node000014_Node000013" class="edge">
<title>Node14&#45;&gt;Node13</title>
<g id="a_edge21_Node000014_Node000013"><a xlink:title=" ">
<path fill="none" stroke="#63b8ff" d="M197.2,-577.5C168.33,-588.01 132.64,-601.01 105.47,-610.9"/>
<polygon fill="#63b8ff" stroke="#63b8ff" points="198.51,-580.75 206.71,-574.04 196.11,-574.17 198.51,-580.75"/>
</a>
</g>
</g>
<!-- Node15&#45;&gt;Node16 -->
<g id="edge24_Node000015_Node000016" class="edge">
<title>Node15&#45;&gt;Node16</title>
<g id="a_edge24_Node000015_Node000016"><a xlink:title=" ">
<path fill="none" stroke="#63b8ff" d="M373.89,-459C353.68,-459 331.88,-459 312.28,-459"/>
<polygon fill="#63b8ff" stroke="#63b8ff" points="373.98,-462.5 383.98,-459 373.98,-455.5 373.98,-462.5"/>
</a>
</g>
</g>
<!-- Node18 -->
<g id="Node000018" class="node">
<title>Node18</title>
<g id="a_Node000018"><a xlink:href="classSpan_1_1InspectorPanel.html#aa24fb5f7f8d1de98906fe4b644cb4a86" target="_top" xlink:title="アセット用のインスペクターを描画します。">
<polygon fill="white" stroke="#666666" points="309,-378 189,-378 189,-348 309,-348 309,-378"/>
<text text-anchor="start" x="197" y="-366" font-family="Helvetica,sans-Serif" font-size="10.00">Span::InspectorPanel</text>
<text text-anchor="middle" x="249" y="-355" font-family="Helvetica,sans-Serif" font-size="10.00">::DrawAssetInspector</text>
</a>
</g>
</g>
<!-- Node17&#45;&gt;Node18 -->
<g id="edge26_Node000017_Node000018" class="edge">
<title>Node17&#45;&gt;Node18</title>
<g id="a_edge26_Node000017_Node000018"><a xlink:title=" ">
<path fill="none" stroke="#63b8ff" d="M377.89,-363C355.53,-363 330.87,-363 309.22,-363"/>
<polygon fill="#63b8ff" stroke="#63b8ff" points="377.99,-366.5 387.99,-363 377.99,-359.5 377.99,-366.5"/>
</a>
</g>
</g>
<!-- Node18&#45;&gt;Node19 -->
<g id="edge27_Node000018_Node000019" class="edge">
<title>Node18&#45;&gt;Node19</title>
<g id="a_edge27_Node000018_Node000019"><a xlink:title=" ">
<path fill="none" stroke="#63b8ff" d="M178.59,-355.08C160,-352.96 140.09,-350.68 122.18,-348.64"/>
<polygon fill="#63b8ff" stroke="#63b8ff" points="178.44,-358.58 188.77,-356.24 179.23,-351.63 178.44,-358.58"/>
</a>
</g>
</g>
<!-- Node21 -->
<g id="Node000021" class="node">
<title>Node21</title>
<g id="a_Node000021"><a xlink:href="classSpan_1_1Application.html#a9dc7321cf43512eac3757a83fbefbaa9" target="_top" xlink:title="アプリケーションを実行します (ブロック関数)。">
<polygon fill="white" stroke="#666666" points="126,-253.5 0,-253.5 0,-234.5 126,-234.5 126,-253.5"/>
<text text-anchor="middle" x="63" y="-241.5" font-family="Helvetica,sans-Serif" font-size="10.00">Span::Application::Run</text>
</a>
</g>
</g>
<!-- Node20&#45;&gt;Node21 -->
<g id="edge29_Node000020_Node000021" class="edge">
<title>Node20&#45;&gt;Node21</title>
<g id="a_edge29_Node000020_Node000021"><a xlink:title=" ">
<path fill="none" stroke="#63b8ff" d="M158.35,-244C147.4,-244 136.42,-244 126.01,-244"/>
<polygon fill="#63b8ff" stroke="#63b8ff" points="158.37,-247.5 168.37,-244 158.37,-240.5 158.37,-247.5"/>
</a>
</g>
</g>
<!-- Node22&#45;&gt;Node12 -->
<g id="edge31_Node000022_Node000012" class="edge">
<title>Node22&#45;&gt;Node12</title>
<g id="a_edge31_Node000022_Node000012"><a xlink:title=" ">
<path fill="none" stroke="#63b8ff" d="M376.95,-653.85C354.86,-649.01 330.62,-643.69 309.29,-639.01"/>
<polygon fill="#63b8ff" stroke="#63b8ff" points="376.41,-657.32 386.93,-656.04 377.91,-650.48 376.41,-657.32"/>
</a>
</g>
</g>
<!-- Node23&#45;&gt;Node16 -->
<g id="edge33_Node000023_Node000016" class="edge">
<title>Node23&#45;&gt;Node16</title>
<g id="a_edge33_Node000023_Node000016"><a xlink:title=" ">
<path fill="none" stroke="#63b8ff" d="M374.78,-428.44C353.96,-433.54 331.4,-439.07 311.26,-444"/>
<polygon fill="#63b8ff" stroke="#63b8ff" points="375.64,-431.83 384.52,-426.06 373.98,-425.04 375.64,-431.83"/>
</a>
</g>
</g>
<!-- Node28&#45;&gt;Node20 -->
<g id="edge42_Node000028_Node000020" class="edge">
<title>Node28&#45;&gt;Node20</title>
<g id="a_edge42_Node000028_Node000020"><a xlink:title=" ">
<path fill="none" stroke="#63b8ff" d="M364.87,-244C353.26,-244 341.34,-244 329.76,-244"/>
<polygon fill="#63b8ff" stroke="#63b8ff" points="364.96,-247.5 374.96,-244 364.96,-240.5 364.96,-247.5"/>
</a>
</g>
</g>
<!-- Node30&#45;&gt;Node20 -->
<g id="edge45_Node000030_Node000020" class="edge">
<title>Node30&#45;&gt;Node20</title>
<g id="a_edge45_Node000030_Node000020"><a xlink:title=" ">
<path fill="none" stroke="#63b8ff" d="M385.36,-218.45C358.19,-223.58 326.52,-229.56 300.64,-234.44"/>
<polygon fill="#63b8ff" stroke="#63b8ff" points="386.35,-221.82 395.53,-216.53 385.05,-214.94 386.35,-221.82"/>
</a>
</g>
</g>
<!-- Node32 -->
<g id="Node000032" class="node">
<title>Node32</title>
<g id="a_Node000032"><a xlink:href="namespaceSpan.html#a3f4b8561d46e69596ba6a7c3177a92e7" target="_top" xlink:title=" ">
<polygon fill="white" stroke="#666666" points="517.5,-82.5 376.5,-82.5 376.5,-63.5 517.5,-63.5 517.5,-82.5"/>
<text text-anchor="middle" x="447" y="-70.5" font-family="Helvetica,sans-Serif" font-size="10.00">Span::ConsoleCtrlHandler</text>
</a>
</g>
</g>
<!-- Node31&#45;&gt;Node32 -->
<g id="edge47_Node000031_Node000032" class="edge">
<title>Node31&#45;&gt;Node32</title>
<g id="a_edge47_Node000031_Node000032"><a xlink:title=" ">
<path fill="none" stroke="#63b8ff" d="M549.94,-73C539.31,-73 528.34,-73 517.71,-73"/>
<polygon fill="#63b8ff" stroke="#63b8ff" points="550,-76.5 560,-73 550,-69.5 550,-76.5"/>
</a>
</g>
</g>
<!-- Node32&#45;&gt;Node9 -->
<g id="edge48_Node000032_Node000009" class="edge">
<title>Node32&#45;&gt;Node9</title>
<g id="a_edge48_Node000032_Node000009"><a xlink:title=" ">
<path fill="none" stroke="#63b8ff" d="M507.88,-84.26C524.1,-87.06 541.69,-89.87 558,-92 612.61,-99.13 675.44,-104.37 718.72,-107.52"/>
<polygon fill="#63b8ff" stroke="#63b8ff" points="508.43,-80.81 497.97,-82.53 507.22,-87.7 508.43,-80.81"/>
</a>
</g>
</g>
</g>
</svg>

<g id="navigator" transform="translate(0 0)" fill="#404254">
  <rect fill="#f2f5e9" fill-opacity="0.5" stroke="#606060" stroke-width=".5" x="0" y="0" width="60" height="60"/>
  <use id="zoomplus" xlink:href="#zoomPlus" x="17" y="9" onmousedown="handleZoom(evt,'in')"/>
  <use id="zoomminus" xlink:href="#zoomMin" x="42" y="9" onmousedown="handleZoom(evt,'out')"/>
  <use id="reset" xlink:href="#resetDef" x="30" y="36" onmousedown="handleReset()"/>
   <use id="arrowup" xlink:href="#arrowUp" x="0" y="0" onmousedown="handlePan(0,-1)"/>
  <use id="arrowright" xlink:href="#arrowRight" x="0" y="0" onmousedown="handlePan(1,0)"/>
  <use id="arrowdown" xlink:href="#arrowDown" x="0" y="0" onmousedown="handlePan(0,1)"/>
  <use id="arrowleft" xlink:href="#arrowLeft" x="0" y="0" onmousedown="handlePan(-1,0)"/>
</g>
<svg viewBox="0 0 15 15" width="100%" height="30px" preserveAspectRatio="xMaxYMin meet">
 <g id="arrow_out" transform="scale(0.3 0.3)">
  <a xlink:href="structSpan_1_1AssetMetadata_a83c8ed8bfd79a2aa90ed8d4e36b785b8_icgraph_org.svg" target="_base">
   <rect id="button" ry="5" rx="5" y="6" x="6" height="38" width="38"
        fill="#f2f5e9" fill-opacity="0.5" stroke="#606060" stroke-width="1.0"/>
   <path id="arrow"
     d="M 11.500037,31.436501 C 11.940474,20.09759 22.043105,11.32322 32.158766,21.979434 L 37.068811,17.246167 C 37.068811,17.246167 37.088388,32 37.088388,32 L 22.160133,31.978069 C 22.160133,31.978069 26.997745,27.140456 26.997745,27.140456 C 18.528582,18.264221 13.291696,25.230495 11.500037,31.436501 z"
     style="fill:#404040;"/>
  </a>
 </g>
</svg>

<style type='text/css'>
<![CDATA[
[data-mouse-over-selected='false'] { opacity: 0.7; }
[data-mouse-over-selected='true']  { opacity: 1.0; }
]]>
</style>
<script type="application/ecmascript"><![CDATA[
document.addEventListener('DOMContentLoaded', (event) => {
  highlightEdges();
  highlightAdjacentNodes();
});
]]></script>
</svg>
