<?xml version="1.0" encoding="UTF-8" standalone="no"?>
<!DOCTYPE svg PUBLIC "-//W3C//DTD SVG 1.1//EN"
 "http://www.w3.org/Graphics/SVG/1.1/DTD/svg11.dtd">
<!-- Generated by graphviz version 2.43.0 (0)
 -->
<!-- Title: Span::Quaternion::FromXM Pages: 1 -->
<svg width="884pt" height="230pt"
 viewBox="0.00 0.00 884.00 230.00" xmlns="http://www.w3.org/2000/svg" xmlns:xlink="http://www.w3.org/1999/xlink">
<g id="graph0" class="graph" transform="scale(1 1) rotate(0) translate(4 226)">
<title>Span::Quaternion::FromXM</title>
<!-- Node1 -->
<g id="Node000001" class="node">
<title>Node1</title>
<g id="a_Node000001"><a xlink:title=" ">
<polygon fill="#999999" stroke="#666666" points="876,-99 729,-99 729,-80 876,-80 876,-99"/>
<text text-anchor="middle" x="802.5" y="-87" font-family="Helvetica,sans-Serif" font-size="10.00">Span::Quaternion::FromXM</text>
</a>
</g>
</g>
<!-- Node2 -->
<g id="Node000002" class="node">
<title>Node2</title>
<g id="a_Node000002"><a xlink:href="structSpan_1_1Quaternion.html#a0b9a211626aa0851b99c60f6d3cc51d0" target="_top" xlink:title="軸と角度から作成">
<polygon fill="white" stroke="#666666" points="684,-179 529,-179 529,-160 684,-160 684,-179"/>
<text text-anchor="middle" x="606.5" y="-167" font-family="Helvetica,sans-Serif" font-size="10.00">Span::Quaternion::AngleAxis</text>
</a>
</g>
</g>
<!-- Node1&#45;&gt;Node2 -->
<g id="edge1_Node000001_Node000002" class="edge">
<title>Node1&#45;&gt;Node2</title>
<g id="a_edge1_Node000001_Node000002"><a xlink:title=" ">
<path fill="none" stroke="#63b8ff" d="M779.5,-104.82C758.27,-118.92 724.76,-139.42 693,-151.5 684.21,-154.84 674.66,-157.62 665.24,-159.91"/>
<polygon fill="#63b8ff" stroke="#63b8ff" points="781.48,-107.7 787.81,-99.21 777.56,-101.9 781.48,-107.7"/>
</a>
</g>
</g>
<!-- Node3 -->
<g id="Node000003" class="node">
<title>Node3</title>
<g id="a_Node000003"><a xlink:href="structSpan_1_1Quaternion.html#a6c97fc4feda68e8997cb1768689994b9" target="_top" xlink:title="オイラー角から作成">
<polygon fill="white" stroke="#666666" points="684.5,-142 528.5,-142 528.5,-123 684.5,-123 684.5,-142"/>
<text text-anchor="middle" x="606.5" y="-130" font-family="Helvetica,sans-Serif" font-size="10.00">Span::Quaternion::FromEuler</text>
</a>
</g>
</g>
<!-- Node1&#45;&gt;Node3 -->
<g id="edge2_Node000001_Node000003" class="edge">
<title>Node1&#45;&gt;Node3</title>
<g id="a_edge2_Node000001_Node000003"><a xlink:title=" ">
<path fill="none" stroke="#63b8ff" d="M748.32,-101.29C717.53,-108.11 679.29,-116.59 650.43,-122.98"/>
<polygon fill="#63b8ff" stroke="#63b8ff" points="749.44,-104.62 758.45,-99.04 747.92,-97.79 749.44,-104.62"/>
</a>
</g>
</g>
<!-- Node7 -->
<g id="Node000007" class="node">
<title>Node7</title>
<g id="a_Node000007"><a xlink:href="structSpan_1_1Quaternion.html#af2a0a1def4d845d030a45c5a26d32a80" target="_top" xlink:title="回転行列から変換 (実装は後述)">
<polygon fill="white" stroke="#666666" points="693,-104.5 520,-104.5 520,-74.5 693,-74.5 693,-104.5"/>
<text text-anchor="start" x="528" y="-92.5" font-family="Helvetica,sans-Serif" font-size="10.00">Span::Quaternion::FromRotation</text>
<text text-anchor="middle" x="606.5" y="-81.5" font-family="Helvetica,sans-Serif" font-size="10.00">Matrix</text>
</a>
</g>
</g>
<!-- Node1&#45;&gt;Node7 -->
<g id="edge6_Node000001_Node000007" class="edge">
<title>Node1&#45;&gt;Node7</title>
<g id="a_edge6_Node000001_Node000007"><a xlink:title=" ">
<path fill="none" stroke="#63b8ff" d="M718.98,-89.5C710.39,-89.5 701.64,-89.5 693.01,-89.5"/>
<polygon fill="#63b8ff" stroke="#63b8ff" points="718.99,-93 728.99,-89.5 718.99,-86 718.99,-93"/>
</a>
</g>
</g>
<!-- Node12 -->
<g id="Node000012" class="node">
<title>Node12</title>
<g id="a_Node000012"><a xlink:href="structSpan_1_1Quaternion.html#a351a2a63196e4443b1ae8942475564a1" target="_top" xlink:title=" ">
<polygon fill="white" stroke="#666666" points="683,-56 530,-56 530,-37 683,-37 683,-56"/>
<text text-anchor="middle" x="606.5" y="-44" font-family="Helvetica,sans-Serif" font-size="10.00">Span::Quaternion::operator*</text>
</a>
</g>
</g>
<!-- Node1&#45;&gt;Node12 -->
<g id="edge11_Node000001_Node000012" class="edge">
<title>Node1&#45;&gt;Node12</title>
<g id="a_edge11_Node000001_Node000012"><a xlink:title=" ">
<path fill="none" stroke="#63b8ff" d="M748.32,-77.71C717.53,-70.89 679.29,-62.41 650.43,-56.02"/>
<polygon fill="#63b8ff" stroke="#63b8ff" points="747.92,-81.21 758.45,-79.96 749.44,-74.38 747.92,-81.21"/>
</a>
</g>
</g>
<!-- Node13 -->
<g id="Node000013" class="node">
<title>Node13</title>
<g id="a_Node000013"><a xlink:href="structSpan_1_1Quaternion.html#a8da3f91aa9a5d59538a15cf3fe2c77d2" target="_top" xlink:title="球面線形補間 (Slerp)">
<polygon fill="white" stroke="#666666" points="672,-19 541,-19 541,0 672,0 672,-19"/>
<text text-anchor="middle" x="606.5" y="-7" font-family="Helvetica,sans-Serif" font-size="10.00">Span::Quaternion::Slerp</text>
</a>
</g>
</g>
<!-- Node1&#45;&gt;Node13 -->
<g id="edge12_Node000001_Node000013" class="edge">
<title>Node1&#45;&gt;Node13</title>
<g id="a_edge12_Node000001_Node000013"><a xlink:title=" ">
<path fill="none" stroke="#63b8ff" d="M779.5,-74.18C758.27,-60.08 724.76,-39.58 693,-27.5 684.21,-24.16 674.66,-21.38 665.24,-19.09"/>
<polygon fill="#63b8ff" stroke="#63b8ff" points="777.56,-77.1 787.81,-79.79 781.48,-71.3 777.56,-77.1"/>
</a>
</g>
</g>
<!-- Node4 -->
<g id="Node000004" class="node">
<title>Node4</title>
<g id="a_Node000004"><a xlink:href="structSpan_1_1Quaternion.html#a7429b284947d6d1123b4e56ac4e2cf74" target="_top" xlink:title="オイラー角から作成">
<polygon fill="white" stroke="#666666" points="482,-222 326,-222 326,-203 482,-203 482,-222"/>
<text text-anchor="middle" x="404" y="-210" font-family="Helvetica,sans-Serif" font-size="10.00">Span::Quaternion::FromEuler</text>
</a>
</g>
</g>
<!-- Node3&#45;&gt;Node4 -->
<g id="edge3_Node000003_Node000004" class="edge">
<title>Node3&#45;&gt;Node4</title>
<g id="a_edge3_Node000003_Node000004"><a xlink:title=" ">
<path fill="none" stroke="#63b8ff" d="M531.31,-145.69C527.38,-147.39 523.58,-149.32 520,-151.5 498.7,-164.45 505.26,-181.5 484,-194.5 478.36,-197.95 472.13,-200.74 465.71,-202.99"/>
<polygon fill="#63b8ff" stroke="#63b8ff" points="532.61,-148.94 540.69,-142.09 530.1,-142.4 532.61,-148.94"/>
</a>
</g>
</g>
<!-- Node5 -->
<g id="Node000005" class="node">
<title>Node5</title>
<g id="a_Node000005"><a xlink:href="structSpan_1_1Transform.html#ac8c51921144bb458d1850814a7f9bd99" target="_top" xlink:title=" ">
<polygon fill="white" stroke="#666666" points="458,-185 350,-185 350,-166 458,-166 458,-185"/>
<text text-anchor="middle" x="404" y="-173" font-family="Helvetica,sans-Serif" font-size="10.00">Span::Transform::if</text>
</a>
</g>
</g>
<!-- Node3&#45;&gt;Node5 -->
<g id="edge4_Node000003_Node000005" class="edge">
<title>Node3&#45;&gt;Node5</title>
<g id="a_edge4_Node000003_Node000005"><a xlink:title=" ">
<path fill="none" stroke="#63b8ff" d="M550.95,-144.2C519.06,-151.04 479.33,-159.56 449.37,-165.98"/>
<polygon fill="#63b8ff" stroke="#63b8ff" points="551.96,-147.56 561,-142.04 550.49,-140.72 551.96,-147.56"/>
</a>
</g>
</g>
<!-- Node6 -->
<g id="Node000006" class="node">
<title>Node6</title>
<g id="a_Node000006"><a xlink:href="classSpan_1_1EditorCameraSystem.html#ae933964fa5d0f299954c926cf63e091a" target="_top" xlink:title="毎フレーム呼び出されます。ここにゲームロジックを記述します。">
<polygon fill="white" stroke="#666666" points="479,-147.5 329,-147.5 329,-117.5 479,-117.5 479,-147.5"/>
<text text-anchor="start" x="337" y="-135.5" font-family="Helvetica,sans-Serif" font-size="10.00">Span::EditorCameraSystem</text>
<text text-anchor="middle" x="404" y="-124.5" font-family="Helvetica,sans-Serif" font-size="10.00">::OnUpdate</text>
</a>
</g>
</g>
<!-- Node3&#45;&gt;Node6 -->
<g id="edge5_Node000003_Node000006" class="edge">
<title>Node3&#45;&gt;Node6</title>
<g id="a_edge5_Node000003_Node000006"><a xlink:title=" ">
<path fill="none" stroke="#63b8ff" d="M517.98,-132.5C505.06,-132.5 491.84,-132.5 479.22,-132.5"/>
<polygon fill="#63b8ff" stroke="#63b8ff" points="518.27,-136 528.27,-132.5 518.27,-129 518.27,-136"/>
</a>
</g>
</g>
<!-- Node8 -->
<g id="Node000008" class="node">
<title>Node8</title>
<g id="a_Node000008"><a xlink:href="structSpan_1_1Matrix4x4.html#aea4a95a235a15e6ad3366fd07649d253" target="_top" xlink:title="行列を 移動・回転・スケール に分解する">
<polygon fill="white" stroke="#666666" points="484,-99 324,-99 324,-80 484,-80 484,-99"/>
<text text-anchor="middle" x="404" y="-87" font-family="Helvetica,sans-Serif" font-size="10.00">Span::Matrix4x4::Decompose</text>
</a>
</g>
</g>
<!-- Node7&#45;&gt;Node8 -->
<g id="edge7_Node000007_Node000008" class="edge">
<title>Node7&#45;&gt;Node8</title>
<g id="a_edge7_Node000007_Node000008"><a xlink:title=" ">
<path fill="none" stroke="#63b8ff" d="M509.87,-89.5C501.3,-89.5 492.69,-89.5 484.29,-89.5"/>
<polygon fill="#63b8ff" stroke="#63b8ff" points="509.89,-93 519.89,-89.5 509.89,-86 509.89,-93"/>
</a>
</g>
</g>
<!-- Node11 -->
<g id="Node000011" class="node">
<title>Node11</title>
<g id="a_Node000011"><a xlink:href="structSpan_1_1Transform.html#a22e91c428e57737b16a5e9281a28a610" target="_top" xlink:title="指定したターゲット座標を向くように回転を設定します。">
<polygon fill="white" stroke="#666666" points="471.5,-62 336.5,-62 336.5,-43 471.5,-43 471.5,-62"/>
<text text-anchor="middle" x="404" y="-50" font-family="Helvetica,sans-Serif" font-size="10.00">Span::Transform::LookAt</text>
</a>
</g>
</g>
<!-- Node7&#45;&gt;Node11 -->
<g id="edge10_Node000007_Node000011" class="edge">
<title>Node7&#45;&gt;Node11</title>
<g id="a_edge10_Node000007_Node000011"><a xlink:title=" ">
<path fill="none" stroke="#63b8ff" d="M514.01,-72.62C494.29,-68.98 474.12,-65.25 456.57,-62.02"/>
<polygon fill="#63b8ff" stroke="#63b8ff" points="513.48,-76.08 523.95,-74.45 514.75,-69.19 513.48,-76.08"/>
</a>
</g>
</g>
<!-- Node9 -->
<g id="Node000009" class="node">
<title>Node9</title>
<g id="a_Node000009"><a xlink:href="classSpan_1_1SceneViewPanel.html#ad83a4a55f083c75371d0873322808796" target="_top" xlink:title="選択中のオブジェクトに対してマニピュレータ (矢印など) を描画します。">
<polygon fill="white" stroke="#666666" points="288,-104.5 162,-104.5 162,-74.5 288,-74.5 288,-104.5"/>
<text text-anchor="start" x="170" y="-92.5" font-family="Helvetica,sans-Serif" font-size="10.00">Span::SceneViewPanel</text>
<text text-anchor="middle" x="225" y="-81.5" font-family="Helvetica,sans-Serif" font-size="10.00">::DrawGizmo</text>
</a>
</g>
</g>
<!-- Node8&#45;&gt;Node9 -->
<g id="edge8_Node000008_Node000009" class="edge">
<title>Node8&#45;&gt;Node9</title>
<g id="a_edge8_Node000008_Node000009"><a xlink:title=" ">
<path fill="none" stroke="#63b8ff" d="M313.69,-89.5C305.04,-89.5 296.41,-89.5 288.12,-89.5"/>
<polygon fill="#63b8ff" stroke="#63b8ff" points="313.82,-93 323.82,-89.5 313.82,-86 313.82,-93"/>
</a>
</g>
</g>
<!-- Node10 -->
<g id="Node000010" class="node">
<title>Node10</title>
<g id="a_Node000010"><a xlink:href="classSpan_1_1SceneViewPanel.html#aab2935de58bd68267a680cabd3656c9f" target="_top" xlink:title="毎フレームの描画処理。 画像の表示、ツールバーのオーバーレイ、ギズモの描画を行います。">
<polygon fill="white" stroke="#666666" points="126,-104.5 0,-104.5 0,-74.5 126,-74.5 126,-104.5"/>
<text text-anchor="start" x="8" y="-92.5" font-family="Helvetica,sans-Serif" font-size="10.00">Span::SceneViewPanel</text>
<text text-anchor="middle" x="63" y="-81.5" font-family="Helvetica,sans-Serif" font-size="10.00">::OnImGuiRender</text>
</a>
</g>
</g>
<!-- Node9&#45;&gt;Node10 -->
<g id="edge9_Node000009_Node000010" class="edge">
<title>Node9&#45;&gt;Node10</title>
<g id="a_edge9_Node000009_Node000010"><a xlink:title=" ">
<path fill="none" stroke="#63b8ff" d="M151.45,-89.5C143,-89.5 134.44,-89.5 126.15,-89.5"/>
<polygon fill="#63b8ff" stroke="#63b8ff" points="151.68,-93 161.68,-89.5 151.68,-86 151.68,-93"/>
</a>
</g>
</g>
</g>
</svg>
