<?xml version="1.0" encoding="UTF-8" standalone="no"?>
<!DOCTYPE svg PUBLIC "-//W3C//DTD SVG 1.1//EN"
 "http://www.w3.org/Graphics/SVG/1.1/DTD/svg11.dtd">
<!-- Generated by graphviz version 2.43.0 (0)
 -->
<!-- Title: Span::Vector3::Vector3 Pages: 1 -->
<svg width="511pt" height="360pt"
 viewBox="0.00 0.00 511.00 360.00" xmlns="http://www.w3.org/2000/svg" xmlns:xlink="http://www.w3.org/1999/xlink">
<g id="graph0" class="graph" transform="scale(1 1) rotate(0) translate(4 356)">
<title>Span::Vector3::Vector3</title>
<!-- Node1 -->
<g id="Node000001" class="node">
<title>Node1</title>
<g id="a_Node000001"><a xlink:title=" ">
<polygon fill="#999999" stroke="#666666" points="503,-185 377,-185 377,-166 503,-166 503,-185"/>
<text text-anchor="middle" x="440" y="-173" font-family="Helvetica,sans-Serif" font-size="10.00">Span::Vector3::Vector3</text>
</a>
</g>
</g>
<!-- Node2 -->
<g id="Node000002" class="node">
<title>Node2</title>
<g id="a_Node000002"><a xlink:href="structSpan_1_1Vector3.html#af88324745a94c795f6b1190d5a7e7247" target="_top" xlink:title="外積 (Cross Product)">
<polygon fill="white" stroke="#666666" points="325.5,-352 209.5,-352 209.5,-333 325.5,-333 325.5,-352"/>
<text text-anchor="middle" x="267.5" y="-340" font-family="Helvetica,sans-Serif" font-size="10.00">Span::Vector3::Cross</text>
</a>
</g>
</g>
<!-- Node1&#45;&gt;Node2 -->
<g id="edge1_Node000001_Node000002" class="edge">
<title>Node1&#45;&gt;Node2</title>
<g id="a_edge1_Node000001_Node000002"><a xlink:title=" ">
<path fill="none" stroke="#63b8ff" d="M431.75,-194.91C418.72,-227.04 388.22,-291.06 341,-324.5 336.13,-327.95 330.67,-330.74 324.99,-332.99"/>
<polygon fill="#63b8ff" stroke="#63b8ff" points="435.12,-195.91 435.5,-185.33 428.6,-193.36 435.12,-195.91"/>
</a>
</g>
</g>
<!-- Node4 -->
<g id="Node000004" class="node">
<title>Node4</title>
<g id="a_Node000004"><a xlink:href="structSpan_1_1Vector3.html#afd00ea2d739d71571828e2d44b41c0c6" target="_top" xlink:title="内積 (Dot Product)">
<polygon fill="white" stroke="#666666" points="321,-315 214,-315 214,-296 321,-296 321,-315"/>
<text text-anchor="middle" x="267.5" y="-303" font-family="Helvetica,sans-Serif" font-size="10.00">Span::Vector3::Dot</text>
</a>
</g>
</g>
<!-- Node1&#45;&gt;Node4 -->
<g id="edge3_Node000001_Node000004" class="edge">
<title>Node1&#45;&gt;Node4</title>
<g id="a_edge3_Node000001_Node000004"><a xlink:title=" ">
<path fill="none" stroke="#63b8ff" d="M428.25,-193.59C412.39,-218.64 380.31,-263.52 341,-287.5 334.91,-291.21 328.09,-294.16 321.14,-296.5"/>
<polygon fill="#63b8ff" stroke="#63b8ff" points="431.25,-195.39 433.51,-185.04 425.29,-191.72 431.25,-195.39"/>
</a>
</g>
</g>
<!-- Node5 -->
<g id="Node000005" class="node">
<title>Node5</title>
<g id="a_Node000005"><a xlink:href="structSpan_1_1Vector3.html#a636702ff63ba665c96251f818180e173" target="_top" xlink:title="ベクトルの長さ (Magnitude)">
<polygon fill="white" stroke="#666666" points="322.5,-278 212.5,-278 212.5,-259 322.5,-259 322.5,-278"/>
<text text-anchor="middle" x="267.5" y="-266" font-family="Helvetica,sans-Serif" font-size="10.00">Span::Vector3::Lerp</text>
</a>
</g>
</g>
<!-- Node1&#45;&gt;Node5 -->
<g id="edge5_Node000001_Node000005" class="edge">
<title>Node1&#45;&gt;Node5</title>
<g id="a_edge5_Node000001_Node000005"><a xlink:title=" ">
<path fill="none" stroke="#63b8ff" d="M422.02,-192.04C403.56,-209.13 372.45,-235.37 341,-250.5 333.99,-253.87 326.28,-256.65 318.59,-258.93"/>
<polygon fill="#63b8ff" stroke="#63b8ff" points="424.48,-194.53 429.35,-185.12 419.67,-189.44 424.48,-194.53"/>
</a>
</g>
</g>
<!-- Node6 -->
<g id="Node000006" class="node">
<title>Node6</title>
<g id="a_Node000006"><a xlink:href="structSpan_1_1Vector3.html#aabe270fd26b1d874df94a455faef13c5" target="_top" xlink:title="正規化ベクトルを返します (SIMD高速化版)">
<polygon fill="white" stroke="#666666" points="340.5,-241 194.5,-241 194.5,-222 340.5,-222 340.5,-241"/>
<text text-anchor="middle" x="267.5" y="-229" font-family="Helvetica,sans-Serif" font-size="10.00">Span::Vector3::Normalized</text>
</a>
</g>
</g>
<!-- Node1&#45;&gt;Node6 -->
<g id="edge6_Node000001_Node000006" class="edge">
<title>Node1&#45;&gt;Node6</title>
<g id="a_edge6_Node000001_Node000006"><a xlink:title=" ">
<path fill="none" stroke="#63b8ff" d="M407.34,-188.95C388.32,-196.74 363.52,-206.37 341,-213.5 331.36,-216.55 320.86,-219.42 310.92,-221.92"/>
<polygon fill="#63b8ff" stroke="#63b8ff" points="408.81,-192.13 416.71,-185.07 406.13,-185.66 408.81,-192.13"/>
</a>
</g>
</g>
<!-- Node11 -->
<g id="Node000011" class="node">
<title>Node11</title>
<g id="a_Node000011"><a xlink:href="structSpan_1_1Vector3.html#a9729500317b93907948bae240455f20a" target="_top" xlink:title=" ">
<polygon fill="white" stroke="#666666" points="335.5,-204 199.5,-204 199.5,-185 335.5,-185 335.5,-204"/>
<text text-anchor="middle" x="267.5" y="-192" font-family="Helvetica,sans-Serif" font-size="10.00">Span::Vector3::operator*</text>
</a>
</g>
</g>
<!-- Node1&#45;&gt;Node11 -->
<g id="edge12_Node000001_Node000011" class="edge">
<title>Node1&#45;&gt;Node11</title>
<g id="a_edge12_Node000001_Node000011"><a xlink:title=" ">
<path fill="none" stroke="#63b8ff" d="M366.76,-183.55C356.45,-184.7 345.88,-185.88 335.67,-187.01"/>
<polygon fill="#63b8ff" stroke="#63b8ff" points="367.41,-187 376.96,-182.41 366.64,-180.04 367.41,-187"/>
</a>
</g>
</g>
<!-- Node12 -->
<g id="Node000012" class="node">
<title>Node12</title>
<g id="a_Node000012"><a xlink:href="structSpan_1_1Vector3.html#a40244b6bed49e575ebc61acef2480f66" target="_top" xlink:title=" ">
<polygon fill="white" stroke="#666666" points="337,-167 198,-167 198,-148 337,-148 337,-167"/>
<text text-anchor="middle" x="267.5" y="-155" font-family="Helvetica,sans-Serif" font-size="10.00">Span::Vector3::operator+</text>
</a>
</g>
</g>
<!-- Node1&#45;&gt;Node12 -->
<g id="edge13_Node000001_Node000012" class="edge">
<title>Node1&#45;&gt;Node12</title>
<g id="a_edge13_Node000001_Node000012"><a xlink:title=" ">
<path fill="none" stroke="#63b8ff" d="M366.82,-167.88C356.97,-166.84 346.9,-165.78 337.12,-164.74"/>
<polygon fill="#63b8ff" stroke="#63b8ff" points="366.65,-171.38 376.96,-168.95 367.39,-164.42 366.65,-171.38"/>
</a>
</g>
</g>
<!-- Node13 -->
<g id="Node000013" class="node">
<title>Node13</title>
<g id="a_Node000013"><a xlink:href="structSpan_1_1Vector3.html#a8e898bf6d62eeecbf31292fdd3759d1f" target="_top" xlink:title=" ">
<polygon fill="white" stroke="#666666" points="341,-130 194,-130 194,-111 341,-111 341,-130"/>
<text text-anchor="middle" x="267.5" y="-118" font-family="Helvetica,sans-Serif" font-size="10.00">Span::Vector3::operator+=</text>
</a>
</g>
</g>
<!-- Node1&#45;&gt;Node13 -->
<g id="edge14_Node000001_Node000013" class="edge">
<title>Node1&#45;&gt;Node13</title>
<g id="a_edge14_Node000001_Node000013"><a xlink:title=" ">
<path fill="none" stroke="#63b8ff" d="M406.55,-162.15C387.62,-154.64 363.18,-145.41 341,-138.5 331.22,-135.45 320.57,-132.57 310.52,-130.04"/>
<polygon fill="#63b8ff" stroke="#63b8ff" points="405.32,-165.43 415.9,-165.9 407.92,-158.93 405.32,-165.43"/>
</a>
</g>
</g>
<!-- Node14 -->
<g id="Node000014" class="node">
<title>Node14</title>
<g id="a_Node000014"><a xlink:href="structSpan_1_1Vector3.html#a8c52a69623ad1183bd1348d901cfff3d" target="_top" xlink:title=" ">
<polygon fill="white" stroke="#666666" points="334.5,-93 200.5,-93 200.5,-74 334.5,-74 334.5,-93"/>
<text text-anchor="middle" x="267.5" y="-81" font-family="Helvetica,sans-Serif" font-size="10.00">Span::Vector3::operator&#45;</text>
</a>
</g>
</g>
<!-- Node1&#45;&gt;Node14 -->
<g id="edge15_Node000001_Node000014" class="edge">
<title>Node1&#45;&gt;Node14</title>
<g id="a_edge15_Node000001_Node000014"><a xlink:title=" ">
<path fill="none" stroke="#63b8ff" d="M421.68,-158.92C403.15,-142.06 372.18,-116.37 341,-101.5 333.98,-98.15 326.26,-95.38 318.57,-93.11"/>
<polygon fill="#63b8ff" stroke="#63b8ff" points="419.34,-161.52 429.05,-165.76 424.1,-156.39 419.34,-161.52"/>
</a>
</g>
</g>
<!-- Node15 -->
<g id="Node000015" class="node">
<title>Node15</title>
<g id="a_Node000015"><a xlink:href="structSpan_1_1Vector3.html#ac45b47abaa71bc1131bab20d68e237ed" target="_top" xlink:title=" ">
<polygon fill="white" stroke="#666666" points="339,-56 196,-56 196,-37 339,-37 339,-56"/>
<text text-anchor="middle" x="267.5" y="-44" font-family="Helvetica,sans-Serif" font-size="10.00">Span::Vector3::operator&#45;=</text>
</a>
</g>
</g>
<!-- Node1&#45;&gt;Node15 -->
<g id="edge16_Node000001_Node000015" class="edge">
<title>Node1&#45;&gt;Node15</title>
<g id="a_edge16_Node000001_Node000015"><a xlink:title=" ">
<path fill="none" stroke="#63b8ff" d="M427.97,-157.2C411.98,-132.3 379.97,-88.15 341,-64.5 335.35,-61.07 329.07,-58.29 322.64,-56.04"/>
<polygon fill="#63b8ff" stroke="#63b8ff" points="425.02,-159.09 433.29,-165.72 430.96,-155.38 425.02,-159.09"/>
</a>
</g>
</g>
<!-- Node16 -->
<g id="Node000016" class="node">
<title>Node16</title>
<g id="a_Node000016"><a xlink:href="structSpan_1_1Vector3.html#a4e5f465b5df122d7905c407f99b38232" target="_top" xlink:title=" ">
<polygon fill="white" stroke="#666666" points="334.5,-19 200.5,-19 200.5,0 334.5,0 334.5,-19"/>
<text text-anchor="middle" x="267.5" y="-7" font-family="Helvetica,sans-Serif" font-size="10.00">Span::Vector3::operator/</text>
</a>
</g>
</g>
<!-- Node1&#45;&gt;Node16 -->
<g id="edge17_Node000001_Node000016" class="edge">
<title>Node1&#45;&gt;Node16</title>
<g id="a_edge17_Node000001_Node000016"><a xlink:title=" ">
<path fill="none" stroke="#63b8ff" d="M431.71,-156.22C418.63,-124.3 388.05,-60.71 341,-27.5 336.13,-24.06 330.66,-21.27 324.98,-19.02"/>
<polygon fill="#63b8ff" stroke="#63b8ff" points="428.55,-157.73 435.48,-165.74 435.06,-155.15 428.55,-157.73"/>
</a>
</g>
</g>
<!-- Node3 -->
<g id="Node000003" class="node">
<title>Node3</title>
<g id="a_Node000003"><a xlink:href="structSpan_1_1Transform.html#a22e91c428e57737b16a5e9281a28a610" target="_top" xlink:title="指定したターゲット座標を向くように回転を設定します。">
<polygon fill="white" stroke="#666666" points="146.5,-315 11.5,-315 11.5,-296 146.5,-296 146.5,-315"/>
<text text-anchor="middle" x="79" y="-303" font-family="Helvetica,sans-Serif" font-size="10.00">Span::Transform::LookAt</text>
</a>
</g>
</g>
<!-- Node2&#45;&gt;Node3 -->
<g id="edge2_Node000002_Node000003" class="edge">
<title>Node2&#45;&gt;Node3</title>
<g id="a_edge2_Node000002_Node000003"><a xlink:title=" ">
<path fill="none" stroke="#63b8ff" d="M208.45,-330.98C182.68,-325.87 152.7,-319.92 128.19,-315.06"/>
<polygon fill="#63b8ff" stroke="#63b8ff" points="207.98,-334.46 218.47,-332.97 209.34,-327.59 207.98,-334.46"/>
</a>
</g>
</g>
<!-- Node4&#45;&gt;Node3 -->
<g id="edge4_Node000004_Node000003" class="edge">
<title>Node4&#45;&gt;Node3</title>
<g id="a_edge4_Node000004_Node000003"><a xlink:title=" ">
<path fill="none" stroke="#63b8ff" d="M203.34,-305.5C185.11,-305.5 165.16,-305.5 146.73,-305.5"/>
<polygon fill="#63b8ff" stroke="#63b8ff" points="203.56,-309 213.56,-305.5 203.56,-302 203.56,-309"/>
</a>
</g>
</g>
<!-- Node6&#45;&gt;Node3 -->
<g id="edge10_Node000006_Node000003" class="edge">
<title>Node6&#45;&gt;Node3</title>
<g id="a_edge10_Node000006_Node000003"><a xlink:title=" ">
<path fill="none" stroke="#63b8ff" d="M206.16,-244.54C201.93,-246.29 197.83,-248.27 194,-250.5 174.18,-262.05 177.99,-276.24 158,-287.5 151.95,-290.91 145.28,-293.67 138.47,-295.92"/>
<polygon fill="#63b8ff" stroke="#63b8ff" points="207.39,-247.82 215.56,-241.07 204.97,-241.25 207.39,-247.82"/>
</a>
</g>
</g>
<!-- Node7 -->
<g id="Node000007" class="node">
<title>Node7</title>
<g id="a_Node000007"><a xlink:href="structSpan_1_1Transform.html#a132f40241af247849e79067db6ad62b4" target="_top" xlink:title="前方ベクトル (Local Forward / Z+) を取得します。">
<polygon fill="white" stroke="#666666" points="158,-278 0,-278 0,-259 158,-259 158,-278"/>
<text text-anchor="middle" x="79" y="-266" font-family="Helvetica,sans-Serif" font-size="10.00">Span::Transform::GetForward</text>
</a>
</g>
</g>
<!-- Node6&#45;&gt;Node7 -->
<g id="edge7_Node000006_Node000007" class="edge">
<title>Node6&#45;&gt;Node7</title>
<g id="a_edge7_Node000006_Node000007"><a xlink:title=" ">
<path fill="none" stroke="#63b8ff" d="M208.45,-243.02C182.68,-248.13 152.7,-254.08 128.19,-258.94"/>
<polygon fill="#63b8ff" stroke="#63b8ff" points="209.34,-246.41 218.47,-241.03 207.98,-239.54 209.34,-246.41"/>
</a>
</g>
</g>
<!-- Node8 -->
<g id="Node000008" class="node">
<title>Node8</title>
<g id="a_Node000008"><a xlink:href="structSpan_1_1Transform.html#a201045237f4cff825ff023848c5967fa" target="_top" xlink:title="右方向ベクトル (Local Right / X+) を取得します。">
<polygon fill="white" stroke="#666666" points="151,-241 7,-241 7,-222 151,-222 151,-241"/>
<text text-anchor="middle" x="79" y="-229" font-family="Helvetica,sans-Serif" font-size="10.00">Span::Transform::GetRight</text>
</a>
</g>
</g>
<!-- Node6&#45;&gt;Node8 -->
<g id="edge8_Node000006_Node000008" class="edge">
<title>Node6&#45;&gt;Node8</title>
<g id="a_edge8_Node000006_Node000008"><a xlink:title=" ">
<path fill="none" stroke="#63b8ff" d="M184.35,-231.5C173.34,-231.5 162.11,-231.5 151.3,-231.5"/>
<polygon fill="#63b8ff" stroke="#63b8ff" points="184.39,-235 194.39,-231.5 184.39,-228 184.39,-235"/>
</a>
</g>
</g>
<!-- Node9 -->
<g id="Node000009" class="node">
<title>Node9</title>
<g id="a_Node000009"><a xlink:href="structSpan_1_1Transform.html#a4251fb155ba185e11247bd5b8044a003" target="_top" xlink:title="上方向ベクトル (Local Up / Y+) を取得します。">
<polygon fill="white" stroke="#666666" points="145,-204 13,-204 13,-185 145,-185 145,-204"/>
<text text-anchor="middle" x="79" y="-192" font-family="Helvetica,sans-Serif" font-size="10.00">Span::Transform::GetUp</text>
</a>
</g>
</g>
<!-- Node6&#45;&gt;Node9 -->
<g id="edge9_Node000006_Node000009" class="edge">
<title>Node6&#45;&gt;Node9</title>
<g id="a_edge9_Node000006_Node000009"><a xlink:title=" ">
<path fill="none" stroke="#63b8ff" d="M208.45,-219.98C182.68,-214.87 152.7,-208.92 128.19,-204.06"/>
<polygon fill="#63b8ff" stroke="#63b8ff" points="207.98,-223.46 218.47,-221.97 209.34,-216.59 207.98,-223.46"/>
</a>
</g>
</g>
<!-- Node10 -->
<g id="Node000010" class="node">
<title>Node10</title>
<g id="a_Node000010"><a xlink:href="classSpan_1_1EditorCameraSystem.html#ae933964fa5d0f299954c926cf63e091a" target="_top" xlink:title="毎フレーム呼び出されます。ここにゲームロジックを記述します。">
<polygon fill="white" stroke="#666666" points="154,-166.5 4,-166.5 4,-136.5 154,-136.5 154,-166.5"/>
<text text-anchor="start" x="12" y="-154.5" font-family="Helvetica,sans-Serif" font-size="10.00">Span::EditorCameraSystem</text>
<text text-anchor="middle" x="79" y="-143.5" font-family="Helvetica,sans-Serif" font-size="10.00">::OnUpdate</text>
</a>
</g>
</g>
<!-- Node6&#45;&gt;Node10 -->
<g id="edge11_Node000006_Node000010" class="edge">
<title>Node6&#45;&gt;Node10</title>
<g id="a_edge11_Node000006_Node000010"><a xlink:title=" ">
<path fill="none" stroke="#63b8ff" d="M203.44,-218.26C200.17,-216.83 197,-215.25 194,-213.5 173.9,-201.78 177.77,-187.77 158,-175.5 152.46,-172.06 146.4,-169.09 140.17,-166.52"/>
<polygon fill="#63b8ff" stroke="#63b8ff" points="202.27,-221.56 212.86,-221.9 204.79,-215.03 202.27,-221.56"/>
</a>
</g>
</g>
</g>
</svg>
