<?xml version="1.0" encoding="UTF-8" standalone="no"?>
<!DOCTYPE svg PUBLIC "-//W3C//DTD SVG 1.1//EN"
 "http://www.w3.org/Graphics/SVG/1.1/DTD/svg11.dtd">
<!-- Generated by graphviz version 2.43.0 (0)
 -->
<!-- Title: Span::Vector3::FromXM Pages: 1 -->
<svg width="676pt" height="285pt"
 viewBox="0.00 0.00 676.00 284.50" xmlns="http://www.w3.org/2000/svg" xmlns:xlink="http://www.w3.org/1999/xlink">
<g id="graph0" class="graph" transform="scale(1 1) rotate(0) translate(4 280.5)">
<title>Span::Vector3::FromXM</title>
<!-- Node1 -->
<g id="Node000001" class="node">
<title>Node1</title>
<g id="a_Node000001"><a xlink:title=" ">
<polygon fill="#999999" stroke="#666666" points="668,-190.5 538,-190.5 538,-171.5 668,-171.5 668,-190.5"/>
<text text-anchor="middle" x="603" y="-178.5" font-family="Helvetica,sans-Serif" font-size="10.00">Span::Vector3::FromXM</text>
</a>
</g>
</g>
<!-- Node2 -->
<g id="Node000002" class="node">
<title>Node2</title>
<g id="a_Node000002"><a xlink:href="structSpan_1_1Vector3.html#af88324745a94c795f6b1190d5a7e7247" target="_top" xlink:title="外積 (Cross Product)">
<polygon fill="white" stroke="#666666" points="487,-271.5 371,-271.5 371,-252.5 487,-252.5 487,-271.5"/>
<text text-anchor="middle" x="429" y="-259.5" font-family="Helvetica,sans-Serif" font-size="10.00">Span::Vector3::Cross</text>
</a>
</g>
</g>
<!-- Node1&#45;&gt;Node2 -->
<g id="edge1_Node000001_Node000002" class="edge">
<title>Node1&#45;&gt;Node2</title>
<g id="a_edge1_Node000001_Node000002"><a xlink:title=" ">
<path fill="none" stroke="#63b8ff" d="M579.42,-196.42C559.67,-209.39 529.87,-227.73 502,-240 490.99,-244.85 478.6,-249.05 467.24,-252.45"/>
<polygon fill="#63b8ff" stroke="#63b8ff" points="581.61,-199.17 588,-190.71 577.73,-193.34 581.61,-199.17"/>
</a>
</g>
</g>
<!-- Node4 -->
<g id="Node000004" class="node">
<title>Node4</title>
<g id="a_Node000004"><a xlink:href="structSpan_1_1Vector3.html#a636702ff63ba665c96251f818180e173" target="_top" xlink:title="ベクトルの長さ (Magnitude)">
<polygon fill="white" stroke="#666666" points="484,-230.5 374,-230.5 374,-211.5 484,-211.5 484,-230.5"/>
<text text-anchor="middle" x="429" y="-218.5" font-family="Helvetica,sans-Serif" font-size="10.00">Span::Vector3::Lerp</text>
</a>
</g>
</g>
<!-- Node1&#45;&gt;Node4 -->
<g id="edge3_Node000001_Node000004" class="edge">
<title>Node1&#45;&gt;Node4</title>
<g id="a_edge3_Node000001_Node000004"><a xlink:title=" ">
<path fill="none" stroke="#63b8ff" d="M550.91,-192.88C525.35,-198.82 494.84,-205.92 470.86,-211.5"/>
<polygon fill="#63b8ff" stroke="#63b8ff" points="551.85,-196.26 560.8,-190.58 550.27,-189.44 551.85,-196.26"/>
</a>
</g>
</g>
<!-- Node6 -->
<g id="Node000006" class="node">
<title>Node6</title>
<g id="a_Node000006"><a xlink:href="structSpan_1_1Vector3.html#ad292c1f2a680e5e02bf8d3ba0be67b79" target="_top" xlink:title="ベクトルの長さ (Magnitude)">
<polygon fill="white" stroke="#666666" points="499,-153.5 359,-153.5 359,-134.5 499,-134.5 499,-153.5"/>
<text text-anchor="middle" x="429" y="-141.5" font-family="Helvetica,sans-Serif" font-size="10.00">Span::Vector3::Normalize</text>
</a>
</g>
</g>
<!-- Node1&#45;&gt;Node6 -->
<g id="edge5_Node000001_Node000006" class="edge">
<title>Node1&#45;&gt;Node6</title>
<g id="a_edge5_Node000001_Node000006"><a xlink:title=" ">
<path fill="none" stroke="#63b8ff" d="M547.83,-169.35C524.21,-164.27 496.85,-158.38 474.44,-153.56"/>
<polygon fill="#63b8ff" stroke="#63b8ff" points="547.19,-172.79 557.71,-171.47 548.67,-165.95 547.19,-172.79"/>
</a>
</g>
</g>
<!-- Node8 -->
<g id="Node000008" class="node">
<title>Node8</title>
<g id="a_Node000008"><a xlink:href="structSpan_1_1Vector3.html#aef4eb0408856991e853d0e0c8644bf96" target="_top" xlink:title="ベクトルの長さ (Magnitude)">
<polygon fill="white" stroke="#666666" points="499,-116.5 359,-116.5 359,-97.5 499,-97.5 499,-116.5"/>
<text text-anchor="middle" x="429" y="-104.5" font-family="Helvetica,sans-Serif" font-size="10.00">Span::Vector3::Normalize</text>
</a>
</g>
</g>
<!-- Node1&#45;&gt;Node8 -->
<g id="edge7_Node000001_Node000008" class="edge">
<title>Node1&#45;&gt;Node8</title>
<g id="a_edge7_Node000001_Node000008"><a xlink:title=" ">
<path fill="none" stroke="#63b8ff" d="M579.12,-165.86C559.39,-153.39 529.78,-136.02 502,-125 493.74,-121.72 484.7,-118.9 475.9,-116.53"/>
<polygon fill="#63b8ff" stroke="#63b8ff" points="577.39,-168.91 587.7,-171.37 581.18,-163.03 577.39,-168.91"/>
</a>
</g>
</g>
<!-- Node9 -->
<g id="Node000009" class="node">
<title>Node9</title>
<g id="a_Node000009"><a xlink:href="structSpan_1_1Vector3.html#aabe270fd26b1d874df94a455faef13c5" target="_top" xlink:title="正規化ベクトルを返します (SIMD高速化版)">
<polygon fill="white" stroke="#666666" points="502,-190.5 356,-190.5 356,-171.5 502,-171.5 502,-190.5"/>
<text text-anchor="middle" x="429" y="-178.5" font-family="Helvetica,sans-Serif" font-size="10.00">Span::Vector3::Normalized</text>
</a>
</g>
</g>
<!-- Node1&#45;&gt;Node9 -->
<g id="edge8_Node000001_Node000009" class="edge">
<title>Node1&#45;&gt;Node9</title>
<g id="a_edge8_Node000001_Node000009"><a xlink:title=" ">
<path fill="none" stroke="#63b8ff" d="M527.73,-181C519.26,-181 510.64,-181 502.2,-181"/>
<polygon fill="#63b8ff" stroke="#63b8ff" points="527.95,-184.5 537.95,-181 527.95,-177.5 527.95,-184.5"/>
</a>
</g>
</g>
<!-- Node3 -->
<g id="Node000003" class="node">
<title>Node3</title>
<g id="a_Node000003"><a xlink:href="structSpan_1_1Transform.html#a22e91c428e57737b16a5e9281a28a610" target="_top" xlink:title="指定したターゲット座標を向くように回転を設定します。">
<polygon fill="white" stroke="#666666" points="308.5,-276.5 173.5,-276.5 173.5,-257.5 308.5,-257.5 308.5,-276.5"/>
<text text-anchor="middle" x="241" y="-264.5" font-family="Helvetica,sans-Serif" font-size="10.00">Span::Transform::LookAt</text>
</a>
</g>
</g>
<!-- Node2&#45;&gt;Node3 -->
<g id="edge2_Node000002_Node000003" class="edge">
<title>Node2&#45;&gt;Node3</title>
<g id="a_edge2_Node000002_Node000003"><a xlink:title=" ">
<path fill="none" stroke="#63b8ff" d="M360.6,-263.81C343.71,-264.27 325.61,-264.75 308.75,-265.21"/>
<polygon fill="#63b8ff" stroke="#63b8ff" points="361.03,-267.3 370.93,-263.53 360.84,-260.3 361.03,-267.3"/>
</a>
</g>
</g>
<!-- Node5 -->
<g id="Node000005" class="node">
<title>Node5</title>
<g id="a_Node000005"><a xlink:href="classSpan_1_1EditorCameraSystem.html#ae933964fa5d0f299954c926cf63e091a" target="_top" xlink:title="毎フレーム呼び出されます。ここにゲームロジックを記述します。">
<polygon fill="white" stroke="#666666" points="316,-239 166,-239 166,-209 316,-209 316,-239"/>
<text text-anchor="start" x="174" y="-227" font-family="Helvetica,sans-Serif" font-size="10.00">Span::EditorCameraSystem</text>
<text text-anchor="middle" x="241" y="-216" font-family="Helvetica,sans-Serif" font-size="10.00">::OnUpdate</text>
</a>
</g>
</g>
<!-- Node4&#45;&gt;Node5 -->
<g id="edge4_Node000004_Node000005" class="edge">
<title>Node4&#45;&gt;Node5</title>
<g id="a_edge4_Node000004_Node000005"><a xlink:title=" ">
<path fill="none" stroke="#63b8ff" d="M363.59,-222.04C348.32,-222.29 331.92,-222.55 316.25,-222.8"/>
<polygon fill="#63b8ff" stroke="#63b8ff" points="364.01,-225.53 373.95,-221.87 363.9,-218.53 364.01,-225.53"/>
</a>
</g>
</g>
<!-- Node7 -->
<g id="Node000007" class="node">
<title>Node7</title>
<g id="a_Node000007"><a xlink:href="classSpan_1_1RenderingSystem.html#aa0113a8f2b55129115c4da2c6ba449c4" target="_top" xlink:title="毎フレーム呼び出されます。ここにゲームロジックを記述します。">
<polygon fill="white" stroke="#666666" points="307.5,-30 174.5,-30 174.5,0 307.5,0 307.5,-30"/>
<text text-anchor="start" x="182.5" y="-18" font-family="Helvetica,sans-Serif" font-size="10.00">Span::RenderingSystem</text>
<text text-anchor="middle" x="241" y="-7" font-family="Helvetica,sans-Serif" font-size="10.00">::OnUpdate</text>
</a>
</g>
</g>
<!-- Node6&#45;&gt;Node7 -->
<g id="edge6_Node000006_Node000007" class="edge">
<title>Node6&#45;&gt;Node7</title>
<g id="a_edge6_Node000006_Node000007"><a xlink:title=" ">
<path fill="none" stroke="#63b8ff" d="M361.66,-129.29C359.68,-127.98 357.78,-126.55 356,-125 324.74,-97.8 350.7,-66.83 320,-39 316.22,-35.57 311.96,-32.64 307.43,-30.12"/>
<polygon fill="#63b8ff" stroke="#63b8ff" points="360.39,-132.58 370.84,-134.34 363.76,-126.45 360.39,-132.58"/>
</a>
</g>
</g>
<!-- Node9&#45;&gt;Node3 -->
<g id="edge14_Node000009_Node000003" class="edge">
<title>Node9&#45;&gt;Node3</title>
<g id="a_edge14_Node000009_Node000003"><a xlink:title=" ">
<path fill="none" stroke="#63b8ff" d="M372.23,-194.29C366.52,-196.73 360.99,-199.61 356,-203 334.81,-217.38 341.6,-234.23 320,-248 313.89,-251.9 307.04,-254.99 300.01,-257.45"/>
<polygon fill="#63b8ff" stroke="#63b8ff" points="373.86,-197.41 381.95,-190.57 371.36,-190.87 373.86,-197.41"/>
</a>
</g>
</g>
<!-- Node9&#45;&gt;Node5 -->
<g id="edge15_Node000009_Node000005" class="edge">
<title>Node9&#45;&gt;Node5</title>
<g id="a_edge15_Node000009_Node000005"><a xlink:title=" ">
<path fill="none" stroke="#63b8ff" d="M376.77,-192.84C355.18,-197.84 329.79,-203.7 306.91,-208.99"/>
<polygon fill="#63b8ff" stroke="#63b8ff" points="377.77,-196.21 386.72,-190.54 376.19,-189.39 377.77,-196.21"/>
</a>
</g>
</g>
<!-- Node10 -->
<g id="Node000010" class="node">
<title>Node10</title>
<g id="a_Node000010"><a xlink:href="classSpan_1_1SceneViewPanel.html#ad83a4a55f083c75371d0873322808796" target="_top" xlink:title="選択中のオブジェクトに対してマニピュレータ (矢印など) を描画します。">
<polygon fill="white" stroke="#666666" points="304,-153 178,-153 178,-123 304,-123 304,-153"/>
<text text-anchor="start" x="186" y="-141" font-family="Helvetica,sans-Serif" font-size="10.00">Span::SceneViewPanel</text>
<text text-anchor="middle" x="241" y="-130" font-family="Helvetica,sans-Serif" font-size="10.00">::DrawGizmo</text>
</a>
</g>
</g>
<!-- Node9&#45;&gt;Node10 -->
<g id="edge9_Node000009_Node000010" class="edge">
<title>Node9&#45;&gt;Node10</title>
<g id="a_edge9_Node000009_Node000010"><a xlink:title=" ">
<path fill="none" stroke="#63b8ff" d="M376.7,-169.14C354.21,-163.94 327.61,-157.79 304.02,-152.34"/>
<polygon fill="#63b8ff" stroke="#63b8ff" points="376.19,-172.61 386.72,-171.46 377.77,-165.79 376.19,-172.61"/>
</a>
</g>
</g>
<!-- Node12 -->
<g id="Node000012" class="node">
<title>Node12</title>
<g id="a_Node000012"><a xlink:href="structSpan_1_1Transform.html#a132f40241af247849e79067db6ad62b4" target="_top" xlink:title="前方ベクトル (Local Forward / Z+) を取得します。">
<polygon fill="white" stroke="#666666" points="320,-104.5 162,-104.5 162,-85.5 320,-85.5 320,-104.5"/>
<text text-anchor="middle" x="241" y="-92.5" font-family="Helvetica,sans-Serif" font-size="10.00">Span::Transform::GetForward</text>
</a>
</g>
</g>
<!-- Node9&#45;&gt;Node12 -->
<g id="edge11_Node000009_Node000012" class="edge">
<title>Node9&#45;&gt;Node12</title>
<g id="a_edge11_Node000009_Node000012"><a xlink:title=" ">
<path fill="none" stroke="#63b8ff" d="M363.58,-167.42C360.95,-166.09 358.41,-164.62 356,-163 333.56,-147.94 342.48,-128.99 320,-114 314.2,-110.13 307.69,-107.05 300.97,-104.6"/>
<polygon fill="#63b8ff" stroke="#63b8ff" points="362.25,-170.66 372.82,-171.49 365.07,-164.26 362.25,-170.66"/>
</a>
</g>
</g>
<!-- Node13 -->
<g id="Node000013" class="node">
<title>Node13</title>
<g id="a_Node000013"><a xlink:href="structSpan_1_1Transform.html#a201045237f4cff825ff023848c5967fa" target="_top" xlink:title="右方向ベクトル (Local Right / X+) を取得します。">
<polygon fill="white" stroke="#666666" points="313,-67.5 169,-67.5 169,-48.5 313,-48.5 313,-67.5"/>
<text text-anchor="middle" x="241" y="-55.5" font-family="Helvetica,sans-Serif" font-size="10.00">Span::Transform::GetRight</text>
</a>
</g>
</g>
<!-- Node9&#45;&gt;Node13 -->
<g id="edge12_Node000009_Node000013" class="edge">
<title>Node9&#45;&gt;Node13</title>
<g id="a_edge12_Node000009_Node000013"><a xlink:title=" ">
<path fill="none" stroke="#63b8ff" d="M360.2,-166.26C358.75,-165.24 357.34,-164.16 356,-163 324.31,-135.67 351.93,-103.04 320,-76 315.97,-72.59 311.42,-69.79 306.59,-67.5"/>
<polygon fill="#63b8ff" stroke="#63b8ff" points="358.65,-169.4 369.06,-171.37 362.15,-163.34 358.65,-169.4"/>
</a>
</g>
</g>
<!-- Node14 -->
<g id="Node000014" class="node">
<title>Node14</title>
<g id="a_Node000014"><a xlink:href="structSpan_1_1Transform.html#a4251fb155ba185e11247bd5b8044a003" target="_top" xlink:title="上方向ベクトル (Local Up / Y+) を取得します。">
<polygon fill="white" stroke="#666666" points="307,-190.5 175,-190.5 175,-171.5 307,-171.5 307,-190.5"/>
<text text-anchor="middle" x="241" y="-178.5" font-family="Helvetica,sans-Serif" font-size="10.00">Span::Transform::GetUp</text>
</a>
</g>
</g>
<!-- Node9&#45;&gt;Node14 -->
<g id="edge13_Node000009_Node000014" class="edge">
<title>Node9&#45;&gt;Node14</title>
<g id="a_edge13_Node000009_Node000014"><a xlink:title=" ">
<path fill="none" stroke="#63b8ff" d="M345.58,-181C332.71,-181 319.57,-181 307.16,-181"/>
<polygon fill="#63b8ff" stroke="#63b8ff" points="345.82,-184.5 355.82,-181 345.82,-177.5 345.82,-184.5"/>
</a>
</g>
</g>
<!-- Node11 -->
<g id="Node000011" class="node">
<title>Node11</title>
<g id="a_Node000011"><a xlink:href="classSpan_1_1SceneViewPanel.html#aab2935de58bd68267a680cabd3656c9f" target="_top" xlink:title="毎フレームの描画処理。 画像の表示、ツールバーのオーバーレイ、ギズモの描画を行います。">
<polygon fill="white" stroke="#666666" points="126,-153 0,-153 0,-123 126,-123 126,-153"/>
<text text-anchor="start" x="8" y="-141" font-family="Helvetica,sans-Serif" font-size="10.00">Span::SceneViewPanel</text>
<text text-anchor="middle" x="63" y="-130" font-family="Helvetica,sans-Serif" font-size="10.00">::OnImGuiRender</text>
</a>
</g>
</g>
<!-- Node10&#45;&gt;Node11 -->
<g id="edge10_Node000010_Node000011" class="edge">
<title>Node10&#45;&gt;Node11</title>
<g id="a_edge10_Node000010_Node000011"><a xlink:title=" ">
<path fill="none" stroke="#63b8ff" d="M167.55,-138C153.78,-138 139.49,-138 126.08,-138"/>
<polygon fill="#63b8ff" stroke="#63b8ff" points="167.95,-141.5 177.95,-138 167.95,-134.5 167.95,-141.5"/>
</a>
</g>
</g>
</g>
</svg>
