<?xml version="1.0" encoding="UTF-8" standalone="no"?>
<!DOCTYPE svg PUBLIC "-//W3C//DTD SVG 1.1//EN"
 "http://www.w3.org/Graphics/SVG/1.1/DTD/svg11.dtd">
<!-- Generated by graphviz version 2.43.0 (0)
 -->
<!-- Title: Span::Transform Pages: 1 -->
<svg width="398pt" height="714pt"
 viewBox="0.00 0.00 397.50 714.00" xmlns="http://www.w3.org/2000/svg" xmlns:xlink="http://www.w3.org/1999/xlink">
<g id="graph0" class="graph" transform="scale(1 1) rotate(0) translate(4 710)">
<title>Span::Transform</title>
<!-- Node1 -->
<g id="Node000001" class="node">
<title>Node1</title>
<g id="a_Node000001"><a xlink:title="ðŸ“ ã‚ªãƒ–ã‚¸ã‚§ã‚¯ãƒˆã®3æ¬¡å…ƒçš„ãªä½ç½®æƒ…å ±ã‚’ä¿æŒã™ã‚‹ã‚³ãƒ³ãƒãƒ¼ãƒãƒ³ãƒˆã€‚">
<polygon fill="#999999" stroke="transparent" points="204.5,-184 101.5,-184 101.5,0 204.5,0 204.5,-184"/>
<text text-anchor="start" x="114" y="-172" font-family="Helvetica,sans-Serif" font-size="10.00">Span::Transform</text>
<text text-anchor="start" x="151.5" y="-157" font-family="Helvetica,sans-Serif" font-size="10.00">Â </text>
<text text-anchor="start" x="106" y="-142" font-family="Helvetica,sans-Serif" font-size="10.00">+</text>
<text text-anchor="start" x="119" y="-142" font-family="Helvetica,sans-Serif" font-size="10.00">Transform()</text>
<text text-anchor="start" x="106" y="-127" font-family="Helvetica,sans-Serif" font-size="10.00">+</text>
<text text-anchor="start" x="119" y="-127" font-family="Helvetica,sans-Serif" font-size="10.00">Transform()</text>
<text text-anchor="start" x="106" y="-112" font-family="Helvetica,sans-Serif" font-size="10.00">+</text>
<text text-anchor="start" x="119" y="-112" font-family="Helvetica,sans-Serif" font-size="10.00">Transform()</text>
<text text-anchor="start" x="106" y="-97" font-family="Helvetica,sans-Serif" font-size="10.00">+</text>
<text text-anchor="start" x="119" y="-97" font-family="Helvetica,sans-Serif" font-size="10.00">GetLocalMatrix()</text>
<text text-anchor="start" x="106" y="-82" font-family="Helvetica,sans-Serif" font-size="10.00">+</text>
<text text-anchor="start" x="119" y="-82" font-family="Helvetica,sans-Serif" font-size="10.00">GetForward()</text>
<text text-anchor="start" x="106" y="-67" font-family="Helvetica,sans-Serif" font-size="10.00">+</text>
<text text-anchor="start" x="119" y="-67" font-family="Helvetica,sans-Serif" font-size="10.00">GetRight()</text>
<text text-anchor="start" x="106" y="-52" font-family="Helvetica,sans-Serif" font-size="10.00">+</text>
<text text-anchor="start" x="119" y="-52" font-family="Helvetica,sans-Serif" font-size="10.00">GetUp()</text>
<text text-anchor="start" x="106" y="-37" font-family="Helvetica,sans-Serif" font-size="10.00">+</text>
<text text-anchor="start" x="119" y="-37" font-family="Helvetica,sans-Serif" font-size="10.00">LookAt()</text>
<text text-anchor="start" x="106" y="-22" font-family="Helvetica,sans-Serif" font-size="10.00">+</text>
<text text-anchor="start" x="119" y="-22" font-family="Helvetica,sans-Serif" font-size="10.00">if()</text>
<text text-anchor="start" x="106" y="-7" font-family="Helvetica,sans-Serif" font-size="10.00">+</text>
<text text-anchor="start" x="119" y="-7" font-family="Helvetica,sans-Serif" font-size="10.00">Identity()</text>
<polygon fill="#666666" stroke="#666666" points="102,-167 102,-167 205,-167 205,-167 102,-167"/>
<polygon fill="#666666" stroke="#666666" points="102,-152 102,-152 205,-152 205,-152 102,-152"/>
<polygon fill="none" stroke="#666666" points="101.5,0 101.5,-184 204.5,-184 204.5,0 101.5,0"/>
</a>
</g>
</g>
<!-- Node2 -->
<g id="Node000002" class="node">
<title>Node2</title>
<g id="a_Node000002"><a xlink:href="structSpan_1_1Vector3.html" target="_top" xlink:title="3æ¬¡å…ƒãƒ™ã‚¯ãƒˆãƒ« (float x, y, z) ä½ç½®ã€æ–¹å‘ã€ã‚¹ã‚±ãƒ¼ãƒ«ãªã©ã«ä½¿ç”¨ã•ã‚Œã¾ã™ã€‚">
<polygon fill="white" stroke="transparent" points="102,-706 0,-706 0,-267 102,-267 102,-706"/>
<text text-anchor="start" x="17.5" y="-693.5" font-family="Helvetica,sans-Serif" font-size="10.00">Span::Vector3</text>
<text text-anchor="start" x="4" y="-678.5" font-family="Helvetica,sans-Serif" font-size="10.00">+</text>
<text text-anchor="start" x="17" y="-678.5" font-family="Helvetica,sans-Serif" font-size="10.00">x</text>
<text text-anchor="start" x="4" y="-663.5" font-family="Helvetica,sans-Serif" font-size="10.00">+</text>
<text text-anchor="start" x="17" y="-663.5" font-family="Helvetica,sans-Serif" font-size="10.00">y</text>
<text text-anchor="start" x="4" y="-648.5" font-family="Helvetica,sans-Serif" font-size="10.00">+</text>
<text text-anchor="start" x="17" y="-648.5" font-family="Helvetica,sans-Serif" font-size="10.00">z</text>
<text text-anchor="start" x="4" y="-633.5" font-family="Helvetica,sans-Serif" font-size="10.00">+</text>
<text text-anchor="start" x="17" y="-633.5" font-family="Helvetica,sans-Serif" font-size="10.00">Vector3()</text>
<text text-anchor="start" x="4" y="-618.5" font-family="Helvetica,sans-Serif" font-size="10.00">+</text>
<text text-anchor="start" x="17" y="-618.5" font-family="Helvetica,sans-Serif" font-size="10.00">Vector3()</text>
<text text-anchor="start" x="4" y="-603.5" font-family="Helvetica,sans-Serif" font-size="10.00">+</text>
<text text-anchor="start" x="17" y="-603.5" font-family="Helvetica,sans-Serif" font-size="10.00">Vector3()</text>
<text text-anchor="start" x="4" y="-588.5" font-family="Helvetica,sans-Serif" font-size="10.00">+</text>
<text text-anchor="start" x="17" y="-588.5" font-family="Helvetica,sans-Serif" font-size="10.00">ToXM()</text>
<text text-anchor="start" x="4" y="-573.5" font-family="Helvetica,sans-Serif" font-size="10.00">+</text>
<text text-anchor="start" x="17" y="-573.5" font-family="Helvetica,sans-Serif" font-size="10.00">FromXM()</text>
<text text-anchor="start" x="4" y="-558.5" font-family="Helvetica,sans-Serif" font-size="10.00">+</text>
<text text-anchor="start" x="17" y="-558.5" font-family="Helvetica,sans-Serif" font-size="10.00">operator+()</text>
<text text-anchor="start" x="4" y="-543.5" font-family="Helvetica,sans-Serif" font-size="10.00">+</text>
<text text-anchor="start" x="17" y="-543.5" font-family="Helvetica,sans-Serif" font-size="10.00">operator&#45;()</text>
<text text-anchor="start" x="4" y="-528.5" font-family="Helvetica,sans-Serif" font-size="10.00">+</text>
<text text-anchor="start" x="17" y="-528.5" font-family="Helvetica,sans-Serif" font-size="10.00">operator*()</text>
<text text-anchor="start" x="4" y="-513.5" font-family="Helvetica,sans-Serif" font-size="10.00">+</text>
<text text-anchor="start" x="17" y="-513.5" font-family="Helvetica,sans-Serif" font-size="10.00">operator/()</text>
<text text-anchor="start" x="4" y="-498.5" font-family="Helvetica,sans-Serif" font-size="10.00">+</text>
<text text-anchor="start" x="17" y="-498.5" font-family="Helvetica,sans-Serif" font-size="10.00">operator+=()</text>
<text text-anchor="start" x="4" y="-483.5" font-family="Helvetica,sans-Serif" font-size="10.00">+</text>
<text text-anchor="start" x="17" y="-483.5" font-family="Helvetica,sans-Serif" font-size="10.00">operator&#45;=()</text>
<text text-anchor="start" x="5.5" y="-468.5" font-family="Helvetica,sans-Serif" font-size="10.00">*</text>
<text text-anchor="start" x="17" y="-468.5" font-family="Helvetica,sans-Serif" font-size="10.00">ToXM()</text>
<text text-anchor="start" x="5.5" y="-453.5" font-family="Helvetica,sans-Serif" font-size="10.00">*</text>
<text text-anchor="start" x="17" y="-453.5" font-family="Helvetica,sans-Serif" font-size="10.00">FromXM()</text>
<text text-anchor="start" x="5.5" y="-438.5" font-family="Helvetica,sans-Serif" font-size="10.00">*</text>
<text text-anchor="start" x="17" y="-438.5" font-family="Helvetica,sans-Serif" font-size="10.00">operator+()</text>
<text text-anchor="start" x="5.5" y="-423.5" font-family="Helvetica,sans-Serif" font-size="10.00">*</text>
<text text-anchor="start" x="17" y="-423.5" font-family="Helvetica,sans-Serif" font-size="10.00">operator&#45;()</text>
<text text-anchor="start" x="5.5" y="-408.5" font-family="Helvetica,sans-Serif" font-size="10.00">*</text>
<text text-anchor="start" x="17" y="-408.5" font-family="Helvetica,sans-Serif" font-size="10.00">operator*()</text>
<text text-anchor="start" x="5.5" y="-393.5" font-family="Helvetica,sans-Serif" font-size="10.00">*</text>
<text text-anchor="start" x="17" y="-393.5" font-family="Helvetica,sans-Serif" font-size="10.00">operator/()</text>
<text text-anchor="start" x="5.5" y="-378.5" font-family="Helvetica,sans-Serif" font-size="10.00">*</text>
<text text-anchor="start" x="17" y="-378.5" font-family="Helvetica,sans-Serif" font-size="10.00">operator+=()</text>
<text text-anchor="start" x="5.5" y="-363.5" font-family="Helvetica,sans-Serif" font-size="10.00">*</text>
<text text-anchor="start" x="17" y="-363.5" font-family="Helvetica,sans-Serif" font-size="10.00">operator&#45;=()</text>
<text text-anchor="start" x="5.5" y="-348.5" font-family="Helvetica,sans-Serif" font-size="10.00">*</text>
<text text-anchor="start" x="17" y="-348.5" font-family="Helvetica,sans-Serif" font-size="10.00">Length()</text>
<text text-anchor="start" x="5.5" y="-333.5" font-family="Helvetica,sans-Serif" font-size="10.00">*</text>
<text text-anchor="start" x="17" y="-333.5" font-family="Helvetica,sans-Serif" font-size="10.00">LengthSquared()</text>
<text text-anchor="start" x="5.5" y="-318.5" font-family="Helvetica,sans-Serif" font-size="10.00">*</text>
<text text-anchor="start" x="17" y="-318.5" font-family="Helvetica,sans-Serif" font-size="10.00">Normalized()</text>
<text text-anchor="start" x="5.5" y="-303.5" font-family="Helvetica,sans-Serif" font-size="10.00">*</text>
<text text-anchor="start" x="17" y="-303.5" font-family="Helvetica,sans-Serif" font-size="10.00">Dot()</text>
<text text-anchor="start" x="5.5" y="-288.5" font-family="Helvetica,sans-Serif" font-size="10.00">*</text>
<text text-anchor="start" x="17" y="-288.5" font-family="Helvetica,sans-Serif" font-size="10.00">Cross()</text>
<text text-anchor="start" x="5.5" y="-273.5" font-family="Helvetica,sans-Serif" font-size="10.00">*</text>
<text text-anchor="start" x="17" y="-273.5" font-family="Helvetica,sans-Serif" font-size="10.00">Lerp()</text>
<polygon fill="#666666" stroke="#666666" points="0,-688.5 0,-688.5 102,-688.5 102,-688.5 0,-688.5"/>
<polygon fill="#666666" stroke="#666666" points="0,-643.5 0,-643.5 15,-643.5 15,-643.5 0,-643.5"/>
<polygon fill="#666666" stroke="#666666" points="15,-643.5 15,-643.5 102,-643.5 102,-643.5 15,-643.5"/>
<polygon fill="none" stroke="#666666" points="0,-267 0,-706 102,-706 102,-267 0,-267"/>
</a>
</g>
</g>
<!-- Node2&#45;&gt;Node1 -->
<g id="edge1_Node000001_Node000002" class="edge">
<title>Node2&#45;&gt;Node1</title>
<g id="a_edge1_Node000001_Node000002"><a xlink:title=" ">
<path fill="none" stroke="#63b8ff" d="M102,-289.25C110.4,-256.91 118.81,-224.57 126.3,-195.74"/>
<polygon fill="none" stroke="#63b8ff" points="126.32,-195.65 123.96,-188.83 129.34,-184.03 131.71,-190.85 126.32,-195.65"/>
</a>
</g>
<text text-anchor="start" x="126" y="-237.5" font-family="Helvetica,sans-Serif" font-size="10.00" fill="grey">+Position</text>
<text text-anchor="start" x="126" y="-222.5" font-family="Helvetica,sans-Serif" font-size="10.00" fill="grey">+Scale</text>
<text text-anchor="start" x="126" y="-207.5" font-family="Helvetica,sans-Serif" font-size="10.00" fill="grey">+deg</text>
</g>
<!-- Node2&#45;&gt;Node2 -->
<g id="edge2_Node000002_Node000002" class="edge">
<title>Node2&#45;&gt;Node2</title>
<g id="a_edge2_Node000002_Node000002"><a xlink:title=" ">
<path fill="none" stroke="#63b8ff" d="M102.15,-533.39C112.55,-528.28 120,-512.65 120,-486.5 120,-468.72 116.56,-455.81 111.09,-447.76"/>
<polygon fill="none" stroke="#63b8ff" points="111.02,-447.69 103.89,-446.61 102.15,-439.61 109.28,-440.7 111.02,-447.69"/>
</a>
</g>
<text text-anchor="start" x="123" y="-536.5" font-family="Helvetica,sans-Serif" font-size="10.00" fill="grey">+Back</text>
<text text-anchor="start" x="123" y="-521.5" font-family="Helvetica,sans-Serif" font-size="10.00" fill="grey">+Down</text>
<text text-anchor="start" x="123" y="-506.5" font-family="Helvetica,sans-Serif" font-size="10.00" fill="grey">+Forward</text>
<text text-anchor="start" x="123" y="-491.5" font-family="Helvetica,sans-Serif" font-size="10.00" fill="grey">+Left</text>
<text text-anchor="start" x="123" y="-476.5" font-family="Helvetica,sans-Serif" font-size="10.00" fill="grey">+One</text>
<text text-anchor="start" x="123" y="-461.5" font-family="Helvetica,sans-Serif" font-size="10.00" fill="grey">+Right</text>
<text text-anchor="start" x="123" y="-446.5" font-family="Helvetica,sans-Serif" font-size="10.00" fill="grey">+Up</text>
<text text-anchor="start" x="123" y="-431.5" font-family="Helvetica,sans-Serif" font-size="10.00" fill="grey">+Zero</text>
</g>
<!-- Node3 -->
<g id="Node000003" class="node">
<title>Node3</title>
<g id="a_Node000003"><a xlink:href="structSpan_1_1Quaternion.html" target="_top" xlink:title="å›žè»¢ã‚’è¡¨ã™ã‚¯ã‚©ãƒ¼ã‚¿ãƒ‹ã‚ªãƒ³ (x, y, z, w) ã‚¸ãƒ³ãƒãƒ«ãƒ­ãƒƒã‚¯ã‚’é˜²ãŽã€æ»‘ã‚‰ã‹ãªè£œé–“(Slerp)ã‚’å¯èƒ½ã«ã—ã¾ã™ã€‚">
<polygon fill="white" stroke="transparent" points="319.5,-653.5 192.5,-653.5 192.5,-319.5 319.5,-319.5 319.5,-653.5"/>
<text text-anchor="start" x="214" y="-641.5" font-family="Helvetica,sans-Serif" font-size="10.00">Span::Quaternion</text>
<text text-anchor="start" x="197" y="-626.5" font-family="Helvetica,sans-Serif" font-size="10.00">+</text>
<text text-anchor="start" x="210" y="-626.5" font-family="Helvetica,sans-Serif" font-size="10.00">x</text>
<text text-anchor="start" x="197" y="-611.5" font-family="Helvetica,sans-Serif" font-size="10.00">+</text>
<text text-anchor="start" x="210" y="-611.5" font-family="Helvetica,sans-Serif" font-size="10.00">y</text>
<text text-anchor="start" x="197" y="-596.5" font-family="Helvetica,sans-Serif" font-size="10.00">+</text>
<text text-anchor="start" x="210" y="-596.5" font-family="Helvetica,sans-Serif" font-size="10.00">z</text>
<text text-anchor="start" x="197" y="-581.5" font-family="Helvetica,sans-Serif" font-size="10.00">+</text>
<text text-anchor="start" x="210" y="-581.5" font-family="Helvetica,sans-Serif" font-size="10.00">w</text>
<text text-anchor="start" x="197" y="-566.5" font-family="Helvetica,sans-Serif" font-size="10.00">+</text>
<text text-anchor="start" x="210" y="-566.5" font-family="Helvetica,sans-Serif" font-size="10.00">Quaternion()</text>
<text text-anchor="start" x="197" y="-551.5" font-family="Helvetica,sans-Serif" font-size="10.00">+</text>
<text text-anchor="start" x="210" y="-551.5" font-family="Helvetica,sans-Serif" font-size="10.00">Quaternion()</text>
<text text-anchor="start" x="197" y="-536.5" font-family="Helvetica,sans-Serif" font-size="10.00">+</text>
<text text-anchor="start" x="210" y="-536.5" font-family="Helvetica,sans-Serif" font-size="10.00">ToEuler()</text>
<text text-anchor="start" x="197" y="-521.5" font-family="Helvetica,sans-Serif" font-size="10.00">+</text>
<text text-anchor="start" x="210" y="-521.5" font-family="Helvetica,sans-Serif" font-size="10.00">operator*()</text>
<text text-anchor="start" x="197" y="-506.5" font-family="Helvetica,sans-Serif" font-size="10.00">+</text>
<text text-anchor="start" x="210" y="-506.5" font-family="Helvetica,sans-Serif" font-size="10.00">ToXM()</text>
<text text-anchor="start" x="197" y="-491.5" font-family="Helvetica,sans-Serif" font-size="10.00">+</text>
<text text-anchor="start" x="210" y="-491.5" font-family="Helvetica,sans-Serif" font-size="10.00">FromXM()</text>
<text text-anchor="start" x="197" y="-476.5" font-family="Helvetica,sans-Serif" font-size="10.00">+</text>
<text text-anchor="start" x="210" y="-476.5" font-family="Helvetica,sans-Serif" font-size="10.00">Slerp()</text>
<text text-anchor="start" x="197" y="-461.5" font-family="Helvetica,sans-Serif" font-size="10.00">+</text>
<text text-anchor="start" x="210" y="-461.5" font-family="Helvetica,sans-Serif" font-size="10.00">FromEuler()</text>
<text text-anchor="start" x="197" y="-446.5" font-family="Helvetica,sans-Serif" font-size="10.00">+</text>
<text text-anchor="start" x="210" y="-446.5" font-family="Helvetica,sans-Serif" font-size="10.00">FromEuler()</text>
<text text-anchor="start" x="197" y="-431.5" font-family="Helvetica,sans-Serif" font-size="10.00">+</text>
<text text-anchor="start" x="210" y="-431.5" font-family="Helvetica,sans-Serif" font-size="10.00">AngleAxis()</text>
<text text-anchor="start" x="197" y="-416.5" font-family="Helvetica,sans-Serif" font-size="10.00">+</text>
<text text-anchor="start" x="210" y="-416.5" font-family="Helvetica,sans-Serif" font-size="10.00">FromRotationMatrix()</text>
<text text-anchor="start" x="198.5" y="-401.5" font-family="Helvetica,sans-Serif" font-size="10.00">*</text>
<text text-anchor="start" x="210" y="-401.5" font-family="Helvetica,sans-Serif" font-size="10.00">ToXM()</text>
<text text-anchor="start" x="198.5" y="-386.5" font-family="Helvetica,sans-Serif" font-size="10.00">*</text>
<text text-anchor="start" x="210" y="-386.5" font-family="Helvetica,sans-Serif" font-size="10.00">FromXM()</text>
<text text-anchor="start" x="198.5" y="-371.5" font-family="Helvetica,sans-Serif" font-size="10.00">*</text>
<text text-anchor="start" x="210" y="-371.5" font-family="Helvetica,sans-Serif" font-size="10.00">FromEuler()</text>
<text text-anchor="start" x="198.5" y="-356.5" font-family="Helvetica,sans-Serif" font-size="10.00">*</text>
<text text-anchor="start" x="210" y="-356.5" font-family="Helvetica,sans-Serif" font-size="10.00">FromEuler()</text>
<text text-anchor="start" x="198.5" y="-341.5" font-family="Helvetica,sans-Serif" font-size="10.00">*</text>
<text text-anchor="start" x="210" y="-341.5" font-family="Helvetica,sans-Serif" font-size="10.00">AngleAxis()</text>
<text text-anchor="start" x="198.5" y="-326.5" font-family="Helvetica,sans-Serif" font-size="10.00">*</text>
<text text-anchor="start" x="210" y="-326.5" font-family="Helvetica,sans-Serif" font-size="10.00">FromRotationMatrix()</text>
<polygon fill="#666666" stroke="#666666" points="193,-636.5 193,-636.5 320,-636.5 320,-636.5 193,-636.5"/>
<polygon fill="#666666" stroke="#666666" points="193,-576.5 193,-576.5 208,-576.5 208,-576.5 193,-576.5"/>
<polygon fill="#666666" stroke="#666666" points="208,-576.5 208,-576.5 320,-576.5 320,-576.5 208,-576.5"/>
<polygon fill="none" stroke="#666666" points="192.5,-319.5 192.5,-653.5 319.5,-653.5 319.5,-319.5 192.5,-319.5"/>
</a>
</g>
</g>
<!-- Node3&#45;&gt;Node1 -->
<g id="edge3_Node000001_Node000003" class="edge">
<title>Node3&#45;&gt;Node1</title>
<g id="a_edge3_Node000001_Node000003"><a xlink:title=" ">
<path fill="none" stroke="#63b8ff" d="M212.39,-319.33C201.43,-277.54 189.97,-233.89 180.08,-196.19"/>
<polygon fill="none" stroke="#63b8ff" points="179.97,-195.78 174.58,-190.99 176.93,-184.18 182.32,-188.96 179.97,-195.78"/>
</a>
</g>
<text text-anchor="start" x="195" y="-222.5" font-family="Helvetica,sans-Serif" font-size="10.00" fill="grey">+Rotation</text>
</g>
<!-- Node3&#45;&gt;Node3 -->
<g id="edge4_Node000003_Node000003" class="edge">
<title>Node3&#45;&gt;Node3</title>
<g id="a_edge4_Node000003_Node000003"><a xlink:title=" ">
<path fill="none" stroke="#63b8ff" d="M319.56,-531.81C330.17,-525.47 337.5,-510.37 337.5,-486.5 337.5,-470.09 334.04,-457.82 328.42,-449.7"/>
<polygon fill="none" stroke="#63b8ff" points="328.21,-449.5 321.12,-448.23 319.56,-441.19 326.66,-442.46 328.21,-449.5"/>
</a>
</g>
<text text-anchor="start" x="340.5" y="-483.5" font-family="Helvetica,sans-Serif" font-size="10.00" fill="grey">+Identity</text>
</g>
</g>
</svg>
