<?xml version="1.0" encoding="UTF-8" standalone="no"?>
<!DOCTYPE svg PUBLIC "-//W3C//DTD SVG 1.1//EN"
 "http://www.w3.org/Graphics/SVG/1.1/DTD/svg11.dtd">
<!-- Generated by graphviz version 2.43.0 (0)
 -->
<!-- Title: Span::AssetMetadata::IsValid Pages: 1 -->
<svg width="1610pt" height="579pt"
 viewBox="0.00 0.00 1610.00 579.00" xmlns="http://www.w3.org/2000/svg" xmlns:xlink="http://www.w3.org/1999/xlink">
<g id="graph0" class="graph" transform="scale(1 1) rotate(0) translate(4 575)">
<title>Span::AssetMetadata::IsValid</title>
<!-- Node1 -->
<g id="Node000001" class="node">
<title>Node1</title>
<g id="a_Node000001"><a xlink:title=" ">
<polygon fill="#999999" stroke="#666666" points="1602,-80 1482,-80 1482,-50 1602,-50 1602,-80"/>
<text text-anchor="start" x="1490" y="-68" font-family="Helvetica,sans-Serif" font-size="10.00">Span::AssetMetadata</text>
<text text-anchor="middle" x="1542" y="-57" font-family="Helvetica,sans-Serif" font-size="10.00">::IsValid</text>
</a>
</g>
</g>
<!-- Node2 -->
<g id="Node000002" class="node">
<title>Node2</title>
<g id="a_Node000002"><a xlink:href="classSpan_1_1AssetManager.html#ade6d0e8b7b3467e28cfd5af72896c89b" target="_top" xlink:title="メッシュデータを取得します (キャッシュ対応)。">
<polygon fill="white" stroke="#666666" points="1124,-126 1008,-126 1008,-96 1124,-96 1124,-126"/>
<text text-anchor="start" x="1016" y="-114" font-family="Helvetica,sans-Serif" font-size="10.00">Span::AssetManager</text>
<text text-anchor="middle" x="1066" y="-103" font-family="Helvetica,sans-Serif" font-size="10.00">::GetMesh</text>
</a>
</g>
</g>
<!-- Node1&#45;&gt;Node2 -->
<g id="edge1_Node000001_Node000002" class="edge">
<title>Node1&#45;&gt;Node2</title>
<g id="a_edge1_Node000001_Node000002"><a xlink:title=" ">
<path fill="none" stroke="#63b8ff" d="M1472.13,-77.46C1463.34,-79.01 1454.46,-80.55 1446,-82 1369.66,-95.04 1351.18,-103.57 1274,-110 1223.5,-114.21 1165.84,-114.08 1124.22,-113.12"/>
<polygon fill="#63b8ff" stroke="#63b8ff" points="1472.75,-80.9 1481.99,-75.71 1471.53,-74.01 1472.75,-80.9"/>
</a>
</g>
</g>
<!-- Node3 -->
<g id="Node000003" class="node">
<title>Node3</title>
<g id="a_Node000003"><a xlink:href="classSpan_1_1AssetManager.html#a93b56de9af3fadbc0ff27f1e21e44291" target="_top" xlink:title="テクスチャを取得します (キャッシュにあればそれを返し、無ければロードします)。">
<polygon fill="white" stroke="#666666" points="1124,-30 1008,-30 1008,0 1124,0 1124,-30"/>
<text text-anchor="start" x="1016" y="-18" font-family="Helvetica,sans-Serif" font-size="10.00">Span::AssetManager</text>
<text text-anchor="middle" x="1066" y="-7" font-family="Helvetica,sans-Serif" font-size="10.00">::GetTexture</text>
</a>
</g>
</g>
<!-- Node1&#45;&gt;Node3 -->
<g id="edge2_Node000001_Node000003" class="edge">
<title>Node1&#45;&gt;Node3</title>
<g id="a_edge2_Node000001_Node000003"><a xlink:title=" ">
<path fill="none" stroke="#63b8ff" d="M1507.89,-45C1490.2,-35.44 1467.65,-25.02 1446,-20 1334.3,5.89 1199.07,-1.15 1124.09,-8.28"/>
<polygon fill="#63b8ff" stroke="#63b8ff" points="1506.23,-48.08 1516.67,-49.88 1509.63,-41.96 1506.23,-48.08"/>
</a>
</g>
</g>
<!-- Node4 -->
<g id="Node000004" class="node">
<title>Node4</title>
<g id="a_Node000004"><a xlink:href="classSpan_1_1AssetSerializer.html#adea72d3eb1434b36473f6e0d38396451" target="_top" xlink:title="指定したアセットのメタデータを取得します。 .metaファイルが存在しない場合は、新規にGUIDを生成して作成します。">
<polygon fill="white" stroke="#666666" points="1446,-59 1310,-59 1310,-29 1446,-29 1446,-59"/>
<text text-anchor="start" x="1318" y="-47" font-family="Helvetica,sans-Serif" font-size="10.00">Span::AssetSerializer</text>
<text text-anchor="middle" x="1378" y="-36" font-family="Helvetica,sans-Serif" font-size="10.00">::LoadOrCreateMetadata</text>
</a>
</g>
</g>
<!-- Node1&#45;&gt;Node4 -->
<g id="edge3_Node000001_Node000004" class="edge">
<title>Node1&#45;&gt;Node4</title>
<g id="a_edge3_Node000001_Node000004"><a xlink:title=" ">
<path fill="none" stroke="#63b8ff" d="M1471.44,-55.98C1463.02,-54.89 1454.44,-53.78 1446.06,-52.69"/>
<polygon fill="#63b8ff" stroke="#63b8ff" points="1471.23,-59.48 1481.6,-57.3 1472.13,-52.54 1471.23,-59.48"/>
</a>
</g>
</g>
<!-- Node5 -->
<g id="Node000005" class="node">
<title>Node5</title>
<g id="a_Node000005"><a xlink:href="classSpan_1_1AssetRegistry.html#a432dbe6ae1b0ab930bd903d93ad5a734" target="_top" xlink:title="パスからアセット情報を登録・更新します (ファイル移動/作成時用)。">
<polygon fill="white" stroke="#666666" points="1274,-78 1160,-78 1160,-48 1274,-48 1274,-78"/>
<text text-anchor="start" x="1168" y="-66" font-family="Helvetica,sans-Serif" font-size="10.00">Span::AssetRegistry</text>
<text text-anchor="middle" x="1217" y="-55" font-family="Helvetica,sans-Serif" font-size="10.00">::RegisterAsset</text>
</a>
</g>
</g>
<!-- Node1&#45;&gt;Node5 -->
<g id="edge35_Node000001_Node000005" class="edge">
<title>Node1&#45;&gt;Node5</title>
<g id="a_edge35_Node000001_Node000005"><a xlink:title=" ">
<path fill="none" stroke="#63b8ff" d="M1471.83,-67.44C1463.13,-67.67 1454.36,-67.87 1446,-68 1385.56,-68.95 1370.42,-69.64 1310,-68 1298.49,-67.69 1286.17,-67.16 1274.42,-66.55"/>
<polygon fill="#63b8ff" stroke="#63b8ff" points="1472.07,-70.93 1481.97,-67.15 1471.87,-63.94 1472.07,-70.93"/>
</a>
</g>
</g>
<!-- Node4&#45;&gt;Node2 -->
<g id="edge4_Node000004_Node000002" class="edge">
<title>Node4&#45;&gt;Node2</title>
<g id="a_edge4_Node000004_Node000002"><a xlink:title=" ">
<path fill="none" stroke="#63b8ff" d="M1337.96,-63.34C1319.07,-71.9 1295.81,-81.3 1274,-87 1224.29,-99.98 1166.04,-105.95 1124.02,-108.68"/>
<polygon fill="#63b8ff" stroke="#63b8ff" points="1339.53,-66.47 1347.13,-59.1 1336.58,-60.12 1339.53,-66.47"/>
</a>
</g>
</g>
<!-- Node4&#45;&gt;Node3 -->
<g id="edge5_Node000004_Node000003" class="edge">
<title>Node4&#45;&gt;Node3</title>
<g id="a_edge5_Node000004_Node000003"><a xlink:title=" ">
<path fill="none" stroke="#63b8ff" d="M1299.44,-36.74C1245.04,-31.66 1173.52,-24.96 1124.25,-20.36"/>
<polygon fill="#63b8ff" stroke="#63b8ff" points="1299.45,-40.26 1309.73,-37.71 1300.1,-33.29 1299.45,-40.26"/>
</a>
</g>
</g>
<!-- Node4&#45;&gt;Node5 -->
<g id="edge6_Node000004_Node000005" class="edge">
<title>Node4&#45;&gt;Node5</title>
<g id="a_edge6_Node000004_Node000005"><a xlink:title=" ">
<path fill="none" stroke="#63b8ff" d="M1299.51,-53.26C1290.91,-54.29 1282.27,-55.32 1274.01,-56.31"/>
<polygon fill="#63b8ff" stroke="#63b8ff" points="1300.06,-56.72 1309.57,-52.06 1299.23,-49.77 1300.06,-56.72"/>
</a>
</g>
</g>
<!-- Node5&#45;&gt;Node2 -->
<g id="edge7_Node000005_Node000002" class="edge">
<title>Node5&#45;&gt;Node2</title>
<g id="a_edge7_Node000005_Node000002"><a xlink:title=" ">
<path fill="none" stroke="#63b8ff" d="M1159.49,-81.21C1144.33,-86.09 1128.12,-91.31 1113.57,-96"/>
<polygon fill="#63b8ff" stroke="#63b8ff" points="1160.82,-84.45 1169.26,-78.06 1158.67,-77.79 1160.82,-84.45"/>
</a>
</g>
</g>
<!-- Node5&#45;&gt;Node3 -->
<g id="edge8_Node000005_Node000003" class="edge">
<title>Node5&#45;&gt;Node3</title>
<g id="a_edge8_Node000005_Node000003"><a xlink:title=" ">
<path fill="none" stroke="#63b8ff" d="M1159.49,-44.79C1144.33,-39.91 1128.12,-34.69 1113.57,-30"/>
<polygon fill="#63b8ff" stroke="#63b8ff" points="1158.67,-48.21 1169.26,-47.94 1160.82,-41.55 1158.67,-48.21"/>
</a>
</g>
</g>
<!-- Node6 -->
<g id="Node000006" class="node">
<title>Node6</title>
<g id="a_Node000006"><a xlink:href="classSpan_1_1AssetRegistry.html#a71c0e006b41117cb0b296adaf0de1c56" target="_top" xlink:title="指定ディレクトリ以下の全アセットをスキャンし、レジストリを構築します。">
<polygon fill="white" stroke="#666666" points="1123,-78 1009,-78 1009,-48 1123,-48 1123,-78"/>
<text text-anchor="start" x="1017" y="-66" font-family="Helvetica,sans-Serif" font-size="10.00">Span::AssetRegistry</text>
<text text-anchor="middle" x="1066" y="-55" font-family="Helvetica,sans-Serif" font-size="10.00">::Refresh</text>
</a>
</g>
</g>
<!-- Node5&#45;&gt;Node6 -->
<g id="edge9_Node000005_Node000006" class="edge">
<title>Node5&#45;&gt;Node6</title>
<g id="a_edge9_Node000005_Node000006"><a xlink:title=" ">
<path fill="none" stroke="#63b8ff" d="M1149.53,-63C1140.81,-63 1131.94,-63 1123.41,-63"/>
<polygon fill="#63b8ff" stroke="#63b8ff" points="1149.67,-66.5 1159.67,-63 1149.67,-59.5 1149.67,-66.5"/>
</a>
</g>
</g>
<!-- Node7 -->
<g id="Node000007" class="node">
<title>Node7</title>
<g id="a_Node000007"><a xlink:href="classSpan_1_1AssetManager.html#a69ad0e84f0e86f10a14693275d0872f2" target="_top" xlink:title="マネージャーを初期化します。">
<polygon fill="white" stroke="#666666" points="972,-78 856,-78 856,-48 972,-48 972,-78"/>
<text text-anchor="start" x="864" y="-66" font-family="Helvetica,sans-Serif" font-size="10.00">Span::AssetManager</text>
<text text-anchor="middle" x="914" y="-55" font-family="Helvetica,sans-Serif" font-size="10.00">::Initialize</text>
</a>
</g>
</g>
<!-- Node6&#45;&gt;Node7 -->
<g id="edge10_Node000006_Node000007" class="edge">
<title>Node6&#45;&gt;Node7</title>
<g id="a_edge10_Node000006_Node000007"><a xlink:title=" ">
<path fill="none" stroke="#63b8ff" d="M998.49,-63C989.68,-63 980.72,-63 972.1,-63"/>
<polygon fill="#63b8ff" stroke="#63b8ff" points="998.72,-66.5 1008.72,-63 998.72,-59.5 998.72,-66.5"/>
</a>
</g>
</g>
<!-- Node8 -->
<g id="Node000008" class="node">
<title>Node8</title>
<g id="a_Node000008"><a xlink:href="classSpan_1_1Application.html#a0c44e973ca5db1d23a02a2cee66f5c11" target="_top" xlink:title=" ">
<polygon fill="white" stroke="#666666" points="820,-78 713,-78 713,-48 820,-48 820,-78"/>
<text text-anchor="start" x="721" y="-66" font-family="Helvetica,sans-Serif" font-size="10.00">Span::Application::</text>
<text text-anchor="middle" x="766.5" y="-55" font-family="Helvetica,sans-Serif" font-size="10.00">Application</text>
</a>
</g>
</g>
<!-- Node7&#45;&gt;Node8 -->
<g id="edge11_Node000007_Node000008" class="edge">
<title>Node7&#45;&gt;Node8</title>
<g id="a_edge11_Node000007_Node000008"><a xlink:title=" ">
<path fill="none" stroke="#63b8ff" d="M845.86,-63C837.24,-63 828.5,-63 820.15,-63"/>
<polygon fill="#63b8ff" stroke="#63b8ff" points="845.91,-66.5 855.91,-63 845.91,-59.5 845.91,-66.5"/>
</a>
</g>
</g>
<!-- Node9 -->
<g id="Node000009" class="node">
<title>Node9</title>
<g id="a_Node000009"><a xlink:href="classSpan_1_1Application.html#ae2e9eaebe90ffdf55cfef9d74ccbce3e" target="_top" xlink:title="シングルトンインスタンスの取得">
<polygon fill="white" stroke="#666666" points="677,-302.5 552,-302.5 552,-283.5 677,-283.5 677,-302.5"/>
<text text-anchor="middle" x="614.5" y="-290.5" font-family="Helvetica,sans-Serif" font-size="10.00">Span::Application::Get</text>
</a>
</g>
</g>
<!-- Node8&#45;&gt;Node9 -->
<g id="edge12_Node000008_Node000009" class="edge">
<title>Node8&#45;&gt;Node9</title>
<g id="a_edge12_Node000008_Node000009"><a xlink:title=" ">
<path fill="none" stroke="#63b8ff" d="M750.14,-86.56C717.87,-136.03 644.2,-248.99 621.97,-283.08"/>
<polygon fill="#63b8ff" stroke="#63b8ff" points="753.13,-88.38 755.66,-78.09 747.26,-84.56 753.13,-88.38"/>
</a>
</g>
</g>
<!-- Node22 -->
<g id="Node000022" class="node">
<title>Node22</title>
<g id="a_Node000022"><a xlink:href="classSpan_1_1Application.html#a095598d0c2e753bfb8d00acee435980f" target="_top" xlink:title="シングルトンインスタンスのポインタ取得 (存在チェック用)">
<polygon fill="white" stroke="#666666" points="675,-72.5 554,-72.5 554,-53.5 675,-53.5 675,-72.5"/>
<text text-anchor="middle" x="614.5" y="-60.5" font-family="Helvetica,sans-Serif" font-size="10.00">Span::Application::Ptr</text>
</a>
</g>
</g>
<!-- Node8&#45;&gt;Node22 -->
<g id="edge32_Node000008_Node000022" class="edge">
<title>Node8&#45;&gt;Node22</title>
<g id="a_edge32_Node000008_Node000022"><a xlink:title=" ">
<path fill="none" stroke="#63b8ff" d="M702.49,-63C693.41,-63 684.08,-63 675.07,-63"/>
<polygon fill="#63b8ff" stroke="#63b8ff" points="702.62,-66.5 712.62,-63 702.62,-59.5 702.62,-66.5"/>
</a>
</g>
</g>
<!-- Node10 -->
<g id="Node000010" class="node">
<title>Node10</title>
<g id="a_Node000010"><a xlink:href="classSpan_1_1HierarchyPanel.html#a331d846c46df5f3346cfc7bb8c7a8e76" target="_top" xlink:title="エンティティ上での右クリックメニューを描画します。">
<polygon fill="white" stroke="#666666" points="501,-389 381,-389 381,-359 501,-359 501,-389"/>
<text text-anchor="start" x="389" y="-377" font-family="Helvetica,sans-Serif" font-size="10.00">Span::HierarchyPanel</text>
<text text-anchor="middle" x="441" y="-366" font-family="Helvetica,sans-Serif" font-size="10.00">::DrawContextMenu</text>
</a>
</g>
</g>
<!-- Node9&#45;&gt;Node10 -->
<g id="edge13_Node000009_Node000010" class="edge">
<title>Node9&#45;&gt;Node10</title>
<g id="a_edge13_Node000009_Node000010"><a xlink:title=" ">
<path fill="none" stroke="#63b8ff" d="M588.05,-307.62C568.62,-318.53 541.01,-333.48 516,-345 505.47,-349.85 493.89,-354.64 483.07,-358.89"/>
<polygon fill="#63b8ff" stroke="#63b8ff" points="589.91,-310.59 596.89,-302.62 586.46,-304.5 589.91,-310.59"/>
</a>
</g>
</g>
<!-- Node11 -->
<g id="Node000011" class="node">
<title>Node11</title>
<g id="a_Node000011"><a xlink:href="classSpan_1_1HierarchyPanel.html#a2c08f8c6e0cafaed96f7846d76ff2b09" target="_top" xlink:title="1つのエンティティとその子孫を再帰的に描画します。">
<polygon fill="white" stroke="#666666" points="303,-415 183,-415 183,-385 303,-385 303,-415"/>
<text text-anchor="start" x="191" y="-403" font-family="Helvetica,sans-Serif" font-size="10.00">Span::HierarchyPanel</text>
<text text-anchor="middle" x="243" y="-392" font-family="Helvetica,sans-Serif" font-size="10.00">::DrawEntityNode</text>
</a>
</g>
</g>
<!-- Node9&#45;&gt;Node11 -->
<g id="edge19_Node000009_Node000011" class="edge">
<title>Node9&#45;&gt;Node11</title>
<g id="a_edge19_Node000009_Node000011"><a xlink:title=" ">
<path fill="none" stroke="#63b8ff" d="M603,-311.57C587.64,-336.63 556.4,-380.21 516,-398 447.72,-428.08 360.11,-421.79 303.04,-412.57"/>
<polygon fill="#63b8ff" stroke="#63b8ff" points="606.19,-313.06 608.27,-302.67 600.17,-309.49 606.19,-313.06"/>
</a>
</g>
</g>
<!-- Node12 -->
<g id="Node000012" class="node">
<title>Node12</title>
<g id="a_Node000012"><a xlink:href="classSpan_1_1HierarchyPanel.html#a6481eb57cd9f45cb3a094a26f35bbaa0" target="_top" xlink:title="毎フレーム呼ばれる描画関数。">
<polygon fill="white" stroke="#666666" points="120,-351 0,-351 0,-321 120,-321 120,-351"/>
<text text-anchor="start" x="8" y="-339" font-family="Helvetica,sans-Serif" font-size="10.00">Span::HierarchyPanel</text>
<text text-anchor="middle" x="60" y="-328" font-family="Helvetica,sans-Serif" font-size="10.00">::OnImGuiRender</text>
</a>
</g>
</g>
<!-- Node9&#45;&gt;Node12 -->
<g id="edge26_Node000009_Node000012" class="edge">
<title>Node9&#45;&gt;Node12</title>
<g id="a_edge26_Node000009_Node000012"><a xlink:title=" ">
<path fill="none" stroke="#63b8ff" d="M541.56,-291.43C451.09,-290.51 291.21,-292.33 156,-312 141.69,-314.08 126.41,-317.43 112.38,-320.97"/>
<polygon fill="#63b8ff" stroke="#63b8ff" points="541.67,-294.94 551.71,-291.55 541.75,-287.94 541.67,-294.94"/>
</a>
</g>
</g>
<!-- Node13 -->
<g id="Node000013" class="node">
<title>Node13</title>
<g id="a_Node000013"><a xlink:href="classSpan_1_1HierarchyPanel.html#a04888145be2266ef8385e234b79ec53a" target="_top" xlink:title="何もない場所での右クリックメニュー (新規作成など) を描画します。">
<polygon fill="white" stroke="#666666" points="330,-351 156,-351 156,-321 330,-321 330,-351"/>
<text text-anchor="start" x="164" y="-339" font-family="Helvetica,sans-Serif" font-size="10.00">Span::HierarchyPanel</text>
<text text-anchor="middle" x="243" y="-328" font-family="Helvetica,sans-Serif" font-size="10.00">::DrawEmptySpaceContextMenu</text>
</a>
</g>
</g>
<!-- Node9&#45;&gt;Node13 -->
<g id="edge17_Node000009_Node000013" class="edge">
<title>Node9&#45;&gt;Node13</title>
<g id="a_edge17_Node000009_Node000013"><a xlink:title=" ">
<path fill="none" stroke="#63b8ff" d="M541.78,-303.6C533.1,-304.79 524.35,-305.96 516,-307 453.92,-314.76 383.69,-322.22 330.15,-327.62"/>
<polygon fill="#63b8ff" stroke="#63b8ff" points="542.49,-307.04 551.91,-302.19 541.53,-300.1 542.49,-307.04"/>
</a>
</g>
</g>
<!-- Node14 -->
<g id="Node000014" class="node">
<title>Node14</title>
<g id="a_Node000014"><a xlink:href="classSpan_1_1SceneViewPanel.html#ad83a4a55f083c75371d0873322808796" target="_top" xlink:title="選択中のオブジェクトに対してマニピュレータ (矢印など) を描画します。">
<polygon fill="white" stroke="#666666" points="504,-265 378,-265 378,-235 504,-235 504,-265"/>
<text text-anchor="start" x="386" y="-253" font-family="Helvetica,sans-Serif" font-size="10.00">Span::SceneViewPanel</text>
<text text-anchor="middle" x="441" y="-242" font-family="Helvetica,sans-Serif" font-size="10.00">::DrawGizmo</text>
</a>
</g>
</g>
<!-- Node9&#45;&gt;Node14 -->
<g id="edge20_Node000009_Node000014" class="edge">
<title>Node9&#45;&gt;Node14</title>
<g id="a_edge20_Node000009_Node000014"><a xlink:title=" ">
<path fill="none" stroke="#63b8ff" d="M565.72,-281.02C545.93,-276.06 522.76,-270.25 501.85,-265.01"/>
<polygon fill="#63b8ff" stroke="#63b8ff" points="564.89,-284.42 575.44,-283.46 566.59,-277.63 564.89,-284.42"/>
</a>
</g>
</g>
<!-- Node15 -->
<g id="Node000015" class="node">
<title>Node15</title>
<g id="a_Node000015"><a xlink:href="classSpan_1_1SceneViewPanel.html#aab2935de58bd68267a680cabd3656c9f" target="_top" xlink:title="毎フレームの描画処理。 画像の表示、ツールバーのオーバーレイ、ギズモの描画を行います。">
<polygon fill="white" stroke="#666666" points="306,-217 180,-217 180,-187 306,-187 306,-217"/>
<text text-anchor="start" x="188" y="-205" font-family="Helvetica,sans-Serif" font-size="10.00">Span::SceneViewPanel</text>
<text text-anchor="middle" x="243" y="-194" font-family="Helvetica,sans-Serif" font-size="10.00">::OnImGuiRender</text>
</a>
</g>
</g>
<!-- Node9&#45;&gt;Node15 -->
<g id="edge28_Node000009_Node000015" class="edge">
<title>Node9&#45;&gt;Node15</title>
<g id="a_edge28_Node000009_Node000015"><a xlink:title=" ">
<path fill="none" stroke="#63b8ff" d="M604.34,-274.25C589.89,-247.1 558.96,-197.9 516,-178 439.22,-142.43 337.27,-168.13 282.58,-186.95"/>
<polygon fill="#63b8ff" stroke="#63b8ff" points="601.39,-276.17 609.06,-283.47 607.62,-272.97 601.39,-276.17"/>
</a>
</g>
</g>
<!-- Node16 -->
<g id="Node000016" class="node">
<title>Node16</title>
<g id="a_Node000016"><a xlink:href="classSpan_1_1HierarchyPanel.html#af958ff25d0ba0576ae4848bbd01b2031" target="_top" xlink:title="ドラッグ&amp;ドロップの受け入れ処理 (親子付け替え・並び替え)。">
<polygon fill="white" stroke="#666666" points="501,-475 381,-475 381,-445 501,-445 501,-475"/>
<text text-anchor="start" x="389" y="-463" font-family="Helvetica,sans-Serif" font-size="10.00">Span::HierarchyPanel</text>
<text text-anchor="middle" x="441" y="-452" font-family="Helvetica,sans-Serif" font-size="10.00">::HandleDragDrop</text>
</a>
</g>
</g>
<!-- Node9&#45;&gt;Node16 -->
<g id="edge22_Node000009_Node000016" class="edge">
<title>Node9&#45;&gt;Node16</title>
<g id="a_edge22_Node000009_Node000016"><a xlink:title=" ">
<path fill="none" stroke="#63b8ff" d="M604.64,-312.01C590.05,-341.37 558.34,-397.82 516,-431 508.94,-436.53 500.69,-441.12 492.32,-444.9"/>
<polygon fill="#63b8ff" stroke="#63b8ff" points="607.87,-313.36 609.07,-302.83 601.57,-310.31 607.87,-313.36"/>
</a>
</g>
</g>
<!-- Node17 -->
<g id="Node000017" class="node">
<title>Node17</title>
<g id="a_Node000017"><a xlink:href="classSpan_1_1SceneViewPanel.html#afebf890816b85f92e9ed73de887b2354" target="_top" xlink:title="外部またはブラウザからドロップされたファイルを処理します。">
<polygon fill="white" stroke="#666666" points="504,-217 378,-217 378,-187 504,-187 504,-217"/>
<text text-anchor="start" x="386" y="-205" font-family="Helvetica,sans-Serif" font-size="10.00">Span::SceneViewPanel</text>
<text text-anchor="middle" x="441" y="-194" font-family="Helvetica,sans-Serif" font-size="10.00">::OnAssetDropped</text>
</a>
</g>
</g>
<!-- Node9&#45;&gt;Node17 -->
<g id="edge24_Node000009_Node000017" class="edge">
<title>Node9&#45;&gt;Node17</title>
<g id="a_edge24_Node000009_Node000017"><a xlink:title=" ">
<path fill="none" stroke="#63b8ff" d="M594,-277.07C575.03,-262.21 544.92,-240.25 516,-226 509.34,-222.72 502.12,-219.74 494.9,-217.08"/>
<polygon fill="#63b8ff" stroke="#63b8ff" points="591.88,-279.86 601.88,-283.35 596.24,-274.38 591.88,-279.86"/>
</a>
</g>
</g>
<!-- Node18 -->
<g id="Node000018" class="node">
<title>Node18</title>
<g id="a_Node000018"><a xlink:href="classSpan_1_1InspectorPanel.html#ae32fda6018a2e54f880e6708ac5b89fe" target="_top" xlink:title="毎フレーム呼ばれる描画関数。">
<polygon fill="white" stroke="#666666" points="500,-131 382,-131 382,-101 500,-101 500,-131"/>
<text text-anchor="start" x="390" y="-119" font-family="Helvetica,sans-Serif" font-size="10.00">Span::InspectorPanel</text>
<text text-anchor="middle" x="441" y="-108" font-family="Helvetica,sans-Serif" font-size="10.00">::OnImGuiRender</text>
</a>
</g>
</g>
<!-- Node9&#45;&gt;Node18 -->
<g id="edge27_Node000009_Node000018" class="edge">
<title>Node9&#45;&gt;Node18</title>
<g id="a_edge27_Node000009_Node000018"><a xlink:title=" ">
<path fill="none" stroke="#63b8ff" d="M605.59,-273.92C591.78,-242.81 560.46,-181.02 516,-145 509.14,-139.44 501.08,-134.85 492.86,-131.09"/>
<polygon fill="#63b8ff" stroke="#63b8ff" points="602.42,-275.42 609.59,-283.22 608.85,-272.65 602.42,-275.42"/>
</a>
</g>
</g>
<!-- Node19 -->
<g id="Node000019" class="node">
<title>Node19</title>
<g id="a_Node000019"><a xlink:href="classSpan_1_1CameraSystem.html#a7f4bf0245dedd7a6245ef352246f7391" target="_top" xlink:title="毎フレーム呼び出されます。ここにゲームロジックを記述します。">
<polygon fill="white" stroke="#666666" points="502,-83 380,-83 380,-53 502,-53 502,-83"/>
<text text-anchor="start" x="388" y="-71" font-family="Helvetica,sans-Serif" font-size="10.00">Span::CameraSystem</text>
<text text-anchor="middle" x="441" y="-60" font-family="Helvetica,sans-Serif" font-size="10.00">::OnUpdate</text>
</a>
</g>
</g>
<!-- Node9&#45;&gt;Node19 -->
<g id="edge29_Node000009_Node000019" class="edge">
<title>Node9&#45;&gt;Node19</title>
<g id="a_edge29_Node000009_Node000019"><a xlink:title=" ">
<path fill="none" stroke="#63b8ff" d="M609.47,-273.6C600.17,-233.71 573.48,-142.05 516,-92 511.82,-88.36 507.09,-85.28 502.08,-82.66"/>
<polygon fill="#63b8ff" stroke="#63b8ff" points="606.06,-274.39 611.64,-283.4 612.89,-272.88 606.06,-274.39"/>
</a>
</g>
</g>
<!-- Node20 -->
<g id="Node000020" class="node">
<title>Node20</title>
<g id="a_Node000020"><a xlink:href="classSpan_1_1EditorCameraSystem.html#ae933964fa5d0f299954c926cf63e091a" target="_top" xlink:title="毎フレーム呼び出されます。ここにゲームロジックを記述します。">
<polygon fill="white" stroke="#666666" points="516,-571 366,-571 366,-541 516,-541 516,-571"/>
<text text-anchor="start" x="374" y="-559" font-family="Helvetica,sans-Serif" font-size="10.00">Span::EditorCameraSystem</text>
<text text-anchor="middle" x="441" y="-548" font-family="Helvetica,sans-Serif" font-size="10.00">::OnUpdate</text>
</a>
</g>
</g>
<!-- Node9&#45;&gt;Node20 -->
<g id="edge30_Node000009_Node000020" class="edge">
<title>Node9&#45;&gt;Node20</title>
<g id="a_edge30_Node000009_Node000020"><a xlink:title=" ">
<path fill="none" stroke="#63b8ff" d="M611.07,-312.89C604.46,-358.36 581.99,-470.71 516,-532 512.34,-535.4 508.19,-538.32 503.77,-540.83"/>
<polygon fill="#63b8ff" stroke="#63b8ff" points="614.56,-313.22 612.42,-302.84 607.62,-312.28 614.56,-313.22"/>
</a>
</g>
</g>
<!-- Node21 -->
<g id="Node000021" class="node">
<title>Node21</title>
<g id="a_Node000021"><a xlink:href="classSpan_1_1RenderingSystem.html#aa0113a8f2b55129115c4da2c6ba449c4" target="_top" xlink:title="毎フレーム呼び出されます。ここにゲームロジックを記述します。">
<polygon fill="white" stroke="#666666" points="507.5,-523 374.5,-523 374.5,-493 507.5,-493 507.5,-523"/>
<text text-anchor="start" x="382.5" y="-511" font-family="Helvetica,sans-Serif" font-size="10.00">Span::RenderingSystem</text>
<text text-anchor="middle" x="441" y="-500" font-family="Helvetica,sans-Serif" font-size="10.00">::OnUpdate</text>
</a>
</g>
</g>
<!-- Node9&#45;&gt;Node21 -->
<g id="edge31_Node000009_Node000021" class="edge">
<title>Node9&#45;&gt;Node21</title>
<g id="a_edge31_Node000009_Node000021"><a xlink:title=" ">
<path fill="none" stroke="#63b8ff" d="M608.9,-312.47C598.83,-350.93 571.17,-436.94 516,-484 511.99,-487.42 507.49,-490.35 502.73,-492.87"/>
<polygon fill="#63b8ff" stroke="#63b8ff" points="612.35,-313.11 611.38,-302.56 605.56,-311.41 612.35,-313.11"/>
</a>
</g>
</g>
<!-- Node10&#45;&gt;Node11 -->
<g id="edge14_Node000010_Node000011" class="edge">
<title>Node10&#45;&gt;Node11</title>
<g id="a_edge14_Node000010_Node000011"><a xlink:title=" ">
<path fill="none" stroke="#63b8ff" d="M370.95,-383.16C348.86,-386.09 324.62,-389.31 303.29,-392.14"/>
<polygon fill="#63b8ff" stroke="#63b8ff" points="371.47,-386.62 380.93,-381.84 370.55,-379.68 371.47,-386.62"/>
</a>
</g>
</g>
<!-- Node11&#45;&gt;Node11 -->
<g id="edge15_Node000011_Node000011" class="edge">
<title>Node11&#45;&gt;Node11</title>
<g id="a_edge15_Node000011_Node000011"><a xlink:title=" ">
<path fill="none" stroke="#63b8ff" d="M274.86,-425.6C270.5,-429.97 259.88,-433 243,-433 214.56,-433 203.9,-424.41 211.01,-415.28"/>
<polygon fill="#63b8ff" stroke="#63b8ff" points="278.36,-425.32 274.99,-415.28 271.36,-425.23 278.36,-425.32"/>
</a>
</g>
</g>
<!-- Node11&#45;&gt;Node12 -->
<g id="edge16_Node000011_Node000012" class="edge">
<title>Node11&#45;&gt;Node12</title>
<g id="a_edge16_Node000011_Node000012"><a xlink:title=" ">
<path fill="none" stroke="#63b8ff" d="M190.12,-381.66C162.67,-371.95 129.38,-360.18 103.48,-351.02"/>
<polygon fill="#63b8ff" stroke="#63b8ff" points="188.97,-384.96 199.56,-384.99 191.3,-378.36 188.97,-384.96"/>
</a>
</g>
</g>
<!-- Node13&#45;&gt;Node12 -->
<g id="edge18_Node000013_Node000012" class="edge">
<title>Node13&#45;&gt;Node12</title>
<g id="a_edge18_Node000013_Node000012"><a xlink:title=" ">
<path fill="none" stroke="#63b8ff" d="M145.6,-336C136.96,-336 128.41,-336 120.23,-336"/>
<polygon fill="#63b8ff" stroke="#63b8ff" points="145.74,-339.5 155.74,-336 145.74,-332.5 145.74,-339.5"/>
</a>
</g>
</g>
<!-- Node14&#45;&gt;Node15 -->
<g id="edge21_Node000014_Node000015" class="edge">
<title>Node14&#45;&gt;Node15</title>
<g id="a_edge21_Node000014_Node000015"><a xlink:title=" ">
<path fill="none" stroke="#63b8ff" d="M368.78,-232.56C347.96,-227.46 325.4,-221.93 305.26,-217"/>
<polygon fill="#63b8ff" stroke="#63b8ff" points="367.98,-235.96 378.52,-234.94 369.64,-229.17 367.98,-235.96"/>
</a>
</g>
</g>
<!-- Node16&#45;&gt;Node11 -->
<g id="edge23_Node000016_Node000011" class="edge">
<title>Node16&#45;&gt;Node11</title>
<g id="a_edge23_Node000016_Node000011"><a xlink:title=" ">
<path fill="none" stroke="#63b8ff" d="M381.11,-441.97C353.06,-433.39 319.91,-423.24 293.23,-415.07"/>
<polygon fill="#63b8ff" stroke="#63b8ff" points="380.21,-445.36 390.79,-444.94 382.26,-438.66 380.21,-445.36"/>
</a>
</g>
</g>
<!-- Node17&#45;&gt;Node15 -->
<g id="edge25_Node000017_Node000015" class="edge">
<title>Node17&#45;&gt;Node15</title>
<g id="a_edge25_Node000017_Node000015"><a xlink:title=" ">
<path fill="none" stroke="#63b8ff" d="M367.89,-202C347.68,-202 325.88,-202 306.28,-202"/>
<polygon fill="#63b8ff" stroke="#63b8ff" points="367.98,-205.5 377.98,-202 367.98,-198.5 367.98,-205.5"/>
</a>
</g>
</g>
<!-- Node23 -->
<g id="Node000023" class="node">
<title>Node23</title>
<g id="a_Node000023"><a xlink:href="namespaceSpan.html#a3f4b8561d46e69596ba6a7c3177a92e7" target="_top" xlink:title=" ">
<polygon fill="white" stroke="#666666" points="511.5,-34.5 370.5,-34.5 370.5,-15.5 511.5,-15.5 511.5,-34.5"/>
<text text-anchor="middle" x="441" y="-22.5" font-family="Helvetica,sans-Serif" font-size="10.00">Span::ConsoleCtrlHandler</text>
</a>
</g>
</g>
<!-- Node22&#45;&gt;Node23 -->
<g id="edge33_Node000022_Node000023" class="edge">
<title>Node22&#45;&gt;Node23</title>
<g id="a_edge33_Node000022_Node000023"><a xlink:title=" ">
<path fill="none" stroke="#63b8ff" d="M560.46,-51.25C536.21,-45.87 507.85,-39.59 484.97,-34.52"/>
<polygon fill="#63b8ff" stroke="#63b8ff" points="559.7,-54.66 570.22,-53.41 561.22,-47.83 559.7,-54.66"/>
</a>
</g>
</g>
<!-- Node23&#45;&gt;Node8 -->
<g id="edge34_Node000023_Node000008" class="edge">
<title>Node23&#45;&gt;Node8</title>
<g id="a_edge34_Node000023_Node000008"><a xlink:title=" ">
<path fill="none" stroke="#63b8ff" d="M521.77,-29.49C567.38,-32.63 625.57,-37.61 677,-45 688.64,-46.67 701.06,-48.91 712.79,-51.24"/>
<polygon fill="#63b8ff" stroke="#63b8ff" points="521.86,-25.99 511.65,-28.81 521.39,-32.97 521.86,-25.99"/>
</a>
</g>
</g>
</g>
</svg>
