<?xml version="1.0" encoding="UTF-8" standalone="no"?>
<!DOCTYPE svg PUBLIC "-//W3C//DTD SVG 1.1//EN"
 "http://www.w3.org/Graphics/SVG/1.1/DTD/svg11.dtd">
<!-- Generated by graphviz version 2.43.0 (0)
 -->
<!-- Title: Span::Camera::Min Pages: 1 -->
<svg width="279pt" height="82pt"
 viewBox="0.00 0.00 279.00 82.00" xmlns="http://www.w3.org/2000/svg" xmlns:xlink="http://www.w3.org/1999/xlink">

<svg id="main" version="1.1" xmlns="http://www.w3.org/2000/svg" xmlns:xlink="http://www.w3.org/1999/xlink" xml:space="preserve">

<style type="text/css"><![CDATA[
.node, .edge {opacity: 0.7;}
.node.selected, .edge.selected {opacity: 1;}
.edge:hover path { stroke: red; }
.edge:hover polygon { stroke: red; fill: red; }
]]></style>
<script type="application/ecmascript" xlink:href="svg.min.js"/>
<svg id="graph" class="graph">
<g id="graph0" class="graph" transform="scale(1 1) rotate(0) translate(4 78)">
<title>Span::Camera::Min</title>
<!-- Node1 -->
<g id="Node000001" class="node">
<title>Node1</title>
<g id="a_Node000001"><a xlink:title=" ">
<polygon fill="#999999" stroke="#666666" points="271,-37 162,-37 162,-18 271,-18 271,-37"/>
<text text-anchor="middle" x="216.5" y="-25" font-family="Helvetica,sans-Serif" font-size="10.00">Span::Camera::Min</text>
</a>
</g>
</g>
<!-- Node1&#45;&gt;Node1 -->
<g id="edge4_Node000001_Node000001" class="edge">
<title>Node1&#45;&gt;Node1</title>
<g id="a_edge4_Node000001_Node000001"><a xlink:title=" ">
<path fill="none" stroke="#63b8ff" d="M244.87,-45.82C243.69,-51.01 234.23,-55 216.5,-55 189.48,-55 181.68,-45.73 193.07,-37.08"/>
<polygon fill="#63b8ff" stroke="#63b8ff" points="247.9,-44.06 239.93,-37.08 241.81,-47.51 247.9,-44.06"/>
</a>
</g>
</g>
<!-- Node2 -->
<g id="Node000002" class="node">
<title>Node2</title>
<g id="a_Node000002"><a xlink:href="structSpan_1_1Camera.html#a0c6923a4e86c576bb77222ca974ae4d0" target="_top" xlink:title=" ">
<polygon fill="white" stroke="#666666" points="126,-56 0,-56 0,-37 126,-37 126,-56"/>
<text text-anchor="middle" x="63" y="-44" font-family="Helvetica,sans-Serif" font-size="10.00">Span::Camera::Header</text>
</a>
</g>
</g>
<!-- Node1&#45;&gt;Node2 -->
<g id="edge1_Node000001_Node000002" class="edge">
<title>Node1&#45;&gt;Node2</title>
<g id="a_edge1_Node000001_Node000002"><a xlink:title=" ">
<path fill="none" stroke="#63b8ff" d="M151.55,-35.52C143.15,-36.57 134.56,-37.65 126.2,-38.7"/>
<polygon fill="#63b8ff" stroke="#63b8ff" points="152.17,-38.97 161.66,-34.25 151.3,-32.02 152.17,-38.97"/>
</a>
</g>
</g>
<!-- Node3 -->
<g id="Node000003" class="node">
<title>Node3</title>
<g id="a_Node000003"><a xlink:href="structSpan_1_1Camera.html#a014e8eba964d808c5573ec1bc310ff57" target="_top" xlink:title=" ">
<polygon fill="white" stroke="#666666" points="117.5,-19 8.5,-19 8.5,0 117.5,0 117.5,-19"/>
<text text-anchor="middle" x="63" y="-7" font-family="Helvetica,sans-Serif" font-size="10.00">Span::Camera::Min</text>
</a>
</g>
</g>
<!-- Node1&#45;&gt;Node3 -->
<g id="edge3_Node000001_Node000003" class="edge">
<title>Node1&#45;&gt;Node3</title>
<g id="a_edge3_Node000001_Node000003"><a xlink:title=" ">
<path fill="none" stroke="#63b8ff" d="M151.46,-19.89C140.2,-18.55 128.6,-17.18 117.67,-15.88"/>
<polygon fill="#63b8ff" stroke="#63b8ff" points="151.32,-23.4 161.66,-21.1 152.14,-16.45 151.32,-23.4"/>
</a>
</g>
</g>
<!-- Node2&#45;&gt;Node2 -->
<g id="edge2_Node000002_Node000002" class="edge">
<title>Node2&#45;&gt;Node2</title>
<g id="a_edge2_Node000002_Node000002"><a xlink:title=" ">
<path fill="none" stroke="#63b8ff" d="M91.37,-64.82C90.19,-70.01 80.73,-74 63,-74 35.98,-74 28.18,-64.73 39.57,-56.08"/>
<polygon fill="#63b8ff" stroke="#63b8ff" points="94.4,-63.06 86.43,-56.08 88.31,-66.51 94.4,-63.06"/>
</a>
</g>
</g>
</g>
</svg>
</svg>

<style type='text/css'>
<![CDATA[
[data-mouse-over-selected='false'] { opacity: 0.7; }
[data-mouse-over-selected='true']  { opacity: 1.0; }
]]>
</style>
<script type="application/ecmascript"><![CDATA[
document.addEventListener('DOMContentLoaded', (event) => {
  highlightEdges();
  highlightAdjacentNodes();
});
]]></script>
</svg>
