<?xml version="1.0" encoding="UTF-8" standalone="no"?>
<!DOCTYPE svg PUBLIC "-//W3C//DTD SVG 1.1//EN"
 "http://www.w3.org/Graphics/SVG/1.1/DTD/svg11.dtd">
<!-- Generated by graphviz version 2.43.0 (0)
 -->
<!-- Title: Span::MeshFilter Pages: 1 -->
<svg width="114pt" height="339pt"
 viewBox="0.00 0.00 114.00 339.00" xmlns="http://www.w3.org/2000/svg" xmlns:xlink="http://www.w3.org/1999/xlink">
<g id="graph0" class="graph" transform="scale(1 1) rotate(0) translate(4 335)">
<title>Span::MeshFilter</title>
<!-- Node1 -->
<g id="Node000001" class="node">
<title>Node1</title>
<g id="a_Node000001"><a xlink:title=" ">
<polygon fill="#999999" stroke="transparent" points="99,-64 7,-64 7,0 99,0 99,-64"/>
<text text-anchor="start" x="12" y="-52" font-family="Helvetica,sans-Serif" font-size="10.00">Span::MeshFilter</text>
<text text-anchor="start" x="51" y="-37" font-family="Helvetica,sans-Serif" font-size="10.00">Â </text>
<text text-anchor="start" x="14" y="-22" font-family="Helvetica,sans-Serif" font-size="10.00">+</text>
<text text-anchor="start" x="30" y="-22" font-family="Helvetica,sans-Serif" font-size="10.00">MeshFilter()</text>
<text text-anchor="start" x="14" y="-7" font-family="Helvetica,sans-Serif" font-size="10.00">+</text>
<text text-anchor="start" x="30" y="-7" font-family="Helvetica,sans-Serif" font-size="10.00">MeshFilter()</text>
<polygon fill="#666666" stroke="#666666" points="7,-47 7,-47 99,-47 99,-47 7,-47"/>
<polygon fill="#666666" stroke="#666666" points="7,-32 7,-32 99,-32 99,-32 7,-32"/>
<polygon fill="none" stroke="#666666" points="7,0 7,-64 99,-64 99,0 7,0"/>
</a>
</g>
</g>
<!-- Node2 -->
<g id="Node000002" class="node">
<title>Node2</title>
<g id="a_Node000002"><a xlink:href="classSpan_1_1Mesh.html" target="_top" xlink:title="ðŸ“¦ é ‚ç‚¹ãƒ‡ãƒ¼ã‚¿ã‚’GPUãƒ¡ãƒ¢ãƒª (Vertex Buffer) ã«ä¿æŒã™ã‚‹ã‚¯ãƒ©ã‚¹ã€‚">
<polygon fill="white" stroke="transparent" points="106,-331 0,-331 0,-117 106,-117 106,-331"/>
<text text-anchor="start" x="24.5" y="-319" font-family="Helvetica,sans-Serif" font-size="10.00">Span::Mesh</text>
<text text-anchor="start" x="6.5" y="-304" font-family="Helvetica,sans-Serif" font-size="10.00">&#45;</text>
<text text-anchor="start" x="17" y="-304" font-family="Helvetica,sans-Serif" font-size="10.00">vertexBuffer</text>
<text text-anchor="start" x="6.5" y="-289" font-family="Helvetica,sans-Serif" font-size="10.00">&#45;</text>
<text text-anchor="start" x="17" y="-289" font-family="Helvetica,sans-Serif" font-size="10.00">vertexBufferView</text>
<text text-anchor="start" x="6.5" y="-274" font-family="Helvetica,sans-Serif" font-size="10.00">&#45;</text>
<text text-anchor="start" x="17" y="-274" font-family="Helvetica,sans-Serif" font-size="10.00">vertexCount</text>
<text text-anchor="start" x="4" y="-259" font-family="Helvetica,sans-Serif" font-size="10.00">+</text>
<text text-anchor="start" x="17" y="-259" font-family="Helvetica,sans-Serif" font-size="10.00">Initialize()</text>
<text text-anchor="start" x="4" y="-244" font-family="Helvetica,sans-Serif" font-size="10.00">+</text>
<text text-anchor="start" x="17" y="-244" font-family="Helvetica,sans-Serif" font-size="10.00">Shutdown()</text>
<text text-anchor="start" x="4" y="-229" font-family="Helvetica,sans-Serif" font-size="10.00">+</text>
<text text-anchor="start" x="17" y="-229" font-family="Helvetica,sans-Serif" font-size="10.00">Draw()</text>
<text text-anchor="start" x="4" y="-214" font-family="Helvetica,sans-Serif" font-size="10.00">+</text>
<text text-anchor="start" x="17" y="-214" font-family="Helvetica,sans-Serif" font-size="10.00">CreateCube()</text>
<text text-anchor="start" x="4" y="-199" font-family="Helvetica,sans-Serif" font-size="10.00">+</text>
<text text-anchor="start" x="17" y="-199" font-family="Helvetica,sans-Serif" font-size="10.00">CreateSphere()</text>
<text text-anchor="start" x="4" y="-184" font-family="Helvetica,sans-Serif" font-size="10.00">+</text>
<text text-anchor="start" x="17" y="-184" font-family="Helvetica,sans-Serif" font-size="10.00">CreatePlane()</text>
<text text-anchor="start" x="4" y="-169" font-family="Helvetica,sans-Serif" font-size="10.00">+</text>
<text text-anchor="start" x="17" y="-169" font-family="Helvetica,sans-Serif" font-size="10.00">CreateCylinder()</text>
<text text-anchor="start" x="4" y="-154" font-family="Helvetica,sans-Serif" font-size="10.00">+</text>
<text text-anchor="start" x="17" y="-154" font-family="Helvetica,sans-Serif" font-size="10.00">CreateCone()</text>
<text text-anchor="start" x="4" y="-139" font-family="Helvetica,sans-Serif" font-size="10.00">+</text>
<text text-anchor="start" x="17" y="-139" font-family="Helvetica,sans-Serif" font-size="10.00">CreateTorus()</text>
<text text-anchor="start" x="4" y="-124" font-family="Helvetica,sans-Serif" font-size="10.00">+</text>
<text text-anchor="start" x="17" y="-124" font-family="Helvetica,sans-Serif" font-size="10.00">CreateCapsule()</text>
<polygon fill="#666666" stroke="#666666" points="0,-314 0,-314 106,-314 106,-314 0,-314"/>
<polygon fill="#666666" stroke="#666666" points="0,-269 0,-269 15,-269 15,-269 0,-269"/>
<polygon fill="#666666" stroke="#666666" points="15,-269 15,-269 106,-269 106,-269 15,-269"/>
<polygon fill="none" stroke="#666666" points="0,-117 0,-331 106,-331 106,-117 0,-117"/>
</a>
</g>
</g>
<!-- Node2&#45;&gt;Node1 -->
<g id="edge1_Node000001_Node000002" class="edge">
<title>Node2&#45;&gt;Node1</title>
<g id="a_edge1_Node000001_Node000002"><a xlink:title=" ">
<path fill="none" stroke="#63b8ff" d="M53,-116.89C53,-102.63 53,-88.71 53,-76.44"/>
<polygon fill="none" stroke="#63b8ff" points="53,-76.3 49,-70.3 53,-64.3 57,-70.3 53,-76.3"/>
</a>
</g>
<text text-anchor="start" x="56" y="-87.5" font-family="Helvetica,sans-Serif" font-size="10.00" fill="grey">+mesh</text>
</g>
</g>
</svg>
