<?xml version="1.0" encoding="UTF-8" standalone="no"?>
<!DOCTYPE svg PUBLIC "-//W3C//DTD SVG 1.1//EN"
 "http://www.w3.org/Graphics/SVG/1.1/DTD/svg11.dtd">
<!-- Generated by graphviz version 2.43.0 (0)
 -->
<!-- Title: Span::MaterialData Pages: 1 -->
<svg width="176pt" height="474pt"
 viewBox="0.00 0.00 175.50 474.00" xmlns="http://www.w3.org/2000/svg" xmlns:xlink="http://www.w3.org/1999/xlink">
<g id="graph0" class="graph" transform="scale(1 1) rotate(0) translate(4 470)">
<title>Span::MaterialData</title>
<!-- Node1 -->
<g id="Node000001" class="node">
<title>Node1</title>
<g id="a_Node000001"><a xlink:title=" ">
<polygon fill="#999999" stroke="transparent" points="104,-109 0,-109 0,0 104,0 104,-109"/>
<text text-anchor="start" x="5" y="-96.5" font-family="Helvetica,sans-Serif" font-size="10.00">Span::MaterialData</text>
<text text-anchor="start" x="11" y="-81.5" font-family="Helvetica,sans-Serif" font-size="10.00">+</text>
<text text-anchor="start" x="31" y="-81.5" font-family="Helvetica,sans-Serif" font-size="10.00">Roughness</text>
<text text-anchor="start" x="11" y="-66.5" font-family="Helvetica,sans-Serif" font-size="10.00">+</text>
<text text-anchor="start" x="31" y="-66.5" font-family="Helvetica,sans-Serif" font-size="10.00">Metallic</text>
<text text-anchor="start" x="11" y="-51.5" font-family="Helvetica,sans-Serif" font-size="10.00">+</text>
<text text-anchor="start" x="31" y="-51.5" font-family="Helvetica,sans-Serif" font-size="10.00">Opacity</text>
<text text-anchor="start" x="11" y="-36.5" font-family="Helvetica,sans-Serif" font-size="10.00">+</text>
<text text-anchor="start" x="31" y="-36.5" font-family="Helvetica,sans-Serif" font-size="10.00">useTexture</text>
<text text-anchor="start" x="11" y="-21.5" font-family="Helvetica,sans-Serif" font-size="10.00">+</text>
<text text-anchor="start" x="31" y="-21.5" font-family="Helvetica,sans-Serif" font-size="10.00">Padding</text>
<text text-anchor="start" x="50" y="-6.5" font-family="Helvetica,sans-Serif" font-size="10.00"> </text>
<polygon fill="#666666" stroke="#666666" points="0,-91.5 0,-91.5 104,-91.5 104,-91.5 0,-91.5"/>
<polygon fill="#666666" stroke="#666666" points="0,-16.5 0,-16.5 29,-16.5 29,-16.5 0,-16.5"/>
<polygon fill="#666666" stroke="#666666" points="29,-16.5 29,-16.5 104,-16.5 104,-16.5 29,-16.5"/>
<polygon fill="none" stroke="#666666" points="0,0 0,-109 104,-109 104,0 0,0"/>
</a>
</g>
</g>
<!-- Node2 -->
<g id="Node000002" class="node">
<title>Node2</title>
<g id="a_Node000002"><a xlink:href="structSpan_1_1Vector3.html" target="_top" xlink:title=" ">
<polygon fill="white" stroke="transparent" points="95.5,-466 8.5,-466 8.5,-162 95.5,-162 95.5,-466"/>
<text text-anchor="start" x="19" y="-454" font-family="Helvetica,sans-Serif" font-size="10.00">Span::Vector3</text>
<text text-anchor="start" x="13" y="-439" font-family="Helvetica,sans-Serif" font-size="10.00">+</text>
<text text-anchor="start" x="26" y="-439" font-family="Helvetica,sans-Serif" font-size="10.00">x</text>
<text text-anchor="start" x="13" y="-424" font-family="Helvetica,sans-Serif" font-size="10.00">+</text>
<text text-anchor="start" x="26" y="-424" font-family="Helvetica,sans-Serif" font-size="10.00">y</text>
<text text-anchor="start" x="13" y="-409" font-family="Helvetica,sans-Serif" font-size="10.00">+</text>
<text text-anchor="start" x="26" y="-409" font-family="Helvetica,sans-Serif" font-size="10.00">z</text>
<text text-anchor="start" x="13" y="-394" font-family="Helvetica,sans-Serif" font-size="10.00">+</text>
<text text-anchor="start" x="26" y="-394" font-family="Helvetica,sans-Serif" font-size="10.00">Vector3()</text>
<text text-anchor="start" x="13" y="-379" font-family="Helvetica,sans-Serif" font-size="10.00">+</text>
<text text-anchor="start" x="26" y="-379" font-family="Helvetica,sans-Serif" font-size="10.00">Vector3()</text>
<text text-anchor="start" x="13" y="-364" font-family="Helvetica,sans-Serif" font-size="10.00">+</text>
<text text-anchor="start" x="26" y="-364" font-family="Helvetica,sans-Serif" font-size="10.00">Vector3()</text>
<text text-anchor="start" x="13" y="-349" font-family="Helvetica,sans-Serif" font-size="10.00">+</text>
<text text-anchor="start" x="26" y="-349" font-family="Helvetica,sans-Serif" font-size="10.00">ToXM()</text>
<text text-anchor="start" x="13" y="-334" font-family="Helvetica,sans-Serif" font-size="10.00">+</text>
<text text-anchor="start" x="26" y="-334" font-family="Helvetica,sans-Serif" font-size="10.00">FromXM()</text>
<text text-anchor="start" x="13" y="-319" font-family="Helvetica,sans-Serif" font-size="10.00">+</text>
<text text-anchor="start" x="26" y="-319" font-family="Helvetica,sans-Serif" font-size="10.00">operator+()</text>
<text text-anchor="start" x="13" y="-304" font-family="Helvetica,sans-Serif" font-size="10.00">+</text>
<text text-anchor="start" x="26" y="-304" font-family="Helvetica,sans-Serif" font-size="10.00">operator&#45;()</text>
<text text-anchor="start" x="13" y="-289" font-family="Helvetica,sans-Serif" font-size="10.00">+</text>
<text text-anchor="start" x="26" y="-289" font-family="Helvetica,sans-Serif" font-size="10.00">operator*()</text>
<text text-anchor="start" x="13" y="-274" font-family="Helvetica,sans-Serif" font-size="10.00">+</text>
<text text-anchor="start" x="26" y="-274" font-family="Helvetica,sans-Serif" font-size="10.00">operator/()</text>
<text text-anchor="start" x="13" y="-259" font-family="Helvetica,sans-Serif" font-size="10.00">+</text>
<text text-anchor="start" x="26" y="-259" font-family="Helvetica,sans-Serif" font-size="10.00">operator+=()</text>
<text text-anchor="start" x="13" y="-244" font-family="Helvetica,sans-Serif" font-size="10.00">+</text>
<text text-anchor="start" x="26" y="-244" font-family="Helvetica,sans-Serif" font-size="10.00">operator&#45;=()</text>
<text text-anchor="start" x="13" y="-229" font-family="Helvetica,sans-Serif" font-size="10.00">+</text>
<text text-anchor="start" x="26" y="-229" font-family="Helvetica,sans-Serif" font-size="10.00">Length()</text>
<text text-anchor="start" x="13" y="-214" font-family="Helvetica,sans-Serif" font-size="10.00">+</text>
<text text-anchor="start" x="26" y="-214" font-family="Helvetica,sans-Serif" font-size="10.00">Normalized()</text>
<text text-anchor="start" x="13" y="-199" font-family="Helvetica,sans-Serif" font-size="10.00">+</text>
<text text-anchor="start" x="26" y="-199" font-family="Helvetica,sans-Serif" font-size="10.00">Dot()</text>
<text text-anchor="start" x="13" y="-184" font-family="Helvetica,sans-Serif" font-size="10.00">+</text>
<text text-anchor="start" x="26" y="-184" font-family="Helvetica,sans-Serif" font-size="10.00">Cross()</text>
<text text-anchor="start" x="13" y="-169" font-family="Helvetica,sans-Serif" font-size="10.00">+</text>
<text text-anchor="start" x="26" y="-169" font-family="Helvetica,sans-Serif" font-size="10.00">Lerp()</text>
<polygon fill="#666666" stroke="#666666" points="9,-449 9,-449 96,-449 96,-449 9,-449"/>
<polygon fill="#666666" stroke="#666666" points="9,-404 9,-404 24,-404 24,-404 9,-404"/>
<polygon fill="#666666" stroke="#666666" points="24,-404 24,-404 96,-404 96,-404 24,-404"/>
<polygon fill="none" stroke="#666666" points="8.5,-162 8.5,-466 95.5,-466 95.5,-162 8.5,-162"/>
</a>
</g>
</g>
<!-- Node2&#45;&gt;Node1 -->
<g id="edge1_Node000001_Node000002" class="edge">
<title>Node2&#45;&gt;Node1</title>
<g id="a_edge1_Node000001_Node000002"><a xlink:title=" ">
<path fill="none" stroke="#63b8ff" d="M52,-161.72C52,-147.68 52,-134.01 52,-121.4"/>
<polygon fill="none" stroke="#63b8ff" points="52,-121.18 48,-115.18 52,-109.18 56,-115.18 52,-121.18"/>
</a>
</g>
<text text-anchor="start" x="55.5" y="-132.5" font-family="Helvetica,sans-Serif" font-size="10.00" fill="grey">+Albedo</text>
</g>
<!-- Node2&#45;&gt;Node2 -->
<g id="edge2_Node000002_Node000002" class="edge">
<title>Node2&#45;&gt;Node2</title>
<g id="a_edge2_Node000002_Node000002"><a xlink:title=" ">
<path fill="none" stroke="#63b8ff" d="M95.67,-346.71C105.93,-344.03 113.5,-333.12 113.5,-314 113.5,-302.05 110.54,-293.31 105.82,-287.78"/>
<polygon fill="none" stroke="#63b8ff" points="105.78,-287.75 98.57,-287.89 95.67,-281.29 102.88,-281.15 105.78,-287.75"/>
</a>
</g>
<text text-anchor="start" x="116.5" y="-364" font-family="Helvetica,sans-Serif" font-size="10.00" fill="grey">+Back</text>
<text text-anchor="start" x="116.5" y="-349" font-family="Helvetica,sans-Serif" font-size="10.00" fill="grey">+Down</text>
<text text-anchor="start" x="116.5" y="-334" font-family="Helvetica,sans-Serif" font-size="10.00" fill="grey">+Forward</text>
<text text-anchor="start" x="116.5" y="-319" font-family="Helvetica,sans-Serif" font-size="10.00" fill="grey">+Left</text>
<text text-anchor="start" x="116.5" y="-304" font-family="Helvetica,sans-Serif" font-size="10.00" fill="grey">+One</text>
<text text-anchor="start" x="116.5" y="-289" font-family="Helvetica,sans-Serif" font-size="10.00" fill="grey">+Right</text>
<text text-anchor="start" x="116.5" y="-274" font-family="Helvetica,sans-Serif" font-size="10.00" fill="grey">+Up</text>
<text text-anchor="start" x="116.5" y="-259" font-family="Helvetica,sans-Serif" font-size="10.00" fill="grey">+Zero</text>
</g>
</g>
</svg>
