<?xml version="1.0" encoding="UTF-8" standalone="no"?>
<!DOCTYPE svg PUBLIC "-//W3C//DTD SVG 1.1//EN"
 "http://www.w3.org/Graphics/SVG/1.1/DTD/svg11.dtd">
<!-- Generated by graphviz version 2.43.0 (0)
 -->
<!-- Title: Span::Matrix4x4::LookAtLH Pages: 1 -->
<svg width="524pt" height="83pt"
 viewBox="0.00 0.00 524.00 83.00" xmlns="http://www.w3.org/2000/svg" xmlns:xlink="http://www.w3.org/1999/xlink">
<g id="graph0" class="graph" transform="scale(1 1) rotate(0) translate(4 79)">
<title>Span::Matrix4x4::LookAtLH</title>
<!-- Node1 -->
<g id="Node000001" class="node">
<title>Node1</title>
<g id="a_Node000001"><a xlink:title=" ">
<polygon fill="#999999" stroke="#666666" points="149,-56 0,-56 0,-37 149,-37 149,-56"/>
<text text-anchor="middle" x="74.5" y="-44" font-family="Helvetica,sans-Serif" font-size="10.00">Span::Matrix4x4::LookAtLH</text>
</a>
</g>
</g>
<!-- Node2 -->
<g id="Node000002" class="node">
<title>Node2</title>
<g id="a_Node000002"><a xlink:href="structSpan_1_1Matrix4x4.html#a4adf277b2c441fe8d2ea295a0c0a2610" target="_top" xlink:title=" ">
<polygon fill="white" stroke="#666666" points="516,-75 373,-75 373,-56 516,-56 516,-75"/>
<text text-anchor="middle" x="444.5" y="-63" font-family="Helvetica,sans-Serif" font-size="10.00">Span::Matrix4x4::FromXM</text>
</a>
</g>
</g>
<!-- Node1&#45;&gt;Node2 -->
<g id="edge1_Node000001_Node000002" class="edge">
<title>Node1&#45;&gt;Node2</title>
<g id="a_edge1_Node000001_Node000002"><a xlink:title=" ">
<path fill="none" stroke="#63b8ff" d="M120.03,-56.01C139.82,-59.78 163.47,-63.65 185,-65.5 244.3,-70.61 311.53,-70.42 362.56,-69.06"/>
<polygon fill="#63b8ff" stroke="#63b8ff" points="362.97,-72.55 372.87,-68.76 362.77,-65.55 362.97,-72.55"/>
</a>
</g>
</g>
<!-- Node3 -->
<g id="Node000003" class="node">
<title>Node3</title>
<g id="a_Node000003"><a xlink:href="structSpan_1_1Matrix4x4.html#a431bf3af613c1029e6de25d64cfda6b7" target="_top" xlink:title=" ">
<polygon fill="white" stroke="#666666" points="337,-56 185,-56 185,-37 337,-37 337,-56"/>
<text text-anchor="middle" x="261" y="-44" font-family="Helvetica,sans-Serif" font-size="10.00">Span::Matrix4x4::Matrix4x4</text>
</a>
</g>
</g>
<!-- Node1&#45;&gt;Node3 -->
<g id="edge2_Node000001_Node000003" class="edge">
<title>Node1&#45;&gt;Node3</title>
<g id="a_edge2_Node000001_Node000003"><a xlink:title=" ">
<path fill="none" stroke="#63b8ff" d="M149.21,-46.5C157.66,-46.5 166.31,-46.5 174.89,-46.5"/>
<polygon fill="#63b8ff" stroke="#63b8ff" points="174.89,-50 184.89,-46.5 174.89,-43 174.89,-50"/>
</a>
</g>
</g>
<!-- Node4 -->
<g id="Node000004" class="node">
<title>Node4</title>
<g id="a_Node000004"><a xlink:href="structSpan_1_1Vector3.html#a3f30a6301de9087ae83240d2ac0ee1c7" target="_top" xlink:title=" ">
<polygon fill="white" stroke="#666666" points="319,-19 203,-19 203,0 319,0 319,-19"/>
<text text-anchor="middle" x="261" y="-7" font-family="Helvetica,sans-Serif" font-size="10.00">Span::Vector3::ToXM</text>
</a>
</g>
</g>
<!-- Node1&#45;&gt;Node4 -->
<g id="edge4_Node000001_Node000004" class="edge">
<title>Node1&#45;&gt;Node4</title>
<g id="a_edge4_Node000001_Node000004"><a xlink:title=" ">
<path fill="none" stroke="#63b8ff" d="M123.01,-36.97C147.24,-32.11 176.89,-26.17 202.41,-21.05"/>
<polygon fill="#63b8ff" stroke="#63b8ff" points="203.21,-24.46 212.33,-19.06 201.83,-17.6 203.21,-24.46"/>
</a>
</g>
</g>
<!-- Node3&#45;&gt;Node2 -->
<g id="edge3_Node000003_Node000002" class="edge">
<title>Node3&#45;&gt;Node2</title>
<g id="a_edge3_Node000003_Node000002"><a xlink:title=" ">
<path fill="none" stroke="#63b8ff" d="M337.13,-54.37C345.61,-55.25 354.28,-56.16 362.83,-57.06"/>
<polygon fill="#63b8ff" stroke="#63b8ff" points="362.48,-60.54 372.79,-58.1 363.21,-53.58 362.48,-60.54"/>
</a>
</g>
</g>
</g>
</svg>
