<?xml version="1.0" encoding="UTF-8" standalone="no"?>
<!DOCTYPE svg PUBLIC "-//W3C//DTD SVG 1.1//EN"
 "http://www.w3.org/Graphics/SVG/1.1/DTD/svg11.dtd">
<!-- Generated by graphviz version 2.43.0 (0)
 -->
<!-- Title: Span::Matrix4x4::ToXM Pages: 1 -->
<svg width="678pt" height="193pt"
 viewBox="0.00 0.00 678.00 192.50" xmlns="http://www.w3.org/2000/svg" xmlns:xlink="http://www.w3.org/1999/xlink">
<g id="graph0" class="graph" transform="scale(1 1) rotate(0) translate(4 188.5)">
<title>Span::Matrix4x4::ToXM</title>
<!-- Node1 -->
<g id="Node000001" class="node">
<title>Node1</title>
<g id="a_Node000001"><a xlink:title=" ">
<polygon fill="#999999" stroke="#666666" points="670,-93 542,-93 542,-74 670,-74 670,-93"/>
<text text-anchor="middle" x="606" y="-81" font-family="Helvetica,sans-Serif" font-size="10.00">Span::Matrix4x4::ToXM</text>
</a>
</g>
</g>
<!-- Node2 -->
<g id="Node000002" class="node">
<title>Node2</title>
<g id="a_Node000002"><a xlink:href="classSpan_1_1Renderer.html#ade1cd95fe5d2e6aa78493393ce39c767" target="_top" xlink:title="メッシュ描画コマンドの発行。">
<polygon fill="white" stroke="#666666" points="494,-179 345,-179 345,-160 494,-160 494,-179"/>
<text text-anchor="middle" x="419.5" y="-167" font-family="Helvetica,sans-Serif" font-size="10.00">Span::Renderer::DrawMesh</text>
</a>
</g>
</g>
<!-- Node1&#45;&gt;Node2 -->
<g id="edge1_Node000001_Node000002" class="edge">
<title>Node1&#45;&gt;Node2</title>
<g id="a_edge1_Node000001_Node000002"><a xlink:title=" ">
<path fill="none" stroke="#63b8ff" d="M586.07,-99.53C567.04,-114.85 536.25,-137.47 506,-150.5 497.06,-154.35 487.25,-157.46 477.56,-159.97"/>
<polygon fill="#63b8ff" stroke="#63b8ff" points="588.44,-102.12 593.95,-93.07 584,-96.71 588.44,-102.12"/>
</a>
</g>
</g>
<!-- Node4 -->
<g id="Node000004" class="node">
<title>Node4</title>
<g id="a_Node000004"><a xlink:href="structSpan_1_1Quaternion.html#af2a0a1def4d845d030a45c5a26d32a80" target="_top" xlink:title="回転行列から変換 (実装は後述)">
<polygon fill="white" stroke="#666666" points="506,-141.5 333,-141.5 333,-111.5 506,-111.5 506,-141.5"/>
<text text-anchor="start" x="341" y="-129.5" font-family="Helvetica,sans-Serif" font-size="10.00">Span::Quaternion::FromRotation</text>
<text text-anchor="middle" x="419.5" y="-118.5" font-family="Helvetica,sans-Serif" font-size="10.00">Matrix</text>
</a>
</g>
</g>
<!-- Node1&#45;&gt;Node4 -->
<g id="edge3_Node000001_Node000004" class="edge">
<title>Node1&#45;&gt;Node4</title>
<g id="a_edge3_Node000001_Node000004"><a xlink:title=" ">
<path fill="none" stroke="#63b8ff" d="M554.18,-95.34C532.77,-100.34 507.58,-106.2 484.89,-111.49"/>
<polygon fill="#63b8ff" stroke="#63b8ff" points="555.11,-98.72 564.05,-93.04 553.52,-91.9 555.11,-98.72"/>
</a>
</g>
</g>
<!-- Node6 -->
<g id="Node000006" class="node">
<title>Node6</title>
<g id="a_Node000006"><a xlink:href="structSpan_1_1Matrix4x4.html#a3544a5d56ec62c035d6e1aa0b20bba2e" target="_top" xlink:title="転置行列">
<polygon fill="white" stroke="#666666" points="485,-93 354,-93 354,-74 485,-74 485,-93"/>
<text text-anchor="middle" x="419.5" y="-81" font-family="Helvetica,sans-Serif" font-size="10.00">Span::Matrix4x4::Invert</text>
</a>
</g>
</g>
<!-- Node1&#45;&gt;Node6 -->
<g id="edge5_Node000001_Node000006" class="edge">
<title>Node1&#45;&gt;Node6</title>
<g id="a_edge5_Node000001_Node000006"><a xlink:title=" ">
<path fill="none" stroke="#63b8ff" d="M531.34,-83.5C516.09,-83.5 500.13,-83.5 485.22,-83.5"/>
<polygon fill="#63b8ff" stroke="#63b8ff" points="531.76,-87 541.76,-83.5 531.76,-80 531.76,-87"/>
</a>
</g>
</g>
<!-- Node10 -->
<g id="Node000010" class="node">
<title>Node10</title>
<g id="a_Node000010"><a xlink:href="structSpan_1_1Matrix4x4.html#a59c1e5b5dede7d7aa342e8938676e3cb" target="_top" xlink:title="行列同士の掛け算">
<polygon fill="white" stroke="#666666" points="494,-56 345,-56 345,-37 494,-37 494,-56"/>
<text text-anchor="middle" x="419.5" y="-44" font-family="Helvetica,sans-Serif" font-size="10.00">Span::Matrix4x4::operator*</text>
</a>
</g>
</g>
<!-- Node1&#45;&gt;Node10 -->
<g id="edge9_Node000001_Node000010" class="edge">
<title>Node1&#45;&gt;Node10</title>
<g id="a_edge9_Node000001_Node000010"><a xlink:title=" ">
<path fill="none" stroke="#63b8ff" d="M547.58,-71.98C522.08,-66.87 492.42,-60.92 468.17,-56.06"/>
<polygon fill="#63b8ff" stroke="#63b8ff" points="546.99,-75.44 557.49,-73.97 548.37,-68.57 546.99,-75.44"/>
</a>
</g>
</g>
<!-- Node11 -->
<g id="Node000011" class="node">
<title>Node11</title>
<g id="a_Node000011"><a xlink:href="structSpan_1_1Matrix4x4.html#aa675a51f0f67753f22127641ca6da7d6" target="_top" xlink:title="転置行列">
<polygon fill="white" stroke="#666666" points="495,-19 344,-19 344,0 495,0 495,-19"/>
<text text-anchor="middle" x="419.5" y="-7" font-family="Helvetica,sans-Serif" font-size="10.00">Span::Matrix4x4::Transpose</text>
</a>
</g>
</g>
<!-- Node1&#45;&gt;Node11 -->
<g id="edge10_Node000001_Node000011" class="edge">
<title>Node1&#45;&gt;Node11</title>
<g id="a_edge10_Node000001_Node000011"><a xlink:title=" ">
<path fill="none" stroke="#63b8ff" d="M582.8,-68.3C563.35,-55.64 533.91,-38.04 506,-27.5 497.06,-24.12 487.34,-21.32 477.77,-19.01"/>
<polygon fill="#63b8ff" stroke="#63b8ff" points="580.98,-71.29 591.25,-73.9 584.84,-65.45 580.98,-71.29"/>
</a>
</g>
</g>
<!-- Node3 -->
<g id="Node000003" class="node">
<title>Node3</title>
<g id="a_Node000003"><a xlink:href="classSpan_1_1RenderingSystem.html#aa0113a8f2b55129115c4da2c6ba449c4" target="_top" xlink:title="毎フレーム呼び出されます。ここにゲームロジックを記述します。">
<polygon fill="white" stroke="#666666" points="296,-184.5 163,-184.5 163,-154.5 296,-154.5 296,-184.5"/>
<text text-anchor="start" x="171" y="-172.5" font-family="Helvetica,sans-Serif" font-size="10.00">Span::RenderingSystem</text>
<text text-anchor="middle" x="229.5" y="-161.5" font-family="Helvetica,sans-Serif" font-size="10.00">::OnUpdate</text>
</a>
</g>
</g>
<!-- Node2&#45;&gt;Node3 -->
<g id="edge2_Node000002_Node000003" class="edge">
<title>Node2&#45;&gt;Node3</title>
<g id="a_edge2_Node000002_Node000003"><a xlink:title=" ">
<path fill="none" stroke="#63b8ff" d="M334.49,-169.5C321.62,-169.5 308.5,-169.5 296.11,-169.5"/>
<polygon fill="#63b8ff" stroke="#63b8ff" points="334.74,-173 344.74,-169.5 334.74,-166 334.74,-173"/>
</a>
</g>
</g>
<!-- Node5 -->
<g id="Node000005" class="node">
<title>Node5</title>
<g id="a_Node000005"><a xlink:href="structSpan_1_1Transform.html#a22e91c428e57737b16a5e9281a28a610" target="_top" xlink:title=" ">
<polygon fill="white" stroke="#666666" points="297,-136 162,-136 162,-117 297,-117 297,-136"/>
<text text-anchor="middle" x="229.5" y="-124" font-family="Helvetica,sans-Serif" font-size="10.00">Span::Transform::LookAt</text>
</a>
</g>
</g>
<!-- Node4&#45;&gt;Node5 -->
<g id="edge4_Node000004_Node000005" class="edge">
<title>Node4&#45;&gt;Node5</title>
<g id="a_edge4_Node000004_Node000005"><a xlink:title=" ">
<path fill="none" stroke="#63b8ff" d="M322.68,-126.5C314.09,-126.5 305.52,-126.5 297.26,-126.5"/>
<polygon fill="#63b8ff" stroke="#63b8ff" points="322.75,-130 332.75,-126.5 322.75,-123 322.75,-130"/>
</a>
</g>
</g>
<!-- Node7 -->
<g id="Node000007" class="node">
<title>Node7</title>
<g id="a_Node000007"><a xlink:href="classSpan_1_1SceneViewPanel.html#ad83a4a55f083c75371d0873322808796" target="_top" xlink:title=" ">
<polygon fill="white" stroke="#666666" points="292.5,-98.5 166.5,-98.5 166.5,-68.5 292.5,-68.5 292.5,-98.5"/>
<text text-anchor="start" x="174.5" y="-86.5" font-family="Helvetica,sans-Serif" font-size="10.00">Span::SceneViewPanel</text>
<text text-anchor="middle" x="229.5" y="-75.5" font-family="Helvetica,sans-Serif" font-size="10.00">::DrawGizmo</text>
</a>
</g>
</g>
<!-- Node6&#45;&gt;Node7 -->
<g id="edge6_Node000006_Node000007" class="edge">
<title>Node6&#45;&gt;Node7</title>
<g id="a_edge6_Node000006_Node000007"><a xlink:title=" ">
<path fill="none" stroke="#63b8ff" d="M343.46,-83.5C326.66,-83.5 309,-83.5 292.78,-83.5"/>
<polygon fill="#63b8ff" stroke="#63b8ff" points="343.8,-87 353.8,-83.5 343.8,-80 343.8,-87"/>
</a>
</g>
</g>
<!-- Node9 -->
<g id="Node000009" class="node">
<title>Node9</title>
<g id="a_Node000009"><a xlink:href="classSpan_1_1CameraSystem.html#a7f4bf0245dedd7a6245ef352246f7391" target="_top" xlink:title="毎フレーム呼び出されます。ここにゲームロジックを記述します。">
<polygon fill="white" stroke="#666666" points="290.5,-50.5 168.5,-50.5 168.5,-20.5 290.5,-20.5 290.5,-50.5"/>
<text text-anchor="start" x="176.5" y="-38.5" font-family="Helvetica,sans-Serif" font-size="10.00">Span::CameraSystem</text>
<text text-anchor="middle" x="229.5" y="-27.5" font-family="Helvetica,sans-Serif" font-size="10.00">::OnUpdate</text>
</a>
</g>
</g>
<!-- Node6&#45;&gt;Node9 -->
<g id="edge8_Node000006_Node000009" class="edge">
<title>Node6&#45;&gt;Node9</title>
<g id="a_edge8_Node000006_Node000009"><a xlink:title=" ">
<path fill="none" stroke="#63b8ff" d="M360.17,-71.85C351.05,-69.85 341.75,-67.7 333,-65.5 315.29,-61.05 296.03,-55.58 279.04,-50.54"/>
<polygon fill="#63b8ff" stroke="#63b8ff" points="359.46,-75.28 369.97,-73.96 360.93,-68.43 359.46,-75.28"/>
</a>
</g>
</g>
<!-- Node8 -->
<g id="Node000008" class="node">
<title>Node8</title>
<g id="a_Node000008"><a xlink:href="classSpan_1_1SceneViewPanel.html#aab2935de58bd68267a680cabd3656c9f" target="_top" xlink:title=" ">
<polygon fill="white" stroke="#666666" points="126,-98.5 0,-98.5 0,-68.5 126,-68.5 126,-98.5"/>
<text text-anchor="start" x="8" y="-86.5" font-family="Helvetica,sans-Serif" font-size="10.00">Span::SceneViewPanel</text>
<text text-anchor="middle" x="63" y="-75.5" font-family="Helvetica,sans-Serif" font-size="10.00">::OnImGuiRender</text>
</a>
</g>
</g>
<!-- Node7&#45;&gt;Node8 -->
<g id="edge7_Node000007_Node000008" class="edge">
<title>Node7&#45;&gt;Node8</title>
<g id="a_edge7_Node000007_Node000008"><a xlink:title=" ">
<path fill="none" stroke="#63b8ff" d="M156.3,-83.5C146.2,-83.5 135.89,-83.5 126.01,-83.5"/>
<polygon fill="#63b8ff" stroke="#63b8ff" points="156.31,-87 166.31,-83.5 156.31,-80 156.31,-87"/>
</a>
</g>
</g>
</g>
</svg>
