<?xml version="1.0" encoding="UTF-8" standalone="no"?>
<!DOCTYPE svg PUBLIC "-//W3C//DTD SVG 1.1//EN"
 "http://www.w3.org/Graphics/SVG/1.1/DTD/svg11.dtd">
<!-- Generated by graphviz version 2.43.0 (0)
 -->
<!-- Title: Span::MeshRenderer Pages: 1 -->
<svg width="535pt" height="1785pt"
 viewBox="0.00 0.00 534.50 1785.00" xmlns="http://www.w3.org/2000/svg" xmlns:xlink="http://www.w3.org/1999/xlink">
<g id="graph0" class="graph" transform="scale(1 1) rotate(0) translate(4 1781)">
<title>Span::MeshRenderer</title>
<!-- Node1 -->
<g id="Node000001" class="node">
<title>Node1</title>
<g id="a_Node000001"><a xlink:title="🖌 オブジェクトを画面に描画するための設定コンポーネント。">
<polygon fill="#999999" stroke="transparent" points="292,-79 181,-79 181,0 292,0 292,-79"/>
<text text-anchor="start" x="186.5" y="-66.5" font-family="Helvetica,sans-Serif" font-size="10.00">Span::MeshRenderer</text>
<text text-anchor="start" x="187" y="-51.5" font-family="Helvetica,sans-Serif" font-size="10.00">+</text>
<text text-anchor="start" x="201.5" y="-51.5" font-family="Helvetica,sans-Serif" font-size="10.00">CastShadows</text>
<text text-anchor="start" x="187" y="-36.5" font-family="Helvetica,sans-Serif" font-size="10.00">+</text>
<text text-anchor="start" x="201.5" y="-36.5" font-family="Helvetica,sans-Serif" font-size="10.00">ReceiveShadows</text>
<text text-anchor="start" x="187" y="-21.5" font-family="Helvetica,sans-Serif" font-size="10.00">+</text>
<text text-anchor="start" x="201.5" y="-21.5" font-family="Helvetica,sans-Serif" font-size="10.00">MeshRenderer()</text>
<text text-anchor="start" x="187" y="-6.5" font-family="Helvetica,sans-Serif" font-size="10.00">+</text>
<text text-anchor="start" x="201.5" y="-6.5" font-family="Helvetica,sans-Serif" font-size="10.00">MeshRenderer()</text>
<polygon fill="#666666" stroke="#666666" points="181.5,-61.5 181.5,-61.5 292.5,-61.5 292.5,-61.5 181.5,-61.5"/>
<polygon fill="#666666" stroke="#666666" points="181.5,-31.5 181.5,-31.5 199.5,-31.5 199.5,-31.5 181.5,-31.5"/>
<polygon fill="#666666" stroke="#666666" points="199.5,-31.5 199.5,-31.5 292.5,-31.5 292.5,-31.5 199.5,-31.5"/>
<polygon fill="none" stroke="#666666" points="181,0 181,-79 292,-79 292,0 181,0"/>
</a>
</g>
</g>
<!-- Node2 -->
<g id="Node000002" class="node">
<title>Node2</title>
<g id="a_Node000002"><a xlink:href="classSpan_1_1Material.html" target="_top" xlink:title="🎨 PRBマテリアルを管理し、.matアセットとして機能するクラス">
<polygon fill="white" stroke="transparent" points="306,-481 167,-481 167,-132 306,-132 306,-481"/>
<text text-anchor="start" x="201.5" y="-468.5" font-family="Helvetica,sans-Serif" font-size="10.00">Span::Material</text>
<text text-anchor="start" x="171.5" y="-453.5" font-family="Helvetica,sans-Serif" font-size="10.00">+</text>
<text text-anchor="start" x="184.5" y="-453.5" font-family="Helvetica,sans-Serif" font-size="10.00">Name</text>
<text text-anchor="start" x="171.5" y="-438.5" font-family="Helvetica,sans-Serif" font-size="10.00">+</text>
<text text-anchor="start" x="184.5" y="-438.5" font-family="Helvetica,sans-Serif" font-size="10.00">AlbedoMapGUID</text>
<text text-anchor="start" x="171.5" y="-423.5" font-family="Helvetica,sans-Serif" font-size="10.00">+</text>
<text text-anchor="start" x="184.5" y="-423.5" font-family="Helvetica,sans-Serif" font-size="10.00">NormalMapGUID</text>
<text text-anchor="start" x="171.5" y="-408.5" font-family="Helvetica,sans-Serif" font-size="10.00">+</text>
<text text-anchor="start" x="184.5" y="-408.5" font-family="Helvetica,sans-Serif" font-size="10.00">MetallicMapGUID</text>
<text text-anchor="start" x="171.5" y="-393.5" font-family="Helvetica,sans-Serif" font-size="10.00">+</text>
<text text-anchor="start" x="184.5" y="-393.5" font-family="Helvetica,sans-Serif" font-size="10.00">RoughnessMapGUID</text>
<text text-anchor="start" x="171.5" y="-378.5" font-family="Helvetica,sans-Serif" font-size="10.00">+</text>
<text text-anchor="start" x="184.5" y="-378.5" font-family="Helvetica,sans-Serif" font-size="10.00">AOMapGUID</text>
<text text-anchor="start" x="171.5" y="-363.5" font-family="Helvetica,sans-Serif" font-size="10.00">+</text>
<text text-anchor="start" x="184.5" y="-363.5" font-family="Helvetica,sans-Serif" font-size="10.00">EmissiveMapGUID</text>
<text text-anchor="start" x="171.5" y="-348.5" font-family="Helvetica,sans-Serif" font-size="10.00">+</text>
<text text-anchor="start" x="184.5" y="-348.5" font-family="Helvetica,sans-Serif" font-size="10.00">Handle</text>
<text text-anchor="start" x="174" y="-333.5" font-family="Helvetica,sans-Serif" font-size="10.00">&#45;</text>
<text text-anchor="start" x="184.5" y="-333.5" font-family="Helvetica,sans-Serif" font-size="10.00">m_IsDirty</text>
<text text-anchor="start" x="174" y="-318.5" font-family="Helvetica,sans-Serif" font-size="10.00">&#45;</text>
<text text-anchor="start" x="184.5" y="-318.5" font-family="Helvetica,sans-Serif" font-size="10.00">m_BlendMode</text>
<text text-anchor="start" x="174" y="-303.5" font-family="Helvetica,sans-Serif" font-size="10.00">&#45;</text>
<text text-anchor="start" x="184.5" y="-303.5" font-family="Helvetica,sans-Serif" font-size="10.00">m_CullMode</text>
<text text-anchor="start" x="171.5" y="-288.5" font-family="Helvetica,sans-Serif" font-size="10.00">+</text>
<text text-anchor="start" x="184.5" y="-288.5" font-family="Helvetica,sans-Serif" font-size="10.00">Material()</text>
<text text-anchor="start" x="171.5" y="-273.5" font-family="Helvetica,sans-Serif" font-size="10.00">+</text>
<text text-anchor="start" x="184.5" y="-273.5" font-family="Helvetica,sans-Serif" font-size="10.00">~Material()</text>
<text text-anchor="start" x="171.5" y="-258.5" font-family="Helvetica,sans-Serif" font-size="10.00">+</text>
<text text-anchor="start" x="184.5" y="-258.5" font-family="Helvetica,sans-Serif" font-size="10.00">Initialize()</text>
<text text-anchor="start" x="171.5" y="-243.5" font-family="Helvetica,sans-Serif" font-size="10.00">+</text>
<text text-anchor="start" x="184.5" y="-243.5" font-family="Helvetica,sans-Serif" font-size="10.00">Shutdown()</text>
<text text-anchor="start" x="171.5" y="-228.5" font-family="Helvetica,sans-Serif" font-size="10.00">+</text>
<text text-anchor="start" x="184.5" y="-228.5" font-family="Helvetica,sans-Serif" font-size="10.00">Update()</text>
<text text-anchor="start" x="171.5" y="-213.5" font-family="Helvetica,sans-Serif" font-size="10.00">+</text>
<text text-anchor="start" x="184.5" y="-213.5" font-family="Helvetica,sans-Serif" font-size="10.00">GetGPUVirtualAddress()</text>
<text text-anchor="start" x="171.5" y="-198.5" font-family="Helvetica,sans-Serif" font-size="10.00">+</text>
<text text-anchor="start" x="184.5" y="-198.5" font-family="Helvetica,sans-Serif" font-size="10.00">Serialize()</text>
<text text-anchor="start" x="171.5" y="-183.5" font-family="Helvetica,sans-Serif" font-size="10.00">+</text>
<text text-anchor="start" x="184.5" y="-183.5" font-family="Helvetica,sans-Serif" font-size="10.00">Deserialize()</text>
<text text-anchor="start" x="171.5" y="-168.5" font-family="Helvetica,sans-Serif" font-size="10.00">+</text>
<text text-anchor="start" x="184.5" y="-168.5" font-family="Helvetica,sans-Serif" font-size="10.00">GetBlendMode()</text>
<text text-anchor="start" x="171.5" y="-153.5" font-family="Helvetica,sans-Serif" font-size="10.00">+</text>
<text text-anchor="start" x="184.5" y="-153.5" font-family="Helvetica,sans-Serif" font-size="10.00">SetBlendMode()</text>
<text text-anchor="start" x="184.5" y="-138.5" font-family="Helvetica,sans-Serif" font-size="10.00">ほか 18 件…</text>
<polygon fill="#666666" stroke="#666666" points="167.5,-463.5 167.5,-463.5 306.5,-463.5 306.5,-463.5 167.5,-463.5"/>
<polygon fill="#666666" stroke="#666666" points="167.5,-298.5 167.5,-298.5 182.5,-298.5 182.5,-298.5 167.5,-298.5"/>
<polygon fill="#666666" stroke="#666666" points="182.5,-298.5 182.5,-298.5 306.5,-298.5 306.5,-298.5 182.5,-298.5"/>
<polygon fill="none" stroke="#666666" points="167,-132 167,-481 306,-481 306,-132 167,-132"/>
</a>
</g>
</g>
<!-- Node2&#45;&gt;Node1 -->
<g id="edge1_Node000001_Node000002" class="edge">
<title>Node2&#45;&gt;Node1</title>
<g id="a_edge1_Node000001_Node000002"><a xlink:title=" ">
<path fill="none" stroke="#63b8ff" d="M236.5,-131.7C236.5,-117.22 236.5,-103.47 236.5,-91.24"/>
<polygon fill="none" stroke="#63b8ff" points="236.5,-91.09 232.5,-85.09 236.5,-79.09 240.5,-85.09 236.5,-91.09"/>
</a>
</g>
<text text-anchor="start" x="239.5" y="-102.5" font-family="Helvetica,sans-Serif" font-size="10.00" fill="grey">+material</text>
</g>
<!-- Node3 -->
<g id="Node000003" class="node">
<title>Node3</title>
<g id="a_Node000003"><a xlink:href="classSpan_1_1Texture.html" target="_top" xlink:title="🖼 GPUテクスチャリソース。">
<polygon fill="white" stroke="transparent" points="151,-883 0,-883 0,-609 151,-609 151,-883"/>
<text text-anchor="start" x="42.5" y="-871" font-family="Helvetica,sans-Serif" font-size="10.00">Span::Texture</text>
<text text-anchor="start" x="4.5" y="-856" font-family="Helvetica,sans-Serif" font-size="10.00">+</text>
<text text-anchor="start" x="17.5" y="-856" font-family="Helvetica,sans-Serif" font-size="10.00">Handle</text>
<text text-anchor="start" x="7" y="-841" font-family="Helvetica,sans-Serif" font-size="10.00">&#45;</text>
<text text-anchor="start" x="17.5" y="-841" font-family="Helvetica,sans-Serif" font-size="10.00">resource</text>
<text text-anchor="start" x="7" y="-826" font-family="Helvetica,sans-Serif" font-size="10.00">&#45;</text>
<text text-anchor="start" x="17.5" y="-826" font-family="Helvetica,sans-Serif" font-size="10.00">uploadBuffer</text>
<text text-anchor="start" x="7" y="-811" font-family="Helvetica,sans-Serif" font-size="10.00">&#45;</text>
<text text-anchor="start" x="17.5" y="-811" font-family="Helvetica,sans-Serif" font-size="10.00">srvHeap</text>
<text text-anchor="start" x="7" y="-796" font-family="Helvetica,sans-Serif" font-size="10.00">&#45;</text>
<text text-anchor="start" x="17.5" y="-796" font-family="Helvetica,sans-Serif" font-size="10.00">srvHandleCPU</text>
<text text-anchor="start" x="7" y="-781" font-family="Helvetica,sans-Serif" font-size="10.00">&#45;</text>
<text text-anchor="start" x="17.5" y="-781" font-family="Helvetica,sans-Serif" font-size="10.00">width</text>
<text text-anchor="start" x="7" y="-766" font-family="Helvetica,sans-Serif" font-size="10.00">&#45;</text>
<text text-anchor="start" x="17.5" y="-766" font-family="Helvetica,sans-Serif" font-size="10.00">height</text>
<text text-anchor="start" x="7" y="-751" font-family="Helvetica,sans-Serif" font-size="10.00">&#45;</text>
<text text-anchor="start" x="17.5" y="-751" font-family="Helvetica,sans-Serif" font-size="10.00">m_FilePath</text>
<text text-anchor="start" x="4.5" y="-736" font-family="Helvetica,sans-Serif" font-size="10.00">+</text>
<text text-anchor="start" x="17.5" y="-736" font-family="Helvetica,sans-Serif" font-size="10.00">Texture()</text>
<text text-anchor="start" x="4.5" y="-721" font-family="Helvetica,sans-Serif" font-size="10.00">+</text>
<text text-anchor="start" x="17.5" y="-721" font-family="Helvetica,sans-Serif" font-size="10.00">~Texture()</text>
<text text-anchor="start" x="4.5" y="-706" font-family="Helvetica,sans-Serif" font-size="10.00">+</text>
<text text-anchor="start" x="17.5" y="-706" font-family="Helvetica,sans-Serif" font-size="10.00">Initialize()</text>
<text text-anchor="start" x="4.5" y="-691" font-family="Helvetica,sans-Serif" font-size="10.00">+</text>
<text text-anchor="start" x="17.5" y="-691" font-family="Helvetica,sans-Serif" font-size="10.00">Shutdown()</text>
<text text-anchor="start" x="4.5" y="-676" font-family="Helvetica,sans-Serif" font-size="10.00">+</text>
<text text-anchor="start" x="17.5" y="-676" font-family="Helvetica,sans-Serif" font-size="10.00">GetImGuiTextureID()</text>
<text text-anchor="start" x="4.5" y="-661" font-family="Helvetica,sans-Serif" font-size="10.00">+</text>
<text text-anchor="start" x="17.5" y="-661" font-family="Helvetica,sans-Serif" font-size="10.00">GetCPUDescriptorHandle()</text>
<text text-anchor="start" x="4.5" y="-646" font-family="Helvetica,sans-Serif" font-size="10.00">+</text>
<text text-anchor="start" x="17.5" y="-646" font-family="Helvetica,sans-Serif" font-size="10.00">GetSRVHeap()</text>
<text text-anchor="start" x="4.5" y="-631" font-family="Helvetica,sans-Serif" font-size="10.00">+</text>
<text text-anchor="start" x="17.5" y="-631" font-family="Helvetica,sans-Serif" font-size="10.00">GetPath()</text>
<text text-anchor="start" x="7" y="-616" font-family="Helvetica,sans-Serif" font-size="10.00">&#45;</text>
<text text-anchor="start" x="17.5" y="-616" font-family="Helvetica,sans-Serif" font-size="10.00">UploadTexture()</text>
<polygon fill="#666666" stroke="#666666" points="0.5,-866 0.5,-866 151.5,-866 151.5,-866 0.5,-866"/>
<polygon fill="#666666" stroke="#666666" points="0.5,-746 0.5,-746 15.5,-746 15.5,-746 0.5,-746"/>
<polygon fill="#666666" stroke="#666666" points="15.5,-746 15.5,-746 151.5,-746 151.5,-746 15.5,-746"/>
<polygon fill="none" stroke="#666666" points="0,-609 0,-883 151,-883 151,-609 0,-609"/>
</a>
</g>
</g>
<!-- Node3&#45;&gt;Node2 -->
<g id="edge2_Node000002_Node000003" class="edge">
<title>Node3&#45;&gt;Node2</title>
<g id="a_edge2_Node000002_Node000003"><a xlink:title=" ">
<path fill="none" stroke="#63b8ff" d="M59.57,-608.96C59.68,-572.36 63.94,-533.4 76.5,-499 93.28,-453.05 126.38,-410.38 158.14,-377.04"/>
<polygon fill="none" stroke="#63b8ff" points="158.25,-376.93 159.56,-369.84 166.61,-368.32 165.3,-375.41 158.25,-376.93"/>
</a>
</g>
<text text-anchor="start" x="79.5" y="-580" font-family="Helvetica,sans-Serif" font-size="10.00" fill="grey">+m_AOMap</text>
<text text-anchor="start" x="79.5" y="-565" font-family="Helvetica,sans-Serif" font-size="10.00" fill="grey">+m_AlbedoMap</text>
<text text-anchor="start" x="79.5" y="-550" font-family="Helvetica,sans-Serif" font-size="10.00" fill="grey">+m_EmissiveMap</text>
<text text-anchor="start" x="79.5" y="-535" font-family="Helvetica,sans-Serif" font-size="10.00" fill="grey">+m_MetallicMap</text>
<text text-anchor="start" x="79.5" y="-520" font-family="Helvetica,sans-Serif" font-size="10.00" fill="grey">+m_NormalMap</text>
<text text-anchor="start" x="79.5" y="-505" font-family="Helvetica,sans-Serif" font-size="10.00" fill="grey">+m_RoughnessMap</text>
</g>
<!-- Node4 -->
<g id="Node000004" class="node">
<title>Node4</title>
<g id="a_Node000004"><a xlink:href="structSpan_1_1MaterialData.html" target="_top" xlink:title="📦 シェーダー(HLSL)に転送されるマテリアル定数バッファ (16バイト協会アライメント厳守)">
<polygon fill="white" stroke="transparent" points="268,-1180 153,-1180 153,-951 268,-951 268,-1180"/>
<text text-anchor="start" x="164" y="-1167.5" font-family="Helvetica,sans-Serif" font-size="10.00">Span::MaterialData</text>
<text text-anchor="start" x="157.5" y="-1152.5" font-family="Helvetica,sans-Serif" font-size="10.00">+</text>
<text text-anchor="start" x="170.5" y="-1152.5" font-family="Helvetica,sans-Serif" font-size="10.00">Roughness</text>
<text text-anchor="start" x="157.5" y="-1137.5" font-family="Helvetica,sans-Serif" font-size="10.00">+</text>
<text text-anchor="start" x="170.5" y="-1137.5" font-family="Helvetica,sans-Serif" font-size="10.00">Metallic</text>
<text text-anchor="start" x="157.5" y="-1122.5" font-family="Helvetica,sans-Serif" font-size="10.00">+</text>
<text text-anchor="start" x="170.5" y="-1122.5" font-family="Helvetica,sans-Serif" font-size="10.00">AO</text>
<text text-anchor="start" x="157.5" y="-1107.5" font-family="Helvetica,sans-Serif" font-size="10.00">+</text>
<text text-anchor="start" x="170.5" y="-1107.5" font-family="Helvetica,sans-Serif" font-size="10.00">Cutoff</text>
<text text-anchor="start" x="157.5" y="-1092.5" font-family="Helvetica,sans-Serif" font-size="10.00">+</text>
<text text-anchor="start" x="170.5" y="-1092.5" font-family="Helvetica,sans-Serif" font-size="10.00">Padding1</text>
<text text-anchor="start" x="157.5" y="-1077.5" font-family="Helvetica,sans-Serif" font-size="10.00">+</text>
<text text-anchor="start" x="170.5" y="-1077.5" font-family="Helvetica,sans-Serif" font-size="10.00">HasAlbedoMap</text>
<text text-anchor="start" x="157.5" y="-1062.5" font-family="Helvetica,sans-Serif" font-size="10.00">+</text>
<text text-anchor="start" x="170.5" y="-1062.5" font-family="Helvetica,sans-Serif" font-size="10.00">HasNormalMap</text>
<text text-anchor="start" x="157.5" y="-1047.5" font-family="Helvetica,sans-Serif" font-size="10.00">+</text>
<text text-anchor="start" x="170.5" y="-1047.5" font-family="Helvetica,sans-Serif" font-size="10.00">HasMetallicMap</text>
<text text-anchor="start" x="157.5" y="-1032.5" font-family="Helvetica,sans-Serif" font-size="10.00">+</text>
<text text-anchor="start" x="170.5" y="-1032.5" font-family="Helvetica,sans-Serif" font-size="10.00">HasRoughnessMap</text>
<text text-anchor="start" x="157.5" y="-1017.5" font-family="Helvetica,sans-Serif" font-size="10.00">+</text>
<text text-anchor="start" x="170.5" y="-1017.5" font-family="Helvetica,sans-Serif" font-size="10.00">HasAOMap</text>
<text text-anchor="start" x="157.5" y="-1002.5" font-family="Helvetica,sans-Serif" font-size="10.00">+</text>
<text text-anchor="start" x="170.5" y="-1002.5" font-family="Helvetica,sans-Serif" font-size="10.00">HasEmissiveMap</text>
<text text-anchor="start" x="157.5" y="-987.5" font-family="Helvetica,sans-Serif" font-size="10.00">+</text>
<text text-anchor="start" x="170.5" y="-987.5" font-family="Helvetica,sans-Serif" font-size="10.00">Padding2</text>
<text text-anchor="start" x="157.5" y="-972.5" font-family="Helvetica,sans-Serif" font-size="10.00">+</text>
<text text-anchor="start" x="170.5" y="-972.5" font-family="Helvetica,sans-Serif" font-size="10.00">Padding3</text>
<text text-anchor="start" x="209" y="-957.5" font-family="Helvetica,sans-Serif" font-size="10.00"> </text>
<polygon fill="#666666" stroke="#666666" points="153.5,-1162.5 153.5,-1162.5 268.5,-1162.5 268.5,-1162.5 153.5,-1162.5"/>
<polygon fill="#666666" stroke="#666666" points="153.5,-967.5 153.5,-967.5 168.5,-967.5 168.5,-967.5 153.5,-967.5"/>
<polygon fill="#666666" stroke="#666666" points="168.5,-967.5 168.5,-967.5 268.5,-967.5 268.5,-967.5 168.5,-967.5"/>
<polygon fill="none" stroke="#666666" points="153,-951 153,-1180 268,-1180 268,-951 153,-951"/>
</a>
</g>
</g>
<!-- Node4&#45;&gt;Node2 -->
<g id="edge3_Node000002_Node000004" class="edge">
<title>Node4&#45;&gt;Node2</title>
<g id="a_edge3_Node000002_Node000004"><a xlink:title=" ">
<path fill="none" stroke="#63b8ff" d="M205.44,-950.76C204.63,-928.3 203.92,-904.91 203.5,-883 201.15,-761.24 196.87,-730.6 203.5,-609 205.55,-571.52 209.01,-531.53 212.95,-493.35"/>
<polygon fill="none" stroke="#63b8ff" points="212.99,-492.95 209.63,-486.57 214.24,-481.02 217.59,-487.4 212.99,-492.95"/>
</a>
</g>
<text text-anchor="start" x="207" y="-743" font-family="Helvetica,sans-Serif" font-size="10.00" fill="grey">&#45;m_Data</text>
</g>
<!-- Node8 -->
<g id="Node000008" class="node">
<title>Node8</title>
<g id="a_Node000008"><a xlink:href="classSpan_1_1ConstantBuffer.html" target="_top" xlink:title=" ">
<polygon fill="white" stroke="transparent" points="401,-813.5 262,-813.5 262,-678.5 401,-678.5 401,-813.5"/>
<text text-anchor="start" x="273.5" y="-801" font-family="Helvetica,sans-Serif" font-size="10.00">Span::ConstantBuffer</text>
<text text-anchor="start" x="273.5" y="-790" font-family="Helvetica,sans-Serif" font-size="10.00">&lt; Span::MaterialData &gt;</text>
<text text-anchor="start" x="269" y="-775" font-family="Helvetica,sans-Serif" font-size="10.00">&#45;</text>
<text text-anchor="start" x="279.5" y="-775" font-family="Helvetica,sans-Serif" font-size="10.00">resource</text>
<text text-anchor="start" x="266.5" y="-760" font-family="Helvetica,sans-Serif" font-size="10.00">+</text>
<text text-anchor="start" x="279.5" y="-760" font-family="Helvetica,sans-Serif" font-size="10.00">ConstantBuffer()</text>
<text text-anchor="start" x="266.5" y="-745" font-family="Helvetica,sans-Serif" font-size="10.00">+</text>
<text text-anchor="start" x="279.5" y="-745" font-family="Helvetica,sans-Serif" font-size="10.00">~ConstantBuffer()</text>
<text text-anchor="start" x="266.5" y="-730" font-family="Helvetica,sans-Serif" font-size="10.00">+</text>
<text text-anchor="start" x="279.5" y="-730" font-family="Helvetica,sans-Serif" font-size="10.00">Initialize()</text>
<text text-anchor="start" x="266.5" y="-715" font-family="Helvetica,sans-Serif" font-size="10.00">+</text>
<text text-anchor="start" x="279.5" y="-715" font-family="Helvetica,sans-Serif" font-size="10.00">Shutdown()</text>
<text text-anchor="start" x="266.5" y="-700" font-family="Helvetica,sans-Serif" font-size="10.00">+</text>
<text text-anchor="start" x="279.5" y="-700" font-family="Helvetica,sans-Serif" font-size="10.00">Update()</text>
<text text-anchor="start" x="266.5" y="-685" font-family="Helvetica,sans-Serif" font-size="10.00">+</text>
<text text-anchor="start" x="279.5" y="-685" font-family="Helvetica,sans-Serif" font-size="10.00">GetGPUVirtualAddress()</text>
<polygon fill="#666666" stroke="#666666" points="262.5,-785 262.5,-785 401.5,-785 401.5,-785 262.5,-785"/>
<polygon fill="#666666" stroke="#666666" points="262.5,-770 262.5,-770 277.5,-770 277.5,-770 262.5,-770"/>
<polygon fill="#666666" stroke="#666666" points="277.5,-770 277.5,-770 401.5,-770 401.5,-770 277.5,-770"/>
<polygon fill="none" stroke="#666666" points="262,-678.5 262,-813.5 401,-813.5 401,-678.5 262,-678.5"/>
</a>
</g>
</g>
<!-- Node4&#45;&gt;Node8 -->
<g id="edge10_Node000008_Node000004" class="edge">
<title>Node4&#45;&gt;Node8</title>
<g id="a_edge10_Node000008_Node000004"><a xlink:title=" ">
<path fill="none" stroke="#63b8ff" d="M253.84,-950.77C269.7,-909.17 287.27,-863.07 301.68,-825.25"/>
<polygon fill="none" stroke="#63b8ff" points="301.77,-825.01 300.17,-817.98 306.04,-813.8 307.64,-820.83 301.77,-825.01"/>
</a>
</g>
<text text-anchor="start" x="275" y="-922" font-family="Helvetica,sans-Serif" font-size="10.00" fill="grey">+Data</text>
<text text-anchor="start" x="275" y="-907" font-family="Helvetica,sans-Serif" font-size="10.00" fill="grey">&#45;mappedData</text>
</g>
<!-- Node5 -->
<g id="Node000005" class="node">
<title>Node5</title>
<g id="a_Node000005"><a xlink:href="structSpan_1_1Vector4.html" target="_top" xlink:title="4次元ベクトル (float x, y, z, w) 色情報(RGBA)や同次座標で使用されます。">
<polygon fill="white" stroke="transparent" points="141,-1619.5 64,-1619.5 64,-1405.5 141,-1405.5 141,-1619.5"/>
<text text-anchor="start" x="69.5" y="-1607.5" font-family="Helvetica,sans-Serif" font-size="10.00">Span::Vector4</text>
<text text-anchor="start" x="68.5" y="-1592.5" font-family="Helvetica,sans-Serif" font-size="10.00">+</text>
<text text-anchor="start" x="81.5" y="-1592.5" font-family="Helvetica,sans-Serif" font-size="10.00">x</text>
<text text-anchor="start" x="68.5" y="-1577.5" font-family="Helvetica,sans-Serif" font-size="10.00">+</text>
<text text-anchor="start" x="81.5" y="-1577.5" font-family="Helvetica,sans-Serif" font-size="10.00">y</text>
<text text-anchor="start" x="68.5" y="-1562.5" font-family="Helvetica,sans-Serif" font-size="10.00">+</text>
<text text-anchor="start" x="81.5" y="-1562.5" font-family="Helvetica,sans-Serif" font-size="10.00">z</text>
<text text-anchor="start" x="68.5" y="-1547.5" font-family="Helvetica,sans-Serif" font-size="10.00">+</text>
<text text-anchor="start" x="81.5" y="-1547.5" font-family="Helvetica,sans-Serif" font-size="10.00">w</text>
<text text-anchor="start" x="68.5" y="-1532.5" font-family="Helvetica,sans-Serif" font-size="10.00">+</text>
<text text-anchor="start" x="81.5" y="-1532.5" font-family="Helvetica,sans-Serif" font-size="10.00">Vector4()</text>
<text text-anchor="start" x="68.5" y="-1517.5" font-family="Helvetica,sans-Serif" font-size="10.00">+</text>
<text text-anchor="start" x="81.5" y="-1517.5" font-family="Helvetica,sans-Serif" font-size="10.00">Vector4()</text>
<text text-anchor="start" x="68.5" y="-1502.5" font-family="Helvetica,sans-Serif" font-size="10.00">+</text>
<text text-anchor="start" x="81.5" y="-1502.5" font-family="Helvetica,sans-Serif" font-size="10.00">Vector4()</text>
<text text-anchor="start" x="68.5" y="-1487.5" font-family="Helvetica,sans-Serif" font-size="10.00">+</text>
<text text-anchor="start" x="81.5" y="-1487.5" font-family="Helvetica,sans-Serif" font-size="10.00">ToXM()</text>
<text text-anchor="start" x="68.5" y="-1472.5" font-family="Helvetica,sans-Serif" font-size="10.00">+</text>
<text text-anchor="start" x="81.5" y="-1472.5" font-family="Helvetica,sans-Serif" font-size="10.00">FromXM()</text>
<text text-anchor="start" x="68.5" y="-1457.5" font-family="Helvetica,sans-Serif" font-size="10.00">+</text>
<text text-anchor="start" x="81.5" y="-1457.5" font-family="Helvetica,sans-Serif" font-size="10.00">operator*()</text>
<text text-anchor="start" x="70" y="-1442.5" font-family="Helvetica,sans-Serif" font-size="10.00">*</text>
<text text-anchor="start" x="81.5" y="-1442.5" font-family="Helvetica,sans-Serif" font-size="10.00">ToXM()</text>
<text text-anchor="start" x="70" y="-1427.5" font-family="Helvetica,sans-Serif" font-size="10.00">*</text>
<text text-anchor="start" x="81.5" y="-1427.5" font-family="Helvetica,sans-Serif" font-size="10.00">FromXM()</text>
<text text-anchor="start" x="70" y="-1412.5" font-family="Helvetica,sans-Serif" font-size="10.00">*</text>
<text text-anchor="start" x="81.5" y="-1412.5" font-family="Helvetica,sans-Serif" font-size="10.00">operator*()</text>
<polygon fill="#666666" stroke="#666666" points="64.5,-1602.5 64.5,-1602.5 141.5,-1602.5 141.5,-1602.5 64.5,-1602.5"/>
<polygon fill="#666666" stroke="#666666" points="64.5,-1542.5 64.5,-1542.5 79.5,-1542.5 79.5,-1542.5 64.5,-1542.5"/>
<polygon fill="#666666" stroke="#666666" points="79.5,-1542.5 79.5,-1542.5 141.5,-1542.5 141.5,-1542.5 79.5,-1542.5"/>
<polygon fill="none" stroke="#666666" points="64,-1405.5 64,-1619.5 141,-1619.5 141,-1405.5 64,-1405.5"/>
</a>
</g>
</g>
<!-- Node5&#45;&gt;Node4 -->
<g id="edge4_Node000004_Node000005" class="edge">
<title>Node5&#45;&gt;Node4</title>
<g id="a_edge4_Node000004_Node000005"><a xlink:title=" ">
<path fill="none" stroke="#63b8ff" d="M101.19,-1405.37C103.23,-1343.52 110.71,-1264.79 132.5,-1198 136.44,-1185.92 141.63,-1173.77 147.47,-1161.99"/>
<polygon fill="none" stroke="#63b8ff" points="147.49,-1161.94 146.69,-1154.78 153,-1151.28 153.8,-1158.45 147.49,-1161.94"/>
</a>
</g>
<text text-anchor="start" x="135.5" y="-1211" font-family="Helvetica,sans-Serif" font-size="10.00" fill="grey">+AlbedoColor</text>
</g>
<!-- Node6 -->
<g id="Node000006" class="node">
<title>Node6</title>
<g id="a_Node000006"><a xlink:href="structSpan_1_1Vector3.html" target="_top" xlink:title="3次元ベクトル (float x, y, z) 位置、方向、スケールなどに使用されます。">
<polygon fill="white" stroke="transparent" points="261.5,-1777 159.5,-1777 159.5,-1248 261.5,-1248 261.5,-1777"/>
<text text-anchor="start" x="177" y="-1764.5" font-family="Helvetica,sans-Serif" font-size="10.00">Span::Vector3</text>
<text text-anchor="start" x="163.5" y="-1749.5" font-family="Helvetica,sans-Serif" font-size="10.00">+</text>
<text text-anchor="start" x="176.5" y="-1749.5" font-family="Helvetica,sans-Serif" font-size="10.00">x</text>
<text text-anchor="start" x="163.5" y="-1734.5" font-family="Helvetica,sans-Serif" font-size="10.00">+</text>
<text text-anchor="start" x="176.5" y="-1734.5" font-family="Helvetica,sans-Serif" font-size="10.00">y</text>
<text text-anchor="start" x="163.5" y="-1719.5" font-family="Helvetica,sans-Serif" font-size="10.00">+</text>
<text text-anchor="start" x="176.5" y="-1719.5" font-family="Helvetica,sans-Serif" font-size="10.00">z</text>
<text text-anchor="start" x="163.5" y="-1704.5" font-family="Helvetica,sans-Serif" font-size="10.00">+</text>
<text text-anchor="start" x="176.5" y="-1704.5" font-family="Helvetica,sans-Serif" font-size="10.00">Vector3()</text>
<text text-anchor="start" x="163.5" y="-1689.5" font-family="Helvetica,sans-Serif" font-size="10.00">+</text>
<text text-anchor="start" x="176.5" y="-1689.5" font-family="Helvetica,sans-Serif" font-size="10.00">Vector3()</text>
<text text-anchor="start" x="163.5" y="-1674.5" font-family="Helvetica,sans-Serif" font-size="10.00">+</text>
<text text-anchor="start" x="176.5" y="-1674.5" font-family="Helvetica,sans-Serif" font-size="10.00">Vector3()</text>
<text text-anchor="start" x="163.5" y="-1659.5" font-family="Helvetica,sans-Serif" font-size="10.00">+</text>
<text text-anchor="start" x="176.5" y="-1659.5" font-family="Helvetica,sans-Serif" font-size="10.00">ToXM()</text>
<text text-anchor="start" x="163.5" y="-1644.5" font-family="Helvetica,sans-Serif" font-size="10.00">+</text>
<text text-anchor="start" x="176.5" y="-1644.5" font-family="Helvetica,sans-Serif" font-size="10.00">FromXM()</text>
<text text-anchor="start" x="163.5" y="-1629.5" font-family="Helvetica,sans-Serif" font-size="10.00">+</text>
<text text-anchor="start" x="176.5" y="-1629.5" font-family="Helvetica,sans-Serif" font-size="10.00">operator+()</text>
<text text-anchor="start" x="163.5" y="-1614.5" font-family="Helvetica,sans-Serif" font-size="10.00">+</text>
<text text-anchor="start" x="176.5" y="-1614.5" font-family="Helvetica,sans-Serif" font-size="10.00">operator&#45;()</text>
<text text-anchor="start" x="163.5" y="-1599.5" font-family="Helvetica,sans-Serif" font-size="10.00">+</text>
<text text-anchor="start" x="176.5" y="-1599.5" font-family="Helvetica,sans-Serif" font-size="10.00">operator*()</text>
<text text-anchor="start" x="163.5" y="-1584.5" font-family="Helvetica,sans-Serif" font-size="10.00">+</text>
<text text-anchor="start" x="176.5" y="-1584.5" font-family="Helvetica,sans-Serif" font-size="10.00">operator/()</text>
<text text-anchor="start" x="163.5" y="-1569.5" font-family="Helvetica,sans-Serif" font-size="10.00">+</text>
<text text-anchor="start" x="176.5" y="-1569.5" font-family="Helvetica,sans-Serif" font-size="10.00">operator+=()</text>
<text text-anchor="start" x="163.5" y="-1554.5" font-family="Helvetica,sans-Serif" font-size="10.00">+</text>
<text text-anchor="start" x="176.5" y="-1554.5" font-family="Helvetica,sans-Serif" font-size="10.00">operator&#45;=()</text>
<text text-anchor="start" x="163.5" y="-1539.5" font-family="Helvetica,sans-Serif" font-size="10.00">+</text>
<text text-anchor="start" x="176.5" y="-1539.5" font-family="Helvetica,sans-Serif" font-size="10.00">operator*=()</text>
<text text-anchor="start" x="163.5" y="-1524.5" font-family="Helvetica,sans-Serif" font-size="10.00">+</text>
<text text-anchor="start" x="176.5" y="-1524.5" font-family="Helvetica,sans-Serif" font-size="10.00">operator/=()</text>
<text text-anchor="start" x="165" y="-1509.5" font-family="Helvetica,sans-Serif" font-size="10.00">*</text>
<text text-anchor="start" x="176.5" y="-1509.5" font-family="Helvetica,sans-Serif" font-size="10.00">ToXM()</text>
<text text-anchor="start" x="165" y="-1494.5" font-family="Helvetica,sans-Serif" font-size="10.00">*</text>
<text text-anchor="start" x="176.5" y="-1494.5" font-family="Helvetica,sans-Serif" font-size="10.00">FromXM()</text>
<text text-anchor="start" x="165" y="-1479.5" font-family="Helvetica,sans-Serif" font-size="10.00">*</text>
<text text-anchor="start" x="176.5" y="-1479.5" font-family="Helvetica,sans-Serif" font-size="10.00">operator+()</text>
<text text-anchor="start" x="165" y="-1464.5" font-family="Helvetica,sans-Serif" font-size="10.00">*</text>
<text text-anchor="start" x="176.5" y="-1464.5" font-family="Helvetica,sans-Serif" font-size="10.00">operator&#45;()</text>
<text text-anchor="start" x="165" y="-1449.5" font-family="Helvetica,sans-Serif" font-size="10.00">*</text>
<text text-anchor="start" x="176.5" y="-1449.5" font-family="Helvetica,sans-Serif" font-size="10.00">operator*()</text>
<text text-anchor="start" x="165" y="-1434.5" font-family="Helvetica,sans-Serif" font-size="10.00">*</text>
<text text-anchor="start" x="176.5" y="-1434.5" font-family="Helvetica,sans-Serif" font-size="10.00">operator/()</text>
<text text-anchor="start" x="165" y="-1419.5" font-family="Helvetica,sans-Serif" font-size="10.00">*</text>
<text text-anchor="start" x="176.5" y="-1419.5" font-family="Helvetica,sans-Serif" font-size="10.00">operator+=()</text>
<text text-anchor="start" x="165" y="-1404.5" font-family="Helvetica,sans-Serif" font-size="10.00">*</text>
<text text-anchor="start" x="176.5" y="-1404.5" font-family="Helvetica,sans-Serif" font-size="10.00">operator&#45;=()</text>
<text text-anchor="start" x="165" y="-1389.5" font-family="Helvetica,sans-Serif" font-size="10.00">*</text>
<text text-anchor="start" x="176.5" y="-1389.5" font-family="Helvetica,sans-Serif" font-size="10.00">operator*=()</text>
<text text-anchor="start" x="165" y="-1374.5" font-family="Helvetica,sans-Serif" font-size="10.00">*</text>
<text text-anchor="start" x="176.5" y="-1374.5" font-family="Helvetica,sans-Serif" font-size="10.00">operator/=()</text>
<text text-anchor="start" x="165" y="-1359.5" font-family="Helvetica,sans-Serif" font-size="10.00">*</text>
<text text-anchor="start" x="176.5" y="-1359.5" font-family="Helvetica,sans-Serif" font-size="10.00">Length()</text>
<text text-anchor="start" x="165" y="-1344.5" font-family="Helvetica,sans-Serif" font-size="10.00">*</text>
<text text-anchor="start" x="176.5" y="-1344.5" font-family="Helvetica,sans-Serif" font-size="10.00">LengthSquared()</text>
<text text-anchor="start" x="165" y="-1329.5" font-family="Helvetica,sans-Serif" font-size="10.00">*</text>
<text text-anchor="start" x="176.5" y="-1329.5" font-family="Helvetica,sans-Serif" font-size="10.00">Normalized()</text>
<text text-anchor="start" x="165" y="-1314.5" font-family="Helvetica,sans-Serif" font-size="10.00">*</text>
<text text-anchor="start" x="176.5" y="-1314.5" font-family="Helvetica,sans-Serif" font-size="10.00">Normalize()</text>
<text text-anchor="start" x="165" y="-1299.5" font-family="Helvetica,sans-Serif" font-size="10.00">*</text>
<text text-anchor="start" x="176.5" y="-1299.5" font-family="Helvetica,sans-Serif" font-size="10.00">Dot()</text>
<text text-anchor="start" x="165" y="-1284.5" font-family="Helvetica,sans-Serif" font-size="10.00">*</text>
<text text-anchor="start" x="176.5" y="-1284.5" font-family="Helvetica,sans-Serif" font-size="10.00">Cross()</text>
<text text-anchor="start" x="165" y="-1269.5" font-family="Helvetica,sans-Serif" font-size="10.00">*</text>
<text text-anchor="start" x="176.5" y="-1269.5" font-family="Helvetica,sans-Serif" font-size="10.00">Normalize()</text>
<text text-anchor="start" x="165" y="-1254.5" font-family="Helvetica,sans-Serif" font-size="10.00">*</text>
<text text-anchor="start" x="176.5" y="-1254.5" font-family="Helvetica,sans-Serif" font-size="10.00">Lerp()</text>
<polygon fill="#666666" stroke="#666666" points="159.5,-1759.5 159.5,-1759.5 261.5,-1759.5 261.5,-1759.5 159.5,-1759.5"/>
<polygon fill="#666666" stroke="#666666" points="159.5,-1714.5 159.5,-1714.5 174.5,-1714.5 174.5,-1714.5 159.5,-1714.5"/>
<polygon fill="#666666" stroke="#666666" points="174.5,-1714.5 174.5,-1714.5 261.5,-1714.5 261.5,-1714.5 174.5,-1714.5"/>
<polygon fill="none" stroke="#666666" points="159.5,-1248 159.5,-1777 261.5,-1777 261.5,-1248 159.5,-1248"/>
</a>
</g>
</g>
<!-- Node6&#45;&gt;Node4 -->
<g id="edge5_Node000004_Node000006" class="edge">
<title>Node6&#45;&gt;Node4</title>
<g id="a_edge5_Node000004_Node000006"><a xlink:title=" ">
<path fill="none" stroke="#63b8ff" d="M210.5,-1247.82C210.5,-1228.63 210.5,-1209.87 210.5,-1192.13"/>
<polygon fill="none" stroke="#63b8ff" points="210.5,-1192.02 206.5,-1186.02 210.5,-1180.02 214.5,-1186.02 210.5,-1192.02"/>
</a>
</g>
<text text-anchor="start" x="214" y="-1211" font-family="Helvetica,sans-Serif" font-size="10.00" fill="grey">+EmissiveColor</text>
</g>
<!-- Node6&#45;&gt;Node6 -->
<g id="edge6_Node000006_Node000006" class="edge">
<title>Node6&#45;&gt;Node6</title>
<g id="a_edge6_Node000006_Node000006"><a xlink:title=" ">
<path fill="none" stroke="#63b8ff" d="M261.65,-1566.24C272.05,-1560.39 279.5,-1542.47 279.5,-1512.5 279.5,-1491.66 275.9,-1476.65 270.21,-1467.47"/>
<polygon fill="none" stroke="#63b8ff" points="270.06,-1467.32 263.01,-1465.84 261.65,-1458.76 268.71,-1460.23 270.06,-1467.32"/>
</a>
</g>
<text text-anchor="start" x="282.5" y="-1562.5" font-family="Helvetica,sans-Serif" font-size="10.00" fill="grey">+Back</text>
<text text-anchor="start" x="282.5" y="-1547.5" font-family="Helvetica,sans-Serif" font-size="10.00" fill="grey">+Down</text>
<text text-anchor="start" x="282.5" y="-1532.5" font-family="Helvetica,sans-Serif" font-size="10.00" fill="grey">+Forward</text>
<text text-anchor="start" x="282.5" y="-1517.5" font-family="Helvetica,sans-Serif" font-size="10.00" fill="grey">+Left</text>
<text text-anchor="start" x="282.5" y="-1502.5" font-family="Helvetica,sans-Serif" font-size="10.00" fill="grey">+One</text>
<text text-anchor="start" x="282.5" y="-1487.5" font-family="Helvetica,sans-Serif" font-size="10.00" fill="grey">+Right</text>
<text text-anchor="start" x="282.5" y="-1472.5" font-family="Helvetica,sans-Serif" font-size="10.00" fill="grey">+Up</text>
<text text-anchor="start" x="282.5" y="-1457.5" font-family="Helvetica,sans-Serif" font-size="10.00" fill="grey">+Zero</text>
</g>
<!-- Node7 -->
<g id="Node000007" class="node">
<title>Node7</title>
<g id="a_Node000007"><a xlink:href="structSpan_1_1Vector2.html" target="_top" xlink:title="2次元ベクトル (float x, y) UI座標やUV座標に使用されます。">
<polygon fill="white" stroke="transparent" points="453.5,-1724.5 351.5,-1724.5 351.5,-1300.5 453.5,-1300.5 453.5,-1724.5"/>
<text text-anchor="start" x="369" y="-1712.5" font-family="Helvetica,sans-Serif" font-size="10.00">Span::Vector2</text>
<text text-anchor="start" x="355.5" y="-1697.5" font-family="Helvetica,sans-Serif" font-size="10.00">+</text>
<text text-anchor="start" x="368.5" y="-1697.5" font-family="Helvetica,sans-Serif" font-size="10.00">x</text>
<text text-anchor="start" x="355.5" y="-1682.5" font-family="Helvetica,sans-Serif" font-size="10.00">+</text>
<text text-anchor="start" x="368.5" y="-1682.5" font-family="Helvetica,sans-Serif" font-size="10.00">y</text>
<text text-anchor="start" x="355.5" y="-1667.5" font-family="Helvetica,sans-Serif" font-size="10.00">+</text>
<text text-anchor="start" x="368.5" y="-1667.5" font-family="Helvetica,sans-Serif" font-size="10.00">Vector2()</text>
<text text-anchor="start" x="355.5" y="-1652.5" font-family="Helvetica,sans-Serif" font-size="10.00">+</text>
<text text-anchor="start" x="368.5" y="-1652.5" font-family="Helvetica,sans-Serif" font-size="10.00">Vector2()</text>
<text text-anchor="start" x="355.5" y="-1637.5" font-family="Helvetica,sans-Serif" font-size="10.00">+</text>
<text text-anchor="start" x="368.5" y="-1637.5" font-family="Helvetica,sans-Serif" font-size="10.00">Vector2()</text>
<text text-anchor="start" x="355.5" y="-1622.5" font-family="Helvetica,sans-Serif" font-size="10.00">+</text>
<text text-anchor="start" x="368.5" y="-1622.5" font-family="Helvetica,sans-Serif" font-size="10.00">ToXM()</text>
<text text-anchor="start" x="355.5" y="-1607.5" font-family="Helvetica,sans-Serif" font-size="10.00">+</text>
<text text-anchor="start" x="368.5" y="-1607.5" font-family="Helvetica,sans-Serif" font-size="10.00">FromXM()</text>
<text text-anchor="start" x="355.5" y="-1592.5" font-family="Helvetica,sans-Serif" font-size="10.00">+</text>
<text text-anchor="start" x="368.5" y="-1592.5" font-family="Helvetica,sans-Serif" font-size="10.00">operator+()</text>
<text text-anchor="start" x="355.5" y="-1577.5" font-family="Helvetica,sans-Serif" font-size="10.00">+</text>
<text text-anchor="start" x="368.5" y="-1577.5" font-family="Helvetica,sans-Serif" font-size="10.00">operator&#45;()</text>
<text text-anchor="start" x="355.5" y="-1562.5" font-family="Helvetica,sans-Serif" font-size="10.00">+</text>
<text text-anchor="start" x="368.5" y="-1562.5" font-family="Helvetica,sans-Serif" font-size="10.00">operator*()</text>
<text text-anchor="start" x="355.5" y="-1547.5" font-family="Helvetica,sans-Serif" font-size="10.00">+</text>
<text text-anchor="start" x="368.5" y="-1547.5" font-family="Helvetica,sans-Serif" font-size="10.00">operator/()</text>
<text text-anchor="start" x="355.5" y="-1532.5" font-family="Helvetica,sans-Serif" font-size="10.00">+</text>
<text text-anchor="start" x="368.5" y="-1532.5" font-family="Helvetica,sans-Serif" font-size="10.00">operator+=()</text>
<text text-anchor="start" x="355.5" y="-1517.5" font-family="Helvetica,sans-Serif" font-size="10.00">+</text>
<text text-anchor="start" x="368.5" y="-1517.5" font-family="Helvetica,sans-Serif" font-size="10.00">operator&#45;=()</text>
<text text-anchor="start" x="355.5" y="-1502.5" font-family="Helvetica,sans-Serif" font-size="10.00">+</text>
<text text-anchor="start" x="368.5" y="-1502.5" font-family="Helvetica,sans-Serif" font-size="10.00">Length()</text>
<text text-anchor="start" x="355.5" y="-1487.5" font-family="Helvetica,sans-Serif" font-size="10.00">+</text>
<text text-anchor="start" x="368.5" y="-1487.5" font-family="Helvetica,sans-Serif" font-size="10.00">LengthSquared()</text>
<text text-anchor="start" x="355.5" y="-1472.5" font-family="Helvetica,sans-Serif" font-size="10.00">+</text>
<text text-anchor="start" x="368.5" y="-1472.5" font-family="Helvetica,sans-Serif" font-size="10.00">Normalized()</text>
<text text-anchor="start" x="357" y="-1457.5" font-family="Helvetica,sans-Serif" font-size="10.00">*</text>
<text text-anchor="start" x="368.5" y="-1457.5" font-family="Helvetica,sans-Serif" font-size="10.00">ToXM()</text>
<text text-anchor="start" x="357" y="-1442.5" font-family="Helvetica,sans-Serif" font-size="10.00">*</text>
<text text-anchor="start" x="368.5" y="-1442.5" font-family="Helvetica,sans-Serif" font-size="10.00">FromXM()</text>
<text text-anchor="start" x="357" y="-1427.5" font-family="Helvetica,sans-Serif" font-size="10.00">*</text>
<text text-anchor="start" x="368.5" y="-1427.5" font-family="Helvetica,sans-Serif" font-size="10.00">operator+()</text>
<text text-anchor="start" x="357" y="-1412.5" font-family="Helvetica,sans-Serif" font-size="10.00">*</text>
<text text-anchor="start" x="368.5" y="-1412.5" font-family="Helvetica,sans-Serif" font-size="10.00">operator&#45;()</text>
<text text-anchor="start" x="357" y="-1397.5" font-family="Helvetica,sans-Serif" font-size="10.00">*</text>
<text text-anchor="start" x="368.5" y="-1397.5" font-family="Helvetica,sans-Serif" font-size="10.00">operator*()</text>
<text text-anchor="start" x="357" y="-1382.5" font-family="Helvetica,sans-Serif" font-size="10.00">*</text>
<text text-anchor="start" x="368.5" y="-1382.5" font-family="Helvetica,sans-Serif" font-size="10.00">operator/()</text>
<text text-anchor="start" x="357" y="-1367.5" font-family="Helvetica,sans-Serif" font-size="10.00">*</text>
<text text-anchor="start" x="368.5" y="-1367.5" font-family="Helvetica,sans-Serif" font-size="10.00">operator+=()</text>
<text text-anchor="start" x="357" y="-1352.5" font-family="Helvetica,sans-Serif" font-size="10.00">*</text>
<text text-anchor="start" x="368.5" y="-1352.5" font-family="Helvetica,sans-Serif" font-size="10.00">operator&#45;=()</text>
<text text-anchor="start" x="357" y="-1337.5" font-family="Helvetica,sans-Serif" font-size="10.00">*</text>
<text text-anchor="start" x="368.5" y="-1337.5" font-family="Helvetica,sans-Serif" font-size="10.00">Length()</text>
<text text-anchor="start" x="357" y="-1322.5" font-family="Helvetica,sans-Serif" font-size="10.00">*</text>
<text text-anchor="start" x="368.5" y="-1322.5" font-family="Helvetica,sans-Serif" font-size="10.00">LengthSquared()</text>
<text text-anchor="start" x="357" y="-1307.5" font-family="Helvetica,sans-Serif" font-size="10.00">*</text>
<text text-anchor="start" x="368.5" y="-1307.5" font-family="Helvetica,sans-Serif" font-size="10.00">Normalized()</text>
<polygon fill="#666666" stroke="#666666" points="351.5,-1707.5 351.5,-1707.5 453.5,-1707.5 453.5,-1707.5 351.5,-1707.5"/>
<polygon fill="#666666" stroke="#666666" points="351.5,-1677.5 351.5,-1677.5 366.5,-1677.5 366.5,-1677.5 351.5,-1677.5"/>
<polygon fill="#666666" stroke="#666666" points="366.5,-1677.5 366.5,-1677.5 453.5,-1677.5 453.5,-1677.5 366.5,-1677.5"/>
<polygon fill="none" stroke="#666666" points="351.5,-1300.5 351.5,-1724.5 453.5,-1724.5 453.5,-1300.5 351.5,-1300.5"/>
</a>
</g>
</g>
<!-- Node7&#45;&gt;Node4 -->
<g id="edge7_Node000004_Node000007" class="edge">
<title>Node7&#45;&gt;Node4</title>
<g id="a_edge7_Node000004_Node000007"><a xlink:title=" ">
<path fill="none" stroke="#63b8ff" d="M362.56,-1300.39C356.72,-1282.36 350.07,-1264.66 342.5,-1248 325.42,-1210.39 299.84,-1172.79 275.74,-1141.66"/>
<polygon fill="none" stroke="#63b8ff" points="275.73,-1141.65 268.87,-1139.4 268.31,-1132.21 275.17,-1134.46 275.73,-1141.65"/>
</a>
</g>
<text text-anchor="start" x="335.5" y="-1219" font-family="Helvetica,sans-Serif" font-size="10.00" fill="grey">+Offset</text>
<text text-anchor="start" x="335.5" y="-1204" font-family="Helvetica,sans-Serif" font-size="10.00" fill="grey">+Tiling</text>
</g>
<!-- Node7&#45;&gt;Node7 -->
<g id="edge8_Node000007_Node000007" class="edge">
<title>Node7&#45;&gt;Node7</title>
<g id="a_edge8_Node000007_Node000007"><a xlink:title=" ">
<path fill="none" stroke="#63b8ff" d="M453.65,-1566.24C464.05,-1560.39 471.5,-1542.47 471.5,-1512.5 471.5,-1491.66 467.9,-1476.65 462.21,-1467.47"/>
<polygon fill="none" stroke="#63b8ff" points="462.06,-1467.32 455.01,-1465.84 453.65,-1458.76 460.71,-1460.23 462.06,-1467.32"/>
</a>
</g>
<text text-anchor="start" x="475" y="-1517.5" font-family="Helvetica,sans-Serif" font-size="10.00" fill="grey">+One</text>
<text text-anchor="start" x="475" y="-1502.5" font-family="Helvetica,sans-Serif" font-size="10.00" fill="grey">+Zero</text>
</g>
<!-- Node8&#45;&gt;Node2 -->
<g id="edge9_Node000002_Node000008" class="edge">
<title>Node8&#45;&gt;Node2</title>
<g id="a_edge9_Node000002_Node000008"><a xlink:title=" ">
<path fill="none" stroke="#63b8ff" d="M316.97,-678.08C306.23,-628.62 291.06,-558.74 276.77,-492.97"/>
<polygon fill="none" stroke="#63b8ff" points="276.76,-492.9 271.58,-487.89 274.21,-481.18 279.39,-486.19 276.76,-492.9"/>
</a>
</g>
<text text-anchor="start" x="301.5" y="-542" font-family="Helvetica,sans-Serif" font-size="10.00" fill="grey">&#45;m_ConstantBuffer</text>
</g>
<!-- Node9 -->
<g id="Node000009" class="node">
<title>Node9</title>
<g id="a_Node000009"><a xlink:href="classSpan_1_1Shader.html" target="_top" xlink:title="📜 HLSLシェーダーファイルのコンパイルとバイナリ保持。">
<polygon fill="white" stroke="transparent" points="511.5,-785.5 419.5,-785.5 419.5,-706.5 511.5,-706.5 511.5,-785.5"/>
<text text-anchor="start" x="433.5" y="-773" font-family="Helvetica,sans-Serif" font-size="10.00">Span::Shader</text>
<text text-anchor="start" x="426" y="-758" font-family="Helvetica,sans-Serif" font-size="10.00">&#45;</text>
<text text-anchor="start" x="436.5" y="-758" font-family="Helvetica,sans-Serif" font-size="10.00">blob</text>
<text text-anchor="start" x="423.5" y="-743" font-family="Helvetica,sans-Serif" font-size="10.00">+</text>
<text text-anchor="start" x="436.5" y="-743" font-family="Helvetica,sans-Serif" font-size="10.00">Load()</text>
<text text-anchor="start" x="423.5" y="-728" font-family="Helvetica,sans-Serif" font-size="10.00">+</text>
<text text-anchor="start" x="436.5" y="-728" font-family="Helvetica,sans-Serif" font-size="10.00">GetBlob()</text>
<text text-anchor="start" x="423.5" y="-713" font-family="Helvetica,sans-Serif" font-size="10.00">+</text>
<text text-anchor="start" x="436.5" y="-713" font-family="Helvetica,sans-Serif" font-size="10.00">GetBytecode()</text>
<polygon fill="#666666" stroke="#666666" points="419.5,-768 419.5,-768 511.5,-768 511.5,-768 419.5,-768"/>
<polygon fill="#666666" stroke="#666666" points="419.5,-753 419.5,-753 434.5,-753 434.5,-753 419.5,-753"/>
<polygon fill="#666666" stroke="#666666" points="434.5,-753 434.5,-753 511.5,-753 511.5,-753 434.5,-753"/>
<polygon fill="none" stroke="#666666" points="419.5,-706.5 419.5,-785.5 511.5,-785.5 511.5,-706.5 419.5,-706.5"/>
</a>
</g>
</g>
<!-- Node9&#45;&gt;Node2 -->
<g id="edge11_Node000002_Node000009" class="edge">
<title>Node9&#45;&gt;Node2</title>
<g id="a_edge11_Node000002_Node000009"><a xlink:title=" ">
<path fill="none" stroke="#63b8ff" d="M460.76,-706.4C453.41,-656.25 436.22,-567.06 400.5,-499 378.38,-456.84 345.44,-415.93 314.88,-382.83"/>
<polygon fill="none" stroke="#63b8ff" points="314.54,-382.46 307.52,-380.82 306.34,-373.7 313.36,-375.35 314.54,-382.46"/>
</a>
</g>
<text text-anchor="start" x="439" y="-550" font-family="Helvetica,sans-Serif" font-size="10.00" fill="grey">&#45;m_PixelShader</text>
<text text-anchor="start" x="439" y="-535" font-family="Helvetica,sans-Serif" font-size="10.00" fill="grey">&#45;m_VertexShader</text>
</g>
</g>
</svg>
