<?xml version="1.0" encoding="UTF-8" standalone="no"?>
<!DOCTYPE svg PUBLIC "-//W3C//DTD SVG 1.1//EN"
 "http://www.w3.org/Graphics/SVG/1.1/DTD/svg11.dtd">
<!-- Generated by graphviz version 2.43.0 (0)
 -->
<!-- Title: Span::Vector3::ToXM Pages: 1 -->
<svg width="509pt" height="249pt"
 viewBox="0.00 0.00 509.00 249.00" xmlns="http://www.w3.org/2000/svg" xmlns:xlink="http://www.w3.org/1999/xlink">
<g id="graph0" class="graph" transform="scale(1 1) rotate(0) translate(4 245)">
<title>Span::Vector3::ToXM</title>
<!-- Node1 -->
<g id="Node000001" class="node">
<title>Node1</title>
<g id="a_Node000001"><a xlink:title=" ">
<polygon fill="#999999" stroke="#666666" points="501,-148 385,-148 385,-129 501,-129 501,-148"/>
<text text-anchor="middle" x="443" y="-136" font-family="Helvetica,sans-Serif" font-size="10.00">Span::Vector3::ToXM</text>
</a>
</g>
</g>
<!-- Node2 -->
<g id="Node000002" class="node">
<title>Node2</title>
<g id="a_Node000002"><a xlink:href="structSpan_1_1Quaternion.html#a0b9a211626aa0851b99c60f6d3cc51d0" target="_top" xlink:title="軸と角度から作成">
<polygon fill="white" stroke="#666666" points="349,-241 194,-241 194,-222 349,-222 349,-241"/>
<text text-anchor="middle" x="271.5" y="-229" font-family="Helvetica,sans-Serif" font-size="10.00">Span::Quaternion::AngleAxis</text>
</a>
</g>
</g>
<!-- Node1&#45;&gt;Node2 -->
<g id="edge1_Node000001_Node000002" class="edge">
<title>Node1&#45;&gt;Node2</title>
<g id="a_edge1_Node000001_Node000002"><a xlink:title=" ">
<path fill="none" stroke="#63b8ff" d="M425.85,-155.39C408.47,-172.57 379.22,-198.72 349,-213.5 342.01,-216.92 334.35,-219.7 326.65,-221.97"/>
<polygon fill="#63b8ff" stroke="#63b8ff" points="428.42,-157.77 432.97,-148.19 423.45,-152.84 428.42,-157.77"/>
</a>
</g>
</g>
<!-- Node3 -->
<g id="Node000003" class="node">
<title>Node3</title>
<g id="a_Node000003"><a xlink:href="structSpan_1_1Vector3.html#af88324745a94c795f6b1190d5a7e7247" target="_top" xlink:title="外積 (Cross Product)">
<polygon fill="white" stroke="#666666" points="329.5,-204 213.5,-204 213.5,-185 329.5,-185 329.5,-204"/>
<text text-anchor="middle" x="271.5" y="-192" font-family="Helvetica,sans-Serif" font-size="10.00">Span::Vector3::Cross</text>
</a>
</g>
</g>
<!-- Node1&#45;&gt;Node3 -->
<g id="edge2_Node000001_Node000003" class="edge">
<title>Node1&#45;&gt;Node3</title>
<g id="a_edge2_Node000001_Node000003"><a xlink:title=" ">
<path fill="none" stroke="#63b8ff" d="M411.91,-152.2C393.91,-160.04 370.45,-169.64 349,-176.5 339.25,-179.62 328.65,-182.45 318.53,-184.9"/>
<polygon fill="#63b8ff" stroke="#63b8ff" points="413.56,-155.3 421.29,-148.06 410.73,-148.89 413.56,-155.3"/>
</a>
</g>
</g>
<!-- Node5 -->
<g id="Node000005" class="node">
<title>Node5</title>
<g id="a_Node000005"><a xlink:href="structSpan_1_1Vector3.html#afd00ea2d739d71571828e2d44b41c0c6" target="_top" xlink:title="内積 (Dot Product)">
<polygon fill="white" stroke="#666666" points="325,-167 218,-167 218,-148 325,-148 325,-167"/>
<text text-anchor="middle" x="271.5" y="-155" font-family="Helvetica,sans-Serif" font-size="10.00">Span::Vector3::Dot</text>
</a>
</g>
</g>
<!-- Node1&#45;&gt;Node5 -->
<g id="edge4_Node000001_Node000005" class="edge">
<title>Node1&#45;&gt;Node5</title>
<g id="a_edge4_Node000001_Node000005"><a xlink:title=" ">
<path fill="none" stroke="#63b8ff" d="M374.55,-146.06C358.15,-147.9 340.86,-149.84 325.26,-151.59"/>
<polygon fill="#63b8ff" stroke="#63b8ff" points="375.07,-149.52 384.62,-144.93 374.29,-142.57 375.07,-149.52"/>
</a>
</g>
</g>
<!-- Node6 -->
<g id="Node000006" class="node">
<title>Node6</title>
<g id="a_Node000006"><a xlink:href="structSpan_1_1Vector3.html#a636702ff63ba665c96251f818180e173" target="_top" xlink:title="正規化ベクトルを返します (SIMD高速化版)">
<polygon fill="white" stroke="#666666" points="326.5,-130 216.5,-130 216.5,-111 326.5,-111 326.5,-130"/>
<text text-anchor="middle" x="271.5" y="-118" font-family="Helvetica,sans-Serif" font-size="10.00">Span::Vector3::Lerp</text>
</a>
</g>
</g>
<!-- Node1&#45;&gt;Node6 -->
<g id="edge6_Node000001_Node000006" class="edge">
<title>Node1&#45;&gt;Node6</title>
<g id="a_edge6_Node000001_Node000006"><a xlink:title=" ">
<path fill="none" stroke="#63b8ff" d="M374.35,-131.32C358.51,-129.63 341.84,-127.86 326.68,-126.25"/>
<polygon fill="#63b8ff" stroke="#63b8ff" points="374.3,-134.83 384.62,-132.41 375.04,-127.87 374.3,-134.83"/>
</a>
</g>
</g>
<!-- Node7 -->
<g id="Node000007" class="node">
<title>Node7</title>
<g id="a_Node000007"><a xlink:href="structSpan_1_1Matrix4x4.html#a89c2ef7e5d64bc5015019811d0c88dfa" target="_top" xlink:title="ビュー行列作成 (左手系: Z+が奥)">
<polygon fill="white" stroke="#666666" points="346,-93 197,-93 197,-74 346,-74 346,-93"/>
<text text-anchor="middle" x="271.5" y="-81" font-family="Helvetica,sans-Serif" font-size="10.00">Span::Matrix4x4::LookAtLH</text>
</a>
</g>
</g>
<!-- Node1&#45;&gt;Node7 -->
<g id="edge7_Node000001_Node000007" class="edge">
<title>Node1&#45;&gt;Node7</title>
<g id="a_edge7_Node000001_Node000007"><a xlink:title=" ">
<path fill="none" stroke="#63b8ff" d="M410.38,-125.12C392.55,-117.86 369.75,-109.06 349,-102.5 338.04,-99.03 326.04,-95.8 314.85,-93.01"/>
<polygon fill="#63b8ff" stroke="#63b8ff" points="409.15,-128.4 419.73,-128.97 411.82,-121.93 409.15,-128.4"/>
</a>
</g>
</g>
<!-- Node8 -->
<g id="Node000008" class="node">
<title>Node8</title>
<g id="a_Node000008"><a xlink:href="structSpan_1_1Vector3.html#aabe270fd26b1d874df94a455faef13c5" target="_top" xlink:title="正規化ベクトルを返します (SIMD高速化版)">
<polygon fill="white" stroke="#666666" points="344.5,-56 198.5,-56 198.5,-37 344.5,-37 344.5,-56"/>
<text text-anchor="middle" x="271.5" y="-44" font-family="Helvetica,sans-Serif" font-size="10.00">Span::Vector3::Normalized</text>
</a>
</g>
</g>
<!-- Node1&#45;&gt;Node8 -->
<g id="edge8_Node000001_Node000008" class="edge">
<title>Node1&#45;&gt;Node8</title>
<g id="a_edge8_Node000001_Node000008"><a xlink:title=" ">
<path fill="none" stroke="#63b8ff" d="M425.45,-121.89C407.93,-105.23 378.75,-80.03 349,-65.5 341.13,-61.66 332.41,-58.55 323.77,-56.04"/>
<polygon fill="#63b8ff" stroke="#63b8ff" points="423.02,-124.41 432.64,-128.87 427.9,-119.39 423.02,-124.41"/>
</a>
</g>
</g>
<!-- Node4 -->
<g id="Node000004" class="node">
<title>Node4</title>
<g id="a_Node000004"><a xlink:href="structSpan_1_1Transform.html#a22e91c428e57737b16a5e9281a28a610" target="_top" xlink:title="指定したターゲット座標を向くように回転を設定します。">
<polygon fill="white" stroke="#666666" points="146.5,-167 11.5,-167 11.5,-148 146.5,-148 146.5,-167"/>
<text text-anchor="middle" x="79" y="-155" font-family="Helvetica,sans-Serif" font-size="10.00">Span::Transform::LookAt</text>
</a>
</g>
</g>
<!-- Node3&#45;&gt;Node4 -->
<g id="edge3_Node000003_Node000004" class="edge">
<title>Node3&#45;&gt;Node4</title>
<g id="a_edge3_Node000003_Node000004"><a xlink:title=" ">
<path fill="none" stroke="#63b8ff" d="M211.56,-183.05C185.15,-177.92 154.37,-171.94 129.22,-167.06"/>
<polygon fill="#63b8ff" stroke="#63b8ff" points="210.96,-186.5 221.44,-184.97 212.29,-179.63 210.96,-186.5"/>
</a>
</g>
</g>
<!-- Node5&#45;&gt;Node4 -->
<g id="edge5_Node000005_Node000004" class="edge">
<title>Node5&#45;&gt;Node4</title>
<g id="a_edge5_Node000005_Node000004"><a xlink:title=" ">
<path fill="none" stroke="#63b8ff" d="M207.9,-157.5C188.29,-157.5 166.58,-157.5 146.7,-157.5"/>
<polygon fill="#63b8ff" stroke="#63b8ff" points="207.94,-161 217.94,-157.5 207.94,-154 207.94,-161"/>
</a>
</g>
</g>
<!-- Node8&#45;&gt;Node4 -->
<g id="edge12_Node000008_Node000004" class="edge">
<title>Node8&#45;&gt;Node4</title>
<g id="a_edge12_Node000008_Node000004"><a xlink:title=" ">
<path fill="none" stroke="#63b8ff" d="M206.38,-59.52C202.08,-61.27 197.91,-63.25 194,-65.5 174.1,-76.93 175.45,-87.6 158,-102.5 137.46,-120.04 111.45,-137.54 95.27,-147.94"/>
<polygon fill="#63b8ff" stroke="#63b8ff" points="207.74,-62.75 215.95,-56.05 205.36,-56.17 207.74,-62.75"/>
</a>
</g>
</g>
<!-- Node9 -->
<g id="Node000009" class="node">
<title>Node9</title>
<g id="a_Node000009"><a xlink:href="structSpan_1_1Transform.html#a132f40241af247849e79067db6ad62b4" target="_top" xlink:title="前方ベクトル (Local Forward / Z+) を取得します。">
<polygon fill="white" stroke="#666666" points="158,-93 0,-93 0,-74 158,-74 158,-93"/>
<text text-anchor="middle" x="79" y="-81" font-family="Helvetica,sans-Serif" font-size="10.00">Span::Transform::GetForward</text>
</a>
</g>
</g>
<!-- Node8&#45;&gt;Node9 -->
<g id="edge9_Node000008_Node000009" class="edge">
<title>Node8&#45;&gt;Node9</title>
<g id="a_edge9_Node000008_Node000009"><a xlink:title=" ">
<path fill="none" stroke="#63b8ff" d="M211.56,-57.95C185.15,-63.08 154.37,-69.06 129.22,-73.94"/>
<polygon fill="#63b8ff" stroke="#63b8ff" points="212.29,-61.37 221.44,-56.03 210.96,-54.5 212.29,-61.37"/>
</a>
</g>
</g>
<!-- Node10 -->
<g id="Node000010" class="node">
<title>Node10</title>
<g id="a_Node000010"><a xlink:href="structSpan_1_1Transform.html#a201045237f4cff825ff023848c5967fa" target="_top" xlink:title="右方向ベクトル (Local Right / X+) を取得します。">
<polygon fill="white" stroke="#666666" points="151,-56 7,-56 7,-37 151,-37 151,-56"/>
<text text-anchor="middle" x="79" y="-44" font-family="Helvetica,sans-Serif" font-size="10.00">Span::Transform::GetRight</text>
</a>
</g>
</g>
<!-- Node8&#45;&gt;Node10 -->
<g id="edge10_Node000008_Node000010" class="edge">
<title>Node8&#45;&gt;Node10</title>
<g id="a_edge10_Node000008_Node000010"><a xlink:title=" ">
<path fill="none" stroke="#63b8ff" d="M188.21,-46.5C175.88,-46.5 163.25,-46.5 151.17,-46.5"/>
<polygon fill="#63b8ff" stroke="#63b8ff" points="188.48,-50 198.48,-46.5 188.48,-43 188.48,-50"/>
</a>
</g>
</g>
<!-- Node11 -->
<g id="Node000011" class="node">
<title>Node11</title>
<g id="a_Node000011"><a xlink:href="structSpan_1_1Transform.html#a4251fb155ba185e11247bd5b8044a003" target="_top" xlink:title="上方向ベクトル (Local Up / Y+) を取得します。">
<polygon fill="white" stroke="#666666" points="145,-19 13,-19 13,0 145,0 145,-19"/>
<text text-anchor="middle" x="79" y="-7" font-family="Helvetica,sans-Serif" font-size="10.00">Span::Transform::GetUp</text>
</a>
</g>
</g>
<!-- Node8&#45;&gt;Node11 -->
<g id="edge11_Node000008_Node000011" class="edge">
<title>Node8&#45;&gt;Node11</title>
<g id="a_edge11_Node000008_Node000011"><a xlink:title=" ">
<path fill="none" stroke="#63b8ff" d="M211.56,-35.05C185.15,-29.92 154.37,-23.94 129.22,-19.06"/>
<polygon fill="#63b8ff" stroke="#63b8ff" points="210.96,-38.5 221.44,-36.97 212.29,-31.63 210.96,-38.5"/>
</a>
</g>
</g>
</g>
</svg>
