<?xml version="1.0" encoding="UTF-8" standalone="no"?>
<!DOCTYPE svg PUBLIC "-//W3C//DTD SVG 1.1//EN"
 "http://www.w3.org/Graphics/SVG/1.1/DTD/svg11.dtd">
<!-- Generated by graphviz version 2.43.0 (0)
 -->
<!-- Title: Span::Matrix4x4::ToXM Pages: 1 -->
<svg width="865pt" height="272pt"
 viewBox="0.00 0.00 865.00 271.90" xmlns="http://www.w3.org/2000/svg" xmlns:xlink="http://www.w3.org/1999/xlink">
<g id="graph0" class="graph" transform="scale(1 1) rotate(0) translate(4 267.9)">
<title>Span::Matrix4x4::ToXM</title>
<!-- Node1 -->
<g id="Node000001" class="node">
<title>Node1</title>
<g id="a_Node000001"><a xlink:title=" ">
<polygon fill="#999999" stroke="#666666" points="857,-134.5 729,-134.5 729,-115.5 857,-115.5 857,-134.5"/>
<text text-anchor="middle" x="793" y="-122.5" font-family="Helvetica,sans-Serif" font-size="10.00">Span::Matrix4x4::ToXM</text>
</a>
</g>
</g>
<!-- Node2 -->
<g id="Node000002" class="node">
<title>Node2</title>
<g id="a_Node000002"><a xlink:href="classSpan_1_1SceneViewPanel.html#ad83a4a55f083c75371d0873322808796" target="_top" xlink:title="選択中のオブジェクトに対してマニピュレータ (矢印など) を描画します。">
<polygon fill="white" stroke="#666666" points="288,-148 162,-148 162,-118 288,-118 288,-148"/>
<text text-anchor="start" x="170" y="-136" font-family="Helvetica,sans-Serif" font-size="10.00">Span::SceneViewPanel</text>
<text text-anchor="middle" x="225" y="-125" font-family="Helvetica,sans-Serif" font-size="10.00">::DrawGizmo</text>
</a>
</g>
</g>
<!-- Node1&#45;&gt;Node2 -->
<g id="edge1_Node000001_Node000002" class="edge">
<title>Node1&#45;&gt;Node2</title>
<g id="a_edge1_Node000001_Node000002"><a xlink:title=" ">
<path fill="none" stroke="#63b8ff" d="M773.42,-141.33C754.44,-157.21 723.5,-180.94 693,-195 605.97,-235.11 579.09,-236.13 484,-248 413.44,-256.81 388.56,-277.81 324,-248 278.99,-227.22 247.02,-174.44 233.37,-148.24"/>
<polygon fill="#63b8ff" stroke="#63b8ff" points="775.92,-143.8 781.26,-134.65 771.38,-138.48 775.92,-143.8"/>
</a>
</g>
</g>
<!-- Node4 -->
<g id="Node000004" class="node">
<title>Node4</title>
<g id="a_Node000004"><a xlink:href="classSpan_1_1Renderer.html#ade1cd95fe5d2e6aa78493393ce39c767" target="_top" xlink:title="メッシュ描画コマンドの発行。">
<polygon fill="white" stroke="#666666" points="681,-185.5 532,-185.5 532,-166.5 681,-166.5 681,-185.5"/>
<text text-anchor="middle" x="606.5" y="-173.5" font-family="Helvetica,sans-Serif" font-size="10.00">Span::Renderer::DrawMesh</text>
</a>
</g>
</g>
<!-- Node1&#45;&gt;Node4 -->
<g id="edge3_Node000001_Node000004" class="edge">
<title>Node1&#45;&gt;Node4</title>
<g id="a_edge3_Node000001_Node000004"><a xlink:title=" ">
<path fill="none" stroke="#63b8ff" d="M747.62,-137.27C715.21,-146.23 671.89,-158.2 642.05,-166.45"/>
<polygon fill="#63b8ff" stroke="#63b8ff" points="748.59,-140.63 757.3,-134.59 746.73,-133.88 748.59,-140.63"/>
</a>
</g>
</g>
<!-- Node7 -->
<g id="Node000007" class="node">
<title>Node7</title>
<g id="a_Node000007"><a xlink:href="structSpan_1_1Quaternion.html#af2a0a1def4d845d030a45c5a26d32a80" target="_top" xlink:title="回転行列から変換 (実装は後述)">
<polygon fill="white" stroke="#666666" points="693,-140 520,-140 520,-110 693,-110 693,-140"/>
<text text-anchor="start" x="528" y="-128" font-family="Helvetica,sans-Serif" font-size="10.00">Span::Quaternion::FromRotation</text>
<text text-anchor="middle" x="606.5" y="-117" font-family="Helvetica,sans-Serif" font-size="10.00">Matrix</text>
</a>
</g>
</g>
<!-- Node1&#45;&gt;Node7 -->
<g id="edge6_Node000001_Node000007" class="edge">
<title>Node1&#45;&gt;Node7</title>
<g id="a_edge6_Node000001_Node000007"><a xlink:title=" ">
<path fill="none" stroke="#63b8ff" d="M718.67,-125C710.28,-125 701.68,-125 693.16,-125"/>
<polygon fill="#63b8ff" stroke="#63b8ff" points="718.76,-128.5 728.76,-125 718.76,-121.5 718.76,-128.5"/>
</a>
</g>
</g>
<!-- Node10 -->
<g id="Node000010" class="node">
<title>Node10</title>
<g id="a_Node000010"><a xlink:href="structSpan_1_1Matrix4x4.html#a3544a5d56ec62c035d6e1aa0b20bba2e" target="_top" xlink:title="転置行列">
<polygon fill="white" stroke="#666666" points="672,-75.5 541,-75.5 541,-56.5 672,-56.5 672,-75.5"/>
<text text-anchor="middle" x="606.5" y="-63.5" font-family="Helvetica,sans-Serif" font-size="10.00">Span::Matrix4x4::Invert</text>
</a>
</g>
</g>
<!-- Node1&#45;&gt;Node10 -->
<g id="edge10_Node000001_Node000010" class="edge">
<title>Node1&#45;&gt;Node10</title>
<g id="a_edge10_Node000001_Node000010"><a xlink:title=" ">
<path fill="none" stroke="#63b8ff" d="M752.18,-112.27C717.64,-101.22 668.43,-85.49 637.24,-75.51"/>
<polygon fill="#63b8ff" stroke="#63b8ff" points="751.36,-115.68 761.95,-115.39 753.49,-109.01 751.36,-115.68"/>
</a>
</g>
</g>
<!-- Node12 -->
<g id="Node000012" class="node">
<title>Node12</title>
<g id="a_Node000012"><a xlink:href="structSpan_1_1Matrix4x4.html#a59c1e5b5dede7d7aa342e8938676e3cb" target="_top" xlink:title="行列同士の掛け算">
<polygon fill="white" stroke="#666666" points="681,-38.5 532,-38.5 532,-19.5 681,-19.5 681,-38.5"/>
<text text-anchor="middle" x="606.5" y="-26.5" font-family="Helvetica,sans-Serif" font-size="10.00">Span::Matrix4x4::operator*</text>
</a>
</g>
</g>
<!-- Node1&#45;&gt;Node12 -->
<g id="edge13_Node000001_Node000012" class="edge">
<title>Node1&#45;&gt;Node12</title>
<g id="a_edge13_Node000001_Node000012"><a xlink:title=" ">
<path fill="none" stroke="#63b8ff" d="M775.64,-108.12C757.24,-90.15 725.63,-62.26 693,-47 685.72,-43.59 677.79,-40.83 669.79,-38.58"/>
<polygon fill="#63b8ff" stroke="#63b8ff" points="773.35,-110.78 782.9,-115.37 778.3,-105.83 773.35,-110.78"/>
</a>
</g>
</g>
<!-- Node3 -->
<g id="Node000003" class="node">
<title>Node3</title>
<g id="a_Node000003"><a xlink:href="classSpan_1_1SceneViewPanel.html#aab2935de58bd68267a680cabd3656c9f" target="_top" xlink:title="毎フレームの描画処理。 画像の表示、ツールバーのオーバーレイ、ギズモの描画を行います。">
<polygon fill="white" stroke="#666666" points="126,-148 0,-148 0,-118 126,-118 126,-148"/>
<text text-anchor="start" x="8" y="-136" font-family="Helvetica,sans-Serif" font-size="10.00">Span::SceneViewPanel</text>
<text text-anchor="middle" x="63" y="-125" font-family="Helvetica,sans-Serif" font-size="10.00">::OnImGuiRender</text>
</a>
</g>
</g>
<!-- Node2&#45;&gt;Node3 -->
<g id="edge2_Node000002_Node000003" class="edge">
<title>Node2&#45;&gt;Node3</title>
<g id="a_edge2_Node000002_Node000003"><a xlink:title=" ">
<path fill="none" stroke="#63b8ff" d="M151.45,-133C143,-133 134.44,-133 126.15,-133"/>
<polygon fill="#63b8ff" stroke="#63b8ff" points="151.68,-136.5 161.68,-133 151.68,-129.5 151.68,-136.5"/>
</a>
</g>
</g>
<!-- Node5 -->
<g id="Node000005" class="node">
<title>Node5</title>
<g id="a_Node000005"><a xlink:href="classSpan_1_1RenderingSystem.html#aa0113a8f2b55129115c4da2c6ba449c4" target="_top" xlink:title="毎フレーム呼び出されます。ここにゲームロジックを記述します。">
<polygon fill="white" stroke="#666666" points="470.5,-239 337.5,-239 337.5,-209 470.5,-209 470.5,-239"/>
<text text-anchor="start" x="345.5" y="-227" font-family="Helvetica,sans-Serif" font-size="10.00">Span::RenderingSystem</text>
<text text-anchor="middle" x="404" y="-216" font-family="Helvetica,sans-Serif" font-size="10.00">::OnUpdate</text>
</a>
</g>
</g>
<!-- Node4&#45;&gt;Node5 -->
<g id="edge4_Node000004_Node000005" class="edge">
<title>Node4&#45;&gt;Node5</title>
<g id="a_edge4_Node000004_Node000005"><a xlink:title=" ">
<path fill="none" stroke="#63b8ff" d="M555.57,-187.95C529.05,-194.3 496.18,-202.17 467.92,-208.94"/>
<polygon fill="#63b8ff" stroke="#63b8ff" points="556.5,-191.33 565.41,-185.6 554.87,-184.52 556.5,-191.33"/>
</a>
</g>
</g>
<!-- Node6 -->
<g id="Node000006" class="node">
<title>Node6</title>
<g id="a_Node000006"><a xlink:href="classSpan_1_1MaterialPreviewer.html#a7af64e04a1aae97d04d3a2bbe15f50a8" target="_top" xlink:title="オフスクリーンターゲットに球体を描画します。">
<polygon fill="white" stroke="#666666" points="472,-191 336,-191 336,-161 472,-161 472,-191"/>
<text text-anchor="start" x="344" y="-179" font-family="Helvetica,sans-Serif" font-size="10.00">Span::MaterialPreviewer</text>
<text text-anchor="middle" x="404" y="-168" font-family="Helvetica,sans-Serif" font-size="10.00">::Render</text>
</a>
</g>
</g>
<!-- Node4&#45;&gt;Node6 -->
<g id="edge5_Node000004_Node000006" class="edge">
<title>Node4&#45;&gt;Node6</title>
<g id="a_edge5_Node000004_Node000006"><a xlink:title=" ">
<path fill="none" stroke="#63b8ff" d="M521.78,-176C505.25,-176 488.1,-176 472.2,-176"/>
<polygon fill="#63b8ff" stroke="#63b8ff" points="521.98,-179.5 531.98,-176 521.98,-172.5 521.98,-179.5"/>
</a>
</g>
</g>
<!-- Node8 -->
<g id="Node000008" class="node">
<title>Node8</title>
<g id="a_Node000008"><a xlink:href="structSpan_1_1Matrix4x4.html#aea4a95a235a15e6ad3366fd07649d253" target="_top" xlink:title="行列を 移動・回転・スケール に分解する">
<polygon fill="white" stroke="#666666" points="484,-142.5 324,-142.5 324,-123.5 484,-123.5 484,-142.5"/>
<text text-anchor="middle" x="404" y="-130.5" font-family="Helvetica,sans-Serif" font-size="10.00">Span::Matrix4x4::Decompose</text>
</a>
</g>
</g>
<!-- Node7&#45;&gt;Node8 -->
<g id="edge7_Node000007_Node000008" class="edge">
<title>Node7&#45;&gt;Node8</title>
<g id="a_edge7_Node000007_Node000008"><a xlink:title=" ">
<path fill="none" stroke="#63b8ff" d="M509.87,-128.82C501.3,-129.16 492.69,-129.5 484.29,-129.84"/>
<polygon fill="#63b8ff" stroke="#63b8ff" points="510.04,-132.31 519.89,-128.42 509.76,-125.32 510.04,-132.31"/>
</a>
</g>
</g>
<!-- Node9 -->
<g id="Node000009" class="node">
<title>Node9</title>
<g id="a_Node000009"><a xlink:href="structSpan_1_1Transform.html#a22e91c428e57737b16a5e9281a28a610" target="_top" xlink:title="指定したターゲット座標を向くように回転を設定します。">
<polygon fill="white" stroke="#666666" points="471.5,-105.5 336.5,-105.5 336.5,-86.5 471.5,-86.5 471.5,-105.5"/>
<text text-anchor="middle" x="404" y="-93.5" font-family="Helvetica,sans-Serif" font-size="10.00">Span::Transform::LookAt</text>
</a>
</g>
</g>
<!-- Node7&#45;&gt;Node9 -->
<g id="edge9_Node000007_Node000009" class="edge">
<title>Node7&#45;&gt;Node9</title>
<g id="a_edge9_Node000007_Node000009"><a xlink:title=" ">
<path fill="none" stroke="#63b8ff" d="M509.85,-111.17C496.67,-109.26 483.39,-107.34 470.92,-105.53"/>
<polygon fill="#63b8ff" stroke="#63b8ff" points="509.49,-114.65 519.89,-112.62 510.49,-107.72 509.49,-114.65"/>
</a>
</g>
</g>
<!-- Node8&#45;&gt;Node2 -->
<g id="edge8_Node000008_Node000002" class="edge">
<title>Node8&#45;&gt;Node2</title>
<g id="a_edge8_Node000008_Node000002"><a xlink:title=" ">
<path fill="none" stroke="#63b8ff" d="M313.69,-133C305.04,-133 296.41,-133 288.12,-133"/>
<polygon fill="#63b8ff" stroke="#63b8ff" points="313.82,-136.5 323.82,-133 313.82,-129.5 313.82,-136.5"/>
</a>
</g>
</g>
<!-- Node10&#45;&gt;Node2 -->
<g id="edge11_Node000010_Node000002" class="edge">
<title>Node10&#45;&gt;Node2</title>
<g id="a_edge11_Node000010_Node000002"><a xlink:title=" ">
<path fill="none" stroke="#63b8ff" d="M530.84,-59.38C473.21,-56.53 392.08,-57.49 324,-77 294.61,-85.42 264.65,-104.37 245.73,-117.9"/>
<polygon fill="#63b8ff" stroke="#63b8ff" points="530.79,-62.88 540.96,-59.93 531.17,-55.89 530.79,-62.88"/>
</a>
</g>
</g>
<!-- Node11 -->
<g id="Node000011" class="node">
<title>Node11</title>
<g id="a_Node000011"><a xlink:href="classSpan_1_1CameraSystem.html#a7f4bf0245dedd7a6245ef352246f7391" target="_top" xlink:title="毎フレーム呼び出されます。ここにゲームロジックを記述します。">
<polygon fill="white" stroke="#666666" points="465,-30 343,-30 343,0 465,0 465,-30"/>
<text text-anchor="start" x="351" y="-18" font-family="Helvetica,sans-Serif" font-size="10.00">Span::CameraSystem</text>
<text text-anchor="middle" x="404" y="-7" font-family="Helvetica,sans-Serif" font-size="10.00">::OnUpdate</text>
</a>
</g>
</g>
<!-- Node10&#45;&gt;Node11 -->
<g id="edge12_Node000010_Node000011" class="edge">
<title>Node10&#45;&gt;Node11</title>
<g id="a_edge12_Node000010_Node000011"><a xlink:title=" ">
<path fill="none" stroke="#63b8ff" d="M550.55,-54.24C540.37,-51.93 529.85,-49.46 520,-47 499.29,-41.82 476.63,-35.63 456.94,-30.08"/>
<polygon fill="#63b8ff" stroke="#63b8ff" points="550.05,-57.71 560.58,-56.48 551.58,-50.88 550.05,-57.71"/>
</a>
</g>
</g>
</g>
</svg>
