<?xml version="1.0" encoding="UTF-8" standalone="no"?>
<!DOCTYPE svg PUBLIC "-//W3C//DTD SVG 1.1//EN"
 "http://www.w3.org/Graphics/SVG/1.1/DTD/svg11.dtd">
<!-- Generated by graphviz version 2.43.0 (0)
 -->
<!-- Title: Span::Camera::Tooltip Pages: 1 -->
<!--zoomable 129 -->

<svg id="main" version="1.1" xmlns="http://www.w3.org/2000/svg" xmlns:xlink="http://www.w3.org/1999/xlink" xml:space="preserve" onload="init(evt)">

<style type="text/css"><![CDATA[
.node, .edge {opacity: 0.7;}
.node.selected, .edge.selected {opacity: 1;}
.edge:hover path { stroke: red; }
.edge:hover polygon { stroke: red; fill: red; }
]]></style>

<defs>
  <circle id="rim" cx="0" cy="0" r="7"/>
  <circle id="rim2" cx="0" cy="0" r="3.5"/>
  <g id="zoomPlus">
    <use xlink:href="#rim" fill="#404040"><set attributeName="fill" to="#808080" begin="zoomplus.mouseover" end="zoomplus.mouseout"/></use>
    <path d="M-4,0h8M0,-4v8" fill="none" stroke="white" stroke-width="1.5" pointer-events="none"/>
  </g>
  <g id="zoomMin">
    <use xlink:href="#rim" fill="#404040"><set attributeName="fill" to="#808080" begin="zoomminus.mouseover" end="zoomminus.mouseout"/></use>
    <path d="M-4,0h8" fill="none" stroke="white" stroke-width="1.5" pointer-events="none"/>
  </g>
  <g id="arrowUp" transform="translate(30 24)">
    <use xlink:href="#rim"/>
    <path pointer-events="none" fill="none" stroke="white" stroke-width="1.5" d="M0,-3.0v7 M-2.5,-0.5L0,-3.0L2.5,-0.5"/>
  </g>
  <g id="arrowRight" transform="rotate(90) translate(36 -43)">
    <use xlink:href="#rim"/>
    <path pointer-events="none" fill="none" stroke="white" stroke-width="1.5" d="M0,-3.0v7 M-2.5,-0.5L0,-3.0L2.5,-0.5"/>
  </g>
  <g id="arrowDown" transform="rotate(180) translate(-30 -48)">
    <use xlink:href="#rim"/>
    <path pointer-events="none" fill="none" stroke="white" stroke-width="1.5" d="M0,-3.0v7 M-2.5,-0.5L0,-3.0L2.5,-0.5"/>
  </g>
  <g id="arrowLeft" transform="rotate(270) translate(-36 17)">
    <use xlink:href="#rim"/>
    <path pointer-events="none" fill="none" stroke="white" stroke-width="1.5" d="M0,-3.0v7 M-2.5,-0.5L0,-3.0L2.5,-0.5"/>
  </g>
  <g id="resetDef">
    <use xlink:href="#rim2" fill="#404040"><set attributeName="fill" to="#808080" begin="reset.mouseover" end="reset.mouseout"/></use>
  </g>
</defs>
<script type="application/ecmascript">
var viewWidth = 590;
var viewHeight = 129;
var sectionId = 'dynsection-8';
</script>
<script type="application/ecmascript" xlink:href="svg.min.js"/>
<svg id="graph" class="graph">
<g id="viewport">
<title>Span::Camera::Tooltip</title>
<!-- Node1 -->
<g id="Node000001" class="node">
<title>Node1</title>
<g id="a_Node000001"><a xlink:title=" ">
<polygon fill="#999999" stroke="#666666" points="582,-102 459,-102 459,-83 582,-83 582,-102"/>
<text text-anchor="middle" x="520.5" y="-90" font-family="Helvetica,sans-Serif" font-size="10.00">Span::Camera::Tooltip</text>
</a>
</g>
</g>
<!-- Node2 -->
<g id="Node000002" class="node">
<title>Node2</title>
<g id="a_Node000002"><a xlink:href="structSpan_1_1Camera.html#a014e8eba964d808c5573ec1bc310ff57" target="_top" xlink:title=" ">
<polygon fill="white" stroke="#666666" points="117.5,-84 8.5,-84 8.5,-65 117.5,-65 117.5,-84"/>
<text text-anchor="middle" x="63" y="-72" font-family="Helvetica,sans-Serif" font-size="10.00">Span::Camera::Min</text>
</a>
</g>
</g>
<!-- Node1&#45;&gt;Node2 -->
<g id="edge1_Node000001_Node000002" class="edge">
<title>Node1&#45;&gt;Node2</title>
<g id="a_edge1_Node000001_Node000002"><a xlink:title=" ">
<path fill="none" stroke="#63b8ff" d="M461.53,-103.79C390.37,-115.76 266.32,-130.54 162,-111.5 133.37,-106.28 102.25,-93.13 82.93,-84"/>
<polygon fill="#63b8ff" stroke="#63b8ff" points="462.37,-107.19 471.63,-102.04 461.18,-100.29 462.37,-107.19"/>
</a>
</g>
</g>
<!-- Node3 -->
<g id="Node000003" class="node">
<title>Node3</title>
<g id="a_Node000003"><a xlink:href="structSpan_1_1Camera.html#a7d7398de74ff9dd2dfa791c508251062" target="_top" xlink:title=" ">
<polygon fill="white" stroke="#666666" points="271,-84 162,-84 162,-65 271,-65 271,-84"/>
<text text-anchor="middle" x="216.5" y="-72" font-family="Helvetica,sans-Serif" font-size="10.00">Span::Camera::Min</text>
</a>
</g>
</g>
<!-- Node1&#45;&gt;Node3 -->
<g id="edge2_Node000001_Node000003" class="edge">
<title>Node1&#45;&gt;Node3</title>
<g id="a_edge2_Node000001_Node000003"><a xlink:title=" ">
<path fill="none" stroke="#63b8ff" d="M448.5,-88.27C394.2,-85.03 320.49,-80.64 271.07,-77.69"/>
<polygon fill="#63b8ff" stroke="#63b8ff" points="448.56,-91.78 458.75,-88.88 448.98,-84.79 448.56,-91.78"/>
</a>
</g>
</g>
<!-- Node5 -->
<g id="Node000005" class="node">
<title>Node5</title>
<g id="a_Node000005"><a xlink:href="structSpan_1_1Camera.html#a3a5c903ea1474553e923ceebe57651f2" target="_top" xlink:title=" ">
<polygon fill="white" stroke="#666666" points="423,-46.5 307,-46.5 307,-16.5 423,-16.5 423,-46.5"/>
<text text-anchor="start" x="315" y="-34.5" font-family="Helvetica,sans-Serif" font-size="10.00">Span::Camera::SPAN</text>
<text text-anchor="middle" x="365" y="-23.5" font-family="Helvetica,sans-Serif" font-size="10.00">_FIELD</text>
</a>
</g>
</g>
<!-- Node1&#45;&gt;Node5 -->
<g id="edge7_Node000001_Node000005" class="edge">
<title>Node1&#45;&gt;Node5</title>
<g id="a_edge7_Node000001_Node000005"><a xlink:title=" ">
<path fill="none" stroke="#63b8ff" d="M486.03,-79.2C461.8,-69.57 429.03,-56.55 403.85,-46.54"/>
<polygon fill="#63b8ff" stroke="#63b8ff" points="484.93,-82.53 495.52,-82.97 487.52,-76.02 484.93,-82.53"/>
</a>
</g>
</g>
<!-- Node3&#45;&gt;Node2 -->
<g id="edge5_Node000003_Node000002" class="edge">
<title>Node3&#45;&gt;Node2</title>
<g id="a_edge5_Node000003_Node000002"><a xlink:title=" ">
<path fill="none" stroke="#63b8ff" d="M151.46,-74.5C140.2,-74.5 128.6,-74.5 117.67,-74.5"/>
<polygon fill="#63b8ff" stroke="#63b8ff" points="151.66,-78 161.66,-74.5 151.66,-71 151.66,-78"/>
</a>
</g>
</g>
<!-- Node3&#45;&gt;Node3 -->
<g id="edge6_Node000003_Node000003" class="edge">
<title>Node3&#45;&gt;Node3</title>
<g id="a_edge6_Node000003_Node000003"><a xlink:title=" ">
<path fill="none" stroke="#63b8ff" d="M244.03,-93.19C242.53,-98.2 233.35,-102 216.5,-102 190.2,-102 182.59,-92.73 193.69,-84.08"/>
<polygon fill="#63b8ff" stroke="#63b8ff" points="247.02,-91.35 239.31,-84.08 240.8,-94.57 247.02,-91.35"/>
</a>
</g>
</g>
<!-- Node4 -->
<g id="Node000004" class="node">
<title>Node4</title>
<g id="a_Node000004"><a xlink:href="structSpan_1_1Camera.html#a0c6923a4e86c576bb77222ca974ae4d0" target="_top" xlink:title=" ">
<polygon fill="white" stroke="#666666" points="126,-19 0,-19 0,0 126,0 126,-19"/>
<text text-anchor="middle" x="63" y="-7" font-family="Helvetica,sans-Serif" font-size="10.00">Span::Camera::Header</text>
</a>
</g>
</g>
<!-- Node3&#45;&gt;Node4 -->
<g id="edge3_Node000003_Node000004" class="edge">
<title>Node3&#45;&gt;Node4</title>
<g id="a_edge3_Node000003_Node000004"><a xlink:title=" ">
<path fill="none" stroke="#63b8ff" d="M183.82,-60.91C154.69,-48.41 112.22,-30.19 86.45,-19.13"/>
<polygon fill="#63b8ff" stroke="#63b8ff" points="182.58,-64.18 193.15,-64.91 185.34,-57.75 182.58,-64.18"/>
</a>
</g>
</g>
<!-- Node4&#45;&gt;Node4 -->
<g id="edge4_Node000004_Node000004" class="edge">
<title>Node4&#45;&gt;Node4</title>
<g id="a_edge4_Node000004_Node000004"><a xlink:title=" ">
<path fill="none" stroke="#63b8ff" d="M91.37,-27.82C90.19,-33.01 80.73,-37 63,-37 35.98,-37 28.18,-27.73 39.57,-19.08"/>
<polygon fill="#63b8ff" stroke="#63b8ff" points="94.4,-26.06 86.43,-19.08 88.31,-29.51 94.4,-26.06"/>
</a>
</g>
</g>
<!-- Node5&#45;&gt;Node2 -->
<g id="edge9_Node000005_Node000002" class="edge">
<title>Node5&#45;&gt;Node2</title>
<g id="a_edge9_Node000005_Node000002"><a xlink:title=" ">
<path fill="none" stroke="#63b8ff" d="M296.83,-38.82C257.47,-43.35 206.82,-49.62 162,-56.5 145.93,-58.97 128.45,-62.05 112.76,-64.96"/>
<polygon fill="#63b8ff" stroke="#63b8ff" points="297.31,-42.28 306.85,-37.67 296.51,-35.33 297.31,-42.28"/>
</a>
</g>
</g>
<!-- Node5&#45;&gt;Node3 -->
<g id="edge10_Node000005_Node000003" class="edge">
<title>Node5&#45;&gt;Node3</title>
<g id="a_edge10_Node000005_Node000003"><a xlink:title=" ">
<path fill="none" stroke="#63b8ff" d="M303.1,-49.37C284.95,-54.7 265.76,-60.33 250.16,-64.91"/>
<polygon fill="#63b8ff" stroke="#63b8ff" points="304.15,-52.71 312.76,-46.54 302.18,-46 304.15,-52.71"/>
</a>
</g>
</g>
<!-- Node5&#45;&gt;Node4 -->
<g id="edge8_Node000005_Node000004" class="edge">
<title>Node5&#45;&gt;Node4</title>
<g id="a_edge8_Node000005_Node000004"><a xlink:title=" ">
<path fill="none" stroke="#63b8ff" d="M296.84,-24.73C288.15,-23.93 279.37,-23.17 271,-22.5 222.36,-18.62 167.22,-15.21 126.09,-12.85"/>
<polygon fill="#63b8ff" stroke="#63b8ff" points="296.69,-28.23 306.97,-25.67 297.34,-21.26 296.69,-28.23"/>
</a>
</g>
</g>
<!-- Node5&#45;&gt;Node5 -->
<g id="edge11_Node000005_Node000005" class="edge">
<title>Node5&#45;&gt;Node5</title>
<g id="a_edge11_Node000005_Node000005"><a xlink:title=" ">
<path fill="none" stroke="#63b8ff" d="M390.91,-57.1C387.37,-61.47 378.73,-64.5 365,-64.5 341.88,-64.5 333.2,-55.91 338.98,-46.78"/>
<polygon fill="#63b8ff" stroke="#63b8ff" points="394.41,-56.81 391.02,-46.78 387.41,-56.74 394.41,-56.81"/>
</a>
</g>
</g>
</g>
</svg>

<g id="navigator" transform="translate(0 0)" fill="#404254">
  <rect fill="#f2f5e9" fill-opacity="0.5" stroke="#606060" stroke-width=".5" x="0" y="0" width="60" height="60"/>
  <use id="zoomplus" xlink:href="#zoomPlus" x="17" y="9" onmousedown="handleZoom(evt,'in')"/>
  <use id="zoomminus" xlink:href="#zoomMin" x="42" y="9" onmousedown="handleZoom(evt,'out')"/>
  <use id="reset" xlink:href="#resetDef" x="30" y="36" onmousedown="handleReset()"/>
   <use id="arrowup" xlink:href="#arrowUp" x="0" y="0" onmousedown="handlePan(0,-1)"/>
  <use id="arrowright" xlink:href="#arrowRight" x="0" y="0" onmousedown="handlePan(1,0)"/>
  <use id="arrowdown" xlink:href="#arrowDown" x="0" y="0" onmousedown="handlePan(0,1)"/>
  <use id="arrowleft" xlink:href="#arrowLeft" x="0" y="0" onmousedown="handlePan(-1,0)"/>
</g>
<svg viewBox="0 0 15 15" width="100%" height="30px" preserveAspectRatio="xMaxYMin meet">
 <g id="arrow_out" transform="scale(0.3 0.3)">
  <a xlink:href="structSpan_1_1Camera_a3d41ffd6deefa357ade96ed3627eba4e_icgraph_org.svg" target="_base">
   <rect id="button" ry="5" rx="5" y="6" x="6" height="38" width="38"
        fill="#f2f5e9" fill-opacity="0.5" stroke="#606060" stroke-width="1.0"/>
   <path id="arrow"
     d="M 11.500037,31.436501 C 11.940474,20.09759 22.043105,11.32322 32.158766,21.979434 L 37.068811,17.246167 C 37.068811,17.246167 37.088388,32 37.088388,32 L 22.160133,31.978069 C 22.160133,31.978069 26.997745,27.140456 26.997745,27.140456 C 18.528582,18.264221 13.291696,25.230495 11.500037,31.436501 z"
     style="fill:#404040;"/>
  </a>
 </g>
</svg>

<style type='text/css'>
<![CDATA[
[data-mouse-over-selected='false'] { opacity: 0.7; }
[data-mouse-over-selected='true']  { opacity: 1.0; }
]]>
</style>
<script type="application/ecmascript"><![CDATA[
document.addEventListener('DOMContentLoaded', (event) => {
  highlightEdges();
  highlightAdjacentNodes();
});
]]></script>
</svg>
