<?xml version="1.0" encoding="UTF-8" standalone="no"?>
<!DOCTYPE svg PUBLIC "-//W3C//DTD SVG 1.1//EN"
 "http://www.w3.org/Graphics/SVG/1.1/DTD/svg11.dtd">
<!-- Generated by graphviz version 2.43.0 (0)
 -->
<!-- Title: Span::Matrix4x4::Matrix4x4 Pages: 1 -->
<!--zoomable 612 -->

<svg id="main" version="1.1" xmlns="http://www.w3.org/2000/svg" xmlns:xlink="http://www.w3.org/1999/xlink" xml:space="preserve" onload="init(evt)">

<style type="text/css"><![CDATA[
.node, .edge {opacity: 0.7;}
.node.selected, .edge.selected {opacity: 1;}
.edge:hover path { stroke: red; }
.edge:hover polygon { stroke: red; fill: red; }
]]></style>

<defs>
  <circle id="rim" cx="0" cy="0" r="7"/>
  <circle id="rim2" cx="0" cy="0" r="3.5"/>
  <g id="zoomPlus">
    <use xlink:href="#rim" fill="#404040"><set attributeName="fill" to="#808080" begin="zoomplus.mouseover" end="zoomplus.mouseout"/></use>
    <path d="M-4,0h8M0,-4v8" fill="none" stroke="white" stroke-width="1.5" pointer-events="none"/>
  </g>
  <g id="zoomMin">
    <use xlink:href="#rim" fill="#404040"><set attributeName="fill" to="#808080" begin="zoomminus.mouseover" end="zoomminus.mouseout"/></use>
    <path d="M-4,0h8" fill="none" stroke="white" stroke-width="1.5" pointer-events="none"/>
  </g>
  <g id="arrowUp" transform="translate(30 24)">
    <use xlink:href="#rim"/>
    <path pointer-events="none" fill="none" stroke="white" stroke-width="1.5" d="M0,-3.0v7 M-2.5,-0.5L0,-3.0L2.5,-0.5"/>
  </g>
  <g id="arrowRight" transform="rotate(90) translate(36 -43)">
    <use xlink:href="#rim"/>
    <path pointer-events="none" fill="none" stroke="white" stroke-width="1.5" d="M0,-3.0v7 M-2.5,-0.5L0,-3.0L2.5,-0.5"/>
  </g>
  <g id="arrowDown" transform="rotate(180) translate(-30 -48)">
    <use xlink:href="#rim"/>
    <path pointer-events="none" fill="none" stroke="white" stroke-width="1.5" d="M0,-3.0v7 M-2.5,-0.5L0,-3.0L2.5,-0.5"/>
  </g>
  <g id="arrowLeft" transform="rotate(270) translate(-36 17)">
    <use xlink:href="#rim"/>
    <path pointer-events="none" fill="none" stroke="white" stroke-width="1.5" d="M0,-3.0v7 M-2.5,-0.5L0,-3.0L2.5,-0.5"/>
  </g>
  <g id="resetDef">
    <use xlink:href="#rim2" fill="#404040"><set attributeName="fill" to="#808080" begin="reset.mouseover" end="reset.mouseout"/></use>
  </g>
</defs>
<script type="application/ecmascript">
var viewWidth = 881;
var viewHeight = 612;
var sectionId = 'dynsection-2';
</script>
<script type="application/ecmascript" xlink:href="svg.min.js"/>
<svg id="graph" class="graph">
<g id="viewport">
<title>Span::Matrix4x4::Matrix4x4</title>
<!-- Node1 -->
<g id="Node000001" class="node">
<title>Node1</title>
<g id="a_Node000001"><a xlink:title=" ">
<polygon fill="#999999" stroke="#666666" points="873,-222 721,-222 721,-203 873,-203 873,-222"/>
<text text-anchor="middle" x="797" y="-210" font-family="Helvetica,sans-Serif" font-size="10.00">Span::Matrix4x4::Matrix4x4</text>
</a>
</g>
</g>
<!-- Node2 -->
<g id="Node000002" class="node">
<title>Node2</title>
<g id="a_Node000002"><a xlink:href="structSpan_1_1Matrix4x4.html#aea4a95a235a15e6ad3366fd07649d253" target="_top" xlink:title="行列を 移動・回転・スケール に分解する">
<polygon fill="white" stroke="#666666" points="490,-604 330,-604 330,-585 490,-585 490,-604"/>
<text text-anchor="middle" x="410" y="-592" font-family="Helvetica,sans-Serif" font-size="10.00">Span::Matrix4x4::Decompose</text>
</a>
</g>
</g>
<!-- Node1&#45;&gt;Node2 -->
<g id="edge1_Node000001_Node000002" class="edge">
<title>Node1&#45;&gt;Node2</title>
<g id="a_edge1_Node000001_Node000002"><a xlink:title=" ">
<path fill="none" stroke="#63b8ff" d="M794.83,-232.17C790.53,-286.29 771,-438.72 685,-519.5 632.52,-568.8 550.78,-586.26 490.22,-592.16"/>
<polygon fill="#63b8ff" stroke="#63b8ff" points="798.32,-232.4 795.53,-222.18 791.34,-231.9 798.32,-232.4"/>
</a>
</g>
</g>
<!-- Node5 -->
<g id="Node000005" class="node">
<title>Node5</title>
<g id="a_Node000005"><a xlink:href="structSpan_1_1Matrix4x4.html#a9c4e6a6d01ebda4b0b5818a910afa557" target="_top" xlink:title="単位行列">
<polygon fill="white" stroke="#666666" points="675.5,-510 535.5,-510 535.5,-491 675.5,-491 675.5,-510"/>
<text text-anchor="middle" x="605.5" y="-498" font-family="Helvetica,sans-Serif" font-size="10.00">Span::Matrix4x4::Identity</text>
</a>
</g>
</g>
<!-- Node1&#45;&gt;Node5 -->
<g id="edge4_Node000001_Node000005" class="edge">
<title>Node1&#45;&gt;Node5</title>
<g id="a_edge4_Node000001_Node000005"><a xlink:title=" ">
<path fill="none" stroke="#63b8ff" d="M784.18,-230.46C748.1,-285.3 640.13,-449.38 612.83,-490.88"/>
<polygon fill="#63b8ff" stroke="#63b8ff" points="787.12,-232.36 789.69,-222.08 781.27,-228.51 787.12,-232.36"/>
</a>
</g>
</g>
<!-- Node10 -->
<g id="Node000010" class="node">
<title>Node10</title>
<g id="a_Node000010"><a xlink:href="structSpan_1_1Matrix4x4.html#a3544a5d56ec62c035d6e1aa0b20bba2e" target="_top" xlink:title="転置行列">
<polygon fill="white" stroke="#666666" points="671,-327 540,-327 540,-308 671,-308 671,-327"/>
<text text-anchor="middle" x="605.5" y="-315" font-family="Helvetica,sans-Serif" font-size="10.00">Span::Matrix4x4::Invert</text>
</a>
</g>
</g>
<!-- Node1&#45;&gt;Node10 -->
<g id="edge12_Node000001_Node000010" class="edge">
<title>Node1&#45;&gt;Node10</title>
<g id="a_edge12_Node000001_Node000010"><a xlink:title=" ">
<path fill="none" stroke="#63b8ff" d="M779.3,-229.19C758.83,-248.69 722.24,-280.59 685,-298.5 677.04,-302.33 668.24,-305.42 659.5,-307.91"/>
<polygon fill="#63b8ff" stroke="#63b8ff" points="781.83,-231.61 786.57,-222.13 776.95,-226.59 781.83,-231.61"/>
</a>
</g>
</g>
<!-- Node12 -->
<g id="Node000012" class="node">
<title>Node12</title>
<g id="a_Node000012"><a xlink:href="structSpan_1_1Matrix4x4.html#a89c2ef7e5d64bc5015019811d0c88dfa" target="_top" xlink:title="ビュー行列作成 (左手系: Z+が奥)">
<polygon fill="white" stroke="#666666" points="680,-241 531,-241 531,-222 680,-222 680,-241"/>
<text text-anchor="middle" x="605.5" y="-229" font-family="Helvetica,sans-Serif" font-size="10.00">Span::Matrix4x4::LookAtLH</text>
</a>
</g>
</g>
<!-- Node1&#45;&gt;Node12 -->
<g id="edge15_Node000001_Node000012" class="edge">
<title>Node1&#45;&gt;Node12</title>
<g id="a_edge15_Node000001_Node000012"><a xlink:title=" ">
<path fill="none" stroke="#63b8ff" d="M710.67,-221.06C700.44,-222.08 690.07,-223.12 680.03,-224.13"/>
<polygon fill="#63b8ff" stroke="#63b8ff" points="711.23,-224.52 720.83,-220.04 710.53,-217.55 711.23,-224.52"/>
</a>
</g>
</g>
<!-- Node13 -->
<g id="Node000013" class="node">
<title>Node13</title>
<g id="a_Node000013"><a xlink:href="structSpan_1_1Matrix4x4.html#a060b4f7603dd0c3b5b8c37d11b1d93e1" target="_top" xlink:title=" ">
<polygon fill="white" stroke="#666666" points="681.5,-204 529.5,-204 529.5,-185 681.5,-185 681.5,-204"/>
<text text-anchor="middle" x="605.5" y="-192" font-family="Helvetica,sans-Serif" font-size="10.00">Span::Matrix4x4::Matrix4x4</text>
</a>
</g>
</g>
<!-- Node1&#45;&gt;Node13 -->
<g id="edge16_Node000001_Node000013" class="edge">
<title>Node1&#45;&gt;Node13</title>
<g id="a_edge16_Node000001_Node000013"><a xlink:title=" ">
<path fill="none" stroke="#63b8ff" d="M710.76,-204.4C701.03,-203.48 691.16,-202.54 681.58,-201.63"/>
<polygon fill="#63b8ff" stroke="#63b8ff" points="710.55,-207.9 720.83,-205.36 711.21,-200.93 710.55,-207.9"/>
</a>
</g>
</g>
<!-- Node14 -->
<g id="Node000014" class="node">
<title>Node14</title>
<g id="a_Node000014"><a xlink:href="structSpan_1_1Matrix4x4.html#a59c1e5b5dede7d7aa342e8938676e3cb" target="_top" xlink:title="行列同士の掛け算">
<polygon fill="white" stroke="#666666" points="680,-167 531,-167 531,-148 680,-148 680,-167"/>
<text text-anchor="middle" x="605.5" y="-155" font-family="Helvetica,sans-Serif" font-size="10.00">Span::Matrix4x4::operator*</text>
</a>
</g>
</g>
<!-- Node1&#45;&gt;Node14 -->
<g id="edge17_Node000001_Node000014" class="edge">
<title>Node1&#45;&gt;Node14</title>
<g id="a_edge17_Node000001_Node000014"><a xlink:title=" ">
<path fill="none" stroke="#63b8ff" d="M758.66,-199.6C737.23,-192.4 709.74,-183.49 685,-176.5 673.26,-173.18 660.43,-169.92 648.62,-167.07"/>
<polygon fill="#63b8ff" stroke="#63b8ff" points="757.76,-202.99 768.35,-202.89 760,-196.36 757.76,-202.99"/>
</a>
</g>
</g>
<!-- Node15 -->
<g id="Node000015" class="node">
<title>Node15</title>
<g id="a_Node000015"><a xlink:href="structSpan_1_1Matrix4x4.html#afe0101ccded226fc963d79f61111a6ed" target="_top" xlink:title="透視投影行列作成 (左手系)">
<polygon fill="white" stroke="#666666" points="685,-289.5 526,-289.5 526,-259.5 685,-259.5 685,-289.5"/>
<text text-anchor="start" x="534" y="-277.5" font-family="Helvetica,sans-Serif" font-size="10.00">Span::Matrix4x4::Perspective</text>
<text text-anchor="middle" x="605.5" y="-266.5" font-family="Helvetica,sans-Serif" font-size="10.00">FovLH</text>
</a>
</g>
</g>
<!-- Node1&#45;&gt;Node15 -->
<g id="edge18_Node000001_Node000015" class="edge">
<title>Node1&#45;&gt;Node15</title>
<g id="a_edge18_Node000001_Node000015"><a xlink:title=" ">
<path fill="none" stroke="#63b8ff" d="M758.98,-225.52C737.45,-233 709.76,-242.48 685,-250.5 675.92,-253.44 666.21,-256.49 656.83,-259.38"/>
<polygon fill="#63b8ff" stroke="#63b8ff" points="760.42,-228.72 768.71,-222.12 758.12,-222.11 760.42,-228.72"/>
</a>
</g>
</g>
<!-- Node16 -->
<g id="Node000016" class="node">
<title>Node16</title>
<g id="a_Node000016"><a xlink:href="structSpan_1_1Matrix4x4.html#a14547be89d9d77aba82522e5180c80df" target="_top" xlink:title="回転行列">
<polygon fill="white" stroke="#666666" points="677,-130 534,-130 534,-111 677,-111 677,-130"/>
<text text-anchor="middle" x="605.5" y="-118" font-family="Helvetica,sans-Serif" font-size="10.00">Span::Matrix4x4::Rotation</text>
</a>
</g>
</g>
<!-- Node1&#45;&gt;Node16 -->
<g id="edge20_Node000001_Node000016" class="edge">
<title>Node1&#45;&gt;Node16</title>
<g id="a_edge20_Node000001_Node000016"><a xlink:title=" ">
<path fill="none" stroke="#63b8ff" d="M776.54,-196.67C755.26,-180.12 719.59,-154.52 685,-139.5 676.25,-135.7 666.62,-132.58 657.18,-130.05"/>
<polygon fill="#63b8ff" stroke="#63b8ff" points="774.45,-199.49 784.47,-202.94 778.8,-193.99 774.45,-199.49"/>
</a>
</g>
</g>
<!-- Node21 -->
<g id="Node000021" class="node">
<title>Node21</title>
<g id="a_Node000021"><a xlink:href="structSpan_1_1Matrix4x4.html#ad408a695ef393eb21447241f44ff4d50" target="_top" xlink:title="拡大縮小行列">
<polygon fill="white" stroke="#666666" points="669.5,-93 541.5,-93 541.5,-74 669.5,-74 669.5,-93"/>
<text text-anchor="middle" x="605.5" y="-81" font-family="Helvetica,sans-Serif" font-size="10.00">Span::Matrix4x4::Scale</text>
</a>
</g>
</g>
<!-- Node1&#45;&gt;Node21 -->
<g id="edge25_Node000001_Node000021" class="edge">
<title>Node1&#45;&gt;Node21</title>
<g id="a_edge25_Node000001_Node000021"><a xlink:title=" ">
<path fill="none" stroke="#63b8ff" d="M783.23,-194.46C764.58,-169.54 727.48,-125 685,-101.5 678.88,-98.12 672.16,-95.37 665.3,-93.13"/>
<polygon fill="#63b8ff" stroke="#63b8ff" points="780.51,-196.67 789.24,-202.68 786.16,-192.54 780.51,-196.67"/>
</a>
</g>
</g>
<!-- Node22 -->
<g id="Node000022" class="node">
<title>Node22</title>
<g id="a_Node000022"><a xlink:href="structSpan_1_1Matrix4x4.html#ab7d064c16269a9201463b603c35793e6" target="_top" xlink:title="移動行列">
<polygon fill="white" stroke="#666666" points="683,-56 528,-56 528,-37 683,-37 683,-56"/>
<text text-anchor="middle" x="605.5" y="-44" font-family="Helvetica,sans-Serif" font-size="10.00">Span::Matrix4x4::Translation</text>
</a>
</g>
</g>
<!-- Node1&#45;&gt;Node22 -->
<g id="edge26_Node000001_Node000022" class="edge">
<title>Node1&#45;&gt;Node22</title>
<g id="a_edge26_Node000001_Node000022"><a xlink:title=" ">
<path fill="none" stroke="#63b8ff" d="M787.3,-193.53C771.64,-161.58 735.54,-97.35 685,-64.5 679.72,-61.07 673.88,-58.29 667.82,-56.04"/>
<polygon fill="#63b8ff" stroke="#63b8ff" points="784.2,-195.16 791.66,-202.68 790.52,-192.15 784.2,-195.16"/>
</a>
</g>
</g>
<!-- Node23 -->
<g id="Node000023" class="node">
<title>Node23</title>
<g id="a_Node000023"><a xlink:href="structSpan_1_1Matrix4x4.html#aa675a51f0f67753f22127641ca6da7d6" target="_top" xlink:title="転置行列">
<polygon fill="white" stroke="#666666" points="681,-19 530,-19 530,0 681,0 681,-19"/>
<text text-anchor="middle" x="605.5" y="-7" font-family="Helvetica,sans-Serif" font-size="10.00">Span::Matrix4x4::Transpose</text>
</a>
</g>
</g>
<!-- Node1&#45;&gt;Node23 -->
<g id="edge27_Node000001_Node000023" class="edge">
<title>Node1&#45;&gt;Node23</title>
<g id="a_edge27_Node000001_Node000023"><a xlink:title=" ">
<path fill="none" stroke="#63b8ff" d="M790.12,-193.17C777.49,-155.09 744.04,-70.36 685,-27.5 680.36,-24.13 675.19,-21.38 669.79,-19.14"/>
<polygon fill="#63b8ff" stroke="#63b8ff" points="786.88,-194.53 793.26,-203 793.55,-192.41 786.88,-194.53"/>
</a>
</g>
</g>
<!-- Node24 -->
<g id="Node000024" class="node">
<title>Node24</title>
<g id="a_Node000024"><a xlink:href="structSpan_1_1Matrix4x4.html#a26c91de102eab3c6d4d45b5f7bf107fc" target="_top" xlink:title="TRS行列 (Translation * Rotation * Scale) を作成">
<polygon fill="white" stroke="#666666" points="666,-371 545,-371 545,-352 666,-352 666,-371"/>
<text text-anchor="middle" x="605.5" y="-359" font-family="Helvetica,sans-Serif" font-size="10.00">Span::Matrix4x4::TRS</text>
</a>
</g>
</g>
<!-- Node1&#45;&gt;Node24 -->
<g id="edge28_Node000001_Node000024" class="edge">
<title>Node1&#45;&gt;Node24</title>
<g id="a_edge28_Node000001_Node000024"><a xlink:title=" ">
<path fill="none" stroke="#63b8ff" d="M784.48,-230.61C766.45,-257.53 729.04,-307.99 685,-336.5 674.67,-343.18 662.43,-348.2 650.71,-351.91"/>
<polygon fill="#63b8ff" stroke="#63b8ff" points="787.48,-232.43 790.03,-222.15 781.62,-228.59 787.48,-232.43"/>
</a>
</g>
</g>
<!-- Node3 -->
<g id="Node000003" class="node">
<title>Node3</title>
<g id="a_Node000003"><a xlink:href="classSpan_1_1SceneViewPanel.html#ad83a4a55f083c75371d0873322808796" target="_top" xlink:title="選択中のオブジェクトに対してマニピュレータ (矢印など) を描画します。">
<polygon fill="white" stroke="#666666" points="291,-367.5 165,-367.5 165,-337.5 291,-337.5 291,-367.5"/>
<text text-anchor="start" x="173" y="-355.5" font-family="Helvetica,sans-Serif" font-size="10.00">Span::SceneViewPanel</text>
<text text-anchor="middle" x="228" y="-344.5" font-family="Helvetica,sans-Serif" font-size="10.00">::DrawGizmo</text>
</a>
</g>
</g>
<!-- Node2&#45;&gt;Node3 -->
<g id="edge2_Node000002_Node000003" class="edge">
<title>Node2&#45;&gt;Node3</title>
<g id="a_edge2_Node000002_Node000003"><a xlink:title=" ">
<path fill="none" stroke="#63b8ff" d="M332.52,-578.89C331.65,-578.13 330.81,-577.33 330,-576.5 273.36,-518.39 338.6,-465.29 294,-397.5 285.78,-385 272.77,-374.99 260.55,-367.61"/>
<polygon fill="#63b8ff" stroke="#63b8ff" points="330.79,-581.96 340.98,-584.89 334.84,-576.25 330.79,-581.96"/>
</a>
</g>
</g>
<!-- Node4 -->
<g id="Node000004" class="node">
<title>Node4</title>
<g id="a_Node000004"><a xlink:href="classSpan_1_1SceneViewPanel.html#aab2935de58bd68267a680cabd3656c9f" target="_top" xlink:title="毎フレームの描画処理。 画像の表示、ツールバーのオーバーレイ、ギズモの描画を行います。">
<polygon fill="white" stroke="#666666" points="126,-367.5 0,-367.5 0,-337.5 126,-337.5 126,-367.5"/>
<text text-anchor="start" x="8" y="-355.5" font-family="Helvetica,sans-Serif" font-size="10.00">Span::SceneViewPanel</text>
<text text-anchor="middle" x="63" y="-344.5" font-family="Helvetica,sans-Serif" font-size="10.00">::OnImGuiRender</text>
</a>
</g>
</g>
<!-- Node3&#45;&gt;Node4 -->
<g id="edge3_Node000003_Node000004" class="edge">
<title>Node3&#45;&gt;Node4</title>
<g id="a_edge3_Node000003_Node000004"><a xlink:title=" ">
<path fill="none" stroke="#63b8ff" d="M154.69,-352.5C145.18,-352.5 135.5,-352.5 126.19,-352.5"/>
<polygon fill="#63b8ff" stroke="#63b8ff" points="154.91,-356 164.91,-352.5 154.91,-349 154.91,-356"/>
</a>
</g>
</g>
<!-- Node5&#45;&gt;Node2 -->
<g id="edge8_Node000005_Node000002" class="edge">
<title>Node5&#45;&gt;Node2</title>
<g id="a_edge8_Node000005_Node000002"><a xlink:title=" ">
<path fill="none" stroke="#63b8ff" d="M585.13,-516.58C563.33,-533.87 526.2,-560.98 490,-576.5 482.11,-579.88 473.5,-582.67 464.95,-584.96"/>
<polygon fill="#63b8ff" stroke="#63b8ff" points="587.38,-519.26 592.97,-510.26 582.99,-513.81 587.38,-519.26"/>
</a>
</g>
</g>
<!-- Node5&#45;&gt;Node3 -->
<g id="edge9_Node000005_Node000003" class="edge">
<title>Node5&#45;&gt;Node3</title>
<g id="a_edge9_Node000005_Node000003"><a xlink:title=" ">
<path fill="none" stroke="#63b8ff" d="M525.17,-497.68C455.58,-493.8 360.82,-484.71 330,-463.5 302.47,-444.56 316.34,-422.35 294,-397.5 283.36,-385.66 269.01,-375.31 256.51,-367.53"/>
<polygon fill="#63b8ff" stroke="#63b8ff" points="525.07,-501.18 535.25,-498.21 525.45,-494.19 525.07,-501.18"/>
</a>
</g>
</g>
<!-- Node6 -->
<g id="Node000006" class="node">
<title>Node6</title>
<g id="a_Node000006"><a xlink:href="classSpan_1_1TransformSystem.html#aa2cf376ecd2d44d89515eca90aea04e1" target="_top" xlink:title="再帰的に親のワールド行列を取得し、自信のローカル行列と合成します。">
<polygon fill="white" stroke="#666666" points="476,-436.5 344,-436.5 344,-406.5 476,-406.5 476,-436.5"/>
<text text-anchor="start" x="352" y="-424.5" font-family="Helvetica,sans-Serif" font-size="10.00">Span::TransformSystem</text>
<text text-anchor="middle" x="410" y="-413.5" font-family="Helvetica,sans-Serif" font-size="10.00">::ComputeWorldMatrix</text>
</a>
</g>
</g>
<!-- Node5&#45;&gt;Node6 -->
<g id="edge5_Node000005_Node000006" class="edge">
<title>Node5&#45;&gt;Node6</title>
<g id="a_edge5_Node000005_Node000006"><a xlink:title=" ">
<path fill="none" stroke="#63b8ff" d="M571.61,-487.07C537.33,-473.08 483.73,-451.19 448,-436.61"/>
<polygon fill="#63b8ff" stroke="#63b8ff" points="570.58,-490.43 581.16,-490.97 573.22,-483.95 570.58,-490.43"/>
</a>
</g>
</g>
<!-- Node8 -->
<g id="Node000008" class="node">
<title>Node8</title>
<g id="a_Node000008"><a xlink:href="structSpan_1_1Transform.html#a22e91c428e57737b16a5e9281a28a610" target="_top" xlink:title="指定したターゲット座標を向くように回転を設定します。">
<polygon fill="white" stroke="#666666" points="477.5,-530 342.5,-530 342.5,-511 477.5,-511 477.5,-530"/>
<text text-anchor="middle" x="410" y="-518" font-family="Helvetica,sans-Serif" font-size="10.00">Span::Transform::LookAt</text>
</a>
</g>
</g>
<!-- Node5&#45;&gt;Node8 -->
<g id="edge10_Node000005_Node000008" class="edge">
<title>Node5&#45;&gt;Node8</title>
<g id="a_edge10_Node000005_Node000008"><a xlink:title=" ">
<path fill="none" stroke="#63b8ff" d="M525.21,-508.7C509.44,-510.32 493.04,-512.02 477.74,-513.6"/>
<polygon fill="#63b8ff" stroke="#63b8ff" points="525.87,-512.15 535.46,-507.64 525.15,-505.18 525.87,-512.15"/>
</a>
</g>
</g>
<!-- Node9 -->
<g id="Node000009" class="node">
<title>Node9</title>
<g id="a_Node000009"><a xlink:href="classSpan_1_1Renderer.html#ad9b8a2800b6e801528fc3507162ef123" target="_top" xlink:title=" ">
<polygon fill="white" stroke="#666666" points="480.5,-567 339.5,-567 339.5,-548 480.5,-548 480.5,-567"/>
<text text-anchor="middle" x="410" y="-555" font-family="Helvetica,sans-Serif" font-size="10.00">Span::Renderer::Renderer</text>
</a>
</g>
</g>
<!-- Node5&#45;&gt;Node9 -->
<g id="edge11_Node000005_Node000009" class="edge">
<title>Node5&#45;&gt;Node9</title>
<g id="a_edge11_Node000005_Node000009"><a xlink:title=" ">
<path fill="none" stroke="#63b8ff" d="M569.35,-513.53C546.85,-521.61 516.93,-531.87 490,-539.5 479.31,-542.53 467.69,-545.4 456.74,-547.93"/>
<polygon fill="#63b8ff" stroke="#63b8ff" points="570.61,-516.8 578.82,-510.11 568.23,-510.22 570.61,-516.8"/>
</a>
</g>
</g>
<!-- Node6&#45;&gt;Node6 -->
<g id="edge6_Node000006_Node000006" class="edge">
<title>Node6&#45;&gt;Node6</title>
<g id="a_edge6_Node000006_Node000006"><a xlink:title=" ">
<path fill="none" stroke="#63b8ff" d="M441.86,-447.1C437.5,-451.47 426.88,-454.5 410,-454.5 381.56,-454.5 370.9,-445.91 378.01,-436.78"/>
<polygon fill="#63b8ff" stroke="#63b8ff" points="445.36,-446.82 441.99,-436.78 438.36,-446.73 445.36,-446.82"/>
</a>
</g>
</g>
<!-- Node7 -->
<g id="Node000007" class="node">
<title>Node7</title>
<g id="a_Node000007"><a xlink:href="classSpan_1_1TransformSystem.html#abeba491503870f332716f4ca75444ca4" target="_top" xlink:title="毎フレーム呼び出されます。ここにゲームロジックを記述します。">
<polygon fill="white" stroke="#666666" points="294,-436.5 162,-436.5 162,-406.5 294,-406.5 294,-436.5"/>
<text text-anchor="start" x="170" y="-424.5" font-family="Helvetica,sans-Serif" font-size="10.00">Span::TransformSystem</text>
<text text-anchor="middle" x="228" y="-413.5" font-family="Helvetica,sans-Serif" font-size="10.00">::OnUpdate</text>
</a>
</g>
</g>
<!-- Node6&#45;&gt;Node7 -->
<g id="edge7_Node000006_Node000007" class="edge">
<title>Node6&#45;&gt;Node7</title>
<g id="a_edge7_Node000006_Node000007"><a xlink:title=" ">
<path fill="none" stroke="#63b8ff" d="M333.38,-421.5C320.29,-421.5 306.79,-421.5 294.02,-421.5"/>
<polygon fill="#63b8ff" stroke="#63b8ff" points="333.76,-425 343.76,-421.5 333.76,-418 333.76,-425"/>
</a>
</g>
</g>
<!-- Node10&#45;&gt;Node3 -->
<g id="edge13_Node000010_Node000003" class="edge">
<title>Node10&#45;&gt;Node3</title>
<g id="a_edge13_Node000010_Node000003"><a xlink:title=" ">
<path fill="none" stroke="#63b8ff" d="M529.89,-324.45C459.98,-330.97 356.7,-340.6 291.15,-346.71"/>
<polygon fill="#63b8ff" stroke="#63b8ff" points="530.32,-327.93 539.95,-323.52 529.67,-320.96 530.32,-327.93"/>
</a>
</g>
</g>
<!-- Node11 -->
<g id="Node000011" class="node">
<title>Node11</title>
<g id="a_Node000011"><a xlink:href="classSpan_1_1CameraSystem.html#a7f4bf0245dedd7a6245ef352246f7391" target="_top" xlink:title="毎フレーム呼び出されます。ここにゲームロジックを記述します。">
<polygon fill="white" stroke="#666666" points="471,-264.5 349,-264.5 349,-234.5 471,-234.5 471,-264.5"/>
<text text-anchor="start" x="357" y="-252.5" font-family="Helvetica,sans-Serif" font-size="10.00">Span::CameraSystem</text>
<text text-anchor="middle" x="410" y="-241.5" font-family="Helvetica,sans-Serif" font-size="10.00">::OnUpdate</text>
</a>
</g>
</g>
<!-- Node10&#45;&gt;Node11 -->
<g id="edge14_Node000010_Node000011" class="edge">
<title>Node10&#45;&gt;Node11</title>
<g id="a_edge14_Node000010_Node000011"><a xlink:title=" ">
<path fill="none" stroke="#63b8ff" d="M546.1,-305.23C539.24,-303.24 532.41,-301 526,-298.5 508.95,-291.84 506.64,-286.12 490,-278.5 479.11,-273.51 467.09,-268.74 455.78,-264.57"/>
<polygon fill="#63b8ff" stroke="#63b8ff" points="545.56,-308.71 556.13,-307.96 547.4,-301.96 545.56,-308.71"/>
</a>
</g>
</g>
<!-- Node15&#45;&gt;Node11 -->
<g id="edge19_Node000015_Node000011" class="edge">
<title>Node15&#45;&gt;Node11</title>
<g id="a_edge19_Node000015_Node000011"><a xlink:title=" ">
<path fill="none" stroke="#63b8ff" d="M515.48,-263C500.5,-261.06 485.26,-259.09 471.23,-257.28"/>
<polygon fill="#63b8ff" stroke="#63b8ff" points="515.43,-266.52 525.8,-264.33 516.33,-259.58 515.43,-266.52"/>
</a>
</g>
</g>
<!-- Node17 -->
<g id="Node000017" class="node">
<title>Node17</title>
<g id="a_Node000017"><a xlink:href="structSpan_1_1Transform.html#a132f40241af247849e79067db6ad62b4" target="_top" xlink:title="前方ベクトル (Local Forward / Z+) を取得します。">
<polygon fill="white" stroke="#666666" points="489,-87 331,-87 331,-68 489,-68 489,-87"/>
<text text-anchor="middle" x="410" y="-75" font-family="Helvetica,sans-Serif" font-size="10.00">Span::Transform::GetForward</text>
</a>
</g>
</g>
<!-- Node16&#45;&gt;Node17 -->
<g id="edge21_Node000016_Node000017" class="edge">
<title>Node16&#45;&gt;Node17</title>
<g id="a_edge21_Node000016_Node000017"><a xlink:title=" ">
<path fill="none" stroke="#63b8ff" d="M551.45,-108.71C520.75,-101.89 482.61,-93.41 453.82,-87.02"/>
<polygon fill="#63b8ff" stroke="#63b8ff" points="551.03,-112.2 561.56,-110.96 552.55,-105.37 551.03,-112.2"/>
</a>
</g>
</g>
<!-- Node18 -->
<g id="Node000018" class="node">
<title>Node18</title>
<g id="a_Node000018"><a xlink:href="structSpan_1_1Transform.html#a201045237f4cff825ff023848c5967fa" target="_top" xlink:title="右方向ベクトル (Local Right / X+) を取得します。">
<polygon fill="white" stroke="#666666" points="482,-198 338,-198 338,-179 482,-179 482,-198"/>
<text text-anchor="middle" x="410" y="-186" font-family="Helvetica,sans-Serif" font-size="10.00">Span::Transform::GetRight</text>
</a>
</g>
</g>
<!-- Node16&#45;&gt;Node18 -->
<g id="edge22_Node000016_Node000018" class="edge">
<title>Node16&#45;&gt;Node18</title>
<g id="a_edge22_Node000016_Node000018"><a xlink:title=" ">
<path fill="none" stroke="#63b8ff" d="M540.4,-133.29C535.42,-135.1 530.56,-137.16 526,-139.5 507.22,-149.14 508.85,-160.99 490,-170.5 483.22,-173.92 475.78,-176.7 468.27,-178.96"/>
<polygon fill="#63b8ff" stroke="#63b8ff" points="541.67,-136.55 550.08,-130.1 539.48,-129.9 541.67,-136.55"/>
</a>
</g>
</g>
<!-- Node19 -->
<g id="Node000019" class="node">
<title>Node19</title>
<g id="a_Node000019"><a xlink:href="structSpan_1_1Transform.html#a4251fb155ba185e11247bd5b8044a003" target="_top" xlink:title="上方向ベクトル (Local Up / Y+) を取得します。">
<polygon fill="white" stroke="#666666" points="476,-161 344,-161 344,-142 476,-142 476,-161"/>
<text text-anchor="middle" x="410" y="-149" font-family="Helvetica,sans-Serif" font-size="10.00">Span::Transform::GetUp</text>
</a>
</g>
</g>
<!-- Node16&#45;&gt;Node19 -->
<g id="edge23_Node000016_Node000019" class="edge">
<title>Node16&#45;&gt;Node19</title>
<g id="a_edge23_Node000016_Node000019"><a xlink:title=" ">
<path fill="none" stroke="#63b8ff" d="M535.24,-131.6C514.1,-134.98 491.04,-138.68 470.59,-141.95"/>
<polygon fill="#63b8ff" stroke="#63b8ff" points="535.81,-135.05 545.13,-130.01 534.7,-128.14 535.81,-135.05"/>
</a>
</g>
</g>
<!-- Node20 -->
<g id="Node000020" class="node">
<title>Node20</title>
<g id="a_Node000020"><a xlink:href="structSpan_1_1Quaternion.html#acfa147daa060ee83c95998431ea60e92" target="_top" xlink:title="オイラー角 (Pitch, Yaw, Roll) に変換して返します">
<polygon fill="white" stroke="#666666" points="481,-124 339,-124 339,-105 481,-105 481,-124"/>
<text text-anchor="middle" x="410" y="-112" font-family="Helvetica,sans-Serif" font-size="10.00">Span::Quaternion::ToEuler</text>
</a>
</g>
</g>
<!-- Node16&#45;&gt;Node20 -->
<g id="edge24_Node000016_Node000020" class="edge">
<title>Node16&#45;&gt;Node20</title>
<g id="a_edge24_Node000016_Node000020"><a xlink:title=" ">
<path fill="none" stroke="#63b8ff" d="M523.65,-117.99C509.53,-117.56 494.96,-117.1 481.16,-116.68"/>
<polygon fill="#63b8ff" stroke="#63b8ff" points="523.72,-121.5 533.82,-118.31 523.93,-114.5 523.72,-121.5"/>
</a>
</g>
</g>
<!-- Node24&#45;&gt;Node3 -->
<g id="edge30_Node000024_Node000003" class="edge">
<title>Node24&#45;&gt;Node3</title>
<g id="a_edge30_Node000024_Node000003"><a xlink:title=" ">
<path fill="none" stroke="#63b8ff" d="M534.79,-353.02C520.02,-351.55 504.51,-350.26 490,-349.5 418.99,-345.79 401.1,-348.44 330,-349.5 317.46,-349.69 304.04,-350 291.22,-350.36"/>
<polygon fill="#63b8ff" stroke="#63b8ff" points="534.56,-356.52 544.87,-354.06 535.28,-349.55 534.56,-356.52"/>
</a>
</g>
</g>
<!-- Node24&#45;&gt;Node6 -->
<g id="edge29_Node000024_Node000006" class="edge">
<title>Node24&#45;&gt;Node6</title>
<g id="a_edge29_Node000024_Node000006"><a xlink:title=" ">
<path fill="none" stroke="#63b8ff" d="M564.72,-374.11C542.71,-381.06 514.86,-389.82 490,-397.5 480.55,-400.42 470.46,-403.51 460.75,-406.47"/>
<polygon fill="#63b8ff" stroke="#63b8ff" points="565.91,-377.41 574.39,-371.05 563.8,-370.73 565.91,-377.41"/>
</a>
</g>
</g>
<!-- Node25 -->
<g id="Node000025" class="node">
<title>Node25</title>
<g id="a_Node000025"><a xlink:href="structSpan_1_1Transform.html#a8c473eec3b8f9c655db1804b88947e93" target="_top" xlink:title="ローカル変換行列 (T * R * S) を計算して取得します。">
<polygon fill="white" stroke="#666666" points="482,-388.5 338,-388.5 338,-358.5 482,-358.5 482,-388.5"/>
<text text-anchor="start" x="346" y="-376.5" font-family="Helvetica,sans-Serif" font-size="10.00">Span::Transform::GetLocal</text>
<text text-anchor="middle" x="410" y="-365.5" font-family="Helvetica,sans-Serif" font-size="10.00">Matrix</text>
</a>
</g>
</g>
<!-- Node24&#45;&gt;Node25 -->
<g id="edge31_Node000024_Node000025" class="edge">
<title>Node24&#45;&gt;Node25</title>
<g id="a_edge31_Node000024_Node000025"><a xlink:title=" ">
<path fill="none" stroke="#63b8ff" d="M534.48,-365.84C517.52,-366.89 499.36,-368.02 482.34,-369.08"/>
<polygon fill="#63b8ff" stroke="#63b8ff" points="535.1,-369.31 544.86,-365.2 534.67,-362.32 535.1,-369.31"/>
</a>
</g>
</g>
</g>
</svg>

<g id="navigator" transform="translate(0 0)" fill="#404254">
  <rect fill="#f2f5e9" fill-opacity="0.5" stroke="#606060" stroke-width=".5" x="0" y="0" width="60" height="60"/>
  <use id="zoomplus" xlink:href="#zoomPlus" x="17" y="9" onmousedown="handleZoom(evt,'in')"/>
  <use id="zoomminus" xlink:href="#zoomMin" x="42" y="9" onmousedown="handleZoom(evt,'out')"/>
  <use id="reset" xlink:href="#resetDef" x="30" y="36" onmousedown="handleReset()"/>
   <use id="arrowup" xlink:href="#arrowUp" x="0" y="0" onmousedown="handlePan(0,-1)"/>
  <use id="arrowright" xlink:href="#arrowRight" x="0" y="0" onmousedown="handlePan(1,0)"/>
  <use id="arrowdown" xlink:href="#arrowDown" x="0" y="0" onmousedown="handlePan(0,1)"/>
  <use id="arrowleft" xlink:href="#arrowLeft" x="0" y="0" onmousedown="handlePan(-1,0)"/>
</g>
<svg viewBox="0 0 15 15" width="100%" height="30px" preserveAspectRatio="xMaxYMin meet">
 <g id="arrow_out" transform="scale(0.3 0.3)">
  <a xlink:href="structSpan_1_1Matrix4x4_a431bf3af613c1029e6de25d64cfda6b7_icgraph_org.svg" target="_base">
   <rect id="button" ry="5" rx="5" y="6" x="6" height="38" width="38"
        fill="#f2f5e9" fill-opacity="0.5" stroke="#606060" stroke-width="1.0"/>
   <path id="arrow"
     d="M 11.500037,31.436501 C 11.940474,20.09759 22.043105,11.32322 32.158766,21.979434 L 37.068811,17.246167 C 37.068811,17.246167 37.088388,32 37.088388,32 L 22.160133,31.978069 C 22.160133,31.978069 26.997745,27.140456 26.997745,27.140456 C 18.528582,18.264221 13.291696,25.230495 11.500037,31.436501 z"
     style="fill:#404040;"/>
  </a>
 </g>
</svg>

<style type='text/css'>
<![CDATA[
[data-mouse-over-selected='false'] { opacity: 0.7; }
[data-mouse-over-selected='true']  { opacity: 1.0; }
]]>
</style>
<script type="application/ecmascript"><![CDATA[
document.addEventListener('DOMContentLoaded', (event) => {
  highlightEdges();
  highlightAdjacentNodes();
});
]]></script>
</svg>
