<?xml version="1.0" encoding="UTF-8" standalone="no"?>
<!DOCTYPE svg PUBLIC "-//W3C//DTD SVG 1.1//EN"
 "http://www.w3.org/Graphics/SVG/1.1/DTD/svg11.dtd">
<!-- Generated by graphviz version 2.43.0 (0)
 -->
<!-- Title: Span::Camera::Min Pages: 1 -->
<!--zoomable 106 -->

<svg id="main" version="1.1" xmlns="http://www.w3.org/2000/svg" xmlns:xlink="http://www.w3.org/1999/xlink" xml:space="preserve" onload="init(evt)">

<style type="text/css"><![CDATA[
.node, .edge {opacity: 0.7;}
.node.selected, .edge.selected {opacity: 1;}
.edge:hover path { stroke: red; }
.edge:hover polygon { stroke: red; fill: red; }
]]></style>

<defs>
  <circle id="rim" cx="0" cy="0" r="7"/>
  <circle id="rim2" cx="0" cy="0" r="3.5"/>
  <g id="zoomPlus">
    <use xlink:href="#rim" fill="#404040"><set attributeName="fill" to="#808080" begin="zoomplus.mouseover" end="zoomplus.mouseout"/></use>
    <path d="M-4,0h8M0,-4v8" fill="none" stroke="white" stroke-width="1.5" pointer-events="none"/>
  </g>
  <g id="zoomMin">
    <use xlink:href="#rim" fill="#404040"><set attributeName="fill" to="#808080" begin="zoomminus.mouseover" end="zoomminus.mouseout"/></use>
    <path d="M-4,0h8" fill="none" stroke="white" stroke-width="1.5" pointer-events="none"/>
  </g>
  <g id="arrowUp" transform="translate(30 24)">
    <use xlink:href="#rim"/>
    <path pointer-events="none" fill="none" stroke="white" stroke-width="1.5" d="M0,-3.0v7 M-2.5,-0.5L0,-3.0L2.5,-0.5"/>
  </g>
  <g id="arrowRight" transform="rotate(90) translate(36 -43)">
    <use xlink:href="#rim"/>
    <path pointer-events="none" fill="none" stroke="white" stroke-width="1.5" d="M0,-3.0v7 M-2.5,-0.5L0,-3.0L2.5,-0.5"/>
  </g>
  <g id="arrowDown" transform="rotate(180) translate(-30 -48)">
    <use xlink:href="#rim"/>
    <path pointer-events="none" fill="none" stroke="white" stroke-width="1.5" d="M0,-3.0v7 M-2.5,-0.5L0,-3.0L2.5,-0.5"/>
  </g>
  <g id="arrowLeft" transform="rotate(270) translate(-36 17)">
    <use xlink:href="#rim"/>
    <path pointer-events="none" fill="none" stroke="white" stroke-width="1.5" d="M0,-3.0v7 M-2.5,-0.5L0,-3.0L2.5,-0.5"/>
  </g>
  <g id="resetDef">
    <use xlink:href="#rim2" fill="#404040"><set attributeName="fill" to="#808080" begin="reset.mouseover" end="reset.mouseout"/></use>
  </g>
</defs>
<script type="application/ecmascript">
var viewWidth = 573;
var viewHeight = 106;
var sectionId = 'dynsection-3';
</script>
<script type="application/ecmascript" xlink:href="svg.min.js"/>
<svg id="graph" class="graph">
<g id="viewport">
<title>Span::Camera::Min</title>
<!-- Node1 -->
<g id="Node000001" class="node">
<title>Node1</title>
<g id="a_Node000001"><a xlink:title=" ">
<polygon fill="#999999" stroke="#666666" points="109,-31.94 0,-31.94 0,-12.94 109,-12.94 109,-31.94"/>
<text text-anchor="middle" x="54.5" y="-19.94" font-family="Helvetica,sans-Serif" font-size="10.00">Span::Camera::Min</text>
</a>
</g>
</g>
<!-- Node2 -->
<g id="Node000002" class="node">
<title>Node2</title>
<g id="a_Node000002"><a xlink:href="structSpan_1_1Camera.html#a7d7398de74ff9dd2dfa791c508251062" target="_top" xlink:title=" ">
<polygon fill="white" stroke="#666666" points="254,-31.94 145,-31.94 145,-12.94 254,-12.94 254,-31.94"/>
<text text-anchor="middle" x="199.5" y="-19.94" font-family="Helvetica,sans-Serif" font-size="10.00">Span::Camera::Min</text>
</a>
</g>
</g>
<!-- Node1&#45;&gt;Node2 -->
<g id="edge1_Node000001_Node000002" class="edge">
<title>Node1&#45;&gt;Node2</title>
<g id="a_edge1_Node000001_Node000002"><a xlink:title=" ">
<path fill="none" stroke="#63b8ff" d="M109.15,-22.44C117.38,-22.44 125.94,-22.44 134.37,-22.44"/>
<polygon fill="#63b8ff" stroke="#63b8ff" points="134.54,-25.94 144.54,-22.44 134.54,-18.94 134.54,-25.94"/>
</a>
</g>
</g>
<!-- Node3 -->
<g id="Node000003" class="node">
<title>Node3</title>
<g id="a_Node000003"><a xlink:href="structSpan_1_1Camera.html#a3a5c903ea1474553e923ceebe57651f2" target="_top" xlink:title=" ">
<polygon fill="white" stroke="#666666" points="406,-80.44 290,-80.44 290,-50.44 406,-50.44 406,-80.44"/>
<text text-anchor="start" x="298" y="-68.44" font-family="Helvetica,sans-Serif" font-size="10.00">Span::Camera::SPAN</text>
<text text-anchor="middle" x="348" y="-57.44" font-family="Helvetica,sans-Serif" font-size="10.00">_FIELD</text>
</a>
</g>
</g>
<!-- Node1&#45;&gt;Node3 -->
<g id="edge8_Node000001_Node000003" class="edge">
<title>Node1&#45;&gt;Node3</title>
<g id="a_edge8_Node000001_Node000003"><a xlink:title=" ">
<path fill="none" stroke="#63b8ff" d="M73.05,-31.94C90.66,-40.93 118.86,-53.85 145,-59.44 189.18,-68.9 240.04,-70.36 279.67,-69.47"/>
<polygon fill="#63b8ff" stroke="#63b8ff" points="279.85,-72.97 289.75,-69.19 279.65,-65.97 279.85,-72.97"/>
</a>
</g>
</g>
<!-- Node5 -->
<g id="Node000005" class="node">
<title>Node5</title>
<g id="a_Node000005"><a xlink:href="structSpan_1_1Camera.html#a3d41ffd6deefa357ade96ed3627eba4e" target="_top" xlink:title=" ">
<polygon fill="white" stroke="#666666" points="565,-31.94 442,-31.94 442,-12.94 565,-12.94 565,-31.94"/>
<text text-anchor="middle" x="503.5" y="-19.94" font-family="Helvetica,sans-Serif" font-size="10.00">Span::Camera::Tooltip</text>
</a>
</g>
</g>
<!-- Node1&#45;&gt;Node5 -->
<g id="edge9_Node000001_Node000005" class="edge">
<title>Node1&#45;&gt;Node5</title>
<g id="a_edge9_Node000001_Node000005"><a xlink:title=" ">
<path fill="none" stroke="#63b8ff" d="M94.45,-12.86C110.06,-9.48 128.28,-6.1 145,-4.44 244.17,5.43 359.38,-4.13 431.62,-12.65"/>
<polygon fill="#63b8ff" stroke="#63b8ff" points="431.61,-16.17 441.96,-13.89 432.45,-9.22 431.61,-16.17"/>
</a>
</g>
</g>
<!-- Node2&#45;&gt;Node2 -->
<g id="edge2_Node000002_Node000002" class="edge">
<title>Node2&#45;&gt;Node2</title>
<g id="a_edge2_Node000002_Node000002"><a xlink:title=" ">
<path fill="none" stroke="#63b8ff" d="M177.31,-32.02C166.51,-40.67 173.91,-49.94 199.5,-49.94 215.9,-49.94 224.82,-46.14 226.29,-41.13"/>
<polygon fill="#63b8ff" stroke="#63b8ff" points="229.32,-39.38 221.69,-32.02 223.07,-42.53 229.32,-39.38"/>
</a>
</g>
</g>
<!-- Node2&#45;&gt;Node3 -->
<g id="edge3_Node000002_Node000003" class="edge">
<title>Node2&#45;&gt;Node3</title>
<g id="a_edge3_Node000002_Node000003"><a xlink:title=" ">
<path fill="none" stroke="#63b8ff" d="M233.01,-31.98C248.66,-36.58 267.95,-42.24 286.18,-47.59"/>
<polygon fill="#63b8ff" stroke="#63b8ff" points="285.29,-50.98 295.87,-50.43 287.26,-44.26 285.29,-50.98"/>
</a>
</g>
</g>
<!-- Node2&#45;&gt;Node5 -->
<g id="edge7_Node000002_Node000005" class="edge">
<title>Node2&#45;&gt;Node5</title>
<g id="a_edge7_Node000002_Node000005"><a xlink:title=" ">
<path fill="none" stroke="#63b8ff" d="M254.14,-22.44C303.59,-22.44 377.3,-22.44 431.59,-22.44"/>
<polygon fill="#63b8ff" stroke="#63b8ff" points="431.83,-25.94 441.83,-22.44 431.83,-18.94 431.83,-25.94"/>
</a>
</g>
</g>
<!-- Node3&#45;&gt;Node3 -->
<g id="edge5_Node000003_Node000003" class="edge">
<title>Node3&#45;&gt;Node3</title>
<g id="a_edge5_Node000003_Node000003"><a xlink:title=" ">
<path fill="none" stroke="#63b8ff" d="M321.98,-80.72C316.2,-89.85 324.88,-98.44 348,-98.44 361.73,-98.44 370.37,-95.41 373.91,-91.04"/>
<polygon fill="#63b8ff" stroke="#63b8ff" points="377.41,-90.75 374.02,-80.72 370.41,-90.68 377.41,-90.75"/>
</a>
</g>
</g>
<!-- Node4 -->
<g id="Node000004" class="node">
<title>Node4</title>
<g id="a_Node000004"><a xlink:href="namespaceSpan.html#a32a1ef503ab803ad2c45c621d77445a0" target="_top" xlink:title="変数をスライダーで編集できるようにします。">
<polygon fill="white" stroke="#666666" points="542,-74.94 465,-74.94 465,-55.94 542,-55.94 542,-74.94"/>
<text text-anchor="middle" x="503.5" y="-62.94" font-family="Helvetica,sans-Serif" font-size="10.00">Span::Range</text>
</a>
</g>
</g>
<!-- Node3&#45;&gt;Node4 -->
<g id="edge4_Node000003_Node000004" class="edge">
<title>Node3&#45;&gt;Node4</title>
<g id="a_edge4_Node000003_Node000004"><a xlink:title=" ">
<path fill="none" stroke="#63b8ff" d="M406.16,-65.44C422.09,-65.44 439.22,-65.44 454.56,-65.44"/>
<polygon fill="#63b8ff" stroke="#63b8ff" points="454.86,-68.94 464.86,-65.44 454.86,-61.94 454.86,-68.94"/>
</a>
</g>
</g>
<!-- Node3&#45;&gt;Node5 -->
<g id="edge6_Node000003_Node000005" class="edge">
<title>Node3&#45;&gt;Node5</title>
<g id="a_edge6_Node000003_Node000005"><a xlink:title=" ">
<path fill="none" stroke="#63b8ff" d="M402.69,-50.4C420.9,-45.3 441.02,-39.66 458.4,-34.79"/>
<polygon fill="#63b8ff" stroke="#63b8ff" points="459.59,-38.09 468.28,-32.03 457.7,-31.35 459.59,-38.09"/>
</a>
</g>
</g>
</g>
</svg>

<g id="navigator" transform="translate(0 0)" fill="#404254">
  <rect fill="#f2f5e9" fill-opacity="0.5" stroke="#606060" stroke-width=".5" x="0" y="0" width="60" height="60"/>
  <use id="zoomplus" xlink:href="#zoomPlus" x="17" y="9" onmousedown="handleZoom(evt,'in')"/>
  <use id="zoomminus" xlink:href="#zoomMin" x="42" y="9" onmousedown="handleZoom(evt,'out')"/>
  <use id="reset" xlink:href="#resetDef" x="30" y="36" onmousedown="handleReset()"/>
   <use id="arrowup" xlink:href="#arrowUp" x="0" y="0" onmousedown="handlePan(0,-1)"/>
  <use id="arrowright" xlink:href="#arrowRight" x="0" y="0" onmousedown="handlePan(1,0)"/>
  <use id="arrowdown" xlink:href="#arrowDown" x="0" y="0" onmousedown="handlePan(0,1)"/>
  <use id="arrowleft" xlink:href="#arrowLeft" x="0" y="0" onmousedown="handlePan(-1,0)"/>
</g>
<svg viewBox="0 0 15 15" width="100%" height="30px" preserveAspectRatio="xMaxYMin meet">
 <g id="arrow_out" transform="scale(0.3 0.3)">
  <a xlink:href="structSpan_1_1Camera_a014e8eba964d808c5573ec1bc310ff57_cgraph_org.svg" target="_base">
   <rect id="button" ry="5" rx="5" y="6" x="6" height="38" width="38"
        fill="#f2f5e9" fill-opacity="0.5" stroke="#606060" stroke-width="1.0"/>
   <path id="arrow"
     d="M 11.500037,31.436501 C 11.940474,20.09759 22.043105,11.32322 32.158766,21.979434 L 37.068811,17.246167 C 37.068811,17.246167 37.088388,32 37.088388,32 L 22.160133,31.978069 C 22.160133,31.978069 26.997745,27.140456 26.997745,27.140456 C 18.528582,18.264221 13.291696,25.230495 11.500037,31.436501 z"
     style="fill:#404040;"/>
  </a>
 </g>
</svg>

<style type='text/css'>
<![CDATA[
[data-mouse-over-selected='false'] { opacity: 0.7; }
[data-mouse-over-selected='true']  { opacity: 1.0; }
]]>
</style>
<script type="application/ecmascript"><![CDATA[
document.addEventListener('DOMContentLoaded', (event) => {
  highlightEdges();
  highlightAdjacentNodes();
});
]]></script>
</svg>
