<?xml version="1.0" encoding="UTF-8" standalone="no"?>
<!DOCTYPE svg PUBLIC "-//W3C//DTD SVG 1.1//EN"
 "http://www.w3.org/Graphics/SVG/1.1/DTD/svg11.dtd">
<!-- Generated by graphviz version 2.43.0 (0)
 -->
<!-- Title: Span::GlobalLightData Pages: 1 -->
<svg width="280pt" height="906pt"
 viewBox="0.00 0.00 280.00 906.00" xmlns="http://www.w3.org/2000/svg" xmlns:xlink="http://www.w3.org/1999/xlink">
<g id="graph0" class="graph" transform="scale(1 1) rotate(0) translate(4 902)">
<title>Span::GlobalLightData</title>
<!-- Node1 -->
<g id="Node000001" class="node">
<title>Node1</title>
<g id="a_Node000001"><a xlink:title=" ">
<polygon fill="#999999" stroke="transparent" points="131,-94 0,-94 0,0 131,0 131,-94"/>
<text text-anchor="start" x="11.5" y="-82" font-family="Helvetica,sans-Serif" font-size="10.00">Span::GlobalLightData</text>
<text text-anchor="start" x="4.5" y="-67" font-family="Helvetica,sans-Serif" font-size="10.00">+</text>
<text text-anchor="start" x="17.5" y="-67" font-family="Helvetica,sans-Serif" font-size="10.00">Exposure</text>
<text text-anchor="start" x="4.5" y="-52" font-family="Helvetica,sans-Serif" font-size="10.00">+</text>
<text text-anchor="start" x="17.5" y="-52" font-family="Helvetica,sans-Serif" font-size="10.00">AmbientIntensity</text>
<text text-anchor="start" x="4.5" y="-37" font-family="Helvetica,sans-Serif" font-size="10.00">+</text>
<text text-anchor="start" x="17.5" y="-37" font-family="Helvetica,sans-Serif" font-size="10.00">EnvReflectionIntensity</text>
<text text-anchor="start" x="4.5" y="-22" font-family="Helvetica,sans-Serif" font-size="10.00">+</text>
<text text-anchor="start" x="17.5" y="-22" font-family="Helvetica,sans-Serif" font-size="10.00">ActiveLightCount</text>
<text text-anchor="start" x="64" y="-7" font-family="Helvetica,sans-Serif" font-size="10.00"> </text>
<polygon fill="#666666" stroke="#666666" points="0.5,-77 0.5,-77 131.5,-77 131.5,-77 0.5,-77"/>
<polygon fill="#666666" stroke="#666666" points="0.5,-17 0.5,-17 15.5,-17 15.5,-17 0.5,-17"/>
<polygon fill="#666666" stroke="#666666" points="15.5,-17 15.5,-17 131.5,-17 131.5,-17 15.5,-17"/>
<polygon fill="none" stroke="#666666" points="0,0 0,-94 131,-94 131,0 0,0"/>
</a>
</g>
</g>
<!-- Node2 -->
<g id="Node000002" class="node">
<title>Node2</title>
<g id="a_Node000002"><a xlink:href="structSpan_1_1Vector3.html" target="_top" xlink:title="3次元ベクトル (float x, y, z) 位置、方向、スケールなどに使用されます。">
<polygon fill="white" stroke="transparent" points="116.5,-898 14.5,-898 14.5,-369 116.5,-369 116.5,-898"/>
<text text-anchor="start" x="32" y="-885.5" font-family="Helvetica,sans-Serif" font-size="10.00">Span::Vector3</text>
<text text-anchor="start" x="18.5" y="-870.5" font-family="Helvetica,sans-Serif" font-size="10.00">+</text>
<text text-anchor="start" x="31.5" y="-870.5" font-family="Helvetica,sans-Serif" font-size="10.00">x</text>
<text text-anchor="start" x="18.5" y="-855.5" font-family="Helvetica,sans-Serif" font-size="10.00">+</text>
<text text-anchor="start" x="31.5" y="-855.5" font-family="Helvetica,sans-Serif" font-size="10.00">y</text>
<text text-anchor="start" x="18.5" y="-840.5" font-family="Helvetica,sans-Serif" font-size="10.00">+</text>
<text text-anchor="start" x="31.5" y="-840.5" font-family="Helvetica,sans-Serif" font-size="10.00">z</text>
<text text-anchor="start" x="18.5" y="-825.5" font-family="Helvetica,sans-Serif" font-size="10.00">+</text>
<text text-anchor="start" x="31.5" y="-825.5" font-family="Helvetica,sans-Serif" font-size="10.00">Vector3()</text>
<text text-anchor="start" x="18.5" y="-810.5" font-family="Helvetica,sans-Serif" font-size="10.00">+</text>
<text text-anchor="start" x="31.5" y="-810.5" font-family="Helvetica,sans-Serif" font-size="10.00">Vector3()</text>
<text text-anchor="start" x="18.5" y="-795.5" font-family="Helvetica,sans-Serif" font-size="10.00">+</text>
<text text-anchor="start" x="31.5" y="-795.5" font-family="Helvetica,sans-Serif" font-size="10.00">Vector3()</text>
<text text-anchor="start" x="18.5" y="-780.5" font-family="Helvetica,sans-Serif" font-size="10.00">+</text>
<text text-anchor="start" x="31.5" y="-780.5" font-family="Helvetica,sans-Serif" font-size="10.00">ToXM()</text>
<text text-anchor="start" x="18.5" y="-765.5" font-family="Helvetica,sans-Serif" font-size="10.00">+</text>
<text text-anchor="start" x="31.5" y="-765.5" font-family="Helvetica,sans-Serif" font-size="10.00">FromXM()</text>
<text text-anchor="start" x="18.5" y="-750.5" font-family="Helvetica,sans-Serif" font-size="10.00">+</text>
<text text-anchor="start" x="31.5" y="-750.5" font-family="Helvetica,sans-Serif" font-size="10.00">operator+()</text>
<text text-anchor="start" x="18.5" y="-735.5" font-family="Helvetica,sans-Serif" font-size="10.00">+</text>
<text text-anchor="start" x="31.5" y="-735.5" font-family="Helvetica,sans-Serif" font-size="10.00">operator&#45;()</text>
<text text-anchor="start" x="18.5" y="-720.5" font-family="Helvetica,sans-Serif" font-size="10.00">+</text>
<text text-anchor="start" x="31.5" y="-720.5" font-family="Helvetica,sans-Serif" font-size="10.00">operator*()</text>
<text text-anchor="start" x="18.5" y="-705.5" font-family="Helvetica,sans-Serif" font-size="10.00">+</text>
<text text-anchor="start" x="31.5" y="-705.5" font-family="Helvetica,sans-Serif" font-size="10.00">operator/()</text>
<text text-anchor="start" x="18.5" y="-690.5" font-family="Helvetica,sans-Serif" font-size="10.00">+</text>
<text text-anchor="start" x="31.5" y="-690.5" font-family="Helvetica,sans-Serif" font-size="10.00">operator+=()</text>
<text text-anchor="start" x="18.5" y="-675.5" font-family="Helvetica,sans-Serif" font-size="10.00">+</text>
<text text-anchor="start" x="31.5" y="-675.5" font-family="Helvetica,sans-Serif" font-size="10.00">operator&#45;=()</text>
<text text-anchor="start" x="18.5" y="-660.5" font-family="Helvetica,sans-Serif" font-size="10.00">+</text>
<text text-anchor="start" x="31.5" y="-660.5" font-family="Helvetica,sans-Serif" font-size="10.00">operator*=()</text>
<text text-anchor="start" x="18.5" y="-645.5" font-family="Helvetica,sans-Serif" font-size="10.00">+</text>
<text text-anchor="start" x="31.5" y="-645.5" font-family="Helvetica,sans-Serif" font-size="10.00">operator/=()</text>
<text text-anchor="start" x="20" y="-630.5" font-family="Helvetica,sans-Serif" font-size="10.00">*</text>
<text text-anchor="start" x="31.5" y="-630.5" font-family="Helvetica,sans-Serif" font-size="10.00">ToXM()</text>
<text text-anchor="start" x="20" y="-615.5" font-family="Helvetica,sans-Serif" font-size="10.00">*</text>
<text text-anchor="start" x="31.5" y="-615.5" font-family="Helvetica,sans-Serif" font-size="10.00">FromXM()</text>
<text text-anchor="start" x="20" y="-600.5" font-family="Helvetica,sans-Serif" font-size="10.00">*</text>
<text text-anchor="start" x="31.5" y="-600.5" font-family="Helvetica,sans-Serif" font-size="10.00">operator+()</text>
<text text-anchor="start" x="20" y="-585.5" font-family="Helvetica,sans-Serif" font-size="10.00">*</text>
<text text-anchor="start" x="31.5" y="-585.5" font-family="Helvetica,sans-Serif" font-size="10.00">operator&#45;()</text>
<text text-anchor="start" x="20" y="-570.5" font-family="Helvetica,sans-Serif" font-size="10.00">*</text>
<text text-anchor="start" x="31.5" y="-570.5" font-family="Helvetica,sans-Serif" font-size="10.00">operator*()</text>
<text text-anchor="start" x="20" y="-555.5" font-family="Helvetica,sans-Serif" font-size="10.00">*</text>
<text text-anchor="start" x="31.5" y="-555.5" font-family="Helvetica,sans-Serif" font-size="10.00">operator/()</text>
<text text-anchor="start" x="20" y="-540.5" font-family="Helvetica,sans-Serif" font-size="10.00">*</text>
<text text-anchor="start" x="31.5" y="-540.5" font-family="Helvetica,sans-Serif" font-size="10.00">operator+=()</text>
<text text-anchor="start" x="20" y="-525.5" font-family="Helvetica,sans-Serif" font-size="10.00">*</text>
<text text-anchor="start" x="31.5" y="-525.5" font-family="Helvetica,sans-Serif" font-size="10.00">operator&#45;=()</text>
<text text-anchor="start" x="20" y="-510.5" font-family="Helvetica,sans-Serif" font-size="10.00">*</text>
<text text-anchor="start" x="31.5" y="-510.5" font-family="Helvetica,sans-Serif" font-size="10.00">operator*=()</text>
<text text-anchor="start" x="20" y="-495.5" font-family="Helvetica,sans-Serif" font-size="10.00">*</text>
<text text-anchor="start" x="31.5" y="-495.5" font-family="Helvetica,sans-Serif" font-size="10.00">operator/=()</text>
<text text-anchor="start" x="20" y="-480.5" font-family="Helvetica,sans-Serif" font-size="10.00">*</text>
<text text-anchor="start" x="31.5" y="-480.5" font-family="Helvetica,sans-Serif" font-size="10.00">Length()</text>
<text text-anchor="start" x="20" y="-465.5" font-family="Helvetica,sans-Serif" font-size="10.00">*</text>
<text text-anchor="start" x="31.5" y="-465.5" font-family="Helvetica,sans-Serif" font-size="10.00">LengthSquared()</text>
<text text-anchor="start" x="20" y="-450.5" font-family="Helvetica,sans-Serif" font-size="10.00">*</text>
<text text-anchor="start" x="31.5" y="-450.5" font-family="Helvetica,sans-Serif" font-size="10.00">Normalized()</text>
<text text-anchor="start" x="20" y="-435.5" font-family="Helvetica,sans-Serif" font-size="10.00">*</text>
<text text-anchor="start" x="31.5" y="-435.5" font-family="Helvetica,sans-Serif" font-size="10.00">Normalize()</text>
<text text-anchor="start" x="20" y="-420.5" font-family="Helvetica,sans-Serif" font-size="10.00">*</text>
<text text-anchor="start" x="31.5" y="-420.5" font-family="Helvetica,sans-Serif" font-size="10.00">Dot()</text>
<text text-anchor="start" x="20" y="-405.5" font-family="Helvetica,sans-Serif" font-size="10.00">*</text>
<text text-anchor="start" x="31.5" y="-405.5" font-family="Helvetica,sans-Serif" font-size="10.00">Cross()</text>
<text text-anchor="start" x="20" y="-390.5" font-family="Helvetica,sans-Serif" font-size="10.00">*</text>
<text text-anchor="start" x="31.5" y="-390.5" font-family="Helvetica,sans-Serif" font-size="10.00">Normalize()</text>
<text text-anchor="start" x="20" y="-375.5" font-family="Helvetica,sans-Serif" font-size="10.00">*</text>
<text text-anchor="start" x="31.5" y="-375.5" font-family="Helvetica,sans-Serif" font-size="10.00">Lerp()</text>
<polygon fill="#666666" stroke="#666666" points="14.5,-880.5 14.5,-880.5 116.5,-880.5 116.5,-880.5 14.5,-880.5"/>
<polygon fill="#666666" stroke="#666666" points="14.5,-835.5 14.5,-835.5 29.5,-835.5 29.5,-835.5 14.5,-835.5"/>
<polygon fill="#666666" stroke="#666666" points="29.5,-835.5 29.5,-835.5 116.5,-835.5 116.5,-835.5 29.5,-835.5"/>
<polygon fill="none" stroke="#666666" points="14.5,-369 14.5,-898 116.5,-898 116.5,-369 14.5,-369"/>
</a>
</g>
</g>
<!-- Node2&#45;&gt;Node1 -->
<g id="edge1_Node000001_Node000002" class="edge">
<title>Node2&#45;&gt;Node1</title>
<g id="a_edge1_Node000001_Node000002"><a xlink:title=" ">
<path fill="none" stroke="#63b8ff" d="M58.15,-368.84C57.26,-296.89 57.32,-218.93 59.5,-147 59.9,-133.82 60.6,-119.67 61.38,-106.31"/>
<polygon fill="none" stroke="#63b8ff" points="61.38,-106.29 57.75,-100.05 62.11,-94.31 65.74,-100.54 61.38,-106.29"/>
</a>
</g>
<text text-anchor="start" x="63" y="-236.5" font-family="Helvetica,sans-Serif" font-size="10.00" fill="grey">+CameraPosition</text>
<text text-anchor="start" x="63" y="-221.5" font-family="Helvetica,sans-Serif" font-size="10.00" fill="grey">+SkyBottomColor</text>
<text text-anchor="start" x="63" y="-206.5" font-family="Helvetica,sans-Serif" font-size="10.00" fill="grey">+SkyHorizonColor</text>
<text text-anchor="start" x="63" y="-191.5" font-family="Helvetica,sans-Serif" font-size="10.00" fill="grey">+SkyTopColor</text>
</g>
<!-- Node2&#45;&gt;Node2 -->
<g id="edge2_Node000002_Node000002" class="edge">
<title>Node2&#45;&gt;Node2</title>
<g id="a_edge2_Node000002_Node000002"><a xlink:title=" ">
<path fill="none" stroke="#63b8ff" d="M116.65,-688.69C127.05,-682.67 134.5,-664.28 134.5,-633.5 134.5,-611.86 130.82,-596.34 125.02,-586.94"/>
<polygon fill="none" stroke="#63b8ff" points="125.01,-586.93 117.96,-585.41 116.65,-578.31 123.7,-579.84 125.01,-586.93"/>
</a>
</g>
<text text-anchor="start" x="137.5" y="-683.5" font-family="Helvetica,sans-Serif" font-size="10.00" fill="grey">+Back</text>
<text text-anchor="start" x="137.5" y="-668.5" font-family="Helvetica,sans-Serif" font-size="10.00" fill="grey">+Down</text>
<text text-anchor="start" x="137.5" y="-653.5" font-family="Helvetica,sans-Serif" font-size="10.00" fill="grey">+Forward</text>
<text text-anchor="start" x="137.5" y="-638.5" font-family="Helvetica,sans-Serif" font-size="10.00" fill="grey">+Left</text>
<text text-anchor="start" x="137.5" y="-623.5" font-family="Helvetica,sans-Serif" font-size="10.00" fill="grey">+One</text>
<text text-anchor="start" x="137.5" y="-608.5" font-family="Helvetica,sans-Serif" font-size="10.00" fill="grey">+Right</text>
<text text-anchor="start" x="137.5" y="-593.5" font-family="Helvetica,sans-Serif" font-size="10.00" fill="grey">+Up</text>
<text text-anchor="start" x="137.5" y="-578.5" font-family="Helvetica,sans-Serif" font-size="10.00" fill="grey">+Zero</text>
</g>
<!-- Node3 -->
<g id="Node000003" class="node">
<title>Node3</title>
<g id="a_Node000003"><a xlink:href="structSpan_1_1LightDataGPU.html" target="_top" xlink:title=" ">
<polygon fill="white" stroke="transparent" points="272,-286 163,-286 163,-147 272,-147 272,-286"/>
<text text-anchor="start" x="168.5" y="-273.5" font-family="Helvetica,sans-Serif" font-size="10.00">Span::LightDataGPU</text>
<text text-anchor="start" x="169.5" y="-258.5" font-family="Helvetica,sans-Serif" font-size="10.00">+</text>
<text text-anchor="start" x="184.5" y="-258.5" font-family="Helvetica,sans-Serif" font-size="10.00">Intensity</text>
<text text-anchor="start" x="169.5" y="-243.5" font-family="Helvetica,sans-Serif" font-size="10.00">+</text>
<text text-anchor="start" x="184.5" y="-243.5" font-family="Helvetica,sans-Serif" font-size="10.00">Range</text>
<text text-anchor="start" x="169.5" y="-228.5" font-family="Helvetica,sans-Serif" font-size="10.00">+</text>
<text text-anchor="start" x="184.5" y="-228.5" font-family="Helvetica,sans-Serif" font-size="10.00">Type</text>
<text text-anchor="start" x="169.5" y="-213.5" font-family="Helvetica,sans-Serif" font-size="10.00">+</text>
<text text-anchor="start" x="184.5" y="-213.5" font-family="Helvetica,sans-Serif" font-size="10.00">InnerConeAngle</text>
<text text-anchor="start" x="169.5" y="-198.5" font-family="Helvetica,sans-Serif" font-size="10.00">+</text>
<text text-anchor="start" x="184.5" y="-198.5" font-family="Helvetica,sans-Serif" font-size="10.00">OuterConeAngle</text>
<text text-anchor="start" x="169.5" y="-183.5" font-family="Helvetica,sans-Serif" font-size="10.00">+</text>
<text text-anchor="start" x="184.5" y="-183.5" font-family="Helvetica,sans-Serif" font-size="10.00">Padding1</text>
<text text-anchor="start" x="169.5" y="-168.5" font-family="Helvetica,sans-Serif" font-size="10.00">+</text>
<text text-anchor="start" x="184.5" y="-168.5" font-family="Helvetica,sans-Serif" font-size="10.00">Padding2</text>
<text text-anchor="start" x="216" y="-153.5" font-family="Helvetica,sans-Serif" font-size="10.00"> </text>
<polygon fill="#666666" stroke="#666666" points="163.5,-268.5 163.5,-268.5 272.5,-268.5 272.5,-268.5 163.5,-268.5"/>
<polygon fill="#666666" stroke="#666666" points="163.5,-163.5 163.5,-163.5 182.5,-163.5 182.5,-163.5 163.5,-163.5"/>
<polygon fill="#666666" stroke="#666666" points="182.5,-163.5 182.5,-163.5 272.5,-163.5 272.5,-163.5 182.5,-163.5"/>
<polygon fill="none" stroke="#666666" points="163,-147 163,-286 272,-286 272,-147 163,-147"/>
</a>
</g>
</g>
<!-- Node2&#45;&gt;Node3 -->
<g id="edge4_Node000003_Node000002" class="edge">
<title>Node2&#45;&gt;Node3</title>
<g id="a_edge4_Node000003_Node000002"><a xlink:title=" ">
<path fill="none" stroke="#63b8ff" d="M116.54,-493.16C140.37,-428.09 167.89,-352.95 188.17,-297.58"/>
<polygon fill="none" stroke="#63b8ff" points="188.26,-297.34 186.56,-290.33 192.38,-286.07 194.08,-293.08 188.26,-297.34"/>
</a>
</g>
<text text-anchor="start" x="188" y="-339.5" font-family="Helvetica,sans-Serif" font-size="10.00" fill="grey">+Color</text>
<text text-anchor="start" x="188" y="-324.5" font-family="Helvetica,sans-Serif" font-size="10.00" fill="grey">+Direction</text>
<text text-anchor="start" x="188" y="-309.5" font-family="Helvetica,sans-Serif" font-size="10.00" fill="grey">+Position</text>
</g>
<!-- Node3&#45;&gt;Node1 -->
<g id="edge3_Node000001_Node000003" class="edge">
<title>Node3&#45;&gt;Node1</title>
<g id="a_edge3_Node000001_Node000003"><a xlink:title=" ">
<path fill="none" stroke="#63b8ff" d="M162.62,-155.03C147.27,-138.11 130.67,-119.81 115.6,-103.21"/>
<polygon fill="none" stroke="#63b8ff" points="115.48,-103.07 108.48,-101.32 107.41,-94.19 114.41,-95.94 115.48,-103.07"/>
</a>
</g>
<text text-anchor="start" x="139.5" y="-117.5" font-family="Helvetica,sans-Serif" font-size="10.00" fill="grey">+Lights</text>
</g>
</g>
</svg>
