<?xml version="1.0" encoding="UTF-8" standalone="no"?>
<!DOCTYPE svg PUBLIC "-//W3C//DTD SVG 1.1//EN"
 "http://www.w3.org/Graphics/SVG/1.1/DTD/svg11.dtd">
<!-- Generated by graphviz version 2.43.0 (0)
 -->
<!-- Title: Span::GlobalLightData Pages: 1 -->
<!--zoomable 1401 -->

<svg id="main" version="1.1" xmlns="http://www.w3.org/2000/svg" xmlns:xlink="http://www.w3.org/1999/xlink" xml:space="preserve" onload="init(evt)">

<style type="text/css"><![CDATA[
.node, .edge {opacity: 0.7;}
.node.selected, .edge.selected {opacity: 1;}
.edge:hover path { stroke: red; }
.edge:hover polygon { stroke: red; fill: red; }
]]></style>

<defs>
  <circle id="rim" cx="0" cy="0" r="7"/>
  <circle id="rim2" cx="0" cy="0" r="3.5"/>
  <g id="zoomPlus">
    <use xlink:href="#rim" fill="#404040"><set attributeName="fill" to="#808080" begin="zoomplus.mouseover" end="zoomplus.mouseout"/></use>
    <path d="M-4,0h8M0,-4v8" fill="none" stroke="white" stroke-width="1.5" pointer-events="none"/>
  </g>
  <g id="zoomMin">
    <use xlink:href="#rim" fill="#404040"><set attributeName="fill" to="#808080" begin="zoomminus.mouseover" end="zoomminus.mouseout"/></use>
    <path d="M-4,0h8" fill="none" stroke="white" stroke-width="1.5" pointer-events="none"/>
  </g>
  <g id="arrowUp" transform="translate(30 24)">
    <use xlink:href="#rim"/>
    <path pointer-events="none" fill="none" stroke="white" stroke-width="1.5" d="M0,-3.0v7 M-2.5,-0.5L0,-3.0L2.5,-0.5"/>
  </g>
  <g id="arrowRight" transform="rotate(90) translate(36 -43)">
    <use xlink:href="#rim"/>
    <path pointer-events="none" fill="none" stroke="white" stroke-width="1.5" d="M0,-3.0v7 M-2.5,-0.5L0,-3.0L2.5,-0.5"/>
  </g>
  <g id="arrowDown" transform="rotate(180) translate(-30 -48)">
    <use xlink:href="#rim"/>
    <path pointer-events="none" fill="none" stroke="white" stroke-width="1.5" d="M0,-3.0v7 M-2.5,-0.5L0,-3.0L2.5,-0.5"/>
  </g>
  <g id="arrowLeft" transform="rotate(270) translate(-36 17)">
    <use xlink:href="#rim"/>
    <path pointer-events="none" fill="none" stroke="white" stroke-width="1.5" d="M0,-3.0v7 M-2.5,-0.5L0,-3.0L2.5,-0.5"/>
  </g>
  <g id="resetDef">
    <use xlink:href="#rim2" fill="#404040"><set attributeName="fill" to="#808080" begin="reset.mouseover" end="reset.mouseout"/></use>
  </g>
</defs>
<script type="application/ecmascript">
var viewWidth = 469;
var viewHeight = 1401;
var sectionId = 'dynsection-0';
</script>
<script type="application/ecmascript" xlink:href="svg.min.js"/>
<svg id="graph" class="graph">
<g id="viewport">
<title>Span::GlobalLightData</title>
<!-- Node1 -->
<g id="Node000001" class="node">
<title>Node1</title>
<g id="a_Node000001"><a xlink:title=" ">
<polygon fill="#999999" stroke="transparent" points="316.83,-94 185.83,-94 185.83,0 316.83,0 316.83,-94"/>
<text text-anchor="start" x="197.33" y="-82" font-family="Helvetica,sans-Serif" font-size="10.00">Span::GlobalLightData</text>
<text text-anchor="start" x="190.33" y="-67" font-family="Helvetica,sans-Serif" font-size="10.00">+</text>
<text text-anchor="start" x="203.33" y="-67" font-family="Helvetica,sans-Serif" font-size="10.00">Exposure</text>
<text text-anchor="start" x="190.33" y="-52" font-family="Helvetica,sans-Serif" font-size="10.00">+</text>
<text text-anchor="start" x="203.33" y="-52" font-family="Helvetica,sans-Serif" font-size="10.00">AmbientIntensity</text>
<text text-anchor="start" x="190.33" y="-37" font-family="Helvetica,sans-Serif" font-size="10.00">+</text>
<text text-anchor="start" x="203.33" y="-37" font-family="Helvetica,sans-Serif" font-size="10.00">EnvReflectionIntensity</text>
<text text-anchor="start" x="190.33" y="-22" font-family="Helvetica,sans-Serif" font-size="10.00">+</text>
<text text-anchor="start" x="203.33" y="-22" font-family="Helvetica,sans-Serif" font-size="10.00">ActiveLightCount</text>
<text text-anchor="start" x="249.83" y="-7" font-family="Helvetica,sans-Serif" font-size="10.00"> </text>
<polygon fill="#666666" stroke="#666666" points="186.33,-77 186.33,-77 317.33,-77 317.33,-77 186.33,-77"/>
<polygon fill="#666666" stroke="#666666" points="186.33,-17 186.33,-17 201.33,-17 201.33,-17 186.33,-17"/>
<polygon fill="#666666" stroke="#666666" points="201.33,-17 201.33,-17 317.33,-17 317.33,-17 201.33,-17"/>
<polygon fill="none" stroke="#666666" points="185.83,0 185.83,-94 316.83,-94 316.83,0 185.83,0"/>
</a>
</g>
</g>
<!-- Node2 -->
<g id="Node000002" class="node">
<title>Node2</title>
<g id="a_Node000002"><a xlink:href="structSpan_1_1Vector3.html" target="_top" xlink:title="3次元ベクトル (float x, y, z) 位置、方向、スケールなどに使用されます。">
<polygon fill="white" stroke="transparent" points="150.33,-1393 48.33,-1393 48.33,-864 150.33,-864 150.33,-1393"/>
<text text-anchor="start" x="65.83" y="-1380.5" font-family="Helvetica,sans-Serif" font-size="10.00">Span::Vector3</text>
<text text-anchor="start" x="52.33" y="-1365.5" font-family="Helvetica,sans-Serif" font-size="10.00">+</text>
<text text-anchor="start" x="65.33" y="-1365.5" font-family="Helvetica,sans-Serif" font-size="10.00">x</text>
<text text-anchor="start" x="52.33" y="-1350.5" font-family="Helvetica,sans-Serif" font-size="10.00">+</text>
<text text-anchor="start" x="65.33" y="-1350.5" font-family="Helvetica,sans-Serif" font-size="10.00">y</text>
<text text-anchor="start" x="52.33" y="-1335.5" font-family="Helvetica,sans-Serif" font-size="10.00">+</text>
<text text-anchor="start" x="65.33" y="-1335.5" font-family="Helvetica,sans-Serif" font-size="10.00">z</text>
<text text-anchor="start" x="52.33" y="-1320.5" font-family="Helvetica,sans-Serif" font-size="10.00">+</text>
<text text-anchor="start" x="65.33" y="-1320.5" font-family="Helvetica,sans-Serif" font-size="10.00">Vector3()</text>
<text text-anchor="start" x="52.33" y="-1305.5" font-family="Helvetica,sans-Serif" font-size="10.00">+</text>
<text text-anchor="start" x="65.33" y="-1305.5" font-family="Helvetica,sans-Serif" font-size="10.00">Vector3()</text>
<text text-anchor="start" x="52.33" y="-1290.5" font-family="Helvetica,sans-Serif" font-size="10.00">+</text>
<text text-anchor="start" x="65.33" y="-1290.5" font-family="Helvetica,sans-Serif" font-size="10.00">Vector3()</text>
<text text-anchor="start" x="52.33" y="-1275.5" font-family="Helvetica,sans-Serif" font-size="10.00">+</text>
<text text-anchor="start" x="65.33" y="-1275.5" font-family="Helvetica,sans-Serif" font-size="10.00">ToXM()</text>
<text text-anchor="start" x="52.33" y="-1260.5" font-family="Helvetica,sans-Serif" font-size="10.00">+</text>
<text text-anchor="start" x="65.33" y="-1260.5" font-family="Helvetica,sans-Serif" font-size="10.00">FromXM()</text>
<text text-anchor="start" x="52.33" y="-1245.5" font-family="Helvetica,sans-Serif" font-size="10.00">+</text>
<text text-anchor="start" x="65.33" y="-1245.5" font-family="Helvetica,sans-Serif" font-size="10.00">operator+()</text>
<text text-anchor="start" x="52.33" y="-1230.5" font-family="Helvetica,sans-Serif" font-size="10.00">+</text>
<text text-anchor="start" x="65.33" y="-1230.5" font-family="Helvetica,sans-Serif" font-size="10.00">operator&#45;()</text>
<text text-anchor="start" x="52.33" y="-1215.5" font-family="Helvetica,sans-Serif" font-size="10.00">+</text>
<text text-anchor="start" x="65.33" y="-1215.5" font-family="Helvetica,sans-Serif" font-size="10.00">operator*()</text>
<text text-anchor="start" x="52.33" y="-1200.5" font-family="Helvetica,sans-Serif" font-size="10.00">+</text>
<text text-anchor="start" x="65.33" y="-1200.5" font-family="Helvetica,sans-Serif" font-size="10.00">operator/()</text>
<text text-anchor="start" x="52.33" y="-1185.5" font-family="Helvetica,sans-Serif" font-size="10.00">+</text>
<text text-anchor="start" x="65.33" y="-1185.5" font-family="Helvetica,sans-Serif" font-size="10.00">operator+=()</text>
<text text-anchor="start" x="52.33" y="-1170.5" font-family="Helvetica,sans-Serif" font-size="10.00">+</text>
<text text-anchor="start" x="65.33" y="-1170.5" font-family="Helvetica,sans-Serif" font-size="10.00">operator&#45;=()</text>
<text text-anchor="start" x="52.33" y="-1155.5" font-family="Helvetica,sans-Serif" font-size="10.00">+</text>
<text text-anchor="start" x="65.33" y="-1155.5" font-family="Helvetica,sans-Serif" font-size="10.00">operator*=()</text>
<text text-anchor="start" x="52.33" y="-1140.5" font-family="Helvetica,sans-Serif" font-size="10.00">+</text>
<text text-anchor="start" x="65.33" y="-1140.5" font-family="Helvetica,sans-Serif" font-size="10.00">operator/=()</text>
<text text-anchor="start" x="53.83" y="-1125.5" font-family="Helvetica,sans-Serif" font-size="10.00">*</text>
<text text-anchor="start" x="65.33" y="-1125.5" font-family="Helvetica,sans-Serif" font-size="10.00">ToXM()</text>
<text text-anchor="start" x="53.83" y="-1110.5" font-family="Helvetica,sans-Serif" font-size="10.00">*</text>
<text text-anchor="start" x="65.33" y="-1110.5" font-family="Helvetica,sans-Serif" font-size="10.00">FromXM()</text>
<text text-anchor="start" x="53.83" y="-1095.5" font-family="Helvetica,sans-Serif" font-size="10.00">*</text>
<text text-anchor="start" x="65.33" y="-1095.5" font-family="Helvetica,sans-Serif" font-size="10.00">operator+()</text>
<text text-anchor="start" x="53.83" y="-1080.5" font-family="Helvetica,sans-Serif" font-size="10.00">*</text>
<text text-anchor="start" x="65.33" y="-1080.5" font-family="Helvetica,sans-Serif" font-size="10.00">operator&#45;()</text>
<text text-anchor="start" x="53.83" y="-1065.5" font-family="Helvetica,sans-Serif" font-size="10.00">*</text>
<text text-anchor="start" x="65.33" y="-1065.5" font-family="Helvetica,sans-Serif" font-size="10.00">operator*()</text>
<text text-anchor="start" x="53.83" y="-1050.5" font-family="Helvetica,sans-Serif" font-size="10.00">*</text>
<text text-anchor="start" x="65.33" y="-1050.5" font-family="Helvetica,sans-Serif" font-size="10.00">operator/()</text>
<text text-anchor="start" x="53.83" y="-1035.5" font-family="Helvetica,sans-Serif" font-size="10.00">*</text>
<text text-anchor="start" x="65.33" y="-1035.5" font-family="Helvetica,sans-Serif" font-size="10.00">operator+=()</text>
<text text-anchor="start" x="53.83" y="-1020.5" font-family="Helvetica,sans-Serif" font-size="10.00">*</text>
<text text-anchor="start" x="65.33" y="-1020.5" font-family="Helvetica,sans-Serif" font-size="10.00">operator&#45;=()</text>
<text text-anchor="start" x="53.83" y="-1005.5" font-family="Helvetica,sans-Serif" font-size="10.00">*</text>
<text text-anchor="start" x="65.33" y="-1005.5" font-family="Helvetica,sans-Serif" font-size="10.00">operator*=()</text>
<text text-anchor="start" x="53.83" y="-990.5" font-family="Helvetica,sans-Serif" font-size="10.00">*</text>
<text text-anchor="start" x="65.33" y="-990.5" font-family="Helvetica,sans-Serif" font-size="10.00">operator/=()</text>
<text text-anchor="start" x="53.83" y="-975.5" font-family="Helvetica,sans-Serif" font-size="10.00">*</text>
<text text-anchor="start" x="65.33" y="-975.5" font-family="Helvetica,sans-Serif" font-size="10.00">Length()</text>
<text text-anchor="start" x="53.83" y="-960.5" font-family="Helvetica,sans-Serif" font-size="10.00">*</text>
<text text-anchor="start" x="65.33" y="-960.5" font-family="Helvetica,sans-Serif" font-size="10.00">LengthSquared()</text>
<text text-anchor="start" x="53.83" y="-945.5" font-family="Helvetica,sans-Serif" font-size="10.00">*</text>
<text text-anchor="start" x="65.33" y="-945.5" font-family="Helvetica,sans-Serif" font-size="10.00">Normalized()</text>
<text text-anchor="start" x="53.83" y="-930.5" font-family="Helvetica,sans-Serif" font-size="10.00">*</text>
<text text-anchor="start" x="65.33" y="-930.5" font-family="Helvetica,sans-Serif" font-size="10.00">Normalize()</text>
<text text-anchor="start" x="53.83" y="-915.5" font-family="Helvetica,sans-Serif" font-size="10.00">*</text>
<text text-anchor="start" x="65.33" y="-915.5" font-family="Helvetica,sans-Serif" font-size="10.00">Dot()</text>
<text text-anchor="start" x="53.83" y="-900.5" font-family="Helvetica,sans-Serif" font-size="10.00">*</text>
<text text-anchor="start" x="65.33" y="-900.5" font-family="Helvetica,sans-Serif" font-size="10.00">Cross()</text>
<text text-anchor="start" x="53.83" y="-885.5" font-family="Helvetica,sans-Serif" font-size="10.00">*</text>
<text text-anchor="start" x="65.33" y="-885.5" font-family="Helvetica,sans-Serif" font-size="10.00">Normalize()</text>
<text text-anchor="start" x="53.83" y="-870.5" font-family="Helvetica,sans-Serif" font-size="10.00">*</text>
<text text-anchor="start" x="65.33" y="-870.5" font-family="Helvetica,sans-Serif" font-size="10.00">Lerp()</text>
<polygon fill="#666666" stroke="#666666" points="48.33,-1375.5 48.33,-1375.5 150.33,-1375.5 150.33,-1375.5 48.33,-1375.5"/>
<polygon fill="#666666" stroke="#666666" points="48.33,-1330.5 48.33,-1330.5 63.33,-1330.5 63.33,-1330.5 48.33,-1330.5"/>
<polygon fill="#666666" stroke="#666666" points="63.33,-1330.5 63.33,-1330.5 150.33,-1330.5 150.33,-1330.5 63.33,-1330.5"/>
<polygon fill="none" stroke="#666666" points="48.33,-864 48.33,-1393 150.33,-1393 150.33,-864 48.33,-864"/>
</a>
</g>
</g>
<!-- Node2&#45;&gt;Node1 -->
<g id="edge1_Node000001_Node000002" class="edge">
<title>Node2&#45;&gt;Node1</title>
<g id="a_edge1_Node000001_Node000002"><a xlink:title=" ">
<path fill="none" stroke="#63b8ff" d="M48.31,-948.67C-0.04,-741.67 -46.62,-397.2 92.33,-147 110.2,-114.83 143.33,-91.76 174.75,-76.03"/>
<polygon fill="none" stroke="#63b8ff" points="174.94,-75.94 178.63,-69.74 185.77,-70.76 182.08,-76.96 174.94,-75.94"/>
</a>
</g>
<text text-anchor="start" x="95.83" y="-484" font-family="Helvetica,sans-Serif" font-size="10.00" fill="grey">+CameraPosition</text>
<text text-anchor="start" x="95.83" y="-469" font-family="Helvetica,sans-Serif" font-size="10.00" fill="grey">+SkyBottomColor</text>
<text text-anchor="start" x="95.83" y="-454" font-family="Helvetica,sans-Serif" font-size="10.00" fill="grey">+SkyHorizonColor</text>
<text text-anchor="start" x="95.83" y="-439" font-family="Helvetica,sans-Serif" font-size="10.00" fill="grey">+SkyTopColor</text>
</g>
<!-- Node2&#45;&gt;Node2 -->
<g id="edge2_Node000002_Node000002" class="edge">
<title>Node2&#45;&gt;Node2</title>
<g id="a_edge2_Node000002_Node000002"><a xlink:title=" ">
<path fill="none" stroke="#63b8ff" d="M150.49,-1183.69C160.88,-1177.67 168.33,-1159.28 168.33,-1128.5 168.33,-1106.86 164.65,-1091.34 158.85,-1081.94"/>
<polygon fill="none" stroke="#63b8ff" points="158.84,-1081.93 151.79,-1080.41 150.49,-1073.31 157.53,-1074.84 158.84,-1081.93"/>
</a>
</g>
<text text-anchor="start" x="171.33" y="-1178.5" font-family="Helvetica,sans-Serif" font-size="10.00" fill="grey">+Back</text>
<text text-anchor="start" x="171.33" y="-1163.5" font-family="Helvetica,sans-Serif" font-size="10.00" fill="grey">+Down</text>
<text text-anchor="start" x="171.33" y="-1148.5" font-family="Helvetica,sans-Serif" font-size="10.00" fill="grey">+Forward</text>
<text text-anchor="start" x="171.33" y="-1133.5" font-family="Helvetica,sans-Serif" font-size="10.00" fill="grey">+Left</text>
<text text-anchor="start" x="171.33" y="-1118.5" font-family="Helvetica,sans-Serif" font-size="10.00" fill="grey">+One</text>
<text text-anchor="start" x="171.33" y="-1103.5" font-family="Helvetica,sans-Serif" font-size="10.00" fill="grey">+Right</text>
<text text-anchor="start" x="171.33" y="-1088.5" font-family="Helvetica,sans-Serif" font-size="10.00" fill="grey">+Up</text>
<text text-anchor="start" x="171.33" y="-1073.5" font-family="Helvetica,sans-Serif" font-size="10.00" fill="grey">+Zero</text>
</g>
<!-- Node4 -->
<g id="Node000004" class="node">
<title>Node4</title>
<g id="a_Node000004"><a xlink:href="structSpan_1_1LightDataGPU.html" target="_top" xlink:title=" ">
<polygon fill="white" stroke="transparent" points="305.83,-533.5 196.83,-533.5 196.83,-394.5 305.83,-394.5 305.83,-533.5"/>
<text text-anchor="start" x="202.33" y="-521" font-family="Helvetica,sans-Serif" font-size="10.00">Span::LightDataGPU</text>
<text text-anchor="start" x="203.33" y="-506" font-family="Helvetica,sans-Serif" font-size="10.00">+</text>
<text text-anchor="start" x="218.33" y="-506" font-family="Helvetica,sans-Serif" font-size="10.00">Intensity</text>
<text text-anchor="start" x="203.33" y="-491" font-family="Helvetica,sans-Serif" font-size="10.00">+</text>
<text text-anchor="start" x="218.33" y="-491" font-family="Helvetica,sans-Serif" font-size="10.00">Range</text>
<text text-anchor="start" x="203.33" y="-476" font-family="Helvetica,sans-Serif" font-size="10.00">+</text>
<text text-anchor="start" x="218.33" y="-476" font-family="Helvetica,sans-Serif" font-size="10.00">Type</text>
<text text-anchor="start" x="203.33" y="-461" font-family="Helvetica,sans-Serif" font-size="10.00">+</text>
<text text-anchor="start" x="218.33" y="-461" font-family="Helvetica,sans-Serif" font-size="10.00">InnerConeAngle</text>
<text text-anchor="start" x="203.33" y="-446" font-family="Helvetica,sans-Serif" font-size="10.00">+</text>
<text text-anchor="start" x="218.33" y="-446" font-family="Helvetica,sans-Serif" font-size="10.00">OuterConeAngle</text>
<text text-anchor="start" x="203.33" y="-431" font-family="Helvetica,sans-Serif" font-size="10.00">+</text>
<text text-anchor="start" x="218.33" y="-431" font-family="Helvetica,sans-Serif" font-size="10.00">Padding1</text>
<text text-anchor="start" x="203.33" y="-416" font-family="Helvetica,sans-Serif" font-size="10.00">+</text>
<text text-anchor="start" x="218.33" y="-416" font-family="Helvetica,sans-Serif" font-size="10.00">Padding2</text>
<text text-anchor="start" x="249.83" y="-401" font-family="Helvetica,sans-Serif" font-size="10.00"> </text>
<polygon fill="#666666" stroke="#666666" points="197.33,-516 197.33,-516 306.33,-516 306.33,-516 197.33,-516"/>
<polygon fill="#666666" stroke="#666666" points="197.33,-411 197.33,-411 216.33,-411 216.33,-411 197.33,-411"/>
<polygon fill="#666666" stroke="#666666" points="216.33,-411 216.33,-411 306.33,-411 306.33,-411 216.33,-411"/>
<polygon fill="none" stroke="#666666" points="196.83,-394.5 196.83,-533.5 305.83,-533.5 305.83,-394.5 196.83,-394.5"/>
</a>
</g>
</g>
<!-- Node2&#45;&gt;Node4 -->
<g id="edge5_Node000004_Node000002" class="edge">
<title>Node2&#45;&gt;Node4</title>
<g id="a_edge5_Node000004_Node000002"><a xlink:title=" ">
<path fill="none" stroke="#63b8ff" d="M150.38,-917.4C161.1,-872.43 172.22,-825.17 182.33,-781 200.64,-701.04 220.52,-609.43 234.22,-545.51"/>
<polygon fill="none" stroke="#63b8ff" points="234.28,-545.25 231.62,-538.54 236.79,-533.51 239.44,-540.22 234.28,-545.25"/>
</a>
</g>
<text text-anchor="start" x="181.83" y="-834.5" font-family="Helvetica,sans-Serif" font-size="10.00" fill="grey">+Color</text>
<text text-anchor="start" x="181.83" y="-819.5" font-family="Helvetica,sans-Serif" font-size="10.00" fill="grey">+Direction</text>
<text text-anchor="start" x="181.83" y="-804.5" font-family="Helvetica,sans-Serif" font-size="10.00" fill="grey">+Position</text>
</g>
<!-- Node3 -->
<g id="Node000003" class="node">
<title>Node3</title>
<g id="a_Node000003"><a xlink:href="structSpan_1_1Matrix4x4.html" target="_top" xlink:title="4x4 行列 (Row&#45;Major)">
<polygon fill="white" stroke="transparent" points="440.33,-781 324.33,-781 324.33,-147 440.33,-147 440.33,-781"/>
<text text-anchor="start" x="342.33" y="-769" font-family="Helvetica,sans-Serif" font-size="10.00">Span::Matrix4x4</text>
<text text-anchor="start" x="328.33" y="-754" font-family="Helvetica,sans-Serif" font-size="10.00">+</text>
<text text-anchor="start" x="341.33" y="-754" font-family="Helvetica,sans-Serif" font-size="10.00">_11</text>
<text text-anchor="start" x="328.33" y="-739" font-family="Helvetica,sans-Serif" font-size="10.00">+</text>
<text text-anchor="start" x="341.33" y="-739" font-family="Helvetica,sans-Serif" font-size="10.00">_12</text>
<text text-anchor="start" x="328.33" y="-724" font-family="Helvetica,sans-Serif" font-size="10.00">+</text>
<text text-anchor="start" x="341.33" y="-724" font-family="Helvetica,sans-Serif" font-size="10.00">_13</text>
<text text-anchor="start" x="328.33" y="-709" font-family="Helvetica,sans-Serif" font-size="10.00">+</text>
<text text-anchor="start" x="341.33" y="-709" font-family="Helvetica,sans-Serif" font-size="10.00">_14</text>
<text text-anchor="start" x="328.33" y="-694" font-family="Helvetica,sans-Serif" font-size="10.00">+</text>
<text text-anchor="start" x="341.33" y="-694" font-family="Helvetica,sans-Serif" font-size="10.00">_21</text>
<text text-anchor="start" x="328.33" y="-679" font-family="Helvetica,sans-Serif" font-size="10.00">+</text>
<text text-anchor="start" x="341.33" y="-679" font-family="Helvetica,sans-Serif" font-size="10.00">_22</text>
<text text-anchor="start" x="328.33" y="-664" font-family="Helvetica,sans-Serif" font-size="10.00">+</text>
<text text-anchor="start" x="341.33" y="-664" font-family="Helvetica,sans-Serif" font-size="10.00">_23</text>
<text text-anchor="start" x="328.33" y="-649" font-family="Helvetica,sans-Serif" font-size="10.00">+</text>
<text text-anchor="start" x="341.33" y="-649" font-family="Helvetica,sans-Serif" font-size="10.00">_24</text>
<text text-anchor="start" x="328.33" y="-634" font-family="Helvetica,sans-Serif" font-size="10.00">+</text>
<text text-anchor="start" x="341.33" y="-634" font-family="Helvetica,sans-Serif" font-size="10.00">_31</text>
<text text-anchor="start" x="328.33" y="-619" font-family="Helvetica,sans-Serif" font-size="10.00">+</text>
<text text-anchor="start" x="341.33" y="-619" font-family="Helvetica,sans-Serif" font-size="10.00">_32</text>
<text text-anchor="start" x="341.33" y="-604" font-family="Helvetica,sans-Serif" font-size="10.00">ほか 8 件…</text>
<text text-anchor="start" x="328.33" y="-589" font-family="Helvetica,sans-Serif" font-size="10.00">+</text>
<text text-anchor="start" x="341.33" y="-589" font-family="Helvetica,sans-Serif" font-size="10.00">Matrix4x4()</text>
<text text-anchor="start" x="328.33" y="-574" font-family="Helvetica,sans-Serif" font-size="10.00">+</text>
<text text-anchor="start" x="341.33" y="-574" font-family="Helvetica,sans-Serif" font-size="10.00">Matrix4x4()</text>
<text text-anchor="start" x="328.33" y="-559" font-family="Helvetica,sans-Serif" font-size="10.00">+</text>
<text text-anchor="start" x="341.33" y="-559" font-family="Helvetica,sans-Serif" font-size="10.00">ToXM()</text>
<text text-anchor="start" x="328.33" y="-544" font-family="Helvetica,sans-Serif" font-size="10.00">+</text>
<text text-anchor="start" x="341.33" y="-544" font-family="Helvetica,sans-Serif" font-size="10.00">FromXM()</text>
<text text-anchor="start" x="328.33" y="-529" font-family="Helvetica,sans-Serif" font-size="10.00">+</text>
<text text-anchor="start" x="341.33" y="-529" font-family="Helvetica,sans-Serif" font-size="10.00">Invert()</text>
<text text-anchor="start" x="328.33" y="-514" font-family="Helvetica,sans-Serif" font-size="10.00">+</text>
<text text-anchor="start" x="341.33" y="-514" font-family="Helvetica,sans-Serif" font-size="10.00">Transpose()</text>
<text text-anchor="start" x="328.33" y="-499" font-family="Helvetica,sans-Serif" font-size="10.00">+</text>
<text text-anchor="start" x="341.33" y="-499" font-family="Helvetica,sans-Serif" font-size="10.00">Decompose()</text>
<text text-anchor="start" x="328.33" y="-484" font-family="Helvetica,sans-Serif" font-size="10.00">+</text>
<text text-anchor="start" x="341.33" y="-484" font-family="Helvetica,sans-Serif" font-size="10.00">operator*()</text>
<text text-anchor="start" x="328.33" y="-469" font-family="Helvetica,sans-Serif" font-size="10.00">+</text>
<text text-anchor="start" x="341.33" y="-469" font-family="Helvetica,sans-Serif" font-size="10.00">Identity()</text>
<text text-anchor="start" x="328.33" y="-454" font-family="Helvetica,sans-Serif" font-size="10.00">+</text>
<text text-anchor="start" x="341.33" y="-454" font-family="Helvetica,sans-Serif" font-size="10.00">Translation()</text>
<text text-anchor="start" x="328.33" y="-439" font-family="Helvetica,sans-Serif" font-size="10.00">+</text>
<text text-anchor="start" x="341.33" y="-439" font-family="Helvetica,sans-Serif" font-size="10.00">Rotation()</text>
<text text-anchor="start" x="328.33" y="-424" font-family="Helvetica,sans-Serif" font-size="10.00">+</text>
<text text-anchor="start" x="341.33" y="-424" font-family="Helvetica,sans-Serif" font-size="10.00">Scale()</text>
<text text-anchor="start" x="328.33" y="-409" font-family="Helvetica,sans-Serif" font-size="10.00">+</text>
<text text-anchor="start" x="341.33" y="-409" font-family="Helvetica,sans-Serif" font-size="10.00">TRS()</text>
<text text-anchor="start" x="328.33" y="-394" font-family="Helvetica,sans-Serif" font-size="10.00">+</text>
<text text-anchor="start" x="341.33" y="-394" font-family="Helvetica,sans-Serif" font-size="10.00">LookAtLH()</text>
<text text-anchor="start" x="328.33" y="-379" font-family="Helvetica,sans-Serif" font-size="10.00">+</text>
<text text-anchor="start" x="341.33" y="-379" font-family="Helvetica,sans-Serif" font-size="10.00">PerspectiveFovLH()</text>
<text text-anchor="start" x="328.33" y="-364" font-family="Helvetica,sans-Serif" font-size="10.00">+</text>
<text text-anchor="start" x="341.33" y="-364" font-family="Helvetica,sans-Serif" font-size="10.00">OrthographicLH()</text>
<text text-anchor="start" x="329.83" y="-349" font-family="Helvetica,sans-Serif" font-size="10.00">*</text>
<text text-anchor="start" x="341.33" y="-349" font-family="Helvetica,sans-Serif" font-size="10.00">ToXM()</text>
<text text-anchor="start" x="329.83" y="-334" font-family="Helvetica,sans-Serif" font-size="10.00">*</text>
<text text-anchor="start" x="341.33" y="-334" font-family="Helvetica,sans-Serif" font-size="10.00">FromXM()</text>
<text text-anchor="start" x="329.83" y="-319" font-family="Helvetica,sans-Serif" font-size="10.00">*</text>
<text text-anchor="start" x="341.33" y="-319" font-family="Helvetica,sans-Serif" font-size="10.00">Invert()</text>
<text text-anchor="start" x="329.83" y="-304" font-family="Helvetica,sans-Serif" font-size="10.00">*</text>
<text text-anchor="start" x="341.33" y="-304" font-family="Helvetica,sans-Serif" font-size="10.00">Transpose()</text>
<text text-anchor="start" x="329.83" y="-289" font-family="Helvetica,sans-Serif" font-size="10.00">*</text>
<text text-anchor="start" x="341.33" y="-289" font-family="Helvetica,sans-Serif" font-size="10.00">Decompose()</text>
<text text-anchor="start" x="329.83" y="-274" font-family="Helvetica,sans-Serif" font-size="10.00">*</text>
<text text-anchor="start" x="341.33" y="-274" font-family="Helvetica,sans-Serif" font-size="10.00">operator*()</text>
<text text-anchor="start" x="329.83" y="-259" font-family="Helvetica,sans-Serif" font-size="10.00">*</text>
<text text-anchor="start" x="341.33" y="-259" font-family="Helvetica,sans-Serif" font-size="10.00">Identity()</text>
<text text-anchor="start" x="329.83" y="-244" font-family="Helvetica,sans-Serif" font-size="10.00">*</text>
<text text-anchor="start" x="341.33" y="-244" font-family="Helvetica,sans-Serif" font-size="10.00">Translation()</text>
<text text-anchor="start" x="329.83" y="-229" font-family="Helvetica,sans-Serif" font-size="10.00">*</text>
<text text-anchor="start" x="341.33" y="-229" font-family="Helvetica,sans-Serif" font-size="10.00">Rotation()</text>
<text text-anchor="start" x="329.83" y="-214" font-family="Helvetica,sans-Serif" font-size="10.00">*</text>
<text text-anchor="start" x="341.33" y="-214" font-family="Helvetica,sans-Serif" font-size="10.00">Scale()</text>
<text text-anchor="start" x="329.83" y="-199" font-family="Helvetica,sans-Serif" font-size="10.00">*</text>
<text text-anchor="start" x="341.33" y="-199" font-family="Helvetica,sans-Serif" font-size="10.00">TRS()</text>
<text text-anchor="start" x="329.83" y="-184" font-family="Helvetica,sans-Serif" font-size="10.00">*</text>
<text text-anchor="start" x="341.33" y="-184" font-family="Helvetica,sans-Serif" font-size="10.00">LookAtLH()</text>
<text text-anchor="start" x="329.83" y="-169" font-family="Helvetica,sans-Serif" font-size="10.00">*</text>
<text text-anchor="start" x="341.33" y="-169" font-family="Helvetica,sans-Serif" font-size="10.00">PerspectiveFovLH()</text>
<text text-anchor="start" x="329.83" y="-154" font-family="Helvetica,sans-Serif" font-size="10.00">*</text>
<text text-anchor="start" x="341.33" y="-154" font-family="Helvetica,sans-Serif" font-size="10.00">OrthographicLH()</text>
<polygon fill="#666666" stroke="#666666" points="324.33,-764 324.33,-764 440.33,-764 440.33,-764 324.33,-764"/>
<polygon fill="#666666" stroke="#666666" points="324.33,-599 324.33,-599 339.33,-599 339.33,-599 324.33,-599"/>
<polygon fill="#666666" stroke="#666666" points="339.33,-599 339.33,-599 440.33,-599 440.33,-599 339.33,-599"/>
<polygon fill="none" stroke="#666666" points="324.33,-147 324.33,-781 440.33,-781 440.33,-147 324.33,-147"/>
</a>
</g>
</g>
<!-- Node3&#45;&gt;Node1 -->
<g id="edge3_Node000001_Node000003" class="edge">
<title>Node3&#45;&gt;Node1</title>
<g id="a_edge3_Node000001_Node000003"><a xlink:title=" ">
<path fill="none" stroke="#63b8ff" d="M324.24,-175.49C321.38,-165.84 318.41,-156.32 315.33,-147 309.97,-130.76 308.07,-126.7 299.33,-112 297.78,-109.39 296.14,-106.76 294.45,-104.12"/>
<polygon fill="none" stroke="#63b8ff" points="294.36,-103.99 287.69,-101.24 287.66,-94.03 294.33,-96.78 294.36,-103.99"/>
</a>
</g>
<text text-anchor="start" x="311.83" y="-117.5" font-family="Helvetica,sans-Serif" font-size="10.00" fill="grey">+DirectionalLightSpaceMatrix</text>
</g>
<!-- Node4&#45;&gt;Node1 -->
<g id="edge4_Node000001_Node000004" class="edge">
<title>Node4&#45;&gt;Node1</title>
<g id="a_edge4_Node000001_Node000004"><a xlink:title=" ">
<path fill="none" stroke="#63b8ff" d="M251.33,-394.47C251.33,-314 251.33,-181.92 251.33,-106.21"/>
<polygon fill="none" stroke="#63b8ff" points="251.33,-106.1 247.33,-100.1 251.33,-94.1 255.33,-100.1 251.33,-106.1"/>
</a>
</g>
<text text-anchor="start" x="254.33" y="-117.5" font-family="Helvetica,sans-Serif" font-size="10.00" fill="grey">+Lights</text>
</g>
</g>
</svg>

<g id="navigator" transform="translate(0 0)" fill="#404254">
  <rect fill="#f2f5e9" fill-opacity="0.5" stroke="#606060" stroke-width=".5" x="0" y="0" width="60" height="60"/>
  <use id="zoomplus" xlink:href="#zoomPlus" x="17" y="9" onmousedown="handleZoom(evt,'in')"/>
  <use id="zoomminus" xlink:href="#zoomMin" x="42" y="9" onmousedown="handleZoom(evt,'out')"/>
  <use id="reset" xlink:href="#resetDef" x="30" y="36" onmousedown="handleReset()"/>
   <use id="arrowup" xlink:href="#arrowUp" x="0" y="0" onmousedown="handlePan(0,-1)"/>
  <use id="arrowright" xlink:href="#arrowRight" x="0" y="0" onmousedown="handlePan(1,0)"/>
  <use id="arrowdown" xlink:href="#arrowDown" x="0" y="0" onmousedown="handlePan(0,1)"/>
  <use id="arrowleft" xlink:href="#arrowLeft" x="0" y="0" onmousedown="handlePan(-1,0)"/>
</g>
<svg viewBox="0 0 15 15" width="100%" height="30px" preserveAspectRatio="xMaxYMin meet">
 <g id="arrow_out" transform="scale(0.3 0.3)">
  <a xlink:href="structSpan_1_1GlobalLightData__coll__graph_org.svg" target="_base">
   <rect id="button" ry="5" rx="5" y="6" x="6" height="38" width="38"
        fill="#f2f5e9" fill-opacity="0.5" stroke="#606060" stroke-width="1.0"/>
   <path id="arrow"
     d="M 11.500037,31.436501 C 11.940474,20.09759 22.043105,11.32322 32.158766,21.979434 L 37.068811,17.246167 C 37.068811,17.246167 37.088388,32 37.088388,32 L 22.160133,31.978069 C 22.160133,31.978069 26.997745,27.140456 26.997745,27.140456 C 18.528582,18.264221 13.291696,25.230495 11.500037,31.436501 z"
     style="fill:#404040;"/>
  </a>
 </g>
</svg>

<style type='text/css'>
<![CDATA[
[data-mouse-over-selected='false'] { opacity: 0.7; }
[data-mouse-over-selected='true']  { opacity: 1.0; }
]]>
</style>
<script type="application/ecmascript"><![CDATA[
document.addEventListener('DOMContentLoaded', (event) => {
  highlightEdges();
  highlightAdjacentNodes();
});
]]></script>
</svg>
