<?xml version="1.0" encoding="UTF-8" standalone="no"?>
<!DOCTYPE svg PUBLIC "-//W3C//DTD SVG 1.1//EN"
 "http://www.w3.org/Graphics/SVG/1.1/DTD/svg11.dtd">
<!-- Generated by graphviz version 2.43.0 (0)
 -->
<!-- Title: Span::Matrix4x4::Rotation Pages: 1 -->
<svg width="345pt" height="138pt"
 viewBox="0.00 0.00 345.00 138.00" xmlns="http://www.w3.org/2000/svg" xmlns:xlink="http://www.w3.org/1999/xlink">
<g id="graph0" class="graph" transform="scale(1 1) rotate(0) translate(4 134)">
<title>Span::Matrix4x4::Rotation</title>
<!-- Node1 -->
<g id="Node000001" class="node">
<title>Node1</title>
<g id="a_Node000001"><a xlink:title=" ">
<polygon fill="#999999" stroke="#666666" points="337,-74 194,-74 194,-55 337,-55 337,-74"/>
<text text-anchor="middle" x="265.5" y="-62" font-family="Helvetica,sans-Serif" font-size="10.00">Span::Matrix4x4::Rotation</text>
</a>
</g>
</g>
<!-- Node2 -->
<g id="Node000002" class="node">
<title>Node2</title>
<g id="a_Node000002"><a xlink:href="structSpan_1_1Transform.html#a132f40241af247849e79067db6ad62b4" target="_top" xlink:title=" ">
<polygon fill="white" stroke="#666666" points="158,-130 0,-130 0,-111 158,-111 158,-130"/>
<text text-anchor="middle" x="79" y="-118" font-family="Helvetica,sans-Serif" font-size="10.00">Span::Transform::GetForward</text>
</a>
</g>
</g>
<!-- Node1&#45;&gt;Node2 -->
<g id="edge1_Node000001_Node000002" class="edge">
<title>Node1&#45;&gt;Node2</title>
<g id="a_edge1_Node000001_Node000002"><a xlink:title=" ">
<path fill="none" stroke="#63b8ff" d="M230.88,-77.63C210.08,-85.46 182.72,-95.26 158,-102.5 147.6,-105.55 136.29,-108.41 125.6,-110.91"/>
<polygon fill="#63b8ff" stroke="#63b8ff" points="232.13,-80.9 240.23,-74.07 229.64,-74.35 232.13,-80.9"/>
</a>
</g>
</g>
<!-- Node3 -->
<g id="Node000003" class="node">
<title>Node3</title>
<g id="a_Node000003"><a xlink:href="structSpan_1_1Transform.html#a201045237f4cff825ff023848c5967fa" target="_top" xlink:title=" ">
<polygon fill="white" stroke="#666666" points="151,-93 7,-93 7,-74 151,-74 151,-93"/>
<text text-anchor="middle" x="79" y="-81" font-family="Helvetica,sans-Serif" font-size="10.00">Span::Transform::GetRight</text>
</a>
</g>
</g>
<!-- Node1&#45;&gt;Node3 -->
<g id="edge2_Node000001_Node000003" class="edge">
<title>Node1&#45;&gt;Node3</title>
<g id="a_edge2_Node000001_Node000003"><a xlink:title=" ">
<path fill="none" stroke="#63b8ff" d="M183.99,-72.79C173.04,-73.92 161.88,-75.07 151.11,-76.18"/>
<polygon fill="#63b8ff" stroke="#63b8ff" points="184.37,-76.27 193.96,-71.76 183.65,-69.31 184.37,-76.27"/>
</a>
</g>
</g>
<!-- Node4 -->
<g id="Node000004" class="node">
<title>Node4</title>
<g id="a_Node000004"><a xlink:href="structSpan_1_1Transform.html#a4251fb155ba185e11247bd5b8044a003" target="_top" xlink:title=" ">
<polygon fill="white" stroke="#666666" points="145,-56 13,-56 13,-37 145,-37 145,-56"/>
<text text-anchor="middle" x="79" y="-44" font-family="Helvetica,sans-Serif" font-size="10.00">Span::Transform::GetUp</text>
</a>
</g>
</g>
<!-- Node1&#45;&gt;Node4 -->
<g id="edge3_Node000001_Node000004" class="edge">
<title>Node1&#45;&gt;Node4</title>
<g id="a_edge3_Node000001_Node000004"><a xlink:title=" ">
<path fill="none" stroke="#63b8ff" d="M183.68,-56.62C170.76,-55.35 157.54,-54.06 145.05,-52.85"/>
<polygon fill="#63b8ff" stroke="#63b8ff" points="183.67,-60.13 193.96,-57.62 184.35,-53.16 183.67,-60.13"/>
</a>
</g>
</g>
<!-- Node5 -->
<g id="Node000005" class="node">
<title>Node5</title>
<g id="a_Node000005"><a xlink:href="structSpan_1_1Quaternion.html#acfa147daa060ee83c95998431ea60e92" target="_top" xlink:title=" ">
<polygon fill="white" stroke="#666666" points="150,-19 8,-19 8,0 150,0 150,-19"/>
<text text-anchor="middle" x="79" y="-7" font-family="Helvetica,sans-Serif" font-size="10.00">Span::Quaternion::ToEuler</text>
</a>
</g>
</g>
<!-- Node1&#45;&gt;Node5 -->
<g id="edge4_Node000001_Node000005" class="edge">
<title>Node1&#45;&gt;Node5</title>
<g id="a_edge4_Node000001_Node000005"><a xlink:title=" ">
<path fill="none" stroke="#63b8ff" d="M228.85,-51.58C208.28,-44.35 181.84,-35.42 158,-28.5 146.49,-25.16 133.91,-21.92 122.28,-19.09"/>
<polygon fill="#63b8ff" stroke="#63b8ff" points="227.85,-54.94 238.44,-54.98 230.18,-48.34 227.85,-54.94"/>
</a>
</g>
</g>
</g>
</svg>
