<?xml version="1.0" encoding="UTF-8" standalone="no"?>
<!DOCTYPE svg PUBLIC "-//W3C//DTD SVG 1.1//EN"
 "http://www.w3.org/Graphics/SVG/1.1/DTD/svg11.dtd">
<!-- Generated by graphviz version 2.43.0 (0)
 -->
<!-- Title: Span::Matrix4x4::Identity Pages: 1 -->
<svg width="674pt" height="207pt"
 viewBox="0.00 0.00 674.00 206.50" xmlns="http://www.w3.org/2000/svg" xmlns:xlink="http://www.w3.org/1999/xlink">
<g id="graph0" class="graph" transform="scale(1 1) rotate(0) translate(4 202.5)">
<title>Span::Matrix4x4::Identity</title>
<!-- Node1 -->
<g id="Node000001" class="node">
<title>Node1</title>
<g id="a_Node000001"><a xlink:title="単位行列">
<polygon fill="#999999" stroke="#666666" points="666,-94 526,-94 526,-75 666,-75 666,-94"/>
<text text-anchor="middle" x="596" y="-82" font-family="Helvetica,sans-Serif" font-size="10.00">Span::Matrix4x4::Identity</text>
</a>
</g>
</g>
<!-- Node2 -->
<g id="Node000002" class="node">
<title>Node2</title>
<g id="a_Node000002"><a xlink:href="classSpan_1_1TransformSystem.html#aa2cf376ecd2d44d89515eca90aea04e1" target="_top" xlink:title="再帰的に親のワールド行列を取得し、自信のローカル行列と合成します。">
<polygon fill="white" stroke="#666666" points="476,-180.5 344,-180.5 344,-150.5 476,-150.5 476,-180.5"/>
<text text-anchor="start" x="352" y="-168.5" font-family="Helvetica,sans-Serif" font-size="10.00">Span::TransformSystem</text>
<text text-anchor="middle" x="410" y="-157.5" font-family="Helvetica,sans-Serif" font-size="10.00">::ComputeWorldMatrix</text>
</a>
</g>
</g>
<!-- Node1&#45;&gt;Node2 -->
<g id="edge1_Node000001_Node000002" class="edge">
<title>Node1&#45;&gt;Node2</title>
<g id="a_edge1_Node000001_Node000002"><a xlink:title=" ">
<path fill="none" stroke="#63b8ff" d="M571.04,-99.33C550.19,-111.78 518.87,-129.42 490,-141.5 482.33,-144.71 474.08,-147.69 465.91,-150.39"/>
<polygon fill="#63b8ff" stroke="#63b8ff" points="573.08,-102.18 579.83,-94.01 569.46,-96.19 573.08,-102.18"/>
</a>
</g>
</g>
<!-- Node4 -->
<g id="Node000004" class="node">
<title>Node4</title>
<g id="a_Node000004"><a xlink:href="structSpan_1_1Matrix4x4.html#aea4a95a235a15e6ad3366fd07649d253" target="_top" xlink:title="行列を 移動・回転・スケール に分解する">
<polygon fill="white" stroke="#666666" points="490,-132 330,-132 330,-113 490,-113 490,-132"/>
<text text-anchor="middle" x="410" y="-120" font-family="Helvetica,sans-Serif" font-size="10.00">Span::Matrix4x4::Decompose</text>
</a>
</g>
</g>
<!-- Node1&#45;&gt;Node4 -->
<g id="edge4_Node000001_Node000004" class="edge">
<title>Node1&#45;&gt;Node4</title>
<g id="a_edge4_Node000001_Node000004"><a xlink:title=" ">
<path fill="none" stroke="#63b8ff" d="M538.44,-96.18C512.35,-101.57 481.76,-107.89 457.1,-112.98"/>
<polygon fill="#63b8ff" stroke="#63b8ff" points="539.48,-99.54 548.57,-94.09 538.07,-92.68 539.48,-99.54"/>
</a>
</g>
</g>
<!-- Node5 -->
<g id="Node000005" class="node">
<title>Node5</title>
<g id="a_Node000005"><a xlink:href="classSpan_1_1SceneViewPanel.html#ad83a4a55f083c75371d0873322808796" target="_top" xlink:title="選択中のオブジェクトに対してマニピュレータ (矢印など) を描画します。">
<polygon fill="white" stroke="#666666" points="291,-116.5 165,-116.5 165,-86.5 291,-86.5 291,-116.5"/>
<text text-anchor="start" x="173" y="-104.5" font-family="Helvetica,sans-Serif" font-size="10.00">Span::SceneViewPanel</text>
<text text-anchor="middle" x="228" y="-93.5" font-family="Helvetica,sans-Serif" font-size="10.00">::DrawGizmo</text>
</a>
</g>
</g>
<!-- Node1&#45;&gt;Node5 -->
<g id="edge7_Node000001_Node000005" class="edge">
<title>Node1&#45;&gt;Node5</title>
<g id="a_edge7_Node000001_Node000005"><a xlink:title=" ">
<path fill="none" stroke="#63b8ff" d="M515.59,-88.19C448.31,-91.31 353.17,-95.73 291.28,-98.61"/>
<polygon fill="#63b8ff" stroke="#63b8ff" points="515.9,-91.68 525.73,-87.72 515.58,-84.69 515.9,-91.68"/>
</a>
</g>
</g>
<!-- Node7 -->
<g id="Node000007" class="node">
<title>Node7</title>
<g id="a_Node000007"><a xlink:href="structSpan_1_1Transform.html#a22e91c428e57737b16a5e9281a28a610" target="_top" xlink:title="指定したターゲット座標を向くように回転を設定します。">
<polygon fill="white" stroke="#666666" points="477.5,-56 342.5,-56 342.5,-37 477.5,-37 477.5,-56"/>
<text text-anchor="middle" x="410" y="-44" font-family="Helvetica,sans-Serif" font-size="10.00">Span::Transform::LookAt</text>
</a>
</g>
</g>
<!-- Node1&#45;&gt;Node7 -->
<g id="edge8_Node000001_Node000007" class="edge">
<title>Node1&#45;&gt;Node7</title>
<g id="a_edge8_Node000001_Node000007"><a xlink:title=" ">
<path fill="none" stroke="#63b8ff" d="M538.44,-72.82C512.35,-67.43 481.76,-61.11 457.1,-56.02"/>
<polygon fill="#63b8ff" stroke="#63b8ff" points="538.07,-76.32 548.57,-74.91 539.48,-69.46 538.07,-76.32"/>
</a>
</g>
</g>
<!-- Node8 -->
<g id="Node000008" class="node">
<title>Node8</title>
<g id="a_Node000008"><a xlink:href="classSpan_1_1Renderer.html#ad9b8a2800b6e801528fc3507162ef123" target="_top" xlink:title=" ">
<polygon fill="white" stroke="#666666" points="480.5,-19 339.5,-19 339.5,0 480.5,0 480.5,-19"/>
<text text-anchor="middle" x="410" y="-7" font-family="Helvetica,sans-Serif" font-size="10.00">Span::Renderer::Renderer</text>
</a>
</g>
</g>
<!-- Node1&#45;&gt;Node8 -->
<g id="edge9_Node000001_Node000008" class="edge">
<title>Node1&#45;&gt;Node8</title>
<g id="a_edge9_Node000001_Node000008"><a xlink:title=" ">
<path fill="none" stroke="#63b8ff" d="M571.6,-69.37C550.88,-56.58 519.45,-38.61 490,-27.5 481.18,-24.17 471.57,-21.36 462.18,-19.01"/>
<polygon fill="#63b8ff" stroke="#63b8ff" points="569.99,-72.49 580.32,-74.84 573.71,-66.56 569.99,-72.49"/>
</a>
</g>
</g>
<!-- Node2&#45;&gt;Node2 -->
<g id="edge2_Node000002_Node000002" class="edge">
<title>Node2&#45;&gt;Node2</title>
<g id="a_edge2_Node000002_Node000002"><a xlink:title=" ">
<path fill="none" stroke="#63b8ff" d="M441.86,-191.1C437.5,-195.47 426.88,-198.5 410,-198.5 381.56,-198.5 370.9,-189.91 378.01,-180.78"/>
<polygon fill="#63b8ff" stroke="#63b8ff" points="445.36,-190.82 441.99,-180.78 438.36,-190.73 445.36,-190.82"/>
</a>
</g>
</g>
<!-- Node3 -->
<g id="Node000003" class="node">
<title>Node3</title>
<g id="a_Node000003"><a xlink:href="classSpan_1_1TransformSystem.html#abeba491503870f332716f4ca75444ca4" target="_top" xlink:title="毎フレーム呼び出されます。ここにゲームロジックを記述します。">
<polygon fill="white" stroke="#666666" points="294,-180.5 162,-180.5 162,-150.5 294,-150.5 294,-180.5"/>
<text text-anchor="start" x="170" y="-168.5" font-family="Helvetica,sans-Serif" font-size="10.00">Span::TransformSystem</text>
<text text-anchor="middle" x="228" y="-157.5" font-family="Helvetica,sans-Serif" font-size="10.00">::OnUpdate</text>
</a>
</g>
</g>
<!-- Node2&#45;&gt;Node3 -->
<g id="edge3_Node000002_Node000003" class="edge">
<title>Node2&#45;&gt;Node3</title>
<g id="a_edge3_Node000002_Node000003"><a xlink:title=" ">
<path fill="none" stroke="#63b8ff" d="M333.38,-165.5C320.29,-165.5 306.79,-165.5 294.02,-165.5"/>
<polygon fill="#63b8ff" stroke="#63b8ff" points="333.76,-169 343.76,-165.5 333.76,-162 333.76,-169"/>
</a>
</g>
</g>
<!-- Node4&#45;&gt;Node5 -->
<g id="edge5_Node000004_Node000005" class="edge">
<title>Node4&#45;&gt;Node5</title>
<g id="a_edge5_Node000004_Node000005"><a xlink:title=" ">
<path fill="none" stroke="#63b8ff" d="M319.75,-112.09C310.1,-110.96 300.44,-109.83 291.21,-108.76"/>
<polygon fill="#63b8ff" stroke="#63b8ff" points="319.45,-115.58 329.79,-113.26 320.26,-108.62 319.45,-115.58"/>
</a>
</g>
</g>
<!-- Node6 -->
<g id="Node000006" class="node">
<title>Node6</title>
<g id="a_Node000006"><a xlink:href="classSpan_1_1SceneViewPanel.html#aab2935de58bd68267a680cabd3656c9f" target="_top" xlink:title="毎フレームの描画処理。 画像の表示、ツールバーのオーバーレイ、ギズモの描画を行います。">
<polygon fill="white" stroke="#666666" points="126,-116.5 0,-116.5 0,-86.5 126,-86.5 126,-116.5"/>
<text text-anchor="start" x="8" y="-104.5" font-family="Helvetica,sans-Serif" font-size="10.00">Span::SceneViewPanel</text>
<text text-anchor="middle" x="63" y="-93.5" font-family="Helvetica,sans-Serif" font-size="10.00">::OnImGuiRender</text>
</a>
</g>
</g>
<!-- Node5&#45;&gt;Node6 -->
<g id="edge6_Node000005_Node000006" class="edge">
<title>Node5&#45;&gt;Node6</title>
<g id="a_edge6_Node000005_Node000006"><a xlink:title=" ">
<path fill="none" stroke="#63b8ff" d="M154.69,-101.5C145.18,-101.5 135.5,-101.5 126.19,-101.5"/>
<polygon fill="#63b8ff" stroke="#63b8ff" points="154.91,-105 164.91,-101.5 154.91,-98 154.91,-105"/>
</a>
</g>
</g>
</g>
</svg>
