<?xml version="1.0" encoding="UTF-8" standalone="no"?>
<!DOCTYPE svg PUBLIC "-//W3C//DTD SVG 1.1//EN"
 "http://www.w3.org/Graphics/SVG/1.1/DTD/svg11.dtd">
<!-- Generated by graphviz version 2.43.0 (0)
 -->
<!-- Title: Engine/Source/Runtime/Graphics/Resources/Texture.cpp Pages: 1 -->
<!--zoomable 203 -->

<svg id="main" version="1.1" xmlns="http://www.w3.org/2000/svg" xmlns:xlink="http://www.w3.org/1999/xlink" xml:space="preserve" onload="init(evt)">

<style type="text/css"><![CDATA[
.node, .edge {opacity: 0.7;}
.node.selected, .edge.selected {opacity: 1;}
.edge:hover path { stroke: red; }
.edge:hover polygon { stroke: red; fill: red; }
]]></style>

<defs>
  <circle id="rim" cx="0" cy="0" r="7"/>
  <circle id="rim2" cx="0" cy="0" r="3.5"/>
  <g id="zoomPlus">
    <use xlink:href="#rim" fill="#404040"><set attributeName="fill" to="#808080" begin="zoomplus.mouseover" end="zoomplus.mouseout"/></use>
    <path d="M-4,0h8M0,-4v8" fill="none" stroke="white" stroke-width="1.5" pointer-events="none"/>
  </g>
  <g id="zoomMin">
    <use xlink:href="#rim" fill="#404040"><set attributeName="fill" to="#808080" begin="zoomminus.mouseover" end="zoomminus.mouseout"/></use>
    <path d="M-4,0h8" fill="none" stroke="white" stroke-width="1.5" pointer-events="none"/>
  </g>
  <g id="arrowUp" transform="translate(30 24)">
    <use xlink:href="#rim"/>
    <path pointer-events="none" fill="none" stroke="white" stroke-width="1.5" d="M0,-3.0v7 M-2.5,-0.5L0,-3.0L2.5,-0.5"/>
  </g>
  <g id="arrowRight" transform="rotate(90) translate(36 -43)">
    <use xlink:href="#rim"/>
    <path pointer-events="none" fill="none" stroke="white" stroke-width="1.5" d="M0,-3.0v7 M-2.5,-0.5L0,-3.0L2.5,-0.5"/>
  </g>
  <g id="arrowDown" transform="rotate(180) translate(-30 -48)">
    <use xlink:href="#rim"/>
    <path pointer-events="none" fill="none" stroke="white" stroke-width="1.5" d="M0,-3.0v7 M-2.5,-0.5L0,-3.0L2.5,-0.5"/>
  </g>
  <g id="arrowLeft" transform="rotate(270) translate(-36 17)">
    <use xlink:href="#rim"/>
    <path pointer-events="none" fill="none" stroke="white" stroke-width="1.5" d="M0,-3.0v7 M-2.5,-0.5L0,-3.0L2.5,-0.5"/>
  </g>
  <g id="resetDef">
    <use xlink:href="#rim2" fill="#404040"><set attributeName="fill" to="#808080" begin="reset.mouseover" end="reset.mouseout"/></use>
  </g>
</defs>
<script type="application/ecmascript">
var viewWidth = 2389;
var viewHeight = 203;
var sectionId = 'dynsection-0';
</script>
<script type="application/ecmascript" xlink:href="svg.min.js"/>
<svg id="graph" class="graph">
<g id="viewport">
<title>Engine/Source/Runtime/Graphics/Resources/Texture.cpp</title>
<!-- Node1 -->
<g id="Node000001" class="node">
<title>Node1</title>
<g id="a_Node000001"><a xlink:title=" ">
<polygon fill="#999999" stroke="#666666" points="1246.5,-195 1071.5,-195 1071.5,-165 1246.5,-165 1246.5,-195"/>
<text text-anchor="start" x="1079.5" y="-183" font-family="Helvetica,sans-Serif" font-size="10.00">Engine/Source/Runtime</text>
<text text-anchor="middle" x="1159" y="-172" font-family="Helvetica,sans-Serif" font-size="10.00">/Graphics/Resources/Texture.cpp</text>
</a>
</g>
</g>
<!-- Node2 -->
<g id="Node000002" class="node">
<title>Node2</title>
<g id="a_Node000002"><a xlink:href="Texture_8h.html" target="_top" xlink:title="画像読み込みとテクスチャリソース管理。">
<polygon fill="white" stroke="#666666" points="1146,-129 1084,-129 1084,-110 1146,-110 1146,-129"/>
<text text-anchor="middle" x="1115" y="-117" font-family="Helvetica,sans-Serif" font-size="10.00">Texture.h</text>
</a>
</g>
</g>
<!-- Node1&#45;&gt;Node2 -->
<g id="edge1_Node000001_Node000002" class="edge">
<title>Node1&#45;&gt;Node2</title>
<g id="a_edge1_Node000001_Node000002"><a xlink:title=" ">
<path fill="none" stroke="#63b8ff" d="M1148.35,-164.84C1142.16,-156.61 1134.31,-146.18 1127.79,-137.51"/>
<polygon fill="#63b8ff" stroke="#63b8ff" points="1130.4,-135.15 1121.59,-129.27 1124.81,-139.36 1130.4,-135.15"/>
</a>
</g>
</g>
<!-- Node33 -->
<g id="Node000033" class="node">
<title>Node33</title>
<g id="a_Node000033"><a xlink:title=" ">
<polygon fill="#e0e0e0" stroke="#999999" points="1241.5,-129 1164.5,-129 1164.5,-110 1241.5,-110 1241.5,-129"/>
<text text-anchor="middle" x="1203" y="-117" font-family="Helvetica,sans-Serif" font-size="10.00">stb_image.h</text>
</a>
</g>
</g>
<!-- Node1&#45;&gt;Node33 -->
<g id="edge33_Node000001_Node000033" class="edge">
<title>Node1&#45;&gt;Node33</title>
<g id="a_edge33_Node000001_Node000033"><a xlink:title=" ">
<path fill="none" stroke="#63b8ff" d="M1169.65,-164.84C1175.84,-156.61 1183.69,-146.18 1190.21,-137.51"/>
<polygon fill="#63b8ff" stroke="#63b8ff" points="1193.19,-139.36 1196.41,-129.27 1187.6,-135.15 1193.19,-139.36"/>
</a>
</g>
</g>
<!-- Node3 -->
<g id="Node000003" class="node">
<title>Node3</title>
<g id="a_Node000003"><a xlink:href="CoreMinimal_8h.html" target="_top" xlink:title="エンジンの標準インクルードファイル。">
<polygon fill="white" stroke="#666666" points="1171.5,-74 1058.5,-74 1058.5,-55 1171.5,-55 1171.5,-74"/>
<text text-anchor="middle" x="1115" y="-62" font-family="Helvetica,sans-Serif" font-size="10.00">Core/CoreMinimal.h</text>
</a>
</g>
</g>
<!-- Node2&#45;&gt;Node3 -->
<g id="edge2_Node000002_Node000003" class="edge">
<title>Node2&#45;&gt;Node3</title>
<g id="a_edge2_Node000002_Node000003"><a xlink:title=" ">
<path fill="none" stroke="#63b8ff" d="M1115,-109.75C1115,-102.8 1115,-92.85 1115,-84.13"/>
<polygon fill="#63b8ff" stroke="#63b8ff" points="1118.5,-84.09 1115,-74.09 1111.5,-84.09 1118.5,-84.09"/>
</a>
</g>
</g>
<!-- Node4 -->
<g id="Node000004" class="node">
<title>Node4</title>
<g id="a_Node000004"><a xlink:title=" ">
<polygon fill="#e0e0e0" stroke="#999999" points="70,-19 0,-19 0,0 70,0 70,-19"/>
<text text-anchor="middle" x="35" y="-7" font-family="Helvetica,sans-Serif" font-size="10.00">Windows.h</text>
</a>
</g>
</g>
<!-- Node3&#45;&gt;Node4 -->
<g id="edge3_Node000003_Node000004" class="edge">
<title>Node3&#45;&gt;Node4</title>
<g id="a_edge3_Node000003_Node000004"><a xlink:title=" ">
<path fill="none" stroke="#63b8ff" d="M1058.33,-64C903.22,-64.74 458.59,-62.68 80.51,-18.99"/>
<polygon fill="#63b8ff" stroke="#63b8ff" points="80.81,-15.5 70.47,-17.82 80,-22.46 80.81,-15.5"/>
</a>
</g>
</g>
<!-- Node5 -->
<g id="Node000005" class="node">
<title>Node5</title>
<g id="a_Node000005"><a xlink:title=" ">
<polygon fill="#e0e0e0" stroke="#999999" points="129.5,-19 88.5,-19 88.5,0 129.5,0 129.5,-19"/>
<text text-anchor="middle" x="109" y="-7" font-family="Helvetica,sans-Serif" font-size="10.00">wrl.h</text>
</a>
</g>
</g>
<!-- Node3&#45;&gt;Node5 -->
<g id="edge4_Node000003_Node000005" class="edge">
<title>Node3&#45;&gt;Node5</title>
<g id="a_edge4_Node000003_Node000005"><a xlink:title=" ">
<path fill="none" stroke="#63b8ff" d="M1058.26,-62.7C880.64,-59.92 335.94,-49.22 139.69,-18.84"/>
<polygon fill="#63b8ff" stroke="#63b8ff" points="140.2,-15.38 129.77,-17.24 139.08,-22.29 140.2,-15.38"/>
</a>
</g>
</g>
<!-- Node6 -->
<g id="Node000006" class="node">
<title>Node6</title>
<g id="a_Node000006"><a xlink:title=" ">
<polygon fill="#e0e0e0" stroke="#999999" points="218.5,-19 147.5,-19 147.5,0 218.5,0 218.5,-19"/>
<text text-anchor="middle" x="183" y="-7" font-family="Helvetica,sans-Serif" font-size="10.00">wrl/client.h</text>
</a>
</g>
</g>
<!-- Node3&#45;&gt;Node6 -->
<g id="edge5_Node000003_Node000006" class="edge">
<title>Node3&#45;&gt;Node6</title>
<g id="a_edge5_Node000003_Node000006"><a xlink:title=" ">
<path fill="none" stroke="#63b8ff" d="M1058.48,-63.34C919.19,-62.36 548.23,-56.27 229.17,-18.94"/>
<polygon fill="#63b8ff" stroke="#63b8ff" points="229.14,-15.42 218.79,-17.72 228.31,-22.37 229.14,-15.42"/>
</a>
</g>
</g>
<!-- Node7 -->
<g id="Node000007" class="node">
<title>Node7</title>
<g id="a_Node000007"><a xlink:title=" ">
<polygon fill="#e0e0e0" stroke="#999999" points="287,-19 237,-19 237,0 287,0 287,-19"/>
<text text-anchor="middle" x="262" y="-7" font-family="Helvetica,sans-Serif" font-size="10.00">cstdint</text>
</a>
</g>
</g>
<!-- Node3&#45;&gt;Node7 -->
<g id="edge6_Node000003_Node000007" class="edge">
<title>Node3&#45;&gt;Node7</title>
<g id="a_edge6_Node000003_Node000007"><a xlink:title=" ">
<path fill="none" stroke="#63b8ff" d="M1058.02,-64.12C925.78,-64.77 587.77,-61.84 297.45,-18.9"/>
<polygon fill="#63b8ff" stroke="#63b8ff" points="297.55,-15.37 287.14,-17.35 296.51,-22.3 297.55,-15.37"/>
</a>
</g>
</g>
<!-- Node8 -->
<g id="Node000008" class="node">
<title>Node8</title>
<g id="a_Node000008"><a xlink:title=" ">
<polygon fill="#e0e0e0" stroke="#999999" points="365,-19 305,-19 305,0 365,0 365,-19"/>
<text text-anchor="middle" x="335" y="-7" font-family="Helvetica,sans-Serif" font-size="10.00">iostream</text>
</a>
</g>
</g>
<!-- Node3&#45;&gt;Node8 -->
<g id="edge7_Node000003_Node000008" class="edge">
<title>Node3&#45;&gt;Node8</title>
<g id="a_edge7_Node000003_Node000008"><a xlink:title=" ">
<path fill="none" stroke="#63b8ff" d="M1058.47,-63.08C935.7,-61.52 635.48,-54.24 375.17,-18.93"/>
<polygon fill="#63b8ff" stroke="#63b8ff" points="375.53,-15.45 365.15,-17.55 374.58,-22.38 375.53,-15.45"/>
</a>
</g>
</g>
<!-- Node9 -->
<g id="Node000009" class="node">
<title>Node9</title>
<g id="a_Node000009"><a xlink:title=" ">
<polygon fill="#e0e0e0" stroke="#999999" points="436.5,-19 383.5,-19 383.5,0 436.5,0 436.5,-19"/>
<text text-anchor="middle" x="410" y="-7" font-family="Helvetica,sans-Serif" font-size="10.00">string.h</text>
</a>
</g>
</g>
<!-- Node3&#45;&gt;Node9 -->
<g id="edge8_Node000003_Node000009" class="edge">
<title>Node3&#45;&gt;Node9</title>
<g id="a_edge8_Node000003_Node000009"><a xlink:title=" ">
<path fill="none" stroke="#63b8ff" d="M1058.27,-62.88C944.16,-60.96 678.7,-53.04 446.62,-18.8"/>
<polygon fill="#63b8ff" stroke="#63b8ff" points="447.05,-15.33 436.64,-17.31 446.01,-22.25 447.05,-15.33"/>
</a>
</g>
</g>
<!-- Node10 -->
<g id="Node000010" class="node">
<title>Node10</title>
<g id="a_Node000010"><a xlink:title=" ">
<polygon fill="#e0e0e0" stroke="#999999" points="499,-19 455,-19 455,0 499,0 499,-19"/>
<text text-anchor="middle" x="477" y="-7" font-family="Helvetica,sans-Serif" font-size="10.00">string</text>
</a>
</g>
</g>
<!-- Node3&#45;&gt;Node10 -->
<g id="edge9_Node000003_Node000010" class="edge">
<title>Node3&#45;&gt;Node10</title>
<g id="a_edge9_Node000003_Node000010"><a xlink:title=" ">
<path fill="none" stroke="#63b8ff" d="M1058.49,-63.01C952.4,-61.3 716.23,-53.74 509.37,-18.89"/>
<polygon fill="#63b8ff" stroke="#63b8ff" points="509.68,-15.39 499.23,-17.15 508.5,-22.29 509.68,-15.39"/>
</a>
</g>
</g>
<!-- Node11 -->
<g id="Node000011" class="node">
<title>Node11</title>
<g id="a_Node000011"><a xlink:title=" ">
<polygon fill="#e0e0e0" stroke="#999999" points="564.5,-19 517.5,-19 517.5,0 564.5,0 564.5,-19"/>
<text text-anchor="middle" x="541" y="-7" font-family="Helvetica,sans-Serif" font-size="10.00">vector</text>
</a>
</g>
</g>
<!-- Node3&#45;&gt;Node11 -->
<g id="edge10_Node000003_Node000011" class="edge">
<title>Node3&#45;&gt;Node11</title>
<g id="a_edge10_Node000003_Node000011"><a xlink:title=" ">
<path fill="none" stroke="#63b8ff" d="M1058.41,-62.16C961.14,-59.13 755.97,-49.6 574.65,-19"/>
<polygon fill="#63b8ff" stroke="#63b8ff" points="575.11,-15.53 564.66,-17.29 573.93,-22.43 575.11,-15.53"/>
</a>
</g>
</g>
<!-- Node12 -->
<g id="Node000012" class="node">
<title>Node12</title>
<g id="a_Node000012"><a xlink:title=" ">
<polygon fill="#e0e0e0" stroke="#999999" points="629.5,-19 582.5,-19 582.5,0 629.5,0 629.5,-19"/>
<text text-anchor="middle" x="606" y="-7" font-family="Helvetica,sans-Serif" font-size="10.00">deque</text>
</a>
</g>
</g>
<!-- Node3&#45;&gt;Node12 -->
<g id="edge11_Node000003_Node000012" class="edge">
<title>Node3&#45;&gt;Node12</title>
<g id="a_edge11_Node000003_Node000012"><a xlink:title=" ">
<path fill="none" stroke="#63b8ff" d="M1058.42,-61.27C970.6,-57.15 796.16,-46.29 639.93,-19.07"/>
<polygon fill="#63b8ff" stroke="#63b8ff" points="640.12,-15.55 629.67,-17.26 638.9,-22.45 640.12,-15.55"/>
</a>
</g>
</g>
<!-- Node13 -->
<g id="Node000013" class="node">
<title>Node13</title>
<g id="a_Node000013"><a xlink:title=" ">
<polygon fill="#e0e0e0" stroke="#999999" points="740.5,-19 647.5,-19 647.5,0 740.5,0 740.5,-19"/>
<text text-anchor="middle" x="694" y="-7" font-family="Helvetica,sans-Serif" font-size="10.00">unordered_map</text>
</a>
</g>
</g>
<!-- Node3&#45;&gt;Node13 -->
<g id="edge12_Node000003_Node000013" class="edge">
<title>Node3&#45;&gt;Node13</title>
<g id="a_edge12_Node000003_Node000013"><a xlink:title=" ">
<path fill="none" stroke="#63b8ff" d="M1058.35,-57.11C988.56,-49.13 866.13,-34.75 750.8,-19.07"/>
<polygon fill="#63b8ff" stroke="#63b8ff" points="751.12,-15.58 740.74,-17.7 750.17,-22.52 751.12,-15.58"/>
</a>
</g>
</g>
<!-- Node14 -->
<g id="Node000014" class="node">
<title>Node14</title>
<g id="a_Node000014"><a xlink:title=" ">
<polygon fill="#e0e0e0" stroke="#999999" points="797,-19 759,-19 759,0 797,0 797,-19"/>
<text text-anchor="middle" x="778" y="-7" font-family="Helvetica,sans-Serif" font-size="10.00">map</text>
</a>
</g>
</g>
<!-- Node3&#45;&gt;Node14 -->
<g id="edge13_Node000003_Node000014" class="edge">
<title>Node3&#45;&gt;Node14</title>
<g id="a_edge13_Node000003_Node000014"><a xlink:title=" ">
<path fill="none" stroke="#63b8ff" d="M1058.43,-57.96C998.24,-51.48 900.15,-39.26 807.04,-18.93"/>
<polygon fill="#63b8ff" stroke="#63b8ff" points="807.7,-15.49 797.18,-16.74 806.18,-22.32 807.7,-15.49"/>
</a>
</g>
</g>
<!-- Node15 -->
<g id="Node000015" class="node">
<title>Node15</title>
<g id="a_Node000015"><a xlink:title=" ">
<polygon fill="#e0e0e0" stroke="#999999" points="873,-19 815,-19 815,0 873,0 873,-19"/>
<text text-anchor="middle" x="844" y="-7" font-family="Helvetica,sans-Serif" font-size="10.00">memory</text>
</a>
</g>
</g>
<!-- Node3&#45;&gt;Node15 -->
<g id="edge14_Node000003_Node000015" class="edge">
<title>Node3&#45;&gt;Node15</title>
<g id="a_edge14_Node000003_Node000015"><a xlink:title=" ">
<path fill="none" stroke="#63b8ff" d="M1068.05,-54.98C1023.05,-46.71 952.97,-33.58 882.91,-19.14"/>
<polygon fill="#63b8ff" stroke="#63b8ff" points="883.53,-15.69 873.03,-17.09 882.11,-22.55 883.53,-15.69"/>
</a>
</g>
</g>
<!-- Node16 -->
<g id="Node000016" class="node">
<title>Node16</title>
<g id="a_Node000016"><a xlink:title=" ">
<polygon fill="#e0e0e0" stroke="#999999" points="955,-19 891,-19 891,0 955,0 955,-19"/>
<text text-anchor="middle" x="923" y="-7" font-family="Helvetica,sans-Serif" font-size="10.00">algorithm</text>
</a>
</g>
</g>
<!-- Node3&#45;&gt;Node16 -->
<g id="edge15_Node000003_Node000016" class="edge">
<title>Node3&#45;&gt;Node16</title>
<g id="a_edge15_Node000003_Node000016"><a xlink:title=" ">
<path fill="none" stroke="#63b8ff" d="M1084.15,-54.98C1051.5,-45.97 999.8,-31.7 963.8,-21.76"/>
<polygon fill="#63b8ff" stroke="#63b8ff" points="964.66,-18.37 954.09,-19.08 962.8,-25.12 964.66,-18.37"/>
</a>
</g>
</g>
<!-- Node17 -->
<g id="Node000017" class="node">
<title>Node17</title>
<g id="a_Node000017"><a xlink:title=" ">
<polygon fill="#e0e0e0" stroke="#999999" points="1038.5,-19 973.5,-19 973.5,0 1038.5,0 1038.5,-19"/>
<text text-anchor="middle" x="1006" y="-7" font-family="Helvetica,sans-Serif" font-size="10.00">functional</text>
</a>
</g>
</g>
<!-- Node3&#45;&gt;Node17 -->
<g id="edge16_Node000003_Node000017" class="edge">
<title>Node3&#45;&gt;Node17</title>
<g id="a_edge16_Node000003_Node000017"><a xlink:title=" ">
<path fill="none" stroke="#63b8ff" d="M1097.49,-54.98C1080.03,-46.5 1052.99,-33.35 1032.83,-23.54"/>
<polygon fill="#63b8ff" stroke="#63b8ff" points="1034.36,-20.4 1023.83,-19.17 1031.29,-26.69 1034.36,-20.4"/>
</a>
</g>
</g>
<!-- Node18 -->
<g id="Node000018" class="node">
<title>Node18</title>
<g id="a_Node000018"><a xlink:title=" ">
<polygon fill="#e0e0e0" stroke="#999999" points="1107,-19 1057,-19 1057,0 1107,0 1107,-19"/>
<text text-anchor="middle" x="1082" y="-7" font-family="Helvetica,sans-Serif" font-size="10.00">chrono</text>
</a>
</g>
</g>
<!-- Node3&#45;&gt;Node18 -->
<g id="edge17_Node000003_Node000018" class="edge">
<title>Node3&#45;&gt;Node18</title>
<g id="a_edge17_Node000003_Node000018"><a xlink:title=" ">
<path fill="none" stroke="#63b8ff" d="M1109.55,-54.75C1104.99,-47.42 1098.33,-36.73 1092.71,-27.7"/>
<polygon fill="#63b8ff" stroke="#63b8ff" points="1095.6,-25.73 1087.35,-19.09 1089.66,-29.43 1095.6,-25.73"/>
</a>
</g>
</g>
<!-- Node19 -->
<g id="Node000019" class="node">
<title>Node19</title>
<g id="a_Node000019"><a xlink:title=" ">
<polygon fill="#e0e0e0" stroke="#999999" points="1171,-19 1125,-19 1125,0 1171,0 1171,-19"/>
<text text-anchor="middle" x="1148" y="-7" font-family="Helvetica,sans-Serif" font-size="10.00">cstdio</text>
</a>
</g>
</g>
<!-- Node3&#45;&gt;Node19 -->
<g id="edge18_Node000003_Node000019" class="edge">
<title>Node3&#45;&gt;Node19</title>
<g id="a_edge18_Node000003_Node000019"><a xlink:title=" ">
<path fill="none" stroke="#63b8ff" d="M1120.45,-54.75C1125.01,-47.42 1131.67,-36.73 1137.29,-27.7"/>
<polygon fill="#63b8ff" stroke="#63b8ff" points="1140.34,-29.43 1142.65,-19.09 1134.4,-25.73 1140.34,-29.43"/>
</a>
</g>
</g>
<!-- Node20 -->
<g id="Node000020" class="node">
<title>Node20</title>
<g id="a_Node000020"><a xlink:title=" ">
<polygon fill="#e0e0e0" stroke="#999999" points="1241,-19 1189,-19 1189,0 1241,0 1241,-19"/>
<text text-anchor="middle" x="1215" y="-7" font-family="Helvetica,sans-Serif" font-size="10.00">cassert</text>
</a>
</g>
</g>
<!-- Node3&#45;&gt;Node20 -->
<g id="edge19_Node000003_Node000020" class="edge">
<title>Node3&#45;&gt;Node20</title>
<g id="a_edge19_Node000003_Node000020"><a xlink:title=" ">
<path fill="none" stroke="#63b8ff" d="M1131.07,-54.98C1146.86,-46.61 1171.22,-33.7 1189.63,-23.95"/>
<polygon fill="#63b8ff" stroke="#63b8ff" points="1191.44,-26.95 1198.64,-19.17 1188.17,-20.76 1191.44,-26.95"/>
</a>
</g>
</g>
<!-- Node21 -->
<g id="Node000021" class="node">
<title>Node21</title>
<g id="a_Node000021"><a xlink:title=" ">
<polygon fill="#e0e0e0" stroke="#999999" points="1324.5,-19 1259.5,-19 1259.5,0 1324.5,0 1324.5,-19"/>
<text text-anchor="middle" x="1292" y="-7" font-family="Helvetica,sans-Serif" font-size="10.00">typeindex</text>
</a>
</g>
</g>
<!-- Node3&#45;&gt;Node21 -->
<g id="edge20_Node000003_Node000021" class="edge">
<title>Node3&#45;&gt;Node21</title>
<g id="a_edge20_Node000003_Node000021"><a xlink:title=" ">
<path fill="none" stroke="#63b8ff" d="M1143.44,-54.98C1173.28,-46.05 1220.38,-31.94 1253.53,-22.02"/>
<polygon fill="#63b8ff" stroke="#63b8ff" points="1254.76,-25.3 1263.34,-19.08 1252.76,-18.6 1254.76,-25.3"/>
</a>
</g>
</g>
<!-- Node22 -->
<g id="Node000022" class="node">
<title>Node22</title>
<g id="a_Node000022"><a xlink:title=" ">
<polygon fill="#e0e0e0" stroke="#999999" points="1411,-19 1343,-19 1343,0 1411,0 1411,-19"/>
<text text-anchor="middle" x="1377" y="-7" font-family="Helvetica,sans-Serif" font-size="10.00">filesystem</text>
</a>
</g>
</g>
<!-- Node3&#45;&gt;Node22 -->
<g id="edge21_Node000003_Node000022" class="edge">
<title>Node3&#45;&gt;Node22</title>
<g id="a_edge21_Node000003_Node000022"><a xlink:title=" ">
<path fill="none" stroke="#63b8ff" d="M1157.09,-54.98C1205.31,-45.23 1283.94,-29.33 1332.95,-19.41"/>
<polygon fill="#63b8ff" stroke="#63b8ff" points="1333.83,-22.8 1342.94,-17.39 1332.44,-15.94 1333.83,-22.8"/>
</a>
</g>
</g>
<!-- Node23 -->
<g id="Node000023" class="node">
<title>Node23</title>
<g id="a_Node000023"><a xlink:title=" ">
<polygon fill="#e0e0e0" stroke="#999999" points="1461,-19 1429,-19 1429,0 1461,0 1461,-19"/>
<text text-anchor="middle" x="1445" y="-7" font-family="Helvetica,sans-Serif" font-size="10.00">set</text>
</a>
</g>
</g>
<!-- Node3&#45;&gt;Node23 -->
<g id="edge22_Node000003_Node000023" class="edge">
<title>Node3&#45;&gt;Node23</title>
<g id="a_edge22_Node000003_Node000023"><a xlink:title=" ">
<path fill="none" stroke="#63b8ff" d="M1171.52,-58.38C1231.03,-52.29 1327.47,-40.45 1419.01,-18.83"/>
<polygon fill="#63b8ff" stroke="#63b8ff" points="1420.09,-22.17 1428.99,-16.43 1418.45,-15.36 1420.09,-22.17"/>
</a>
</g>
</g>
<!-- Node24 -->
<g id="Node000024" class="node">
<title>Node24</title>
<g id="a_Node000024"><a xlink:title=" ">
<polygon fill="#e0e0e0" stroke="#999999" points="1534.5,-19 1479.5,-19 1479.5,0 1534.5,0 1534.5,-19"/>
<text text-anchor="middle" x="1507" y="-7" font-family="Helvetica,sans-Serif" font-size="10.00">fstream</text>
</a>
</g>
</g>
<!-- Node3&#45;&gt;Node24 -->
<g id="edge23_Node000003_Node000024" class="edge">
<title>Node3&#45;&gt;Node24</title>
<g id="a_edge23_Node000003_Node000024"><a xlink:title=" ">
<path fill="none" stroke="#63b8ff" d="M1171.52,-58.2C1239.73,-51.4 1358.07,-38.34 1469.15,-18.98"/>
<polygon fill="#63b8ff" stroke="#63b8ff" points="1469.94,-22.39 1479.18,-17.21 1468.73,-15.5 1469.94,-22.39"/>
</a>
</g>
</g>
<!-- Node25 -->
<g id="Node000025" class="node">
<title>Node25</title>
<g id="a_Node000025"><a xlink:title=" ">
<polygon fill="#e0e0e0" stroke="#999999" points="1609,-19 1553,-19 1553,0 1609,0 1609,-19"/>
<text text-anchor="middle" x="1581" y="-7" font-family="Helvetica,sans-Serif" font-size="10.00">d3d12.h</text>
</a>
</g>
</g>
<!-- Node3&#45;&gt;Node25 -->
<g id="edge24_Node000003_Node000025" class="edge">
<title>Node3&#45;&gt;Node25</title>
<g id="a_edge24_Node000003_Node000025"><a xlink:title=" ">
<path fill="none" stroke="#63b8ff" d="M1171.51,-59.85C1251.91,-54.18 1404.06,-41.63 1542.82,-19"/>
<polygon fill="#63b8ff" stroke="#63b8ff" points="1543.49,-22.44 1552.79,-17.36 1542.35,-15.53 1543.49,-22.44"/>
</a>
</g>
</g>
<!-- Node26 -->
<g id="Node000026" class="node">
<title>Node26</title>
<g id="a_Node000026"><a xlink:title=" ">
<polygon fill="#e0e0e0" stroke="#999999" points="1691,-19 1627,-19 1627,0 1691,0 1691,-19"/>
<text text-anchor="middle" x="1659" y="-7" font-family="Helvetica,sans-Serif" font-size="10.00">dxgi1_6.h</text>
</a>
</g>
</g>
<!-- Node3&#45;&gt;Node26 -->
<g id="edge25_Node000003_Node000026" class="edge">
<title>Node3&#45;&gt;Node26</title>
<g id="a_edge25_Node000003_Node000026"><a xlink:title=" ">
<path fill="none" stroke="#63b8ff" d="M1171.83,-60.63C1263.46,-55.53 1449.66,-43.21 1616.87,-19"/>
<polygon fill="#63b8ff" stroke="#63b8ff" points="1617.45,-22.45 1626.83,-17.54 1616.43,-15.52 1617.45,-22.45"/>
</a>
</g>
</g>
<!-- Node27 -->
<g id="Node000027" class="node">
<title>Node27</title>
<g id="a_Node000027"><a xlink:title=" ">
<polygon fill="#e0e0e0" stroke="#999999" points="1795,-19 1709,-19 1709,0 1795,0 1795,-19"/>
<text text-anchor="middle" x="1752" y="-7" font-family="Helvetica,sans-Serif" font-size="10.00">d3dcompiler.h</text>
</a>
</g>
</g>
<!-- Node3&#45;&gt;Node27 -->
<g id="edge26_Node000003_Node000027" class="edge">
<title>Node3&#45;&gt;Node27</title>
<g id="a_edge26_Node000003_Node000027"><a xlink:title=" ">
<path fill="none" stroke="#63b8ff" d="M1171.63,-60.82C1274.53,-55.59 1499.21,-42.53 1698.82,-19.04"/>
<polygon fill="#63b8ff" stroke="#63b8ff" points="1699.39,-22.49 1708.91,-17.84 1698.57,-15.54 1699.39,-22.49"/>
</a>
</g>
</g>
<!-- Node28 -->
<g id="Node000028" class="node">
<title>Node28</title>
<g id="a_Node000028"><a xlink:title=" ">
<polygon fill="#e0e0e0" stroke="#999999" points="1899,-19 1813,-19 1813,0 1899,0 1899,-19"/>
<text text-anchor="middle" x="1856" y="-7" font-family="Helvetica,sans-Serif" font-size="10.00">DirectXMath.h</text>
</a>
</g>
</g>
<!-- Node3&#45;&gt;Node28 -->
<g id="edge27_Node000003_Node000028" class="edge">
<title>Node3&#45;&gt;Node28</title>
<g id="a_edge27_Node000003_Node000028"><a xlink:title=" ">
<path fill="none" stroke="#63b8ff" d="M1171.88,-61.7C1288.37,-57.62 1562.63,-45.91 1802.94,-19"/>
<polygon fill="#63b8ff" stroke="#63b8ff" points="1803.37,-22.48 1812.91,-17.87 1802.58,-15.52 1803.37,-22.48"/>
</a>
</g>
</g>
<!-- Node29 -->
<g id="Node000029" class="node">
<title>Node29</title>
<g id="a_Node000029"><a xlink:title=" ">
<polygon fill="#e0e0e0" stroke="#999999" points="2034.5,-19 1917.5,-19 1917.5,0 2034.5,0 2034.5,-19"/>
<text text-anchor="middle" x="1976" y="-7" font-family="Helvetica,sans-Serif" font-size="10.00">assimp/Importer.hpp</text>
</a>
</g>
</g>
<!-- Node3&#45;&gt;Node29 -->
<g id="edge28_Node000003_Node000029" class="edge">
<title>Node3&#45;&gt;Node29</title>
<g id="a_edge28_Node000003_Node000029"><a xlink:title=" ">
<path fill="none" stroke="#63b8ff" d="M1171.83,-61.64C1300.65,-57.15 1624.94,-44.21 1907.39,-18.98"/>
<polygon fill="#63b8ff" stroke="#63b8ff" points="1907.78,-22.46 1917.42,-18.08 1907.15,-15.49 1907.78,-22.46"/>
</a>
</g>
</g>
<!-- Node30 -->
<g id="Node000030" class="node">
<title>Node30</title>
<g id="a_Node000030"><a xlink:title=" ">
<polygon fill="#e0e0e0" stroke="#999999" points="2145,-19 2053,-19 2053,0 2145,0 2145,-19"/>
<text text-anchor="middle" x="2099" y="-7" font-family="Helvetica,sans-Serif" font-size="10.00">assimp/scene.h</text>
</a>
</g>
</g>
<!-- Node3&#45;&gt;Node30 -->
<g id="edge29_Node000003_Node000030" class="edge">
<title>Node3&#45;&gt;Node30</title>
<g id="a_edge29_Node000003_Node000030"><a xlink:title=" ">
<path fill="none" stroke="#63b8ff" d="M1171.71,-62.86C1315.57,-60.8 1706.53,-52.42 2042.41,-19.04"/>
<polygon fill="#63b8ff" stroke="#63b8ff" points="2043.23,-22.48 2052.83,-18 2042.53,-15.51 2043.23,-22.48"/>
</a>
</g>
</g>
<!-- Node31 -->
<g id="Node000031" class="node">
<title>Node31</title>
<g id="a_Node000031"><a xlink:title=" ">
<polygon fill="#e0e0e0" stroke="#999999" points="2285,-19 2163,-19 2163,0 2285,0 2285,-19"/>
<text text-anchor="middle" x="2224" y="-7" font-family="Helvetica,sans-Serif" font-size="10.00">assimp/postprocess.h</text>
</a>
</g>
</g>
<!-- Node3&#45;&gt;Node31 -->
<g id="edge30_Node000003_Node000031" class="edge">
<title>Node3&#45;&gt;Node31</title>
<g id="a_edge30_Node000003_Node000031"><a xlink:title=" ">
<path fill="none" stroke="#63b8ff" d="M1171.69,-62.63C1326.91,-59.9 1772.03,-49.85 2152.83,-19.02"/>
<polygon fill="#63b8ff" stroke="#63b8ff" points="2153.26,-22.5 2162.95,-18.2 2152.69,-15.52 2153.26,-22.5"/>
</a>
</g>
</g>
<!-- Node32 -->
<g id="Node000032" class="node">
<title>Node32</title>
<g id="a_Node000032"><a xlink:href="Logger_8h.html" target="_top" xlink:title="デバッグログ出力システム">
<polygon fill="white" stroke="#666666" points="2381,-19 2303,-19 2303,0 2381,0 2381,-19"/>
<text text-anchor="middle" x="2342" y="-7" font-family="Helvetica,sans-Serif" font-size="10.00">Log/Logger.h</text>
</a>
</g>
</g>
<!-- Node3&#45;&gt;Node32 -->
<g id="edge31_Node000003_Node000032" class="edge">
<title>Node3&#45;&gt;Node32</title>
<g id="a_edge31_Node000003_Node000032"><a xlink:title=" ">
<path fill="none" stroke="#63b8ff" d="M1171.57,-64.15C1341.02,-65.37 1858.56,-64.59 2285,-19 2287.5,-18.73 2290.07,-18.41 2292.67,-18.06"/>
<polygon fill="#63b8ff" stroke="#63b8ff" points="2293.42,-21.48 2302.79,-16.53 2292.38,-14.56 2293.42,-21.48"/>
</a>
</g>
</g>
<!-- Node32&#45;&gt;Node3 -->
<g id="edge32_Node000032_Node000003" class="edge">
<title>Node32&#45;&gt;Node3</title>
<g id="a_edge32_Node000032_Node000003"><a xlink:title=" ">
<path fill="none" stroke="#63b8ff" d="M2302.68,-19.03C1877.93,-64.41 1362.92,-65.37 1181.78,-64.16"/>
<polygon fill="#63b8ff" stroke="#63b8ff" points="1181.64,-60.66 1171.62,-64.09 1181.59,-67.66 1181.64,-60.66"/>
</a>
</g>
</g>
</g>
</svg>

<g id="navigator" transform="translate(0 0)" fill="#404254">
  <rect fill="#f2f5e9" fill-opacity="0.5" stroke="#606060" stroke-width=".5" x="0" y="0" width="60" height="60"/>
  <use id="zoomplus" xlink:href="#zoomPlus" x="17" y="9" onmousedown="handleZoom(evt,'in')"/>
  <use id="zoomminus" xlink:href="#zoomMin" x="42" y="9" onmousedown="handleZoom(evt,'out')"/>
  <use id="reset" xlink:href="#resetDef" x="30" y="36" onmousedown="handleReset()"/>
   <use id="arrowup" xlink:href="#arrowUp" x="0" y="0" onmousedown="handlePan(0,-1)"/>
  <use id="arrowright" xlink:href="#arrowRight" x="0" y="0" onmousedown="handlePan(1,0)"/>
  <use id="arrowdown" xlink:href="#arrowDown" x="0" y="0" onmousedown="handlePan(0,1)"/>
  <use id="arrowleft" xlink:href="#arrowLeft" x="0" y="0" onmousedown="handlePan(-1,0)"/>
</g>
<svg viewBox="0 0 15 15" width="100%" height="30px" preserveAspectRatio="xMaxYMin meet">
 <g id="arrow_out" transform="scale(0.3 0.3)">
  <a xlink:href="Texture_8cpp__incl_org.svg" target="_base">
   <rect id="button" ry="5" rx="5" y="6" x="6" height="38" width="38"
        fill="#f2f5e9" fill-opacity="0.5" stroke="#606060" stroke-width="1.0"/>
   <path id="arrow"
     d="M 11.500037,31.436501 C 11.940474,20.09759 22.043105,11.32322 32.158766,21.979434 L 37.068811,17.246167 C 37.068811,17.246167 37.088388,32 37.088388,32 L 22.160133,31.978069 C 22.160133,31.978069 26.997745,27.140456 26.997745,27.140456 C 18.528582,18.264221 13.291696,25.230495 11.500037,31.436501 z"
     style="fill:#404040;"/>
  </a>
 </g>
</svg>

<style type='text/css'>
<![CDATA[
[data-mouse-over-selected='false'] { opacity: 0.7; }
[data-mouse-over-selected='true']  { opacity: 1.0; }
]]>
</style>
<script type="application/ecmascript"><![CDATA[
document.addEventListener('DOMContentLoaded', (event) => {
  highlightEdges();
  highlightAdjacentNodes();
});
]]></script>
</svg>
