<?xml version="1.0" encoding="UTF-8" standalone="no"?>
<!DOCTYPE svg PUBLIC "-//W3C//DTD SVG 1.1//EN"
 "http://www.w3.org/Graphics/SVG/1.1/DTD/svg11.dtd">
<!-- Generated by graphviz version 2.43.0 (0)
 -->
<!-- Title: Engine/Source/Core/Time/Time.h Pages: 1 -->
<svg width="1292pt" height="313pt"
 viewBox="0.00 0.00 1291.50 313.00" xmlns="http://www.w3.org/2000/svg" xmlns:xlink="http://www.w3.org/1999/xlink">
<g id="graph0" class="graph" transform="scale(1 1) rotate(0) translate(4 309)">
<title>Engine/Source/Core/Time/Time.h</title>
<!-- Node1 -->
<g id="Node000001" class="node">
<title>Node1</title>
<g id="a_Node000001"><a xlink:title="ゲームループの時間管理クラス。">
<polygon fill="#999999" stroke="#666666" points="709,-305 598,-305 598,-275 709,-275 709,-305"/>
<text text-anchor="start" x="606" y="-293" font-family="Helvetica,sans-Serif" font-size="10.00">Engine/Source/Core</text>
<text text-anchor="middle" x="653.5" y="-282" font-family="Helvetica,sans-Serif" font-size="10.00">/Time/Time.h</text>
</a>
</g>
</g>
<!-- Node2 -->
<g id="Node000002" class="node">
<title>Node2</title>
<g id="a_Node000002"><a xlink:href="Time_8cpp.html" target="_top" xlink:title=" ">
<polygon fill="white" stroke="#666666" points="547,-233.5 436,-233.5 436,-203.5 547,-203.5 547,-233.5"/>
<text text-anchor="start" x="444" y="-221.5" font-family="Helvetica,sans-Serif" font-size="10.00">Engine/Source/Core</text>
<text text-anchor="middle" x="491.5" y="-210.5" font-family="Helvetica,sans-Serif" font-size="10.00">/Time/Time.cpp</text>
</a>
</g>
</g>
<!-- Node1&#45;&gt;Node2 -->
<g id="edge1_Node000001_Node000002" class="edge">
<title>Node1&#45;&gt;Node2</title>
<g id="a_edge1_Node000001_Node000002"><a xlink:title=" ">
<path fill="none" stroke="#63b8ff" d="M611.45,-270.96C584.25,-259.29 549.36,-244.32 524.23,-233.54"/>
<polygon fill="#63b8ff" stroke="#63b8ff" points="610.15,-274.21 620.72,-274.94 612.91,-267.78 610.15,-274.21"/>
</a>
</g>
</g>
<!-- Node3 -->
<g id="Node000003" class="node">
<title>Node3</title>
<g id="a_Node000003"><a xlink:href="EditorCameraSystem_8h.html" target="_top" xlink:title="エディタ用フリーカメラの操作システム">
<polygon fill="white" stroke="#666666" points="742,-239 565,-239 565,-198 742,-198 742,-239"/>
<text text-anchor="start" x="573" y="-227" font-family="Helvetica,sans-Serif" font-size="10.00">Engine/Source/Runtime</text>
<text text-anchor="start" x="573" y="-216" font-family="Helvetica,sans-Serif" font-size="10.00">/Systems/Graphics/EditorCamera</text>
<text text-anchor="middle" x="653.5" y="-205" font-family="Helvetica,sans-Serif" font-size="10.00">System.h</text>
</a>
</g>
</g>
<!-- Node1&#45;&gt;Node3 -->
<g id="edge2_Node000001_Node000003" class="edge">
<title>Node1&#45;&gt;Node3</title>
<g id="a_edge2_Node000001_Node000003"><a xlink:title=" ">
<path fill="none" stroke="#63b8ff" d="M653.5,-264.91C653.5,-256.47 653.5,-247.1 653.5,-239.07"/>
<polygon fill="#63b8ff" stroke="#63b8ff" points="650,-264.94 653.5,-274.94 657,-264.94 650,-264.94"/>
</a>
</g>
</g>
<!-- Node4 -->
<g id="Node000004" class="node">
<title>Node4</title>
<g id="a_Node000004"><a xlink:href="SpanEngine_8h.html" target="_top" xlink:title=" ">
<polygon fill="white" stroke="#666666" points="789,-162 634,-162 634,-143 789,-143 789,-162"/>
<text text-anchor="middle" x="711.5" y="-150" font-family="Helvetica,sans-Serif" font-size="10.00">Engine/Source/SpanEngine.h</text>
</a>
</g>
</g>
<!-- Node1&#45;&gt;Node4 -->
<g id="edge14_Node000001_Node000004" class="edge">
<title>Node1&#45;&gt;Node4</title>
<g id="a_edge14_Node000001_Node000004"><a xlink:title=" ">
<path fill="none" stroke="#63b8ff" d="M713.52,-270.68C728.12,-263.25 741.97,-253 750.5,-239 759.98,-223.44 756.92,-215.06 750.5,-198 744.93,-183.19 731.95,-170.1 722.49,-162.01"/>
<polygon fill="#63b8ff" stroke="#63b8ff" points="711.96,-267.55 704.38,-274.95 714.92,-273.89 711.96,-267.55"/>
</a>
</g>
</g>
<!-- Node3&#45;&gt;Node4 -->
<g id="edge3_Node000003_Node000004" class="edge">
<title>Node3&#45;&gt;Node4</title>
<g id="a_edge3_Node000003_Node000004"><a xlink:title=" ">
<path fill="none" stroke="#63b8ff" d="M678.04,-190.42C687.19,-180.32 696.96,-169.55 703.56,-162.26"/>
<polygon fill="#63b8ff" stroke="#63b8ff" points="675.34,-188.19 671.22,-197.95 680.53,-192.89 675.34,-188.19"/>
</a>
</g>
</g>
<!-- Node5 -->
<g id="Node000005" class="node">
<title>Node5</title>
<g id="a_Node000005"><a xlink:href="GuiManager_8cpp.html" target="_top" xlink:title=" ">
<polygon fill="white" stroke="#666666" points="117,-101.5 0,-101.5 0,-71.5 117,-71.5 117,-101.5"/>
<text text-anchor="start" x="8" y="-89.5" font-family="Helvetica,sans-Serif" font-size="10.00">Engine/Source/Editor</text>
<text text-anchor="middle" x="58.5" y="-78.5" font-family="Helvetica,sans-Serif" font-size="10.00">/GuiManager.cpp</text>
</a>
</g>
</g>
<!-- Node4&#45;&gt;Node5 -->
<g id="edge4_Node000004_Node000005" class="edge">
<title>Node4&#45;&gt;Node5</title>
<g id="a_edge4_Node000004_Node000005"><a xlink:title=" ">
<path fill="none" stroke="#63b8ff" d="M623.58,-150.36C508.5,-147.62 300.94,-138.31 126.5,-107 118.64,-105.59 110.39,-103.64 102.45,-101.51"/>
<polygon fill="#63b8ff" stroke="#63b8ff" points="623.66,-153.87 633.74,-150.6 623.82,-146.87 623.66,-153.87"/>
</a>
</g>
</g>
<!-- Node6 -->
<g id="Node000006" class="node">
<title>Node6</title>
<g id="a_Node000006"><a xlink:href="HierarchyPanel_8cpp.html" target="_top" xlink:title=" ">
<polygon fill="white" stroke="#666666" points="287.5,-107 135.5,-107 135.5,-66 287.5,-66 287.5,-107"/>
<text text-anchor="start" x="143.5" y="-95" font-family="Helvetica,sans-Serif" font-size="10.00">Engine/Source/Editor</text>
<text text-anchor="start" x="143.5" y="-84" font-family="Helvetica,sans-Serif" font-size="10.00">/Panels/Hierarchy/Hierarchy</text>
<text text-anchor="middle" x="211.5" y="-73" font-family="Helvetica,sans-Serif" font-size="10.00">Panel.cpp</text>
</a>
</g>
</g>
<!-- Node4&#45;&gt;Node6 -->
<g id="edge5_Node000004_Node000006" class="edge">
<title>Node4&#45;&gt;Node6</title>
<g id="a_edge5_Node000004_Node000006"><a xlink:title=" ">
<path fill="none" stroke="#63b8ff" d="M623.83,-145.14C539.55,-138.31 408.78,-125.83 296.5,-107 293.66,-106.52 290.78,-106.01 287.87,-105.47"/>
<polygon fill="#63b8ff" stroke="#63b8ff" points="623.63,-148.63 633.87,-145.94 624.19,-141.66 623.63,-148.63"/>
</a>
</g>
</g>
<!-- Node7 -->
<g id="Node000007" class="node">
<title>Node7</title>
<g id="a_Node000007"><a xlink:href="InspectorPanel_8cpp.html" target="_top" xlink:title=" ">
<polygon fill="white" stroke="#666666" points="453,-107 306,-107 306,-66 453,-66 453,-107"/>
<text text-anchor="start" x="314" y="-95" font-family="Helvetica,sans-Serif" font-size="10.00">Engine/Source/Editor</text>
<text text-anchor="start" x="314" y="-84" font-family="Helvetica,sans-Serif" font-size="10.00">/Panels/Inspector/Inspector</text>
<text text-anchor="middle" x="379.5" y="-73" font-family="Helvetica,sans-Serif" font-size="10.00">Panel.cpp</text>
</a>
</g>
</g>
<!-- Node4&#45;&gt;Node7 -->
<g id="edge6_Node000004_Node000007" class="edge">
<title>Node4&#45;&gt;Node7</title>
<g id="a_edge6_Node000004_Node000007"><a xlink:title=" ">
<path fill="none" stroke="#63b8ff" d="M648.78,-141.25C598.32,-132.78 525.67,-120.05 462.5,-107 459.46,-106.37 456.35,-105.71 453.22,-105.04"/>
<polygon fill="#63b8ff" stroke="#63b8ff" points="648.44,-144.74 658.88,-142.94 649.59,-137.84 648.44,-144.74"/>
</a>
</g>
</g>
<!-- Node8 -->
<g id="Node000008" class="node">
<title>Node8</title>
<g id="a_Node000008"><a xlink:href="ProjectBrowserPanel_8cpp.html" target="_top" xlink:title="ProjectBrowserPanelの実装。">
<polygon fill="white" stroke="#666666" points="611.5,-107 471.5,-107 471.5,-66 611.5,-66 611.5,-107"/>
<text text-anchor="start" x="479.5" y="-95" font-family="Helvetica,sans-Serif" font-size="10.00">Engine/Source/Editor</text>
<text text-anchor="start" x="479.5" y="-84" font-family="Helvetica,sans-Serif" font-size="10.00">/Panels/ProjectBrowser</text>
<text text-anchor="middle" x="541.5" y="-73" font-family="Helvetica,sans-Serif" font-size="10.00">/ProjectBrowserPanel.cpp</text>
</a>
</g>
</g>
<!-- Node4&#45;&gt;Node8 -->
<g id="edge7_Node000004_Node000008" class="edge">
<title>Node4&#45;&gt;Node8</title>
<g id="a_edge7_Node000004_Node000008"><a xlink:title=" ">
<path fill="none" stroke="#63b8ff" d="M679.13,-139.32C654.91,-130.19 621.28,-117.53 593.32,-107.01"/>
<polygon fill="#63b8ff" stroke="#63b8ff" points="677.98,-142.62 688.57,-142.87 680.45,-136.07 677.98,-142.62"/>
</a>
</g>
</g>
<!-- Node9 -->
<g id="Node000009" class="node">
<title>Node9</title>
<g id="a_Node000009"><a xlink:href="SceneViewPanel_8cpp.html" target="_top" xlink:title=" ">
<polygon fill="white" stroke="#666666" points="793.5,-107 629.5,-107 629.5,-66 793.5,-66 793.5,-107"/>
<text text-anchor="start" x="637.5" y="-95" font-family="Helvetica,sans-Serif" font-size="10.00">Engine/Source/Editor</text>
<text text-anchor="start" x="637.5" y="-84" font-family="Helvetica,sans-Serif" font-size="10.00">/Panels/SceneView/SceneView</text>
<text text-anchor="middle" x="711.5" y="-73" font-family="Helvetica,sans-Serif" font-size="10.00">Panel.cpp</text>
</a>
</g>
</g>
<!-- Node4&#45;&gt;Node9 -->
<g id="edge8_Node000004_Node000009" class="edge">
<title>Node4&#45;&gt;Node9</title>
<g id="a_edge8_Node000004_Node000009"><a xlink:title=" ">
<path fill="none" stroke="#63b8ff" d="M711.5,-132.63C711.5,-124.56 711.5,-115.15 711.5,-107.01"/>
<polygon fill="#63b8ff" stroke="#63b8ff" points="708,-132.87 711.5,-142.87 715,-132.87 708,-132.87"/>
</a>
</g>
</g>
<!-- Node10 -->
<g id="Node000010" class="node">
<title>Node10</title>
<g id="a_Node000010"><a xlink:href="Application_8cpp.html" target="_top" xlink:title=" ">
<polygon fill="white" stroke="#666666" points="941.5,-101.5 811.5,-101.5 811.5,-71.5 941.5,-71.5 941.5,-101.5"/>
<text text-anchor="start" x="819.5" y="-89.5" font-family="Helvetica,sans-Serif" font-size="10.00">Engine/Source/Runtime</text>
<text text-anchor="middle" x="876.5" y="-78.5" font-family="Helvetica,sans-Serif" font-size="10.00">/Application.cpp</text>
</a>
</g>
</g>
<!-- Node4&#45;&gt;Node10 -->
<g id="edge9_Node000004_Node000010" class="edge">
<title>Node4&#45;&gt;Node10</title>
<g id="a_edge9_Node000004_Node000010"><a xlink:title=" ">
<path fill="none" stroke="#63b8ff" d="M743.35,-139.15C771.04,-128.4 811.16,-112.85 840.11,-101.62"/>
<polygon fill="#63b8ff" stroke="#63b8ff" points="741.81,-135.99 733.75,-142.87 744.34,-142.52 741.81,-135.99"/>
</a>
</g>
</g>
<!-- Node11 -->
<g id="Node000011" class="node">
<title>Node11</title>
<g id="a_Node000011"><a xlink:href="AssetManager_8h.html" target="_top" xlink:title="エンジン全域のアセットライフサイクルを管理するシングルトン。">
<polygon fill="white" stroke="#666666" points="1105.5,-101.5 959.5,-101.5 959.5,-71.5 1105.5,-71.5 1105.5,-101.5"/>
<text text-anchor="start" x="967.5" y="-89.5" font-family="Helvetica,sans-Serif" font-size="10.00">Engine/Source/Runtime</text>
<text text-anchor="middle" x="1032.5" y="-78.5" font-family="Helvetica,sans-Serif" font-size="10.00">/Resource/AssetManager.h</text>
</a>
</g>
</g>
<!-- Node4&#45;&gt;Node11 -->
<g id="edge10_Node000004_Node000011" class="edge">
<title>Node4&#45;&gt;Node11</title>
<g id="a_edge10_Node000004_Node000011"><a xlink:title=" ">
<path fill="none" stroke="#63b8ff" d="M764.54,-141.11C811.26,-132.58 880.91,-119.84 941.5,-107 949.37,-105.33 957.65,-103.48 965.88,-101.6"/>
<polygon fill="#63b8ff" stroke="#63b8ff" points="763.84,-137.68 754.63,-142.92 765.1,-144.57 763.84,-137.68"/>
</a>
</g>
</g>
<!-- Node13 -->
<g id="Node000013" class="node">
<title>Node13</title>
<g id="a_Node000013"><a xlink:href="AssetSerializer_8cpp.html" target="_top" xlink:title="AssetSerializerの実装。">
<polygon fill="white" stroke="#666666" points="1283.5,-101.5 1123.5,-101.5 1123.5,-71.5 1283.5,-71.5 1283.5,-101.5"/>
<text text-anchor="start" x="1131.5" y="-89.5" font-family="Helvetica,sans-Serif" font-size="10.00">Engine/Source/Runtime</text>
<text text-anchor="middle" x="1203.5" y="-78.5" font-family="Helvetica,sans-Serif" font-size="10.00">/Resource/AssetSerializer.cpp</text>
</a>
</g>
</g>
<!-- Node4&#45;&gt;Node13 -->
<g id="edge13_Node000004_Node000013" class="edge">
<title>Node4&#45;&gt;Node13</title>
<g id="a_edge13_Node000004_Node000013"><a xlink:title=" ">
<path fill="none" stroke="#63b8ff" d="M799.1,-144.52C880.98,-137.35 1006.48,-124.75 1114.5,-107 1123.87,-105.46 1133.73,-103.57 1143.34,-101.58"/>
<polygon fill="#63b8ff" stroke="#63b8ff" points="798.75,-141.03 789.09,-145.38 799.35,-148.01 798.75,-141.03"/>
</a>
</g>
</g>
<!-- Node11&#45;&gt;Node4 -->
<g id="edge12_Node000011_Node000004" class="edge">
<title>Node11&#45;&gt;Node4</title>
<g id="a_edge12_Node000011_Node000004"><a xlink:title=" ">
<path fill="none" stroke="#63b8ff" d="M973.82,-103.87C968.99,-104.95 964.17,-106.01 959.5,-107 894.47,-120.78 818.99,-134.45 768.44,-142.92"/>
<polygon fill="#63b8ff" stroke="#63b8ff" points="974.74,-107.25 983.7,-101.6 973.17,-100.43 974.74,-107.25"/>
</a>
</g>
</g>
<!-- Node12 -->
<g id="Node000012" class="node">
<title>Node12</title>
<g id="a_Node000012"><a xlink:href="AssetManager_8cpp.html" target="_top" xlink:title="AssetManagerの実装。">
<polygon fill="white" stroke="#666666" points="1111,-30 954,-30 954,0 1111,0 1111,-30"/>
<text text-anchor="start" x="962" y="-18" font-family="Helvetica,sans-Serif" font-size="10.00">Engine/Source/Runtime</text>
<text text-anchor="middle" x="1032.5" y="-7" font-family="Helvetica,sans-Serif" font-size="10.00">/Resource/AssetManager.cpp</text>
</a>
</g>
</g>
<!-- Node11&#45;&gt;Node12 -->
<g id="edge11_Node000011_Node000012" class="edge">
<title>Node11&#45;&gt;Node12</title>
<g id="a_edge11_Node000011_Node000012"><a xlink:title=" ">
<path fill="none" stroke="#63b8ff" d="M1032.5,-61.25C1032.5,-50.81 1032.5,-38.99 1032.5,-30.04"/>
<polygon fill="#63b8ff" stroke="#63b8ff" points="1029,-61.44 1032.5,-71.44 1036,-61.44 1029,-61.44"/>
</a>
</g>
</g>
</g>
</svg>
