<?xml version="1.0" encoding="UTF-8" standalone="no"?>
<!DOCTYPE svg PUBLIC "-//W3C//DTD SVG 1.1//EN"
 "http://www.w3.org/Graphics/SVG/1.1/DTD/svg11.dtd">
<!-- Generated by graphviz version 2.43.0 (0)
 -->
<!-- Title: Engine/Source/Core/Time/Time.h Pages: 1 -->
<svg width="792pt" height="247pt"
 viewBox="0.00 0.00 791.50 247.00" xmlns="http://www.w3.org/2000/svg" xmlns:xlink="http://www.w3.org/1999/xlink">
<g id="graph0" class="graph" transform="scale(1 1) rotate(0) translate(4 243)">
<title>Engine/Source/Core/Time/Time.h</title>
<!-- Node1 -->
<g id="Node000001" class="node">
<title>Node1</title>
<g id="a_Node000001"><a xlink:title="ゲームループの時間管理クラス。">
<polygon fill="#999999" stroke="#666666" points="377,-239 266,-239 266,-209 377,-209 377,-239"/>
<text text-anchor="start" x="274" y="-227" font-family="Helvetica,sans-Serif" font-size="10.00">Engine/Source/Core</text>
<text text-anchor="middle" x="321.5" y="-216" font-family="Helvetica,sans-Serif" font-size="10.00">/Time/Time.h</text>
</a>
</g>
</g>
<!-- Node2 -->
<g id="Node000002" class="node">
<title>Node2</title>
<g id="a_Node000002"><a xlink:href="Time_8cpp.html" target="_top" xlink:title=" ">
<polygon fill="white" stroke="#666666" points="215,-167.5 104,-167.5 104,-137.5 215,-137.5 215,-167.5"/>
<text text-anchor="start" x="112" y="-155.5" font-family="Helvetica,sans-Serif" font-size="10.00">Engine/Source/Core</text>
<text text-anchor="middle" x="159.5" y="-144.5" font-family="Helvetica,sans-Serif" font-size="10.00">/Time/Time.cpp</text>
</a>
</g>
</g>
<!-- Node1&#45;&gt;Node2 -->
<g id="edge1_Node000001_Node000002" class="edge">
<title>Node1&#45;&gt;Node2</title>
<g id="a_edge1_Node000001_Node000002"><a xlink:title=" ">
<path fill="none" stroke="#63b8ff" d="M279.45,-204.96C252.25,-193.29 217.36,-178.32 192.23,-167.54"/>
<polygon fill="#63b8ff" stroke="#63b8ff" points="278.15,-208.21 288.72,-208.94 280.91,-201.78 278.15,-208.21"/>
</a>
</g>
</g>
<!-- Node3 -->
<g id="Node000003" class="node">
<title>Node3</title>
<g id="a_Node000003"><a xlink:href="EditorCameraSystem_8h.html" target="_top" xlink:title="エディタ用フリーカメラの操作システム">
<polygon fill="white" stroke="#666666" points="410,-173 233,-173 233,-132 410,-132 410,-173"/>
<text text-anchor="start" x="241" y="-161" font-family="Helvetica,sans-Serif" font-size="10.00">Engine/Source/Runtime</text>
<text text-anchor="start" x="241" y="-150" font-family="Helvetica,sans-Serif" font-size="10.00">/Systems/Graphics/EditorCamera</text>
<text text-anchor="middle" x="321.5" y="-139" font-family="Helvetica,sans-Serif" font-size="10.00">System.h</text>
</a>
</g>
</g>
<!-- Node1&#45;&gt;Node3 -->
<g id="edge2_Node000001_Node000003" class="edge">
<title>Node1&#45;&gt;Node3</title>
<g id="a_edge2_Node000001_Node000003"><a xlink:title=" ">
<path fill="none" stroke="#63b8ff" d="M321.5,-198.91C321.5,-190.47 321.5,-181.1 321.5,-173.07"/>
<polygon fill="#63b8ff" stroke="#63b8ff" points="318,-198.94 321.5,-208.94 325,-198.94 318,-198.94"/>
</a>
</g>
</g>
<!-- Node4 -->
<g id="Node000004" class="node">
<title>Node4</title>
<g id="a_Node000004"><a xlink:href="SpanEngine_8h.html" target="_top" xlink:title=" ">
<polygon fill="white" stroke="#666666" points="457,-96 302,-96 302,-77 457,-77 457,-96"/>
<text text-anchor="middle" x="379.5" y="-84" font-family="Helvetica,sans-Serif" font-size="10.00">Engine/Source/SpanEngine.h</text>
</a>
</g>
</g>
<!-- Node1&#45;&gt;Node4 -->
<g id="edge9_Node000001_Node000004" class="edge">
<title>Node1&#45;&gt;Node4</title>
<g id="a_edge9_Node000001_Node000004"><a xlink:title=" ">
<path fill="none" stroke="#63b8ff" d="M382.34,-204.7C397.01,-197.28 410.91,-187.03 419.5,-173 429.02,-157.46 426.02,-149.01 419.5,-132 413.85,-117.26 400.81,-104.33 391.14,-96.27"/>
<polygon fill="#63b8ff" stroke="#63b8ff" points="380.74,-201.58 373.15,-208.97 383.69,-207.93 380.74,-201.58"/>
</a>
</g>
</g>
<!-- Node3&#45;&gt;Node4 -->
<g id="edge3_Node000003_Node000004" class="edge">
<title>Node3&#45;&gt;Node4</title>
<g id="a_edge3_Node000003_Node000004"><a xlink:title=" ">
<path fill="none" stroke="#63b8ff" d="M346.04,-124.42C355.19,-114.32 364.96,-103.55 371.56,-96.26"/>
<polygon fill="#63b8ff" stroke="#63b8ff" points="343.34,-122.19 339.22,-131.95 348.53,-126.89 343.34,-122.19"/>
</a>
</g>
</g>
<!-- Node5 -->
<g id="Node000005" class="node">
<title>Node5</title>
<g id="a_Node000005"><a xlink:href="GuiManager_8cpp.html" target="_top" xlink:title=" ">
<polygon fill="white" stroke="#666666" points="117,-35.5 0,-35.5 0,-5.5 117,-5.5 117,-35.5"/>
<text text-anchor="start" x="8" y="-23.5" font-family="Helvetica,sans-Serif" font-size="10.00">Engine/Source/Editor</text>
<text text-anchor="middle" x="58.5" y="-12.5" font-family="Helvetica,sans-Serif" font-size="10.00">/GuiManager.cpp</text>
</a>
</g>
</g>
<!-- Node4&#45;&gt;Node5 -->
<g id="edge4_Node000004_Node000005" class="edge">
<title>Node4&#45;&gt;Node5</title>
<g id="a_edge4_Node000004_Node000005"><a xlink:title=" ">
<path fill="none" stroke="#63b8ff" d="M310.92,-75.44C259.8,-67.45 188.43,-55.28 126.5,-41 119.56,-39.4 112.27,-37.52 105.15,-35.58"/>
<polygon fill="#63b8ff" stroke="#63b8ff" points="310.45,-78.91 320.87,-76.98 311.52,-71.99 310.45,-78.91"/>
</a>
</g>
</g>
<!-- Node6 -->
<g id="Node000006" class="node">
<title>Node6</title>
<g id="a_Node000006"><a xlink:href="HierarchyPanel_8cpp.html" target="_top" xlink:title=" ">
<polygon fill="white" stroke="#666666" points="287.5,-41 135.5,-41 135.5,0 287.5,0 287.5,-41"/>
<text text-anchor="start" x="143.5" y="-29" font-family="Helvetica,sans-Serif" font-size="10.00">Engine/Source/Editor</text>
<text text-anchor="start" x="143.5" y="-18" font-family="Helvetica,sans-Serif" font-size="10.00">/Panels/Hierarchy/Hierarchy</text>
<text text-anchor="middle" x="211.5" y="-7" font-family="Helvetica,sans-Serif" font-size="10.00">Panel.cpp</text>
</a>
</g>
</g>
<!-- Node4&#45;&gt;Node6 -->
<g id="edge5_Node000004_Node000006" class="edge">
<title>Node4&#45;&gt;Node6</title>
<g id="a_edge5_Node000004_Node000006"><a xlink:title=" ">
<path fill="none" stroke="#63b8ff" d="M347.2,-73.19C323.28,-64.08 290.21,-51.49 262.71,-41.01"/>
<polygon fill="#63b8ff" stroke="#63b8ff" points="346.25,-76.58 356.84,-76.87 348.74,-70.04 346.25,-76.58"/>
</a>
</g>
</g>
<!-- Node7 -->
<g id="Node000007" class="node">
<title>Node7</title>
<g id="a_Node000007"><a xlink:href="InspectorPanel_8cpp.html" target="_top" xlink:title=" ">
<polygon fill="white" stroke="#666666" points="453,-41 306,-41 306,0 453,0 453,-41"/>
<text text-anchor="start" x="314" y="-29" font-family="Helvetica,sans-Serif" font-size="10.00">Engine/Source/Editor</text>
<text text-anchor="start" x="314" y="-18" font-family="Helvetica,sans-Serif" font-size="10.00">/Panels/Inspector/Inspector</text>
<text text-anchor="middle" x="379.5" y="-7" font-family="Helvetica,sans-Serif" font-size="10.00">Panel.cpp</text>
</a>
</g>
</g>
<!-- Node4&#45;&gt;Node7 -->
<g id="edge6_Node000004_Node000007" class="edge">
<title>Node4&#45;&gt;Node7</title>
<g id="a_edge6_Node000004_Node000007"><a xlink:title=" ">
<path fill="none" stroke="#63b8ff" d="M379.5,-66.63C379.5,-58.56 379.5,-49.15 379.5,-41.01"/>
<polygon fill="#63b8ff" stroke="#63b8ff" points="376,-66.87 379.5,-76.87 383,-66.87 376,-66.87"/>
</a>
</g>
</g>
<!-- Node8 -->
<g id="Node000008" class="node">
<title>Node8</title>
<g id="a_Node000008"><a xlink:href="SceneViewPanel_8cpp.html" target="_top" xlink:title=" ">
<polygon fill="white" stroke="#666666" points="635.5,-41 471.5,-41 471.5,0 635.5,0 635.5,-41"/>
<text text-anchor="start" x="479.5" y="-29" font-family="Helvetica,sans-Serif" font-size="10.00">Engine/Source/Editor</text>
<text text-anchor="start" x="479.5" y="-18" font-family="Helvetica,sans-Serif" font-size="10.00">/Panels/SceneView/SceneView</text>
<text text-anchor="middle" x="553.5" y="-7" font-family="Helvetica,sans-Serif" font-size="10.00">Panel.cpp</text>
</a>
</g>
</g>
<!-- Node4&#45;&gt;Node8 -->
<g id="edge7_Node000004_Node000008" class="edge">
<title>Node4&#45;&gt;Node8</title>
<g id="a_edge7_Node000004_Node000008"><a xlink:title=" ">
<path fill="none" stroke="#63b8ff" d="M412.63,-73.32C437.42,-64.19 471.85,-51.53 500.46,-41.01"/>
<polygon fill="#63b8ff" stroke="#63b8ff" points="411.14,-70.13 402.97,-76.87 413.56,-76.7 411.14,-70.13"/>
</a>
</g>
</g>
<!-- Node9 -->
<g id="Node000009" class="node">
<title>Node9</title>
<g id="a_Node000009"><a xlink:href="Application_8cpp.html" target="_top" xlink:title=" ">
<polygon fill="white" stroke="#666666" points="783.5,-35.5 653.5,-35.5 653.5,-5.5 783.5,-5.5 783.5,-35.5"/>
<text text-anchor="start" x="661.5" y="-23.5" font-family="Helvetica,sans-Serif" font-size="10.00">Engine/Source/Runtime</text>
<text text-anchor="middle" x="718.5" y="-12.5" font-family="Helvetica,sans-Serif" font-size="10.00">/Application.cpp</text>
</a>
</g>
</g>
<!-- Node4&#45;&gt;Node9 -->
<g id="edge8_Node000004_Node000009" class="edge">
<title>Node4&#45;&gt;Node9</title>
<g id="a_edge8_Node000004_Node000009"><a xlink:title=" ">
<path fill="none" stroke="#63b8ff" d="M449.87,-75.47C503.47,-67.4 578.95,-55.11 644.5,-41 652.03,-39.38 659.95,-37.49 667.69,-35.54"/>
<polygon fill="#63b8ff" stroke="#63b8ff" points="449.16,-72.04 439.79,-76.98 450.2,-78.96 449.16,-72.04"/>
</a>
</g>
</g>
</g>
</svg>
