<?xml version="1.0" encoding="UTF-8" standalone="no"?>
<!DOCTYPE svg PUBLIC "-//W3C//DTD SVG 1.1//EN"
 "http://www.w3.org/Graphics/SVG/1.1/DTD/svg11.dtd">
<!-- Generated by graphviz version 2.43.0 (0)
 -->
<!-- Title: Engine/Source/Runtime/Components/Core/Transform.h Pages: 1 -->
<svg width="1429pt" height="247pt"
 viewBox="0.00 0.00 1428.50 247.00" xmlns="http://www.w3.org/2000/svg" xmlns:xlink="http://www.w3.org/1999/xlink">
<g id="graph0" class="graph" transform="scale(1 1) rotate(0) translate(4 243)">
<title>Engine/Source/Runtime/Components/Core/Transform.h</title>
<!-- Node1 -->
<g id="Node000001" class="node">
<title>Node1</title>
<g id="a_Node000001"><a xlink:title="位置、回転、拡大縮小を管理するコンポーネント。">
<polygon fill="#999999" stroke="#666666" points="760,-239 593,-239 593,-209 760,-209 760,-239"/>
<text text-anchor="start" x="601" y="-227" font-family="Helvetica,sans-Serif" font-size="10.00">Engine/Source/Runtime</text>
<text text-anchor="middle" x="676.5" y="-216" font-family="Helvetica,sans-Serif" font-size="10.00">/Components/Core/Transform.h</text>
</a>
</g>
</g>
<!-- Node2 -->
<g id="Node000002" class="node">
<title>Node2</title>
<g id="a_Node000002"><a xlink:href="EntityBuilder_8h.html" target="_top" xlink:title="エンティティ生成を簡略化するヘルパークラス。">
<polygon fill="white" stroke="#666666" points="417.5,-167.5 271.5,-167.5 271.5,-137.5 417.5,-137.5 417.5,-167.5"/>
<text text-anchor="start" x="279.5" y="-155.5" font-family="Helvetica,sans-Serif" font-size="10.00">Engine/Source/Runtime</text>
<text text-anchor="middle" x="344.5" y="-144.5" font-family="Helvetica,sans-Serif" font-size="10.00">/ECS/Kernel/EntityBuilder.h</text>
</a>
</g>
</g>
<!-- Node1&#45;&gt;Node2 -->
<g id="edge1_Node000001_Node000002" class="edge">
<title>Node1&#45;&gt;Node2</title>
<g id="a_edge1_Node000001_Node000002"><a xlink:title=" ">
<path fill="none" stroke="#63b8ff" d="M595.94,-206.96C548.11,-197.34 486.29,-184.73 431.5,-173 423.48,-171.28 415.05,-169.44 406.72,-167.6"/>
<polygon fill="#63b8ff" stroke="#63b8ff" points="595.44,-210.43 605.93,-208.97 596.82,-203.57 595.44,-210.43"/>
</a>
</g>
</g>
<!-- Node3 -->
<g id="Node000003" class="node">
<title>Node3</title>
<g id="a_Node000003"><a xlink:href="SpanEngine_8h.html" target="_top" xlink:title=" ">
<polygon fill="white" stroke="#666666" points="754,-96 599,-96 599,-77 754,-77 754,-96"/>
<text text-anchor="middle" x="676.5" y="-84" font-family="Helvetica,sans-Serif" font-size="10.00">Engine/Source/SpanEngine.h</text>
</a>
</g>
</g>
<!-- Node1&#45;&gt;Node3 -->
<g id="edge20_Node000001_Node000003" class="edge">
<title>Node1&#45;&gt;Node3</title>
<g id="a_edge20_Node000001_Node000003"><a xlink:title=" ">
<path fill="none" stroke="#63b8ff" d="M582.48,-213.78C509.2,-202.8 425.86,-179.59 464.5,-132 481.45,-111.12 545.61,-99.69 598.95,-93.65"/>
<polygon fill="#63b8ff" stroke="#63b8ff" points="582.34,-217.29 592.73,-215.24 583.33,-210.36 582.34,-217.29"/>
</a>
</g>
</g>
<!-- Node13 -->
<g id="Node000013" class="node">
<title>Node13</title>
<g id="a_Node000013"><a xlink:href="RelationshipSystem_8h.html" target="_top" xlink:title="エンティティ間の親子・兄弟関係 (階層構造) を操作するシステム。">
<polygon fill="white" stroke="#666666" points="671,-167.5 474,-167.5 474,-137.5 671,-137.5 671,-167.5"/>
<text text-anchor="start" x="482" y="-155.5" font-family="Helvetica,sans-Serif" font-size="10.00">Engine/Source/Runtime</text>
<text text-anchor="middle" x="572.5" y="-144.5" font-family="Helvetica,sans-Serif" font-size="10.00">/Systems/Core/RelationshipSystem.h</text>
</a>
</g>
</g>
<!-- Node1&#45;&gt;Node13 -->
<g id="edge12_Node000001_Node000013" class="edge">
<title>Node1&#45;&gt;Node13</title>
<g id="a_edge12_Node000001_Node000013"><a xlink:title=" ">
<path fill="none" stroke="#63b8ff" d="M646.95,-203.25C629.91,-191.86 608.87,-177.81 593.51,-167.54"/>
<polygon fill="#63b8ff" stroke="#63b8ff" points="645.19,-206.29 655.45,-208.94 649.08,-200.47 645.19,-206.29"/>
</a>
</g>
</g>
<!-- Node14 -->
<g id="Node000014" class="node">
<title>Node14</title>
<g id="a_Node000014"><a xlink:href="TransformSystem_8h.html" target="_top" xlink:title="ローカル座標からワールド座標への変換行列計算">
<polygon fill="white" stroke="#666666" points="874,-167.5 689,-167.5 689,-137.5 874,-137.5 874,-167.5"/>
<text text-anchor="start" x="697" y="-155.5" font-family="Helvetica,sans-Serif" font-size="10.00">Engine/Source/Runtime</text>
<text text-anchor="middle" x="781.5" y="-144.5" font-family="Helvetica,sans-Serif" font-size="10.00">/Systems/Core/TransformSystem.h</text>
</a>
</g>
</g>
<!-- Node1&#45;&gt;Node14 -->
<g id="edge14_Node000001_Node000014" class="edge">
<title>Node1&#45;&gt;Node14</title>
<g id="a_edge14_Node000001_Node000014"><a xlink:title=" ">
<path fill="none" stroke="#63b8ff" d="M706.33,-203.25C723.54,-191.86 744.78,-177.81 760.28,-167.54"/>
<polygon fill="#63b8ff" stroke="#63b8ff" points="704.16,-200.5 697.75,-208.94 708.02,-206.33 704.16,-200.5"/>
</a>
</g>
</g>
<!-- Node15 -->
<g id="Node000015" class="node">
<title>Node15</title>
<g id="a_Node000015"><a xlink:href="CameraSystem_8h.html" target="_top" xlink:title="カメラ行列の更新とレンダラーへの適用。">
<polygon fill="white" stroke="#666666" points="1085.5,-167.5 891.5,-167.5 891.5,-137.5 1085.5,-137.5 1085.5,-167.5"/>
<text text-anchor="start" x="899.5" y="-155.5" font-family="Helvetica,sans-Serif" font-size="10.00">Engine/Source/Runtime</text>
<text text-anchor="middle" x="988.5" y="-144.5" font-family="Helvetica,sans-Serif" font-size="10.00">/Systems/Graphics/CameraSystem.h</text>
</a>
</g>
</g>
<!-- Node1&#45;&gt;Node15 -->
<g id="edge16_Node000001_Node000015" class="edge">
<title>Node1&#45;&gt;Node15</title>
<g id="a_edge16_Node000001_Node000015"><a xlink:title=" ">
<path fill="none" stroke="#63b8ff" d="M749.72,-206.69C803.08,-194.8 874.63,-178.87 925.46,-167.54"/>
<polygon fill="#63b8ff" stroke="#63b8ff" points="748.64,-203.35 739.64,-208.94 750.16,-210.18 748.64,-203.35"/>
</a>
</g>
</g>
<!-- Node16 -->
<g id="Node000016" class="node">
<title>Node16</title>
<g id="a_Node000016"><a xlink:href="EditorCameraSystem_8h.html" target="_top" xlink:title="エディタ用フリーカメラの操作システム">
<polygon fill="white" stroke="#666666" points="1280,-173 1103,-173 1103,-132 1280,-132 1280,-173"/>
<text text-anchor="start" x="1111" y="-161" font-family="Helvetica,sans-Serif" font-size="10.00">Engine/Source/Runtime</text>
<text text-anchor="start" x="1111" y="-150" font-family="Helvetica,sans-Serif" font-size="10.00">/Systems/Graphics/EditorCamera</text>
<text text-anchor="middle" x="1191.5" y="-139" font-family="Helvetica,sans-Serif" font-size="10.00">System.h</text>
</a>
</g>
</g>
<!-- Node1&#45;&gt;Node16 -->
<g id="edge18_Node000001_Node000016" class="edge">
<title>Node1&#45;&gt;Node16</title>
<g id="a_edge18_Node000001_Node000016"><a xlink:title=" ">
<path fill="none" stroke="#63b8ff" d="M770.18,-213.94C855.09,-205.22 983.54,-190.76 1094.5,-173 1097.21,-172.57 1099.97,-172.11 1102.74,-171.64"/>
<polygon fill="#63b8ff" stroke="#63b8ff" points="769.64,-210.48 760.04,-214.98 770.35,-217.44 769.64,-210.48"/>
</a>
</g>
</g>
<!-- Node2&#45;&gt;Node3 -->
<g id="edge2_Node000002_Node000003" class="edge">
<title>Node2&#45;&gt;Node3</title>
<g id="a_edge2_Node000002_Node000003"><a xlink:title=" ">
<path fill="none" stroke="#63b8ff" d="M415.9,-135.25C421.17,-134.13 426.42,-133.03 431.5,-132 498.65,-118.38 576.57,-104.57 626.18,-96.02"/>
<polygon fill="#63b8ff" stroke="#63b8ff" points="414.78,-131.91 405.75,-137.44 416.26,-138.75 414.78,-131.91"/>
</a>
</g>
</g>
<!-- Node4 -->
<g id="Node000004" class="node">
<title>Node4</title>
<g id="a_Node000004"><a xlink:href="GuiManager_8cpp.html" target="_top" xlink:title=" ">
<polygon fill="white" stroke="#666666" points="117,-35.5 0,-35.5 0,-5.5 117,-5.5 117,-35.5"/>
<text text-anchor="start" x="8" y="-23.5" font-family="Helvetica,sans-Serif" font-size="10.00">Engine/Source/Editor</text>
<text text-anchor="middle" x="58.5" y="-12.5" font-family="Helvetica,sans-Serif" font-size="10.00">/GuiManager.cpp</text>
</a>
</g>
</g>
<!-- Node3&#45;&gt;Node4 -->
<g id="edge3_Node000003_Node000004" class="edge">
<title>Node3&#45;&gt;Node4</title>
<g id="a_edge3_Node000003_Node000004"><a xlink:title=" ">
<path fill="none" stroke="#63b8ff" d="M588.42,-83.87C479.04,-80.6 287.12,-70.73 125.5,-41 117.87,-39.6 109.87,-37.68 102.16,-35.59"/>
<polygon fill="#63b8ff" stroke="#63b8ff" points="588.65,-87.38 598.74,-84.17 588.85,-80.38 588.65,-87.38"/>
</a>
</g>
</g>
<!-- Node5 -->
<g id="Node000005" class="node">
<title>Node5</title>
<g id="a_Node000005"><a xlink:href="ImGuiUI_8cpp.html" target="_top" xlink:title=" ">
<polygon fill="white" stroke="#666666" points="252,-35.5 135,-35.5 135,-5.5 252,-5.5 252,-35.5"/>
<text text-anchor="start" x="143" y="-23.5" font-family="Helvetica,sans-Serif" font-size="10.00">Engine/Source/Editor</text>
<text text-anchor="middle" x="193.5" y="-12.5" font-family="Helvetica,sans-Serif" font-size="10.00">/ImGui/ImGuiUI.cpp</text>
</a>
</g>
</g>
<!-- Node3&#45;&gt;Node5 -->
<g id="edge4_Node000003_Node000005" class="edge">
<title>Node3&#45;&gt;Node5</title>
<g id="a_edge4_Node000003_Node000005"><a xlink:title=" ">
<path fill="none" stroke="#63b8ff" d="M588.59,-80.49C504.13,-74.63 373.23,-62.84 261.5,-41 253.91,-39.52 245.93,-37.58 238.22,-35.51"/>
<polygon fill="#63b8ff" stroke="#63b8ff" points="588.44,-83.98 598.65,-81.17 588.91,-77 588.44,-83.98"/>
</a>
</g>
</g>
<!-- Node6 -->
<g id="Node000006" class="node">
<title>Node6</title>
<g id="a_Node000006"><a xlink:href="HierarchyPanel_8cpp.html" target="_top" xlink:title=" ">
<polygon fill="white" stroke="#666666" points="422.5,-41 270.5,-41 270.5,0 422.5,0 422.5,-41"/>
<text text-anchor="start" x="278.5" y="-29" font-family="Helvetica,sans-Serif" font-size="10.00">Engine/Source/Editor</text>
<text text-anchor="start" x="278.5" y="-18" font-family="Helvetica,sans-Serif" font-size="10.00">/Panels/Hierarchy/Hierarchy</text>
<text text-anchor="middle" x="346.5" y="-7" font-family="Helvetica,sans-Serif" font-size="10.00">Panel.cpp</text>
</a>
</g>
</g>
<!-- Node3&#45;&gt;Node6 -->
<g id="edge5_Node000003_Node000006" class="edge">
<title>Node3&#45;&gt;Node6</title>
<g id="a_edge5_Node000003_Node000006"><a xlink:title=" ">
<path fill="none" stroke="#63b8ff" d="M615.76,-75.26C566.09,-66.7 494.1,-53.86 431.5,-41 428.68,-40.42 425.81,-39.82 422.92,-39.21"/>
<polygon fill="#63b8ff" stroke="#63b8ff" points="615.24,-78.73 625.69,-76.97 616.43,-71.83 615.24,-78.73"/>
</a>
</g>
</g>
<!-- Node7 -->
<g id="Node000007" class="node">
<title>Node7</title>
<g id="a_Node000007"><a xlink:href="InspectorPanel_8cpp.html" target="_top" xlink:title=" ">
<polygon fill="white" stroke="#666666" points="588,-41 441,-41 441,0 588,0 588,-41"/>
<text text-anchor="start" x="449" y="-29" font-family="Helvetica,sans-Serif" font-size="10.00">Engine/Source/Editor</text>
<text text-anchor="start" x="449" y="-18" font-family="Helvetica,sans-Serif" font-size="10.00">/Panels/Inspector/Inspector</text>
<text text-anchor="middle" x="514.5" y="-7" font-family="Helvetica,sans-Serif" font-size="10.00">Panel.cpp</text>
</a>
</g>
</g>
<!-- Node3&#45;&gt;Node7 -->
<g id="edge6_Node000003_Node000007" class="edge">
<title>Node3&#45;&gt;Node7</title>
<g id="a_edge6_Node000003_Node000007"><a xlink:title=" ">
<path fill="none" stroke="#63b8ff" d="M645.35,-73.19C622.29,-64.08 590.4,-51.49 563.88,-41.01"/>
<polygon fill="#63b8ff" stroke="#63b8ff" points="644.07,-76.45 654.65,-76.87 646.64,-69.94 644.07,-76.45"/>
</a>
</g>
</g>
<!-- Node8 -->
<g id="Node000008" class="node">
<title>Node8</title>
<g id="a_Node000008"><a xlink:href="ProjectBrowserPanel_8cpp.html" target="_top" xlink:title="ProjectBrowserPanelの実装。">
<polygon fill="white" stroke="#666666" points="746.5,-41 606.5,-41 606.5,0 746.5,0 746.5,-41"/>
<text text-anchor="start" x="614.5" y="-29" font-family="Helvetica,sans-Serif" font-size="10.00">Engine/Source/Editor</text>
<text text-anchor="start" x="614.5" y="-18" font-family="Helvetica,sans-Serif" font-size="10.00">/Panels/ProjectBrowser</text>
<text text-anchor="middle" x="676.5" y="-7" font-family="Helvetica,sans-Serif" font-size="10.00">/ProjectBrowserPanel.cpp</text>
</a>
</g>
</g>
<!-- Node3&#45;&gt;Node8 -->
<g id="edge7_Node000003_Node000008" class="edge">
<title>Node3&#45;&gt;Node8</title>
<g id="a_edge7_Node000003_Node000008"><a xlink:title=" ">
<path fill="none" stroke="#63b8ff" d="M676.5,-66.63C676.5,-58.56 676.5,-49.15 676.5,-41.01"/>
<polygon fill="#63b8ff" stroke="#63b8ff" points="673,-66.87 676.5,-76.87 680,-66.87 673,-66.87"/>
</a>
</g>
</g>
<!-- Node9 -->
<g id="Node000009" class="node">
<title>Node9</title>
<g id="a_Node000009"><a xlink:href="SceneViewPanel_8cpp.html" target="_top" xlink:title=" ">
<polygon fill="white" stroke="#666666" points="928.5,-41 764.5,-41 764.5,0 928.5,0 928.5,-41"/>
<text text-anchor="start" x="772.5" y="-29" font-family="Helvetica,sans-Serif" font-size="10.00">Engine/Source/Editor</text>
<text text-anchor="start" x="772.5" y="-18" font-family="Helvetica,sans-Serif" font-size="10.00">/Panels/SceneView/SceneView</text>
<text text-anchor="middle" x="846.5" y="-7" font-family="Helvetica,sans-Serif" font-size="10.00">Panel.cpp</text>
</a>
</g>
</g>
<!-- Node3&#45;&gt;Node9 -->
<g id="edge8_Node000003_Node000009" class="edge">
<title>Node3&#45;&gt;Node9</title>
<g id="a_edge8_Node000003_Node000009"><a xlink:title=" ">
<path fill="none" stroke="#63b8ff" d="M708.87,-73.32C733.09,-64.19 766.72,-51.53 794.68,-41.01"/>
<polygon fill="#63b8ff" stroke="#63b8ff" points="707.55,-70.07 699.43,-76.87 710.02,-76.62 707.55,-70.07"/>
</a>
</g>
</g>
<!-- Node10 -->
<g id="Node000010" class="node">
<title>Node10</title>
<g id="a_Node000010"><a xlink:href="EditorFileSystem_8cpp.html" target="_top" xlink:title="EditorFileSystemの実装。">
<polygon fill="white" stroke="#666666" points="1094.5,-35.5 946.5,-35.5 946.5,-5.5 1094.5,-5.5 1094.5,-35.5"/>
<text text-anchor="start" x="954.5" y="-23.5" font-family="Helvetica,sans-Serif" font-size="10.00">Engine/Source/Editor</text>
<text text-anchor="middle" x="1020.5" y="-12.5" font-family="Helvetica,sans-Serif" font-size="10.00">/Utils/EditorFileSystem.cpp</text>
</a>
</g>
</g>
<!-- Node3&#45;&gt;Node10 -->
<g id="edge9_Node000003_Node000010" class="edge">
<title>Node3&#45;&gt;Node10</title>
<g id="a_edge9_Node000003_Node000010"><a xlink:title=" ">
<path fill="none" stroke="#63b8ff" d="M742.37,-75.43C795.26,-67.06 871.37,-54.39 937.5,-41 945.62,-39.35 954.17,-37.5 962.55,-35.6"/>
<polygon fill="#63b8ff" stroke="#63b8ff" points="741.77,-71.98 732.44,-76.99 742.86,-78.89 741.77,-71.98"/>
</a>
</g>
</g>
<!-- Node11 -->
<g id="Node000011" class="node">
<title>Node11</title>
<g id="a_Node000011"><a xlink:href="Application_8cpp.html" target="_top" xlink:title=" ">
<polygon fill="white" stroke="#666666" points="1242.5,-35.5 1112.5,-35.5 1112.5,-5.5 1242.5,-5.5 1242.5,-35.5"/>
<text text-anchor="start" x="1120.5" y="-23.5" font-family="Helvetica,sans-Serif" font-size="10.00">Engine/Source/Runtime</text>
<text text-anchor="middle" x="1177.5" y="-12.5" font-family="Helvetica,sans-Serif" font-size="10.00">/Application.cpp</text>
</a>
</g>
</g>
<!-- Node3&#45;&gt;Node11 -->
<g id="edge10_Node000003_Node000011" class="edge">
<title>Node3&#45;&gt;Node11</title>
<g id="a_edge10_Node000003_Node000011"><a xlink:title=" ">
<path fill="none" stroke="#63b8ff" d="M764.21,-80.32C850.93,-74.27 987.13,-62.27 1103.5,-41 1111.6,-39.52 1120.12,-37.61 1128.38,-35.57"/>
<polygon fill="#63b8ff" stroke="#63b8ff" points="763.88,-76.83 754.15,-81.01 764.36,-83.82 763.88,-76.83"/>
</a>
</g>
</g>
<!-- Node12 -->
<g id="Node000012" class="node">
<title>Node12</title>
<g id="a_Node000012"><a xlink:href="AssetSerializer_8cpp.html" target="_top" xlink:title="AssetSerializerの実装。">
<polygon fill="white" stroke="#666666" points="1420.5,-35.5 1260.5,-35.5 1260.5,-5.5 1420.5,-5.5 1420.5,-35.5"/>
<text text-anchor="start" x="1268.5" y="-23.5" font-family="Helvetica,sans-Serif" font-size="10.00">Engine/Source/Runtime</text>
<text text-anchor="middle" x="1340.5" y="-12.5" font-family="Helvetica,sans-Serif" font-size="10.00">/Resource/AssetSerializer.cpp</text>
</a>
</g>
</g>
<!-- Node3&#45;&gt;Node12 -->
<g id="edge11_Node000003_Node000012" class="edge">
<title>Node3&#45;&gt;Node12</title>
<g id="a_edge11_Node000003_Node000012"><a xlink:title=" ">
<path fill="none" stroke="#63b8ff" d="M764.07,-82.49C877.16,-77.75 1079.87,-66.32 1251.5,-41 1261.36,-39.55 1271.75,-37.63 1281.83,-35.56"/>
<polygon fill="#63b8ff" stroke="#63b8ff" points="763.92,-79 754.07,-82.91 764.21,-85.99 763.92,-79"/>
</a>
</g>
</g>
<!-- Node13&#45;&gt;Node3 -->
<g id="edge13_Node000013_Node000003" class="edge">
<title>Node13&#45;&gt;Node3</title>
<g id="a_edge13_Node000013_Node000003"><a xlink:title=" ">
<path fill="none" stroke="#63b8ff" d="M603.95,-132.15C623.53,-120.1 647.75,-105.19 662.66,-96.02"/>
<polygon fill="#63b8ff" stroke="#63b8ff" points="602.01,-129.23 595.32,-137.45 605.67,-135.19 602.01,-129.23"/>
</a>
</g>
</g>
<!-- Node14&#45;&gt;Node3 -->
<g id="edge15_Node000014_Node000003" class="edge">
<title>Node14&#45;&gt;Node3</title>
<g id="a_edge15_Node000014_Node000003"><a xlink:title=" ">
<path fill="none" stroke="#63b8ff" d="M749.75,-132.15C729.98,-120.1 705.53,-105.19 690.47,-96.02"/>
<polygon fill="#63b8ff" stroke="#63b8ff" points="748.1,-135.24 758.46,-137.45 751.74,-129.26 748.1,-135.24"/>
</a>
</g>
</g>
<!-- Node15&#45;&gt;Node3 -->
<g id="edge17_Node000015_Node000003" class="edge">
<title>Node15&#45;&gt;Node3</title>
<g id="a_edge17_Node000015_Node000003"><a xlink:title=" ">
<path fill="none" stroke="#63b8ff" d="M910.05,-135.41C849.07,-122.9 766.88,-106.04 718.02,-96.02"/>
<polygon fill="#63b8ff" stroke="#63b8ff" points="909.53,-138.87 920.03,-137.45 910.94,-132.02 909.53,-138.87"/>
</a>
</g>
</g>
<!-- Node16&#45;&gt;Node3 -->
<g id="edge19_Node000016_Node000003" class="edge">
<title>Node16&#45;&gt;Node3</title>
<g id="a_edge19_Node000016_Node000003"><a xlink:title=" ">
<path fill="none" stroke="#63b8ff" d="M1092.73,-131.79C969.14,-113.19 836.13,-100.55 754.2,-93.61"/>
<polygon fill="#63b8ff" stroke="#63b8ff" points="1092.34,-135.27 1102.75,-133.32 1093.39,-128.35 1092.34,-135.27"/>
</a>
</g>
</g>
</g>
</svg>
